<svg width="37" height="37" viewBox="0 0 37 37" fill="none" xmlns="http://www.w3.org/2000/svg">
<path d="M8.8 2C5.06 2 2 4.97 2 8.6C2 12.23 5.06 15.2 8.8 15.2C12.54 15.2 15.6 12.23 15.6 8.6C15.6 4.97 12.54 2 8.8 2ZM8.23333 5.3H7.1C6.76 5.3 6.53333 5.52 6.53333 5.85V7.61C6.53333 7.995 6.42 8.325 6.19333 8.6C6.42 8.875 6.53333 9.26 6.53333 9.59V11.35C6.53333 11.68 6.76 11.9 7.1 11.9H8.23333V13H7.1C6.13667 13 5.4 12.285 5.4 11.35V9.59C5.4 9.48 5.4 9.15 5.17333 9.15C4.94667 9.15 4.26667 9.15 4.26667 9.15V8.05C4.26667 8.05 4.94667 8.05 5.17333 8.05C5.4 8.05 5.4 7.72 5.4 7.61V5.85C5.4 4.915 6.13667 4.2 7.1 4.2H8.23333V5.3ZM13.3333 9.15C13.3333 9.15 12.6533 9.15 12.4267 9.15C12.2 9.15 12.2 9.48 12.2 9.59V11.35C12.2 12.285 11.4633 13 10.5 13H9.36667V11.9H10.5C10.84 11.9 11.0667 11.68 11.0667 11.35V9.59C11.0667 9.205 11.18 8.875 11.4067 8.6C11.18 8.325 11.0667 7.94 11.0667 7.61V5.85C11.0667 5.52 10.84 5.3 10.5 5.3H9.36667V4.2H10.5C11.4633 4.2 12.2 4.915 12.2 5.85V7.61C12.2 7.775 12.2 8.05 12.4267 8.05C12.6533 8.05 13.3333 8.05 13.3333 8.05V9.15Z" fill="#016BE3"/>
<path d="M29.2 21.8C25.46 21.8 22.4 24.77 22.4 28.4C22.4 32.03 25.46 35 29.2 35C32.94 35 36 32.03 36 28.4C36 24.77 32.94 21.8 29.2 21.8ZM27.3867 31.37L26.4233 31.975L23.9867 28.4L26.48 24.77L27.4433 25.375L25.3467 28.4L27.3867 31.37ZM29.2 31.81L28.0667 31.6451L29.2 25.045L30.3333 25.21L29.2 31.81ZM31.92 32.03L30.9567 31.425L32.9967 28.455L30.9567 25.485L31.92 24.88L34.4133 28.51L31.92 32.03Z" fill="#016BE3"/>
<path d="M21.2667 28.4C21.2667 24.165 24.8367 20.7 29.2 20.7C29.9367 20.7 30.6167 20.81 31.24 20.975L33.1667 20.59V16.41L29.37 15.695C29.1433 14.925 28.8033 14.155 28.4067 13.44L30.56 10.305L27.5 7.28L24.27 9.37C23.5333 8.985 22.74 8.655 21.9467 8.435L21.1533 4.75H16.8467L16.45 6.62C16.62 7.28 16.7333 7.94 16.7333 8.6C16.7333 12.835 13.1633 16.3 8.80001 16.3C8.06334 16.3 7.38334 16.19 6.76001 16.025L4.83334 16.41V20.59L8.63001 21.305C8.85668 22.075 9.19668 22.845 9.59334 23.56L7.44001 26.75L10.5 29.72L13.73 27.63C14.4667 28.015 15.26 28.345 16.0533 28.565L16.79 32.25H21.0967L21.4933 30.38C21.38 29.775 21.2667 29.115 21.2667 28.4ZM19 22.35C16.79 22.35 15.0333 20.645 15.0333 18.5C15.0333 16.355 16.79 14.65 19 14.65C21.21 14.65 22.9667 16.355 22.9667 18.5C22.9667 20.645 21.21 22.35 19 22.35Z" fill="#016BE3" fill-opacity="0.53"/>
</svg>
