<svg width="37" height="37" viewBox="0 0 37 37" fill="none" xmlns="http://www.w3.org/2000/svg">
<path d="M22.0014 34.4183L21.3936 34.6018C21.2264 34.6521 21.0529 34.6776 20.8772 34.6776C20.2426 34.6776 19.6504 34.3369 19.3302 33.7886L17.672 30.9171C17.2548 30.1931 17.3887 29.2893 17.9965 28.7184L18.4583 28.2835L17.9957 27.8486C17.3887 27.2784 17.2548 26.3745 17.6713 25.652L19.3267 22.7847C19.6511 22.2301 20.2433 21.8901 20.8765 21.8901C21.0529 21.8901 21.2279 21.9163 21.3964 21.9673L21.9999 22.1486L22.1451 21.5303C22.3364 20.7185 23.0525 20.1511 23.8869 20.1511H26.2499V5.95761C26.2499 3.24045 24.0527 1.02975 21.3426 1.00212C21.3384 1.00212 21.3348 1.00212 21.3313 1.00212C21.3178 1.00212 21.3051 1 21.2916 1H9.95832C9.94486 1 9.93211 1.00212 9.91936 1.00212C9.91582 1.00212 9.91156 1.00212 9.90802 1.00212C7.19795 1.02975 5 3.24116 5 5.95761V30.0409C5 32.775 7.22487 34.9992 9.95832 34.9992H21.2916C21.5721 34.9992 21.8484 34.9723 22.1196 34.9269L22.0014 34.4183ZM22.9406 14.4732C23.1623 14.7367 23.1623 15.1227 22.9406 15.3862L20.2383 18.5907C20.0981 18.7571 19.8983 18.8421 19.6957 18.8421C19.5342 18.8421 19.3727 18.7876 19.2396 18.6757C18.9407 18.4235 18.9024 17.9766 19.1546 17.6776L21.4715 14.9293L19.1546 12.1817C18.9031 11.8828 18.9407 11.4358 19.2396 11.1837C19.5385 10.9315 19.9854 10.9698 20.2376 11.2687L22.9406 14.4732ZM12.0961 17.6776C12.3475 17.9766 12.31 18.4235 12.0111 18.6757C11.8779 18.7876 11.7164 18.8421 11.5549 18.8421C11.353 18.8421 11.1533 18.7564 11.0123 18.5907L8.31003 15.3862C8.08832 15.1227 8.08832 14.7367 8.31003 14.4732L11.0123 11.2687C11.2645 10.969 11.71 10.9308 12.0103 11.1837C12.3093 11.4358 12.3475 11.8828 12.0953 12.1817L9.7784 14.9293L12.0961 17.6776ZM11.4217 3.0492L11.1051 2.41524H20.1462L19.8296 3.0492C19.5881 3.53228 19.1029 3.83191 18.5624 3.83191H12.6896C12.1492 3.83191 11.6633 3.53228 11.4217 3.0492ZM14.1205 19.6518C14.0376 19.6518 13.954 19.6369 13.8711 19.6064C13.5049 19.469 13.3201 19.0603 13.4568 18.6941L16.4672 10.6666C16.6046 10.2997 17.0126 10.1162 17.3795 10.2522C17.7457 10.3896 17.9306 10.7983 17.7939 11.1645L14.7835 19.1921C14.6772 19.4761 14.4073 19.6518 14.1205 19.6518Z" fill="#016BE3"/>
<path d="M31.5072 29.1777C31.2656 28.9511 31.1275 28.6302 31.1275 28.276C31.1275 27.9403 31.267 27.6166 31.5114 27.3871L32.1177 26.8169C32.2438 26.6986 32.2714 26.5095 32.1843 26.3593L30.5297 23.4934C30.444 23.3439 30.2662 23.2724 30.0997 23.3234L29.3609 23.5458C29.0216 23.6492 28.6512 23.6039 28.3345 23.419C28.0342 23.2448 27.8168 22.9501 27.7367 22.6122L27.5582 21.8557C27.5193 21.6878 27.3691 21.5688 27.1963 21.5688H23.8869C23.7141 21.5688 23.5639 21.6878 23.525 21.8557L23.3465 22.6122C23.2664 22.9501 23.049 23.2448 22.7316 23.4289C22.4299 23.6053 22.0637 23.6478 21.7287 23.5479L20.9835 23.3234C20.8192 23.2731 20.6407 23.3446 20.5535 23.4934L18.8989 26.3593C18.8125 26.5087 18.8401 26.6986 18.9655 26.8169L19.5718 27.3871C19.8162 27.6166 19.9557 27.9403 19.9557 28.2923C19.9557 28.6281 19.8162 28.9518 19.5718 29.1813L18.9655 29.7515C18.8394 29.8698 18.8117 30.0589 18.8989 30.2091L20.5535 33.075C20.6399 33.2244 20.8184 33.2953 20.9835 33.2457L21.7287 33.0211C22.0637 32.9198 22.4327 32.9645 22.7494 33.1501C23.049 33.3243 23.2664 33.6183 23.3465 33.9554L23.525 34.7133C23.5639 34.8819 23.7141 35.0002 23.8869 35.0002H27.1963C27.3691 35.0002 27.5193 34.8812 27.5582 34.7133L27.7367 33.9561C27.8168 33.6183 28.0342 33.325 28.3459 33.143C28.6519 32.9645 29.0202 32.9198 29.3545 33.0218L30.0997 33.2464C30.2669 33.2967 30.444 33.2251 30.5297 33.0757L32.1843 30.2098C32.2707 30.0603 32.2431 29.8705 32.1177 29.7522L31.5072 29.1784V29.1777ZM25.5423 31.1179C23.9776 31.1179 22.709 29.8492 22.709 28.2845C22.709 26.7198 23.9776 25.4512 25.5423 25.4512C27.107 25.4512 28.3756 26.7198 28.3756 28.2845C28.3756 29.8492 27.107 31.1179 25.5423 31.1179Z" fill="#016BE3" fill-opacity="0.58"/>
</svg>
