<svg width="30" height="30" viewBox="0 0 30 30" fill="none" xmlns="http://www.w3.org/2000/svg">
<path d="M26.4833 23.0185H26.2667V10.6685C26.2667 9.69349 25.725 8.82682 24.8583 8.39349V9.58516C25.075 9.80182 25.1833 10.2352 25.1833 10.5602V22.9102H18.7917L18.0333 24.4268C17.8167 24.7518 17.4917 24.8602 17.1667 24.8602H12.725C12.4 24.8602 12.075 24.6435 11.8583 24.4268L11.2083 22.9102H4.81667V10.6685C4.81667 10.3435 4.925 9.91016 5.14167 9.69349V8.28516C4.38333 8.71849 3.73333 9.58516 3.73333 10.6685V23.0185H3.51667C2.75833 23.0185 2 23.6685 2 24.5352C2 26.4852 3.51667 28.0018 5.46667 28.0018H24.6417C26.4833 28.0018 28 26.4852 28 24.5352C28 23.6685 27.35 23.0185 26.4833 23.0185Z" fill="#FBD278"/>
<path d="M23.4499 6.11784L19.6582 2.32617V5.57617C19.6582 5.90117 19.8749 6.11784 20.1999 6.11784H23.4499Z" fill="#FBD278"/>
<path d="M7.74225 2C6.87559 2 6.22559 2.65 6.22559 3.51667V21.9333H23.7756V7.09167H20.2006C19.3339 7.09167 18.6839 6.44167 18.6839 5.575V2H7.74225ZM13.2673 19.225C13.2673 19.4417 13.0506 19.6583 12.8339 19.6583H9.90892C9.69225 19.6583 9.47559 19.4417 9.47559 19.225V16.3C9.47559 16.0833 9.69225 15.8667 9.90892 15.8667H12.8339C13.0506 15.8667 13.2673 16.0833 13.2673 16.3V19.225ZM13.2673 12.2917C13.2673 12.5083 13.0506 12.725 12.8339 12.725H9.90892C9.69225 12.725 9.47559 12.5083 9.47559 12.2917V9.36667C9.47559 9.15 9.69225 8.93333 9.90892 8.93333H12.8339C13.0506 8.93333 13.2673 9.15 13.2673 9.36667V12.2917ZM18.1423 19.4417H15.3256C15.0006 19.4417 14.7839 19.225 14.7839 18.9C14.7839 18.575 15.0006 18.3583 15.3256 18.3583H18.1423C18.4673 18.3583 18.6839 18.575 18.6839 18.9C18.6839 19.225 18.4673 19.4417 18.1423 19.4417ZM20.4173 17.1667H15.3256C15.0006 17.1667 14.7839 16.95 14.7839 16.625C14.7839 16.3 15.0006 16.0833 15.3256 16.0833H20.4173C20.7423 16.0833 20.9589 16.3 20.9589 16.625C20.9589 16.95 20.7423 17.1667 20.4173 17.1667ZM14.7839 12.075C14.7839 11.75 15.0006 11.5333 15.3256 11.5333H18.1423C18.4673 11.5333 18.6839 11.75 18.6839 12.075C18.6839 12.4 18.4673 12.6167 18.1423 12.6167H15.3256C15.0006 12.5083 14.7839 12.2917 14.7839 12.075ZM20.4173 9.25833C20.7423 9.25833 20.9589 9.475 20.9589 9.8C20.9589 10.125 20.7423 10.3417 20.4173 10.3417H15.3256C15.0006 10.3417 14.7839 10.125 14.7839 9.8C14.7839 9.475 15.0006 9.25833 15.3256 9.25833H20.4173Z" fill="#FFB81D"/>
</svg>
