<svg width="22" height="22" viewBox="0 0 22 22" fill="none" xmlns="http://www.w3.org/2000/svg">
<path d="M12.4387 15.1685L12.7721 15.3607L12.6215 15.6177C12.2518 16.2645 11.774 16.8435 11.2089 17.329C10.8333 17.661 10.3689 17.8758 9.87271 17.9474C9.41798 18.0369 8.94742 17.9102 8.59915 17.6046C8.44762 17.4683 8.33504 17.2941 8.27236 17.1003C8.20968 16.9063 8.19935 16.6992 8.24248 16.5C8.33277 16.0206 8.46249 15.5482 8.59672 15.0804C9.00897 13.6353 9.43268 12.1926 9.84494 10.7499C9.89453 10.5504 9.93007 10.3475 9.95155 10.1432C9.96835 9.9797 9.91617 9.81687 9.80746 9.69362C9.6989 9.57052 9.54367 9.49832 9.37953 9.49477H8.91642C8.95341 9.36974 8.98362 9.26312 9.02529 9.14052C9.02529 9.11742 9.08554 9.1011 9.12027 9.09658C10.1761 8.91582 11.2322 8.74443 12.3068 8.57999C12.5148 8.56481 12.7238 8.56481 12.9319 8.57999C12.8463 8.87641 12.7628 9.17056 12.6772 9.46231C12.0951 11.4801 11.5139 13.4972 10.9334 15.5135C10.8662 15.7452 10.8292 15.9767 10.7736 16.2222C10.7316 16.3676 10.7936 16.523 10.9242 16.5996C11.0445 16.6761 11.2028 16.6537 11.297 16.5464C11.5042 16.3592 11.6992 16.1589 11.8806 15.9466C12.0636 15.7266 12.2187 15.4835 12.3854 15.2519C12.4014 15.2229 12.4192 15.1952 12.4387 15.1685L12.4387 15.1685Z" fill="#016BE3"/>
<path d="M10.9097 5.49079C10.906 5.11264 11.0529 4.74854 11.3178 4.47875C11.5829 4.20899 11.9442 4.05571 12.3224 4.0526C12.7072 4.04404 13.0796 4.18926 13.357 4.45628C13.6344 4.7233 13.7937 5.08982 13.7996 5.47478C13.8056 5.85973 13.6578 6.23109 13.3889 6.50667C13.1201 6.78209 12.7524 6.93893 12.3675 6.94233C11.9824 6.94572 11.6121 6.79533 11.3385 6.52445C11.0647 6.25371 10.9104 5.88492 10.9098 5.5L10.9097 5.49079Z" fill="#016BE3"/>
<path d="M11 0C8.08264 0 5.28455 1.15885 3.22184 3.22184C1.15885 5.28467 0 8.08252 0 11C0 13.9175 1.15885 16.7155 3.22184 18.7782C5.28467 20.8412 8.08252 22 11 22C13.9175 22 16.7155 20.8412 18.7782 18.7782C20.8412 16.7153 22 13.9175 22 11C21.9963 8.08376 20.8363 5.28827 18.7741 3.22598C16.7119 1.16381 13.9163 0.00380451 11.0001 8.27008e-05L11 0ZM11 20.0452C8.60101 20.0452 6.30019 19.0923 4.60387 17.3959C2.90743 15.6996 1.95453 13.3988 1.95453 10.9998C1.95453 8.60068 2.90743 6.29994 4.60387 4.60362C6.30019 2.90718 8.60092 1.95428 11 1.95428C13.3991 1.95428 15.6998 2.90718 17.3961 4.60362C19.0926 6.29994 20.0455 8.60068 20.0455 10.9998C20.0431 13.3981 19.0893 15.6975 17.3935 17.3934C15.6977 19.0892 13.3984 20.0429 10.9999 20.0453L11 20.0452Z" fill="#016BE3" fill-opacity="0.58"/>
</svg>
