<svg width="30" height="30" viewBox="0 0 30 30" fill="none" xmlns="http://www.w3.org/2000/svg">
<path fill-rule="evenodd" clip-rule="evenodd" d="M19.1705 28.0425C19.5925 28.4902 19.5925 29.2164 19.1705 29.664C18.7482 30.1116 18.0638 30.1116 17.6418 29.664L14.4903 26.3216C14.0683 25.874 14.0683 25.1477 14.4903 24.7001L17.6418 21.3577C18.0638 20.9101 18.7482 20.9101 19.1702 21.3577C19.5925 21.8053 19.5925 22.5316 19.1702 22.9792L16.7833 25.5109L19.1705 28.0425ZM22.0983 22.9792C21.676 22.5315 21.676 21.8056 22.0983 21.3577C22.5203 20.9101 23.2047 20.9101 23.627 21.3577L26.7782 24.7001C27.2002 25.148 27.2002 25.874 26.7782 26.3216L23.627 29.664C23.2047 30.1116 22.5203 30.1116 22.0983 29.664C21.676 29.2164 21.676 28.4904 22.0983 28.0425L24.4852 25.5108L22.0983 22.9792Z" fill="#FFB81D" fill-opacity="0.58"/>
<path fill-rule="evenodd" clip-rule="evenodd" d="M3 4.34241C3 2.49638 4.49638 1 6.34241 1H19.712C21.5581 1 23.0544 2.49638 23.0544 4.34241V17.712C23.0544 18.3273 22.5556 18.8262 21.9403 18.8262H17.2925C16.9971 18.8262 16.7138 18.9436 16.5047 19.1524L11.6082 24.0489C11.2692 24.3881 11.1852 24.9062 11.3995 25.3351L12.9096 28.3553C13.0822 28.7005 13.0638 29.1105 12.8609 29.439C12.6577 29.7676 12.2993 29.9675 11.9131 29.9675H6.34241C4.49638 29.9675 3 28.4711 3 26.6251L3 4.34241ZM9.68481 3.22827C9.06955 3.22827 8.57068 3.72714 8.57068 4.34241C8.57068 4.95767 9.06955 5.45654 9.68481 5.45654H16.3696C16.9849 5.45654 17.4838 4.95767 17.4838 4.34241C17.4838 3.72714 16.9849 3.22827 16.3696 3.22827H9.68481Z" fill="#FFB81D"/>
</svg>
