<svg width="30" height="30" viewBox="0 0 30 30" fill="none" xmlns="http://www.w3.org/2000/svg">
<path d="M12.5002 21.2501C12.5002 16.6776 16.0281 12.9199 20.5016 12.5369C20.2542 11.7292 19.9706 10.9476 19.6144 10.2397C15.3564 13.24 9.6435 13.2376 5.38796 10.2368C5.00946 10.9938 4.70915 11.8313 4.45308 12.698L0.957111 11.2502L0 13.5599L3.91844 15.1806C3.81826 15.935 3.75129 16.7043 3.75129 17.5003H0.00133292V19.9999H3.92707C4.03092 20.7349 4.18682 21.4451 4.37751 22.1265L0.00130584 23.9403L0.957077 26.25L5.2396 24.4752C6.81144 27.8074 9.47659 29.9999 12.5011 29.9999C13.9498 29.9999 15.3121 29.4872 16.5158 28.5963C14.1036 27.0386 12.4995 24.3285 12.4995 21.2504L12.5002 21.2501Z" fill="#FFB81D"/>
<path d="M16.0079 6.06434L18.1249 0.95684L15.8154 0L13.6914 5.12953C13.3006 5.05105 12.9051 4.99979 12.5012 4.99979C12.0958 4.99979 11.6992 5.05106 11.3085 5.12953L9.18447 0L6.87476 0.957108L8.99169 6.06722C8.16408 6.58958 7.40023 7.27805 6.72852 8.12266C10.1635 10.6029 14.8378 10.6029 18.2737 8.12266C17.602 7.27751 16.8366 6.58665 16.0077 6.06434H16.0079Z" fill="#FFB81D"/>
<path d="M26.461 24.6919C27.1139 23.7031 27.4997 22.5214 27.4997 21.2496C27.4997 17.7973 24.7019 14.9995 21.2501 14.9995C17.7978 14.9995 15 17.7973 15 21.2496C15 24.7014 17.7978 27.4992 21.2501 27.4992C22.5232 27.4992 23.7047 27.1136 24.6938 26.4594L28.2321 29.9993L29.9998 28.2316L26.461 24.6919ZM21.2501 24.9995C19.1787 24.9995 17.5002 23.32 17.5002 21.2496C17.5002 19.1769 19.1787 17.4996 21.2501 17.4996C23.3213 17.4996 25.0001 19.1769 25.0001 21.2496C25.0001 23.32 23.3213 24.9995 21.2501 24.9995Z" fill="#FFB81D" fill-opacity="0.58"/>
</svg>
