<svg width="42" height="42" viewBox="0 0 42 42" fill="none" xmlns="http://www.w3.org/2000/svg">
<path d="M39.1461 26.5885H32.0142C31.6523 26.5885 31.3167 26.4479 31.0598 26.1854L29.7043 24.8297C29.1587 24.2934 28.4462 23.999 27.6944 23.999H22.3469C20.7758 23.999 19.4971 25.2778 19.4971 26.8491V39.1497C19.4971 40.721 20.7758 41.9998 22.3469 41.9998H39.1461C40.7173 41.9998 41.996 40.721 41.996 39.1497V29.4369C41.996 27.8656 40.7173 26.5868 39.1461 26.5868V26.5885ZM27.5273 36.0147C27.8198 36.3072 27.8198 36.7816 27.5273 37.076C27.3811 37.2222 27.1898 37.2953 26.9967 37.2953C26.8055 37.2953 26.6124 37.2222 26.4661 37.076L24.2162 34.8259C23.9237 34.5333 23.9237 34.0589 24.2162 33.7646L26.4661 31.5145C26.7586 31.222 27.233 31.222 27.5273 31.5145C27.8198 31.807 27.8198 32.2814 27.5273 32.5758L25.808 34.2952L27.5273 36.0147ZM32.2071 32.2814L30.7072 36.7816C30.6022 37.0966 30.3097 37.2935 29.9966 37.2935C29.9178 37.2935 29.8391 37.2804 29.7585 37.2541C29.3666 37.1229 29.1529 36.6991 29.2841 36.3053L30.784 31.8051C30.9153 31.4132 31.3371 31.1995 31.7328 31.3307C32.1246 31.462 32.3383 31.8857 32.2071 32.2795L32.2071 32.2814ZM37.2766 34.8259L35.0267 37.076C34.8805 37.2223 34.6893 37.2954 34.4961 37.2954C34.3049 37.2954 34.1118 37.2223 33.9655 37.076C33.673 36.7835 33.673 36.3091 33.9655 36.0147L35.6848 34.2953L33.9655 32.5759C33.673 32.2833 33.673 31.8089 33.9655 31.5146C34.258 31.2221 34.7324 31.2221 35.0267 31.5146L37.2766 33.7647C37.5691 34.0572 37.5691 34.5316 37.2766 34.8259Z" fill="#FBD278"/>
<path d="M27.6947 22.5016C28.8421 22.5016 29.9296 22.9516 30.7546 23.7616L32.082 25.0892H32.262C32.7269 23.8141 32.9969 22.4416 32.9969 21.0015C32.9969 14.3863 27.612 9.00098 20.9975 9.00098C14.3829 9.00098 8.99805 14.3863 8.99805 21.0015C8.99805 26.5817 12.8304 31.2696 17.9976 32.6046V26.852C17.9976 24.4519 19.9475 22.5018 22.3474 22.5018L27.6947 22.5016Z" fill="#FFB81D"/>
<path d="M40.4965 18.0009H38.7416C38.2935 15.3289 37.2379 12.7845 35.6668 10.5736L36.9061 9.33228C37.4911 8.74723 37.4911 7.79472 36.9061 7.21154L34.7855 5.09081C34.2005 4.50576 33.2481 4.50576 32.665 5.09081L31.4257 6.33023C29.2152 4.75705 26.671 3.70322 23.999 3.25512V1.50006C23.999 0.673133 23.3259 0 22.4991 0H19.4992C18.6724 0 17.9993 0.673133 17.9993 1.50006V3.25512C15.3276 3.70326 12.7834 4.75893 10.5726 6.33023L9.33331 5.09081C9.0502 4.80768 8.67334 4.65017 8.274 4.65017H8.27212C7.87089 4.65017 7.4959 4.8058 7.21094 5.08894L5.0904 7.20967C4.5054 7.79472 4.5054 8.74722 5.0904 9.3304L6.33157 10.5717C4.75854 12.7824 3.7048 15.3269 3.25482 17.999H1.49993C0.673072 17.999 0 18.6722 0 19.4991V22.4992C0 23.3262 0.673072 23.9993 1.49993 23.9993H3.25482C3.70292 26.6713 4.75849 29.2157 6.33157 31.4267L5.0904 32.668C4.5054 33.253 4.5054 34.2055 5.0904 34.7887L7.21094 36.9094C7.49405 37.1926 7.87091 37.3482 8.27212 37.3482H8.274C8.67523 37.3482 9.05022 37.1907 9.33331 36.9094L10.5745 35.67C12.785 37.2432 15.3292 38.297 18.0012 38.7451V34.153C11.9995 32.7842 7.50166 27.4121 7.50166 20.9995C7.50166 13.5554 13.5575 7.49893 21.001 7.49893C28.4445 7.49893 34.5004 13.5554 34.5004 20.9995C34.5004 22.4246 34.2754 23.7971 33.8648 25.0872H38.5258C38.6102 24.7272 38.6852 24.3653 38.7452 23.9996H40.5001C41.3269 23.9996 42 23.3265 42 22.4996V19.4995C42 18.6725 41.3269 17.9994 40.5001 17.9994L40.4965 18.0009Z" fill="#FFB81D"/>
</svg>
