<svg width="23" height="22" viewBox="0 0 23 22" fill="none" xmlns="http://www.w3.org/2000/svg">
<g clip-path="url(#clip0_5703_18344)">
<path d="M7.69258 0C3.44767 0 0 3.29776 0 7.35813C0 11.4184 3.44767 14.7162 7.69258 14.7162C11.9374 14.7162 15.3851 11.4184 15.3851 7.35813C15.3851 3.29776 11.9374 0 7.69258 0ZM9.90942 8.10056L8.56675 8.84312L7.22401 9.58562C6.62261 9.91333 5.88134 9.49867 5.88134 8.84312V5.8732C5.88134 5.21763 6.62261 4.8029 7.22401 5.13067L8.56675 5.8732L9.90942 6.61569C10.5039 6.9434 10.5039 7.77279 9.90942 8.10056Z" fill="#016BE3"/>
<path d="M13.3546 17.7223L10.5664 21.98C10.6332 21.9861 10.6978 22.0001 10.7662 22.0001H16.161L13.3546 17.7223Z" fill="#016BE3"/>
<path d="M20.8538 7.94446H17.2509C16.9078 12.5149 13.2549 16.1812 8.70117 16.5256V20.1417C8.70117 20.7372 8.94426 21.2753 9.33737 21.67L12.1467 17.3005C12.4113 16.8915 12.8545 16.6404 13.3478 16.6404C13.841 16.6404 14.2843 16.8915 14.5488 17.3005L16.9006 20.9525L17.8657 19.4529C18.1302 19.0439 18.5734 18.7928 19.0667 18.7928C19.5599 18.7928 20.0032 19.0439 20.2677 19.4529L21.9047 22C22.5552 21.6341 22.9985 20.9381 22.9985 20.1417V10.0969C22.9985 8.91304 22.0334 7.94446 20.8538 7.94446ZM17.2795 16.5543C16.4931 16.5543 15.8498 15.9086 15.8498 15.1193C15.8498 14.3301 16.4931 13.6844 17.2795 13.6844C18.0659 13.6844 18.7092 14.3301 18.7092 15.1193C18.7092 15.9086 18.0659 16.5543 17.2795 16.5543Z" fill="#68A5EB"/>
<path d="M18.9512 20.1666L17.4043 21.9861L17.4162 22H20.5124L18.9512 20.1666Z" fill="#016BE3"/>
</g>
<defs>
<clipPath id="clip0_5703_18344">
<rect width="23" height="22" fill="white"/>
</clipPath>
</defs>
</svg>
