<svg width="32" height="32" viewBox="0 0 32 32" fill="none" xmlns="http://www.w3.org/2000/svg">
<path d="M24.8235 12.3637V14.5454H26.3749L26.3751 12.3637C26.3751 11.7849 26.1299 11.2299 25.6933 10.8208C25.257 10.4118 24.665 10.1819 24.0479 10.1819H17.0663V2.18175C17.0663 1.6032 16.8211 1.04824 16.3845 0.63919C15.9482 0.229869 15.3562 0 14.7391 0H2.3272C1.71008 0 1.11812 0.229863 0.681536 0.63919C0.245187 1.04827 0 1.60321 0 2.18175V31.2719C0 31.4648 0.0818176 31.6498 0.227267 31.7862C0.372717 31.9226 0.57011 31.9993 0.775821 31.9993H4.65439V22.5448C4.65439 21.9663 4.89958 21.4113 5.33593 21.002C5.77254 20.5929 6.36449 20.3631 6.98159 20.3631H10.0846C10.7017 20.3631 11.2937 20.5929 11.73 21.002C12.1666 21.4113 12.4118 21.9663 12.4118 22.5448V31.9993H16.2904C16.4961 31.9993 16.6935 31.9226 16.8389 31.7862C16.9844 31.6498 17.0662 31.4648 17.0662 31.2719V11.6362H24.0478C24.2535 11.6362 24.4506 11.7129 24.5963 11.8493C24.7418 11.9856 24.8235 12.1708 24.8235 12.3637ZM7.75782 18.1816C7.75782 18.3744 7.676 18.5595 7.53055 18.6958C7.3851 18.8322 7.18771 18.9089 6.982 18.9089H3.87898C3.45068 18.9089 3.10342 18.5831 3.10342 18.1816V15.2725C3.10342 14.871 3.45069 14.5454 3.87898 14.5454H6.982C7.18771 14.5454 7.3851 14.6219 7.53055 14.7582C7.676 14.8948 7.75782 15.0796 7.75782 15.2725V18.1816ZM7.75782 12.3637C7.75782 12.5565 7.676 12.7413 7.53055 12.8779C7.3851 13.0143 7.18771 13.0907 6.982 13.0907H3.87898C3.45068 13.0907 3.10342 12.7652 3.10342 12.3637V9.45458C3.10342 9.05305 3.45069 8.72725 3.87898 8.72725H6.982C7.18771 8.72725 7.3851 8.80395 7.53055 8.94031C7.676 9.07667 7.75782 9.26172 7.75782 9.45458V12.3637ZM7.75782 6.54574C7.75782 6.73859 7.676 6.92341 7.53055 7.05977C7.3851 7.19613 7.18771 7.27283 6.982 7.27283H3.87898C3.45068 7.27283 3.10342 6.94727 3.10342 6.5455V3.63667C3.10342 3.23489 3.45069 2.90933 3.87898 2.90933H6.982C7.18771 2.90933 7.3851 2.98604 7.53055 3.1224C7.676 3.25876 7.75782 3.44381 7.75782 3.63667V6.54574ZM13.9636 18.1819C13.9636 18.3748 13.8818 18.5596 13.7363 18.696C13.5909 18.8323 13.3935 18.909 13.1878 18.909H10.085C9.65646 18.909 9.30919 18.5832 9.30919 18.1817V15.2726C9.30919 14.8711 9.65646 14.5455 10.085 14.5455H13.188C13.3937 14.5455 13.5909 14.622 13.7363 14.7583C13.8818 14.895 13.9636 15.0798 13.9636 15.2726L13.9636 18.1819ZM13.9636 12.364C13.9636 12.5569 13.8818 12.7414 13.7363 12.878C13.5909 13.0144 13.3935 13.0909 13.1878 13.0909H10.085C9.65646 13.0909 9.30919 12.7653 9.30919 12.3638V9.45471C9.30919 9.05318 9.65646 8.72738 10.085 8.72738H13.188C13.3937 8.72738 13.5909 8.80408 13.7363 8.94044C13.8818 9.0768 13.9636 9.26185 13.9636 9.45471L13.9636 12.364ZM13.9636 6.54611C13.9636 6.73897 13.8818 6.92354 13.7363 7.0599C13.5909 7.19626 13.3935 7.27296 13.1878 7.27296H10.085C9.65646 7.27296 9.30919 6.9474 9.30919 6.54563V3.6368C9.30919 3.23503 9.65646 2.90947 10.085 2.90947H13.188C13.3937 2.90947 13.5909 2.98617 13.7363 3.12253C13.8818 3.25889 13.9636 3.44394 13.9636 3.6368L13.9636 6.54611ZM4.6548 4.36387H6.20618V5.81828L4.6548 5.81853V4.36387ZM4.6548 10.1818H6.20618V11.6362L4.6548 11.6364V10.1818ZM4.6548 15.9997H6.20618V17.4541L4.6548 17.4543V15.9997ZM10.8606 15.9997H12.4119V17.4541L10.8606 17.4543V15.9997ZM10.8606 22.5449V31.9994H6.20618V22.5449C6.20618 22.1434 6.5537 21.8176 6.982 21.8176H10.085C10.2907 21.8176 10.4879 21.8943 10.6336 22.0307C10.779 22.167 10.8606 22.3521 10.8606 22.5449ZM10.8606 4.36412H12.4119V5.81853L10.8606 5.81878V4.36412ZM10.8606 10.182H12.4119V11.6364L10.8606 11.6367V10.182ZM18.6181 14.5455V13.0911H23.2725V14.5455H18.6181Z" fill="#FFB81D"/>
<path d="M27.7326 22.4544C27.3554 22.4544 26.9935 22.3108 26.7268 22.0551C26.4602 21.7995 26.3104 21.4525 26.3104 21.0909V17H21.3326C20.7668 17 20.2242 17.2155 19.824 17.599C19.424 17.9828 19.1992 18.503 19.1992 19.0454V29.9546C19.1992 30.497 19.424 31.0173 19.824 31.4008C20.2242 31.7845 20.7669 32 21.3326 32H29.8659C30.4316 32 30.9742 31.7845 31.3745 31.4008C31.7745 31.0172 31.9992 30.497 31.9992 29.9546V22.4543L27.7326 22.4544ZM29.1547 28.5907H22.044V27.2271H29.1547V28.5907ZM29.1547 25.8634L22.044 25.8636V24.4998H29.1547V25.8634ZM27.0214 21.0906V17.6819C27.0228 17.4066 27.1968 17.1591 27.4623 17.0546C27.7271 16.9477 28.033 17.0044 28.2376 17.1977L31.793 20.6067C31.9947 20.8028 32.0538 21.0961 31.9423 21.35C31.8333 21.6045 31.5752 21.7714 31.2881 21.7728H27.7326C27.34 21.7728 27.0214 21.4673 27.0214 21.0909L27.0214 21.0906Z" fill="#FFB81D" fill-opacity="0.58"/>
</svg>
