<svg width="32" height="32" viewBox="0 0 32 32" fill="none" xmlns="http://www.w3.org/2000/svg">
<path d="M31.5077 28.1304H0.492278C0.19696 28.1304 0 28.3289 0 28.6265V31.5039C0 31.8015 0.196954 32 0.492278 32H31.5077C31.803 32 32 31.8015 32 31.5039V28.6265C32 28.3784 31.803 28.1304 31.5077 28.1304Z" fill="#FFB81D"/>
<path d="M11.8145 21.2344H14.2761V24.1118H11.8145V21.2344Z" fill="#FFB81D" fill-opacity="0.58"/>
<path d="M11.8145 15.2803H14.2761V18.1577H11.8145V15.2803Z" fill="#FFB81D" fill-opacity="0.58"/>
<path d="M17.7217 21.2344H20.1833V24.1118H17.7217V21.2344Z" fill="#FFB81D" fill-opacity="0.58"/>
<path d="M11.8145 9.37695H14.2761V12.2544H11.8145V9.37695Z" fill="#FFB81D" fill-opacity="0.58"/>
<path d="M11.8145 3.47266H14.2761V6.35011H11.8145V3.47266Z" fill="#FFB81D" fill-opacity="0.58"/>
<path d="M17.7217 15.2803H20.1833V18.1577H17.7217V15.2803Z" fill="#FFB81D" fill-opacity="0.58"/>
<path d="M17.7217 3.47266H20.1833V6.35011H17.7217V3.47266Z" fill="#FFB81D" fill-opacity="0.58"/>
<path d="M17.7217 9.37695H20.1833V12.2544H17.7217V9.37695Z" fill="#FFB81D" fill-opacity="0.58"/>
<path d="M23.5822 0.496326C23.5822 0.198717 23.3361 0.000228378 23.09 0.000228378L8.91122 0C8.6159 0 8.41895 0.198482 8.41895 0.496098V27.1382H23.5817L23.5822 0.496326ZM15.2625 24.5581C15.2625 24.8061 15.0164 25.0542 14.7702 25.0542H11.3241C11.0287 25.0542 10.8318 24.8061 10.8318 24.5581V20.6882C10.8318 20.3905 11.0287 20.1921 11.3241 20.1921H14.7702C15.0164 20.1921 15.2625 20.3905 15.2625 20.6882V24.5581ZM15.2625 18.6542C15.2625 18.9518 15.0164 19.1503 14.7702 19.1503H11.3241C11.0287 19.1503 10.8318 18.9518 10.8318 18.6542V14.7843C10.8318 14.4867 11.0287 14.2882 11.3241 14.2882H14.7702C15.0164 14.2882 15.2625 14.4866 15.2625 14.7843V18.6542ZM15.2625 12.7503C15.2625 12.9983 15.0164 13.2464 14.7702 13.2464H11.3241C11.0287 13.2464 10.8318 12.9983 10.8318 12.7503V8.88036C10.8318 8.58275 11.0287 8.38426 11.3241 8.38426H14.7702C15.0164 8.38426 15.2625 8.58275 15.2625 8.88036V12.7503ZM15.2625 6.79666C15.2625 7.09427 15.0164 7.29276 14.7702 7.29276H11.3241C11.0287 7.29276 10.8318 7.09428 10.8318 6.79666V2.97635C10.8318 2.7283 11.0287 2.48025 11.3241 2.48025H14.7702C15.0164 2.48025 15.2625 2.7283 15.2625 2.97635V6.79666ZM21.1703 24.5575C21.1703 24.8055 20.9241 25.0536 20.678 25.0536H17.2318C16.9365 25.0536 16.7395 24.8055 16.7395 24.5575V20.6876C16.7395 20.39 16.9365 20.1915 17.2318 20.1915H20.678C20.9241 20.1915 21.1703 20.39 21.1703 20.6876V24.5575ZM21.1703 18.6536C21.1703 18.9512 20.9241 19.1497 20.678 19.1497H17.2318C16.9365 19.1497 16.7395 18.9512 16.7395 18.6536V14.7837C16.7395 14.4861 16.9365 14.2876 17.2318 14.2876H20.678C20.9241 14.2876 21.1703 14.4861 21.1703 14.7837V18.6536ZM21.1703 12.7497C21.1703 12.9977 20.9241 13.2458 20.678 13.2458H17.2318C16.9365 13.2458 16.7395 12.9977 16.7395 12.7497V8.87978C16.7395 8.58217 16.9365 8.38368 17.2318 8.38368H20.678C20.9241 8.38368 21.1703 8.58216 21.1703 8.87978V12.7497ZM21.1703 6.79608C21.1703 7.09369 20.9241 7.29218 20.678 7.29218H17.2318C16.9365 7.29218 16.7395 7.09369 16.7395 6.79608V2.97576C16.7395 2.72772 16.9365 2.47967 17.2318 2.47967H20.678C20.9241 2.47967 21.1703 2.72772 21.1703 2.97576V6.79608Z" fill="#FFB81D" fill-opacity="0.58"/>
<path d="M30.9177 10.6174C30.9177 10.4685 30.8685 10.3198 30.7208 10.2204L25.5516 5.80486C25.4038 5.65593 25.2071 5.65593 25.0102 5.75529C24.8132 5.85442 24.7148 6.00334 24.7148 6.20182V27.1382H30.8686L30.8684 10.617L30.9177 10.6174ZM28.6039 25.0547H27.0776C26.8315 25.0547 26.5853 24.8066 26.5853 24.5586C26.5853 24.2609 26.8315 24.0625 27.0776 24.0625H28.6039C28.85 24.0625 29.0962 24.2609 29.0962 24.5586C29.0962 24.8562 28.8994 25.0547 28.6039 25.0547ZM28.6039 21.1352H27.0776C26.8315 21.1352 26.5853 20.8872 26.5853 20.6391C26.5853 20.3911 26.8315 20.143 27.0776 20.143H28.6039C28.85 20.143 29.0962 20.3911 29.0962 20.6391C29.0962 20.8872 28.8994 21.1352 28.6039 21.1352ZM28.6039 17.1662H27.0776C26.8315 17.1662 26.5853 16.9677 26.5853 16.6701C26.5853 16.3725 26.8315 16.174 27.0776 16.174H28.6039C28.85 16.174 29.0962 16.3725 29.0962 16.6701C29.0962 16.9182 28.8994 17.1662 28.6039 17.1662ZM28.6039 13.1972H27.0776C26.8315 13.1972 26.5853 12.9987 26.5853 12.7011C26.5853 12.4035 26.8315 12.205 27.0776 12.205H28.6039C28.85 12.205 29.0962 12.4035 29.0962 12.7011C29.0962 12.9987 28.8994 13.1972 28.6039 13.1972Z" fill="#FFB81D"/>
<path d="M7.23889 6.20174C7.23889 6.00325 7.14052 5.85456 6.94357 5.7552C6.74662 5.65608 6.54966 5.70564 6.40211 5.80477L1.23274 10.2203C1.13437 10.3195 1.08496 10.4684 1.08496 10.6173V27.1876H7.23873L7.23889 6.20174ZM4.92505 25.0548H3.39902C3.1037 25.0548 2.90674 24.8067 2.90674 24.5587C2.90674 24.2611 3.10369 24.0626 3.39902 24.0626H4.92528C5.2206 24.0626 5.41756 24.2611 5.41756 24.5587C5.41733 24.8563 5.2206 25.0548 4.92505 25.0548H4.92505ZM4.92505 21.1354H3.39902C3.1037 21.1354 2.90674 20.8873 2.90674 20.6393C2.90674 20.3912 3.10369 20.1432 3.39902 20.1432H4.92528C5.2206 20.1432 5.41756 20.3912 5.41756 20.6393C5.41733 20.8873 5.2206 21.1354 4.92505 21.1354H4.92505ZM4.92505 17.1664H3.39902C3.1037 17.1664 2.90674 16.9679 2.90674 16.6703C2.90674 16.3727 3.10369 16.1742 3.39902 16.1742H4.92528C5.2206 16.1742 5.41756 16.3727 5.41756 16.6703C5.41733 16.9183 5.2206 17.1664 4.92505 17.1664H4.92505ZM4.92505 13.1974H3.39902C3.1037 13.1974 2.90674 12.9989 2.90674 12.7013C2.90674 12.4036 3.10369 12.2052 3.39902 12.2052H4.92528C5.2206 12.2052 5.41756 12.4036 5.41756 12.7013C5.41733 12.9989 5.2206 13.1974 4.92505 13.1974H4.92505Z" fill="#FFB81D"/>
</svg>
