<svg width="32" height="32" viewBox="0 0 32 32" fill="none" xmlns="http://www.w3.org/2000/svg">
<path d="M31.7459 0H29.556C24.7877 0.00713824 20.2242 1.90824 16.8548 5.29219L8.87204 13.3088C8.77442 13.4068 8.77442 13.5655 8.87204 13.6635L18.4088 23.2407C18.5064 23.3387 18.6645 23.3387 18.7621 23.2407L26.7376 15.2314C30.1073 11.8475 32.0075 7.24345 32.0004 2.45518V0.255719C32.0004 0.114861 31.8867 0.000414181 31.7462 0.000414181L31.7459 0ZM22.7817 13.4712C21.6092 14.6488 19.7158 14.6488 18.5432 13.4712C17.3707 12.2937 17.3707 10.3926 18.5432 9.21478C19.7158 8.03724 21.6092 8.03724 22.7817 9.21478C23.9543 10.3926 23.9543 12.2937 22.7817 13.4712Z" fill="#FFB81D"/>
<path d="M8.27362 15.7839C8.15871 15.6685 7.96608 15.6923 7.88268 15.8325L6.03149 18.9394C5.97273 19.0382 5.98837 19.1643 6.06916 19.2454L12.8504 26.0554C12.9314 26.1367 13.057 26.1522 13.1553 26.0932L16.2492 24.2342C16.3888 24.1504 16.4125 23.957 16.2975 23.8416L8.27362 15.7839Z" fill="#FFB81D" fill-opacity="0.58"/>
<path d="M28.336 16.4927L22.1729 22.6947C22.1231 22.7449 22.0942 22.8116 22.0928 22.8801L21.9219 29.433C21.917 29.6592 22.1861 29.7625 22.3506 29.5971L28.433 23.4889C28.4816 23.4401 28.5103 23.3757 28.5131 23.3088L28.765 16.6615C28.7749 16.4324 28.5027 16.3246 28.3364 16.4921L28.336 16.4927Z" fill="#FFB81D" fill-opacity="0.58"/>
<path d="M8.6984 3.57591L2.57103 9.72921C2.40518 9.89577 2.51109 10.1701 2.73949 10.1661L9.2229 10.0238C9.29185 10.0226 9.3589 9.99356 9.40913 9.94336L15.6184 3.72123C15.7861 3.55301 15.6764 3.27581 15.4454 3.28437L8.88012 3.49566C8.81283 3.49828 8.74767 3.52731 8.69863 3.57632L8.6984 3.57591Z" fill="#FFB81D" fill-opacity="0.58"/>
<path d="M7.65752 24.3095C7.26729 23.9177 6.63518 23.9177 6.24493 24.3095L0.292672 30.2875C-0.0975574 30.6794 -0.0975574 31.3141 0.292672 31.706C0.682902 32.0979 1.31501 32.0979 1.70527 31.706L7.65752 25.7281C8.04775 25.3365 8.04775 24.7016 7.65752 24.3095Z" fill="#FFB81D"/>
<path d="M9.27038 26.3476L6.34638 29.2845C5.95615 29.6764 5.95615 30.3116 6.34638 30.7031C6.73661 31.0949 7.36872 31.0949 7.75898 30.7031L10.683 27.7662C11.0732 27.3743 11.0732 26.739 10.683 26.3476C10.2927 25.9557 9.66063 25.9557 9.27038 26.3476Z" fill="#FFB81D"/>
<path d="M1.35322 25.7187C1.74345 26.1106 2.37556 26.1106 2.76581 25.7187L5.68981 22.7818C6.08004 22.3899 6.08004 21.7547 5.68981 21.3632C5.29958 20.9714 4.66747 20.9714 4.27721 21.3632L1.35322 24.3001C0.962989 24.6917 0.962989 25.3273 1.35322 25.7187Z" fill="#FFB81D"/>
</svg>
