<svg width="41" height="41" viewBox="0 0 41 41" fill="none" xmlns="http://www.w3.org/2000/svg">
<path d="M16.107 5.85713L19.0356 0H17.5713L14.6428 5.85713H16.107Z" fill="#016BE3"/>
<path d="M13.1785 5.85713L16.1071 0H4.39281C3.58418 0 2.92853 0.655655 2.92853 1.46428V5.85713H13.1785ZM10.2499 1.46428C11.0586 1.46428 11.7142 2.11994 11.7142 2.92856C11.7142 3.73719 11.0586 4.39284 10.2499 4.39284C9.44131 4.39284 8.78565 3.73719 8.78565 2.92856C8.78565 2.11994 9.44131 1.46428 10.2499 1.46428ZM5.85709 1.46428C6.66572 1.46428 7.32137 2.11994 7.32137 2.92856C7.32137 3.73719 6.66572 4.39284 5.85709 4.39284C5.04846 4.39284 4.39281 3.73719 4.39281 2.92856C4.39281 2.11994 5.04846 1.46428 5.85709 1.46428Z" fill="#016BE3"/>
<path d="M38.0713 5.85713V1.46428C38.0713 0.655655 37.4156 0 36.607 0H20.4999L17.5713 5.85713H38.0713Z" fill="#016BE3"/>
<path d="M2.92853 21.9646H-3.05176e-05V39.536H2.92853C3.73716 39.536 4.39281 38.8803 4.39281 38.0717V23.4289C4.39281 22.6203 3.73716 21.9646 2.92853 21.9646Z" fill="#016BE3" fill-opacity="0.5"/>
<path d="M5.45132 21.9678H11.7144C12.4966 21.9678 13.2317 22.2724 13.785 22.8258L15.8556 24.895C17.5817 24.8963 22.4177 24.8993 22.7779 24.9022C24.3922 24.9522 25.7123 25.9877 26.1768 27.4134L35.2068 22.5601C35.9265 22.1708 36.7357 21.9649 37.5464 21.9649C37.7225 21.9649 37.8971 21.9819 38.0713 22.0008V7.32202H2.92853V20.5006C4.00841 20.5006 4.94321 21.0951 5.45111 21.9678L5.45132 21.9678ZM25.1564 11.5455C24.8462 11.2866 24.804 10.8248 25.0626 10.5136C25.3214 10.2034 25.7826 10.1613 26.0944 10.4198L30.4873 14.0805C30.654 14.2201 30.7504 14.426 30.7504 14.6434C30.7504 14.8607 30.654 15.0666 30.4873 15.2062L26.0944 18.8669C25.9571 18.9803 25.7914 19.0362 25.626 19.0362C25.4159 19.0362 25.2077 18.947 25.0626 18.7731C24.8037 18.4619 24.8459 18.0001 25.1564 17.7412L28.8743 14.6434L25.1564 11.5455ZM17.6762 17.9262L22.069 10.6048C22.2779 10.2574 22.7325 10.1479 23.0727 10.3538C23.4202 10.562 23.5333 11.0118 23.3244 11.3582L18.9316 18.6796C18.7943 18.9084 18.5518 19.0349 18.303 19.0349C18.1749 19.0349 18.0448 19.0012 17.9268 18.9306C17.5804 18.7228 17.4683 18.273 17.6761 17.9262H17.6762ZM10.5133 14.0805L14.9061 10.4198C15.218 10.161 15.6791 10.2031 15.938 10.5136C16.1969 10.8248 16.1547 11.2866 15.8442 11.5455L12.1263 14.6433L15.8442 17.7412C16.1544 18 16.1965 18.4619 15.938 18.773C15.7929 18.9469 15.5847 19.0361 15.3745 19.0361C15.2095 19.0361 15.0434 18.9802 14.9061 18.8668L10.5133 15.2061C10.3466 15.0666 10.2502 14.8606 10.2502 14.6433C10.2502 14.4259 10.3466 14.22 10.5133 14.0804L10.5133 14.0805Z" fill="#016BE3"/>
<path d="M39.3221 23.9237C38.2648 23.2919 36.9836 23.2645 35.901 23.8492L26.312 29.0039C26.0878 30.8097 24.5614 32.2165 22.6964 32.2165H16.8099C16.4052 32.2165 16.0777 31.889 16.0777 31.4844C16.0777 31.0797 16.4052 30.7522 16.8099 30.7522H22.6964C23.9078 30.7522 24.8929 29.7671 24.8929 28.5561C24.8929 27.3681 23.943 26.4032 22.7638 26.3669C22.3255 26.3617 15.2492 26.36 15.2492 26.36L12.7495 23.861C12.4749 23.5864 12.1023 23.4322 11.714 23.4322L5.85721 23.4318V38.0755H8.44254L13.1786 39.5372C15.1463 40.1696 17.2508 41.0011 19.5825 41.0011C21.691 41.0011 23.7688 40.302 25.5619 38.9279L39.5069 29.6988C40.4417 29.0585 41 28.0005 41 26.8709C41 25.6511 40.3731 24.5503 39.3219 23.924L39.3221 23.9237Z" fill="#016BE3" fill-opacity="0.5"/>
</svg>
