<svg width="42" height="42" viewBox="0 0 42 42" fill="none" xmlns="http://www.w3.org/2000/svg">
<path d="M17.5002 29.7508C17.5002 23.3491 22.4393 18.0884 28.7023 17.5521C28.3559 16.4213 27.9589 15.3271 27.4601 14.3361C21.499 18.5365 13.5009 18.5332 7.54314 14.332C7.01324 15.3919 6.59281 16.5644 6.23431 17.7777L1.33996 15.7507L0 18.9844L5.48582 21.2534C5.34556 22.3096 5.25181 23.3865 5.25181 24.5009H0.00186608V28.0004H5.4979C5.64329 29.0295 5.86155 30.0237 6.12852 30.9777L0.00182818 33.517L1.33991 36.7506L7.33544 34.2659C9.53601 38.931 13.2672 42.0006 17.5016 42.0006C19.5297 42.0006 21.4369 41.2828 23.1221 40.0355C19.745 37.8547 17.4993 34.0605 17.4993 29.7512L17.5002 29.7508Z" fill="#FFB81D"/>
<path d="M22.4121 8.49014L25.3758 1.33959L22.1426 0L19.1689 7.1814C18.6218 7.07153 18.0681 6.99976 17.5027 6.99976C16.9351 6.99976 16.3799 7.07154 15.8329 7.1814L12.8592 0L9.62565 1.33996L12.5893 8.49417C11.4307 9.22549 10.3613 10.1893 9.4209 11.3718C14.2299 14.8442 20.7739 14.8442 25.5842 11.3718C24.6438 10.1886 23.5722 9.22139 22.4117 8.49014H22.4121Z" fill="#FFB81D"/>
<path d="M37.0453 34.569C37.9594 33.1847 38.4996 31.5302 38.4996 29.7497C38.4996 24.9165 34.5826 20.9995 29.7502 20.9995C24.9169 20.9995 21 24.9165 21 29.7497C21 34.5822 24.9169 38.4992 29.7502 38.4992C31.5325 38.4992 33.1866 37.9594 34.5713 37.0435L39.525 41.9994L41.9998 39.5246L37.0453 34.569ZM29.7502 34.9997C26.8501 34.9997 24.5002 32.6482 24.5002 29.7497C24.5002 26.8479 26.8501 24.4997 29.7502 24.4997C32.6498 24.4997 35.0001 26.8479 35.0001 29.7497C35.0001 32.6482 32.6498 34.9997 29.7502 34.9997Z" fill="#FFB81D" fill-opacity="0.58"/>
</svg>
