<svg width="108" height="61" viewBox="0 0 108 61" fill="none" xmlns="http://www.w3.org/2000/svg">
<rect width="107.892" height="60.8325" rx="5.73892" fill="#020218" fill-opacity="0.39"/>
<path d="M25.5952 38.5487V45.0272H23.5469V29.0245H28.972C30.35 29.0245 31.5169 29.4863 32.4852 30.41C33.466 31.3338 33.9501 32.4572 33.9501 33.7804C33.9501 35.141 33.466 36.2644 32.4852 37.1756C31.5417 38.0868 30.3624 38.5362 28.972 38.5362H25.5952V38.5487ZM25.5952 30.9967V36.5889H29.0216C29.841 36.5889 30.5113 36.3143 31.0452 35.7651C31.5914 35.2158 31.8645 34.5543 31.8645 33.7928C31.8645 33.0439 31.5914 32.3948 31.0452 31.8455C30.5113 31.2838 29.841 30.9967 29.0216 30.9967H25.5952Z" fill="white"/>
<path d="M39.4253 33.7179C40.9399 33.7179 42.1317 34.1298 43.0007 34.9412C43.8697 35.7526 44.3166 36.8635 44.3166 38.2865V45.0396H42.3551V43.5167H42.2682C41.424 44.765 40.2943 45.3891 38.8915 45.3891C37.6873 45.3891 36.6817 45.0271 35.8748 44.3156C35.0679 43.6041 34.6582 42.7054 34.6582 41.6319C34.6582 40.4959 35.0803 39.5972 35.9369 38.9231C36.7935 38.2491 37.9232 37.912 39.3508 37.912C40.5674 37.912 41.5606 38.1367 42.3551 38.5861V38.1118C42.3551 37.4003 42.0696 36.7886 41.5109 36.2893C40.9523 35.79 40.2819 35.5404 39.5371 35.5404C38.3949 35.5404 37.4887 36.0272 36.8307 36.9883L35.0306 35.8524C36.0114 34.4419 37.4763 33.7179 39.4253 33.7179ZM36.7811 41.6818C36.7811 42.2185 37.0045 42.6679 37.4639 43.0174C37.9108 43.3794 38.4446 43.5542 39.0529 43.5542C39.9095 43.5542 40.6792 43.2296 41.3495 42.593C42.0199 41.9564 42.3551 41.195 42.3551 40.3337C41.722 39.8219 40.8281 39.5722 39.686 39.5722C38.8543 39.5722 38.1591 39.772 37.6128 40.1714C37.0542 40.5833 36.7811 41.0826 36.7811 41.6818Z" fill="white"/>
<path d="M46.625 34.0799H48.5865V35.8649H48.6734C49.2817 34.4669 50.5355 33.7678 52.4349 33.7678L52.857 33.8178V35.9648L51.9508 35.8774C51.0073 35.8774 50.2252 36.177 49.6044 36.7637C48.9837 37.3503 48.6858 38.0993 48.6858 39.0105V45.0521H46.6374V34.0799H46.625ZM59.387 45.2144C58.4931 45.2144 57.7607 44.9398 57.1772 44.3905C56.5937 43.8413 56.2958 43.0674 56.271 42.0937V35.9648H54.3592V34.0924H56.271V30.7346H58.3193V34.0924H60.9884V35.9648H58.3193V41.4197C58.3193 42.1561 58.4559 42.643 58.7414 42.9051C59.027 43.1672 59.3373 43.2921 59.6973 43.2921C59.8587 43.2921 60.0201 43.2796 60.1815 43.2421C60.3429 43.2047 60.4794 43.1548 60.616 43.0923L61.2615 44.9273C60.7153 45.1145 60.0946 45.2144 59.387 45.2144Z" fill="white"/>
<path d="M63.0488 34.0798H65.0103V35.6027H65.0972C65.4076 35.0659 65.8917 34.6165 66.5373 34.267C67.1828 33.905 67.8532 33.7303 68.5484 33.7303C69.8767 33.7303 70.9071 34.1172 71.6272 34.8787C72.3472 35.6401 72.7072 36.7386 72.7072 38.1491V45.0395H70.6588V38.2864C70.6092 36.5014 69.7154 35.6027 67.9649 35.6027C67.1456 35.6027 66.4628 35.9397 65.9166 36.6013C65.3703 37.2629 65.0972 38.0617 65.0972 38.9855V45.0395H63.0488V34.0798Z" fill="white"/>
<path d="M79.9954 45.3891C78.3939 45.3891 77.078 44.8399 76.0352 43.7289C74.9924 42.6305 74.4834 41.2324 74.4834 39.5473C74.4834 37.8746 74.9924 36.489 75.998 35.3781C77.0035 34.2671 78.2946 33.7179 79.8712 33.7179C81.4851 33.7179 82.7762 34.2422 83.7321 35.2907C84.688 36.3392 85.1722 37.8122 85.1722 39.7095L85.1473 39.9342H76.5814C76.6063 41.0077 76.9663 41.869 77.6491 42.5306C78.3319 43.1922 79.1512 43.5167 80.0947 43.5167C81.3982 43.5167 82.4162 42.8552 83.161 41.5445L84.986 42.4432C84.5018 43.3669 83.819 44.0909 82.95 44.6152C82.0686 45.127 81.0878 45.3891 79.9954 45.3891ZM76.7304 38.2366H82.9748C82.9128 37.4752 82.6024 36.851 82.0562 36.3517C81.4975 35.8524 80.7527 35.6028 79.8216 35.6028C79.0519 35.6028 78.3815 35.8399 77.8353 36.3143C77.2766 36.7886 76.9042 37.4377 76.7304 38.2366Z" fill="white"/>
<path d="M89.0699 45.0396H87.0215V34.0798H88.983V35.8648H89.0699C89.2809 35.2782 89.703 34.7913 90.3485 34.3794C90.9941 33.9675 91.6272 33.7678 92.2479 33.7678C92.8438 33.7678 93.3404 33.8551 93.7625 34.0299L93.1418 36.0146C92.8935 35.9148 92.4838 35.8524 91.9376 35.8524C91.1679 35.8524 90.4975 36.1644 89.9264 36.7886C89.3554 37.4127 89.0699 38.1492 89.0699 38.9855V45.0396Z" fill="white"/>
<path d="M28.1771 19.6751V21.0731H31.5041C31.3924 21.9594 31.0324 22.6459 30.4117 23.1327C29.8034 23.6196 29.0585 23.8567 28.1771 23.8567C27.1467 23.8567 26.2901 23.4947 25.5825 22.7707C24.8748 22.0592 24.5272 21.173 24.5272 20.1369C24.5272 19.1009 24.8748 18.2271 25.5825 17.5031C26.2901 16.7791 27.1467 16.4171 28.1771 16.4171C29.133 16.4171 29.9647 16.7541 30.6848 17.4157L31.6655 16.4296C30.6848 15.4934 29.5178 15.019 28.1771 15.019C27.2708 15.019 26.4142 15.2562 25.5949 15.7181C24.7879 16.1799 24.1548 16.8041 23.6955 17.6029C23.2362 18.3893 23.0127 19.2257 23.0127 20.1369C23.0127 21.0481 23.2362 21.897 23.6955 22.6834C24.1548 23.4698 24.7879 24.0939 25.5949 24.5558C26.4018 25.0176 27.2584 25.2548 28.1771 25.2548C29.5551 25.2548 30.6848 24.8179 31.591 23.9566C32.4849 23.0953 32.9318 21.9719 32.9318 20.5488C32.9318 20.2118 32.907 19.9247 32.8573 19.6751H28.1771Z" fill="#016BE3"/>
<path d="M36.7058 18.6639C35.7747 18.6639 34.9926 18.9759 34.3595 19.6126C33.7264 20.2367 33.416 21.0231 33.416 21.9593C33.416 22.883 33.7388 23.6694 34.3719 24.306C35.0051 24.9426 35.7747 25.2547 36.7058 25.2547C37.6369 25.2547 38.4066 24.9426 39.0397 24.306C39.6729 23.6694 39.9956 22.883 39.9956 21.9593C39.9956 21.0231 39.6729 20.2367 39.0397 19.6126C38.419 18.9759 37.6369 18.6639 36.7058 18.6639ZM38.0093 23.3823C37.6493 23.7693 37.2148 23.9565 36.7058 23.9565C36.1844 23.9565 35.7499 23.7693 35.3899 23.3823C35.0299 22.9953 34.8561 22.521 34.8561 21.9593C34.8561 21.3726 35.0299 20.8983 35.3899 20.5363C35.7499 20.1493 36.1844 19.9621 36.7058 19.9621C37.2272 19.9621 37.6617 20.1493 38.0217 20.5363C38.3818 20.8983 38.5556 21.3726 38.5556 21.9593C38.5556 22.5085 38.3818 22.9829 38.0093 23.3823Z" fill="#EF372C"/>
<path d="M56.4694 15.3685H55.0293V25.0425H56.4694V15.3685Z" fill="#00AC4E"/>
<path d="M43.8806 18.6639C42.9496 18.6639 42.1674 18.9759 41.5343 19.6126C40.9012 20.2367 40.5908 21.0231 40.5908 21.9593C40.5908 22.883 40.9136 23.6694 41.5467 24.306C42.1799 24.9426 42.9496 25.2547 43.8806 25.2547C44.8117 25.2547 45.5814 24.9426 46.2145 24.306C46.8477 23.6694 47.1704 22.883 47.1704 21.9593C47.1704 21.0231 46.8477 20.2367 46.2145 19.6126C45.5814 18.9759 44.7993 18.6639 43.8806 18.6639ZM45.1841 23.3823C44.8241 23.7693 44.3896 23.9565 43.8806 23.9565C43.3592 23.9565 42.9247 23.7693 42.5647 23.3823C42.2047 22.9953 42.0309 22.521 42.0309 21.9593C42.0309 21.3726 42.2047 20.8983 42.5647 20.5363C42.9247 20.1493 43.3592 19.9621 43.8806 19.9621C44.402 19.9621 44.8365 20.1493 45.1965 20.5363C45.5566 20.8983 45.7304 21.3726 45.7304 21.9593C45.7304 22.5085 45.5442 22.9829 45.1841 23.3823Z" fill="#FDB614"/>
<path d="M60.4042 23.9566C59.6842 23.9566 59.1504 23.6196 58.8152 22.958L63.1974 21.1355L63.0485 20.761C62.9367 20.449 62.7878 20.1744 62.6016 19.9122C62.4153 19.6501 62.2043 19.4379 61.9684 19.2507C61.7326 19.0634 61.4594 18.9261 61.1739 18.8262C60.8884 18.7264 60.578 18.6765 60.2552 18.6765C59.3738 18.6765 58.6414 18.9885 58.0455 19.6126C57.462 20.2493 57.1641 21.0357 57.1641 21.9719C57.1641 22.9081 57.4744 23.682 58.0951 24.3186C58.7159 24.9552 59.4856 25.2673 60.4166 25.2673C61.5712 25.2673 62.4774 24.7804 63.1478 23.8068L62.0305 23.0578C61.6084 23.6445 61.0746 23.9566 60.4042 23.9566ZM59.0759 20.4864C59.4359 20.1244 59.8456 19.9372 60.2925 19.9372C60.578 19.9372 60.8263 19.9996 61.0498 20.1244C61.2732 20.2493 61.4222 20.424 61.5091 20.6237L58.5793 21.847C58.5669 21.2978 58.7283 20.8484 59.0759 20.4864Z" fill="#EF372C"/>
<path d="M52.671 19.4004H52.6213C52.2116 18.9135 51.6282 18.6639 50.8957 18.6639C50.0515 18.6639 49.3191 18.9884 48.686 19.6375C48.0652 20.2866 47.7549 21.0605 47.7549 21.9718C47.7549 22.8705 48.0652 23.6444 48.686 24.2935C49.3191 24.9301 50.064 25.2547 50.8957 25.2547C51.6282 25.2547 52.2116 25.005 52.6213 24.5057H52.671V24.8428C52.671 26.2283 52.0875 26.9149 50.9206 26.9149C50.5481 26.9149 50.2129 26.8025 49.9274 26.5903C49.6419 26.3781 49.4184 26.091 49.2694 25.7415L48.0156 26.2658C48.1397 26.5529 48.3011 26.815 48.4873 27.0522C48.6735 27.2894 48.897 27.4891 49.1453 27.6638C49.3936 27.8386 49.6667 27.9634 49.9646 28.0633C50.2626 28.1631 50.5729 28.2006 50.9081 28.2006C51.8889 28.2006 52.6461 27.901 53.1924 27.3143C53.7386 26.7152 54.0117 25.8788 54.0117 24.7804V18.8761H52.6461V19.4004H52.671ZM52.2613 23.3948C51.9261 23.7693 51.504 23.9565 51.0199 23.9565C50.5109 23.9565 50.0764 23.7693 49.7164 23.3823C49.3688 22.9953 49.195 22.5335 49.195 21.9718C49.195 21.4101 49.3688 20.9357 49.7288 20.5488C50.0888 20.1618 50.5233 19.9621 51.0199 19.9621C51.5164 19.9621 51.9261 20.1493 52.2613 20.5363C52.5965 20.9232 52.7703 21.4101 52.7703 21.9718C52.7703 22.521 52.5965 22.9953 52.2613 23.3948Z" fill="#016BE3"/>
<path d="M14.9215 10.3301H9.18262V50.5025H14.9215V10.3301Z" fill="#016BE3"/>
</svg>
