<svg width="16" height="16" viewBox="0 0 16 16" fill="none" xmlns="http://www.w3.org/2000/svg">
<path d="M12.5086 7.09101L1.24685 6.97158C0.993413 6.96925 0.778671 7.05451 0.602621 7.22735C0.426996 7.39977 0.338019 7.6127 0.335688 7.86613C0.333357 8.11956 0.418611 8.3343 0.591453 8.51036C0.763876 8.68598 0.976804 8.77496 1.23024 8.77729L12.4923 8.86504L7.63278 13.636C7.45162 13.8138 7.3597 14.0242 7.35705 14.2671C7.35524 14.5099 7.44326 14.722 7.62113 14.9031C7.79899 15.0843 8.00936 15.1762 8.25222 15.1789C8.4951 15.1807 8.70712 15.0926 8.88829 14.9148L15.2824 8.63725C15.4635 8.45938 15.5552 8.24923 15.5575 8.00678C15.5597 7.76348 15.4719 7.55125 15.294 7.37008L9.0165 0.975993C8.83864 0.794826 8.62827 0.703338 8.38539 0.701526C8.14252 0.69887 7.9305 0.786474 7.74934 0.964337C7.56817 1.1422 7.47668 1.35257 7.47487 1.59545C7.47222 1.83832 7.55982 2.05033 7.73768 2.2315L12.5086 7.09101Z" fill="white" fill-opacity="0.5"/>
</svg>
