<svg width="58" height="58" viewBox="0 0 58 58" fill="none" xmlns="http://www.w3.org/2000/svg">
<path d="M17.9074 0.551595H39.9956C49.5807 0.551595 57.3515 8.32693 57.3515 17.9191V40.0216C57.3515 49.6137 49.5807 57.3891 39.9956 57.3891H17.9074C8.3224 57.3891 0.551595 49.6137 0.551595 40.0216V17.9191C0.551595 8.32693 8.3224 0.551595 17.9074 0.551595Z" fill="white" stroke="#EFEEEE" stroke-width="1.10319"/>
<path d="M25.3555 39.6119L7.40313 37.2257L6.32812 33.4046L20.4111 22.0292L21.6756 26.526L11.6954 33.9016L24.1032 35.1581L25.3555 39.6119ZM27.6906 42.2273L26.7455 16.665L30.1115 15.7172L30.9916 41.2982L27.6906 42.2273ZM37.4758 36.2162L36.2201 31.7502L46.1804 24.2434L33.7826 23.0829L32.5358 18.65L50.497 21.0031L51.5621 24.7923L37.4758 36.2162Z" fill="#016BE3"/>
</svg>
