<svg width="109" height="61" viewBox="0 0 109 61" fill="none" xmlns="http://www.w3.org/2000/svg">
<rect x="0.369629" width="107.892" height="60.8325" rx="5.73892" fill="#020218" fill-opacity="0.39"/>
<g clip-path="url(#clip0_189_3617)">
<path d="M14.8837 22.7649C14.8837 23.7395 15.0964 24.4879 15.3745 24.9406C15.7391 25.5335 16.2829 25.7848 16.8373 25.7848C17.5524 25.7848 18.2066 25.6063 19.4673 23.8532C20.4772 22.448 21.6673 20.4756 22.468 19.239L23.824 17.1441C24.766 15.6892 25.8563 14.0719 27.1063 12.9756C28.1269 12.0808 29.2278 11.5837 30.3357 11.5837C32.1958 11.5837 33.9676 12.6676 35.3237 14.7003C36.8077 16.9266 37.5281 19.7308 37.5281 22.6246C37.5281 24.3449 37.1908 25.609 36.617 26.6076C36.0626 27.5734 34.982 28.5383 33.1643 28.5383V25.7848C34.7207 25.7848 35.1091 24.3467 35.1091 22.701C35.1091 20.3557 34.5653 17.7531 33.3673 15.8934C32.5172 14.5743 31.4154 13.7683 30.2033 13.7683C28.8923 13.7683 27.8373 14.7625 26.6517 16.5352C26.0213 17.477 25.3742 18.6248 24.6477 19.9199L23.8478 21.3446C22.2411 24.2091 21.8341 24.8616 21.0307 25.9383C19.6226 27.8237 18.4202 28.5383 16.8373 28.5383C14.9596 28.5383 13.7722 27.7208 13.0368 26.4887C12.4365 25.4847 12.1416 24.1674 12.1416 22.6663L14.8837 22.7649Z" fill="#0081FB"/>
<path d="M14.3037 14.8947C15.5609 12.9463 17.3751 11.5837 19.4559 11.5837C20.6609 11.5837 21.8589 11.9423 23.1099 12.9694C24.4782 14.0923 25.9367 15.9413 27.7562 18.9887L28.4086 20.0823C29.9835 22.7205 30.8796 24.0778 31.404 24.7178C32.0785 25.5398 32.5508 25.7848 33.1643 25.7848C34.7208 25.7848 35.1092 24.3467 35.1092 22.701L37.5281 22.6246C37.5281 24.3449 37.1909 25.609 36.6171 26.6076C36.0627 27.5734 34.9821 28.5383 33.1643 28.5383C32.0343 28.5383 31.0332 28.2915 29.9262 27.2414C29.0751 26.4354 28.0802 25.0036 27.3148 23.7165L25.038 19.8924C23.8956 17.9732 22.8477 16.5423 22.2412 15.8943C21.5888 15.1974 20.7501 14.3559 19.4117 14.3559C18.3285 14.3559 17.4086 15.1202 16.6388 16.2893L14.3037 14.8947Z" fill="url(#paint0_linear_189_3617)"/>
<path d="M19.4117 14.3559C18.3284 14.3559 17.4085 15.1202 16.6387 16.2893C15.5502 17.9412 14.8837 20.4019 14.8837 22.7649C14.8837 23.7395 15.0964 24.4879 15.3745 24.9406L13.0368 26.4887C12.4365 25.4847 12.1416 24.1674 12.1416 22.6663C12.1416 19.9367 12.8867 17.0917 14.3036 14.8947C15.5608 12.9463 17.375 11.5837 19.4558 11.5837L19.4117 14.3559Z" fill="url(#paint1_linear_189_3617)"/>
<path d="M42.8579 12.1199H46.0299L51.4231 21.9305L56.8171 12.1199H59.9202V28.2401H57.3327V15.8854L52.6025 24.4408H50.1747L45.4455 15.8854V28.2401H42.8579V12.1199ZM68.0281 18.1303C66.1724 18.1303 65.0547 19.5347 64.7872 21.2736H71.0853C70.9555 19.4823 69.9279 18.1303 68.0281 18.1303ZM62.2218 22.2643C62.2218 18.6053 64.5736 15.9422 68.0731 15.9422C71.5152 15.9422 73.5704 18.5715 73.5704 22.4595V23.1741H64.7872C65.0989 25.0658 66.3472 26.3405 68.36 26.3405C69.9659 26.3405 70.9697 25.8478 71.9213 24.9468L73.2959 26.6396C72.0008 27.8371 70.3534 28.5277 68.2682 28.5277C64.48 28.5277 62.2218 25.7502 62.2218 22.2643ZM76.708 18.3611H74.3261V16.2307H76.708V12.7075H79.2046V16.2307H82.8233V18.3611H79.2046V23.7609C79.2046 25.6046 79.7908 26.2597 81.2316 26.2597C81.8893 26.2597 82.2663 26.2029 82.8233 26.1097V28.217C82.1294 28.4141 81.4673 28.5046 80.7504 28.5046C78.0552 28.5046 76.708 27.024 76.708 24.06V18.3611ZM93.336 20.433C92.8345 19.1601 91.716 18.2227 90.0722 18.2227C87.9357 18.2227 86.5683 19.7468 86.5683 22.2296C86.5683 24.6503 87.8272 26.2481 89.9698 26.2481C91.6542 26.2481 92.8566 25.2628 93.336 24.0369V20.433ZM95.8326 28.2401H93.3819V26.5588C92.6968 27.5486 91.4503 28.5277 89.4312 28.5277C86.1842 28.5277 84.0142 25.7945 84.0142 22.2296C84.0142 18.631 86.2363 15.9422 89.569 15.9422C91.2163 15.9422 92.5088 16.6044 93.3819 17.7735V16.2307H95.8326V28.2401Z" fill="white"/>
</g>
<path d="M14.6548 44.8393C14.2722 44.8393 13.924 44.7628 13.6103 44.6097C13.2965 44.4567 13.044 44.2501 12.8527 43.9899C12.6614 43.7298 12.5658 43.4352 12.5658 43.1061C12.5658 42.5782 12.78 42.1573 13.2086 41.8436C13.6371 41.5299 14.1956 41.3233 14.8843 41.2238L16.5945 40.9827V40.6499C16.5945 40.2826 16.4874 39.9957 16.2731 39.789C16.0665 39.5824 15.726 39.4791 15.2516 39.4791C14.9073 39.4791 14.628 39.548 14.4137 39.6857C14.2071 39.8235 14.0617 39.9995 13.9776 40.2137C13.9317 40.3285 13.8513 40.3859 13.7365 40.3859H13.22C13.1359 40.3859 13.0708 40.3629 13.0249 40.317C12.9866 40.2635 12.9675 40.2023 12.9675 40.1334C12.9675 40.0186 13.0096 39.877 13.0938 39.7087C13.1856 39.5404 13.3233 39.3758 13.507 39.2152C13.6906 39.0545 13.924 38.9206 14.2071 38.8134C14.4979 38.6987 14.8499 38.6413 15.2631 38.6413C15.7222 38.6413 16.1086 38.7025 16.4223 38.8249C16.7361 38.9397 16.9809 39.0966 17.1569 39.2955C17.3406 39.4945 17.4707 39.7202 17.5472 39.9727C17.6313 40.2252 17.6734 40.4815 17.6734 40.7417V44.4605C17.6734 44.537 17.6466 44.6021 17.5931 44.6557C17.5472 44.7016 17.486 44.7245 17.4094 44.7245H16.8815C16.7973 44.7245 16.7322 44.7016 16.6863 44.6557C16.6404 44.6021 16.6175 44.537 16.6175 44.4605V43.967C16.518 44.1047 16.3841 44.2424 16.2157 44.3802C16.0474 44.5103 15.837 44.6212 15.5845 44.713C15.332 44.7972 15.022 44.8393 14.6548 44.8393ZM14.8958 43.9785C15.2095 43.9785 15.4965 43.9134 15.7566 43.7833C16.0168 43.6456 16.2196 43.4352 16.365 43.1521C16.518 42.8689 16.5945 42.5131 16.5945 42.0846V41.7632L15.2631 41.9584C14.7198 42.0349 14.3104 42.165 14.035 42.3486C13.7595 42.5246 13.6218 42.7503 13.6218 43.0258C13.6218 43.2401 13.683 43.4199 13.8054 43.5653C13.9355 43.703 14.0962 43.8063 14.2875 43.8752C14.4864 43.944 14.6892 43.9785 14.8958 43.9785ZM21.5042 44.8393C21.0834 44.8393 20.7199 44.7666 20.4139 44.6212C20.1078 44.4682 19.8553 44.2654 19.6563 44.0129C19.465 43.7527 19.3196 43.4581 19.2202 43.1291C19.1283 42.8001 19.0748 42.4519 19.0595 42.0846C19.0518 41.9622 19.048 41.8474 19.048 41.7403C19.048 41.6332 19.0518 41.5184 19.0595 41.3959C19.0748 41.0363 19.1283 40.692 19.2202 40.3629C19.3196 40.0339 19.465 39.7393 19.6563 39.4791C19.8553 39.219 20.1078 39.0162 20.4139 38.8708C20.7199 38.7178 21.0834 38.6413 21.5042 38.6413C21.9557 38.6413 22.3306 38.7216 22.6291 38.8823C22.9275 39.043 23.1724 39.2419 23.3637 39.4791V36.8392C23.3637 36.7627 23.3866 36.7015 23.4325 36.6556C23.4861 36.602 23.5511 36.5753 23.6276 36.5753H24.1786C24.2551 36.5753 24.3163 36.602 24.3622 36.6556C24.4158 36.7015 24.4426 36.7627 24.4426 36.8392V44.4605C24.4426 44.537 24.4158 44.6021 24.3622 44.6557C24.3163 44.7016 24.2551 44.7245 24.1786 44.7245H23.6621C23.5779 44.7245 23.5129 44.7016 23.467 44.6557C23.421 44.6021 23.3981 44.537 23.3981 44.4605V43.9785C23.2068 44.2233 22.9581 44.4299 22.652 44.5983C22.346 44.759 21.9634 44.8393 21.5042 44.8393ZM21.7453 43.9096C22.1279 43.9096 22.4339 43.8216 22.6635 43.6456C22.8931 43.4696 23.0652 43.2477 23.18 42.9799C23.2948 42.7044 23.356 42.4251 23.3637 42.142C23.3713 42.0196 23.3751 41.8742 23.3751 41.7058C23.3751 41.5299 23.3713 41.3806 23.3637 41.2582C23.356 40.9904 23.291 40.7264 23.1685 40.4662C23.0538 40.2061 22.8778 39.9918 22.6406 39.8235C22.411 39.6551 22.1126 39.571 21.7453 39.571C21.355 39.571 21.0451 39.659 20.8156 39.835C20.586 40.0033 20.4215 40.229 20.322 40.5122C20.2226 40.7876 20.1652 41.086 20.1499 41.4074C20.1422 41.6293 20.1422 41.8512 20.1499 42.0731C20.1652 42.3945 20.2226 42.6968 20.322 42.9799C20.4215 43.2554 20.586 43.4811 20.8156 43.6571C21.0451 43.8254 21.355 43.9096 21.7453 43.9096ZM28.2156 44.8393C27.7871 44.8393 27.4198 44.7857 27.1138 44.6786C26.8077 44.5715 26.559 44.4414 26.3677 44.2884C26.1764 44.1353 26.031 43.9823 25.9315 43.8292C25.8397 43.6762 25.79 43.5538 25.7823 43.462C25.7747 43.3778 25.8015 43.3127 25.8627 43.2668C25.9239 43.2209 25.9851 43.198 26.0463 43.198H26.5514C26.5973 43.198 26.6317 43.2056 26.6547 43.2209C26.6853 43.2286 26.7235 43.2592 26.7694 43.3127C26.8689 43.4199 26.9799 43.527 27.1023 43.6341C27.2247 43.7413 27.3739 43.8292 27.5499 43.8981C27.7336 43.967 27.9593 44.0014 28.2271 44.0014C28.6174 44.0014 28.9387 43.9287 29.1913 43.7833C29.4438 43.6303 29.57 43.4084 29.57 43.1176C29.57 42.9263 29.5165 42.7733 29.4093 42.6585C29.3099 42.5437 29.1262 42.4404 28.8584 42.3486C28.5982 42.2568 28.2386 42.1611 27.7795 42.0617C27.3204 41.9545 26.9569 41.8245 26.6891 41.6714C26.4213 41.5107 26.23 41.3233 26.1152 41.109C26.0004 40.8871 25.943 40.6384 25.943 40.3629C25.943 40.0798 26.0272 39.8082 26.1955 39.548C26.3639 39.2802 26.6087 39.0621 26.9301 38.8938C27.2592 38.7254 27.6685 38.6413 28.1582 38.6413C28.5561 38.6413 28.8967 38.691 29.1798 38.7905C29.4629 38.89 29.6963 39.0162 29.8799 39.1692C30.0636 39.3146 30.2013 39.46 30.2931 39.6054C30.3849 39.7508 30.4347 39.8732 30.4423 39.9727C30.45 40.0492 30.427 40.1143 30.3735 40.1678C30.3199 40.2137 30.2587 40.2367 30.1898 40.2367H29.7078C29.6542 40.2367 29.6083 40.2252 29.57 40.2023C29.5394 40.1793 29.5088 40.1525 29.4782 40.1219C29.4017 40.0224 29.3099 39.923 29.2027 39.8235C29.1033 39.724 28.9693 39.6437 28.801 39.5824C28.6403 39.5136 28.4261 39.4791 28.1582 39.4791C27.7757 39.4791 27.4887 39.5595 27.2974 39.7202C27.1061 39.8809 27.0105 40.0836 27.0105 40.3285C27.0105 40.4739 27.0526 40.604 27.1367 40.7188C27.2209 40.8335 27.3816 40.9368 27.6188 41.0287C27.856 41.1205 28.208 41.22 28.6748 41.3271C29.1798 41.4266 29.5777 41.5605 29.8684 41.7288C30.1592 41.8971 30.3658 42.0923 30.4882 42.3142C30.6107 42.5361 30.6719 42.7924 30.6719 43.0832C30.6719 43.4046 30.5762 43.6992 30.3849 43.967C30.2013 44.2348 29.9258 44.449 29.5585 44.6097C29.1989 44.7628 28.7513 44.8393 28.2156 44.8393ZM35.2272 44.7245C35.1431 44.7245 35.078 44.7016 35.0321 44.6557C34.9862 44.6021 34.9633 44.537 34.9633 44.4605V36.9655C34.9633 36.8813 34.9862 36.8163 35.0321 36.7704C35.078 36.7168 35.1431 36.69 35.2272 36.69H39.9676C40.0518 36.69 40.1168 36.7168 40.1627 36.7704C40.2086 36.8163 40.2316 36.8813 40.2316 36.9655V37.4017C40.2316 37.4858 40.2086 37.5509 40.1627 37.5968C40.1168 37.6427 40.0518 37.6657 39.9676 37.6657H36.0651V40.1793H39.7151C39.7993 40.1793 39.8643 40.2061 39.9102 40.2596C39.9561 40.3056 39.9791 40.3706 39.9791 40.4548V40.8794C39.9791 40.956 39.9561 41.021 39.9102 41.0746C39.8643 41.1205 39.7993 41.1434 39.7151 41.1434H36.0651V43.7489H40.0594C40.1436 43.7489 40.2086 43.7719 40.2545 43.8178C40.3005 43.8637 40.3234 43.9287 40.3234 44.0129V44.4605C40.3234 44.537 40.3005 44.6021 40.2545 44.6557C40.2086 44.7016 40.1436 44.7245 40.0594 44.7245H35.2272ZM41.4993 44.7245C41.438 44.7245 41.3807 44.7016 41.3271 44.6557C41.2812 44.6097 41.2582 44.5524 41.2582 44.4835C41.2582 44.4605 41.262 44.4337 41.2697 44.4031C41.285 44.3649 41.308 44.3228 41.3386 44.2769L43.3357 41.6714L41.4648 39.2037C41.4342 39.1578 41.4113 39.1195 41.396 39.0889C41.3883 39.0583 41.3845 39.0277 41.3845 38.9971C41.3845 38.9282 41.4074 38.8708 41.4533 38.8249C41.4993 38.779 41.5566 38.756 41.6255 38.756H42.2109C42.2951 38.756 42.3563 38.779 42.3945 38.8249C42.4404 38.8632 42.4787 38.9014 42.5093 38.9397L44.0359 40.9254L45.5624 38.9512C45.593 38.9129 45.6275 38.8708 45.6657 38.8249C45.7116 38.779 45.7767 38.756 45.8608 38.756H46.4232C46.4921 38.756 46.5495 38.779 46.5954 38.8249C46.6413 38.8708 46.6643 38.9282 46.6643 38.9971C46.6643 39.0277 46.6566 39.0583 46.6413 39.0889C46.6337 39.1195 46.6145 39.1578 46.5839 39.2037L44.6901 41.6944L46.6872 44.2769C46.7178 44.3228 46.737 44.3611 46.7446 44.3917C46.7599 44.4223 46.7676 44.4529 46.7676 44.4835C46.7676 44.5524 46.7446 44.6097 46.6987 44.6557C46.6528 44.7016 46.5954 44.7245 46.5265 44.7245H45.9182C45.8417 44.7245 45.7805 44.7054 45.7346 44.6671C45.6887 44.6289 45.6504 44.5906 45.6198 44.5524L44.0014 42.4519L42.3831 44.5524C42.3524 44.583 42.3142 44.6212 42.2683 44.6671C42.23 44.7054 42.1688 44.7245 42.0846 44.7245H41.4993ZM48.2375 46.9053C48.1609 46.9053 48.0959 46.8785 48.0423 46.825C47.9964 46.779 47.9735 46.7178 47.9735 46.6413V39.02C47.9735 38.9435 47.9964 38.8823 48.0423 38.8364C48.0959 38.7828 48.1609 38.756 48.2375 38.756H48.7654C48.842 38.756 48.9032 38.7828 48.9491 38.8364C49.0027 38.8823 49.0294 38.9435 49.0294 39.02V39.5251C49.2131 39.2725 49.4579 39.0621 49.764 38.8938C50.0701 38.7254 50.4527 38.6413 50.9118 38.6413C51.3403 38.6413 51.7038 38.714 52.0022 38.8593C52.3083 39.0047 52.557 39.2037 52.7483 39.4562C52.9472 39.7087 53.0964 39.9957 53.1959 40.317C53.2954 40.6384 53.3489 40.9827 53.3566 41.35C53.3642 41.4725 53.3681 41.6025 53.3681 41.7403C53.3681 41.878 53.3642 42.0081 53.3566 42.1305C53.3489 42.4902 53.2954 42.8345 53.1959 43.1635C53.0964 43.4849 52.9472 43.7719 52.7483 44.0244C52.557 44.2692 52.3083 44.4682 52.0022 44.6212C51.7038 44.7666 51.3403 44.8393 50.9118 44.8393C50.468 44.8393 50.093 44.759 49.787 44.5983C49.4885 44.4299 49.2437 44.2233 49.0524 43.9785V46.6413C49.0524 46.7178 49.0294 46.779 48.9835 46.825C48.9376 46.8785 48.8726 46.9053 48.7884 46.9053H48.2375ZM50.6708 43.9096C51.0687 43.9096 51.3786 43.8254 51.6005 43.6571C51.83 43.4811 51.9945 43.2554 52.094 42.9799C52.1935 42.6968 52.2509 42.3945 52.2662 42.0731C52.2738 41.8512 52.2738 41.6293 52.2662 41.4074C52.2509 41.086 52.1935 40.7876 52.094 40.5122C51.9945 40.229 51.83 40.0033 51.6005 39.835C51.3786 39.659 51.0687 39.571 50.6708 39.571C50.2958 39.571 49.9897 39.659 49.7525 39.835C49.523 40.011 49.3508 40.2367 49.236 40.5122C49.1289 40.78 49.0677 41.0554 49.0524 41.3386C49.0447 41.461 49.0409 41.6064 49.0409 41.7747C49.0409 41.9431 49.0447 42.0923 49.0524 42.2224C49.06 42.4902 49.1213 42.7542 49.236 43.0143C49.3585 43.2745 49.5383 43.4887 49.7755 43.6571C50.0127 43.8254 50.3111 43.9096 50.6708 43.9096ZM57.1753 44.8393C56.3871 44.8393 55.7597 44.5983 55.2929 44.1162C54.8262 43.6265 54.5698 42.9608 54.5239 42.119C54.5163 42.0196 54.5124 41.8933 54.5124 41.7403C54.5124 41.5796 54.5163 41.4495 54.5239 41.35C54.5545 40.8068 54.6808 40.3323 54.9027 39.9268C55.1246 39.5136 55.4268 39.196 55.8094 38.9741C56.1997 38.7522 56.655 38.6413 57.1753 38.6413C57.7568 38.6413 58.2427 38.7637 58.633 39.0086C59.0309 39.2534 59.3331 39.6016 59.5397 40.053C59.7463 40.5045 59.8496 41.0325 59.8496 41.637V41.8321C59.8496 41.9163 59.8228 41.9813 59.7693 42.0272C59.7234 42.0731 59.6622 42.0961 59.5856 42.0961H55.6143C55.6143 42.1037 55.6143 42.119 55.6143 42.142C55.6143 42.165 55.6143 42.1841 55.6143 42.1994C55.6296 42.5131 55.6985 42.8077 55.8209 43.0832C55.9433 43.351 56.1193 43.5691 56.3489 43.7374C56.5784 43.9058 56.8539 43.9899 57.1753 43.9899C57.4508 43.9899 57.6803 43.9479 57.864 43.8637C58.0476 43.7795 58.1968 43.6877 58.3116 43.5882C58.4264 43.4811 58.5029 43.4007 58.5411 43.3472C58.61 43.2477 58.6636 43.1903 58.7018 43.175C58.7401 43.1521 58.8013 43.1406 58.8855 43.1406H59.4364C59.5129 43.1406 59.5742 43.1635 59.6201 43.2094C59.6736 43.2477 59.6966 43.3051 59.6889 43.3816C59.6813 43.4964 59.6201 43.6379 59.5053 43.8063C59.3905 43.967 59.226 44.1277 59.0117 44.2884C58.7975 44.449 58.5373 44.583 58.2312 44.6901C57.9252 44.7896 57.5732 44.8393 57.1753 44.8393ZM55.6143 41.3041H58.7592V41.2697C58.7592 40.9254 58.6942 40.6193 58.5641 40.3515C58.4417 40.0836 58.2619 39.8732 58.0246 39.7202C57.7874 39.5595 57.5043 39.4791 57.1753 39.4791C56.8463 39.4791 56.5631 39.5595 56.3259 39.7202C56.0964 39.8732 55.9204 40.0836 55.7979 40.3515C55.6755 40.6193 55.6143 40.9254 55.6143 41.2697V41.3041ZM61.486 44.7245C61.4095 44.7245 61.3445 44.7016 61.2909 44.6557C61.245 44.6021 61.222 44.537 61.222 44.4605V39.0315C61.222 38.955 61.245 38.89 61.2909 38.8364C61.3445 38.7828 61.4095 38.756 61.486 38.756H62.014C62.0905 38.756 62.1556 38.7828 62.2091 38.8364C62.2627 38.89 62.2895 38.955 62.2895 39.0315V39.5365C62.4425 39.2764 62.6529 39.0812 62.9207 38.9512C63.1886 38.8211 63.5099 38.756 63.8849 38.756H64.344C64.4205 38.756 64.4817 38.7828 64.5276 38.8364C64.5736 38.8823 64.5965 38.9435 64.5965 39.02V39.4906C64.5965 39.5671 64.5736 39.6284 64.5276 39.6743C64.4817 39.7202 64.4205 39.7431 64.344 39.7431H63.6553C63.2421 39.7431 62.9169 39.8656 62.6797 40.1104C62.4425 40.3476 62.3239 40.6728 62.3239 41.086V44.4605C62.3239 44.537 62.2971 44.6021 62.2436 44.6557C62.19 44.7016 62.125 44.7245 62.0484 44.7245H61.486ZM67.9123 44.7245C67.4838 44.7245 67.1356 44.6442 66.8678 44.4835C66.6 44.3151 66.4048 44.0818 66.2824 43.7833C66.16 43.4773 66.0988 43.1176 66.0988 42.7044V39.6743H65.2035C65.127 39.6743 65.0619 39.6513 65.0084 39.6054C64.9625 39.5518 64.9395 39.4868 64.9395 39.4103V39.02C64.9395 38.9435 64.9625 38.8823 65.0084 38.8364C65.0619 38.7828 65.127 38.756 65.2035 38.756H66.0988V36.8392C66.0988 36.7627 66.1217 36.7015 66.1676 36.6556C66.2212 36.602 66.2862 36.5753 66.3628 36.5753H66.9022C66.9787 36.5753 67.0399 36.602 67.0859 36.6556C67.1394 36.7015 67.1662 36.7627 67.1662 36.8392V38.756H68.5895C68.666 38.756 68.7272 38.7828 68.7731 38.8364C68.8267 38.8823 68.8534 38.9435 68.8534 39.02V39.4103C68.8534 39.4868 68.8267 39.5518 68.7731 39.6054C68.7272 39.6513 68.666 39.6743 68.5895 39.6743H67.1662V42.6241C67.1662 42.9837 67.2274 43.2668 67.3498 43.4734C67.4723 43.68 67.6904 43.7833 68.0041 43.7833H68.7042C68.7808 43.7833 68.842 43.8101 68.8879 43.8637C68.9414 43.9096 68.9682 43.9708 68.9682 44.0473V44.4605C68.9682 44.537 68.9414 44.6021 68.8879 44.6557C68.842 44.7016 68.7808 44.7245 68.7042 44.7245H67.9123Z" fill="white"/>
<defs>
<linearGradient id="paint0_linear_189_3617" x1="17.5269" y1="21.9695" x2="35.0073" y2="22.8475" gradientUnits="userSpaceOnUse">
<stop stop-color="#0064E1"/>
<stop offset="0.4" stop-color="#0064E1"/>
<stop offset="0.83" stop-color="#0073EE"/>
<stop offset="1" stop-color="#0082FB"/>
</linearGradient>
<linearGradient id="paint1_linear_189_3617" x1="16.1143" y1="23.9224" x2="16.1143" y2="17.4424" gradientUnits="userSpaceOnUse">
<stop stop-color="#0082FB"/>
<stop offset="1" stop-color="#0064E0"/>
</linearGradient>
<clipPath id="clip0_189_3617">
<rect width="83.6916" height="16.9546" fill="white" transform="translate(12.1411 11.5837)"/>
</clipPath>
</defs>
</svg>
