<svg width="48" height="48" viewBox="0 0 48 48" fill="none" xmlns="http://www.w3.org/2000/svg">
<path d="M41.1511 12.0674C41.0909 19.248 37.993 24.4554 30.8459 25.0702C30.8133 25.0701 30.7873 25.0503 30.7875 25.0177C30.7595 24.67 30.6315 23.0802 30.6397 23.1818C30.6333 23.1557 30.666 23.1298 30.6987 23.1299C36.7518 22.5964 39.1473 18.1825 39.207 12.0511C39.207 12.0445 39.2071 12.0249 39.1876 12.0118C39.1682 11.979 39.1421 11.9789 39.1356 11.9788C34.3513 11.9348 34.4381 11.9987 34.4385 11.9096C34.4706 10.1754 34.3985 10.0089 34.4998 10.0094L39.0601 10.0323C40.2932 10.0385 41.1563 10.9678 41.1511 12.0674Z" fill="#FFB63C"/>
<path d="M40.0205 12.0618C39.9601 20.2451 35.9923 24.181 30.7809 24.9343C30.6709 23.2171 30.5752 23.1308 30.698 23.1314C36.751 22.5976 39.146 18.1832 39.205 12.0512C39.205 12.0447 39.2051 12.0251 39.1856 12.0119C39.1663 11.9791 39.1401 11.979 39.1337 11.9789C33.1182 11.9287 33.3075 11.9926 33.3079 11.9042L33.3165 10.069C33.3171 9.94006 33.2322 10.0365 37.9292 10.0266C38.4251 10.0291 38.9398 10.1884 39.3166 10.5234C39.7781 10.9046 40.0233 11.4675 40.0205 12.0618Z" fill="#FFCA6C"/>
<path d="M17.4251 24.937L17.4184 24.9826C17.4182 25.0153 17.392 25.0348 17.3529 25.0346C10.2723 24.3538 7.16404 19.1619 7.17434 11.9321C7.17972 10.863 8.03412 9.91243 9.29216 9.91877C13.9961 9.97579 13.9056 9.87664 13.9049 10.0074C13.8704 11.8325 13.9452 11.8878 13.8433 11.8873C8.93396 11.8625 9.18452 11.8313 9.14512 11.8963C9.11901 11.9092 9.11891 11.9288 9.11888 11.9354C9.12829 18.0516 11.4655 22.5009 17.5257 23.0964C17.6336 23.0969 17.553 23.1701 17.4251 24.937Z" fill="#FFB63C"/>
<path d="M17.4257 24.9368C10.7808 23.8939 8.05936 18.7212 8.06862 11.9355C8.07401 10.8521 8.93701 9.91571 10.1861 9.92201C14.8596 9.97868 14.7994 9.87705 14.7987 10.0106C14.7636 11.8709 14.8442 11.8912 14.7306 11.8906C8.87113 11.8611 9.18467 11.8303 9.14534 11.8952C9.11923 11.9081 9.11913 11.9277 9.1191 11.9342C9.12889 18.0509 11.4662 22.5006 17.5262 23.0961C17.6341 23.0967 17.5535 23.1698 17.4257 24.9368Z" fill="#FFCA6C"/>
<path d="M28.3211 35.7054L19.8176 35.662C20.6568 33.424 21.4205 31.4954 21.9678 29.7542C21.9746 29.7475 21.9745 29.7543 21.9745 29.7543C22.2687 28.7996 22.5089 27.8985 22.6546 27.0307L25.5699 27.0456C25.7273 27.8881 25.9652 28.7847 26.2634 29.7492C26.8069 31.4824 27.5377 33.4457 28.3211 35.7054Z" fill="#FFCA6C"/>
<path d="M25.6574 27.4491C25.6287 27.3143 25.5897 27.1716 25.5649 27.0395L22.6465 27.0281C22.6241 27.1616 22.5858 27.302 22.5591 27.437L25.6574 27.4491Z" fill="#ED8D28"/>
<path d="M20.5258 33.796C20.2973 34.3987 20.0623 35.0177 19.8174 35.67L28.3292 35.7056C28.1023 35.0525 27.8824 34.4309 27.6677 33.8258L20.5258 33.796Z" fill="#ED8D28"/>
<path d="M34.593 37.1688L34.5707 41.7373L13.5261 41.6411L13.5484 37.0726C13.5544 35.8278 14.5701 34.8299 15.81 34.8355L32.3532 34.9112C33.5728 34.9167 34.5991 35.9114 34.593 37.1688Z" fill="#613941"/>
<path d="M33.3576 36.1532L33.341 39.5846C33.338 40.2126 32.8256 40.7194 32.1966 40.7165L13.5303 40.6318L13.5475 37.0725C13.5535 35.8277 14.5692 34.8298 15.8091 34.8354L32.3528 34.9105C32.5954 34.9116 32.831 34.9531 33.0531 35.0281C33.247 35.3519 33.3596 35.7427 33.3576 36.1532Z" fill="#804F59"/>
<path d="M17.433 24.9808C17.4329 25.0144 17.4058 25.0345 17.3721 25.0344C16.8671 24.9848 16.3825 24.9151 15.9182 24.8186C15.3915 24.021 14.8259 22.9642 14.5825 22.4089C15.4364 22.7496 16.4187 22.9899 17.5431 23.0963C17.6533 23.0969 17.5705 23.1788 17.433 24.9808Z" fill="#ED8D28"/>
<path d="M33.6638 22.4804C33.2556 23.3403 32.8005 24.1461 32.2986 24.8844C31.8335 24.9697 31.3483 25.0347 30.8497 25.0794C30.7426 25.0789 30.8131 25.0479 30.6432 23.1928C30.6019 23.0245 31.7401 23.2268 33.6638 22.4804Z" fill="#ED8D28"/>
<path d="M36.0182 11.9623C34.5324 11.9362 34.4288 11.9959 34.4292 11.9074C34.4621 10.1704 34.3872 10.0079 34.4921 10.0084L36.0071 10.0159C36.0351 10.6787 36.0322 11.5738 36.0182 11.9623Z" fill="#ED8D28"/>
<path d="M26.2595 29.7453C24.9234 30.1491 23.4421 30.1737 21.9686 29.7516C22.2628 28.797 22.503 27.8961 22.6486 27.0284L25.5653 27.0424C25.7229 27.8847 25.9611 28.7811 26.2595 29.7453Z" fill="#ED8D28"/>
<path d="M24.0816 28.7668C20.627 28.7499 17.5686 26.1219 15.6552 22.0719C13.529 17.5956 13.0532 11.9572 14.0434 6.95867L34.3335 7.058C36.2979 17.4973 31.4763 28.803 24.0816 28.7668Z" fill="#FFB63C"/>
<path d="M13.8869 11.8364C13.8865 11.9246 13.7854 11.8641 12.3043 11.8757C12.2782 11.4233 12.3025 10.4039 12.327 9.92945L13.8421 9.93688C13.9468 9.93739 13.8704 10.0965 13.8869 11.8364Z" fill="#ED8D28"/>
<path d="M31.9556 7.90853C31.9114 17.1881 27.1211 24.68 21.2623 24.6513C19.1948 24.6412 17.2666 23.6958 15.6513 22.0716C13.5251 17.5955 13.0494 11.9573 14.0396 6.95889L31.9462 7.04649C31.9516 7.32938 31.957 7.61901 31.9556 7.90853Z" fill="#FFCA6C"/>
<path d="M35.3964 6.59122C35.112 6.86605 34.7271 7.03949 34.2957 7.03773L14.0542 6.95529C13.4543 6.95285 12.9301 6.60743 12.6828 6.10835C12.6695 6.08817 12.6561 6.0679 12.6495 6.04766C12.1733 4.96422 12.9858 3.85477 14.068 3.85918C35.4439 3.97422 34.36 3.8711 34.8146 4.02444C35.898 4.40196 36.2034 5.79244 35.3964 6.59122Z" fill="#ED8D28"/>
<path d="M32.8975 6.18995L12.6825 6.10884C12.6691 6.08865 12.6557 6.06839 12.6491 6.04814C12.1729 4.96462 12.9853 3.85501 14.0675 3.85935L34.2892 3.94049C34.7978 4.93519 34.096 6.19475 32.8975 6.18995Z" fill="#FFB63C"/>
<path d="M32.6041 3.93091C32.3738 4.51016 31.7946 4.89085 31.1643 4.88844L12.6268 4.81782C12.8253 4.30091 13.3885 3.8577 14.0665 3.86029L32.6041 3.93091Z" fill="#FFCA6C"/>
<path d="M36.0722 42.5319L36.0674 43.6697C36.0666 43.8515 35.9177 43.9923 35.7424 43.9916L12.1113 43.8987C11.9361 43.898 11.7951 43.7561 11.7959 43.5743L11.8008 42.4365C11.8026 42.0056 12.1479 41.6569 12.5793 41.6586L35.2937 41.7479C35.7251 41.7496 36.0741 42.101 36.0722 42.5319Z" fill="#613941"/>
<path d="M35.1391 41.7458L35.1343 42.8771C35.1335 43.059 34.9914 43.1998 34.8094 43.1991L11.7978 43.1106L11.8007 42.4372C11.8025 42.0062 12.1477 41.6573 12.5792 41.659L35.1391 41.7458Z" fill="#804F59"/>
<path d="M25.6434 11.1431L26.4165 12.7275C26.5633 13.0283 26.8487 13.2376 27.1797 13.2873L28.9232 13.5487C29.7568 13.6737 30.0853 14.7003 29.479 15.2858L28.2111 16.5106C27.9703 16.7431 27.8594 17.0792 27.9145 17.4093L28.2047 19.1482C28.3435 19.9795 27.4686 20.6091 26.7243 20.2134L25.1676 19.386C24.872 19.2289 24.5181 19.2273 24.2211 19.3817L22.6569 20.1949C21.9091 20.5837 21.04 19.9463 21.1862 19.1162L21.492 17.3801C21.5501 17.0504 21.4423 16.7133 21.2036 16.4786L19.9467 15.2424C19.3458 14.6513 19.6835 13.6278 20.5182 13.5104L22.264 13.2649C22.5954 13.2183 22.8827 13.0115 23.0322 12.7121L23.8195 11.1348C24.196 10.3807 25.2738 10.3856 25.6434 11.1431Z" fill="#ED8D28"/>
<path d="M24.9174 10.2637L25.6905 11.8481C25.8372 12.1489 26.1227 12.3583 26.4537 12.4079L28.1972 12.6693C29.0308 12.7943 29.3592 13.8209 28.753 14.4064L27.485 15.6312C27.2443 15.8637 27.1334 16.1998 27.1885 16.5299L27.4786 18.2688C27.6174 19.1002 26.7426 19.7297 25.9982 19.3341L24.4415 18.5066C24.1459 18.3495 23.792 18.3479 23.495 18.5023L21.9309 19.3155C21.183 19.7043 20.3139 19.0669 20.4601 18.2368L20.766 16.5007C20.824 16.171 20.7162 15.834 20.4776 15.5992L19.2207 14.363C18.6197 13.7719 18.9574 12.7484 19.7921 12.631L21.5379 12.3855C21.8693 12.3389 22.1566 12.1321 22.3061 11.8327L23.0935 10.2554C23.4699 9.50132 24.5477 9.50623 24.9174 10.2637Z" fill="white"/>
<g opacity="0.5">
<path d="M29.4956 36.9651L29.4865 39.0142C29.4851 39.3285 29.2289 39.5822 28.9142 39.5809L19.2046 39.5395C18.89 39.5382 18.6361 39.2823 18.6375 38.968L18.6466 36.9189C18.648 36.6046 18.9042 36.3509 19.2188 36.3522L28.9284 36.3936C29.2431 36.3949 29.497 36.6508 29.4956 36.9651Z" fill="white"/>
</g>
<g opacity="0.49">
<path d="M14.9412 39.2369C14.9421 39.3063 14.9317 39.7939 14.8704 39.8794C14.811 39.9457 14.6952 39.8816 14.6271 39.787C14.5115 39.5966 14.4997 39.2463 14.5102 39.0492C14.5097 38.9089 14.6245 38.5659 14.7899 38.6414C14.9631 38.7578 14.945 38.9456 14.9412 39.2369Z" fill="white"/>
<path d="M15.4921 36.8317C15.4617 37.0416 15.3031 37.9047 15.1493 38.0494C14.9999 38.1893 14.732 38.1093 14.6099 37.9399C14.3792 37.6192 14.4507 36.9623 14.5251 36.5941C14.5739 36.3339 14.933 35.6554 15.2962 35.7555C15.7092 35.8451 15.5395 36.4727 15.4921 36.8317Z" fill="white"/>
</g>
<path d="M15.6939 8.42652C15.8954 8.64918 15.9558 9.15854 15.9716 9.57352C16.0169 10.7578 15.9424 11.9441 15.6303 12.8133C15.4764 13.2422 15.1685 13.2664 14.9725 12.702C14.3108 10.7966 15.0853 7.75405 15.6939 8.42652Z" fill="white"/>
<path d="M15.6118 14.4104C15.7538 15.0398 15.8411 15.7176 15.787 16.3159C15.7322 16.9216 15.3124 16.6656 15.1359 15.371C14.9695 14.1507 15.3573 13.2819 15.6118 14.4104Z" fill="white"/>
<path d="M26.4075 5.4548C31.0184 4.95919 31.697 5.90714 33.3177 4.51103C32.9685 5.00017 32.4398 5.39218 31.8249 5.54277C31.0664 5.77092 27.4799 5.57856 26.4075 5.4548Z" fill="white"/>
<path d="M40.8141 33.8083C40.4979 33.2707 40.003 32.7902 39.3809 32.3376C38.7527 33.0944 38.2001 33.7497 37.0244 34.838C39.2918 29.7792 32.4789 27.1944 32.7992 22.6552C34.3493 22.0515 35.8077 21.0496 37.0391 19.9116C34.508 25.5712 43.346 28.1419 40.8141 33.8083Z" fill="#0B2FA3"/>
<path d="M11.1349 35.5194C10.2311 34.595 9.49977 33.7371 8.8961 32.9135C8.33132 33.2784 7.77485 33.7448 7.39527 34.3093C5.13166 28.5367 14.0813 26.3803 11.8177 20.6078C13.0896 21.5108 14.372 22.2901 15.8423 22.7807C16.8129 27.8501 9.00189 30.0785 11.1349 35.5194Z" fill="#0B2FA3"/>
<path d="M37.0241 34.8387C39.2914 29.7797 32.4786 27.1949 32.7989 22.6556C33.6919 22.3078 34.5426 21.8381 35.3631 21.2615C34.9624 22.9957 35.1049 24.759 35.6775 26.3308C36.7495 29.2302 38.5842 29.7016 39.1974 32.5675C38.5962 33.2916 37.8814 34.045 37.0241 34.8387Z" fill="#016BE3"/>
<path d="M11.1354 35.5194C10.2315 34.595 9.50023 33.7371 8.89657 32.9134C8.66687 33.0619 8.45013 33.2186 8.26064 33.3782C9.16015 30.8383 11.7354 31.0214 12.854 25.3179C13.1555 23.7005 13.3498 22.9298 14.8387 22.4119C14.8455 22.4127 14.8531 22.4065 14.8607 22.4004C15.1838 22.5451 15.509 22.6692 15.8426 22.7805C16.8131 27.85 9.00234 30.0784 11.1354 35.5194Z" fill="#016BE3"/>
</svg>
