<svg width="39" height="39" viewBox="0 0 39 39" fill="none" xmlns="http://www.w3.org/2000/svg">
<g clip-path="url(#clip0_192_7131)">
<path d="M26.9964 20.2766C27.0211 20.2766 27.0458 20.2757 27.0708 20.2742L37.808 19.6038C38.2166 19.5785 38.5832 19.345 38.7789 18.9858C38.9744 18.6267 38.972 18.192 38.7721 17.8349C38.7159 17.7344 37.3626 15.3483 34.7856 13.2673C31.3031 10.4555 27.2547 9.54349 23.0783 10.6301C22.7317 10.7203 22.4442 10.9619 22.2955 11.2877C22.1467 11.6135 22.1526 11.989 22.3118 12.3098L25.9303 19.6148C26.132 20.0219 26.5465 20.2766 26.9964 20.2766Z" fill="#FF5B5B"/>
<path d="M18.3403 39C18.5361 39 18.7319 38.9518 18.9095 38.8548C19.2686 38.659 19.5022 38.2927 19.5278 37.8842L20.1979 27.1469C20.2276 26.6688 19.9679 26.2192 19.5385 26.0064L12.2335 22.3877C11.9124 22.2288 11.5372 22.2228 11.2114 22.3716C10.8853 22.5201 10.644 22.8078 10.5538 23.1545C9.46687 27.3308 10.3789 31.3792 13.191 34.8617C15.2717 37.4388 17.658 38.7917 17.7586 38.8483C17.9392 38.9494 18.1398 39 18.3403 39Z" fill="#FF193D"/>
<path d="M1.83265 9.60212L9.52601 1.90876C9.83427 1.6005 10.2865 1.48564 10.7046 1.60913C15.8548 3.13256 20.0827 5.52186 23.2715 8.71037C23.9365 9.37569 24.5753 10.0966 25.1698 10.853C26.8986 13.051 28.3426 15.6498 29.4613 18.5773C30.174 20.4432 30.7542 22.4421 31.1859 24.5184C31.9399 28.1452 31.9804 30.7446 31.9818 30.8535C31.9857 31.1739 31.8602 31.4828 31.6334 31.7095C31.4103 31.9327 31.1074 32.058 30.792 32.058H30.7774C30.6682 32.0568 28.0688 32.0163 24.4423 31.2623C22.366 30.8306 20.3671 30.2504 18.5009 29.5374C15.5736 28.4187 12.9749 26.975 10.7775 25.2465C10.0205 24.6517 9.29958 24.0129 8.63427 23.3476C5.44546 20.1588 3.05616 15.9309 1.53302 10.7807C1.40924 10.3626 1.52439 9.91038 1.83265 9.60212Z" fill="#E1F1FA"/>
<path d="M23.6295 29.4696L29.3935 23.7055C29.819 23.28 30.4954 23.2393 30.9691 23.6106C31.3371 23.8992 31.6873 24.2093 32.0099 24.5318C36.0205 28.5424 36.1446 34.7567 36.1478 35.0191C36.152 35.3399 36.0264 35.6487 35.7994 35.8755C35.5763 36.0989 35.2737 36.2242 34.9583 36.2242C34.9532 36.2242 34.9481 36.2242 34.9431 36.2239C34.6806 36.2206 28.4661 36.0965 24.4558 32.0859C24.1332 31.7634 23.8232 31.4132 23.5346 31.0451C23.1632 30.5714 23.204 29.8951 23.6295 29.4696Z" fill="#FFF261"/>
<path d="M29.3693 18.3393L32.9057 21.8759C33.1288 22.0988 33.2544 22.4014 33.2544 22.7171C33.2544 23.0325 33.1288 23.3351 32.9057 23.5583L23.4821 32.9819C23.2592 33.205 22.9566 33.3303 22.6409 33.3303C22.3252 33.3303 22.0229 33.205 21.7997 32.9819L18.2634 29.4455L29.3693 18.3393Z" fill="#1B3B6B"/>
<path d="M13.9316 17.6377C14.901 17.6377 15.8127 17.2601 16.4982 16.5745C17.9134 15.1594 17.9134 12.857 16.4982 11.4416C15.8127 10.756 14.901 10.3784 13.9316 10.3784C12.9622 10.3784 12.0505 10.756 11.3649 11.4416C10.6794 12.1271 10.3018 13.0385 10.3018 14.0082C10.3018 14.9776 10.6794 15.889 11.3649 16.5745C12.0505 17.2601 12.9622 17.6377 13.9316 17.6377Z" fill="#06CCAB"/>
<path d="M13.9319 18.8014C15.2123 18.8014 16.4159 18.3027 17.321 17.3976C19.1899 15.5287 19.1899 12.4877 17.321 10.6189C16.4159 9.71371 15.212 9.21503 13.9319 9.21503C12.6516 9.21503 11.448 9.71371 10.5426 10.6189C9.63715 11.5243 9.13876 12.7279 9.13876 14.0082C9.13876 15.2885 9.63715 16.4921 10.5426 17.3976C11.448 18.3027 12.6516 18.8014 13.9319 18.8014ZM13.9319 11.5945C14.5764 11.5945 15.1828 11.8456 15.6387 12.3015C16.5795 13.2426 16.5795 14.7738 15.6387 15.7149C15.1828 16.1708 14.5764 16.4219 13.9319 16.4219C13.2872 16.4219 12.681 16.1708 12.2252 15.7149C11.7694 15.2591 11.5182 14.653 11.5182 14.0082C11.5182 13.3634 11.7694 12.7573 12.2252 12.3015C12.681 11.8456 13.2872 11.5945 13.9319 11.5945Z" fill="#1B3B6B"/>
<path d="M0.272311 0.348738C0.499339 0.12171 0.809978 -0.00593779 1.12895 0.00031069C1.30539 0.00239352 5.51121 0.0732095 10.7046 1.60914L1.53302 10.7807C-0.0029192 5.58734 -0.0737362 1.38152 -0.075819 1.20508C-0.0799837 0.884321 0.0455799 0.575468 0.272311 0.348738Z" fill="#FF5B5B"/>
<path d="M1.83253 9.60211L5.67921 5.75543L31.6333 31.7095C31.4101 31.9327 31.1075 32.058 30.7921 32.058H30.7773C30.6684 32.0568 28.069 32.0163 24.4422 31.2623C22.3659 30.8306 20.3673 30.2504 18.5011 29.5374C15.5735 28.4187 12.9748 26.975 10.7774 25.2465C10.0207 24.6517 9.29946 24.0129 8.63444 23.3476C5.44564 20.1588 3.05634 15.9309 1.5332 10.7807C1.40912 10.3626 1.52427 9.91037 1.83253 9.60211Z" fill="#CDEBFC"/>
<path d="M23.6296 29.4696L26.5116 26.5876L35.7998 35.8755V35.8758C35.5763 36.0989 35.2737 36.2242 34.9583 36.2242H34.9435C34.6807 36.2209 28.4665 36.0965 24.4558 32.0859C24.1333 31.7634 23.8233 31.4132 23.5349 31.0451C23.1633 30.5714 23.2038 29.8951 23.6296 29.4696Z" fill="#FDBF00"/>
<path d="M23.816 23.8924L28.1938 28.2702L23.4819 32.9821C23.259 33.205 22.9564 33.3306 22.6407 33.3306C22.325 33.3306 22.0227 33.205 21.7996 32.9821L18.2632 29.4455L23.816 23.8924Z" fill="#001035"/>
<path d="M11.3653 11.4416C11.3656 11.4416 11.3656 11.4416 11.3656 11.4416L16.4985 16.5745H16.4982C15.813 17.2601 14.9013 17.6377 13.9319 17.6377C12.9625 17.6377 12.0508 17.2601 11.3653 16.5745C10.6797 15.889 10.3021 14.9776 10.3021 14.0082C10.3024 13.0388 10.6797 12.1271 11.3653 11.4416Z" fill="#1CADB5"/>
<path d="M10.5426 10.6188L12.2252 12.3015C11.7694 12.7573 11.5182 13.3634 11.5182 14.0082C11.5182 14.653 11.7694 15.2591 12.2252 15.7149C12.6811 16.1708 13.2872 16.4219 13.9319 16.4219C14.5767 16.4219 15.1828 16.1708 15.6387 15.7149C15.6387 15.7149 15.6387 15.7149 15.6387 15.7146L17.3213 17.3972V17.3975C16.4159 18.3027 15.2123 18.8014 13.9319 18.8014C12.6516 18.8014 11.448 18.3027 10.5426 17.3975C9.63745 16.4921 9.13876 15.2885 9.13876 14.0082C9.13876 12.7278 9.63745 11.5243 10.5426 10.6188Z" fill="#001035"/>
<path d="M0.272458 0.348419L6.11865 6.19491L1.53287 10.7807C-0.00306988 5.58732 -0.0738859 1.3815 -0.0759687 1.20506C-0.0801344 0.8843 0.0454302 0.575447 0.272458 0.348419Z" fill="#FF193D"/>
</g>
<defs>
<clipPath id="clip0_192_7131">
<rect width="39" height="39" fill="white" transform="matrix(-1 0 0 1 39 0)"/>
</clipPath>
</defs>
</svg>
