<svg width="18" height="17" viewBox="0 0 18 17" fill="none" xmlns="http://www.w3.org/2000/svg">
<path fill-rule="evenodd" clip-rule="evenodd" d="M16.8321 3.18194C17.3757 3.18194 17.817 2.59998 17.817 1.88198C17.817 1.16399 17.3757 0.582031 16.8321 0.582031L1.0865 0.583024C0.54141 0.583024 0.101562 1.16498 0.101562 1.88298C0.101562 2.60097 0.54141 3.18293 1.0865 3.18293H16.8313L16.8321 3.18194ZM16.8321 16.83C17.3757 16.83 17.817 16.248 17.817 15.53C17.817 14.812 17.3757 14.2301 16.8321 14.2301L1.0865 14.2311C0.54141 14.2311 0.101562 14.813 0.101562 15.531C0.101562 16.249 0.54141 16.831 1.0865 16.831H16.8313L16.8321 16.83ZM16.8321 7.40672C17.3757 7.40672 17.817 7.98868 17.817 8.70667C17.817 9.42467 17.3757 10.0066 16.8321 10.0066H1.0865C0.54141 10.0066 0.101562 9.42467 0.101562 8.70667C0.101562 7.98868 0.54141 7.40672 1.0865 7.40672H16.8321Z" fill="#333957"/>
</svg>
