<svg width="35" height="35" viewBox="0 0 35 35" fill="none" xmlns="http://www.w3.org/2000/svg">
<path d="M25.6807 21.1738L25.3236 23.2548C25.291 23.4452 25.3693 23.6377 25.5255 23.7513C25.6818 23.8648 25.8889 23.8798 26.0601 23.7899L27.929 22.8074L29.7978 23.7899C29.8721 23.829 29.9532 23.8482 30.0339 23.8482C30.1393 23.8482 30.244 23.8155 30.3323 23.7512C30.4887 23.6376 30.567 23.4452 30.5342 23.2548L30.1774 21.1738L31.6893 19.6999C31.8276 19.5651 31.8774 19.3634 31.8177 19.1796C31.758 18.9959 31.5992 18.8619 31.408 18.8342L29.3185 18.5305L28.3841 16.6372C28.2985 16.464 28.1221 16.3542 27.9289 16.3542C27.7356 16.3542 27.5592 16.464 27.4737 16.6372L26.5391 18.5305L24.4497 18.8342C24.2586 18.8619 24.0997 18.9959 24.04 19.1796C23.9803 19.3633 24.0301 19.5651 24.1684 19.6999L25.6807 21.1738ZM26.9494 19.4968C27.1147 19.4728 27.2576 19.3689 27.3315 19.2191L27.929 18.0087L28.5263 19.2191C28.6003 19.3689 28.7432 19.4727 28.9084 19.4968L30.2442 19.6909L29.2776 20.6332C29.158 20.7498 29.1034 20.9178 29.1317 21.0824L29.3599 22.4127L28.1652 21.7846C28.0912 21.7458 28.0101 21.7264 27.929 21.7264C27.8479 21.7264 27.7668 21.7458 27.6928 21.7846L26.4981 22.4127L26.7263 21.0825C26.7546 20.9178 26.7 20.7498 26.5804 20.6331L25.6138 19.6909L26.9494 19.4968Z" fill="white"/>
<path d="M4.29442 16.0882L3.93742 18.1691C3.90473 18.3595 3.98303 18.552 4.1393 18.6656C4.29557 18.7791 4.50274 18.7942 4.67383 18.7042L6.54277 17.7217L8.41158 18.7042C8.4859 18.7433 8.56698 18.7625 8.64772 18.7625C8.75302 18.7625 8.85772 18.7298 8.94611 18.6655C9.10245 18.5519 9.18075 18.3595 9.148 18.1691L8.79113 16.0881L10.3031 14.6143C10.4414 14.4794 10.4911 14.2777 10.4315 14.0939C10.3718 13.9102 10.2129 13.7763 10.0217 13.7485L7.93228 13.4449L6.99785 11.5515C6.9123 11.3783 6.73586 11.2686 6.54264 11.2686C6.34942 11.2686 6.17298 11.3783 6.08743 11.5515L5.15286 13.4448L3.06348 13.7485C2.87236 13.7763 2.71345 13.9103 2.65375 14.0939C2.59406 14.2776 2.64387 14.4794 2.78214 14.6143L4.29442 16.0882ZM5.56319 14.4111C5.72846 14.3872 5.8714 14.2833 5.94531 14.1335L6.54277 12.923L7.14011 14.1335C7.21408 14.2833 7.35695 14.3871 7.52222 14.4111L8.85799 14.6052L7.89141 15.5475C7.77175 15.6641 7.7172 15.8321 7.74549 15.9968L7.97364 17.3271L6.77897 16.699C6.705 16.6602 6.62392 16.6408 6.54277 16.6408C6.46169 16.6408 6.38055 16.6602 6.30658 16.699L5.11184 17.3271L5.34006 15.9969C5.36835 15.8321 5.31373 15.6641 5.19414 15.5475L4.22755 14.6052L5.56319 14.4111Z" fill="white"/>
<path d="M14.4034 3.36753V3.98456C14.4034 5.43335 15.4566 6.64 16.8374 6.88134V8.30509C15.5935 8.50759 14.6074 9.48582 14.3927 10.7256H13.6823C13.0277 10.7256 13.0277 11.7407 13.6823 11.7407H20.9697C21.6243 11.7407 21.6243 10.7256 20.9697 10.7256H20.2385C20.0272 9.50544 19.0687 8.53886 17.8526 8.31558V6.88127C19.2334 6.64 20.2866 5.43329 20.2866 3.98449V3.36218C20.9346 3.27501 21.4497 3.01472 21.8211 2.58428C22.5726 1.71319 22.4008 0.48523 22.3931 0.433455C22.3562 0.184601 22.1426 0.000244141 21.8909 0.000244141H19.7789H19.7546H14.911C14.9087 0.000244141 14.9066 0.000582534 14.9043 0.000582534C14.902 0.000582534 14.8998 0.000244141 14.8975 0.000244141H12.7611C12.5094 0.000244141 12.2959 0.184601 12.259 0.433455C12.2513 0.485297 12.0795 1.71319 12.831 2.58428C13.2096 3.02325 13.7373 3.28564 14.4034 3.36753ZM19.2006 10.7256H15.4305C15.6545 9.89466 16.4148 9.28122 17.3156 9.28122C18.2164 9.28122 18.9766 9.8946 19.2006 10.7256ZM21.0523 1.92117C20.8732 2.12874 20.6166 2.2664 20.2865 2.33326V1.01542H21.392C21.3681 1.29216 21.2872 1.64883 21.0523 1.92117ZM15.4185 1.01542H19.2714V2.82894C19.2691 2.8483 19.2676 2.86792 19.2676 2.88796C19.2676 2.90799 19.2691 2.92755 19.2714 2.94697V3.98456C19.2714 5.0467 18.4072 5.91089 17.345 5.91089C16.2827 5.91089 15.4185 5.0467 15.4185 3.98456V1.01542ZM14.4034 1.01542V2.3403C14.0572 2.27695 13.7888 2.13842 13.6032 1.9253C13.3656 1.65269 13.2841 1.29365 13.2601 1.01542H14.4034Z" fill="white"/>
<path d="M34.1439 33.7035H33.36V27.0526C33.36 26.333 32.7747 25.7476 32.0553 25.7476H23.3215C23.1967 25.7476 23.0763 25.7663 22.9619 25.7991V15.0826C22.9619 14.363 22.3767 13.7776 21.6574 13.7776H12.9237C12.2045 13.7776 11.6193 14.363 11.6193 15.0826V20.478C11.5261 20.4568 11.4295 20.4445 11.3299 20.4445H2.59622C1.8768 20.4445 1.29151 21.0298 1.29151 21.7493V25.7175C1.29151 26.3721 2.30669 26.3721 2.30669 25.7175V21.7493C2.30669 21.5897 2.43657 21.4597 2.59622 21.4597H11.3299C11.4895 21.4597 11.6193 21.5897 11.6193 21.7493V33.7035H2.30669V28.2216C2.30669 27.5669 1.29151 27.5669 1.29151 28.2216V33.7035H0.50759C0.227197 33.7035 0 33.9307 0 34.2111C0 34.4915 0.227197 34.7187 0.50759 34.7187H34.1439C34.4243 34.7187 34.6515 34.4915 34.6515 34.2111C34.6515 33.9307 34.4242 33.7035 34.1439 33.7035ZM12.6345 33.7035V21.7493V15.0826C12.6345 14.9228 12.7642 14.7928 12.9236 14.7928H21.6574C21.8169 14.7928 21.9467 14.9228 21.9467 15.0826V33.7036H12.6345V33.7035ZM23.0321 33.7035V27.0526C23.0321 26.8928 23.1619 26.7628 23.3215 26.7628H32.0552C32.2148 26.7628 32.3447 26.8928 32.3447 27.0526V33.7035H23.0321Z" fill="white"/>
</svg>
