<svg width="18" height="18" viewBox="0 0 18 18" fill="none" xmlns="http://www.w3.org/2000/svg">
<g clip-path="url(#clip0_189_5124)">
<path opacity="0.2" d="M18 9C18 4.02944 13.9706 0 9 0C4.02944 0 0 4.02944 0 9C0 13.9706 4.02944 18 9 18C13.9706 18 18 13.9706 18 9Z" fill="white"/>
<path d="M15 9C15 5.68629 12.3137 3 9 3C5.68629 3 3 5.68629 3 9C3 12.3137 5.68629 15 9 15C12.3137 15 15 12.3137 15 9Z" fill="white"/>
<path d="M6 9.0006L7.9998 11.0012L12 7" stroke="white" stroke-width="2"/>
<path d="M6 8.99963L7.9998 11.0002L12 6.99902" stroke="#0B2FA3" stroke-width="2"/>
</g>
<defs>
<clipPath id="clip0_189_5124">
<rect width="18" height="18" fill="white"/>
</clipPath>
</defs>
</svg>
