<svg width="102" height="102" viewBox="0 0 102 102" fill="none" xmlns="http://www.w3.org/2000/svg">
<g filter="url(#filter0_d_1_2)">
<circle cx="51" cy="47" r="47" fill="white"/>
</g>
<path d="M39.7334 55.2236C39.337 55.2236 39.0156 55.545 39.0156 55.9414V57.2334C39.0156 57.6298 39.337 57.9512 39.7334 57.9512C40.1298 57.9512 40.4512 57.6298 40.4512 57.2334V55.9414C40.4512 55.545 40.1298 55.2236 39.7334 55.2236Z" fill="url(#paint0_linear_1_2)"/>
<path d="M72.733 64.7551H71.5709V44.8403C73.4959 44.4996 74.9631 42.8157 74.9631 40.7944V38.0308C74.9631 38.0168 74.9617 38.003 74.961 37.9891C74.9605 37.9814 74.9605 37.9736 74.9598 37.9659C74.9572 37.9375 74.9533 37.9097 74.9476 37.8825C74.9473 37.8809 74.9467 37.8793 74.9463 37.8778C74.9407 37.8517 74.9333 37.8262 74.9249 37.8013C74.9228 37.7949 74.9203 37.7886 74.918 37.7824C74.91 37.761 74.9012 37.7401 74.8914 37.7197C74.8896 37.716 74.8884 37.7121 74.8866 37.7084L71.7129 31.3969V28.0957C71.7129 27.2438 71.0197 26.5506 70.1678 26.5506H37.528C37.1316 26.5506 36.8102 26.872 36.8102 27.2684C36.8102 27.6648 37.1316 27.9861 37.528 27.9861H70.1678C70.2281 27.9861 70.2773 28.0353 70.2773 28.0957V30.8562H30.7227V28.0957C30.7227 28.0353 30.7719 27.9861 30.8322 27.9861H34.1884C34.5848 27.9861 34.9061 27.6648 34.9061 27.2684C34.9061 26.872 34.5848 26.5506 34.1884 26.5506H30.8322C29.9803 26.5506 29.2871 27.2438 29.2871 28.0957V31.3969L26.1135 37.7084C26.1117 37.7122 26.1104 37.7161 26.1087 37.7197C26.0989 37.7401 26.0901 37.761 26.0821 37.7824C26.0798 37.7887 26.0773 37.7949 26.0752 37.8013C26.0668 37.8262 26.0594 37.8517 26.0538 37.8778C26.0534 37.8793 26.0529 37.8809 26.0525 37.8825C26.0468 37.9098 26.0428 37.9375 26.0403 37.9659C26.0396 37.9736 26.0396 37.9814 26.0391 37.9891C26.0384 38.003 26.037 38.0168 26.037 38.0308V40.7944C26.037 42.8156 27.5042 44.4996 29.4292 44.8403V64.7551H28.267C27.0169 64.7551 26 65.7721 26 67.0222V69.2925C26 69.9304 26.519 70.4494 27.157 70.4494H73.843C74.481 70.4494 75 69.9304 75 69.2925V67.0222C75 65.7721 73.9831 64.7551 72.733 64.7551ZM73.5274 40.7945C73.5274 42.2692 72.3277 43.4689 70.853 43.4689C69.3783 43.4689 68.1786 42.2692 68.1786 40.7945V38.7487H73.5274V40.7945ZM70.556 32.2917L73.0809 37.3131H67.9657L66.1623 32.2917H70.556ZM64.6369 32.2917L66.4403 37.3131H61.2561L60.174 32.2917H64.6369ZM66.7431 38.7486V40.7944C66.7431 42.2691 65.5434 43.4688 64.0687 43.4688C62.594 43.4688 61.3943 42.2691 61.3943 40.7944V38.7486H66.7431ZM58.7055 32.2917L59.7876 37.3131H54.5603L54.1996 32.2917H58.7055ZM59.9587 38.7486V40.7944C59.9587 42.2691 58.759 43.4688 57.2844 43.4688C55.8098 43.4688 54.61 42.2691 54.61 40.7944V38.7486H59.9587ZM48.2397 32.2917H52.7602L53.1209 37.3131H47.879L48.2397 32.2917ZM47.8256 38.7486H53.1744V40.7944C53.1744 42.2691 51.9747 43.4688 50.5 43.4688C49.0253 43.4688 47.8256 42.2691 47.8256 40.7944V38.7486ZM50.5 44.9043C51.9072 44.9043 53.1511 44.1932 53.8922 43.1116C54.6333 44.1932 55.8772 44.9043 57.2844 44.9043C58.6916 44.9043 59.9355 44.1932 60.6765 43.1116C61.4176 44.1932 62.6615 44.9043 64.0687 44.9043C65.4759 44.9043 66.7198 44.1932 67.4609 43.1116C68.073 44.0049 69.0284 44.6444 70.1353 44.8403V64.7551H43.1152V48.8048C43.1152 48.0687 42.5163 47.4698 41.7801 47.4698H33.4818C32.7456 47.4698 32.1467 48.0687 32.1467 48.8048V64.7551H30.8648V44.8403C31.9717 44.6444 32.9271 44.0049 33.5392 43.1116C34.2803 44.1932 35.5242 44.9043 36.9314 44.9043C38.3386 44.9043 39.5825 44.1932 40.3236 43.1116C41.0647 44.1932 42.3086 44.9043 43.7157 44.9043C45.1228 44.9043 46.3668 44.1932 47.1079 43.1116C47.8489 44.1932 49.0928 44.9043 50.5 44.9043ZM41.6796 48.9053V64.7551H33.5823V48.9053H41.6796ZM34.2569 40.7945V38.7487H39.6057V40.7945C39.6057 42.2692 38.406 43.4689 36.9313 43.4689C35.4566 43.4689 34.2569 42.2691 34.2569 40.7945ZM42.2945 32.2917H46.8004L46.4397 37.3131H41.2124L42.2945 32.2917ZM41.0413 38.7486H46.39V40.7944C46.39 42.2691 45.1903 43.4688 43.7156 43.4688C42.2409 43.4688 41.0413 42.2691 41.0413 40.7944V38.7486ZM40.8259 32.2917L39.7438 37.3131H34.5596L36.363 32.2917H40.8259ZM30.444 32.2917H34.8377L33.0343 37.3131H27.9191L30.444 32.2917ZM27.4726 40.7945V38.7487H32.8214V40.7945C32.8214 42.2692 31.6217 43.4689 30.147 43.4689C28.6723 43.4689 27.4726 42.2691 27.4726 40.7945ZM27.4355 69.0139V67.0221C27.4355 66.5636 27.8085 66.1906 28.267 66.1906H72.7329C73.1914 66.1906 73.5644 66.5636 73.5644 67.0221V69.0139H27.4355Z" fill="url(#paint1_linear_1_2)"/>
<path d="M66.8435 47.4698H58.0663C57.6699 47.4698 57.3485 47.7911 57.3485 48.1875C57.3485 48.5839 57.6699 48.9053 58.0663 48.9053H66.7431V60.2016H46.0498V48.9053H54.687C55.0834 48.9053 55.4048 48.5839 55.4048 48.1875C55.4048 47.7911 55.0834 47.4698 54.687 47.4698H45.9493C45.2132 47.4698 44.6143 48.0686 44.6143 48.8048V60.3022C44.6143 61.0384 45.2132 61.6373 45.9493 61.6373H66.8435C67.5797 61.6373 68.1786 61.0384 68.1786 60.3022V48.8048C68.1786 48.0687 67.5797 47.4698 66.8435 47.4698Z" fill="url(#paint2_linear_1_2)"/>
<defs>
<filter id="filter0_d_1_2" x="0" y="0" width="102" height="102" filterUnits="userSpaceOnUse" color-interpolation-filters="sRGB">
<feFlood flood-opacity="0" result="BackgroundImageFix"/>
<feColorMatrix in="SourceAlpha" type="matrix" values="0 0 0 0 0 0 0 0 0 0 0 0 0 0 0 0 0 0 127 0" result="hardAlpha"/>
<feOffset dy="4"/>
<feGaussianBlur stdDeviation="2"/>
<feComposite in2="hardAlpha" operator="out"/>
<feColorMatrix type="matrix" values="0 0 0 0 0 0 0 0 0 0 0 0 0 0 0 0 0 0 0.25 0"/>
<feBlend mode="normal" in2="BackgroundImageFix" result="effect1_dropShadow_1_2"/>
<feBlend mode="normal" in="SourceGraphic" in2="effect1_dropShadow_1_2" result="shape"/>
</filter>
<linearGradient id="paint0_linear_1_2" x1="39.7334" y1="55.2236" x2="39.7334" y2="57.9512" gradientUnits="userSpaceOnUse">
<stop stop-color="#0B2FA3"/>
<stop offset="1" stop-color="#05164D"/>
</linearGradient>
<linearGradient id="paint1_linear_1_2" x1="50.5" y1="26.5506" x2="50.5" y2="70.4494" gradientUnits="userSpaceOnUse">
<stop stop-color="#0B2FA3"/>
<stop offset="1" stop-color="#05164D"/>
</linearGradient>
<linearGradient id="paint2_linear_1_2" x1="56.3964" y1="47.4698" x2="56.3964" y2="61.6373" gradientUnits="userSpaceOnUse">
<stop stop-color="#0B2FA3"/>
<stop offset="1" stop-color="#05164D"/>
</linearGradient>
</defs>
</svg>
