<svg width="36" height="31" viewBox="0 0 36 31" fill="none" xmlns="http://www.w3.org/2000/svg">
<rect y="9" width="21" height="22" fill="#0B2FA3" fill-opacity="0.45"/>
<g clip-path="url(#clip0_189_3921)">
<path d="M21.6306 1.15039H13.1264C12.634 1.15039 12.2334 1.55097 12.2334 2.0434V8.806C12.2334 9.29836 12.634 9.699 13.1264 9.699H14.9168C15.1843 9.699 15.4012 9.91588 15.4012 10.1834V11.9427L17.1203 9.87386C17.2123 9.76312 17.3488 9.699 17.4928 9.699H21.6306C22.123 9.699 22.5236 9.29843 22.5236 8.806V2.0434C22.5236 1.55097 22.123 1.15039 21.6306 1.15039ZM14.5065 6.19068C14.0835 6.19068 13.7405 5.84774 13.7405 5.4247C13.7405 5.00166 14.0835 4.65866 14.5065 4.65866C14.9296 4.65866 15.2725 5.0016 15.2725 5.4247C15.2725 5.8478 14.9296 6.19068 14.5065 6.19068ZM17.3786 6.19068C16.9555 6.19068 16.6125 5.84774 16.6125 5.4247C16.6125 5.00166 16.9554 4.65866 17.3786 4.65866C17.8017 4.65866 18.1445 5.0016 18.1445 5.4247C18.1445 5.8478 17.8016 6.19068 17.3786 6.19068ZM20.2506 6.19068C19.8275 6.19068 19.4846 5.84774 19.4846 5.4247C19.4846 5.00166 19.8275 4.65866 20.2506 4.65866C20.6737 4.65866 21.0166 5.0016 21.0166 5.4247C21.0166 5.8478 20.6736 6.19068 20.2506 6.19068Z" fill="url(#paint0_linear_189_3921)"/>
<path d="M34.4273 11.8521C34.4233 11.8521 34.4193 11.8521 34.4152 11.8521C33.8745 11.8521 32.8405 12.1793 31.9024 14.333C31.3237 15.6615 30.5044 17.2926 29.8955 18.3407C29.8938 18.3393 29.8923 18.3377 29.8905 18.3362C29.5362 18.0307 28.5648 17.4645 27.2003 18.8036C25.9288 20.0516 24.703 21.0881 23.1375 22.356C23.1331 22.3595 23.1288 22.3632 23.1245 22.367C22.0908 23.2662 21.4543 24.5109 21.1786 26.1721C20.9536 27.5279 20.9998 28.926 21.0722 30.3585C21.0852 30.6173 21.2992 30.8185 21.5555 30.8185C21.5637 30.8185 21.572 30.8183 21.5803 30.8179C21.8475 30.8044 22.0531 30.5769 22.0396 30.3096C21.9231 28.0017 21.7636 24.8417 23.754 23.1033C25.3385 21.8199 26.5817 20.7681 27.8789 19.4949C28.4599 18.9247 28.9239 18.7818 29.2578 19.0698C29.4461 19.2323 29.5354 19.4117 29.5388 19.6344C29.5552 20.7098 27.7745 22.3428 26.9188 23.1275C26.7732 23.261 26.6475 23.3763 26.5451 23.4744C26.352 23.6595 26.3454 23.9661 26.5305 24.1593C26.7157 24.3524 27.0223 24.359 27.2154 24.1738C27.3101 24.0831 27.4322 23.9711 27.5736 23.8415C29.0042 22.5295 30.5287 21.0131 30.5075 19.6196C30.5056 19.4983 30.4914 19.3804 30.4655 19.2663C30.4773 19.2514 30.4886 19.236 30.4988 19.2194C31.1375 18.1874 32.1227 16.253 32.7906 14.7199C33.4015 13.3175 34.0464 12.8208 34.4149 12.8208H34.4187C34.6223 12.8226 34.7553 12.9806 34.8337 13.1223C34.7717 13.4777 34.596 14.1143 34.3967 14.6968L31.3504 22.8262C30.9132 23.9777 30.3297 24.5378 29.8148 25.0319C29.6958 25.1461 29.5834 25.2539 29.4732 25.3676C29.272 25.5751 29.0773 25.7615 28.8891 25.9418C27.8567 26.9305 27.0412 27.7115 26.775 30.2842C26.7475 30.5503 26.9408 30.7883 27.2069 30.8158C27.2239 30.8176 27.2407 30.8185 27.2574 30.8185C27.5025 30.8185 27.7128 30.6331 27.7386 30.3839C27.9682 28.165 28.6011 27.5589 29.5591 26.6414C29.7537 26.455 29.955 26.2623 30.1687 26.0419C30.2667 25.9407 30.373 25.8388 30.4855 25.7308C31.045 25.1938 31.7414 24.5255 32.2567 23.1681L35.3062 15.0303C35.3078 15.026 35.3093 15.0216 35.3108 15.0173C35.5266 14.3878 35.7663 13.5505 35.8154 13.0991C35.8242 13.0183 35.8125 12.9365 35.7814 12.8614C35.5219 12.2347 35.0157 11.8574 34.4274 11.8521L34.4273 11.8521Z" fill="url(#paint1_linear_189_3921)"/>
<path d="M21.6306 0.181641H13.1264C12.0998 0.181641 11.2646 1.01682 11.2646 2.0434V8.806C11.2646 9.83257 12.0998 10.6678 13.1264 10.6678H14.4325V13.2835C14.4325 13.4875 14.5603 13.6697 14.7523 13.7391C14.8061 13.7584 14.8617 13.7679 14.9167 13.7679C15.058 13.7679 15.1955 13.706 15.2894 13.593L17.72 10.6678H21.6305C22.6571 10.6678 23.4923 9.83257 23.4923 8.806V2.0434C23.4923 1.01682 22.6571 0.181641 21.6305 0.181641H21.6306ZM22.5236 8.806C22.5236 9.29837 22.123 9.699 21.6306 9.699H17.4928C17.3488 9.699 17.2123 9.76312 17.1203 9.87386L15.4012 11.9427V10.1834C15.4012 9.91588 15.1843 9.699 14.9168 9.699H13.1264C12.634 9.699 12.2334 9.29843 12.2334 8.806V2.0434C12.2334 1.55097 12.634 1.15039 13.1264 1.15039H21.6306C22.123 1.15039 22.5236 1.55097 22.5236 2.0434V8.806Z" fill="url(#paint2_linear_189_3921)"/>
<path d="M5.69374 11.3248L8.74397 19.4646C9.25861 20.82 9.9549 21.4883 10.5145 22.0253C10.627 22.1332 10.7332 22.2353 10.8313 22.3364C11.0449 22.5568 11.2462 22.7495 11.4408 22.9358C12.3988 23.8534 13.0317 24.4595 13.2613 26.6784C13.2871 26.9275 13.4974 27.113 13.7425 27.113C13.7592 27.113 13.776 27.1121 13.793 27.1103C14.0591 27.0828 14.2525 26.8448 14.2249 26.5787C13.9587 24.006 13.1432 23.225 12.1108 22.2363C11.9226 22.056 11.7279 21.8696 11.5268 21.6621C11.4166 21.5484 11.3042 21.4406 11.1852 21.3264C10.6704 20.8323 10.0868 20.2722 9.65035 19.1227L6.60333 10.9914C6.40401 10.4089 6.22836 9.77223 6.16624 9.41676C6.24465 9.27508 6.37767 9.11717 6.58129 9.1153H6.58499C6.95359 9.1153 7.59848 9.61208 8.2094 11.0144C8.87735 12.5477 9.86263 14.482 10.5012 15.5139C10.5114 15.5304 10.5227 15.5459 10.5345 15.5607C10.5086 15.6748 10.4944 15.7928 10.4925 15.914C10.4712 17.3075 11.9958 18.8239 13.4264 20.1359C13.5678 20.2656 13.6899 20.3776 13.7846 20.4683C13.9777 20.6534 14.2843 20.6469 14.4695 20.4537C14.6546 20.2606 14.648 19.954 14.4549 19.7689C14.3525 19.6707 14.2268 19.5555 14.0812 19.4219C13.2254 18.6371 11.4448 17.0041 11.4612 15.9289C11.4646 15.7061 11.5538 15.5267 11.7422 15.3643C12.0762 15.0764 12.5402 15.2193 13.1211 15.7894C14.4183 17.0626 15.6616 18.1144 17.246 19.3978C19.2365 21.1363 19.0768 24.2961 18.9603 26.6041C18.9468 26.8713 19.1525 27.0987 19.4196 27.1123C19.4279 27.1127 19.4362 27.1129 19.4444 27.1129C19.7007 27.1129 19.9147 26.9118 19.9278 26.6529C20.0001 25.2205 20.0463 23.8224 19.8213 22.4666C19.5456 20.8053 18.9091 19.5607 17.8755 18.6614C17.8712 18.6577 17.8668 18.654 17.8624 18.6504C16.2969 17.3825 15.0712 16.346 13.7996 15.0981C12.4351 13.7588 11.4637 14.3251 11.1094 14.6307C11.1077 14.6321 11.1061 14.6337 11.1044 14.6352C10.4956 13.5872 9.67639 11.9561 9.09756 10.6274C8.15933 8.47362 7.12537 8.14648 6.58468 8.14648C6.58063 8.14648 6.57657 8.14648 6.57257 8.14648C5.9843 8.15181 5.47807 8.52914 5.2185 9.1558C5.18738 9.23094 5.1757 9.31274 5.18448 9.39357C5.23364 9.84488 5.47334 10.6821 5.68907 11.3118C5.69053 11.3161 5.6921 11.3204 5.69374 11.3247V11.3248Z" fill="url(#paint3_linear_189_3921)"/>
<path d="M17.3783 4.65869C16.9553 4.65869 16.6123 5.00163 16.6123 5.42473C16.6123 5.84783 16.9552 6.19071 17.3783 6.19071C17.8014 6.19071 18.1443 5.84777 18.1443 5.42473C18.1443 5.00169 17.8014 4.65869 17.3783 4.65869Z" fill="url(#paint4_linear_189_3921)"/>
<path d="M20.2504 4.65869C19.8273 4.65869 19.4844 5.00163 19.4844 5.42473C19.4844 5.84783 19.8273 6.19071 20.2504 6.19071C20.6735 6.19071 21.0164 5.84777 21.0164 5.42473C21.0164 5.00169 20.6735 4.65869 20.2504 4.65869Z" fill="url(#paint5_linear_189_3921)"/>
<path d="M27.8737 14.1648H26.0833C25.8158 14.1648 25.5989 14.3816 25.5989 14.6491V16.4084L23.8799 14.3396C23.7879 14.2289 23.6514 14.1648 23.5074 14.1648H19.3696C18.8772 14.1648 18.4766 13.7642 18.4766 13.2718V12.1574C18.4766 11.8899 18.2597 11.673 17.9922 11.673C17.7247 11.673 17.5078 11.8899 17.5078 12.1574V13.2718C17.5078 14.2983 18.343 15.1335 19.3696 15.1335H23.2801L25.7108 18.0588C25.8046 18.1717 25.9422 18.2336 26.0834 18.2336C26.1385 18.2336 26.1941 18.2243 26.2479 18.2048C26.4398 18.1354 26.5677 17.9533 26.5677 17.7493V15.1335H27.8737C28.9003 15.1335 29.7355 14.2983 29.7355 13.2718V6.50922C29.7355 5.48264 28.9003 4.64746 27.8737 4.64746H25.0642C24.7967 4.64746 24.5799 4.86434 24.5799 5.13184C24.5799 5.39933 24.7967 5.61621 25.0642 5.61621H27.8737C28.3661 5.61621 28.7667 6.01679 28.7667 6.50922V13.2718C28.7667 13.7642 28.3662 14.1648 27.8737 14.1648Z" fill="url(#paint6_linear_189_3921)"/>
<path d="M14.5062 4.65869C14.0832 4.65869 13.7402 5.00163 13.7402 5.42473C13.7402 5.84783 14.0832 6.19071 14.5062 6.19071C14.9293 6.19071 15.2722 5.84777 15.2722 5.42473C15.2722 5.00169 14.9293 4.65869 14.5062 4.65869Z" fill="url(#paint7_linear_189_3921)"/>
</g>
<defs>
<linearGradient id="paint0_linear_189_3921" x1="17.3785" y1="1.15039" x2="17.3785" y2="11.9427" gradientUnits="userSpaceOnUse">
<stop stop-color="#0B2FA3"/>
<stop offset="1" stop-color="#04123D"/>
</linearGradient>
<linearGradient id="paint1_linear_189_3921" x1="28.4155" y1="11.8521" x2="28.4155" y2="30.8185" gradientUnits="userSpaceOnUse">
<stop stop-color="#0B2FA3"/>
<stop offset="1" stop-color="#04123D"/>
</linearGradient>
<linearGradient id="paint2_linear_189_3921" x1="17.3785" y1="0.181641" x2="17.3785" y2="13.7679" gradientUnits="userSpaceOnUse">
<stop stop-color="#0B2FA3"/>
<stop offset="1" stop-color="#04123D"/>
</linearGradient>
<linearGradient id="paint3_linear_189_3921" x1="12.5844" y1="8.14648" x2="12.5844" y2="27.113" gradientUnits="userSpaceOnUse">
<stop stop-color="#0B2FA3"/>
<stop offset="1" stop-color="#04123D"/>
</linearGradient>
<linearGradient id="paint4_linear_189_3921" x1="17.3783" y1="4.65869" x2="17.3783" y2="6.19071" gradientUnits="userSpaceOnUse">
<stop stop-color="#0B2FA3"/>
<stop offset="1" stop-color="#04123D"/>
</linearGradient>
<linearGradient id="paint5_linear_189_3921" x1="20.2504" y1="4.65869" x2="20.2504" y2="6.19071" gradientUnits="userSpaceOnUse">
<stop stop-color="#0B2FA3"/>
<stop offset="1" stop-color="#04123D"/>
</linearGradient>
<linearGradient id="paint6_linear_189_3921" x1="23.6217" y1="4.64746" x2="23.6217" y2="18.2336" gradientUnits="userSpaceOnUse">
<stop stop-color="#0B2FA3"/>
<stop offset="1" stop-color="#04123D"/>
</linearGradient>
<linearGradient id="paint7_linear_189_3921" x1="14.5062" y1="4.65869" x2="14.5062" y2="6.19071" gradientUnits="userSpaceOnUse">
<stop stop-color="#0B2FA3"/>
<stop offset="1" stop-color="#04123D"/>
</linearGradient>
<clipPath id="clip0_189_3921">
<rect width="31" height="31" fill="white" transform="translate(5)"/>
</clipPath>
</defs>
</svg>
