<svg width="42" height="42" viewBox="0 0 42 42" fill="none" xmlns="http://www.w3.org/2000/svg">
<g clip-path="url(#clip0_189_5382)">
<path d="M39.0606 37.3204C39.4005 37.3204 39.6758 37.0449 39.6758 36.7051L39.6754 32.071C39.6754 30.2697 38.2099 28.8041 36.4085 28.8041H35.624C36.0921 28.2301 36.3733 27.4981 36.3733 26.7014C36.3733 24.8634 34.878 23.3682 33.0401 23.3682C31.2022 23.3682 29.7069 24.8634 29.7069 26.7014C29.7069 27.4981 29.9882 28.2301 30.4562 28.8041H29.6716C28.5807 28.8041 27.6136 29.3422 27.02 30.1663C26.4263 29.3422 25.4593 28.8041 24.3683 28.8041H23.5838C24.0518 28.2301 24.3331 27.4981 24.3331 26.7014C24.3331 24.8634 22.8378 23.3682 20.9999 23.3682C19.162 23.3682 17.6667 24.8634 17.6667 26.7014C17.6667 27.4981 17.948 28.2301 18.416 28.8041H17.6314C16.5405 28.8041 15.5734 29.3422 14.9798 30.1663C14.3861 29.3423 13.419 28.8041 12.3281 28.8041H11.5435C12.0115 28.2301 12.2927 27.4981 12.2927 26.7014C12.2927 24.8634 10.7975 23.3682 8.95957 23.3682C7.12166 23.3682 5.62631 24.8634 5.62631 26.7014C5.62631 27.4981 5.90759 28.2301 6.37558 28.8041H5.59104C3.78971 28.8041 2.32414 30.2697 2.32414 32.071L2.32373 36.7051C2.32373 37.0449 2.59919 37.3204 2.93897 37.3204C3.27874 37.3204 3.5542 37.0449 3.5542 36.7051V35.5206H4.9758V40.7698H3.5542V39.5844C3.5542 39.2447 3.27874 38.9692 2.93897 38.9692C2.59919 38.9692 2.32373 39.2447 2.32373 39.5844V41.385C2.32373 41.7248 2.59919 42.0002 2.93897 42.0002H39.0606C39.4005 42.0002 39.6758 41.7248 39.6758 41.385V39.5844C39.6758 39.2447 39.4005 38.9692 39.0606 38.9692C38.7208 38.9692 38.4454 39.2447 38.4454 39.5844V40.7698H37.0238V35.5206H38.4454V36.7051C38.4454 37.0449 38.7208 37.3204 39.0606 37.3204ZM30.9374 26.7014C30.9374 25.542 31.8807 24.5986 33.0401 24.5986C34.1996 24.5986 35.1429 25.542 35.1429 26.7014C35.1429 27.8609 34.1996 28.8041 33.0401 28.8041C31.8807 28.8041 30.9374 27.8609 30.9374 26.7014ZM18.8971 26.7014C18.8971 25.542 19.8404 24.5986 20.9998 24.5986C22.1593 24.5986 23.1026 25.542 23.1026 26.7014C23.1026 27.8609 22.1593 28.8041 20.9998 28.8041C19.8404 28.8041 18.8971 27.8609 18.8971 26.7014ZM6.85678 26.7014C6.85678 25.542 7.80005 24.5986 8.95948 24.5986C10.1189 24.5986 11.0622 25.542 11.0622 26.7014C11.0622 27.8609 10.1189 28.8041 8.95948 28.8041C7.80005 28.8041 6.85678 27.8609 6.85678 26.7014ZM6.20627 34.9054V34.9052C6.20627 34.5654 5.93089 34.29 5.59112 34.29L3.55461 34.2896V32.071C3.55461 30.9482 4.46819 30.0346 5.59104 30.0346H12.3279C13.4508 30.0346 14.3644 30.9482 14.3644 32.071V34.2896L12.3279 34.2897C11.9882 34.2897 11.7127 34.5652 11.7127 34.905V34.9051V40.7696H6.20627V34.9054ZM12.9432 35.5204L14.3644 35.5203V40.7697L12.9432 40.7698V35.5204ZM15.5949 35.5202L17.0161 35.5203V40.7698L15.5949 40.7697V35.5202ZM18.2466 34.9052V34.905C18.2466 34.5653 17.9711 34.2898 17.6313 34.2898L15.5949 34.2897V32.0711C15.5949 30.9483 16.5085 30.0347 17.6313 30.0347H24.3682C25.4911 30.0347 26.4047 30.9483 26.4047 32.0711V34.2897L24.3682 34.2898C24.0284 34.2898 23.753 34.5653 23.753 34.905V34.9052V40.7697H18.2466V34.9052ZM24.9835 35.5204L26.4047 35.5203V40.7697L24.9835 40.7698V35.5204ZM27.6352 35.5202L29.0564 35.5203V40.7698L27.6352 40.7697V35.5202ZM30.2869 34.9052V34.905C30.2869 34.5653 30.0115 34.2898 29.6716 34.2898L27.6352 34.2897V32.0711C27.6352 30.9483 28.5488 30.0347 29.6716 30.0347H36.4085C37.5314 30.0347 38.445 30.9483 38.445 32.0711V34.2897L36.4085 34.2901C36.0687 34.2901 35.7933 34.5655 35.7933 34.9053V34.9054V40.7698H30.2869V34.9052Z" fill="black"/>
<path d="M12 11.2963C12.3378 11.26 12.5824 10.9567 12.546 10.6189C12.5152 10.3312 12.4995 10.0323 12.4995 9.73055C12.4995 5.04361 16.3127 1.23047 20.9996 1.23047C25.6866 1.23047 29.4997 5.04361 29.4997 9.73055C29.4997 13.6111 26.8783 16.9964 23.125 17.963C22.9791 18.0005 22.852 18.0904 22.7679 18.2154L21.1344 20.6446C21.1043 20.6894 21.054 20.7162 20.9995 20.7162C20.9451 20.7162 20.8947 20.6894 20.8645 20.6444L19.2312 18.2154C19.1472 18.0904 19.0201 18.0005 18.8742 17.963C16.3978 17.325 14.2924 15.548 13.2419 13.2092C13.1027 12.8993 12.7385 12.7608 12.4286 12.9001C12.1186 13.0393 11.9802 13.4034 12.1194 13.7134C13.2891 16.3178 15.6025 18.3137 18.3381 19.0924L19.8431 21.3308C20.1022 21.7165 20.5345 21.9466 20.9994 21.9466C21.4645 21.9466 21.8967 21.7164 22.1556 21.331L23.6608 19.0926C27.8349 17.9092 30.7301 14.0932 30.7301 9.73055C30.7301 4.36513 26.365 0 20.9996 0C15.6342 0 11.269 4.36513 11.269 9.73055C11.269 10.076 11.2871 10.4191 11.3226 10.7503C11.3589 11.0881 11.6621 11.3323 12 11.2963Z" fill="black"/>
<path d="M20.9995 16.8088C24.9028 16.8088 28.0783 13.6333 28.0783 9.73009C28.0783 5.82688 24.9028 2.65137 20.9995 2.65137C17.0963 2.65137 13.9209 5.8268 13.9209 9.73001C13.9209 13.6332 17.0963 16.8088 20.9995 16.8088ZM20.9995 3.88184C24.2244 3.88184 26.8478 6.50528 26.8478 9.73001C26.8478 12.9547 24.2244 15.5783 20.9995 15.5783C17.7748 15.5783 15.1514 12.9548 15.1514 9.73009C15.1514 6.50536 17.7748 3.88184 20.9995 3.88184Z" fill="black"/>
<path d="M18.5137 8.68848H23.4855C23.8254 8.68848 24.1007 8.41302 24.1007 8.07324C24.1007 7.73347 23.8254 7.45801 23.4855 7.45801H18.5137C18.1739 7.45801 17.8984 7.73347 17.8984 8.07324C17.8984 8.41302 18.1739 8.68848 18.5137 8.68848Z" fill="black"/>
<path d="M18.5137 12.0029H23.4855C23.8254 12.0029 24.1007 11.7275 24.1007 11.3877C24.1007 11.0479 23.8254 10.7725 23.4855 10.7725H18.5137C18.1739 10.7725 17.8984 11.0479 17.8984 11.3877C17.8984 11.7275 18.1739 12.0029 18.5137 12.0029Z" fill="black"/>
</g>
<defs>
<clipPath id="clip0_189_5382">
<rect width="42" height="42" fill="white"/>
</clipPath>
</defs>
</svg>
