<svg width="38" height="50" viewBox="0 0 38 50" fill="none" xmlns="http://www.w3.org/2000/svg">
<path d="M18.7469 24.1114C24.2285 24.1114 28.6726 18.7138 28.6726 12.0558C28.6726 5.39757 27.2133 0 18.7469 0C10.2803 0 8.82129 5.39757 8.82129 12.0558C8.82144 18.7138 13.2654 24.1114 18.7469 24.1114Z" fill="#05164D"/>
<path d="M37.4724 42.032C37.2888 30.4333 35.7739 27.1283 24.1822 25.0361C24.1822 25.0361 22.5502 27.1153 18.747 27.1153C14.9437 27.1153 13.312 25.0361 13.312 25.0361C1.8467 27.1053 0.239484 30.3614 0.0282365 41.6551C0.0110558 42.5773 0.00313734 42.6257 0 42.5186C0.000597589 42.7192 0.00149429 43.0902 0.00149429 43.7372C0.00149429 43.7372 2.76131 49.3006 18.7471 49.3006C34.7329 49.3006 37.493 43.7372 37.493 43.7372C37.493 43.3216 37.4933 43.0324 37.4936 42.8359C37.4905 42.9021 37.484 42.7738 37.4724 42.032Z" fill="#05164D"/>
</svg>
