<svg width="66" height="66" viewBox="0 0 66 66" fill="none" xmlns="http://www.w3.org/2000/svg">
<path d="M35.3448 17.2331C34.6204 16.7252 33.8624 16.6814 33.3171 17.1158C26.0068 22.9501 19.5216 25.3336 13.4939 24.4029V24.4042C13.4552 24.3978 13.4166 24.3939 13.3753 24.3939H8.04117C4.67285 24.3939 1.93359 27.1344 1.93359 30.5015V31.4657C1.93359 33.3735 2.81273 35.0789 4.18816 36.2004V45.9302C4.18816 47.7169 5.63836 49.1697 7.42242 49.1697C9.20648 49.1697 10.6567 47.7169 10.6567 45.9302V37.5745H13.3766C13.4191 37.5745 13.4617 37.5707 13.5029 37.5629V37.5642C19.5641 36.5588 26.0494 38.8675 33.3326 44.6206C33.5788 44.8152 33.8688 44.9119 34.1795 44.9119C34.5546 44.9119 34.9594 44.7714 35.3538 44.4904C35.8836 44.114 36.1866 43.5261 36.1866 42.8765V18.8522C36.1866 18.1986 35.8798 17.6083 35.3448 17.2331ZM9.10852 45.929C9.10852 46.8622 8.35184 47.6215 7.42113 47.6215C6.49043 47.6215 5.73375 46.8622 5.73375 45.929V37.1195C6.4466 37.4108 7.2252 37.5733 8.04117 37.5733H9.10852V45.929ZM12.6032 36.0264H8.04117C5.52621 36.0264 3.48047 33.9806 3.48047 31.4657V30.5015C3.48047 27.9865 5.52621 25.9408 8.04117 25.9408H12.6019V36.0264H12.6032ZM34.6397 42.8765C34.6397 43.0286 34.5817 43.1407 34.4579 43.2284C34.3548 43.3018 34.2723 43.3367 34.2233 43.3521C26.9569 37.6287 20.3788 35.1898 14.1488 35.9117V26.0426C20.3504 26.691 26.9259 24.1773 34.2182 18.374C34.2697 18.3894 34.3548 18.4268 34.4554 18.4964C34.5804 18.5841 34.6384 18.6962 34.6384 18.8496V42.8765H34.6397ZM25.8766 27.4902C26.0313 27.8885 25.8354 28.3371 25.4371 28.4918C23.6827 29.1763 21.789 29.6043 19.4764 29.8389C19.4494 29.8415 19.4236 29.8427 19.3978 29.8427C19.0059 29.8427 18.6695 29.5463 18.6295 29.1467C18.587 28.7213 18.8964 28.3423 19.3205 28.2997C21.49 28.0793 23.2547 27.6823 24.875 27.0506C25.2734 26.8947 25.722 27.0919 25.8766 27.4902ZM30.5791 24.3475C30.8576 24.671 30.8202 25.1596 30.4966 25.438C29.8727 25.9743 29.2179 26.4654 28.5502 26.8972C28.42 26.981 28.2743 27.0223 28.1299 27.0223C27.876 27.0223 27.6285 26.8985 27.4802 26.6691C27.2482 26.3107 27.35 25.8312 27.7084 25.5992C28.3181 25.2047 28.9163 24.7548 29.4873 24.265C29.8121 23.9865 30.3007 24.0239 30.5791 24.3475ZM39.1888 16.5835C38.949 16.2302 39.0405 15.7494 39.3937 15.5097L56.0742 4.16978C56.4274 3.93001 56.9082 4.02154 57.148 4.37474C57.3878 4.72794 57.2962 5.20876 56.943 5.44853L40.2639 16.7884C40.1311 16.8786 39.979 16.9225 39.8295 16.9225C39.582 16.9225 39.3396 16.8039 39.1888 16.5835ZM39.0367 20.2676C38.8575 19.8796 39.0277 19.4207 39.4157 19.2415L54.022 12.51C54.41 12.3308 54.8689 12.501 55.0481 12.889C55.2273 13.277 55.0571 13.7359 54.6691 13.9151L40.0628 20.6466C39.9584 20.6943 39.8475 20.7175 39.7392 20.7175C39.4466 20.7175 39.1669 20.5499 39.0367 20.2676ZM57.148 61.6246C56.9985 61.845 56.7548 61.9636 56.5073 61.9636C56.3578 61.9636 56.207 61.9198 56.0729 61.8295L39.3937 50.491C39.0405 50.2512 38.949 49.7704 39.1888 49.4172C39.4286 49.064 39.9094 48.9724 40.2626 49.2122L56.9418 60.5521C57.2963 60.7906 57.3891 61.2714 57.148 61.6246ZM40.0628 45.3527L54.6691 52.0842C55.0571 52.2634 55.226 52.7223 55.0481 53.1103C54.9179 53.3939 54.6382 53.5602 54.3456 53.5602C54.2373 53.5602 54.1277 53.537 54.022 53.4893L39.4157 46.7578C39.0277 46.5786 38.8588 46.1197 39.0367 45.7317C39.2146 45.3437 39.6748 45.1749 40.0628 45.3527ZM63.8975 32.3306C60.8115 28.4531 56.207 26.2295 51.2647 26.2295C46.3225 26.2295 41.7179 28.4531 38.6319 32.3306C38.4076 32.6129 38.4076 33.0126 38.6319 33.2936C41.7179 37.1711 46.3225 39.3934 51.2647 39.3934C56.207 39.3934 60.8115 37.1698 63.8975 33.2936C64.1231 33.0113 64.1231 32.6117 63.8975 32.3306ZM51.2647 37.8272C48.5061 37.8272 46.2619 35.5765 46.2619 32.8115C46.2619 30.0451 48.5061 27.7957 51.2647 27.7957C54.0233 27.7957 56.2689 30.0464 56.2689 32.8115C56.2689 35.5778 54.0233 37.8272 51.2647 37.8272ZM40.242 32.8115C41.8687 30.9346 43.908 29.5308 46.1729 28.689C45.2616 29.817 44.7137 31.2517 44.7137 32.8115C44.7137 34.3725 45.2616 35.8072 46.1729 36.9339C43.908 36.0921 41.8687 34.6883 40.242 32.8115ZM56.3565 36.9352C57.2679 35.8072 57.8157 34.3725 57.8157 32.8127C57.8157 31.2517 57.2679 29.817 56.3565 28.6903C58.6214 29.5321 60.6607 30.9359 62.2875 32.8127C60.6607 34.6883 58.6214 36.0921 56.3565 36.9352ZM51.2647 29.6068C49.5 29.6068 48.0653 31.0442 48.0653 32.8115C48.0653 34.5788 49.5 36.0161 51.2647 36.0161C53.0295 36.0161 54.4642 34.5788 54.4642 32.8115C54.4642 31.0442 53.0295 29.6068 51.2647 29.6068ZM51.2647 34.4705C50.3534 34.4705 49.6121 33.7267 49.6121 32.8127C49.6121 31.8988 50.3534 31.155 51.2647 31.155C52.1761 31.155 52.9173 31.8988 52.9173 32.8127C52.9173 33.7254 52.1761 34.4705 51.2647 34.4705ZM51.2647 20.4145C51.6914 20.4145 52.0382 20.7613 52.0382 21.188V24.5047C52.0382 24.9314 51.6914 25.2782 51.2647 25.2782C50.838 25.2782 50.4913 24.9314 50.4913 24.5047V21.188C50.4913 20.7613 50.838 20.4145 51.2647 20.4145ZM55.5238 25.6443L57.4741 22.9643C57.7255 22.6188 58.2089 22.5428 58.5544 22.7942C58.8998 23.0455 58.9759 23.5289 58.7245 23.8744L56.7742 26.5544C56.6234 26.7619 56.3875 26.8727 56.1477 26.8727C55.9904 26.8727 55.8306 26.8251 55.6927 26.7245C55.3485 26.4744 55.2724 25.9897 55.5238 25.6443ZM58.6433 41.8143C58.8921 42.1623 58.8109 42.6444 58.4629 42.8932C58.3262 42.9899 58.1702 43.0376 58.0143 43.0376C57.7732 43.0376 57.5347 42.9254 57.3839 42.714L55.458 40.0173C55.2093 39.6693 55.2905 39.1872 55.6385 38.9384C55.9866 38.6896 56.4687 38.7708 56.7175 39.1188L58.6433 41.8143ZM51.1539 45.2084C50.7272 45.2045 50.383 44.8552 50.3869 44.4285L50.4165 41.1117C50.4204 40.6851 50.7684 40.3357 51.1964 40.3447C51.6231 40.3486 51.9673 40.6979 51.9634 41.1246L51.9338 44.4414C51.9299 44.8655 51.5844 45.2084 51.1603 45.2084C51.1577 45.2084 51.1552 45.2084 51.1539 45.2084ZM43.8848 42.7617C43.542 42.5078 43.4698 42.0231 43.7237 41.6802L45.6973 39.0183C45.9512 38.6754 46.4359 38.6032 46.7788 38.8572C47.1217 39.1111 47.1939 39.5958 46.9399 39.9387L44.9664 42.6006C44.8143 42.8056 44.5809 42.9138 44.345 42.9138C44.1852 42.9138 44.0241 42.8649 43.8848 42.7617ZM45.2345 22.8547L47.1359 25.5695C47.3808 25.9188 47.2957 26.4022 46.9464 26.6472C46.811 26.7413 46.6563 26.7877 46.5029 26.7877C46.2593 26.7877 46.0195 26.6729 45.8687 26.4577L43.9673 23.7429C43.7224 23.3936 43.8075 22.9102 44.1568 22.6652C44.5062 22.4203 44.9896 22.5041 45.2345 22.8547Z" fill="#05164D"/>
</svg>
