<svg width="58" height="58" viewBox="0 0 58 58" fill="none" xmlns="http://www.w3.org/2000/svg">
<path d="M10.6899 33.0266H13.7382C14.4489 33.0266 15.0273 32.4482 15.0273 31.7375V22.0279C15.0273 21.3172 14.4489 20.7389 13.7382 20.7389H10.6899C9.97918 20.7389 9.40086 21.3172 9.40086 22.0279V31.7375C9.40086 32.4482 9.97918 33.0266 10.6899 33.0266ZM10.8071 22.1451H13.6209V31.6202H10.8071V22.1451ZM20.3184 16.2461H17.2702C16.5595 16.2461 15.9812 16.8245 15.9812 17.5352V31.7375C15.9812 32.4482 16.5595 33.0266 17.2702 33.0266H20.3184C21.0291 33.0266 21.6075 32.4482 21.6075 31.7375V17.5352C21.6075 16.8245 21.0293 16.2461 20.3184 16.2461ZM20.2012 31.6203H17.3874V17.6524H20.2012V31.6203ZM12.2141 17.6634C13.3771 17.6634 14.3234 16.7171 14.3234 15.554C14.3234 15.3673 14.2967 15.1872 14.2509 15.0146L17.551 12.7614C17.9001 13.0175 18.3291 13.1707 18.7943 13.1707C19.4383 13.1707 20.0151 12.8797 20.4023 12.4232L23.2675 13.51C23.2672 13.5259 23.2652 13.5413 23.2652 13.5573C23.2652 14.7204 24.2115 15.6666 25.3746 15.6666C26.5377 15.6666 27.4839 14.7204 27.4839 13.5573C27.4839 13.3336 27.4483 13.1183 27.3835 12.9158L30.7968 10.3264C31.1295 10.5459 31.5273 10.6747 31.9549 10.6747C33.118 10.6747 34.0643 9.7284 34.0643 8.56531C34.0643 7.40223 33.118 6.45594 31.9549 6.45594C30.7918 6.45594 29.8455 7.40223 29.8455 8.56531C29.8455 8.78891 29.8811 9.0043 29.9459 9.20668L26.5326 11.7961C26.1999 11.5766 25.8022 11.4478 25.3746 11.4478C24.7305 11.4478 24.1537 11.7387 23.7665 12.1952L20.9013 11.1084C20.9016 11.0926 20.9036 11.0771 20.9036 11.0612C20.9036 9.89809 19.9573 8.9518 18.7943 8.9518C17.6312 8.9518 16.6849 9.89809 16.6849 11.0612C16.6849 11.2479 16.7116 11.428 16.7574 11.6005L13.4572 13.8536C13.1081 13.5977 12.6791 13.4445 12.2139 13.4445C11.0509 13.4445 10.1046 14.3908 10.1046 15.5539C10.1046 16.717 11.051 17.6634 12.2141 17.6634ZM31.9549 7.8623C32.3427 7.8623 32.658 8.17766 32.658 8.56543C32.658 8.9532 32.3427 9.26855 31.9549 9.26855C31.5671 9.26855 31.2518 8.9532 31.2518 8.56543C31.2518 8.17766 31.5672 7.8623 31.9549 7.8623ZM25.3746 12.8541C25.7623 12.8541 26.0777 13.1695 26.0777 13.5573C26.0777 13.945 25.7623 14.2604 25.3746 14.2604C24.9868 14.2604 24.6714 13.945 24.6714 13.5573C24.6714 13.1695 24.9869 12.8541 25.3746 12.8541ZM18.7944 10.3582C19.1821 10.3582 19.4975 10.6735 19.4975 11.0613C19.4975 11.4491 19.1821 11.7644 18.7944 11.7644C18.4067 11.7644 18.0912 11.4491 18.0912 11.0613C18.0912 10.6735 18.4067 10.3582 18.7944 10.3582ZM12.2141 14.8509C12.6018 14.8509 12.9172 15.1663 12.9172 15.554C12.9172 15.9418 12.6017 16.2571 12.2141 16.2571C11.8264 16.2571 11.5109 15.9418 11.5109 15.554C11.5109 15.1663 11.8264 14.8509 12.2141 14.8509ZM56.9186 52.5131L51.3616 46.9561C50.8878 46.4823 50.2216 46.3175 49.6122 46.4579L46.1306 42.9762C49.293 38.3323 48.8173 31.9352 44.7018 27.8197C44.4745 27.5923 44.2392 27.3758 43.9973 27.1693V3.72312C43.9973 1.76504 42.4043 0.171875 40.4461 0.171875H10.5893C10.4028 0.171875 10.224 0.245937 10.092 0.377773L0.377773 10.0919C0.245937 10.2238 0.171875 10.4027 0.171875 10.5891V54.2769C0.171875 56.2351 1.76492 57.8281 3.72312 57.8281H40.4459C42.404 57.8281 43.9972 56.2351 43.9972 54.2769V47.1512L46.458 49.612C46.3175 50.2215 46.4823 50.8876 46.9561 51.3615L52.5131 56.9185C53.0996 57.505 53.882 57.828 54.7159 57.828C55.5499 57.828 56.3321 57.505 56.9186 56.9185C57.5052 56.332 57.8281 55.5499 57.8281 54.7159C57.8281 53.882 57.5052 53.0996 56.9186 52.5131ZM48.4156 47.2502L47.2502 48.4156L44.0984 45.2639C44.3042 45.0845 44.5057 44.8975 44.7016 44.7017C44.8975 44.5058 45.0845 44.3043 45.2639 44.0986L48.4156 47.2502ZM43.7073 43.7073C39.6011 47.8134 32.92 47.8134 28.8139 43.7073C24.7078 39.6011 24.7078 32.92 28.8139 28.8139C30.803 26.8248 33.4476 25.7293 36.2606 25.7293C39.0736 25.7293 41.7181 26.8248 43.7073 28.8139C47.8135 32.92 47.8135 39.6013 43.7073 43.7073ZM26.7815 29.0045C26.1554 29.8214 25.6495 30.7014 25.2632 31.6203H23.9679V20.1484H26.7816V29.0045H26.7815ZM33.3618 24.6758C32.379 24.9199 31.4349 25.2887 30.548 25.7734V15.1564H33.3618V24.6758ZM9.88613 2.57246V7.74113C9.88613 8.92379 8.92391 9.88601 7.74113 9.88601H2.57246L9.88613 2.57246ZM40.4459 56.4219H3.72312C2.54035 56.4219 1.57812 55.4597 1.57812 54.2769V11.2923H7.74113C9.69922 11.2923 11.2924 9.69922 11.2924 7.74113V1.57812H40.4459C41.6287 1.57812 42.5909 2.54035 42.5909 3.72312V26.1354C40.7114 24.9553 38.5347 24.3233 36.2607 24.3233C35.7577 24.3233 35.2595 24.3543 34.7682 24.4153V15.0395C34.7682 14.3287 34.1899 13.7504 33.4791 13.7504H30.4309C29.7201 13.7504 29.1418 14.3287 29.1418 15.0395V26.6757C28.8123 26.9216 28.494 27.1859 28.1878 27.4677V20.0313C28.1878 19.3205 27.6095 18.7422 26.8987 18.7422H23.8504C23.1397 18.7422 22.5614 19.3205 22.5614 20.0313V31.7377C22.5614 32.4485 23.1397 33.0268 23.8504 33.0268H24.773C24.1248 35.3445 24.1878 37.8209 24.9621 40.1077H7.12941C6.74117 40.1077 6.42629 40.4226 6.42629 40.8109C6.42629 41.1991 6.74117 41.514 7.12941 41.514H25.5409C26.1042 42.6661 26.8634 43.7457 27.8197 44.702C27.9493 44.8316 28.0815 44.957 28.2154 45.0793H7.12941C6.74117 45.0793 6.42629 45.3942 6.42629 45.7824C6.42629 46.1707 6.74117 46.4855 7.12941 46.4855H30.0985C31.9864 47.6232 34.1234 48.1927 36.2607 48.1927C38.4616 48.1927 40.6624 47.5895 42.5909 46.3831V54.2771C42.5909 55.4596 41.6287 56.4219 40.4459 56.4219ZM55.9242 55.9242C55.6033 56.2452 55.1742 56.4219 54.7157 56.4219C54.2573 56.4219 53.8283 56.2452 53.5073 55.9242L47.9503 50.3671C47.8624 50.2793 47.8139 50.1615 47.8139 50.0357C47.8139 49.9099 47.8623 49.7922 47.9503 49.7042L49.7041 47.9504C49.792 47.8625 49.9098 47.814 50.0356 47.814C50.1614 47.814 50.2791 47.8624 50.367 47.9504L55.9241 53.5074C56.245 53.8283 56.4218 54.2574 56.4218 54.7159C56.4218 55.1743 56.2452 55.6033 55.9242 55.9242ZM29.7971 29.7971C26.2331 33.3611 26.2331 39.16 29.7971 42.7242C31.5791 44.5061 33.9199 45.3971 36.2606 45.3971C38.6013 45.3971 40.9421 44.5061 42.7241 42.7242C46.2881 39.1602 46.2881 33.3611 42.7241 29.7971C39.1602 26.2332 33.361 26.2333 29.7971 29.7971ZM41.7297 41.7297C40.2216 43.2378 38.2414 43.9917 36.2606 43.9914C34.2801 43.9913 32.2991 43.2373 30.7914 41.7297C27.7757 38.714 27.7757 33.8071 30.7914 30.7914C32.2993 29.2836 34.2799 28.5297 36.2606 28.5297C38.2412 28.5297 40.2219 29.2837 41.7297 30.7914C44.7454 33.8071 44.7454 38.7141 41.7297 41.7297ZM22.7877 50.7536C22.7877 51.1419 22.4728 51.4568 22.0845 51.4568H7.12941C6.74117 51.4568 6.42629 51.1419 6.42629 50.7536C6.42629 50.3654 6.74117 50.0505 7.12941 50.0505H22.0845C22.4728 50.0505 22.7877 50.3653 22.7877 50.7536Z" fill="#07216C"/>
</svg>
