<svg width="62" height="52" viewBox="0 0 62 52" fill="none" xmlns="http://www.w3.org/2000/svg">
<ellipse cx="22" cy="30.5" rx="22" ry="21.5" fill="#016BE3" fill-opacity="0.35"/>
<path d="M58.5075 34.4184L53.2371 29.2537C52.2944 28.3374 50.6596 28.3308 49.7234 29.2537L49.6831 29.293L49.6822 29.2923L47.74 27.3712C49.3436 25.0724 50.477 21.8096 50.477 18.3608V18.3201C50.9402 18.1983 51.3065 17.8329 51.4032 17.3527L51.4793 16.9467C51.9285 16.8116 52.3571 16.6356 52.7648 16.4123L53.1173 16.6425C53.6357 16.9807 54.32 16.913 54.7348 16.4869L55.7438 15.4924C56.2001 15.0732 56.2691 14.4034 55.9166 13.896L55.6817 13.5512C55.9028 13.1452 56.0825 12.7257 56.214 12.2791L56.6147 12.2048C57.2231 12.0899 57.6584 11.5756 57.6584 10.9734V9.55312C57.6584 8.95096 57.2231 8.43007 56.6147 8.31512L56.2001 8.23387C56.0687 7.80777 55.889 7.37474 55.6608 6.96879L55.889 6.63749C56.2346 6.13014 56.1725 5.46721 55.7369 5.05432L54.7209 4.05349C54.2856 3.62706 53.6082 3.55274 53.0898 3.89098L52.7304 4.12087C52.3156 3.89758 51.8732 3.72186 51.4309 3.59998L51.3548 3.21451C51.2443 2.6259 50.719 2.1932 50.1039 2.1932H48.6524C48.0235 2.1932 47.4982 2.61929 47.3876 3.2079L47.3115 3.60691C46.8554 3.74895 46.4199 3.92467 45.9982 4.14135L45.6664 3.92467C45.1551 3.58643 44.4707 3.64754 44.0492 4.0667L43.2888 4.82443C40.531 2.93044 37.248 1.89526 33.7921 1.86817C24.4058 1.79821 16.8743 9.13294 16.7892 18.2118C16.7546 22.1015 18.0816 25.802 20.563 28.7717L18.7867 30.5032C18.6829 30.605 18.6554 30.7536 18.7176 30.8821L19.5055 32.6073L17.7084 33.2702C17.5702 33.3174 17.4804 33.4459 17.4804 33.5814V36.3682C17.4804 36.5102 17.5702 36.6321 17.7084 36.6863L19.5055 37.3426L18.7176 39.0674C18.6554 39.1959 18.6829 39.3449 18.7867 39.4463L20.7979 41.4216C20.9017 41.523 21.0537 41.55 21.185 41.4893L22.9406 40.7045L23.618 42.4703C23.6733 42.6054 23.7977 42.6932 23.9428 42.6932H26.7836C26.9287 42.6932 27.0669 42.6054 27.1154 42.4703L27.7927 40.7045L29.5414 41.4893C29.6727 41.55 29.8247 41.523 29.9283 41.4216L31.9398 39.4463C32.0434 39.3449 32.0711 39.1959 32.0157 39.0674L31.214 37.3426L33.018 36.6863C33.1493 36.6321 33.2391 36.5102 33.2391 36.3682V34.8395C33.3775 34.8461 33.5088 34.8461 33.647 34.8461C37.1728 34.8461 40.529 33.7436 43.1368 31.9711L45.0237 33.8453L45.0244 33.8459L45.0092 33.8608C44.046 34.8104 44.046 36.3503 45.0092 37.3L50.2865 42.4647C52.5519 44.6826 56.2306 44.6938 58.5075 42.4647C60.7774 40.2434 60.7818 36.6439 58.5075 34.4184ZM44.2635 31.1595C45.2466 30.3598 46.1659 29.4696 46.9244 28.4874L48.6939 30.2396L45.9707 32.8507L44.2635 31.1595ZM33.2253 33.48C24.9464 33.2875 18.0854 26.6228 18.1716 18.2253C18.2422 9.91164 25.1358 3.22111 33.647 3.22111H33.7782C42.3896 3.30616 49.0946 10.0905 49.0946 18.3674C49.0946 26.9827 41.7627 33.7184 33.2253 33.48ZM49.392 7.14484C51.1614 7.14484 52.592 8.55195 52.592 10.2838C52.592 11.9072 51.3273 13.2466 49.703 13.4022C49.1223 11.562 48.2032 9.81009 46.959 8.24741C47.5395 7.57094 48.4173 7.14484 49.392 7.14484ZM28.7534 34.9749C28.7534 36.8081 27.2328 38.2962 25.3598 38.2962C23.4867 38.2962 21.9731 36.8081 21.9731 34.9749C21.9731 33.5949 22.8299 32.4111 24.0533 31.9173C25.4703 32.8844 27.0118 33.6084 28.629 34.0953C28.712 34.3794 28.7534 34.6704 28.7534 34.9749Z" fill="#110302"/>
<path d="M26.1681 19.7068H22.9335C22.7468 19.7068 22.5879 19.8558 22.5879 20.045V26.052C22.5879 26.235 22.7468 26.3902 22.9335 26.3902H26.1681C26.3617 26.3902 26.5137 26.235 26.5137 26.052V20.045C26.5137 19.8558 26.3617 19.7068 26.1681 19.7068Z" fill="#110302"/>
<path d="M31.9606 15.939H28.726C28.5393 15.939 28.3804 16.0945 28.3804 16.2772V26.052C28.3804 26.235 28.5393 26.3902 28.726 26.3902H31.9606C32.1542 26.3902 32.3062 26.235 32.3062 26.052V16.2772C32.3062 16.0945 32.1542 15.939 31.9606 15.939Z" fill="#110302"/>
<path d="M37.7526 22.1895H34.518C34.3313 22.1895 34.1724 22.3384 34.1724 22.5277V26.0521C34.1724 26.2351 34.3313 26.3903 34.518 26.3903H37.7526C37.9462 26.3903 38.0982 26.2351 38.0982 26.0521V22.5277C38.0982 22.3384 37.9462 22.1895 37.7526 22.1895Z" fill="#110302"/>
<path d="M43.8901 26.0519V16.3313V14.0379C43.8901 13.8483 43.7379 13.6997 43.5445 13.6997H43.04H40.3168C40.1231 13.6997 39.9712 13.8483 39.9712 14.0379V26.0519C39.9712 26.2349 40.1231 26.3901 40.3168 26.3901H43.5445C43.7379 26.3901 43.8901 26.2349 43.8901 26.0519Z" fill="#110302"/>
<path d="M36.6328 15.6345C37.225 15.0445 34.4874 17.7718 42.4248 9.86437C42.6875 9.60046 42.6875 9.17436 42.4178 8.91044C42.1414 8.64686 41.7059 8.65346 41.4364 8.91738C34.5441 15.7854 43.8723 6.49449 36.0867 14.2479C36.0175 14.1933 30.4299 9.79272 30.7784 10.0672C30.5366 9.87791 30.1979 9.86437 29.9492 10.0401L23.9358 14.2073C23.6179 14.4236 23.5487 14.8431 23.7699 15.1476C23.9911 15.4519 24.4197 15.5265 24.7306 15.3098C24.8 15.2617 30.6913 11.1801 30.3153 11.4406C37.7035 17.2531 35.1553 15.2484 35.7065 15.6821C35.9898 15.913 36.3843 15.8777 36.6328 15.6345Z" fill="#110302"/>
</svg>
