<svg width="308" height="64" viewBox="0 0 308 64" fill="none" xmlns="http://www.w3.org/2000/svg">
<path d="M71.2148 38.7715H66.7734V36.4395H71.2148C71.9883 36.4395 72.6133 36.3145 73.0898 36.0645C73.5664 35.8145 73.9141 35.4707 74.1328 35.0332C74.3594 34.5879 74.4727 34.0801 74.4727 33.5098C74.4727 32.9707 74.3594 32.4668 74.1328 31.998C73.9141 31.5215 73.5664 31.1387 73.0898 30.8496C72.6133 30.5605 71.9883 30.416 71.2148 30.416H67.6758V45.1348H64.7344V28.0723H71.2148C72.5352 28.0723 73.6562 28.3066 74.5781 28.7754C75.5078 29.2363 76.2148 29.877 76.6992 30.6973C77.1836 31.5098 77.4258 32.4395 77.4258 33.4863C77.4258 34.5879 77.1836 35.5332 76.6992 36.3223C76.2148 37.1113 75.5078 37.7168 74.5781 38.1387C73.6562 38.5605 72.5352 38.7715 71.2148 38.7715ZM82.8047 32.4551V45.1348H79.9688V32.4551H82.8047ZM79.7812 29.127C79.7812 28.6973 79.9219 28.3418 80.2031 28.0605C80.4922 27.7715 80.8906 27.627 81.3984 27.627C81.8984 27.627 82.293 27.7715 82.582 28.0605C82.8711 28.3418 83.0156 28.6973 83.0156 29.127C83.0156 29.5488 82.8711 29.9004 82.582 30.1816C82.293 30.4629 81.8984 30.6035 81.3984 30.6035C80.8906 30.6035 80.4922 30.4629 80.2031 30.1816C79.9219 29.9004 79.7812 29.5488 79.7812 29.127ZM88.0547 32.4551L90.4688 36.6621L92.9297 32.4551H96.0352L92.1914 38.6777L96.1875 45.1348H93.082L90.5039 40.752L87.9258 45.1348H84.8086L88.793 38.6777L84.9609 32.4551H88.0547ZM103.324 45.3691C102.387 45.3691 101.539 45.2168 100.781 44.9121C100.031 44.5996 99.3906 44.166 98.8594 43.6113C98.3359 43.0566 97.9336 42.4043 97.6523 41.6543C97.3711 40.9043 97.2305 40.0957 97.2305 39.2285V38.7598C97.2305 37.7676 97.375 36.8691 97.6641 36.0645C97.9531 35.2598 98.3555 34.5723 98.8711 34.002C99.3867 33.4238 99.9961 32.9824 100.699 32.6777C101.402 32.373 102.164 32.2207 102.984 32.2207C103.891 32.2207 104.684 32.373 105.363 32.6777C106.043 32.9824 106.605 33.4121 107.051 33.9668C107.504 34.5137 107.84 35.166 108.059 35.9238C108.285 36.6816 108.398 37.5176 108.398 38.4316V39.6387H98.6016V37.6113H105.609V37.3887C105.594 36.8809 105.492 36.4043 105.305 35.959C105.125 35.5137 104.848 35.1543 104.473 34.8809C104.098 34.6074 103.598 34.4707 102.973 34.4707C102.504 34.4707 102.086 34.5723 101.719 34.7754C101.359 34.9707 101.059 35.2559 100.816 35.6309C100.574 36.0059 100.387 36.459 100.254 36.9902C100.129 37.5137 100.066 38.1035 100.066 38.7598V39.2285C100.066 39.7832 100.141 40.2988 100.289 40.7754C100.445 41.2441 100.672 41.6543 100.969 42.0059C101.266 42.3574 101.625 42.6348 102.047 42.8379C102.469 43.0332 102.949 43.1309 103.488 43.1309C104.168 43.1309 104.773 42.9941 105.305 42.7207C105.836 42.4473 106.297 42.0605 106.688 41.5605L108.176 43.002C107.902 43.4004 107.547 43.7832 107.109 44.1504C106.672 44.5098 106.137 44.8027 105.504 45.0293C104.879 45.2559 104.152 45.3691 103.324 45.3691ZM113.625 27.1348V45.1348H110.789V27.1348H113.625ZM127.078 39.5801H130.008C129.914 40.6973 129.602 41.6934 129.07 42.5684C128.539 43.4355 127.793 44.1191 126.832 44.6191C125.871 45.1191 124.703 45.3691 123.328 45.3691C122.273 45.3691 121.324 45.1816 120.48 44.8066C119.637 44.4238 118.914 43.8848 118.312 43.1895C117.711 42.4863 117.25 41.6387 116.93 40.6465C116.617 39.6543 116.461 38.5449 116.461 37.3184V35.9004C116.461 34.6738 116.621 33.5645 116.941 32.5723C117.27 31.5801 117.738 30.7324 118.348 30.0293C118.957 29.3184 119.688 28.7754 120.539 28.4004C121.398 28.0254 122.363 27.8379 123.434 27.8379C124.793 27.8379 125.941 28.0879 126.879 28.5879C127.816 29.0879 128.543 29.7793 129.059 30.6621C129.582 31.5449 129.902 32.5566 130.02 33.6973H127.09C127.012 32.9629 126.84 32.334 126.574 31.8105C126.316 31.2871 125.934 30.8887 125.426 30.6152C124.918 30.334 124.254 30.1934 123.434 30.1934C122.762 30.1934 122.176 30.3184 121.676 30.5684C121.176 30.8184 120.758 31.1855 120.422 31.6699C120.086 32.1543 119.832 32.752 119.66 33.4629C119.496 34.166 119.414 34.9707 119.414 35.877V37.3184C119.414 38.1777 119.488 38.959 119.637 39.6621C119.793 40.3574 120.027 40.9551 120.34 41.4551C120.66 41.9551 121.066 42.3418 121.559 42.6152C122.051 42.8887 122.641 43.0254 123.328 43.0254C124.164 43.0254 124.84 42.8926 125.355 42.627C125.879 42.3613 126.273 41.9746 126.539 41.4668C126.812 40.9512 126.992 40.3223 127.078 39.5801ZM135.234 34.8691V45.1348H132.41V32.4551H135.105L135.234 34.8691ZM139.113 32.373L139.09 34.998C138.918 34.9668 138.73 34.9434 138.527 34.9277C138.332 34.9121 138.137 34.9043 137.941 34.9043C137.457 34.9043 137.031 34.9746 136.664 35.1152C136.297 35.248 135.988 35.4434 135.738 35.7012C135.496 35.9512 135.309 36.2559 135.176 36.6152C135.043 36.9746 134.965 37.377 134.941 37.8223L134.297 37.8691C134.297 37.0723 134.375 36.334 134.531 35.6543C134.688 34.9746 134.922 34.377 135.234 33.8613C135.555 33.3457 135.953 32.9434 136.43 32.6543C136.914 32.3652 137.473 32.2207 138.105 32.2207C138.277 32.2207 138.461 32.2363 138.656 32.2676C138.859 32.2988 139.012 32.334 139.113 32.373ZM147.609 42.5918V36.5449C147.609 36.0918 147.527 35.7012 147.363 35.373C147.199 35.0449 146.949 34.791 146.613 34.6113C146.285 34.4316 145.871 34.3418 145.371 34.3418C144.91 34.3418 144.512 34.4199 144.176 34.5762C143.84 34.7324 143.578 34.9434 143.391 35.209C143.203 35.4746 143.109 35.7754 143.109 36.1113H140.297C140.297 35.6113 140.418 35.127 140.66 34.6582C140.902 34.1895 141.254 33.7715 141.715 33.4043C142.176 33.0371 142.727 32.748 143.367 32.5371C144.008 32.3262 144.727 32.2207 145.523 32.2207C146.477 32.2207 147.32 32.3809 148.055 32.7012C148.797 33.0215 149.379 33.5059 149.801 34.1543C150.23 34.7949 150.445 35.5996 150.445 36.5684V42.2051C150.445 42.7832 150.484 43.3027 150.562 43.7637C150.648 44.2168 150.77 44.6113 150.926 44.9473V45.1348H148.031C147.898 44.8301 147.793 44.4434 147.715 43.9746C147.645 43.498 147.609 43.0371 147.609 42.5918ZM148.02 37.4238L148.043 39.1699H146.016C145.492 39.1699 145.031 39.2207 144.633 39.3223C144.234 39.416 143.902 39.5566 143.637 39.7441C143.371 39.9316 143.172 40.1582 143.039 40.4238C142.906 40.6895 142.84 40.9902 142.84 41.3262C142.84 41.6621 142.918 41.9707 143.074 42.252C143.23 42.5254 143.457 42.7402 143.754 42.8965C144.059 43.0527 144.426 43.1309 144.855 43.1309C145.434 43.1309 145.938 43.0137 146.367 42.7793C146.805 42.5371 147.148 42.2441 147.398 41.9004C147.648 41.5488 147.781 41.2168 147.797 40.9043L148.711 42.1582C148.617 42.4785 148.457 42.8223 148.23 43.1895C148.004 43.5566 147.707 43.9082 147.34 44.2441C146.98 44.5723 146.547 44.8418 146.039 45.0527C145.539 45.2637 144.961 45.3691 144.305 45.3691C143.477 45.3691 142.738 45.2051 142.09 44.877C141.441 44.541 140.934 44.0918 140.566 43.5293C140.199 42.959 140.016 42.3145 140.016 41.5957C140.016 40.9238 140.141 40.3301 140.391 39.8145C140.648 39.291 141.023 38.8535 141.516 38.502C142.016 38.1504 142.625 37.8848 143.344 37.7051C144.062 37.5176 144.883 37.4238 145.805 37.4238H148.02ZM156.891 43.752L160.336 32.4551H163.359L158.273 47.0684C158.156 47.3809 158.004 47.7207 157.816 48.0879C157.629 48.4551 157.383 48.8027 157.078 49.1309C156.781 49.4668 156.41 49.7363 155.965 49.9395C155.52 50.1504 154.98 50.2559 154.348 50.2559C154.098 50.2559 153.855 50.2324 153.621 50.1855C153.395 50.1465 153.18 50.1035 152.977 50.0566L152.965 47.9004C153.043 47.9082 153.137 47.916 153.246 47.9238C153.363 47.9316 153.457 47.9355 153.527 47.9355C153.996 47.9355 154.387 47.877 154.699 47.7598C155.012 47.6504 155.266 47.4707 155.461 47.2207C155.664 46.9707 155.836 46.6348 155.977 46.2129L156.891 43.752ZM154.945 32.4551L157.957 41.9473L158.461 44.9238L156.504 45.4277L151.898 32.4551H154.945ZM164.25 38.9355V38.666C164.25 37.752 164.383 36.9043 164.648 36.123C164.914 35.334 165.297 34.6504 165.797 34.0723C166.305 33.4863 166.922 33.0332 167.648 32.7129C168.383 32.3848 169.211 32.2207 170.133 32.2207C171.062 32.2207 171.891 32.3848 172.617 32.7129C173.352 33.0332 173.973 33.4863 174.48 34.0723C174.988 34.6504 175.375 35.334 175.641 36.123C175.906 36.9043 176.039 37.752 176.039 38.666V38.9355C176.039 39.8496 175.906 40.6973 175.641 41.4785C175.375 42.2598 174.988 42.9434 174.48 43.5293C173.973 44.1074 173.355 44.5605 172.629 44.8887C171.902 45.209 171.078 45.3691 170.156 45.3691C169.227 45.3691 168.395 45.209 167.66 44.8887C166.934 44.5605 166.316 44.1074 165.809 43.5293C165.301 42.9434 164.914 42.2598 164.648 41.4785C164.383 40.6973 164.25 39.8496 164.25 38.9355ZM167.074 38.666V38.9355C167.074 39.5059 167.133 40.0449 167.25 40.5527C167.367 41.0605 167.551 41.5059 167.801 41.8887C168.051 42.2715 168.371 42.5723 168.762 42.791C169.152 43.0098 169.617 43.1191 170.156 43.1191C170.68 43.1191 171.133 43.0098 171.516 42.791C171.906 42.5723 172.227 42.2715 172.477 41.8887C172.727 41.5059 172.91 41.0605 173.027 40.5527C173.152 40.0449 173.215 39.5059 173.215 38.9355V38.666C173.215 38.1035 173.152 37.5723 173.027 37.0723C172.91 36.5645 172.723 36.1152 172.465 35.7246C172.215 35.334 171.895 35.0293 171.504 34.8105C171.121 34.584 170.664 34.4707 170.133 34.4707C169.602 34.4707 169.141 34.584 168.75 34.8105C168.367 35.0293 168.051 35.334 167.801 35.7246C167.551 36.1152 167.367 36.5645 167.25 37.0723C167.133 37.5723 167.074 38.1035 167.074 38.666ZM181.207 35.1621V45.1348H178.383V32.4551H181.043L181.207 35.1621ZM180.703 38.3262L179.789 38.3145C179.797 37.416 179.922 36.5918 180.164 35.8418C180.414 35.0918 180.758 34.4473 181.195 33.9082C181.641 33.3691 182.172 32.9551 182.789 32.666C183.406 32.3691 184.094 32.2207 184.852 32.2207C185.461 32.2207 186.012 32.3066 186.504 32.4785C187.004 32.6426 187.43 32.9121 187.781 33.2871C188.141 33.6621 188.414 34.1504 188.602 34.752C188.789 35.3457 188.883 36.0762 188.883 36.9434V45.1348H186.047V36.9316C186.047 36.3223 185.957 35.8418 185.777 35.4902C185.605 35.1309 185.352 34.877 185.016 34.7285C184.688 34.5723 184.277 34.4941 183.785 34.4941C183.301 34.4941 182.867 34.5957 182.484 34.7988C182.102 35.002 181.777 35.2793 181.512 35.6309C181.254 35.9824 181.055 36.3887 180.914 36.8496C180.773 37.3105 180.703 37.8027 180.703 38.3262ZM198.879 41.7012C198.879 41.4199 198.809 41.166 198.668 40.9395C198.527 40.7051 198.258 40.4941 197.859 40.3066C197.469 40.1191 196.891 39.9473 196.125 39.791C195.453 39.6426 194.836 39.4668 194.273 39.2637C193.719 39.0527 193.242 38.7988 192.844 38.502C192.445 38.2051 192.137 37.8535 191.918 37.4473C191.699 37.041 191.59 36.5723 191.59 36.041C191.59 35.5254 191.703 35.0371 191.93 34.5762C192.156 34.1152 192.48 33.709 192.902 33.3574C193.324 33.0059 193.836 32.7285 194.438 32.5254C195.047 32.3223 195.727 32.2207 196.477 32.2207C197.539 32.2207 198.449 32.4004 199.207 32.7598C199.973 33.1113 200.559 33.5918 200.965 34.2012C201.371 34.8027 201.574 35.4824 201.574 36.2402H198.75C198.75 35.9043 198.664 35.5918 198.492 35.3027C198.328 35.0059 198.078 34.7676 197.742 34.5879C197.406 34.4004 196.984 34.3066 196.477 34.3066C195.992 34.3066 195.59 34.3848 195.27 34.541C194.957 34.6895 194.723 34.8848 194.566 35.127C194.418 35.3691 194.344 35.6348 194.344 35.9238C194.344 36.1348 194.383 36.3262 194.461 36.498C194.547 36.6621 194.688 36.8145 194.883 36.9551C195.078 37.0879 195.344 37.2129 195.68 37.3301C196.023 37.4473 196.453 37.5605 196.969 37.6699C197.938 37.873 198.77 38.1348 199.465 38.4551C200.168 38.7676 200.707 39.1738 201.082 39.6738C201.457 40.166 201.645 40.791 201.645 41.5488C201.645 42.1113 201.523 42.627 201.281 43.0957C201.047 43.5566 200.703 43.959 200.25 44.3027C199.797 44.6387 199.254 44.9004 198.621 45.0879C197.996 45.2754 197.293 45.3691 196.512 45.3691C195.363 45.3691 194.391 45.166 193.594 44.7598C192.797 44.3457 192.191 43.8184 191.777 43.1777C191.371 42.5293 191.168 41.8574 191.168 41.1621H193.898C193.93 41.6855 194.074 42.1035 194.332 42.416C194.598 42.7207 194.926 42.9434 195.316 43.084C195.715 43.2168 196.125 43.2832 196.547 43.2832C197.055 43.2832 197.48 43.2168 197.824 43.084C198.168 42.9434 198.43 42.7559 198.609 42.5215C198.789 42.2793 198.879 42.0059 198.879 41.7012Z" fill="#253053"/>
<path d="M205.188 29.8398V34.1055H204.459V29.8398H205.188ZM206.527 29.8398V30.4258H203.132V29.8398H206.527ZM207.389 29.8398H208.045L209.278 33.1299L210.509 29.8398H211.165L209.536 34.1055H209.015L207.389 29.8398ZM207.09 29.8398H207.714L207.822 32.6875V34.1055H207.09V29.8398ZM210.84 29.8398H211.467V34.1055H210.731V32.6875L210.84 29.8398Z" fill="#253053"/>
<path opacity="0.6" d="M40.3345 18.2573C40.3345 18.2573 28.1296 31.0156 18.264 21.6385C18.264 21.6385 8.15198 10.1149 11.7767 7.48194C11.7767 7.48194 13.7103 5.57527 25.3277 10.9067L40.3345 18.2573Z" fill="#00BFF3"/>
<path opacity="0.6" d="M44.4094 19.615C44.4094 19.615 30.1722 30.8952 20.9284 19.23C20.9284 19.23 11.6733 5.25871 15.7681 3.13052C15.7681 3.13052 18.009 1.46355 29.5541 9.17009L44.4094 19.615Z" fill="#E20965"/>
<path opacity="0.66" d="M46.89 20.5857C46.89 20.5857 31.7389 30.4786 23.519 17.931C23.519 17.931 15.4847 3.07715 19.7464 1.34843C19.7464 1.34843 22.1237 -0.10063 32.975 8.71724L46.89 20.5857Z" fill="#2E3192"/>
<path opacity="0.6" d="M44.4149 20.2111C44.4149 20.2111 29.3853 25.8947 24.8733 14.2586C24.8733 14.2586 20.9869 0.755872 25.0022 0.0186281C25.0022 0.0186281 27.3378 -0.787616 34.8716 8.20819L44.4149 20.2111Z" fill="#32004B"/>
<path d="M61.2323 9.42188H80.6753L60.5195 11.4484L61.2323 9.42188Z" fill="#0071BC"/>
<path d="M62.7645 9.397H61.1797C61.1797 9.397 56.554 5.64905 52.0572 6.02674C52.0572 6.02674 43.4656 6.24102 35.5336 18.2693C30.1497 26.4371 26.1116 37.1909 26.8738 46.9566C27.0861 49.7058 27.6169 52.7128 28.6027 55.3133C30.1535 59.4099 34.381 63.6262 39.238 63.6917C39.238 63.6917 48.2277 63.8151 52.588 51.9139C52.4704 52.2408 50.9463 52.5749 50.6771 52.6694C49.0771 53.2141 47.4542 53.7225 45.8088 54.1293C42.457 54.9573 37.7517 55.2987 34.7374 53.2867C33.8123 52.6694 32.709 51.7578 32.3298 50.759C31.8028 49.3608 31.4729 47.3706 32.0302 45.8707C32.7545 43.9241 35.4009 44.0149 37.0958 43.7389C39.2114 43.3939 41.293 42.6965 43.1129 41.5925C47.2533 39.0793 50.696 35.2549 52.4666 30.8606C54.1388 26.7095 53.2098 22.5839 53.733 18.2984C53.9909 16.1956 55.0677 14.2635 57.2175 13.3701C60.2507 12.1063 62.2337 10.4865 62.7645 9.397Z" fill="#29ABE2"/>
<path opacity="0.6" d="M39.6313 21.2969C39.6313 21.2969 40.291 42.6952 22.8424 43.4579C22.8424 43.4579 3.20978 42.6335 4.07046 37.2549C4.07046 37.2549 4.07046 33.9607 19.4072 28.2626L39.6313 21.2969Z" fill="#FF0000"/>
<path opacity="0.6" d="M39.631 21.2969C39.631 21.2969 37.1438 42.5718 19.7557 40.9737C19.7557 40.9737 0.441672 37.5127 2.08341 32.3011C2.08341 32.3011 2.56493 29.0434 18.5842 25.4661L39.631 21.2969Z" fill="#EF3A03"/>
<path opacity="0.7" d="M39.6285 21.2969C39.6285 21.2969 34.0436 42.027 17.0613 38.1011C17.0613 38.1011 -1.55515 32.0722 0.837313 27.133C0.837313 27.133 1.79277 23.9699 18.1798 22.5898L39.6285 21.2969Z" fill="#FFE600"/>
<path opacity="0.6" d="M39.631 21.2979C39.631 21.2979 31.0546 41.0689 14.8192 34.8951C14.8192 34.8951 -2.72806 26.4187 0.365831 21.85C0.365831 21.85 1.77629 18.8502 18.2013 19.6891L39.631 21.2979Z" fill="#00A810"/>
<path opacity="0.7" d="M32.0252 48.6584C32.954 50.7683 34.2128 53.0019 35.7333 54.7887C38.1257 57.607 42.7553 59.8187 46.7666 58.602C46.7666 58.602 54.1942 56.3467 54.5317 45.8438C54.5204 46.1307 53.364 46.7953 53.163 46.9406C51.9951 47.7867 50.8009 48.6148 49.5572 49.3665C47.0283 50.8955 43.2481 52.3954 40.2224 51.6001C40.2224 51.6001 36.1276 51.2623 31.5664 47.5108L32.0252 48.6584Z" fill="#6D68C5"/>
<path d="M31.8847 48.6988C32.5596 50.8959 33.5454 53.2493 34.8459 55.1923C36.8934 58.2502 41.2346 60.9449 45.3636 60.1678C45.3636 60.1678 53.0074 58.7296 54.5771 48.3247C54.5354 48.608 53.3031 49.1454 53.0908 49.2652C51.832 49.9807 50.5467 50.6744 49.2234 51.2845C46.5315 52.5302 42.5996 53.6161 39.6839 52.4976C39.6839 52.4976 35.6535 51.7203 31.5625 47.5039L31.8847 48.6988Z" fill="#43B6E6"/>
<path d="M31.3756 48.8792C31.1671 50.4807 31.1747 52.293 31.603 53.949C32.2818 56.5566 33.9462 58.7756 37.6468 60.6786C37.6468 60.6786 44.7863 64.9822 51.3342 56.3351C51.194 56.4985 49.9238 56.4186 49.6926 56.4222C48.3352 56.444 46.9588 56.4404 45.5825 56.3787C42.7768 56.2479 38.9473 55.5942 36.8089 53.9091C36.8089 53.9091 33.5709 52.0569 31.531 48.0293L31.3756 48.8792Z" fill="#FBED20"/>
<path opacity="0.8" d="M31.6726 48.5828C31.9531 50.5693 32.5104 52.7374 33.4545 54.5897C34.9371 57.5023 38.74 60.4041 42.9523 60.2733C42.9523 60.2733 50.744 60.03 54.1185 51.2339C54.0275 51.4736 52.7194 51.775 52.488 51.8513C51.1193 52.3053 49.7316 52.7338 48.3211 53.0934C45.4472 53.8197 41.3789 54.2447 38.7021 52.8937C38.7021 52.8937 34.8612 51.6916 31.5664 47.5078L31.6726 48.5828Z" fill="#009239"/>
<rect x="223" y="16" width="0.771603" height="37.8086" fill="#656565"/>
<path d="M240.036 26.946H241.17C241.141 27.5696 241.016 28.108 240.794 28.5611C240.576 29.0101 240.258 29.3552 239.838 29.5963C239.423 29.8374 238.903 29.958 238.278 29.958C237.83 29.958 237.426 29.8686 237.064 29.6898C236.702 29.5111 236.392 29.2554 236.133 28.9228C235.878 28.5861 235.683 28.1828 235.547 27.713C235.412 27.2432 235.344 26.7153 235.344 26.1291V24.4516C235.344 23.8696 235.412 23.3437 235.547 22.8739C235.687 22.4041 235.886 22.0029 236.145 21.6703C236.408 21.3336 236.727 21.0758 237.101 20.8971C237.479 20.7183 237.907 20.6289 238.383 20.6289C238.967 20.6289 239.46 20.7474 239.863 20.9844C240.27 21.2172 240.582 21.5602 240.8 22.0133C241.022 22.4623 241.145 23.0131 241.17 23.6658H240.036C240.007 23.1878 239.933 22.799 239.814 22.4997C239.694 22.1962 239.518 21.9738 239.283 21.8325C239.053 21.687 238.753 21.6142 238.383 21.6142C238.054 21.6142 237.769 21.6807 237.526 21.8137C237.288 21.9468 237.091 22.138 236.934 22.3875C236.782 22.6327 236.667 22.93 236.589 23.2792C236.515 23.6243 236.478 24.0109 236.478 24.4391V26.1291C236.478 26.5282 236.509 26.9003 236.571 27.2453C236.636 27.5904 236.739 27.8939 236.879 28.1558C237.023 28.4135 237.21 28.6152 237.44 28.7607C237.67 28.9062 237.95 28.9789 238.278 28.9789C238.694 28.9789 239.022 28.9103 239.265 28.7731C239.507 28.636 239.686 28.4177 239.801 28.1184C239.921 27.819 239.999 27.4282 240.036 26.946Z" fill="#656565"/>
<path d="M243.063 20.7536H244.16L246.509 28.1558L248.852 20.7536H249.95L246.935 29.8333H246.072L243.063 20.7536ZM242.705 20.7536H243.667L243.834 26.2912V29.8333H242.705V20.7536ZM249.339 20.7536H250.301V29.8333H249.173V26.2912L249.339 20.7536Z" fill="#656565"/>
<path d="M252.607 20.7536H253.704L256.053 28.1558L258.396 20.7536H259.494L256.479 29.8333H255.616L252.607 20.7536ZM252.249 20.7536H253.211L253.378 26.2912V29.8333H252.249V20.7536ZM258.883 20.7536H259.845V29.8333H258.717V26.2912L258.883 20.7536Z" fill="#656565"/>
<path d="M262.977 20.7536V29.8333H261.843V20.7536H262.977Z" fill="#656565"/>
<path d="M272.503 28.8542V29.8333H268.779V28.8542H272.503ZM268.982 20.7536V29.8333H267.848V20.7536H268.982Z" fill="#656565"/>
<path d="M278.68 28.8542V29.8333H274.784V28.8542H278.68ZM274.987 20.7536V29.8333H273.853V20.7536H274.987ZM278.156 24.6574V25.6364H274.784V24.6574H278.156ZM278.619 20.7536V21.7389H274.784V20.7536H278.619Z" fill="#656565"/>
<path d="M282.595 28.4551L284.753 20.7536H285.986L283.2 29.8333H282.33L282.595 28.4551ZM280.659 20.7536L282.799 28.4551L283.082 29.8333H282.213L279.426 20.7536H280.659Z" fill="#656565"/>
<path d="M292.035 28.8542V29.8333H288.138V28.8542H292.035ZM288.342 20.7536V29.8333H287.207V20.7536H288.342ZM291.511 24.6574V25.6364H288.138V24.6574H291.511ZM291.973 20.7536V21.7389H288.138V20.7536H291.973Z" fill="#656565"/>
<path d="M298.138 28.8542V29.8333H294.414V28.8542H298.138ZM294.618 20.7536V29.8333H293.484V20.7536H294.618Z" fill="#656565"/>
<path d="M303.539 24.726H304.242C304.555 24.726 304.813 24.6595 305.019 24.5264C305.224 24.3892 305.377 24.2042 305.475 23.9714C305.578 23.7344 305.629 23.4684 305.629 23.1732C305.629 22.824 305.584 22.5309 305.494 22.2939C305.403 22.057 305.268 21.8782 305.087 21.7576C304.91 21.6371 304.686 21.5768 304.415 21.5768C304.16 21.5768 303.938 21.6412 303.749 21.7701C303.56 21.8948 303.414 22.0736 303.311 22.3064C303.208 22.5392 303.157 22.8136 303.157 23.1295H302.072C302.072 22.6681 302.166 22.2482 302.356 21.8699C302.549 21.4916 302.82 21.1901 303.169 20.9657C303.523 20.7412 303.938 20.6289 304.415 20.6289C304.871 20.6289 305.272 20.7266 305.617 20.922C305.962 21.1132 306.232 21.4001 306.425 21.7826C306.622 22.1609 306.721 22.6327 306.721 23.1981C306.721 23.4268 306.677 23.6721 306.591 23.934C306.509 24.1918 306.375 24.4329 306.19 24.6574C306.01 24.8819 305.771 25.0669 305.475 25.2124C305.183 25.3537 304.826 25.4244 304.402 25.4244H303.539V24.726ZM303.539 25.6738V24.9816H304.402C304.904 24.9816 305.313 25.0502 305.629 25.1874C305.946 25.3246 306.19 25.5075 306.363 25.7362C306.536 25.9649 306.655 26.2164 306.721 26.4908C306.791 26.761 306.825 27.0312 306.825 27.3014C306.825 27.7255 306.764 28.1017 306.64 28.4302C306.521 28.7586 306.351 29.0371 306.129 29.2658C305.911 29.4944 305.656 29.667 305.364 29.7834C305.072 29.8998 304.754 29.958 304.409 29.958C304.072 29.958 303.759 29.9019 303.471 29.7896C303.184 29.6774 302.931 29.5152 302.713 29.3032C302.495 29.087 302.325 28.823 302.201 28.5112C302.082 28.1953 302.023 27.8357 302.023 27.4324H303.114C303.114 27.7484 303.165 28.0248 303.268 28.2618C303.371 28.4988 303.519 28.6838 303.712 28.8168C303.905 28.9457 304.137 29.0101 304.409 29.0101C304.68 29.0101 304.914 28.9498 305.111 28.8293C305.309 28.7045 305.461 28.5175 305.568 28.268C305.679 28.0186 305.734 27.7047 305.734 27.3264C305.734 26.9481 305.673 26.6383 305.549 26.3972C305.43 26.1519 305.259 25.9711 305.037 25.8547C304.816 25.7341 304.55 25.6738 304.242 25.6738H303.539Z" fill="#656565"/>
<path d="M236.724 39.2009V48.2805H235.59V39.2009H236.724Z" fill="#656565"/>
<path d="M242.625 45.9857C242.625 45.7737 242.6 45.5866 242.551 45.4244C242.501 45.2581 242.415 45.1085 242.292 44.9754C242.168 44.8424 241.996 44.7156 241.774 44.595C241.552 44.4745 241.27 44.3518 240.929 44.2271C240.559 44.0941 240.224 43.9465 239.924 43.7844C239.624 43.6181 239.367 43.4289 239.153 43.2169C238.944 43.0049 238.781 42.7617 238.666 42.4873C238.551 42.2129 238.494 41.899 238.494 41.5456C238.494 41.1923 238.553 40.8659 238.673 40.5666C238.796 40.2673 238.968 40.0074 239.19 39.7871C239.417 39.5626 239.688 39.388 240.004 39.2633C240.321 39.1385 240.674 39.0762 241.065 39.0762C241.648 39.0762 242.14 39.2071 242.538 39.469C242.941 39.7268 243.245 40.0656 243.451 40.4855C243.656 40.9012 243.759 41.3461 243.759 41.82H242.625C242.625 41.4791 242.569 41.1777 242.458 40.9158C242.351 40.6497 242.183 40.4419 241.953 40.2922C241.726 40.1384 241.431 40.0615 241.065 40.0615C240.736 40.0615 240.465 40.1259 240.251 40.2548C240.041 40.3837 239.885 40.5583 239.782 40.7786C239.684 40.9989 239.634 41.2505 239.634 41.5332C239.634 41.7244 239.667 41.899 239.733 42.057C239.799 42.2108 239.899 42.3542 240.035 42.4873C240.175 42.6203 240.347 42.7429 240.553 42.8552C240.763 42.9674 241.009 43.0755 241.293 43.1795C241.733 43.325 242.109 43.4871 242.421 43.6659C242.733 43.8446 242.988 44.0463 243.186 44.2708C243.383 44.4911 243.527 44.7426 243.617 45.0253C243.712 45.3039 243.759 45.6198 243.759 45.9732C243.759 46.3432 243.697 46.6779 243.574 46.9772C243.455 47.2765 243.28 47.5322 243.05 47.7442C242.82 47.9563 242.542 48.1205 242.218 48.2369C241.893 48.3491 241.527 48.4053 241.12 48.4053C240.767 48.4053 240.419 48.347 240.078 48.2306C239.741 48.1142 239.435 47.9396 239.16 47.7068C238.884 47.474 238.664 47.1872 238.5 46.8462C238.336 46.5012 238.253 46.1021 238.253 45.6489H239.388C239.388 45.9607 239.433 46.2289 239.523 46.4534C239.614 46.6737 239.739 46.8566 239.899 47.0021C240.06 47.1477 240.243 47.2557 240.448 47.3264C240.658 47.3929 240.882 47.4262 241.12 47.4262C241.449 47.4262 241.724 47.368 241.946 47.2516C242.172 47.1352 242.341 46.9689 242.452 46.7527C242.567 46.5365 242.625 46.2808 242.625 45.9857Z" fill="#656565"/>
<path d="M251.084 42.955V44.5327C251.084 45.1729 251.014 45.7362 250.874 46.2226C250.738 46.7049 250.539 47.1082 250.276 47.4324C250.013 47.7567 249.696 47.9999 249.326 48.162C248.956 48.3242 248.539 48.4053 248.075 48.4053C247.627 48.4053 247.218 48.3242 246.848 48.162C246.478 47.9999 246.159 47.7567 245.892 47.4324C245.625 47.1082 245.417 46.7049 245.27 46.2226C245.126 45.7362 245.054 45.1729 245.054 44.5327V42.955C245.054 42.3147 245.126 41.7535 245.27 41.2712C245.413 40.7848 245.619 40.3795 245.886 40.0552C246.153 39.731 246.472 39.4877 246.842 39.3256C247.212 39.1593 247.621 39.0762 248.069 39.0762C248.533 39.0762 248.95 39.1593 249.32 39.3256C249.694 39.4877 250.011 39.731 250.27 40.0552C250.533 40.3795 250.734 40.7848 250.874 41.2712C251.014 41.7535 251.084 42.3147 251.084 42.955ZM249.961 44.5327V42.9425C249.961 42.4436 249.92 42.0154 249.838 41.6579C249.756 41.2962 249.635 41.001 249.474 40.7724C249.314 40.5437 249.117 40.3753 248.882 40.2673C248.648 40.155 248.377 40.0989 248.069 40.0989C247.777 40.0989 247.514 40.155 247.279 40.2673C247.049 40.3753 246.852 40.5437 246.688 40.7724C246.523 41.001 246.396 41.2962 246.305 41.6579C246.219 42.0154 246.176 42.4436 246.176 42.9425V44.5327C246.176 45.0357 246.219 45.4681 246.305 45.8298C246.396 46.1873 246.523 46.4825 246.688 46.7153C246.856 46.9439 247.057 47.1144 247.292 47.2266C247.526 47.3347 247.787 47.3888 248.075 47.3888C248.383 47.3888 248.654 47.3347 248.889 47.2266C249.127 47.1144 249.324 46.9439 249.481 46.7153C249.641 46.4825 249.76 46.1873 249.838 45.8298C249.92 45.4681 249.961 45.0357 249.961 44.5327Z" fill="#656565"/>
<path d="M256.478 47.3139H256.565C257.119 47.3139 257.565 47.2204 257.902 47.0333C258.239 46.8462 258.492 46.5947 258.661 46.2788C258.833 45.9628 258.949 45.6074 259.006 45.2124C259.068 44.8133 259.099 44.4038 259.099 43.9839V42.5933C259.099 42.1817 259.059 41.8159 258.981 41.4957C258.907 41.1756 258.807 40.9075 258.679 40.6913C258.556 40.4751 258.414 40.3109 258.254 40.1987C258.098 40.0864 257.937 40.0303 257.773 40.0303C257.563 40.0303 257.378 40.0843 257.218 40.1924C257.058 40.2964 256.922 40.4439 256.811 40.6352C256.704 40.8264 256.622 41.0509 256.565 41.3087C256.507 41.5664 256.478 41.847 256.478 42.1505C256.478 42.4208 256.503 42.6827 256.552 42.9363C256.602 43.1899 256.678 43.4185 256.78 43.6222C256.887 43.8259 257.019 43.9881 257.175 44.1086C257.335 44.225 257.524 44.2832 257.742 44.2832C257.923 44.2832 258.098 44.2334 258.266 44.1336C258.439 44.0296 258.595 43.8904 258.735 43.7158C258.875 43.537 258.99 43.3354 259.08 43.1109C259.17 42.8864 259.224 42.6515 259.24 42.4062H259.752C259.752 42.7513 259.697 43.0922 259.586 43.4289C259.479 43.7615 259.325 44.065 259.123 44.3394C258.926 44.6138 258.694 44.8341 258.427 45.0004C258.163 45.1625 257.874 45.2436 257.557 45.2436C257.175 45.2436 256.848 45.1563 256.577 44.9817C256.306 44.8071 256.084 44.5743 255.911 44.2832C255.742 43.9922 255.617 43.668 255.535 43.3104C255.453 42.9487 255.412 42.5829 255.412 42.2129C255.412 41.7805 255.461 41.3752 255.56 40.9969C255.658 40.6185 255.804 40.286 255.997 39.9991C256.195 39.7081 256.441 39.4815 256.737 39.3194C257.033 39.1572 257.378 39.0762 257.773 39.0762C258.213 39.0762 258.587 39.1801 258.895 39.388C259.203 39.5958 259.452 39.8744 259.641 40.2236C259.83 40.5728 259.968 40.9657 260.054 41.4022C260.14 41.8387 260.184 42.2877 260.184 42.7492V43.167C260.184 43.6368 260.161 44.1149 260.116 44.6013C260.075 45.0835 259.986 45.545 259.851 45.9857C259.719 46.4264 259.522 46.8213 259.259 47.1705C258.996 47.5156 258.644 47.79 258.205 47.9937C257.769 48.1932 257.222 48.293 256.565 48.293H256.484L256.478 47.3139Z" fill="#656565"/>
<path d="M266.528 43.0173V44.4017C266.528 45.1459 266.47 45.7737 266.355 46.285C266.244 46.7964 266.084 47.2079 265.874 47.5197C265.665 47.8315 265.412 48.0581 265.116 48.1995C264.824 48.3367 264.495 48.4053 264.13 48.4053C263.842 48.4053 263.573 48.3616 263.322 48.2743C263.075 48.187 262.853 48.0477 262.656 47.8565C262.459 47.6611 262.29 47.4075 262.15 47.0957C262.011 46.7839 261.904 46.4056 261.83 45.9607C261.756 45.5159 261.719 44.9962 261.719 44.4017V43.0173C261.719 42.2732 261.776 41.6496 261.891 41.1465C262.007 40.6435 262.169 40.2402 262.379 39.9367C262.592 39.6291 262.845 39.4088 263.137 39.2757C263.433 39.1427 263.762 39.0762 264.123 39.0762C264.415 39.0762 264.684 39.1198 264.931 39.2071C265.182 39.2903 265.404 39.4254 265.597 39.6125C265.794 39.7954 265.963 40.0407 266.102 40.3483C266.242 40.6518 266.347 41.0239 266.417 41.4646C266.491 41.9052 266.528 42.4228 266.528 43.0173ZM265.443 44.5888V42.824C265.443 42.4166 265.424 42.0591 265.387 41.7514C265.35 41.4396 265.297 41.1736 265.227 40.9532C265.157 40.7329 265.067 40.5541 264.956 40.4169C264.849 40.2797 264.725 40.1799 264.586 40.1176C264.446 40.0511 264.292 40.0178 264.123 40.0178C263.914 40.0178 263.727 40.0698 263.562 40.1737C263.402 40.2735 263.264 40.4335 263.149 40.6539C263.038 40.8742 262.954 41.1632 262.896 41.5207C262.839 41.8782 262.81 42.3127 262.81 42.824V44.5888C262.81 44.9962 262.829 45.3558 262.866 45.6676C262.907 45.9794 262.962 46.2497 263.032 46.4783C263.106 46.7028 263.196 46.8878 263.303 47.0333C263.41 47.1788 263.534 47.2869 263.673 47.3576C263.813 47.4241 263.965 47.4574 264.13 47.4574C264.347 47.4574 264.536 47.4033 264.697 47.2952C264.861 47.1872 264.999 47.0188 265.11 46.7901C265.221 46.5573 265.303 46.2601 265.356 45.8984C265.414 45.5325 265.443 45.096 265.443 44.5888Z" fill="#656565"/>
<path d="M272.767 43.0173V44.4017C272.767 45.1459 272.71 45.7737 272.595 46.285C272.484 46.7964 272.323 47.2079 272.114 47.5197C271.904 47.8315 271.651 48.0581 271.355 48.1995C271.064 48.3367 270.735 48.4053 270.369 48.4053C270.081 48.4053 269.812 48.3616 269.561 48.2743C269.315 48.187 269.093 48.0477 268.895 47.8565C268.698 47.6611 268.53 47.4075 268.39 47.0957C268.25 46.7839 268.143 46.4056 268.069 45.9607C267.995 45.5159 267.958 44.9962 267.958 44.4017V43.0173C267.958 42.2732 268.016 41.6496 268.131 41.1465C268.246 40.6435 268.408 40.2402 268.618 39.9367C268.832 39.6291 269.084 39.4088 269.376 39.2757C269.672 39.1427 270.001 39.0762 270.363 39.0762C270.655 39.0762 270.924 39.1198 271.17 39.2071C271.421 39.2903 271.643 39.4254 271.836 39.6125C272.034 39.7954 272.202 40.0407 272.342 40.3483C272.482 40.6518 272.586 41.0239 272.656 41.4646C272.73 41.9052 272.767 42.4228 272.767 43.0173ZM271.682 44.5888V42.824C271.682 42.4166 271.664 42.0591 271.627 41.7514C271.59 41.4396 271.536 41.1736 271.466 40.9532C271.396 40.7329 271.306 40.5541 271.195 40.4169C271.088 40.2797 270.965 40.1799 270.825 40.1176C270.685 40.0511 270.531 40.0178 270.363 40.0178C270.153 40.0178 269.966 40.0698 269.802 40.1737C269.641 40.2735 269.504 40.4335 269.389 40.6539C269.278 40.8742 269.193 41.1632 269.136 41.5207C269.078 41.8782 269.049 42.3127 269.049 42.824V44.5888C269.049 44.9962 269.068 45.3558 269.105 45.6676C269.146 45.9794 269.202 46.2497 269.271 46.4783C269.345 46.7028 269.436 46.8878 269.543 47.0333C269.65 47.1788 269.773 47.2869 269.913 47.3576C270.052 47.4241 270.204 47.4574 270.369 47.4574C270.587 47.4574 270.776 47.4033 270.936 47.2952C271.101 47.1872 271.238 47.0188 271.349 46.7901C271.46 46.5573 271.542 46.2601 271.596 45.8984C271.653 45.5325 271.682 45.096 271.682 44.5888Z" fill="#656565"/>
<path d="M277.459 39.151V48.2805H276.368V40.5915L274.481 41.4396V40.3982L277.293 39.151H277.459Z" fill="#656565"/>
<path d="M280.579 47.6694C280.579 47.474 280.638 47.3098 280.758 47.1768C280.881 47.0396 281.058 46.971 281.288 46.971C281.518 46.971 281.693 47.0396 281.812 47.1768C281.935 47.3098 281.997 47.474 281.997 47.6694C281.997 47.8606 281.935 48.0228 281.812 48.1558C281.693 48.2888 281.518 48.3554 281.288 48.3554C281.058 48.3554 280.881 48.2888 280.758 48.1558C280.638 48.0228 280.579 47.8606 280.579 47.6694ZM280.573 42.163C280.573 41.9676 280.632 41.8034 280.751 41.6704C280.875 41.5332 281.051 41.4646 281.282 41.4646C281.512 41.4646 281.687 41.5332 281.806 41.6704C281.929 41.8034 281.991 41.9676 281.991 42.163C281.991 42.3542 281.929 42.5164 281.806 42.6494C281.687 42.7824 281.512 42.849 281.282 42.849C281.051 42.849 280.875 42.7824 280.751 42.6494C280.632 42.5164 280.573 42.3542 280.573 42.163Z" fill="#656565"/>
<path d="M288.415 47.3327V48.2805H283.396V47.4511L285.869 44.1398C286.173 43.7324 286.405 43.3873 286.565 43.1046C286.726 42.8178 286.837 42.5621 286.898 42.3376C286.96 42.109 286.991 41.8761 286.991 41.6392C286.991 41.3398 286.944 41.0696 286.849 40.8285C286.754 40.5832 286.617 40.3878 286.436 40.2423C286.255 40.0968 286.037 40.024 285.782 40.024C285.449 40.024 285.176 40.103 284.962 40.261C284.753 40.4148 284.599 40.631 284.5 40.9096C284.401 41.1881 284.352 41.5082 284.352 41.8699H283.261C283.261 41.3586 283.353 40.8909 283.538 40.4668C283.727 40.0428 284.009 39.706 284.383 39.4566C284.757 39.203 285.223 39.0762 285.782 39.0762C286.263 39.0762 286.674 39.178 287.015 39.3817C287.361 39.5813 287.624 39.864 287.805 40.2298C287.99 40.5915 288.082 41.0156 288.082 41.502C288.082 41.7681 288.045 42.0383 287.971 42.3127C287.901 42.5829 287.803 42.8531 287.675 43.1233C287.552 43.3936 287.406 43.6596 287.237 43.9216C287.069 44.1835 286.888 44.4412 286.695 44.6948L284.703 47.3327H288.415Z" fill="#656565"/>
<path d="M294.432 43.0173V44.4017C294.432 45.1459 294.375 45.7737 294.26 46.285C294.149 46.7964 293.989 47.2079 293.779 47.5197C293.569 47.8315 293.317 48.0581 293.021 48.1995C292.729 48.3367 292.4 48.4053 292.034 48.4053C291.746 48.4053 291.477 48.3616 291.226 48.2743C290.98 48.187 290.758 48.0477 290.561 47.8565C290.363 47.6611 290.195 47.4075 290.055 47.0957C289.915 46.7839 289.808 46.4056 289.734 45.9607C289.66 45.5159 289.623 44.9962 289.623 44.4017V43.0173C289.623 42.2732 289.681 41.6496 289.796 41.1465C289.911 40.6435 290.074 40.2402 290.283 39.9367C290.497 39.6291 290.75 39.4088 291.041 39.2757C291.337 39.1427 291.666 39.0762 292.028 39.0762C292.32 39.0762 292.589 39.1198 292.836 39.2071C293.086 39.2903 293.308 39.4254 293.501 39.6125C293.699 39.7954 293.867 40.0407 294.007 40.3483C294.147 40.6518 294.252 41.0239 294.321 41.4646C294.395 41.9052 294.432 42.4228 294.432 43.0173ZM293.347 44.5888V42.824C293.347 42.4166 293.329 42.0591 293.292 41.7514C293.255 41.4396 293.201 41.1736 293.132 40.9532C293.062 40.7329 292.971 40.5541 292.86 40.4169C292.753 40.2797 292.63 40.1799 292.49 40.1176C292.351 40.0511 292.196 40.0178 292.028 40.0178C291.818 40.0178 291.631 40.0698 291.467 40.1737C291.307 40.2735 291.169 40.4335 291.054 40.6539C290.943 40.8742 290.859 41.1632 290.801 41.5207C290.743 41.8782 290.715 42.3127 290.715 42.824V44.5888C290.715 44.9962 290.733 45.3558 290.77 45.6676C290.811 45.9794 290.867 46.2497 290.937 46.4783C291.011 46.7028 291.101 46.8878 291.208 47.0333C291.315 47.1788 291.438 47.2869 291.578 47.3576C291.718 47.4241 291.87 47.4574 292.034 47.4574C292.252 47.4574 292.441 47.4033 292.601 47.2952C292.766 47.1872 292.903 47.0188 293.014 46.7901C293.125 46.5573 293.208 46.2601 293.261 45.8984C293.319 45.5325 293.347 45.096 293.347 44.5888Z" fill="#656565"/>
<path d="M299.124 39.151V48.2805H298.033V40.5915L296.146 41.4396V40.3982L298.958 39.151H299.124Z" fill="#656565"/>
<path d="M303.434 43.959L302.565 43.722L302.947 39.2009H306.856V40.2673H303.866L303.656 42.7367C303.796 42.6411 303.964 42.5517 304.161 42.4686C304.359 42.3854 304.589 42.3438 304.852 42.3438C305.205 42.3438 305.52 42.4166 305.795 42.5621C306.075 42.7035 306.311 42.9072 306.504 43.1732C306.698 43.4393 306.845 43.7594 306.948 44.1336C307.051 44.5077 307.102 44.9256 307.102 45.387C307.102 45.8235 307.051 46.2247 306.948 46.5906C306.85 46.9564 306.698 47.2765 306.492 47.5509C306.291 47.8211 306.036 48.0311 305.727 48.1808C305.423 48.3304 305.068 48.4053 304.661 48.4053C304.357 48.4053 304.069 48.3554 303.798 48.2556C303.526 48.1517 303.282 47.9958 303.064 47.7879C302.85 47.5759 302.676 47.3139 302.54 47.0021C302.404 46.6862 302.32 46.3162 302.287 45.8921H303.317C303.358 46.233 303.436 46.5199 303.551 46.7527C303.67 46.9855 303.822 47.1622 304.007 47.2828C304.196 47.3992 304.414 47.4574 304.661 47.4574C304.87 47.4574 305.06 47.4096 305.228 47.3139C305.397 47.2183 305.538 47.0811 305.654 46.9024C305.769 46.7236 305.857 46.5074 305.919 46.2538C305.98 46.0002 306.011 45.7155 306.011 45.3995C306.011 45.1126 305.98 44.8466 305.919 44.6013C305.857 44.356 305.764 44.1419 305.641 43.959C305.518 43.776 305.368 43.6347 305.191 43.5349C305.018 43.431 304.817 43.379 304.587 43.379C304.279 43.379 304.05 43.431 303.903 43.5349C303.759 43.6389 303.602 43.7802 303.434 43.959Z" fill="#656565"/>
</svg>
