<svg width="212" height="64" viewBox="0 0 212 64" fill="none" xmlns="http://www.w3.org/2000/svg">
<path d="M71.2148 38.8711H66.7734V36.5391H71.2148C71.9883 36.5391 72.6133 36.4141 73.0898 36.1641C73.5664 35.9141 73.9141 35.5703 74.1328 35.1328C74.3594 34.6875 74.4727 34.1797 74.4727 33.6094C74.4727 33.0703 74.3594 32.5664 74.1328 32.0977C73.9141 31.6211 73.5664 31.2383 73.0898 30.9492C72.6133 30.6602 71.9883 30.5156 71.2148 30.5156H67.6758V45.2344H64.7344V28.1719H71.2148C72.5352 28.1719 73.6562 28.4062 74.5781 28.875C75.5078 29.3359 76.2148 29.9766 76.6992 30.7969C77.1836 31.6094 77.4258 32.5391 77.4258 33.5859C77.4258 34.6875 77.1836 35.6328 76.6992 36.4219C76.2148 37.2109 75.5078 37.8164 74.5781 38.2383C73.6562 38.6602 72.5352 38.8711 71.2148 38.8711ZM82.8047 32.5547V45.2344H79.9688V32.5547H82.8047ZM79.7812 29.2266C79.7812 28.7969 79.9219 28.4414 80.2031 28.1602C80.4922 27.8711 80.8906 27.7266 81.3984 27.7266C81.8984 27.7266 82.293 27.8711 82.582 28.1602C82.8711 28.4414 83.0156 28.7969 83.0156 29.2266C83.0156 29.6484 82.8711 30 82.582 30.2812C82.293 30.5625 81.8984 30.7031 81.3984 30.7031C80.8906 30.7031 80.4922 30.5625 80.2031 30.2812C79.9219 30 79.7812 29.6484 79.7812 29.2266ZM88.0547 32.5547L90.4688 36.7617L92.9297 32.5547H96.0352L92.1914 38.7773L96.1875 45.2344H93.082L90.5039 40.8516L87.9258 45.2344H84.8086L88.793 38.7773L84.9609 32.5547H88.0547ZM103.324 45.4688C102.387 45.4688 101.539 45.3164 100.781 45.0117C100.031 44.6992 99.3906 44.2656 98.8594 43.7109C98.3359 43.1562 97.9336 42.5039 97.6523 41.7539C97.3711 41.0039 97.2305 40.1953 97.2305 39.3281V38.8594C97.2305 37.8672 97.375 36.9688 97.6641 36.1641C97.9531 35.3594 98.3555 34.6719 98.8711 34.1016C99.3867 33.5234 99.9961 33.082 100.699 32.7773C101.402 32.4727 102.164 32.3203 102.984 32.3203C103.891 32.3203 104.684 32.4727 105.363 32.7773C106.043 33.082 106.605 33.5117 107.051 34.0664C107.504 34.6133 107.84 35.2656 108.059 36.0234C108.285 36.7812 108.398 37.6172 108.398 38.5312V39.7383H98.6016V37.7109H105.609V37.4883C105.594 36.9805 105.492 36.5039 105.305 36.0586C105.125 35.6133 104.848 35.2539 104.473 34.9805C104.098 34.707 103.598 34.5703 102.973 34.5703C102.504 34.5703 102.086 34.6719 101.719 34.875C101.359 35.0703 101.059 35.3555 100.816 35.7305C100.574 36.1055 100.387 36.5586 100.254 37.0898C100.129 37.6133 100.066 38.2031 100.066 38.8594V39.3281C100.066 39.8828 100.141 40.3984 100.289 40.875C100.445 41.3438 100.672 41.7539 100.969 42.1055C101.266 42.457 101.625 42.7344 102.047 42.9375C102.469 43.1328 102.949 43.2305 103.488 43.2305C104.168 43.2305 104.773 43.0938 105.305 42.8203C105.836 42.5469 106.297 42.1602 106.688 41.6602L108.176 43.1016C107.902 43.5 107.547 43.8828 107.109 44.25C106.672 44.6094 106.137 44.9023 105.504 45.1289C104.879 45.3555 104.152 45.4688 103.324 45.4688ZM113.625 27.2344V45.2344H110.789V27.2344H113.625ZM127.078 39.6797H130.008C129.914 40.7969 129.602 41.793 129.07 42.668C128.539 43.5352 127.793 44.2188 126.832 44.7188C125.871 45.2188 124.703 45.4688 123.328 45.4688C122.273 45.4688 121.324 45.2812 120.48 44.9062C119.637 44.5234 118.914 43.9844 118.312 43.2891C117.711 42.5859 117.25 41.7383 116.93 40.7461C116.617 39.7539 116.461 38.6445 116.461 37.418V36C116.461 34.7734 116.621 33.6641 116.941 32.6719C117.27 31.6797 117.738 30.832 118.348 30.1289C118.957 29.418 119.688 28.875 120.539 28.5C121.398 28.125 122.363 27.9375 123.434 27.9375C124.793 27.9375 125.941 28.1875 126.879 28.6875C127.816 29.1875 128.543 29.8789 129.059 30.7617C129.582 31.6445 129.902 32.6562 130.02 33.7969H127.09C127.012 33.0625 126.84 32.4336 126.574 31.9102C126.316 31.3867 125.934 30.9883 125.426 30.7148C124.918 30.4336 124.254 30.293 123.434 30.293C122.762 30.293 122.176 30.418 121.676 30.668C121.176 30.918 120.758 31.2852 120.422 31.7695C120.086 32.2539 119.832 32.8516 119.66 33.5625C119.496 34.2656 119.414 35.0703 119.414 35.9766V37.418C119.414 38.2773 119.488 39.0586 119.637 39.7617C119.793 40.457 120.027 41.0547 120.34 41.5547C120.66 42.0547 121.066 42.4414 121.559 42.7148C122.051 42.9883 122.641 43.125 123.328 43.125C124.164 43.125 124.84 42.9922 125.355 42.7266C125.879 42.4609 126.273 42.0742 126.539 41.5664C126.812 41.0508 126.992 40.4219 127.078 39.6797ZM135.234 34.9688V45.2344H132.41V32.5547H135.105L135.234 34.9688ZM139.113 32.4727L139.09 35.0977C138.918 35.0664 138.73 35.043 138.527 35.0273C138.332 35.0117 138.137 35.0039 137.941 35.0039C137.457 35.0039 137.031 35.0742 136.664 35.2148C136.297 35.3477 135.988 35.543 135.738 35.8008C135.496 36.0508 135.309 36.3555 135.176 36.7148C135.043 37.0742 134.965 37.4766 134.941 37.9219L134.297 37.9688C134.297 37.1719 134.375 36.4336 134.531 35.7539C134.688 35.0742 134.922 34.4766 135.234 33.9609C135.555 33.4453 135.953 33.043 136.43 32.7539C136.914 32.4648 137.473 32.3203 138.105 32.3203C138.277 32.3203 138.461 32.3359 138.656 32.3672C138.859 32.3984 139.012 32.4336 139.113 32.4727ZM147.609 42.6914V36.6445C147.609 36.1914 147.527 35.8008 147.363 35.4727C147.199 35.1445 146.949 34.8906 146.613 34.7109C146.285 34.5312 145.871 34.4414 145.371 34.4414C144.91 34.4414 144.512 34.5195 144.176 34.6758C143.84 34.832 143.578 35.043 143.391 35.3086C143.203 35.5742 143.109 35.875 143.109 36.2109H140.297C140.297 35.7109 140.418 35.2266 140.66 34.7578C140.902 34.2891 141.254 33.8711 141.715 33.5039C142.176 33.1367 142.727 32.8477 143.367 32.6367C144.008 32.4258 144.727 32.3203 145.523 32.3203C146.477 32.3203 147.32 32.4805 148.055 32.8008C148.797 33.1211 149.379 33.6055 149.801 34.2539C150.23 34.8945 150.445 35.6992 150.445 36.668V42.3047C150.445 42.8828 150.484 43.4023 150.562 43.8633C150.648 44.3164 150.77 44.7109 150.926 45.0469V45.2344H148.031C147.898 44.9297 147.793 44.543 147.715 44.0742C147.645 43.5977 147.609 43.1367 147.609 42.6914ZM148.02 37.5234L148.043 39.2695H146.016C145.492 39.2695 145.031 39.3203 144.633 39.4219C144.234 39.5156 143.902 39.6562 143.637 39.8438C143.371 40.0312 143.172 40.2578 143.039 40.5234C142.906 40.7891 142.84 41.0898 142.84 41.4258C142.84 41.7617 142.918 42.0703 143.074 42.3516C143.23 42.625 143.457 42.8398 143.754 42.9961C144.059 43.1523 144.426 43.2305 144.855 43.2305C145.434 43.2305 145.938 43.1133 146.367 42.8789C146.805 42.6367 147.148 42.3438 147.398 42C147.648 41.6484 147.781 41.3164 147.797 41.0039L148.711 42.2578C148.617 42.5781 148.457 42.9219 148.23 43.2891C148.004 43.6562 147.707 44.0078 147.34 44.3438C146.98 44.6719 146.547 44.9414 146.039 45.1523C145.539 45.3633 144.961 45.4688 144.305 45.4688C143.477 45.4688 142.738 45.3047 142.09 44.9766C141.441 44.6406 140.934 44.1914 140.566 43.6289C140.199 43.0586 140.016 42.4141 140.016 41.6953C140.016 41.0234 140.141 40.4297 140.391 39.9141C140.648 39.3906 141.023 38.9531 141.516 38.6016C142.016 38.25 142.625 37.9844 143.344 37.8047C144.062 37.6172 144.883 37.5234 145.805 37.5234H148.02ZM156.891 43.8516L160.336 32.5547H163.359L158.273 47.168C158.156 47.4805 158.004 47.8203 157.816 48.1875C157.629 48.5547 157.383 48.9023 157.078 49.2305C156.781 49.5664 156.41 49.8359 155.965 50.0391C155.52 50.25 154.98 50.3555 154.348 50.3555C154.098 50.3555 153.855 50.332 153.621 50.2852C153.395 50.2461 153.18 50.2031 152.977 50.1562L152.965 48C153.043 48.0078 153.137 48.0156 153.246 48.0234C153.363 48.0312 153.457 48.0352 153.527 48.0352C153.996 48.0352 154.387 47.9766 154.699 47.8594C155.012 47.75 155.266 47.5703 155.461 47.3203C155.664 47.0703 155.836 46.7344 155.977 46.3125L156.891 43.8516ZM154.945 32.5547L157.957 42.0469L158.461 45.0234L156.504 45.5273L151.898 32.5547H154.945ZM164.25 39.0352V38.7656C164.25 37.8516 164.383 37.0039 164.648 36.2227C164.914 35.4336 165.297 34.75 165.797 34.1719C166.305 33.5859 166.922 33.1328 167.648 32.8125C168.383 32.4844 169.211 32.3203 170.133 32.3203C171.062 32.3203 171.891 32.4844 172.617 32.8125C173.352 33.1328 173.973 33.5859 174.48 34.1719C174.988 34.75 175.375 35.4336 175.641 36.2227C175.906 37.0039 176.039 37.8516 176.039 38.7656V39.0352C176.039 39.9492 175.906 40.7969 175.641 41.5781C175.375 42.3594 174.988 43.043 174.48 43.6289C173.973 44.207 173.355 44.6602 172.629 44.9883C171.902 45.3086 171.078 45.4688 170.156 45.4688C169.227 45.4688 168.395 45.3086 167.66 44.9883C166.934 44.6602 166.316 44.207 165.809 43.6289C165.301 43.043 164.914 42.3594 164.648 41.5781C164.383 40.7969 164.25 39.9492 164.25 39.0352ZM167.074 38.7656V39.0352C167.074 39.6055 167.133 40.1445 167.25 40.6523C167.367 41.1602 167.551 41.6055 167.801 41.9883C168.051 42.3711 168.371 42.6719 168.762 42.8906C169.152 43.1094 169.617 43.2188 170.156 43.2188C170.68 43.2188 171.133 43.1094 171.516 42.8906C171.906 42.6719 172.227 42.3711 172.477 41.9883C172.727 41.6055 172.91 41.1602 173.027 40.6523C173.152 40.1445 173.215 39.6055 173.215 39.0352V38.7656C173.215 38.2031 173.152 37.6719 173.027 37.1719C172.91 36.6641 172.723 36.2148 172.465 35.8242C172.215 35.4336 171.895 35.1289 171.504 34.9102C171.121 34.6836 170.664 34.5703 170.133 34.5703C169.602 34.5703 169.141 34.6836 168.75 34.9102C168.367 35.1289 168.051 35.4336 167.801 35.8242C167.551 36.2148 167.367 36.6641 167.25 37.1719C167.133 37.6719 167.074 38.2031 167.074 38.7656ZM181.207 35.2617V45.2344H178.383V32.5547H181.043L181.207 35.2617ZM180.703 38.4258L179.789 38.4141C179.797 37.5156 179.922 36.6914 180.164 35.9414C180.414 35.1914 180.758 34.5469 181.195 34.0078C181.641 33.4688 182.172 33.0547 182.789 32.7656C183.406 32.4688 184.094 32.3203 184.852 32.3203C185.461 32.3203 186.012 32.4062 186.504 32.5781C187.004 32.7422 187.43 33.0117 187.781 33.3867C188.141 33.7617 188.414 34.25 188.602 34.8516C188.789 35.4453 188.883 36.1758 188.883 37.043V45.2344H186.047V37.0312C186.047 36.4219 185.957 35.9414 185.777 35.5898C185.605 35.2305 185.352 34.9766 185.016 34.8281C184.688 34.6719 184.277 34.5938 183.785 34.5938C183.301 34.5938 182.867 34.6953 182.484 34.8984C182.102 35.1016 181.777 35.3789 181.512 35.7305C181.254 36.082 181.055 36.4883 180.914 36.9492C180.773 37.4102 180.703 37.9023 180.703 38.4258ZM198.879 41.8008C198.879 41.5195 198.809 41.2656 198.668 41.0391C198.527 40.8047 198.258 40.5938 197.859 40.4062C197.469 40.2188 196.891 40.0469 196.125 39.8906C195.453 39.7422 194.836 39.5664 194.273 39.3633C193.719 39.1523 193.242 38.8984 192.844 38.6016C192.445 38.3047 192.137 37.9531 191.918 37.5469C191.699 37.1406 191.59 36.6719 191.59 36.1406C191.59 35.625 191.703 35.1367 191.93 34.6758C192.156 34.2148 192.48 33.8086 192.902 33.457C193.324 33.1055 193.836 32.8281 194.438 32.625C195.047 32.4219 195.727 32.3203 196.477 32.3203C197.539 32.3203 198.449 32.5 199.207 32.8594C199.973 33.2109 200.559 33.6914 200.965 34.3008C201.371 34.9023 201.574 35.582 201.574 36.3398H198.75C198.75 36.0039 198.664 35.6914 198.492 35.4023C198.328 35.1055 198.078 34.8672 197.742 34.6875C197.406 34.5 196.984 34.4062 196.477 34.4062C195.992 34.4062 195.59 34.4844 195.27 34.6406C194.957 34.7891 194.723 34.9844 194.566 35.2266C194.418 35.4688 194.344 35.7344 194.344 36.0234C194.344 36.2344 194.383 36.4258 194.461 36.5977C194.547 36.7617 194.688 36.9141 194.883 37.0547C195.078 37.1875 195.344 37.3125 195.68 37.4297C196.023 37.5469 196.453 37.6602 196.969 37.7695C197.938 37.9727 198.77 38.2344 199.465 38.5547C200.168 38.8672 200.707 39.2734 201.082 39.7734C201.457 40.2656 201.645 40.8906 201.645 41.6484C201.645 42.2109 201.523 42.7266 201.281 43.1953C201.047 43.6562 200.703 44.0586 200.25 44.4023C199.797 44.7383 199.254 45 198.621 45.1875C197.996 45.375 197.293 45.4688 196.512 45.4688C195.363 45.4688 194.391 45.2656 193.594 44.8594C192.797 44.4453 192.191 43.918 191.777 43.2773C191.371 42.6289 191.168 41.957 191.168 41.2617H193.898C193.93 41.7852 194.074 42.2031 194.332 42.5156C194.598 42.8203 194.926 43.043 195.316 43.1836C195.715 43.3164 196.125 43.3828 196.547 43.3828C197.055 43.3828 197.48 43.3164 197.824 43.1836C198.168 43.043 198.43 42.8555 198.609 42.6211C198.789 42.3789 198.879 42.1055 198.879 41.8008Z" fill="white"/>
<path d="M205.188 29.9395V34.2051H204.459V29.9395H205.188ZM206.527 29.9395V30.5254H203.132V29.9395H206.527ZM207.389 29.9395H208.045L209.278 33.2295L210.509 29.9395H211.165L209.536 34.2051H209.015L207.389 29.9395ZM207.09 29.9395H207.714L207.822 32.7871V34.2051H207.09V29.9395ZM210.84 29.9395H211.467V34.2051H210.731V32.7871L210.84 29.9395Z" fill="white"/>
<path opacity="0.6" d="M40.3353 18.1672C40.3353 18.1672 28.1303 30.8625 18.2648 21.5317C18.2648 21.5317 8.15271 10.0651 11.7774 7.44514C11.7774 7.44514 13.7111 5.5479 25.3284 10.8529L40.3353 18.1672Z" fill="#00BFF3"/>
<path opacity="0.6" d="M44.4091 19.519C44.4091 19.519 30.172 30.7435 20.9282 19.136C20.9282 19.136 11.673 5.23376 15.7679 3.1161C15.7679 3.1161 18.0087 1.45737 29.5539 9.1258L44.4091 19.519Z" fill="#E20965"/>
<path opacity="0.66" d="M46.8917 20.4843C46.8917 20.4843 31.7406 30.3283 23.5207 17.8427C23.5207 17.8427 15.4864 3.0623 19.7481 1.34213C19.7481 1.34213 22.1254 -0.099763 32.9767 8.67451L46.8917 20.4843Z" fill="#2E3192"/>
<path opacity="0.6" d="M44.4156 20.1111C44.4156 20.1111 29.386 25.7667 24.8741 14.1881C24.8741 14.1881 20.9877 0.752135 25.0029 0.018536C25.0029 0.018536 27.3386 -0.783722 34.8723 8.16761L44.4156 20.1111Z" fill="#32004B"/>
<path d="M61.2318 9.375H80.6748L60.519 11.3915L61.2318 9.375Z" fill="#0071BC"/>
<path d="M62.7659 9.37435H61.1811C61.1811 9.37435 56.5555 5.64492 52.0586 6.02075C52.0586 6.02075 43.467 6.23397 35.5351 18.2028C30.1512 26.3302 26.1131 37.0308 26.8753 46.7483C27.0876 49.4839 27.6183 52.476 28.6042 55.0636C30.1549 59.1399 34.3825 63.3355 39.2395 63.4006C39.2395 63.4006 48.2292 63.5234 52.5895 51.6811C52.4719 52.0063 50.9477 52.3388 50.6786 52.4328C49.0785 52.9748 47.4557 53.4807 45.8102 53.8855C42.4585 54.7094 37.7531 55.0491 34.7389 53.047C33.8138 52.4328 32.7104 51.5257 32.3312 50.5319C31.8043 49.1406 31.4744 47.1602 32.0317 45.6677C32.756 43.7308 35.4024 43.8211 37.0972 43.5464C39.2129 43.2032 41.2945 42.5092 43.1144 41.4106C47.2547 38.9099 50.6975 35.1045 52.4681 30.7318C54.1403 26.6013 53.2113 22.496 53.7345 18.2318C53.9924 16.1393 55.0691 14.2168 57.219 13.3278C60.2521 12.0702 62.2352 10.4585 62.7659 9.37435Z" fill="#29ABE2"/>
<path opacity="0.6" d="M39.6299 21.1914C39.6299 21.1914 40.2896 42.4839 22.841 43.2429C22.841 43.2429 3.20831 42.4225 4.069 37.0705C4.069 37.0705 4.069 33.7926 19.4058 28.1227L39.6299 21.1914Z" fill="#FF0000"/>
<path opacity="0.6" d="M39.6318 21.1914C39.6318 21.1914 37.1446 42.3611 19.7565 40.771C19.7565 40.771 0.442404 37.3271 2.08414 32.1412C2.08414 32.1412 2.56567 28.8996 18.5849 25.3401L39.6318 21.1914Z" fill="#EF3A03"/>
<path opacity="0.7" d="M39.6302 21.1914C39.6302 21.1914 34.0453 41.819 17.063 37.9126C17.063 37.9126 -1.55344 31.9135 0.839022 26.9987C0.839022 26.9987 1.79448 23.8512 18.1815 22.4779L39.6302 21.1914Z" fill="#FFE600"/>
<path opacity="0.6" d="M39.631 21.1915C39.631 21.1915 31.0546 40.8648 14.8192 34.7216C14.8192 34.7216 -2.72806 26.287 0.365831 21.7409C0.365831 21.7409 1.77629 18.7559 18.2013 19.5907L39.631 21.1915Z" fill="#00A810"/>
<path opacity="0.7" d="M32.0266 48.4179C32.9555 50.5174 34.2143 52.74 35.7348 54.5179C38.1272 57.3223 42.7567 59.5231 46.7681 58.3124C46.7681 58.3124 54.1957 56.0682 54.5332 45.6172C54.5218 45.9027 53.3654 46.564 53.1645 46.7086C51.9966 47.5505 50.8024 48.3746 49.5587 49.1225C47.0298 50.644 43.2495 52.1364 40.2239 51.3451C40.2239 51.3451 36.1291 51.009 31.5679 47.276L32.0266 48.4179Z" fill="#6D68C5"/>
<path d="M31.8852 48.4585C32.5601 50.6447 33.5459 52.9865 34.8464 54.9199C36.8939 57.9627 41.2351 60.6441 45.3641 59.8708C45.3641 59.8708 53.0079 58.4397 54.5776 48.0862C54.5359 48.3681 53.3036 48.9029 53.0913 49.0221C51.8325 49.7341 50.5472 50.4244 49.2239 51.0314C46.532 52.271 42.6001 53.3515 39.6844 52.2385C39.6844 52.2385 35.654 51.4651 31.563 47.2695L31.8852 48.4585Z" fill="#43B6E6"/>
<path d="M31.3771 48.6386C31.1686 50.2323 31.1761 52.0356 31.6045 53.6834C32.2832 56.2781 33.9477 58.4861 37.6483 60.3798C37.6483 60.3798 44.7877 64.6621 51.3357 56.0577C51.1955 56.2203 49.9252 56.1408 49.694 56.1444C48.3367 56.1661 46.9603 56.1625 45.584 56.1011C42.7782 55.971 38.9488 55.3204 36.8103 53.6437C36.8103 53.6437 33.5724 51.8007 31.5325 47.793L31.3771 48.6386Z" fill="#FBED20"/>
<path opacity="0.8" d="M31.674 48.3411C31.9545 50.3178 32.5119 52.4752 33.456 54.3183C34.9385 57.2165 38.7415 60.104 42.9538 59.9739C42.9538 59.9739 50.7455 59.7318 54.1199 50.9792C54.0289 51.2177 52.7208 51.5176 52.4895 51.5935C51.1208 52.0452 49.7331 52.4716 48.3226 52.8295C45.4486 53.5522 41.3803 53.975 38.7035 52.6307C38.7035 52.6307 34.8626 51.4346 31.5679 47.2715L31.674 48.3411Z" fill="#009239"/>
</svg>
