<svg width="308" height="64" viewBox="0 0 308 64" fill="none" xmlns="http://www.w3.org/2000/svg">
<path d="M71.2148 38.7715H66.7734V36.4395H71.2148C71.9883 36.4395 72.6133 36.3145 73.0898 36.0645C73.5664 35.8145 73.9141 35.4707 74.1328 35.0332C74.3594 34.5879 74.4727 34.0801 74.4727 33.5098C74.4727 32.9707 74.3594 32.4668 74.1328 31.998C73.9141 31.5215 73.5664 31.1387 73.0898 30.8496C72.6133 30.5605 71.9883 30.416 71.2148 30.416H67.6758V45.1348H64.7344V28.0723H71.2148C72.5352 28.0723 73.6562 28.3066 74.5781 28.7754C75.5078 29.2363 76.2148 29.877 76.6992 30.6973C77.1836 31.5098 77.4258 32.4395 77.4258 33.4863C77.4258 34.5879 77.1836 35.5332 76.6992 36.3223C76.2148 37.1113 75.5078 37.7168 74.5781 38.1387C73.6562 38.5605 72.5352 38.7715 71.2148 38.7715ZM82.8047 32.4551V45.1348H79.9688V32.4551H82.8047ZM79.7812 29.127C79.7812 28.6973 79.9219 28.3418 80.2031 28.0605C80.4922 27.7715 80.8906 27.627 81.3984 27.627C81.8984 27.627 82.293 27.7715 82.582 28.0605C82.8711 28.3418 83.0156 28.6973 83.0156 29.127C83.0156 29.5488 82.8711 29.9004 82.582 30.1816C82.293 30.4629 81.8984 30.6035 81.3984 30.6035C80.8906 30.6035 80.4922 30.4629 80.2031 30.1816C79.9219 29.9004 79.7812 29.5488 79.7812 29.127ZM88.0547 32.4551L90.4688 36.6621L92.9297 32.4551H96.0352L92.1914 38.6777L96.1875 45.1348H93.082L90.5039 40.752L87.9258 45.1348H84.8086L88.793 38.6777L84.9609 32.4551H88.0547ZM103.324 45.3691C102.387 45.3691 101.539 45.2168 100.781 44.9121C100.031 44.5996 99.3906 44.166 98.8594 43.6113C98.3359 43.0566 97.9336 42.4043 97.6523 41.6543C97.3711 40.9043 97.2305 40.0957 97.2305 39.2285V38.7598C97.2305 37.7676 97.375 36.8691 97.6641 36.0645C97.9531 35.2598 98.3555 34.5723 98.8711 34.002C99.3867 33.4238 99.9961 32.9824 100.699 32.6777C101.402 32.373 102.164 32.2207 102.984 32.2207C103.891 32.2207 104.684 32.373 105.363 32.6777C106.043 32.9824 106.605 33.4121 107.051 33.9668C107.504 34.5137 107.84 35.166 108.059 35.9238C108.285 36.6816 108.398 37.5176 108.398 38.4316V39.6387H98.6016V37.6113H105.609V37.3887C105.594 36.8809 105.492 36.4043 105.305 35.959C105.125 35.5137 104.848 35.1543 104.473 34.8809C104.098 34.6074 103.598 34.4707 102.973 34.4707C102.504 34.4707 102.086 34.5723 101.719 34.7754C101.359 34.9707 101.059 35.2559 100.816 35.6309C100.574 36.0059 100.387 36.459 100.254 36.9902C100.129 37.5137 100.066 38.1035 100.066 38.7598V39.2285C100.066 39.7832 100.141 40.2988 100.289 40.7754C100.445 41.2441 100.672 41.6543 100.969 42.0059C101.266 42.3574 101.625 42.6348 102.047 42.8379C102.469 43.0332 102.949 43.1309 103.488 43.1309C104.168 43.1309 104.773 42.9941 105.305 42.7207C105.836 42.4473 106.297 42.0605 106.688 41.5605L108.176 43.002C107.902 43.4004 107.547 43.7832 107.109 44.1504C106.672 44.5098 106.137 44.8027 105.504 45.0293C104.879 45.2559 104.152 45.3691 103.324 45.3691ZM113.625 27.1348V45.1348H110.789V27.1348H113.625ZM127.078 39.5801H130.008C129.914 40.6973 129.602 41.6934 129.07 42.5684C128.539 43.4355 127.793 44.1191 126.832 44.6191C125.871 45.1191 124.703 45.3691 123.328 45.3691C122.273 45.3691 121.324 45.1816 120.48 44.8066C119.637 44.4238 118.914 43.8848 118.312 43.1895C117.711 42.4863 117.25 41.6387 116.93 40.6465C116.617 39.6543 116.461 38.5449 116.461 37.3184V35.9004C116.461 34.6738 116.621 33.5645 116.941 32.5723C117.27 31.5801 117.738 30.7324 118.348 30.0293C118.957 29.3184 119.688 28.7754 120.539 28.4004C121.398 28.0254 122.363 27.8379 123.434 27.8379C124.793 27.8379 125.941 28.0879 126.879 28.5879C127.816 29.0879 128.543 29.7793 129.059 30.6621C129.582 31.5449 129.902 32.5566 130.02 33.6973H127.09C127.012 32.9629 126.84 32.334 126.574 31.8105C126.316 31.2871 125.934 30.8887 125.426 30.6152C124.918 30.334 124.254 30.1934 123.434 30.1934C122.762 30.1934 122.176 30.3184 121.676 30.5684C121.176 30.8184 120.758 31.1855 120.422 31.6699C120.086 32.1543 119.832 32.752 119.66 33.4629C119.496 34.166 119.414 34.9707 119.414 35.877V37.3184C119.414 38.1777 119.488 38.959 119.637 39.6621C119.793 40.3574 120.027 40.9551 120.34 41.4551C120.66 41.9551 121.066 42.3418 121.559 42.6152C122.051 42.8887 122.641 43.0254 123.328 43.0254C124.164 43.0254 124.84 42.8926 125.355 42.627C125.879 42.3613 126.273 41.9746 126.539 41.4668C126.812 40.9512 126.992 40.3223 127.078 39.5801ZM135.234 34.8691V45.1348H132.41V32.4551H135.105L135.234 34.8691ZM139.113 32.373L139.09 34.998C138.918 34.9668 138.73 34.9434 138.527 34.9277C138.332 34.9121 138.137 34.9043 137.941 34.9043C137.457 34.9043 137.031 34.9746 136.664 35.1152C136.297 35.248 135.988 35.4434 135.738 35.7012C135.496 35.9512 135.309 36.2559 135.176 36.6152C135.043 36.9746 134.965 37.377 134.941 37.8223L134.297 37.8691C134.297 37.0723 134.375 36.334 134.531 35.6543C134.688 34.9746 134.922 34.377 135.234 33.8613C135.555 33.3457 135.953 32.9434 136.43 32.6543C136.914 32.3652 137.473 32.2207 138.105 32.2207C138.277 32.2207 138.461 32.2363 138.656 32.2676C138.859 32.2988 139.012 32.334 139.113 32.373ZM147.609 42.5918V36.5449C147.609 36.0918 147.527 35.7012 147.363 35.373C147.199 35.0449 146.949 34.791 146.613 34.6113C146.285 34.4316 145.871 34.3418 145.371 34.3418C144.91 34.3418 144.512 34.4199 144.176 34.5762C143.84 34.7324 143.578 34.9434 143.391 35.209C143.203 35.4746 143.109 35.7754 143.109 36.1113H140.297C140.297 35.6113 140.418 35.127 140.66 34.6582C140.902 34.1895 141.254 33.7715 141.715 33.4043C142.176 33.0371 142.727 32.748 143.367 32.5371C144.008 32.3262 144.727 32.2207 145.523 32.2207C146.477 32.2207 147.32 32.3809 148.055 32.7012C148.797 33.0215 149.379 33.5059 149.801 34.1543C150.23 34.7949 150.445 35.5996 150.445 36.5684V42.2051C150.445 42.7832 150.484 43.3027 150.562 43.7637C150.648 44.2168 150.77 44.6113 150.926 44.9473V45.1348H148.031C147.898 44.8301 147.793 44.4434 147.715 43.9746C147.645 43.498 147.609 43.0371 147.609 42.5918ZM148.02 37.4238L148.043 39.1699H146.016C145.492 39.1699 145.031 39.2207 144.633 39.3223C144.234 39.416 143.902 39.5566 143.637 39.7441C143.371 39.9316 143.172 40.1582 143.039 40.4238C142.906 40.6895 142.84 40.9902 142.84 41.3262C142.84 41.6621 142.918 41.9707 143.074 42.252C143.23 42.5254 143.457 42.7402 143.754 42.8965C144.059 43.0527 144.426 43.1309 144.855 43.1309C145.434 43.1309 145.938 43.0137 146.367 42.7793C146.805 42.5371 147.148 42.2441 147.398 41.9004C147.648 41.5488 147.781 41.2168 147.797 40.9043L148.711 42.1582C148.617 42.4785 148.457 42.8223 148.23 43.1895C148.004 43.5566 147.707 43.9082 147.34 44.2441C146.98 44.5723 146.547 44.8418 146.039 45.0527C145.539 45.2637 144.961 45.3691 144.305 45.3691C143.477 45.3691 142.738 45.2051 142.09 44.877C141.441 44.541 140.934 44.0918 140.566 43.5293C140.199 42.959 140.016 42.3145 140.016 41.5957C140.016 40.9238 140.141 40.3301 140.391 39.8145C140.648 39.291 141.023 38.8535 141.516 38.502C142.016 38.1504 142.625 37.8848 143.344 37.7051C144.062 37.5176 144.883 37.4238 145.805 37.4238H148.02ZM156.891 43.752L160.336 32.4551H163.359L158.273 47.0684C158.156 47.3809 158.004 47.7207 157.816 48.0879C157.629 48.4551 157.383 48.8027 157.078 49.1309C156.781 49.4668 156.41 49.7363 155.965 49.9395C155.52 50.1504 154.98 50.2559 154.348 50.2559C154.098 50.2559 153.855 50.2324 153.621 50.1855C153.395 50.1465 153.18 50.1035 152.977 50.0566L152.965 47.9004C153.043 47.9082 153.137 47.916 153.246 47.9238C153.363 47.9316 153.457 47.9355 153.527 47.9355C153.996 47.9355 154.387 47.877 154.699 47.7598C155.012 47.6504 155.266 47.4707 155.461 47.2207C155.664 46.9707 155.836 46.6348 155.977 46.2129L156.891 43.752ZM154.945 32.4551L157.957 41.9473L158.461 44.9238L156.504 45.4277L151.898 32.4551H154.945ZM164.25 38.9355V38.666C164.25 37.752 164.383 36.9043 164.648 36.123C164.914 35.334 165.297 34.6504 165.797 34.0723C166.305 33.4863 166.922 33.0332 167.648 32.7129C168.383 32.3848 169.211 32.2207 170.133 32.2207C171.062 32.2207 171.891 32.3848 172.617 32.7129C173.352 33.0332 173.973 33.4863 174.48 34.0723C174.988 34.6504 175.375 35.334 175.641 36.123C175.906 36.9043 176.039 37.752 176.039 38.666V38.9355C176.039 39.8496 175.906 40.6973 175.641 41.4785C175.375 42.2598 174.988 42.9434 174.48 43.5293C173.973 44.1074 173.355 44.5605 172.629 44.8887C171.902 45.209 171.078 45.3691 170.156 45.3691C169.227 45.3691 168.395 45.209 167.66 44.8887C166.934 44.5605 166.316 44.1074 165.809 43.5293C165.301 42.9434 164.914 42.2598 164.648 41.4785C164.383 40.6973 164.25 39.8496 164.25 38.9355ZM167.074 38.666V38.9355C167.074 39.5059 167.133 40.0449 167.25 40.5527C167.367 41.0605 167.551 41.5059 167.801 41.8887C168.051 42.2715 168.371 42.5723 168.762 42.791C169.152 43.0098 169.617 43.1191 170.156 43.1191C170.68 43.1191 171.133 43.0098 171.516 42.791C171.906 42.5723 172.227 42.2715 172.477 41.8887C172.727 41.5059 172.91 41.0605 173.027 40.5527C173.152 40.0449 173.215 39.5059 173.215 38.9355V38.666C173.215 38.1035 173.152 37.5723 173.027 37.0723C172.91 36.5645 172.723 36.1152 172.465 35.7246C172.215 35.334 171.895 35.0293 171.504 34.8105C171.121 34.584 170.664 34.4707 170.133 34.4707C169.602 34.4707 169.141 34.584 168.75 34.8105C168.367 35.0293 168.051 35.334 167.801 35.7246C167.551 36.1152 167.367 36.5645 167.25 37.0723C167.133 37.5723 167.074 38.1035 167.074 38.666ZM181.207 35.1621V45.1348H178.383V32.4551H181.043L181.207 35.1621ZM180.703 38.3262L179.789 38.3145C179.797 37.416 179.922 36.5918 180.164 35.8418C180.414 35.0918 180.758 34.4473 181.195 33.9082C181.641 33.3691 182.172 32.9551 182.789 32.666C183.406 32.3691 184.094 32.2207 184.852 32.2207C185.461 32.2207 186.012 32.3066 186.504 32.4785C187.004 32.6426 187.43 32.9121 187.781 33.2871C188.141 33.6621 188.414 34.1504 188.602 34.752C188.789 35.3457 188.883 36.0762 188.883 36.9434V45.1348H186.047V36.9316C186.047 36.3223 185.957 35.8418 185.777 35.4902C185.605 35.1309 185.352 34.877 185.016 34.7285C184.688 34.5723 184.277 34.4941 183.785 34.4941C183.301 34.4941 182.867 34.5957 182.484 34.7988C182.102 35.002 181.777 35.2793 181.512 35.6309C181.254 35.9824 181.055 36.3887 180.914 36.8496C180.773 37.3105 180.703 37.8027 180.703 38.3262ZM198.879 41.7012C198.879 41.4199 198.809 41.166 198.668 40.9395C198.527 40.7051 198.258 40.4941 197.859 40.3066C197.469 40.1191 196.891 39.9473 196.125 39.791C195.453 39.6426 194.836 39.4668 194.273 39.2637C193.719 39.0527 193.242 38.7988 192.844 38.502C192.445 38.2051 192.137 37.8535 191.918 37.4473C191.699 37.041 191.59 36.5723 191.59 36.041C191.59 35.5254 191.703 35.0371 191.93 34.5762C192.156 34.1152 192.48 33.709 192.902 33.3574C193.324 33.0059 193.836 32.7285 194.438 32.5254C195.047 32.3223 195.727 32.2207 196.477 32.2207C197.539 32.2207 198.449 32.4004 199.207 32.7598C199.973 33.1113 200.559 33.5918 200.965 34.2012C201.371 34.8027 201.574 35.4824 201.574 36.2402H198.75C198.75 35.9043 198.664 35.5918 198.492 35.3027C198.328 35.0059 198.078 34.7676 197.742 34.5879C197.406 34.4004 196.984 34.3066 196.477 34.3066C195.992 34.3066 195.59 34.3848 195.27 34.541C194.957 34.6895 194.723 34.8848 194.566 35.127C194.418 35.3691 194.344 35.6348 194.344 35.9238C194.344 36.1348 194.383 36.3262 194.461 36.498C194.547 36.6621 194.688 36.8145 194.883 36.9551C195.078 37.0879 195.344 37.2129 195.68 37.3301C196.023 37.4473 196.453 37.5605 196.969 37.6699C197.938 37.873 198.77 38.1348 199.465 38.4551C200.168 38.7676 200.707 39.1738 201.082 39.6738C201.457 40.166 201.645 40.791 201.645 41.5488C201.645 42.1113 201.523 42.627 201.281 43.0957C201.047 43.5566 200.703 43.959 200.25 44.3027C199.797 44.6387 199.254 44.9004 198.621 45.0879C197.996 45.2754 197.293 45.3691 196.512 45.3691C195.363 45.3691 194.391 45.166 193.594 44.7598C192.797 44.3457 192.191 43.8184 191.777 43.1777C191.371 42.5293 191.168 41.8574 191.168 41.1621H193.898C193.93 41.6855 194.074 42.1035 194.332 42.416C194.598 42.7207 194.926 42.9434 195.316 43.084C195.715 43.2168 196.125 43.2832 196.547 43.2832C197.055 43.2832 197.48 43.2168 197.824 43.084C198.168 42.9434 198.43 42.7559 198.609 42.5215C198.789 42.2793 198.879 42.0059 198.879 41.7012Z" fill="white"/>
<path d="M205.188 29.8398V34.1055H204.459V29.8398H205.188ZM206.527 29.8398V30.4258H203.132V29.8398H206.527ZM207.389 29.8398H208.045L209.278 33.1299L210.509 29.8398H211.165L209.536 34.1055H209.015L207.389 29.8398ZM207.09 29.8398H207.714L207.822 32.6875V34.1055H207.09V29.8398ZM210.84 29.8398H211.467V34.1055H210.731V32.6875L210.84 29.8398Z" fill="white"/>
<path opacity="0.6" d="M40.3353 18.2573C40.3353 18.2573 28.1303 31.0156 18.2648 21.6385C18.2648 21.6385 8.15271 10.1149 11.7774 7.48194C11.7774 7.48194 13.7111 5.57527 25.3284 10.9067L40.3353 18.2573Z" fill="#00BFF3"/>
<path opacity="0.6" d="M44.4091 19.615C44.4091 19.615 30.172 30.8952 20.9282 19.23C20.9282 19.23 11.673 5.25871 15.7679 3.13052C15.7679 3.13052 18.0087 1.46355 29.5539 9.17009L44.4091 19.615Z" fill="#E20965"/>
<path opacity="0.66" d="M46.8917 20.5857C46.8917 20.5857 31.7406 30.4786 23.5207 17.931C23.5207 17.931 15.4864 3.07715 19.7481 1.34843C19.7481 1.34843 22.1254 -0.10063 32.9767 8.71724L46.8917 20.5857Z" fill="#2E3192"/>
<path opacity="0.6" d="M44.4158 20.2111C44.4158 20.2111 29.3861 25.8947 24.8742 14.2586C24.8742 14.2586 20.9878 0.755872 25.003 0.0186281C25.003 0.0186281 27.3387 -0.787616 34.8725 8.20819L44.4158 20.2111Z" fill="#32004B"/>
<path d="M61.2318 9.42188H80.6748L60.519 11.4484L61.2318 9.42188Z" fill="#0071BC"/>
<path d="M62.7659 9.397H61.1811C61.1811 9.397 56.5555 5.64905 52.0586 6.02674C52.0586 6.02674 43.467 6.24102 35.5351 18.2693C30.1512 26.4371 26.1131 37.1909 26.8753 46.9566C27.0876 49.7058 27.6183 52.7128 28.6042 55.3133C30.1549 59.4099 34.3825 63.6262 39.2395 63.6917C39.2395 63.6917 48.2292 63.8151 52.5895 51.9139C52.4719 52.2408 50.9477 52.5749 50.6786 52.6694C49.0785 53.2141 47.4557 53.7225 45.8102 54.1293C42.4585 54.9573 37.7531 55.2987 34.7389 53.2867C33.8138 52.6694 32.7104 51.7578 32.3312 50.759C31.8043 49.3608 31.4744 47.3706 32.0317 45.8707C32.756 43.9241 35.4024 44.0149 37.0972 43.7389C39.2129 43.3939 41.2945 42.6965 43.1144 41.5925C47.2547 39.0793 50.6975 35.2549 52.4681 30.8606C54.1403 26.7095 53.2113 22.5839 53.7345 18.2984C53.9924 16.1956 55.0691 14.2635 57.219 13.3701C60.2521 12.1063 62.2352 10.4865 62.7659 9.397Z" fill="#29ABE2"/>
<path opacity="0.6" d="M39.6299 21.2969C39.6299 21.2969 40.2896 42.6952 22.841 43.4579C22.841 43.4579 3.20831 42.6335 4.069 37.2549C4.069 37.2549 4.069 33.9607 19.4058 28.2626L39.6299 21.2969Z" fill="#FF0000"/>
<path opacity="0.6" d="M39.6318 21.2969C39.6318 21.2969 37.1446 42.5718 19.7565 40.9737C19.7565 40.9737 0.442404 37.5127 2.08414 32.3011C2.08414 32.3011 2.56567 29.0434 18.5849 25.4661L39.6318 21.2969Z" fill="#EF3A03"/>
<path opacity="0.7" d="M39.6302 21.2969C39.6302 21.2969 34.0453 42.027 17.063 38.1011C17.063 38.1011 -1.55344 32.0722 0.839022 27.133C0.839022 27.133 1.79448 23.9699 18.1815 22.5898L39.6302 21.2969Z" fill="#FFE600"/>
<path opacity="0.6" d="M39.631 21.2979C39.631 21.2979 31.0546 41.0689 14.8192 34.8951C14.8192 34.8951 -2.72806 26.4187 0.365831 21.85C0.365831 21.85 1.77629 18.8502 18.2013 19.6891L39.631 21.2979Z" fill="#00A810"/>
<path opacity="0.7" d="M32.0266 48.6584C32.9555 50.7683 34.2143 53.0019 35.7348 54.7887C38.1272 57.607 42.7567 59.8187 46.7681 58.602C46.7681 58.602 54.1957 56.3467 54.5332 45.8438C54.5218 46.1307 53.3654 46.7953 53.1645 46.9406C51.9966 47.7867 50.8024 48.6148 49.5587 49.3665C47.0298 50.8955 43.2495 52.3954 40.2239 51.6001C40.2239 51.6001 36.1291 51.2623 31.5679 47.5108L32.0266 48.6584Z" fill="#6D68C5"/>
<path d="M31.8852 48.6988C32.5601 50.8959 33.5459 53.2493 34.8464 55.1923C36.8939 58.2502 41.2351 60.9449 45.3641 60.1678C45.3641 60.1678 53.0079 58.7296 54.5776 48.3247C54.5359 48.608 53.3036 49.1454 53.0913 49.2652C51.8325 49.9807 50.5472 50.6744 49.2239 51.2845C46.532 52.5302 42.6001 53.6161 39.6844 52.4976C39.6844 52.4976 35.654 51.7203 31.563 47.5039L31.8852 48.6988Z" fill="#43B6E6"/>
<path d="M31.3771 48.8792C31.1686 50.4807 31.1761 52.293 31.6045 53.949C32.2832 56.5566 33.9477 58.7756 37.6483 60.6786C37.6483 60.6786 44.7877 64.9822 51.3357 56.3351C51.1955 56.4985 49.9252 56.4186 49.694 56.4222C48.3367 56.444 46.9603 56.4404 45.584 56.3787C42.7782 56.2479 38.9488 55.5942 36.8103 53.9091C36.8103 53.9091 33.5724 52.0569 31.5325 48.0293L31.3771 48.8792Z" fill="#FBED20"/>
<path opacity="0.8" d="M31.674 48.5828C31.9545 50.5693 32.5119 52.7374 33.456 54.5897C34.9385 57.5023 38.7415 60.4041 42.9538 60.2733C42.9538 60.2733 50.7455 60.03 54.1199 51.2339C54.0289 51.4736 52.7208 51.775 52.4895 51.8513C51.1208 52.3053 49.7331 52.7338 48.3226 53.0934C45.4486 53.8197 41.3803 54.2447 38.7035 52.8937C38.7035 52.8937 34.8626 51.6916 31.5679 47.5078L31.674 48.5828Z" fill="#009239"/>
<rect x="223" y="16" width="0.771603" height="37.8086" fill="#E6E6E6"/>
<path d="M240.038 26.946H241.172C241.143 27.5696 241.018 28.108 240.796 28.5611C240.578 29.0101 240.26 29.3552 239.84 29.5963C239.425 29.8374 238.905 29.958 238.28 29.958C237.832 29.958 237.428 29.8686 237.066 29.6898C236.704 29.5111 236.394 29.2554 236.135 28.9228C235.88 28.5861 235.685 28.1828 235.549 27.713C235.414 27.2432 235.346 26.7153 235.346 26.1291V24.4516C235.346 23.8696 235.414 23.3437 235.549 22.8739C235.689 22.4041 235.888 22.0029 236.147 21.6703C236.41 21.3336 236.729 21.0758 237.103 20.8971C237.481 20.7183 237.908 20.6289 238.385 20.6289C238.969 20.6289 239.462 20.7474 239.865 20.9844C240.272 21.2172 240.584 21.5602 240.802 22.0133C241.024 22.4623 241.147 23.0131 241.172 23.6658H240.038C240.009 23.1878 239.935 22.799 239.816 22.4997C239.696 22.1962 239.52 21.9738 239.285 21.8325C239.055 21.687 238.755 21.6142 238.385 21.6142C238.056 21.6142 237.771 21.6807 237.528 21.8137C237.29 21.9468 237.093 22.138 236.936 22.3875C236.784 22.6327 236.669 22.93 236.591 23.2792C236.517 23.6243 236.48 24.0109 236.48 24.4391V26.1291C236.48 26.5282 236.511 26.9003 236.573 27.2453C236.638 27.5904 236.741 27.8939 236.881 28.1558C237.025 28.4135 237.212 28.6152 237.442 28.7607C237.672 28.9062 237.952 28.9789 238.28 28.9789C238.696 28.9789 239.024 28.9103 239.267 28.7731C239.509 28.636 239.688 28.4177 239.803 28.1184C239.922 27.819 240.001 27.4282 240.038 26.946Z" fill="#E6E6E6"/>
<path d="M243.065 20.7536H244.162L246.511 28.1558L248.854 20.7536H249.952L246.937 29.8333H246.074L243.065 20.7536ZM242.707 20.7536H243.669L243.835 26.2912V29.8333H242.707V20.7536ZM249.341 20.7536H250.303V29.8333H249.175V26.2912L249.341 20.7536Z" fill="#E6E6E6"/>
<path d="M252.609 20.7536H253.706L256.055 28.1558L258.398 20.7536H259.496L256.481 29.8333H255.618L252.609 20.7536ZM252.251 20.7536H253.213L253.38 26.2912V29.8333H252.251V20.7536ZM258.885 20.7536H259.847V29.8333H258.719V26.2912L258.885 20.7536Z" fill="#E6E6E6"/>
<path d="M262.979 20.7536V29.8333H261.845V20.7536H262.979Z" fill="#E6E6E6"/>
<path d="M272.505 28.8542V29.8333H268.781V28.8542H272.505ZM268.984 20.7536V29.8333H267.85V20.7536H268.984Z" fill="#E6E6E6"/>
<path d="M278.682 28.8542V29.8333H274.786V28.8542H278.682ZM274.989 20.7536V29.8333H273.855V20.7536H274.989ZM278.158 24.6574V25.6364H274.786V24.6574H278.158ZM278.621 20.7536V21.7389H274.786V20.7536H278.621Z" fill="#E6E6E6"/>
<path d="M282.597 28.4551L284.755 20.7536H285.988L283.202 29.8333H282.332L282.597 28.4551ZM280.661 20.7536L282.801 28.4551L283.084 29.8333H282.215L279.428 20.7536H280.661Z" fill="#E6E6E6"/>
<path d="M292.037 28.8542V29.8333H288.14V28.8542H292.037ZM288.344 20.7536V29.8333H287.209V20.7536H288.344ZM291.513 24.6574V25.6364H288.14V24.6574H291.513ZM291.975 20.7536V21.7389H288.14V20.7536H291.975Z" fill="#E6E6E6"/>
<path d="M298.14 28.8542V29.8333H294.416V28.8542H298.14ZM294.62 20.7536V29.8333H293.485V20.7536H294.62Z" fill="#E6E6E6"/>
<path d="M303.541 24.726H304.244C304.556 24.726 304.815 24.6595 305.021 24.5264C305.226 24.3892 305.379 24.2042 305.477 23.9714C305.58 23.7344 305.631 23.4684 305.631 23.1732C305.631 22.824 305.586 22.5309 305.496 22.2939C305.405 22.057 305.27 21.8782 305.089 21.7576C304.912 21.6371 304.688 21.5768 304.417 21.5768C304.162 21.5768 303.94 21.6412 303.751 21.7701C303.562 21.8948 303.416 22.0736 303.313 22.3064C303.21 22.5392 303.159 22.8136 303.159 23.1295H302.074C302.074 22.6681 302.168 22.2482 302.357 21.8699C302.551 21.4916 302.822 21.1901 303.171 20.9657C303.525 20.7412 303.94 20.6289 304.417 20.6289C304.873 20.6289 305.274 20.7266 305.619 20.922C305.964 21.1132 306.233 21.4001 306.427 21.7826C306.624 22.1609 306.723 22.6327 306.723 23.1981C306.723 23.4268 306.679 23.6721 306.593 23.934C306.511 24.1918 306.377 24.4329 306.192 24.6574C306.012 24.8819 305.773 25.0669 305.477 25.2124C305.185 25.3537 304.828 25.4244 304.404 25.4244H303.541V24.726ZM303.541 25.6738V24.9816H304.404C304.906 24.9816 305.315 25.0502 305.631 25.1874C305.948 25.3246 306.192 25.5075 306.365 25.7362C306.538 25.9649 306.657 26.2164 306.723 26.4908C306.792 26.761 306.827 27.0312 306.827 27.3014C306.827 27.7255 306.766 28.1017 306.642 28.4302C306.523 28.7586 306.353 29.0371 306.131 29.2658C305.913 29.4944 305.658 29.667 305.366 29.7834C305.074 29.8998 304.756 29.958 304.411 29.958C304.074 29.958 303.761 29.9019 303.473 29.7896C303.186 29.6774 302.933 29.5152 302.715 29.3032C302.497 29.087 302.327 28.823 302.203 28.5112C302.084 28.1953 302.025 27.8357 302.025 27.4324H303.116C303.116 27.7484 303.167 28.0248 303.27 28.2618C303.373 28.4988 303.521 28.6838 303.714 28.8168C303.907 28.9457 304.139 29.0101 304.411 29.0101C304.682 29.0101 304.916 28.9498 305.113 28.8293C305.311 28.7045 305.463 28.5175 305.57 28.268C305.681 28.0186 305.736 27.7047 305.736 27.3264C305.736 26.9481 305.674 26.6383 305.551 26.3972C305.432 26.1519 305.261 25.9711 305.039 25.8547C304.817 25.7341 304.552 25.6738 304.244 25.6738H303.541Z" fill="#E6E6E6"/>
<path d="M236.727 39.2009V48.2805H235.593V39.2009H236.727Z" fill="#E6E6E6"/>
<path d="M242.628 45.9857C242.628 45.7737 242.603 45.5866 242.554 45.4244C242.504 45.2581 242.418 45.1085 242.295 44.9754C242.171 44.8424 241.999 44.7156 241.777 44.595C241.555 44.4745 241.273 44.3518 240.932 44.2271C240.562 44.0941 240.227 43.9465 239.927 43.7844C239.627 43.6181 239.37 43.4289 239.156 43.2169C238.947 43.0049 238.784 42.7617 238.669 42.4873C238.554 42.2129 238.497 41.899 238.497 41.5456C238.497 41.1923 238.556 40.8659 238.675 40.5666C238.799 40.2673 238.971 40.0074 239.193 39.7871C239.419 39.5626 239.691 39.388 240.007 39.2633C240.324 39.1385 240.677 39.0762 241.068 39.0762C241.651 39.0762 242.142 39.2071 242.541 39.469C242.944 39.7268 243.248 40.0656 243.454 40.4855C243.659 40.9012 243.762 41.3461 243.762 41.82H242.628C242.628 41.4791 242.572 41.1777 242.461 40.9158C242.354 40.6497 242.186 40.4419 241.955 40.2922C241.729 40.1384 241.433 40.0615 241.068 40.0615C240.739 40.0615 240.468 40.1259 240.254 40.2548C240.044 40.3837 239.888 40.5583 239.785 40.7786C239.687 40.9989 239.637 41.2505 239.637 41.5332C239.637 41.7244 239.67 41.899 239.736 42.057C239.802 42.2108 239.902 42.3542 240.038 42.4873C240.178 42.6203 240.35 42.7429 240.556 42.8552C240.766 42.9674 241.012 43.0755 241.296 43.1795C241.736 43.325 242.112 43.4871 242.424 43.6659C242.736 43.8446 242.991 44.0463 243.189 44.2708C243.386 44.4911 243.53 44.7426 243.62 45.0253C243.715 45.3039 243.762 45.6198 243.762 45.9732C243.762 46.3432 243.7 46.6779 243.577 46.9772C243.458 47.2765 243.283 47.5322 243.053 47.7442C242.823 47.9563 242.545 48.1205 242.221 48.2369C241.896 48.3491 241.53 48.4053 241.123 48.4053C240.77 48.4053 240.422 48.347 240.081 48.2306C239.744 48.1142 239.438 47.9396 239.163 47.7068C238.887 47.474 238.667 47.1872 238.503 46.8462C238.338 46.5012 238.256 46.1021 238.256 45.6489H239.391C239.391 45.9607 239.436 46.2289 239.526 46.4534C239.617 46.6737 239.742 46.8566 239.902 47.0021C240.063 47.1477 240.246 47.2557 240.451 47.3264C240.661 47.3929 240.885 47.4262 241.123 47.4262C241.452 47.4262 241.727 47.368 241.949 47.2516C242.175 47.1352 242.344 46.9689 242.455 46.7527C242.57 46.5365 242.628 46.2808 242.628 45.9857Z" fill="#E6E6E6"/>
<path d="M251.086 42.955V44.5327C251.086 45.1729 251.017 45.7362 250.877 46.2226C250.741 46.7049 250.542 47.1082 250.279 47.4324C250.016 47.7567 249.699 47.9999 249.329 48.162C248.959 48.3242 248.542 48.4053 248.078 48.4053C247.63 48.4053 247.221 48.3242 246.851 48.162C246.481 47.9999 246.162 47.7567 245.895 47.4324C245.628 47.1082 245.42 46.7049 245.272 46.2226C245.129 45.7362 245.057 45.1729 245.057 44.5327V42.955C245.057 42.3147 245.129 41.7535 245.272 41.2712C245.416 40.7848 245.622 40.3795 245.889 40.0552C246.156 39.731 246.475 39.4877 246.845 39.3256C247.215 39.1593 247.624 39.0762 248.072 39.0762C248.536 39.0762 248.953 39.1593 249.323 39.3256C249.697 39.4877 250.014 39.731 250.273 40.0552C250.536 40.3795 250.737 40.7848 250.877 41.2712C251.017 41.7535 251.086 42.3147 251.086 42.955ZM249.964 44.5327V42.9425C249.964 42.4436 249.923 42.0154 249.841 41.6579C249.759 41.2962 249.638 41.001 249.477 40.7724C249.317 40.5437 249.12 40.3753 248.885 40.2673C248.651 40.155 248.38 40.0989 248.072 40.0989C247.78 40.0989 247.517 40.155 247.282 40.2673C247.052 40.3753 246.855 40.5437 246.691 40.7724C246.526 41.001 246.399 41.2962 246.308 41.6579C246.222 42.0154 246.179 42.4436 246.179 42.9425V44.5327C246.179 45.0357 246.222 45.4681 246.308 45.8298C246.399 46.1873 246.526 46.4825 246.691 46.7153C246.859 46.9439 247.06 47.1144 247.295 47.2266C247.529 47.3347 247.79 47.3888 248.078 47.3888C248.386 47.3888 248.657 47.3347 248.892 47.2266C249.13 47.1144 249.327 46.9439 249.483 46.7153C249.644 46.4825 249.763 46.1873 249.841 45.8298C249.923 45.4681 249.964 45.0357 249.964 44.5327Z" fill="#E6E6E6"/>
<path d="M256.481 47.3139H256.567C257.122 47.3139 257.568 47.2204 257.905 47.0333C258.242 46.8462 258.495 46.5947 258.664 46.2788C258.836 45.9628 258.951 45.6074 259.009 45.2124C259.071 44.8133 259.101 44.4038 259.101 43.9839V42.5933C259.101 42.1817 259.062 41.8159 258.984 41.4957C258.91 41.1756 258.81 40.9075 258.682 40.6913C258.559 40.4751 258.417 40.3109 258.257 40.1987C258.101 40.0864 257.94 40.0303 257.776 40.0303C257.566 40.0303 257.381 40.0843 257.221 40.1924C257.061 40.2964 256.925 40.4439 256.814 40.6352C256.707 40.8264 256.625 41.0509 256.567 41.3087C256.51 41.5664 256.481 41.847 256.481 42.1505C256.481 42.4208 256.506 42.6827 256.555 42.9363C256.604 43.1899 256.681 43.4185 256.783 43.6222C256.89 43.8259 257.022 43.9881 257.178 44.1086C257.338 44.225 257.527 44.2832 257.745 44.2832C257.926 44.2832 258.101 44.2334 258.269 44.1336C258.442 44.0296 258.598 43.8904 258.738 43.7158C258.877 43.537 258.993 43.3354 259.083 43.1109C259.173 42.8864 259.227 42.6515 259.243 42.4062H259.755C259.755 42.7513 259.7 43.0922 259.589 43.4289C259.482 43.7615 259.328 44.065 259.126 44.3394C258.929 44.6138 258.697 44.8341 258.429 45.0004C258.166 45.1625 257.877 45.2436 257.56 45.2436C257.178 45.2436 256.851 45.1563 256.58 44.9817C256.309 44.8071 256.087 44.5743 255.914 44.2832C255.745 43.9922 255.62 43.668 255.538 43.3104C255.456 42.9487 255.415 42.5829 255.415 42.2129C255.415 41.7805 255.464 41.3752 255.563 40.9969C255.661 40.6185 255.807 40.286 256 39.9991C256.198 39.7081 256.444 39.4815 256.74 39.3194C257.036 39.1572 257.381 39.0762 257.776 39.0762C258.216 39.0762 258.59 39.1801 258.898 39.388C259.206 39.5958 259.455 39.8744 259.644 40.2236C259.833 40.5728 259.971 40.9657 260.057 41.4022C260.143 41.8387 260.187 42.2877 260.187 42.7492V43.167C260.187 43.6368 260.164 44.1149 260.119 44.6013C260.078 45.0835 259.989 45.545 259.854 45.9857C259.722 46.4264 259.525 46.8213 259.262 47.1705C258.999 47.5156 258.647 47.79 258.207 47.9937C257.772 48.1932 257.225 48.293 256.567 48.293H256.487L256.481 47.3139Z" fill="#E6E6E6"/>
<path d="M266.531 43.0173V44.4017C266.531 45.1459 266.473 45.7737 266.358 46.285C266.247 46.7964 266.087 47.2079 265.877 47.5197C265.668 47.8315 265.415 48.0581 265.119 48.1995C264.827 48.3367 264.498 48.4053 264.132 48.4053C263.845 48.4053 263.575 48.3616 263.325 48.2743C263.078 48.187 262.856 48.0477 262.659 47.8565C262.462 47.6611 262.293 47.4075 262.153 47.0957C262.014 46.7839 261.907 46.4056 261.833 45.9607C261.759 45.5159 261.722 44.9962 261.722 44.4017V43.0173C261.722 42.2732 261.779 41.6496 261.894 41.1465C262.009 40.6435 262.172 40.2402 262.381 39.9367C262.595 39.6291 262.848 39.4088 263.14 39.2757C263.436 39.1427 263.765 39.0762 264.126 39.0762C264.418 39.0762 264.687 39.1198 264.934 39.2071C265.185 39.2903 265.407 39.4254 265.6 39.6125C265.797 39.7954 265.966 40.0407 266.105 40.3483C266.245 40.6518 266.35 41.0239 266.42 41.4646C266.494 41.9052 266.531 42.4228 266.531 43.0173ZM265.446 44.5888V42.824C265.446 42.4166 265.427 42.0591 265.39 41.7514C265.353 41.4396 265.3 41.1736 265.23 40.9532C265.16 40.7329 265.07 40.5541 264.959 40.4169C264.852 40.2797 264.728 40.1799 264.589 40.1176C264.449 40.0511 264.295 40.0178 264.126 40.0178C263.917 40.0178 263.73 40.0698 263.565 40.1737C263.405 40.2735 263.267 40.4335 263.152 40.6539C263.041 40.8742 262.957 41.1632 262.899 41.5207C262.842 41.8782 262.813 42.3127 262.813 42.824V44.5888C262.813 44.9962 262.832 45.3558 262.869 45.6676C262.91 45.9794 262.965 46.2497 263.035 46.4783C263.109 46.7028 263.199 46.8878 263.306 47.0333C263.413 47.1788 263.536 47.2869 263.676 47.3576C263.816 47.4241 263.968 47.4574 264.132 47.4574C264.35 47.4574 264.539 47.4033 264.7 47.2952C264.864 47.1872 265.002 47.0188 265.113 46.7901C265.224 46.5573 265.306 46.2601 265.359 45.8984C265.417 45.5325 265.446 45.096 265.446 44.5888Z" fill="#E6E6E6"/>
<path d="M272.77 43.0173V44.4017C272.77 45.1459 272.713 45.7737 272.598 46.285C272.487 46.7964 272.326 47.2079 272.117 47.5197C271.907 47.8315 271.654 48.0581 271.358 48.1995C271.066 48.3367 270.738 48.4053 270.372 48.4053C270.084 48.4053 269.815 48.3616 269.564 48.2743C269.318 48.187 269.096 48.0477 268.898 47.8565C268.701 47.6611 268.532 47.4075 268.393 47.0957C268.253 46.7839 268.146 46.4056 268.072 45.9607C267.998 45.5159 267.961 44.9962 267.961 44.4017V43.0173C267.961 42.2732 268.019 41.6496 268.134 41.1465C268.249 40.6435 268.411 40.2402 268.621 39.9367C268.835 39.6291 269.087 39.4088 269.379 39.2757C269.675 39.1427 270.004 39.0762 270.366 39.0762C270.657 39.0762 270.927 39.1198 271.173 39.2071C271.424 39.2903 271.646 39.4254 271.839 39.6125C272.036 39.7954 272.205 40.0407 272.345 40.3483C272.485 40.6518 272.589 41.0239 272.659 41.4646C272.733 41.9052 272.77 42.4228 272.77 43.0173ZM271.685 44.5888V42.824C271.685 42.4166 271.667 42.0591 271.63 41.7514C271.593 41.4396 271.539 41.1736 271.469 40.9532C271.399 40.7329 271.309 40.5541 271.198 40.4169C271.091 40.2797 270.968 40.1799 270.828 40.1176C270.688 40.0511 270.534 40.0178 270.366 40.0178C270.156 40.0178 269.969 40.0698 269.805 40.1737C269.644 40.2735 269.507 40.4335 269.392 40.6539C269.281 40.8742 269.196 41.1632 269.139 41.5207C269.081 41.8782 269.052 42.3127 269.052 42.824V44.5888C269.052 44.9962 269.071 45.3558 269.108 45.6676C269.149 45.9794 269.205 46.2497 269.274 46.4783C269.348 46.7028 269.439 46.8878 269.546 47.0333C269.653 47.1788 269.776 47.2869 269.916 47.3576C270.055 47.4241 270.207 47.4574 270.372 47.4574C270.59 47.4574 270.779 47.4033 270.939 47.2952C271.103 47.1872 271.241 47.0188 271.352 46.7901C271.463 46.5573 271.545 46.2601 271.599 45.8984C271.656 45.5325 271.685 45.096 271.685 44.5888Z" fill="#E6E6E6"/>
<path d="M277.462 39.151V48.2805H276.371V40.5915L274.484 41.4396V40.3982L277.296 39.151H277.462Z" fill="#E6E6E6"/>
<path d="M280.582 47.6694C280.582 47.474 280.641 47.3098 280.761 47.1768C280.884 47.0396 281.061 46.971 281.291 46.971C281.521 46.971 281.696 47.0396 281.815 47.1768C281.938 47.3098 282 47.474 282 47.6694C282 47.8606 281.938 48.0228 281.815 48.1558C281.696 48.2888 281.521 48.3554 281.291 48.3554C281.061 48.3554 280.884 48.2888 280.761 48.1558C280.641 48.0228 280.582 47.8606 280.582 47.6694ZM280.576 42.163C280.576 41.9676 280.635 41.8034 280.754 41.6704C280.878 41.5332 281.054 41.4646 281.285 41.4646C281.515 41.4646 281.689 41.5332 281.809 41.6704C281.932 41.8034 281.994 41.9676 281.994 42.163C281.994 42.3542 281.932 42.5164 281.809 42.6494C281.689 42.7824 281.515 42.849 281.285 42.849C281.054 42.849 280.878 42.7824 280.754 42.6494C280.635 42.5164 280.576 42.3542 280.576 42.163Z" fill="#E6E6E6"/>
<path d="M288.418 47.3327V48.2805H283.399V47.4511L285.872 44.1398C286.176 43.7324 286.408 43.3873 286.568 43.1046C286.729 42.8178 286.84 42.5621 286.901 42.3376C286.963 42.109 286.994 41.8761 286.994 41.6392C286.994 41.3398 286.946 41.0696 286.852 40.8285C286.757 40.5832 286.62 40.3878 286.439 40.2423C286.258 40.0968 286.04 40.024 285.785 40.024C285.452 40.024 285.179 40.103 284.965 40.261C284.756 40.4148 284.602 40.631 284.503 40.9096C284.404 41.1881 284.355 41.5082 284.355 41.8699H283.264C283.264 41.3586 283.356 40.8909 283.541 40.4668C283.73 40.0428 284.012 39.706 284.386 39.4566C284.76 39.203 285.226 39.0762 285.785 39.0762C286.266 39.0762 286.677 39.178 287.018 39.3817C287.364 39.5813 287.627 39.864 287.808 40.2298C287.993 40.5915 288.085 41.0156 288.085 41.502C288.085 41.7681 288.048 42.0383 287.974 42.3127C287.904 42.5829 287.806 42.8531 287.678 43.1233C287.555 43.3936 287.409 43.6596 287.24 43.9216C287.072 44.1835 286.891 44.4412 286.698 44.6948L284.706 47.3327H288.418Z" fill="#E6E6E6"/>
<path d="M294.435 43.0173V44.4017C294.435 45.1459 294.378 45.7737 294.263 46.285C294.152 46.7964 293.991 47.2079 293.782 47.5197C293.572 47.8315 293.319 48.0581 293.024 48.1995C292.732 48.3367 292.403 48.4053 292.037 48.4053C291.749 48.4053 291.48 48.3616 291.229 48.2743C290.983 48.187 290.761 48.0477 290.564 47.8565C290.366 47.6611 290.198 47.4075 290.058 47.0957C289.918 46.7839 289.811 46.4056 289.737 45.9607C289.663 45.5159 289.626 44.9962 289.626 44.4017V43.0173C289.626 42.2732 289.684 41.6496 289.799 41.1465C289.914 40.6435 290.076 40.2402 290.286 39.9367C290.5 39.6291 290.753 39.4088 291.044 39.2757C291.34 39.1427 291.669 39.0762 292.031 39.0762C292.323 39.0762 292.592 39.1198 292.839 39.2071C293.089 39.2903 293.311 39.4254 293.504 39.6125C293.702 39.7954 293.87 40.0407 294.01 40.3483C294.15 40.6518 294.255 41.0239 294.324 41.4646C294.398 41.9052 294.435 42.4228 294.435 43.0173ZM293.35 44.5888V42.824C293.35 42.4166 293.332 42.0591 293.295 41.7514C293.258 41.4396 293.204 41.1736 293.134 40.9532C293.065 40.7329 292.974 40.5541 292.863 40.4169C292.756 40.2797 292.633 40.1799 292.493 40.1176C292.354 40.0511 292.199 40.0178 292.031 40.0178C291.821 40.0178 291.634 40.0698 291.47 40.1737C291.31 40.2735 291.172 40.4335 291.057 40.6539C290.946 40.8742 290.862 41.1632 290.804 41.5207C290.746 41.8782 290.718 42.3127 290.718 42.824V44.5888C290.718 44.9962 290.736 45.3558 290.773 45.6676C290.814 45.9794 290.87 46.2497 290.94 46.4783C291.014 46.7028 291.104 46.8878 291.211 47.0333C291.318 47.1788 291.441 47.2869 291.581 47.3576C291.721 47.4241 291.873 47.4574 292.037 47.4574C292.255 47.4574 292.444 47.4033 292.604 47.2952C292.769 47.1872 292.906 47.0188 293.017 46.7901C293.128 46.5573 293.211 46.2601 293.264 45.8984C293.322 45.5325 293.35 45.096 293.35 44.5888Z" fill="#E6E6E6"/>
<path d="M299.127 39.151V48.2805H298.036V40.5915L296.149 41.4396V40.3982L298.961 39.151H299.127Z" fill="#E6E6E6"/>
<path d="M303.437 43.959L302.568 43.722L302.95 39.2009H306.859V40.2673H303.868L303.659 42.7367C303.799 42.6411 303.967 42.5517 304.164 42.4686C304.362 42.3854 304.592 42.3438 304.855 42.3438C305.208 42.3438 305.523 42.4166 305.798 42.5621C306.078 42.7035 306.314 42.9072 306.507 43.1732C306.7 43.4393 306.848 43.7594 306.951 44.1336C307.054 44.5077 307.105 44.9256 307.105 45.387C307.105 45.8235 307.054 46.2247 306.951 46.5906C306.853 46.9564 306.7 47.2765 306.495 47.5509C306.294 47.8211 306.039 48.0311 305.73 48.1808C305.426 48.3304 305.071 48.4053 304.664 48.4053C304.36 48.4053 304.072 48.3554 303.801 48.2556C303.529 48.1517 303.285 47.9958 303.067 47.7879C302.853 47.5759 302.679 47.3139 302.543 47.0021C302.407 46.6862 302.323 46.3162 302.29 45.8921H303.32C303.361 46.233 303.439 46.5199 303.554 46.7527C303.673 46.9855 303.825 47.1622 304.01 47.2828C304.199 47.3992 304.417 47.4574 304.664 47.4574C304.873 47.4574 305.062 47.4096 305.231 47.3139C305.4 47.2183 305.541 47.0811 305.656 46.9024C305.772 46.7236 305.86 46.5074 305.922 46.2538C305.983 46.0002 306.014 45.7155 306.014 45.3995C306.014 45.1126 305.983 44.8466 305.922 44.6013C305.86 44.356 305.767 44.1419 305.644 43.959C305.521 43.776 305.371 43.6347 305.194 43.5349C305.021 43.431 304.82 43.379 304.59 43.379C304.282 43.379 304.053 43.431 303.905 43.5349C303.762 43.6389 303.605 43.7802 303.437 43.959Z" fill="#E6E6E6"/>
</svg>
