<svg width="39" height="27" viewBox="0 0 39 27" fill="none" xmlns="http://www.w3.org/2000/svg">
<path d="M36.9992 0.500244H2C0.899952 0.500244 0 1.4002 0 2.50017V24.4998C0 25.5997 0.899952 26.4998 2 26.4998H36.9993C38.0992 26.4998 38.9993 25.5998 38.9993 24.4998V2.50017C38.9992 1.4002 38.0992 0.500244 36.9992 0.500244ZM36.2487 2.00011L20.6501 13.7C20.3696 13.9135 19.9391 14.047 19.4995 14.045C19.06 14.047 18.6296 13.9135 18.349 13.7L2.75043 2.00011H36.2487ZM27.9164 14.472L36.4163 24.9719C36.4248 24.9824 36.4352 24.9904 36.4443 24.9999H2.5549C2.56389 24.9899 2.5744 24.9824 2.58293 24.9719L11.0828 14.472C11.3432 14.15 11.2938 13.678 10.9713 13.417C10.6493 13.1565 10.1773 13.2059 9.91676 13.528L1.49995 23.9253V2.93762L17.4496 14.8999C18.0491 15.3464 18.7785 15.5429 19.4994 15.5449C20.2194 15.5433 20.9494 15.3468 21.5493 14.8999L37.4989 2.93762V23.9251L29.0824 13.528C28.8219 13.206 28.3494 13.1565 28.0279 13.417C27.7053 13.6774 27.6558 14.15 27.9164 14.472Z" fill="white"/>
</svg>
