<svg width="41" height="31" viewBox="0 0 41 31" fill="none" xmlns="http://www.w3.org/2000/svg">
<path fill-rule="evenodd" clip-rule="evenodd" d="M34.1644 8.31287C34.1644 8.30799 34.1659 8.30408 34.1659 8.29871V6.67679C34.1659 3.27138 31.1849 0.500488 27.5214 0.500488C23.8578 0.500488 20.8773 3.27089 20.8773 6.67679V24.3237C20.8773 27.0214 18.4755 29.2158 15.523 29.2158C12.5705 29.2158 10.1686 27.0214 10.1686 24.3237V18.4368C14.8438 18.1059 18.5461 14.2173 18.5461 9.48135C18.5461 4.52919 14.4981 0.5 9.5233 0.5C4.54801 0.5 0.5 4.5287 0.5 9.48135C0.5 14.2173 4.20279 18.1059 8.87749 18.4368V24.3237C8.87749 27.7291 11.8584 30.5 15.522 30.5C19.1856 30.5 22.166 27.7296 22.166 24.3237L22.1665 6.67679C22.1665 3.97911 24.5684 1.78465 27.5209 1.78465C30.4734 1.78465 32.8752 3.97911 32.8752 6.67679V8.29871C32.8752 8.30359 32.8767 8.3075 32.8767 8.31238C29.3289 8.63696 26.5401 11.6128 26.5401 15.2276V23.552C26.5401 27.3831 29.6716 30.4995 33.5201 30.4995C37.369 30.4995 40.5 27.3826 40.5 23.552V15.2276C40.501 11.6133 37.7122 8.63745 34.1644 8.31287ZM9.52428 16.1721C9.16779 16.1721 8.87896 15.8846 8.87896 15.5298V14.6302C7.65156 14.3813 6.57127 13.4149 6.57127 11.7871C6.57127 11.4323 6.8601 11.1448 7.21611 11.1448C7.57261 11.1448 7.86144 11.4323 7.86144 11.7871C7.86144 12.8492 8.61023 13.3558 9.39237 13.4066C9.4777 13.389 9.57038 13.389 9.6557 13.4066C10.4378 13.3558 11.1866 12.8492 11.1866 11.7871C11.1866 10.5971 10.5987 10.4048 9.37472 10.1149C8.19146 9.83473 6.57127 9.45061 6.57127 7.19319C6.57127 5.5654 7.65107 4.59898 8.87945 4.35006V3.43245C8.87945 3.07761 9.16828 2.79061 9.52428 2.79061C9.88078 2.79061 10.1696 3.07809 10.1696 3.43245V4.35006C11.3975 4.59898 12.4768 5.5654 12.4768 7.19319C12.4768 7.54803 12.188 7.83551 11.832 7.83551C11.4755 7.83551 11.1866 7.54803 11.1866 7.19319C11.1866 6.07107 10.352 5.56931 9.52428 5.56931C8.69654 5.56931 7.86144 6.07155 7.86144 7.19319C7.86144 8.38315 8.44939 8.57546 9.67336 8.86539C10.8566 9.14555 12.4768 9.52968 12.4768 11.7871C12.4768 13.4149 11.397 14.3808 10.1696 14.6302V15.5298C10.1696 15.8846 9.88029 16.1721 9.52428 16.1721ZM39.2108 23.5525C39.2108 26.6753 36.6584 29.2158 33.521 29.2158C30.3837 29.2158 27.8313 26.6753 27.8313 23.5525V15.2281C27.8313 12.323 30.0419 9.92405 32.8762 9.60386V13.8444C32.1206 14.1104 31.5767 14.8264 31.5767 15.6679V18.2377C31.5767 19.3052 32.4491 20.1735 33.5215 20.1735C34.594 20.1735 35.4663 19.3052 35.4663 18.2377V15.6679C35.4663 14.8259 34.9225 14.1099 34.1669 13.8444V9.60386C37.0012 9.92405 39.2118 12.323 39.2118 15.2281V23.5525H39.2108ZM33.5206 15.0163C33.8815 15.0163 34.1747 15.3087 34.1747 15.6674V18.2372C34.1747 18.596 33.881 18.8883 33.5206 18.8883C33.1601 18.8883 32.8664 18.5964 32.8664 18.2372V15.6674C32.8664 15.3087 33.1601 15.0163 33.5206 15.0163Z" fill="#666666"/>
</svg>
