<svg width="36" height="31" viewBox="0 0 36 31" fill="none" xmlns="http://www.w3.org/2000/svg">
<path fill-rule="evenodd" clip-rule="evenodd" d="M16.3536 17.1016L21.7206 12.3814C21.9465 12.183 22.2911 12.2047 22.4903 12.4308C22.6895 12.6568 22.6679 13.0015 22.4415 13.2006L16.6665 18.2791C16.4417 18.4774 16.0969 18.4565 15.8978 18.2319L13.5111 15.5381C13.3109 15.3129 13.3321 14.9684 13.5575 14.7685C13.783 14.5693 14.1275 14.5895 14.3277 14.815L16.3536 17.1016ZM25.3153 15.3302C25.3153 11.2991 22.0334 8.01868 18.0001 8.01868C13.9659 8.01868 10.684 11.2991 10.684 15.3302C10.684 19.3622 13.966 22.6426 18.0001 22.6426C22.0334 22.6426 25.3153 19.3622 25.3153 15.3302ZM9.59321 15.3302C9.59321 19.9633 13.3647 23.7328 18.0002 23.7328C22.6357 23.7328 26.4067 19.9632 26.4067 15.3302C26.4067 10.6979 22.6357 6.92842 18.0002 6.92842C13.3646 6.92842 9.59321 10.6979 9.59321 15.3302ZM29.5971 19.9684C29.6886 19.4357 29.7337 18.8831 29.7337 18.3068V11.0317H34.5449L32.2989 15.2437C32.2129 15.4037 32.2129 15.5963 32.2989 15.7563L34.5449 19.9684H29.5971ZM28.643 18.3067V7.00192C24.797 6.56156 20.965 4.47291 18.0002 1.35046C15.0332 4.47283 11.2041 6.5614 7.35692 7.00192V18.3067C7.35692 23.1738 11.15 25.5253 15.5426 28.2482C16.3463 28.7459 17.1739 29.2592 18.0002 29.8014C18.8265 29.2592 19.654 28.7458 20.4578 28.2482C24.8493 25.5253 28.643 23.1739 28.643 18.3067ZM1.45441 19.9684L3.70127 15.7563C3.78637 15.5963 3.78637 15.4037 3.70127 15.2437L1.45441 11.0317H6.26608V18.3068C6.26608 18.8832 6.31158 19.4357 6.40275 19.9684H1.45441ZM33.3975 15.4996L35.9356 10.743C36.1285 10.3809 35.8648 9.94115 35.4544 9.94115H29.7336V6.86516C29.7336 6.38325 29.3721 5.98198 28.8931 5.93265C25.0787 5.53702 21.2268 3.34619 18.4068 0.182437C18.1897 -0.0610989 17.809 -0.0605253 17.593 0.182437C14.7812 3.34438 10.91 5.53858 7.10703 5.93265C6.62715 5.98206 6.26608 6.38325 6.26608 6.86516V9.94115H0.545826C0.133593 9.94115 -0.128274 10.3817 0.0646419 10.743L2.60182 15.4996L0.0646419 20.257C-0.128438 20.6186 0.134823 21.0587 0.545826 21.0587H6.66356C7.83753 24.8313 11.5301 27.0453 14.9675 29.1748C15.8623 29.7287 16.7865 30.3022 17.6974 30.9084C17.881 31.0304 18.1183 31.0307 18.3019 30.9084C21.2125 28.9702 24.8193 27.09 27.0456 24.781C28.1645 23.6209 28.9175 22.4026 29.3358 21.0587H35.4544C35.8647 21.0587 36.1285 20.619 35.9356 20.257L33.3975 15.4996Z" fill="#666666"/>
</svg>
