<svg width="50" height="51" viewBox="0 0 50 51" fill="none" xmlns="http://www.w3.org/2000/svg">
<path d="M41.659 18.8791C39.3481 9.67331 30.0122 4.08388 20.8063 6.39476C13.6122 8.20072 8.38845 14.4185 7.85023 21.8162C2.7421 22.6586 -0.716022 27.4824 0.126366 32.5905C0.87521 37.1317 4.81013 40.4574 9.41256 40.4392H17.2242V37.3145H9.41256C5.96118 37.3145 3.16324 34.5166 3.16324 31.0652C3.16324 27.6138 5.96118 24.8159 9.41256 24.8159C10.2755 24.8159 10.9749 24.1165 10.9749 23.2536C10.9671 15.4879 17.2561 9.18625 25.0218 9.17854C31.7441 9.1718 37.5309 13.9242 38.8312 20.5195C38.9596 21.178 39.494 21.6811 40.1592 21.7693C44.4304 22.3776 47.3997 26.3331 46.7916 30.6042C46.2454 34.4395 42.9708 37.2952 39.0968 37.3145H32.8475V40.4392H39.0968C45.1368 40.4209 50.0183 35.5097 49.9999 29.4698C49.9847 24.442 46.5433 20.0723 41.659 18.8791Z" fill="#0B2FA3"/>
<path d="M23.9271 25.269L17.6777 31.5184L19.8806 33.7212L23.474 30.1435V45.1262H26.5986V30.1435L30.1764 33.7212L32.3793 31.5184L26.1299 25.269C25.5205 24.6632 24.5365 24.6632 23.9271 25.269Z" fill="#0B2FA3"/>
</svg>
