<svg width="17" height="17" viewBox="0 0 17 17" fill="none" xmlns="http://www.w3.org/2000/svg">
<path d="M8.5 0C3.80206 0 0 3.80163 0 8.5C0 13.1979 3.80163 17 8.5 17C13.1979 17 17 13.1984 17 8.5C17 3.80212 13.1984 0 8.5 0ZM9.37288 11.8741C9.37288 12.1427 8.98128 12.4112 8.50017 12.4112C7.99667 12.4112 7.63868 12.1427 7.63868 11.8741V7.61128C7.63868 7.29801 7.99671 7.08538 8.50017 7.08538C8.98128 7.08538 9.37288 7.29801 9.37288 7.61128V11.8741ZM8.5002 6.05612C7.98552 6.05612 7.58276 5.67571 7.58276 5.25051C7.58276 4.82534 7.98555 4.45612 8.5002 4.45612C9.00369 4.45612 9.40651 4.82534 9.40651 5.25051C9.40651 5.67571 9.00366 6.05612 8.5002 6.05612Z" fill="#C3C3C3"/>
</svg>
