<svg width="109" height="62" viewBox="0 0 109 62" fill="none" xmlns="http://www.w3.org/2000/svg">
<path d="M3.58643 0.500977C1.88184 0.500977 0.5 1.88282 0.5 3.58741V58.4146C0.5 60.1191 1.88184 61.501 3.58642 61.501H105.414C107.118 61.501 108.5 60.1191 108.5 58.4146V3.5874C108.5 1.88282 107.118 0.500977 105.414 0.500977H3.58643Z" stroke="white" stroke-opacity="0.03"/>
<path d="M42.4605 25.5851C42.7682 25.7829 43.2449 25.9516 43.8337 26.0644C44.4226 26.2331 45.0392 26.261 45.6847 26.261C46.3014 26.261 46.8625 26.1773 47.3669 26.0353C47.8712 25.8666 48.3201 25.6422 48.7123 25.3594C49.0767 25.0779 49.3856 24.7406 49.5823 24.2893C49.7778 23.867 49.89 23.4168 49.89 22.8817C49.89 22.2617 49.6945 21.6987 49.3301 21.1915C48.9657 20.7122 48.3479 20.3178 47.4791 20.0363L45.797 19.4733C45.1804 19.2767 44.7037 19.0511 44.4503 18.7975C44.2271 18.5718 44.0859 18.2903 44.0859 17.9238C44.0859 17.4457 44.2826 17.0514 44.647 16.8536C45.0392 16.6291 45.5448 16.4884 46.2459 16.4884C47.1147 16.4884 47.8435 16.657 48.5723 16.9665C48.769 17.0514 48.9367 17.1363 49.049 17.1363C49.2456 17.1363 49.3301 17.0235 49.3301 16.742V16.2627C49.3301 16.094 49.3011 15.9533 49.2179 15.8683C49.1334 15.7555 49.0212 15.6426 48.8535 15.5589C48.7412 15.474 48.5446 15.3891 48.3479 15.3611C48.1524 15.2774 47.928 15.2483 47.6758 15.1646C47.4513 15.1355 47.1702 15.0517 46.8902 15.0517C46.6103 14.9668 46.3291 14.9668 46.0769 14.9668C45.5158 14.9668 45.0681 15.0517 44.5915 15.1646C44.1149 15.3332 43.6937 15.5298 43.3293 15.7834C42.9649 16.0649 42.7127 16.3755 42.4605 16.7699C42.2361 17.1642 42.1516 17.5865 42.1516 18.1216C42.1516 18.7416 42.3483 19.3326 42.7405 19.8677C43.1326 20.4307 43.7505 20.825 44.6748 21.0786L46.4136 21.6416C47.0024 21.8394 47.3946 22.036 47.619 22.2617C47.8435 22.4874 47.9279 22.7689 47.9279 23.0783C47.9279 23.5576 47.7313 23.9519 47.3113 24.2334C46.8902 24.5149 46.3291 24.6278 45.5448 24.6278C45.0681 24.6278 44.5915 24.5999 44.1426 24.4591C43.666 24.3742 43.2449 24.2334 42.7972 24.0357C42.685 24.0077 42.5727 23.9519 42.4883 23.924C42.4038 23.8949 42.3193 23.8949 42.2638 23.8949C42.0671 23.8949 41.9839 24.0077 41.9839 24.2893V24.8814C41.9839 24.9942 42.0116 25.1059 42.0671 25.2478C42.1516 25.3886 42.2638 25.4723 42.4605 25.5851Z" fill="white"/>
<path d="M22.1598 19.7543C21.7387 19.6693 21.29 19.6693 20.8975 19.6693C19.6918 19.6693 18.7104 19.98 17.9535 20.6279C17.1964 21.2467 16.8599 22.0925 16.8599 23.1056C16.8599 24.0921 17.1403 24.8517 17.7292 25.4438C18.3179 26.0348 19.1031 26.3162 20.1125 26.3162C21.5144 26.3162 22.692 25.7533 23.6452 24.6551C23.7574 24.9366 23.8697 25.1623 24.0096 25.3589C24.1496 25.5567 24.2908 25.7532 24.4308 25.9219C24.543 26.0347 24.6552 26.0918 24.7952 26.0918C24.8784 26.0918 24.9907 26.0639 25.1029 25.9789L25.8607 25.4717C26.0284 25.3589 26.0851 25.246 26.0851 25.1053C26.0851 25.0216 26.0562 24.9366 26.0007 24.8238C25.8329 24.5144 25.6917 24.2329 25.6085 23.9514C25.524 23.6699 25.4963 23.3313 25.4963 22.8812V18.9376C25.4963 17.6418 25.1874 16.6565 24.514 15.9806C23.8419 15.3048 22.8319 14.9941 21.3742 14.9941C20.7012 14.9941 20.0843 15.0791 19.4956 15.2198C18.9347 15.3885 18.4301 15.5292 18.0095 15.7828C17.8413 15.8678 17.7292 15.9515 17.701 16.0085C17.6169 16.0935 17.6169 16.2342 17.6169 16.4308V17.0229C17.6169 17.2474 17.701 17.4161 17.8413 17.4161C17.8692 17.4161 17.9535 17.4161 18.0376 17.3882C18.1217 17.3603 18.2619 17.3044 18.4581 17.2195C18.8787 17.0508 19.3273 16.9101 19.7479 16.8251C20.1684 16.7123 20.6171 16.6565 21.0377 16.6565C21.9909 16.6565 22.6075 16.853 23.0009 17.2195C23.393 17.5859 23.5608 18.2339 23.5608 19.1633V20.0358C23.0564 19.9229 22.6365 19.8392 22.1598 19.7543ZM23.533 21.8947C23.533 22.289 23.5053 22.6555 23.4208 22.9091C23.3363 23.1906 23.2253 23.4721 23.0286 23.6699C22.7197 24.0351 22.3275 24.2887 21.8789 24.4294C21.4583 24.5993 21.0096 24.6551 20.6171 24.6551C20.0563 24.6551 19.6357 24.4865 19.3554 24.2329C19.075 23.9514 18.9347 23.5279 18.9347 22.9649C18.9347 22.374 19.1311 21.8947 19.5236 21.5853C19.9161 21.2759 20.505 21.106 21.29 21.106C21.6546 21.106 22.0476 21.1339 22.4398 21.1909C22.8319 21.2188 23.1963 21.3038 23.533 21.3875V21.8947Z" fill="white"/>
<path d="M29.5899 25.3879C29.6731 25.6124 29.7576 25.7823 29.8143 25.866C29.8976 25.951 30.0388 25.9789 30.2909 25.9789H31.2997C31.5242 25.9789 31.6919 25.951 31.7764 25.866C31.8608 25.7823 31.9453 25.6415 32.0008 25.3879L33.8518 17.6138L35.7306 25.3879C35.7584 25.6124 35.8416 25.7823 35.9539 25.866C36.0383 25.951 36.235 25.9789 36.4305 25.9789H37.4405C37.6372 25.9789 37.8049 25.951 37.9171 25.866C38.0016 25.7823 38.1138 25.6415 38.1416 25.3879L41.0569 16.0934C41.0858 15.9806 41.1413 15.8677 41.1413 15.8119C41.1413 15.7269 41.1691 15.699 41.1691 15.6141C41.1691 15.4175 41.0858 15.3326 40.8891 15.3326H39.7959C39.5715 15.3326 39.4037 15.3605 39.3193 15.4454C39.2348 15.5304 39.1503 15.6711 39.0948 15.9235L37.0193 24.0071L35.0851 15.8956C35.0573 15.6711 34.9728 15.5013 34.8606 15.4175C34.7761 15.3326 34.5807 15.3047 34.384 15.3047H33.403C33.1785 15.3047 33.0108 15.3326 32.9263 15.4175C32.8418 15.5013 32.7574 15.642 32.7019 15.8956L30.8231 23.8663L28.8321 15.8956C28.7488 15.6711 28.6643 15.5013 28.6076 15.4175C28.5244 15.3326 28.3844 15.3047 28.131 15.3047H26.9545C26.7578 15.3047 26.6733 15.3884 26.6733 15.5862C26.6733 15.6711 26.7011 15.8119 26.7856 16.0655L29.5899 25.3879Z" fill="white"/>
<path d="M47.3682 31.2178C42.965 33.1046 38.1431 34.0062 33.7967 34.0062C27.3193 34.0062 21.0392 32.231 15.9641 29.2461C15.5436 28.9646 15.1791 29.4426 15.5716 29.8091C20.2821 34.062 26.4782 36.6247 33.4045 36.6247C38.3109 36.6247 44.0305 35.0764 48.0125 32.1182C48.5736 31.668 48.0403 30.9642 47.3682 31.2178Z" fill="#FF9900"/>
<path d="M44.9002 29.5834C44.5358 29.809 44.6203 30.1755 44.9847 30.1464C46.2457 29.9777 49.1055 29.6404 49.5833 30.3162C50.0877 30.9351 49.0222 33.6397 48.5734 34.8507C48.4056 35.2171 48.7411 35.3579 49.0777 35.0752C51.2087 33.3012 51.7421 29.5554 51.3209 29.0482C50.8721 28.4282 47.1434 28.006 44.9002 29.5834Z" fill="#FF9900"/>
<path d="M60.7405 23.4993C60.6572 23.4993 60.5728 23.4714 60.5728 23.3307V16.8245C60.5728 16.7395 60.6005 16.6558 60.7405 16.6558H60.9372C61.0494 16.6558 61.1049 16.6837 61.1049 16.8245L61.1339 17.2188C61.4138 16.9931 61.7227 16.8245 62.0027 16.7116C62.2826 16.5988 62.5638 16.543 62.8715 16.543C63.4893 16.543 63.9659 16.7687 64.3303 17.2188C64.6947 17.6411 64.8902 18.289 64.8902 19.0219C64.8902 19.8106 64.6947 20.4295 64.3303 20.9087C63.937 21.3868 63.4603 21.6125 62.7882 21.6125C62.1993 21.6125 61.6938 21.3868 61.1894 20.9366V23.3028C61.1894 23.3865 61.1616 23.4714 61.0216 23.4714H60.7405V23.4993ZM62.7037 21.1344C63.2081 21.1344 63.6003 20.9646 63.8815 20.6272C64.1614 20.2608 64.2736 19.7536 64.2736 19.0777C64.2736 17.726 63.7692 17.0781 62.7315 17.0781C62.2271 17.0781 61.666 17.2759 61.1616 17.6981V20.4865C61.4416 20.711 61.666 20.8808 61.9182 20.9925C62.1704 21.0495 62.4516 21.1344 62.7037 21.1344Z" fill="white"/>
<path d="M67.192 21.6125C66.7721 21.6125 66.4065 21.4997 66.1265 21.2182C65.8466 20.9925 65.7344 20.6272 65.7344 20.205C65.7344 19.7257 65.9021 19.3871 66.211 19.1056C66.5187 18.8241 66.9676 18.7113 67.5009 18.7113C67.9209 18.7113 68.3697 18.7962 68.8741 18.937V18.1483C68.8741 17.7539 68.7909 17.4724 68.5942 17.3317C68.3975 17.163 68.1175 17.106 67.6964 17.106C67.2765 17.106 66.7999 17.1909 66.3232 17.3317C66.2955 17.3317 66.211 17.3596 66.1543 17.3596C66.071 17.3596 66.071 17.3317 66.071 17.2467V17.0502C66.071 17.0223 66.071 16.9652 66.0988 16.9373C66.1265 16.9094 66.1265 16.9094 66.1832 16.8524C66.6876 16.6558 67.192 16.543 67.7809 16.543C68.342 16.543 68.7619 16.6558 69.0431 16.9094C69.323 17.1339 69.4352 17.5003 69.4352 17.9796V21.3589C69.4352 21.4439 69.4075 21.5288 69.2675 21.5288H69.0708C68.9864 21.5288 68.9031 21.4997 68.9031 21.3589L68.8741 20.9646C68.3697 21.4159 67.7809 21.6125 67.192 21.6125ZM67.2765 21.1344C67.5009 21.1344 67.7809 21.1053 68.0608 20.9646C68.342 20.8517 68.6219 20.7401 68.9309 20.5423V19.3593C68.5097 19.2464 68.1175 19.1906 67.6687 19.1906C66.7721 19.1906 66.3232 19.557 66.3232 20.205C66.3232 20.4865 66.4065 20.711 66.5477 20.8808C66.7154 21.0495 66.9676 21.1344 67.2765 21.1344Z" fill="white"/>
<path d="M71.0872 21.5292C71.0027 21.5292 70.9194 21.5001 70.9194 21.3593V16.8249C70.9194 16.7412 70.9472 16.6562 71.0872 16.6562H71.2838C71.3961 16.6562 71.4516 16.6842 71.4516 16.8249L71.4793 17.3879C71.7038 17.1064 71.956 16.9099 72.1804 16.8249C72.4048 16.7121 72.686 16.6562 72.9659 16.6562C73.0782 16.6562 73.1626 16.6562 73.1904 16.6562C73.2736 16.6562 73.3581 16.6842 73.3581 16.8249V17.0506C73.3581 17.0785 73.3581 17.0785 73.3303 17.1343C73.3303 17.1634 73.3026 17.1634 73.2459 17.1634C73.2181 17.1634 73.1337 17.1634 73.0782 17.1634C73.0504 17.1634 72.9659 17.1634 72.8815 17.1634C72.6015 17.1634 72.3204 17.1914 72.0971 17.3321C71.8727 17.445 71.676 17.6136 71.4238 17.8393V21.3593C71.4238 21.4443 71.3961 21.5292 71.2549 21.5292H71.0872Z" fill="white"/>
<path d="M75.8537 21.5846C75.4603 21.5846 75.1804 21.4718 74.9837 21.2752C74.7882 21.0774 74.676 20.7959 74.676 20.4016V17.2188H73.9182C73.835 17.2188 73.7505 17.1909 73.7505 17.0502V16.9652C73.7505 16.9373 73.7505 16.8815 73.7782 16.8524C73.7782 16.8245 73.806 16.8245 73.8905 16.8245L74.676 16.7408L74.7593 15.4728C74.7593 15.4449 74.7882 15.3878 74.7882 15.3599C74.816 15.332 74.816 15.332 74.9005 15.332H75.0682C75.1526 15.332 75.2359 15.3599 75.2359 15.5007V16.7687H76.6103C76.6948 16.7687 76.778 16.7966 76.778 16.9373V17.1351C76.778 17.2188 76.7503 17.3038 76.6103 17.3038H75.2359V20.4865C75.2359 20.768 75.2649 20.9087 75.4048 21.0495C75.5171 21.1623 75.7125 21.2182 75.9659 21.2182C76.1614 21.2182 76.3304 21.2182 76.4426 21.1902C76.5258 21.1902 76.5536 21.1623 76.6103 21.1623C76.638 21.1623 76.6948 21.1623 76.6948 21.1623C76.778 21.1623 76.807 21.1903 76.807 21.2752V21.4438C76.807 21.5567 76.778 21.6125 76.6948 21.6404C76.4426 21.5288 76.1892 21.5846 75.8537 21.5846Z" fill="white"/>
<path d="M77.9858 21.5284C77.9014 21.5284 77.8169 21.4992 77.8169 21.3585V16.8241C77.8169 16.7403 77.8459 16.6554 77.9858 16.6554H78.1825C78.2935 16.6554 78.3502 16.6833 78.3502 16.8241L78.378 17.2184C78.6869 16.9927 78.9946 16.8241 79.359 16.7112C79.7246 16.5984 80.0324 16.5146 80.3413 16.5146C80.8179 16.5146 81.1546 16.6275 81.4068 16.8811C81.6312 17.1056 81.7712 17.472 81.7712 17.9792V21.3306C81.7712 21.4155 81.7434 21.4992 81.6022 21.4992H81.3223C81.2378 21.4992 81.1546 21.4713 81.1546 21.3306V18.2607C81.1546 17.8384 81.0701 17.5569 80.9301 17.3592C80.7612 17.1626 80.509 17.0777 80.1723 17.0777C79.5557 17.0777 78.9114 17.2754 78.3225 17.6977V21.4155C78.3225 21.4992 78.2935 21.5842 78.1536 21.5842H77.9581V21.5284H77.9858Z" fill="white"/>
<path d="M85.2758 21.6404C84.5192 21.6404 83.9304 21.4439 83.5937 21.0216C83.2004 20.5993 83.0049 19.9514 83.0049 19.0777C83.0049 18.289 83.2004 17.669 83.5937 17.2188C83.9859 16.7966 84.547 16.543 85.1914 16.543C85.7802 16.543 86.2014 16.7116 86.538 17.0502C86.8457 17.3596 87.0147 17.8389 87.0147 18.4577C87.0147 18.6834 87.0147 18.8812 86.9857 19.0498C86.9857 19.1336 86.9024 19.2185 86.818 19.2185H83.5937C83.5937 19.8943 83.7615 20.4016 84.0137 20.711C84.2948 21.0216 84.7714 21.1902 85.3603 21.1902C85.8369 21.1902 86.2569 21.1053 86.6502 20.9646C86.7335 20.9367 86.818 20.9366 86.818 20.9366C86.8457 20.9366 86.8457 20.9367 86.9024 20.9646C86.9024 20.9925 86.9302 20.9925 86.9302 21.0495V21.2182C86.9302 21.331 86.9024 21.3868 86.818 21.4159C86.3136 21.5288 85.8369 21.6404 85.2758 21.6404ZM86.4535 18.7683C86.4535 18.6834 86.4535 18.5705 86.4535 18.4577C86.4535 17.9796 86.3413 17.669 86.1446 17.4445C85.9202 17.2188 85.5847 17.0781 85.1636 17.0781C84.1536 17.0781 83.6215 17.6411 83.566 18.7683H86.4535Z" fill="white"/>
<path d="M88.3054 21.5292C88.2209 21.5292 88.1377 21.5001 88.1377 21.3593V16.8249C88.1377 16.7412 88.1654 16.6562 88.3054 16.6562H88.5021C88.6143 16.6562 88.6698 16.6842 88.6698 16.8249L88.6976 17.3879C88.922 17.1064 89.1742 16.9099 89.3987 16.8249C89.6231 16.7121 89.9043 16.6562 90.1842 16.6562C90.2964 16.6562 90.3809 16.6562 90.4086 16.6562C90.4931 16.6562 90.5764 16.6842 90.5764 16.8249V17.0506C90.5764 17.0785 90.5764 17.0785 90.5486 17.1343C90.5486 17.1634 90.5209 17.1634 90.4642 17.1634C90.4086 17.1634 90.3519 17.1634 90.2964 17.1634C90.2687 17.1634 90.1842 17.1634 90.0997 17.1634C89.8198 17.1634 89.5398 17.1914 89.3154 17.3321C89.091 17.445 88.8943 17.6136 88.6421 17.8393V21.3593C88.6421 21.4443 88.6143 21.5292 88.4743 21.5292H88.3054Z" fill="white"/>
<path d="M60.7405 32.1448C60.6572 32.1448 60.5728 32.1168 60.5728 31.9761V27.4696C60.5728 27.3859 60.6005 27.3009 60.7405 27.3009H60.9372C61.0494 27.3009 61.1049 27.3288 61.1049 27.4696L61.1339 27.8639C61.4416 27.6382 61.7505 27.4696 62.1149 27.3567C62.4793 27.2439 62.7882 27.1602 63.0959 27.1602C63.5725 27.1602 63.9092 27.273 64.1614 27.5266C64.3858 27.7511 64.5258 28.1175 64.5258 28.6247V31.9761C64.5258 32.061 64.4981 32.1448 64.3581 32.1448H64.0769C63.9937 32.1448 63.9092 32.1168 63.9092 31.9761V28.8504C63.9092 28.4269 63.8247 28.1454 63.6848 27.9489C63.517 27.7511 63.2649 27.6674 62.9282 27.6674C62.3116 27.6674 61.666 27.8639 61.0771 28.2862V32.004C61.0771 32.0889 61.0494 32.1739 60.9094 32.1739H60.7127V32.1448H60.7405Z" fill="white"/>
<path d="M68.0576 32.2859C67.2998 32.2859 66.7121 32.0894 66.3755 31.6671C65.9821 31.2448 65.7866 30.5969 65.7866 29.7232C65.7866 28.9345 65.9821 28.3157 66.3755 27.8643C66.7677 27.4421 67.3287 27.1885 67.9731 27.1885C68.562 27.1885 68.9831 27.3571 69.3198 27.6957C69.6275 28.0051 69.7964 28.4844 69.7964 29.1044C69.7964 29.3289 69.7964 29.5267 69.7674 29.6953C69.7674 29.7803 69.6842 29.864 69.5997 29.864H66.3755C66.3755 30.5399 66.5432 31.047 66.7954 31.3565C67.0766 31.6671 67.5532 31.8358 68.142 31.8358C68.6187 31.8358 69.0386 31.7508 69.4308 31.6101C69.5152 31.5821 69.5997 31.5822 69.5997 31.5822C69.6275 31.5822 69.6275 31.5821 69.6842 31.6101C69.6842 31.6392 69.7119 31.6392 69.7119 31.695V31.8637C69.7119 31.9765 69.6842 32.0335 69.5997 32.0614C69.1231 32.1743 68.5897 32.2859 68.0576 32.2859ZM69.2353 29.3859C69.2353 29.301 69.2353 29.1881 69.2353 29.0753C69.2353 28.5972 69.1231 28.2866 68.9264 28.0621C68.7019 27.8364 68.3653 27.6957 67.9454 27.6957C66.9354 27.6957 66.4032 28.2587 66.3465 29.3859H69.2353Z" fill="white"/>
<path d="M72.4602 32.2303C72.0668 32.2303 71.7868 32.1174 71.5902 31.9209C71.3947 31.7231 71.2824 31.4416 71.2824 31.0472V27.8087H70.5247C70.4414 27.8087 70.3569 27.7808 70.3569 27.64V27.5551C70.3569 27.5272 70.3569 27.4701 70.3847 27.4422C70.3847 27.4143 70.4124 27.4143 70.4969 27.4143L71.2824 27.3294L71.3657 26.0626C71.3657 26.0347 71.3947 25.9777 71.3947 25.9498C71.4224 25.9219 71.4224 25.9219 71.5057 25.9219H71.6746C71.7591 25.9219 71.8424 25.9498 71.8424 26.0905V27.3585H73.2168C73.3012 27.3585 73.3845 27.3864 73.3845 27.5272V27.7238C73.3845 27.8087 73.3567 27.8936 73.2168 27.8936H71.8713V31.0763C71.8713 31.3579 71.8991 31.4986 72.039 31.6393C72.179 31.7801 72.348 31.808 72.6001 31.808C72.7956 31.808 72.9646 31.808 73.0768 31.7801C73.16 31.7801 73.189 31.7522 73.2445 31.7522C73.2723 31.7522 73.329 31.7522 73.329 31.7522C73.4134 31.7522 73.4412 31.7801 73.4412 31.8638V32.0337C73.4412 32.1466 73.4134 32.2024 73.329 32.2303C73.049 32.1744 72.7679 32.2303 72.4602 32.2303Z" fill="white"/>
<path d="M75.5448 32.1452C75.4604 32.1452 75.3771 32.1173 75.3481 32.0336L73.8627 27.5829C73.835 27.4979 73.835 27.47 73.835 27.4142C73.835 27.3572 73.8627 27.3292 73.9472 27.3292H74.2549C74.3394 27.3292 74.3671 27.3572 74.4238 27.4421L75.7125 31.4984L76.8625 27.4421C76.8903 27.3572 76.947 27.3292 77.0592 27.3292H77.4236C77.5081 27.3292 77.5913 27.3572 77.6203 27.4421L78.7691 31.4984L80.1157 27.3863C80.1434 27.3013 80.1989 27.2734 80.2834 27.2734H80.5634C80.6478 27.2734 80.6756 27.3013 80.6756 27.3572C80.6756 27.3863 80.6756 27.4421 80.6478 27.527L79.078 31.9765C79.0502 32.0615 78.9935 32.0894 78.8813 32.0894H78.5736C78.4891 32.0894 78.4046 32.0615 78.3769 31.9765L77.2269 27.9214L76.0782 31.9765C76.0492 32.0615 75.9937 32.0894 75.8815 32.0894H75.6015V32.1452H75.5448Z" fill="white"/>
<path d="M83.4536 32.2855C82.7526 32.2855 82.1927 32.061 81.7993 31.6096C81.4071 31.1874 81.2104 30.5394 81.2104 29.7228C81.2104 28.9341 81.4071 28.3153 81.7993 27.836C82.1927 27.4138 82.7526 27.1602 83.4536 27.1602C84.1547 27.1602 84.7158 27.3859 85.108 27.836C85.5014 28.2583 85.6969 28.9062 85.6969 29.7228C85.6969 30.5115 85.5014 31.1316 85.108 31.6096C84.6881 32.061 84.1547 32.2855 83.4536 32.2855ZM83.4536 31.7795C84.5481 31.7795 85.108 31.1037 85.108 29.7228C85.108 28.3432 84.5481 27.6674 83.4536 27.6674C82.3604 27.6674 81.7993 28.3432 81.7993 29.7228C81.7993 31.1037 82.3326 31.7795 83.4536 31.7795Z" fill="white"/>
<path d="M87.042 32.1446C86.9575 32.1446 86.873 32.1167 86.873 31.976V27.4695C86.873 27.3857 86.902 27.3008 87.042 27.3008H87.2375C87.3497 27.3008 87.4064 27.3287 87.4064 27.4695L87.4341 28.0325C87.6586 27.7509 87.9108 27.5544 88.1352 27.4695C88.3597 27.3566 88.6396 27.3008 88.9208 27.3008C89.033 27.3008 89.1163 27.3008 89.144 27.3008C89.2285 27.3008 89.3129 27.3287 89.3129 27.4695V27.6951C89.3129 27.723 89.3129 27.723 89.2852 27.7801C89.2562 27.808 89.2562 27.808 89.2007 27.808C89.173 27.808 89.0885 27.808 89.033 27.808C89.004 27.808 88.9208 27.808 88.8363 27.808C88.5564 27.808 88.2752 27.8359 88.0508 27.9766C87.8263 28.0895 87.6308 28.2582 87.3787 28.4838V32.0039C87.3787 32.0888 87.3497 32.1738 87.2097 32.1738H87.0142V32.1446H87.042Z" fill="white"/>
<path d="M90.3206 32.1455C90.2373 32.1455 90.1528 32.1176 90.1528 31.9769V25.1892C90.1528 25.1042 90.1806 25.0205 90.3206 25.0205H90.6017C90.6862 25.0205 90.7694 25.0484 90.7694 25.1892V29.47L93.0404 27.4145C93.1249 27.3296 93.2093 27.3296 93.2649 27.3296H93.6293C93.7137 27.3296 93.7415 27.3575 93.7415 27.4145C93.7415 27.4703 93.7137 27.4983 93.6293 27.5832L91.3028 29.6399L93.826 31.9769C93.8537 32.0048 93.9104 32.0618 93.9104 32.0897C93.9104 32.1746 93.8827 32.1747 93.7982 32.1747H93.4048C93.3216 32.1747 93.2371 32.1455 93.2093 32.0897L90.7694 29.8086V32.0048C90.7694 32.0897 90.7417 32.1747 90.6017 32.1747H90.3206V32.1455Z" fill="white"/>
<path d="M17.3088 44.3439C16.776 44.1461 16.3835 43.8937 16.1592 43.611C15.9348 43.3295 15.8228 42.9643 15.8228 42.5129C15.8228 41.9499 16.019 41.4997 16.4396 41.1612C16.8601 40.8226 17.421 40.654 18.1219 40.654C18.7107 40.654 19.2715 40.7668 19.8323 40.9925V42.0057C19.2434 41.837 18.7107 41.7242 18.206 41.7242C17.5051 41.7242 17.1406 41.9499 17.1406 42.4001C17.1406 42.5699 17.1967 42.7107 17.3088 42.8223C17.421 42.9352 17.6733 43.048 18.0097 43.1609L18.6827 43.4145C19.2434 43.611 19.636 43.8646 19.8603 44.1182C20.0846 44.3997 20.2248 44.7382 20.2248 45.1884C20.2248 45.8085 20.0005 46.2877 19.5518 46.653C19.1032 47.0194 18.5145 47.1881 17.7294 47.1881C17.3929 47.1881 17.0565 47.1602 16.7199 47.1044C16.3835 47.0473 16.1031 46.9636 15.8507 46.8508V45.8085C16.1592 45.8934 16.4676 45.9771 16.8041 46.0342C17.1406 46.09 17.449 46.1179 17.7294 46.1179C18.0938 46.1179 18.3463 46.0621 18.5425 45.9213C18.7388 45.7806 18.8229 45.6107 18.8229 45.3583C18.8229 45.1605 18.7668 45.0198 18.6547 44.9069C18.5425 44.7941 18.2902 44.6812 17.9536 44.5405L17.3088 44.3439ZM22.2435 45.1047C22.2712 45.499 22.3834 45.7806 22.6079 45.9771C22.8323 46.1458 23.169 46.2307 23.6179 46.2307C24.01 46.2307 24.4867 46.1458 25.02 46.005V46.8787C24.8233 46.9915 24.5711 47.0752 24.2622 47.1323C23.9823 47.1881 23.6734 47.2172 23.3657 47.2172C22.6079 47.2172 22.019 47.0194 21.6267 46.5972C21.2342 46.1749 21.038 45.5828 21.038 44.7662C21.038 44.0054 21.2342 43.4145 21.6267 42.9643C22.019 42.5408 22.5801 42.3163 23.2812 42.3163C23.8701 42.3163 24.3189 42.485 24.6544 42.8223C24.9633 43.1608 25.131 43.611 25.131 44.2311C25.131 44.3718 25.131 44.5126 25.1033 44.6812C25.0755 44.8511 25.0755 44.9918 25.0478 45.1047H22.2435ZM23.1967 43.2458C22.889 43.2458 22.6646 43.3295 22.4957 43.4994C22.3279 43.668 22.2435 43.9217 22.2157 44.259H23.9823V44.1182C23.9823 43.5273 23.7301 43.2458 23.1967 43.2458ZM28.132 46.9915C27.8798 47.1044 27.5987 47.1323 27.3187 47.1323C26.5054 47.1323 26.1133 46.6821 26.1133 45.7806V40.4004H27.4309V45.6677C27.4309 45.8364 27.4587 45.9492 27.5154 46.0342C27.5709 46.09 27.6554 46.1458 27.7954 46.1458C27.8798 46.1458 27.992 46.1458 28.132 46.1179V46.9915ZM30.0108 45.1047C30.0386 45.499 30.1508 45.7806 30.3752 45.9771C30.5997 46.1458 30.9351 46.2307 31.384 46.2307C31.7774 46.2307 32.254 46.1458 32.7862 46.005V46.8787C32.5895 46.9915 32.3373 47.0752 32.0296 47.1323C31.7484 47.1881 31.4407 47.2172 31.1318 47.2172C30.3752 47.2172 29.7864 47.0194 29.393 46.5972C29.0008 46.1749 28.8041 45.5828 28.8041 44.7662C28.8041 44.0054 29.0008 43.4145 29.393 42.9643C29.7864 42.5408 30.3463 42.3163 31.0473 42.3163C31.6362 42.3163 32.0851 42.485 32.4217 42.8223C32.7306 43.1608 32.8984 43.611 32.8984 44.2311C32.8984 44.3718 32.8984 44.5126 32.8706 44.6812C32.8429 44.8511 32.8429 44.9918 32.8139 45.1047H30.0108ZM30.9918 43.2458C30.6829 43.2458 30.4585 43.3295 30.2908 43.4994C30.123 43.668 30.0386 43.9217 30.0108 44.259H31.7774V44.1182C31.7484 43.5273 31.4962 43.2458 30.9918 43.2458ZM37.1881 46.8787C37.0204 46.9636 36.8237 47.0473 36.5992 47.1044C36.3748 47.1602 36.1226 47.1881 35.8982 47.1881C35.1693 47.1881 34.6082 46.9915 34.2161 46.5693C33.8239 46.1458 33.6272 45.5549 33.6272 44.7941C33.6272 44.0345 33.8239 43.4423 34.2438 43.0201C34.6649 42.5978 35.226 42.3721 35.9271 42.3721C36.3748 42.3721 36.7682 42.4571 37.1326 42.6537V43.5273C36.7682 43.4144 36.4593 43.3865 36.1504 43.3865C35.7304 43.3865 35.4215 43.4994 35.226 43.696C35.0294 43.9216 34.9449 44.259 34.9449 44.7103V44.8511C34.9449 45.3013 35.0294 45.6398 35.226 45.8643C35.4215 46.09 35.7304 46.1749 36.1226 46.1749C36.4038 46.1749 36.7682 46.1179 37.1326 46.005V46.8787H37.1881ZM40.8335 46.9636C40.4968 47.0752 40.1601 47.1602 39.7402 47.1602C39.2346 47.1602 38.8424 47.0473 38.618 46.7937C38.3658 46.5401 38.2536 46.1749 38.2536 45.6677V43.4424H37.5525V42.6257L38.2813 42.485L38.478 41.217H39.5435V42.4571H40.7767V43.4424H39.5435V45.6107C39.5435 45.8085 39.6002 45.9492 39.6835 46.0342C39.768 46.1179 39.9357 46.1458 40.1601 46.1458C40.3568 46.1458 40.5535 46.1179 40.8057 46.09V46.9636H40.8335Z" fill="white"/>
<path d="M44.1055 46.4699C44.0524 46.4699 44.0297 46.4478 44.0297 46.3968V43.288H42.9239C42.8709 43.288 42.8481 43.266 42.8481 43.2146V43.0977C42.8481 43.0466 42.8709 43.0246 42.9239 43.0246H45.4386C45.4914 43.0246 45.5143 43.0466 45.5143 43.0977V43.2146C45.5143 43.266 45.4914 43.288 45.4386 43.288H44.3327V46.3968C44.3327 46.4478 44.31 46.4699 44.2569 46.4699H44.1055ZM47.1049 46.543C46.6958 46.543 46.3927 46.4333 46.1808 46.2064C45.9761 45.9798 45.8702 45.6505 45.8702 45.2116C45.8702 44.7947 45.9761 44.4729 46.1808 44.2388C46.3927 44.0046 46.6805 43.895 47.0518 43.895C47.3624 43.895 47.6046 43.9829 47.7712 44.1512C47.9381 44.3267 48.0212 44.5681 48.0212 44.8898C48.0212 45.0215 48.0137 45.124 47.9984 45.1898C47.9909 45.2409 47.9606 45.2629 47.9077 45.2629H46.1655C46.1655 45.614 46.249 45.8699 46.4005 46.0309C46.5518 46.1992 46.7943 46.2795 47.1199 46.2795C47.3699 46.2795 47.6046 46.2357 47.8243 46.1554C47.8696 46.1406 47.8999 46.1333 47.9152 46.1333C47.9302 46.1333 47.9381 46.1406 47.9531 46.1478C47.9606 46.1626 47.9684 46.1699 47.9684 46.1919V46.265C47.9684 46.3161 47.9531 46.3526 47.9077 46.3675C47.6727 46.4844 47.4002 46.543 47.1049 46.543ZM47.7409 45.036C47.7409 44.9922 47.7487 44.9336 47.7487 44.8753C47.7487 44.6339 47.6881 44.4584 47.5668 44.3339C47.4455 44.2095 47.2715 44.1512 47.0365 44.1512C46.4911 44.1512 46.2033 44.4509 46.173 45.0433H47.7409V45.036ZM49.7556 46.5282C49.3618 46.5282 49.059 46.4185 48.8468 46.1992C48.6425 45.9798 48.5362 45.6505 48.5362 45.2264C48.5362 44.8019 48.6425 44.4802 48.8468 44.2536C49.059 44.0267 49.3618 43.917 49.7556 43.917C49.945 43.917 50.1269 43.9463 50.2934 44.0122C50.3312 44.0267 50.354 44.0632 50.354 44.1146V44.1877C50.354 44.2315 50.3312 44.2536 50.2934 44.2536C50.2859 44.2536 50.2706 44.2536 50.2556 44.246C50.2403 44.2388 50.2178 44.2388 50.18 44.2315C50.0434 44.2022 49.9072 44.1802 49.7709 44.1802C49.4453 44.1802 49.2103 44.2608 49.0665 44.4215C48.9224 44.5826 48.8468 44.8388 48.8468 45.1971V45.2557C48.8468 45.5995 48.9224 45.8554 49.0665 46.0164C49.2103 46.1771 49.4453 46.265 49.7634 46.265C49.8997 46.265 50.0434 46.243 50.2103 46.1992C50.2481 46.1919 50.2706 46.1847 50.2859 46.1771C50.3009 46.1699 50.3162 46.1699 50.3237 46.1699C50.3615 46.1699 50.3844 46.1919 50.3844 46.2357V46.3088C50.3844 46.3602 50.369 46.3968 50.3312 46.4113C50.1572 46.4844 49.9603 46.5282 49.7556 46.5282ZM51.0812 46.4699C51.0281 46.4699 51.0053 46.4478 51.0053 46.3968V42.8636C51.0053 42.8125 51.0281 42.7904 51.0812 42.7904H51.2175C51.2706 42.7904 51.2931 42.8125 51.2931 42.8636V44.2536C51.46 44.1436 51.6341 44.056 51.8234 43.9901C52.0053 43.9243 52.1869 43.895 52.3613 43.895C52.611 43.895 52.8003 43.9608 52.9369 44.0853C53.0732 44.2095 53.1338 44.3998 53.1338 44.6484V46.3968C53.1338 46.4478 53.111 46.4699 53.0578 46.4699H52.9216C52.8688 46.4699 52.846 46.4478 52.846 46.3968V44.7729C52.846 44.5605 52.8003 44.3998 52.7172 44.3046C52.6338 44.2095 52.4975 44.1584 52.3081 44.1584C51.9672 44.1584 51.6341 44.2608 51.3084 44.4729V46.3968C51.3084 46.4478 51.2856 46.4699 51.2325 46.4699H51.0812ZM54.0047 46.4699C53.9516 46.4699 53.9291 46.4478 53.9291 46.3968V44.0412C53.9291 43.9901 53.9516 43.9681 54.0047 43.9681H54.1107C54.1638 43.9681 54.1941 43.9901 54.2016 44.0412L54.2244 44.2536C54.391 44.1364 54.5729 44.0487 54.7544 43.9829C54.9363 43.917 55.1182 43.8877 55.2923 43.8877C55.5423 43.8877 55.7316 43.9536 55.8679 44.0777C56.0041 44.2022 56.0648 44.3926 56.0648 44.6412V46.3968C56.0648 46.4478 56.0423 46.4699 55.9892 46.4699H55.8529C55.7998 46.4699 55.777 46.4478 55.777 46.3968V44.7729C55.777 44.5605 55.7316 44.3998 55.6482 44.3046C55.5651 44.2095 55.4285 44.1584 55.2395 44.1584C54.8985 44.1584 54.5654 44.2608 54.2394 44.4729V46.3968C54.2394 46.4478 54.2169 46.4699 54.1638 46.4699H54.0047ZM57.9129 46.543C57.5342 46.543 57.2389 46.4261 57.0345 46.1919C56.8223 45.9578 56.7239 45.6285 56.7239 45.2116C56.7239 44.7947 56.8298 44.4729 57.0345 44.2388C57.2464 44.0046 57.5417 43.8877 57.9129 43.8877C58.2917 43.8877 58.587 44.0046 58.7914 44.2388C59.0036 44.4729 59.1095 44.7947 59.1095 45.2116C59.1095 45.6285 59.0036 45.9578 58.7914 46.1919C58.587 46.4261 58.2917 46.543 57.9129 46.543ZM57.9129 46.2868C58.5036 46.2868 58.8067 45.9285 58.8067 45.2191C58.8067 44.5095 58.5114 44.1584 57.9129 44.1584C57.3223 44.1584 57.0192 44.5095 57.0192 45.2191C57.0192 45.9285 57.3145 46.2868 57.9129 46.2868ZM60.2155 46.4844C60.0792 46.4844 59.973 46.4478 59.8974 46.3675C59.8217 46.2871 59.7836 46.1847 59.7836 46.0381V42.8563C59.7836 42.8053 59.8064 42.7832 59.8595 42.7832H59.9958C60.0489 42.7832 60.0714 42.8053 60.0714 42.8563V46.0309C60.0714 46.104 60.0867 46.1554 60.1171 46.1847C60.1474 46.2137 60.2002 46.2285 60.2761 46.2285C60.2989 46.2285 60.3214 46.2285 60.3442 46.2212C60.3671 46.2212 60.3895 46.2137 60.4049 46.2137C60.4502 46.2137 60.4805 46.2357 60.4805 46.2868V46.3819C60.4805 46.4261 60.458 46.4478 60.4124 46.4551C60.3517 46.4771 60.2911 46.4844 60.2155 46.4844ZM62.1243 46.543C61.7455 46.543 61.4499 46.4261 61.2455 46.1919C61.0333 45.9578 60.9349 45.6285 60.9349 45.2116C60.9349 44.7947 61.0411 44.4729 61.2455 44.2388C61.4577 44.0046 61.753 43.8877 62.1243 43.8877C62.5027 43.8877 62.7984 44.0046 63.0027 44.2388C63.2149 44.4729 63.3209 44.7947 63.3209 45.2116C63.3209 45.6285 63.2149 45.9578 63.0027 46.1919C62.7984 46.4261 62.5027 46.543 62.1243 46.543ZM62.1243 46.2868C62.7149 46.2868 63.0177 45.9285 63.0177 45.2191C63.0177 44.5095 62.7224 44.1584 62.1243 44.1584C61.5333 44.1584 61.2305 44.5095 61.2305 45.2191C61.238 45.9285 61.5333 46.2868 62.1243 46.2868ZM64.9037 47.5523C64.76 47.5523 64.6159 47.5378 64.4796 47.5085C64.3434 47.4792 64.2221 47.4427 64.1162 47.3916C64.0784 47.3768 64.0556 47.3402 64.0556 47.2892V47.2158C64.0556 47.172 64.0706 47.1502 64.1162 47.1502C64.1237 47.1502 64.1387 47.1502 64.1465 47.1575C64.1615 47.1575 64.1843 47.1647 64.2146 47.1792C64.4568 47.2523 64.684 47.2964 64.8812 47.2964C65.1993 47.2964 65.434 47.2233 65.5856 47.0696C65.7368 46.9161 65.8128 46.6747 65.8128 46.3454V46.104C65.684 46.2064 65.5475 46.2868 65.3884 46.3454C65.2372 46.404 65.0856 46.4333 64.9493 46.4333C64.6159 46.4333 64.3584 46.3161 64.154 46.0895C63.9571 45.8626 63.8587 45.5629 63.8587 45.1898C63.8587 44.7874 63.9571 44.4729 64.154 44.2388C64.3509 44.0046 64.6237 43.8877 64.9643 43.8877C65.29 43.8877 65.5703 43.9974 65.8203 44.217L65.8431 44.0339C65.8506 43.9829 65.8809 43.9608 65.9337 43.9608H66.04C66.0928 43.9608 66.1156 43.9829 66.1156 44.0339V46.3454C66.1156 46.733 66.0097 47.033 65.805 47.2378C65.6006 47.4427 65.29 47.5523 64.9037 47.5523ZM65.0175 46.1771C65.275 46.1771 65.54 46.0747 65.8128 45.8626V44.4802C65.6687 44.3705 65.54 44.2826 65.4037 44.2315C65.275 44.1802 65.1309 44.1512 64.9871 44.1512C64.7143 44.1512 64.5024 44.2388 64.3662 44.4071C64.2296 44.5826 64.1615 44.8312 64.1615 45.175C64.1615 45.4971 64.2374 45.7457 64.3812 45.9212C64.5253 46.0968 64.7371 46.1771 65.0175 46.1771ZM67.0019 47.5523C66.9184 47.5523 66.8428 47.5378 66.7672 47.5158C66.7141 47.5013 66.6912 47.472 66.6912 47.4134V47.3402C66.6912 47.2964 66.7141 47.2744 66.7519 47.2744C66.7747 47.2744 66.7897 47.2744 66.805 47.2816C66.82 47.2816 66.8428 47.2892 66.8731 47.2892C66.9034 47.2892 66.9337 47.2892 66.9791 47.2892C67.0928 47.2892 67.1838 47.2599 67.2519 47.2013C67.32 47.1427 67.3806 47.0402 67.4413 46.894L67.6153 46.4771L66.6003 44.0705C66.5853 44.0412 66.5778 44.0194 66.5778 44.0046C66.5778 43.9681 66.6003 43.9463 66.6381 43.9463H66.805C66.8503 43.9463 66.8806 43.9681 66.8959 44.0122L67.7591 46.1478L68.6303 44.0122C68.6453 43.9681 68.6756 43.9463 68.7213 43.9463H68.8725C68.9103 43.9463 68.9332 43.9608 68.9332 44.0046C68.9332 44.0122 68.9257 44.0339 68.9103 44.0705L67.6988 46.9819C67.6153 47.1868 67.5169 47.3258 67.4109 47.4134C67.3047 47.5158 67.1684 47.5523 67.0019 47.5523Z" fill="white"/>
<path d="M71.3999 47.4532C71.3322 47.4532 71.3032 47.4238 71.3032 47.3541V42.8823C71.3032 42.8131 71.3322 42.7832 71.3999 42.7832H72.8685C73.2838 42.7832 73.6123 42.9122 73.8639 43.16C74.1151 43.4081 74.2311 43.7451 74.2311 44.1714C74.2311 44.5879 74.1055 44.9249 73.8639 45.1727C73.6123 45.4208 73.2838 45.5494 72.8685 45.5494H71.68V47.3541C71.68 47.4238 71.6511 47.4532 71.5834 47.4532H71.3999ZM72.8589 45.1928C73.5063 45.1928 73.8348 44.8557 73.8348 44.1714C73.8348 43.4871 73.5063 43.1403 72.8589 43.1403H71.68V45.1928H72.8589ZM75.8445 47.5327C75.5451 47.5327 75.3035 47.4434 75.1197 47.2649C74.9459 47.0863 74.8494 46.8484 74.8494 46.5511C74.8494 46.2239 74.9555 45.9659 75.1779 45.7775C75.4 45.5891 75.6998 45.4901 76.0765 45.4901C76.3664 45.4901 76.6853 45.5396 77.0138 45.6489V45.0838C77.0138 44.8062 76.946 44.6178 76.8204 44.4986C76.6949 44.3795 76.4824 44.3201 76.1925 44.3201C75.8927 44.3201 75.5738 44.3795 75.2357 44.4888C75.1971 44.4986 75.1584 44.5085 75.1393 44.5085C75.1006 44.5085 75.0715 44.479 75.0715 44.4192V44.3103C75.0715 44.2705 75.081 44.2509 75.091 44.2308C75.1006 44.2112 75.1297 44.1911 75.1584 44.1813C75.5064 44.0424 75.8736 43.9732 76.2599 43.9732C76.6466 43.9732 76.9269 44.0523 77.1198 44.221C77.3132 44.3897 77.4001 44.6375 77.4001 44.9745V47.3541C77.4001 47.4238 77.371 47.4532 77.3036 47.4532H77.1681C77.1007 47.4532 77.0716 47.4238 77.062 47.3541L77.0329 47.0667C76.6466 47.3738 76.2503 47.5327 75.8445 47.5327ZM75.8927 47.1756C76.057 47.1756 76.2408 47.1461 76.4337 47.0765C76.6271 47.0073 76.8204 46.9082 77.0234 46.7792V45.9364C76.7335 45.857 76.4437 45.8172 76.173 45.8172C75.5642 45.8172 75.2553 46.0552 75.2553 46.5413C75.2553 46.7493 75.3131 46.9082 75.4195 47.0171C75.516 47.126 75.6803 47.1756 75.8927 47.1756ZM78.5016 47.4532C78.4339 47.4532 78.4052 47.4238 78.4052 47.3541V44.1616C78.4052 44.092 78.4339 44.0625 78.5016 44.0625H78.6272C78.695 44.0625 78.7337 44.092 78.7432 44.1616L78.7723 44.558C78.9366 44.3696 79.1008 44.2308 79.2651 44.1616C79.4293 44.0822 79.6032 44.0424 79.8061 44.0424C79.8739 44.0424 79.9317 44.0424 79.9799 44.0523C80.0477 44.0523 80.0768 44.092 80.0768 44.1616V44.3299C80.0768 44.35 80.0668 44.3696 80.0572 44.3795C80.0477 44.3995 80.0281 44.3995 80.009 44.3995C79.9703 44.3995 79.9412 44.3995 79.9125 44.3995C79.8834 44.3995 79.8352 44.3995 79.777 44.3995C79.574 44.3995 79.4002 44.4393 79.2455 44.5183C79.0913 44.5977 78.9366 44.7169 78.801 44.8852V47.364C78.801 47.4336 78.7723 47.4631 78.7046 47.4631H78.5016V47.4532ZM81.6806 47.493C81.4199 47.493 81.2265 47.4238 81.091 47.2849C80.9558 47.1461 80.8885 46.9377 80.8885 46.6698V44.4094H80.3666C80.2988 44.4094 80.2697 44.3795 80.2697 44.3103V44.2411C80.2697 44.2013 80.2797 44.1813 80.2893 44.1616C80.2988 44.1415 80.3279 44.1317 80.3666 44.1317L80.898 44.0822L80.9463 43.1898C80.9463 43.1501 80.9558 43.1305 80.9754 43.1104C80.9945 43.0908 81.0141 43.0908 81.0427 43.0908H81.1588C81.2265 43.0908 81.2556 43.1206 81.2556 43.1898V44.0723H82.212C82.2798 44.0723 82.3085 44.1022 82.3085 44.1714V44.3103C82.3085 44.3795 82.2798 44.4094 82.212 44.4094H81.2556V46.6502C81.2556 46.8386 81.2939 46.9676 81.3712 47.0368C81.4486 47.1162 81.5742 47.1559 81.758 47.1559C81.8835 47.1559 81.9996 47.1461 82.096 47.126C82.1443 47.1162 82.1829 47.1064 82.212 47.1064C82.2412 47.0966 82.2603 47.0966 82.2798 47.0966C82.3281 47.0966 82.3568 47.126 82.3568 47.1756V47.2747C82.3568 47.3541 82.3376 47.3939 82.2798 47.4135C82.1056 47.4631 81.9027 47.493 81.6806 47.493ZM83.1398 47.4532C83.072 47.4532 83.0429 47.4238 83.0429 47.3541V44.1616C83.0429 44.092 83.072 44.0625 83.1398 44.0625H83.2749C83.3427 44.0625 83.3813 44.092 83.3909 44.1616L83.4196 44.4491C83.6325 44.2906 83.8641 44.1714 84.0962 44.0822C84.3282 43.9929 84.5598 43.9532 84.7823 43.9532C85.1012 43.9532 85.3428 44.0424 85.5166 44.2112C85.6904 44.3795 85.7678 44.6375 85.7678 44.9745V47.3541C85.7678 47.4238 85.7387 47.4532 85.6713 47.4532H85.4971C85.4297 47.4532 85.4006 47.4238 85.4006 47.3541V45.153C85.4006 44.8656 85.3428 44.6473 85.2363 44.5183C85.1299 44.3897 84.9561 44.3201 84.7145 44.3201C84.2799 44.3201 83.8546 44.4589 83.4391 44.7464V47.3541C83.4391 47.4238 83.41 47.4532 83.3427 47.4532H83.1398ZM88.1737 47.5523C87.6519 47.5523 87.2656 47.4037 86.9949 47.0966C86.7342 46.789 86.5986 46.3426 86.5986 45.748C86.5986 45.1829 86.7342 44.7464 86.9949 44.4294C87.2656 44.1121 87.6328 43.9634 88.106 43.9634C88.5022 43.9634 88.8112 44.0822 89.0241 44.3103C89.2366 44.5482 89.3426 44.8754 89.3426 45.3115C89.3426 45.4901 89.3331 45.6289 89.3139 45.7181C89.3044 45.7878 89.2657 45.8172 89.1979 45.8172H86.9757C86.9757 46.2931 87.0818 46.6404 87.2751 46.8582C87.4685 47.0863 87.7775 47.1957 88.1929 47.1957C88.5118 47.1957 88.8112 47.1359 89.0915 47.0269C89.1497 47.0073 89.1884 46.997 89.2075 46.997C89.227 46.997 89.2366 47.0073 89.2557 47.0171C89.2657 47.0368 89.2753 47.0466 89.2753 47.0765V47.1756C89.2753 47.2452 89.2557 47.2948 89.1979 47.3144C88.8985 47.4733 88.5505 47.5523 88.1737 47.5523ZM88.9854 45.5101C88.9854 45.4503 88.995 45.3713 88.995 45.2919C88.995 44.9647 88.9177 44.7267 88.763 44.558C88.6083 44.3897 88.3862 44.3103 88.0868 44.3103C87.3912 44.3103 87.024 44.7169 86.9853 45.5199H88.9854V45.5101ZM90.2799 47.4532C90.2125 47.4532 90.1834 47.4238 90.1834 47.3541V44.1616C90.1834 44.092 90.2125 44.0625 90.2799 44.0625H90.4055C90.4733 44.0625 90.5119 44.092 90.5215 44.1616L90.5506 44.558C90.7149 44.3696 90.8791 44.2308 91.0434 44.1616C91.2076 44.0822 91.3814 44.0424 91.5843 44.0424C91.6521 44.0424 91.7099 44.0424 91.7586 44.0523C91.8259 44.0523 91.855 44.092 91.855 44.1616V44.3299C91.855 44.35 91.8455 44.3696 91.8355 44.3795C91.8259 44.3995 91.8068 44.3995 91.7873 44.3995C91.7486 44.3995 91.7199 44.3995 91.6908 44.3995C91.6617 44.3995 91.6135 44.3995 91.5557 44.3995C91.3527 44.3995 91.1785 44.4393 91.0242 44.5183C90.8695 44.5977 90.7149 44.7169 90.5797 44.8852V47.364C90.5797 47.4336 90.5506 47.4631 90.4828 47.4631H90.2799V47.4532Z" fill="white"/>
</svg>
