<svg width="109" height="62" viewBox="0 0 109 62" fill="none" xmlns="http://www.w3.org/2000/svg">
<g opacity="0.6">
<rect x="0.500488" y="0.5" width="107.999" height="61" rx="3.08643" stroke="white" stroke-opacity="0.03"/>
</g>
<path d="M1 20.1377H107.999V3.58619C107.999 2.15775 106.841 0.999763 105.413 0.999763H3.58643C2.15798 0.999763 1 2.15775 1 3.58619V20.1377Z" fill="#4285F4"/>
<path d="M38.9853 7.42836C39.912 7.42836 40.5853 7.62169 41.0053 8.00836C41.432 8.39503 41.6453 8.92836 41.6453 9.60836C41.6453 9.91503 41.5986 10.2084 41.5053 10.4884C41.412 10.7617 41.2553 11.0084 41.0353 11.2284C40.8153 11.4484 40.5253 11.6217 40.1653 11.7484C39.812 11.875 39.372 11.9384 38.8453 11.9384H38.1353V14.5684H36.8553V7.42836H38.9853ZM38.9053 8.48836H38.1353V10.8784H38.7153C39.062 10.8784 39.3553 10.8384 39.5953 10.7584C39.842 10.6717 40.0286 10.5384 40.1553 10.3584C40.282 10.1784 40.3453 9.94503 40.3453 9.65836C40.3453 9.26503 40.2286 8.97169 39.9953 8.77836C39.762 8.58503 39.3986 8.48836 38.9053 8.48836ZM45.0867 9.04836C45.7867 9.04836 46.3167 9.20169 46.6767 9.50836C47.0434 9.80836 47.2267 10.2817 47.2267 10.9284V14.5684H46.3367L46.0867 13.8184H46.0467C45.8934 14.0117 45.7334 14.175 45.5667 14.3084C45.4067 14.435 45.22 14.525 45.0067 14.5784C44.8 14.6384 44.5467 14.6684 44.2467 14.6684C43.9267 14.6684 43.6367 14.6084 43.3767 14.4884C43.1234 14.3684 42.9234 14.185 42.7767 13.9384C42.63 13.685 42.5567 13.3684 42.5567 12.9884C42.5567 12.4284 42.76 12.0084 43.1667 11.7284C43.58 11.4417 44.2034 11.285 45.0367 11.2584L45.9767 11.2284V10.9584C45.9767 10.6117 45.8934 10.365 45.7267 10.2184C45.56 10.0717 45.3267 9.99836 45.0267 9.99836C44.7534 9.99836 44.49 10.0384 44.2367 10.1184C43.9834 10.1984 43.7367 10.2917 43.4967 10.3984L43.0967 9.51836C43.3634 9.37836 43.6667 9.26503 44.0067 9.17836C44.3534 9.09169 44.7134 9.04836 45.0867 9.04836ZM45.3167 12.0284C44.7634 12.0484 44.38 12.145 44.1667 12.3184C43.9534 12.485 43.8467 12.7117 43.8467 12.9984C43.8467 13.2517 43.9234 13.435 44.0767 13.5484C44.23 13.6617 44.4267 13.7184 44.6667 13.7184C45.0334 13.7184 45.3434 13.615 45.5967 13.4084C45.85 13.195 45.9767 12.8817 45.9767 12.4684V12.0084L45.3167 12.0284ZM51.6456 9.04836C51.7256 9.04836 51.8189 9.05169 51.9256 9.05836C52.0323 9.06503 52.1223 9.07836 52.1956 9.09836L52.0856 10.2684C52.0256 10.255 51.9456 10.245 51.8456 10.2384C51.7523 10.225 51.6689 10.2184 51.5956 10.2184C51.3956 10.2184 51.2023 10.2517 51.0156 10.3184C50.8356 10.3784 50.6723 10.4717 50.5256 10.5984C50.3856 10.7184 50.2723 10.875 50.1856 11.0684C50.1056 11.2617 50.0656 11.4917 50.0656 11.7584V14.5684H48.8056V9.14836H49.7756L49.9556 10.0884H50.0156C50.1223 9.89503 50.2556 9.72169 50.4156 9.56836C50.5756 9.40836 50.7589 9.28169 50.9656 9.18836C51.1789 9.09503 51.4056 9.04836 51.6456 9.04836ZM55.3001 13.6584C55.4601 13.6584 55.6135 13.645 55.7601 13.6184C55.9068 13.585 56.0435 13.5484 56.1701 13.5084V14.4484C56.0368 14.5084 55.8635 14.5584 55.6501 14.5984C55.4368 14.645 55.2135 14.6684 54.9801 14.6684C54.6735 14.6684 54.3935 14.6184 54.1401 14.5184C53.8935 14.4117 53.6935 14.2317 53.5401 13.9784C53.3935 13.725 53.3201 13.3717 53.3201 12.9184V10.0984H52.5901V9.54836L53.3901 9.10836L53.7901 7.95836H54.5801V9.14836H56.1201V10.0984H54.5801V12.9084C54.5801 13.1617 54.6468 13.3517 54.7801 13.4784C54.9135 13.5984 55.0868 13.6584 55.3001 13.6584ZM60.1626 9.04836C60.7693 9.04836 61.2426 9.20503 61.5826 9.51836C61.9293 9.83169 62.1026 10.3384 62.1026 11.0384V14.5684H60.8426V11.2884C60.8426 10.8817 60.7626 10.5784 60.6026 10.3784C60.4426 10.1717 60.1893 10.0684 59.8426 10.0684C59.336 10.0684 58.9893 10.2284 58.8026 10.5484C58.616 10.8617 58.5226 11.3184 58.5226 11.9184V14.5684H57.2626V9.14836H58.2326L58.4126 9.85836H58.4826C58.6026 9.67169 58.7493 9.51836 58.9226 9.39836C59.096 9.27836 59.2893 9.19169 59.5026 9.13836C59.716 9.07836 59.936 9.04836 60.1626 9.04836ZM65.8587 9.04836C66.3453 9.04836 66.762 9.14836 67.1087 9.34836C67.462 9.54169 67.7353 9.82169 67.9287 10.1884C68.122 10.5484 68.2187 10.9884 68.2187 11.5084V12.1484H64.6387C64.652 12.6417 64.7887 13.025 65.0487 13.2984C65.3087 13.565 65.6687 13.6984 66.1287 13.6984C66.482 13.6984 66.7953 13.665 67.0687 13.5984C67.3487 13.525 67.6353 13.4217 67.9287 13.2884V14.2984C67.662 14.425 67.3853 14.5184 67.0987 14.5784C66.812 14.6384 66.4687 14.6684 66.0687 14.6684C65.542 14.6684 65.072 14.5684 64.6587 14.3684C64.252 14.1617 63.932 13.8517 63.6987 13.4384C63.472 13.025 63.3587 12.5117 63.3587 11.8984C63.3587 11.2784 63.462 10.7584 63.6687 10.3384C63.882 9.91169 64.1753 9.59169 64.5487 9.37836C64.922 9.15836 65.3587 9.04836 65.8587 9.04836ZM65.8587 9.97836C65.5253 9.97836 65.252 10.0884 65.0387 10.3084C64.832 10.5217 64.7087 10.8417 64.6687 11.2684H66.9987C66.9987 11.015 66.9553 10.7917 66.8687 10.5984C66.7887 10.405 66.6653 10.255 66.4987 10.1484C66.332 10.035 66.1187 9.97836 65.8587 9.97836ZM72.3292 9.04836C72.4092 9.04836 72.5025 9.05169 72.6092 9.05836C72.7159 9.06503 72.8059 9.07836 72.8792 9.09836L72.7692 10.2684C72.7092 10.255 72.6292 10.245 72.5292 10.2384C72.4359 10.225 72.3525 10.2184 72.2792 10.2184C72.0792 10.2184 71.8859 10.2517 71.6992 10.3184C71.5192 10.3784 71.3559 10.4717 71.2092 10.5984C71.0692 10.7184 70.9559 10.875 70.8692 11.0684C70.7892 11.2617 70.7492 11.4917 70.7492 11.7584V14.5684H69.4892V9.14836H70.4592L70.6392 10.0884H70.6992C70.8059 9.89503 70.9392 9.72169 71.0992 9.56836C71.2592 9.40836 71.4425 9.28169 71.6492 9.18836C71.8625 9.09503 72.0892 9.04836 72.3292 9.04836Z" fill="white"/>
<g clip-path="url(#clip0_438_9153)">
<path d="M66.0863 41.4344C65.4466 41.4491 64.8106 41.334 64.2171 41.096C63.6236 40.8579 63.0851 40.502 62.6344 40.0499C62.1838 39.5978 61.8305 39.0591 61.5962 38.4666C61.3618 37.874 61.2513 37.2402 61.2714 36.6038C61.2548 35.9714 61.3676 35.3424 61.6028 34.7547C61.8381 34.1671 62.1909 33.6332 62.6398 33.1854C63.0871 32.73 63.6242 32.3715 64.2172 32.1324C64.8103 31.8932 65.4466 31.7786 66.0863 31.7956C66.7269 31.7799 67.3629 31.9071 67.9476 32.168C68.5323 32.4288 69.0509 32.8167 69.4652 33.3031L68.6374 34.1268C68.3338 33.7449 67.9455 33.4379 67.503 33.2299C67.0605 33.0218 66.5756 32.9184 66.0863 32.9276C65.6094 32.916 65.1351 33.0015 64.6925 33.1788C64.25 33.3561 63.8485 33.6215 63.5127 33.9587C63.1697 34.3068 62.9018 34.721 62.7255 35.1758C62.5493 35.6307 62.4684 36.1166 62.4878 36.6038C62.4668 37.0928 62.547 37.5808 62.7233 38.0377C62.8996 38.4946 63.1683 38.9107 63.5127 39.26C63.8477 39.5983 64.2491 39.8644 64.6918 40.0418C65.1345 40.2192 65.6092 40.3041 66.0863 40.2912C66.6276 40.2885 67.1615 40.1654 67.6487 39.9307C68.1359 39.696 68.5642 39.3558 68.9021 38.935L69.7693 39.7756C69.3304 40.2978 68.7776 40.7137 68.1531 40.9916C67.5049 41.2876 66.7995 41.4388 66.0863 41.4344ZM71.9262 32.0029V41.2326H70.7323V32.0029H71.9262ZM72.9511 38.072C72.9381 37.6296 73.013 37.189 73.1715 36.7755C73.33 36.362 73.569 35.9837 73.8747 35.6623C74.1773 35.3503 74.5419 35.1045 74.9452 34.9404C75.3486 34.7764 75.7819 34.6978 76.2174 34.7096C76.6514 34.6973 77.0831 34.7757 77.4847 34.9398C77.8863 35.1039 78.2489 35.3501 78.5489 35.6623C78.8577 35.9818 79.099 36.3597 79.2586 36.7735C79.4182 37.1874 79.4928 37.6289 79.4781 38.072C79.4945 38.5152 79.4206 38.9572 79.2609 39.3713C79.1012 39.7854 78.859 40.1631 78.5489 40.4817C78.2497 40.7951 77.8874 41.042 77.4855 41.2062C77.0837 41.3703 76.6516 41.4481 76.2174 41.4344C75.7817 41.4476 75.348 41.3696 74.9444 41.2055C74.5409 41.0414 74.1764 40.7948 73.8747 40.4817C73.569 40.1603 73.33 39.782 73.1715 39.3685C73.013 38.955 72.9381 38.5144 72.9511 38.072ZM74.145 38.072C74.1176 38.6781 74.3322 39.2703 74.742 39.7196C74.9315 39.9197 75.1602 40.0792 75.4139 40.1882C75.6676 40.2972 75.9411 40.3534 76.2174 40.3534C76.4938 40.3534 76.7672 40.2972 77.021 40.1882C77.2747 40.0792 77.5034 39.9197 77.6929 39.7196C78.1027 39.2703 78.3172 38.6781 78.2898 38.072C78.3161 37.4695 78.1015 36.8811 77.6929 36.4357C77.5051 36.2325 77.277 36.0704 77.0231 35.9595C76.7691 35.8486 76.4948 35.7913 76.2174 35.7913C75.9401 35.7913 75.6658 35.8486 75.4118 35.9595C75.1578 36.0704 74.9297 36.2325 74.742 36.4357C74.3334 36.8811 74.1188 37.4695 74.145 38.072ZM86.067 41.2326H84.9407V40.3528H84.8843C84.683 40.6817 84.3947 40.9492 84.0509 41.1261C83.6937 41.3276 83.2901 41.4338 82.8795 41.4344C82.5502 41.4556 82.2201 41.4077 81.9107 41.2938C81.6012 41.1798 81.3192 41.0025 81.0831 40.7731C80.6369 40.2479 80.4128 39.5709 80.458 38.8846V34.9226H81.6462V38.8117C81.6214 39.0223 81.6451 39.2357 81.7155 39.4357C81.786 39.6358 81.9013 39.8173 82.0527 39.9664C82.2042 40.1155 82.3878 40.2283 82.5896 40.2962C82.7914 40.3641 83.0061 40.3854 83.2174 40.3584C83.4455 40.3623 83.6714 40.3138 83.8775 40.2166C84.0836 40.1194 84.2643 39.9762 84.4057 39.798C84.7269 39.4131 84.897 38.9253 84.8843 38.425V34.9226H86.0782L86.067 41.2326ZM90.0991 41.4344C89.6938 41.4343 89.2933 41.3471 88.9249 41.1788C88.5566 41.0105 88.2291 40.7651 87.9648 40.4593C87.3732 39.8047 87.0514 38.9523 87.0637 38.072C87.0444 37.1963 87.3582 36.3456 87.9423 35.6903C88.2045 35.3817 88.5315 35.134 88.9002 34.9646C89.269 34.7952 89.6705 34.7082 90.0766 34.7096C90.5208 34.7021 90.96 34.8042 91.355 35.0066C91.7168 35.1842 92.0241 35.4551 92.2448 35.7912H92.2954L92.2673 34.9226V32.0029H93.4555V41.2326H92.3292V40.3528H92.2785C92.0579 40.6889 91.7506 40.9598 91.3888 41.1373C90.9904 41.3416 90.5472 41.4437 90.0991 41.4344ZM90.2962 40.3528C90.5681 40.3615 90.8384 40.3091 91.087 40.1995C91.3356 40.0898 91.5562 39.9258 91.7323 39.7196C92.1262 39.263 92.3279 38.6728 92.2954 38.072C92.3227 37.4753 92.1214 36.8905 91.7323 36.4357C91.5568 36.228 91.3366 36.0623 91.088 35.9507C90.8394 35.8392 90.5688 35.7846 90.2962 35.7912C90.024 35.787 89.7542 35.8426 89.506 35.954C89.2578 36.0654 89.0373 36.2298 88.8602 36.4357C88.4711 36.8905 88.2698 37.4753 88.2971 38.072C88.2658 38.6693 88.4675 39.2555 88.8602 39.7083C89.0373 39.9142 89.2578 40.0786 89.506 40.19C89.7542 40.3014 90.024 40.357 90.2962 40.3528Z" fill="white"/>
<path d="M20.8868 41.4352C19.4855 41.4398 18.1388 40.8948 17.1384 39.9182C16.1381 38.9417 15.5647 37.6122 15.5425 36.2179C15.5647 34.8237 16.1381 33.4942 17.1384 32.5177C18.1388 31.5411 19.4855 30.9961 20.8868 31.0007C21.5545 30.9896 22.2178 31.1113 22.8376 31.3586C23.4575 31.6059 24.0215 31.9739 24.4966 32.4409L23.4773 33.444C22.7823 32.7781 21.8515 32.4116 20.8868 32.4241C20.3873 32.4226 19.8925 32.5199 19.4311 32.7104C18.9697 32.901 18.5511 33.1809 18.1994 33.534C17.8478 33.887 17.5702 34.3061 17.3828 34.7669C17.1955 35.2277 17.1021 35.7209 17.108 36.2179C17.1021 36.715 17.1955 37.2082 17.3828 37.669C17.5702 38.1298 17.8478 38.5489 18.1994 38.9019C18.5511 39.255 18.9697 39.5349 19.4311 39.7255C19.8925 39.916 20.3873 40.0133 20.8868 40.0118C21.3789 40.0319 21.8697 39.949 22.3276 39.7685C22.7855 39.588 23.2002 39.3139 23.5449 38.9639C24.0044 38.4707 24.2806 37.8359 24.3277 37.165H20.8868V35.7472H25.7299C25.7827 36.0412 25.8072 36.3396 25.8031 36.6382C25.8413 37.868 25.3923 39.0635 24.5529 39.967C24.0806 40.4553 23.5097 40.8386 22.8778 41.0916C22.2459 41.3447 21.5674 41.4618 20.8868 41.4352Z" fill="#4285F4"/>
<path d="M33.2924 38.0727C33.3109 38.521 33.2382 38.9683 33.0785 39.3879C32.9189 39.8074 32.6757 40.1906 32.3635 40.5142C32.0513 40.8379 31.6766 41.0954 31.2619 41.2714C30.8471 41.4473 30.4009 41.538 29.9501 41.538C29.4993 41.538 29.0531 41.4473 28.6383 41.2714C28.2236 41.0954 27.8489 40.8379 27.5367 40.5142C27.2245 40.1906 26.9813 39.8074 26.8217 39.3879C26.6621 38.9683 26.5893 38.521 26.6078 38.0727C26.5893 37.6245 26.6621 37.1771 26.8217 36.7575C26.9813 36.338 27.2245 35.9548 27.5367 35.6312C27.8489 35.3075 28.2236 35.05 28.6383 34.874C29.0531 34.6981 29.4993 34.6074 29.9501 34.6074C30.4009 34.6074 30.8471 34.6981 31.2619 34.874C31.6766 35.05 32.0513 35.3075 32.3635 35.6312C32.6757 35.9548 32.9189 36.338 33.0785 36.7575C33.2382 37.1771 33.3109 37.6245 33.2924 38.0727ZM31.8282 38.0727C31.8531 37.8124 31.823 37.5498 31.7399 37.3017C31.6568 37.0536 31.5225 36.8255 31.3457 36.6321C31.1689 36.4386 30.9534 36.2841 30.7131 36.1783C30.4728 36.0726 30.2129 36.0179 29.9501 36.0179C29.6873 36.0179 29.4274 36.0726 29.1871 36.1783C28.9468 36.2841 28.7313 36.4386 28.5545 36.6321C28.3777 36.8255 28.2434 37.0536 28.1603 37.3017C28.0772 37.5498 28.0472 37.8124 28.072 38.0727C28.0472 38.333 28.0772 38.5956 28.1603 38.8437C28.2434 39.0918 28.3777 39.3199 28.5545 39.5133C28.7313 39.7068 28.9468 39.8613 29.1871 39.9671C29.4274 40.0728 29.6873 40.1275 29.9501 40.1275C30.2129 40.1275 30.4728 40.0728 30.7131 39.9671C30.9534 39.8613 31.1689 39.7068 31.3457 39.5133C31.5225 39.3199 31.6568 39.0918 31.7399 38.8437C31.823 38.5956 31.8531 38.333 31.8282 38.0727Z" fill="#EA4335"/>
<path d="M40.7885 38.0727C40.807 38.521 40.7343 38.9683 40.5746 39.3879C40.415 39.8074 40.1718 40.1906 39.8596 40.5142C39.5474 40.8379 39.1727 41.0954 38.758 41.2714C38.3432 41.4473 37.897 41.538 37.4462 41.538C36.9954 41.538 36.5492 41.4473 36.1344 41.2714C35.7197 41.0954 35.345 40.8379 35.0328 40.5142C34.7206 40.1906 34.4774 39.8074 34.3178 39.3879C34.1582 38.9683 34.0854 38.521 34.1039 38.0727C34.0854 37.6245 34.1582 37.1771 34.3178 36.7575C34.4774 36.338 34.7206 35.9548 35.0328 35.6312C35.345 35.3075 35.7197 35.05 36.1344 34.874C36.5492 34.6981 36.9954 34.6074 37.4462 34.6074C37.897 34.6074 38.3432 34.6981 38.758 34.874C39.1727 35.05 39.5474 35.3075 39.8596 35.6312C40.1718 35.9548 40.415 36.338 40.5746 36.7575C40.7343 37.1771 40.807 37.6245 40.7885 38.0727ZM39.3243 38.0727C39.3444 37.8147 39.3107 37.5554 39.2252 37.311C39.1398 37.0666 39.0045 36.8425 38.8279 36.6526C38.6513 36.4627 38.4371 36.3112 38.1989 36.2075C37.9606 36.1039 37.7034 36.0504 37.4434 36.0504C37.1834 36.0504 36.9262 36.1039 36.6879 36.2075C36.4496 36.3112 36.2355 36.4627 36.0588 36.6526C35.8822 36.8425 35.747 37.0666 35.6615 37.311C35.5761 37.5554 35.5424 37.8147 35.5625 38.0727C35.5424 38.3307 35.5761 38.59 35.6615 38.8344C35.747 39.0788 35.8822 39.3029 36.0588 39.4928C36.2355 39.6827 36.4496 39.8342 36.6879 39.9379C36.9262 40.0415 37.1834 40.095 37.4434 40.095C37.7034 40.095 37.9606 40.0415 38.1989 39.9379C38.4371 39.8342 38.6513 39.6827 38.8279 39.4928C39.0045 39.3029 39.1398 39.0788 39.2252 38.8344C39.3107 38.59 39.3444 38.3307 39.3243 38.0727Z" fill="#FBBC04"/>
<path d="M48.0934 34.9233V40.9531C48.0934 43.4301 46.6124 44.45 44.8666 44.45C44.2241 44.4535 43.5951 44.2668 43.0596 43.9135C42.5241 43.5602 42.1063 43.0564 41.8593 42.4662L43.1602 41.9058C43.2913 42.2494 43.5217 42.5467 43.8224 42.7601C44.1231 42.9735 44.4805 43.0936 44.8497 43.105C45.976 43.105 46.663 42.4158 46.663 41.1325V40.6505H46.6292C46.404 40.9035 46.1261 41.1047 45.815 41.2401C45.5038 41.3756 45.1667 41.4421 44.8272 41.4351C43.931 41.4351 43.0716 41.0808 42.4379 40.4503C41.8042 39.8197 41.4482 38.9645 41.4482 38.0727C41.4482 37.181 41.8042 36.3257 42.4379 35.6952C43.0716 35.0646 43.931 34.7104 44.8272 34.7104C45.1656 34.7041 45.5014 34.7699 45.8122 34.9033C46.123 35.0367 46.4015 35.2345 46.6292 35.4837H46.6799V34.9233H48.0934ZM46.7813 38.0951C46.802 37.8411 46.7711 37.5855 46.6904 37.3435C46.6097 37.1016 46.481 36.8783 46.3118 36.6869C46.1426 36.4955 45.9364 36.34 45.7055 36.2296C45.4747 36.1191 45.2238 36.0561 44.9679 36.0441C44.708 36.0534 44.4526 36.1141 44.2165 36.2226C43.9804 36.3312 43.7684 36.4854 43.5928 36.6763C43.4172 36.8672 43.2816 37.091 43.1938 37.3346C43.106 37.5782 43.0678 37.8367 43.0814 38.0951C43.0693 38.3518 43.1088 38.6083 43.1975 38.8497C43.2862 39.091 43.4223 39.3123 43.598 39.5007C43.7736 39.689 43.9853 39.8406 44.2205 39.9467C44.4557 40.0527 44.7098 40.111 44.9679 40.1182C45.2228 40.1091 45.4732 40.0488 45.704 39.9408C45.9347 39.8328 46.1411 39.6793 46.3106 39.4897C46.4801 39.3001 46.6092 39.0783 46.6901 38.8376C46.771 38.597 46.802 38.3425 46.7813 38.0895V38.0951Z" fill="#4285F4"/>
<path d="M50.7001 31.3594V41.2335H49.2134V31.3594H50.7001Z" fill="#34A853"/>
<path d="M56.5575 39.182L57.7176 39.9666C57.4079 40.4265 56.9888 40.8033 56.4976 41.0633C56.0064 41.3233 55.4582 41.4587 54.9018 41.4572C54.4592 41.4635 54.0199 41.3804 53.6106 41.2129C53.2012 41.0453 52.8302 40.7969 52.5201 40.4825C52.21 40.1682 51.9673 39.7945 51.8065 39.3841C51.6457 38.9737 51.5703 38.5351 51.5849 38.0949C51.5189 37.338 51.7352 36.5835 52.1924 35.9751C52.6496 35.3668 53.3158 34.9471 54.064 34.7961C54.8122 34.6451 55.5901 34.7734 56.2494 35.1564C56.9086 35.5395 57.4032 36.1506 57.6387 36.8732L57.7908 37.2599L53.2856 39.1148C53.426 39.4288 53.6576 39.6937 53.9507 39.8755C54.2438 40.0573 54.5849 40.1476 54.93 40.1347C55.2604 40.1272 55.5834 40.0358 55.8683 39.869C56.1531 39.7023 56.3904 39.4658 56.5575 39.182ZM53.004 37.9716L56.0338 36.7275C55.9125 36.5043 55.7288 36.3209 55.5049 36.1996C55.281 36.0782 55.0265 36.0241 54.7723 36.0438C54.5289 36.0546 54.29 36.1131 54.0694 36.2158C53.8487 36.3186 53.6506 36.4637 53.4863 36.6427C53.3221 36.8218 53.1949 37.0313 53.1122 37.2593C53.0294 37.4874 52.9927 37.7294 53.004 37.9716Z" fill="#EA4335"/>
</g>
<defs>
<clipPath id="clip0_438_9153">
<rect width="77.9122" height="13.4483" fill="white" transform="translate(15.543 31)"/>
</clipPath>
</defs>
</svg>
