<svg width="109" height="62" viewBox="0 0 109 62" fill="none" xmlns="http://www.w3.org/2000/svg">
<g opacity="0.9">
<rect x="0.5" y="0.500977" width="108" height="61" rx="3.08643" stroke="white" stroke-opacity="0.03"/>
</g>
<path d="M80.7023 34.0017H79.778V35.6064H78.7015V34.0017H75.5834V33.1486L78.6913 28.3242H79.778V33.0876H80.7023V34.0017ZM78.7015 31.1173C78.7015 30.9548 78.7015 30.799 78.7015 30.6501C78.7082 30.5011 78.715 30.3589 78.7218 30.2235C78.7285 30.0813 78.7319 29.9527 78.7319 29.8375C78.7387 29.7157 78.7455 29.6073 78.7522 29.5125H78.7116C78.6574 29.648 78.5931 29.7868 78.5186 29.929C78.4509 30.0711 78.3832 30.1964 78.3155 30.3047L76.6092 33.0876H78.7015V31.1173ZM81.4951 35.0072C81.4951 34.7431 81.5595 34.5569 81.6881 34.4486C81.8235 34.3403 81.9894 34.2861 82.1858 34.2861C82.3754 34.2861 82.5379 34.3403 82.6733 34.4486C82.8155 34.5569 82.8866 34.7431 82.8866 35.0072C82.8866 35.2713 82.8155 35.4609 82.6733 35.576C82.5379 35.6911 82.3754 35.7486 82.1858 35.7486C81.9894 35.7486 81.8235 35.6911 81.6881 35.576C81.5595 35.4609 81.4951 35.2713 81.4951 35.0072ZM86.2462 28.2531C86.6525 28.2531 87.0114 28.3208 87.3228 28.4563C87.6411 28.5849 87.8882 28.7779 88.0643 29.0352C88.2471 29.2925 88.3385 29.6141 88.3385 30C88.3385 30.2912 88.2809 30.5451 88.1658 30.7618C88.0575 30.9785 87.9051 31.1714 87.7088 31.3407C87.5192 31.5032 87.3093 31.6454 87.0791 31.7673C87.3431 31.9095 87.5869 32.072 87.8103 32.2548C88.0338 32.4308 88.2132 32.6374 88.3486 32.8743C88.4908 33.1113 88.5619 33.3957 88.5619 33.7275C88.5619 34.1338 88.4671 34.4858 88.2775 34.7838C88.0947 35.0749 87.8307 35.3017 87.4853 35.4643C87.14 35.6268 86.7304 35.708 86.2564 35.708C85.7486 35.708 85.3186 35.6301 84.9665 35.4744C84.6212 35.3187 84.3605 35.0986 84.1845 34.8142C84.0084 34.5231 83.9204 34.171 83.9204 33.758C83.9204 33.4262 83.9813 33.1384 84.1032 32.8947C84.2319 32.6509 84.3977 32.441 84.6009 32.265C84.8108 32.0889 85.041 31.9399 85.2915 31.8181C85.0748 31.6826 84.8785 31.5303 84.7024 31.361C84.5264 31.185 84.3876 30.9852 84.286 30.7618C84.1912 30.5383 84.1438 30.281 84.1438 29.9899C84.1438 29.6107 84.2352 29.2959 84.4181 29.0453C84.6009 28.788 84.8514 28.5917 85.1696 28.4563C85.4879 28.3208 85.8467 28.2531 86.2462 28.2531ZM84.9767 33.7376C84.9767 34.0694 85.0816 34.3437 85.2915 34.5603C85.5014 34.7702 85.8163 34.8752 86.2361 34.8752C86.5205 34.8752 86.7541 34.8278 86.9369 34.733C87.1197 34.6314 87.2585 34.496 87.3533 34.3267C87.4549 34.1507 87.5056 33.9509 87.5056 33.7275C87.5056 33.504 87.4515 33.3077 87.3431 33.1384C87.2348 32.9691 87.0858 32.8202 86.8963 32.6915C86.7134 32.5561 86.5035 32.4342 86.2665 32.3259L86.1345 32.265C85.8908 32.3801 85.6809 32.5087 85.5048 32.6509C85.3355 32.7931 85.2035 32.9522 85.1087 33.1283C85.0207 33.3043 84.9767 33.5074 84.9767 33.7376ZM86.2259 29.0961C85.928 29.0961 85.6809 29.1774 85.4845 29.3399C85.2949 29.5024 85.2001 29.7394 85.2001 30.0508C85.2001 30.2743 85.2475 30.4639 85.3423 30.6196C85.4439 30.7753 85.5725 30.9107 85.7283 31.0259C85.8908 31.1342 86.0668 31.2391 86.2564 31.3407C86.446 31.2459 86.6153 31.1443 86.7642 31.036C86.9199 30.9209 87.0418 30.7855 87.1299 30.6298C87.2246 30.4672 87.272 30.2743 87.272 30.0508C87.272 29.7394 87.1739 29.5024 86.9775 29.3399C86.7879 29.1774 86.5374 29.0961 86.2259 29.0961Z" fill="#F0F0F0"/>
<path d="M17.3503 9.5326C17.8032 9.5326 18.1771 9.59316 18.472 9.71429C18.7669 9.83541 18.9855 10.0171 19.1277 10.2594C19.2751 10.4963 19.3489 10.7965 19.3489 11.1599C19.3489 11.4495 19.2988 11.6944 19.1988 11.8946C19.104 12.0894 18.9776 12.25 18.8196 12.3764C18.6669 12.4976 18.501 12.595 18.3219 12.6687L19.8149 15.1729H18.8196L17.5636 12.8899H16.7025V15.1729H15.8257V9.5326H17.3503ZM17.3108 10.2594H16.7025V12.1789H17.3266C17.5846 12.1789 17.7953 12.1421 17.9585 12.0683C18.1271 11.9946 18.2508 11.884 18.3298 11.7366C18.4141 11.5891 18.4562 11.4074 18.4562 11.1915C18.4562 10.965 18.4141 10.786 18.3298 10.6543C18.2508 10.5174 18.1244 10.4173 17.9506 10.3541C17.7821 10.291 17.5688 10.2594 17.3108 10.2594ZM22.0869 10.836C22.5872 10.836 22.9637 10.9545 23.2165 11.1915C23.4746 11.4232 23.6036 11.7892 23.6036 12.2895V15.1729H22.9953L22.8294 14.5804H22.7979C22.6767 14.7331 22.5556 14.8595 22.4345 14.9596C22.3186 15.0596 22.1817 15.1334 22.0237 15.1808C21.871 15.2281 21.6814 15.2518 21.4549 15.2518C21.2179 15.2518 21.0047 15.2071 20.8151 15.1176C20.6255 15.0228 20.4754 14.8806 20.3648 14.691C20.2542 14.4961 20.1989 14.2539 20.1989 13.9642C20.1989 13.5324 20.3516 13.2032 20.6571 12.9768C20.9678 12.7503 21.4391 12.6266 22.0711 12.6055L22.7505 12.5818V12.3448C22.7505 12.0288 22.6846 11.8077 22.553 11.6813C22.4266 11.5549 22.2475 11.4917 22.0158 11.4917C21.8209 11.4917 21.6287 11.5233 21.4391 11.5865C21.2495 11.6497 21.0652 11.726 20.8862 11.8156L20.6255 11.2073C20.8203 11.102 21.0415 11.0151 21.289 10.9466C21.5418 10.8729 21.8078 10.836 22.0869 10.836ZM22.237 13.1427C21.8051 13.1637 21.505 13.2454 21.3364 13.3876C21.1679 13.5245 21.0837 13.7193 21.0837 13.9721C21.0837 14.1933 21.1416 14.3539 21.2574 14.454C21.3786 14.5541 21.5339 14.6041 21.7235 14.6041C22.0132 14.6041 22.2554 14.5119 22.4503 14.3276C22.6504 14.1433 22.7505 13.8668 22.7505 13.4982V13.1269L22.237 13.1427ZM26.2888 14.5725C26.3994 14.5725 26.5074 14.562 26.6127 14.5409C26.718 14.5198 26.8102 14.4961 26.8892 14.4698V15.1018C26.7997 15.1439 26.6812 15.1781 26.5337 15.2044C26.3915 15.236 26.2414 15.2518 26.0834 15.2518C25.8622 15.2518 25.6595 15.2123 25.4752 15.1334C25.2908 15.0544 25.1434 14.9174 25.0328 14.7226C24.9222 14.5277 24.8669 14.2565 24.8669 13.9089V11.5549H24.3218V11.1757L24.9064 10.8597L25.1987 9.95917H25.728V10.915H26.8576V11.5549H25.728V13.8931C25.728 14.1248 25.7806 14.296 25.8859 14.4066C25.9913 14.5172 26.1256 14.5725 26.2888 14.5725ZM29.2921 10.836C29.645 10.836 29.9504 10.915 30.2085 11.073C30.4665 11.2257 30.664 11.4469 30.8009 11.7366C30.9431 12.0262 31.0142 12.3685 31.0142 12.7635V13.2217H28.3363C28.3468 13.6588 28.4521 13.9932 28.6523 14.2249C28.8524 14.4566 29.1341 14.5725 29.4975 14.5725C29.7556 14.5725 29.9846 14.5488 30.1848 14.5014C30.3901 14.4487 30.5982 14.3724 30.8088 14.2723V14.9675C30.6087 15.0623 30.4033 15.1334 30.1927 15.1808C29.9873 15.2281 29.7371 15.2518 29.4422 15.2518C29.0578 15.2518 28.7154 15.1702 28.4153 15.007C28.1151 14.8437 27.8807 14.6015 27.7122 14.2802C27.5437 13.9537 27.4594 13.5535 27.4594 13.0795C27.4594 12.6002 27.5358 12.1947 27.6885 11.863C27.8412 11.5312 28.0545 11.2784 28.3284 11.1046C28.6075 10.9255 28.9287 10.836 29.2921 10.836ZM29.2921 11.4838C29.0235 11.4838 28.8076 11.5812 28.6444 11.7761C28.4811 11.9709 28.3863 12.2474 28.36 12.6055H30.169C30.169 12.3843 30.1374 12.1895 30.0742 12.0209C30.011 11.8524 29.9135 11.7208 29.7819 11.626C29.6555 11.5312 29.4922 11.4838 29.2921 11.4838ZM37.4769 13.04C37.4769 13.3928 37.4321 13.7062 37.3426 13.98C37.2531 14.2539 37.124 14.4856 36.9555 14.6752C36.7922 14.8648 36.5921 15.0096 36.3551 15.1097C36.1182 15.2044 35.8522 15.2518 35.5573 15.2518C35.2887 15.2518 35.0386 15.2044 34.8068 15.1097C34.5751 15.0096 34.375 14.8648 34.2065 14.6752C34.038 14.4856 33.9063 14.2539 33.8115 13.98C33.722 13.7062 33.6772 13.3902 33.6772 13.0321C33.6772 12.5634 33.7536 12.1658 33.9063 11.8393C34.059 11.5127 34.2776 11.2652 34.562 11.0967C34.8516 10.9229 35.1939 10.836 35.5889 10.836C35.9575 10.836 36.284 10.9229 36.5684 11.0967C36.8528 11.2652 37.074 11.5127 37.232 11.8393C37.3952 12.1658 37.4769 12.566 37.4769 13.04ZM34.562 13.04C34.562 13.356 34.5962 13.6298 34.6646 13.8615C34.7384 14.088 34.849 14.2618 34.9964 14.3829C35.1491 14.504 35.3414 14.5646 35.5731 14.5646C35.8101 14.5646 36.0023 14.504 36.1498 14.3829C36.3025 14.2618 36.4131 14.088 36.4815 13.8615C36.5553 13.6298 36.5921 13.356 36.5921 13.04C36.5921 12.7135 36.5553 12.4396 36.4815 12.2184C36.4078 11.9972 36.2972 11.8287 36.1498 11.7129C36.0023 11.5917 35.8074 11.5312 35.5652 11.5312C35.2123 11.5312 34.9569 11.6628 34.7989 11.9262C34.6409 12.1895 34.562 12.5607 34.562 13.04ZM40.5353 10.836C40.9988 10.836 41.3543 10.9598 41.6018 11.2073C41.8546 11.4548 41.981 11.8524 41.981 12.4001V15.1729H41.1278V12.5186C41.1278 12.1868 41.062 11.9393 40.9303 11.7761C40.8039 11.6075 40.6064 11.5233 40.3379 11.5233C39.9429 11.5233 39.6717 11.6523 39.5242 11.9104C39.3767 12.1684 39.303 12.5397 39.303 13.0242V15.1729H38.4499V10.915H39.1213L39.2398 11.4838H39.2872C39.3767 11.3363 39.4847 11.2152 39.6111 11.1204C39.7375 11.0256 39.8797 10.9545 40.0377 10.9071C40.1957 10.8597 40.3616 10.836 40.5353 10.836Z" fill="#F0F0F0"/>
<path d="M30.895 19.7148H33.4536V35.5981H30.895V19.7148Z" fill="white"/>
<path d="M42.3531 30.5654C42.3531 33.0264 40.3507 33.2501 39.6833 33.2501C38.1258 33.2501 37.9034 31.7959 37.9034 31.0129V24.8604H35.3447V30.901C35.3447 32.3552 35.7897 33.6976 36.6797 34.4806C37.4584 35.2637 38.4596 35.5993 39.6833 35.5993C40.5732 35.5993 41.6857 35.3755 42.3531 34.7043V35.5993H44.9118V24.8604H42.3531V30.5654Z" fill="white"/>
<path d="M49.9171 20.9453H47.3584V24.8602H45.4673V27.321H47.3584V35.5982H49.9171V27.321H51.8082V24.8602H49.9171V20.9453Z" fill="white"/>
<path d="M59.819 32.3553C59.2628 32.8028 58.4841 33.1384 57.7054 33.1384C55.9255 33.1384 54.7018 31.796 54.7018 30.0062C54.7018 28.2164 55.9255 26.9859 57.7054 26.9859C58.4841 26.9859 59.2628 27.2096 59.819 27.7689L60.1528 28.1045L61.9327 26.4265L61.4877 26.0909C60.4865 25.196 59.1516 24.6367 57.7054 24.6367C54.5905 24.6367 52.2544 26.9859 52.2544 30.118C52.2544 33.2502 54.5905 35.5993 57.7054 35.5993C59.1516 35.5993 60.4865 35.04 61.4877 34.1451L61.9327 33.8095L60.1528 32.0197L59.819 32.3553Z" fill="white"/>
<path d="M70.9439 25.755C70.1651 24.972 69.3864 24.6364 68.1627 24.6364C67.2728 24.6364 66.3828 24.8601 65.7154 25.5313V19.7148H63.1567V35.5981H65.7154V29.6699C65.7154 27.2091 67.384 26.9854 68.0515 26.9854C69.6089 26.9854 69.4977 28.4395 69.4977 29.2224V35.4863H72.0563V29.3343C72.0563 27.8802 71.7226 26.5379 70.9439 25.755Z" fill="white"/>
<path d="M57.5934 31.9068C58.5764 31.9068 59.3733 31.1055 59.3733 30.117C59.3733 29.1285 58.5764 28.3271 57.5934 28.3271C56.6104 28.3271 55.8135 29.1285 55.8135 30.117C55.8135 31.1055 56.6104 31.9068 57.5934 31.9068Z" fill="#EF4335"/>
<path d="M27.3351 31.6833C26.4451 32.5781 25.1102 33.1374 23.664 33.1374C20.8829 33.1374 18.8805 30.9003 18.8805 27.8803C18.8805 24.8602 20.8829 22.6231 23.7752 22.6231C25.1102 22.6231 26.4451 23.1824 27.4463 24.1891L27.78 24.5247L29.4487 22.8468L29.115 22.5113C27.6688 21.0572 25.7776 20.2742 23.7752 20.2742C19.548 20.1623 16.4331 23.518 16.4331 27.8803C16.4331 32.2426 19.548 35.5982 23.664 35.5982C25.6664 35.5982 27.6688 34.8152 29.0037 33.3611L29.3375 33.0256L27.6688 31.3478L27.3351 31.6833Z" fill="white"/>
<path d="M35.0905 42.0495L34.0639 44.1502C34.0117 44.2571 33.9345 44.3496 33.8391 44.4197C33.7436 44.4898 33.6327 44.5353 33.5159 44.5525L31.2213 44.8895C31.1138 44.9052 31.0127 44.951 30.9296 45.0217C30.8465 45.0925 30.7847 45.1853 30.7511 45.2897C30.7176 45.3941 30.7136 45.5059 30.7397 45.6125C30.7658 45.719 30.8209 45.8161 30.8988 45.8926L32.5598 47.528C32.6441 47.6111 32.7072 47.7136 32.7437 47.8268C32.7801 47.94 32.7888 48.0604 32.769 48.1778L32.3769 50.487C32.3587 50.5951 32.3708 50.7062 32.4118 50.8077C32.4528 50.9093 32.5211 50.9972 32.609 51.0616C32.6969 51.1259 32.8008 51.1642 32.9091 51.172C33.0174 51.1799 33.1257 51.1569 33.2218 51.1059L35.2743 50.0158C35.3787 49.9603 35.495 49.9313 35.613 49.9313C35.731 49.9313 35.8472 49.9603 35.9516 50.0158L38.0041 51.1059C38.1002 51.1569 38.2085 51.1799 38.3168 51.172C38.4251 51.1642 38.529 51.1259 38.6169 51.0616C38.7048 50.9972 38.7731 50.9093 38.8141 50.8077C38.8552 50.7062 38.8672 50.5951 38.849 50.487L38.4569 48.1778C38.4371 48.0604 38.4458 47.94 38.4822 47.8268C38.5187 47.7136 38.5818 47.611 38.6662 47.528L40.3272 45.8926C40.405 45.8161 40.4601 45.719 40.4862 45.6125C40.5123 45.5059 40.5084 45.3941 40.4748 45.2897C40.4412 45.1853 40.3794 45.0925 40.2963 45.0217C40.2132 44.951 40.1121 44.9052 40.0046 44.8895L37.7091 44.5525C37.5923 44.5353 37.4814 44.4898 37.3859 44.4197C37.2905 44.3496 37.2133 44.2571 37.1611 44.1502L36.1345 42.0495C36.0865 41.9511 36.0121 41.8683 35.9198 41.8103C35.8276 41.7524 35.7211 41.7217 35.6125 41.7217C35.5039 41.7217 35.3974 41.7524 35.3052 41.8103C35.2129 41.8683 35.1385 41.9511 35.0905 42.0495Z" fill="#FFAF00"/>
<path d="M49.3614 42.0496L48.3349 44.1503C48.2826 44.2572 48.2055 44.3497 48.11 44.4197C48.0145 44.4898 47.9036 44.5354 47.7868 44.5525L45.4914 44.8895C45.3838 44.9052 45.2828 44.951 45.1997 45.0218C45.1166 45.0925 45.0547 45.1853 45.0211 45.2897C44.9876 45.3941 44.9836 45.5059 45.0097 45.6125C45.0358 45.7191 45.0909 45.8161 45.1688 45.8927L46.8298 47.528C46.9141 47.6111 46.9772 47.7137 47.0137 47.8268C47.0501 47.94 47.0588 48.0605 47.039 48.1778L46.6469 50.487C46.6287 50.5951 46.6408 50.7062 46.6818 50.8078C46.7228 50.9093 46.7911 50.9972 46.879 51.0616C46.9669 51.126 47.0709 51.1642 47.1791 51.1721C47.2874 51.1799 47.3957 51.157 47.4918 51.1059L49.5443 50.0158C49.6488 49.9603 49.765 49.9314 49.883 49.9314C50.001 49.9314 50.1172 49.9603 50.2216 50.0158L52.2742 51.1059C52.3702 51.157 52.4785 51.1799 52.5868 51.1721C52.6951 51.1642 52.7991 51.126 52.8869 51.0616C52.9748 50.9972 53.0431 50.9093 53.0842 50.8078C53.1252 50.7062 53.1373 50.5951 53.1191 50.487L52.7269 48.1778C52.7071 48.0605 52.7158 47.94 52.7522 47.8268C52.7887 47.7136 52.8518 47.6111 52.9362 47.528L54.5972 45.8927C54.6751 45.8161 54.7302 45.7191 54.7563 45.6125C54.7823 45.5059 54.7784 45.3941 54.7448 45.2897C54.7112 45.1853 54.6494 45.0925 54.5663 45.0218C54.4832 44.951 54.3822 44.9052 54.2746 44.8895L51.9791 44.5525C51.8624 44.5354 51.7514 44.4898 51.656 44.4197C51.5605 44.3497 51.4833 44.2572 51.4311 44.1503L50.4045 42.0496C50.3564 41.9514 50.282 41.8688 50.1899 41.811C50.0977 41.7533 49.9914 41.7227 49.883 41.7227C49.7745 41.7227 49.6682 41.7533 49.5761 41.811C49.4839 41.8688 49.4096 41.9514 49.3614 42.0496Z" fill="#FFAF00"/>
<path d="M63.6306 42.0486L62.6041 44.1493C62.5519 44.2562 62.4747 44.3486 62.3792 44.4187C62.2837 44.4888 62.1728 44.5344 62.056 44.5515L59.7609 44.8885C59.6533 44.9042 59.5523 44.95 59.4692 45.0208C59.3861 45.0915 59.3242 45.1843 59.2907 45.2887C59.2571 45.3931 59.2531 45.5049 59.2792 45.6115C59.3053 45.718 59.3604 45.8151 59.4383 45.8916L61.0993 47.527C61.1837 47.6101 61.2468 47.7126 61.2832 47.8258C61.3197 47.939 61.3284 48.0594 61.3085 48.1768L60.9164 50.486C60.8982 50.5941 60.9103 50.7052 60.9513 50.8068C60.9923 50.9083 61.0607 50.9962 61.1485 51.0606C61.2364 51.125 61.3404 51.1632 61.4487 51.171C61.557 51.1789 61.6653 51.156 61.7613 51.1049L63.8138 50.0148C63.9183 49.9593 64.0345 49.9303 64.1525 49.9303C64.2705 49.9303 64.3867 49.9593 64.4912 50.0148L66.5437 51.1049C66.6398 51.156 66.7481 51.1789 66.8563 51.171C66.9646 51.1632 67.0686 51.125 67.1565 51.0606C67.2444 50.9962 67.3127 50.9083 67.3537 50.8068C67.3947 50.7052 67.4068 50.5941 67.3886 50.486L66.9965 48.1768C66.9766 48.0594 66.9853 47.939 67.0218 47.8258C67.0582 47.7126 67.1213 47.6101 67.2057 47.527L68.8667 45.8916C68.9446 45.8151 68.9997 45.718 69.0258 45.6115C69.0519 45.5049 69.0479 45.3931 69.0143 45.2887C68.9808 45.1843 68.9189 45.0915 68.8358 45.0208C68.7527 44.95 68.6517 44.9042 68.5441 44.8885L66.2487 44.5515C66.1319 44.5344 66.021 44.4888 65.9255 44.4187C65.83 44.3486 65.7528 44.2562 65.7006 44.1493L64.6747 42.0486C64.6266 41.9501 64.5523 41.8673 64.46 41.8093C64.3678 41.7514 64.2613 41.7207 64.1527 41.7207C64.044 41.7207 63.9376 41.7514 63.8453 41.8093C63.7531 41.8673 63.6787 41.9501 63.6306 42.0486Z" fill="#FFAF00"/>
<path d="M78.948 42.0498L79.9745 44.1505C80.0268 44.2574 80.1039 44.3499 80.1994 44.4199C80.2949 44.49 80.4058 44.5356 80.5226 44.5527L82.8177 44.8897C82.9253 44.9054 83.0263 44.9513 83.1094 45.022C83.1925 45.0927 83.2544 45.1855 83.2879 45.2899C83.3215 45.3943 83.3255 45.5062 83.2994 45.6127C83.2733 45.7193 83.2182 45.8163 83.1403 45.8929L81.4793 47.5282C81.395 47.6113 81.3319 47.7139 81.2954 47.8271C81.259 47.9402 81.2503 48.0607 81.2701 48.178L81.6622 50.4873C81.6804 50.5954 81.6683 50.7065 81.6273 50.808C81.5863 50.9095 81.518 50.9974 81.4301 51.0618C81.3422 51.1262 81.2382 51.1644 81.1299 51.1723C81.0217 51.1801 80.9134 51.1572 80.8173 51.1061L78.7648 50.016C78.6603 49.9606 78.5441 49.9316 78.4261 49.9316C78.3081 49.9316 78.1919 49.9606 78.0874 50.016L76.0349 51.1061C75.9389 51.1572 75.8306 51.1801 75.7223 51.1723C75.614 51.1644 75.51 51.1262 75.4221 51.0618C75.3342 50.9974 75.2659 50.9095 75.2249 50.808C75.1839 50.7065 75.1718 50.5954 75.19 50.4873L75.5821 48.178C75.602 48.0607 75.5933 47.9402 75.5568 47.827C75.5204 47.7139 75.4573 47.6113 75.3729 47.5282L73.7119 45.8929C73.634 45.8163 73.5789 45.7193 73.5528 45.6127C73.5267 45.5062 73.5307 45.3943 73.5643 45.2899C73.5978 45.1855 73.6597 45.0927 73.7428 45.022C73.8259 44.9513 73.9269 44.9054 74.0345 44.8897L76.3299 44.5527C76.4467 44.5356 76.5576 44.49 76.6531 44.4199C76.7486 44.3499 76.8258 44.2574 76.878 44.1505L77.9018 42.0498C77.9496 41.9508 78.024 41.8674 78.1165 41.809C78.209 41.7507 78.3158 41.7197 78.4249 41.7197C78.5339 41.7197 78.6408 41.7507 78.7333 41.809C78.8257 41.8674 78.9001 41.9508 78.948 42.0498Z" fill="#FFAF00"/>
<path d="M80.8173 51.1064L79.4194 50.3638V43.0137L79.9742 44.1493C80.0264 44.2562 80.1036 44.3487 80.1991 44.4187C80.2946 44.4888 80.4055 44.5344 80.5223 44.5515L82.8177 44.8885C82.9253 44.9042 83.0263 44.95 83.1094 45.0208C83.1925 45.0915 83.2544 45.1843 83.2879 45.2887C83.3215 45.3931 83.3255 45.5049 83.2994 45.6115C83.2733 45.7181 83.2182 45.8151 83.1403 45.8917L81.4793 47.527C81.395 47.6101 81.3319 47.7127 81.2954 47.8258C81.259 47.939 81.2503 48.0595 81.2701 48.1768L81.6622 50.486C81.6807 50.5943 81.6689 50.7056 81.628 50.8073C81.5872 50.9091 81.5189 50.9973 81.4309 51.0619C81.343 51.1265 81.2389 51.1649 81.1304 51.1727C81.022 51.1806 80.9135 51.1577 80.8173 51.1064Z" fill="#FDE3AC"/>
<path d="M20.8233 42.0508L19.7968 44.1518C19.7446 44.2587 19.6674 44.3512 19.5719 44.4213C19.4764 44.4914 19.3655 44.5369 19.2487 44.5541L16.9533 44.8911C16.8457 44.9068 16.7447 44.9526 16.6616 45.0233C16.5785 45.0941 16.5166 45.1869 16.4831 45.2913C16.4495 45.3957 16.4455 45.5075 16.4716 45.6141C16.4977 45.7206 16.5528 45.8177 16.6307 45.8942L18.2917 47.5295C18.376 47.6127 18.4391 47.7152 18.4756 47.8284C18.512 47.9416 18.5207 48.062 18.5009 48.1793L18.1088 50.4886C18.0906 50.5967 18.1027 50.7078 18.1437 50.8093C18.1847 50.9109 18.253 50.9988 18.3409 51.0632C18.4288 51.1275 18.5328 51.1658 18.6411 51.1736C18.7493 51.1814 18.8576 51.1585 18.9537 51.1075L21.0062 50.0173C21.1107 49.9619 21.2269 49.9329 21.3449 49.9329C21.4629 49.9329 21.5791 49.9619 21.6836 50.0173L23.7361 51.1075C23.8321 51.1585 23.9404 51.1814 24.0487 51.1736C24.157 51.1658 24.261 51.1275 24.3489 51.0632C24.4368 50.9988 24.5051 50.9109 24.5461 50.8093C24.5871 50.7078 24.5992 50.5967 24.581 50.4886L24.1889 48.1793C24.169 48.062 24.1777 47.9416 24.2142 47.8284C24.2506 47.7152 24.3137 47.6126 24.3981 47.5295L26.0591 45.8942C26.137 45.8177 26.1921 45.7206 26.2182 45.6141C26.2443 45.5075 26.2403 45.3957 26.2067 45.2913C26.1731 45.1869 26.1113 45.0941 26.0282 45.0233C25.9451 44.9526 25.8441 44.9068 25.7365 44.8911L23.4423 44.5538C23.3255 44.5366 23.2146 44.4911 23.1191 44.421C23.0236 44.3509 22.9465 44.2584 22.8942 44.1515L21.8677 42.0508C21.8196 41.9523 21.7453 41.8694 21.653 41.8114C21.5607 41.7534 21.4542 41.7227 21.3455 41.7227C21.2368 41.7227 21.1303 41.7534 21.038 41.8114C20.9457 41.8694 20.8714 41.9523 20.8233 42.0508Z" fill="#E2E2E2"/>
<path d="M21.8464 42.0505L22.873 44.1512C22.9252 44.2582 23.0024 44.3506 23.0979 44.4207C23.1933 44.4908 23.3043 44.5364 23.421 44.5535L25.7165 44.8905C25.824 44.9062 25.9251 44.952 26.0082 45.0228C26.0913 45.0935 26.1531 45.1863 26.1867 45.2907C26.2203 45.3951 26.2242 45.5069 26.1981 45.6135C26.1721 45.72 26.117 45.8171 26.0391 45.8936L24.3781 47.529C24.2937 47.6121 24.2306 47.7146 24.1942 47.8278C24.1577 47.941 24.149 48.0614 24.1688 48.1788L24.561 50.488C24.5792 50.5961 24.5671 50.7072 24.5261 50.8087C24.485 50.9103 24.4167 50.9982 24.3288 51.0626C24.241 51.1269 24.137 51.1652 24.0287 51.173C23.9204 51.1809 23.8121 51.158 23.716 51.1069L21.6635 50.0168C21.5591 49.9613 21.4429 49.9323 21.3249 49.9323C21.2069 49.9323 21.0907 49.9613 20.9862 50.0168L18.9337 51.1069C18.8376 51.158 18.7293 51.1809 18.621 51.173C18.5127 51.1652 18.4088 51.1269 18.3209 51.0626C18.233 50.9982 18.1647 50.9103 18.1237 50.8087C18.0827 50.7072 18.0706 50.5961 18.0888 50.488L18.4809 48.1788C18.5007 48.0614 18.4921 47.941 18.4556 47.8278C18.4192 47.7146 18.356 47.6121 18.2717 47.529L16.6107 45.8936C16.5328 45.8171 16.4777 45.72 16.4516 45.6135C16.4255 45.5069 16.4295 45.3951 16.463 45.2907C16.4966 45.1863 16.5584 45.0935 16.6415 45.0228C16.7246 44.952 16.8257 44.9062 16.9333 44.8905L19.2287 44.5535C19.3455 44.5364 19.4564 44.4908 19.5519 44.4207C19.6474 44.3506 19.7245 44.2582 19.7768 44.1512L20.8033 42.0505C20.8515 41.9524 20.9258 41.8698 21.018 41.812C21.1101 41.7542 21.2164 41.7236 21.3249 41.7236C21.4333 41.7236 21.5396 41.7542 21.6318 41.812C21.7239 41.8698 21.7983 41.9524 21.8464 42.0505Z" fill="#FFAF00"/>
</svg>
