<svg width="99" height="16" viewBox="0 0 99 16" fill="none" xmlns="http://www.w3.org/2000/svg">
<path d="M8.42655 0.480901L10.2072 4.17041C10.3375 4.43937 10.5894 4.62317 10.8786 4.66067L14.4314 5.1103H14.4313C14.6549 5.14088 14.8584 5.25976 14.9988 5.44184C15.1393 5.62392 15.2059 5.8551 15.1846 6.08672C15.1633 6.31836 15.0558 6.53245 14.8846 6.6841L12.1123 9.11906C11.992 9.22351 11.9015 9.35949 11.85 9.51271C11.7986 9.66578 11.7883 9.83046 11.8202 9.98916L12.6462 14.09C12.6924 14.3188 12.6505 14.5571 12.5293 14.7545C12.4081 14.952 12.2172 15.093 11.9969 15.1477C11.7767 15.2024 11.5444 15.1667 11.3493 15.0478L8.02759 13.04C7.89501 12.9611 7.7448 12.9196 7.5917 12.9196C7.43861 12.9196 7.28839 12.9611 7.15582 13.04L3.83853 15.0634H3.83838C3.64331 15.1823 3.41113 15.2182 3.19084 15.1635C2.97069 15.1088 2.77975 14.9678 2.65854 14.7703C2.53722 14.5729 2.49541 14.3345 2.54147 14.1057L3.36323 9.98876C3.39516 9.83004 3.38482 9.66537 3.33343 9.51231C3.28189 9.35908 3.19143 9.22311 3.07116 9.11866L0.303016 6.71284C0.131671 6.56071 0.0243285 6.34585 0.00365335 6.11357C-0.0170238 5.8813 0.0506319 5.64981 0.192334 5.4679C0.334032 5.28613 0.538675 5.16819 0.762926 5.13902L4.63396 4.66915C4.94229 4.63151 5.2079 4.42779 5.33151 4.13404L6.8572 0.5366V0.536757C6.94584 0.329266 7.107 0.163964 7.30877 0.0739579C7.51037 -0.0160646 7.73769 -0.0242187 7.9449 0.0512171C8.15213 0.126497 8.32409 0.279879 8.42656 0.480452L8.42655 0.480901Z" fill="#FF9F00"/>
<path d="M30.1502 0.480901L31.9308 4.17041C32.0611 4.43937 32.3131 4.62317 32.6022 4.66067L36.1551 5.1103H36.1549C36.3785 5.14088 36.582 5.25976 36.7225 5.44184C36.8629 5.62392 36.9295 5.8551 36.9082 6.08672C36.887 6.31836 36.7795 6.53245 36.6083 6.6841L33.8359 9.11906C33.7156 9.22351 33.6252 9.35949 33.5736 9.51271C33.5222 9.66578 33.5119 9.83046 33.5438 9.98916L34.3699 14.09C34.4161 14.3188 34.3741 14.5571 34.2529 14.7545C34.1318 14.952 33.9408 15.093 33.7205 15.1477C33.5003 15.2024 33.268 15.1667 33.0729 15.0478L29.7512 13.04C29.6186 12.9611 29.4684 12.9196 29.3153 12.9196C29.1622 12.9196 29.012 12.9611 28.8795 13.04L25.5622 15.0634H25.562C25.3669 15.1823 25.1348 15.2182 24.9145 15.1635C24.6943 15.1088 24.5034 14.9678 24.3822 14.7703C24.2608 14.5729 24.219 14.3345 24.2651 14.1057L25.0869 9.98876C25.1188 9.83004 25.1084 9.66537 25.0571 9.51231C25.0055 9.35908 24.9151 9.22311 24.7948 9.11866L22.0266 6.71284C21.8553 6.56071 21.748 6.34585 21.7273 6.11357C21.7066 5.8813 21.7743 5.64981 21.916 5.4679C22.0577 5.28613 22.2623 5.16819 22.4866 5.13902L26.3576 4.66915C26.6659 4.63151 26.9315 4.42779 27.0551 4.13404L28.5808 0.5366V0.536757C28.6695 0.329266 28.8306 0.163964 29.0324 0.0739579C29.234 -0.0160646 29.4613 -0.0242187 29.6685 0.0512171C29.8758 0.126497 30.0477 0.279879 30.1502 0.480452L30.1502 0.480901Z" fill="#FF9F00"/>
<path d="M51.8758 0.480901L53.6564 4.17041C53.7867 4.43937 54.0387 4.62317 54.3278 4.66067L57.8806 5.1103H57.8805C58.1041 5.14088 58.3076 5.25976 58.448 5.44184C58.5885 5.62392 58.6551 5.8551 58.6338 6.08672C58.6125 6.31836 58.5051 6.53245 58.3339 6.6841L55.5615 9.11906C55.4412 9.22351 55.3507 9.35949 55.2992 9.51271C55.2478 9.66578 55.2375 9.83046 55.2694 9.98916L56.0954 14.09C56.1417 14.3188 56.0997 14.5571 55.9785 14.7545C55.8574 14.952 55.6664 15.093 55.4461 15.1477C55.2259 15.2024 54.9936 15.1667 54.7985 15.0478L51.4768 13.04C51.3442 12.9611 51.194 12.9196 51.0409 12.9196C50.8878 12.9196 50.7376 12.9611 50.605 13.04L47.2877 15.0634H47.2876C47.0925 15.1823 46.8604 15.2182 46.6401 15.1635C46.4199 15.1088 46.229 14.9678 46.1078 14.7703C45.9864 14.5729 45.9446 14.3345 45.9907 14.1057L46.8124 9.98876C46.8444 9.83004 46.834 9.66537 46.7826 9.51231C46.7311 9.35908 46.6406 9.22311 46.5204 9.11866L43.7522 6.71284C43.5809 6.56071 43.4735 6.34585 43.4529 6.11357C43.4322 5.8813 43.4999 5.64981 43.6416 5.4679C43.7833 5.28613 43.9879 5.16819 44.2121 5.13902L48.0832 4.66915C48.3915 4.63151 48.6571 4.42779 48.7807 4.13404L50.3064 0.5366V0.536757C50.3951 0.329266 50.5562 0.163964 50.758 0.0739579C50.9596 -0.0160646 51.1869 -0.0242187 51.3941 0.0512171C51.6013 0.126497 51.7733 0.279879 51.8758 0.480452L51.8758 0.480901Z" fill="#FF9F00"/>
<path d="M73.6023 0.480901L75.383 4.17041C75.5133 4.43937 75.7652 4.62317 76.0544 4.66067L79.6072 5.1103H79.607C79.8307 5.14088 80.0341 5.25976 80.1746 5.44184C80.3151 5.62392 80.3817 5.8551 80.3604 6.08672C80.3391 6.31836 80.2316 6.53245 80.0604 6.6841L77.288 9.11906C77.1678 9.22351 77.0773 9.35949 77.0258 9.51271C76.9744 9.66578 76.964 9.83046 76.996 9.98916L77.822 14.09C77.8682 14.3188 77.8263 14.5571 77.7051 14.7545C77.5839 14.952 77.393 15.093 77.1726 15.1477C76.9525 15.2024 76.7202 15.1667 76.5251 15.0478L73.2034 13.04C73.0708 12.9611 72.9206 12.9196 72.7675 12.9196C72.6144 12.9196 72.4642 12.9611 72.3316 13.04L69.0143 15.0634H69.0142C68.8191 15.1823 68.5869 15.2182 68.3666 15.1635C68.1465 15.1088 67.9555 14.9678 67.8343 14.7703C67.713 14.5729 67.6712 14.3345 67.7173 14.1057L68.539 9.98876C68.5709 9.83004 68.5606 9.66537 68.5092 9.51231C68.4577 9.35908 68.3672 9.22311 68.2469 9.11866L65.4788 6.71284C65.3075 6.56071 65.2001 6.34585 65.1794 6.11357C65.1588 5.8813 65.2264 5.64981 65.3681 5.4679C65.5098 5.28613 65.7145 5.16819 65.9387 5.13902L69.8097 4.66915C70.1181 4.63151 70.3837 4.42779 70.5073 4.13404L72.033 0.5366V0.536757C72.1216 0.329266 72.2828 0.163964 72.4846 0.0739579C72.6862 -0.0160646 72.9135 -0.0242187 73.1207 0.0512171C73.3279 0.126497 73.4999 0.279879 73.6023 0.480452L73.6023 0.480901Z" fill="#FF9F00"/>
<path d="M92.5534 0.458438L94.2509 3.9756C94.3751 4.232 94.6153 4.40721 94.891 4.44296L98.2778 4.87159H98.2777C98.4909 4.90074 98.6848 5.01407 98.8187 5.18764C98.9526 5.36122 99.0161 5.5816 98.9958 5.8024C98.9755 6.02322 98.8731 6.22731 98.7099 6.37187L96.067 8.69309C95.9523 8.79267 95.8661 8.92229 95.817 9.06836C95.768 9.21428 95.7581 9.37126 95.7886 9.52255L96.576 13.4318C96.6201 13.65 96.5801 13.8771 96.4645 14.0653C96.349 14.2535 96.167 14.3879 95.957 14.4401C95.7471 14.4923 95.5256 14.4582 95.3397 14.3449L92.1731 12.4309C92.0467 12.3557 91.9035 12.3161 91.7576 12.3161C91.6116 12.3161 91.4684 12.3557 91.3421 12.4309L88.1797 14.3598H88.1796C87.9936 14.4731 87.7723 14.5074 87.5623 14.4552C87.3524 14.403 87.1704 14.2686 87.0549 14.0804C86.9392 13.8921 86.8993 13.6649 86.9433 13.4468L87.7266 9.52217C87.7571 9.37087 87.7472 9.21388 87.6982 9.06797C87.6491 8.9219 87.5629 8.79228 87.4482 8.69271L84.8094 6.39927C84.646 6.25425 84.5437 6.04943 84.524 5.828C84.5043 5.60658 84.5688 5.3859 84.7039 5.21248C84.8389 5.0392 85.034 4.92677 85.2478 4.89897L88.938 4.45105C89.2319 4.41517 89.4851 4.22096 89.603 3.94094L91.0574 0.511535V0.511684C91.1419 0.313886 91.2955 0.156305 91.4879 0.0705032C91.6801 -0.0153142 91.8968 -0.0230874 92.0943 0.0488247C92.2918 0.120588 92.4558 0.266805 92.5534 0.458009L92.5534 0.458438Z" fill="#FF9F00"/>
<mask id="mask0_891_6116" style="mask-type:alpha" maskUnits="userSpaceOnUse" x="84" y="0" width="15" height="15">
<path d="M92.5534 0.458438L94.2509 3.9756C94.3751 4.232 94.6153 4.40721 94.891 4.44296L98.2778 4.87159H98.2777C98.4909 4.90074 98.6848 5.01407 98.8187 5.18764C98.9526 5.36122 99.0161 5.5816 98.9958 5.8024C98.9755 6.02322 98.8731 6.22731 98.7099 6.37187L96.067 8.69309C95.9523 8.79267 95.8661 8.92229 95.817 9.06836C95.768 9.21428 95.7581 9.37126 95.7886 9.52255L96.576 13.4318C96.6201 13.65 96.5801 13.8771 96.4645 14.0653C96.349 14.2535 96.167 14.3879 95.957 14.4401C95.7471 14.4923 95.5256 14.4582 95.3397 14.3449L92.1731 12.4309C92.0467 12.3557 91.9035 12.3161 91.7576 12.3161C91.6116 12.3161 91.4684 12.3557 91.3421 12.4309L88.1797 14.3598H88.1796C87.9936 14.4731 87.7723 14.5074 87.5623 14.4552C87.3524 14.403 87.1704 14.2686 87.0549 14.0804C86.9392 13.8921 86.8993 13.6649 86.9433 13.4468L87.7266 9.52217C87.7571 9.37087 87.7472 9.21388 87.6982 9.06797C87.6491 8.9219 87.5629 8.79228 87.4482 8.69271L84.8094 6.39927C84.646 6.25425 84.5437 6.04943 84.524 5.828C84.5043 5.60658 84.5688 5.3859 84.7039 5.21248C84.8389 5.0392 85.034 4.92677 85.2478 4.89897L88.938 4.45105C89.2319 4.41517 89.4851 4.22096 89.603 3.94094L91.0574 0.511535V0.511684C91.1419 0.313886 91.2955 0.156305 91.4879 0.0705032C91.6801 -0.0153142 91.8968 -0.0230874 92.0943 0.0488247C92.2918 0.120588 92.4558 0.266805 92.5534 0.458009L92.5534 0.458438Z" fill="#FFCC00"/>
</mask>
<g mask="url(#mask0_891_6116)">
<rect x="94.2539" y="-1.6084" width="12.468" height="21.7185" fill="#E5E5E5"/>
</g>
</svg>
