<svg width="90" height="13" viewBox="0 0 90 13" fill="none" xmlns="http://www.w3.org/2000/svg">
<path d="M24.8769 1.05303L23.5861 3.65793C23.5204 3.7905 23.4234 3.90517 23.3033 3.99207C23.1833 4.07896 23.0438 4.13548 22.8969 4.15674L20.0118 4.57458C19.8766 4.59408 19.7495 4.6509 19.645 4.73862C19.5405 4.82633 19.4628 4.94143 19.4206 5.07088C19.3784 5.20034 19.3734 5.33898 19.4062 5.47112C19.439 5.60325 19.5083 5.72359 19.6062 5.81853L21.6947 7.84636C21.8008 7.94942 21.8801 8.07659 21.926 8.21695C21.9718 8.3573 21.9827 8.50663 21.9578 8.65212L21.4648 11.5156C21.4419 11.6497 21.4571 11.7874 21.5087 11.9133C21.5602 12.0392 21.6461 12.1483 21.7566 12.2281C21.8671 12.3079 21.9979 12.3554 22.134 12.3651C22.2702 12.3748 22.4063 12.3464 22.5271 12.283L25.108 10.9313C25.2393 10.8625 25.3854 10.8266 25.5338 10.8266C25.6822 10.8266 25.8283 10.8625 25.9597 10.9313L28.5405 12.283C28.6613 12.3464 28.7974 12.3748 28.9336 12.3651C29.0698 12.3554 29.2005 12.3079 29.311 12.2281C29.4215 12.1483 29.5074 12.0392 29.559 11.9133C29.6105 11.7874 29.6257 11.6497 29.6028 11.5156L29.1098 8.65212C29.0849 8.50663 29.0958 8.35729 29.1416 8.21693C29.1874 8.07657 29.2668 7.9494 29.3729 7.84636L31.4614 5.81853C31.5594 5.72359 31.6286 5.60325 31.6615 5.47112C31.6943 5.33898 31.6893 5.20034 31.6471 5.07088C31.6049 4.94143 31.5271 4.82633 31.4226 4.73862C31.3181 4.6509 31.1911 4.59408 31.0558 4.57458L28.1695 4.15674C28.0227 4.13548 27.8832 4.07896 27.7632 3.99207C27.6431 3.90517 27.5461 3.7905 27.4804 3.65793L26.1896 1.05303C26.1292 0.931001 26.0357 0.828252 25.9197 0.756407C25.8037 0.684562 25.6698 0.646484 25.5332 0.646484C25.3966 0.646484 25.2628 0.684562 25.1468 0.756407C25.0308 0.828252 24.9373 0.931001 24.8769 1.05303Z" fill="#F15E61"/>
<path d="M44.255 1.05088L42.9642 3.65579C42.8985 3.78836 42.8015 3.90303 42.6814 3.98993C42.5614 4.07682 42.4219 4.13334 42.275 4.1546L39.3888 4.57244C39.2535 4.59194 39.1265 4.64876 39.022 4.73647C38.9175 4.82419 38.8397 4.93929 38.7975 5.06874C38.7553 5.1982 38.7503 5.33684 38.7831 5.46898C38.8159 5.60111 38.8852 5.72145 38.9831 5.81639L41.0717 7.84422C41.1777 7.94728 41.2571 8.07445 41.3029 8.2148C41.3487 8.35516 41.3597 8.50449 41.3348 8.64998L40.8417 11.5135C40.8188 11.6476 40.834 11.7853 40.8856 11.9112C40.9372 12.0371 41.0231 12.1461 41.1336 12.2259C41.2441 12.3058 41.3748 12.3532 41.511 12.3629C41.6471 12.3726 41.7833 12.3442 41.9041 12.2809L44.4849 10.9291C44.6163 10.8604 44.7624 10.8244 44.9108 10.8244C45.0591 10.8244 45.2053 10.8604 45.3366 10.9291L47.9174 12.2809C48.0382 12.3442 48.1744 12.3726 48.3106 12.3629C48.4467 12.3532 48.5774 12.3058 48.6879 12.2259C48.7985 12.1461 48.8844 12.0371 48.9359 11.9112C48.9875 11.7853 49.0027 11.6476 48.9798 11.5135L48.4867 8.64998C48.4618 8.50449 48.4727 8.35515 48.5186 8.21479C48.5644 8.07443 48.6438 7.94726 48.7498 7.84422L50.8384 5.81639C50.9363 5.72145 51.0056 5.60111 51.0384 5.46898C51.0712 5.33684 51.0662 5.1982 51.024 5.06874C50.9818 4.93929 50.904 4.82419 50.7996 4.73647C50.6951 4.64876 50.568 4.59194 50.4328 4.57244L47.5465 4.1546C47.3996 4.13334 47.2602 4.07682 47.1401 3.98993C47.0201 3.90303 46.923 3.78836 46.8574 3.65579L45.5666 1.05088C45.506 0.929164 45.4125 0.826714 45.2967 0.755088C45.1808 0.683462 45.0471 0.645508 44.9108 0.645508C44.7744 0.645508 44.6407 0.683462 44.5249 0.755088C44.409 0.826714 44.3155 0.929164 44.255 1.05088Z" fill="#F15E61"/>
<path d="M63.6393 1.05303L62.3485 3.65793C62.2829 3.7905 62.1858 3.90517 62.0658 3.99207C61.9457 4.07896 61.8063 4.13548 61.6594 4.15674L58.7735 4.57458C58.6383 4.59408 58.5112 4.6509 58.4067 4.73862C58.3022 4.82633 58.2245 4.94143 58.1823 5.07088C58.1401 5.20034 58.1351 5.33898 58.1679 5.47112C58.2007 5.60325 58.27 5.72359 58.3679 5.81853L60.4564 7.84636C60.5625 7.94942 60.6419 8.07659 60.6877 8.21695C60.7335 8.3573 60.7444 8.50663 60.7195 8.65212L60.2265 11.5156C60.2036 11.6497 60.2188 11.7874 60.2704 11.9133C60.3219 12.0392 60.4078 12.1483 60.5184 12.2281C60.6289 12.3079 60.7596 12.3554 60.8957 12.3651C61.0319 12.3748 61.1681 12.3464 61.2889 12.283L63.8697 10.9313C64.001 10.8625 64.1472 10.8266 64.2955 10.8266C64.4439 10.8266 64.59 10.8625 64.7214 10.9313L67.3022 12.283C67.423 12.3464 67.5592 12.3748 67.6953 12.3651C67.8315 12.3554 67.9622 12.3079 68.0727 12.2281C68.1832 12.1483 68.2691 12.0392 68.3207 11.9133C68.3723 11.7874 68.3875 11.6497 68.3646 11.5156L67.8715 8.65212C67.8466 8.50663 67.8575 8.35729 67.9033 8.21693C67.9492 8.07657 68.0285 7.9494 68.1346 7.84636L70.2231 5.81853C70.3211 5.72359 70.3904 5.60325 70.4232 5.47112C70.456 5.33898 70.451 5.20034 70.4088 5.07088C70.3666 4.94143 70.2888 4.82633 70.1843 4.73862C70.0798 4.6509 69.9528 4.59408 69.8175 4.57458L66.9313 4.15674C66.7844 4.13548 66.6449 4.07896 66.5249 3.99207C66.4048 3.90517 66.3078 3.7905 66.2421 3.65793L64.9521 1.05303C64.8917 0.931001 64.7982 0.828252 64.6822 0.756407C64.5662 0.684562 64.4323 0.646484 64.2957 0.646484C64.1591 0.646484 64.0253 0.684562 63.9093 0.756407C63.7933 0.828252 63.6998 0.931001 63.6393 1.05303Z" fill="#F15E61"/>
<path d="M84.3636 1.04209L85.6544 3.647C85.72 3.77956 85.8171 3.89424 85.9371 3.98113C86.0572 4.06803 86.1966 4.12454 86.3435 4.14581L89.2294 4.56365C89.3646 4.58315 89.4917 4.63997 89.5962 4.72768C89.7007 4.81539 89.7784 4.93049 89.8206 5.05995C89.8629 5.1894 89.8678 5.32805 89.835 5.46018C89.8022 5.59231 89.7329 5.71266 89.635 5.80759L87.5465 7.83542C87.4404 7.93849 87.3611 8.06566 87.3152 8.20601C87.2694 8.34636 87.2585 8.4957 87.2834 8.64119L87.7764 11.5047C87.7993 11.6388 87.7841 11.7765 87.7326 11.9024C87.681 12.0283 87.5951 12.1373 87.4846 12.2171C87.3741 12.297 87.2434 12.3444 87.1072 12.3541C86.971 12.3638 86.8349 12.3354 86.7141 12.2721L84.1332 10.9203C84.0019 10.8516 83.8558 10.8156 83.7074 10.8156C83.559 10.8156 83.4129 10.8516 83.2816 10.9203L80.7007 12.2721C80.5799 12.3354 80.4438 12.3638 80.3076 12.3541C80.1714 12.3444 80.0407 12.297 79.9302 12.2171C79.8197 12.1373 79.7338 12.0283 79.6822 11.9024C79.6307 11.7765 79.6155 11.6388 79.6384 11.5047L80.1314 8.64119C80.1563 8.4957 80.1454 8.34635 80.0996 8.206C80.0538 8.06564 79.9744 7.93847 79.8683 7.83542L77.7798 5.80759C77.6819 5.71266 77.6126 5.59231 77.5798 5.46018C77.547 5.32805 77.5519 5.1894 77.5941 5.05995C77.6364 4.93049 77.7141 4.81539 77.8186 4.72768C77.9231 4.63997 78.0502 4.58315 78.1854 4.56365L81.0717 4.14581C81.2185 4.12454 81.358 4.06803 81.4781 3.98113C81.5981 3.89424 81.6951 3.77956 81.7608 3.647L83.0481 1.04209C83.1083 0.919349 83.2018 0.815901 83.3181 0.74354C83.4344 0.671179 83.5687 0.632812 83.7059 0.632812C83.843 0.632812 83.9773 0.671179 84.0936 0.74354C84.2099 0.815901 84.3034 0.919349 84.3636 1.04209Z" fill="#F15E61"/>
<path d="M86.7141 12.2823L84.9564 11.3614V2.24707L85.654 3.65523C85.7197 3.7878 85.8167 3.90247 85.9367 3.98937C86.0568 4.07626 86.1963 4.13278 86.3431 4.15404L89.2294 4.57188C89.3646 4.59138 89.4917 4.6482 89.5962 4.73592C89.7007 4.82363 89.7784 4.93873 89.8206 5.06818C89.8629 5.19764 89.8678 5.33628 89.835 5.46842C89.8022 5.60055 89.7329 5.72089 89.635 5.81583L87.5465 7.84366C87.4404 7.94672 87.3611 8.07389 87.3152 8.21425C87.2694 8.3546 87.2585 8.50393 87.2834 8.64942L87.7764 11.5129C87.7998 11.6471 87.7849 11.7852 87.7335 11.9114C87.6821 12.0376 87.5962 12.1469 87.4856 12.227C87.3751 12.3071 87.2442 12.3547 87.1078 12.3645C86.9714 12.3742 86.835 12.3458 86.7141 12.2823Z" fill="#F15E61"/>
<path d="M5.53621 1.03974L4.24542 3.64504C4.17976 3.7776 4.08272 3.89227 3.96267 3.97917C3.84262 4.06606 3.70316 4.12258 3.5563 4.14384L0.670009 4.56169C0.534771 4.58118 0.407711 4.63801 0.30322 4.72572C0.198728 4.81343 0.120976 4.92853 0.0787638 5.05799C0.0365518 5.18744 0.0315686 5.32609 0.0643753 5.45822C0.0971821 5.59035 0.166479 5.7107 0.264404 5.80563L2.35295 7.83346C2.459 7.93652 2.53835 8.0637 2.58417 8.20405C2.63 8.3444 2.64093 8.49374 2.61603 8.63923L2.12298 11.5027C2.10008 11.6368 2.11528 11.7746 2.16686 11.9004C2.21843 12.0263 2.30433 12.1354 2.41484 12.2152C2.52535 12.295 2.65607 12.3425 2.79223 12.3522C2.92839 12.3619 3.06455 12.3335 3.18535 12.2701L5.76618 10.9184C5.89751 10.8496 6.04365 10.8137 6.19202 10.8137C6.34038 10.8137 6.48653 10.8496 6.61785 10.9184L9.19869 12.2701C9.31948 12.3335 9.45565 12.3619 9.59181 12.3522C9.72797 12.3425 9.85869 12.295 9.9692 12.2152C10.0797 12.1354 10.1656 12.0263 10.2172 11.9004C10.2688 11.7746 10.284 11.6368 10.2611 11.5027L9.76801 8.63923C9.74307 8.49374 9.75399 8.34439 9.79982 8.20403C9.84564 8.06368 9.92501 7.93651 10.0311 7.83346L12.1196 5.80563C12.2176 5.7107 12.2869 5.59035 12.3197 5.45822C12.3525 5.32609 12.3475 5.18744 12.3053 5.05799C12.2631 4.92853 12.1853 4.81343 12.0808 4.72572C11.9763 4.63801 11.8493 4.58118 11.714 4.56169L8.82928 4.14346C8.68242 4.1222 8.54296 4.06568 8.42291 3.97879C8.30286 3.89189 8.20582 3.77722 8.14016 3.64465L6.84935 1.03974C6.78897 0.917616 6.69547 0.814768 6.57943 0.742849C6.46339 0.670931 6.32945 0.632812 6.19278 0.632812C6.05612 0.632812 5.92218 0.670931 5.80614 0.742849C5.6901 0.814768 5.5966 0.917616 5.53621 1.03974Z" fill="#F15E61"/>
<path d="M6.80484 1.03819L8.09565 3.6431C8.16131 3.77566 8.25835 3.89033 8.3784 3.97723C8.49845 4.06413 8.63791 4.12064 8.78477 4.1419L11.671 4.55975C11.8063 4.57924 11.9333 4.63607 12.0378 4.72378C12.1423 4.81149 12.2201 4.92659 12.2623 5.05605C12.3045 5.1855 12.3095 5.32415 12.2767 5.45628C12.2439 5.58841 12.1746 5.70876 12.0767 5.80369L9.98812 7.83152C9.88207 7.93459 9.80272 8.06176 9.7569 8.20211C9.71107 8.34246 9.70013 8.4918 9.72503 8.63729L10.2181 11.5008C10.241 11.6349 10.2258 11.7726 10.1742 11.8985C10.1226 12.0244 10.0367 12.1334 9.92623 12.2132C9.81572 12.2931 9.685 12.3405 9.54884 12.3502C9.41268 12.3599 9.2765 12.3315 9.1557 12.2682L6.57489 10.9164C6.44356 10.8477 6.29742 10.8117 6.14905 10.8117C6.00068 10.8117 5.85454 10.8477 5.72321 10.9164L3.14238 12.2682C3.02158 12.3315 2.88541 12.3599 2.74925 12.3502C2.61309 12.3405 2.48238 12.2931 2.37187 12.2132C2.26136 12.1334 2.17547 12.0244 2.12389 11.8985C2.07232 11.7726 2.05711 11.6349 2.08001 11.5008L2.57306 8.63729C2.59799 8.4918 2.58708 8.34245 2.54125 8.20209C2.49542 8.06174 2.41605 7.93457 2.30997 7.83152L0.221423 5.80369C0.123498 5.70876 0.0542133 5.58841 0.0214066 5.45628C-0.0114001 5.32415 -0.00641691 5.1855 0.0357951 5.05605C0.0780071 4.92659 0.155759 4.81149 0.260251 4.72378C0.364743 4.63607 0.491803 4.57924 0.62704 4.55975L3.51333 4.1419C3.66019 4.12064 3.79965 4.06413 3.9197 3.97723C4.03975 3.89033 4.13679 3.77566 4.20245 3.6431L5.49324 1.03819C5.55379 0.916469 5.64727 0.814019 5.76315 0.742393C5.87902 0.670767 6.01268 0.632812 6.14905 0.632812C6.28542 0.632812 6.41908 0.670767 6.53495 0.742393C6.65083 0.814019 6.7443 0.916469 6.80484 1.03819Z" fill="#F15E61"/>
</svg>
