<svg width="66" height="66" viewBox="0 0 66 66" fill="none" xmlns="http://www.w3.org/2000/svg">
<path d="M15.5689 21.4834V15.7256H0.478516V21.4834H3.94061V33.7995H0.478516V39.5572H15.5689V33.7995H12.1068V21.4834H15.5689Z" fill="#00539F"/>
<path d="M32.2202 24.87C31.2875 24.5998 26.4883 23.2318 25.6573 22.9616C24.8264 22.6914 24.148 22.303 24.148 21.8132C24.148 21.3235 24.9112 20.7999 26.4544 20.7999C31.3214 20.7999 33.6595 23.7891 33.6595 23.7891C33.6595 23.7891 33.923 24.1386 34.0113 24.264H38.707V16.1087H33.666V17.5924C33.281 17.3276 30.4385 15.4802 26.0304 15.4802C20.2137 15.4802 16.9746 18.4863 16.9746 22.9785C16.9746 27.4707 21.0616 29.3284 22.1978 29.8013C23.334 30.2741 27.7771 31.5239 29.6765 32.1149C31.5758 32.706 32.2711 33.1282 32.2711 33.4322C32.2711 33.7362 31.4401 34.5299 29.066 34.5299C24.9304 34.5299 22.8007 32.1013 22.4269 31.631V31.6273C22.3081 31.4687 22.1686 31.2811 22.1213 31.2104C22.0665 31.1287 21.9394 30.9472 21.8512 30.8218H17.1555V39.5308H22.4269V37.7122C23.0403 38.1187 26.1801 40.0692 29.9478 40.0692C34.1535 40.0692 39.5124 38.2453 39.5124 32.554C39.5124 26.8628 33.1529 25.1402 32.2202 24.87Z" fill="#00539F"/>
<path d="M52.8998 15.3984C45.8888 15.3984 40.1387 18.8892 40.1387 27.8003C40.1387 36.7114 46.3809 40.0491 52.9305 40.0491C59.4801 40.0491 65.6608 36.7419 65.6608 27.8923C65.6608 19.0427 59.4804 15.3984 52.8998 15.3984ZM52.9614 34.1085C50.5628 34.1085 49.0253 33.5572 49.0253 27.7698C49.0253 21.9822 50.1631 21.3697 53.0535 21.3697C54.8062 21.3697 56.9281 21.4922 56.9281 27.586C56.9281 33.6799 55.36 34.1085 52.9614 34.1085Z" fill="#00539F"/>
<path d="M10.5321 13.1015C12.1082 10.7839 14.0463 8.72948 16.2681 7.02339C17.1665 7.68486 18.1215 8.28485 19.1254 8.8196C17.4434 10.6867 15.9364 12.7553 15.6868 13.1015H16.696C17.3018 12.2884 18.5548 10.6528 19.8761 9.20275C21.3203 9.90976 22.8551 10.488 24.4565 10.9284C24.0302 11.829 23.708 12.6166 23.5189 13.1015H24.3957C24.5972 12.6021 24.8924 11.9057 25.2607 11.1361C27.3036 11.6331 29.4442 11.9117 31.634 11.9542V13.1016H32.448V11.9581C34.6218 11.9423 36.7505 11.6956 38.7862 11.232C39.1333 11.9631 39.4126 12.6231 39.6057 13.1015H40.4825C40.3007 12.6358 39.9965 11.8913 39.5948 11.0349C41.2248 10.6126 42.789 10.0495 44.262 9.35353C45.5327 10.7651 46.7206 12.3166 47.3055 13.1015H48.3146C48.0727 12.766 46.6437 10.8039 45.0199 8.9801C46.1363 8.4055 47.1948 7.75173 48.1842 7.02339C50.406 8.72948 52.3443 10.7839 53.9202 13.1015H54.8993C50.0847 5.70166 41.7203 0.795212 32.226 0.795212C22.7317 0.795212 14.3673 5.70166 9.55273 13.1015H10.5321V13.1015ZM24.8197 10.1871C23.2964 9.77735 21.8348 9.24018 20.457 8.58303C20.6442 8.38929 20.8313 8.20163 21.0162 8.02397C22.903 6.21208 26.0062 4.22254 26.6864 3.79426C27.2385 4.09622 27.8408 4.35156 28.4816 4.55422C27.984 5.20407 27.0069 6.52323 25.9429 8.1965C25.5287 8.8477 25.1514 9.53214 24.8197 10.1871ZM31.634 11.1433C29.5724 11.1022 27.5566 10.8466 25.6299 10.3915C25.9312 9.80491 26.2674 9.20127 26.6306 8.63032C27.8564 6.70278 28.9624 5.25555 29.3309 4.78471C30.0661 4.9567 30.8387 5.06545 31.634 5.10099V11.1433ZM32.448 11.1473V5.11017C33.2325 5.09693 34.0001 5.01425 34.7348 4.86712C35.1559 5.40956 36.2098 6.80438 37.3709 8.63032C37.753 9.23113 38.1053 9.86801 38.4186 10.4834C36.4986 10.9063 34.4945 11.1322 32.448 11.1473ZM39.2346 10.2914C38.8904 9.6051 38.4947 8.88229 38.0585 8.1965C37.0494 6.60956 36.1182 5.34093 35.6003 4.65974C36.2818 4.4691 36.9251 4.22132 37.5158 3.92153C38.4708 4.53112 41.2444 6.35232 42.9851 8.02397C43.2162 8.24594 43.4503 8.48305 43.6842 8.72894C42.2776 9.37569 40.7866 9.89922 39.2346 10.2914ZM47.5026 6.51661C46.5476 7.20307 45.5273 7.81807 44.4529 8.35876C44.1527 8.03802 43.8499 7.72823 43.5502 7.44045C41.922 5.87689 39.4978 4.23659 38.31 3.46636C38.7135 3.20588 39.0825 2.91784 39.4115 2.60426C42.3516 3.44082 45.0811 4.77849 47.5026 6.51661ZM32.2263 1.60584C34.3758 1.60584 36.465 1.86699 38.4654 2.3558C36.9473 3.58376 34.6725 4.30414 32.2263 4.30414C29.7689 4.30414 27.5005 3.58606 25.9844 2.35648C27.9855 1.86726 30.0756 1.60584 32.2263 1.60584ZM25.0407 2.60426C25.3085 2.85988 25.6017 3.09901 25.9192 3.3195C24.8431 4.00907 22.1926 5.76827 20.4513 7.44032C20.2006 7.68107 19.9478 7.9375 19.696 8.20258C18.7329 7.70039 17.8145 7.13795 16.9501 6.51661C19.3713 4.77849 22.1006 3.44096 25.0407 2.60426Z" fill="#00539F"/>
<path d="M53.9209 42.257C52.3783 44.5259 50.4885 46.5421 48.3255 48.2266C47.2954 47.4552 46.1897 46.7656 45.0204 46.1633C46.429 44.581 47.6911 42.8946 48.1584 42.2572H47.1447C46.5198 43.0881 45.4259 44.4976 44.2624 45.7902C42.7893 45.094 41.2254 44.5304 39.5951 44.1082C39.9398 43.3731 40.2121 42.7217 40.3974 42.2572H39.518C39.3316 42.7101 39.0837 43.2847 38.7859 43.9119C36.7515 43.4491 34.623 43.2025 32.4474 43.1868V42.2572H31.6334V43.1905C29.4418 43.2328 27.3014 43.5111 25.2598 44.0075C24.9418 43.3432 24.6782 42.7329 24.4824 42.2572H23.6029C23.797 42.7441 24.0868 43.4364 24.4553 44.2148C22.8534 44.6554 21.3181 45.2329 19.874 45.9403C18.6606 44.6083 17.5052 43.1204 16.8557 42.257H15.842C16.3247 42.9157 17.6579 44.6966 19.1247 46.3246C18.0683 46.888 17.0652 47.5229 16.1257 48.2265C13.9626 46.542 12.0728 44.5257 10.5304 42.2569H9.55273C14.3674 49.6567 22.7316 54.5632 32.2257 54.5632C41.7197 54.5632 50.084 49.6568 54.8987 42.2569H53.9209V42.257ZM39.2343 44.8521C40.7869 45.2442 42.2779 45.7676 43.6846 46.4146C43.4503 46.6608 43.216 46.8983 42.9846 47.1207C41.2493 48.7869 38.4845 50.6039 37.5223 51.2184C36.9316 50.9174 36.2875 50.6696 35.6039 50.479C36.1226 49.7965 37.0514 48.5303 38.0578 46.9479C38.4943 46.2619 38.89 45.5387 39.2343 44.8521ZM32.4473 43.9973C34.4955 44.0125 36.4995 44.2377 38.4183 44.66C38.1049 45.2758 37.7526 45.9128 37.3701 46.5142C36.2106 48.3376 35.1583 49.7309 34.736 50.275C34.0034 50.1296 33.2358 50.0476 32.4471 50.0346V43.9973H32.4473ZM31.6333 44.0014V50.043C30.835 50.0782 30.0616 50.1856 29.3273 50.3564C28.9563 49.8821 27.8539 48.4389 26.6299 46.5142C26.2664 45.9428 25.93 45.3388 25.6285 44.7516C27.5542 44.2971 29.5699 44.0423 31.6333 44.0014ZM24.8186 44.9567C25.1504 45.6121 25.528 46.2965 25.9422 46.948C27.0054 48.6199 27.9818 49.9383 28.4798 50.5887C27.8381 50.7912 27.2364 51.0468 26.6847 51.3496C26.0019 50.9194 22.9013 48.9313 21.0157 47.1207C20.8305 46.9429 20.6434 46.7549 20.4559 46.5611C21.8335 45.9036 23.2949 45.3663 24.8186 44.9567ZM16.802 48.7348C17.7092 48.0706 18.6765 47.4718 19.6941 46.941C19.9462 47.2063 20.1995 47.4632 20.4505 47.7042C22.1914 49.3758 24.8411 51.1346 25.9176 51.8245C25.5341 52.0918 25.1845 52.3858 24.8738 52.7049C21.9377 51.8481 19.2142 50.4917 16.802 48.7348ZM32.2256 53.7527C30.0057 53.7527 27.8497 53.475 25.7899 52.9547C27.294 51.6386 29.6822 50.8405 32.2256 50.8405C34.7658 50.8405 37.1564 51.6391 38.6606 52.9549C36.601 53.4752 34.4453 53.7527 32.2256 53.7527ZM39.5769 52.7049C39.2076 52.326 38.7855 51.9804 38.3146 51.6746C39.5044 50.9031 41.9238 49.2653 43.5495 47.7041C43.8493 47.4161 44.1521 47.1062 44.4526 46.7852C45.5818 47.354 46.6519 48.0047 47.6491 48.7346C45.2368 50.4918 42.5131 51.8482 39.5769 52.7049Z" fill="#00539F"/>
<path d="M2.03058 63.1644C2.0668 63.8351 2.32661 64.2986 2.81026 64.555C3.0588 64.6901 3.33896 64.7575 3.65086 64.7575C4.23382 64.7575 4.73091 64.5157 5.14225 64.0319C5.55346 63.5481 5.84501 62.5657 6.01676 61.0851C5.74556 61.5126 5.41006 61.8131 5.01011 61.9863C4.61016 62.1596 4.17969 62.2462 3.71869 62.2462C2.78313 62.2462 2.04306 61.9563 1.49849 61.3764C0.953789 60.7964 0.681641 60.0501 0.681641 59.1373C0.681641 58.2608 0.950534 57.4896 1.48832 56.8242C2.0261 56.1588 2.81935 55.8261 3.86779 55.8261C5.28226 55.8261 6.25852 56.4602 6.79631 57.7286C7.09464 58.4257 7.24374 59.2982 7.24374 60.3463C7.24374 61.5291 7.0652 62.577 6.70826 63.4901C6.11607 65.0103 5.11281 65.7704 3.69834 65.7704C2.74921 65.7704 2.02828 65.5228 1.5358 65.0278C1.04319 64.5327 0.796822 63.9117 0.796822 63.1645H2.03058V63.1644ZM5.20669 60.7044C5.60664 60.3876 5.80661 59.8338 5.80661 59.0429C5.80661 58.3329 5.62699 57.8039 5.26761 57.4556C4.90836 57.1074 4.45075 56.9332 3.89492 56.9332C3.29839 56.9332 2.82491 57.1321 2.47462 57.5297C2.12433 57.9273 1.94918 58.4588 1.94918 59.1238C1.94918 59.7529 2.10276 60.2529 2.41018 60.6236C2.71747 60.9943 3.20777 61.1796 3.88122 61.1796C4.36487 61.1796 4.80674 61.0212 5.20669 60.7044Z" fill="#00539F"/>
<path d="M14.3888 57.3876C14.8226 58.1842 15.0396 59.2757 15.0396 60.6619C15.0396 61.9761 14.843 63.0628 14.4498 63.9226C13.8804 65.1557 12.9492 65.7724 11.6568 65.7724C10.4908 65.7724 9.62304 65.2684 9.05364 64.2601C8.57908 63.4186 8.3418 62.2888 8.3418 60.8712C8.3418 59.773 8.48425 58.8302 8.76888 58.0424C9.30205 56.5753 10.2671 55.8416 11.6635 55.8416C12.9199 55.8416 13.8283 56.3571 14.3888 57.3876ZM13.1608 63.8279C13.5365 63.2699 13.7244 62.2303 13.7244 60.709C13.7244 59.6109 13.5885 58.7073 13.317 57.9986C13.0454 57.2897 12.5179 56.9353 11.7348 56.9353C11.015 56.9353 10.4887 57.2717 10.1561 57.9447C9.82328 58.6175 9.65696 59.6086 9.65696 60.9185C9.65696 61.904 9.76332 62.6963 9.97605 63.2948C10.3019 64.2085 10.8588 64.6653 11.6464 64.6653C12.2802 64.6652 12.7849 64.386 13.1608 63.8279Z" fill="#00539F"/>
<path d="M22.1114 57.3876C22.5453 58.1842 22.7622 59.2757 22.7622 60.6619C22.7622 61.9761 22.5656 63.0628 22.1725 63.9226C21.6031 65.1557 20.6719 65.7724 19.3795 65.7724C18.2134 65.7724 17.3457 65.2684 16.7763 64.2601C16.3017 63.4186 16.0645 62.2888 16.0645 60.8712C16.0645 59.773 16.2069 58.8302 16.4915 58.0424C17.0247 56.5753 17.9897 55.8416 19.3861 55.8416C20.6427 55.8416 21.551 56.3571 22.1114 57.3876ZM20.8835 63.8279C21.2592 63.2699 21.4471 62.2303 21.4471 60.709C21.4471 59.6109 21.3111 58.7073 21.0396 57.9986C20.768 57.2897 20.2406 56.9353 19.4575 56.9353C18.7376 56.9353 18.2114 57.2717 17.8787 57.9447C17.5459 58.6175 17.3796 59.6086 17.3796 60.9185C17.3796 61.904 17.486 62.6963 17.6987 63.2948C18.0246 64.2085 18.5815 64.6653 19.369 64.6653C20.0029 64.6652 20.5076 64.386 20.8835 63.8279Z" fill="#00539F"/>
<path d="M24.6816 58.6621V57.7304C25.5631 57.6449 26.1778 57.5021 26.5259 57.3018C26.8739 57.1015 27.1338 56.6279 27.3057 55.8806H28.2685V65.5075H26.9666V58.662H24.6816V58.6621Z" fill="#00539F"/>
<path d="M32.6074 58.3697H34.0246V59.8414H32.6074V58.3697ZM32.6074 64.0337H34.0246V65.5055H32.6074V64.0337Z" fill="#00539F"/>
<path d="M35.8838 63.3338C36.1843 62.7173 36.7706 62.1569 37.643 61.6528L38.9445 60.9035C39.5276 60.5659 39.9365 60.2776 40.1717 60.0387C40.542 59.6644 40.7275 59.2361 40.7275 58.7535C40.7275 58.1898 40.558 57.7422 40.2191 57.4108C39.8801 57.0794 39.4282 56.9136 38.8633 56.9136C38.0272 56.9136 37.4487 57.2298 37.1278 57.8617C36.9561 58.2002 36.8611 58.6696 36.8431 59.2698H35.6025C35.6161 58.4283 35.772 57.7418 36.0702 57.2109C36.5989 56.2747 37.5321 55.8066 38.8699 55.8066C39.9817 55.8066 40.7941 56.106 41.3071 56.7045C41.8199 57.3031 42.0766 57.9692 42.0766 58.7028C42.0766 59.4768 41.8031 60.1386 41.2563 60.6875C40.9398 61.0071 40.3726 61.3941 39.5546 61.8487L38.6259 62.3618C38.1829 62.6049 37.8351 62.8367 37.582 63.0571C37.13 63.4486 36.8452 63.883 36.7277 64.36H42.0291V65.5077H35.3652C35.4103 64.6751 35.5833 63.9504 35.8838 63.3338Z" fill="#00539F"/>
<path d="M49.1308 57.3876C49.5647 58.1842 49.7816 59.2757 49.7816 60.6619C49.7816 61.9761 49.5852 63.0628 49.1919 63.9226C48.6225 65.1557 47.6912 65.7724 46.3989 65.7724C45.2328 65.7724 44.3651 65.2684 43.7957 64.2601C43.3213 63.4186 43.084 62.2888 43.084 60.8712C43.084 59.773 43.2263 58.8302 43.5109 58.0424C44.0442 56.5753 45.0091 55.8416 46.4057 55.8416C47.6619 55.8416 48.5704 56.3571 49.1308 57.3876ZM47.9029 63.8279C48.2787 63.2699 48.4665 62.2303 48.4665 60.709C48.4665 59.6109 48.3305 58.7073 48.0589 57.9986C47.7873 57.2897 47.26 56.9353 46.4769 56.9353C45.757 56.9353 45.2308 57.2717 44.8981 57.9447C44.5652 58.6175 44.3989 59.6086 44.3989 60.9185C44.3989 61.904 44.5052 62.6963 44.7181 63.2948C45.044 64.2085 45.6009 64.6653 46.3884 64.6653C47.0224 64.6652 47.527 64.386 47.9029 63.8279Z" fill="#00539F"/>
<path d="M51.7012 58.6621V57.7304C52.5826 57.6449 53.1972 57.5021 53.5455 57.3018C53.8935 57.1015 54.1533 56.6279 54.3252 55.8806H55.2881V65.5075H53.9861V58.662H51.7012V58.6621Z" fill="#00539F"/>
<path d="M59.8088 63.0465C59.8902 63.7396 60.2133 64.2189 60.7783 64.4845C61.0675 64.6195 61.4021 64.6871 61.7817 64.6871C62.5048 64.6871 63.0403 64.4575 63.3884 63.9983C63.7363 63.5393 63.9105 63.0308 63.9105 62.4727C63.9105 61.7976 63.7037 61.2755 63.2902 60.9064C62.8767 60.5373 62.3807 60.3528 61.8022 60.3528C61.3818 60.3528 61.0214 60.4338 60.7209 60.5958C60.4203 60.7578 60.1639 60.9829 59.9514 61.2709L58.8939 61.2101L59.633 56.0052H64.6764V57.1798H60.5479L60.1343 59.8668C60.3603 59.6958 60.5749 59.5675 60.7783 59.4819C61.1399 59.3334 61.558 59.2592 62.0324 59.2592C62.9227 59.2592 63.6775 59.545 64.2966 60.1166C64.9158 60.6881 65.2254 61.4128 65.2254 62.2904C65.2254 63.2041 64.9417 64.0098 64.3746 64.7073C63.8074 65.405 62.9023 65.7537 61.6595 65.7537C60.8685 65.7537 60.1692 65.5319 59.5614 65.0887C58.9536 64.6456 58.6133 63.9648 58.541 63.0466H59.8088V63.0465Z" fill="#00539F"/>
</svg>
