<svg width="81" height="68" viewBox="0 0 81 68" fill="none" xmlns="http://www.w3.org/2000/svg">
<ellipse cx="40.8317" cy="26.9387" rx="26.4508" ry="26.341" fill="#E7E7E7"/>
<rect x="8.24023" y="46.5391" width="64.71" height="12.3866" fill="#24B8EB"/>
<path d="M67.2829 52.6523H80.9806L77.0445 59.0808L66.8105 59.5512L67.2829 52.6523Z" fill="#24B8EB"/>
<path d="M66.8105 65.3555H80.9806L77.0445 58.927L66.8105 58.4566V65.3555Z" fill="#24B8EB"/>
<path d="M14.2288 52.6523H0.531087L4.46722 59.0808L14.7012 59.5512L14.2288 52.6523Z" fill="#24B8EB"/>
<path d="M14.7012 65.3555H0.531087L4.46722 58.927L14.7012 58.4566V65.3555Z" fill="#24B8EB"/>
<path d="M72.9512 58.9258H66.8108V64.8839L72.9512 58.9258Z" fill="#008BB8"/>
<path d="M8.24023 58.9258H14.3806V64.8839L8.24023 58.9258Z" fill="#008BB8"/>
<path d="M14.0061 54.7344L13.6158 53.6763H12.1982L11.8079 54.7344H11.2327L12.6245 51.0518H13.1998L14.5865 54.7344H14.0061ZM13.0919 52.1612C13.0816 52.1236 13.0628 52.0671 13.0354 51.9917C13.0114 51.913 12.9875 51.8342 12.9635 51.7555C12.9395 51.6733 12.9207 51.6065 12.907 51.5552C12.8899 51.6236 12.8694 51.699 12.8454 51.7811C12.8248 51.8599 12.8043 51.9335 12.7838 52.002C12.7632 52.0671 12.7461 52.1201 12.7324 52.1612L12.3626 53.1936H13.4617L13.0919 52.1612ZM17.9265 53.4401C17.9265 53.6935 17.8734 53.9229 17.7672 54.1283C17.6645 54.3303 17.5053 54.4913 17.2896 54.6111C17.0739 54.7275 16.8017 54.7857 16.473 54.7857C16.0073 54.7857 15.6529 54.6625 15.4098 54.4159C15.1701 54.166 15.0503 53.8373 15.0503 53.4298V51.0672H15.605V53.4041C15.605 53.7055 15.6786 53.9332 15.8258 54.0872C15.973 54.2379 16.1973 54.3132 16.4986 54.3132C16.7041 54.3132 16.8719 54.2756 17.002 54.2002C17.1321 54.1249 17.2262 54.0205 17.2845 53.8869C17.3461 53.75 17.3769 53.5873 17.3769 53.399V51.0672H17.9265V53.4401ZM20.1056 54.7344H19.5509V51.5449H18.4518V51.0672H21.2047V51.5449H20.1056V54.7344ZM24.6278 54.7344H24.0731V53.06H22.3217V54.7344H21.767V51.0672H22.3217V52.5875H24.0731V51.0672H24.6278V54.7344ZM28.8447 52.8957C28.8447 53.1799 28.8087 53.4384 28.7368 53.6712C28.6683 53.9006 28.5622 54.0992 28.4184 54.267C28.278 54.4348 28.1 54.5632 27.8842 54.6522C27.672 54.7412 27.4237 54.7857 27.1395 54.7857C26.8485 54.7857 26.5951 54.7412 26.3794 54.6522C26.1671 54.5597 25.989 54.4313 25.8452 54.267C25.7048 54.0992 25.6004 53.8989 25.5319 53.6661C25.4635 53.4332 25.4292 53.1747 25.4292 52.8905C25.4292 52.5139 25.4908 52.1852 25.6141 51.9044C25.7374 51.6236 25.9257 51.4045 26.1791 51.247C26.4359 51.0895 26.7577 51.0107 27.1447 51.0107C27.5213 51.0107 27.8346 51.0895 28.0845 51.247C28.3379 51.4011 28.528 51.6202 28.6547 51.9044C28.7813 52.1852 28.8447 52.5156 28.8447 52.8957ZM26.0147 52.8957C26.0147 53.1901 26.0541 53.4435 26.1329 53.6558C26.2116 53.8647 26.3349 54.0273 26.5026 54.1437C26.6704 54.2567 26.8827 54.3132 27.1395 54.3132C27.3997 54.3132 27.612 54.2567 27.7764 54.1437C27.9407 54.0273 28.0623 53.8647 28.141 53.6558C28.2198 53.4435 28.2592 53.1901 28.2592 52.8957C28.2592 52.454 28.1702 52.1099 27.9921 51.8633C27.8175 51.6134 27.535 51.4884 27.1447 51.4884C26.8844 51.4884 26.6704 51.5449 26.5026 51.6579C26.3349 51.7709 26.2116 51.9318 26.1329 52.1407C26.0541 52.3495 26.0147 52.6012 26.0147 52.8957ZM30.6688 51.0672C30.9838 51.0672 31.2423 51.1066 31.4443 51.1854C31.6463 51.2641 31.797 51.3822 31.8963 51.5398C31.9956 51.6938 32.0452 51.889 32.0452 52.1253C32.0452 52.3136 32.0093 52.4728 31.9374 52.6029C31.8689 52.7296 31.7799 52.834 31.6703 52.9162C31.5607 52.995 31.446 53.0583 31.3262 53.1062L32.3534 54.7344H31.7165L30.8331 53.2501H30.1963V54.7344H29.6416V51.0672H30.6688ZM30.6328 51.5398H30.1963V52.7878H30.6585C30.8468 52.7878 31.0009 52.7638 31.1208 52.7159C31.244 52.668 31.333 52.5961 31.3878 52.5002C31.446 52.4043 31.4751 52.2862 31.4751 52.1458C31.4751 51.9986 31.4443 51.8822 31.3827 51.7966C31.3245 51.7075 31.232 51.6425 31.1053 51.6014C30.9821 51.5603 30.8246 51.5398 30.6328 51.5398ZM34.0217 54.7344H32.599V54.4159L33.0355 54.2875V51.5192L32.599 51.3857V51.0672H34.0217V51.3857L33.5902 51.5192V54.2875L34.0217 54.4159V54.7344ZM36.9878 54.7344H34.3941V54.3389L36.2739 51.5449H34.4506V51.0672H36.9416V51.4627L35.0618 54.2567H36.9878V54.7344ZM39.7213 54.7344H37.6566V51.0672H39.7213V51.5398H38.2113V52.5875H39.6289V53.0549H38.2113V54.2567H39.7213V54.7344ZM43.4842 52.8649C43.4842 53.2757 43.4071 53.6199 43.2531 53.8972C43.099 54.1745 42.8764 54.3834 42.5854 54.5238C42.2978 54.6642 41.9502 54.7344 41.5428 54.7344H40.5155V51.0672H41.6506C42.0238 51.0672 42.3474 51.1357 42.6213 51.2727C42.8952 51.4096 43.1075 51.6117 43.2582 51.8787C43.4088 52.1424 43.4842 52.4711 43.4842 52.8649ZM42.9038 52.8803C42.9038 52.5721 42.8542 52.3187 42.7549 52.1201C42.6556 51.9215 42.5083 51.7743 42.3132 51.6784C42.1214 51.5826 41.8886 51.5346 41.6147 51.5346H41.0702V54.267H41.5171C41.9793 54.267 42.3251 54.1506 42.5546 53.9177C42.7874 53.6849 42.9038 53.3391 42.9038 52.8803ZM46.6437 51.0672C47.1231 51.0672 47.4723 51.1648 47.6914 51.36C47.9106 51.5517 48.0201 51.8205 48.0201 52.1664C48.0201 52.3204 47.9945 52.4677 47.9431 52.6081C47.8952 52.7484 47.8147 52.8751 47.7017 52.9881C47.5887 53.0977 47.4381 53.185 47.2497 53.2501C47.0648 53.3117 46.8371 53.3425 46.5666 53.3425H46.1712V54.7344H45.6165V51.0672H46.6437ZM46.6026 51.5346H46.1712V52.8751H46.505C46.7139 52.8751 46.8885 52.8529 47.0289 52.8084C47.1693 52.7604 47.2737 52.6868 47.3422 52.5875C47.4141 52.4848 47.45 52.3513 47.45 52.1869C47.45 51.9678 47.3816 51.8051 47.2446 51.699C47.1111 51.5894 46.8971 51.5346 46.6026 51.5346ZM50.791 54.7344L50.4007 53.6763H48.9832L48.5928 54.7344H48.0176L49.4094 51.0518H49.9847L51.3714 54.7344H50.791ZM49.8768 52.1612C49.8666 52.1236 49.8477 52.0671 49.8203 51.9917C49.7964 51.913 49.7724 51.8342 49.7484 51.7555C49.7245 51.6733 49.7056 51.6065 49.6919 51.5552C49.6748 51.6236 49.6543 51.699 49.6303 51.7811C49.6098 51.8599 49.5892 51.9335 49.5687 52.002C49.5481 52.0671 49.531 52.1201 49.5173 52.1612L49.1475 53.1936H50.2466L49.8768 52.1612ZM52.8932 51.0672C53.2082 51.0672 53.4667 51.1066 53.6688 51.1854C53.8708 51.2641 54.0214 51.3822 54.1207 51.5398C54.22 51.6938 54.2697 51.889 54.2697 52.1253C54.2697 52.3136 54.2337 52.4728 54.1618 52.6029C54.0933 52.7296 54.0043 52.834 53.8947 52.9162C53.7852 52.995 53.6705 53.0583 53.5506 53.1062L54.5778 54.7344H53.941L53.0576 53.2501H52.4207V54.7344H51.866V51.0672H52.8932ZM52.8573 51.5398H52.4207V52.7878H52.8829C53.0713 52.7878 53.2253 52.7638 53.3452 52.7159C53.4684 52.668 53.5575 52.5961 53.6123 52.5002C53.6705 52.4043 53.6996 52.2862 53.6996 52.1458C53.6996 51.9986 53.6688 51.8822 53.6071 51.7966C53.5489 51.7075 53.4565 51.6425 53.3298 51.6014C53.2065 51.5603 53.049 51.5398 52.8573 51.5398ZM56.3488 54.7344H55.7941V51.5449H54.695V51.0672H57.4479V51.5449H56.3488V54.7344ZM61.0199 54.7344H60.3471L58.493 51.7709H58.4724C58.4759 51.8394 58.4793 51.913 58.4827 51.9917C58.4896 52.0705 58.4947 52.1544 58.4981 52.2434C58.5015 52.329 58.505 52.418 58.5084 52.5105C58.5118 52.5995 58.5135 52.6902 58.5135 52.7827V54.7344H58.0102V51.0672H58.6779L60.5269 54.0153H60.5423C60.5388 53.964 60.5354 53.9006 60.532 53.8253C60.5286 53.7465 60.5251 53.6627 60.5217 53.5736C60.5217 53.4846 60.52 53.3939 60.5166 53.3014C60.5132 53.209 60.5097 53.1217 60.5063 53.0395V51.0672H61.0199V54.7344ZM64.0623 54.7344H61.9977V51.0672H64.0623V51.5398H62.5523V52.5875H63.9699V53.0549H62.5523V54.2567H64.0623V54.7344ZM65.8838 51.0672C66.1988 51.0672 66.4573 51.1066 66.6593 51.1854C66.8613 51.2641 67.012 51.3822 67.1113 51.5398C67.2106 51.6938 67.2602 51.889 67.2602 52.1253C67.2602 52.3136 67.2243 52.4728 67.1524 52.6029C67.0839 52.7296 66.9949 52.834 66.8853 52.9162C66.7757 52.995 66.661 53.0583 66.5412 53.1062L67.5684 54.7344H66.9315L66.0481 53.2501H65.4113V54.7344H64.8566V51.0672H65.8838ZM65.8478 51.5398H65.4113V52.7878H65.8735C66.0618 52.7878 66.2159 52.7638 66.3358 52.7159C66.459 52.668 66.5481 52.5961 66.6028 52.5002C66.661 52.4043 66.6901 52.2862 66.6901 52.1458C66.6901 51.9986 66.6593 51.8822 66.5977 51.7966C66.5395 51.7075 66.447 51.6425 66.3204 51.6014C66.1971 51.5603 66.0396 51.5398 65.8478 51.5398Z" fill="white"/>
<path d="M22.8568 66.0039H22.3432V62.3801H21.0706V61.9293H24.1237V62.3801H22.8568V66.0039ZM27.0151 66.0039H24.7381V61.9293H27.0151V62.3801H25.2517V63.6527H26.9124V64.0979H25.2517V65.5531H27.0151V66.0039ZM29.6554 62.3231C29.2179 62.3231 28.8736 62.4695 28.6225 62.7625C28.3714 63.0554 28.2458 63.4568 28.2458 63.9666C28.2458 64.4726 28.3619 64.874 28.5939 65.1707C28.8298 65.4637 29.1817 65.6101 29.6497 65.6101C29.8285 65.6101 29.9978 65.5949 30.1576 65.5645C30.3174 65.5341 30.4733 65.496 30.6255 65.4504V65.8955C30.4733 65.9525 30.3155 65.9944 30.1519 66.021C29.9921 66.0477 29.7999 66.061 29.5755 66.061C29.1608 66.061 28.8146 65.9754 28.5369 65.8042C28.2591 65.633 28.0499 65.3895 27.9091 65.0737C27.7722 64.7579 27.7037 64.387 27.7037 63.9609C27.7037 63.55 27.7779 63.1886 27.9262 62.8766C28.0784 62.5609 28.301 62.3155 28.5939 62.1405C28.8869 61.9616 29.2426 61.8722 29.6611 61.8722C30.091 61.8722 30.4657 61.9521 30.7853 62.1119L30.5799 62.5456C30.4543 62.4886 30.3135 62.4372 30.1576 62.3916C30.0054 62.3459 29.838 62.3231 29.6554 62.3231ZM34.6307 66.0039H34.1171V64.1036H32.0284V66.0039H31.5148V61.9293H32.0284V63.6527H34.1171V61.9293H34.6307V66.0039ZM38.9747 66.0039H38.3755L36.1955 62.6198H36.1727C36.1803 62.753 36.1898 62.9185 36.2012 63.1163C36.2127 63.3141 36.2184 63.5177 36.2184 63.7269V66.0039H35.7447V61.9293H36.3382L38.5125 65.302H38.5353C38.5315 65.2411 38.5258 65.1498 38.5182 65.0281C38.5144 64.9063 38.5087 64.7732 38.5011 64.6286C38.4972 64.484 38.4953 64.3509 38.4953 64.2291V61.9293H38.9747V66.0039ZM43.6358 63.9609C43.6358 64.3832 43.5635 64.7522 43.4189 65.068C43.2781 65.38 43.0689 65.6235 42.7912 65.7985C42.5134 65.9735 42.1691 66.061 41.7583 66.061C41.336 66.061 40.984 65.9735 40.7025 65.7985C40.4248 65.6235 40.2174 65.3781 40.0805 65.0623C39.9435 64.7465 39.875 64.3775 39.875 63.9552C39.875 63.5367 39.9435 63.1715 40.0805 62.8595C40.2174 62.5475 40.4248 62.3041 40.7025 62.129C40.984 61.954 41.3379 61.8665 41.764 61.8665C42.171 61.8665 42.5134 61.954 42.7912 62.129C43.0689 62.3002 43.2781 62.5437 43.4189 62.8595C43.5635 63.1715 43.6358 63.5386 43.6358 63.9609ZM40.4172 63.9609C40.4172 64.4745 40.5256 64.8797 40.7425 65.1764C40.9593 65.4694 41.2979 65.6158 41.7583 65.6158C42.2224 65.6158 42.561 65.4694 42.774 65.1764C42.9871 64.8797 43.0936 64.4745 43.0936 63.9609C43.0936 63.4473 42.9871 63.0459 42.774 62.7568C42.561 62.4638 42.2243 62.3174 41.764 62.3174C41.3036 62.3174 40.9631 62.4638 40.7425 62.7568C40.5256 63.0459 40.4172 63.4473 40.4172 63.9609ZM44.5388 66.0039V61.9293H45.0525V65.5474H46.8329V66.0039H44.5388ZM50.9754 63.9609C50.9754 64.3832 50.9031 64.7522 50.7585 65.068C50.6177 65.38 50.4085 65.6235 50.1308 65.7985C49.853 65.9735 49.5087 66.061 49.0978 66.061C48.6755 66.061 48.3236 65.9735 48.0421 65.7985C47.7644 65.6235 47.557 65.3781 47.4201 65.0623C47.2831 64.7465 47.2146 64.3775 47.2146 63.9552C47.2146 63.5367 47.2831 63.1715 47.4201 62.8595C47.557 62.5475 47.7644 62.3041 48.0421 62.129C48.3236 61.954 48.6775 61.8665 49.1036 61.8665C49.5106 61.8665 49.853 61.954 50.1308 62.129C50.4085 62.3002 50.6177 62.5437 50.7585 62.8595C50.9031 63.1715 50.9754 63.5386 50.9754 63.9609ZM47.7568 63.9609C47.7568 64.4745 47.8652 64.8797 48.0821 65.1764C48.2989 65.4694 48.6375 65.6158 49.0978 65.6158C49.562 65.6158 49.9006 65.4694 50.1136 65.1764C50.3267 64.8797 50.4332 64.4745 50.4332 63.9609C50.4332 63.4473 50.3267 63.0459 50.1136 62.7568C49.9006 62.4638 49.5639 62.3174 49.1036 62.3174C48.6432 62.3174 48.3027 62.4638 48.0821 62.7568C47.8652 63.0459 47.7568 63.4473 47.7568 63.9609ZM53.6475 63.8525H55.0571V65.8498C54.8364 65.9221 54.6139 65.9754 54.3894 66.0096C54.1649 66.0439 53.91 66.061 53.6247 66.061C53.2024 66.061 52.8467 65.9773 52.5575 65.8099C52.2684 65.6387 52.0477 65.3971 51.8956 65.0851C51.7472 64.7694 51.673 64.3965 51.673 63.9666C51.673 63.5405 51.7567 63.1715 51.9241 62.8595C52.0915 62.5475 52.3312 62.306 52.6431 62.1348C52.9589 61.9597 53.3394 61.8722 53.7845 61.8722C54.0128 61.8722 54.2277 61.8932 54.4293 61.935C54.6348 61.9769 54.825 62.0358 55 62.1119L54.806 62.557C54.6614 62.4924 54.4978 62.4372 54.3152 62.3916C54.1364 62.3459 53.95 62.3231 53.756 62.3231C53.269 62.3231 52.8885 62.4695 52.6146 62.7625C52.3445 63.0554 52.2094 63.4568 52.2094 63.9666C52.2094 64.29 52.2608 64.5772 52.3635 64.8283C52.47 65.0756 52.6355 65.2696 52.86 65.4104C53.0845 65.5474 53.3793 65.6158 53.7445 65.6158C53.9233 65.6158 54.0755 65.6063 54.2011 65.5873C54.3266 65.5683 54.4408 65.5455 54.5435 65.5188V64.309H53.6475V63.8525ZM57.0918 63.9324L58.1532 61.9293H58.7068L57.3486 64.4231V66.0039H56.8349V64.446L55.4767 61.9293H56.036L57.0918 63.9324Z" fill="black"/>
<path fill-rule="evenodd" clip-rule="evenodd" d="M27.9565 36.4995V34.1555C27.9565 33.8474 28.1495 33.6 28.4692 33.6H28.5577C28.8772 33.6 29.0694 33.8477 29.0694 34.1555V39.0904C29.0694 40.2938 28.4733 41.2514 27.4347 41.8614C26.9589 42.1426 26.4158 42.2903 25.8628 42.289H25.642C24.4353 42.289 23.4767 41.694 22.8641 40.6587C22.5818 40.1842 22.4337 39.6422 22.4356 39.0904V38.8705C22.4356 37.6667 23.0319 36.7097 24.0697 36.0985C24.5454 35.8167 25.0888 35.669 25.642 35.6709H25.8628C26.6794 35.6709 27.3722 35.9866 27.9565 36.4995ZM23.5483 38.9802C23.5483 39.8495 23.9707 40.5031 24.7343 40.92C25.0431 41.0885 25.3783 41.179 25.7306 41.179C26.586 41.179 27.2206 40.7764 27.6582 40.0534C27.8617 39.717 27.9565 39.349 27.9565 38.9577C27.9565 38.2042 27.5988 37.6161 26.99 37.1793C26.6209 36.9145 26.2054 36.7817 25.7523 36.7817C24.8199 36.7817 24.149 37.2516 23.7462 38.0863C23.6104 38.3685 23.5483 38.6681 23.5483 38.9802ZM32.9302 35.6709H33.0844C34.3738 35.6709 35.3545 36.2948 35.9759 37.4175C36.2244 37.8667 36.3574 38.3569 36.3574 38.8705V39.0904C36.3574 40.2938 35.7625 41.2526 34.7223 41.8615C34.2407 42.1433 33.7087 42.289 33.1506 42.289H32.9302C31.7235 42.289 30.7645 41.694 30.1523 40.6587C29.8698 40.1842 29.7216 39.6422 29.7233 39.0904V38.8705C29.7233 37.6665 30.322 36.7127 31.3572 36.0988C31.8385 35.8136 32.3709 35.6709 32.9302 35.6709ZM30.8362 38.9802C30.8362 39.824 31.2512 40.4448 31.9658 40.8813C32.3013 41.0862 32.6708 41.179 33.0627 41.179C33.8986 41.179 34.5164 40.7562 34.9464 40.0525C35.1515 39.717 35.2443 39.3484 35.2443 38.9577C35.2443 38.1731 34.8654 37.5737 34.2177 37.1393C33.8628 36.9011 33.4677 36.7817 33.0403 36.7817C32.1079 36.7817 31.4369 37.2516 31.0344 38.0863C30.8982 38.3685 30.8362 38.6681 30.8362 38.9802ZM40.9838 36.8704C40.8158 36.7919 40.5012 36.7658 40.3197 36.759C39.3899 36.724 38.7172 37.2463 38.3225 38.0645C38.1862 38.3467 38.124 38.6454 38.124 38.9577C38.124 39.9086 38.6246 40.5743 39.4754 40.9802C39.7862 41.1283 40.1874 41.1564 40.5271 41.1564C40.8258 41.1564 41.2481 40.9739 41.5132 40.8482L41.5591 40.8264H41.7649L41.7876 40.831C42.0407 40.8836 42.2317 41.0436 42.2317 41.3153V41.4251C42.2317 42.101 40.9934 42.2558 40.5209 42.2887C38.8535 42.4038 37.6064 41.4903 37.1311 39.9038C37.0485 39.6283 37.0113 39.3547 37.0113 39.0676V38.848C37.0113 37.6442 37.6102 36.6906 38.6452 36.0773C39.1265 35.7922 39.6588 35.649 40.2179 35.649H40.4385C41.0316 35.649 41.578 35.817 42.0677 36.1507L42.1079 36.1785L42.1333 36.2203C42.1862 36.3077 42.2317 36.4088 42.2317 36.5128V36.6227C42.2317 36.9061 42.0192 37.0585 41.7627 37.1078L41.7414 37.1115H41.6756C41.5096 37.1115 41.132 36.94 40.9838 36.8704ZM44.5935 37.6221C45.0258 37.1903 45.4596 36.7594 45.8983 36.3348C46.0206 36.2163 46.4834 35.7149 46.6657 35.7149H46.865L46.8877 35.7196C47.1417 35.7722 47.3318 35.9325 47.3318 36.2047V36.3144C47.3318 36.5001 47.1138 36.7158 46.9936 36.8429C46.7379 37.1132 46.4688 37.3747 46.2071 37.6394L44.8625 39.001C45.4415 39.5798 46.0198 40.159 46.594 40.7422C46.7533 40.9032 46.9113 41.0654 47.0681 41.2287C47.1234 41.2867 47.205 41.3589 47.2514 41.4393C47.3012 41.5147 47.3318 41.5996 47.3318 41.6903V41.8049L47.3253 41.8314C47.2629 42.0847 47.1017 42.289 46.8204 42.289H46.7318C46.5476 42.289 46.3397 42.0813 46.2136 41.9625C45.9536 41.7181 45.7027 41.4611 45.4479 41.2114L44.5935 40.3747V41.7119C44.5935 42.02 44.4002 42.2675 44.081 42.2675H43.9934C43.6737 42.2675 43.4806 42.02 43.4806 41.7119V34.1769C43.4806 33.8689 43.6738 33.6225 43.9934 33.6225H44.081C44.4002 33.6225 44.5935 33.8689 44.5935 34.1769V37.6221ZM58.4639 35.7149H58.5745C58.9083 35.7149 59.1311 35.9392 59.1311 36.2703C59.1311 36.7299 58.6906 36.8475 58.3095 36.8475C57.8097 36.8475 57.3325 37.1493 56.988 37.4879C56.5584 37.9103 56.3704 38.4514 56.3704 39.0463V41.7337C56.3704 42.0417 56.1775 42.289 55.8577 42.289H55.7698C55.4499 42.289 55.2572 42.0419 55.2572 41.7337V38.892C55.2572 37.8008 55.7897 36.91 56.6776 36.2852C57.2077 35.912 57.8149 35.715 58.4639 35.715V35.7149ZM50.5542 41.0408C50.9592 41.1819 51.421 41.1617 51.8364 41.0895C52.049 40.9994 52.5925 40.7628 52.7924 40.7975L52.8235 40.8028L52.8523 40.8168C52.9743 40.8759 53.0908 40.9594 53.1532 41.0833C53.2988 41.3737 53.2288 41.6657 52.9428 41.8306L52.8475 41.8854C51.7919 42.4932 50.6691 42.4089 49.6168 41.8413C49.1137 41.57 48.7288 41.1673 48.4449 40.6763L48.3785 40.5616C47.7008 39.3908 47.7923 38.1593 48.5566 37.046C48.8204 36.6612 49.1653 36.364 49.5684 36.1315L49.7209 36.0436C50.7151 35.4712 51.7806 35.5104 52.8016 36.0128C53.3506 36.283 53.7954 36.6857 54.1019 37.2154L54.1571 37.3108C54.3797 37.6956 54.0913 38.0308 53.7936 38.26C53.448 38.5259 53.0992 38.846 52.768 39.1311C52.0295 39.767 51.2921 40.4044 50.5542 41.0408ZM49.5984 40.3712C50.4242 39.6649 51.2503 38.9579 52.074 38.2486C52.3555 38.0065 52.6641 37.7552 52.9433 37.5006C52.7193 37.219 52.345 37.016 52.027 36.8949C51.385 36.6509 50.7521 36.7329 50.1634 37.0718C49.3929 37.5157 49.0647 38.2224 49.0934 39.1019C49.1049 39.4483 49.1983 39.7821 49.3826 40.0768C49.4475 40.1806 49.52 40.2782 49.5984 40.3712ZM43.5925 18.1259H46.8765V21.4746H48.5369C49.3039 21.4746 50.0925 21.3384 50.8186 21.093C51.1755 20.9722 51.5759 20.8043 51.9279 20.593C51.4643 19.9893 51.2276 19.227 51.1581 18.4756C51.0633 17.4534 51.2702 16.1231 51.9636 15.3231L52.3088 14.9248L52.7201 15.2548C53.7558 16.0847 54.6268 17.2445 54.7804 18.5667C56.0274 18.2008 57.4916 18.2873 58.5908 18.9201L59.0417 19.1797L58.8045 19.6419C57.8748 21.4516 55.9312 22.0123 54.0311 21.913C51.1879 28.9771 44.9977 32.3214 37.4923 32.3214C33.6145 32.3214 30.057 30.8755 28.0311 27.4438L27.998 27.3879L27.7028 26.7888C27.018 25.2782 26.7906 23.6234 26.9448 21.9699L26.9912 21.4746H29.7995V18.1259H33.0834V14.85H39.6516V11.5742H43.5925V18.1259Z" fill="#364548"/>
<path fill-rule="evenodd" clip-rule="evenodd" d="M54.2334 19.3642C54.4536 17.6571 53.1729 16.3163 52.3787 15.6797C51.4634 16.7352 51.3212 19.5016 52.7571 20.6664C51.9557 21.3764 50.2672 22.0199 48.5382 22.0199H27.4914C27.3233 23.8203 27.6401 25.4782 28.3638 26.8972L28.6033 27.3342C28.7549 27.5907 28.9205 27.8386 29.0995 28.0769C29.9648 28.1323 30.7626 28.1514 31.4925 28.1353H31.4928C32.9271 28.1038 34.0974 27.9347 34.9844 27.6282C35.0472 27.6087 35.115 27.6143 35.1736 27.6439C35.2322 27.6734 35.277 27.7245 35.2985 27.7864C35.32 27.8483 35.3166 27.9161 35.2889 27.9755C35.2611 28.0349 35.2114 28.0812 35.15 28.1047C35.032 28.1456 34.909 28.1837 34.7821 28.22H34.7817C34.0832 28.419 33.3342 28.5528 32.368 28.6122C32.4254 28.6132 32.3082 28.6208 32.3079 28.6208C32.2751 28.623 32.2337 28.6277 32.2007 28.6294C31.8204 28.6508 31.4099 28.6552 30.9902 28.6552C30.5312 28.6552 30.0792 28.6466 29.5738 28.6208L29.5609 28.6294C31.3145 30.5956 34.0565 31.7747 37.4936 31.7747C44.7677 31.7747 50.9376 28.5582 53.6698 21.3371C55.6081 21.5355 57.471 21.0424 58.3184 19.3923C56.9686 18.6154 55.2329 18.8631 54.2334 19.3642Z" fill="#22A0C8"/>
<path fill-rule="evenodd" clip-rule="evenodd" d="M54.237 19.3642C54.4572 17.6571 53.1765 16.3163 52.3823 15.6797C51.467 16.7352 51.3249 19.5016 52.7608 20.6664C51.9594 21.3764 50.2708 22.0199 48.5418 22.0199H28.7413C28.6554 24.7771 29.6812 26.87 31.496 28.1353H31.4964C32.9307 28.1038 34.1011 27.9347 34.9881 27.6282C35.0508 27.6087 35.1186 27.6143 35.1772 27.6439C35.2359 27.6734 35.2807 27.7245 35.3022 27.7864C35.3237 27.8483 35.3202 27.9161 35.2925 27.9755C35.2648 28.0349 35.215 28.0812 35.1537 28.1047C35.0356 28.1456 34.9127 28.1837 34.7857 28.22H34.7853C34.0869 28.419 33.2735 28.57 32.3073 28.6294C32.307 28.6294 32.2839 28.6072 32.2836 28.6072C34.7591 29.8739 38.3486 29.8694 42.4641 28.2925C47.0786 26.524 51.3727 23.1551 54.3687 19.3018C54.3236 19.3221 54.2797 19.3429 54.237 19.3642Z" fill="#37B1D9"/>
<path fill-rule="evenodd" clip-rule="evenodd" d="M27.5293 24.2109C27.66 25.1754 27.9429 26.0784 28.3623 26.9008L28.6017 27.3378C28.7533 27.5943 28.9189 27.8422 29.0979 28.0804C29.9634 28.1359 30.7612 28.1549 31.4912 28.1389C32.9255 28.1074 34.0959 27.9383 34.9829 27.6317C35.0456 27.6123 35.1134 27.6179 35.172 27.6475C35.2307 27.677 35.2755 27.7281 35.297 27.79C35.3185 27.8519 35.315 27.9197 35.2873 27.9791C35.2596 28.0385 35.2098 28.0848 35.1485 28.1082C35.0304 28.1492 34.9075 28.1873 34.7805 28.2236H34.7801C34.0817 28.4226 33.2727 28.565 32.3064 28.6246C32.2732 28.6266 32.2153 28.627 32.1819 28.6288C31.8018 28.6501 31.3955 28.6631 30.9757 28.6631C30.5169 28.6631 30.0475 28.6544 29.5424 28.6287C31.296 30.5948 34.055 31.7783 37.4921 31.7783C43.7194 31.7783 49.1374 29.4205 52.2819 24.2109H27.5293Z" fill="#1B81A5"/>
<path fill-rule="evenodd" clip-rule="evenodd" d="M28.9277 24.2109C29.3 25.9043 30.1946 27.2336 31.4934 28.1389C32.9277 28.1074 34.0981 27.9383 34.9851 27.6317C35.0478 27.6123 35.1156 27.6179 35.1742 27.6475C35.2328 27.677 35.2776 27.7281 35.2991 27.79C35.3206 27.8519 35.3172 27.9197 35.2895 27.9791C35.2618 28.0385 35.212 28.0848 35.1506 28.1082C35.0326 28.1492 34.9097 28.1873 34.7827 28.2236H34.7823C34.0838 28.4226 33.2577 28.565 32.2913 28.6246C34.7667 29.891 38.3459 29.8728 42.461 28.2961C44.9506 27.3419 47.3466 25.9216 49.4961 24.2109H28.9277Z" fill="#1D91B4"/>
<path fill-rule="evenodd" clip-rule="evenodd" d="M30.3496 18.6704H33.1959V21.5095H30.3496V18.6704ZM30.5867 18.907H30.8113V21.273H30.5867V18.907ZM31.009 18.907H31.2426V21.273H31.0091V18.907H31.009ZM31.4401 18.907H31.6738V21.273H31.4401V18.907ZM31.8716 18.907H32.1051V21.273H31.8716V18.907ZM32.3028 18.907H32.5364V21.273H32.3028V18.907ZM32.734 18.907H32.9588V21.273H32.734V18.907ZM33.6336 15.3945H36.48V18.2336H33.6335V15.3945H33.6336ZM33.8709 15.6312H34.0954V17.997H33.8709V15.6312ZM34.2931 15.6312H34.5267V17.997H34.2933V15.6312H34.2931ZM34.7243 15.6312H34.9578V17.997H34.7243V15.6312ZM35.1556 15.6312H35.3891V17.997H35.1556V15.6312ZM35.5869 15.6312H35.8205V17.997H35.5869V15.6312ZM36.018 15.6312H36.2429V17.997H36.018V15.6312Z" fill="#23A3C2"/>
<path fill-rule="evenodd" clip-rule="evenodd" d="M33.631 18.6719H36.478V21.511H33.6309V18.6719H33.631ZM33.8683 18.9085H34.0928V21.2745H33.8683V18.9085ZM34.2906 18.9085H34.5242V21.2745H34.2908V18.9085H34.2906ZM34.7219 18.9085H34.9555V21.2745H34.7219V18.9085ZM35.1533 18.9085H35.3868V21.2745H35.1533V18.9085ZM35.5846 18.9085H35.8184V21.2745H35.5846V18.9085ZM36.0159 18.9085H36.2408V21.2745H36.0159V18.9085Z" fill="#34BBDE"/>
<path fill-rule="evenodd" clip-rule="evenodd" d="M36.916 18.6719H39.7629V21.511H36.916V18.6719ZM37.1532 18.9085H37.3777V21.2745H37.1532V18.9085ZM37.5755 18.9085H37.8091V21.2745H37.5755V18.9085ZM38.0069 18.9085H38.2405V21.2745H38.0069V18.9085ZM38.4383 18.9085H38.6718V21.2745H38.4383V18.9085ZM38.8695 18.9085H39.1034V21.2745H38.8695V18.9085ZM39.3009 18.9085H39.5256V21.2745H39.3009V18.9085Z" fill="#23A3C2"/>
<path fill-rule="evenodd" clip-rule="evenodd" d="M36.916 15.3945H39.7623V18.2336H36.916V15.3945ZM37.1531 15.6312H37.3776V17.997H37.1531V15.6312ZM37.5754 15.6312H37.8089V17.997H37.5754V15.6312ZM38.0067 15.6312H38.2402V17.997H38.0067V15.6312ZM38.438 15.6312H38.6715V17.997H38.438V15.6312ZM38.8691 15.6312H39.1029V17.997H38.8691V15.6312ZM39.3004 15.6312H39.525V17.997H39.3004V15.6312ZM40.2 18.6704H43.0463V21.5095H40.2V18.6704ZM40.4373 18.907H40.6618V21.273H40.4373V18.907ZM40.8595 18.907H41.0931V21.273H40.8595V18.907ZM41.2907 18.907H41.5242V21.273H41.2907V18.907ZM41.722 18.907H41.9556V21.273H41.722V18.907ZM42.1533 18.907H42.3869V21.273H42.1533V18.907ZM42.5846 18.907H42.8092V21.273H42.5846V18.907Z" fill="#34BBDE"/>
<path fill-rule="evenodd" clip-rule="evenodd" d="M40.2012 15.3945H43.048V18.2336H40.2012V15.3945ZM40.4385 15.6312H40.663V17.997H40.4385V15.6312ZM40.8608 15.6312H41.0944V17.997H40.8608V15.6312ZM41.292 15.6312H41.5256V17.997H41.292V15.6312ZM41.7234 15.6312H41.9571V17.997H41.7234V15.6312ZM42.1548 15.6312H42.3885V17.997H42.1548V15.6312ZM42.5862 15.6312H42.8109V17.997H42.5862V15.6312Z" fill="#23A3C2"/>
<path fill-rule="evenodd" clip-rule="evenodd" d="M40.2012 12.1211H43.048V14.9605H40.2012V12.1211ZM40.4385 12.3576H40.663V14.7237H40.4385V12.3575V12.3576ZM40.8608 12.3576H41.0944V14.7237H40.8608V12.3575V12.3576ZM41.292 12.3576H41.5256V14.7237H41.292V12.3575V12.3576ZM41.7234 12.3576H41.9571V14.7237H41.7234V12.3575V12.3576ZM42.1548 12.3576H42.3885V14.7237H42.1548V12.3575V12.3576ZM42.5862 12.3576H42.8109V14.7237H42.5862V12.3575V12.3576Z" fill="#34BBDE"/>
<path fill-rule="evenodd" clip-rule="evenodd" d="M43.4863 18.6719H46.3332V21.511H43.4863V18.6719ZM43.7233 18.9085H43.9482V21.2745H43.7235V18.9085H43.7233ZM44.1457 18.9085H44.3794V21.2745H44.1458V18.9085H44.1457ZM44.5772 18.9085H44.8109V21.2745H44.5772V18.9085ZM45.0084 18.9085H45.2422V21.2745H45.0084V18.9085ZM45.44 18.9085H45.6735V21.2745H45.44V18.9085ZM45.8712 18.9085H46.0959V21.2745H45.8712V18.9085Z" fill="#23A3C2"/>
<path fill-rule="evenodd" clip-rule="evenodd" d="M36.2965 26.1173C36.4005 26.1159 36.5038 26.1351 36.6003 26.1739C36.6968 26.2126 36.7847 26.2701 36.8587 26.343C36.9328 26.4159 36.9916 26.5027 37.0317 26.5985C37.0718 26.6942 37.0925 26.7969 37.0924 26.9007C37.0924 27.0045 37.0717 27.1072 37.0316 27.2029C36.9914 27.2986 36.9326 27.3854 36.8585 27.4583C36.7844 27.5312 36.6966 27.5886 36.6 27.6273C36.5035 27.666 36.4002 27.6852 36.2962 27.6838C36.0897 27.681 35.8927 27.5972 35.7477 27.4506C35.6027 27.304 35.5214 27.1063 35.5215 26.9004C35.5215 26.6945 35.6029 26.4968 35.7479 26.3503C35.8929 26.2037 36.09 26.12 36.2965 26.1173Z" fill="#D3ECEC"/>
<path fill-rule="evenodd" clip-rule="evenodd" d="M36.3007 26.3348C36.3726 26.3348 36.4411 26.3482 36.5043 26.3727C36.4606 26.398 36.4266 26.4369 36.4073 26.4833C36.3881 26.5298 36.3847 26.5814 36.3978 26.6299C36.4108 26.6785 36.4395 26.7215 36.4795 26.7521C36.5195 26.7828 36.5684 26.7995 36.6189 26.7997C36.7058 26.7997 36.7812 26.7517 36.8202 26.6806C36.8665 26.7917 36.8757 26.9148 36.8464 27.0315C36.8172 27.1483 36.7511 27.2526 36.6579 27.329C36.5647 27.4054 36.4493 27.4498 36.3288 27.4558C36.2083 27.4618 36.0891 27.429 35.9888 27.3622C35.8884 27.2953 35.8123 27.1981 35.7716 27.0848C35.7309 26.9716 35.7278 26.8482 35.7628 26.733C35.7978 26.6179 35.8689 26.517 35.9658 26.4453C36.0627 26.3735 36.1801 26.3348 36.3007 26.3348ZM22.4121 24.4894H58.9386C58.1433 24.2883 56.4223 24.0164 56.7061 22.9766C55.2599 24.6459 51.7724 24.1477 50.8921 23.3247C49.912 24.7427 44.206 24.2036 43.808 23.0989C42.5792 24.5374 38.7717 24.5374 37.5429 23.0989C37.1447 24.2036 31.4388 24.7427 30.4586 23.3245C29.5785 24.1477 26.0911 24.6459 24.6448 22.9767C24.9286 24.0164 23.2076 24.2883 22.4121 24.4896" fill="#364548"/>
<path fill-rule="evenodd" clip-rule="evenodd" d="M38.392 31.7565C36.4474 30.836 35.3802 29.5846 34.7863 28.2188C34.0639 28.4243 33.1957 28.5558 32.1868 28.6123C31.8067 28.6335 31.4069 28.6444 30.9875 28.6444C30.5038 28.6444 29.9941 28.6301 29.459 28.6018C31.2423 30.3797 33.4361 31.7484 37.4983 31.7734C37.7981 31.7734 38.0957 31.7676 38.392 31.7565Z" fill="#BDD9D7"/>
<path fill-rule="evenodd" clip-rule="evenodd" d="M35.5041 29.4795C35.2351 29.1151 34.974 28.6573 34.7821 28.2188C34.0596 28.4246 33.1909 28.5561 32.1816 28.6127C32.8749 28.9879 33.8662 29.3356 35.5043 29.4795" fill="#D3ECEC"/>
</svg>
