<svg width="111" height="70" viewBox="0 0 111 70" fill="none" xmlns="http://www.w3.org/2000/svg">
<path d="M96.432 42.2212H95.268V44.2422H93.9121V42.2212H89.9853V41.1467L93.8993 35.071H95.268V41.07H96.432V42.2212ZM93.9121 38.5885C93.9121 38.3839 93.9121 38.1877 93.9121 38.0001C93.9207 37.8125 93.9292 37.6335 93.9377 37.4629C93.9462 37.2838 93.9505 37.1218 93.9505 36.9768C93.959 36.8233 93.9676 36.6869 93.9761 36.5675H93.9249C93.8567 36.7381 93.7757 36.9129 93.6819 37.092C93.5966 37.271 93.5113 37.4288 93.4261 37.5652L91.2772 41.07H93.9121V38.5885ZM97.4305 43.4875C97.4305 43.1549 97.5115 42.9204 97.6735 42.784C97.8441 42.6476 98.053 42.5793 98.3003 42.5793C98.5391 42.5793 98.7437 42.6476 98.9143 42.784C99.0933 42.9204 99.1829 43.1549 99.1829 43.4875C99.1829 43.8201 99.0933 44.0588 98.9143 44.2038C98.7437 44.3488 98.5391 44.4213 98.3003 44.4213C98.053 44.4213 97.8441 44.3488 97.6735 44.2038C97.5115 44.0588 97.4305 43.8201 97.4305 43.4875ZM103.414 34.9814C103.926 34.9814 104.378 35.0667 104.77 35.2373C105.171 35.3993 105.482 35.6423 105.704 35.9663C105.934 36.2904 106.049 36.6954 106.049 37.1815C106.049 37.5482 105.977 37.868 105.832 38.1408C105.695 38.4137 105.503 38.6567 105.256 38.8699C105.017 39.0746 104.753 39.2537 104.463 39.4072C104.795 39.5862 105.102 39.7909 105.384 40.0211C105.665 40.2428 105.891 40.5029 106.062 40.8014C106.241 41.0998 106.33 41.458 106.33 41.8758C106.33 42.3875 106.211 42.8309 105.972 43.2061C105.742 43.5728 105.409 43.8585 104.975 44.0631C104.54 44.2678 104.024 44.3701 103.427 44.3701C102.787 44.3701 102.246 44.272 101.802 44.0759C101.367 43.8798 101.039 43.6026 100.817 43.2445C100.596 42.8778 100.485 42.4344 100.485 41.9142C100.485 41.4964 100.562 41.1339 100.715 40.827C100.877 40.52 101.086 40.2556 101.342 40.0339C101.606 39.8122 101.896 39.6246 102.212 39.4711C101.939 39.3006 101.691 39.1087 101.47 38.8955C101.248 38.6738 101.073 38.4222 100.945 38.1408C100.826 37.8594 100.766 37.5354 100.766 37.1687C100.766 36.6912 100.881 36.2946 101.112 35.9791C101.342 35.6551 101.657 35.4078 102.058 35.2373C102.459 35.0667 102.911 34.9814 103.414 34.9814ZM101.815 41.8886C101.815 42.3065 101.947 42.6518 102.212 42.9247C102.476 43.1891 102.873 43.3212 103.401 43.3212C103.759 43.3212 104.054 43.2615 104.284 43.1422C104.514 43.0142 104.689 42.8437 104.808 42.6305C104.936 42.4088 105 42.1572 105 41.8758C105 41.5944 104.932 41.3471 104.795 41.1339C104.659 40.9208 104.471 40.7332 104.233 40.5711C104.002 40.4006 103.738 40.2471 103.44 40.1107L103.273 40.0339C102.966 40.1789 102.702 40.3409 102.48 40.52C102.267 40.6991 102.101 40.8994 101.981 41.1212C101.871 41.3429 101.815 41.5987 101.815 41.8886ZM103.388 36.0431C103.013 36.0431 102.702 36.1454 102.455 36.3501C102.216 36.5547 102.097 36.8532 102.097 37.2455C102.097 37.5269 102.156 37.7656 102.276 37.9618C102.404 38.1579 102.566 38.3284 102.762 38.4734C102.966 38.6098 103.188 38.742 103.427 38.8699C103.666 38.7505 103.879 38.6226 104.066 38.4862C104.263 38.3412 104.416 38.1707 104.527 37.9745C104.646 37.7699 104.706 37.5269 104.706 37.2455C104.706 36.8532 104.582 36.5547 104.335 36.3501C104.096 36.1454 103.781 36.0431 103.388 36.0431Z" fill="black"/>
<path d="M21.6934 24.2227H25.419V47.0224H21.6934V24.2227Z" fill="black"/>
<path d="M38.3924 39.7941C38.3924 43.3265 35.4772 43.6476 34.5055 43.6476C32.2382 43.6476 31.9143 41.5603 31.9143 40.4364V31.6055H28.1895V40.2758C28.1895 42.3631 28.8373 44.2898 30.1329 45.4138C31.2665 46.5377 32.7241 47.0194 34.5055 47.0194C35.8011 47.0194 37.4207 46.6983 38.3924 45.7349V47.0194H42.1172V31.6055H38.3924V39.7941Z" fill="black"/>
<path d="M49.398 25.9922H45.6731V31.6118H42.9199V35.1442H45.6731V47.0258H49.398V35.1442H52.1511V31.6118H49.398V25.9922Z" fill="black"/>
<path d="M63.8232 42.3639C63.0134 43.0062 61.8798 43.4878 60.7461 43.4878C58.1549 43.4878 56.3735 41.5611 56.3735 38.9921C56.3735 36.4231 58.1549 34.6569 60.7461 34.6569C61.8798 34.6569 63.0134 34.9781 63.8232 35.7809L64.3091 36.2626L66.9003 33.8541L66.2525 33.3725C64.7949 32.088 62.8515 31.2852 60.7461 31.2852C56.2115 31.2852 52.8105 34.657 52.8105 39.1527C52.8105 43.6484 56.2115 47.0202 60.7461 47.0202C62.8515 47.0202 64.7949 46.2174 66.2525 44.9329L66.9003 44.4512L64.3091 41.8822L63.8232 42.3639Z" fill="black"/>
<path d="M80.0026 32.893C78.8689 31.7691 77.7353 31.2874 75.9538 31.2874C74.6582 31.2874 73.3626 31.6085 72.3909 32.5719V24.2227H68.666V47.0224H72.3909V38.5126C72.3909 34.9803 74.8201 34.6592 75.7918 34.6592C78.0592 34.6592 77.8972 36.7465 77.8972 37.8704V46.8619H81.6221V38.031C81.6221 35.9437 81.1362 34.0169 80.0026 32.893Z" fill="black"/>
<path d="M60.5814 41.7239C62.0125 41.7239 63.1727 40.5737 63.1727 39.1549C63.1727 37.7361 62.0125 36.5859 60.5814 36.5859C59.1504 36.5859 57.9902 37.7361 57.9902 39.1549C57.9902 40.5737 59.1504 41.7239 60.5814 41.7239Z" fill="black"/>
<path d="M16.5216 41.4046C15.226 42.6891 13.2825 43.4919 11.1772 43.4919C7.12842 43.4919 4.21331 40.2807 4.21331 35.9455C4.21331 31.6104 7.12842 28.3991 11.3391 28.3991C13.2825 28.3991 15.226 29.2019 16.6835 30.647L17.1694 31.1287L19.5986 28.7203L19.1128 28.2386C17.0074 26.1513 14.2543 25.0273 11.3391 25.0273C5.18501 24.8668 0.650391 29.6836 0.650391 35.9455C0.650391 42.2074 5.18501 47.0243 11.1772 47.0243C14.0923 47.0243 17.0074 45.9004 18.9508 43.8131L19.4367 43.3314L17.0074 40.923L16.5216 41.4046Z" fill="black"/>
<path d="M31.1107 55.9821L29.5299 59.1715C29.4495 59.3338 29.3307 59.4742 29.1836 59.5806C29.0366 59.687 28.8658 59.7562 28.686 59.7822L25.1527 60.2938C24.9871 60.3177 24.8315 60.3872 24.7035 60.4946C24.5755 60.602 24.4803 60.7429 24.4286 60.9014C24.3769 61.0599 24.3708 61.2297 24.411 61.3915C24.4512 61.5532 24.536 61.7006 24.6559 61.8168L27.2137 64.2996C27.3436 64.4258 27.4408 64.5815 27.4969 64.7533C27.553 64.9252 27.5664 65.108 27.5359 65.2862L26.9321 68.7921C26.904 68.9563 26.9226 69.1249 26.9858 69.2791C27.049 69.4332 27.1542 69.5667 27.2895 69.6644C27.4248 69.7621 27.5849 69.8202 27.7517 69.8321C27.9184 69.844 28.0852 69.8092 28.2331 69.7317L31.3938 68.0767C31.5546 67.9925 31.7336 67.9485 31.9153 67.9485C32.097 67.9485 32.2759 67.9925 32.4368 68.0767L35.5974 69.7317C35.7453 69.8092 35.9121 69.844 36.0788 69.8321C36.2456 69.8202 36.4057 69.7621 36.541 69.6644C36.6763 69.5667 36.7815 69.4332 36.8447 69.2791C36.9079 69.1249 36.9265 68.9563 36.8984 68.7921L36.2946 65.2862C36.2641 65.108 36.2775 64.9252 36.3336 64.7533C36.3897 64.5815 36.4869 64.4258 36.6168 64.2996L39.1746 61.8168C39.2945 61.7006 39.3794 61.5532 39.4195 61.3915C39.4597 61.2297 39.4536 61.0599 39.4019 60.9014C39.3502 60.7429 39.255 60.602 39.127 60.4946C38.9991 60.3872 38.8435 60.3177 38.6778 60.2938L35.1431 59.7822C34.9633 59.7562 34.7925 59.687 34.6455 59.5806C34.4984 59.4742 34.3796 59.3338 34.2992 59.1715L32.7184 55.9821C32.6444 55.8327 32.5299 55.7069 32.3878 55.619C32.2458 55.531 32.0818 55.4844 31.9145 55.4844C31.7473 55.4844 31.5833 55.531 31.4413 55.619C31.2992 55.7069 31.1847 55.8327 31.1107 55.9821Z" fill="#FF141A"/>
<path d="M54.8426 55.9807L53.2618 59.17C53.1814 59.3324 53.0626 59.4728 52.9155 59.5791C52.7685 59.6855 52.5977 59.7547 52.4179 59.7808L48.8831 60.2924C48.7175 60.3162 48.5619 60.3858 48.434 60.4932C48.306 60.6006 48.2108 60.7415 48.1591 60.9C48.1074 61.0585 48.1013 61.2283 48.1414 61.39C48.1816 61.5518 48.2665 61.6992 48.3864 61.8154L50.9442 64.2982C51.074 64.4244 51.1712 64.5801 51.2273 64.7519C51.2835 64.9238 51.2968 65.1066 51.2664 65.2847L50.6625 68.7907C50.6345 68.9548 50.6531 69.1235 50.7163 69.2776C50.7794 69.4318 50.8846 69.5653 51.02 69.663C51.1553 69.7607 51.3154 69.8188 51.4821 69.8307C51.6489 69.8426 51.8156 69.8078 51.9636 69.7303L55.1242 68.0752C55.2851 67.991 55.464 67.947 55.6457 67.947C55.8274 67.947 56.0064 67.991 56.1672 68.0752L59.3279 69.7303C59.4758 69.8078 59.6426 69.8426 59.8093 69.8307C59.9761 69.8188 60.1362 69.7607 60.2715 69.663C60.4068 69.5653 60.512 69.4318 60.5752 69.2776C60.6383 69.1235 60.6569 68.9548 60.6289 68.7907L60.0251 65.2847C59.9946 65.1066 60.0079 64.9237 60.0641 64.7519C60.1202 64.58 60.2174 64.4243 60.3473 64.2982L62.905 61.8154C63.025 61.6992 63.1098 61.5518 63.15 61.39C63.1902 61.2283 63.1841 61.0585 63.1324 60.9C63.0807 60.7415 62.9855 60.6006 62.8575 60.4932C62.7295 60.3858 62.5739 60.3162 62.4083 60.2924L58.8736 59.7808C58.6937 59.7547 58.5229 59.6855 58.3759 59.5791C58.2289 59.4728 58.1101 59.3324 58.0296 59.17L56.4489 55.9807C56.3747 55.8317 56.2602 55.7062 56.1183 55.6185C55.9764 55.5308 55.8127 55.4844 55.6457 55.4844C55.4787 55.4844 55.315 55.5308 55.1731 55.6185C55.0312 55.7062 54.9167 55.8317 54.8426 55.9807Z" fill="#FF141A"/>
<path d="M78.5804 55.9821L76.9996 59.1715C76.9192 59.3338 76.8004 59.4742 76.6533 59.5806C76.5063 59.687 76.3355 59.7562 76.1557 59.7822L72.6214 60.2938C72.4558 60.3177 72.3002 60.3872 72.1722 60.4946C72.0443 60.602 71.949 60.7429 71.8974 60.9014C71.8457 61.0599 71.8396 61.2297 71.8797 61.3915C71.9199 61.5532 72.0048 61.7006 72.1247 61.8168L74.6824 64.2996C74.8123 64.4258 74.9095 64.5815 74.9656 64.7533C75.0217 64.9252 75.0351 65.108 75.0046 65.2862L74.4008 68.7921C74.3728 68.9563 74.3914 69.1249 74.4546 69.2791C74.5177 69.4332 74.6229 69.5667 74.7582 69.6644C74.8936 69.7621 75.0537 69.8202 75.2204 69.8321C75.3872 69.844 75.5539 69.8092 75.7019 69.7317L78.8625 68.0767C79.0233 67.9925 79.2023 67.9485 79.384 67.9485C79.5657 67.9485 79.7447 67.9925 79.9055 68.0767L83.0661 69.7317C83.2141 69.8092 83.3808 69.844 83.5476 69.8321C83.7143 69.8202 83.8744 69.7621 84.0098 69.6644C84.1451 69.5667 84.2503 69.4332 84.3135 69.2791C84.3766 69.1249 84.3952 68.9563 84.3672 68.7921L83.7634 65.2862C83.7328 65.108 83.7462 64.9252 83.8023 64.7533C83.8585 64.5815 83.9557 64.4258 84.0856 64.2996L86.6433 61.8168C86.7632 61.7006 86.8481 61.5532 86.8883 61.3915C86.9285 61.2297 86.9223 61.0599 86.8707 60.9014C86.819 60.7429 86.7237 60.602 86.5958 60.4946C86.4678 60.3872 86.3122 60.3177 86.1466 60.2938L82.6119 59.7822C82.432 59.7562 82.2612 59.687 82.1142 59.5806C81.9672 59.4742 81.8483 59.3338 81.7679 59.1715L80.1881 55.9821C80.1141 55.8327 79.9996 55.7069 79.8575 55.619C79.7155 55.531 79.5515 55.4844 79.3842 55.4844C79.217 55.4844 79.053 55.531 78.911 55.619C78.7689 55.7069 78.6544 55.8327 78.5804 55.9821Z" fill="#FF141A"/>
<path d="M103.959 55.9699L105.539 59.1592C105.62 59.3215 105.739 59.4619 105.886 59.5683C106.033 59.6747 106.204 59.7439 106.383 59.7699L109.918 60.2815C110.083 60.3054 110.239 60.3749 110.367 60.4823C110.495 60.5897 110.59 60.7307 110.642 60.8892C110.693 61.0477 110.7 61.2174 110.659 61.3792C110.619 61.541 110.534 61.6883 110.414 61.8045L107.857 64.2873C107.727 64.4135 107.63 64.5692 107.573 64.7411C107.517 64.9129 107.504 65.0957 107.534 65.2739L108.138 68.7799C108.166 68.944 108.148 69.1126 108.085 69.2668C108.021 69.4209 107.916 69.5544 107.781 69.6521C107.645 69.7499 107.485 69.808 107.319 69.8199C107.152 69.8317 106.985 69.797 106.837 69.7194L103.677 68.0644C103.516 67.9802 103.337 67.9362 103.155 67.9362C102.973 67.9362 102.794 67.9802 102.634 68.0644L99.4729 69.7194C99.325 69.797 99.1582 69.8317 98.9915 69.8199C98.8247 69.808 98.6646 69.7499 98.5293 69.6521C98.394 69.5544 98.2888 69.4209 98.2256 69.2668C98.1624 69.1126 98.1438 68.944 98.1719 68.7799L98.7757 65.2739C98.8062 65.0957 98.7929 64.9129 98.7367 64.741C98.6806 64.5692 98.5834 64.4135 98.4535 64.2873L95.8957 61.8045C95.7758 61.6883 95.691 61.541 95.6508 61.3792C95.6106 61.2174 95.6167 61.0477 95.6684 60.8892C95.7201 60.7307 95.8153 60.5897 95.9433 60.4823C96.0713 60.3749 96.2269 60.3054 96.3925 60.2815L99.9272 59.7699C100.107 59.7439 100.278 59.6747 100.425 59.5683C100.572 59.4619 100.691 59.3215 100.771 59.1592L102.348 55.9699C102.421 55.8196 102.536 55.6929 102.678 55.6043C102.821 55.5157 102.985 55.4688 103.153 55.4688C103.321 55.4688 103.486 55.5157 103.628 55.6043C103.77 55.6929 103.885 55.8196 103.959 55.9699Z" fill="#FF141A"/>
<path d="M106.837 69.7359L104.685 68.6084V57.4492L105.539 59.1733C105.619 59.3356 105.738 59.476 105.885 59.5824C106.032 59.6888 106.203 59.758 106.383 59.784L109.918 60.2956C110.083 60.3195 110.239 60.3891 110.367 60.4965C110.495 60.6038 110.59 60.7448 110.642 60.9033C110.693 61.0618 110.7 61.2315 110.659 61.3933C110.619 61.5551 110.534 61.7024 110.414 61.8187L107.857 64.3015C107.727 64.4276 107.63 64.5833 107.573 64.7552C107.517 64.927 107.504 65.1099 107.534 65.288L108.138 68.794C108.167 68.9583 108.149 69.1273 108.086 69.2818C108.023 69.4363 107.918 69.5702 107.782 69.6682C107.647 69.7663 107.486 69.8246 107.319 69.8365C107.152 69.8485 106.985 69.8136 106.837 69.7359Z" fill="#FF141A"/>
<path d="M7.42462 55.967L5.84384 59.1568C5.76343 59.3191 5.64459 59.4595 5.49757 59.5659C5.35055 59.6723 5.17975 59.7415 4.9999 59.7675L1.46518 60.2791C1.29956 60.303 1.14395 60.3725 1.01598 60.4799C0.888018 60.5873 0.792798 60.7283 0.741102 60.8868C0.689407 61.0453 0.683304 61.215 0.723481 61.3768C0.763659 61.5386 0.848523 61.6859 0.968448 61.8021L3.5262 64.2849C3.65608 64.4111 3.75326 64.5668 3.80938 64.7387C3.8655 64.9105 3.87888 65.0933 3.84839 65.2715L3.24457 68.7775C3.21653 68.9416 3.23515 69.1102 3.29831 69.2644C3.36147 69.4185 3.46666 69.552 3.602 69.6497C3.73734 69.7475 3.89743 69.8056 4.06418 69.8175C4.23092 69.8293 4.39768 69.7946 4.54562 69.717L7.70626 68.062C7.86709 67.9778 8.04606 67.9338 8.22776 67.9338C8.40946 67.9338 8.58843 67.9778 8.74926 68.062L11.9099 69.717C12.0578 69.7946 12.2246 69.8293 12.3913 69.8175C12.5581 69.8056 12.7182 69.7475 12.8535 69.6497C12.9889 69.552 13.0941 69.4185 13.1572 69.2644C13.2204 69.1102 13.239 68.9416 13.211 68.7775L12.6071 65.2715C12.5766 65.0933 12.59 64.9105 12.6461 64.7386C12.7022 64.5668 12.7994 64.4111 12.9293 64.2849L15.4871 61.8021C15.607 61.6859 15.6919 61.5386 15.732 61.3768C15.7722 61.215 15.7661 61.0453 15.7144 60.8868C15.6627 60.7283 15.5675 60.5873 15.4395 60.4799C15.3116 60.3725 15.156 60.303 14.9903 60.2791L11.4575 59.767C11.2777 59.741 11.1069 59.6718 10.9598 59.5654C10.8128 59.459 10.694 59.3186 10.6136 59.1563L9.03277 55.967C8.95882 55.8175 8.84431 55.6915 8.7022 55.6035C8.56009 55.5154 8.39607 55.4687 8.2287 55.4688C8.06133 55.4688 7.8973 55.5154 7.75519 55.6035C7.61308 55.6915 7.49857 55.8175 7.42462 55.967Z" fill="#FF141A"/>
<path d="M8.98792 55.9651L10.5687 59.1544C10.6491 59.3167 10.768 59.4571 10.915 59.5635C11.062 59.6699 11.2328 59.7391 11.4126 59.7651L14.9474 60.2767C15.113 60.3006 15.2686 60.3702 15.3966 60.4776C15.5245 60.585 15.6197 60.7259 15.6714 60.8844C15.7231 61.0429 15.7292 61.2126 15.6891 61.3744C15.6489 61.5362 15.564 61.6835 15.4441 61.7998L12.8863 64.2826C12.7565 64.4087 12.6593 64.5644 12.6032 64.7363C12.5471 64.9081 12.5337 65.091 12.5641 65.2691L13.168 68.7751C13.196 68.9392 13.1774 69.1079 13.1142 69.262C13.0511 69.4162 12.9459 69.5496 12.8106 69.6474C12.6752 69.7451 12.5151 69.8032 12.3484 69.8151C12.1816 69.827 12.0149 69.7922 11.8669 69.7146L8.7063 68.0596C8.54546 67.9754 8.36649 67.9314 8.18479 67.9314C8.00309 67.9314 7.82412 67.9754 7.66329 68.0596L4.50265 69.7146C4.35471 69.7922 4.18794 69.827 4.02119 69.8151C3.85444 69.8032 3.69437 69.7451 3.55903 69.6474C3.42369 69.5496 3.3185 69.4162 3.25534 69.262C3.19218 69.1079 3.17356 68.9392 3.2016 68.7751L3.80542 65.2691C3.83596 65.091 3.82259 64.9081 3.76647 64.7363C3.71034 64.5644 3.61313 64.4087 3.48322 64.2826L0.925465 61.7998C0.80554 61.6835 0.72069 61.5362 0.680513 61.3744C0.640336 61.2126 0.646438 61.0429 0.698134 60.8844C0.749829 60.7259 0.845049 60.585 0.973016 60.4776C1.10098 60.3702 1.25659 60.3006 1.42221 60.2767L4.95693 59.7651C5.13678 59.7391 5.30758 59.6699 5.4546 59.5635C5.60162 59.4571 5.72046 59.3167 5.80087 59.1544L7.38165 55.9651C7.4558 55.816 7.57028 55.6906 7.71219 55.6029C7.8541 55.5152 8.01778 55.4688 8.18479 55.4688C8.3518 55.4688 8.51549 55.5152 8.65739 55.6029C8.7993 55.6906 8.91377 55.816 8.98792 55.9651Z" fill="#FF141A"/>
<path d="M4.60879 5.55853C5.39767 5.55853 6.04896 5.66402 6.56264 5.875C7.07633 6.08598 7.45701 6.40245 7.70468 6.8244C7.96153 7.23719 8.08995 7.76005 8.08995 8.39299C8.08995 8.8975 8.0028 9.32405 7.82852 9.67262C7.6634 10.012 7.44325 10.2918 7.16806 10.5119C6.90204 10.7229 6.61309 10.8926 6.30121 11.0211L8.90176 15.3828H7.16806L4.9803 11.4063H3.48052V15.3828H1.95321V5.55853H4.60879ZM4.54 6.8244H3.48052V10.168H4.56752C5.01699 10.168 5.38391 10.1038 5.66828 9.97533C5.96181 9.84691 6.17738 9.65427 6.31497 9.39743C6.46174 9.14059 6.53512 8.82412 6.53512 8.44802C6.53512 8.05359 6.46174 7.7417 6.31497 7.51238C6.17738 7.27388 5.95723 7.09959 5.65452 6.98952C5.36098 6.87944 4.98947 6.8244 4.54 6.8244ZM12.8591 7.82885C13.7306 7.82885 14.3864 8.03524 14.8267 8.44802C15.2762 8.85164 15.5009 9.48916 15.5009 10.3606V15.3828H14.4415L14.1525 14.3508H14.0975C13.8865 14.6169 13.6755 14.837 13.4645 15.0113C13.2627 15.1856 13.0242 15.314 12.749 15.3966C12.483 15.4791 12.1528 15.5204 11.7584 15.5204C11.3456 15.5204 10.9741 15.4424 10.6438 15.2865C10.3136 15.1214 10.0522 14.8737 9.85955 14.5435C9.66692 14.2041 9.5706 13.7821 9.5706 13.2776C9.5706 12.5254 9.83662 11.9521 10.3686 11.5577C10.9099 11.1632 11.7308 10.9477 12.8316 10.911L14.0149 10.8697V10.4569C14.0149 9.90653 13.9003 9.52127 13.6709 9.30111C13.4508 9.08096 13.1389 8.97089 12.7353 8.97089C12.3959 8.97089 12.0611 9.02592 11.7308 9.136C11.4006 9.24608 11.0796 9.37908 10.7677 9.53503L10.3136 8.47554C10.653 8.29208 11.0383 8.14073 11.4694 8.02148C11.9097 7.89306 12.373 7.82885 12.8591 7.82885ZM13.1205 11.8466C12.3684 11.8833 11.8455 12.0255 11.552 12.2732C11.2584 12.5117 11.1117 12.8511 11.1117 13.2914C11.1117 13.6766 11.2126 13.9564 11.4144 14.1307C11.6254 14.305 11.896 14.3921 12.2262 14.3921C12.7307 14.3921 13.1527 14.2316 13.4921 13.9105C13.8406 13.5895 14.0149 13.1079 14.0149 12.4658V11.8191L13.1205 11.8466ZM20.1781 14.3371C20.3707 14.3371 20.5588 14.3187 20.7422 14.2821C20.9257 14.2454 21.0862 14.2041 21.2238 14.1582V15.259C21.0679 15.3324 20.8615 15.392 20.6046 15.4379C20.357 15.4929 20.0955 15.5204 19.8204 15.5204C19.4351 15.5204 19.0819 15.4516 18.7609 15.314C18.4398 15.1764 18.183 14.9379 17.9903 14.5985C17.7977 14.2591 17.7014 13.7867 17.7014 13.1813V9.08096H16.752V8.42051L17.7702 7.87013L18.2793 6.30154H19.2012V7.96644H21.1688V9.08096H19.2012V13.1538C19.2012 13.5574 19.2929 13.8555 19.4764 14.0481C19.6598 14.2408 19.8937 14.3371 20.1781 14.3371ZM25.4093 7.82885C26.0239 7.82885 26.5559 7.96644 27.0054 8.24163C27.4549 8.50765 27.7989 8.89291 28.0374 9.39743C28.285 9.90194 28.4089 10.4982 28.4089 11.1862V11.9842H23.7444C23.7627 12.7456 23.9462 13.3281 24.2948 13.7317C24.6433 14.1353 25.1341 14.3371 25.767 14.3371C26.2165 14.3371 26.6155 14.2958 26.9641 14.2133C27.3219 14.1215 27.6842 13.9885 28.0511 13.8142V15.0251C27.7025 15.1902 27.3448 15.314 26.9779 15.3966C26.6201 15.4791 26.1844 15.5204 25.6707 15.5204C25.0011 15.5204 24.4048 15.3782 23.882 15.0939C23.3591 14.8095 22.9509 14.3875 22.6574 13.828C22.3639 13.2593 22.2171 12.5621 22.2171 11.7365C22.2171 10.9018 22.3501 10.1955 22.6161 9.61758C22.8821 9.03968 23.2536 8.59938 23.7306 8.29667C24.2168 7.98479 24.7764 7.82885 25.4093 7.82885ZM25.4093 8.95713C24.9415 8.95713 24.5654 9.12683 24.281 9.46623C23.9966 9.80563 23.8315 10.2872 23.7857 10.911H26.9366C26.9366 10.5257 26.8816 10.1863 26.7715 9.89277C26.6614 9.59924 26.4917 9.36991 26.2624 9.2048C26.0422 9.03968 25.7579 8.95713 25.4093 8.95713ZM39.6656 11.6677C39.6656 12.2823 39.5877 12.8281 39.4317 13.3051C39.2758 13.7821 39.051 14.1857 38.7575 14.516C38.4731 14.8462 38.1246 15.0984 37.7118 15.2727C37.299 15.4379 36.8358 15.5204 36.3221 15.5204C35.8543 15.5204 35.4185 15.4379 35.0149 15.2727C34.6113 15.0984 34.2627 14.8462 33.9692 14.516C33.6757 14.1857 33.4463 13.7821 33.2812 13.3051C33.1253 12.8281 33.0473 12.2778 33.0473 11.654C33.0473 10.8376 33.1803 10.145 33.4463 9.5763C33.7124 9.00758 34.093 8.57645 34.5884 8.28291C35.0929 7.9802 35.6891 7.82885 36.3771 7.82885C37.0192 7.82885 37.588 7.9802 38.0833 8.28291C38.5786 8.57645 38.9639 9.00758 39.2391 9.5763C39.5235 10.145 39.6656 10.8422 39.6656 11.6677ZM34.5884 11.6677C34.5884 12.2181 34.648 12.6951 34.7673 13.0987C34.8957 13.4932 35.0883 13.7959 35.3452 14.0069C35.6112 14.2178 35.946 14.3233 36.3496 14.3233C36.7624 14.3233 37.0972 14.2178 37.354 14.0069C37.6201 13.7959 37.8127 13.4932 37.9319 13.0987C38.0604 12.6951 38.1246 12.2181 38.1246 11.6677C38.1246 11.099 38.0604 10.622 37.9319 10.2368C37.8035 9.85149 37.6109 9.55796 37.354 9.35615C37.0972 9.14517 36.7578 9.03968 36.3358 9.03968C35.7212 9.03968 35.2764 9.26901 35.0012 9.72766C34.726 10.1863 34.5884 10.833 34.5884 11.6677ZM44.9929 7.82885C45.8002 7.82885 46.4193 8.04441 46.8505 8.47554C47.2908 8.90667 47.5109 9.59924 47.5109 10.5532V15.3828H46.0249V10.7596C46.0249 10.1817 45.9102 9.75059 45.6809 9.46623C45.4608 9.17269 45.1168 9.02592 44.6489 9.02592C43.961 9.02592 43.4886 9.25066 43.2317 9.70014C42.9749 10.1496 42.8464 10.7963 42.8464 11.6402V15.3828H41.3604V7.96644H42.53L42.7364 8.95713H42.8189C42.9749 8.70028 43.1629 8.4893 43.3831 8.32419C43.6032 8.15908 43.8509 8.03524 44.1261 7.95268C44.4013 7.87013 44.6902 7.82885 44.9929 7.82885Z" fill="#16313B"/>
</svg>
