<svg width="19" height="19" viewBox="0 0 19 19" fill="none" xmlns="http://www.w3.org/2000/svg">
<path d="M18.5325 8.37088L10.6292 0.46751C10.0058 -0.155837 8.99483 -0.155837 8.37148 0.46751C7.74814 1.09086 7.74814 2.10183 8.37148 2.72518L15.1453 9.49892L8.37148 16.2726C7.74814 16.896 7.74814 17.907 8.37148 18.5303C8.99483 19.1536 10.0058 19.1536 10.6292 18.5303L18.5325 10.627C19.1558 10.0052 19.1558 8.99423 18.5325 8.37088ZM9.02963 7.89229L2.75506 1.27914C2.12457 0.61547 1.10335 0.61547 0.472866 1.27914C-0.157622 1.94282 -0.157622 3.01945 0.472866 3.68393L5.60676 9.09469L0.472866 14.5054C-0.157622 15.1691 -0.157622 16.2465 0.472866 16.9102C1.10335 17.5739 2.12457 17.5739 2.75506 16.9102L9.02963 10.2971C9.66012 9.63341 9.66012 8.55678 9.02963 7.89229Z" fill="#0453AC"/>
</svg>
