<svg width="109" height="62" viewBox="0 0 109 62" fill="none" xmlns="http://www.w3.org/2000/svg">
<path d="M1 3.58643C1 2.15798 2.15798 1 3.58643 1H105.414C106.842 1 108 2.15798 108 3.58643V58.4136C108 59.842 106.842 61 105.414 61H3.58642C2.15798 61 1 59.842 1 58.4136V3.58643Z" fill="#4733A4" fill-opacity="0.51"/>
<path d="M3.58643 0.5C1.88184 0.5 0.5 1.88184 0.5 3.58643V58.4136C0.5 60.1182 1.88184 61.5 3.58642 61.5H105.414C107.118 61.5 108.5 60.1182 108.5 58.4136V3.58643C108.5 1.88184 107.118 0.5 105.414 0.5H3.58643Z" stroke="white" stroke-opacity="0.09"/>
<path d="M42.461 25.5842C42.7687 25.7819 43.2453 25.9506 43.8342 26.0635C44.4231 26.2321 45.0397 26.26 45.6852 26.26C46.3018 26.26 46.863 26.1763 47.3673 26.0343C47.8717 25.8657 48.3206 25.6412 48.7128 25.3585C49.0772 25.077 49.3861 24.7397 49.5828 24.2883C49.7783 23.866 49.8905 23.4158 49.8905 22.8807C49.8905 22.2607 49.695 21.6977 49.3306 21.1905C48.9662 20.7112 48.3484 20.3169 47.4796 20.0353L45.7975 19.4723C45.1808 19.2758 44.7042 19.0501 44.4508 18.7965C44.2276 18.5708 44.0864 18.2893 44.0864 17.9228C44.0864 17.4448 44.2831 17.0504 44.6475 16.8526C45.0397 16.6282 45.5453 16.4874 46.2463 16.4874C47.1151 16.4874 47.844 16.6561 48.5728 16.9655C48.7695 17.0504 48.9372 17.1354 49.0494 17.1354C49.2461 17.1354 49.3306 17.0225 49.3306 16.741V16.2617C49.3306 16.093 49.3016 15.9523 49.2184 15.8674C49.1339 15.7545 49.0217 15.6417 48.854 15.5579C48.7417 15.473 48.545 15.3881 48.3484 15.3602C48.1529 15.2764 47.9284 15.2473 47.6762 15.1636C47.4518 15.1345 47.1706 15.0507 46.8907 15.0507C46.6108 14.9658 46.3296 14.9658 46.0774 14.9658C45.5163 14.9658 45.0686 15.0508 44.592 15.1636C44.1154 15.3323 43.6942 15.5288 43.3298 15.7824C42.9654 16.0639 42.7132 16.3746 42.461 16.7689C42.2366 17.1633 42.1521 17.5855 42.1521 18.1206C42.1521 18.7407 42.3488 19.3316 42.741 19.8667C43.1331 20.4297 43.7509 20.824 44.6752 21.0776L46.4141 21.6407C47.0029 21.8384 47.3951 22.035 47.6195 22.2607C47.844 22.4864 47.9284 22.7679 47.9284 23.0773C47.9284 23.5566 47.7317 23.9509 47.3118 24.2325C46.8907 24.514 46.3296 24.6268 45.5453 24.6268C45.0686 24.6268 44.592 24.5989 44.1431 24.4581C43.6665 24.3732 43.2453 24.2325 42.7977 24.0347C42.6854 24.0068 42.5732 23.9509 42.4888 23.923C42.4043 23.8939 42.3198 23.8939 42.2643 23.8939C42.0676 23.8939 41.9844 24.0068 41.9844 24.2883V24.8804C41.9844 24.9932 42.0121 25.1049 42.0676 25.2468C42.1521 25.3876 42.2643 25.4713 42.461 25.5842Z" fill="white"/>
<path d="M22.1613 19.7533C21.7402 19.6684 21.2915 19.6683 20.899 19.6683C19.6933 19.6683 18.7119 19.979 17.9549 20.6269C17.1979 21.2458 16.8613 22.0915 16.8613 23.1047C16.8613 24.0911 17.1418 24.8507 17.7306 25.4429C18.3194 26.0338 19.1045 26.3153 20.1139 26.3153C21.5158 26.3153 22.6934 25.7523 23.6467 24.6542C23.7589 24.9357 23.8711 25.1613 24.0111 25.3579C24.1511 25.5557 24.2923 25.7523 24.4322 25.9209C24.5445 26.0338 24.6567 26.0908 24.7967 26.0908C24.8799 26.0908 24.9921 26.0629 25.1043 25.978L25.8621 25.4708C26.0299 25.3579 26.0866 25.2451 26.0866 25.1043C26.0866 25.0206 26.0576 24.9357 26.0021 24.8228C25.8344 24.5134 25.6932 24.2319 25.61 23.9504C25.5255 23.6689 25.4977 23.3303 25.4977 22.8802V18.9367C25.4977 17.6408 25.1888 16.6555 24.5155 15.9797C23.8434 15.3038 22.8334 14.9932 21.3756 14.9932C20.7027 14.9932 20.0858 15.0781 19.4971 15.2189C18.9362 15.3875 18.4316 15.5283 18.0109 15.7819C17.8427 15.8668 17.7306 15.9505 17.7025 16.0076C17.6184 16.0925 17.6184 16.2333 17.6184 16.4298V17.0219C17.6184 17.2464 17.7025 17.4151 17.8427 17.4151C17.8707 17.4151 17.9549 17.4151 18.039 17.3872C18.1232 17.3593 18.2634 17.3035 18.4596 17.2185C18.8802 17.0499 19.3287 16.9091 19.7494 16.8242C20.1699 16.7113 20.6185 16.6555 21.0392 16.6555C21.9923 16.6555 22.609 16.8521 23.0023 17.2185C23.3945 17.585 23.5622 18.2329 23.5622 19.1624V20.0348C23.0578 19.9219 22.6379 19.8382 22.1613 19.7533ZM23.5345 21.8937C23.5345 22.288 23.5067 22.6545 23.4223 22.9081C23.3378 23.1896 23.2268 23.4711 23.0301 23.6689C22.7212 24.0341 22.329 24.2877 21.8804 24.4285C21.4597 24.5983 21.0111 24.6542 20.6185 24.6542C20.0578 24.6542 19.6372 24.4855 19.3568 24.2319C19.0764 23.9504 18.9362 23.5269 18.9362 22.9639C18.9362 22.373 19.1325 21.8937 19.5251 21.5843C19.9176 21.2749 20.5064 21.105 21.2915 21.105C21.656 21.105 22.0491 21.1329 22.4412 21.1899C22.8334 21.2178 23.1978 21.3028 23.5345 21.3865V21.8937Z" fill="white"/>
<path d="M29.5904 25.387C29.6736 25.6114 29.7581 25.7813 29.8148 25.865C29.8981 25.95 30.0392 25.9779 30.2914 25.9779H31.3002C31.5247 25.9779 31.6924 25.95 31.7769 25.865C31.8613 25.7813 31.9458 25.6406 32.0013 25.387L33.8523 17.6128L35.7311 25.387C35.7589 25.6114 35.8421 25.7813 35.9543 25.865C36.0388 25.95 36.2355 25.9779 36.431 25.9779H37.441C37.6377 25.9779 37.8054 25.95 37.9176 25.865C38.0021 25.7813 38.1143 25.6406 38.142 25.387L41.0574 16.0924C41.0863 15.9796 41.1418 15.8667 41.1418 15.8109C41.1418 15.726 41.1696 15.6981 41.1696 15.6131C41.1696 15.4166 41.0863 15.3316 40.8896 15.3316H39.7964C39.5719 15.3316 39.4042 15.3595 39.3198 15.4445C39.2353 15.5294 39.1508 15.6702 39.0953 15.9226L37.0198 24.0061L35.0855 15.8946C35.0578 15.6702 34.9733 15.5003 34.8611 15.4166C34.7766 15.3316 34.5812 15.3037 34.3845 15.3037H33.4034C33.179 15.3037 33.0113 15.3316 32.9268 15.4166C32.8423 15.5003 32.7579 15.641 32.7024 15.8946L30.8236 23.8654L28.8326 15.8946C28.7493 15.6702 28.6648 15.5003 28.6081 15.4166C28.5249 15.3316 28.3849 15.3037 28.1315 15.3037H26.955C26.7583 15.3037 26.6738 15.3874 26.6738 15.5852C26.6738 15.6702 26.7016 15.8109 26.7861 16.0645L29.5904 25.387Z" fill="white"/>
<path d="M47.3686 31.2168C42.9655 33.1037 38.1436 34.0052 33.7972 34.0052C27.3198 34.0052 21.0397 32.23 15.9646 29.2451C15.5441 28.9636 15.1796 29.4417 15.5721 29.8081C20.2826 34.061 26.4787 36.6237 33.405 36.6237C38.3114 36.6237 44.031 35.0754 48.013 32.1172C48.5741 31.667 48.0408 30.9632 47.3686 31.2168Z" fill="#FF9900"/>
<path d="M44.9007 29.5824C44.5363 29.8081 44.6208 30.1745 44.9852 30.1454C46.2462 29.9767 49.106 29.6394 49.5838 30.3153C50.0882 30.9341 49.0227 33.6387 48.5738 34.8497C48.4061 35.2161 48.7416 35.3569 49.0782 35.0742C51.2092 33.3002 51.7426 29.5545 51.3214 29.0473C50.8726 28.4272 47.1439 28.005 44.9007 29.5824Z" fill="#FF9900"/>
<path d="M60.742 23.4983C60.6587 23.4983 60.5742 23.4704 60.5742 23.3297V16.8235C60.5742 16.7386 60.602 16.6548 60.742 16.6548H60.9386C61.0509 16.6548 61.1064 16.6828 61.1064 16.8235L61.1353 17.2179C61.4153 16.9922 61.7242 16.8235 62.0041 16.7107C62.2841 16.5978 62.5652 16.542 62.8729 16.542C63.4907 16.542 63.9674 16.7677 64.3318 17.2179C64.6962 17.6401 64.8917 18.2881 64.8917 19.0209C64.8917 19.8096 64.6962 20.4285 64.3318 20.9078C63.9384 21.3858 63.4618 21.6115 62.7897 21.6115C62.2008 21.6115 61.6952 21.3858 61.1908 20.9357V23.3018C61.1908 23.3855 61.1631 23.4704 61.0231 23.4704H60.742V23.4983ZM62.7052 21.1335C63.2096 21.1335 63.6018 20.9636 63.8829 20.6263C64.1629 20.2598 64.2751 19.7526 64.2751 19.0768C64.2751 17.7251 63.7707 17.0771 62.733 17.0771C62.2286 17.0771 61.6675 17.2749 61.1631 17.6972V20.4855C61.443 20.71 61.6675 20.8799 61.9197 20.9915C62.1719 21.0485 62.453 21.1335 62.7052 21.1335Z" fill="white"/>
<path d="M67.194 21.6115C66.7741 21.6115 66.4084 21.4987 66.1285 21.2172C65.8485 20.9915 65.7363 20.6263 65.7363 20.204C65.7363 19.7247 65.9041 19.3862 66.213 19.1047C66.5207 18.8232 66.9696 18.7103 67.5029 18.7103C67.9228 18.7103 68.3717 18.7953 68.8761 18.936V18.1473C68.8761 17.753 68.7928 17.4715 68.5961 17.3307C68.3994 17.162 68.1195 17.105 67.6984 17.105C67.2784 17.105 66.8018 17.19 66.3252 17.3307C66.2974 17.3307 66.213 17.3586 66.1562 17.3586C66.073 17.3586 66.073 17.3307 66.073 17.2458V17.0492C66.073 17.0213 66.073 16.9643 66.1007 16.9364C66.1285 16.9084 66.1285 16.9084 66.1852 16.8514C66.6896 16.6548 67.194 16.542 67.7828 16.542C68.3439 16.542 68.7639 16.6548 69.045 16.9084C69.325 17.1329 69.4372 17.4994 69.4372 17.9786V21.3579C69.4372 21.4429 69.4094 21.5278 69.2695 21.5278H69.0728C68.9883 21.5278 68.905 21.4987 68.905 21.3579L68.8761 20.9636C68.3717 21.415 67.7828 21.6115 67.194 21.6115ZM67.2785 21.1335C67.5029 21.1335 67.7828 21.1043 68.0628 20.9636C68.3439 20.8507 68.6239 20.7391 68.9328 20.5413V19.3583C68.5117 19.2454 68.1195 19.1896 67.6706 19.1896C66.7741 19.1896 66.3252 19.5561 66.3252 20.204C66.3252 20.4855 66.4084 20.71 66.5496 20.8799C66.7173 21.0485 66.9695 21.1335 67.2785 21.1335Z" fill="white"/>
<path d="M71.0876 21.5282C71.0032 21.5282 70.9199 21.4991 70.9199 21.3584V16.8239C70.9199 16.7402 70.9477 16.6553 71.0876 16.6553H71.2843C71.3965 16.6553 71.4521 16.6832 71.4521 16.8239L71.4798 17.387C71.7042 17.1055 71.9565 16.9089 72.1809 16.8239C72.4053 16.7111 72.6865 16.6553 72.9664 16.6553C73.0787 16.6553 73.1631 16.6553 73.1909 16.6553C73.2741 16.6553 73.3586 16.6832 73.3586 16.8239V17.0496C73.3586 17.0775 73.3586 17.0775 73.3308 17.1333C73.3308 17.1625 73.3031 17.1625 73.2464 17.1625C73.2186 17.1625 73.1341 17.1625 73.0786 17.1625C73.0509 17.1625 72.9664 17.1625 72.882 17.1625C72.602 17.1625 72.3209 17.1904 72.0976 17.3311C71.8732 17.444 71.6765 17.6126 71.4243 17.8383V21.3584C71.4243 21.4433 71.3966 21.5282 71.2554 21.5282H71.0876Z" fill="white"/>
<path d="M75.8552 21.5836C75.4618 21.5836 75.1819 21.4708 74.9852 21.2742C74.7897 21.0764 74.6775 20.7949 74.6775 20.4006V17.2179H73.9197C73.8364 17.2179 73.752 17.1899 73.752 17.0492V16.9643C73.752 16.9364 73.7519 16.8805 73.7797 16.8514C73.7797 16.8235 73.8075 16.8235 73.8919 16.8235L74.6775 16.7398L74.7607 15.4718C74.7607 15.4439 74.7897 15.3869 74.7897 15.359C74.8174 15.331 74.8174 15.3311 74.9019 15.3311H75.0696C75.1541 15.3311 75.2374 15.359 75.2374 15.4997V16.7677H76.6118C76.6962 16.7677 76.7795 16.7956 76.7795 16.9364V17.1341C76.7795 17.2179 76.7517 17.3028 76.6118 17.3028H75.2374V20.4855C75.2374 20.767 75.2663 20.9078 75.4063 21.0485C75.5185 21.1614 75.714 21.2172 75.9674 21.2172C76.1629 21.2172 76.3318 21.2172 76.444 21.1893C76.5273 21.1893 76.555 21.1614 76.6118 21.1614C76.6395 21.1614 76.6962 21.1614 76.6962 21.1614C76.7795 21.1614 76.8085 21.1893 76.8085 21.2742V21.4429C76.8085 21.5557 76.7795 21.6115 76.6962 21.6394C76.444 21.5278 76.1906 21.5836 75.8552 21.5836Z" fill="white"/>
<path d="M77.9873 21.5274C77.9028 21.5274 77.8184 21.4983 77.8184 21.3575V16.8231C77.8184 16.7394 77.8473 16.6544 77.9873 16.6544H78.184C78.295 16.6544 78.3517 16.6823 78.3517 16.8231L78.3795 17.2174C78.6884 16.9917 78.9961 16.8231 79.3605 16.7102C79.7261 16.5974 80.0338 16.5137 80.3427 16.5137C80.8194 16.5137 81.156 16.6265 81.4082 16.8801C81.6327 17.1046 81.7726 17.471 81.7726 17.9782V21.3296C81.7726 21.4146 81.7449 21.4983 81.6037 21.4983H81.3237C81.2393 21.4983 81.156 21.4704 81.156 21.3296V18.2597C81.156 17.8375 81.0716 17.556 80.9316 17.3582C80.7626 17.1616 80.5105 17.0767 80.1738 17.0767C79.5572 17.0767 78.9128 17.2745 78.324 17.6967V21.4145C78.324 21.4983 78.295 21.5832 78.155 21.5832H77.9595V21.5274H77.9873Z" fill="white"/>
<path d="M85.2768 21.6394C84.5202 21.6394 83.9314 21.4429 83.5947 21.0206C83.2013 20.5984 83.0059 19.9504 83.0059 19.0768C83.0059 18.2881 83.2013 17.668 83.5947 17.2179C83.9869 16.7956 84.548 16.542 85.1923 16.542C85.7812 16.542 86.2023 16.7107 86.539 17.0492C86.8467 17.3586 87.0156 17.8379 87.0156 18.4567C87.0156 18.6824 87.0156 18.8802 86.9867 19.0489C86.9867 19.1326 86.9034 19.2175 86.8189 19.2175H83.5947C83.5947 19.8934 83.7624 20.4006 84.0146 20.71C84.2958 21.0206 84.7724 21.1893 85.3613 21.1893C85.8379 21.1893 86.2578 21.1043 86.6512 20.9636C86.7345 20.9357 86.8189 20.9357 86.8189 20.9357C86.8467 20.9357 86.8467 20.9357 86.9034 20.9636C86.9034 20.9915 86.9312 20.9915 86.9312 21.0485V21.2172C86.9312 21.33 86.9034 21.3858 86.8189 21.415C86.3145 21.5278 85.8379 21.6394 85.2768 21.6394ZM86.4545 18.7673C86.4545 18.6824 86.4545 18.5696 86.4545 18.4567C86.4545 17.9786 86.3423 17.668 86.1456 17.4436C85.9212 17.2179 85.5857 17.0771 85.1646 17.0771C84.1546 17.0771 83.6225 17.6401 83.567 18.7673H86.4545Z" fill="white"/>
<path d="M88.3064 21.5282C88.2219 21.5282 88.1387 21.4991 88.1387 21.3584V16.8239C88.1387 16.7402 88.1664 16.6553 88.3064 16.6553H88.5031C88.6153 16.6553 88.6708 16.6832 88.6708 16.8239L88.6986 17.387C88.923 17.1055 89.1752 16.9089 89.3996 16.8239C89.6241 16.7111 89.9052 16.6553 90.1852 16.6553C90.2974 16.6553 90.3819 16.6553 90.4096 16.6553C90.4941 16.6553 90.5774 16.6832 90.5774 16.8239V17.0496C90.5774 17.0775 90.5774 17.0775 90.5496 17.1333C90.5496 17.1625 90.5218 17.1625 90.4651 17.1625C90.4096 17.1625 90.3529 17.1625 90.2974 17.1625C90.2697 17.1625 90.1852 17.1625 90.1007 17.1625C89.8208 17.1625 89.5408 17.1904 89.3164 17.3311C89.0919 17.444 88.8953 17.6126 88.6431 17.8383V21.3584C88.6431 21.4433 88.6153 21.5282 88.4753 21.5282H88.3064Z" fill="white"/>
<path d="M60.742 32.1438C60.6587 32.1438 60.5742 32.1159 60.5742 31.9751V27.4686C60.5742 27.3849 60.602 27.2999 60.742 27.2999H60.9386C61.0509 27.2999 61.1064 27.3278 61.1064 27.4686L61.1353 27.8629C61.443 27.6373 61.7519 27.4686 62.1163 27.3558C62.4808 27.2429 62.7897 27.1592 63.0974 27.1592C63.574 27.1592 63.9107 27.272 64.1629 27.5256C64.3873 27.7501 64.5273 28.1165 64.5273 28.6237V31.9751C64.5273 32.06 64.4995 32.1438 64.3596 32.1438H64.0784C63.9951 32.1438 63.9107 32.1159 63.9107 31.9751V28.8494C63.9107 28.426 63.8262 28.1444 63.6862 27.9479C63.5185 27.7501 63.2663 27.6664 62.9297 27.6664C62.313 27.6664 61.6675 27.8629 61.0786 28.2852V32.003C61.0786 32.088 61.0509 32.1729 60.9109 32.1729H60.7142V32.1438H60.742Z" fill="white"/>
<path d="M68.06 32.2849C67.3022 32.2849 66.7146 32.0884 66.3779 31.6661C65.9846 31.2439 65.7891 30.5959 65.7891 29.7223C65.7891 28.9336 65.9846 28.3147 66.3779 27.8634C66.7701 27.4411 67.3312 27.1875 67.9755 27.1875C68.5644 27.1875 68.9855 27.3562 69.3222 27.6947C69.6299 28.0041 69.7988 28.4834 69.7988 29.1035C69.7988 29.3279 69.7988 29.5257 69.7699 29.6944C69.7699 29.7793 69.6866 29.863 69.6022 29.863H66.3779C66.3779 30.5389 66.5456 31.0461 66.7978 31.3555C67.079 31.6661 67.5556 31.8348 68.1445 31.8348C68.6211 31.8348 69.0411 31.7498 69.4332 31.6091C69.5177 31.5812 69.6022 31.5812 69.6022 31.5812C69.6299 31.5812 69.6299 31.5812 69.6866 31.6091C69.6866 31.6382 69.7144 31.6382 69.7144 31.694V31.8627C69.7144 31.9755 69.6866 32.0326 69.6022 32.0605C69.1255 32.1733 68.5922 32.2849 68.06 32.2849ZM69.2377 29.385C69.2377 29.3 69.2377 29.1872 69.2377 29.0743C69.2377 28.5963 69.1255 28.2856 68.9288 28.0611C68.7044 27.8355 68.3677 27.6947 67.9478 27.6947C66.9378 27.6947 66.4057 28.2577 66.349 29.385H69.2377Z" fill="white"/>
<path d="M72.4607 32.2293C72.0673 32.2293 71.7873 32.1165 71.5906 31.9199C71.3952 31.7221 71.2829 31.4406 71.2829 31.0462V27.8077H70.5252C70.4419 27.8077 70.3574 27.7798 70.3574 27.6391V27.5541C70.3574 27.5262 70.3574 27.4692 70.3852 27.4413C70.3852 27.4134 70.4129 27.4134 70.4974 27.4134L71.2829 27.3284L71.3662 26.0616C71.3662 26.0337 71.3952 25.9767 71.3952 25.9488C71.4229 25.9209 71.4229 25.9209 71.5062 25.9209H71.6751C71.7596 25.9209 71.8428 25.9488 71.8428 26.0895V27.3575H73.2172C73.3017 27.3575 73.385 27.3855 73.385 27.5262V27.7228C73.385 27.8077 73.3572 27.8927 73.2172 27.8927H71.8718V31.0754C71.8718 31.3569 71.8995 31.4976 72.0395 31.6384C72.1795 31.7791 72.3484 31.807 72.6006 31.807C72.7961 31.807 72.965 31.807 73.0773 31.7791C73.1605 31.7791 73.1895 31.7512 73.245 31.7512C73.2727 31.7512 73.3295 31.7512 73.3295 31.7512C73.4139 31.7512 73.4417 31.7791 73.4417 31.8629V32.0327C73.4417 32.1456 73.4139 32.2014 73.3295 32.2293C73.0495 32.1735 72.7684 32.2293 72.4607 32.2293Z" fill="white"/>
<path d="M75.5458 32.1442C75.4613 32.1442 75.3781 32.1163 75.3491 32.0326L73.8637 27.5819C73.8359 27.4969 73.8359 27.469 73.8359 27.4132C73.8359 27.3562 73.8637 27.3283 73.9482 27.3283H74.2559C74.3403 27.3283 74.3681 27.3562 74.4248 27.4411L75.7135 31.4975L76.8635 27.4411C76.8912 27.3562 76.9479 27.3283 77.0602 27.3283H77.4246C77.509 27.3283 77.5923 27.3562 77.6213 27.4411L78.77 31.4975L80.1167 27.3853C80.1444 27.3004 80.1999 27.2725 80.2844 27.2725H80.5643C80.6488 27.2725 80.6766 27.3004 80.6766 27.3562C80.6766 27.3853 80.6766 27.4411 80.6488 27.5261L79.0789 31.9755C79.0512 32.0605 78.9945 32.0884 78.8823 32.0884H78.5745C78.4901 32.0884 78.4056 32.0605 78.3779 31.9755L77.2279 27.9204L76.0791 31.9755C76.0502 32.0605 75.9947 32.0884 75.8825 32.0884H75.6025V32.1442H75.5458Z" fill="white"/>
<path d="M83.4561 32.2845C82.755 32.2845 82.1951 32.06 81.8018 31.6087C81.4096 31.1864 81.2129 30.5385 81.2129 29.7219C81.2129 28.9332 81.4096 28.3143 81.8018 27.835C82.1951 27.4128 82.755 27.1592 83.4561 27.1592C84.1572 27.1592 84.7183 27.3849 85.1104 27.835C85.5038 28.2573 85.6993 28.9052 85.6993 29.7219C85.6993 30.5106 85.5038 31.1306 85.1104 31.6087C84.6905 32.06 84.1572 32.2845 83.4561 32.2845ZM83.4561 31.7786C84.5505 31.7786 85.1104 31.1027 85.1104 29.7219C85.1104 28.3422 84.5505 27.6664 83.4561 27.6664C82.3628 27.6664 81.8018 28.3422 81.8018 29.7219C81.8018 31.1027 82.3351 31.7786 83.4561 31.7786Z" fill="white"/>
<path d="M87.0439 32.1437C86.9595 32.1437 86.875 32.1157 86.875 31.975V27.4685C86.875 27.3848 86.904 27.2998 87.0439 27.2998H87.2394C87.3516 27.2998 87.4084 27.3277 87.4084 27.4685L87.4361 28.0315C87.6605 27.75 87.9127 27.5534 88.1372 27.4685C88.3616 27.3556 88.6416 27.2998 88.9227 27.2998C89.035 27.2998 89.1182 27.2998 89.146 27.2998C89.2304 27.2998 89.3149 27.3277 89.3149 27.4685V27.6942C89.3149 27.7221 89.3149 27.7221 89.2871 27.7791C89.2582 27.807 89.2582 27.807 89.2027 27.807C89.1749 27.807 89.0904 27.807 89.0349 27.807C89.006 27.807 88.9227 27.807 88.8383 27.807C88.5583 27.807 88.2772 27.8349 88.0527 27.9757C87.8283 28.0885 87.6328 28.2572 87.3806 28.4829V32.0029C87.3806 32.0878 87.3516 32.1728 87.2117 32.1728H87.0162V32.1437H87.0439Z" fill="white"/>
<path d="M90.322 32.1446C90.2388 32.1446 90.1543 32.1166 90.1543 31.9759V25.1882C90.1543 25.1033 90.1821 25.0195 90.322 25.0195H90.6032C90.6877 25.0195 90.7709 25.0474 90.7709 25.1882V29.469L93.0419 27.4136C93.1263 27.3286 93.2108 27.3286 93.2663 27.3286H93.6307C93.7152 27.3286 93.7429 27.3565 93.7429 27.4136C93.7429 27.4694 93.7152 27.4973 93.6307 27.5822L91.3043 29.6389L93.8274 31.9759C93.8552 32.0038 93.9119 32.0608 93.9119 32.0887C93.9119 32.1737 93.8841 32.1737 93.7997 32.1737H93.4063C93.323 32.1737 93.2386 32.1445 93.2108 32.0887L90.7709 29.8076V32.0038C90.7709 32.0887 90.7432 32.1737 90.6032 32.1737H90.322V32.1446Z" fill="white"/>
<path d="M17.3102 44.3429C16.7775 44.1451 16.385 43.8928 16.1606 43.61C15.9363 43.3285 15.8242 42.9633 15.8242 42.5119C15.8242 41.9489 16.0204 41.4987 16.4411 41.1602C16.8616 40.8217 17.4225 40.653 18.1234 40.653C18.7121 40.653 19.273 40.7659 19.8337 40.9916V42.0047C19.2449 41.8361 18.7121 41.7232 18.2075 41.7232C17.5066 41.7232 17.142 41.9489 17.142 42.3991C17.142 42.569 17.1981 42.7097 17.3102 42.8213C17.4225 42.9342 17.6748 43.047 18.0112 43.1599L18.6841 43.4135C19.2449 43.61 19.6374 43.8636 19.8617 44.1172C20.0861 44.3988 20.2263 44.7373 20.2263 45.1874C20.2263 45.8075 20.002 46.2868 19.5533 46.652C19.1047 47.0184 18.5159 47.1871 17.7309 47.1871C17.3943 47.1871 17.0579 47.1592 16.7214 47.1034C16.385 47.0464 16.1045 46.9626 15.8522 46.8498V45.8075C16.1606 45.8924 16.4691 45.9761 16.8056 46.0332C17.142 46.089 17.4504 46.1169 17.7309 46.1169C18.0953 46.1169 18.3477 46.0611 18.5439 45.9203C18.7403 45.7796 18.8244 45.6097 18.8244 45.3573C18.8244 45.1595 18.7683 45.0188 18.6562 44.9059C18.5439 44.7931 18.2916 44.6802 17.9551 44.5395L17.3102 44.3429ZM22.2449 45.1037C22.2727 45.4981 22.3849 45.7796 22.6093 45.9762C22.8338 46.1448 23.1704 46.2298 23.6193 46.2298C24.0115 46.2298 24.4881 46.1448 25.0215 46.0041V46.8777C24.8248 46.9905 24.5726 47.0743 24.2637 47.1313C23.9837 47.1871 23.6748 47.2162 23.3671 47.2162C22.6093 47.2162 22.0205 47.0185 21.6282 46.5962C21.2357 46.1739 21.0395 45.5818 21.0395 44.7652C21.0395 44.0044 21.2357 43.4135 21.6282 42.9633C22.0205 42.5398 22.5816 42.3154 23.2827 42.3154C23.8715 42.3154 24.3204 42.484 24.6559 42.8213C24.9648 43.1599 25.1325 43.61 25.1325 44.2301C25.1325 44.3708 25.1325 44.5116 25.1047 44.6802C25.077 44.8501 25.077 44.9909 25.0492 45.1037H22.2449ZM23.1982 43.2448C22.8905 43.2448 22.6661 43.3285 22.4971 43.4984C22.3294 43.6671 22.2449 43.9207 22.2172 44.258H23.9837V44.1172C23.9837 43.5263 23.7315 43.2448 23.1982 43.2448ZM28.1335 46.9905C27.8813 47.1034 27.6001 47.1313 27.3202 47.1313C26.5069 47.1313 26.1147 46.6811 26.1147 45.7796V40.3994H27.4324V45.6667C27.4324 45.8354 27.4602 45.9482 27.5169 46.0332C27.5724 46.089 27.6568 46.1448 27.7968 46.1448C27.8813 46.1448 27.9935 46.1448 28.1335 46.1169V46.9905ZM30.0123 45.1037C30.04 45.4981 30.1522 45.7796 30.3767 45.9762C30.6011 46.1448 30.9366 46.2298 31.3855 46.2298C31.7788 46.2298 32.2555 46.1448 32.7876 46.0041V46.8777C32.5909 46.9905 32.3387 47.0743 32.031 47.1313C31.7499 47.1871 31.4422 47.2162 31.1333 47.2162C30.3767 47.2162 29.7878 47.0185 29.3945 46.5962C29.0023 46.1739 28.8056 45.5818 28.8056 44.7652C28.8056 44.0044 29.0023 43.4135 29.3945 42.9633C29.7878 42.5398 30.3477 42.3154 31.0488 42.3154C31.6377 42.3154 32.0865 42.484 32.4232 42.8213C32.7321 43.1599 32.8998 43.61 32.8998 44.2301C32.8998 44.3708 32.8998 44.5116 32.8721 44.6802C32.8443 44.8501 32.8443 44.9909 32.8154 45.1037H30.0123ZM30.9933 43.2448C30.6844 43.2448 30.4599 43.3285 30.2922 43.4984C30.1245 43.6671 30.04 43.9207 30.0123 44.258H31.7788V44.1172C31.7499 43.5263 31.4977 43.2448 30.9933 43.2448ZM37.1896 46.8777C37.0218 46.9626 36.8251 47.0464 36.6007 47.1034C36.3763 47.1592 36.1241 47.1871 35.8996 47.1871C35.1708 47.1871 34.6097 46.9905 34.2175 46.5683C33.8254 46.1448 33.6287 45.5539 33.6287 44.7931C33.6287 44.0335 33.8254 43.4414 34.2453 43.0191C34.6664 42.5969 35.2275 42.3712 35.9286 42.3712C36.3763 42.3712 36.7696 42.4561 37.1341 42.6527V43.5263C36.7696 43.4135 36.4607 43.3856 36.1518 43.3856C35.7319 43.3856 35.423 43.4984 35.2275 43.695C35.0308 43.9207 34.9464 44.258 34.9464 44.7094V44.8501C34.9464 45.3003 35.0308 45.6388 35.2275 45.8633C35.423 46.089 35.7319 46.1739 36.1241 46.1739C36.4052 46.1739 36.7696 46.1169 37.1341 46.0041V46.8777H37.1896ZM40.8349 46.9626C40.4983 47.0743 40.1616 47.1592 39.7417 47.1592C39.2361 47.1592 38.8439 47.0463 38.6195 46.7927C38.3673 46.5392 38.2551 46.1739 38.2551 45.6667V43.4414H37.554V42.6248L38.2828 42.484L38.4795 41.216H39.545V42.4561H40.7782V43.4414H39.545V45.6097C39.545 45.8075 39.6017 45.9482 39.685 46.0332C39.7694 46.1169 39.9372 46.1448 40.1616 46.1448C40.3583 46.1448 40.555 46.1169 40.8072 46.089V46.9626H40.8349Z" fill="white"/>
<path d="M44.105 46.4689C44.0519 46.4689 44.0292 46.4468 44.0292 46.3958V43.2871H42.9234C42.8704 43.2871 42.8477 43.265 42.8477 43.2136V43.0967C42.8477 43.0457 42.8704 43.0236 42.9234 43.0236H45.4382C45.491 43.0236 45.5138 43.0457 45.5138 43.0967V43.2136C45.5138 43.265 45.491 43.2871 45.4382 43.2871H44.3322V46.3958C44.3322 46.4468 44.3095 46.4689 44.2564 46.4689H44.105ZM47.1044 46.542C46.6954 46.542 46.3922 46.4323 46.1804 46.2054C45.9757 45.9789 45.8697 45.6496 45.8697 45.2106C45.8697 44.7937 45.9757 44.4719 46.1804 44.2378C46.3922 44.0037 46.68 43.894 47.0513 43.894C47.3619 43.894 47.6041 43.9819 47.7707 44.1502C47.9376 44.3257 48.0207 44.5671 48.0207 44.8888C48.0207 45.0206 48.0132 45.123 47.9979 45.1888C47.9904 45.2399 47.9601 45.262 47.9073 45.262H46.165C46.165 45.613 46.2485 45.8689 46.4 46.0299C46.5513 46.1982 46.7938 46.2786 47.1194 46.2786C47.3694 46.2786 47.6041 46.2347 47.8238 46.1544C47.8691 46.1396 47.8994 46.1323 47.9148 46.1323C47.9298 46.1323 47.9376 46.1396 47.9526 46.1468C47.9601 46.1616 47.9679 46.1689 47.9679 46.1909V46.2641C47.9679 46.3151 47.9526 46.3517 47.9073 46.3665C47.6722 46.4834 47.3997 46.542 47.1044 46.542ZM47.7404 45.0351C47.7404 44.9913 47.7482 44.9326 47.7482 44.8743C47.7482 44.633 47.6876 44.4574 47.5663 44.333C47.4451 44.2085 47.271 44.1502 47.036 44.1502C46.4907 44.1502 46.2028 44.4499 46.1725 45.0423H47.7404V45.0351ZM49.7551 46.5272C49.3613 46.5272 49.0585 46.4175 48.8463 46.1982C48.642 45.9789 48.5357 45.6496 48.5357 45.2254C48.5357 44.8009 48.642 44.4792 48.8463 44.2526C49.0585 44.0257 49.3613 43.916 49.7551 43.916C49.9445 43.916 50.1264 43.9454 50.2929 44.0112C50.3307 44.0257 50.3536 44.0623 50.3536 44.1136V44.1867C50.3536 44.2305 50.3307 44.2526 50.2929 44.2526C50.2854 44.2526 50.2701 44.2526 50.2551 44.245C50.2398 44.2378 50.2173 44.2378 50.1795 44.2305C50.0429 44.2012 49.9067 44.1792 49.7704 44.1792C49.4448 44.1792 49.2098 44.2599 49.066 44.4206C48.922 44.5816 48.8463 44.8378 48.8463 45.1961V45.2547C48.8463 45.5985 48.922 45.8544 49.066 46.0154C49.2098 46.1761 49.4448 46.2641 49.7629 46.2641C49.8992 46.2641 50.0429 46.242 50.2098 46.1982C50.2476 46.1909 50.2701 46.1837 50.2854 46.1761C50.3004 46.1689 50.3157 46.1689 50.3232 46.1689C50.3611 46.1689 50.3839 46.1909 50.3839 46.2348V46.3079C50.3839 46.3592 50.3685 46.3958 50.3307 46.4103C50.1567 46.4834 49.9598 46.5272 49.7551 46.5272ZM51.0808 46.4689C51.0276 46.4689 51.0048 46.4468 51.0048 46.3958V42.8626C51.0048 42.8115 51.0276 42.7895 51.0808 42.7895H51.217C51.2701 42.7895 51.2926 42.8115 51.2926 42.8626V44.2526C51.4595 44.1426 51.6336 44.055 51.823 43.9892C52.0048 43.9233 52.1864 43.894 52.3608 43.894C52.6105 43.894 52.7998 43.9599 52.9364 44.0843C53.0727 44.2085 53.1333 44.3988 53.1333 44.6475V46.3958C53.1333 46.4468 53.1105 46.4689 53.0574 46.4689H52.9211C52.8683 46.4689 52.8455 46.4468 52.8455 46.3958V44.7719C52.8455 44.5595 52.7998 44.3988 52.7167 44.3037C52.6333 44.2085 52.497 44.1574 52.3077 44.1574C51.9667 44.1574 51.6336 44.2599 51.308 44.4719V46.3958C51.308 46.4468 51.2851 46.4689 51.232 46.4689H51.0808ZM54.0042 46.4689C53.9511 46.4689 53.9286 46.4468 53.9286 46.3958V44.0402C53.9286 43.9892 53.9511 43.9671 54.0042 43.9671H54.1102C54.1633 43.9671 54.1936 43.9892 54.2011 44.0402L54.2239 44.2526C54.3905 44.1354 54.5724 44.0478 54.7539 43.9819C54.9358 43.916 55.1177 43.8867 55.2918 43.8867C55.5418 43.8867 55.7312 43.9526 55.8674 44.0768C56.0037 44.2012 56.0643 44.3916 56.0643 44.6402V46.3958C56.0643 46.4468 56.0418 46.4689 55.9887 46.4689H55.8524C55.7993 46.4689 55.7765 46.4468 55.7765 46.3958V44.7719C55.7765 44.5595 55.7312 44.3988 55.6477 44.3037C55.5646 44.2085 55.428 44.1574 55.239 44.1574C54.898 44.1574 54.5649 44.2599 54.2389 44.4719V46.3958C54.2389 46.4468 54.2164 46.4689 54.1633 46.4689H54.0042ZM57.9125 46.542C57.5337 46.542 57.2384 46.4251 57.034 46.1909C56.8218 45.9568 56.7234 45.6275 56.7234 45.2106C56.7234 44.7937 56.8293 44.4719 57.034 44.2378C57.2459 44.0037 57.5412 43.8867 57.9125 43.8867C58.2912 43.8867 58.5865 44.0037 58.7909 44.2378C59.0031 44.4719 59.109 44.7937 59.109 45.2106C59.109 45.6275 59.0031 45.9568 58.7909 46.1909C58.5865 46.4251 58.2912 46.542 57.9125 46.542ZM57.9125 46.2858C58.5031 46.2858 58.8062 45.9275 58.8062 45.2182C58.8062 44.5085 58.5109 44.1574 57.9125 44.1574C57.3218 44.1574 57.0187 44.5085 57.0187 45.2182C57.0187 45.9275 57.314 46.2858 57.9125 46.2858ZM60.215 46.4834C60.0787 46.4834 59.9725 46.4468 59.8969 46.3665C59.8212 46.2861 59.7831 46.1837 59.7831 46.0372V42.8553C59.7831 42.8043 59.8059 42.7822 59.8591 42.7822H59.9953C60.0484 42.7822 60.0709 42.8043 60.0709 42.8553V46.0299C60.0709 46.103 60.0862 46.1544 60.1166 46.1837C60.1469 46.2127 60.1997 46.2275 60.2756 46.2275C60.2984 46.2275 60.3209 46.2275 60.3438 46.2203C60.3666 46.2203 60.3891 46.2127 60.4044 46.2127C60.4497 46.2127 60.48 46.2348 60.48 46.2858V46.381C60.48 46.4251 60.4575 46.4468 60.4119 46.4541C60.3512 46.4761 60.2906 46.4834 60.215 46.4834ZM62.1238 46.542C61.745 46.542 61.4494 46.4251 61.245 46.1909C61.0328 45.9568 60.9344 45.6275 60.9344 45.2106C60.9344 44.7937 61.0406 44.4719 61.245 44.2378C61.4572 44.0037 61.7525 43.8867 62.1238 43.8867C62.5022 43.8867 62.7979 44.0037 63.0022 44.2378C63.2144 44.4719 63.3204 44.7937 63.3204 45.2106C63.3204 45.6275 63.2144 45.9568 63.0022 46.1909C62.7979 46.4251 62.5022 46.542 62.1238 46.542ZM62.1238 46.2858C62.7144 46.2858 63.0172 45.9275 63.0172 45.2182C63.0172 44.5085 62.7219 44.1574 62.1238 44.1574C61.5328 44.1574 61.23 44.5085 61.23 45.2182C61.2375 45.9275 61.5328 46.2858 62.1238 46.2858ZM64.9032 47.5513C64.7595 47.5513 64.6154 47.5369 64.4791 47.5075C64.3429 47.4782 64.2216 47.4417 64.1157 47.3906C64.0779 47.3758 64.0551 47.3393 64.0551 47.2882V47.2148C64.0551 47.171 64.0701 47.1492 64.1157 47.1492C64.1232 47.1492 64.1382 47.1492 64.146 47.1565C64.161 47.1565 64.1838 47.1637 64.2141 47.1782C64.4563 47.2514 64.6835 47.2955 64.8807 47.2955C65.1989 47.2955 65.4335 47.2224 65.5851 47.0686C65.7364 46.9151 65.8123 46.6737 65.8123 46.3444V46.103C65.6835 46.2054 65.547 46.2858 65.3879 46.3444C65.2367 46.403 65.0851 46.4323 64.9488 46.4323C64.6154 46.4323 64.3579 46.3151 64.1535 46.0885C63.9566 45.8616 63.8582 45.562 63.8582 45.1888C63.8582 44.7864 63.9566 44.4719 64.1535 44.2378C64.3504 44.0037 64.6232 43.8867 64.9638 43.8867C65.2895 43.8867 65.5698 43.9964 65.8198 44.216L65.8426 44.033C65.8501 43.9819 65.8804 43.9599 65.9332 43.9599H66.0395C66.0923 43.9599 66.1151 43.9819 66.1151 44.033V46.3444C66.1151 46.732 66.0092 47.032 65.8045 47.2369C65.6001 47.4417 65.2895 47.5513 64.9032 47.5513ZM65.017 46.1761C65.2745 46.1761 65.5395 46.0737 65.8123 45.8616V44.4792C65.6682 44.3695 65.5395 44.2816 65.4032 44.2305C65.2745 44.1792 65.1304 44.1502 64.9867 44.1502C64.7138 44.1502 64.502 44.2378 64.3657 44.4061C64.2291 44.5816 64.161 44.8302 64.161 45.174C64.161 45.4961 64.237 45.7447 64.3807 45.9203C64.5248 46.0958 64.7366 46.1761 65.017 46.1761ZM67.0014 47.5513C66.9179 47.5513 66.8423 47.5369 66.7667 47.5148C66.7136 47.5003 66.6907 47.471 66.6907 47.4124V47.3393C66.6907 47.2955 66.7136 47.2734 66.7514 47.2734C66.7742 47.2734 66.7892 47.2734 66.8045 47.2807C66.8195 47.2807 66.8423 47.2882 66.8726 47.2882C66.9029 47.2882 66.9333 47.2882 66.9786 47.2882C67.0923 47.2882 67.1833 47.2589 67.2514 47.2003C67.3195 47.1417 67.3801 47.0393 67.4408 46.8931L67.6148 46.4761L66.5998 44.0695C66.5848 44.0402 66.5773 44.0185 66.5773 44.0037C66.5773 43.9671 66.5998 43.9454 66.6376 43.9454H66.8045C66.8498 43.9454 66.8801 43.9671 66.8954 44.0112L67.7586 46.1468L68.6299 44.0112C68.6448 43.9671 68.6752 43.9454 68.7208 43.9454H68.872C68.9098 43.9454 68.9327 43.9599 68.9327 44.0037C68.9327 44.0112 68.9252 44.033 68.9098 44.0695L67.6983 46.981C67.6148 47.1858 67.5164 47.3248 67.4105 47.4124C67.3042 47.5148 67.1679 47.5513 67.0014 47.5513Z" fill="white"/>
<path d="M71.4013 47.4523C71.3337 47.4523 71.3047 47.4228 71.3047 47.3532V42.8813C71.3047 42.8121 71.3337 42.7822 71.4013 42.7822H72.87C73.2853 42.7822 73.6138 42.9112 73.8654 43.159C74.1165 43.4071 74.2326 43.7442 74.2326 44.1705C74.2326 44.5869 74.107 44.924 73.8654 45.1717C73.6138 45.4199 73.2853 45.5484 72.87 45.5484H71.6815V47.3532C71.6815 47.4228 71.6525 47.4523 71.5849 47.4523H71.4013ZM72.8603 45.1918C73.5078 45.1918 73.8363 44.8548 73.8363 44.1705C73.8363 43.4862 73.5078 43.1393 72.8603 43.1393H71.6815V45.1918H72.8603ZM75.846 47.5317C75.5466 47.5317 75.305 47.4424 75.1212 47.2639C74.9474 47.0853 74.8509 46.8474 74.8509 46.5501C74.8509 46.2229 74.9569 45.9649 75.1794 45.7765C75.4014 45.5882 75.7013 45.4891 76.078 45.4891C76.3678 45.4891 76.6868 45.5386 77.0153 45.648V45.0829C77.0153 44.8052 76.9475 44.6168 76.8219 44.4977C76.6963 44.3785 76.4838 44.3191 76.194 44.3191C75.8942 44.3191 75.5753 44.3785 75.2372 44.4878C75.1985 44.4977 75.1599 44.5075 75.1407 44.5075C75.1021 44.5075 75.0729 44.478 75.0729 44.4182V44.3093C75.0729 44.2696 75.0825 44.2499 75.0925 44.2298C75.1021 44.2102 75.1312 44.1901 75.1599 44.1803C75.5079 44.0415 75.8751 43.9723 76.2614 43.9723C76.6481 43.9723 76.9284 44.0513 77.1213 44.22C77.3147 44.3887 77.4016 44.6365 77.4016 44.9735V47.3532C77.4016 47.4228 77.3725 47.4523 77.3051 47.4523H77.1695C77.1022 47.4523 77.0731 47.4228 77.0635 47.3532L77.0344 47.0657C76.6481 47.3728 76.2518 47.5317 75.846 47.5317ZM75.8942 47.1746C76.0585 47.1746 76.2422 47.1451 76.4352 47.0755C76.6286 47.0063 76.8219 46.9072 77.0248 46.7782V45.9354C76.735 45.856 76.4452 45.8163 76.1745 45.8163C75.5657 45.8163 75.2567 46.0542 75.2567 46.5403C75.2567 46.7483 75.3145 46.9072 75.421 47.0161C75.5175 47.1251 75.6817 47.1746 75.8942 47.1746ZM78.5031 47.4523C78.4353 47.4523 78.4066 47.4228 78.4066 47.3532V44.1606C78.4066 44.091 78.4353 44.0615 78.5031 44.0615H78.6287C78.6965 44.0615 78.7351 44.091 78.7447 44.1606L78.7738 44.557C78.938 44.3687 79.1023 44.2298 79.2666 44.1606C79.4308 44.0812 79.6046 44.0415 79.8075 44.0415C79.8753 44.0415 79.9331 44.0415 79.9814 44.0513C80.0491 44.0513 80.0782 44.091 80.0782 44.1606V44.3289C80.0782 44.349 80.0683 44.3687 80.0587 44.3785C80.0491 44.3986 80.0296 44.3986 80.0105 44.3986C79.9718 44.3986 79.9427 44.3986 79.914 44.3986C79.8849 44.3986 79.8366 44.3986 79.7784 44.3986C79.5755 44.3986 79.4017 44.4383 79.247 44.5173C79.0927 44.5968 78.938 44.7159 78.8025 44.8842V47.363C78.8025 47.4326 78.7738 47.4621 78.706 47.4621H78.5031V47.4523ZM81.6821 47.492C81.4214 47.492 81.228 47.4228 81.0924 47.284C80.9573 47.1451 80.8899 46.9367 80.8899 46.6689V44.4084H80.3681C80.3003 44.4084 80.2712 44.3785 80.2712 44.3093V44.2401C80.2712 44.2004 80.2812 44.1803 80.2907 44.1606C80.3003 44.1406 80.3294 44.1307 80.3681 44.1307L80.8995 44.0812L80.9477 43.1889C80.9477 43.1491 80.9573 43.1295 80.9768 43.1094C80.996 43.0898 81.0155 43.0898 81.0442 43.0898H81.1602C81.228 43.0898 81.2571 43.1197 81.2571 43.1889V44.0714H82.2135C82.2813 44.0714 82.31 44.1013 82.31 44.1705V44.3093C82.31 44.3785 82.2813 44.4084 82.2135 44.4084H81.2571V46.6492C81.2571 46.8376 81.2954 46.9666 81.3727 47.0358C81.4501 47.1152 81.5756 47.155 81.7594 47.155C81.885 47.155 82.001 47.1451 82.0975 47.1251C82.1457 47.1152 82.1844 47.1054 82.2135 47.1054C82.2426 47.0956 82.2617 47.0956 82.2813 47.0956C82.3295 47.0956 82.3582 47.1251 82.3582 47.1746V47.2737C82.3582 47.3532 82.3391 47.3929 82.2813 47.4125C82.1071 47.4621 81.9041 47.492 81.6821 47.492ZM83.1412 47.4523C83.0734 47.4523 83.0443 47.4228 83.0443 47.3532V44.1606C83.0443 44.091 83.0734 44.0615 83.1412 44.0615H83.2764C83.3441 44.0615 83.3828 44.091 83.3924 44.1606L83.4211 44.4481C83.634 44.2896 83.8656 44.1705 84.0976 44.0812C84.3296 43.9919 84.5613 43.9522 84.7837 43.9522C85.1027 43.9522 85.3443 44.0415 85.5181 44.2102C85.6919 44.3785 85.7692 44.6365 85.7692 44.9735V47.3532C85.7692 47.4228 85.7401 47.4523 85.6728 47.4523H85.4985C85.4312 47.4523 85.4021 47.4228 85.4021 47.3532V45.1521C85.4021 44.8646 85.3443 44.6463 85.2378 44.5173C85.1314 44.3887 84.9575 44.3191 84.716 44.3191C84.2814 44.3191 83.856 44.4579 83.4406 44.7454V47.3532C83.4406 47.4228 83.4115 47.4523 83.3441 47.4523H83.1412ZM88.1752 47.5513C87.6533 47.5513 87.267 47.4027 86.9963 47.0956C86.7356 46.788 86.6001 46.3417 86.6001 45.7471C86.6001 45.182 86.7356 44.7454 86.9963 44.4285C87.267 44.1111 87.6342 43.9624 88.1074 43.9624C88.5037 43.9624 88.8127 44.0812 89.0256 44.3093C89.2381 44.5472 89.3441 44.8744 89.3441 45.3105C89.3441 45.4891 89.3345 45.6279 89.3154 45.7172C89.3058 45.7868 89.2672 45.8163 89.1994 45.8163H86.9772C86.9772 46.2921 87.0833 46.6394 87.2766 46.8572C87.47 47.0853 87.7789 47.1947 88.1943 47.1947C88.5133 47.1947 88.8127 47.1349 89.0929 47.026C89.1512 47.0063 89.1898 46.9961 89.209 46.9961C89.2285 46.9961 89.2381 47.0063 89.2572 47.0161C89.2672 47.0358 89.2767 47.0456 89.2767 47.0755V47.1746C89.2767 47.2442 89.2572 47.2938 89.1994 47.3134C88.9 47.4723 88.5519 47.5513 88.1752 47.5513ZM88.9869 45.5092C88.9869 45.4493 88.9965 45.3703 88.9965 45.2909C88.9965 44.9637 88.9191 44.7258 88.7644 44.557C88.6097 44.3887 88.3877 44.3093 88.0883 44.3093C87.3926 44.3093 87.0254 44.7159 86.9868 45.519H88.9869V45.5092ZM90.2814 47.4523C90.214 47.4523 90.1849 47.4228 90.1849 47.3532V44.1606C90.1849 44.091 90.214 44.0615 90.2814 44.0615H90.4069C90.4747 44.0615 90.5134 44.091 90.523 44.1606L90.5521 44.557C90.7163 44.3687 90.8806 44.2298 91.0448 44.1606C91.2091 44.0812 91.3829 44.0415 91.5858 44.0415C91.6536 44.0415 91.7114 44.0415 91.76 44.0513C91.8274 44.0513 91.8565 44.091 91.8565 44.1606V44.3289C91.8565 44.349 91.847 44.3687 91.837 44.3785C91.8274 44.3986 91.8083 44.3986 91.7887 44.3986C91.7501 44.3986 91.7214 44.3986 91.6923 44.3986C91.6632 44.3986 91.6149 44.3986 91.5571 44.3986C91.3542 44.3986 91.18 44.4383 91.0257 44.5173C90.871 44.5968 90.7163 44.7159 90.5812 44.8842V47.363C90.5812 47.4326 90.5521 47.4621 90.4843 47.4621H90.2814V47.4523Z" fill="white"/>
</svg>
