<svg width="109" height="62" viewBox="0 0 109 62" fill="none" xmlns="http://www.w3.org/2000/svg">
<rect x="1" y="1" width="107" height="60" rx="2.58643" fill="#4733A4" fill-opacity="0.51"/>
<rect x="0.5" y="0.5" width="108" height="61" rx="3.08643" stroke="white" stroke-opacity="0.09"/>
<path d="M39.4064 32.998L36.6986 24.9159H36.6433C36.6525 25.1001 36.6663 25.3626 36.6847 25.7034C36.7032 26.035 36.717 26.3988 36.7262 26.7948C36.7446 27.1817 36.7538 27.5455 36.7538 27.8863V32.998H35.165V23.1337H37.6242L40.2215 30.8843H40.2768L42.9847 23.1337H45.4439V32.998H43.7584V27.8034C43.7584 27.4902 43.763 27.1494 43.7722 26.781C43.7906 26.4034 43.8044 26.0488 43.8136 25.7172C43.832 25.3764 43.8459 25.1139 43.8551 24.9297H43.7998L40.9814 32.998H39.4064ZM49.5707 25.51V32.998H47.83V25.51H49.5707ZM48.7004 22.6225C48.9583 22.6225 49.1839 22.6916 49.3773 22.8297C49.5707 22.9587 49.6675 23.1935 49.6675 23.5343C49.6675 23.8659 49.5707 24.1054 49.3773 24.2527C49.1839 24.3909 48.9583 24.46 48.7004 24.46C48.4333 24.46 48.203 24.3909 48.0096 24.2527C47.8254 24.1054 47.7333 23.8659 47.7333 23.5343C47.7333 23.1935 47.8254 22.9587 48.0096 22.8297C48.203 22.6916 48.4333 22.6225 48.7004 22.6225ZM54.8222 33.1362C54.113 33.1362 53.4959 33.0027 52.9709 32.7355C52.4551 32.4592 52.0545 32.0402 51.7689 31.4783C51.4926 30.9073 51.3545 30.1797 51.3545 29.2955C51.3545 28.3744 51.5064 27.6284 51.8104 27.0573C52.1235 26.4771 52.5518 26.0534 53.0952 25.7863C53.6387 25.51 54.2604 25.3718 54.9604 25.3718C55.4301 25.3718 55.8492 25.4179 56.2176 25.51C56.586 25.6021 56.8992 25.7126 57.157 25.8415L56.6459 27.2093C56.3603 27.0988 56.0748 27.0067 55.7893 26.933C55.5038 26.8501 55.2275 26.8086 54.9604 26.8086C54.5459 26.8086 54.2005 26.9007 53.9242 27.085C53.6571 27.2692 53.4591 27.5455 53.3301 27.9139C53.2012 28.2731 53.1367 28.729 53.1367 29.2816C53.1367 29.8158 53.2012 30.2625 53.3301 30.6218C53.4683 30.981 53.6709 31.2527 53.938 31.4369C54.2051 31.6119 54.5367 31.6994 54.9327 31.6994C55.3564 31.6994 55.7294 31.6487 56.0518 31.5474C56.3742 31.4461 56.6781 31.3079 56.9636 31.1329V32.6388C56.6781 32.8138 56.3696 32.9382 56.038 33.0119C55.7156 33.0948 55.3104 33.1362 54.8222 33.1362ZM62.6415 25.3718C62.7521 25.3718 62.881 25.3764 63.0284 25.3856C63.1757 25.3948 63.3001 25.4133 63.4014 25.4409L63.2494 27.0573C63.1665 27.0389 63.056 27.0251 62.9178 27.0159C62.7889 26.9975 62.6738 26.9882 62.5725 26.9882C62.2961 26.9882 62.029 27.0343 61.7711 27.1264C61.5225 27.2093 61.2968 27.3382 61.0942 27.5132C60.9008 27.679 60.7442 27.8955 60.6244 28.1626C60.5139 28.4297 60.4587 28.7474 60.4587 29.1159V32.998H58.7179V25.51H60.058L60.3067 26.8086H60.3896C60.5369 26.5415 60.7212 26.3021 60.9422 26.0902C61.1633 25.8692 61.4165 25.6942 61.7021 25.5652C61.9968 25.4363 62.31 25.3718 62.6415 25.3718ZM71.2062 29.2402C71.2062 29.8665 71.1233 30.4191 70.9575 30.8981C70.7917 31.377 70.5522 31.7869 70.2391 32.1277C69.9351 32.4592 69.5575 32.7125 69.1062 32.8875C68.6641 33.0533 68.1713 33.1362 67.6279 33.1362C67.1121 33.1362 66.6378 33.0533 66.2049 32.8875C65.772 32.7125 65.3944 32.4592 65.072 32.1277C64.7589 31.7869 64.5148 31.377 64.3398 30.8981C64.1648 30.4191 64.0773 29.8665 64.0773 29.2402C64.0773 28.4113 64.22 27.7113 64.5056 27.1402C64.7911 26.56 65.201 26.1225 65.7352 25.8277C66.2786 25.5238 66.9187 25.3718 67.6555 25.3718C68.3555 25.3718 68.968 25.5238 69.493 25.8277C70.0272 26.1225 70.4463 26.56 70.7502 27.1402C71.0542 27.7113 71.2062 28.4113 71.2062 29.2402ZM65.8595 29.2402C65.8595 29.7652 65.9194 30.2165 66.0391 30.5941C66.168 30.9625 66.3615 31.2435 66.6194 31.4369C66.8865 31.6303 67.2272 31.727 67.6417 31.727C68.0654 31.727 68.4062 31.6303 68.6641 31.4369C68.9312 31.2435 69.1246 30.9625 69.2443 30.5941C69.3641 30.2165 69.4239 29.7652 69.4239 29.2402C69.4239 28.706 69.3595 28.2593 69.2305 27.9001C69.1108 27.5317 68.9174 27.2553 68.6503 27.0711C68.3924 26.8777 68.0562 26.781 67.6417 26.781C67.0154 26.781 66.5595 26.9928 66.274 27.4165C65.9977 27.8402 65.8595 28.4481 65.8595 29.2402ZM78.1037 30.829C78.1037 31.3264 77.984 31.75 77.7445 32.1C77.505 32.4408 77.1504 32.6987 76.6807 32.8737C76.2202 33.0487 75.6537 33.1362 74.9814 33.1362C74.4564 33.1362 74.0051 33.0994 73.6275 33.0257C73.2498 32.952 72.8906 32.8369 72.5498 32.6803V31.202C72.9182 31.377 73.3281 31.5244 73.7794 31.6441C74.2307 31.7638 74.6498 31.8237 75.0366 31.8237C75.5156 31.8237 75.861 31.75 76.0728 31.6027C76.2847 31.4553 76.3906 31.2573 76.3906 31.0086C76.3906 30.8612 76.3491 30.7277 76.2662 30.6079C76.1833 30.4882 76.0222 30.3639 75.7827 30.2349C75.5432 30.0968 75.1794 29.9264 74.6913 29.7237C74.2123 29.5303 73.8117 29.3369 73.4893 29.1435C73.1761 28.9501 72.9367 28.7198 72.7709 28.4527C72.6143 28.1764 72.536 27.831 72.536 27.4165C72.536 26.7442 72.8031 26.2376 73.3373 25.8968C73.8715 25.5468 74.5761 25.3718 75.4511 25.3718C75.9116 25.3718 76.3445 25.4179 76.7498 25.51C77.1643 25.5929 77.5787 25.731 77.9932 25.9244L77.4406 27.2093C77.2103 27.108 76.98 27.0205 76.7498 26.9468C76.5287 26.8639 76.3031 26.7994 76.0728 26.7534C75.8518 26.7073 75.6261 26.6843 75.3959 26.6843C75.0182 26.6843 74.7327 26.7442 74.5393 26.8639C74.3459 26.9744 74.2492 27.131 74.2492 27.3336C74.2492 27.4902 74.2952 27.6284 74.3873 27.7481C74.4886 27.8586 74.659 27.9738 74.8985 28.0935C75.1472 28.204 75.4972 28.3514 75.9485 28.5356C76.3998 28.7106 76.782 28.8948 77.0952 29.0882C77.4175 29.2724 77.6662 29.5027 77.8412 29.779C78.0162 30.0553 78.1037 30.4053 78.1037 30.829ZM86.4654 29.2402C86.4654 29.8665 86.3825 30.4191 86.2167 30.8981C86.051 31.377 85.8115 31.7869 85.4983 32.1277C85.1944 32.4592 84.8168 32.7125 84.3654 32.8875C83.9233 33.0533 83.4306 33.1362 82.8872 33.1362C82.3714 33.1362 81.8971 33.0533 81.4642 32.8875C81.0313 32.7125 80.6536 32.4592 80.3313 32.1277C80.0181 31.7869 79.774 31.377 79.599 30.8981C79.424 30.4191 79.3366 29.8665 79.3366 29.2402C79.3366 28.4113 79.4793 27.7113 79.7648 27.1402C80.0504 26.56 80.4602 26.1225 80.9944 25.8277C81.5378 25.5238 82.178 25.3718 82.9148 25.3718C83.6148 25.3718 84.2273 25.5238 84.7523 25.8277C85.2865 26.1225 85.7056 26.56 86.0095 27.1402C86.3135 27.7113 86.4654 28.4113 86.4654 29.2402ZM81.1188 29.2402C81.1188 29.7652 81.1786 30.2165 81.2984 30.5941C81.4273 30.9625 81.6207 31.2435 81.8786 31.4369C82.1457 31.6303 82.4865 31.727 82.901 31.727C83.3247 31.727 83.6655 31.6303 83.9233 31.4369C84.1904 31.2435 84.3839 30.9625 84.5036 30.5941C84.6233 30.2165 84.6832 29.7652 84.6832 29.2402C84.6832 28.706 84.6187 28.2593 84.4898 27.9001C84.3701 27.5317 84.1766 27.2553 83.9095 27.0711C83.6516 26.8777 83.3155 26.781 82.901 26.781C82.2747 26.781 81.8188 26.9928 81.5332 27.4165C81.2569 27.8402 81.1188 28.4481 81.1188 29.2402ZM92.1472 26.8225H90.3374V32.998H88.5966V26.8225H87.3946V25.9935L88.5966 25.4962V24.985C88.5966 24.3402 88.6979 23.8337 88.9005 23.4653C89.1032 23.0968 89.3979 22.8343 89.7847 22.6778C90.1716 22.512 90.6275 22.4291 91.1525 22.4291C91.5209 22.4291 91.8525 22.4613 92.1472 22.5258C92.442 22.581 92.686 22.6455 92.8794 22.7192L92.4373 24.0179C92.2808 23.9718 92.1058 23.9304 91.9124 23.8935C91.7281 23.8475 91.5255 23.8245 91.3045 23.8245C90.9729 23.8245 90.7288 23.9304 90.5722 24.1422C90.4157 24.3541 90.3374 24.6488 90.3374 25.0264V25.51H92.1472V26.8225ZM96.2932 31.7408C96.5143 31.7408 96.7261 31.7224 96.9287 31.6856C97.1314 31.6395 97.3202 31.5889 97.4952 31.5336V32.8323C97.311 32.9152 97.0715 32.9842 96.7768 33.0395C96.482 33.104 96.1735 33.1362 95.8511 33.1362C95.4274 33.1362 95.0406 33.0671 94.6906 32.929C94.3498 32.7816 94.0735 32.5329 93.8617 32.1829C93.659 31.8329 93.5577 31.3448 93.5577 30.7185V26.8225H92.5492V26.0626L93.6544 25.4547L94.207 23.8659H95.2985V25.51H97.4261V26.8225H95.2985V30.7046C95.2985 31.0546 95.3906 31.3171 95.5748 31.4921C95.759 31.6579 95.9985 31.7408 96.2932 31.7408Z" fill="#E8E8E8"/>
<path d="M38.9518 40.2643C38.9518 40.6986 38.8467 41.0683 38.6364 41.3736C38.426 41.679 38.1241 41.9164 37.7306 42.086C37.3371 42.2489 36.8689 42.3303 36.3262 42.3303C36.0616 42.3303 35.8071 42.3133 35.5629 42.2794C35.3186 42.2523 35.0914 42.2116 34.881 42.1573C34.6707 42.103 34.4841 42.0352 34.3213 41.9537V40.9157C34.5927 41.0378 34.9116 41.1498 35.2779 41.2515C35.6443 41.3465 36.0175 41.394 36.3974 41.394C36.7231 41.394 36.9945 41.3499 37.2116 41.2617C37.4287 41.1735 37.5915 41.0514 37.7001 40.8953C37.8086 40.7393 37.8629 40.5561 37.8629 40.3458C37.8629 40.1219 37.8052 39.9353 37.6899 39.786C37.5813 39.63 37.4083 39.4875 37.1709 39.3586C36.9402 39.2229 36.6281 39.0804 36.2346 38.9312C35.9632 38.8294 35.7155 38.7174 35.4917 38.5953C35.2745 38.4664 35.0812 38.3171 34.9116 38.1475C34.7487 37.9779 34.6232 37.7812 34.535 37.5573C34.4468 37.3334 34.4027 37.0722 34.4027 36.7736C34.4027 36.3733 34.5011 36.0307 34.6978 35.7457C34.9014 35.4608 35.1796 35.2437 35.5324 35.0944C35.8852 34.9384 36.2956 34.8603 36.7638 34.8603C37.1573 34.8603 37.5203 34.9011 37.8527 34.9825C38.192 35.0571 38.5142 35.1623 38.8195 35.298L38.4735 36.2037C38.1953 36.0884 37.9138 35.9934 37.6288 35.9188C37.3439 35.8441 37.0453 35.8068 36.7332 35.8068C36.4619 35.8068 36.2346 35.8475 36.0514 35.9289C35.8682 36.0104 35.7291 36.1223 35.6341 36.2648C35.5459 36.4073 35.5018 36.5735 35.5018 36.7635C35.5018 36.9873 35.5527 37.1739 35.6545 37.3232C35.7563 37.4725 35.9191 37.6115 36.143 37.7404C36.3669 37.8626 36.662 37.9983 37.0284 38.1475C37.4355 38.3036 37.7815 38.4732 38.0664 38.6564C38.3582 38.8396 38.5787 39.0601 38.7279 39.3179C38.8772 39.5689 38.9518 39.8844 38.9518 40.2643ZM41.3313 36.7431V42.2285H40.2525V36.7431H41.3313ZM40.8021 34.6568C40.9649 34.6568 41.1074 34.7043 41.2295 34.7993C41.3516 34.8943 41.4127 35.0537 41.4127 35.2776C41.4127 35.4947 41.3516 35.6542 41.2295 35.7559C41.1074 35.8509 40.9649 35.8984 40.8021 35.8984C40.6257 35.8984 40.4764 35.8509 40.3543 35.7559C40.2389 35.6542 40.1813 35.4947 40.1813 35.2776C40.1813 35.0537 40.2389 34.8943 40.3543 34.7993C40.4764 34.7043 40.6257 34.6568 40.8021 34.6568ZM44.1041 42.2285H43.0254V34.494H44.1041V42.2285ZM47.0296 42.2285L44.9535 36.7431H46.0933L47.2332 39.9489C47.2807 40.0846 47.3281 40.2372 47.3756 40.4068C47.4299 40.5764 47.4774 40.7393 47.5181 40.8953C47.5588 41.0514 47.586 41.1871 47.5995 41.3024H47.6402C47.6606 41.1871 47.6911 41.0514 47.7318 40.8953C47.7793 40.7325 47.8302 40.5697 47.8845 40.4068C47.9388 40.2372 47.9863 40.0846 48.027 39.9489L49.1668 36.7431H50.3066L48.2203 42.2285H47.0296ZM53.3126 36.6413C53.7943 36.6413 54.2082 36.7431 54.5542 36.9466C54.9002 37.1434 55.1648 37.4284 55.348 37.8015C55.538 38.1747 55.6329 38.6157 55.6329 39.1245V39.7148H51.9489C51.9624 40.2779 52.1083 40.7087 52.3865 41.0073C52.6714 41.3058 53.0683 41.4551 53.5772 41.4551C53.93 41.4551 54.2421 41.4245 54.5135 41.3635C54.7916 41.2956 55.0766 41.1972 55.3683 41.0683V41.9639C55.097 42.086 54.8188 42.1776 54.5338 42.2387C54.2557 42.2998 53.9232 42.3303 53.5365 42.3303C53.0073 42.3303 52.5391 42.2251 52.132 42.0148C51.725 41.8045 51.4061 41.4924 51.1754 41.0785C50.9515 40.6579 50.8396 40.1422 50.8396 39.5316C50.8396 38.9142 50.9413 38.3918 51.1449 37.9643C51.3552 37.5369 51.6435 37.2112 52.0099 36.9873C52.3831 36.7567 52.8173 36.6413 53.3126 36.6413ZM53.3126 37.4758C52.9259 37.4758 52.6138 37.6014 52.3763 37.8524C52.1456 38.1034 52.0099 38.4596 51.9692 38.921H54.5542C54.5542 38.636 54.5101 38.385 54.4219 38.1679C54.3337 37.9508 54.198 37.7812 54.0148 37.659C53.8316 37.5369 53.5975 37.4758 53.3126 37.4758ZM59.6861 36.6413C59.7811 36.6413 59.8862 36.6481 60.0016 36.6617C60.1169 36.6685 60.2119 36.6786 60.2865 36.6922L60.1746 37.6997C60.1 37.6794 60.0118 37.6624 59.91 37.6489C59.8082 37.6353 59.7132 37.6285 59.625 37.6285C59.4215 37.6285 59.2247 37.6692 59.0348 37.7506C58.8516 37.8253 58.6854 37.9372 58.5361 38.0865C58.3868 38.2289 58.2681 38.4053 58.1799 38.6157C58.0985 38.826 58.0578 39.0669 58.0578 39.3382V42.2285H56.979V36.7431H57.8339L57.9764 37.7201H58.0171C58.1324 37.5233 58.2715 37.3435 58.4343 37.1807C58.5972 37.0179 58.7837 36.889 58.9941 36.794C59.2044 36.6922 59.4351 36.6413 59.6861 36.6413Z" fill="#C4C4C4"/>
<path d="M66.1034 34.9621C67.0533 34.9621 67.7453 35.1555 68.1795 35.5422C68.6138 35.9222 68.8309 36.4547 68.8309 37.14C68.8309 37.4453 68.78 37.7371 68.6782 38.0152C68.5832 38.2934 68.4238 38.5444 68.1999 38.7683C67.976 38.9854 67.6775 39.1584 67.3043 39.2874C66.9379 39.4095 66.4868 39.4705 65.9508 39.4705H65.1671V42.2285H64.068V34.9621H66.1034ZM66.022 35.8882H65.1671V38.5444H65.8287C66.2425 38.5444 66.5885 38.5003 66.8667 38.4121C67.1449 38.3171 67.3518 38.1713 67.4875 37.9745C67.63 37.771 67.7012 37.5064 67.7012 37.1807C67.7012 36.7465 67.5655 36.4242 67.2941 36.2139C67.0295 35.9968 66.6055 35.8882 66.022 35.8882ZM72.3043 36.6413C72.9964 36.6413 73.512 36.794 73.8513 37.0993C74.1905 37.3978 74.3601 37.8694 74.3601 38.5139V42.2285H73.5968L73.3831 41.4652H73.3424C73.1864 41.662 73.0235 41.8248 72.8539 41.9537C72.6911 42.0826 72.5011 42.1776 72.284 42.2387C72.0737 42.2998 71.8158 42.3303 71.5105 42.3303C71.1849 42.3303 70.8897 42.2726 70.6251 42.1573C70.3673 42.0352 70.1638 41.852 70.0145 41.6077C69.8653 41.3567 69.7906 41.0446 69.7906 40.6714C69.7906 40.1151 70.0009 39.691 70.4216 39.3993C70.849 39.1076 71.497 38.9481 72.3654 38.921L73.3017 38.8905V38.5851C73.3017 38.1781 73.2101 37.8931 73.0269 37.7303C72.8437 37.5674 72.5859 37.486 72.2535 37.486C71.9685 37.486 71.6971 37.5267 71.4393 37.6081C71.1815 37.6896 70.9372 37.7879 70.7066 37.9033L70.3605 37.1196C70.6184 36.984 70.9135 36.872 71.2459 36.7838C71.5852 36.6888 71.938 36.6413 72.3043 36.6413ZM72.5588 39.613C71.9346 39.6402 71.5004 39.7453 71.2561 39.9285C71.0186 40.1049 70.8999 40.3559 70.8999 40.6816C70.8999 40.9666 70.9847 41.1735 71.1543 41.3024C71.3307 41.4313 71.5512 41.4958 71.8158 41.4958C72.2433 41.4958 72.5961 41.377 72.8743 41.1396C73.1524 40.9021 73.2915 40.5459 73.2915 40.071V39.5927L72.5588 39.613ZM78.7283 36.6413C78.8233 36.6413 78.9284 36.6481 79.0438 36.6617C79.1591 36.6685 79.2541 36.6786 79.3287 36.6922L79.2168 37.6997C79.1421 37.6794 79.0539 37.6624 78.9522 37.6489C78.8504 37.6353 78.7554 37.6285 78.6672 37.6285C78.4637 37.6285 78.2669 37.6692 78.0769 37.7506C77.8938 37.8253 77.7275 37.9372 77.5783 38.0865C77.429 38.2289 77.3103 38.4053 77.2221 38.6157C77.1407 38.826 77.0999 39.0669 77.0999 39.3382V42.2285H76.0212V36.7431H76.8761L77.0185 37.7201H77.0592C77.1746 37.5233 77.3137 37.3435 77.4765 37.1807C77.6393 37.0179 77.8259 36.889 78.0362 36.794C78.2466 36.6922 78.4772 36.6413 78.7283 36.6413ZM82.3188 41.4551C82.4613 41.4551 82.6071 41.4415 82.7564 41.4144C82.9057 41.3872 83.0346 41.3567 83.1431 41.3228V42.1369C83.0278 42.1912 82.8717 42.2353 82.675 42.2692C82.4782 42.3099 82.2815 42.3303 82.0847 42.3303C81.7862 42.3303 81.5114 42.2794 81.2604 42.1776C81.0161 42.0759 80.8194 41.8995 80.6701 41.6484C80.5208 41.3974 80.4462 41.048 80.4462 40.6002V37.5674H79.6829V37.0789L80.4869 36.6719L80.8635 35.5117H81.525V36.7431H83.0922V37.5674H81.525V40.5798C81.525 40.8784 81.5962 41.0989 81.7387 41.2413C81.8879 41.3838 82.0813 41.4551 82.3188 41.4551ZM87.0187 36.6413C87.6564 36.6413 88.1449 36.8008 88.4841 37.1196C88.8234 37.4385 88.993 37.9508 88.993 38.6564V42.2285H87.9244V38.809C87.9244 38.3816 87.8328 38.0627 87.6496 37.8524C87.4732 37.6353 87.1883 37.5267 86.7948 37.5267C86.2384 37.5267 85.8517 37.693 85.6346 38.0254C85.4243 38.3579 85.3191 38.8362 85.3191 39.4604V42.2285H84.2403V36.7431H85.0952L85.2479 37.4758H85.3089C85.431 37.2859 85.5803 37.1298 85.7567 37.0077C85.9331 36.8856 86.1299 36.794 86.347 36.7329C86.5641 36.6719 86.788 36.6413 87.0187 36.6413ZM92.8082 36.6413C93.2899 36.6413 93.7038 36.7431 94.0498 36.9466C94.3958 37.1434 94.6604 37.4284 94.8436 37.8015C95.0336 38.1747 95.1286 38.6157 95.1286 39.1245V39.7148H91.4445C91.458 40.2779 91.6039 40.7087 91.8821 41.0073C92.167 41.3058 92.5639 41.4551 93.0728 41.4551C93.4256 41.4551 93.7377 41.4245 94.0091 41.3635C94.2872 41.2956 94.5722 41.1972 94.8639 41.0683V41.9639C94.5926 42.086 94.3144 42.1776 94.0294 42.2387C93.7513 42.2998 93.4188 42.3303 93.0321 42.3303C92.5029 42.3303 92.0347 42.2251 91.6277 42.0148C91.2206 41.8045 90.9017 41.4924 90.671 41.0785C90.4471 40.6579 90.3352 40.1422 90.3352 39.5316C90.3352 38.9142 90.4369 38.3918 90.6405 37.9643C90.8508 37.5369 91.1392 37.2112 91.5055 36.9873C91.8787 36.7567 92.3129 36.6413 92.8082 36.6413ZM92.8082 37.4758C92.4215 37.4758 92.1094 37.6014 91.8719 37.8524C91.6412 38.1034 91.5055 38.4596 91.4648 38.921H94.0498C94.0498 38.636 94.0057 38.385 93.9175 38.1679C93.8293 37.9508 93.6936 37.7812 93.5104 37.659C93.3272 37.5369 93.0931 37.4758 92.8082 37.4758ZM99.1817 36.6413C99.2767 36.6413 99.3819 36.6481 99.4972 36.6617C99.6125 36.6685 99.7075 36.6786 99.7822 36.6922L99.6702 37.6997C99.5956 37.6794 99.5074 37.6624 99.4056 37.6489C99.3038 37.6353 99.2088 37.6285 99.1206 37.6285C98.9171 37.6285 98.7204 37.6692 98.5304 37.7506C98.3472 37.8253 98.181 37.9372 98.0317 38.0865C97.8824 38.2289 97.7637 38.4053 97.6755 38.6157C97.5941 38.826 97.5534 39.0669 97.5534 39.3382V42.2285H96.4746V36.7431H97.3295L97.472 37.7201H97.5127C97.628 37.5233 97.7671 37.3435 97.9299 37.1807C98.0928 37.0179 98.2793 36.889 98.4897 36.794C98.7 36.6922 98.9307 36.6413 99.1817 36.6413Z" fill="#A2A2A2"/>
<rect x="8.95508" y="21.3672" width="10.1077" height="10.1077" fill="#EB5321"/>
<rect x="20.748" y="21.3672" width="10.1077" height="10.1077" fill="#7FBA00"/>
<rect x="20.748" y="33.1592" width="10.1077" height="10.1077" fill="#FCBB01"/>
<rect x="8.95508" y="33.1592" width="10.1077" height="10.1077" fill="#08A1EF"/>
</svg>
