<svg width="92" height="37" viewBox="0 0 92 37" fill="none" xmlns="http://www.w3.org/2000/svg">
<path d="M29.5055 5.06803C30.4052 5.06803 31.0589 5.25573 31.4667 5.63114C31.8809 6.00654 32.088 6.52433 32.088 7.18452C32.088 7.48225 32.0427 7.76704 31.9521 8.03888C31.8615 8.30425 31.7094 8.54373 31.4958 8.75732C31.2822 8.97091 31.0006 9.13919 30.6511 9.26217C30.3081 9.38514 29.8809 9.44663 29.3696 9.44663H28.6803V12H27.4376V5.06803H29.5055ZM29.4278 6.09715H28.6803V8.41751H29.2434C29.5799 8.41751 29.8647 8.37868 30.0977 8.30101C30.3372 8.21687 30.5184 8.08742 30.6414 7.91266C30.7644 7.73791 30.8259 7.51137 30.8259 7.23306C30.8259 6.85119 30.7126 6.5664 30.4861 6.3787C30.2595 6.191 29.9068 6.09715 29.4278 6.09715ZM35.4291 6.64083C36.1087 6.64083 36.6233 6.7897 36.9728 7.08743C37.3288 7.37869 37.5068 7.83823 37.5068 8.46606V12H36.6427L36.4 11.2719H36.3612C36.2123 11.4596 36.057 11.6181 35.8952 11.7476C35.7398 11.8706 35.5586 11.9579 35.3515 12.0097C35.1508 12.068 34.9049 12.0971 34.6136 12.0971C34.3029 12.0971 34.0214 12.0388 33.769 11.9223C33.523 11.8058 33.3288 11.6278 33.1864 11.3884C33.0441 11.1424 32.9729 10.835 32.9729 10.466C32.9729 9.92235 33.1703 9.51459 33.5651 9.24275C33.9664 8.96443 34.5715 8.81233 35.3806 8.78644L36.2932 8.75732V8.49518C36.2932 8.15862 36.2123 7.91914 36.0505 7.77674C35.8887 7.63435 35.6622 7.56315 35.3709 7.56315C35.1055 7.56315 34.8499 7.60199 34.6039 7.67966C34.358 7.75733 34.1185 7.84794 33.8855 7.9515L33.4971 7.09714C33.756 6.96122 34.0505 6.85119 34.3806 6.76705C34.7172 6.6829 35.0667 6.64083 35.4291 6.64083ZM35.6524 9.53401C35.1152 9.55342 34.7431 9.64727 34.536 9.81556C34.3288 9.97737 34.2253 10.1974 34.2253 10.4757C34.2253 10.7217 34.2997 10.8997 34.4486 11.0097C34.5974 11.1198 34.7884 11.1748 35.0214 11.1748C35.3774 11.1748 35.6783 11.0744 35.9243 10.8738C36.1702 10.6667 36.2932 10.3625 36.2932 9.96119V9.51459L35.6524 9.53401ZM41.7969 6.64083C41.8746 6.64083 41.9652 6.64407 42.0688 6.65054C42.1723 6.65701 42.2597 6.66996 42.3309 6.68938L42.2241 7.82529C42.1659 7.81234 42.0882 7.80263 41.9911 7.79616C41.9005 7.78322 41.8196 7.77674 41.7484 7.77674C41.5542 7.77674 41.3665 7.80911 41.1853 7.87383C41.0105 7.93208 40.852 8.0227 40.7096 8.14567C40.5737 8.26218 40.4636 8.41428 40.3795 8.60198C40.3018 8.78968 40.263 9.01298 40.263 9.27187V12H39.0397V6.73792H39.9814L40.1562 7.65053H40.2144C40.318 7.46283 40.4474 7.29455 40.6028 7.14568C40.7581 6.99034 40.9361 6.86737 41.1368 6.77675C41.3439 6.68614 41.5639 6.64083 41.7969 6.64083ZM45.345 11.1165C45.5003 11.1165 45.6492 11.1036 45.7916 11.0777C45.934 11.0453 46.0667 11.0097 46.1896 10.9709V11.8835C46.0602 11.9417 45.8919 11.9903 45.6848 12.0291C45.4777 12.0744 45.2609 12.0971 45.0343 12.0971C44.7366 12.0971 44.4647 12.0485 44.2188 11.9515C43.9793 11.8479 43.7851 11.6731 43.6363 11.4272C43.4939 11.1812 43.4227 10.8382 43.4227 10.3981V7.66024H42.714V7.12627L43.4906 6.69909L43.879 5.58259H44.646V6.73792H46.1411V7.66024H44.646V10.3884C44.646 10.6343 44.7107 10.8188 44.8401 10.9418C44.9696 11.0583 45.1379 11.1165 45.345 11.1165ZM50.0658 6.64083C50.6548 6.64083 51.1144 6.79294 51.4444 7.09714C51.781 7.40134 51.9493 7.89325 51.9493 8.57285V12H50.726V8.81557C50.726 8.42075 50.6483 8.12625 50.493 7.93208C50.3377 7.73144 50.0917 7.63111 49.7551 7.63111C49.2632 7.63111 48.9267 7.78645 48.7454 8.09713C48.5642 8.40133 48.4736 8.84469 48.4736 9.42721V12H47.2503V6.73792H48.1921L48.3668 7.42723H48.4348C48.5513 7.24601 48.6937 7.09714 48.8619 6.98064C49.0302 6.86413 49.2179 6.77999 49.4251 6.72821C49.6322 6.66996 49.8458 6.64083 50.0658 6.64083ZM55.5959 6.64083C56.0684 6.64083 56.4729 6.73792 56.8095 6.93209C57.1525 7.11979 57.4179 7.39163 57.6056 7.74762C57.7933 8.09713 57.8871 8.52431 57.8871 9.02916V9.65051H54.4114C54.4244 10.1295 54.557 10.5016 54.8095 10.767C55.0619 11.0259 55.4114 11.1553 55.858 11.1553C56.201 11.1553 56.5052 11.123 56.7706 11.0583C57.0425 10.9871 57.3208 10.8867 57.6056 10.7573V11.7379C57.3467 11.8608 57.0781 11.9515 56.7997 12.0097C56.5214 12.068 56.1881 12.0971 55.7998 12.0971C55.2884 12.0971 54.8321 12 54.4308 11.8058C54.036 11.6052 53.7253 11.3042 53.4988 10.9029C53.2787 10.5016 53.1687 10.0033 53.1687 9.40779C53.1687 8.80586 53.269 8.30101 53.4697 7.89325C53.6768 7.47901 53.9616 7.16834 54.324 6.96122C54.6865 6.74763 55.1104 6.64083 55.5959 6.64083ZM55.5959 7.54374C55.2723 7.54374 55.0069 7.65053 54.7998 7.86412C54.5991 8.07124 54.4794 8.38192 54.4405 8.79615H56.7027C56.7027 8.5502 56.6606 8.33337 56.5764 8.14567C56.4988 7.95797 56.379 7.81234 56.2172 7.70878C56.0554 7.59875 55.8483 7.54374 55.5959 7.54374ZM61.8779 6.64083C61.9556 6.64083 62.0462 6.64407 62.1497 6.65054C62.2533 6.65701 62.3407 6.66996 62.4119 6.68938L62.3051 7.82529C62.2468 7.81234 62.1692 7.80263 62.0721 7.79616C61.9815 7.78322 61.9005 7.77674 61.8293 7.77674C61.6352 7.77674 61.4475 7.80911 61.2662 7.87383C61.0915 7.93208 60.9329 8.0227 60.7905 8.14567C60.6546 8.26218 60.5446 8.41428 60.4604 8.60198C60.3828 8.78968 60.3439 9.01298 60.3439 9.27187V12H59.1206V6.73792H60.0624L60.2371 7.65053H60.2954C60.3989 7.46283 60.5284 7.29455 60.6837 7.14568C60.8391 6.99034 61.0171 6.86737 61.2177 6.77675C61.4248 6.68614 61.6449 6.64083 61.8779 6.64083Z" fill="white"/>
<g clip-path="url(#clip0_32_3361)">
<path d="M59.0456 32.4751C58.2983 32.4924 57.5553 32.3577 56.8619 32.0791C56.1686 31.8005 55.5395 31.3839 55.0131 30.8548C54.4867 30.3257 54.0739 29.6951 53.8002 29.0016C53.5264 28.3081 53.3973 27.5663 53.4207 26.8214C53.4014 26.0813 53.5331 25.3451 53.808 24.6573C54.0828 23.9695 54.4949 23.3446 55.0194 22.8205C55.542 22.2876 56.1693 21.868 56.8622 21.5881C57.555 21.3082 58.2984 21.174 59.0456 21.1939C59.794 21.1755 60.537 21.3245 61.22 21.6298C61.9031 21.9351 62.5089 22.389 62.993 22.9582L62.0259 23.9224C61.6712 23.4753 61.2176 23.1161 60.7007 22.8726C60.1837 22.6291 59.6173 22.508 59.0456 22.5188C58.4885 22.5052 57.9344 22.6053 57.4174 22.8128C56.9004 23.0203 56.4314 23.331 56.0391 23.7256C55.6384 24.133 55.3254 24.6178 55.1195 25.1502C54.9136 25.6825 54.8191 26.2513 54.8418 26.8214C54.8173 27.3937 54.9109 27.9649 55.1169 28.4997C55.3228 29.0345 55.6367 29.5214 56.0391 29.9303C56.4305 30.3262 56.8993 30.6377 57.4165 30.8453C57.9338 31.0529 58.4883 31.1522 59.0456 31.1371C59.678 31.1341 60.3016 30.9899 60.8708 30.7153C61.44 30.4406 61.9403 30.0424 62.3351 29.5499L63.3482 30.5337C62.8354 31.1449 62.1897 31.6316 61.4601 31.957C60.7029 32.3034 59.8788 32.4803 59.0456 32.4751ZM65.8679 21.4366V32.239H64.4732V21.4366H65.8679ZM67.0653 28.5398C67.0501 28.0221 67.1376 27.5064 67.3227 27.0224C67.5079 26.5385 67.787 26.0957 68.1442 25.7195C68.4977 25.3544 68.9236 25.0666 69.3948 24.8746C69.866 24.6827 70.3722 24.5907 70.881 24.6045C71.388 24.5901 71.8923 24.6818 72.3615 24.8739C72.8307 25.066 73.2542 25.3541 73.6046 25.7195C73.9654 26.0935 74.2473 26.5357 74.4338 27.0201C74.6202 27.5045 74.7074 28.0213 74.6902 28.5398C74.7093 29.0586 74.623 29.5759 74.4364 30.0605C74.2499 30.5452 73.967 30.9873 73.6046 31.3601C73.2552 31.7269 72.8318 32.0159 72.3624 32.208C71.893 32.4002 71.3882 32.4912 70.881 32.4751C70.372 32.4906 69.8653 32.3994 69.3939 32.2073C68.9224 32.0152 68.4967 31.7266 68.1442 31.3601C67.787 30.9839 67.5079 30.5412 67.3227 30.0572C67.1376 29.5732 67.0501 29.0576 67.0653 28.5398ZM68.46 28.5398C68.428 29.2492 68.6786 29.9424 69.1573 30.4681C69.3788 30.7024 69.6459 30.889 69.9423 31.0166C70.2387 31.1442 70.5581 31.21 70.881 31.21C71.2039 31.21 71.5233 31.1442 71.8197 31.0166C72.1161 30.889 72.3832 30.7024 72.6047 30.4681C73.0834 29.9424 73.334 29.2492 73.302 28.5398C73.3327 27.8346 73.082 27.146 72.6047 26.6246C72.3853 26.3869 72.1189 26.1972 71.8222 26.0673C71.5255 25.9375 71.205 25.8705 70.881 25.8705C70.557 25.8705 70.2365 25.9375 69.9398 26.0673C69.6432 26.1972 69.3767 26.3869 69.1573 26.6246C68.6801 27.146 68.4293 27.8346 68.46 28.5398ZM82.3874 32.239H81.0717V31.2093H81.0059C80.7706 31.5942 80.4338 31.9073 80.0322 32.1144C79.6149 32.3502 79.1435 32.4745 78.6638 32.4751C78.2791 32.5 77.8935 32.4439 77.5319 32.3106C77.1704 32.1773 76.841 31.9696 76.5651 31.7012C76.0439 31.0864 75.7821 30.2941 75.8349 29.4909V24.8538H77.223V29.4056C77.194 29.652 77.2217 29.9018 77.304 30.136C77.3863 30.3701 77.521 30.5825 77.6979 30.757C77.8749 30.9315 78.0893 31.0635 78.3251 31.143C78.5608 31.2225 78.8117 31.2474 79.0585 31.2158C79.3249 31.2204 79.5888 31.1637 79.8296 31.0499C80.0704 30.9361 80.2816 30.7684 80.4467 30.5599C80.8219 30.1094 81.0206 29.5385 81.0059 28.953V24.8538H82.4006L82.3874 32.239ZM87.0979 32.4751C86.6244 32.475 86.1565 32.373 85.7261 32.176C85.2958 31.9791 84.9132 31.6918 84.6045 31.3339C83.9134 30.5678 83.5375 29.5701 83.5519 28.5398C83.5293 27.5149 83.8959 26.5193 84.5782 25.7523C84.8846 25.3911 85.2665 25.1012 85.6973 24.9029C86.128 24.7046 86.5971 24.6028 87.0716 24.6045C87.5905 24.5957 88.1036 24.7152 88.565 24.9521C88.9877 25.1599 89.3467 25.477 89.6044 25.8704H89.6636L89.6307 24.8538V21.4366H91.0189V32.239H89.7031V31.2093H89.6439C89.3861 31.6026 89.0271 31.9197 88.6044 32.1275C88.1391 32.3666 87.6213 32.4861 87.0979 32.4751ZM87.3281 31.2093C87.6457 31.2195 87.9614 31.1582 88.2519 31.0298C88.5424 30.9015 88.8 30.7095 89.0057 30.4681C89.4659 29.9338 89.7015 29.2431 89.6636 28.5398C89.6954 27.8414 89.4603 27.157 89.0057 26.6246C88.8007 26.3816 88.5435 26.1876 88.2531 26.0571C87.9627 25.9265 87.6466 25.8627 87.3281 25.8704C87.0101 25.8655 86.6949 25.9305 86.4049 26.0609C86.115 26.1913 85.8574 26.3837 85.6505 26.6246C85.196 27.157 84.9608 27.8414 84.9927 28.5398C84.9561 29.2389 85.1918 29.925 85.6505 30.455C85.8574 30.6959 86.115 30.8884 86.4049 31.0187C86.6949 31.1491 87.0101 31.2142 87.3281 31.2093Z" fill="white"/>
<path d="M6.24544 32.4783C4.60838 32.4837 3.03512 31.8458 1.86651 30.7028C0.697897 29.5599 0.0280545 28.0039 0.00210571 26.372C0.0280545 24.7401 0.697897 23.1841 1.86651 22.0412C3.03512 20.8982 4.60838 20.2603 6.24544 20.2657C7.0255 20.2528 7.8003 20.3952 8.52444 20.6846C9.24857 20.9741 9.90746 21.4047 10.4625 21.9513L9.27172 23.1254C8.45981 22.346 7.37245 21.9171 6.24544 21.9317C5.6619 21.9299 5.08383 22.0438 4.54486 22.2668C4.00589 22.4898 3.51678 22.8175 3.10599 23.2307C2.6952 23.6439 2.37093 24.1344 2.15205 24.6737C1.93317 25.213 1.82405 25.7903 1.83103 26.372C1.82405 26.9537 1.93317 27.531 2.15205 28.0703C2.37093 28.6096 2.6952 29.1001 3.10599 29.5133C3.51678 29.9265 4.00589 30.2542 4.54486 30.4772C5.08383 30.7002 5.6619 30.8141 6.24544 30.8123C6.8203 30.8359 7.39371 30.7389 7.9286 30.5276C8.46349 30.3163 8.94795 29.9955 9.35066 29.5858C9.88748 29.0086 10.2102 28.2657 10.2651 27.4804H6.24544V25.8211H11.9033C11.965 26.1652 11.9936 26.5144 11.9888 26.8639C12.0333 28.3033 11.5088 29.7025 10.5283 30.7599C9.97645 31.3314 9.30953 31.78 8.57137 32.0761C7.83321 32.3723 7.04053 32.5094 6.24544 32.4783Z" fill="#4285F4"/>
<path d="M20.7448 28.5483C20.7664 29.073 20.6814 29.5966 20.4949 30.0876C20.3084 30.5787 20.0243 31.0271 19.6596 31.4059C19.2949 31.7847 18.8571 32.0862 18.3726 32.2921C17.8881 32.498 17.3669 32.6041 16.8402 32.6041C16.3135 32.6041 15.7923 32.498 15.3078 32.2921C14.8233 32.0862 14.3855 31.7847 14.0208 31.4059C13.6561 31.0271 13.372 30.5787 13.1855 30.0876C12.999 29.5966 12.914 29.073 12.9356 28.5483C12.914 28.0237 12.999 27.5001 13.1855 27.0091C13.372 26.518 13.6561 26.0696 14.0208 25.6908C14.3855 25.3119 14.8233 25.0105 15.3078 24.8046C15.7923 24.5987 16.3135 24.4926 16.8402 24.4926C17.3669 24.4926 17.8881 24.5987 18.3726 24.8046C18.8571 25.0105 19.2949 25.3119 19.6596 25.6908C20.0243 26.0696 20.3084 26.518 20.4949 27.0091C20.6814 27.5001 20.7664 28.0237 20.7448 28.5483ZM19.0342 28.5483C19.0633 28.2437 19.0281 27.9363 18.9311 27.6459C18.834 27.3556 18.6772 27.0887 18.4706 26.8622C18.264 26.6358 18.0123 26.4549 17.7315 26.3312C17.4508 26.2074 17.1472 26.1434 16.8402 26.1434C16.5332 26.1434 16.2296 26.2074 15.9488 26.3312C15.6681 26.4549 15.4164 26.6358 15.2098 26.8622C15.0032 27.0887 14.8464 27.3556 14.7493 27.6459C14.6523 27.9363 14.6171 28.2437 14.6462 28.5483C14.6171 28.853 14.6523 29.1604 14.7493 29.4508C14.8464 29.7411 15.0032 30.008 15.2098 30.2344C15.4164 30.4609 15.6681 30.6418 15.9488 30.7655C16.2296 30.8893 16.5332 30.9533 16.8402 30.9533C17.1472 30.9533 17.4508 30.8893 17.7315 30.7655C18.0123 30.6418 18.264 30.4609 18.4706 30.2344C18.6772 30.008 18.834 29.7411 18.9311 29.4508C19.0281 29.1604 19.0633 28.853 19.0342 28.5483Z" fill="#EA4335"/>
<path d="M29.4943 28.5483C29.5159 29.073 29.4309 29.5966 29.2445 30.0876C29.058 30.5787 28.7738 31.0271 28.4091 31.4059C28.0444 31.7847 27.6067 32.0862 27.1222 32.2921C26.6377 32.498 26.1165 32.6041 25.5898 32.6041C25.0631 32.6041 24.5418 32.498 24.0573 32.2921C23.5729 32.0862 23.1351 31.7847 22.7704 31.4059C22.4057 31.0271 22.1216 30.5787 21.9351 30.0876C21.7486 29.5966 21.6636 29.073 21.6852 28.5483C21.6636 28.0237 21.7486 27.5001 21.9351 27.0091C22.1216 26.518 22.4057 26.0696 22.7704 25.6908C23.1351 25.3119 23.5729 25.0105 24.0573 24.8046C24.5418 24.5987 25.0631 24.4926 25.5898 24.4926C26.1165 24.4926 26.6377 24.5987 27.1222 24.8046C27.6067 25.0105 28.0444 25.3119 28.4091 25.6908C28.7738 26.0696 29.058 26.518 29.2445 27.0091C29.4309 27.5001 29.5159 28.0237 29.4943 28.5483ZM27.7838 28.5483C27.8073 28.2464 27.7679 27.9429 27.6681 27.6569C27.5683 27.3708 27.4103 27.1085 27.2039 26.8862C26.9976 26.664 26.7474 26.4866 26.4691 26.3654C26.1907 26.2441 25.8902 26.1815 25.5865 26.1815C25.2827 26.1815 24.9822 26.2441 24.7039 26.3654C24.4256 26.4866 24.1754 26.664 23.969 26.8862C23.7627 27.1085 23.6047 27.3708 23.5049 27.6569C23.4051 27.9429 23.3657 28.2464 23.3891 28.5483C23.3657 28.8503 23.4051 29.1538 23.5049 29.4398C23.6047 29.7258 23.7627 29.9882 23.969 30.2105C24.1754 30.4327 24.4256 30.6101 24.7039 30.7313C24.9822 30.8526 25.2827 30.9152 25.5865 30.9152C25.8902 30.9152 26.1907 30.8526 26.4691 30.7313C26.7474 30.6101 26.9976 30.4327 27.2039 30.2105C27.4103 29.9882 27.5683 29.7258 27.6681 29.4398C27.7679 29.1538 27.8073 28.8503 27.7838 28.5483Z" fill="#FBBC04"/>
<path d="M38.027 24.8588V31.9161C38.027 34.8151 36.2968 36.0088 34.2573 36.0088C33.5068 36.0129 32.7719 35.7943 32.1463 35.3809C31.5208 34.9674 31.0327 34.3778 30.7442 33.687L32.2639 33.0311C32.4171 33.4332 32.6862 33.7811 33.0375 34.0309C33.3887 34.2807 33.8063 34.4212 34.2376 34.4347C35.5533 34.4347 36.356 33.6279 36.356 32.126V31.5619H36.3165C36.0533 31.8579 35.7287 32.0934 35.3652 32.252C35.0017 32.4105 34.608 32.4884 34.2113 32.4801C33.1644 32.4801 32.1604 32.0655 31.4201 31.3275C30.6798 30.5895 30.2639 29.5885 30.2639 28.5448C30.2639 27.5011 30.6798 26.5002 31.4201 25.7621C32.1604 25.0241 33.1644 24.6095 34.2113 24.6095C34.6066 24.6022 34.9989 24.6792 35.362 24.8353C35.725 24.9914 36.0505 25.223 36.3165 25.5146H36.3757V24.8588H38.027ZM36.4941 28.5711C36.5183 28.2737 36.4822 27.9745 36.3879 27.6914C36.2937 27.4082 36.1433 27.1469 35.9456 26.9229C35.748 26.6989 35.5071 26.5168 35.2374 26.3876C34.9677 26.2583 34.6747 26.1845 34.3757 26.1705C34.0721 26.1814 33.7737 26.2525 33.4979 26.3795C33.2221 26.5065 32.9744 26.687 32.7693 26.9104C32.5642 27.1339 32.4057 27.3958 32.3031 27.6809C32.2005 27.966 32.1559 28.2686 32.1718 28.5711C32.1577 28.8715 32.2038 29.1717 32.3074 29.4541C32.4111 29.7366 32.5701 29.9956 32.7753 30.2161C32.9805 30.4365 33.2277 30.614 33.5025 30.7381C33.7773 30.8622 34.0742 30.9304 34.3757 30.9388C34.6735 30.9283 34.966 30.8576 35.2355 30.7312C35.5051 30.6048 35.7462 30.4252 35.9442 30.2033C36.1422 29.9814 36.293 29.7217 36.3876 29.4401C36.4821 29.1584 36.5183 28.8605 36.4941 28.5645V28.5711Z" fill="#4285F4"/>
<path d="M41.0773 20.6817V32.2384H39.3405V20.6817H41.0773Z" fill="#808080"/>
<path d="M47.9135 29.8452L49.2687 30.7635C48.9069 31.3018 48.4173 31.7427 47.8435 32.0471C47.2697 32.3514 46.6293 32.5098 45.9793 32.5081C45.4622 32.5155 44.9491 32.4182 44.4708 32.2221C43.9926 32.026 43.5592 31.7352 43.1969 31.3673C42.8347 30.9994 42.5511 30.5621 42.3633 30.0817C42.1755 29.6014 42.0874 29.0881 42.1044 28.5728C42.0274 27.687 42.28 26.8039 42.8141 26.0919C43.3483 25.3798 44.1265 24.8886 45.0006 24.7119C45.8746 24.5352 46.7834 24.6853 47.5535 25.1337C48.3237 25.582 48.9014 26.2972 49.1766 27.143L49.3543 27.5955L44.0912 29.7665C44.2552 30.134 44.5258 30.4441 44.8682 30.6569C45.2106 30.8696 45.609 30.9753 46.0122 30.9602C46.3982 30.9515 46.7755 30.8445 47.1083 30.6493C47.4411 30.4541 47.7183 30.1773 47.9135 29.8452ZM43.7622 28.4285L47.3017 26.9725C47.16 26.7112 46.9454 26.4966 46.6838 26.3546C46.4222 26.2126 46.1249 26.1492 45.828 26.1723C45.5437 26.1849 45.2646 26.2533 45.0068 26.3736C44.7491 26.4939 44.5176 26.6637 44.3257 26.8732C44.1338 27.0828 43.9853 27.328 43.8886 27.5949C43.7919 27.8618 43.749 28.1451 43.7622 28.4285Z" fill="#EA4335"/>
</g>
<defs>
<clipPath id="clip0_32_3361">
<rect width="91.0185" height="15.7412" fill="white" transform="translate(0 20.2617)"/>
</clipPath>
</defs>
</svg>
