<svg width="14" height="15" viewBox="0 0 14 15" fill="none" xmlns="http://www.w3.org/2000/svg">
<g clip-path="url(#clip0_1531_15402)">
<path d="M6.97935 14.8814C10.8339 14.8814 13.9587 11.7651 13.9587 7.9209C13.9587 4.07675 10.8339 0.960449 6.97935 0.960449C3.12476 0.960449 0 4.07675 0 7.9209C0 11.7651 3.12476 14.8814 6.97935 14.8814Z" fill="#016BE3"/>
<path fill-rule="evenodd" clip-rule="evenodd" d="M9.76861 5.83309C9.57922 5.83017 9.39531 5.90122 9.2544 6.03358C7.4144 7.61512 7.65778 7.95187 5.89097 9.60251C5.65217 9.33389 5.41702 9.05943 5.20383 8.76745C5.0739 8.57378 4.96411 8.36745 4.87627 8.14944C4.5478 7.28811 3.10763 7.93046 3.58616 8.85991C3.81582 9.44192 5.19285 11.3836 5.80405 11.4011C6.88829 11.4322 8.15278 8.9368 10.2407 7.14407C10.5344 6.85501 10.5463 6.3752 10.2673 6.07057C10.1346 5.9275 9.95435 5.84283 9.76312 5.83504L9.76861 5.83309Z" fill="white"/>
</g>
<defs>
<clipPath id="clip0_1531_15402">
<rect width="13.9587" height="13.9209" fill="white" transform="translate(0 0.960449)"/>
</clipPath>
</defs>
</svg>
