<svg width="21" height="21" viewBox="0 0 21 21" fill="none" xmlns="http://www.w3.org/2000/svg">
<path d="M10.2766 1.40835L10.2766 1.40836L8.0869 6.55946L8.08689 6.55949C8.08132 6.5726 8.07557 6.58626 8.06963 6.60041C8.00853 6.7458 7.9261 6.94197 7.78891 7.10168L7.78888 7.10173C7.66982 7.24032 7.52231 7.35351 7.3546 7.43184L10.2766 1.40835ZM10.2766 1.40835C10.3705 1.18745 10.4413 1.02163 10.5 0.893995C10.5588 1.02163 10.6296 1.18745 10.7235 1.40835L10.7235 1.40836M10.2766 1.40835L10.7235 1.40836M10.7235 1.40836L12.9131 6.55946L12.9132 6.55966M10.7235 1.40836L12.9132 6.55966M12.9132 6.55966C12.9188 6.57282 12.9246 6.58656 12.9305 6.60078C12.9915 6.74582 13.0739 6.9418 13.2109 7.10139M12.9132 6.55966L13.6455 7.43188M13.6455 7.43188L13.6453 7.43179C13.4779 7.35356 13.3302 7.2404 13.2109 7.10139M13.6455 7.43188C13.8414 7.52336 14.0559 7.54603 14.2061 7.5619C14.2208 7.56345 14.2349 7.56494 14.2483 7.56642M13.6455 7.43188L13.5573 6.28561M13.2109 7.10139L13.7422 6.64559M13.2109 7.10139C13.2111 7.10157 13.2112 7.10175 13.2114 7.10193L13.7422 6.64559M13.7422 6.64559C13.6794 6.57252 13.6388 6.47715 13.5578 6.28667L13.5573 6.28561M13.7422 6.64559C13.7978 6.71036 13.8658 6.76217 13.9417 6.79763C14.0275 6.83773 14.1268 6.84871 14.3253 6.87067L14.2483 7.56642M13.5573 6.28561L11.3677 1.13452C11.0928 0.487812 10.9553 0.164459 10.7639 0.0648847M13.5573 6.28561L10.7639 0.0648847M14.2483 7.56642C14.2484 7.56643 14.2484 7.56643 14.2484 7.56643M14.2483 7.56642L14.2484 7.56643M14.2484 7.56643L19.5969 8.15838C19.8679 8.18837 20.0564 8.20968 20.1958 8.23184C20.0928 8.3403 19.9457 8.48 19.7294 8.68444L15.734 12.46L15.7339 12.46M14.2484 7.56643L15.7339 12.46M10.7639 0.0648847C10.5976 -0.0216282 10.4024 -0.0216282 10.2362 0.0648847H10.7639ZM15.7339 12.46C15.7238 12.4696 15.7133 12.4795 15.7024 12.4897C15.5889 12.5961 15.4344 12.7408 15.3321 12.9269L15.3321 12.9269L15.7339 12.46ZM10.7751 16.8234L10.7761 16.8237C10.9858 16.8705 11.1702 16.9833 11.3004 17.0629C11.3131 17.0707 11.3253 17.0781 11.337 17.0852L15.9958 19.9029C16.1994 20.026 16.3503 20.1169 16.4687 20.1834C16.4449 20.0353 16.406 19.8413 16.3514 19.5711L15.2354 14.0542C15.2326 14.0403 15.2296 14.0259 15.2266 14.0111C15.1942 13.8543 15.1519 13.6488 15.1727 13.4406C15.1727 13.4405 15.1728 13.4403 15.1728 13.4402L15.8693 13.5102L10.7751 16.8234ZM10.7751 16.8234C10.5938 16.7832 10.4062 16.7832 10.2249 16.8234L10.2239 16.8237M10.7751 16.8234L10.2239 16.8237M10.2239 16.8237C10.0142 16.8705 9.82984 16.9833 9.6996 17.0629C9.6869 17.0707 9.67471 17.0781 9.66306 17.0852L5.00424 19.9029C4.80065 20.026 4.64982 20.1169 4.53143 20.1834C4.55518 20.0353 4.59406 19.8413 4.64872 19.5711L5.76463 14.0542L5.76464 14.0542M10.2239 16.8237L5.76464 14.0542M5.76464 14.0542C5.76747 14.0401 5.77046 14.0256 5.77354 14.0107C5.80583 13.8541 5.84821 13.6485 5.82732 13.4404L5.82731 13.4403M5.76464 14.0542L5.82731 13.4403M5.82731 13.4403C5.80928 13.2607 5.75539 13.0859 5.66797 12.9269L5.66778 12.9266M5.82731 13.4403L5.66778 12.9266M5.66778 12.9266C5.56533 12.7405 5.41107 12.596 5.29725 12.4893C5.28644 12.4792 5.27599 12.4694 5.26599 12.46C5.26596 12.4599 5.26594 12.4599 5.26591 12.4599L1.27073 8.68443L5.66778 12.9266ZM1.40317 8.15838L1.40317 8.15838C1.13219 8.18837 0.943653 8.20969 0.804309 8.23184C0.907262 8.34031 1.05441 8.48 1.27071 8.68442L1.40317 8.15838ZM1.40317 8.15838L6.75172 7.56643M1.40317 8.15838L6.75172 7.56643M6.75172 7.56643C6.75173 7.56643 6.75173 7.56643 6.75174 7.56642M6.75172 7.56643L6.75174 7.56642M6.75174 7.56642C6.76514 7.56494 6.77923 7.56345 6.79395 7.5619M6.75174 7.56642L6.79395 7.5619M6.79395 7.5619C6.9441 7.54603 7.15864 7.52336 7.35452 7.43188L6.79395 7.5619ZM20.3005 8.1631L20.3004 8.16327L20.3005 8.1631Z" stroke="#016BE3" stroke-width="1.4" stroke-linecap="round" stroke-linejoin="round"/>
</svg>
