<svg width="13" height="23" viewBox="0 0 13 23" fill="none" xmlns="http://www.w3.org/2000/svg">
<path d="M11.9562 8.52982C11.7934 8.25555 11.5057 8.09175 11.1868 8.09175H6.95878L9.766 0.792887C9.83502 0.613539 9.81117 0.411606 9.70233 0.253155C9.59348 0.0946342 9.41357 0 9.22134 0H2.99688C2.72339 0 2.48655 0.189901 2.42724 0.456988L0.0215606 11.2824C-0.0376122 11.5487 0.0263453 11.8235 0.197039 12.0363C0.367732 12.2491 0.622154 12.3713 0.89501 12.3713H4.83046L3.6622 22.3012C3.62955 22.5789 3.79835 22.8407 4.06466 22.9255C4.1232 22.9441 4.18286 22.953 4.24168 22.953C4.45058 22.953 4.64956 22.8403 4.75398 22.6488L11.9723 9.41516C12.125 9.13498 12.1191 8.80408 11.9562 8.52982ZM5.17374 19.4421L6.06626 11.8558C6.08568 11.6903 6.03347 11.5243 5.9228 11.3999C5.81212 11.2754 5.65332 11.2041 5.48671 11.2041H1.23457L3.46505 1.16713H8.37175L5.56452 8.466C5.4955 8.64542 5.51928 8.84735 5.6282 9.0058C5.73712 9.16425 5.91696 9.25896 6.10918 9.25896H10.7282L5.17374 19.4421Z" fill="#016BE3"/>
</svg>
