<svg width="35" height="31" viewBox="0 0 35 31" fill="none" xmlns="http://www.w3.org/2000/svg">
<path d="M34.1501 30.4541H1.70926C1.60688 30.4541 1.50551 30.4339 1.41093 30.3948C1.31635 30.3556 1.23041 30.2982 1.15802 30.2258C1.08563 30.1534 1.02821 30.0674 0.989029 29.9729C0.949852 29.8783 0.929687 29.7769 0.929688 29.6745V4.32645C0.929688 4.11969 1.01182 3.9214 1.15802 3.77521C1.30422 3.62901 1.5025 3.54688 1.70926 3.54688C1.91601 3.54688 2.1143 3.62901 2.2605 3.77521C2.4067 3.9214 2.48883 4.11969 2.48883 4.32645V28.895H34.1501C34.3569 28.895 34.5552 28.9771 34.7014 29.1233C34.8476 29.2695 34.9297 29.4678 34.9297 29.6745C34.9297 29.8813 34.8476 30.0796 34.7014 30.2258C34.5552 30.372 34.3569 30.4541 34.1501 30.4541Z" fill="white"/>
<path d="M11.6653 15.6406H6.29688V29.0617H11.6653V15.6406Z" fill="#016BE3"/>
<path d="M21.509 11.168H16.1406V29.0627H21.509V11.168Z" fill="#016BE3"/>
<path d="M31.3528 6.69141H25.9844V29.0598H31.3528V6.69141Z" fill="#016BE3"/>
<path d="M6.86608 13.0457C6.68997 13.0458 6.519 12.9863 6.38102 12.8768C6.24305 12.7674 6.1462 12.6144 6.10626 12.4429C6.06631 12.2714 6.08562 12.0914 6.16104 11.9323C6.23647 11.7731 6.36355 11.6442 6.52161 11.5665L28.287 0.880358C28.379 0.833963 28.4793 0.80627 28.5821 0.798881C28.6849 0.791493 28.7881 0.804556 28.8858 0.837313C28.9835 0.870071 29.0737 0.921874 29.1513 0.989727C29.2288 1.05758 29.2922 1.14013 29.3376 1.23262C29.3831 1.3251 29.4097 1.42568 29.4161 1.52853C29.4224 1.63138 29.4083 1.73447 29.3745 1.83183C29.3408 1.92919 29.288 2.0189 29.2194 2.09575C29.1508 2.17261 29.0676 2.23509 28.9746 2.27959L7.20923 12.9657C7.1025 13.0184 6.98509 13.0457 6.86608 13.0457Z" fill="white"/>
<path d="M26.8125 0.666891L28.1411 1.81559L28.2371 3.5693L30.9649 0.429688L26.8125 0.666891Z" fill="white"/>
</svg>
