<svg width="14" height="15" viewBox="0 0 14 15" fill="none" xmlns="http://www.w3.org/2000/svg">
<path d="M7.00233 0.804688C3.14254 0.804688 0 3.946 0 7.80469C0 11.6632 3.14236 14.8047 7.00233 14.8047C10.8621 14.8047 14 11.6634 14 7.80469C14 3.94618 10.8621 0.804688 7.00233 0.804688ZM6.87532 4.27353C7.28966 4.27353 7.62553 4.60929 7.62553 5.02349C7.62553 5.43769 7.28966 5.77345 6.87532 5.77345C6.46099 5.77345 6.12511 5.43769 6.12511 5.02349C6.12511 4.60929 6.46081 4.27353 6.87532 4.27353ZM8.07856 11.9175H5.92144V10.7553H6.40277V7.88635H5.92144V6.72416H7.56534V10.7553H8.07856V11.9175Z" fill="white"/>
</svg>
