<svg width="146" height="61" viewBox="0 0 146 61" fill="none" xmlns="http://www.w3.org/2000/svg">
<path d="M72.497 0.803711H67.083V5.01457H72.497V0.803711Z" fill="#010066"/>
<path d="M30.2397 9.39936C32.1757 9.39936 32.7423 11.2066 32.7423 12.1945H27.5483C27.5483 10.7729 28.5163 9.39936 30.2397 9.39936ZM35.7878 17.7126C35.2448 17.9054 34.6546 18.0741 34.088 18.1946C33.4269 18.3391 32.7187 18.4114 32.0104 18.4114C29.7203 18.4114 27.9261 17.6403 27.6428 15.7849H37.3932C37.464 15.4235 37.6057 14.5801 37.6057 13.6644C37.6057 9.47164 35.5517 5.61621 30.3342 5.61621C25.2583 5.61621 22.5669 9.66441 22.5669 14.2186C22.5669 19.4476 26.1554 22.4596 31.1841 22.4596C32.459 22.4596 33.3797 22.3392 34.1588 22.1946C34.9615 22.0259 35.835 21.7608 36.5669 21.4235L35.7878 17.7126Z" fill="#010066"/>
<path d="M107.017 9.39936C109.031 9.39936 109.644 11.2066 109.644 12.1945H104.218C104.218 10.7729 105.2 9.39936 107.017 9.39936ZM112.763 17.7126C112.198 17.9054 111.609 18.0741 110.995 18.1946C110.307 18.3391 109.571 18.4114 108.834 18.4114C106.453 18.4114 104.587 17.6403 104.292 15.7849H114.408C114.481 15.4235 114.604 14.5801 114.604 13.6644C114.604 9.47164 112.468 5.61621 107.042 5.61621C101.763 5.61621 98.9639 9.66441 98.9639 14.2186C98.9639 19.4476 102.696 22.4596 107.901 22.4596C109.227 22.4596 110.209 22.3392 111.019 22.1946C111.854 22.0259 112.763 21.7608 113.548 21.4235L112.763 17.7126Z" fill="#010066"/>
<path d="M45.4242 0.803711H40.0103V22.4595H45.4242V0.803711Z" fill="#010066"/>
<path d="M56.2658 18.478C54.5017 18.478 53.366 16.7406 53.366 14.0621C53.366 11.9144 54.1393 9.64609 56.29 9.64609C58.3682 9.64609 59.1174 12.0109 59.1174 14.0379C59.0932 16.7165 57.9816 18.478 56.2658 18.478ZM56.1933 22.4596C60.3982 22.4596 64.6755 19.8052 64.6755 13.8931C64.6755 10.37 62.5731 5.61621 56.435 5.61621C50.1036 5.61621 47.832 10.2252 47.832 14.1586C47.8562 19.1054 51.2877 22.4596 56.1933 22.4596Z" fill="#010066"/>
<path d="M72.497 6.21729H67.083V22.4592H72.497V6.21729Z" fill="#010066"/>
<path d="M76.3862 2.01917V6.31982H74.2993V10.2424H76.3862V16.717C76.3862 20.2851 78.0606 22.4591 81.8704 22.4591C82.5984 22.4591 83.3992 22.3882 84.1515 22.27C84.8309 22.1755 85.4619 22.0337 85.7288 21.9628L85.6803 17.804C85.4861 17.8749 84.2728 18.0639 83.8117 18.0639C83.3749 18.0639 82.7197 18.0166 82.2587 17.544C81.919 17.2132 81.6763 16.6697 81.6763 15.8191V10.2188H85.1949V6.29619H81.6763V1.40479L76.3862 2.01917Z" fill="#010066"/>
<path d="M89.0215 2.01917V6.31982H86.9346V10.2424H89.0215V16.717C89.0215 20.2851 90.6959 22.4591 94.5057 22.4591C95.2337 22.4591 96.0345 22.3882 96.7867 22.27C97.4662 22.1755 98.0971 22.0337 98.364 21.9628L98.3155 17.804C98.1456 17.8749 96.9081 18.0639 96.447 18.0639C96.0102 18.0639 95.355 18.0166 94.8939 17.544C94.5542 17.2132 94.3116 16.6697 94.3116 15.8191V10.2188H97.8302V6.29619H94.3116V1.40479L89.0215 2.01917Z" fill="#010066"/>
<path d="M117.011 19.4516C117.011 17.8022 118.369 16.4438 120.018 16.4438C121.668 16.4438 123.026 17.7779 123.026 19.4516C123.026 21.1253 121.668 22.4594 120.018 22.4594C118.345 22.4594 117.011 21.101 117.011 19.4516Z" fill="#99CA4A"/>
<path d="M1.51123 22.4591H7.61418C8.02426 22.4591 8.53083 22.459 8.91679 22.4349C17.2872 22.0004 20.7609 17.0516 20.7609 11.3304C20.7609 4.18482 15.9605 0.20166 7.66243 0.20166C5.51554 0.20166 3.634 0.274081 1.53535 0.443063V22.4591H1.51123ZM9.32687 18.0896C9.10977 18.1138 8.77206 18.1138 8.55496 18.1138H6.84227V4.66762C7.42121 4.61934 8.19312 4.57106 8.69969 4.57106C11.8356 4.57106 15.1886 6.59885 15.1886 11.3062C15.1645 16.255 12.0045 17.8965 9.32687 18.0896Z" fill="#010066"/>
<path d="M9.42653 34.6792C9.66071 34.6792 9.89489 34.7032 10.1291 34.6552C10.7145 34.5594 10.5974 33.8887 10.9019 33.8887C11.136 33.8887 11.136 34.4396 11.136 35.1344C11.136 35.9249 11.1126 36.7873 10.8316 36.7873C10.5038 36.7873 10.5506 36.0447 10.3164 35.7093C10.2227 35.5416 9.56704 35.2302 7.90436 35.2302C7.24865 35.2302 7.13156 35.2781 7.13156 36.3082V43.1595C7.13156 43.95 7.36574 44.0938 8.0917 44.1896C8.53664 44.2614 8.95817 44.2375 8.95817 44.501C8.95817 44.7166 8.70057 44.7166 8.6069 44.7166C8.0917 44.7166 7.1784 44.6447 6.45244 44.6447C5.77332 44.6447 4.9771 44.7166 4.11063 44.7166L3.82962 44.5489C3.82962 44.2854 4.36823 44.2614 4.76634 44.1896C5.51572 44.0219 5.67964 43.7823 5.67964 42.7762V35.9488C5.67964 35.2541 5.56255 35.2302 4.20431 35.2302C2.68213 35.2302 2.07326 36.9071 1.72199 36.9071L1.51123 36.6915C1.51123 36.4759 2.00301 35.1344 2.19035 34.6313C2.35428 34.1761 2.42453 33.8887 2.65872 33.8887C3.00999 33.8887 2.70555 34.4636 3.26758 34.5594C4.11063 34.6552 4.90685 34.6792 5.72648 34.6792H9.42653Z" fill="#010066"/>
<path d="M9.6582 34.3631V34.65H10.0843L10.4603 34.6261C10.8864 34.5544 11.1119 34.2436 11.2122 34.0523L11.3125 33.8371L11.2373 33.7653V33.861L11.3125 33.8371L11.2373 33.7653V33.861V33.7175L11.1621 33.8371L11.2373 33.861V33.7175L11.1621 33.8371L11.2122 33.7653L11.137 33.8132L11.1621 33.8371L11.2122 33.7653L11.137 33.8132L11.1871 34.124C11.2122 34.3153 11.2122 34.5544 11.2122 34.8174C11.2122 35.2 11.2122 35.6065 11.1621 35.9173L11.0869 36.2282V36.2521L11.137 36.276L11.1119 36.2282L11.0869 36.2521L11.137 36.276L11.1119 36.2282L11.1871 36.3477V36.2043L11.1119 36.2282L11.1871 36.3477V36.2043V36.276L11.2373 36.2043L11.1871 36.1803V36.2521L11.2373 36.1803L11.1119 35.7978L10.9114 35.2C10.736 34.9848 10.5104 34.9131 10.0592 34.7696C9.60807 34.674 8.98145 34.5783 8.05406 34.5783C7.72822 34.5783 7.40238 34.5544 7.15174 34.8413C6.92615 35.1043 6.95122 35.4152 6.92616 35.9412V42.7798C6.92616 43.2102 6.97628 43.521 7.22693 43.7601C7.47758 43.9992 7.80342 44.0471 8.17939 44.0949C8.43003 44.1188 8.68068 44.1427 8.806 44.1666L8.90626 44.1905L8.95639 44.1188H8.8812L8.93132 44.1905L8.98145 44.1188H8.8812H8.95639L8.8812 44.1666L8.85613 44.2145H8.93132L8.8812 44.1666L8.95639 44.2145L8.93132 44.1427L8.8812 44.1666L8.95639 44.2145L8.93132 44.1427L8.806 44.1666C8.30471 44.1666 7.30212 44.0949 6.50006 44.0949C5.74812 44.0949 4.89592 44.1666 3.99359 44.1666V44.4536L4.14398 44.2145L3.84321 44.0471L3.69282 44.2862H3.99359H3.86827L3.96853 44.334V44.2862H3.86827L3.96853 44.334L3.9184 44.3101L3.96853 44.3579L3.99359 44.334L3.94346 44.3101L3.99359 44.3579C4.01866 44.3101 4.44476 44.2384 4.79566 44.1905C5.1967 44.0949 5.5476 43.9753 5.77318 43.6884C5.9737 43.3776 6.02383 43.0189 6.02383 42.5168V35.7021L5.9737 35.2C5.89851 34.937 5.62279 34.7696 5.34708 34.7457C5.07137 34.6979 4.6954 34.6979 4.14398 34.6979C3.21659 34.6979 2.56491 35.1761 2.13881 35.6304C1.91323 35.8456 1.73778 36.0608 1.61245 36.2282L1.46207 36.3716L1.437 36.3955L1.5122 36.5151V36.3955L1.437 36.4195L1.5122 36.539V36.4195V36.7064L1.71271 36.5151L1.5122 36.2999L1.28661 36.4912H1.58739H1.53726H1.58739H1.53726H1.58739C1.58739 36.4195 1.71271 36.013 1.88816 35.6065C2.03855 35.2 2.214 34.7457 2.31426 34.5066C2.41452 34.2675 2.46465 34.0762 2.51478 34.0044L2.56491 33.9566L2.53985 33.9088V33.9566H2.56491L2.53985 33.9088V33.9566V33.8849L2.48972 33.9566L2.53985 33.9805V33.9088L2.48972 33.9805L2.56491 33.8849L2.43959 33.9566L2.48972 34.0044L2.56491 33.9088L2.43959 33.9805L2.56491 34.3153C2.6401 34.4827 2.86568 34.65 3.1414 34.6739C4.04372 34.7696 4.94605 34.7935 5.79825 34.7935H9.73339V34.3631V34.0762H5.74812C4.87086 34.0762 4.01866 34.0523 3.1414 33.9566L3.09127 34.2196L3.1414 33.9566L3.01607 33.9088L2.94088 33.6936L2.81556 33.4306L2.46465 33.2871C2.18894 33.2871 1.98842 33.4784 1.91323 33.6458C1.81297 33.8132 1.76284 34.0044 1.68765 34.2196C1.58739 34.4587 1.41194 34.937 1.23648 35.3674C1.16129 35.5826 1.0861 35.7978 1.0109 35.9651L0.910645 36.3955V36.5151L1.18636 36.802L1.28661 36.8977H1.41194C1.73778 36.8499 1.81297 36.6825 1.98842 36.539C2.41452 36.0369 3.04114 35.2239 4.06879 35.2239C4.79566 35.2239 5.19669 35.2478 5.27189 35.2956L5.32202 35.3435L5.34708 35.6782V42.4929C5.34708 42.9711 5.29695 43.2341 5.1967 43.3537C5.1215 43.4732 4.97111 43.5449 4.59514 43.6167C4.39463 43.6645 4.14398 43.6884 3.89333 43.7362L3.54243 43.8797L3.31685 44.2623V44.4297L3.76801 44.6688L3.84321 44.7166H3.9184C4.84579 44.7166 5.69799 44.6448 6.42486 44.6448C7.20187 44.6448 8.15432 44.7166 8.73081 44.7166L9.05665 44.6688C9.20704 44.6209 9.40755 44.4297 9.40755 44.2145L9.20704 43.8319C8.8812 43.6167 8.55536 43.6645 8.20445 43.6167C7.82848 43.5689 7.62796 43.4971 7.57783 43.4493C7.50264 43.3776 7.45251 43.258 7.45251 42.8754V36.0369C7.45251 35.5347 7.50264 35.2956 7.52771 35.2956L7.6029 35.2717L7.97887 35.2478C8.85613 35.2478 9.45768 35.3195 9.83365 35.4152L10.2347 35.5587L10.3349 35.6065C10.4101 35.6782 10.4352 35.9412 10.5104 36.1803L10.6608 36.5629L11.1119 36.8259C11.3626 36.8259 11.513 36.6586 11.5631 36.5151C11.7386 36.1086 11.7386 35.4869 11.7386 34.8892C11.7386 34.5305 11.7386 34.2196 11.7135 33.9566L11.5882 33.5979L11.1871 33.3588L10.761 33.5979L10.5605 33.9566L10.3099 34.124L10.36 34.4109L10.3099 34.124L10.0091 34.1479H9.583V34.3631H9.6582Z" fill="#010066"/>
<path d="M15.337 39.4541C15.337 38.9121 14.7556 38.483 13.9974 38.483C12.7083 38.483 11.9501 39.5897 11.9501 40.0865C11.9501 40.1994 12.0006 40.222 13.5171 40.222C15.1095 40.2446 15.337 40.0413 15.337 39.4541ZM11.7984 40.7188C11.7732 40.8092 11.7732 41.0124 11.7732 41.2834C11.7732 42.6159 12.1776 43.9483 14.3765 43.9483C15.7666 43.9483 15.7919 43.2934 16.0952 43.2934L16.2469 43.4289C16.2469 43.5418 15.4886 44.7162 13.6435 44.7162C11.6721 44.7162 10.5347 43.4741 10.5347 41.4641C10.5347 39.951 11.571 38.0991 13.7952 38.0991C15.8425 38.0991 16.5502 39.6574 16.5502 40.3575C16.5502 40.6511 16.4996 40.7188 16.1963 40.7188H11.7984Z" fill="#010066"/>
<path d="M15.0586 39.2691H15.3617C15.3617 38.4822 14.604 37.9166 13.7453 37.9166C12.9876 37.9166 12.4067 38.2609 12.0279 38.6789C11.6238 39.097 11.4217 39.5642 11.3965 39.9577L11.548 40.2528C11.7248 40.3758 11.8258 40.3512 12.0784 40.3758C12.331 40.3758 12.6845 40.3758 13.2654 40.3758C14.0736 40.3758 14.5535 40.3266 14.9071 40.1544C15.2859 39.9577 15.3869 39.5642 15.3869 39.2445H15.0586H14.7555C14.7303 39.5396 14.7303 39.5642 14.5787 39.638C14.4019 39.7364 13.9726 39.8102 13.2149 39.7856C12.4572 39.7856 12.0784 39.7856 11.9016 39.761H11.8258L11.8006 39.8347L11.8511 39.761H11.8258L11.8006 39.8347L11.8511 39.761L11.7501 39.9577L11.9521 39.8839L11.8511 39.7856L11.7501 39.9823L11.9521 39.9085L11.8006 39.9577H11.9774V39.9085L11.8258 39.9577H12.0026C12.0026 39.8102 12.1542 39.3921 12.4825 39.0724C12.7856 38.7527 13.2402 38.4822 13.7705 38.4822C14.4019 38.4822 14.806 38.8511 14.806 39.2445H15.0586V39.2691ZM11.5228 40.6463L11.245 40.5725C11.1944 40.7692 11.1944 40.966 11.1944 41.2611C11.1944 42.0234 11.2955 42.7858 11.7248 43.4251C12.1542 44.0645 12.9371 44.458 14.0736 44.458C14.806 44.458 15.2606 44.2613 15.5385 44.0399L15.8163 43.7694L15.8668 43.7448L15.8163 43.6465V43.7694L15.8668 43.7448L15.8163 43.6465V43.7694V43.4743L15.6142 43.6956L15.7658 43.8432L15.9678 43.6219H15.6647H15.8415L15.6647 43.5481L15.6395 43.6219H15.8163L15.6395 43.5481C15.6142 43.5973 15.4122 43.917 15.0586 44.1875C14.6798 44.458 14.1241 44.7285 13.3159 44.7285C12.4067 44.7285 11.7248 44.4334 11.2702 43.8924C10.7903 43.3514 10.5378 42.5398 10.5378 41.4824C10.5378 40.72 10.7903 39.8593 11.2702 39.1954C11.7753 38.5314 12.4825 38.0887 13.4927 38.0887C14.4272 38.0887 15.0333 38.4576 15.4122 38.9249C15.791 39.3921 15.9426 39.9577 15.9426 40.2528L15.9173 40.4004L16.0183 40.4495L15.9931 40.3512L15.9426 40.4004L16.0436 40.4495L16.0183 40.3512H15.9173H11.2955L11.2197 40.5725L11.5228 40.6463V40.9414H15.892L16.4224 40.7446L16.5487 40.2528C16.5487 39.8102 16.3467 39.1462 15.8668 38.556C15.3869 37.9658 14.604 37.4985 13.4927 37.4985C12.2804 37.4985 11.3712 38.0641 10.7903 38.8511C10.2095 39.638 9.93164 40.5971 9.93164 41.4824C9.93164 42.6382 10.2095 43.5727 10.8156 44.2613C11.3965 44.9498 12.2804 45.3187 13.3159 45.3187C14.3262 45.3187 15.0333 44.9744 15.5132 44.6055C15.7405 44.4088 15.9173 44.2367 16.0183 44.0645L16.1699 43.8432L16.2204 43.6219V43.4989L15.9678 43.2776L15.892 43.2038H15.791L15.3869 43.4005C15.1596 43.6219 15.0586 43.8678 14.0989 43.917C13.0634 43.917 12.5583 43.5973 12.2299 43.13C11.9016 42.6628 11.8006 41.9988 11.8006 41.2857C11.8006 41.0152 11.8006 40.7692 11.8258 40.7446L11.5228 40.6463V40.9414V40.6463Z" fill="#010066"/>
<path d="M20.842 38.0991C21.3787 38.0991 22.5687 38.2117 22.5687 38.9094C22.5687 39.202 22.3821 39.3145 22.1021 39.3145C21.4254 39.3145 21.332 38.4817 20.4686 38.4817C19.6753 38.4817 18.2518 39.3595 18.2518 41.5652C18.2518 43.3433 19.4419 44.0185 20.772 44.0185C21.7987 44.0185 22.0554 43.6358 22.2654 43.6358L22.3587 43.7709C22.3587 44.041 21.3553 44.7162 20.2353 44.7162C18.1585 44.7162 17.1551 43.0957 17.1551 41.5877C17.1318 39.8772 18.3219 38.0991 20.842 38.0991Z" fill="#010066"/>
<path d="M20.9952 37.7936V38.0887C21.2763 38.0887 21.7361 38.1133 22.0683 38.2363L22.4515 38.433L22.5793 38.6789L22.5537 38.8019L22.3749 38.8511C22.1449 38.8511 22.0172 38.7281 21.7617 38.4822C21.5318 38.2363 21.1485 37.9412 20.5609 37.9412C19.4879 37.9412 17.8272 39.0478 17.8272 41.5808C17.8272 42.6136 18.1849 43.376 18.7725 43.8678C19.3601 44.335 20.101 44.5318 20.893 44.5318C21.4807 44.5318 21.8894 44.4088 22.1705 44.3104L22.4771 44.1629L22.5537 44.1383L22.5282 44.0399V44.1383H22.5537L22.5282 44.0399V44.1383V43.8432L22.2727 44.0153L22.3749 44.1629L22.6048 43.9907H22.2982H22.4004L22.2982 43.9416V43.9907H22.4004L22.2982 43.9416L22.2727 43.9907C22.0683 44.2367 21.1741 44.7285 20.2543 44.7039C18.1849 44.7039 17.1885 43.1054 17.163 41.5808C17.1885 39.8593 18.3127 38.0887 20.9186 38.0641V37.7936V37.4985C19.4623 37.4985 18.3637 38.015 17.6228 38.8019C16.9075 39.5888 16.5498 40.5971 16.5498 41.6053C16.5498 42.4907 16.8564 43.4005 17.4696 44.1137C18.0827 44.8269 19.028 45.3187 20.2288 45.3187C20.9186 45.3187 21.5318 45.122 22.0172 44.8761C22.2471 44.7531 22.4515 44.6301 22.5793 44.5072C22.7325 44.3596 22.8347 44.2613 22.8603 44.0153V43.917L22.707 43.6956L22.6048 43.5727H22.5537C22.2471 43.5973 22.1705 43.7202 21.9405 43.794C21.7361 43.8924 21.4296 43.9662 20.9186 43.9662C20.2288 43.9662 19.6156 43.794 19.1813 43.4251C18.747 43.0563 18.4404 42.4907 18.4404 41.5808C18.4404 39.2937 19.8967 38.5068 20.5609 38.5068C20.9186 38.5068 21.0974 38.6543 21.3274 38.8757C21.5573 39.0724 21.8383 39.4167 22.3493 39.4167L22.9114 39.2445C23.0902 39.097 23.1669 38.9003 23.1669 38.6789C23.1669 38.4084 23.0391 38.1625 22.8603 38.015C22.3238 37.5723 21.4551 37.5231 20.9697 37.5231V37.7936H20.9952Z" fill="#010066"/>
<path d="M25.991 38.8018L26.0635 39.0403C26.2565 39.0403 26.9324 37.9432 28.5012 37.9432C30.5769 37.9432 30.6252 39.7081 30.6252 40.2328V43.3571C30.6252 44.0488 30.7459 44.1919 31.1321 44.3111C31.3734 44.3827 31.5665 44.3827 31.5907 44.5258L31.1804 44.7166C30.7218 44.7166 30.3114 44.645 29.8529 44.645C29.4908 44.645 29.0564 44.7166 28.6702 44.7166L28.4047 44.5496C28.4047 44.4065 28.5254 44.4065 28.8874 44.3111C29.2495 44.2157 29.3943 43.8103 29.3943 43.2617V39.875C29.3943 39.1834 28.7667 38.6825 27.8495 38.6825C26.7393 38.6825 26.0152 39.398 26.0152 40.0658V43.6433C26.0152 44.1203 26.2083 44.2396 26.86 44.3111C27.222 44.335 27.3427 44.3588 27.3427 44.5258L27.0289 44.7166C26.6669 44.7166 26.0635 44.645 25.5807 44.645C25.0739 44.645 24.5429 44.7166 24.036 44.7166L23.7705 44.5258L24.0601 44.3111C24.7118 44.2396 24.8566 43.9057 24.8566 43.4525V35.2481C24.8566 34.9381 24.0119 34.8665 24.0119 34.6519L24.1567 34.4372L25.7497 33.8887C26.0393 33.8887 26.0393 34.0795 26.0393 34.4849V38.8018H25.991Z" fill="#010066"/>
<path d="M25.8804 38.56L25.6209 38.6318L25.6916 38.8474L25.7624 39.0391H25.9747L26.2342 38.9433C26.5645 38.6797 27.1306 37.9611 28.3573 37.9611C29.3009 37.9611 29.6784 38.3444 29.9143 38.7516C30.1502 39.1828 30.1502 39.7098 30.1502 39.9733V43.1115C30.1502 43.4709 30.1738 43.7104 30.2917 43.95C30.4097 44.1896 30.622 44.2854 30.8343 44.3572L31.1646 44.4531L31.2118 44.3572L31.141 44.4291L31.1646 44.4531L31.2118 44.3572L31.141 44.4291L31.2353 44.3333L31.0938 44.3572L31.1174 44.4291L31.2118 44.3333L31.0702 44.3572L31.3533 44.3093L31.2353 44.0458L30.8343 44.2375L30.9523 44.501V44.2135C30.5512 44.2135 30.1266 44.1416 29.6548 44.1416C29.2774 44.1416 28.8291 44.2135 28.4989 44.2135V44.501L28.6404 44.2614L28.4045 44.0937L28.263 44.3333H28.5461H28.3809L28.4989 44.4531L28.5461 44.3333H28.3809L28.4989 44.4531L28.4281 44.3812L28.4753 44.477L28.4989 44.4531L28.4281 44.3812L28.4753 44.477C28.4989 44.4531 28.6404 44.4291 28.8291 44.3812C29.0886 44.3093 29.3009 44.0937 29.3953 43.8781C29.4897 43.6386 29.5368 43.3751 29.5368 43.0636V39.6619C29.5368 39.2307 29.3481 38.8235 29.0179 38.5839C28.6876 38.3204 28.263 38.1767 27.7676 38.1767C26.5645 38.1767 25.7152 38.9672 25.6916 39.8536V43.4469C25.6916 43.7104 25.7624 43.9979 25.9747 44.1656C26.187 44.3093 26.4465 44.3572 26.7768 44.4052L27.0599 44.4291L27.1071 44.3093L27.0127 44.3812L27.0599 44.4291L27.1071 44.3093L27.0127 44.3812L27.1306 44.3093L27.0127 44.3333L27.0363 44.3812L27.1542 44.3093L27.0363 44.3333H27.0599H27.0363H27.0599H27.0363H27.3194L27.1778 44.0937L26.8476 44.2854L26.9891 44.5249V44.2135C26.6588 44.2135 26.0691 44.1416 25.5737 44.1416C25.0547 44.1416 24.5357 44.2135 24.0639 44.2135V44.501L24.229 44.2614L23.946 44.0698L23.7808 44.3093L23.946 44.5249L24.229 44.3093L24.0639 44.0937L24.0875 44.3812C24.4414 44.3333 24.7244 44.2135 24.9132 43.974C25.0783 43.7584 25.1255 43.4709 25.1255 43.2313V34.9906C25.1255 34.775 24.9839 34.6312 24.8896 34.5594L24.3942 34.3198L24.2526 34.2479L24.1347 34.3677H24.2998L24.2526 34.2479L24.1347 34.3677H24.2998H24.0167L24.2526 34.5115L24.3234 34.3677L25.786 33.8646L25.6916 33.6011V33.8886H25.7388V33.8167L25.6916 33.8646L25.7388 33.8886V33.8167L25.6916 33.8646L25.7388 33.8407L25.668 33.8646L25.6916 33.8886L25.7388 33.8646L25.668 33.8886L25.6916 34.2479V38.6797V38.7037L25.8804 38.56H26.1634V34.1761C26.1634 33.9605 26.187 33.8167 26.1163 33.6251C26.0691 33.4095 25.786 33.2658 25.5973 33.2897H25.5501L23.946 33.8407L23.8516 33.8646L23.6629 34.1761L23.6157 34.2479V34.3198L23.7336 34.5833L24.2762 34.8708L24.4414 34.9666H24.4649L24.4885 34.9427L24.4414 34.9666L24.4649 34.9427L24.4178 34.9666L24.5121 34.9187H24.4178V34.9666L24.5121 34.9187H24.4178V43.1595L24.3234 43.5667C24.2762 43.6386 24.1583 43.7104 23.8988 43.7584H23.828L23.4742 44.0219L23.1675 44.2614L23.7572 44.6687L23.828 44.7166H23.9224C24.4414 44.7166 24.9603 44.6447 25.4321 44.6447C25.8804 44.6447 26.4701 44.7166 26.8476 44.7166H26.9183L27.2958 44.501L27.4373 44.4052V44.2375L27.1542 43.8063L26.706 43.7344C26.3993 43.7104 26.2342 43.6625 26.187 43.6146C26.1634 43.5667 26.1163 43.5667 26.1163 43.3511V39.7577C26.1163 39.5182 26.2342 39.2547 26.4937 39.0151C26.7532 38.7995 27.1542 38.6318 27.626 38.6318C28.4045 38.6558 28.8527 39.063 28.8527 39.5661V42.9678C28.8527 43.2313 28.8291 43.423 28.7584 43.5428L28.5696 43.7344L28.1686 43.8542L27.9799 43.9979L27.8855 44.2614V44.4052L28.263 44.6687L28.3337 44.7166H28.4281C28.8291 44.7166 29.2774 44.6447 29.584 44.6447C29.9851 44.6447 30.4097 44.7166 30.8815 44.7166H30.9523L31.4005 44.501L31.5892 44.4052L31.5656 44.1896C31.542 43.974 31.3297 43.8302 31.2353 43.8302L30.9287 43.7584L30.7164 43.6146C30.6692 43.5667 30.6456 43.3751 30.6456 43.0397V39.9015C30.6456 39.638 30.6456 39.0151 30.3389 38.4162C30.0558 37.8413 29.3953 37.3143 28.2866 37.3143C27.4609 37.3143 26.8476 37.6257 26.4229 37.9132C26.2106 38.0569 26.0691 38.2006 25.9511 38.2965L25.8332 38.3923H25.8096L25.9039 38.56V38.3683L25.8096 38.3923L25.9039 38.56V38.3683V38.6558L26.1634 38.56L26.0927 38.3444L25.8804 38.56H26.1634H25.8804Z" fill="#010066"/>
<path d="M33.1061 39.97C33.1061 38.9912 32.3414 39.3338 32.3414 38.9912C32.3414 38.8199 32.6127 38.7954 33.0321 38.4284C33.4268 38.0613 33.9695 37.4985 34.1422 37.4985L34.3149 37.7188V38.6242C35.0303 38.1103 35.5977 37.7188 36.5352 37.7188C38.8787 37.7188 38.9034 39.4561 38.9034 40.2392V43.4937C38.9034 43.8852 38.9281 44.1788 39.3968 44.2522C39.6435 44.3012 40.0135 44.3012 40.0135 44.4969C40.0135 44.6682 39.8902 44.6927 39.6435 44.6927C39.1501 44.6927 38.6074 44.6193 38.262 44.6193C37.7439 44.6193 37.3739 44.6927 36.9792 44.6927L36.6338 44.5214L36.8805 44.2767C37.3739 44.1788 37.744 44.1543 37.744 43.249V40.3615C37.744 39.6519 37.6453 38.5018 36.2638 38.5018C35.1783 38.5018 34.3643 39.138 34.3396 39.3093C34.3149 39.7498 34.3149 40.1413 34.3149 40.5573V43.249C34.3149 43.8607 34.3396 44.1788 35.1043 44.2767C35.3264 44.3256 35.6224 44.3256 35.6224 44.5214L35.2277 44.7171C35.055 44.7171 34.3889 44.6437 33.9695 44.6437C33.4515 44.6437 33.1061 44.7171 32.7608 44.7171L32.1934 44.5214L32.4647 44.2767C32.9334 44.2033 33.1308 43.8362 33.1308 43.0043V39.97H33.1061Z" fill="#010066"/>
<path d="M33.1727 40.0717H33.4795C33.505 39.5708 33.1727 39.2292 32.8915 39.1609L32.6359 39.0926L32.5592 39.1836H32.687L32.6359 39.0926L32.5592 39.1836H32.687H32.5592L32.6615 39.2747L32.687 39.1836H32.5592L32.6615 39.2747C32.6615 39.252 32.9427 39.1381 33.3005 38.8648L33.9651 38.3183L34.2207 38.1134L34.2974 38.0678L34.2463 37.9312V38.0906H34.2974L34.2463 37.954V38.1134V37.8401L34.0162 37.9995L34.1441 38.1361V38.8876V39.4114L34.6297 39.0926C35.371 38.6143 35.8567 38.3183 36.7513 38.3183C37.9016 38.3183 38.3617 38.6827 38.6174 39.0698C38.873 39.4797 38.8985 40.0262 38.8985 40.3905V43.4192C38.8985 43.6013 38.8985 43.8063 39.0008 44.0112C39.103 44.2162 39.3586 44.3756 39.6654 44.3983L40.0488 44.4439L40.0999 44.4667H40.1255L40.2022 44.3528H40.0488L40.1255 44.4667L40.2022 44.3528H40.0488H40.1511L40.0744 44.3073L40.0488 44.3528H40.1511L40.0744 44.3073L40.2277 44.3756L40.1511 44.2389L40.0999 44.2845L40.2533 44.3528L40.1766 44.2162L40.2277 44.2845L40.2022 44.2162H40.1766L40.2277 44.2845L40.2022 44.2162H40.0232C39.5376 44.2162 39.0008 44.1479 38.5918 44.1479C38.0294 44.1479 37.6204 44.2162 37.2626 44.2162V44.4894L37.3904 44.2389L37.007 44.0795L36.8792 44.33L37.0837 44.5122L37.3393 44.2845L37.1092 44.0795L37.1859 44.3528C37.416 44.3073 37.6971 44.2845 37.9527 44.1023C38.2084 43.8974 38.3106 43.5786 38.3106 43.1231V40.4361C38.3106 40.0945 38.285 39.6391 38.055 39.2064C37.8249 38.7737 37.2881 38.4322 36.4702 38.4322C35.8567 38.4322 35.3199 38.5916 34.9109 38.7737L34.4252 39.0698C34.2974 39.1836 34.2207 39.2292 34.1696 39.4341C34.1441 39.844 34.1441 40.2311 34.1441 40.6182V43.1231C34.1441 43.3964 34.1441 43.6697 34.2974 43.9201C34.4764 44.1706 34.7831 44.3073 35.2176 44.3756L35.5499 44.4211H35.5755L35.6011 44.3528L35.5499 44.3983L35.5755 44.4211L35.6011 44.3528L35.5499 44.3983L35.6778 44.33H35.5244L35.5499 44.3983L35.6778 44.33H35.5244H35.8311L35.7033 44.1023L35.2943 44.2845L35.4221 44.535V44.1934C35.2943 44.1934 34.5786 44.1251 34.1185 44.1251C33.5561 44.1251 33.1727 44.1934 32.866 44.1934V44.4667L32.9682 44.2162L32.3803 44.034L32.2781 44.2845L32.4825 44.4894L32.7637 44.2845L32.5592 44.0568L32.6104 44.33C32.9171 44.2845 33.1983 44.1023 33.3516 43.8518C33.505 43.6013 33.5306 43.2825 33.5561 42.8726V40.0717H33.1727H32.866V42.8726C32.866 43.237 32.8149 43.4875 32.7382 43.6013L32.4059 43.8063L32.3292 43.8291L31.9969 44.0795L31.5879 44.3756L32.6615 44.7171H32.7126H32.7637C33.1727 44.7171 33.5306 44.6488 34.0162 44.6488C34.4252 44.6488 35.1154 44.7171 35.3199 44.7171H35.3966L35.8567 44.5122L36.0356 44.4439V44.2845L35.9078 43.9657C35.6522 43.7835 35.4221 43.8291 35.2688 43.7835C34.9109 43.738 34.8087 43.6469 34.7831 43.6013C34.732 43.533 34.7064 43.3736 34.732 43.0776V40.5727C34.732 40.1856 34.732 39.8212 34.7575 39.4341H34.5786L34.732 39.5024V39.4569H34.553L34.7064 39.5252C34.732 39.4797 34.962 39.3203 35.2688 39.1836C35.5755 39.047 35.9845 38.9559 36.419 38.9559C37.0581 38.9787 37.2881 39.1609 37.4415 39.4341C37.5949 39.7074 37.6204 40.1173 37.6204 40.4361V43.1231C37.6204 43.533 37.5182 43.6469 37.4671 43.6924C37.416 43.7607 37.237 43.7835 36.9814 43.8291L36.8792 43.8518L36.5724 44.1251L36.2657 44.3756L37.007 44.6944L37.0837 44.7171H37.1603C37.5949 44.7171 37.9783 44.6488 38.4895 44.6488C38.8218 44.6488 39.3842 44.7171 39.921 44.7171L40.33 44.6716L40.6112 44.2845L40.4067 43.9657C40.1511 43.8291 39.8699 43.8291 39.6909 43.8063L39.4864 43.7152L39.4353 43.3508V40.3222C39.4353 39.9579 39.4353 39.3203 39.103 38.751C38.7452 38.1589 37.9783 37.7035 36.7002 37.7035C35.6266 37.7035 34.962 38.1134 34.2207 38.5916L34.3997 38.8193H34.7064V37.9767V37.8856L34.4764 37.6124L34.3997 37.4985H34.2463L33.8629 37.6352C33.5817 37.8173 33.1727 38.1817 32.866 38.4322L32.3803 38.751L32.1758 38.8876L32.048 39.1836L32.3547 39.5708L32.7126 39.7074C32.7637 39.7529 32.8148 39.7985 32.8404 40.0945H33.1727V40.0717Z" fill="#010066"/>
<path d="M45.9455 41.3512C45.9455 40.1091 45.1838 38.483 43.9223 38.483C42.6608 38.483 41.8753 39.7252 41.8753 41.5093C41.8753 42.7062 42.637 44.3548 43.8985 44.3548C45.16 44.3548 45.9455 43.0901 45.9455 41.3512ZM47.2308 41.3738C47.2308 42.9998 46.2549 44.7162 43.8985 44.7162C41.5659 44.7162 40.6138 43.1579 40.6138 41.4415C40.6138 39.8155 41.5897 38.0991 43.9461 38.0991C45.8265 38.0991 47.2308 39.6574 47.2308 41.3738Z" fill="#010066"/>
<path d="M46.2124 41.3223H46.4982C46.4982 40.5822 46.3077 39.7681 45.9265 39.102C45.5453 38.4606 44.9735 37.9179 44.1873 37.9179C43.4488 37.9179 42.8294 38.3373 42.4482 38.9787C42.067 39.6201 41.8526 40.5082 41.8526 41.5196C41.8526 42.235 42.067 43.0491 42.4244 43.6905C42.8056 44.3566 43.3773 44.8993 44.1635 44.8993C44.9021 44.8993 45.4976 44.4799 45.9027 43.8385C46.2838 43.1971 46.4982 42.309 46.4982 41.3223H46.2124H45.9265C45.9265 42.235 45.7359 42.9998 45.4262 43.5178C45.1165 44.0359 44.7115 44.3073 44.1635 44.3073C43.6632 44.3073 43.2344 43.9619 42.9247 43.3945C42.5911 42.8518 42.4244 42.1117 42.4244 41.495C42.4244 40.5575 42.615 39.7928 42.9247 39.2747C43.2344 38.7567 43.6394 38.4853 44.1873 38.4853C44.6876 38.4853 45.1165 38.8307 45.4262 39.3981C45.7359 39.9655 45.9265 40.7055 45.9265 41.3223H46.2124ZM47.4988 41.3469H47.213C47.213 42.1857 46.9747 43.0491 46.4982 43.6659C45.9979 44.2826 45.2594 44.702 44.1635 44.7266C43.0676 44.7266 42.3291 44.3319 41.8526 43.7399C41.3761 43.1478 41.1617 42.309 41.1617 41.4456C41.1617 40.6069 41.4 39.7434 41.8764 39.1267C42.3767 38.51 43.1153 38.0906 44.2112 38.0906C45.9265 38.0906 47.2368 39.6694 47.2368 41.3716H47.4988H47.7847C47.7847 39.3734 46.26 37.4985 44.2112 37.4985C42.9723 37.4985 42.0194 38.0166 41.4476 38.7813C40.852 39.5214 40.6138 40.5082 40.6138 41.4456C40.6138 42.4324 40.852 43.3945 41.4476 44.1099C42.0432 44.85 42.9723 45.3187 44.1873 45.3187C45.4262 45.3187 46.3791 44.8006 46.9747 44.0606C47.5703 43.2958 47.8324 42.3337 47.8324 41.3716H47.4988V41.3469Z" fill="#010066"/>
<path d="M50.7526 43.6527C50.7526 44.0783 51.0744 44.1492 51.7871 44.3147L52.04 44.5038L51.8331 44.7166C51.3503 44.7166 50.8445 44.6457 50.3388 44.6457C49.787 44.6457 49.2123 44.7166 48.6606 44.7166L48.4307 44.5275L48.7755 44.3147C49.3732 44.1492 49.6491 44.1019 49.6491 43.0853V35.2363C49.6491 34.8816 48.8675 34.7634 48.8675 34.6216L49.0054 34.4324L50.3158 33.9596L50.6376 33.8887L50.7986 34.2197C50.7986 34.6216 50.7756 34.9998 50.7756 35.4254V43.6527H50.7526Z" fill="#010066"/>
<path d="M50.8182 43.365H50.522C50.4974 43.6495 50.6948 43.9341 50.9416 44.0289C51.1884 44.1475 51.4599 44.2186 51.83 44.3135L51.9041 44.0526L51.7313 44.2898L52.0028 44.4557L52.1755 44.2186L51.9534 44.0289L51.7313 44.266L51.9534 44.4557V44.1712C51.4599 44.1712 50.9169 44.1001 50.3493 44.1001C49.7323 44.1001 49.1153 44.1712 48.5477 44.1712V44.4557L48.7205 44.2423L48.4737 44.0526L48.3009 44.2898L48.449 44.5269L48.8192 44.3135L48.6711 44.0763L48.7452 44.3372C49.0413 44.2423 49.3375 44.1949 49.5842 43.9578C49.831 43.6969 49.8804 43.365 49.8804 42.8433V34.9233C49.8804 34.7099 49.757 34.5676 49.6583 34.4727L49.14 34.1882L48.9919 34.1171H48.9673L48.8932 34.2356L48.9919 34.1645L48.9673 34.1408L48.8932 34.2593L48.9919 34.1882L48.7945 34.3305H49.0413L48.9919 34.1882L48.7945 34.3305H49.0413H48.7452L48.9919 34.4965L49.066 34.3779L50.374 33.9273L50.4727 33.9036L50.522 34.0459L50.7935 33.9273H50.5714C50.5714 34.3067 50.5467 34.7099 50.5467 35.1367V43.365H50.8182H51.1143V35.1367C51.1143 34.7336 51.139 34.3305 51.139 33.9273V33.8799L50.9416 33.5005L50.8429 33.2871L50.2506 33.4057H50.2259L48.7945 33.8799L48.6958 33.9036L48.4984 34.1645L48.449 34.2356V34.3305L48.5971 34.5913L49.1153 34.8284L49.2634 34.9233L49.2881 34.947H49.3128H49.3375H49.3621H49.3375V42.8433C49.3375 43.3175 49.2387 43.5072 49.1894 43.5784C49.1153 43.6495 48.9426 43.7207 48.6218 43.7918H48.5724L48.1775 44.0289L47.832 44.2423L48.4243 44.6692L48.4984 44.7166H48.5971C49.2141 44.7166 49.8064 44.6454 50.3987 44.6454C50.8922 44.6454 51.4352 44.7166 52.0028 44.7166H52.1262L52.4223 44.4083L52.6444 44.1712L52.1262 43.8155L52.0768 43.7918H52.0275C51.6573 43.6969 51.3611 43.6258 51.2624 43.5784L51.1637 43.3887H50.8182V43.365Z" fill="#010066"/>
<path d="M58.5805 41.3512C58.5805 40.1091 57.8215 38.483 56.5645 38.483C55.3075 38.483 54.5249 39.7252 54.5249 41.5093C54.5249 42.7062 55.2838 44.3548 56.5408 44.3548C57.8215 44.3323 58.5805 43.0901 58.5805 41.3512ZM59.8612 41.3738C59.8612 42.9998 58.8888 44.7162 56.5408 44.7162C54.2165 44.7162 53.2441 43.1579 53.2441 41.4415C53.2441 39.8155 54.2165 38.0991 56.5882 38.0991C58.4382 38.0991 59.8612 39.6574 59.8612 41.3738Z" fill="#010066"/>
<path d="M58.2917 41.3223H58.5776C58.5776 40.5822 58.3632 39.7681 57.982 39.102C57.6009 38.4606 57.0291 37.9179 56.2429 37.9179C55.5044 37.9179 54.9088 38.3373 54.5038 38.9787C54.1226 39.6201 53.9082 40.5082 53.9082 41.5196C53.9082 42.235 54.0988 43.0491 54.4799 43.6905C54.8611 44.3566 55.4329 44.8993 56.2191 44.8993C56.9576 44.8993 57.5532 44.4799 57.9582 43.8385C58.3394 43.1971 58.5538 42.309 58.5538 41.3223H58.2917H58.0059C58.0059 42.235 57.8153 42.9998 57.5056 43.5178C57.1959 44.0359 56.7908 44.3073 56.2429 44.3073C55.7426 44.3073 55.3138 43.9619 55.0041 43.3945C54.6944 42.8518 54.5038 42.1117 54.5038 41.495C54.5038 40.5575 54.6944 39.7928 55.0041 39.2747C55.3138 38.7567 55.7188 38.4853 56.2667 38.4853C56.767 38.4853 57.1959 38.8307 57.5056 39.3981C57.8153 39.9655 58.0059 40.7055 58.0059 41.3223H58.2917ZM59.5782 41.3469H59.2924C59.2924 42.1857 59.0541 43.0491 58.5776 43.6659C58.0773 44.2826 57.3388 44.702 56.2429 44.7266C55.147 44.7266 54.4085 44.3319 53.932 43.7399C53.4555 43.1478 53.2173 42.309 53.2173 41.4456C53.2173 40.6069 53.4555 39.7434 53.932 39.1267C54.4323 38.51 55.147 38.0906 56.2667 38.0906C57.9582 38.0906 59.2685 39.6694 59.2685 41.3716H59.5782H59.8641C59.8641 39.3734 58.3394 37.4985 56.2905 37.4985C55.0279 37.4985 54.0988 38.0166 53.5032 38.7813C52.9076 39.5214 52.6455 40.5082 52.6455 41.4456C52.6455 42.4324 52.8837 43.3945 53.4793 44.1099C54.0749 44.85 54.9802 45.3187 56.2191 45.3187C57.4579 45.3187 58.4109 44.8006 58.9826 44.0606C59.5782 43.2958 59.8403 42.3337 59.8403 41.3716H59.5782V41.3469Z" fill="#010066"/>
<path d="M64.4597 38.3342C63.2491 38.3342 63.0554 39.3921 63.0554 40.2149C63.0554 40.9672 63.1523 42.3777 64.4355 42.3777C65.6218 42.3777 65.9123 41.5079 65.9123 40.45C65.9123 39.6037 65.7428 38.3342 64.4597 38.3342ZM63.4912 47.7848C66.4692 47.7848 67.0502 46.4918 67.0502 45.9981C67.0502 44.9872 65.8397 44.8697 63.9754 44.8697C63.3217 44.8697 63.007 44.8932 62.8859 44.9637C62.3533 45.2693 61.5786 46.1157 61.5786 46.4918C61.5786 47.3381 62.4501 47.7848 63.4912 47.7848ZM67.1955 39.4861C67.0987 39.4861 67.0018 39.6037 67.0018 40.2619C67.0018 40.5205 67.0018 42.5188 64.387 42.6834C64.0239 42.7069 62.668 42.6834 62.668 43.3651C62.668 43.7413 62.8859 43.8588 64.5807 43.8588C66.3965 43.8588 67.8008 44.0939 67.8008 45.6925C67.8008 47.8083 64.2902 48.3255 63.2491 48.3255C61.0943 48.3255 60.4648 47.3851 60.4648 46.7269C60.4648 45.622 61.6996 45.1518 62.668 44.7051C62.3775 44.5406 61.3364 43.8118 61.3364 43.4356C61.3364 42.9184 62.8617 42.6128 63.1765 42.5658C62.3291 41.9781 61.8207 41.4139 61.8207 40.3795C61.8207 39.0395 62.8859 38.0991 64.3628 38.0991C64.9681 38.0991 65.4039 38.2637 65.8397 38.4753C66.2755 38.6868 66.7597 38.8514 67.4376 38.8514H68.164L68.285 39.2746C68.285 39.5332 68.2366 39.5567 67.9703 39.5567H67.1955V39.4861Z" fill="#010066"/>
<path d="M64.1457 38.0949V37.7967C63.4398 37.7967 62.953 38.1445 62.734 38.6166C62.4906 39.0639 62.4419 39.6105 62.4419 40.0577C62.4419 40.4801 62.4662 41.0765 62.6609 41.6231C62.8557 42.1697 63.3425 42.6666 64.1214 42.6418C64.8029 42.6418 65.2897 42.3685 65.5574 41.8964C65.8252 41.4492 65.8982 40.8777 65.8982 40.3062C65.8982 39.8341 65.8495 39.2378 65.6304 38.7409C65.4114 38.2191 64.9002 37.7967 64.17 37.7967V38.0949V38.393C64.7055 38.393 64.9489 38.6415 65.1193 38.9893C65.2897 39.362 65.3384 39.8838 65.3384 40.3062C65.3384 40.828 65.2653 41.3001 65.095 41.5982C64.9002 41.8964 64.6812 42.0703 64.1457 42.0703C63.6102 42.0703 63.4155 41.8219 63.2208 41.3995C63.0504 41.0019 63.026 40.4553 63.026 40.0577C63.026 39.6353 63.0747 39.1881 63.2451 38.89C63.4155 38.5918 63.6345 38.393 64.17 38.3682V38.0949H64.1457ZM63.1721 48.0832V48.3814C64.7055 48.3814 65.6548 48.0335 66.2633 47.5863C66.8475 47.1142 67.0422 46.5676 67.0422 46.1949C67.0665 45.524 66.5797 45.0768 65.9956 44.9277C65.387 44.7289 64.6082 44.7041 63.6589 44.7041C62.9774 44.7041 62.7096 44.7041 62.4419 44.8283C62.1255 45.0271 61.7847 45.3252 61.5169 45.6731C61.2492 46.0209 61.0058 46.3191 60.9815 46.6918C60.9815 47.2633 61.2492 47.7105 61.6873 47.9838C62.1011 48.2571 62.6366 48.3814 63.1964 48.3814V48.0832V47.7851C62.7096 47.7851 62.2715 47.6608 61.9794 47.4869C61.6873 47.2881 61.5413 47.0645 61.5413 46.6918C61.517 46.667 61.6873 46.3439 61.9307 46.0458C62.1741 45.7476 62.4906 45.4495 62.7096 45.3252L62.5636 45.0768L62.7096 45.3252C62.7826 45.3004 63.0991 45.2755 63.6589 45.2755C64.5838 45.2755 65.3627 45.3252 65.8252 45.4743C66.312 45.6482 66.458 45.7973 66.4824 46.1949C66.4824 46.5179 66.1173 47.7851 63.1964 47.8099V48.0832H63.1721ZM66.8961 39.3123V39.0142L66.6284 39.1136C66.4337 39.362 66.4337 39.5608 66.4337 40.1074C66.4337 40.2317 66.4337 40.7534 66.1416 41.2752C65.8495 41.7722 65.314 42.2691 64.0727 42.3685C63.9023 42.3685 63.4642 42.3685 63.026 42.4679C62.807 42.5176 62.6123 42.5921 62.4175 42.7412C62.2228 42.8654 62.0768 43.1139 62.0768 43.3872L62.1985 43.7847C62.3689 44.0084 62.5879 44.0581 62.9043 44.1078C63.2208 44.1574 63.6589 44.1823 64.3161 44.1823C65.2167 44.1823 65.9956 44.2568 66.4824 44.5053C66.9692 44.7538 67.2369 45.0768 67.2369 45.8222C67.2369 46.7663 66.5067 47.3875 65.5331 47.7851C64.5838 48.1826 63.4398 48.3068 62.953 48.3068C60.8598 48.282 60.446 47.3875 60.446 46.9154C60.446 46.4433 60.6894 46.1203 61.0788 45.8222C61.4683 45.524 62.0038 45.2755 62.5149 45.0519L63.0017 44.8283L62.5392 44.555C62.3932 44.4804 62.0768 44.232 61.809 44.0084L61.4439 43.6605L61.3466 43.5114V43.4617V43.4369C61.3952 43.3375 61.7604 43.1387 62.1011 43.0393C62.4662 42.9151 62.8313 42.8406 62.9287 42.8157L63.6102 42.6915L63.0504 42.2939C62.2228 41.6728 61.809 41.2007 61.809 40.2068C61.809 38.9645 62.7096 38.0949 64.0727 38.07C64.6325 38.07 64.9976 38.2191 65.4357 38.4427C65.8982 38.6663 66.4337 38.8651 67.1639 38.8651H67.675L67.7237 39.0887L67.9915 39.0142H67.6994V39.1136L67.8211 39.1384L67.7237 39.0887L67.6994 39.1384L67.8211 39.1633L67.7237 39.0887L67.8698 39.1881L67.7967 39.039L67.7237 39.0887L67.8698 39.1881L67.7967 39.039L67.8454 39.1384L67.8211 39.039H67.7967L67.8454 39.1384L67.8211 39.039H67.6994H66.9205V39.3123V39.6105H67.6994L68.1375 39.4863L68.2835 39.0142V38.9645L68.1375 38.4924L68.0888 38.2936H67.1639C66.531 38.2936 66.0929 38.1197 65.6791 37.9209C65.2167 37.6973 64.7299 37.4985 64.0727 37.4985C63.2451 37.4985 62.5392 37.7719 62.0281 38.2688C61.517 38.7409 61.2249 39.4366 61.2249 40.2317C61.2005 41.4492 61.8577 42.1697 62.7096 42.7909L62.88 42.5424L62.8313 42.2443C62.6609 42.2691 62.1985 42.3685 61.7604 42.5424C61.5413 42.6169 61.3222 42.7412 61.1275 42.8654C60.9571 42.9897 60.7624 43.1884 60.7624 43.4617C60.7624 43.6854 60.8841 43.8344 61.0058 44.0084C61.3466 44.4556 61.9794 44.9028 62.2472 45.0519L62.3932 44.8035L62.2715 44.5301C61.7847 44.7786 61.2249 45.0022 60.7381 45.3749C60.2756 45.7228 59.8618 46.2446 59.8618 46.9403C59.8618 47.3627 60.0565 47.8844 60.5677 48.282C61.0545 48.6795 61.8334 48.928 62.953 48.928C63.5128 48.928 64.6812 48.8038 65.7521 48.3565C66.7988 47.9341 67.8211 47.1639 67.8211 45.847C67.8454 44.9277 67.3829 44.2817 66.7258 43.9835C66.0686 43.6854 65.241 43.6108 64.3161 43.6108C63.4642 43.6108 62.9774 43.5611 62.7826 43.5114L62.6853 43.4866V43.412L62.7826 43.2381C63.026 43.0145 63.8536 42.9897 64.1457 42.9897C65.5331 42.8903 66.312 42.2691 66.6771 41.5982C67.0422 40.9522 67.0422 40.2814 67.0422 40.1571C67.0422 39.8341 67.0665 39.6353 67.0909 39.5857V39.5608L66.9692 39.4863L67.0422 39.6105L67.0909 39.5608L66.9692 39.4863L67.0422 39.6105L66.9448 39.4614V39.6602L67.0422 39.6354L66.9448 39.4863V39.685V39.3123H66.8961Z" fill="#010066"/>
<path d="M72.4946 43.0203L72.6429 43.2363L72.8407 43.0203L74.0026 40.4757C74.2003 40.0436 74.4228 39.4914 74.4228 39.0834C74.4228 38.5072 73.3598 38.6753 73.3598 38.3152C73.3598 38.1951 73.4834 38.1231 73.6812 38.1231C73.7553 38.1231 73.9037 38.1711 74.67 38.1711C75.387 38.1711 75.56 38.1231 75.7083 38.1231C75.9555 38.1231 76.1039 38.1951 76.1039 38.3152C76.1039 38.6032 75.4611 38.4832 75.1892 39.1074L71.6293 47.1972C71.2832 47.9414 71.036 48.3255 70.2696 48.3255C69.5774 48.3255 69.355 47.9414 69.355 47.6293C69.355 47.1972 69.6516 47.0052 70.0719 47.0052C70.3685 47.0052 70.591 47.1492 70.7888 47.1492C71.1349 47.1492 71.9012 45.1087 71.9012 44.9167C71.9012 44.6526 71.7776 44.4366 71.6788 44.1725L69.7752 39.0353C69.6269 38.6513 68.8853 38.6272 68.8853 38.3392C68.8853 38.1951 68.9841 38.0991 69.2561 38.0991C69.6269 38.0991 70.0472 38.1471 70.4674 38.1471C70.8877 38.1471 71.3079 38.0991 71.8518 38.0991C72.1237 38.0991 72.1979 38.1711 72.1979 38.3392C72.1979 38.5792 71.0607 38.4832 71.0607 38.9633L71.1596 39.3474L72.4946 43.0203Z" fill="#010066"/>
<path d="M72.4604 43.2984L72.2327 43.4654L72.3693 43.68L72.5743 43.9901L72.9614 43.4892L72.9842 43.4654L74.0772 40.8896C74.2594 40.4364 74.4871 39.8879 74.4871 39.387C74.5099 39.1485 74.3732 38.9577 74.2366 38.8385C74.0089 38.6954 73.7812 38.6477 73.6218 38.6L73.4624 38.5523L73.4396 38.6L73.4624 38.5761V38.5523L73.4396 38.6L73.4624 38.5761L73.3713 38.6477H73.4851L73.4624 38.5761L73.3713 38.6477H73.4851H73.3713L73.4396 38.7431L73.4851 38.6477H73.3713L73.4396 38.7431V38.7192V38.7431V38.7192V38.7431H73.5307C73.5307 38.7431 73.7584 38.7669 74.4415 38.7669C75.1019 38.7669 75.3069 38.7431 75.398 38.7431L75.5573 38.7669L75.5801 38.6954L75.5346 38.7431L75.5573 38.7669L75.5801 38.6954L75.5346 38.7431L75.6484 38.6477H75.5118L75.5346 38.7431L75.6484 38.6477H75.5118H75.6257L75.5346 38.5761L75.5118 38.6477H75.6257L75.5346 38.5761L75.5801 38.6L75.5573 38.5523L75.5346 38.5761L75.5801 38.6L75.5573 38.5523C75.5118 38.6 74.9425 38.7192 74.692 39.3155L71.4129 47.3529C71.2763 47.7107 71.1396 47.973 71.003 48.1161C70.8664 48.2354 70.7298 48.3308 70.4337 48.3308C70.1605 48.3308 70.0238 48.2592 69.9555 48.1877L69.8417 47.9253L69.9328 47.663L70.2288 47.5914C70.4337 47.5676 70.5704 47.7107 70.8892 47.7345L71.208 47.5437C71.4357 47.2814 71.6406 46.7805 71.8456 46.3035C71.9367 46.065 72.005 45.8265 72.0733 45.6357L72.1871 45.2064C72.1871 44.8487 72.0505 44.6102 71.9822 44.3955L70.2288 39.2916C70.0922 38.9577 69.8189 38.8623 69.6367 38.7431L69.4318 38.6238H69.409L69.3862 38.6477L69.409 38.6238L69.3862 38.6477L69.409 38.6238L69.3179 38.6715H69.4318L69.409 38.6238L69.3179 38.6715H69.4318H69.3407L69.3862 38.7431L69.4318 38.6715H69.3407L69.3862 38.7431H69.409H69.5229C69.8644 38.7431 70.2288 38.7669 70.6387 38.7669C71.0486 38.7669 71.4357 38.7431 71.9139 38.7431H72.0277L72.0961 38.6477L71.9822 38.6954L72.0277 38.7669L72.0961 38.6715L71.9822 38.7192L72.0277 38.6954H71.9822V38.7192L72.0277 38.6954H71.9822V38.7192H72.1644L72.0505 38.5761L71.9822 38.7192H72.1644L72.0505 38.5761C72.005 38.6 71.7545 38.6477 71.5268 38.7192L71.1852 38.91L70.9575 39.3632V39.4109L71.0713 39.8163V39.8402L72.2782 43.5369L72.301 43.5608L72.4604 43.2984L72.7109 43.203L71.5268 39.554L71.4357 39.1962L71.1852 39.2678H71.4584L71.5723 39.1962L72.0277 39.077L72.2782 38.9816L72.5059 38.6238L72.3465 38.2184L71.9139 38.0991C71.3901 38.0991 71.003 38.1468 70.6387 38.1468C70.2743 38.1468 69.91 38.0991 69.5229 38.0991L69.0902 38.2184L68.8853 38.6238C68.8853 38.8385 69.0219 38.9577 69.113 39.0293L69.5456 39.2678L69.7278 39.4109L71.4812 44.5148L71.7317 44.4194L71.4812 44.5148C71.5723 44.7771 71.6634 44.9918 71.6634 45.1587C71.6406 45.3018 71.4585 45.8504 71.2535 46.3512C71.1624 46.5897 71.0486 46.8044 70.9575 46.9713L70.8436 47.1383V47.1621L70.9347 47.3052V47.1621L70.8436 47.186L70.9347 47.3291V47.186C70.8892 47.2098 70.6614 47.0429 70.2743 47.0429C70.0466 47.0429 69.8189 47.0906 69.6367 47.2575C69.4545 47.4245 69.3407 47.663 69.3635 47.9492C69.3635 48.1638 69.4318 48.4262 69.6139 48.617C69.8189 48.8078 70.0922 48.927 70.4565 48.927C70.8436 48.927 71.1852 48.8078 71.4129 48.5693C71.6406 48.3308 71.7773 48.0207 71.9367 47.6391L75.2158 39.6017C75.3069 39.3632 75.4435 39.2916 75.6029 39.2201L75.8761 39.1008L76.1039 38.7192L75.8534 38.3376L75.4663 38.2661C75.2841 38.2661 75.1702 38.3138 74.5099 38.3138C73.8039 38.3138 73.7128 38.2899 73.599 38.2661L73.2346 38.3615L73.0297 38.7431C73.0297 39.0054 73.2346 39.1247 73.3485 39.1962L73.895 39.3632L74.0317 39.5063C74.0317 39.8163 73.8495 40.3649 73.6673 40.7942L72.6198 43.2746L72.4604 43.4654L72.6654 43.6323L72.8931 43.4654L72.7337 43.2507L72.4604 43.2984L72.7109 43.203L72.4604 43.2984Z" fill="#010066"/>
<path d="M88.7396 36.2534L88.5422 36.4276L88.3449 36.3281C87.8022 35.0088 88.3202 34.5359 85.2612 34.5359C84.2991 34.5359 84.1018 34.6852 84.1018 35.2328V38.2198C84.1018 38.7924 84.2005 38.867 85.3599 38.867C85.7053 38.867 86.0013 38.7924 86.3467 38.7675C87.5801 38.6181 87.0868 37.1495 87.7035 37.1495C87.8022 37.1495 87.9008 37.1744 87.9008 37.4482C87.9008 37.946 87.8515 38.419 87.8515 38.9168C87.8515 39.3898 87.9008 40.4352 87.9008 40.7339L87.7282 41.0077C87.5061 41.0077 87.4568 40.8086 87.2594 40.0369C87.1361 39.5391 87.0127 39.3151 85.1872 39.3151C84.2991 39.3151 84.0771 39.3649 84.0771 39.788V43.1733C84.0771 43.9201 84.2745 44.0196 85.3599 44.169C85.7053 44.2188 86.0753 44.1939 86.0753 44.4677C86.1 44.6419 86.0013 44.7166 85.6313 44.7166C85.3599 44.7166 84.9899 44.6419 83.4604 44.6419C82.7203 44.6419 82.0049 44.7166 81.4622 44.7166C81.1661 44.7166 80.9194 44.6917 80.9194 44.4677C80.9194 44.2934 80.9934 44.2685 81.9802 44.1441C82.3996 44.0943 82.5476 43.8703 82.5476 42.7252V35.2826C82.5476 34.6354 82.4736 34.5856 82.0296 34.4612C81.3882 34.2869 81.0181 34.4363 81.0181 34.1376C81.0181 33.9385 81.2155 33.9136 81.8569 33.9136C82.2269 33.9136 82.6956 33.9136 83.189 33.9385C83.6824 33.9385 84.2004 33.9634 84.6445 33.9634C85.9026 33.9634 87.7035 33.8887 88.2956 33.8887L88.6656 34.0629V36.2534H88.7396Z" fill="#010066"/>
<path d="M88.3967 36.3603L88.2138 36.1484L88.1909 36.172H88.1681L88.0309 36.4073L88.2824 36.2896C88.0309 35.7247 88.0538 35.2775 87.6423 34.8773C87.2308 34.5007 86.5907 34.4301 85.1733 34.4065C84.7161 34.4065 84.4189 34.4301 84.1674 34.5948C83.8931 34.7596 83.8245 35.0892 83.8474 35.3716V38.1963L83.8702 38.5965C83.9388 38.8083 84.1446 38.9966 84.3732 39.0202C84.6018 39.0672 84.8761 39.0908 85.2876 39.0908C85.6305 39.0908 85.9049 39.0202 86.2249 38.9966H86.2478C86.9565 38.926 87.2308 38.3611 87.3222 37.9845L87.4365 37.5137L87.4594 37.4666L87.4365 37.4431L87.4594 37.4666L87.4365 37.4431L87.4594 37.4666V37.4195L87.4365 37.4666H87.4594V37.4195L87.4365 37.4666L87.4823 37.3489L87.3679 37.396L87.4594 37.4666L87.5051 37.3489L87.3908 37.396L87.4137 37.3724H87.3908L87.4137 37.3489H87.3908V37.4431C87.3908 37.9138 87.3679 38.3611 87.3679 38.8319C87.3679 39.2791 87.3908 40.2677 87.3908 40.5502H87.6651L87.4365 40.409L87.2765 40.6679L87.5051 40.8091V40.5267L87.4823 40.5973L87.528 40.5502L87.5051 40.5267L87.4823 40.5973L87.528 40.5502C87.5051 40.5502 87.4137 40.2913 87.3222 39.8205C87.2765 39.5851 87.1393 39.2556 86.7964 39.1143C86.4535 38.9731 85.9963 38.926 85.1504 38.926C84.739 38.926 84.4646 38.926 84.236 39.0202L83.9388 39.2791L83.8702 39.6557V42.857C83.8702 43.2101 83.916 43.5396 84.1903 43.7515C84.4418 43.9398 84.7618 43.9869 85.2648 44.081L85.6991 44.1281L85.7448 44.1517L85.7677 44.1046L85.722 44.1281L85.7448 44.1517L85.7677 44.1046L85.722 44.1281L85.7677 44.1046H85.6991L85.722 44.1281L85.7677 44.1046H85.6991V44.1281H85.7677L85.6991 44.081V44.1281H85.7677L85.6991 44.081L85.7905 44.1281L85.722 44.034L85.6991 44.081L85.7905 44.1281L85.722 44.034L85.7448 44.0575V44.034L85.7677 44.0575V44.034L85.5848 44.0575C85.3562 44.0575 84.9904 43.9869 83.573 43.9869C82.8644 43.9869 82.2014 44.0575 81.7213 44.0575L81.447 44.034H81.4241L81.3784 44.1046H81.447L81.4241 44.034L81.3784 44.1046H81.447L81.3327 44.1752L81.4241 44.3164L81.4927 44.2223L81.3327 44.1752L81.4241 44.3164L81.4013 44.2929L81.4241 44.3164L81.4013 44.2929L81.4241 44.3164C81.447 44.2929 81.7213 44.2458 82.2471 44.1752C82.4757 44.1517 82.7729 44.0104 82.8644 43.728C82.9787 43.469 83.0015 43.1159 83.0015 42.551V35.5129C83.0015 35.2069 83.0015 34.995 82.8644 34.7832C82.7272 34.5713 82.5214 34.5242 82.3157 34.4536C81.9956 34.3595 81.7213 34.3595 81.5841 34.3359L81.5156 34.3124L81.447 34.4301L81.5613 34.3595L81.5156 34.3124L81.447 34.4301L81.5613 34.3595L81.4698 34.4065L81.5613 34.383V34.3595L81.4698 34.4065L81.5613 34.383H81.447L81.5384 34.4536L81.5613 34.383H81.447L81.5384 34.4536L81.447 34.383L81.5156 34.4771L81.5384 34.4536L81.447 34.383L81.5156 34.4771H81.5384C81.607 34.4536 81.7899 34.4536 82.0871 34.4536C82.43 34.4536 82.8644 34.4536 83.3216 34.4771C83.7559 34.4771 84.2589 34.5007 84.6704 34.5007C85.8363 34.5007 87.5051 34.4301 88.0538 34.4301V34.1476L87.9395 34.4065L88.1224 34.5007V36.3603H88.3967L88.2138 36.1484L88.3967 36.3603H88.671V34.3124V34.1476L88.1681 33.9122L88.1224 33.8887H88.0538C87.4823 33.8887 85.8134 33.9593 84.6704 33.9593C84.2589 33.9593 83.7788 33.9358 83.3216 33.9358V34.2182V33.9358C82.8644 33.9122 82.43 33.9122 82.0642 33.9122C81.767 33.9122 81.5613 33.9122 81.3784 33.9593L81.1269 34.1005L81.0126 34.4065L81.1955 34.7832L81.6527 34.9009L82.1557 34.995C82.3614 35.0421 82.4071 35.0892 82.4071 35.0892C82.4071 35.0892 82.4529 35.2304 82.4529 35.5129V42.551C82.4529 43.0689 82.4071 43.3749 82.3614 43.4926L82.1557 43.6338C81.6985 43.6809 81.447 43.728 81.2641 43.775L81.0126 43.9398L80.9212 44.2223C80.8983 44.4577 81.1041 44.646 81.2641 44.6695L81.7213 44.7166C82.2471 44.7166 82.8872 44.646 83.573 44.646C84.9904 44.646 85.2647 44.7166 85.5848 44.7166L86.0192 44.6224L86.2478 44.2223V44.1517L85.9734 44.1752H86.2478L86.0877 43.8221C85.8134 43.5867 85.5619 43.6573 85.3333 43.6103C84.8304 43.5396 84.5561 43.469 84.4875 43.3984C84.4189 43.3513 84.3732 43.2807 84.3732 42.9276V39.7263L84.396 39.6086H84.3732H84.396H84.3732H84.396L84.5561 39.5616C84.6932 39.538 84.8761 39.538 85.1504 39.538C85.9734 39.538 86.4078 39.5851 86.5907 39.6793C86.7507 39.7734 86.7278 39.7734 86.8193 40.0088C86.9107 40.3619 86.9565 40.5973 87.0479 40.7856L87.2308 41.0445L87.528 41.1387H87.688L87.9166 40.7385L87.9623 40.6679V40.5973C87.9623 40.2913 87.9395 39.3026 87.9395 38.8789C87.9395 38.4317 87.9623 37.9609 87.9623 37.4901L87.848 37.09L87.528 36.9487C87.2536 36.9487 87.0708 37.1841 87.0022 37.3489C86.9107 37.6078 86.865 37.8903 86.7736 38.1022C86.6821 38.314 86.5907 38.4317 86.2478 38.4788L86.2706 38.7612L86.2478 38.4788C85.882 38.5023 85.6077 38.5729 85.3333 38.5729C84.7847 38.5729 84.5103 38.5494 84.4646 38.5023V38.4788L84.4418 38.2434V35.4187C84.4418 35.1598 84.4646 35.1598 84.5103 35.1127C84.5561 35.0656 84.8075 35.0185 85.2419 35.0185C86.6364 35.0185 87.1851 35.1598 87.3679 35.3481C87.5737 35.4893 87.5966 35.8895 87.8709 36.5721L87.8938 36.6663L88.1452 36.8075L88.3281 36.9017L88.6482 36.5957L88.7396 36.525V36.4073H88.3967V36.3603Z" fill="#010066"/>
<path d="M93.2442 41.7233C93.2442 41.1855 93.1174 41.1388 92.9906 41.1388C92.9146 41.1388 90.7342 41.6064 90.7342 43.0327C90.7342 43.4536 91.0638 43.9212 91.6976 43.9212C92.8132 43.9212 93.2188 43.0327 93.2188 42.4481V41.7233H93.2442ZM94.4104 43.1964C94.4104 43.4302 94.4864 43.7341 94.9935 43.7341C95.5006 43.7341 95.5006 43.4068 95.7541 43.4068L95.9569 43.5471C95.9569 43.7108 95.4752 44.5525 94.4611 44.5525C93.6752 44.5525 93.2695 44.0147 93.092 43.7809C92.3822 44.2719 92.0019 44.7162 90.8103 44.7162C90.1004 44.7162 89.4159 44.3421 89.4159 43.5003C89.4159 41.8168 91.7484 41.2089 91.8751 41.1621C92.4582 40.9517 92.8385 40.8348 93.1935 40.7413L93.2695 40.2503C93.2695 39.2682 93.2442 38.6135 92.1286 38.6135C90.2525 38.6135 90.9371 40.5308 89.7455 40.5308C89.3905 40.5308 89.3398 40.3204 89.3398 40.1333C89.3398 39.806 90.5314 38.0991 92.6864 38.0991C94.4104 38.0991 94.4104 39.1513 94.4104 39.5488V43.1964Z" fill="#010066"/>
<path d="M93.1243 41.5216H93.403C93.403 41.2376 93.3797 41.0483 93.2869 40.8827L92.8922 40.646L92.7296 40.6697C92.4975 40.7407 91.9635 40.8827 91.4991 41.214C91.0115 41.5453 90.5472 42.0659 90.5472 42.8469C90.5472 43.1308 90.64 43.4148 90.849 43.6278C91.0347 43.8645 91.3598 44.0301 91.7081 44.0301C92.3117 44.0301 92.7529 43.7698 93.0083 43.3912C93.2869 43.0362 93.3797 42.6339 93.3797 42.2552V41.4979H93.1243H92.8689V42.2552C92.8689 42.4919 92.7761 42.7995 92.6135 43.0362C92.4278 43.2728 92.1724 43.4385 91.7313 43.4385C91.3134 43.4385 91.1276 43.1072 91.1276 42.7995C91.1276 42.2079 91.5223 41.8056 91.9867 41.5216C92.2189 41.3796 92.451 41.285 92.66 41.2376L92.8922 41.1666L92.9386 41.143H92.9618L92.9386 40.9536V41.143H92.9618L92.9386 40.9536V41.143V41.0956L92.8922 41.1903L92.9386 41.214V41.0956L92.8922 41.1903L92.9386 41.0956L92.8457 41.1666L92.8922 41.1903L92.9386 41.0956L92.8457 41.1666C92.8689 41.1903 92.8922 41.3086 92.8922 41.5216H93.1243ZM94.1924 43.0125H93.9137L94.0531 43.5331C94.1924 43.7225 94.4245 43.8171 94.7031 43.8171C94.9818 43.8171 95.2139 43.6988 95.33 43.6041L95.4229 43.5095V43.2255L95.2372 43.4385L95.4229 43.6041L95.6086 43.3912H95.33H95.4461L95.3532 43.3675V43.3912H95.4693L95.3765 43.3675L95.0746 43.7935C94.8889 43.9828 94.6103 44.1248 94.262 44.1248C93.7048 44.1248 93.403 43.7225 93.2172 43.4622L93.0315 43.2492L92.8225 43.4148C92.1492 43.9355 91.917 44.2904 90.8954 44.2904C90.3382 44.2668 89.9203 44.0301 89.8971 43.3202C89.8971 42.6102 90.3382 42.0896 90.849 41.7346C91.3598 41.3796 91.8938 41.2376 91.9635 41.1903C92.5207 40.9773 92.8457 40.859 93.1476 40.7643L93.3333 40.717L93.4494 40.0307V40.007V39.9834C93.4494 39.4864 93.4494 39.0368 93.2869 38.6581C93.1011 38.2558 92.6832 38.0192 92.126 38.0428C91.6616 38.0428 91.2901 38.1848 91.0347 38.4215C90.6633 38.7528 90.5472 39.2261 90.4079 39.5574L90.1989 39.8887L89.9435 39.9834L89.8739 39.9597L89.8506 39.8414H89.781H89.8506H89.781H89.8506C89.8506 39.7704 90.1293 39.2498 90.5936 38.8475C91.0812 38.4451 91.7545 38.0665 92.6368 38.0665C93.3565 38.0665 93.6351 38.3032 93.7744 38.5161C93.9137 38.7528 93.937 39.0604 93.937 39.2498V42.9415H94.1924H94.471V39.2498C94.471 39.0368 94.471 38.6108 94.2388 38.2085C93.9834 37.8062 93.4726 37.4985 92.6368 37.4985C91.5688 37.4985 90.7329 37.9718 90.1989 38.4688C89.9203 38.7055 89.7113 38.9894 89.572 39.2024C89.4327 39.4391 89.3398 39.6047 89.3398 39.8177L89.4559 40.2437C89.5488 40.4093 89.781 40.504 89.9899 40.4803C90.3382 40.4803 90.64 40.291 90.7793 40.0544C91.0115 39.6994 91.0812 39.2971 91.2669 39.0131C91.4527 38.7291 91.6152 38.5398 92.1956 38.5398C92.66 38.5635 92.7761 38.6581 92.8689 38.8238C92.9618 39.0131 92.985 39.4154 92.985 39.9124H93.2637L92.985 39.865L92.9154 40.362L93.1708 40.4094L93.1011 40.149C92.7296 40.2437 92.4046 40.3857 91.8474 40.575C91.8009 40.5987 91.1973 40.7643 90.6168 41.1666C90.0364 41.5453 89.4095 42.2316 89.4095 43.2018C89.4095 43.6988 89.5952 44.1011 89.8971 44.3614C90.1989 44.6217 90.5704 44.7164 90.9419 44.7164C92.126 44.7401 92.5903 44.1958 93.2172 43.7225L93.0315 43.5095L92.8225 43.6988C92.985 43.9118 93.4262 44.5744 94.3085 44.5744C94.8657 44.5744 95.2836 44.3141 95.539 44.0538L95.8408 43.6515L95.9569 43.2965V43.1545L95.6783 42.9179L95.6086 42.8469H95.4229C95.1675 42.8469 95.0282 43.0362 94.9585 43.0835L94.7031 43.1782L94.4942 43.1072L94.4478 42.9179H94.1924V43.0125Z" fill="#010066"/>
<path d="M96.5562 43.316C96.5562 42.9998 96.5787 42.8191 96.7363 42.8191L96.984 43.2256C97.029 43.3386 97.4569 44.3097 98.3801 44.3097C99.0106 44.3097 99.6636 43.9935 99.6636 43.2256C99.6636 41.8029 96.6462 41.8255 96.6462 39.951C96.6462 39.0476 97.1867 38.0991 98.6278 38.0991C100.317 38.0991 100.339 38.3475 100.339 39.0702C100.339 39.7026 100.317 39.8155 100.204 39.8155C99.7312 39.8155 99.8888 38.5508 98.6278 38.5508C98.0198 38.5508 97.592 38.9121 97.592 39.5219C97.592 40.7188 100.767 41.1931 100.767 42.8417C100.767 43.6322 100.249 44.7162 98.5377 44.7162C98.0649 44.7162 96.5787 44.6484 96.5787 44.0838V43.316H96.5562Z" fill="#010066"/>
<path d="M96.2306 43.4066H96.5056L96.5285 43.0879L96.4368 43.0388V43.1614L96.5285 43.0879L96.4368 43.0388V43.1614V42.8672L96.2076 43.0143L96.4597 43.4556L96.6889 43.3085L96.4368 43.4066C96.4597 43.5046 96.5972 43.7988 96.8722 44.1175C97.1243 44.4362 97.5368 44.7549 98.1097 44.7549C98.4764 44.7549 98.843 44.6568 99.1638 44.4362C99.4618 44.191 99.6909 43.7988 99.6909 43.3085C99.6909 42.7937 99.4388 42.426 99.118 42.1563C98.6368 41.7396 97.9722 41.4699 97.468 41.1267C96.9639 40.759 96.6201 40.3913 96.6201 39.7784C96.6201 39.3371 96.7347 38.9204 97.0097 38.6017C97.2847 38.283 97.6972 38.0624 98.3618 38.0624C99.2097 38.0624 99.6222 38.1604 99.7138 38.2585L99.8055 38.4056L99.8284 38.8468C99.8284 39.19 99.8284 39.3862 99.8055 39.4352V39.4597L99.943 39.5332L99.8513 39.3862L99.7826 39.4597L99.9201 39.5332L99.8284 39.3862L99.9201 39.5332V39.3616L99.8284 39.3862L99.9201 39.5332V39.3616V39.3862L99.943 39.3616H99.9201V39.3862L99.943 39.3616C99.8972 39.3616 99.7826 39.0184 99.5763 38.6752C99.3701 38.332 98.9576 37.9888 98.3159 37.9888C97.9493 37.9888 97.6285 38.1114 97.3764 38.332C97.1472 38.5772 96.9868 38.9204 96.9868 39.3371C96.9868 39.8029 97.2618 40.1461 97.6055 40.4403C98.0868 40.857 98.7743 41.2002 99.3243 41.617C99.8742 42.0337 100.241 42.4505 100.241 42.9653C100.241 43.333 100.126 43.7743 99.8284 44.1175C99.5305 44.4607 99.0493 44.7058 98.2243 44.7304C97.9951 44.7304 97.5139 44.7058 97.1014 44.6323C96.8951 44.5833 96.7118 44.5342 96.6201 44.4607L96.5056 44.3381V43.4801H96.2306H95.9556V44.3381C95.9556 44.6323 96.1389 44.8529 96.3451 44.951C96.9181 45.2942 97.8576 45.2942 98.2243 45.3187C99.1638 45.3187 99.8055 45 100.218 44.5342C100.63 44.0685 100.768 43.4801 100.768 42.9898C100.768 42.4505 100.516 42.0092 100.195 41.6415C99.6909 41.1267 99.0034 40.7345 98.4305 40.3667C98.1555 40.1951 97.9034 39.999 97.7659 39.8274L97.5368 39.3616C97.5597 38.8468 97.8118 38.6262 98.3159 38.6017C98.8659 38.6262 99.0034 38.8468 99.1868 39.141L99.4159 39.6068C99.5076 39.7539 99.668 39.95 99.9201 39.95L100.195 39.8274L100.333 39.4352C100.355 39.3126 100.355 39.1165 100.355 38.8713L100.31 38.3075C100.264 38.0379 100.058 37.7437 99.7138 37.6456C99.4159 37.5476 98.9805 37.4985 98.3159 37.4985C97.5368 37.4985 96.941 37.7927 96.5514 38.234C96.1847 38.6752 96.0243 39.2636 96.0243 39.8029C96.0243 40.3913 96.2535 40.857 96.5743 41.2002C97.0555 41.715 97.7201 42.0092 98.2472 42.3279C98.4993 42.475 98.7284 42.6466 98.8659 42.7937C99.0034 42.9653 99.0722 43.1124 99.0722 43.333C99.0722 43.6517 98.9576 43.8478 98.7743 43.9949C98.5909 44.142 98.3159 44.2155 98.0409 44.2155C97.6743 44.2155 97.3993 43.9949 97.216 43.7743C97.0097 43.5291 96.8951 43.2595 96.8951 43.235L96.8722 43.2104L96.5972 42.7447L96.5056 42.5976H96.4139C96.2076 42.5731 96.0014 42.7937 96.0014 42.9408L95.9556 43.4311H96.2306V43.4066Z" fill="#010066"/>
<path d="M104.699 38.8571C104.203 38.8571 104.153 39.0024 104.153 39.535C104.153 40.455 104.104 41.8835 104.104 42.8519C104.104 43.554 104.376 43.9656 105.319 43.9656C106.063 43.9656 106.063 43.7719 106.386 43.7719L106.584 43.9414C106.584 44.1109 106.063 44.7162 104.798 44.7162C103.483 44.7162 102.863 44.2319 102.863 42.9488C102.863 41.7624 102.888 40.5761 102.888 39.2445C102.888 39.0024 102.814 38.9539 102.516 38.9539H102.119L101.97 38.8087C101.97 38.5423 102.814 38.3971 103.26 37.9129C103.93 37.1865 103.781 36.896 104.054 36.896L104.277 37.2107V37.8402C104.277 38.0097 104.327 38.0581 104.55 38.0581H106.46C106.634 38.0581 106.783 38.1065 106.783 38.4455C106.783 38.6634 106.758 38.8087 106.485 38.8087H104.699V38.8571Z" fill="#010066"/>
<path d="M104.364 39.0058V38.7306C104.114 38.7306 103.84 38.7536 103.665 38.9829C103.515 39.1893 103.54 39.3957 103.515 39.648C103.515 40.5194 103.465 41.8725 103.465 42.7898C103.465 43.1567 103.54 43.5007 103.815 43.753C104.089 44.0052 104.488 44.1199 104.987 44.1199C105.386 44.1199 105.611 44.074 105.761 44.0282L106.06 43.9594V43.6842L105.86 43.8906L106.06 44.0511L106.26 43.8447H105.985H106.085L106.01 43.7988V43.8447H106.11L106.035 43.7988C106.01 43.8906 105.561 44.3034 104.513 44.3034C103.865 44.3034 103.465 44.1887 103.241 43.9823C102.991 43.7988 102.867 43.4548 102.867 42.8815C102.867 41.7578 102.916 40.6341 102.916 39.3728L102.717 38.937L102.243 38.8224H101.968L101.919 38.7765L101.694 38.96H101.993H101.869L101.968 39.0288L101.993 38.96H101.869L101.968 39.0288L101.993 39.0058C102.168 38.8682 102.792 38.7077 103.191 38.2949C103.54 37.928 103.69 37.6757 103.79 37.4923L103.84 37.4005L103.865 37.3776L103.765 37.3088L103.815 37.4005L103.865 37.3547L103.765 37.2859L103.815 37.3776L103.74 37.3547V37.4464H103.79L103.74 37.3547V37.4464V37.1712L103.49 37.3088L103.665 37.5611V38.0885L103.815 38.4554L104.239 38.5701H106.16H106.21L106.235 38.5013L106.185 38.5472L106.235 38.5701L106.26 38.5013L106.21 38.5472V38.5701L106.235 38.6848V38.7994V38.8224L106.31 38.8682L106.26 38.7994L106.21 38.8453L106.285 38.8912L106.235 38.8224V38.7306H106.185H104.413V39.0058V39.281H106.185L106.684 39.0517L106.784 38.6618L106.584 38.1573L106.16 38.0197H104.239H104.164L104.139 38.0885L104.189 38.0197L104.164 37.9968L104.139 38.0656L104.189 37.9968L104.114 38.1114L104.264 38.0656L104.189 37.9968L104.114 38.1114L104.264 38.0656H104.239H104.264H104.239H104.264V38.0426V37.4464V37.3776L104.014 37.0107L103.914 36.896H103.74L103.391 37.0336L103.166 37.3776C103.091 37.5152 102.966 37.6757 102.742 37.928C102.567 38.1114 102.293 38.249 102.018 38.3637L101.644 38.5472C101.519 38.616 101.37 38.7306 101.37 38.937V39.0517L101.594 39.2581L101.694 39.3269H102.218H102.368H102.393L102.417 39.2581L102.368 39.304H102.393L102.417 39.2352L102.368 39.281L102.417 39.1893L102.293 39.2122L102.343 39.2581L102.393 39.1664L102.268 39.1893L102.293 39.2581C102.293 40.5194 102.243 41.6431 102.243 42.7669C102.243 43.409 102.417 43.9135 102.817 44.2575C103.216 44.6015 103.79 44.7162 104.488 44.7162C105.187 44.7162 105.686 44.5556 106.035 44.3722L106.434 44.074L106.609 43.7071V43.5924L106.31 43.3402L106.21 43.2714H106.085C105.86 43.2714 105.711 43.3402 105.586 43.3631C105.461 43.409 105.337 43.4319 104.987 43.4319C104.563 43.4319 104.339 43.3402 104.239 43.2484C104.139 43.1338 104.064 42.9503 104.064 42.6522C104.064 41.7578 104.114 40.4047 104.114 39.5104V39.2352L104.139 39.1664L104.364 39.1434V39.0058Z" fill="#010066"/>
<path d="M113.498 36.6052L113.452 36.8143C113.452 37.0234 118.212 37.1628 118.212 40.7179C118.212 44.1568 114.292 45.3186 113.148 45.3186C112.868 45.3186 112.798 45.2257 112.798 45.1328L112.962 44.9236C113.102 44.9004 113.428 44.8539 113.848 44.7145C115.575 44.1801 117.092 42.9951 117.092 41.02C117.092 39.9047 116.789 39.1611 115.389 38.4873C113.965 37.8367 112.798 37.674 112.798 37.4417C112.798 37.2093 113.428 35.4202 113.498 35.1646C113.568 34.9322 113.638 34.909 114.222 34.8393L116.952 34.5604C117.162 34.5372 117.232 34.4907 117.326 34.4907C117.536 34.4907 117.629 34.514 117.629 34.7463C117.629 34.9554 117.629 35.4434 117.256 35.4899L113.872 35.9778C113.662 36.0011 113.638 36.1172 113.615 36.2102L113.498 36.6052Z" fill="#010066"/>
<path d="M113.165 36.3787L112.882 36.3294L112.858 36.5513V36.5759V36.6006L112.976 36.8471L113.377 36.995C113.92 37.1183 115.005 37.3155 115.948 37.8826C116.892 38.4496 117.67 39.2632 117.67 40.7424C117.67 42.4435 116.75 43.5776 115.665 44.3172C114.58 45.0322 113.33 45.3527 112.811 45.328H112.693H112.67L112.622 45.4266L112.693 45.3773L112.646 45.3527L112.599 45.4513L112.67 45.402L112.575 45.4759H112.717L112.693 45.402L112.599 45.4759H112.74H112.457L112.67 45.6485L112.835 45.4266L112.622 45.254L112.67 45.5499C112.811 45.5252 113.165 45.4513 113.589 45.3034C115.406 44.7363 117.057 43.3557 117.057 41.1122C117.057 40.4959 116.986 39.9288 116.703 39.4358C116.42 38.9427 115.925 38.5236 115.194 38.1538C114.462 37.8086 113.778 37.5621 113.306 37.4142C113.071 37.3402 112.882 37.2662 112.764 37.2169L112.67 37.1676L112.622 37.2416L112.693 37.1923L112.67 37.1676L112.622 37.2416L112.693 37.1923L112.528 37.2909H112.717L112.693 37.1923L112.528 37.2909H112.717H112.693H112.74H112.693H112.74C112.764 37.1923 112.905 36.6252 113.071 36.1322C113.236 35.6144 113.401 35.0967 113.448 34.9488L113.472 34.8995L113.424 34.8748L113.448 34.8995L113.472 34.8748L113.424 34.8502L113.448 34.8748C113.448 34.8748 113.613 34.8255 113.943 34.8009L116.703 34.505H116.727C116.963 34.4804 117.01 34.4557 117.081 34.4557H117.175L117.222 34.3324L117.104 34.4064L117.175 34.4804L117.222 34.3571L117.104 34.431L117.151 34.4064H117.104V34.431L117.151 34.4064H117.104V34.4557L117.081 34.8255L116.963 34.9734L113.542 35.4665L113.165 35.6637L113.047 35.9349L113.33 36.0089L113.071 35.9103L112.929 36.3047V36.3294V36.354L113.165 36.3787L113.424 36.4773L113.566 36.0829L113.589 36.0089L113.519 35.9596L113.566 36.0335L113.589 36.0089L113.519 35.9596L113.566 36.0335L113.613 36.0089L117.01 35.5158C117.34 35.4665 117.529 35.1953 117.576 34.9734C117.647 34.7516 117.647 34.5543 117.647 34.431L117.458 33.9873L117.057 33.8887C116.892 33.8887 116.845 33.9133 116.632 33.938L116.68 34.2338L116.656 33.938L113.896 34.2338C113.613 34.2585 113.424 34.2831 113.259 34.3571L112.929 34.7762L113.188 34.8502L112.929 34.7516C112.882 34.8748 112.693 35.4419 112.528 35.9842C112.434 36.2554 112.363 36.5266 112.292 36.7485C112.245 36.9704 112.198 37.1183 112.198 37.2662L112.363 37.5867C112.599 37.7593 112.905 37.8333 113.354 37.9812C113.802 38.1291 114.392 38.3263 114.981 38.6222C115.665 38.9427 116.043 39.2878 116.255 39.6576C116.467 40.0275 116.538 40.4712 116.538 41.0383C116.538 42.9612 115.146 44.1446 113.448 44.687C113.023 44.8349 112.74 44.8842 112.575 44.9089L112.481 44.9335L112.245 45.254L112.198 45.328V45.4266L112.41 45.8211L112.835 45.9197C113.495 45.9197 114.793 45.5992 115.972 44.7856C117.151 43.9967 118.236 42.6654 118.213 40.7178C118.213 38.6715 116.892 37.5867 115.642 37.0443C115.005 36.7732 114.392 36.6006 113.92 36.502C113.707 36.428 113.495 36.4034 113.377 36.3787L113.259 36.354L113.212 36.4527L113.283 36.354L113.259 36.3294L113.212 36.428L113.283 36.3294L113.165 36.5759H113.401L113.306 36.354L113.165 36.5759H113.401H113.118L113.401 36.6252L113.424 36.4033L113.165 36.3787L113.424 36.4773L113.165 36.3787Z" fill="#010066"/>
<path d="M126.502 39.6039C126.502 37.3727 125.821 34.8161 124.242 34.8161C122.637 34.8161 121.957 37.3727 121.957 39.6039C121.957 41.8351 122.613 44.3917 124.242 44.3917C125.821 44.3685 126.502 41.8119 126.502 39.6039ZM120.62 39.6039C120.62 36.2106 122.467 34.4907 124.242 34.4907C126.332 34.4907 127.839 36.629 127.839 39.6039C127.839 42.8578 125.992 44.7171 124.242 44.7171C122.151 44.6938 120.62 42.8578 120.62 39.6039Z" fill="#010066"/>
<path d="M126.229 39.6158H126.522C126.522 38.4062 126.351 37.1225 125.961 36.0857C125.596 35.0736 124.938 34.259 123.964 34.259C122.965 34.259 122.331 35.0983 121.942 36.0857C121.552 37.1225 121.381 38.4062 121.381 39.6158C121.381 40.8254 121.552 42.1337 121.942 43.1458C122.307 44.1579 122.965 44.9725 123.964 44.9725C124.938 44.9725 125.596 44.1579 125.961 43.1458C126.351 42.1337 126.522 40.8254 126.522 39.6158H126.229H125.937C125.937 40.776 125.767 42.0103 125.425 42.9236C125.06 43.8617 124.573 44.4048 123.964 44.4048C123.33 44.4048 122.843 43.8864 122.478 42.9483C122.137 42.035 121.966 40.776 121.966 39.6404C121.966 38.4802 122.137 37.2459 122.478 36.3326C122.843 35.3945 123.33 34.8514 123.964 34.8514C124.573 34.8514 125.084 35.3698 125.425 36.3326C125.767 37.2459 125.937 38.5049 125.937 39.6404H126.229V39.6158ZM120.334 39.6158H120.626C120.626 36.1104 122.405 34.4811 123.964 34.4811C124.889 34.4811 125.718 34.9748 126.327 35.8882C126.936 36.8016 127.301 38.0852 127.301 39.6158C127.301 41.2944 126.863 42.578 126.205 43.442C125.572 44.306 124.743 44.7504 123.964 44.7504C123.014 44.7504 122.185 44.306 121.601 43.4667C120.992 42.6027 120.626 41.2944 120.626 39.6158H120.334H120.041C120.041 41.3931 120.431 42.8002 121.113 43.7876C121.796 44.7751 122.819 45.3181 123.939 45.3181C125.937 45.2935 127.837 43.1458 127.837 39.6158C127.837 37.9865 127.447 36.5794 126.765 35.5426C126.083 34.5058 125.084 33.8887 123.939 33.8887C122.965 33.8887 121.966 34.4071 121.235 35.3698C120.504 36.3326 120.017 37.7643 120.017 39.6158H120.334Z" fill="#010066"/>
<path d="M134.927 39.6039C134.927 37.3727 134.249 34.8161 132.65 34.8161C131.051 34.8161 130.373 37.3727 130.373 39.6039C130.373 41.8351 131.051 44.3917 132.65 44.3917C134.249 44.3685 134.927 41.8119 134.927 39.6039ZM129.041 39.6039C129.041 36.2106 130.882 34.4907 132.65 34.4907C134.733 34.4907 136.259 36.629 136.259 39.6039C136.259 42.8578 134.418 44.7171 132.65 44.7171C130.567 44.6938 129.041 42.8578 129.041 39.6039Z" fill="#010066"/>
<path d="M134.657 39.6158H134.924C134.924 38.4062 134.754 37.1225 134.365 36.0857C134.001 35.0736 133.345 34.259 132.374 34.259C131.378 34.259 130.747 35.0983 130.382 36.0857C129.994 37.1225 129.824 38.4062 129.824 39.6158C129.824 40.8254 129.994 42.1337 130.382 43.1458C130.747 44.1579 131.402 44.9725 132.374 44.9725C133.37 44.9725 134.001 44.1579 134.365 43.1458C134.754 42.1337 134.924 40.8254 134.924 39.6158H134.657H134.365C134.365 40.776 134.195 42.0103 133.855 42.9236C133.491 43.8617 133.005 44.4048 132.374 44.3801C131.767 44.3801 131.257 43.837 130.892 42.9236C130.552 42.0103 130.382 40.7513 130.382 39.6158C130.382 38.4555 130.552 37.2212 130.892 36.3079C131.257 35.3698 131.742 34.8267 132.374 34.8267C132.981 34.8267 133.491 35.3451 133.855 36.3079C134.195 37.2212 134.365 38.4802 134.365 39.6158H134.657ZM128.755 39.6158H129.022C129.047 36.1104 130.82 34.4811 132.35 34.4811C133.272 34.4811 134.098 34.9748 134.705 35.8882C135.312 36.8016 135.677 38.0852 135.677 39.6158C135.677 41.2944 135.24 42.578 134.584 43.442C133.952 44.306 133.127 44.7504 132.35 44.7504C131.402 44.7504 130.577 44.306 129.994 43.4667C129.387 42.6027 129.022 41.2944 129.022 39.6158H128.755H128.464C128.464 41.3931 128.852 42.8002 129.532 43.7876C130.212 44.7751 131.232 45.3181 132.35 45.3181C134.341 45.2935 136.235 43.1458 136.26 39.6158C136.26 37.9865 135.871 36.5794 135.191 35.5426C134.511 34.5058 133.515 33.8887 132.35 33.8887C131.378 33.8887 130.382 34.4071 129.654 35.3698C128.925 36.3326 128.439 37.7643 128.439 39.6158H128.755Z" fill="#010066"/>
<path d="M139.362 34.7414H139.569L139.799 34.4907C139.868 34.4907 139.868 34.6662 139.868 34.8918C139.868 35.1424 139.868 35.4432 139.776 35.4432L139.615 35.0923C139.592 35.0421 139.385 34.9419 138.857 34.9419C138.651 34.9419 138.628 34.9669 138.628 35.2928V37.5737C138.628 37.8494 138.697 37.8744 138.926 37.9246L139.202 38.0248L139.087 38.1C138.926 38.1 138.651 38.075 138.421 38.075C138.215 38.075 137.962 38.1 137.686 38.1L137.595 38.0499L137.893 37.9246C138.123 37.8744 138.169 37.7993 138.169 37.4483V35.1925C138.169 34.9669 138.123 34.9419 137.709 34.9419C137.227 34.9419 137.044 35.4933 136.929 35.4933L136.86 35.4181L137.066 34.7414L137.204 34.4907L137.388 34.7163C137.641 34.7414 137.893 34.7664 138.146 34.7664H139.362V34.7414Z" fill="#010066"/>
<path d="M139.624 34.5945L139.647 34.8866H139.852H139.967L140.286 34.5702L140.104 34.3755V34.6676V34.4242L139.921 34.5459L140.104 34.6432V34.3998L139.921 34.5215L139.989 34.4728L139.898 34.4972L139.921 34.5215L139.989 34.4728L139.898 34.4972V34.7406L139.875 35.0813V35.13L140.012 35.203L139.898 35.0813L139.852 35.13L139.989 35.203L139.875 35.0813L140.035 35.2517V35.0083L139.875 35.0813L140.035 35.2517V35.0083V35.3004L140.264 35.1787L140.104 34.8379V34.8136L139.761 34.5945C139.624 34.5702 139.418 34.5215 139.144 34.5215L138.733 34.6676L138.642 35.1544V37.3693L138.779 37.8318L139.167 38.0022L139.213 37.7101L139.121 37.9778L139.396 38.0752L139.487 37.8074L139.35 37.564L139.236 37.6371L139.373 37.8805V37.5884C139.236 37.5884 138.961 37.564 138.71 37.564C138.482 37.564 138.23 37.5884 137.979 37.5884V37.8805L138.116 37.6371L138.025 37.5884L137.888 37.8318L137.979 38.0995L138.276 37.9778L138.185 37.7101L138.23 37.9778L138.642 37.7344L138.756 37.2476V35.057L138.733 34.8379L138.413 34.5459L138.025 34.5215C137.682 34.5215 137.454 34.7162 137.317 34.8866L137.157 35.0813L137.134 35.1057L137.248 35.2761V35.0327L137.134 35.0813L137.248 35.2517V35.0327V35.3247L137.454 35.13L137.408 35.057L137.203 35.2517L137.454 35.3491L137.659 34.7162L137.774 34.4972L137.545 34.3511L137.34 34.5459L137.545 34.7649L137.614 34.8379H137.705C137.979 34.8623 138.23 34.8866 138.505 34.8866H139.647L139.624 34.5945V34.3025H138.482C138.23 34.3025 137.979 34.3025 137.751 34.2781L137.705 34.5702L137.911 34.3755L137.705 34.1564L137.477 33.8887L137.157 34.4485L137.134 34.4728L136.906 35.1787L136.86 35.3247L137.02 35.5195L137.111 35.6168H137.225C137.454 35.5681 137.477 35.4708 137.522 35.4221L138.002 35.057H138.23H138.276L138.322 34.8866L138.185 34.9353L138.276 35.0327L138.322 34.8623L138.185 34.911L138.23 34.8866H138.185V34.911L138.23 34.8866H138.185V34.9596V37.1503V37.2963V37.3206L138.23 37.345L138.208 37.2963L138.185 37.3206L138.23 37.345L138.208 37.2963L138.116 37.3206H138.093L137.774 37.4423L137.248 37.6614L137.842 38.0022L137.911 38.0508H137.979C138.253 38.0508 138.505 38.0265 138.71 38.0265C138.916 38.0265 139.213 38.0508 139.373 38.0508H139.441L139.624 37.9291L140.127 37.6127L139.304 37.3206H139.281H139.258L139.167 37.2963L139.121 37.3937L139.213 37.345L139.167 37.2963L139.121 37.3937L139.213 37.345V37.272V35.057V34.911V34.8866L139.053 34.8379L139.099 34.984L139.19 34.8866L139.03 34.8379L139.076 34.984L139.053 34.8866L139.076 34.984H139.099L139.076 34.8866L139.099 34.984H139.167C139.418 34.984 139.578 35.0083 139.67 35.0327L139.738 35.057L139.807 34.9353L139.692 35.0083L139.738 35.057L139.807 34.9353L139.692 35.0083L139.921 34.8379L139.692 34.9596L139.852 35.3004L139.921 35.4708H140.104L140.401 35.2517C140.469 35.0327 140.469 34.8379 140.469 34.6432L140.446 34.3025L140.401 34.1077L140.127 33.9374H140.012L139.784 34.1808H139.67L139.624 34.5945V34.3025V34.5945Z" fill="#010066"/>
<path d="M141.811 36.3603L141.325 35.2437C141.279 35.2437 141.279 35.815 141.279 36.1266V37.7105L141.58 37.8923C141.788 37.9442 141.857 37.9442 141.857 37.9962L141.719 38.0741L141.14 38.0481L140.562 38.0741L140.469 37.9962L140.631 37.8923C140.839 37.8663 140.978 37.7884 140.978 37.6846L141.14 35.1658V34.9062C141.14 34.7763 141.094 34.7763 140.816 34.6725L140.585 34.5686L140.724 34.4907L141.071 34.5167L141.487 34.4907L141.58 34.5427L142.598 37.0614L142.644 37.0873L142.69 37.0614L143.616 34.7244L143.778 34.4907L144.194 34.5167L144.611 34.4907L144.68 34.5686L144.426 34.6984C144.125 34.7504 144.055 34.7504 144.055 35.1658V37.5807C144.055 37.8144 144.125 37.8663 144.449 37.9183L144.634 38.0221L144.402 38.1C144.171 38.1 144.079 38.0741 143.963 38.0741C143.708 38.0741 143.477 38.1 143.269 38.1L143.13 37.9962L143.315 37.9183C143.546 37.8663 143.593 37.8404 143.593 37.6846V35.5813L143.546 35.4255L143.5 35.4515L142.552 37.9442L142.482 37.9962L142.274 37.6326L141.811 36.3603Z" fill="#010066"/>
<path d="M141.748 36.3514L142.004 36.2393L141.539 35.2754L141.446 35.1184H141.284L141.051 35.2529L141.005 35.4771C140.982 35.6565 140.982 35.9479 140.982 36.1497V37.5172V37.6741L141.423 37.9207L141.469 37.9431H141.516L141.725 37.9655L141.772 37.831L141.679 37.9431L141.748 37.9879L141.795 37.8534L141.702 37.9655L141.865 37.8086H141.632L141.702 37.9655L141.865 37.8086H141.632H141.911L141.795 37.562L141.702 37.6068L141.191 37.5844H141.167L140.656 37.6068L140.633 37.5844L140.47 37.8086L140.61 38.0328L140.772 37.9431L140.633 37.7189L140.656 37.9879L141.005 37.8983L141.237 37.562H140.958L141.237 37.5844L141.423 35.4099V35.3874V35.1633L141.214 34.827L140.889 34.7149L140.819 34.9615L140.935 34.7149L140.703 34.6252L140.587 34.8718L140.726 35.096L140.796 35.0736H141.098H141.446H141.469L141.609 34.8494L141.353 34.9615L142.422 37.2033L142.538 37.2706L142.701 37.3602L142.887 37.2033L142.933 37.1585L143.886 35.1184L143.932 35.0512H144.211H144.653V34.7822L144.467 34.9839L144.537 35.0512L144.723 34.8718L144.606 34.6252L144.374 34.7373L144.467 34.9839L144.42 34.7149L143.979 34.8718L143.816 35.365V37.4499L144.002 37.8534L144.444 38.0104L144.49 37.7413L144.351 37.9655L144.537 38.0552L144.676 37.831L144.606 37.5844L144.374 37.6517L144.444 37.8983V37.6292C144.235 37.6292 144.165 37.6068 144.002 37.6068C143.747 37.6068 143.491 37.6292 143.305 37.6292V37.8983L143.445 37.6741L143.305 37.5844L143.142 37.8086L143.235 38.0552L143.445 37.9879L143.352 37.7413L143.398 38.0104L143.723 37.8983L143.863 37.6965L143.886 37.5396V35.7237V35.6789L143.84 35.522L143.723 35.1633L143.375 35.4099L143.305 35.4547L142.306 37.6741L142.562 37.7862L142.422 37.562L142.352 37.6068L142.492 37.831L142.724 37.6965L142.515 37.4051L142.05 36.3514V36.329L141.748 36.3514L141.493 36.4635L141.957 37.5396V37.562L142.19 37.8983L142.329 38.1L142.631 37.9431L142.701 37.8983L143.7 35.6789L143.445 35.5668L143.607 35.7685L143.654 35.7461L143.468 35.5444L143.212 35.634L143.235 35.7237V37.5172V37.5396H143.352L143.235 37.4723L143.212 37.5172H143.328L143.212 37.4499L143.375 37.5396L143.259 37.4051L143.212 37.4723L143.375 37.562L143.259 37.4275L143.328 37.4947L143.282 37.4051H143.259L143.328 37.4723L143.282 37.3826L143.142 37.4051H143.119L142.91 37.4947L142.422 37.6741L143.003 38.0328L143.073 38.0776H143.166C143.375 38.0776 143.63 38.0552 143.863 38.0552C143.932 38.0552 144.049 38.0776 144.304 38.0776H144.351L144.63 38.0104L145.28 37.831L144.49 37.4275L144.444 37.4051H144.397L144.235 37.3602L144.188 37.3378L144.142 37.4275L144.235 37.4051L144.211 37.3602L144.165 37.4499L144.258 37.4275L144.235 37.4499H144.258L144.235 37.4723H144.258V37.4275V35.3426V35.2081L144.165 35.1633L144.235 35.2305L144.258 35.2081L144.165 35.1633L144.235 35.2305L144.188 35.1857L144.235 35.2529L144.258 35.2305L144.211 35.1857L144.258 35.2529L144.444 35.2081H144.467L144.746 35.096L145.118 34.9391L144.769 34.6252L144.676 34.5356L144.142 34.558L143.723 34.5356H143.584L143.352 34.827L143.328 34.8494L142.376 36.8894L142.631 37.0015L142.469 36.7998L142.422 36.8222L142.608 37.024L142.747 36.7998L142.701 36.7774L142.538 37.0015L142.794 36.8894L141.725 34.6252L141.539 34.5356L141.469 34.4907L141.005 34.5131L140.656 34.4907H140.587L140.401 34.5804L139.889 34.8494L140.656 35.1633H140.679H140.703L140.865 35.2081H140.912L140.982 35.0736L140.865 35.1408L140.912 35.1857L140.982 35.0512L140.865 35.1184L141.005 35.0288L140.842 35.0512L140.865 35.1184L141.005 35.0288L140.842 35.0512H140.889H140.842H140.889H140.842V35.2754L140.656 37.4499H140.842L140.703 37.3378L140.656 37.4499H140.842L140.703 37.3378L140.749 37.3826L140.703 37.3154L140.679 37.3378L140.726 37.3826L140.679 37.3154L140.54 37.3602H140.494L140.261 37.4723L139.866 37.6965L140.331 37.9879L140.401 38.0328L141.051 38.0104L141.632 38.0328H141.702L141.911 37.9431L142.074 37.8758V37.6965L141.981 37.4723C141.772 37.3378 141.725 37.3826 141.562 37.3602L141.516 37.6068L141.655 37.3826L141.493 37.293V36.1497V35.6789L141.516 35.4995V35.4771L141.307 35.4323L141.493 35.522L141.516 35.4771L141.307 35.4323L141.493 35.522L141.26 35.3874V35.634L141.493 35.4995L141.26 35.365V35.6116V35.3426L141.028 35.4547L141.516 36.3963L141.748 36.3514L141.493 36.4635L141.748 36.3514Z" fill="#010066"/>
<path d="M2.11475 59.2854L5.24223 56.4837C5.45248 56.3132 5.61017 56.1427 5.76786 55.9965C5.92554 55.8503 6.03067 55.7042 6.13579 55.558C6.24092 55.4118 6.29348 55.2656 6.34604 55.1195C6.39861 54.9733 6.39861 54.8028 6.39861 54.6079C6.39861 54.413 6.37233 54.2181 6.29348 54.0719C6.21464 53.9014 6.10951 53.7796 5.97811 53.6578C5.8467 53.5359 5.68901 53.4629 5.50504 53.3898C5.32107 53.3411 5.11082 53.2923 4.92685 53.2923C4.50635 53.2923 4.16469 53.4141 3.8756 53.6334C3.61278 53.8527 3.42881 54.145 3.34997 54.5104L2.29872 54.4373C2.35128 54.1206 2.4564 53.8527 2.61409 53.609C2.77178 53.3654 2.95575 53.1705 3.19228 53.0243C3.42881 52.8538 3.69163 52.732 3.98072 52.6589C4.26982 52.5858 4.58519 52.5371 4.92685 52.5371C5.26851 52.5371 5.58389 52.5858 5.89926 52.6833C6.18836 52.7807 6.45117 52.9025 6.6877 53.0731C6.92424 53.2436 7.1082 53.4629 7.23961 53.7308C7.37102 53.9988 7.44986 54.2912 7.44986 54.6322C7.44986 54.9246 7.3973 55.2169 7.31846 55.4605C7.21333 55.7042 7.1082 55.9234 6.95052 56.1427C6.79283 56.3619 6.63514 56.5325 6.45117 56.7274C6.2672 56.9223 6.05695 57.0928 5.8467 57.2633L3.29741 59.4802V59.5046H7.52871V60.3573H2.11475V59.2854Z" fill="#010066"/>
<path d="M8.12939 56.4352C8.12939 56.0261 8.15199 55.5689 8.21977 55.1118C8.28755 54.6546 8.42311 54.2215 8.60386 53.8365C8.7846 53.4515 9.03313 53.1387 9.32685 52.898C9.64316 52.6574 10.0498 52.5371 10.5243 52.5371C11.0214 52.5371 11.4054 52.6574 11.7218 52.898C12.0381 53.1387 12.2866 53.4515 12.4673 53.8365C12.6481 54.2215 12.7836 54.6305 12.8288 55.1118C12.8966 55.5689 12.9418 56.0261 12.9418 56.4352C12.9418 56.8683 12.9192 57.3014 12.8288 57.7826C12.7611 58.2398 12.6481 58.6729 12.4673 59.0579C12.2866 59.4429 12.0381 59.7557 11.7218 59.9963C11.4054 60.237 11.0214 60.3573 10.5243 60.3573C10.0272 60.3573 9.64316 60.237 9.32685 59.9963C9.01054 59.7557 8.76201 59.4429 8.60386 59.0579C8.42311 58.6729 8.31014 58.2639 8.21977 57.7826C8.17458 57.3255 8.12939 56.8683 8.12939 56.4352ZM8.98795 56.4352C8.98795 56.6277 8.98795 56.8202 9.01054 57.0608C9.03313 57.3014 9.05573 57.518 9.07832 57.7586C9.12351 57.9992 9.16869 58.2158 9.23647 58.4564C9.30425 58.6729 9.41722 58.8654 9.53019 59.0579C9.64316 59.2264 9.77872 59.3707 9.95947 59.467C10.1402 59.5632 10.321 59.6354 10.5695 59.6354C10.7954 59.6354 10.9988 59.5873 11.1795 59.467C11.3377 59.3707 11.4732 59.2264 11.6088 59.0579C11.7218 58.8895 11.8121 58.697 11.8799 58.4564C11.9477 58.2398 12.0155 57.9992 12.0381 57.7586C12.0833 57.518 12.1058 57.3014 12.1058 57.0608C12.1284 56.8442 12.1284 56.6277 12.1284 56.4352C12.1284 56.2427 12.1284 56.0502 12.1058 55.8095C12.0833 55.5689 12.0607 55.3524 12.0381 55.1118C11.9929 54.8952 11.9477 54.6546 11.8799 54.438C11.8121 54.2215 11.7218 54.029 11.6088 53.8365C11.4732 53.668 11.3377 53.5237 11.1795 53.4274C10.9988 53.3312 10.7954 53.283 10.5695 53.283C10.3436 53.283 10.1402 53.3312 9.95947 53.4274C9.77872 53.5477 9.64316 53.668 9.53019 53.8365C9.41722 54.0049 9.32685 54.1974 9.23647 54.438C9.16869 54.6546 9.12351 54.8952 9.07832 55.1118C9.03313 55.3524 9.01054 55.5689 9.01054 55.8095C8.98795 56.0502 8.98795 56.2427 8.98795 56.4352Z" fill="#010066"/>
<path d="M17.7548 60.3568H16.7779V54.2382H16.7522L15.3126 55.3152L14.7471 54.6965L16.9065 53.1382H17.7548V60.3568Z" fill="#010066"/>
<path d="M20.1592 59.2854L22.9392 56.4837C23.1261 56.3132 23.2662 56.1427 23.4064 55.9965C23.5466 55.8503 23.64 55.7042 23.7334 55.558C23.8269 55.4118 23.8736 55.2656 23.9203 55.1195C23.9671 54.9733 23.9671 54.8028 23.9671 54.6079C23.9671 54.413 23.9437 54.2181 23.8736 54.0719C23.8035 53.9014 23.7101 53.7796 23.5933 53.6578C23.4765 53.5359 23.3363 53.4629 23.1728 53.3898C23.0092 53.3411 22.8224 53.2923 22.6588 53.2923C22.2851 53.2923 21.958 53.4141 21.7244 53.6334C21.4908 53.8527 21.3272 54.145 21.2572 54.5104L20.3227 54.4373C20.3694 54.1206 20.4629 53.8527 20.603 53.609C20.7432 53.3654 20.9067 53.1705 21.117 53.0243C21.3272 52.8538 21.5609 52.732 21.8178 52.6589C22.0748 52.5858 22.3551 52.5371 22.6588 52.5371C22.9625 52.5371 23.2662 52.5858 23.5232 52.6833C23.8035 52.7807 24.0371 52.9025 24.2474 53.0731C24.4576 53.2436 24.6212 53.4629 24.738 53.7308C24.8548 53.9988 24.9249 54.2912 24.9249 54.6322C24.9249 54.9246 24.8781 55.2169 24.8081 55.4605C24.7146 55.7042 24.6212 55.9234 24.481 56.1427C24.3408 56.3619 24.2007 56.5325 24.0371 56.7274C23.8736 56.9223 23.6867 57.0928 23.4998 57.2633L21.2338 59.4802V59.5046H24.9716V60.3573H20.2293V59.2854H20.1592Z" fill="#010066"/>
<path d="M28.5815 53.1382H29.5969L31.3376 59.1193L33.2233 53.1382H34.2387L36.076 59.1193H36.1002L37.8651 53.1382H38.8079L36.5837 60.3568H35.5925L33.7068 54.2382L31.8211 60.3568H30.8299L28.5815 53.1382Z" fill="#010066"/>
<path d="M39.4097 53.734C39.4097 53.5736 39.4819 53.4361 39.5781 53.3215C39.6984 53.2069 39.8428 53.1382 40.0112 53.1382C40.1797 53.1382 40.324 53.2069 40.4443 53.3215C40.5646 53.4361 40.6128 53.5736 40.6128 53.734C40.6128 53.8944 40.5646 54.0319 40.4443 54.1465C40.324 54.2611 40.1797 54.3069 40.0112 54.3069C39.8187 54.3069 39.6984 54.2382 39.5781 54.1465C39.4578 54.0548 39.4097 53.8944 39.4097 53.734ZM39.6022 55.5902H40.4443V60.3568H39.6022V55.5902Z" fill="#010066"/>
<path d="M41.87 56.8102C41.87 56.5842 41.87 56.3809 41.8437 56.2001C41.8437 56.0194 41.8174 55.8386 41.8174 55.6805H42.6852C42.6852 55.816 42.6852 55.929 42.6852 56.0646C42.6852 56.2001 42.7115 56.3131 42.7115 56.4487H42.7378C42.7904 56.3357 42.8956 56.2227 43.0008 56.1098C43.106 55.9968 43.2374 55.9064 43.3952 55.816C43.553 55.7483 43.7108 55.6579 43.9212 55.6127C44.1315 55.5675 44.3156 55.5449 44.5523 55.5449C44.9205 55.5449 45.236 55.5901 45.4727 55.6805C45.7357 55.7709 45.9461 55.9064 46.1301 56.0646C46.2879 56.2453 46.4194 56.4261 46.4983 56.6746C46.5772 56.9005 46.6298 57.1717 46.6298 57.4428V60.3573H45.7094V57.5331C45.7094 57.1265 45.6042 56.8327 45.3938 56.5842C45.1834 56.3583 44.8679 56.2453 44.4471 56.2453C44.1578 56.2453 43.8949 56.2905 43.6845 56.3809C43.4741 56.4713 43.29 56.5842 43.1585 56.7424C43.0271 56.9005 42.9219 57.0813 42.843 57.3072C42.7641 57.5331 42.7378 57.7591 42.7378 58.0302V60.3347H41.8437V56.8102H41.87Z" fill="#010066"/>
<path d="M47.8846 56.8102C47.8846 56.5842 47.8583 56.3809 47.8583 56.2001C47.832 56.0194 47.832 55.8386 47.832 55.6805H48.6998C48.6998 55.816 48.6998 55.929 48.7261 56.0646C48.7261 56.2001 48.7261 56.3131 48.7261 56.4487H48.7524C48.805 56.3357 48.9102 56.2227 49.0154 56.1098C49.1206 55.9968 49.2521 55.9064 49.4099 55.816C49.5677 55.7483 49.7517 55.6579 49.9358 55.6127C50.1462 55.5675 50.3303 55.5449 50.567 55.5449C50.9088 55.5449 51.2244 55.5901 51.4874 55.6805C51.7503 55.7709 51.9607 55.9064 52.1448 56.0646C52.3289 56.2453 52.4341 56.4261 52.513 56.6746C52.5918 56.9005 52.6444 57.1717 52.6444 57.4428V60.3573H51.724V57.5331C51.724 57.1265 51.6188 56.8327 51.4348 56.5842C51.2244 56.3583 50.9088 56.2453 50.4881 56.2453C50.1988 56.2453 49.9358 56.2905 49.7254 56.3809C49.5151 56.4713 49.331 56.5842 49.1995 56.7424C49.068 56.9005 48.9628 57.0813 48.8839 57.3072C48.805 57.5331 48.7787 57.7591 48.7787 58.0302V60.3347H47.8583V56.8102H47.8846Z" fill="#010066"/>
<path d="M58.4972 59.3905C58.192 59.742 57.8868 59.9838 57.5347 60.1376C57.1826 60.2694 56.7835 60.3573 56.3375 60.3573C55.9619 60.3573 55.6098 60.2914 55.3046 60.1596C54.9994 60.0277 54.7412 59.8739 54.5299 59.6542C54.3186 59.4344 54.1543 59.1707 54.0369 58.885C53.9195 58.5994 53.8491 58.2698 53.8491 57.9401C53.8491 57.5885 53.9195 57.2589 54.0369 56.9733C54.1543 56.6876 54.3421 56.4239 54.5534 56.2042C54.7881 55.9844 55.0464 55.8306 55.3515 55.7207C55.6567 55.5889 55.9854 55.5449 56.361 55.5449C56.7131 55.5449 57.0183 55.5889 57.3 55.6987C57.5817 55.8086 57.8399 55.9624 58.0277 56.1602C58.239 56.358 58.4033 56.6217 58.4972 56.9073C58.6146 57.193 58.6615 57.5446 58.6615 57.9182V58.1599H54.7177C54.7412 58.3577 54.7881 58.5335 54.882 58.7312C54.9525 58.907 55.0933 59.0608 55.2107 59.1927C55.3515 59.3245 55.5159 59.4344 55.7037 59.5003C55.8915 59.5882 56.0793 59.6102 56.314 59.6102C56.6661 59.6102 56.9713 59.5443 57.2061 59.4344C57.4408 59.3245 57.6756 59.1487 57.8634 58.907L58.4972 59.3905ZM57.7929 57.5226C57.7695 57.1271 57.6521 56.8194 57.3939 56.5777C57.1356 56.336 56.7835 56.2261 56.3375 56.2261C55.8915 56.2261 55.5159 56.336 55.2342 56.5777C54.9525 56.8194 54.7881 57.1271 54.7412 57.5226H57.7929Z" fill="#010066"/>
<path d="M59.9128 56.8042C59.9128 56.5794 59.9128 56.377 59.8873 56.1971C59.8873 56.0172 59.8618 55.8373 59.8618 55.6799H60.703C60.703 55.8148 60.703 55.9272 60.7285 56.0621C60.7285 56.1971 60.7285 56.3095 60.7285 56.4444H60.7539C60.8049 56.332 60.9069 56.2196 61.0088 56.1071C61.1108 55.9947 61.2382 55.9047 61.3912 55.8148C61.5441 55.7473 61.7225 55.6574 61.901 55.6124C62.1049 55.5674 62.2833 55.5449 62.5127 55.5449C62.5637 55.5449 62.6402 55.5449 62.6911 55.5674C62.7421 55.5674 62.7931 55.5899 62.8696 55.6124L62.8186 56.3995C62.6657 56.3545 62.5127 56.332 62.3598 56.332C61.799 56.332 61.4167 56.4894 61.1618 56.8042C60.9069 57.1191 60.8049 57.5239 60.8049 58.0636V60.3573H59.9128V56.8042Z" fill="#010066"/>
</svg>
