<svg width="211" height="34" viewBox="0 0 211 34" fill="none" xmlns="http://www.w3.org/2000/svg">
<g clip-path="url(#clip0_1266_4187)">
<path d="M25.8127 9.19913H26.9759L30.2911 5.88254L30.454 4.47444C28.5548 2.79747 26.2597 1.63254 23.7854 1.08969C21.3111 0.54684 18.7393 0.643992 16.313 1.37197C13.8866 2.09995 11.6858 3.43471 9.91852 5.25019C8.15119 7.06566 6.87565 9.3019 6.2124 11.7477C6.58173 11.5962 6.99085 11.5717 7.37562 11.6778L14.006 10.584C14.006 10.584 14.3433 10.0254 14.5178 10.0603C15.9385 8.49935 17.9018 7.54071 20.0059 7.38062C22.11 7.22053 24.1957 7.87109 25.836 9.19913H25.8127Z" fill="#EA4335"/>
<path d="M35.0166 11.7474C34.2546 8.94012 32.6901 6.41638 30.5149 4.48584L25.8621 9.14071C26.8318 9.93339 27.6089 10.936 28.1348 12.073C28.6607 13.2099 28.9217 14.4515 28.8981 15.7041V16.5303C29.4419 16.5303 29.9804 16.6375 30.4828 16.8457C30.9852 17.0539 31.4417 17.359 31.8262 17.7437C32.2108 18.1284 32.5158 18.5851 32.7239 19.0877C32.932 19.5904 33.0391 20.1291 33.0391 20.6731C33.0391 21.2172 32.932 21.7559 32.7239 22.2585C32.5158 22.7612 32.2108 23.2179 31.8262 23.6026C31.4417 23.9873 30.9852 24.2924 30.4828 24.5006C29.9804 24.7088 29.4419 24.816 28.8981 24.816H20.6159L19.79 25.6538V30.6229L20.6159 31.4492H28.8981C31.2108 31.4672 33.468 30.74 35.3356 29.3751C37.2032 28.0103 38.5821 26.0803 39.2683 23.8707C39.9545 21.6611 39.9116 19.2892 39.1459 17.1059C38.3802 14.9225 36.9324 13.0437 35.0166 11.7474Z" fill="#4285F4"/>
<path d="M12.3208 31.403H20.6029V24.7699H12.3208C11.7307 24.7697 11.1476 24.6427 10.6108 24.3975L9.44761 24.7582L6.10916 28.0748L5.81836 29.2385C7.69049 30.6528 9.97488 31.4132 12.3208 31.403Z" fill="#34A853"/>
<path d="M12.3199 9.88581C10.0758 9.89922 7.89198 10.6135 6.07338 11.9288C4.25477 13.2442 2.89223 15.0949 2.17605 17.2226C1.45987 19.3503 1.42583 21.6486 2.07867 23.7965C2.73151 25.9445 4.03863 27.8348 5.81748 29.2035L10.6216 24.3974C10.0111 24.1214 9.47661 23.7014 9.06403 23.1734C8.65145 22.6454 8.37308 22.0251 8.25279 21.3658C8.13251 20.7065 8.17391 20.0278 8.37345 19.388C8.57298 18.7483 8.92469 18.1664 9.39839 17.6925C9.8721 17.2186 10.4537 16.8668 11.0932 16.6672C11.7327 16.4675 12.4111 16.4261 13.0701 16.5465C13.7291 16.6668 14.3491 16.9453 14.8769 17.358C15.4047 17.7708 15.8245 18.3055 16.1004 18.9163L20.9045 14.1101C19.8961 12.7913 18.5965 11.7238 17.1073 10.991C15.618 10.2581 13.9795 9.87989 12.3199 9.88581Z" fill="#FBBC05"/>
<path d="M61.804 26.7713C60.3781 26.7895 58.9631 26.5195 57.6439 25.9776C56.3247 25.4357 55.1285 24.633 54.1267 23.6176C53.0935 22.6453 52.2735 21.4687 51.7188 20.1626C51.1641 18.8564 50.8869 17.4492 50.9046 16.0302C50.8876 14.6113 51.1652 13.2042 51.7198 11.8982C52.2744 10.5922 53.094 9.41551 54.1267 8.44275C55.1236 7.41682 56.3176 6.60336 57.637 6.05137C58.9565 5.49938 60.3739 5.22028 61.804 5.23089C63.1667 5.21273 64.5193 5.46571 65.7834 5.97514C67.0474 6.48458 68.1977 7.2403 69.1672 8.19837L67.0967 10.3047C65.6787 8.93379 63.7757 8.18062 61.804 8.21001C60.7812 8.19744 59.767 8.39787 58.8258 8.79855C57.8846 9.19923 57.037 9.79141 56.3369 10.5374C55.6092 11.2596 55.0352 12.1216 54.6494 13.0716C54.2636 14.0216 54.0739 15.0399 54.0918 16.0651C54.0833 17.0786 54.2775 18.0836 54.6631 19.021C55.0486 19.9583 55.6177 20.809 56.3369 21.5229C57.7773 22.9591 59.7212 23.776 61.7547 23.8C63.7883 23.8239 65.7508 23.0528 67.2246 21.6509C68.1371 20.6513 68.6968 19.38 68.8182 18.0318H61.8389V15.0527H71.7147C71.8117 15.6526 71.8507 16.2606 71.831 16.8681C71.8924 18.1254 71.6983 19.382 71.2605 20.5622C70.8226 21.7423 70.1501 22.8213 69.2835 23.734C68.3201 24.7375 67.156 25.5267 65.8673 26.05C64.5786 26.5733 63.194 26.8191 61.804 26.7713ZM84.766 24.793C83.4406 26.064 81.6757 26.7736 79.8398 26.7736C78.0038 26.7736 76.2389 26.064 74.9135 24.793C74.2538 24.1531 73.7343 23.383 73.3879 22.5316C73.0415 21.6802 72.8757 20.7661 72.9011 19.8472C72.8764 18.9284 73.0425 18.0145 73.3889 17.1632C73.7353 16.3119 74.2544 15.5417 74.9135 14.9014C76.2403 13.6331 78.0047 12.9253 79.8398 12.9253C81.6748 12.9253 83.4393 13.6331 84.766 14.9014C85.4251 15.5417 85.9443 16.3119 86.2906 17.1632C86.637 18.0145 86.8031 18.9284 86.7784 19.8472C86.8023 20.7669 86.6347 21.6816 86.2863 22.533C85.9378 23.3845 85.4162 24.1541 84.7544 24.793H84.766ZM77.0887 22.8496C77.4413 23.2262 77.8673 23.5264 78.3405 23.7317C78.8137 23.937 79.324 24.0429 79.8398 24.0429C80.3555 24.0429 80.8658 23.937 81.339 23.7317C81.8122 23.5264 82.2383 23.2262 82.5908 22.8496C82.9752 22.4521 83.2761 21.9817 83.4759 21.4661C83.6757 20.9504 83.7703 20.4 83.754 19.8472C83.7712 19.2925 83.6771 18.7401 83.4773 18.2224C83.2775 17.7047 82.9761 17.2324 82.5908 16.8332C82.2336 16.4604 81.8047 16.1637 81.3299 15.9611C80.8552 15.7585 80.3443 15.654 79.8281 15.654C79.312 15.654 78.8011 15.7585 78.3263 15.9611C77.8516 16.1637 77.4227 16.4604 77.0655 16.8332C76.6802 17.2324 76.3788 17.7047 76.179 18.2224C75.9792 18.7401 75.8851 19.2925 75.9023 19.8472C75.8876 20.4008 75.984 20.9517 76.1857 21.4674C76.3875 21.9831 76.6906 22.4531 77.0771 22.8496H77.0887ZM99.9112 24.793C98.5858 26.064 96.8209 26.7736 94.9849 26.7736C93.149 26.7736 91.384 26.064 90.0587 24.793C89.399 24.1531 88.8795 23.383 88.5331 22.5316C88.1866 21.6802 88.0209 20.7661 88.0463 19.8472C88.0216 18.9284 88.1877 18.0145 88.534 17.1632C88.8804 16.3119 89.3996 15.5417 90.0587 14.9014C91.384 13.6304 93.149 12.9208 94.9849 12.9208C96.8209 12.9208 98.5858 13.6304 99.9112 14.9014C100.57 15.5417 101.089 16.3119 101.436 17.1632C101.782 18.0145 101.948 18.9284 101.924 19.8472C101.949 20.7661 101.783 21.6802 101.437 22.5316C101.09 23.383 100.571 24.1531 99.9112 24.793ZM92.2339 22.8496C92.5864 23.2262 93.0125 23.5264 93.4857 23.7317C93.9589 23.937 94.4692 24.0429 94.9849 24.0429C95.5007 24.0429 96.011 23.937 96.4842 23.7317C96.9574 23.5264 97.3834 23.2262 97.7359 22.8496C98.1203 22.4521 98.4213 21.9817 98.6211 21.4661C98.8208 20.9504 98.9154 20.4 98.8992 19.8472C98.9163 19.2925 98.8222 18.7401 98.6224 18.2224C98.4226 17.7047 98.1212 17.2324 97.7359 16.8332C97.3787 16.4604 96.9499 16.1637 96.4751 15.9611C96.0003 15.7585 95.4895 15.654 94.9733 15.654C94.4571 15.654 93.9463 15.7585 93.4715 15.9611C92.9967 16.1637 92.5678 16.4604 92.2106 16.8332C91.8254 17.2324 91.5239 17.7047 91.3242 18.2224C91.1244 18.7401 91.0303 19.2925 91.0474 19.8472C91.0327 20.4008 91.1291 20.9517 91.3309 21.4674C91.5327 21.9831 91.8358 22.4531 92.2223 22.8496H92.2339ZM109.868 32.9855C108.474 33.0299 107.107 32.5945 105.995 31.752C105.007 31.0094 104.23 30.0229 103.738 28.8893L106.39 27.7837C106.679 28.4612 107.13 29.0569 107.705 29.5177C108.319 30.0134 109.091 30.2734 109.88 30.2508C110.38 30.2813 110.882 30.2035 111.349 30.0227C111.817 29.842 112.24 29.5626 112.59 29.2035C113.291 28.3578 113.637 27.2733 113.556 26.1778V25.177H113.451C113.008 25.7037 112.448 26.1199 111.816 26.3926C111.184 26.6653 110.497 26.787 109.81 26.748C108.937 26.7507 108.072 26.5721 107.272 26.2236C106.471 25.875 105.751 25.3641 105.157 24.7232C104.513 24.0873 104.005 23.3273 103.663 22.4892C103.321 21.6511 103.153 20.7523 103.168 19.8472C103.152 18.9368 103.32 18.0325 103.662 17.1887C104.004 16.3448 104.512 15.5787 105.157 14.9363C105.749 14.2926 106.469 13.7792 107.27 13.4286C108.071 13.078 108.936 12.8979 109.81 12.8998C110.55 12.8985 111.281 13.0614 111.951 13.3769C112.53 13.6299 113.046 14.0073 113.463 14.4824H113.567V13.3769H116.452V25.7705C116.528 26.7509 116.403 27.7365 116.085 28.667C115.767 29.5974 115.263 30.4531 114.603 31.1818C113.974 31.7835 113.231 32.2532 112.418 32.563C111.605 32.8728 110.738 33.0164 109.868 32.9855ZM110.078 24.0482C110.574 24.0591 111.067 23.9605 111.522 23.7594C111.976 23.5583 112.381 23.2596 112.707 22.8845C113.424 22.0617 113.803 20.9968 113.765 19.9054C113.808 18.7955 113.43 17.7105 112.707 16.8681C112.381 16.4923 111.977 16.1932 111.522 15.992C111.068 15.7909 110.575 15.6926 110.078 15.7043C109.567 15.6939 109.061 15.7922 108.591 15.9929C108.122 16.1935 107.701 16.4919 107.356 16.8681C106.586 17.6802 106.168 18.7633 106.193 19.8821C106.181 20.4308 106.277 20.9765 106.477 21.4878C106.677 21.999 106.975 22.4658 107.356 22.8612C107.699 23.241 108.12 23.5433 108.589 23.748C109.058 23.9527 109.566 24.055 110.078 24.0482ZM121.582 6.01058V26.3524H118.546V6.01058H121.582ZM129.911 26.7713C129.001 26.7947 128.097 26.63 127.255 26.2876C126.412 25.9452 125.649 25.4324 125.014 24.7813C124.369 24.1351 123.862 23.3644 123.524 22.5162C123.186 21.668 123.024 20.76 123.048 19.8472C123.013 18.9321 123.163 18.0196 123.489 17.1638C123.815 16.3081 124.31 15.5268 124.944 14.8665C125.541 14.2363 126.264 13.7379 127.065 13.4032C127.866 13.0686 128.729 12.905 129.597 12.9231C130.395 12.9146 131.186 13.0691 131.923 13.3769C132.587 13.6448 133.191 14.0402 133.703 14.5406C134.142 14.9649 134.532 15.4372 134.866 15.9487C135.136 16.3806 135.366 16.8364 135.552 17.3103L135.866 18.1016L126.561 21.9302C126.842 22.5771 127.313 23.1236 127.911 23.4975C128.509 23.8714 129.206 24.0553 129.911 24.0249C130.596 24.0268 131.271 23.8509 131.868 23.5144C132.465 23.1778 132.965 22.6922 133.319 22.1048L135.645 23.6758C135.052 24.5256 134.292 25.2461 133.412 25.7938C132.366 26.4552 131.148 26.795 129.911 26.7713ZM126.026 19.6377L132.214 17.0659C132.023 16.6124 131.682 16.2385 131.248 16.0069C130.763 15.7325 130.213 15.5919 129.655 15.5996C128.708 15.6241 127.809 16.0214 127.154 16.7051C126.762 17.0807 126.457 17.5383 126.262 18.0452C126.067 18.5522 125.986 19.0959 126.026 19.6377Z" fill="#5F6368"/>
<path d="M151.766 26.7715C150.475 26.7938 149.192 26.5548 147.996 26.069C146.799 25.5831 145.713 24.8604 144.803 23.9442C143.892 23.0279 143.176 21.9371 142.698 20.7372C142.219 19.5372 141.988 18.2529 142.018 16.9613C141.988 15.6698 142.219 14.3855 142.698 13.1855C143.176 11.9856 143.892 10.8948 144.803 9.97854C145.713 9.06231 146.799 8.33957 147.996 7.85372C149.192 7.36787 150.475 7.12892 151.766 7.15121C153.073 7.11034 154.372 7.36542 155.566 7.89741C156.761 8.4294 157.82 9.22454 158.664 10.2234L156.989 11.8526C156.369 11.0728 155.574 10.4503 154.669 10.0358C153.763 9.62127 152.773 9.42639 151.778 9.46701C150.82 9.44542 149.868 9.61779 148.978 9.97376C148.088 10.3297 147.28 10.8619 146.601 11.5384C145.896 12.2483 145.344 13.0965 144.982 14.0297C144.62 14.963 144.454 15.9611 144.496 16.9613C144.454 17.9616 144.62 18.9597 144.982 19.893C145.344 20.8262 145.896 21.6744 146.601 22.3843C147.28 23.0607 148.088 23.593 148.978 23.9489C149.868 24.3049 150.82 24.4773 151.778 24.4557C152.889 24.4681 153.989 24.2298 154.996 23.7584C156.003 23.2869 156.891 22.5945 157.594 21.7326L159.269 23.4083C158.392 24.4575 157.291 25.2966 156.047 25.8638C154.706 26.4831 153.243 26.7933 151.766 26.7715Z" fill="#5F6368"/>
<path d="M163.773 26.3526H161.365V7.55859H163.773V26.3526Z" fill="#5F6368"/>
<path d="M167.703 15.0411C168.964 13.7875 170.67 13.084 172.449 13.084C174.227 13.084 175.933 13.7875 177.195 15.0411C177.812 15.6928 178.294 16.4601 178.613 17.2989C178.932 18.1377 179.083 19.0315 179.056 19.9287C179.083 20.8259 178.932 21.7196 178.613 22.5584C178.294 23.3972 177.812 24.1646 177.195 24.8163C175.933 26.0699 174.227 26.7734 172.449 26.7734C170.67 26.7734 168.964 26.0699 167.703 24.8163C167.086 24.1646 166.604 23.3972 166.284 22.5584C165.965 21.7196 165.814 20.8259 165.842 19.9287C165.814 19.0315 165.965 18.1377 166.284 17.2989C166.604 16.4601 167.086 15.6928 167.703 15.0411ZM169.494 23.3035C169.873 23.7046 170.331 24.0241 170.838 24.2424C171.345 24.4608 171.891 24.5734 172.443 24.5734C172.995 24.5734 173.541 24.4608 174.048 24.2424C174.555 24.0241 175.012 23.7046 175.392 23.3035C175.812 22.8517 176.139 22.3206 176.353 21.7412C176.567 21.1618 176.663 20.5457 176.636 19.9287C176.663 19.3117 176.567 18.6955 176.353 18.1161C176.139 17.5368 175.812 17.0057 175.392 16.5539C175.012 16.1528 174.555 15.8333 174.048 15.6149C173.541 15.3966 172.995 15.284 172.443 15.284C171.891 15.284 171.345 15.3966 170.838 15.6149C170.331 15.8333 169.873 16.1528 169.494 16.5539C169.073 17.0057 168.746 17.5368 168.533 18.1161C168.319 18.6955 168.223 19.3117 168.249 19.9287C168.226 20.5445 168.325 21.159 168.54 21.7363C168.756 22.3136 169.084 22.8424 169.506 23.2918L169.494 23.3035Z" fill="#5F6368"/>
<path d="M192.4 26.3523H190.073V24.5718H190.003C189.589 25.2481 189.003 25.8022 188.305 26.1778C187.58 26.5978 186.758 26.8187 185.92 26.8178C185.241 26.8643 184.559 26.7566 183.926 26.5027C183.294 26.2488 182.727 25.8553 182.268 25.3515C181.387 24.2365 180.944 22.8374 181.023 21.4182V13.5049H183.431V20.9759C183.431 23.3732 184.49 24.5718 186.607 24.5718C187.077 24.5865 187.544 24.4886 187.969 24.2861C188.394 24.0837 188.764 23.7827 189.049 23.4081C189.674 22.6168 190.006 21.6347 189.992 20.6268V13.5049H192.4V26.3523Z" fill="#5F6368"/>
<path d="M200.578 26.7716C199.761 26.7743 198.953 26.5999 198.21 26.2604C197.467 25.9209 196.807 25.4243 196.274 24.8049C195.068 23.4723 194.422 21.7258 194.471 19.9289C194.422 18.132 195.068 16.3855 196.274 15.0529C196.807 14.4335 197.467 13.937 198.21 13.5974C198.953 13.2579 199.761 13.0835 200.578 13.0862C201.493 13.0718 202.397 13.2879 203.207 13.7147C203.918 14.0729 204.521 14.6154 204.951 15.2857H205.056L204.951 13.5052V7.55859H207.359V26.3526H205.033V24.5721H204.928C204.497 25.2424 203.895 25.7849 203.183 26.1432C202.381 26.5661 201.485 26.7821 200.578 26.7716ZM200.973 24.5721C201.518 24.5801 202.057 24.4721 202.557 24.2554C203.056 24.0387 203.504 23.7183 203.87 23.3153C204.688 22.3836 205.106 21.1668 205.033 19.9289C205.106 18.691 204.688 17.4742 203.87 16.5425C203.501 16.1373 203.052 15.8137 202.551 15.5922C202.051 15.3707 201.509 15.2563 200.962 15.2563C200.414 15.2563 199.873 15.3707 199.372 15.5922C198.871 15.8137 198.422 16.1373 198.054 16.5425C197.647 17.0008 197.335 17.5348 197.136 18.1139C196.936 18.693 196.853 19.3058 196.89 19.9173C196.853 20.5287 196.936 21.1415 197.136 21.7206C197.335 22.2998 197.647 22.8338 198.054 23.292C198.42 23.7022 198.871 24.0288 199.374 24.2496C199.878 24.4705 200.423 24.5805 200.973 24.5721Z" fill="#5F6368"/>
</g>
<defs>
<clipPath id="clip0_1266_4187">
<rect width="210.543" height="32.5841" fill="white" transform="translate(0.398438 0.576172)"/>
</clipPath>
</defs>
</svg>
