<svg width="115" height="39" viewBox="0 0 115 39" fill="none" xmlns="http://www.w3.org/2000/svg">
<g clip-path="url(#clip0_1266_4398)">
<path d="M14.752 9.71436C6.79689 9.71436 0.358398 16.134 0.358398 24.0659C0.358398 31.9978 6.79689 38.4175 14.752 38.4175C22.7071 38.4175 29.1456 31.9978 29.1456 24.0659C29.1456 16.134 22.7071 9.71436 14.752 9.71436ZM14.752 31.256C10.7744 31.256 7.54089 28.0319 7.54089 24.0659C7.54089 20.1 10.7744 16.8759 14.752 16.8759C18.7295 16.8759 21.9631 20.1 21.9631 24.0659C21.9631 28.0319 18.7295 31.256 14.752 31.256Z" fill="#007DC1"/>
<path d="M40.0472 28.8875C40.0472 27.7463 41.4208 27.2042 42.222 28.0031C45.8276 31.6551 51.7796 37.9322 51.8082 37.9607C51.8941 38.0463 51.9799 38.1889 52.3233 38.3031C52.4664 38.3601 52.6953 38.3601 52.9528 38.3601H59.4486C60.6218 38.3601 60.9652 37.0191 60.4215 36.3344L49.6621 25.3496L49.0897 24.7789C47.8593 23.3238 48.0024 22.7532 49.4045 21.2695L57.9319 11.7684C58.4756 11.0836 58.1322 9.77116 56.9304 9.77116H51.0356C50.8067 9.77116 50.635 9.77116 50.4633 9.82823C50.1199 9.94236 49.9768 10.0565 49.891 10.1706C49.8624 10.1991 45.1408 15.2778 42.222 18.3878C41.4208 19.2438 39.99 18.6731 39.99 17.5033V1.21159C39.99 0.384164 39.3032 0.0703125 38.7595 0.0703125H33.9521C33.1223 0.0703125 32.7217 0.612419 32.7217 1.09746V37.2189C32.7217 38.0463 33.4085 38.2745 33.9808 38.2745H38.7882C39.5322 38.2745 40.0186 37.7324 40.0186 37.1903V36.8194V28.8875H40.0472Z" fill="#007DC1"/>
<path d="M79.3081 37.0477L78.793 32.2543C78.7358 31.5981 78.1062 31.1416 77.4481 31.2557C77.0761 31.3128 76.7041 31.3413 76.3321 31.3413C72.4976 31.3413 69.3785 28.3454 69.1496 24.5507C69.1496 24.4366 69.1496 24.2939 69.1496 24.1513V18.2737C69.1496 17.5033 69.7219 16.8756 70.4945 16.8756H76.933C77.3909 16.8756 78.0776 16.4762 78.0776 15.6487V11.1122C78.0776 10.2277 77.5053 9.77117 76.9902 9.77117H70.4945C69.7505 9.77117 69.1496 9.22906 69.121 8.48723V1.21159C69.121 0.755079 68.7776 0.0703125 67.8905 0.0703125H63.1117C62.5108 0.0703125 61.9385 0.441228 61.9385 1.18306C61.9385 1.18306 61.9385 24.4366 61.9385 24.5507C62.1388 32.3114 68.52 38.5028 76.3321 38.5028C76.9902 38.5028 77.6198 38.4457 78.2493 38.3601C78.9361 38.2746 79.3939 37.7039 79.3081 37.0477Z" fill="#007DC1"/>
<path d="M113.992 31.0274C109.928 31.0274 109.299 29.5723 109.299 24.1227C109.299 24.0942 109.299 24.0942 109.299 24.0656V10.9695C109.299 10.513 108.955 9.74261 108.04 9.74261H103.232C102.631 9.74261 101.973 10.2277 101.973 10.9695V11.5687C99.8842 10.3703 97.4519 9.68555 94.8765 9.68555C86.9214 9.68555 80.4829 16.1052 80.4829 24.0371C80.4829 31.969 86.9214 38.3887 94.8765 38.3887C98.4534 38.3887 101.716 37.0762 104.234 34.9363C105.579 36.9906 107.753 38.3601 111.159 38.3887C111.731 38.3887 114.822 38.5028 114.822 37.0477V31.9404C114.822 31.5125 114.478 31.0274 113.992 31.0274ZM94.9051 31.2557C90.9276 31.2557 87.694 28.0316 87.694 24.0656C87.694 20.0997 90.9276 16.8756 94.9051 16.8756C98.8827 16.8756 102.116 20.0997 102.116 24.0656C102.088 28.0316 98.8541 31.2557 94.9051 31.2557Z" fill="#007DC1"/>
</g>
<defs>
<clipPath id="clip0_1266_4398">
<rect width="114.462" height="38.4325" fill="white" transform="translate(0.358398 0.0703125)"/>
</clipPath>
</defs>
</svg>
