<svg width="129" height="82" viewBox="0 0 129 82" fill="none" xmlns="http://www.w3.org/2000/svg">
<g opacity="0.9">
<path d="M112.28 49.8533H110.916V52.2217H109.327V49.8533H104.725V48.5941L109.312 41.4738H110.916V48.5042H112.28V49.8533ZM109.327 45.5961C109.327 45.3563 109.327 45.1264 109.327 44.9066C109.337 44.6867 109.347 44.4768 109.357 44.277C109.367 44.0671 109.372 43.8772 109.372 43.7073C109.382 43.5275 109.392 43.3676 109.402 43.2277H109.342C109.262 43.4275 109.167 43.6324 109.057 43.8423C108.957 44.0521 108.857 44.237 108.757 44.3969L106.239 48.5042H109.327V45.5961ZM113.45 51.3373C113.45 50.9475 113.545 50.6727 113.735 50.5128C113.935 50.3529 114.18 50.273 114.47 50.273C114.749 50.273 114.989 50.3529 115.189 50.5128C115.399 50.6727 115.504 50.9475 115.504 51.3373C115.504 51.727 115.399 52.0068 115.189 52.1767C114.989 52.3466 114.749 52.4315 114.47 52.4315C114.18 52.4315 113.935 52.3466 113.735 52.1767C113.545 52.0068 113.45 51.727 113.45 51.3373ZM120.462 41.3689C121.062 41.3689 121.592 41.4688 122.051 41.6687C122.521 41.8586 122.886 42.1434 123.146 42.5231C123.415 42.9029 123.55 43.3776 123.55 43.9472C123.55 44.3769 123.465 44.7517 123.296 45.0714C123.136 45.3912 122.911 45.676 122.621 45.9259C122.341 46.1657 122.031 46.3756 121.692 46.5555C122.081 46.7653 122.441 47.0052 122.771 47.275C123.101 47.5348 123.365 47.8396 123.565 48.1894C123.775 48.5391 123.88 48.9589 123.88 49.4485C123.88 50.0481 123.74 50.5678 123.46 51.0075C123.191 51.4372 122.801 51.772 122.291 52.0118C121.782 52.2517 121.177 52.3716 120.477 52.3716C119.728 52.3716 119.093 52.2567 118.574 52.0268C118.064 51.797 117.679 51.4722 117.419 51.0525C117.16 50.6227 117.03 50.1031 117.03 49.4935C117.03 49.0038 117.12 48.5791 117.3 48.2193C117.489 47.8596 117.734 47.5498 118.034 47.29C118.344 47.0301 118.684 46.8103 119.053 46.6304C118.734 46.4305 118.444 46.2057 118.184 45.9559C117.924 45.696 117.719 45.4012 117.569 45.0714C117.429 44.7417 117.359 44.3619 117.359 43.9322C117.359 43.3726 117.494 42.9079 117.764 42.5381C118.034 42.1584 118.404 41.8686 118.873 41.6687C119.343 41.4688 119.873 41.3689 120.462 41.3689ZM118.589 49.4635C118.589 49.9532 118.744 50.3579 119.053 50.6777C119.363 50.9875 119.828 51.1424 120.447 51.1424C120.867 51.1424 121.212 51.0724 121.482 50.9325C121.752 50.7826 121.956 50.5828 122.096 50.3329C122.246 50.0731 122.321 49.7783 122.321 49.4485C122.321 49.1187 122.241 48.8289 122.081 48.5791C121.921 48.3293 121.702 48.1094 121.422 47.9195C121.152 47.7197 120.842 47.5398 120.492 47.3799L120.298 47.29C119.938 47.4599 119.628 47.6497 119.368 47.8596C119.118 48.0694 118.923 48.3043 118.784 48.5641C118.654 48.8239 118.589 49.1237 118.589 49.4635ZM120.432 42.6131C119.993 42.6131 119.628 42.733 119.338 42.9728C119.058 43.2127 118.918 43.5624 118.918 44.0221C118.918 44.3519 118.988 44.6317 119.128 44.8616C119.278 45.0914 119.468 45.2913 119.698 45.4612C119.938 45.6211 120.198 45.776 120.477 45.9259C120.757 45.786 121.007 45.6361 121.227 45.4762C121.457 45.3063 121.637 45.1064 121.767 44.8766C121.906 44.6367 121.976 44.3519 121.976 44.0221C121.976 43.5624 121.831 43.2127 121.542 42.9728C121.262 42.733 120.892 42.6131 120.432 42.6131Z" fill="black"/>
<path d="M24.6714 27.9766H29.0375V54.7361H24.6714V27.9766Z" fill="black"/>
<path d="M44.244 46.2514C44.244 50.3973 40.8271 50.7742 39.6881 50.7742C37.0304 50.7742 36.6508 48.3244 36.6508 47.0052V36.6406H32.2847V46.8168C32.2847 49.2666 33.044 51.528 34.5626 52.8471C35.8915 54.1662 37.5999 54.7316 39.6881 54.7316C41.2067 54.7316 43.105 54.3547 44.244 53.224V54.7316H48.6101V36.6406H44.244V46.2514Z" fill="black"/>
<path d="M57.146 30.0508H52.7799V36.6464H49.5527V40.7923H52.7799V54.7374H57.146V40.7923H60.3731V36.6464H57.146V30.0508Z" fill="black"/>
<path d="M74.0579 49.2685C73.1088 50.0223 71.78 50.5876 70.4511 50.5876C67.4138 50.5876 65.3257 48.3263 65.3257 45.3111C65.3257 42.2959 67.4138 40.223 70.4511 40.223C71.78 40.223 73.1088 40.5999 74.0579 41.5422L74.6274 42.1075L77.6647 39.2808L76.9054 38.7154C75.1969 37.2079 72.9189 36.2656 70.4511 36.2656C65.1359 36.2656 61.1494 40.223 61.1494 45.4996C61.1494 50.7761 65.1359 54.7335 70.4511 54.7335C72.9189 54.7335 75.1969 53.7912 76.9054 52.2837L77.6647 51.7183L74.6274 48.7032L74.0579 49.2685Z" fill="black"/>
<path d="M93.0225 38.1527C91.6937 36.8336 90.3649 36.2683 88.2768 36.2683C86.7581 36.2683 85.2395 36.6451 84.1005 37.7758V27.9766H79.7344V54.7361H84.1005V44.7484C84.1005 40.6025 86.948 40.2256 88.0869 40.2256C90.7446 40.2256 90.5547 42.6755 90.5547 43.9946V54.5477H94.9209V44.1831C94.9209 41.7332 94.3514 39.4719 93.0225 38.1527Z" fill="black"/>
<path d="M70.2565 48.5201C71.934 48.5201 73.2938 47.1701 73.2938 45.5049C73.2938 43.8397 71.934 42.4897 70.2565 42.4897C68.5791 42.4897 67.2192 43.8397 67.2192 45.5049C67.2192 47.1701 68.5791 48.5201 70.2565 48.5201Z" fill="black"/>
<path d="M18.6108 48.1427C17.0921 49.6503 14.8141 50.5926 12.3463 50.5926C7.60056 50.5926 4.18361 46.8236 4.18361 41.7355C4.18361 36.6474 7.60056 32.8785 12.5362 32.8785C14.8141 32.8785 17.0921 33.8207 18.8006 35.5167L19.3701 36.0821L22.2175 33.2554L21.6481 32.69C19.1803 30.2402 15.9531 28.9211 12.5362 28.9211C5.32259 28.7326 0.00732422 34.3861 0.00732422 41.7355C0.00732422 49.085 5.32259 54.7384 12.3463 54.7384C15.7633 54.7384 19.1803 53.4193 21.4582 50.9694L22.0277 50.4041L19.1803 47.5774L18.6108 48.1427Z" fill="black"/>
<path d="M35.7173 65.26L33.8644 69.0032C33.7701 69.1937 33.6308 69.3585 33.4585 69.4834C33.2862 69.6083 33.086 69.6895 32.8752 69.72L28.7336 70.3205C28.5395 70.3485 28.3571 70.4301 28.2071 70.5562C28.0571 70.6822 27.9455 70.8476 27.8849 71.0337C27.8243 71.2197 27.8171 71.4189 27.8642 71.6088C27.9113 71.7987 28.0108 71.9716 28.1514 72.108L31.1494 75.022C31.3017 75.1701 31.4156 75.3529 31.4814 75.5545C31.5471 75.7562 31.5628 75.9708 31.5271 76.1799L30.8193 80.2948C30.7865 80.4874 30.8083 80.6854 30.8823 80.8663C30.9563 81.0472 31.0796 81.2039 31.2383 81.3186C31.3969 81.4333 31.5846 81.5015 31.78 81.5154C31.9755 81.5294 32.1709 81.4885 32.3443 81.3975L36.0491 79.455C36.2376 79.3562 36.4474 79.3046 36.6604 79.3046C36.8734 79.3046 37.0831 79.3562 37.2717 79.455L40.9764 81.3975C41.1498 81.4885 41.3453 81.5294 41.5407 81.5154C41.7362 81.5015 41.9238 81.4333 42.0825 81.3186C42.2411 81.2039 42.3644 81.0472 42.4384 80.8663C42.5125 80.6854 42.5343 80.4874 42.5014 80.2948L41.7937 76.1799C41.7579 75.9708 41.7735 75.7562 41.8393 75.5545C41.9051 75.3528 42.019 75.1701 42.1713 75.022L45.1694 72.108C45.31 71.9716 45.4094 71.7987 45.4565 71.6088C45.5036 71.4189 45.4965 71.2197 45.4359 71.0337C45.3753 70.8476 45.2637 70.6822 45.1137 70.5562C44.9637 70.4301 44.7813 70.3485 44.5872 70.3205L40.4439 69.72C40.2331 69.6895 40.0329 69.6083 39.8606 69.4834C39.6883 69.3585 39.549 69.1937 39.4547 69.0032L37.6018 65.26C37.515 65.0846 37.3808 64.937 37.2143 64.8337C37.0478 64.7305 36.8556 64.6758 36.6595 64.6758C36.4635 64.6758 36.2713 64.7305 36.1048 64.8337C35.9383 64.937 35.8041 65.0846 35.7173 65.26Z" fill="#FF141A"/>
<path d="M63.5359 65.2583L61.683 69.0016C61.5887 69.1921 61.4494 69.3568 61.2771 69.4817C61.1047 69.6066 60.9045 69.6878 60.6937 69.7184L56.5505 70.3188C56.3564 70.3468 56.174 70.4285 56.024 70.5545C55.874 70.6806 55.7624 70.8459 55.7018 71.032C55.6412 71.218 55.634 71.4172 55.6811 71.6071C55.7282 71.797 55.8277 71.9699 55.9682 72.1063L58.9663 75.0203C59.1186 75.1684 59.2325 75.3512 59.2983 75.5529C59.364 75.7546 59.3797 75.9692 59.344 76.1782L58.6362 80.2931C58.6034 80.4857 58.6252 80.6837 58.6992 80.8646C58.7732 81.0455 58.8965 81.2022 59.0552 81.3169C59.2138 81.4316 59.4015 81.4998 59.5969 81.5137C59.7924 81.5277 59.9878 81.4869 60.1612 81.3959L63.866 79.4534C64.0545 79.3546 64.2643 79.3029 64.4773 79.3029C64.6903 79.3029 64.9 79.3546 65.0886 79.4534L68.7933 81.3959C68.9667 81.4869 69.1622 81.5277 69.3576 81.5137C69.5531 81.4998 69.7407 81.4316 69.8994 81.3169C70.058 81.2022 70.1813 81.0455 70.2553 80.8646C70.3294 80.6837 70.3512 80.4857 70.3183 80.2931L69.6106 76.1782C69.5748 75.9692 69.5904 75.7545 69.6562 75.5529C69.722 75.3512 69.8359 75.1684 69.9882 75.0203L72.9863 72.1063C73.1269 71.9699 73.2263 71.797 73.2734 71.6071C73.3205 71.4172 73.3134 71.218 73.2528 71.032C73.1922 70.8459 73.0806 70.6806 72.9306 70.5545C72.7806 70.4285 72.5982 70.3468 72.404 70.3188L68.2608 69.7184C68.05 69.6878 67.8498 69.6066 67.6775 69.4817C67.5051 69.3568 67.3658 69.1921 67.2716 69.0016L65.4187 65.2583C65.3318 65.0834 65.1976 64.9362 65.0312 64.8332C64.8649 64.7303 64.673 64.6758 64.4773 64.6758C64.2815 64.6758 64.0896 64.7303 63.9233 64.8332C63.757 64.9362 63.6228 65.0834 63.5359 65.2583Z" fill="#FF141A"/>
<path d="M91.361 65.26L89.5081 69.0032C89.4138 69.1937 89.2745 69.3585 89.1022 69.4834C88.9299 69.6083 88.7297 69.6895 88.5189 69.72L84.3762 70.3205C84.1821 70.3485 83.9997 70.4301 83.8497 70.5562C83.6997 70.6822 83.5881 70.8476 83.5275 71.0337C83.4669 71.2197 83.4597 71.4189 83.5068 71.6088C83.5539 71.7987 83.6534 71.9716 83.7939 72.108L86.792 75.022C86.9442 75.1701 87.0582 75.3529 87.1239 75.5545C87.1897 75.7562 87.2054 75.9708 87.1697 76.1799L86.4619 80.2948C86.429 80.4874 86.4509 80.6854 86.5249 80.8663C86.5989 81.0472 86.7222 81.2039 86.8809 81.3186C87.0395 81.4333 87.2271 81.5015 87.4226 81.5154C87.618 81.5294 87.8135 81.4885 87.9869 81.3975L91.6917 79.455C91.8802 79.3562 92.09 79.3046 92.303 79.3046C92.5159 79.3046 92.7257 79.3562 92.9142 79.455L96.619 81.3975C96.7924 81.4885 96.9879 81.5294 97.1833 81.5154C97.3788 81.5015 97.5664 81.4333 97.7251 81.3186C97.8837 81.2039 98.007 81.0472 98.081 80.8663C98.1551 80.6854 98.1769 80.4874 98.144 80.2948L97.4362 76.1799C97.4004 75.9708 97.4161 75.7562 97.4819 75.5545C97.5477 75.3528 97.6616 75.1701 97.8139 75.022L100.812 72.108C100.953 71.9716 101.052 71.7987 101.099 71.6088C101.146 71.4189 101.139 71.2197 101.078 71.0337C101.018 70.8476 100.906 70.6822 100.756 70.5562C100.606 70.4301 100.424 70.3485 100.23 70.3205L96.0865 69.72C95.8757 69.6895 95.6755 69.6083 95.5032 69.4834C95.3308 69.3585 95.1915 69.1937 95.0973 69.0032L93.2455 65.26C93.1587 65.0846 93.0245 64.937 92.858 64.8337C92.6915 64.7305 92.4993 64.6758 92.3032 64.6758C92.1072 64.6758 91.915 64.7305 91.7485 64.8337C91.582 64.937 91.4477 65.0846 91.361 65.26Z" fill="#FF141A"/>
<path d="M121.115 65.2449L122.968 68.9881C123.062 69.1786 123.202 69.3434 123.374 69.4683C123.546 69.5931 123.746 69.6744 123.957 69.7049L128.1 70.3054C128.294 70.3334 128.476 70.415 128.626 70.5411C128.776 70.6671 128.888 70.8325 128.949 71.0185C129.009 71.2046 129.016 71.4038 128.969 71.5937C128.922 71.7836 128.823 71.9565 128.682 72.0929L125.684 75.0069C125.532 75.155 125.418 75.3378 125.352 75.5394C125.286 75.7411 125.271 75.9557 125.306 76.1648L126.014 80.2797C126.047 80.4723 126.025 80.6703 125.951 80.8512C125.877 81.0321 125.754 81.1887 125.595 81.3035C125.437 81.4182 125.249 81.4863 125.053 81.5003C124.858 81.5143 124.663 81.4734 124.489 81.3824L120.784 79.4399C120.596 79.3411 120.386 79.2895 120.173 79.2895C119.96 79.2895 119.75 79.3411 119.562 79.4399L115.857 81.3824C115.684 81.4734 115.488 81.5143 115.293 81.5003C115.097 81.4863 114.91 81.4182 114.751 81.3035C114.592 81.1887 114.469 81.0321 114.395 80.8512C114.321 80.6703 114.299 80.4723 114.332 80.2797L115.04 76.1648C115.076 75.9557 115.06 75.7411 114.994 75.5394C114.928 75.3377 114.814 75.155 114.662 75.0069L111.664 72.0929C111.524 71.9565 111.424 71.7836 111.377 71.5937C111.33 71.4038 111.337 71.2046 111.398 71.0185C111.458 70.8325 111.57 70.6671 111.72 70.5411C111.87 70.415 112.052 70.3334 112.246 70.3054L116.39 69.7049C116.6 69.6744 116.801 69.5931 116.973 69.4683C117.145 69.3434 117.285 69.1786 117.379 68.9881L119.227 65.2449C119.313 65.0685 119.447 64.9198 119.614 64.8159C119.781 64.7119 119.974 64.6567 120.171 64.6567C120.368 64.6567 120.561 64.7119 120.728 64.8159C120.894 64.9198 121.029 65.0685 121.115 65.2449Z" fill="#FF141A"/>
<path d="M124.489 81.3976L121.966 80.0743V66.9771L122.967 69.0006C123.062 69.1911 123.201 69.3559 123.373 69.4807C123.546 69.6056 123.746 69.6868 123.957 69.7174L128.1 70.3178C128.294 70.3458 128.476 70.4275 128.626 70.5535C128.776 70.6796 128.888 70.845 128.949 71.031C129.009 71.217 129.016 71.4163 128.969 71.6061C128.922 71.796 128.823 71.9689 128.682 72.1054L125.684 75.0194C125.532 75.1675 125.418 75.3502 125.352 75.5519C125.286 75.7536 125.271 75.9682 125.306 76.1772L126.014 80.2921C126.048 80.485 126.026 80.6833 125.953 80.8647C125.879 81.046 125.755 81.2031 125.597 81.3182C125.438 81.4333 125.25 81.5017 125.054 81.5158C124.859 81.5298 124.663 81.4889 124.489 81.3976Z" fill="#FF141A"/>
<path d="M7.94945 65.241L6.09654 68.9848C6.00228 69.1753 5.86298 69.3401 5.69065 69.465C5.51832 69.5898 5.31812 69.6711 5.10731 69.7016L0.964073 70.302C0.769942 70.3301 0.587549 70.4117 0.437552 70.5378C0.287555 70.6638 0.175943 70.8292 0.115348 71.0152C0.0547534 71.2013 0.0476001 71.4005 0.0946937 71.5904C0.141787 71.7802 0.241262 71.9532 0.381832 72.0896L3.37991 75.0036C3.53215 75.1517 3.64605 75.3344 3.71183 75.5361C3.77762 75.7378 3.79331 75.9524 3.75756 76.1615L3.04979 80.2764C3.01693 80.469 3.03875 80.6669 3.11278 80.8479C3.18682 81.0288 3.31012 81.1854 3.46875 81.3001C3.62739 81.4149 3.81504 81.483 4.0105 81.497C4.20595 81.5109 4.40141 81.4701 4.57482 81.3791L8.27957 79.4366C8.46809 79.3378 8.67787 79.2862 8.89085 79.2862C9.10383 79.2862 9.31361 79.3378 9.50213 79.4366L13.2069 81.3791C13.3803 81.4701 13.5758 81.5109 13.7712 81.497C13.9667 81.483 14.1543 81.4149 14.313 81.3001C14.4716 81.1854 14.5949 81.0288 14.6689 80.8479C14.743 80.6669 14.7648 80.469 14.7319 80.2764L14.0241 76.1615C13.9883 75.9524 14.004 75.7378 14.0698 75.5361C14.1356 75.3344 14.2495 75.1517 14.4018 75.0036L17.3999 72.0896C17.5404 71.9532 17.6399 71.7802 17.687 71.5904C17.7341 71.4005 17.7269 71.2013 17.6663 71.0152C17.6057 70.8292 17.4941 70.6638 17.3441 70.5378C17.1941 70.4117 17.0118 70.3301 16.8176 70.302L12.6766 69.7011C12.4658 69.6705 12.2656 69.5893 12.0933 69.4644C11.9209 69.3395 11.7816 69.1748 11.6874 68.9843L9.83445 65.241C9.74777 65.0655 9.61354 64.9177 9.44697 64.8144C9.2804 64.711 9.08813 64.6562 8.89195 64.6562C8.69576 64.6562 8.5035 64.711 8.33693 64.8144C8.17035 64.9177 8.03613 65.0655 7.94945 65.241Z" fill="#FF141A"/>
<path d="M9.7795 65.2393L11.6324 68.9825C11.7267 69.173 11.866 69.3378 12.0383 69.4627C12.2106 69.5875 12.4108 69.6688 12.6217 69.6993L16.7649 70.2998C16.959 70.3278 17.1414 70.4094 17.2914 70.5355C17.4414 70.6615 17.553 70.8269 17.6136 71.0129C17.6742 71.199 17.6814 71.3982 17.6343 71.5881C17.5872 71.7779 17.4877 71.9509 17.3471 72.0873L14.3491 75.0013C14.1968 75.1494 14.0829 75.3321 14.0171 75.5338C13.9514 75.7355 13.9356 75.9501 13.9714 76.1592L14.6792 80.2741C14.712 80.4667 14.6902 80.6646 14.6162 80.8456C14.5421 81.0265 14.4188 81.1831 14.2602 81.2978C14.1016 81.4126 13.9139 81.4807 13.7185 81.4947C13.523 81.5086 13.3275 81.4678 13.1541 81.3768L9.4494 79.4343C9.26088 79.3355 9.05109 79.2839 8.83812 79.2839C8.62514 79.2839 8.41535 79.3355 8.22683 79.4343L4.52208 81.3768C4.34868 81.4678 4.1532 81.5086 3.95775 81.4947C3.76229 81.4807 3.57465 81.4126 3.41602 81.2978C3.25738 81.1831 3.13408 81.0265 3.06005 80.8456C2.98601 80.6646 2.96419 80.4667 2.99706 80.2741L3.70483 76.1592C3.74062 75.9501 3.72495 75.7355 3.65917 75.5338C3.59338 75.3321 3.47944 75.1494 3.32716 75.0013L0.329081 72.0873C0.188511 71.9509 0.089053 71.7779 0.0419594 71.5881C-0.0051343 71.3982 0.00201906 71.199 0.0626139 71.0129C0.123209 70.8269 0.234821 70.6615 0.384818 70.5355C0.534814 70.4094 0.717207 70.3278 0.911339 70.2998L5.05458 69.6993C5.26539 69.6688 5.46558 69.5875 5.63792 69.4627C5.81025 69.3378 5.94954 69.173 6.0438 68.9825L7.89672 65.2393C7.98362 65.0644 8.11782 64.9171 8.28416 64.8142C8.45049 64.7113 8.64236 64.6567 8.83812 64.6567C9.03388 64.6567 9.22574 64.7113 9.39208 64.8142C9.55841 64.9171 9.69259 65.0644 9.7795 65.2393Z" fill="#FF141A"/>
<path d="M4.65845 5.48683C5.58294 5.48683 6.34619 5.61045 6.94818 5.8577C7.55018 6.10495 7.9963 6.47582 8.28655 6.97032C8.58755 7.45406 8.73804 8.06681 8.73804 8.80855C8.73804 9.3998 8.63592 9.89967 8.43167 10.3082C8.23817 10.7059 7.98017 11.0338 7.65768 11.2918C7.34593 11.539 7.00731 11.7379 6.64181 11.8884L9.68941 17H7.65768L5.09382 12.3399H3.33621V17H1.54634V5.48683H4.65845ZM4.57782 6.97032H3.33621V10.8887H4.61007C5.13682 10.8887 5.56682 10.8134 5.90006 10.6629C6.24406 10.5124 6.49668 10.2867 6.65793 9.98567C6.82993 9.68467 6.91593 9.3138 6.91593 8.87305C6.91593 8.41081 6.82993 8.04531 6.65793 7.77656C6.49668 7.49706 6.23869 7.29281 5.88394 7.16382C5.53994 7.03482 5.10457 6.97032 4.57782 6.97032ZM14.3271 8.14743C15.3483 8.14743 16.1169 8.38931 16.6329 8.87305C17.1597 9.34605 17.4231 10.0932 17.4231 11.1144V17H16.1814L15.8428 15.7906H15.7783C15.5311 16.1024 15.2838 16.3604 15.0366 16.5646C14.8001 16.7689 14.5206 16.9194 14.1981 17.0161C13.8863 17.1129 13.4993 17.1612 13.0371 17.1612C12.5533 17.1612 12.118 17.0699 11.731 16.8871C11.344 16.6936 11.0376 16.4034 10.8119 16.0164C10.5861 15.6186 10.4732 15.1241 10.4732 14.5329C10.4732 13.6514 10.785 12.9795 11.4085 12.5173C12.0427 12.055 13.0048 11.8024 14.2948 11.7594L15.6816 11.711V11.2273C15.6816 10.5823 15.5472 10.1308 15.2785 9.8728C15.0205 9.6148 14.655 9.4858 14.182 9.4858C13.7842 9.4858 13.3918 9.5503 13.0048 9.6793C12.6178 9.8083 12.2416 9.96417 11.8761 10.1469L11.344 8.9053C11.7417 8.69031 12.1932 8.51293 12.6985 8.37318C13.2145 8.22268 13.7573 8.14743 14.3271 8.14743ZM14.6335 12.8559C13.752 12.8989 13.1392 13.0655 12.7952 13.3558C12.4512 13.6353 12.2792 14.033 12.2792 14.549C12.2792 15.0005 12.3975 15.3284 12.634 15.5326C12.8812 15.7369 13.1983 15.839 13.5853 15.839C14.1766 15.839 14.6711 15.6509 15.0688 15.2746C15.4773 14.8984 15.6816 14.334 15.6816 13.5815V12.8237L14.6335 12.8559ZM22.9043 15.7745C23.13 15.7745 23.3504 15.753 23.5654 15.71C23.7804 15.667 23.9685 15.6186 24.1298 15.5649V16.8549C23.947 16.9409 23.7051 17.0107 23.4041 17.0645C23.1139 17.129 22.8075 17.1612 22.485 17.1612C22.0335 17.1612 21.6196 17.0806 21.2434 16.9194C20.8672 16.7581 20.5662 16.4786 20.3404 16.0809C20.1147 15.6831 20.0018 15.1295 20.0018 14.42V9.6148H18.8892V8.8408L20.0824 8.19581L20.679 6.35757H21.7594V8.30868H24.0653V9.6148H21.7594V14.3878C21.7594 14.8608 21.8669 15.2101 22.0819 15.4359C22.2969 15.6616 22.571 15.7745 22.9043 15.7745ZM29.0347 8.14743C29.755 8.14743 30.3785 8.30868 30.9052 8.63118C31.432 8.94293 31.8351 9.39443 32.1146 9.98567C32.4048 10.5769 32.55 11.2757 32.55 12.0819V13.0172H27.0836C27.1051 13.9094 27.3201 14.592 27.7286 15.065C28.1371 15.538 28.7122 15.7745 29.454 15.7745C29.9807 15.7745 30.4484 15.7261 30.8569 15.6294C31.2761 15.5219 31.7007 15.366 32.1307 15.1618V16.5808C31.7222 16.7743 31.303 16.9194 30.873 17.0161C30.4537 17.1129 29.9431 17.1612 29.3411 17.1612C28.5564 17.1612 27.8576 16.9946 27.2449 16.6614C26.6321 16.3281 26.1538 15.8336 25.8098 15.1779C25.4658 14.5114 25.2938 13.6944 25.2938 12.7269C25.2938 11.7487 25.4496 10.9209 25.7614 10.2437C26.0731 9.56642 26.5085 9.05043 27.0675 8.69568C27.6373 8.33018 28.293 8.14743 29.0347 8.14743ZM29.0347 9.46968C28.4865 9.46968 28.0458 9.66855 27.7125 10.0663C27.3793 10.464 27.1858 11.0284 27.132 11.7594H30.8246C30.8246 11.3079 30.7601 10.9102 30.6311 10.5662C30.5021 10.2222 30.3032 9.95342 30.0345 9.75992C29.7765 9.56642 29.4432 9.46968 29.0347 9.46968ZM45.7419 12.6463C45.7419 13.3665 45.6505 14.0061 45.4678 14.5651C45.285 15.1241 45.0217 15.5971 44.6777 15.9841C44.3444 16.3711 43.9359 16.6668 43.4522 16.871C42.9684 17.0645 42.4255 17.1612 41.8235 17.1612C41.2753 17.1612 40.7647 17.0645 40.2917 16.871C39.8187 16.6668 39.4102 16.3711 39.0662 15.9841C38.7222 15.5971 38.4534 15.1241 38.2599 14.5651C38.0772 14.0061 37.9858 13.3611 37.9858 12.6302C37.9858 11.6734 38.1417 10.8618 38.4534 10.1953C38.7652 9.5288 39.2113 9.02355 39.7918 8.67956C40.3831 8.32481 41.0818 8.14743 41.888 8.14743C42.6405 8.14743 43.307 8.32481 43.8875 8.67956C44.468 9.02355 44.9195 9.5288 45.242 10.1953C45.5753 10.8618 45.7419 11.6788 45.7419 12.6463ZM39.7918 12.6463C39.7918 13.2913 39.8617 13.8503 40.0014 14.3233C40.1519 14.7855 40.3777 15.1403 40.6787 15.3875C40.9904 15.6348 41.3828 15.7584 41.8558 15.7584C42.3395 15.7584 42.7319 15.6348 43.0329 15.3875C43.3447 15.1403 43.5704 14.7855 43.7102 14.3233C43.8607 13.8503 43.9359 13.2913 43.9359 12.6463C43.9359 11.9798 43.8607 11.4208 43.7102 10.9693C43.5597 10.5178 43.3339 10.1738 43.0329 9.9373C42.7319 9.69005 42.3342 9.56642 41.8397 9.56642C41.1194 9.56642 40.5981 9.83517 40.2756 10.3727C39.9531 10.9102 39.7918 11.668 39.7918 12.6463ZM51.985 8.14743C52.931 8.14743 53.6566 8.40006 54.1619 8.9053C54.6779 9.41055 54.9359 10.2222 54.9359 11.3402V17H53.1944V11.582C53.1944 10.9048 53.06 10.3995 52.7912 10.0663C52.5333 9.7223 52.1301 9.5503 51.5819 9.5503C50.7756 9.5503 50.222 9.81367 49.921 10.3404C49.62 10.8672 49.4695 11.625 49.4695 12.614V17H47.728V8.30868H49.0986L49.3405 9.46968H49.4373C49.62 9.16868 49.8404 8.92143 50.0984 8.72793C50.3564 8.53443 50.6466 8.38931 50.9691 8.29256C51.2916 8.19581 51.6303 8.14743 51.985 8.14743Z" fill="#16313B"/>
</g>
</svg>
