<svg width="103" height="88" viewBox="0 0 103 88" fill="none" xmlns="http://www.w3.org/2000/svg">
<circle cx="52.0262" cy="34.4241" r="33.5838" fill="#E7E7E7"/>
<rect x="10.6475" y="59.4121" width="82.1604" height="15.7924" fill="#24B8EB"/>
<path d="M85.61 67.2085H103.002L98.004 75.4045L85.0103 76.0043L85.61 67.2085Z" fill="#24B8EB"/>
<path d="M85.0103 83.4004H103.002L98.004 75.2043L85.0103 74.6046V83.4004Z" fill="#24B8EB"/>
<path d="M18.2431 67.2085H0.85144L5.84903 75.4045L18.8428 76.0043L18.2431 67.2085Z" fill="#24B8EB"/>
<path d="M18.8428 83.4009H0.85144L5.84903 75.2048L18.8428 74.6051V83.4009Z" fill="#24B8EB"/>
<path d="M92.8076 75.2046H85.0114V82.8009L92.8076 75.2046Z" fill="#008BB8"/>
<path d="M10.6475 75.2046H18.4437V82.8009L10.6475 75.2046Z" fill="#008BB8"/>
<path d="M17.7961 70.2109L17.3006 68.8679H15.5012L15.0057 70.2109H14.2755L16.0423 65.5363H16.7725L18.5329 70.2109H17.7961ZM16.6356 66.9446C16.6226 66.8967 16.5987 66.825 16.5639 66.7294C16.5335 66.6294 16.5031 66.5295 16.4726 66.4295C16.4422 66.3252 16.4183 66.2404 16.4009 66.1752C16.3792 66.2622 16.3531 66.3578 16.3227 66.4621C16.2966 66.5621 16.2705 66.6555 16.2444 66.7424C16.2184 66.825 16.1966 66.8924 16.1792 66.9446L15.7098 68.255H17.105L16.6356 66.9446ZM22.7726 68.568C22.7726 68.8896 22.7053 69.1808 22.5705 69.4416C22.4401 69.6981 22.238 69.9023 21.9642 70.0545C21.6903 70.2022 21.3448 70.2761 20.9275 70.2761C20.3364 70.2761 19.8866 70.1197 19.578 69.8067C19.2737 69.4894 19.1216 69.0722 19.1216 68.5549V65.5558H19.8257V68.5223C19.8257 68.9048 19.9192 69.1939 20.1061 69.3895C20.293 69.5807 20.5776 69.6763 20.9601 69.6763C21.2209 69.6763 21.4339 69.6285 21.5991 69.5329C21.7642 69.4373 21.8838 69.3047 21.9577 69.1352C22.0359 68.9613 22.075 68.7549 22.075 68.5158V65.5558H22.7726V68.568ZM25.5388 70.2109H24.8347V66.1622H23.4395V65.5558H26.934V66.1622H25.5388V70.2109ZM31.2793 70.2109H30.5752V68.0855H28.3519V70.2109H27.6478V65.5558H28.3519V67.4857H30.5752V65.5558H31.2793V70.2109ZM36.6323 67.8769C36.6323 68.2376 36.5867 68.5658 36.4954 68.8614C36.4085 69.1526 36.2737 69.4047 36.0912 69.6176C35.913 69.8306 35.6869 69.9936 35.4131 70.1066C35.1436 70.2196 34.8285 70.2761 34.4677 70.2761C34.0983 70.2761 33.7767 70.2196 33.5028 70.1066C33.2333 69.9893 33.0073 69.8263 32.8248 69.6176C32.6466 69.4047 32.514 69.1504 32.4271 68.8548C32.3401 68.5593 32.2967 68.2311 32.2967 67.8704C32.2967 67.3922 32.3749 66.975 32.5314 66.6186C32.6879 66.2622 32.9269 65.984 33.2486 65.784C33.5745 65.5841 33.9831 65.4841 34.4743 65.4841C34.9524 65.4841 35.3501 65.5841 35.6674 65.784C35.989 65.9796 36.2303 66.2578 36.3911 66.6186C36.5519 66.975 36.6323 67.3944 36.6323 67.8769ZM33.0399 67.8769C33.0399 68.2507 33.0899 68.5723 33.1899 68.8418C33.2899 69.1069 33.4463 69.3134 33.6593 69.4612C33.8723 69.6046 34.1418 69.6763 34.4677 69.6763C34.7981 69.6763 35.0676 69.6046 35.2762 69.4612C35.4848 69.3134 35.6391 69.1069 35.7391 68.8418C35.8391 68.5723 35.8891 68.2507 35.8891 67.8769C35.8891 67.3162 35.776 66.8794 35.55 66.5664C35.3284 66.2491 34.9698 66.0905 34.4743 66.0905C34.1439 66.0905 33.8723 66.1622 33.6593 66.3056C33.4463 66.4491 33.2899 66.6533 33.1899 66.9185C33.0899 67.1836 33.0399 67.5031 33.0399 67.8769ZM38.9478 65.5558C39.3477 65.5558 39.6759 65.6058 39.9323 65.7058C40.1887 65.8058 40.38 65.9557 40.506 66.1557C40.6321 66.3513 40.6951 66.599 40.6951 66.8989C40.6951 67.138 40.6495 67.3401 40.5582 67.5052C40.4713 67.6661 40.3583 67.7986 40.2192 67.903C40.0801 68.0029 39.9345 68.0833 39.7823 68.1442L41.0863 70.2109H40.2778L39.1565 68.3267H38.348V70.2109H37.6439V65.5558H38.9478ZM38.9022 66.1557H38.348V67.74H38.9348C39.1738 67.74 39.3694 67.7095 39.5216 67.6487C39.678 67.5878 39.791 67.4966 39.8606 67.3749C39.9345 67.2532 39.9714 67.1032 39.9714 66.925C39.9714 66.7381 39.9323 66.5903 39.8541 66.4817C39.7802 66.3686 39.6628 66.2861 39.502 66.2339C39.3455 66.1817 39.1456 66.1557 38.9022 66.1557ZM43.204 70.2109H41.398V69.8067L41.9522 69.6437V66.1296L41.398 65.9601V65.5558H43.204V65.9601L42.6563 66.1296V69.6437L43.204 69.8067V70.2109ZM46.9692 70.2109H43.6768V69.7089L46.063 66.1622H43.7485V65.5558H46.9106V66.0579L44.5243 69.6046H46.9692V70.2109ZM50.4392 70.2109H47.8182V65.5558H50.4392V66.1557H48.5224V67.4857H50.3218V68.079H48.5224V69.6046H50.4392V70.2109ZM55.2158 67.8378C55.2158 68.3593 55.118 68.7962 54.9224 69.1482C54.7268 69.5003 54.4443 69.7654 54.0748 69.9436C53.7097 70.1218 53.2685 70.2109 52.7513 70.2109H51.4474V65.5558H52.8882C53.362 65.5558 53.7727 65.6428 54.1205 65.8166C54.4682 65.9905 54.7377 66.2469 54.9289 66.586C55.1202 66.9206 55.2158 67.3379 55.2158 67.8378ZM54.479 67.8573C54.479 67.4661 54.416 67.1445 54.29 66.8924C54.1639 66.6403 53.977 66.4534 53.7293 66.3317C53.4859 66.21 53.1903 66.1491 52.8426 66.1491H52.1515V69.6176H52.7187C53.3055 69.6176 53.7445 69.4699 54.0357 69.1743C54.3313 68.8787 54.479 68.4397 54.479 67.8573ZM59.2265 65.5558C59.835 65.5558 60.2783 65.6797 60.5565 65.9275C60.8347 66.1709 60.9738 66.5121 60.9738 66.9511C60.9738 67.1467 60.9412 67.3336 60.876 67.5118C60.8151 67.69 60.713 67.8508 60.5695 67.9942C60.4261 68.1333 60.2349 68.2442 59.9958 68.3267C59.7611 68.405 59.4721 68.4441 59.1287 68.4441H58.6267V70.2109H57.9225V65.5558H59.2265ZM59.1743 66.1491H58.6267V67.8508H59.0504C59.3156 67.8508 59.5373 67.8225 59.7155 67.766C59.8937 67.7052 60.0262 67.6117 60.1132 67.4857C60.2044 67.3553 60.2501 67.1858 60.2501 66.9772C60.2501 66.699 60.1631 66.4925 59.9893 66.3578C59.8198 66.2187 59.5481 66.1491 59.1743 66.1491ZM64.4912 70.2109L63.9957 68.8679H62.1962L61.7007 70.2109H60.9705L62.7374 65.5363H63.4676L65.2279 70.2109H64.4912ZM63.3307 66.9446C63.3176 66.8967 63.2937 66.825 63.2589 66.7294C63.2285 66.6294 63.1981 66.5295 63.1677 66.4295C63.1372 66.3252 63.1133 66.2404 63.0959 66.1752C63.0742 66.2622 63.0481 66.3578 63.0177 66.4621C62.9916 66.5621 62.9655 66.6555 62.9395 66.7424C62.9134 66.825 62.8917 66.8924 62.8743 66.9446L62.4048 68.255H63.8001L63.3307 66.9446ZM67.1597 65.5558C67.5595 65.5558 67.8877 65.6058 68.1441 65.7058C68.4006 65.8058 68.5918 65.9557 68.7179 66.1557C68.8439 66.3513 68.907 66.599 68.907 66.8989C68.907 67.138 68.8613 67.3401 68.77 67.5052C68.6831 67.6661 68.5701 67.7986 68.431 67.903C68.2919 68.0029 68.1463 68.0833 67.9942 68.1442L69.2981 70.2109H68.4897L67.3683 68.3267H66.5599V70.2109H65.8557V65.5558H67.1597ZM67.114 66.1557H66.5599V67.74H67.1466C67.3857 67.74 67.5813 67.7095 67.7334 67.6487C67.8899 67.5878 68.0029 67.4966 68.0724 67.3749C68.1463 67.2532 68.1833 67.1032 68.1833 66.925C68.1833 66.7381 68.1441 66.5903 68.0659 66.4817C67.992 66.3686 67.8747 66.2861 67.7138 66.2339C67.5574 66.1817 67.3574 66.1557 67.114 66.1557ZM71.5462 70.2109H70.8421V66.1622H69.4469V65.5558H72.9415V66.1622H71.5462V70.2109ZM77.4758 70.2109H76.6217L74.2681 66.4491H74.242C74.2463 66.536 74.2507 66.6294 74.255 66.7294C74.2637 66.8294 74.2702 66.9359 74.2746 67.0489C74.2789 67.1575 74.2833 67.2705 74.2876 67.3879C74.292 67.5009 74.2941 67.6161 74.2941 67.7334V70.2109H73.6552V65.5558H74.5028L76.8499 69.2982H76.8694C76.8651 69.233 76.8607 69.1526 76.8564 69.0569C76.852 68.957 76.8477 68.8505 76.8434 68.7375C76.8434 68.6245 76.8412 68.5093 76.8368 68.3919C76.8325 68.2746 76.8281 68.1637 76.8238 68.0594V65.5558H77.4758V70.2109ZM81.3378 70.2109H78.7169V65.5558H81.3378V66.1557H79.421V67.4857H81.2205V68.079H79.421V69.6046H81.3378V70.2109ZM83.65 65.5558C84.0499 65.5558 84.378 65.6058 84.6345 65.7058C84.8909 65.8058 85.0822 65.9557 85.2082 66.1557C85.3343 66.3513 85.3973 66.599 85.3973 66.8989C85.3973 67.138 85.3517 67.3401 85.2604 67.5052C85.1734 67.6661 85.0604 67.7986 84.9214 67.903C84.7823 68.0029 84.6367 68.0833 84.4845 68.1442L85.7885 70.2109H84.98L83.8586 68.3267H83.0502V70.2109H82.3461V65.5558H83.65ZM83.6044 66.1557H83.0502V67.74H83.637C83.876 67.74 84.0716 67.7095 84.2237 67.6487C84.3802 67.5878 84.4932 67.4966 84.5628 67.3749C84.6367 67.2532 84.6736 67.1032 84.6736 66.925C84.6736 66.7381 84.6345 66.5903 84.5562 66.4817C84.4824 66.3686 84.365 66.2861 84.2042 66.2339C84.0477 66.1817 83.8478 66.1557 83.6044 66.1557Z" fill="white"/>
<path d="M29.0862 84.3052H28.4343V79.7051H26.8188V79.1329H30.6944V79.7051H29.0862V84.3052ZM34.3648 84.3052H31.4744V79.1329H34.3648V79.7051H32.1264V81.3206H34.2344V81.8856H32.1264V83.7329H34.3648V84.3052ZM37.7164 79.6327C37.4411 79.6327 37.1924 79.681 36.9703 79.7776C36.7481 79.8693 36.5597 80.007 36.4052 80.1905C36.2507 80.3692 36.1323 80.5889 36.0502 80.8497C35.9681 81.1057 35.9271 81.3954 35.9271 81.719C35.9271 82.144 35.9923 82.5135 36.1227 82.8274C36.2579 83.1413 36.4559 83.3828 36.7167 83.5518C36.9823 83.7208 37.3131 83.8053 37.7092 83.8053C37.9361 83.8053 38.151 83.786 38.3539 83.7474C38.5567 83.7087 38.7547 83.6604 38.9479 83.6025V84.1675C38.7547 84.24 38.5543 84.2931 38.3466 84.3269C38.1438 84.3607 37.8999 84.3776 37.615 84.3776C37.0886 84.3776 36.6491 84.269 36.2965 84.0516C35.944 83.8343 35.6784 83.5252 35.4997 83.1244C35.3258 82.7235 35.2389 82.2527 35.2389 81.7118C35.2389 81.3206 35.292 80.9632 35.3983 80.6396C35.5093 80.3161 35.6687 80.036 35.8764 79.7993C36.0889 79.5627 36.3497 79.3816 36.6588 79.256C36.9678 79.1256 37.3228 79.0604 37.7236 79.0604C37.9893 79.0604 38.2452 79.087 38.4915 79.1401C38.7378 79.1932 38.9576 79.2681 39.1507 79.3647L38.89 79.9152C38.7306 79.8428 38.5519 79.7776 38.3539 79.7196C38.1607 79.6617 37.9482 79.6327 37.7164 79.6327ZM44.0321 84.3052H43.3801V81.8929H40.7288V84.3052H40.0768V79.1329H40.7288V81.3206H43.3801V79.1329H44.0321V84.3052ZM49.5464 84.3052H48.7858L46.0185 80.0094H45.9896C45.9944 80.0963 45.9992 80.1929 46.004 80.2992C46.0137 80.4054 46.0209 80.5213 46.0258 80.6469C46.0306 80.7676 46.0354 80.8932 46.0403 81.0236C46.0451 81.154 46.0475 81.2844 46.0475 81.4148V84.3052H45.4462V79.1329H46.1996L48.9597 83.4141H48.9886C48.9838 83.3562 48.979 83.2765 48.9741 83.1751C48.9693 83.0688 48.9645 82.9529 48.9597 82.8274C48.9548 82.697 48.95 82.5642 48.9452 82.4289C48.9403 82.2937 48.9379 82.1682 48.9379 82.0522V79.1329H49.5464V84.3052ZM55.4632 81.7118C55.4632 82.1126 55.4125 82.4772 55.3111 82.8056C55.2097 83.1292 55.0575 83.4093 54.8547 83.646C54.6567 83.8826 54.408 84.0637 54.1085 84.1893C53.8139 84.3148 53.4711 84.3776 53.0799 84.3776C52.6742 84.3776 52.3217 84.3148 52.0222 84.1893C51.7228 84.0589 51.4741 83.8778 51.2761 83.646C51.0781 83.4093 50.9308 83.1268 50.8342 82.7984C50.7376 82.47 50.6893 82.1054 50.6893 81.7045C50.6893 81.1733 50.7762 80.7097 50.9501 80.3137C51.124 79.9176 51.3872 79.6086 51.7397 79.3864C52.0971 79.1642 52.5462 79.0532 53.0871 79.0532C53.6039 79.0532 54.0385 79.1642 54.3911 79.3864C54.7436 79.6037 55.0092 79.9128 55.1879 80.3137C55.3714 80.7097 55.4632 81.1757 55.4632 81.7118ZM51.3775 81.7118C51.3775 82.1464 51.4379 82.5207 51.5586 82.8346C51.6793 83.1485 51.8653 83.39 52.1164 83.559C52.3724 83.7281 52.6935 83.8126 53.0799 83.8126C53.4711 83.8126 53.7898 83.7281 54.0361 83.559C54.2872 83.39 54.4732 83.1485 54.5939 82.8346C54.7146 82.5207 54.775 82.1464 54.775 81.7118C54.775 81.0598 54.6398 80.5503 54.3693 80.1833C54.0989 79.8114 53.6715 79.6255 53.0871 79.6255C52.6959 79.6255 52.3724 79.71 52.1164 79.879C51.8653 80.0432 51.6793 80.2823 51.5586 80.5962C51.4379 80.9053 51.3775 81.2771 51.3775 81.7118ZM56.6096 84.3052V79.1329H57.2616V83.7256H59.5217V84.3052H56.6096ZM64.7801 81.7118C64.7801 82.1126 64.7294 82.4772 64.628 82.8056C64.5266 83.1292 64.3745 83.4093 64.1716 83.646C63.9736 83.8826 63.7249 84.0637 63.4255 84.1893C63.1309 84.3148 62.788 84.3776 62.3968 84.3776C61.9911 84.3776 61.6386 84.3148 61.3392 84.1893C61.0397 84.0589 60.791 83.8778 60.593 83.646C60.395 83.4093 60.2477 83.1268 60.1511 82.7984C60.0545 82.47 60.0062 82.1054 60.0062 81.7045C60.0062 81.1733 60.0932 80.7097 60.267 80.3137C60.4409 79.9176 60.7041 79.6086 61.0566 79.3864C61.414 79.1642 61.8632 79.0532 62.4041 79.0532C62.9208 79.0532 63.3554 79.1642 63.708 79.3864C64.0605 79.6037 64.3262 79.9128 64.5049 80.3137C64.6884 80.7097 64.7801 81.1757 64.7801 81.7118ZM60.6944 81.7118C60.6944 82.1464 60.7548 82.5207 60.8755 82.8346C60.9963 83.1485 61.1822 83.39 61.4333 83.559C61.6893 83.7281 62.0105 83.8126 62.3968 83.8126C62.788 83.8126 63.1067 83.7281 63.353 83.559C63.6042 83.39 63.7901 83.1485 63.9108 82.8346C64.0316 82.5207 64.0919 82.1464 64.0919 81.7118C64.0919 81.0598 63.9567 80.5503 63.6863 80.1833C63.4158 79.8114 62.9884 79.6255 62.4041 79.6255C62.0129 79.6255 61.6893 79.71 61.4333 79.879C61.1822 80.0432 60.9963 80.2823 60.8755 80.5962C60.7548 80.9053 60.6944 81.2771 60.6944 81.7118ZM68.1722 81.5741H69.9615V84.1096C69.6814 84.2013 69.3989 84.269 69.1139 84.3124C68.829 84.3559 68.5054 84.3776 68.1432 84.3776C67.6072 84.3776 67.1556 84.2714 66.7886 84.0589C66.4215 83.8416 66.1414 83.5349 65.9483 83.1389C65.7599 82.738 65.6657 82.2647 65.6657 81.719C65.6657 81.1781 65.772 80.7097 65.9845 80.3137C66.197 79.9176 66.5012 79.611 66.8972 79.3936C67.2981 79.1715 67.781 79.0604 68.3461 79.0604C68.6358 79.0604 68.9087 79.087 69.1647 79.1401C69.4254 79.1932 69.6669 79.2681 69.8891 79.3647L69.6428 79.9297C69.4592 79.8476 69.2516 79.7776 69.0198 79.7196C68.7928 79.6617 68.5561 79.6327 68.3098 79.6327C67.8993 79.6327 67.5468 79.7172 67.2522 79.8862C66.9576 80.0553 66.733 80.2967 66.5785 80.6107C66.424 80.9197 66.3467 81.2892 66.3467 81.719C66.3467 82.1295 66.4119 82.4941 66.5423 82.8129C66.6775 83.1268 66.8876 83.3731 67.1725 83.5518C67.4575 83.7256 67.8317 83.8126 68.2954 83.8126C68.4499 83.8126 68.5851 83.8077 68.701 83.7981C68.8218 83.7836 68.9304 83.7667 69.027 83.7474C69.1284 83.7281 69.2226 83.7087 69.3095 83.6894V82.1537H68.1722V81.5741ZM72.5443 81.6756L73.8917 79.1329H74.5944L72.8703 82.2985V84.3052H72.2183V82.3275L70.4942 79.1329H71.2042L72.5443 81.6756Z" fill="black"/>
<path fill-rule="evenodd" clip-rule="evenodd" d="M35.6772 46.6123V43.6237C35.6772 43.231 35.9223 42.9156 36.3282 42.9156H36.4405C36.8463 42.9156 37.0902 43.2314 37.0902 43.6237V49.9156C37.0902 51.4499 36.3335 52.6707 35.0147 53.4485C34.4106 53.8069 33.7211 53.9953 33.0189 53.9937H32.7386C31.2065 53.9937 29.9894 53.2351 29.2116 51.9151C28.8532 51.3101 28.6652 50.6191 28.6675 49.9156V49.6352C28.6675 48.1004 29.4246 46.8802 30.7423 46.101C31.3463 45.7418 32.0362 45.5534 32.7386 45.5558H33.0189C34.0558 45.5558 34.9354 45.9584 35.6772 46.6123ZM30.0803 49.7751C30.0803 50.8834 30.6166 51.7167 31.5862 52.2482C31.9782 52.463 32.4039 52.5785 32.8512 52.5785C33.9372 52.5785 34.7429 52.0652 35.2985 51.1434C35.5569 50.7145 35.6772 50.2453 35.6772 49.7464C35.6772 48.7857 35.2232 48.0359 34.4502 47.479C33.9815 47.1414 33.454 46.9721 32.8787 46.9721C31.6949 46.9721 30.8429 47.5712 30.3316 48.6353C30.1591 48.9952 30.0803 49.3771 30.0803 49.7751ZM41.9922 45.5558H42.188C43.8252 45.5558 45.0703 46.3513 45.8593 47.7827C46.1747 48.3553 46.3436 48.9804 46.3436 49.6352V49.9156C46.3436 51.4499 45.5883 52.6724 44.2675 53.4486C43.6561 53.8079 42.9807 53.9937 42.2721 53.9937H41.9922C40.4601 53.9937 39.2425 53.2351 38.4652 51.9151C38.1066 51.3101 37.9184 50.6191 37.9205 49.9156V49.6352C37.9205 48.1002 38.6807 46.8841 39.9951 46.1014C40.6061 45.7377 41.2821 45.5558 41.9922 45.5558ZM39.3335 49.7751C39.3335 50.8509 39.8605 51.6424 40.7677 52.1989C41.1937 52.4601 41.6629 52.5785 42.1605 52.5785C43.2218 52.5785 44.0062 52.0395 44.5522 51.1423C44.8126 50.7145 44.9304 50.2445 44.9304 49.7464C44.9304 48.746 44.4493 47.9818 43.6269 47.428C43.1764 47.1243 42.6747 46.9721 42.132 46.9721C40.9482 46.9721 40.0963 47.5712 39.5852 48.6353C39.4123 48.9952 39.3335 49.3771 39.3335 49.7751ZM52.2176 47.0852C52.0043 46.9851 51.6049 46.9518 51.3745 46.9431C50.1939 46.8985 49.3398 47.5645 48.8387 48.6076C48.6656 48.9674 48.5867 49.3482 48.5867 49.7464C48.5867 50.9587 49.2222 51.8075 50.3024 52.325C50.697 52.5138 51.2065 52.5496 51.6378 52.5496C52.0171 52.5496 52.5532 52.3169 52.8898 52.1567L52.9481 52.129H53.2094L53.2383 52.1348C53.5596 52.2018 53.8021 52.4059 53.8021 52.7522V52.8923C53.8021 53.754 52.2299 53.9513 51.6299 53.9933C49.5128 54.14 47.9295 52.9754 47.3259 50.9527C47.2211 50.6014 47.1738 50.2526 47.1738 49.8865V49.6065C47.1738 48.0717 47.9342 46.8559 49.2484 46.074C49.8595 45.7105 50.5353 45.5279 51.2452 45.5279H51.5253C52.2784 45.5279 52.972 45.7421 53.5938 46.1675L53.6449 46.203L53.6772 46.2563C53.7443 46.3677 53.8021 46.4967 53.8021 46.6293V46.7694C53.8021 47.1306 53.5322 47.325 53.2065 47.3878L53.1795 47.3926H53.096C52.8852 47.3926 52.4058 47.1739 52.2176 47.0852ZM56.8008 48.0436C57.3497 47.493 57.9004 46.9436 58.4575 46.4022C58.6127 46.2512 59.2004 45.6119 59.4318 45.6119H59.6849L59.7137 45.6179C60.0361 45.6849 60.2775 45.8893 60.2775 46.2364V46.3763C60.2775 46.613 60.0007 46.8881 59.8481 47.0501C59.5235 47.3948 59.1818 47.7281 58.8495 48.0657L57.1424 49.8016C57.8774 50.5395 58.6117 51.278 59.3408 52.0216C59.543 52.2268 59.7436 52.4336 59.9427 52.6419C60.0129 52.7158 60.1165 52.8079 60.1754 52.9104C60.2387 53.0064 60.2775 53.1147 60.2775 53.2304V53.3765L60.2693 53.4103C60.19 53.7332 59.9854 53.9937 59.6282 53.9937H59.5157C59.2819 53.9937 59.0178 53.7288 58.8577 53.5774C58.5277 53.2658 58.2091 52.9381 57.8856 52.6198L56.8008 51.5531V53.2579C56.8008 53.6507 56.5554 53.9663 56.15 53.9663H56.0388C55.6329 53.9663 55.3878 53.6507 55.3878 53.2579V43.6511C55.3878 43.2584 55.6331 42.9442 56.0388 42.9442H56.15C56.5554 42.9442 56.8008 43.2584 56.8008 43.6511V48.0436ZM74.4116 45.6119H74.5521C74.9758 45.6119 75.2587 45.8979 75.2587 46.32C75.2587 46.906 74.6994 47.0559 74.2156 47.0559C73.581 47.0559 72.9751 47.4408 72.5376 47.8724C71.9922 48.4111 71.7535 49.1009 71.7535 49.8593V53.2857C71.7535 53.6784 71.5086 53.9937 71.1025 53.9937H70.9909C70.5848 53.9937 70.3401 53.6786 70.3401 53.2857V49.6626C70.3401 48.2713 71.0163 47.1356 72.1436 46.339C72.8166 45.8632 73.5876 45.6121 74.4116 45.6121V45.6119ZM64.3689 52.4022C64.8831 52.5821 65.4694 52.5564 65.9969 52.4643C66.2668 52.3494 66.9568 52.0479 67.2106 52.0921L67.2502 52.0988L67.2867 52.1167C67.4417 52.192 67.5896 52.2985 67.6687 52.4565C67.8536 52.8267 67.7648 53.1989 67.4016 53.4092L67.2807 53.4791C65.9404 54.254 64.5148 54.1466 63.1787 53.4229C62.5399 53.0769 62.0512 52.5635 61.6907 51.9375L61.6065 51.7912C60.746 50.2986 60.8621 48.7285 61.8326 47.3091C62.1676 46.8185 62.6054 46.4395 63.1172 46.143L63.3109 46.0311C64.5731 45.3012 65.926 45.3512 67.2223 45.9918C67.9194 46.3363 68.4842 46.8497 68.8733 47.525L68.9433 47.6466C69.226 48.1373 68.8598 48.5647 68.4818 48.8569C68.0431 49.1959 67.6001 49.604 67.1796 49.9674C66.242 50.7782 65.3058 51.5909 64.3689 52.4022ZM63.1554 51.5485C64.2039 50.648 65.2527 49.7466 66.2985 48.8423C66.6559 48.5336 67.0478 48.2132 67.4023 47.8887C67.1178 47.5296 66.6426 47.2707 66.2389 47.1164C65.4238 46.8053 64.6202 46.9098 63.8727 47.342C62.8944 47.9078 62.4777 48.8089 62.5142 49.9302C62.5288 50.3718 62.6473 50.7974 62.8813 51.1731C62.9637 51.3056 63.0558 51.43 63.1554 51.5485ZM55.5298 23.1866H59.6995V27.4561H61.8076C62.7814 27.4561 63.7826 27.2824 64.7046 26.9695C65.1577 26.8156 65.6661 26.6015 66.1131 26.3321C65.5244 25.5624 65.2239 24.5905 65.1357 23.6325C65.0153 22.3292 65.2779 20.6331 66.1583 19.6132L66.5967 19.1054L67.1189 19.526C68.4338 20.5842 69.5398 22.0629 69.7347 23.7486C71.3181 23.2821 73.1771 23.3925 74.5727 24.1992L75.1452 24.5302L74.844 25.1194C73.6636 27.4267 71.1959 28.1416 68.7834 28.015C65.1734 37.0215 57.314 41.2854 47.7845 41.2854C42.8611 41.2854 38.3443 39.4419 35.772 35.0666L35.7299 34.9953L35.3552 34.2315C34.4857 32.3056 34.1969 30.1958 34.3927 28.0876L34.4516 27.4561H38.0173V23.1866H42.1868V19.0101H50.5262V14.8335H55.5298V23.1866Z" fill="#364548"/>
<path fill-rule="evenodd" clip-rule="evenodd" d="M69.0364 24.7665C69.316 22.59 67.6899 20.8806 66.6815 20.0688C65.5194 21.4146 65.3389 24.9417 67.162 26.4267C66.1445 27.3319 64.0006 28.1524 61.8053 28.1524H35.0828C34.8695 30.4478 35.2718 32.5616 36.1906 34.3708L36.4946 34.9279C36.6871 35.2549 36.8974 35.571 37.1246 35.8748C38.2233 35.9455 39.2362 35.9697 40.1629 35.9493H40.1633C41.9844 35.9091 43.4704 35.6936 44.5966 35.3027C44.6762 35.2779 44.7623 35.2851 44.8368 35.3227C44.9112 35.3604 44.9681 35.4256 44.9954 35.5045C45.0227 35.5834 45.0183 35.6699 44.9831 35.7456C44.9479 35.8213 44.8847 35.8803 44.8068 35.9102C44.6569 35.9624 44.5009 36.011 44.3397 36.0572H44.3391C43.4523 36.3109 42.5014 36.4815 41.2745 36.5573C41.3475 36.5586 41.1987 36.5683 41.1983 36.5683C41.1566 36.571 41.104 36.5771 41.0621 36.5793C40.5792 36.6065 40.0581 36.6121 39.5252 36.6121C38.9425 36.6121 38.3686 36.6012 37.7269 36.5683L37.7105 36.5793C39.937 39.086 43.4184 40.5894 47.7824 40.5894C57.0181 40.5894 64.8518 36.4885 68.3209 27.2818C70.7819 27.5348 73.1471 26.9061 74.223 24.8023C72.5093 23.8118 70.3054 24.1276 69.0364 24.7665Z" fill="#22A0C8"/>
<path fill-rule="evenodd" clip-rule="evenodd" d="M69.0401 24.7665C69.3196 22.59 67.6936 20.8806 66.6852 20.0688C65.5231 21.4146 65.3426 24.9417 67.1657 26.4267C66.1482 27.3319 64.0043 28.1524 61.809 28.1524H36.6689C36.5599 31.6677 37.8622 34.3361 40.1664 35.9493H40.167C41.9881 35.9091 43.4741 35.6936 44.6003 35.3027C44.6799 35.2779 44.766 35.2851 44.8404 35.3227C44.9148 35.3604 44.9717 35.4256 44.999 35.5045C45.0263 35.5834 45.0219 35.6699 44.9868 35.7456C44.9516 35.8213 44.8884 35.8803 44.8105 35.9102C44.6606 35.9624 44.5045 36.011 44.3433 36.0572H44.3428C43.456 36.3109 42.4234 36.5035 41.1965 36.5793C41.1961 36.5793 41.1668 36.551 41.1664 36.551C44.3096 38.166 48.8671 38.1601 54.0923 36.1497C59.9512 33.895 65.4033 29.5997 69.2073 24.6869C69.15 24.7128 69.0942 24.7393 69.0401 24.7665Z" fill="#37B1D9"/>
<path fill-rule="evenodd" clip-rule="evenodd" d="M35.1323 30.9414C35.2983 32.171 35.6575 33.3223 36.19 34.3709L36.4939 34.928C36.6864 35.255 36.8967 35.5711 37.124 35.8749C38.2228 35.9456 39.2357 35.9699 40.1626 35.9494C41.9838 35.9092 43.4697 35.6937 44.5959 35.3028C44.6755 35.278 44.7617 35.2852 44.8361 35.3228C44.9105 35.3605 44.9674 35.4257 44.9947 35.5046C45.022 35.5835 45.0176 35.67 44.9824 35.7457C44.9472 35.8214 44.884 35.8804 44.8062 35.9103C44.6563 35.9626 44.5002 36.0111 44.339 36.0573H44.3384C43.4517 36.3111 42.4245 36.4926 41.1977 36.5686C41.1555 36.5712 41.082 36.5717 41.0396 36.5741C40.5571 36.6011 40.0412 36.6177 39.5082 36.6177C38.9256 36.6177 38.3296 36.6066 37.6883 36.5739C39.9148 39.0806 43.4178 40.5895 47.7818 40.5895C55.6885 40.5895 62.5674 37.5834 66.56 30.9414H35.1323Z" fill="#1B81A5"/>
<path fill-rule="evenodd" clip-rule="evenodd" d="M36.9077 30.9414C37.3804 33.1004 38.5162 34.7952 40.1652 35.9494C41.9863 35.9092 43.4723 35.6937 44.5985 35.3028C44.6781 35.278 44.7643 35.2852 44.8387 35.3228C44.9131 35.3605 44.97 35.4257 44.9973 35.5046C45.0246 35.5835 45.0202 35.67 44.985 35.7457C44.9498 35.8214 44.8866 35.8804 44.8088 35.9103C44.6589 35.9626 44.5028 36.0111 44.3416 36.0573H44.341C43.4543 36.3111 42.4054 36.4926 41.1784 36.5686C44.3213 38.1833 48.8657 38.1601 54.0906 36.1498C57.2514 34.9333 60.2936 33.1225 63.0228 30.9414H36.9077Z" fill="#1D91B4"/>
<path fill-rule="evenodd" clip-rule="evenodd" d="M38.7148 23.8826H42.3287V27.5024H38.7148V23.8826ZM39.0159 24.1844H39.3011V27.2009H39.0159V24.1844ZM39.552 24.1844H39.8487V27.2009H39.5522V24.1844H39.552ZM40.0994 24.1844H40.3961V27.2009H40.0994V24.1844ZM40.6472 24.1844H40.9437V27.2009H40.6472V24.1844ZM41.1948 24.1844H41.4913V27.2009H41.1948V24.1844ZM41.7422 24.1844H42.0276V27.2009H41.7422V24.1844ZM42.8845 19.7061H46.4985V23.3257H42.8843V19.7061H42.8845ZM43.1857 20.0078H43.4707V23.0241H43.1857V20.0078ZM43.7218 20.0078H44.0183V23.0241H43.722V20.0078H43.7218ZM44.2692 20.0078H44.5657V23.0241H44.2692V20.0078ZM44.8168 20.0078H45.1133V23.0241H44.8168V20.0078ZM45.3644 20.0078H45.6611V23.0241H45.3644V20.0078ZM45.9118 20.0078H46.1974V23.0241H45.9118V20.0078Z" fill="#23A3C2"/>
<path fill-rule="evenodd" clip-rule="evenodd" d="M42.8849 23.8828H46.4989V27.5026H42.8848V23.8828H42.8849ZM43.1862 24.1846H43.4712V27.2011H43.1862V24.1846ZM43.7223 24.1846H44.0188V27.2011H43.7225V24.1846H43.7223ZM44.2697 24.1846H44.5662V27.2011H44.2697V24.1846ZM44.8173 24.1846H45.1138V27.2011H44.8173V24.1846ZM45.3649 24.1846H45.6616V27.2011H45.3649V24.1846ZM45.9123 24.1846H46.1979V27.2011H45.9123V24.1846Z" fill="#34BBDE"/>
<path fill-rule="evenodd" clip-rule="evenodd" d="M47.0518 23.8828H50.6656V27.5026H47.0518V23.8828ZM47.3528 24.1846H47.6378V27.2011H47.3528V24.1846ZM47.8889 24.1846H48.1854V27.2011H47.8889V24.1846ZM48.4365 24.1846H48.733V27.2011H48.4365V24.1846ZM48.9841 24.1846H49.2806V27.2011H48.9841V24.1846ZM49.5315 24.1846H49.8284V27.2011H49.5315V24.1846ZM50.0791 24.1846H50.3643V27.2011H50.0791V24.1846Z" fill="#23A3C2"/>
<path fill-rule="evenodd" clip-rule="evenodd" d="M47.0518 19.7061H50.6656V23.3257H47.0518V19.7061ZM47.3528 20.0078H47.6378V23.0241H47.3528V20.0078ZM47.8889 20.0078H48.1854V23.0241H47.8889V20.0078ZM48.4365 20.0078H48.733V23.0241H48.4365V20.0078ZM48.9841 20.0078H49.2806V23.0241H48.9841V20.0078ZM49.5315 20.0078H49.8284V23.0241H49.5315V20.0078ZM50.0791 20.0078H50.3643V23.0241H50.0791V20.0078ZM51.2214 23.8826H54.8352V27.5024H51.2214V23.8826ZM51.5226 24.1844H51.8076V27.2009H51.5226V24.1844ZM52.0587 24.1844H52.3552V27.2009H52.0587V24.1844ZM52.6061 24.1844H52.9026V27.2009H52.6061V24.1844ZM53.1537 24.1844H53.4504V27.2009H53.1537V24.1844ZM53.7013 24.1844H53.998V27.2009H53.7013V24.1844ZM54.2489 24.1844H54.5341V27.2009H54.2489V24.1844Z" fill="#34BBDE"/>
<path fill-rule="evenodd" clip-rule="evenodd" d="M51.2217 19.7061H54.8355V23.3257H51.2217V19.7061ZM51.5229 20.0078H51.8079V23.0241H51.5229V20.0078ZM52.059 20.0078H52.3555V23.0241H52.059V20.0078ZM52.6064 20.0078H52.9029V23.0241H52.6064V20.0078ZM53.154 20.0078H53.4507V23.0241H53.154V20.0078ZM53.7016 20.0078H53.9983V23.0241H53.7016V20.0078ZM54.2492 20.0078H54.5344V23.0241H54.2492V20.0078Z" fill="#23A3C2"/>
<path fill-rule="evenodd" clip-rule="evenodd" d="M51.2217 15.5298H54.8355V19.15H51.2217V15.5298ZM51.5229 15.8313H51.8079V18.8481H51.5229V15.8312V15.8313ZM52.059 15.8313H52.3555V18.8481H52.059V15.8312V15.8313ZM52.6064 15.8313H52.9029V18.8481H52.6064V15.8312V15.8313ZM53.154 15.8313H53.4507V18.8481H53.154V15.8312V15.8313ZM53.7016 15.8313H53.9983V18.8481H53.7016V15.8312V15.8313ZM54.2492 15.8313H54.5344V18.8481H54.2492V15.8312V15.8313Z" fill="#34BBDE"/>
<path fill-rule="evenodd" clip-rule="evenodd" d="M55.3936 23.8828H59.0074V27.5026H55.3936V23.8828ZM55.6944 24.1846H55.9798V27.2011H55.6946V24.1846H55.6944ZM56.2305 24.1846H56.5272V27.2011H56.2307V24.1846H56.2305ZM56.7783 24.1846H57.075V27.2011H56.7783V24.1846ZM57.3257 24.1846H57.6224V27.2011H57.3257V24.1846ZM57.8735 24.1846H58.17V27.2011H57.8735V24.1846ZM58.4209 24.1846H58.7061V27.2011H58.4209V24.1846Z" fill="#23A3C2"/>
<path fill-rule="evenodd" clip-rule="evenodd" d="M46.267 33.3712C46.3991 33.3694 46.5302 33.394 46.6527 33.4434C46.7752 33.4928 46.8867 33.5661 46.9807 33.659C47.0747 33.7519 47.1493 33.8626 47.2003 33.9847C47.2512 34.1068 47.2774 34.2377 47.2774 34.37C47.2774 34.5023 47.2511 34.6333 47.2001 34.7553C47.1491 34.8774 47.0745 34.9881 46.9804 35.081C46.8864 35.1738 46.7749 35.2471 46.6523 35.2965C46.5298 35.3458 46.3987 35.3703 46.2666 35.3685C46.0045 35.3649 45.7544 35.2581 45.5704 35.0711C45.3863 34.8842 45.2832 34.6322 45.2832 34.3697C45.2833 34.1071 45.3865 33.8551 45.5706 33.6683C45.7547 33.4814 46.0049 33.3747 46.267 33.3712Z" fill="#D3ECEC"/>
<path fill-rule="evenodd" clip-rule="evenodd" d="M46.2702 33.6546C46.3614 33.6546 46.4484 33.6718 46.5286 33.703C46.4732 33.7352 46.43 33.7848 46.4056 33.8441C46.3811 33.9033 46.3769 33.969 46.3934 34.031C46.41 34.0929 46.4464 34.1477 46.4972 34.1868C46.5479 34.2259 46.6101 34.2472 46.6741 34.2473C46.7844 34.2473 46.8802 34.1862 46.9298 34.0956C46.9885 34.2373 47.0002 34.3941 46.9631 34.543C46.9259 34.6918 46.842 34.8248 46.7237 34.9222C46.6053 35.0196 46.4589 35.0763 46.3059 35.0839C46.1529 35.0915 46.0015 35.0497 45.8741 34.9645C45.7467 34.8793 45.65 34.7554 45.5984 34.6109C45.5467 34.4665 45.5428 34.3093 45.5872 34.1624C45.6316 34.0156 45.722 33.8869 45.8449 33.7955C45.9679 33.7041 46.117 33.6547 46.2702 33.6546ZM28.6362 31.3019H75.0128C74.0031 31.0454 71.818 30.6987 72.1783 29.373C70.3421 31.5013 65.9141 30.8662 64.7964 29.8169C63.5521 31.6248 56.3073 30.9375 55.802 29.529C54.2418 31.3631 49.4075 31.3631 47.8474 29.529C47.3417 30.9375 40.0971 31.6248 38.8526 29.8167C37.7351 30.8662 33.3073 31.5013 31.471 29.3732C31.8314 30.6987 29.6463 31.0454 28.6362 31.3021" fill="#364548"/>
<path fill-rule="evenodd" clip-rule="evenodd" d="M48.9206 40.5676C46.4516 39.394 45.0965 37.7985 44.3425 36.0571C43.4253 36.3192 42.323 36.4869 41.042 36.5589C40.5595 36.5859 40.0518 36.5998 39.5194 36.5998C38.9052 36.5998 38.258 36.5815 37.5786 36.5455C39.8429 38.8123 42.6283 40.5573 47.7858 40.5891C48.1666 40.5891 48.5444 40.5818 48.9206 40.5676Z" fill="#BDD9D7"/>
<path fill-rule="evenodd" clip-rule="evenodd" d="M45.2571 37.664C44.9156 37.1995 44.5843 36.6157 44.3406 36.0566C43.4234 36.3191 42.3207 36.4868 41.0396 36.5589C41.9196 37.0373 43.178 37.4806 45.2573 37.664" fill="#D3ECEC"/>
</svg>
