<svg width="15" height="14" viewBox="0 0 15 14" fill="none" xmlns="http://www.w3.org/2000/svg">
<g clip-path="url(#clip0_4373_15956)">
<path d="M7.5 14C11.366 14 14.5 10.866 14.5 7C14.5 3.13401 11.366 0 7.5 0C3.63401 0 0.5 3.13401 0.5 7C0.5 10.866 3.63401 14 7.5 14Z" fill="#016BE3"/>
<path fill-rule="evenodd" clip-rule="evenodd" d="M10.2975 4.89852C10.1075 4.89559 9.92309 4.96704 9.78177 5.10015C7.93632 6.69068 8.18043 7.02934 6.40839 8.68935C6.16888 8.41921 5.93304 8.14319 5.71922 7.84956C5.58891 7.65478 5.47879 7.44728 5.39069 7.22803C5.06124 6.36181 3.61682 7.0078 4.09676 7.94254C4.3271 8.52786 5.7082 10.4805 6.32121 10.4981C7.40866 10.5295 8.67689 8.01987 10.771 6.21695C11.0656 5.92625 11.0775 5.44371 10.7976 5.13735C10.6646 4.99347 10.4838 4.90831 10.292 4.90048L10.2975 4.89852Z" fill="white"/>
</g>
<defs>
<clipPath id="clip0_4373_15956">
<rect width="14" height="14" fill="white" transform="translate(0.5)"/>
</clipPath>
</defs>
</svg>
