<svg width="109" height="62" viewBox="0 0 109 62" fill="none" xmlns="http://www.w3.org/2000/svg">
<path d="M1 3.58643C1 2.15798 2.15798 1 3.58643 1H105.414C106.842 1 108 2.15798 108 3.58643V58.4136C108 59.842 106.842 61 105.414 61H3.58642C2.15798 61 1 59.842 1 58.4136V3.58643Z" fill="#04101F" fill-opacity="0.49"/>
<path d="M3.58643 0.5C1.88184 0.5 0.5 1.88184 0.5 3.58643V58.4136C0.5 60.1182 1.88184 61.5 3.58642 61.5H105.414C107.118 61.5 108.5 60.1182 108.5 58.4136V3.58643C108.5 1.88184 107.118 0.5 105.414 0.5H3.58643Z" stroke="white" stroke-opacity="0.03"/>
<path d="M42.4604 25.5842C42.7681 25.7819 43.2447 25.9506 43.8336 26.0635C44.4224 26.2321 45.039 26.26 45.6846 26.26C46.3012 26.26 46.8623 26.1763 47.3667 26.0343C47.8711 25.8657 48.32 25.6412 48.7121 25.3585C49.0766 25.077 49.3855 24.7397 49.5821 24.2883C49.7776 23.866 49.8898 23.4158 49.8898 22.8807C49.8898 22.2607 49.6944 21.6977 49.33 21.1905C48.9655 20.7112 48.3477 20.3169 47.4789 20.0353L45.7968 19.4723C45.1802 19.2758 44.7036 19.0501 44.4502 18.7965C44.2269 18.5708 44.0858 18.2893 44.0858 17.9228C44.0858 17.4448 44.2824 17.0504 44.6469 16.8526C45.039 16.6282 45.5446 16.4874 46.2457 16.4874C47.1145 16.4874 47.8433 16.6561 48.5722 16.9655C48.7689 17.0504 48.9366 17.1354 49.0488 17.1354C49.2455 17.1354 49.33 17.0225 49.33 16.741V16.2617C49.33 16.093 49.301 15.9523 49.2177 15.8674C49.1333 15.7545 49.021 15.6417 48.8533 15.5579C48.7411 15.473 48.5444 15.3881 48.3477 15.3602C48.1522 15.2764 47.9278 15.2473 47.6756 15.1636C47.4512 15.1345 47.17 15.0507 46.8901 15.0507C46.6101 14.9658 46.329 14.9658 46.0768 14.9658C45.5157 14.9658 45.068 15.0508 44.5913 15.1636C44.1147 15.3323 43.6936 15.5288 43.3292 15.7824C42.9648 16.0639 42.7126 16.3746 42.4604 16.7689C42.2359 17.1633 42.1515 17.5855 42.1515 18.1206C42.1515 18.7407 42.3481 19.3316 42.7403 19.8667C43.1325 20.4297 43.7503 20.824 44.6746 21.0776L46.4134 21.6407C47.0023 21.8384 47.3945 22.035 47.6189 22.2607C47.8433 22.4864 47.9278 22.7679 47.9278 23.0773C47.9278 23.5566 47.7311 23.9509 47.3112 24.2325C46.8901 24.514 46.329 24.6268 45.5446 24.6268C45.068 24.6268 44.5913 24.5989 44.1425 24.4581C43.6658 24.3732 43.2447 24.2325 42.797 24.0347C42.6848 24.0068 42.5726 23.9509 42.4881 23.923C42.4037 23.8939 42.3192 23.8939 42.2637 23.8939C42.067 23.8939 41.9837 24.0068 41.9837 24.2883V24.8804C41.9837 24.9932 42.0115 25.1049 42.067 25.2468C42.1515 25.3876 42.2637 25.4713 42.4604 25.5842Z" fill="white"/>
<path d="M22.1601 19.7533C21.7389 19.6684 21.2903 19.6683 20.8978 19.6683C19.692 19.6683 18.7107 19.979 17.9537 20.6269C17.1967 21.2458 16.8601 22.0915 16.8601 23.1047C16.8601 24.0911 17.1405 24.8507 17.7294 25.4429C18.3181 26.0338 19.1033 26.3153 20.1127 26.3153C21.5146 26.3153 22.6922 25.7523 23.6455 24.6542C23.7577 24.9357 23.8699 25.1613 24.0099 25.3579C24.1499 25.5557 24.291 25.7523 24.431 25.9209C24.5432 26.0338 24.6555 26.0908 24.7954 26.0908C24.8787 26.0908 24.9909 26.0629 25.1031 25.978L25.8609 25.4708C26.0287 25.3579 26.0854 25.2451 26.0854 25.1043C26.0854 25.0206 26.0564 24.9357 26.0009 24.8228C25.8332 24.5134 25.692 24.2319 25.6087 23.9504C25.5243 23.6689 25.4965 23.3303 25.4965 22.8802V18.9367C25.4965 17.6408 25.1876 16.6555 24.5143 15.9797C23.8422 15.3038 22.8322 14.9932 21.3744 14.9932C20.7014 14.9932 20.0846 15.0781 19.4958 15.2189C18.935 15.3875 18.4304 15.5283 18.0097 15.7819C17.8415 15.8668 17.7294 15.9505 17.7013 16.0076C17.6172 16.0925 17.6172 16.2333 17.6172 16.4298V17.0219C17.6172 17.2464 17.7013 17.4151 17.8415 17.4151C17.8695 17.4151 17.9537 17.4151 18.0378 17.3872C18.1219 17.3593 18.2621 17.3035 18.4583 17.2185C18.879 17.0499 19.3275 16.9091 19.7482 16.8242C20.1687 16.7113 20.6173 16.6555 21.038 16.6555C21.9911 16.6555 22.6077 16.8521 23.0011 17.2185C23.3933 17.585 23.561 18.2329 23.561 19.1624V20.0348C23.0566 19.9219 22.6367 19.8382 22.1601 19.7533ZM23.5333 21.8937C23.5333 22.288 23.5055 22.6545 23.421 22.9081C23.3366 23.1896 23.2256 23.4711 23.0289 23.6689C22.72 24.0341 22.3278 24.2877 21.8791 24.4285C21.4585 24.5983 21.0099 24.6542 20.6173 24.6542C20.0566 24.6542 19.6359 24.4855 19.3556 24.2319C19.0752 23.9504 18.935 23.5269 18.935 22.9639C18.935 22.373 19.1313 21.8937 19.5238 21.5843C19.9164 21.2749 20.5052 21.105 21.2903 21.105C21.6548 21.105 22.0478 21.1329 22.44 21.1899C22.8322 21.2178 23.1966 21.3028 23.5333 21.3865V21.8937Z" fill="white"/>
<path d="M29.5901 25.387C29.6733 25.6114 29.7578 25.7813 29.8145 25.865C29.8978 25.95 30.039 25.9779 30.2912 25.9779H31.2999C31.5244 25.9779 31.6921 25.95 31.7766 25.865C31.861 25.7813 31.9455 25.6406 32.001 25.387L33.852 17.6128L35.7308 25.387C35.7586 25.6114 35.8419 25.7813 35.9541 25.865C36.0385 25.95 36.2352 25.9779 36.4307 25.9779H37.4407C37.6374 25.9779 37.8051 25.95 37.9173 25.865C38.0018 25.7813 38.114 25.6406 38.1418 25.387L41.0571 16.0924C41.086 15.9796 41.1416 15.8667 41.1416 15.8109C41.1416 15.726 41.1693 15.6981 41.1693 15.6131C41.1693 15.4166 41.086 15.3316 40.8894 15.3316H39.7961C39.5717 15.3316 39.404 15.3595 39.3195 15.4445C39.235 15.5294 39.1505 15.6702 39.095 15.9226L37.0196 24.0061L35.0853 15.8946C35.0575 15.6702 34.9731 15.5003 34.8608 15.4166C34.7764 15.3316 34.5809 15.3037 34.3842 15.3037H33.4032C33.1787 15.3037 33.011 15.3316 32.9265 15.4166C32.8421 15.5003 32.7576 15.641 32.7021 15.8946L30.8233 23.8654L28.8323 15.8946C28.749 15.6702 28.6646 15.5003 28.6078 15.4166C28.5246 15.3316 28.3846 15.3037 28.1312 15.3037H26.9547C26.758 15.3037 26.6736 15.3874 26.6736 15.5852C26.6736 15.6702 26.7013 15.8109 26.7858 16.0645L29.5901 25.387Z" fill="white"/>
<path d="M47.3682 31.2168C42.9651 33.1037 38.1432 34.0052 33.7968 34.0052C27.3194 34.0052 21.0392 32.23 15.9642 29.2451C15.5437 28.9636 15.1791 29.4417 15.5717 29.8081C20.2822 34.061 26.4783 36.6237 33.4046 36.6237C38.3109 36.6237 44.0306 35.0754 48.0126 32.1172C48.5737 31.667 48.0403 30.9632 47.3682 31.2168Z" fill="#FF9900"/>
<path d="M44.9001 29.5824C44.5357 29.8081 44.6202 30.1745 44.9846 30.1454C46.2456 29.9767 49.1054 29.6394 49.5832 30.3153C50.0876 30.9341 49.0221 33.6387 48.5732 34.8497C48.4055 35.2161 48.741 35.3569 49.0776 35.0742C51.2086 33.3002 51.742 29.5545 51.3208 29.0473C50.8719 28.4272 47.1433 28.005 44.9001 29.5824Z" fill="#FF9900"/>
<path d="M60.7407 23.4983C60.6574 23.4983 60.573 23.4704 60.573 23.3297V16.8235C60.573 16.7386 60.6007 16.6548 60.7407 16.6548H60.9374C61.0496 16.6548 61.1051 16.6828 61.1051 16.8235L61.1341 17.2179C61.414 16.9922 61.7229 16.8235 62.0029 16.7107C62.2828 16.5978 62.564 16.542 62.8717 16.542C63.4895 16.542 63.9661 16.7677 64.3305 17.2179C64.695 17.6401 64.8904 18.2881 64.8904 19.0209C64.8904 19.8096 64.695 20.4285 64.3305 20.9078C63.9372 21.3858 63.4605 21.6115 62.7884 21.6115C62.1996 21.6115 61.694 21.3858 61.1896 20.9357V23.3018C61.1896 23.3855 61.1618 23.4704 61.0219 23.4704H60.7407V23.4983ZM62.704 21.1335C63.2083 21.1335 63.6005 20.9636 63.8817 20.6263C64.1616 20.2598 64.2738 19.7526 64.2738 19.0768C64.2738 17.7251 63.7694 17.0771 62.7317 17.0771C62.2273 17.0771 61.6662 17.2749 61.1618 17.6972V20.4855C61.4418 20.71 61.6662 20.8799 61.9184 20.9915C62.1706 21.0485 62.4518 21.1335 62.704 21.1335Z" fill="white"/>
<path d="M67.1925 21.6115C66.7726 21.6115 66.4069 21.4987 66.127 21.2172C65.847 20.9915 65.7348 20.6263 65.7348 20.204C65.7348 19.7247 65.9026 19.3862 66.2115 19.1047C66.5192 18.8232 66.9681 18.7103 67.5014 18.7103C67.9213 18.7103 68.3702 18.7953 68.8746 18.936V18.1473C68.8746 17.753 68.7913 17.4715 68.5946 17.3307C68.398 17.162 68.118 17.105 67.6969 17.105C67.277 17.105 66.8003 17.19 66.3237 17.3307C66.2959 17.3307 66.2115 17.3586 66.1547 17.3586C66.0715 17.3586 66.0715 17.3307 66.0715 17.2458V17.0492C66.0715 17.0213 66.0715 16.9643 66.0993 16.9364C66.127 16.9084 66.127 16.9084 66.1837 16.8514C66.6881 16.6548 67.1925 16.542 67.7813 16.542C68.3425 16.542 68.7624 16.6548 69.0435 16.9084C69.3235 17.1329 69.4357 17.4994 69.4357 17.9786V21.3579C69.4357 21.4429 69.4079 21.5278 69.268 21.5278H69.0713C68.9868 21.5278 68.9035 21.4987 68.9035 21.3579L68.8746 20.9636C68.3702 21.415 67.7813 21.6115 67.1925 21.6115ZM67.277 21.1335C67.5014 21.1335 67.7813 21.1043 68.0613 20.9636C68.3424 20.8507 68.6224 20.7391 68.9313 20.5413V19.3583C68.5102 19.2454 68.118 19.1896 67.6691 19.1896C66.7726 19.1896 66.3237 19.5561 66.3237 20.204C66.3237 20.4855 66.4069 20.71 66.5481 20.8799C66.7159 21.0485 66.9681 21.1335 67.277 21.1335Z" fill="white"/>
<path d="M71.0872 21.5282C71.0027 21.5282 70.9195 21.4991 70.9195 21.3584V16.8239C70.9195 16.7402 70.9472 16.6553 71.0872 16.6553H71.2839C71.3961 16.6553 71.4516 16.6832 71.4516 16.8239L71.4793 17.387C71.7038 17.1055 71.956 16.9089 72.1804 16.8239C72.4049 16.7111 72.686 16.6553 72.966 16.6553C73.0782 16.6553 73.1627 16.6553 73.1904 16.6553C73.2737 16.6553 73.3581 16.6832 73.3581 16.8239V17.0496C73.3581 17.0775 73.3581 17.0775 73.3304 17.1333C73.3304 17.1625 73.3026 17.1625 73.2459 17.1625C73.2182 17.1625 73.1337 17.1625 73.0782 17.1625C73.0504 17.1625 72.966 17.1625 72.8815 17.1625C72.6016 17.1625 72.3204 17.1904 72.0972 17.3311C71.8727 17.444 71.676 17.6126 71.4239 17.8383V21.3584C71.4239 21.4433 71.3961 21.5282 71.2549 21.5282H71.0872Z" fill="white"/>
<path d="M75.8539 21.5836C75.4606 21.5836 75.1806 21.4708 74.9839 21.2742C74.7884 21.0764 74.6762 20.7949 74.6762 20.4006V17.2179H73.9184C73.8352 17.2179 73.7507 17.1899 73.7507 17.0492V16.9643C73.7507 16.9364 73.7507 16.8805 73.7784 16.8514C73.7784 16.8235 73.8062 16.8235 73.8907 16.8235L74.6762 16.7398L74.7595 15.4718C74.7595 15.4439 74.7884 15.3869 74.7884 15.359C74.8162 15.331 74.8162 15.3311 74.9007 15.3311H75.0684C75.1528 15.3311 75.2361 15.359 75.2361 15.4997V16.7677H76.6105C76.695 16.7677 76.7782 16.7956 76.7782 16.9364V17.1341C76.7782 17.2179 76.7505 17.3028 76.6105 17.3028H75.2361V20.4855C75.2361 20.767 75.2651 20.9078 75.4051 21.0485C75.5173 21.1614 75.7127 21.2172 75.9662 21.2172C76.1616 21.2172 76.3306 21.2172 76.4428 21.1893C76.5261 21.1893 76.5538 21.1614 76.6105 21.1614C76.6383 21.1614 76.695 21.1614 76.695 21.1614C76.7782 21.1614 76.8072 21.1893 76.8072 21.2742V21.4429C76.8072 21.5557 76.7782 21.6115 76.695 21.6394C76.4428 21.5278 76.1894 21.5836 75.8539 21.5836Z" fill="white"/>
<path d="M77.9861 21.5274C77.9017 21.5274 77.8172 21.4983 77.8172 21.3575V16.8231C77.8172 16.7394 77.8462 16.6544 77.9861 16.6544H78.1828C78.2938 16.6544 78.3506 16.6823 78.3506 16.8231L78.3783 17.2174C78.6872 16.9917 78.9949 16.8231 79.3593 16.7102C79.7249 16.5974 80.0327 16.5137 80.3416 16.5137C80.8182 16.5137 81.1549 16.6265 81.4071 16.8801C81.6315 17.1046 81.7715 17.471 81.7715 17.9782V21.3296C81.7715 21.4146 81.7437 21.4983 81.6025 21.4983H81.3226C81.2381 21.4983 81.1549 21.4704 81.1549 21.3296V18.2597C81.1549 17.8375 81.0704 17.556 80.9304 17.3582C80.7615 17.1616 80.5093 17.0767 80.1726 17.0767C79.556 17.0767 78.9117 17.2745 78.3228 17.6967V21.4145C78.3228 21.4983 78.2938 21.5832 78.1539 21.5832H77.9584V21.5274H77.9861Z" fill="white"/>
<path d="M85.276 21.6394C84.5194 21.6394 83.9306 21.4429 83.5939 21.0206C83.2005 20.5984 83.0051 19.9504 83.0051 19.0768C83.0051 18.2881 83.2005 17.668 83.5939 17.2179C83.9861 16.7956 84.5472 16.542 85.1916 16.542C85.7804 16.542 86.2015 16.7107 86.5382 17.0492C86.8459 17.3586 87.0148 17.8379 87.0148 18.4567C87.0148 18.6824 87.0148 18.8802 86.9859 19.0489C86.9859 19.1326 86.9026 19.2175 86.8181 19.2175H83.5939C83.5939 19.8934 83.7616 20.4006 84.0138 20.71C84.295 21.0206 84.7716 21.1893 85.3605 21.1893C85.8371 21.1893 86.257 21.1043 86.6504 20.9636C86.7337 20.9357 86.8181 20.9357 86.8181 20.9357C86.8459 20.9357 86.8459 20.9357 86.9026 20.9636C86.9026 20.9915 86.9304 20.9915 86.9304 21.0485V21.2172C86.9304 21.33 86.9026 21.3858 86.8181 21.415C86.3137 21.5278 85.8371 21.6394 85.276 21.6394ZM86.4537 18.7673C86.4537 18.6824 86.4537 18.5696 86.4537 18.4567C86.4537 17.9786 86.3415 17.668 86.1448 17.4436C85.9204 17.2179 85.5849 17.0771 85.1638 17.0771C84.1538 17.0771 83.6217 17.6401 83.5662 18.7673H86.4537Z" fill="white"/>
<path d="M88.3054 21.5282C88.2209 21.5282 88.1377 21.4991 88.1377 21.3584V16.8239C88.1377 16.7402 88.1654 16.6553 88.3054 16.6553H88.5021C88.6143 16.6553 88.6698 16.6832 88.6698 16.8239L88.6976 17.387C88.922 17.1055 89.1742 16.9089 89.3987 16.8239C89.6231 16.7111 89.9043 16.6553 90.1842 16.6553C90.2964 16.6553 90.3809 16.6553 90.4086 16.6553C90.4931 16.6553 90.5764 16.6832 90.5764 16.8239V17.0496C90.5764 17.0775 90.5764 17.0775 90.5486 17.1333C90.5486 17.1625 90.5209 17.1625 90.4642 17.1625C90.4086 17.1625 90.3519 17.1625 90.2964 17.1625C90.2687 17.1625 90.1842 17.1625 90.0997 17.1625C89.8198 17.1625 89.5398 17.1904 89.3154 17.3311C89.091 17.444 88.8943 17.6126 88.6421 17.8383V21.3584C88.6421 21.4433 88.6143 21.5282 88.4743 21.5282H88.3054Z" fill="white"/>
<path d="M60.7407 32.1438C60.6574 32.1438 60.573 32.1159 60.573 31.9751V27.4686C60.573 27.3849 60.6007 27.2999 60.7407 27.2999H60.9374C61.0496 27.2999 61.1051 27.3278 61.1051 27.4686L61.1341 27.8629C61.4418 27.6373 61.7507 27.4686 62.1151 27.3558C62.4795 27.2429 62.7884 27.1592 63.0961 27.1592C63.5728 27.1592 63.9094 27.272 64.1616 27.5256C64.3861 27.7501 64.526 28.1165 64.526 28.6237V31.9751C64.526 32.06 64.4983 32.1438 64.3583 32.1438H64.0772C63.9939 32.1438 63.9094 32.1159 63.9094 31.9751V28.8494C63.9094 28.426 63.825 28.1444 63.685 27.9479C63.5173 27.7501 63.2651 27.6664 62.9284 27.6664C62.3118 27.6664 61.6662 27.8629 61.0774 28.2852V32.003C61.0774 32.088 61.0496 32.1729 60.9096 32.1729H60.713V32.1438H60.7407Z" fill="white"/>
<path d="M68.0578 32.2849C67.3 32.2849 66.7124 32.0884 66.3757 31.6661C65.9823 31.2439 65.7868 30.5959 65.7868 29.7223C65.7868 28.9336 65.9823 28.3147 66.3757 27.8634C66.7679 27.4411 67.329 27.1875 67.9733 27.1875C68.5622 27.1875 68.9833 27.3562 69.32 27.6947C69.6277 28.0041 69.7966 28.4834 69.7966 29.1035C69.7966 29.3279 69.7966 29.5257 69.7676 29.6944C69.7676 29.7793 69.6844 29.863 69.5999 29.863H66.3757C66.3757 30.5389 66.5434 31.0461 66.7956 31.3555C67.0768 31.6661 67.5534 31.8348 68.1423 31.8348C68.6189 31.8348 69.0388 31.7498 69.431 31.6091C69.5155 31.5812 69.5999 31.5812 69.5999 31.5812C69.6277 31.5812 69.6277 31.5812 69.6844 31.6091C69.6844 31.6382 69.7121 31.6382 69.7121 31.694V31.8627C69.7121 31.9755 69.6844 32.0326 69.5999 32.0605C69.1233 32.1733 68.5899 32.2849 68.0578 32.2849ZM69.2355 29.385C69.2355 29.3 69.2355 29.1872 69.2355 29.0743C69.2355 28.5963 69.1233 28.2856 68.9266 28.0611C68.7022 27.8355 68.3655 27.6947 67.9456 27.6947C66.9356 27.6947 66.4034 28.2577 66.3467 29.385H69.2355Z" fill="white"/>
<path d="M72.4604 32.2293C72.067 32.2293 71.787 32.1165 71.5903 31.9199C71.3949 31.7221 71.2826 31.4406 71.2826 31.0462V27.8077H70.5249C70.4416 27.8077 70.3571 27.7798 70.3571 27.6391V27.5541C70.3571 27.5262 70.3571 27.4692 70.3849 27.4413C70.3849 27.4134 70.4126 27.4134 70.4971 27.4134L71.2826 27.3284L71.3659 26.0616C71.3659 26.0337 71.3949 25.9767 71.3949 25.9488C71.4226 25.9209 71.4226 25.9209 71.5059 25.9209H71.6748C71.7593 25.9209 71.8425 25.9488 71.8425 26.0895V27.3575H73.2169C73.3014 27.3575 73.3847 27.3855 73.3847 27.5262V27.7228C73.3847 27.8077 73.3569 27.8927 73.2169 27.8927H71.8715V31.0754C71.8715 31.3569 71.8992 31.4976 72.0392 31.6384C72.1792 31.7791 72.3481 31.807 72.6003 31.807C72.7958 31.807 72.9647 31.807 73.077 31.7791C73.1602 31.7791 73.1892 31.7512 73.2447 31.7512C73.2724 31.7512 73.3291 31.7512 73.3291 31.7512C73.4136 31.7512 73.4414 31.7791 73.4414 31.8629V32.0327C73.4414 32.1456 73.4136 32.2014 73.3291 32.2293C73.0492 32.1735 72.7681 32.2293 72.4604 32.2293Z" fill="white"/>
<path d="M75.5451 32.1442C75.4607 32.1442 75.3774 32.1163 75.3484 32.0326L73.863 27.5819C73.8353 27.4969 73.8353 27.469 73.8353 27.4132C73.8353 27.3562 73.863 27.3283 73.9475 27.3283H74.2552C74.3397 27.3283 74.3674 27.3562 74.4241 27.4411L75.7128 31.4975L76.8628 27.4411C76.8906 27.3562 76.9473 27.3283 77.0595 27.3283H77.4239C77.5084 27.3283 77.5916 27.3562 77.6206 27.4411L78.7694 31.4975L80.116 27.3853C80.1438 27.3004 80.1993 27.2725 80.2837 27.2725H80.5637C80.6481 27.2725 80.6759 27.3004 80.6759 27.3562C80.6759 27.3853 80.6759 27.4411 80.6481 27.5261L79.0783 31.9755C79.0505 32.0605 78.9938 32.0884 78.8816 32.0884H78.5739C78.4894 32.0884 78.4049 32.0605 78.3772 31.9755L77.2272 27.9204L76.0785 31.9755C76.0495 32.0605 75.994 32.0884 75.8818 32.0884H75.6018V32.1442H75.5451Z" fill="white"/>
<path d="M83.454 32.2845C82.7529 32.2845 82.193 32.06 81.7996 31.6087C81.4075 31.1864 81.2108 30.5385 81.2108 29.7219C81.2108 28.9332 81.4075 28.3143 81.7996 27.835C82.193 27.4128 82.7529 27.1592 83.454 27.1592C84.1551 27.1592 84.7162 27.3849 85.1083 27.835C85.5017 28.2573 85.6972 28.9052 85.6972 29.7219C85.6972 30.5106 85.5017 31.1306 85.1083 31.6087C84.6884 32.06 84.1551 32.2845 83.454 32.2845ZM83.454 31.7786C84.5484 31.7786 85.1083 31.1027 85.1083 29.7219C85.1083 28.3422 84.5484 27.6664 83.454 27.6664C82.3607 27.6664 81.7996 28.3422 81.7996 29.7219C81.7996 31.1027 82.333 31.7786 83.454 31.7786Z" fill="white"/>
<path d="M87.0422 32.1437C86.9577 32.1437 86.8732 32.1157 86.8732 31.975V27.4685C86.8732 27.3848 86.9022 27.2998 87.0422 27.2998H87.2376C87.3499 27.2998 87.4066 27.3277 87.4066 27.4685L87.4343 28.0315C87.6588 27.75 87.911 27.5534 88.1354 27.4685C88.3599 27.3556 88.6398 27.2998 88.921 27.2998C89.0332 27.2998 89.1164 27.2998 89.1442 27.2998C89.2287 27.2998 89.3131 27.3277 89.3131 27.4685V27.6942C89.3131 27.7221 89.3131 27.7221 89.2854 27.7791C89.2564 27.807 89.2564 27.807 89.2009 27.807C89.1731 27.807 89.0887 27.807 89.0332 27.807C89.0042 27.807 88.921 27.807 88.8365 27.807C88.5565 27.807 88.2754 27.8349 88.0509 27.9757C87.8265 28.0885 87.631 28.2572 87.3788 28.4829V32.0029C87.3788 32.0878 87.3499 32.1728 87.2099 32.1728H87.0144V32.1437H87.0422Z" fill="white"/>
<path d="M90.3208 32.1446C90.2376 32.1446 90.1531 32.1166 90.1531 31.9759V25.1882C90.1531 25.1033 90.1808 25.0195 90.3208 25.0195H90.602C90.6864 25.0195 90.7697 25.0474 90.7697 25.1882V29.469L93.0407 27.4136C93.1251 27.3286 93.2096 27.3286 93.2651 27.3286H93.6295C93.714 27.3286 93.7417 27.3565 93.7417 27.4136C93.7417 27.4694 93.714 27.4973 93.6295 27.5822L91.303 29.6389L93.8262 31.9759C93.8539 32.0038 93.9107 32.0608 93.9107 32.0887C93.9107 32.1737 93.8829 32.1737 93.7984 32.1737H93.4051C93.3218 32.1737 93.2373 32.1445 93.2096 32.0887L90.7697 29.8076V32.0038C90.7697 32.0887 90.7419 32.1737 90.602 32.1737H90.3208V32.1446Z" fill="white"/>
<path d="M17.3089 44.3429C16.7761 44.1451 16.3836 43.8928 16.1593 43.61C15.9349 43.3285 15.8228 42.9633 15.8228 42.5119C15.8228 41.9489 16.0191 41.4987 16.4397 41.1602C16.8602 40.8217 17.4211 40.653 18.122 40.653C18.7108 40.653 19.2716 40.7659 19.8324 40.9916V42.0047C19.2435 41.8361 18.7108 41.7232 18.2061 41.7232C17.5052 41.7232 17.1406 41.9489 17.1406 42.3991C17.1406 42.569 17.1968 42.7097 17.3089 42.8213C17.4211 42.9342 17.6734 43.047 18.0098 43.1599L18.6828 43.4135C19.2435 43.61 19.636 43.8636 19.8604 44.1172C20.0847 44.3988 20.2249 44.7373 20.2249 45.1874C20.2249 45.8075 20.0006 46.2868 19.5519 46.652C19.1033 47.0184 18.5146 47.1871 17.7295 47.1871C17.393 47.1871 17.0565 47.1592 16.72 47.1034C16.3836 47.0464 16.1031 46.9626 15.8508 46.8498V45.8075C16.1593 45.8924 16.4677 45.9761 16.8042 46.0332C17.1406 46.089 17.4491 46.1169 17.7295 46.1169C18.0939 46.1169 18.3464 46.0611 18.5426 45.9203C18.7389 45.7796 18.823 45.6097 18.823 45.3573C18.823 45.1595 18.7669 45.0188 18.6548 44.9059C18.5426 44.7931 18.2902 44.6802 17.9537 44.5395L17.3089 44.3429ZM22.2435 45.1037C22.2713 45.4981 22.3835 45.7796 22.608 45.9762C22.8324 46.1448 23.1691 46.2298 23.6179 46.2298C24.0101 46.2298 24.4867 46.1448 25.0201 46.0041V46.8777C24.8234 46.9905 24.5712 47.0743 24.2623 47.1313C23.9824 47.1871 23.6735 47.2162 23.3658 47.2162C22.608 47.2162 22.0191 47.0185 21.6268 46.5962C21.2343 46.1739 21.0381 45.5818 21.0381 44.7652C21.0381 44.0044 21.2343 43.4135 21.6268 42.9633C22.0191 42.5398 22.5802 42.3154 23.2813 42.3154C23.8701 42.3154 24.319 42.484 24.6545 42.8213C24.9634 43.1599 25.1311 43.61 25.1311 44.2301C25.1311 44.3708 25.1311 44.5116 25.1034 44.6802C25.0756 44.8501 25.0756 44.9909 25.0479 45.1037H22.2435ZM23.1968 43.2448C22.8891 43.2448 22.6647 43.3285 22.4957 43.4984C22.328 43.6671 22.2435 43.9207 22.2158 44.258H23.9824V44.1172C23.9824 43.5263 23.7302 43.2448 23.1968 43.2448ZM28.1321 46.9905C27.8799 47.1034 27.5988 47.1313 27.3188 47.1313C26.5055 47.1313 26.1133 46.6811 26.1133 45.7796V40.3994H27.431V45.6667C27.431 45.8354 27.4588 45.9482 27.5155 46.0332C27.571 46.089 27.6555 46.1448 27.7954 46.1448C27.8799 46.1448 27.9921 46.1448 28.1321 46.1169V46.9905ZM30.0109 45.1037C30.0386 45.4981 30.1509 45.7796 30.3753 45.9762C30.5998 46.1448 30.9352 46.2298 31.3841 46.2298C31.7775 46.2298 32.2541 46.1448 32.7862 46.0041V46.8777C32.5896 46.9905 32.3374 47.0743 32.0297 47.1313C31.7485 47.1871 31.4408 47.2162 31.1319 47.2162C30.3753 47.2162 29.7865 47.0185 29.3931 46.5962C29.0009 46.1739 28.8042 45.5818 28.8042 44.7652C28.8042 44.0044 29.0009 43.4135 29.3931 42.9633C29.7865 42.5398 30.3464 42.3154 31.0474 42.3154C31.6363 42.3154 32.0852 42.484 32.4218 42.8213C32.7307 43.1599 32.8985 43.61 32.8985 44.2301C32.8985 44.3708 32.8985 44.5116 32.8707 44.6802C32.843 44.8501 32.843 44.9909 32.814 45.1037H30.0109ZM30.9919 43.2448C30.683 43.2448 30.4586 43.3285 30.2908 43.4984C30.1231 43.6671 30.0386 43.9207 30.0109 44.258H31.7775V44.1172C31.7485 43.5263 31.4963 43.2448 30.9919 43.2448ZM37.1882 46.8777C37.0205 46.9626 36.8238 47.0464 36.5993 47.1034C36.3749 47.1592 36.1227 47.1871 35.8982 47.1871C35.1694 47.1871 34.6083 46.9905 34.2162 46.5683C33.824 46.1448 33.6273 45.5539 33.6273 44.7931C33.6273 44.0335 33.824 43.4414 34.2439 43.0191C34.665 42.5969 35.2261 42.3712 35.9272 42.3712C36.3749 42.3712 36.7683 42.4561 37.1327 42.6527V43.5263C36.7683 43.4135 36.4594 43.3856 36.1504 43.3856C35.7305 43.3856 35.4216 43.4984 35.2261 43.695C35.0294 43.9207 34.945 44.258 34.945 44.7094V44.8501C34.945 45.3003 35.0294 45.6388 35.2261 45.8633C35.4216 46.089 35.7305 46.1739 36.1227 46.1739C36.4039 46.1739 36.7683 46.1169 37.1327 46.0041V46.8777H37.1882ZM40.8335 46.9626C40.4969 47.0743 40.1602 47.1592 39.7403 47.1592C39.2347 47.1592 38.8425 47.0463 38.6181 46.7927C38.3659 46.5392 38.2537 46.1739 38.2537 45.6667V43.4414H37.5526V42.6248L38.2814 42.484L38.4781 41.216H39.5436V42.4561H40.7768V43.4414H39.5436V45.6097C39.5436 45.8075 39.6003 45.9482 39.6836 46.0332C39.768 46.1169 39.9358 46.1448 40.1602 46.1448C40.3569 46.1448 40.5536 46.1169 40.8058 46.089V46.9626H40.8335Z" fill="white"/>
<path d="M44.1054 46.4689C44.0523 46.4689 44.0296 46.4468 44.0296 46.3958V43.2871H42.9238C42.8708 43.2871 42.8481 43.265 42.8481 43.2136V43.0967C42.8481 43.0457 42.8708 43.0236 42.9238 43.0236H45.4385C45.4914 43.0236 45.5142 43.0457 45.5142 43.0967V43.2136C45.5142 43.265 45.4914 43.2871 45.4385 43.2871H44.3326V46.3958C44.3326 46.4468 44.3099 46.4689 44.2568 46.4689H44.1054ZM47.1048 46.542C46.6958 46.542 46.3926 46.4323 46.1807 46.2054C45.976 45.9789 45.8701 45.6496 45.8701 45.2106C45.8701 44.7937 45.976 44.4719 46.1807 44.2378C46.3926 44.0037 46.6804 43.894 47.0517 43.894C47.3623 43.894 47.6045 43.9819 47.7711 44.1502C47.938 44.3257 48.0211 44.5671 48.0211 44.8888C48.0211 45.0206 48.0136 45.123 47.9983 45.1888C47.9908 45.2399 47.9605 45.262 47.9077 45.262H46.1654C46.1654 45.613 46.2489 45.8689 46.4004 46.0299C46.5517 46.1982 46.7942 46.2786 47.1198 46.2786C47.3698 46.2786 47.6045 46.2347 47.8242 46.1544C47.8695 46.1396 47.8998 46.1323 47.9152 46.1323C47.9301 46.1323 47.938 46.1396 47.953 46.1468C47.9605 46.1616 47.9683 46.1689 47.9683 46.1909V46.2641C47.9683 46.3151 47.953 46.3517 47.9077 46.3665C47.6726 46.4834 47.4001 46.542 47.1048 46.542ZM47.7408 45.0351C47.7408 44.9913 47.7486 44.9326 47.7486 44.8743C47.7486 44.633 47.688 44.4574 47.5667 44.333C47.4455 44.2085 47.2714 44.1502 47.0364 44.1502C46.4911 44.1502 46.2032 44.4499 46.1729 45.0423H47.7408V45.0351ZM49.7555 46.5272C49.3617 46.5272 49.0589 46.4175 48.8467 46.1982C48.6424 45.9789 48.5361 45.6496 48.5361 45.2254C48.5361 44.8009 48.6424 44.4792 48.8467 44.2526C49.0589 44.0257 49.3617 43.916 49.7555 43.916C49.9449 43.916 50.1268 43.9454 50.2933 44.0112C50.3311 44.0257 50.354 44.0623 50.354 44.1136V44.1867C50.354 44.2305 50.3311 44.2526 50.2933 44.2526C50.2858 44.2526 50.2705 44.2526 50.2555 44.245C50.2402 44.2378 50.2177 44.2378 50.1799 44.2305C50.0433 44.2012 49.9071 44.1792 49.7708 44.1792C49.4452 44.1792 49.2102 44.2599 49.0664 44.4206C48.9224 44.5816 48.8467 44.8378 48.8467 45.1961V45.2547C48.8467 45.5985 48.9224 45.8544 49.0664 46.0154C49.2102 46.1761 49.4452 46.2641 49.7633 46.2641C49.8996 46.2641 50.0433 46.242 50.2102 46.1982C50.248 46.1909 50.2705 46.1837 50.2858 46.1761C50.3008 46.1689 50.3161 46.1689 50.3236 46.1689C50.3614 46.1689 50.3843 46.1909 50.3843 46.2348V46.3079C50.3843 46.3592 50.3689 46.3958 50.3311 46.4103C50.1571 46.4834 49.9602 46.5272 49.7555 46.5272ZM51.0812 46.4689C51.028 46.4689 51.0052 46.4468 51.0052 46.3958V42.8626C51.0052 42.8115 51.028 42.7895 51.0812 42.7895H51.2174C51.2705 42.7895 51.293 42.8115 51.293 42.8626V44.2526C51.4599 44.1426 51.634 44.055 51.8234 43.9892C52.0052 43.9233 52.1868 43.894 52.3612 43.894C52.6109 43.894 52.8002 43.9599 52.9368 44.0843C53.0731 44.2085 53.1337 44.3988 53.1337 44.6475V46.3958C53.1337 46.4468 53.1109 46.4689 53.0577 46.4689H52.9215C52.8687 46.4689 52.8459 46.4468 52.8459 46.3958V44.7719C52.8459 44.5595 52.8002 44.3988 52.7171 44.3037C52.6337 44.2085 52.4974 44.1574 52.3081 44.1574C51.9671 44.1574 51.634 44.2599 51.3083 44.4719V46.3958C51.3083 46.4468 51.2855 46.4689 51.2324 46.4689H51.0812ZM54.0046 46.4689C53.9515 46.4689 53.929 46.4468 53.929 46.3958V44.0402C53.929 43.9892 53.9515 43.9671 54.0046 43.9671H54.1106C54.1637 43.9671 54.194 43.9892 54.2015 44.0402L54.2243 44.2526C54.3909 44.1354 54.5728 44.0478 54.7543 43.9819C54.9362 43.916 55.1181 43.8867 55.2922 43.8867C55.5422 43.8867 55.7316 43.9526 55.8678 44.0768C56.0041 44.2012 56.0647 44.3916 56.0647 44.6402V46.3958C56.0647 46.4468 56.0422 46.4689 55.9891 46.4689H55.8528C55.7997 46.4689 55.7769 46.4468 55.7769 46.3958V44.7719C55.7769 44.5595 55.7316 44.3988 55.6481 44.3037C55.565 44.2085 55.4284 44.1574 55.2394 44.1574C54.8984 44.1574 54.5653 44.2599 54.2393 44.4719V46.3958C54.2393 46.4468 54.2168 46.4689 54.1637 46.4689H54.0046ZM57.9128 46.542C57.5341 46.542 57.2388 46.4251 57.0344 46.1909C56.8222 45.9568 56.7238 45.6275 56.7238 45.2106C56.7238 44.7937 56.8297 44.4719 57.0344 44.2378C57.2463 44.0037 57.5416 43.8867 57.9128 43.8867C58.2916 43.8867 58.5869 44.0037 58.7913 44.2378C59.0035 44.4719 59.1094 44.7937 59.1094 45.2106C59.1094 45.6275 59.0035 45.9568 58.7913 46.1909C58.5869 46.4251 58.2916 46.542 57.9128 46.542ZM57.9128 46.2858C58.5035 46.2858 58.8066 45.9275 58.8066 45.2182C58.8066 44.5085 58.5113 44.1574 57.9128 44.1574C57.3222 44.1574 57.0191 44.5085 57.0191 45.2182C57.0191 45.9275 57.3144 46.2858 57.9128 46.2858ZM60.2154 46.4834C60.0791 46.4834 59.9729 46.4468 59.8973 46.3665C59.8216 46.2861 59.7835 46.1837 59.7835 46.0372V42.8553C59.7835 42.8043 59.8063 42.7822 59.8595 42.7822H59.9957C60.0488 42.7822 60.0713 42.8043 60.0713 42.8553V46.0299C60.0713 46.103 60.0866 46.1544 60.117 46.1837C60.1473 46.2127 60.2001 46.2275 60.276 46.2275C60.2988 46.2275 60.3213 46.2275 60.3441 46.2203C60.367 46.2203 60.3895 46.2127 60.4048 46.2127C60.4501 46.2127 60.4804 46.2348 60.4804 46.2858V46.381C60.4804 46.4251 60.4579 46.4468 60.4123 46.4541C60.3516 46.4761 60.291 46.4834 60.2154 46.4834ZM62.1242 46.542C61.7454 46.542 61.4498 46.4251 61.2454 46.1909C61.0332 45.9568 60.9348 45.6275 60.9348 45.2106C60.9348 44.7937 61.041 44.4719 61.2454 44.2378C61.4576 44.0037 61.7529 43.8867 62.1242 43.8867C62.5026 43.8867 62.7983 44.0037 63.0026 44.2378C63.2148 44.4719 63.3208 44.7937 63.3208 45.2106C63.3208 45.6275 63.2148 45.9568 63.0026 46.1909C62.7983 46.4251 62.5026 46.542 62.1242 46.542ZM62.1242 46.2858C62.7148 46.2858 63.0176 45.9275 63.0176 45.2182C63.0176 44.5085 62.7223 44.1574 62.1242 44.1574C61.5332 44.1574 61.2304 44.5085 61.2304 45.2182C61.2379 45.9275 61.5332 46.2858 62.1242 46.2858ZM64.9036 47.5513C64.7599 47.5513 64.6158 47.5369 64.4795 47.5075C64.3433 47.4782 64.222 47.4417 64.1161 47.3906C64.0783 47.3758 64.0555 47.3393 64.0555 47.2882V47.2148C64.0555 47.171 64.0705 47.1492 64.1161 47.1492C64.1236 47.1492 64.1386 47.1492 64.1464 47.1565C64.1614 47.1565 64.1842 47.1637 64.2145 47.1782C64.4567 47.2514 64.6839 47.2955 64.8811 47.2955C65.1992 47.2955 65.4339 47.2224 65.5855 47.0686C65.7367 46.9151 65.8127 46.6737 65.8127 46.3444V46.103C65.6839 46.2054 65.5474 46.2858 65.3883 46.3444C65.2371 46.403 65.0855 46.4323 64.9492 46.4323C64.6158 46.4323 64.3583 46.3151 64.1539 46.0885C63.957 45.8616 63.8586 45.562 63.8586 45.1888C63.8586 44.7864 63.957 44.4719 64.1539 44.2378C64.3508 44.0037 64.6236 43.8867 64.9642 43.8867C65.2899 43.8867 65.5702 43.9964 65.8202 44.216L65.843 44.033C65.8505 43.9819 65.8808 43.9599 65.9336 43.9599H66.0399C66.0927 43.9599 66.1155 43.9819 66.1155 44.033V46.3444C66.1155 46.732 66.0096 47.032 65.8049 47.2369C65.6005 47.4417 65.2899 47.5513 64.9036 47.5513ZM65.0174 46.1761C65.2749 46.1761 65.5399 46.0737 65.8127 45.8616V44.4792C65.6686 44.3695 65.5399 44.2816 65.4036 44.2305C65.2749 44.1792 65.1308 44.1502 64.9871 44.1502C64.7142 44.1502 64.5024 44.2378 64.3661 44.4061C64.2295 44.5816 64.1614 44.8302 64.1614 45.174C64.1614 45.4961 64.2374 45.7447 64.3811 45.9203C64.5252 46.0958 64.737 46.1761 65.0174 46.1761ZM67.0018 47.5513C66.9183 47.5513 66.8427 47.5369 66.7671 47.5148C66.714 47.5003 66.6911 47.471 66.6911 47.4124V47.3393C66.6911 47.2955 66.714 47.2734 66.7518 47.2734C66.7746 47.2734 66.7896 47.2734 66.8049 47.2807C66.8199 47.2807 66.8427 47.2882 66.873 47.2882C66.9033 47.2882 66.9337 47.2882 66.979 47.2882C67.0927 47.2882 67.1837 47.2589 67.2518 47.2003C67.3199 47.1417 67.3805 47.0393 67.4412 46.8931L67.6152 46.4761L66.6002 44.0695C66.5852 44.0402 66.5777 44.0185 66.5777 44.0037C66.5777 43.9671 66.6002 43.9454 66.638 43.9454H66.8049C66.8502 43.9454 66.8805 43.9671 66.8958 44.0112L67.759 46.1468L68.6303 44.0112C68.6452 43.9671 68.6756 43.9454 68.7212 43.9454H68.8724C68.9102 43.9454 68.9331 43.9599 68.9331 44.0037C68.9331 44.0112 68.9256 44.033 68.9102 44.0695L67.6987 46.981C67.6152 47.1858 67.5168 47.3248 67.4109 47.4124C67.3046 47.5148 67.1683 47.5513 67.0018 47.5513Z" fill="white"/>
<path d="M71.4001 47.4523C71.3324 47.4523 71.3035 47.4228 71.3035 47.3532V42.8813C71.3035 42.8121 71.3324 42.7822 71.4001 42.7822H72.8688C73.2841 42.7822 73.6126 42.9112 73.8642 43.159C74.1153 43.4071 74.2313 43.7442 74.2313 44.1705C74.2313 44.5869 74.1058 44.924 73.8642 45.1717C73.6126 45.4199 73.2841 45.5484 72.8688 45.5484H71.6803V47.3532C71.6803 47.4228 71.6513 47.4523 71.5837 47.4523H71.4001ZM72.8591 45.1918C73.5066 45.1918 73.8351 44.8548 73.8351 44.1705C73.8351 43.4862 73.5066 43.1393 72.8591 43.1393H71.6803V45.1918H72.8591ZM75.8447 47.5317C75.5454 47.5317 75.3038 47.4424 75.12 47.2639C74.9461 47.0853 74.8497 46.8474 74.8497 46.5501C74.8497 46.2229 74.9557 45.9649 75.1782 45.7765C75.4002 45.5882 75.7 45.4891 76.0768 45.4891C76.3666 45.4891 76.6855 45.5386 77.014 45.648V45.0829C77.014 44.8052 76.9463 44.6168 76.8207 44.4977C76.6951 44.3785 76.4826 44.3191 76.1928 44.3191C75.893 44.3191 75.574 44.3785 75.236 44.4878C75.1973 44.4977 75.1586 44.5075 75.1395 44.5075C75.1008 44.5075 75.0717 44.478 75.0717 44.4182V44.3093C75.0717 44.2696 75.0813 44.2499 75.0913 44.2298C75.1008 44.2102 75.1299 44.1901 75.1586 44.1803C75.5067 44.0415 75.8739 43.9723 76.2602 43.9723C76.6469 43.9723 76.9271 44.0513 77.1201 44.22C77.3134 44.3887 77.4004 44.6365 77.4004 44.9735V47.3532C77.4004 47.4228 77.3712 47.4523 77.3039 47.4523H77.1683C77.101 47.4523 77.0718 47.4228 77.0623 47.3532L77.0332 47.0657C76.6469 47.3728 76.2506 47.5317 75.8447 47.5317ZM75.893 47.1746C76.0572 47.1746 76.241 47.1451 76.434 47.0755C76.6273 47.0063 76.8207 46.9072 77.0236 46.7782V45.9354C76.7338 45.856 76.4439 45.8163 76.1732 45.8163C75.5645 45.8163 75.2555 46.0542 75.2555 46.5403C75.2555 46.7483 75.3133 46.9072 75.4198 47.0161C75.5162 47.1251 75.6805 47.1746 75.893 47.1746ZM78.5019 47.4523C78.4341 47.4523 78.4054 47.4228 78.4054 47.3532V44.1606C78.4054 44.091 78.4341 44.0615 78.5019 44.0615H78.6275C78.6952 44.0615 78.7339 44.091 78.7435 44.1606L78.7726 44.557C78.9368 44.3687 79.1011 44.2298 79.2653 44.1606C79.4296 44.0812 79.6034 44.0415 79.8063 44.0415C79.8741 44.0415 79.9319 44.0415 79.9801 44.0513C80.0479 44.0513 80.077 44.091 80.077 44.1606V44.3289C80.077 44.349 80.067 44.3687 80.0575 44.3785C80.0479 44.3986 80.0284 44.3986 80.0092 44.3986C79.9706 44.3986 79.9415 44.3986 79.9128 44.3986C79.8837 44.3986 79.8354 44.3986 79.7772 44.3986C79.5743 44.3986 79.4005 44.4383 79.2458 44.5173C79.0915 44.5968 78.9368 44.7159 78.8013 44.8842V47.363C78.8013 47.4326 78.7726 47.4621 78.7048 47.4621H78.5019V47.4523ZM81.6809 47.492C81.4201 47.492 81.2268 47.4228 81.0912 47.284C80.9561 47.1451 80.8887 46.9367 80.8887 46.6689V44.4084H80.3669C80.2991 44.4084 80.27 44.3785 80.27 44.3093V44.2401C80.27 44.2004 80.2799 44.1803 80.2895 44.1606C80.2991 44.1406 80.3282 44.1307 80.3669 44.1307L80.8983 44.0812L80.9465 43.1889C80.9465 43.1491 80.9561 43.1295 80.9756 43.1094C80.9948 43.0898 81.0143 43.0898 81.043 43.0898H81.159C81.2268 43.0898 81.2559 43.1197 81.2559 43.1889V44.0714H82.2123C82.2801 44.0714 82.3088 44.1013 82.3088 44.1705V44.3093C82.3088 44.3785 82.2801 44.4084 82.2123 44.4084H81.2559V46.6492C81.2559 46.8376 81.2941 46.9666 81.3715 47.0358C81.4488 47.1152 81.5744 47.155 81.7582 47.155C81.8838 47.155 81.9998 47.1451 82.0963 47.1251C82.1445 47.1152 82.1832 47.1054 82.2123 47.1054C82.2414 47.0956 82.2605 47.0956 82.2801 47.0956C82.3283 47.0956 82.357 47.1251 82.357 47.1746V47.2737C82.357 47.3532 82.3379 47.3929 82.2801 47.4125C82.1058 47.4621 81.9029 47.492 81.6809 47.492ZM83.14 47.4523C83.0722 47.4523 83.0431 47.4228 83.0431 47.3532V44.1606C83.0431 44.091 83.0722 44.0615 83.14 44.0615H83.2751C83.3429 44.0615 83.3816 44.091 83.3912 44.1606L83.4198 44.4481C83.6328 44.2896 83.8644 44.1705 84.0964 44.0812C84.3284 43.9919 84.56 43.9522 84.7825 43.9522C85.1015 43.9522 85.343 44.0415 85.5169 44.2102C85.6907 44.3785 85.768 44.6365 85.768 44.9735V47.3532C85.768 47.4228 85.7389 47.4523 85.6715 47.4523H85.4973C85.43 47.4523 85.4008 47.4228 85.4008 47.3532V45.1521C85.4008 44.8646 85.343 44.6463 85.2366 44.5173C85.1301 44.3887 84.9563 44.3191 84.7147 44.3191C84.2802 44.3191 83.8548 44.4579 83.4394 44.7454V47.3532C83.4394 47.4228 83.4103 47.4523 83.3429 47.4523H83.14ZM88.174 47.5513C87.6521 47.5513 87.2658 47.4027 86.9951 47.0956C86.7344 46.788 86.5988 46.3417 86.5988 45.7471C86.5988 45.182 86.7344 44.7454 86.9951 44.4285C87.2658 44.1111 87.633 43.9624 88.1062 43.9624C88.5025 43.9624 88.8114 44.0812 89.0243 44.3093C89.2368 44.5472 89.3429 44.8744 89.3429 45.3105C89.3429 45.4891 89.3333 45.6279 89.3142 45.7172C89.3046 45.7868 89.2659 45.8163 89.1982 45.8163H86.976C86.976 46.2921 87.082 46.6394 87.2754 46.8572C87.4687 47.0853 87.7777 47.1947 88.1931 47.1947C88.5121 47.1947 88.8114 47.1349 89.0917 47.026C89.1499 47.0063 89.1886 46.9961 89.2077 46.9961C89.2273 46.9961 89.2368 47.0063 89.256 47.0161C89.2659 47.0358 89.2755 47.0456 89.2755 47.0755V47.1746C89.2755 47.2442 89.256 47.2938 89.1982 47.3134C88.8988 47.4723 88.5507 47.5513 88.174 47.5513ZM88.9857 45.5092C88.9857 45.4493 88.9952 45.3703 88.9952 45.2909C88.9952 44.9637 88.9179 44.7258 88.7632 44.557C88.6085 44.3887 88.3865 44.3093 88.0871 44.3093C87.3914 44.3093 87.0242 44.7159 86.9856 45.519H88.9857V45.5092ZM90.2801 47.4523C90.2128 47.4523 90.1837 47.4228 90.1837 47.3532V44.1606C90.1837 44.091 90.2128 44.0615 90.2801 44.0615H90.4057C90.4735 44.0615 90.5122 44.091 90.5217 44.1606L90.5508 44.557C90.7151 44.3687 90.8794 44.2298 91.0436 44.1606C91.2079 44.0812 91.3817 44.0415 91.5846 44.0415C91.6524 44.0415 91.7102 44.0415 91.7588 44.0513C91.8262 44.0513 91.8553 44.091 91.8553 44.1606V44.3289C91.8553 44.349 91.8457 44.3687 91.8358 44.3785C91.8262 44.3986 91.8071 44.3986 91.7875 44.3986C91.7488 44.3986 91.7202 44.3986 91.691 44.3986C91.6619 44.3986 91.6137 44.3986 91.5559 44.3986C91.353 44.3986 91.1787 44.4383 91.0245 44.5173C90.8698 44.5968 90.7151 44.7159 90.58 44.8842V47.363C90.58 47.4326 90.5509 47.4621 90.4831 47.4621H90.2801V47.4523Z" fill="white"/>
</svg>
