<svg width="433" height="58" viewBox="0 0 433 58" fill="none" xmlns="http://www.w3.org/2000/svg">
<path d="M111.536 3.40346C111.536 2.0766 112.612 1.00098 113.939 1.00098H208.524C209.851 1.00098 210.926 2.0766 210.926 3.40346V54.3313C210.926 55.6581 209.851 56.7337 208.524 56.7337H113.939C112.612 56.7337 111.536 55.6581 111.536 54.3313V3.40346Z" fill="#362D79" fill-opacity="0.08"/>
<path d="M113.939 0.536537C112.355 0.536537 111.072 1.8201 111.072 3.40346V54.3313C111.072 55.9146 112.355 57.1982 113.939 57.1982H208.524C210.107 57.1982 211.391 55.9146 211.391 54.3313V3.40346C211.391 1.8201 210.107 0.536537 208.524 0.536537H113.939Z" stroke="white" stroke-opacity="0.03" stroke-width="0.928879"/>
<path d="M150.049 23.8373C150.335 24.021 150.778 24.1777 151.325 24.2825C151.872 24.4392 152.444 24.4651 153.044 24.4651C153.617 24.4651 154.138 24.3873 154.607 24.2554C155.075 24.0988 155.492 23.8902 155.856 23.6276C156.195 23.3662 156.482 23.0528 156.664 22.6336C156.846 22.2413 156.95 21.8232 156.95 21.3261C156.95 20.7502 156.769 20.2272 156.43 19.7561C156.092 19.3109 155.518 18.9446 154.711 18.6831L153.148 18.1601C152.576 17.9775 152.133 17.7679 151.897 17.5323C151.69 17.3227 151.559 17.0612 151.559 16.7208C151.559 16.2768 151.742 15.9105 152.08 15.7267C152.444 15.5182 152.914 15.3875 153.565 15.3875C154.372 15.3875 155.049 15.5442 155.726 15.8316C155.909 15.9105 156.065 15.9894 156.169 15.9894C156.352 15.9894 156.43 15.8845 156.43 15.6231V15.1778C156.43 15.0212 156.403 14.8904 156.326 14.8115C156.247 14.7067 156.143 14.6019 155.987 14.5241C155.883 14.4452 155.701 14.3663 155.518 14.3404C155.336 14.2627 155.128 14.2356 154.894 14.1578C154.685 14.1308 154.424 14.053 154.164 14.053C153.904 13.9741 153.643 13.9741 153.408 13.9741C152.887 13.9741 152.471 14.053 152.029 14.1578C151.586 14.3145 151.195 14.4971 150.856 14.7326C150.518 14.9941 150.283 15.2827 150.049 15.649C149.841 16.0153 149.762 16.4075 149.762 16.9045C149.762 17.4805 149.945 18.0294 150.309 18.5264C150.673 19.0494 151.247 19.4157 152.106 19.6513L153.721 20.1742C154.268 20.358 154.632 20.5405 154.841 20.7502C155.049 20.9598 155.128 21.2213 155.128 21.5087C155.128 21.9539 154.945 22.3202 154.555 22.5817C154.164 22.8432 153.643 22.948 152.914 22.948C152.471 22.948 152.029 22.9221 151.612 22.7913C151.169 22.7125 150.778 22.5817 150.362 22.398C150.258 22.3721 150.153 22.3202 150.075 22.2943C149.997 22.2672 149.918 22.2673 149.866 22.2673C149.684 22.2673 149.606 22.3721 149.606 22.6336V23.1836C149.606 23.2884 149.632 23.3921 149.684 23.524C149.762 23.6547 149.866 23.7325 150.049 23.8373Z" fill="white"/>
<path d="M131.193 18.4211C130.801 18.3422 130.385 18.3422 130.02 18.3422C128.9 18.3422 127.988 18.6307 127.285 19.2326C126.582 19.8074 126.27 20.593 126.27 21.5341C126.27 22.4504 126.53 23.156 127.077 23.706C127.624 24.2549 128.353 24.5164 129.291 24.5164C130.593 24.5164 131.687 23.9934 132.572 22.9734C132.677 23.2349 132.781 23.4445 132.911 23.6271C133.041 23.8108 133.172 23.9934 133.302 24.1501C133.406 24.2549 133.51 24.3079 133.64 24.3079C133.718 24.3079 133.822 24.2819 133.926 24.2031L134.63 23.7319C134.786 23.6271 134.839 23.5223 134.839 23.3915C134.839 23.3138 134.812 23.2349 134.76 23.1301C134.604 22.8427 134.473 22.5812 134.396 22.3197C134.317 22.0582 134.292 21.7437 134.292 21.3256V17.6626C134.292 16.4588 134.005 15.5436 133.379 14.9158C132.755 14.2881 131.817 13.9995 130.463 13.9995C129.838 13.9995 129.265 14.0784 128.718 14.2092C128.197 14.3658 127.728 14.4966 127.337 14.7321C127.181 14.811 127.077 14.8888 127.051 14.9418C126.973 15.0207 126.973 15.1514 126.973 15.334V15.884C126.973 16.0925 127.051 16.2492 127.181 16.2492C127.207 16.2492 127.285 16.2492 127.363 16.2233C127.442 16.1973 127.572 16.1455 127.754 16.0666C128.145 15.9099 128.561 15.7792 128.952 15.7003C129.343 15.5955 129.76 15.5436 130.15 15.5436C131.036 15.5436 131.608 15.7262 131.974 16.0666C132.338 16.407 132.494 17.0088 132.494 17.8722V18.6826C132.025 18.5778 131.635 18.5 131.193 18.4211ZM132.468 20.4093C132.468 20.7756 132.442 21.116 132.364 21.3515C132.285 21.613 132.182 21.8745 132 22.0582C131.713 22.3975 131.348 22.633 130.932 22.7638C130.541 22.9216 130.124 22.9734 129.76 22.9734C129.239 22.9734 128.848 22.8167 128.588 22.5812C128.327 22.3197 128.197 21.9263 128.197 21.4034C128.197 20.8545 128.379 20.4093 128.744 20.1219C129.108 19.8345 129.655 19.6767 130.385 19.6767C130.723 19.6767 131.088 19.7026 131.453 19.7556C131.817 19.7815 132.155 19.8604 132.468 19.9381V20.4093Z" fill="white"/>
<path d="M138.094 23.6542C138.171 23.8627 138.25 24.0205 138.302 24.0983C138.38 24.1772 138.511 24.2031 138.745 24.2031H139.682C139.891 24.2031 140.046 24.1772 140.125 24.0983C140.203 24.0205 140.282 23.8898 140.333 23.6542L142.053 16.4329L143.798 23.6542C143.824 23.8627 143.901 24.0205 144.005 24.0983C144.084 24.1772 144.266 24.2031 144.448 24.2031H145.386C145.569 24.2031 145.725 24.1772 145.829 24.0983C145.907 24.0205 146.012 23.8898 146.037 23.6542L148.745 15.0207C148.772 14.9159 148.824 14.8111 148.824 14.7592C148.824 14.6803 148.85 14.6544 148.85 14.5755C148.85 14.3929 148.772 14.314 148.59 14.314H147.574C147.366 14.314 147.21 14.3399 147.131 14.4188C147.053 14.4977 146.974 14.6285 146.923 14.8629L144.995 22.3716L143.198 14.837C143.172 14.6285 143.094 14.4707 142.99 14.3929C142.911 14.314 142.73 14.2881 142.547 14.2881H141.636C141.427 14.2881 141.271 14.314 141.193 14.3929C141.115 14.4707 141.036 14.6014 140.985 14.837L139.239 22.2408L137.39 14.837C137.313 14.6285 137.234 14.4707 137.181 14.3929C137.104 14.314 136.974 14.2881 136.739 14.2881H135.646C135.463 14.2881 135.385 14.3659 135.385 14.5496C135.385 14.6285 135.411 14.7592 135.489 14.9948L138.094 23.6542Z" fill="white"/>
<path d="M154.608 29.0696C150.518 30.8222 146.039 31.6596 142.002 31.6596C135.985 31.6596 130.152 30.0107 125.437 27.2381C125.047 26.9766 124.708 27.4207 125.073 27.761C129.448 31.7115 135.204 34.0919 141.638 34.0919C146.195 34.0919 151.508 32.6537 155.207 29.9059C155.728 29.4877 155.232 28.834 154.608 29.0696Z" fill="#FF9900"/>
<path d="M152.316 27.5511C151.977 27.7607 152.056 28.1011 152.394 28.0741C153.565 27.9174 156.222 27.6041 156.666 28.2319C157.134 28.8067 156.145 31.319 155.728 32.4438C155.572 32.7842 155.883 32.9149 156.196 32.6523C158.175 31.0045 158.671 27.5252 158.28 27.054C157.863 26.4781 154.399 26.0859 152.316 27.5511Z" fill="#FF9900"/>
<path d="M167.029 21.8996C166.952 21.8996 166.873 21.8737 166.873 21.7429V15.6995C166.873 15.6206 166.899 15.5428 167.029 15.5428H167.212C167.316 15.5428 167.367 15.5687 167.367 15.6995L167.394 16.0658C167.654 15.8561 167.941 15.6995 168.201 15.5947C168.461 15.4898 168.722 15.438 169.008 15.438C169.582 15.438 170.025 15.6476 170.363 16.0658C170.702 16.458 170.883 17.0599 170.883 17.7406C170.883 18.4732 170.702 19.0481 170.363 19.4933C169.998 19.9373 169.555 20.147 168.931 20.147C168.384 20.147 167.914 19.9373 167.446 19.5192V21.717C167.446 21.7948 167.42 21.8737 167.29 21.8737H167.029V21.8996ZM168.852 19.7029C169.321 19.7029 169.685 19.5451 169.946 19.2318C170.206 18.8914 170.311 18.4203 170.311 17.7925C170.311 16.5369 169.842 15.935 168.878 15.935C168.41 15.935 167.889 16.1188 167.42 16.511V19.101C167.68 19.3095 167.889 19.4673 168.123 19.571C168.357 19.624 168.618 19.7029 168.852 19.7029Z" fill="white"/>
<path d="M173.022 20.147C172.632 20.147 172.292 20.0422 172.032 19.7807C171.772 19.571 171.668 19.2318 171.668 18.8396C171.668 18.3944 171.824 18.0799 172.111 17.8184C172.397 17.5569 172.813 17.4521 173.309 17.4521C173.699 17.4521 174.116 17.531 174.584 17.6617V16.9291C174.584 16.5628 174.507 16.3013 174.324 16.1706C174.142 16.0139 173.882 15.961 173.49 15.961C173.1 15.961 172.658 16.0399 172.215 16.1706C172.189 16.1706 172.111 16.1965 172.058 16.1965C171.981 16.1965 171.981 16.1706 171.981 16.0917V15.9091C171.981 15.8832 171.981 15.8302 172.006 15.8043C172.032 15.7784 172.032 15.7784 172.085 15.7254C172.553 15.5428 173.022 15.438 173.569 15.438C174.09 15.438 174.48 15.5428 174.741 15.7784C175.001 15.9869 175.106 16.3273 175.106 16.7725V19.9114C175.106 19.9903 175.08 20.0692 174.95 20.0692H174.767C174.689 20.0692 174.611 20.0422 174.611 19.9114L174.584 19.5451C174.116 19.9644 173.569 20.147 173.022 20.147ZM173.1 19.7029C173.309 19.7029 173.569 19.6759 173.829 19.5451C174.09 19.4403 174.35 19.3366 174.637 19.1529V18.054C174.246 17.9492 173.882 17.8973 173.465 17.8973C172.632 17.8973 172.215 18.2377 172.215 18.8396C172.215 19.101 172.292 19.3096 172.423 19.4674C172.579 19.624 172.813 19.7029 173.1 19.7029Z" fill="white"/>
<path d="M176.639 20.0694C176.561 20.0694 176.483 20.0423 176.483 19.9116V15.6996C176.483 15.6219 176.509 15.543 176.639 15.543H176.822C176.926 15.543 176.978 15.5689 176.978 15.6996L177.003 16.2226C177.212 15.9611 177.446 15.7785 177.655 15.6996C177.863 15.5948 178.124 15.543 178.384 15.543C178.489 15.543 178.567 15.543 178.593 15.543C178.67 15.543 178.749 15.5689 178.749 15.6996V15.9093C178.749 15.9352 178.749 15.9352 178.723 15.987C178.723 16.0141 178.697 16.0141 178.644 16.0141C178.619 16.0141 178.54 16.0141 178.489 16.0141C178.463 16.0141 178.384 16.0141 178.306 16.0141C178.046 16.0141 177.785 16.04 177.577 16.1708C177.369 16.2756 177.186 16.4323 176.952 16.6419V19.9116C176.952 19.9905 176.926 20.0694 176.795 20.0694H176.639Z" fill="white"/>
<path d="M181.067 20.1209C180.702 20.1209 180.441 20.0161 180.259 19.8335C180.077 19.6498 179.973 19.3883 179.973 19.022V16.0656H179.269C179.192 16.0656 179.113 16.0397 179.113 15.9089V15.83C179.113 15.8041 179.113 15.7523 179.139 15.7252C179.139 15.6993 179.165 15.6993 179.243 15.6993L179.973 15.6215L180.05 14.4437C180.05 14.4178 180.077 14.3648 180.077 14.3389C180.103 14.313 180.103 14.313 180.181 14.313H180.337C180.416 14.313 180.493 14.3389 180.493 14.4696V15.6475H181.77C181.848 15.6475 181.926 15.6734 181.926 15.8041V15.9878C181.926 16.0656 181.9 16.1445 181.77 16.1445H180.493V19.1009C180.493 19.3623 180.52 19.4931 180.65 19.6238C180.754 19.7286 180.936 19.7805 181.171 19.7805C181.353 19.7805 181.51 19.7805 181.614 19.7546C181.691 19.7546 181.717 19.7286 181.77 19.7286C181.795 19.7286 181.848 19.7286 181.848 19.7286C181.926 19.7286 181.952 19.7546 181.952 19.8335V19.9901C181.952 20.0949 181.926 20.1468 181.848 20.1727C181.614 20.069 181.379 20.1209 181.067 20.1209Z" fill="white"/>
<path d="M183.048 20.0688C182.969 20.0688 182.891 20.0417 182.891 19.911V15.699C182.891 15.6213 182.918 15.5424 183.048 15.5424H183.23C183.333 15.5424 183.386 15.5683 183.386 15.699L183.412 16.0653C183.699 15.8557 183.985 15.699 184.323 15.5942C184.663 15.4894 184.949 15.4116 185.235 15.4116C185.678 15.4116 185.991 15.5164 186.225 15.752C186.434 15.9605 186.564 16.3009 186.564 16.772V19.8851C186.564 19.964 186.538 20.0417 186.407 20.0417H186.147C186.068 20.0417 185.991 20.0158 185.991 19.8851V17.0335C185.991 16.6413 185.912 16.3798 185.782 16.1961C185.626 16.0135 185.391 15.9346 185.079 15.9346C184.506 15.9346 183.907 16.1183 183.36 16.5105V19.9639C183.36 20.0417 183.333 20.1206 183.203 20.1206H183.022V20.0688H183.048Z" fill="white"/>
<path d="M189.818 20.1729C189.116 20.1729 188.569 19.9903 188.256 19.5981C187.891 19.2059 187.709 18.604 187.709 17.7925C187.709 17.0599 187.891 16.4839 188.256 16.0658C188.62 15.6736 189.141 15.438 189.74 15.438C190.287 15.438 190.678 15.5947 190.991 15.9091C191.277 16.1965 191.434 16.6417 191.434 17.2165C191.434 17.4262 191.434 17.6099 191.407 17.7666C191.407 17.8443 191.329 17.9232 191.251 17.9232H188.256C188.256 18.551 188.412 19.0222 188.646 19.3096C188.907 19.5981 189.35 19.7547 189.897 19.7547C190.34 19.7547 190.73 19.6759 191.095 19.5451C191.172 19.5192 191.251 19.5192 191.251 19.5192C191.277 19.5192 191.277 19.5192 191.329 19.5451C191.329 19.571 191.355 19.571 191.355 19.624V19.7807C191.355 19.8855 191.329 19.9373 191.251 19.9644C190.782 20.0692 190.34 20.1729 189.818 20.1729ZM190.912 17.5051C190.912 17.4262 190.912 17.3214 190.912 17.2165C190.912 16.7725 190.808 16.4839 190.625 16.2754C190.417 16.0658 190.105 15.935 189.714 15.935C188.776 15.935 188.282 16.458 188.23 17.5051H190.912Z" fill="white"/>
<path d="M192.632 20.0694C192.554 20.0694 192.477 20.0423 192.477 19.9116V15.6996C192.477 15.6219 192.502 15.543 192.632 15.543H192.815C192.919 15.543 192.971 15.5689 192.971 15.6996L192.997 16.2226C193.205 15.9611 193.439 15.7785 193.648 15.6996C193.856 15.5948 194.117 15.543 194.378 15.543C194.482 15.543 194.56 15.543 194.586 15.543C194.664 15.543 194.742 15.5689 194.742 15.6996V15.9093C194.742 15.9352 194.742 15.9352 194.716 15.987C194.716 16.0141 194.69 16.0141 194.638 16.0141C194.586 16.0141 194.533 16.0141 194.482 16.0141C194.456 16.0141 194.378 16.0141 194.299 16.0141C194.039 16.0141 193.779 16.04 193.571 16.1708C193.362 16.2756 193.179 16.4323 192.945 16.6419V19.9116C192.945 19.9905 192.919 20.0694 192.789 20.0694H192.632Z" fill="white"/>
<path d="M167.029 29.9299C166.952 29.9299 166.873 29.904 166.873 29.7732V25.5872C166.873 25.5094 166.899 25.4305 167.029 25.4305H167.212C167.316 25.4305 167.367 25.4565 167.367 25.5872L167.394 25.9535C167.68 25.7439 167.967 25.5872 168.305 25.4824C168.644 25.3776 168.931 25.2998 169.217 25.2998C169.659 25.2998 169.972 25.4046 170.206 25.6402C170.415 25.8487 170.545 26.1891 170.545 26.6602V29.7732C170.545 29.8521 170.519 29.9299 170.389 29.9299H170.128C170.051 29.9299 169.972 29.904 169.972 29.7732V26.8698C169.972 26.4765 169.894 26.215 169.764 26.0324C169.608 25.8487 169.374 25.7709 169.061 25.7709C168.488 25.7709 167.889 25.9535 167.342 26.3457V29.7992C167.342 29.8781 167.316 29.9569 167.186 29.9569H167.003V29.9299H167.029Z" fill="white"/>
<path d="M173.825 30.0611C173.121 30.0611 172.576 29.8785 172.263 29.4863C171.897 29.094 171.716 28.4922 171.716 27.6807C171.716 26.9481 171.897 26.3732 172.263 25.954C172.627 25.5617 173.148 25.3262 173.747 25.3262C174.294 25.3262 174.685 25.4828 174.998 25.7973C175.283 26.0847 175.44 26.5299 175.44 27.1059C175.44 27.3144 175.44 27.4981 175.414 27.6548C175.414 27.7336 175.336 27.8114 175.258 27.8114H172.263C172.263 28.4392 172.419 28.9103 172.653 29.1977C172.914 29.4863 173.357 29.6429 173.904 29.6429C174.346 29.6429 174.737 29.564 175.101 29.4333C175.179 29.4074 175.258 29.4074 175.258 29.4074C175.284 29.4074 175.283 29.4074 175.336 29.4333C175.336 29.4603 175.362 29.4603 175.362 29.5122V29.6689C175.362 29.7737 175.336 29.8267 175.258 29.8526C174.815 29.9574 174.32 30.0611 173.825 30.0611ZM174.919 27.3673C174.919 27.2884 174.919 27.1836 174.919 27.0788C174.919 26.6347 174.815 26.3462 174.632 26.1377C174.424 25.928 174.111 25.7973 173.721 25.7973C172.783 25.7973 172.289 26.3203 172.236 27.3673H174.919Z" fill="white"/>
<path d="M177.915 30.0096C177.549 30.0096 177.289 29.9048 177.106 29.7222C176.925 29.5385 176.821 29.277 176.821 28.9107V25.9025H176.117C176.039 25.9025 175.961 25.8766 175.961 25.7459V25.667C175.961 25.641 175.961 25.5881 175.987 25.5621C175.987 25.5362 176.012 25.5362 176.091 25.5362L176.821 25.4573L176.898 24.2806C176.898 24.2547 176.925 24.2017 176.925 24.1758C176.951 24.1499 176.951 24.1499 177.028 24.1499H177.185C177.263 24.1499 177.341 24.1758 177.341 24.3066V25.4844H178.617C178.696 25.4844 178.773 25.5103 178.773 25.641V25.8236C178.773 25.9025 178.747 25.9814 178.617 25.9814H177.368V28.9378C177.368 29.1993 177.393 29.33 177.523 29.4607C177.653 29.5915 177.81 29.6174 178.045 29.6174C178.226 29.6174 178.383 29.6174 178.487 29.5915C178.565 29.5915 178.592 29.5656 178.643 29.5656C178.669 29.5656 178.722 29.5656 178.722 29.5656C178.8 29.5656 178.826 29.5915 178.826 29.6693V29.8271C178.826 29.9319 178.8 29.9837 178.722 30.0096C178.462 29.9578 178.2 30.0096 177.915 30.0096Z" fill="white"/>
<path d="M180.781 29.9305C180.702 29.9305 180.625 29.9046 180.598 29.8269L179.218 25.6927C179.192 25.6138 179.192 25.5879 179.192 25.536C179.192 25.483 179.218 25.4571 179.297 25.4571H179.582C179.661 25.4571 179.687 25.483 179.739 25.5619L180.936 29.3298L182.005 25.5619C182.03 25.483 182.083 25.4571 182.187 25.4571H182.526C182.604 25.4571 182.682 25.483 182.708 25.5619L183.776 29.3298L185.026 25.5101C185.052 25.4312 185.104 25.4053 185.182 25.4053H185.442C185.521 25.4053 185.547 25.4312 185.547 25.483C185.547 25.5101 185.546 25.5619 185.521 25.6408L184.062 29.7739C184.037 29.8528 183.984 29.8787 183.88 29.8787H183.594C183.516 29.8787 183.437 29.8528 183.411 29.7739L182.343 26.0071L181.276 29.7739C181.249 29.8528 181.198 29.8787 181.093 29.8787H180.833V29.9305H180.781Z" fill="white"/>
<path d="M188.127 30.0606C187.475 30.0606 186.955 29.8521 186.59 29.4328C186.226 29.0406 186.043 28.4388 186.043 27.6802C186.043 26.9476 186.226 26.3728 186.59 25.9276C186.955 25.5354 187.475 25.2998 188.127 25.2998C188.778 25.2998 189.299 25.5095 189.663 25.9276C190.029 26.3198 190.21 26.9217 190.21 27.6802C190.21 28.4128 190.029 28.9888 189.663 29.4328C189.273 29.8521 188.778 30.0606 188.127 30.0606ZM188.127 29.5906C189.143 29.5906 189.663 28.9628 189.663 27.6802C189.663 26.3987 189.143 25.7709 188.127 25.7709C187.111 25.7709 186.59 26.3987 186.59 27.6802C186.59 28.9628 187.085 29.5906 188.127 29.5906Z" fill="white"/>
<path d="M191.46 29.93C191.381 29.93 191.303 29.9041 191.303 29.7733V25.5873C191.303 25.5096 191.33 25.4307 191.46 25.4307H191.641C191.745 25.4307 191.798 25.4566 191.798 25.5873L191.824 26.1103C192.032 25.8488 192.267 25.6662 192.475 25.5873C192.684 25.4825 192.944 25.4307 193.205 25.4307C193.309 25.4307 193.386 25.4307 193.412 25.4307C193.491 25.4307 193.569 25.4566 193.569 25.5873V25.797C193.569 25.8229 193.569 25.8229 193.543 25.8759C193.516 25.9018 193.516 25.9018 193.465 25.9018C193.439 25.9018 193.361 25.9018 193.309 25.9018C193.282 25.9018 193.205 25.9018 193.126 25.9018C192.866 25.9018 192.605 25.9277 192.397 26.0585C192.188 26.1633 192.007 26.3199 191.772 26.5296V29.7993C191.772 29.8782 191.745 29.9571 191.615 29.9571H191.434V29.93H191.46Z" fill="white"/>
<path d="M194.505 29.9308C194.428 29.9308 194.35 29.9049 194.35 29.7741V23.4692C194.35 23.3903 194.375 23.3125 194.505 23.3125H194.767C194.845 23.3125 194.922 23.3384 194.922 23.4692V27.4455L197.032 25.5363C197.11 25.4574 197.189 25.4574 197.24 25.4574H197.579C197.657 25.4574 197.683 25.4833 197.683 25.5363C197.683 25.5881 197.657 25.614 197.579 25.6929L195.418 27.6033L197.761 29.7741C197.787 29.8 197.84 29.853 197.84 29.8789C197.84 29.9578 197.814 29.9578 197.736 29.9578H197.37C197.293 29.9578 197.215 29.9308 197.189 29.8789L194.922 27.76V29.8C194.922 29.8789 194.897 29.9578 194.767 29.9578H194.505V29.9308Z" fill="white"/>
<path d="M126.686 41.2617C126.191 41.078 125.827 40.8435 125.618 40.5809C125.41 40.3194 125.306 39.9802 125.306 39.5609C125.306 39.0379 125.488 38.6198 125.879 38.3053C126.269 37.9909 126.79 37.8342 127.441 37.8342C127.988 37.8342 128.509 37.939 129.03 38.1487V39.0898C128.483 38.9331 127.988 38.8283 127.519 38.8283C126.868 38.8283 126.53 39.0379 126.53 39.4561C126.53 39.6139 126.582 39.7446 126.686 39.8483C126.79 39.9531 127.025 40.058 127.337 40.1628L127.962 40.3983C128.483 40.5809 128.848 40.8165 129.056 41.052C129.264 41.3135 129.395 41.628 129.395 42.0461C129.395 42.6221 129.186 43.0673 128.77 43.4065C128.353 43.7469 127.806 43.9036 127.077 43.9036C126.764 43.9036 126.452 43.8777 126.139 43.8258C125.827 43.7728 125.566 43.6951 125.332 43.5903V42.6221C125.618 42.701 125.905 42.7787 126.217 42.8317C126.53 42.8836 126.816 42.9095 127.077 42.9095C127.415 42.9095 127.65 42.8576 127.832 42.7269C128.014 42.5962 128.092 42.4384 128.092 42.2039C128.092 42.0202 128.04 41.8895 127.936 41.7847C127.832 41.6798 127.598 41.575 127.285 41.4443L126.686 41.2617ZM131.27 41.9684C131.296 42.3347 131.4 42.5962 131.608 42.7787C131.817 42.9354 132.129 43.0143 132.546 43.0143C132.911 43.0143 133.353 42.9354 133.849 42.8047V43.6162C133.666 43.721 133.432 43.7988 133.145 43.8517C132.885 43.9036 132.598 43.9306 132.312 43.9306C131.608 43.9306 131.061 43.7469 130.697 43.3547C130.332 42.9625 130.15 42.4124 130.15 41.6539C130.15 40.9472 130.332 40.3983 130.697 39.9802C131.061 39.5868 131.582 39.3783 132.234 39.3783C132.781 39.3783 133.198 39.535 133.509 39.8483C133.796 40.1628 133.952 40.5809 133.952 41.1569C133.952 41.2876 133.952 41.4183 133.926 41.575C133.9 41.7328 133.9 41.8635 133.875 41.9684H131.27ZM132.155 40.2417C131.869 40.2417 131.661 40.3194 131.504 40.4772C131.348 40.6339 131.27 40.8695 131.244 41.1828H132.885V41.052C132.885 40.5032 132.651 40.2417 132.155 40.2417ZM136.739 43.721C136.505 43.8258 136.244 43.8517 135.984 43.8517C135.229 43.8517 134.864 43.4336 134.864 42.5962V37.5986H136.088V42.4913C136.088 42.648 136.114 42.7528 136.167 42.8317C136.218 42.8836 136.297 42.9354 136.427 42.9354C136.505 42.9354 136.609 42.9354 136.739 42.9095V43.721ZM138.485 41.9684C138.51 42.3347 138.615 42.5962 138.823 42.7787C139.032 42.9354 139.343 43.0143 139.76 43.0143C140.126 43.0143 140.568 42.9354 141.063 42.8047V43.6162C140.88 43.721 140.646 43.7988 140.36 43.8517C140.099 43.9036 139.813 43.9306 139.526 43.9306C138.823 43.9306 138.276 43.7469 137.911 43.3547C137.546 42.9625 137.364 42.4124 137.364 41.6539C137.364 40.9472 137.546 40.3983 137.911 39.9802C138.276 39.5868 138.796 39.3783 139.447 39.3783C139.994 39.3783 140.411 39.535 140.724 39.8483C141.011 40.1628 141.167 40.5809 141.167 41.1569C141.167 41.2876 141.167 41.4183 141.141 41.575C141.115 41.7328 141.115 41.8635 141.088 41.9684H138.485ZM139.396 40.2417C139.109 40.2417 138.9 40.3194 138.745 40.4772C138.589 40.6339 138.51 40.8695 138.485 41.1828H140.126V41.052C140.099 40.5032 139.864 40.2417 139.396 40.2417ZM145.151 43.6162C144.996 43.6951 144.813 43.7728 144.605 43.8258C144.396 43.8777 144.162 43.9036 143.953 43.9036C143.276 43.9036 142.755 43.721 142.391 43.3288C142.027 42.9354 141.844 42.3865 141.844 41.6798C141.844 40.9743 142.027 40.4242 142.417 40.032C142.808 39.6398 143.329 39.4302 143.98 39.4302C144.396 39.4302 144.761 39.5091 145.1 39.6917V40.5031C144.761 40.3983 144.474 40.3724 144.188 40.3724C143.797 40.3724 143.511 40.4772 143.329 40.6598C143.146 40.8695 143.068 41.1828 143.068 41.6021V41.7328C143.068 42.1509 143.146 42.4654 143.329 42.6739C143.511 42.8836 143.797 42.9625 144.162 42.9625C144.423 42.9625 144.761 42.9095 145.1 42.8047V43.6162H145.151ZM148.538 43.6951C148.225 43.7988 147.912 43.8777 147.522 43.8777C147.052 43.8777 146.688 43.7728 146.48 43.5373C146.245 43.3017 146.141 42.9625 146.141 42.4913V40.4243H145.49V39.6657L146.167 39.535L146.35 38.3572H147.339V39.5091H148.485V40.4243H147.339V42.4384C147.339 42.6221 147.392 42.7528 147.469 42.8317C147.548 42.9095 147.704 42.9354 147.912 42.9354C148.095 42.9354 148.278 42.9095 148.512 42.8836V43.6951H148.538Z" fill="white"/>
<path d="M151.577 43.2365C151.528 43.2365 151.507 43.216 151.507 43.1686V40.2809H150.48C150.43 40.2809 150.409 40.2604 150.409 40.2127V40.1041C150.409 40.0567 150.43 40.0362 150.48 40.0362H152.815C152.864 40.0362 152.886 40.0567 152.886 40.1041V40.2127C152.886 40.2604 152.864 40.2809 152.815 40.2809H151.788V43.1686C151.788 43.216 151.767 43.2365 151.718 43.2365H151.577ZM154.363 43.3044C153.983 43.3044 153.702 43.2025 153.505 42.9918C153.315 42.7813 153.216 42.4754 153.216 42.0677C153.216 41.6804 153.315 41.3815 153.505 41.1641C153.702 40.9466 153.969 40.8447 154.314 40.8447C154.602 40.8447 154.827 40.9264 154.982 41.0827C155.137 41.2457 155.214 41.4699 155.214 41.7688C155.214 41.8912 155.207 41.9863 155.193 42.0475C155.186 42.0949 155.158 42.1154 155.109 42.1154H153.491C153.491 42.4415 153.568 42.6792 153.709 42.8287C153.849 42.985 154.075 43.0597 154.377 43.0597C154.609 43.0597 154.827 43.019 155.031 42.9443C155.074 42.9306 155.102 42.9239 155.116 42.9239C155.13 42.9239 155.137 42.9306 155.151 42.9373C155.158 42.9511 155.165 42.9578 155.165 42.9783V43.0462C155.165 43.0936 155.151 43.1276 155.109 43.1413C154.891 43.2499 154.638 43.3044 154.363 43.3044ZM154.954 41.9046C154.954 41.8639 154.961 41.8095 154.961 41.7553C154.961 41.5311 154.905 41.3681 154.792 41.2525C154.68 41.1368 154.518 41.0827 154.3 41.0827C153.793 41.0827 153.526 41.3611 153.498 41.9114H154.954V41.9046ZM156.825 43.2906C156.46 43.2906 156.178 43.1888 155.981 42.985C155.791 42.7813 155.693 42.4754 155.693 42.0814C155.693 41.6871 155.791 41.3883 155.981 41.1778C156.178 40.9671 156.46 40.8652 156.825 40.8652C157.001 40.8652 157.17 40.8924 157.325 40.9536C157.36 40.9671 157.381 41.001 157.381 41.0487V41.1166C157.381 41.1573 157.36 41.1778 157.325 41.1778C157.318 41.1778 157.304 41.1778 157.29 41.1708C157.276 41.1641 157.255 41.1641 157.22 41.1573C157.093 41.1301 156.966 41.1096 156.84 41.1096C156.537 41.1096 156.319 41.1845 156.185 41.3338C156.051 41.4834 155.981 41.7214 155.981 42.0542V42.1086C155.981 42.428 156.051 42.6657 156.185 42.8153C156.319 42.9645 156.537 43.0462 156.833 43.0462C156.959 43.0462 157.093 43.0257 157.248 42.985C157.283 42.9783 157.304 42.9716 157.318 42.9645C157.332 42.9578 157.346 42.9578 157.353 42.9578C157.388 42.9578 157.409 42.9783 157.409 43.019V43.0869C157.409 43.1346 157.395 43.1686 157.36 43.182C157.198 43.2499 157.016 43.2906 156.825 43.2906ZM158.057 43.2365C158.007 43.2365 157.986 43.216 157.986 43.1686V39.8867C157.986 39.8392 158.007 39.8187 158.057 39.8187H158.183C158.233 39.8187 158.254 39.8392 158.254 39.8867V41.1778C158.409 41.0757 158.57 40.9943 158.746 40.9331C158.915 40.8719 159.084 40.8447 159.246 40.8447C159.478 40.8447 159.654 40.9059 159.78 41.0215C159.907 41.1368 159.963 41.3136 159.963 41.5446V43.1686C159.963 43.216 159.942 43.2365 159.893 43.2365H159.766C159.717 43.2365 159.696 43.216 159.696 43.1686V41.6602C159.696 41.4629 159.654 41.3136 159.576 41.2252C159.499 41.1368 159.372 41.0894 159.196 41.0894C158.88 41.0894 158.57 41.1846 158.268 41.3815V43.1686C158.268 43.216 158.247 43.2365 158.197 43.2365H158.057ZM160.772 43.2365C160.723 43.2365 160.702 43.216 160.702 43.1686V40.9805C160.702 40.9331 160.723 40.9126 160.772 40.9126H160.871C160.92 40.9126 160.948 40.9331 160.955 40.9805L160.976 41.1778C161.131 41.0689 161.3 40.9876 161.469 40.9264C161.638 40.8652 161.807 40.838 161.968 40.838C162.2 40.838 162.376 40.8991 162.503 41.0145C162.63 41.1301 162.686 41.3069 162.686 41.5379V43.1686C162.686 43.216 162.665 43.2365 162.616 43.2365H162.489C162.44 43.2365 162.418 43.216 162.418 43.1686V41.6602C162.418 41.4629 162.376 41.3136 162.299 41.2252C162.222 41.1368 162.095 41.0894 161.919 41.0894C161.603 41.0894 161.293 41.1846 160.99 41.3815V43.1686C160.99 43.216 160.969 43.2365 160.92 43.2365H160.772ZM164.403 43.3044C164.051 43.3044 163.776 43.1958 163.587 42.9783C163.389 42.7608 163.298 42.4549 163.298 42.0677C163.298 41.6804 163.396 41.3815 163.587 41.1641C163.783 40.9466 164.058 40.838 164.403 40.838C164.754 40.838 165.029 40.9466 165.219 41.1641C165.416 41.3815 165.514 41.6804 165.514 42.0677C165.514 42.4549 165.416 42.7608 165.219 42.9783C165.029 43.1958 164.754 43.3044 164.403 43.3044ZM164.403 43.0664C164.951 43.0664 165.233 42.7336 165.233 42.0747C165.233 41.4155 164.958 41.0894 164.403 41.0894C163.854 41.0894 163.572 41.4155 163.572 42.0747C163.572 42.7336 163.847 43.0664 164.403 43.0664ZM166.541 43.2499C166.415 43.2499 166.316 43.216 166.246 43.1413C166.176 43.0667 166.14 42.9716 166.14 42.8355V39.8799C166.14 39.8325 166.161 39.812 166.211 39.812H166.337C166.387 39.812 166.408 39.8325 166.408 39.8799V42.8287C166.408 42.8966 166.422 42.9443 166.45 42.9716C166.478 42.9985 166.527 43.0123 166.598 43.0123C166.619 43.0123 166.64 43.0123 166.661 43.0055C166.682 43.0055 166.703 42.9985 166.717 42.9985C166.759 42.9985 166.787 43.019 166.787 43.0664V43.1548C166.787 43.1958 166.767 43.216 166.724 43.2227C166.668 43.2432 166.612 43.2499 166.541 43.2499ZM168.314 43.3044C167.963 43.3044 167.688 43.1958 167.498 42.9783C167.301 42.7608 167.21 42.4549 167.21 42.0677C167.21 41.6804 167.308 41.3815 167.498 41.1641C167.695 40.9466 167.97 40.838 168.314 40.838C168.666 40.838 168.941 40.9466 169.13 41.1641C169.327 41.3815 169.426 41.6804 169.426 42.0677C169.426 42.4549 169.327 42.7608 169.13 42.9783C168.941 43.1958 168.666 43.3044 168.314 43.3044ZM168.314 43.0664C168.863 43.0664 169.144 42.7336 169.144 42.0747C169.144 41.4155 168.87 41.0894 168.314 41.0894C167.765 41.0894 167.484 41.4155 167.484 42.0747C167.491 42.7336 167.765 43.0664 168.314 43.0664ZM170.896 44.242C170.763 44.242 170.629 44.2285 170.502 44.2013C170.376 44.174 170.263 44.1401 170.165 44.0927C170.13 44.0789 170.108 44.045 170.108 43.9975V43.9293C170.108 43.8886 170.122 43.8684 170.165 43.8684C170.172 43.8684 170.186 43.8684 170.193 43.8752C170.207 43.8752 170.228 43.8819 170.256 43.8954C170.481 43.9633 170.692 44.0043 170.875 44.0043C171.171 44.0043 171.389 43.9364 171.53 43.7935C171.67 43.651 171.741 43.4267 171.741 43.1209V42.8966C171.621 42.9918 171.494 43.0664 171.346 43.1209C171.206 43.1753 171.065 43.2025 170.939 43.2025C170.629 43.2025 170.39 43.0936 170.2 42.8832C170.017 42.6724 169.925 42.394 169.925 42.0475C169.925 41.6737 170.017 41.3815 170.2 41.1641C170.383 40.9466 170.636 40.838 170.952 40.838C171.255 40.838 171.515 40.9398 171.748 41.1439L171.769 40.9738C171.776 40.9264 171.804 40.9059 171.853 40.9059H171.952C172.001 40.9059 172.022 40.9264 172.022 40.9738V43.1209C172.022 43.4809 171.923 43.7596 171.733 43.9498C171.543 44.1401 171.255 44.242 170.896 44.242ZM171.002 42.9645C171.241 42.9645 171.487 42.8694 171.741 42.6724V41.3883C171.607 41.2864 171.487 41.2047 171.361 41.1573C171.241 41.1096 171.107 41.0827 170.974 41.0827C170.72 41.0827 170.523 41.1641 170.397 41.3204C170.27 41.4834 170.207 41.7144 170.207 42.0337C170.207 42.3329 170.277 42.5638 170.411 42.7269C170.545 42.8899 170.741 42.9645 171.002 42.9645ZM172.845 44.242C172.768 44.242 172.697 44.2285 172.627 44.208C172.578 44.1945 172.557 44.1673 172.557 44.1129V44.045C172.557 44.0043 172.578 43.9838 172.613 43.9838C172.634 43.9838 172.648 43.9838 172.662 43.9905C172.676 43.9905 172.697 43.9975 172.725 43.9975C172.754 43.9975 172.782 43.9975 172.824 43.9975C172.93 43.9975 173.014 43.9703 173.077 43.9159C173.141 43.8614 173.197 43.7663 173.253 43.6305L173.415 43.2432L172.472 41.0077C172.458 40.9805 172.451 40.9603 172.451 40.9466C172.451 40.9126 172.472 40.8924 172.507 40.8924H172.662C172.704 40.8924 172.732 40.9126 172.747 40.9536L173.548 42.9373L174.358 40.9536C174.372 40.9126 174.4 40.8924 174.442 40.8924H174.583C174.618 40.8924 174.639 40.9059 174.639 40.9466C174.639 40.9536 174.632 40.9738 174.618 41.0077L173.492 43.7121C173.415 43.9024 173.323 44.0315 173.225 44.1129C173.126 44.208 173 44.242 172.845 44.242Z" fill="white"/>
<path d="M176.93 44.1499C176.867 44.1499 176.84 44.1225 176.84 44.0579V39.9041C176.84 39.8398 176.867 39.812 176.93 39.812H178.294C178.68 39.812 178.985 39.9318 179.218 40.162C179.452 40.3925 179.559 40.7055 179.559 41.1015C179.559 41.4884 179.443 41.8014 179.218 42.0315C178.985 42.2621 178.68 42.3815 178.294 42.3815H177.19V44.0579C177.19 44.1225 177.163 44.1499 177.1 44.1499H176.93ZM178.285 42.0502C178.886 42.0502 179.191 41.7371 179.191 41.1015C179.191 40.4659 178.886 40.1437 178.285 40.1437H177.19V42.0502H178.285ZM181.058 44.2237C180.78 44.2237 180.556 44.1408 180.385 43.9749C180.223 43.8091 180.134 43.5881 180.134 43.3119C180.134 43.008 180.232 42.7683 180.439 42.5934C180.645 42.4184 180.924 42.3263 181.274 42.3263C181.543 42.3263 181.839 42.3724 182.144 42.4739V41.949C182.144 41.6911 182.081 41.5161 181.965 41.4054C181.848 41.2947 181.651 41.2396 181.381 41.2396C181.103 41.2396 180.807 41.2947 180.493 41.3963C180.457 41.4054 180.421 41.4146 180.403 41.4146C180.367 41.4146 180.34 41.3872 180.34 41.3316V41.2305C180.34 41.1936 180.349 41.1753 180.358 41.1567C180.367 41.1384 180.394 41.1198 180.421 41.1106C180.744 40.9817 181.085 40.9174 181.444 40.9174C181.803 40.9174 182.064 40.9908 182.243 41.1475C182.422 41.3043 182.503 41.5344 182.503 41.8474V44.0579C182.503 44.1225 182.476 44.1499 182.414 44.1499H182.288C182.225 44.1499 182.198 44.1225 182.189 44.0579L182.162 43.7908C181.803 44.0761 181.435 44.2237 181.058 44.2237ZM181.103 43.892C181.256 43.892 181.426 43.8646 181.605 43.7999C181.785 43.7357 181.965 43.6436 182.153 43.5238V42.741C181.884 42.6672 181.615 42.6303 181.363 42.6303C180.798 42.6303 180.511 42.8513 180.511 43.3028C180.511 43.496 180.565 43.6436 180.663 43.7448C180.753 43.846 180.906 43.892 181.103 43.892ZM183.526 44.1499C183.463 44.1499 183.437 44.1225 183.437 44.0579V41.0924C183.437 41.0277 183.463 41.0003 183.526 41.0003H183.643C183.706 41.0003 183.742 41.0277 183.751 41.0924L183.778 41.4606C183.93 41.2856 184.083 41.1567 184.235 41.0924C184.388 41.0186 184.549 40.9817 184.738 40.9817C184.801 40.9817 184.855 40.9817 184.899 40.9908C184.962 40.9908 184.989 41.0277 184.989 41.0924V41.2487C184.989 41.2674 184.98 41.2856 184.971 41.2947C184.962 41.3134 184.944 41.3134 184.926 41.3134C184.891 41.3134 184.864 41.3134 184.837 41.3134C184.81 41.3134 184.765 41.3134 184.711 41.3134C184.522 41.3134 184.361 41.3503 184.217 41.4237C184.074 41.4975 183.93 41.6082 183.804 41.7645V44.067C183.804 44.1317 183.778 44.159 183.715 44.159H183.526V44.1499ZM186.479 44.1868C186.237 44.1868 186.057 44.1225 185.931 43.9936C185.806 43.8646 185.743 43.671 185.743 43.4222V41.3225H185.259C185.196 41.3225 185.169 41.2947 185.169 41.2305V41.1662C185.169 41.1293 185.178 41.1106 185.187 41.0924C185.196 41.0737 185.223 41.0646 185.259 41.0646L185.752 41.0186L185.797 40.1897C185.797 40.1528 185.806 40.1346 185.824 40.1159C185.842 40.0977 185.86 40.0977 185.887 40.0977H185.994C186.057 40.0977 186.084 40.1255 186.084 40.1897V41.0095H186.973C187.036 41.0095 187.062 41.0372 187.062 41.1015V41.2305C187.062 41.2947 187.036 41.3225 186.973 41.3225H186.084V43.404C186.084 43.5789 186.12 43.6988 186.192 43.7631C186.264 43.8369 186.38 43.8737 186.551 43.8737C186.668 43.8737 186.775 43.8646 186.865 43.846C186.91 43.8369 186.946 43.8277 186.973 43.8277C187 43.8186 187.018 43.8186 187.036 43.8186C187.081 43.8186 187.107 43.846 187.107 43.892V43.9841C187.107 44.0579 187.089 44.0947 187.036 44.113C186.874 44.159 186.685 44.1868 186.479 44.1868ZM187.835 44.1499C187.772 44.1499 187.745 44.1225 187.745 44.0579V41.0924C187.745 41.0277 187.772 41.0003 187.835 41.0003H187.96C188.023 41.0003 188.059 41.0277 188.068 41.0924L188.094 41.3594C188.292 41.2122 188.507 41.1015 188.723 41.0186C188.938 40.9357 189.154 40.8988 189.36 40.8988C189.657 40.8988 189.881 40.9817 190.042 41.1384C190.204 41.2947 190.276 41.5344 190.276 41.8474V44.0579C190.276 44.1225 190.249 44.1499 190.186 44.1499H190.024C189.962 44.1499 189.935 44.1225 189.935 44.0579V42.0133C189.935 41.7463 189.881 41.5435 189.782 41.4237C189.683 41.3043 189.522 41.2396 189.297 41.2396C188.894 41.2396 188.499 41.3685 188.113 41.6356V44.0579C188.113 44.1225 188.086 44.1499 188.023 44.1499H187.835ZM192.511 44.242C192.026 44.242 191.667 44.1039 191.415 43.8186C191.173 43.5329 191.047 43.1183 191.047 42.566C191.047 42.0411 191.173 41.6356 191.415 41.3412C191.667 41.0464 192.008 40.9083 192.448 40.9083C192.816 40.9083 193.103 41.0186 193.3 41.2305C193.498 41.4515 193.596 41.7554 193.596 42.1605C193.596 42.3263 193.587 42.4553 193.57 42.5382C193.561 42.6029 193.525 42.6303 193.462 42.6303H191.398C191.398 43.0723 191.496 43.3948 191.676 43.5972C191.855 43.8091 192.142 43.9107 192.528 43.9107C192.825 43.9107 193.103 43.8551 193.363 43.7539C193.417 43.7357 193.453 43.7262 193.471 43.7262C193.489 43.7262 193.498 43.7357 193.516 43.7448C193.525 43.7631 193.534 43.7722 193.534 43.7999V43.892C193.534 43.9567 193.516 44.0027 193.462 44.021C193.184 44.1686 192.86 44.242 192.511 44.242ZM193.264 42.345C193.264 42.2894 193.273 42.216 193.273 42.1422C193.273 41.8383 193.202 41.6173 193.058 41.4606C192.914 41.3043 192.708 41.2305 192.43 41.2305C191.784 41.2305 191.443 41.6082 191.407 42.3541H193.264V42.345ZM194.467 44.1499C194.404 44.1499 194.377 44.1225 194.377 44.0579V41.0924C194.377 41.0277 194.404 41.0003 194.467 41.0003H194.584C194.646 41.0003 194.682 41.0277 194.691 41.0924L194.718 41.4606C194.871 41.2856 195.023 41.1567 195.176 41.0924C195.329 41.0186 195.49 40.9817 195.679 40.9817C195.742 40.9817 195.795 40.9817 195.84 40.9908C195.903 40.9908 195.93 41.0277 195.93 41.0924V41.2487C195.93 41.2674 195.921 41.2856 195.912 41.2947C195.903 41.3134 195.885 41.3134 195.867 41.3134C195.831 41.3134 195.804 41.3134 195.777 41.3134C195.75 41.3134 195.706 41.3134 195.652 41.3134C195.463 41.3134 195.302 41.3503 195.158 41.4237C195.015 41.4975 194.871 41.6082 194.745 41.7645V44.067C194.745 44.1317 194.718 44.159 194.655 44.159H194.467V44.1499Z" fill="white"/>
<g opacity="0.9">
<rect x="332.609" y="1.00049" width="99.3901" height="55.7328" rx="2.40248" fill="#362D79" fill-opacity="0.08"/>
<rect x="332.145" y="0.536049" width="100.319" height="56.6616" rx="2.86692" stroke="white" stroke-opacity="0.03" stroke-width="0.928879"/>
</g>
<path d="M406.645 31.4371H405.787V32.9277H404.786V31.4371H401.89V30.6447L404.777 26.1634H405.787V30.5881H406.645V31.4371ZM404.786 28.7578C404.786 28.6069 404.786 28.4622 404.786 28.3239C404.793 28.1855 404.799 28.0534 404.805 27.9276C404.812 27.7955 404.815 27.676 404.815 27.5691C404.821 27.4559 404.827 27.3553 404.834 27.2672H404.796C404.746 27.393 404.686 27.522 404.617 27.654C404.554 27.7861 404.491 27.9025 404.428 28.0031L402.843 30.5881H404.786V28.7578ZM407.381 32.3711C407.381 32.1258 407.441 31.9529 407.561 31.8522C407.687 31.7516 407.841 31.7013 408.023 31.7013C408.199 31.7013 408.35 31.7516 408.476 31.8522C408.608 31.9529 408.674 32.1258 408.674 32.3711C408.674 32.6164 408.608 32.7925 408.476 32.8994C408.35 33.0064 408.199 33.0598 408.023 33.0598C407.841 33.0598 407.687 33.0064 407.561 32.8994C407.441 32.7925 407.381 32.6164 407.381 32.3711ZM413.927 29.0692C413.927 29.4591 413.898 29.8459 413.842 30.2296C413.792 30.6132 413.7 30.9749 413.568 31.3145C413.436 31.6478 413.257 31.9434 413.031 32.2013C412.804 32.4592 412.515 32.6604 412.163 32.8051C411.817 32.9497 411.398 33.0221 410.908 33.0221C410.788 33.0221 410.647 33.0158 410.483 33.0032C410.32 32.9906 410.188 32.9686 410.087 32.9372V32.0975C410.194 32.1353 410.314 32.1636 410.446 32.1824C410.584 32.2013 410.719 32.2107 410.851 32.2107C411.254 32.2107 411.587 32.1478 411.851 32.0221C412.115 31.89 412.326 31.7076 412.483 31.4749C412.641 31.2422 412.751 30.9717 412.814 30.6635C412.883 30.3553 412.924 30.0283 412.936 29.6824H412.889C412.801 29.827 412.694 29.9591 412.568 30.0786C412.442 30.1981 412.285 30.2925 412.097 30.3616C411.914 30.4308 411.691 30.4654 411.427 30.4654C411.068 30.4654 410.754 30.3837 410.483 30.2201C410.213 30.0566 410.005 29.8239 409.861 29.522C409.716 29.2138 409.644 28.8396 409.644 28.3993C409.644 27.9213 409.725 27.5125 409.889 27.1729C410.059 26.827 410.298 26.5628 410.606 26.3804C410.92 26.1917 411.288 26.0974 411.71 26.0974C412.024 26.0974 412.314 26.1603 412.578 26.2861C412.848 26.4056 413.084 26.588 413.285 26.8333C413.493 27.0785 413.65 27.3867 413.757 27.7578C413.87 28.1289 413.927 28.566 413.927 29.0692ZM411.729 26.9276C411.408 26.9276 411.147 27.0471 410.946 27.2861C410.744 27.5251 410.644 27.8899 410.644 28.3805C410.644 28.783 410.729 29.1006 410.898 29.3333C411.075 29.5597 411.339 29.6729 411.691 29.6729C411.936 29.6729 412.15 29.6163 412.332 29.5031C412.515 29.3899 412.653 29.2484 412.748 29.0786C412.848 28.9025 412.898 28.7201 412.898 28.5314C412.898 28.3364 412.873 28.1446 412.823 27.9559C412.773 27.7672 412.7 27.5943 412.606 27.437C412.512 27.2798 412.389 27.1572 412.238 27.0691C412.093 26.9748 411.924 26.9276 411.729 26.9276Z" fill="#F0F0F0"/>
<path d="M347.798 8.56606C348.219 8.56606 348.566 8.62232 348.84 8.73483C349.114 8.84734 349.317 9.01611 349.449 9.24113C349.586 9.46126 349.655 9.74009 349.655 10.0776C349.655 10.3467 349.608 10.5741 349.515 10.76C349.427 10.941 349.31 11.0902 349.163 11.2076C349.021 11.3201 348.867 11.4106 348.701 11.4791L350.088 13.8052H349.163L347.996 11.6846H347.197V13.8052H346.382V8.56606H347.798ZM347.762 9.24113H347.197V11.0242H347.776C348.016 11.0242 348.212 10.9899 348.363 10.9215C348.52 10.853 348.635 10.7502 348.708 10.6133C348.786 10.4763 348.826 10.3075 348.826 10.107C348.826 9.89663 348.786 9.73031 348.708 9.60802C348.635 9.48083 348.517 9.38788 348.356 9.32918C348.199 9.27048 348.001 9.24113 347.762 9.24113ZM352.198 9.77678C352.663 9.77678 353.013 9.88685 353.247 10.107C353.487 10.3222 353.607 10.6622 353.607 11.1269V13.8052H353.042L352.888 13.2548H352.858C352.746 13.3967 352.633 13.5141 352.521 13.6071C352.413 13.7 352.286 13.7685 352.139 13.8125C351.998 13.8565 351.821 13.8786 351.611 13.8786C351.391 13.8786 351.193 13.837 351.017 13.7538C350.841 13.6658 350.701 13.5337 350.598 13.3576C350.496 13.1766 350.444 12.9516 350.444 12.6825C350.444 12.2814 350.586 11.9756 350.87 11.7653C351.159 11.5549 351.596 11.44 352.183 11.4204L352.814 11.3984V11.1783C352.814 10.8848 352.753 10.6793 352.631 10.5619C352.514 10.4445 352.347 10.3858 352.132 10.3858C351.951 10.3858 351.773 10.4152 351.596 10.4739C351.42 10.5326 351.249 10.6035 351.083 10.6867L350.841 10.1217C351.022 10.0238 351.227 9.9431 351.457 9.87951C351.692 9.81102 351.939 9.77678 352.198 9.77678ZM352.338 11.9194C351.936 11.939 351.658 12.0148 351.501 12.1469C351.344 12.274 351.266 12.455 351.266 12.6898C351.266 12.8953 351.32 13.0445 351.428 13.1374C351.54 13.2304 351.684 13.2769 351.861 13.2769C352.13 13.2769 352.355 13.1913 352.536 13.02C352.722 12.8488 352.814 12.592 352.814 12.2496V11.9047L352.338 11.9194ZM356.101 13.2475C356.204 13.2475 356.304 13.2377 356.402 13.2182C356.5 13.1986 356.585 13.1766 356.659 13.1521V13.7391C356.576 13.7783 356.466 13.8101 356.329 13.8345C356.197 13.8639 356.057 13.8786 355.91 13.8786C355.705 13.8786 355.517 13.8419 355.345 13.7685C355.174 13.6951 355.037 13.5679 354.934 13.3869C354.832 13.2059 354.78 12.954 354.78 12.6311V10.4445H354.274V10.0923L354.817 9.7988L355.089 8.9623H355.58V9.85016H356.629V10.4445H355.58V12.6165C355.58 12.8317 355.629 12.9907 355.727 13.0934C355.825 13.1961 355.95 13.2475 356.101 13.2475ZM358.891 9.77678C359.219 9.77678 359.502 9.85016 359.742 9.99691C359.982 10.1388 360.165 10.3442 360.292 10.6133C360.424 10.8823 360.49 11.2003 360.49 11.5672V11.9928H358.003C358.013 12.3988 358.111 12.7094 358.297 12.9247C358.482 13.1399 358.744 13.2475 359.082 13.2475C359.321 13.2475 359.534 13.2255 359.72 13.1815C359.911 13.1326 360.104 13.0616 360.3 12.9687V13.6144C360.114 13.7024 359.923 13.7685 359.727 13.8125C359.537 13.8565 359.304 13.8786 359.03 13.8786C358.673 13.8786 358.355 13.8027 358.076 13.6511C357.798 13.4994 357.58 13.2744 357.423 12.976C357.267 12.6727 357.189 12.3009 357.189 11.8607C357.189 11.4155 357.259 11.0389 357.401 10.7307C357.543 10.4225 357.741 10.1877 357.996 10.0263C358.255 9.85994 358.553 9.77678 358.891 9.77678ZM358.891 10.3785C358.641 10.3785 358.441 10.469 358.289 10.65C358.138 10.831 358.049 11.0878 358.025 11.4204H359.705C359.705 11.215 359.676 11.034 359.617 10.8774C359.559 10.7209 359.468 10.5986 359.346 10.5106C359.228 10.4225 359.077 10.3785 358.891 10.3785ZM366.494 11.824C366.494 12.1517 366.452 12.4428 366.369 12.6972C366.286 12.9516 366.166 13.1668 366.009 13.3429C365.858 13.519 365.672 13.6535 365.452 13.7465C365.231 13.8345 364.984 13.8786 364.71 13.8786C364.461 13.8786 364.229 13.8345 364.013 13.7465C363.798 13.6535 363.612 13.519 363.456 13.3429C363.299 13.1668 363.177 12.9516 363.089 12.6972C363.006 12.4428 362.964 12.1493 362.964 11.8167C362.964 11.3813 363.035 11.012 363.177 10.7087C363.319 10.4054 363.522 10.1755 363.786 10.0189C364.055 9.8575 364.373 9.77678 364.74 9.77678C365.082 9.77678 365.386 9.8575 365.65 10.0189C365.914 10.1755 366.119 10.4054 366.266 10.7087C366.418 11.012 366.494 11.3837 366.494 11.824ZM363.786 11.824C363.786 12.1175 363.818 12.3719 363.881 12.5871C363.95 12.7975 364.053 12.9589 364.189 13.0714C364.331 13.1839 364.51 13.2402 364.725 13.2402C364.945 13.2402 365.124 13.1839 365.261 13.0714C365.403 12.9589 365.505 12.7975 365.569 12.5871C365.637 12.3719 365.672 12.1175 365.672 11.824C365.672 11.5207 365.637 11.2663 365.569 11.0609C365.5 10.8554 365.398 10.6989 365.261 10.5913C365.124 10.4788 364.943 10.4225 364.718 10.4225C364.39 10.4225 364.153 10.5448 364.006 10.7894C363.859 11.034 363.786 11.3788 363.786 11.824ZM369.334 9.77678C369.765 9.77678 370.095 9.89174 370.325 10.1217C370.56 10.3516 370.677 10.7209 370.677 11.2296V13.8052H369.885V11.3397C369.885 11.0315 369.824 10.8016 369.701 10.65C369.584 10.4934 369.401 10.4152 369.151 10.4152C368.784 10.4152 368.532 10.535 368.395 10.7747C368.258 11.0144 368.19 11.3593 368.19 11.8093V13.8052H367.397V9.85016H368.021L368.131 10.3785H368.175C368.258 10.2415 368.359 10.129 368.476 10.0409C368.593 9.95289 368.725 9.88685 368.872 9.84282C369.019 9.7988 369.173 9.77678 369.334 9.77678Z" fill="#F0F0F0"/>
<path d="M360.379 18.3838H362.756V33.1374H360.379V18.3838Z" fill="white"/>
<path d="M371.023 28.4629C371.023 30.7488 369.163 30.9567 368.543 30.9567C367.096 30.9567 366.889 29.6059 366.889 28.8785V23.1636H364.513V28.7746C364.513 30.1254 364.926 31.3723 365.753 32.0996C366.476 32.827 367.406 33.1387 368.543 33.1387C369.369 33.1387 370.403 32.9309 371.023 32.3075V33.1387H373.399V23.1636H371.023V28.4629Z" fill="white"/>
<path d="M378.048 19.5269H375.672V23.1633H373.915V25.4491H375.672V33.1376H378.048V25.4491H379.805V23.1633H378.048V19.5269Z" fill="white"/>
<path d="M387.245 30.1252C386.729 30.5408 386.005 30.8526 385.282 30.8526C383.629 30.8526 382.492 29.6057 382.492 27.9431C382.492 26.2806 383.629 25.1376 385.282 25.1376C386.005 25.1376 386.729 25.3454 387.245 25.865L387.555 26.1767L389.209 24.6181L388.795 24.3064C387.865 23.4751 386.625 22.9556 385.282 22.9556C382.389 22.9556 380.219 25.1376 380.219 28.047C380.219 30.9565 382.389 33.1385 385.282 33.1385C386.625 33.1385 387.865 32.619 388.795 31.7877L389.209 31.476L387.555 29.8135L387.245 30.1252Z" fill="white"/>
<path d="M397.579 23.9943C396.856 23.267 396.132 22.9553 394.996 22.9553C394.169 22.9553 393.342 23.1631 392.722 23.7865V18.3838H390.346V33.1374H392.722V27.6308C392.722 25.345 394.272 25.1372 394.892 25.1372C396.339 25.1372 396.236 26.4879 396.236 27.2152V33.0335H398.612V27.3191C398.612 25.9684 398.302 24.7216 397.579 23.9943Z" fill="white"/>
<path d="M385.179 29.7088C386.092 29.7088 386.832 28.9645 386.832 28.0463C386.832 27.1281 386.092 26.3838 385.179 26.3838C384.266 26.3838 383.525 27.1281 383.525 28.0463C383.525 28.9645 384.266 29.7088 385.179 29.7088Z" fill="#EF4335"/>
<path d="M357.072 29.5011C356.245 30.3323 355.005 30.8518 353.662 30.8518C351.079 30.8518 349.219 28.7738 349.219 25.9685C349.219 23.1633 351.079 21.0853 353.765 21.0853C355.005 21.0853 356.245 21.6048 357.175 22.5399L357.485 22.8516L359.035 21.2931L358.725 20.9814C357.382 19.6307 355.625 18.9034 353.765 18.9034C349.839 18.7995 346.945 21.9165 346.945 25.9685C346.945 30.0206 349.839 33.1375 353.662 33.1375C355.522 33.1375 357.382 32.4103 358.622 31.0596L358.932 30.7479L357.382 29.1894L357.072 29.5011Z" fill="white"/>
<path d="M364.276 39.1302L363.322 41.0815C363.274 41.1808 363.202 41.2667 363.114 41.3318C363.025 41.3969 362.922 41.4392 362.813 41.4552L360.682 41.7682C360.582 41.7828 360.488 41.8253 360.411 41.891C360.334 41.9567 360.276 42.043 360.245 42.1399C360.214 42.2369 360.21 42.3408 360.235 42.4397C360.259 42.5387 360.31 42.6289 360.382 42.7L361.925 44.219C362.004 44.2962 362.062 44.3915 362.096 44.4966C362.13 44.6017 362.138 44.7136 362.12 44.8226L361.755 46.9676C361.738 47.068 361.75 47.1712 361.788 47.2655C361.826 47.3598 361.889 47.4415 361.971 47.5013C362.053 47.5611 362.149 47.5966 362.25 47.6039C362.35 47.6112 362.451 47.5899 362.54 47.5425L364.447 46.5299C364.544 46.4784 364.652 46.4515 364.761 46.4515C364.871 46.4515 364.979 46.4784 365.076 46.5299L366.982 47.5425C367.072 47.5899 367.172 47.6112 367.273 47.6039C367.373 47.5966 367.47 47.5611 367.552 47.5013C367.633 47.4415 367.697 47.3598 367.735 47.2655C367.773 47.1712 367.784 47.068 367.767 46.9676L367.403 44.8226C367.385 44.7136 367.393 44.6017 367.426 44.4966C367.46 44.3915 367.519 44.2962 367.597 44.219L369.14 42.7C369.213 42.6289 369.264 42.5387 369.288 42.4397C369.312 42.3408 369.308 42.2369 369.277 42.1399C369.246 42.043 369.189 41.9567 369.111 41.891C369.034 41.8253 368.94 41.7828 368.841 41.7682L366.708 41.4552C366.6 41.4392 366.497 41.3969 366.408 41.3318C366.319 41.2667 366.248 41.1808 366.199 41.0815L365.246 39.1302C365.201 39.0388 365.132 38.9618 365.046 38.908C364.961 38.8542 364.862 38.8257 364.761 38.8257C364.66 38.8257 364.561 38.8542 364.475 38.908C364.39 38.9618 364.321 39.0388 364.276 39.1302Z" fill="#FFAF00"/>
<path d="M377.532 39.1303L376.578 41.0816C376.53 41.1809 376.458 41.2668 376.369 41.3319C376.281 41.397 376.178 41.4393 376.069 41.4553L373.937 41.7683C373.837 41.7829 373.743 41.8254 373.666 41.8911C373.589 41.9568 373.531 42.0431 373.5 42.14C373.469 42.237 373.465 42.3409 373.489 42.4399C373.514 42.5388 373.565 42.629 373.637 42.7001L375.18 44.2191C375.258 44.2963 375.317 44.3916 375.351 44.4967C375.385 44.6018 375.393 44.7137 375.374 44.8227L375.01 46.9677C374.993 47.0681 375.005 47.1713 375.043 47.2656C375.081 47.3599 375.144 47.4416 375.226 47.5014C375.307 47.5612 375.404 47.5967 375.505 47.604C375.605 47.6113 375.706 47.59 375.795 47.5426L377.702 46.53C377.799 46.4785 377.907 46.4516 378.016 46.4516C378.126 46.4516 378.234 46.4785 378.331 46.53L380.237 47.5426C380.326 47.59 380.427 47.6113 380.528 47.604C380.628 47.5967 380.725 47.5612 380.806 47.5014C380.888 47.4416 380.952 47.3599 380.99 47.2656C381.028 47.1713 381.039 47.0681 381.022 46.9677L380.658 44.8227C380.639 44.7137 380.647 44.6018 380.681 44.4967C380.715 44.3916 380.774 44.2963 380.852 44.2191L382.395 42.7001C382.467 42.629 382.519 42.5388 382.543 42.4399C382.567 42.3409 382.563 42.237 382.532 42.14C382.501 42.0431 382.444 41.9568 382.366 41.8911C382.289 41.8254 382.195 41.7829 382.095 41.7683L379.963 41.4553C379.855 41.4393 379.752 41.397 379.663 41.3319C379.574 41.2668 379.503 41.1809 379.454 41.0816L378.501 39.1303C378.456 39.0391 378.387 38.9624 378.301 38.9087C378.216 38.8551 378.117 38.8267 378.016 38.8267C377.915 38.8267 377.817 38.8551 377.731 38.9087C377.645 38.9624 377.576 39.0391 377.532 39.1303Z" fill="#FFAF00"/>
<path d="M390.787 39.1288L389.834 41.0801C389.785 41.1794 389.714 41.2653 389.625 41.3303C389.536 41.3954 389.433 41.4378 389.325 41.4537L387.193 41.7667C387.093 41.7813 386.999 41.8239 386.922 41.8896C386.845 41.9553 386.787 42.0415 386.756 42.1385C386.725 42.2354 386.721 42.3393 386.745 42.4383C386.77 42.5373 386.821 42.6274 386.893 42.6985L388.436 44.2175C388.514 44.2947 388.573 44.39 388.607 44.4951C388.641 44.6003 388.649 44.7121 388.63 44.8211L388.266 46.9662C388.249 47.0666 388.26 47.1698 388.298 47.2641C388.337 47.3584 388.4 47.44 388.482 47.4998C388.563 47.5596 388.66 47.5952 388.76 47.6024C388.861 47.6097 388.962 47.5884 389.051 47.541L390.957 46.5284C391.054 46.4769 391.162 46.45 391.272 46.45C391.382 46.45 391.49 46.4769 391.587 46.5284L393.493 47.541C393.582 47.5884 393.683 47.6097 393.784 47.6024C393.884 47.5952 393.981 47.5596 394.062 47.4998C394.144 47.44 394.207 47.3584 394.246 47.2641C394.284 47.1698 394.295 47.0666 394.278 46.9662L393.914 44.8211C393.895 44.7121 393.903 44.6003 393.937 44.4951C393.971 44.39 394.03 44.2947 394.108 44.2175L395.651 42.6985C395.723 42.6274 395.774 42.5373 395.799 42.4383C395.823 42.3393 395.819 42.2354 395.788 42.1385C395.757 42.0415 395.699 41.9553 395.622 41.8896C395.545 41.8239 395.451 41.7813 395.351 41.7667L393.219 41.4537C393.111 41.4378 393.008 41.3954 392.919 41.3303C392.83 41.2653 392.759 41.1794 392.71 41.0801L391.757 39.1288C391.712 39.0373 391.643 38.9604 391.558 38.9066C391.472 38.8527 391.373 38.8242 391.272 38.8242C391.171 38.8242 391.072 38.8527 390.987 38.9066C390.901 38.9604 390.832 39.0373 390.787 39.1288Z" fill="#FFAF00"/>
<path d="M405.014 39.1298L405.967 41.0811C406.016 41.1804 406.087 41.2663 406.176 41.3314C406.265 41.3965 406.368 41.4388 406.476 41.4548L408.608 41.7678C408.708 41.7824 408.802 41.8249 408.879 41.8907C408.956 41.9564 409.014 42.0426 409.045 42.1395C409.076 42.2365 409.08 42.3404 409.055 42.4394C409.031 42.5383 408.98 42.6285 408.908 42.6996L407.365 44.2186C407.286 44.2958 407.228 44.3911 407.194 44.4962C407.16 44.6014 407.152 44.7132 407.17 44.8222L407.535 46.9672C407.552 47.0676 407.54 47.1708 407.502 47.2651C407.464 47.3594 407.401 47.4411 407.319 47.5009C407.237 47.5607 407.141 47.5962 407.04 47.6035C406.94 47.6108 406.839 47.5895 406.75 47.5421L404.843 46.5295C404.746 46.478 404.638 46.4511 404.529 46.4511C404.419 46.4511 404.311 46.478 404.214 46.5295L402.308 47.5421C402.218 47.5895 402.118 47.6108 402.017 47.6035C401.917 47.5962 401.82 47.5607 401.738 47.5009C401.657 47.4411 401.593 47.3594 401.555 47.2651C401.517 47.1708 401.506 47.0676 401.523 46.9672L401.887 44.8222C401.906 44.7132 401.897 44.6013 401.864 44.4962C401.83 44.3911 401.771 44.2958 401.693 44.2186L400.15 42.6996C400.078 42.6285 400.026 42.5383 400.002 42.4394C399.978 42.3404 399.982 42.2365 400.013 42.1395C400.044 42.0426 400.101 41.9564 400.179 41.8907C400.256 41.8249 400.35 41.7824 400.45 41.7678L402.582 41.4548C402.69 41.4388 402.793 41.3965 402.882 41.3314C402.971 41.2663 403.042 41.1804 403.091 41.0811L404.042 39.1298C404.086 39.0379 404.155 38.9604 404.241 38.9062C404.327 38.852 404.426 38.8232 404.528 38.8232C404.629 38.8232 404.728 38.852 404.814 38.9062C404.9 38.9604 404.969 39.0379 405.014 39.1298Z" fill="#FFAF00"/>
<path d="M406.75 47.5431L405.451 46.8533V40.0259L405.967 41.0807C406.015 41.18 406.087 41.2659 406.176 41.331C406.264 41.3961 406.367 41.4384 406.476 41.4544L408.608 41.7674C408.708 41.782 408.802 41.8245 408.879 41.8902C408.956 41.9559 409.014 42.0422 409.045 42.1391C409.076 42.2361 409.08 42.34 409.055 42.4389C409.031 42.5379 408.98 42.6281 408.908 42.6992L407.365 44.2182C407.286 44.2954 407.228 44.3907 407.194 44.4958C407.16 44.6009 407.152 44.7128 407.17 44.8218L407.535 46.9668C407.552 47.0673 407.541 47.1707 407.503 47.2653C407.465 47.3598 407.402 47.4417 407.32 47.5017C407.238 47.5617 407.142 47.5974 407.041 47.6047C406.94 47.612 406.839 47.5907 406.75 47.5431Z" fill="#FDE3AC"/>
<path d="M351.024 39.1315L350.07 41.0831C350.022 41.1824 349.95 41.2683 349.861 41.3334C349.773 41.3985 349.67 41.4408 349.561 41.4567L347.429 41.7697C347.329 41.7843 347.235 41.8269 347.158 41.8926C347.081 41.9583 347.023 42.0445 346.992 42.1415C346.961 42.2385 346.957 42.3423 346.982 42.4413C347.006 42.5403 347.057 42.6304 347.129 42.7015L348.672 44.2206C348.751 44.2978 348.809 44.393 348.843 44.4982C348.877 44.6033 348.885 44.7152 348.867 44.8241L348.502 46.9692C348.485 47.0696 348.497 47.1728 348.535 47.2671C348.573 47.3614 348.636 47.4431 348.718 47.5029C348.8 47.5626 348.896 47.5982 348.997 47.6055C349.097 47.6127 349.198 47.5915 349.287 47.544L351.194 46.5314C351.291 46.4799 351.399 46.453 351.508 46.453C351.618 46.453 351.726 46.4799 351.823 46.5314L353.729 47.544C353.819 47.5915 353.919 47.6127 354.02 47.6055C354.12 47.5982 354.217 47.5626 354.299 47.5029C354.38 47.4431 354.444 47.3614 354.482 47.2671C354.52 47.1728 354.531 47.0696 354.514 46.9692L354.15 44.8241C354.132 44.7152 354.14 44.6033 354.174 44.4982C354.207 44.393 354.266 44.2978 354.344 44.2206L355.887 42.7015C355.96 42.6304 356.011 42.5403 356.035 42.4413C356.059 42.3423 356.056 42.2385 356.024 42.1415C355.993 42.0445 355.936 41.9583 355.859 41.8926C355.781 41.8269 355.688 41.7843 355.588 41.7697L353.457 41.4564C353.348 41.4405 353.245 41.3982 353.156 41.3331C353.068 41.268 352.996 41.1821 352.947 41.0828L351.994 39.1315C351.949 39.04 351.88 38.963 351.795 38.9091C351.709 38.8552 351.61 38.8267 351.509 38.8267C351.408 38.8267 351.309 38.8552 351.223 38.9091C351.138 38.963 351.068 39.04 351.024 39.1315Z" fill="#E2E2E2"/>
<path d="M351.976 39.1313L352.93 41.0826C352.978 41.1819 353.05 41.2678 353.139 41.3329C353.227 41.398 353.33 41.4403 353.439 41.4562L355.571 41.7692C355.671 41.7839 355.765 41.8264 355.842 41.8921C355.919 41.9578 355.977 42.044 356.008 42.141C356.039 42.238 356.043 42.3418 356.018 42.4408C355.994 42.5398 355.943 42.63 355.871 42.7011L354.328 44.2201C354.249 44.2973 354.191 44.3926 354.157 44.4977C354.123 44.6028 354.115 44.7147 354.133 44.8237L354.498 46.9687C354.515 47.0691 354.503 47.1723 354.465 47.2666C354.427 47.3609 354.364 47.4426 354.282 47.5024C354.2 47.5622 354.104 47.5977 354.003 47.605C353.903 47.6123 353.802 47.591 353.713 47.5435L351.806 46.531C351.709 46.4794 351.601 46.4525 351.492 46.4525C351.382 46.4525 351.274 46.4794 351.177 46.531L349.271 47.5435C349.181 47.591 349.081 47.6123 348.98 47.605C348.88 47.5977 348.783 47.5622 348.701 47.5024C348.62 47.4426 348.556 47.3609 348.518 47.2666C348.48 47.1723 348.469 47.0691 348.486 46.9687L348.85 44.8237C348.868 44.7147 348.86 44.6028 348.827 44.4977C348.793 44.3925 348.734 44.2973 348.656 44.2201L347.113 42.7011C347.04 42.63 346.989 42.5398 346.965 42.4408C346.941 42.3418 346.944 42.238 346.976 42.141C347.007 42.044 347.064 41.9578 347.141 41.8921C347.219 41.8264 347.313 41.7839 347.412 41.7692L349.545 41.4562C349.653 41.4403 349.756 41.398 349.845 41.3329C349.934 41.2678 350.005 41.1819 350.054 41.0826L351.007 39.1313C351.052 39.0401 351.121 38.9634 351.207 38.9097C351.292 38.8561 351.391 38.8276 351.492 38.8276C351.592 38.8276 351.691 38.8561 351.777 38.9097C351.862 38.9634 351.931 39.0401 351.976 39.1313Z" fill="#FFAF00"/>
<g opacity="0.6">
<rect x="222.074" y="1" width="99.3895" height="55.7328" rx="2.40248" fill="#362D79" fill-opacity="0.08"/>
<rect x="221.61" y="0.53556" width="100.318" height="56.6616" rx="2.86692" stroke="white" stroke-opacity="0.03" stroke-width="0.928879"/>
</g>
<path d="M222.073 18.7769H321.463V3.4025C321.463 2.07565 320.387 1.00003 319.06 1.00003H224.476C223.149 1.00003 222.073 2.07565 222.073 3.40251V18.7769Z" fill="#4285F4"/>
<path d="M257.208 6.75403C258.069 6.75403 258.695 6.93361 259.085 7.29278C259.481 7.65195 259.679 8.14735 259.679 8.77899C259.679 9.06385 259.636 9.33632 259.549 9.5964C259.462 9.8503 259.317 10.0794 259.113 10.2838C258.908 10.4881 258.639 10.6491 258.304 10.7668C257.976 10.8844 257.567 10.9433 257.078 10.9433H256.419V13.3862H255.23V6.75403H257.208ZM257.134 7.73864H256.419V9.95867H256.958C257.28 9.95867 257.552 9.92151 257.775 9.8472C258.004 9.7667 258.177 9.64285 258.295 9.47565C258.413 9.30845 258.472 9.09171 258.472 8.82543C258.472 8.46007 258.363 8.1876 258.146 8.00802C257.93 7.82844 257.592 7.73864 257.134 7.73864ZM262.876 8.25882C263.526 8.25882 264.018 8.40124 264.353 8.6861C264.693 8.96476 264.864 9.40443 264.864 10.0051V13.3862H264.037L263.805 12.6896H263.767C263.625 12.8692 263.476 13.0209 263.322 13.1447C263.173 13.2624 263 13.346 262.801 13.3955C262.609 13.4513 262.374 13.4791 262.096 13.4791C261.798 13.4791 261.529 13.4234 261.287 13.3119C261.052 13.2005 260.866 13.0302 260.73 12.801C260.594 12.5657 260.526 12.2716 260.526 11.9186C260.526 11.3984 260.715 11.0083 261.092 10.7482C261.476 10.4819 262.055 10.3364 262.829 10.3116L263.702 10.2838V10.033C263.702 9.71096 263.625 9.48184 263.47 9.3456C263.315 9.20937 263.099 9.14125 262.82 9.14125C262.566 9.14125 262.322 9.17841 262.086 9.25272C261.851 9.32703 261.622 9.41372 261.399 9.5128L261.027 8.69539C261.275 8.56535 261.557 8.46007 261.873 8.37957C262.195 8.29907 262.529 8.25882 262.876 8.25882ZM263.089 11.0269C262.575 11.0455 262.219 11.1352 262.021 11.2963C261.823 11.4511 261.724 11.6616 261.724 11.9279C261.724 12.1632 261.795 12.3335 261.938 12.4388C262.08 12.544 262.263 12.5967 262.486 12.5967C262.826 12.5967 263.114 12.5007 263.35 12.3087C263.585 12.1106 263.702 11.8195 263.702 11.4356V11.0083L263.089 11.0269ZM268.968 8.25882C269.043 8.25882 269.129 8.26191 269.228 8.26811C269.327 8.2743 269.411 8.28668 269.479 8.30526L269.377 9.39205C269.321 9.37966 269.247 9.37038 269.154 9.36418C269.067 9.3518 268.99 9.3456 268.922 9.3456C268.736 9.3456 268.556 9.37657 268.383 9.43849C268.216 9.49423 268.064 9.58092 267.928 9.69858C267.798 9.81004 267.693 9.95557 267.612 10.1352C267.538 10.3147 267.501 10.5284 267.501 10.7761V13.3862H266.33V8.3517H267.231L267.398 9.22485H267.454C267.553 9.04527 267.677 8.88426 267.826 8.74183C267.974 8.59321 268.145 8.47555 268.337 8.38886C268.535 8.30216 268.745 8.25882 268.968 8.25882ZM272.363 12.541C272.511 12.541 272.654 12.5286 272.79 12.5038C272.926 12.4728 273.053 12.4388 273.171 12.4016V13.2748C273.047 13.3305 272.886 13.3769 272.688 13.4141C272.49 13.4574 272.282 13.4791 272.066 13.4791C271.781 13.4791 271.521 13.4327 271.285 13.3398C271.056 13.2407 270.87 13.0735 270.728 12.8382C270.592 12.6029 270.524 12.2747 270.524 11.8536V9.23414H269.846V8.72326L270.589 8.31455L270.96 7.24634H271.694V8.3517H273.125V9.23414H271.694V11.8443C271.694 12.0796 271.756 12.2561 271.88 12.3738C272.004 12.4852 272.165 12.541 272.363 12.541ZM276.879 8.25882C277.443 8.25882 277.883 8.40434 278.199 8.69539C278.521 8.98644 278.682 9.45707 278.682 10.1073V13.3862H277.511V10.3395C277.511 9.96176 277.437 9.68 277.288 9.49423C277.14 9.30226 276.904 9.20627 276.582 9.20627C276.112 9.20627 275.79 9.35489 275.616 9.65214C275.443 9.94318 275.356 10.3674 275.356 10.9247V13.3862H274.186V8.3517H275.087L275.254 9.01121H275.319C275.43 8.83782 275.567 8.69539 275.728 8.58392C275.889 8.47246 276.068 8.39196 276.266 8.34242C276.465 8.28668 276.669 8.25882 276.879 8.25882ZM282.17 8.25882C282.622 8.25882 283.009 8.3517 283.332 8.53748C283.66 8.71706 283.914 8.97715 284.093 9.31774C284.273 9.65214 284.363 10.0608 284.363 10.5439V11.1383H281.037C281.05 11.5966 281.177 11.9527 281.418 12.2066C281.66 12.4543 281.994 12.5781 282.421 12.5781C282.749 12.5781 283.04 12.5471 283.294 12.4852C283.554 12.4171 283.821 12.3211 284.093 12.1973V13.1354C283.845 13.2531 283.589 13.3398 283.322 13.3955C283.056 13.4513 282.737 13.4791 282.365 13.4791C281.876 13.4791 281.44 13.3862 281.056 13.2005C280.678 13.0085 280.381 12.7205 280.164 12.3366C279.953 11.9527 279.848 11.4758 279.848 10.9061C279.848 10.3302 279.944 9.8472 280.136 9.45707C280.334 9.06075 280.607 8.76351 280.954 8.56535C281.3 8.36099 281.706 8.25882 282.17 8.25882ZM282.17 9.12267C281.861 9.12267 281.607 9.22485 281.409 9.4292C281.217 9.62737 281.102 9.92461 281.065 10.3209H283.229C283.229 10.0856 283.189 9.87816 283.109 9.69858C283.034 9.519 282.92 9.37966 282.765 9.28058C282.61 9.17531 282.412 9.12267 282.17 9.12267ZM288.181 8.25882C288.255 8.25882 288.342 8.26191 288.441 8.26811C288.54 8.2743 288.624 8.28668 288.692 8.30526L288.589 9.39205C288.534 9.37966 288.459 9.37038 288.367 9.36418C288.28 9.3518 288.202 9.3456 288.134 9.3456C287.949 9.3456 287.769 9.37657 287.596 9.43849C287.428 9.49423 287.277 9.58092 287.14 9.69858C287.01 9.81004 286.905 9.95557 286.825 10.1352C286.75 10.3147 286.713 10.5284 286.713 10.7761V13.3862H285.543V8.3517H286.444L286.611 9.22485H286.667C286.766 9.04527 286.89 8.88426 287.038 8.74183C287.187 8.59321 287.357 8.47555 287.549 8.38886C287.747 8.30216 287.958 8.25882 288.181 8.25882Z" fill="white"/>
<g clip-path="url(#clip0_891_5994)">
<path d="M282.53 38.5593C281.936 38.573 281.345 38.4661 280.794 38.2449C280.243 38.0238 279.743 37.6932 279.324 37.2733C278.905 36.8534 278.577 36.3529 278.36 35.8025C278.142 35.2522 278.039 34.6634 278.058 34.0722C278.042 33.4849 278.147 32.9005 278.366 32.3547C278.584 31.8089 278.912 31.3129 279.329 30.897C279.744 30.474 280.243 30.141 280.794 29.9189C281.345 29.6967 281.936 29.5902 282.53 29.606C283.125 29.5914 283.716 29.7096 284.259 29.9519C284.802 30.1942 285.284 30.5545 285.669 31.0063L284.9 31.7715C284.618 31.4167 284.257 31.1315 283.846 30.9383C283.435 30.7451 282.985 30.649 282.53 30.6575C282.087 30.6467 281.647 30.7262 281.236 30.8908C280.825 31.0555 280.452 31.3021 280.14 31.6153C279.821 31.9386 279.572 32.3233 279.409 32.7459C279.245 33.1684 279.17 33.6198 279.188 34.0722C279.168 34.5264 279.243 34.9798 279.406 35.4042C279.57 35.8286 279.82 36.2151 280.14 36.5396C280.451 36.8538 280.824 37.101 281.235 37.2658C281.646 37.4305 282.087 37.5094 282.53 37.4974C283.033 37.4949 283.529 37.3805 283.982 37.1626C284.434 36.9446 284.832 36.6286 285.146 36.2377L285.951 37.0185C285.544 37.5036 285.03 37.8898 284.45 38.148C283.848 38.423 283.193 38.5634 282.53 38.5593ZM287.955 29.7986V38.3719H286.846V29.7986H287.955ZM288.907 35.436C288.895 35.0251 288.964 34.6159 289.112 34.2318C289.259 33.8477 289.481 33.4963 289.765 33.1977C290.046 32.9079 290.385 32.6796 290.759 32.5272C291.134 32.3748 291.536 32.3018 291.941 32.3128C292.344 32.3014 292.745 32.3742 293.118 32.5266C293.491 32.6791 293.828 32.9077 294.107 33.1977C294.393 33.4945 294.618 33.8455 294.766 34.2299C294.914 34.6144 294.983 35.0245 294.97 35.436C294.985 35.8478 294.916 36.2583 294.768 36.643C294.62 37.0276 294.395 37.3784 294.107 37.6744C293.829 37.9655 293.492 38.1948 293.119 38.3473C292.746 38.4998 292.344 38.572 291.941 38.5593C291.536 38.5716 291.133 38.4991 290.758 38.3467C290.384 38.1943 290.045 37.9652 289.765 37.6744C289.481 37.3758 289.259 37.0244 289.112 36.6403C288.964 36.2562 288.895 35.847 288.907 35.436ZM290.016 35.436C289.99 35.999 290.19 36.5492 290.57 36.9664C290.746 37.1523 290.959 37.3005 291.195 37.4017C291.43 37.503 291.684 37.5552 291.941 37.5552C292.198 37.5552 292.452 37.503 292.687 37.4017C292.923 37.3005 293.135 37.1523 293.311 36.9664C293.692 36.5492 293.891 35.999 293.866 35.436C293.89 34.8764 293.691 34.3299 293.311 33.9161C293.137 33.7274 292.925 33.5768 292.689 33.4738C292.453 33.3708 292.199 33.3176 291.941 33.3176C291.683 33.3176 291.428 33.3708 291.193 33.4738C290.957 33.5768 290.745 33.7274 290.57 33.9161C290.191 34.3299 289.992 34.8764 290.016 35.436ZM301.09 38.3719H300.044V37.5546H299.991C299.804 37.8602 299.537 38.1086 299.217 38.273C298.885 38.4601 298.511 38.5587 298.129 38.5593C297.823 38.579 297.517 38.5345 297.229 38.4287C296.942 38.3229 296.68 38.1581 296.461 37.945C296.046 37.4572 295.838 36.8283 295.88 36.1908V32.5106H296.984V36.1232C296.961 36.3187 296.983 36.517 297.048 36.7028C297.113 36.8886 297.221 37.0572 297.361 37.1957C297.502 37.3342 297.672 37.4389 297.86 37.502C298.047 37.5651 298.247 37.5849 298.443 37.5598C298.655 37.5635 298.865 37.5184 299.056 37.4281C299.248 37.3378 299.416 37.2048 299.547 37.0393C299.845 36.6817 300.003 36.2286 299.991 35.764V32.5106H301.1L301.09 38.3719ZM304.835 38.5593C304.459 38.5592 304.087 38.4782 303.745 38.3219C303.402 38.1656 303.098 37.9376 302.853 37.6535C302.303 37.0456 302.004 36.2537 302.016 35.436C301.998 34.6226 302.289 33.8325 302.832 33.2238C303.075 32.9371 303.379 32.707 303.722 32.5497C304.064 32.3923 304.437 32.3115 304.814 32.3128C305.227 32.3059 305.635 32.4006 306.002 32.5887C306.338 32.7536 306.623 33.0053 306.828 33.3175H306.875L306.849 32.5106V29.7986H307.953V38.3719H306.907V37.5546H306.86C306.655 37.8668 306.369 38.1185 306.033 38.2834C305.663 38.4731 305.252 38.568 304.835 38.5593ZM305.018 37.5546C305.271 37.5627 305.522 37.5141 305.753 37.4122C305.984 37.3104 306.189 37.158 306.352 36.9664C306.718 36.5423 306.906 35.9942 306.875 35.436C306.901 34.8818 306.714 34.3386 306.352 33.9161C306.189 33.7232 305.985 33.5692 305.754 33.4656C305.523 33.362 305.272 33.3114 305.018 33.3175C304.766 33.3136 304.515 33.3652 304.284 33.4687C304.054 33.5721 303.849 33.7249 303.685 33.9161C303.323 34.3386 303.136 34.8818 303.161 35.436C303.132 35.9909 303.32 36.5354 303.685 36.956C303.849 37.1472 304.054 37.3 304.284 37.4034C304.515 37.5069 304.766 37.5585 305.018 37.5546Z" fill="white"/>
<path d="M240.545 38.5593C239.244 38.5635 237.993 38.0573 237.063 37.1502C236.134 36.2431 235.602 35.0082 235.581 33.7131C235.602 32.4179 236.134 31.183 237.063 30.2759C237.993 29.3688 239.244 28.8626 240.545 28.8669C241.166 28.8566 241.782 28.9696 242.357 29.1993C242.933 29.429 243.457 29.7708 243.898 30.2046L242.952 31.1364C242.306 30.5178 241.441 30.1774 240.545 30.189C240.081 30.1876 239.622 30.278 239.193 30.455C238.765 30.632 238.376 30.892 238.049 31.22C237.722 31.5479 237.465 31.9372 237.291 32.3652C237.116 32.7932 237.03 33.2514 237.035 33.7131C237.03 34.1747 237.116 34.6329 237.291 35.0609C237.465 35.4889 237.722 35.8782 238.049 36.2062C238.376 36.5341 238.765 36.7941 239.193 36.9711C239.622 37.1481 240.081 37.2385 240.545 37.2371C241.002 37.2558 241.458 37.1788 241.884 37.0111C242.309 36.8434 242.694 36.5888 243.014 36.2637C243.441 35.8056 243.698 35.216 243.741 34.5928H240.545V33.2758H245.044C245.093 33.5489 245.116 33.8261 245.112 34.1035C245.147 35.2458 244.73 36.3562 243.951 37.1955C243.512 37.649 242.982 38.005 242.395 38.2401C241.808 38.4752 241.177 38.5839 240.545 38.5593Z" fill="#4285F4"/>
<path d="M252.068 35.4356C252.085 35.852 252.018 36.2675 251.87 36.6573C251.721 37.047 251.495 37.4029 251.205 37.7035C250.915 38.0042 250.567 38.2434 250.182 38.4068C249.797 38.5702 249.382 38.6545 248.964 38.6545C248.545 38.6545 248.13 38.5702 247.745 38.4068C247.36 38.2434 247.012 38.0042 246.722 37.7035C246.432 37.4029 246.206 37.047 246.058 36.6573C245.909 36.2675 245.842 35.852 245.859 35.4356C245.842 35.0193 245.909 34.6037 246.058 34.214C246.206 33.8243 246.432 33.4684 246.722 33.1677C247.012 32.8671 247.36 32.6279 247.745 32.4644C248.13 32.301 248.545 32.2168 248.964 32.2168C249.382 32.2168 249.797 32.301 250.182 32.4644C250.567 32.6279 250.915 32.8671 251.205 33.1677C251.495 33.4684 251.721 33.8243 251.87 34.214C252.018 34.6037 252.085 35.0193 252.068 35.4356ZM250.708 35.4356C250.731 35.1938 250.703 34.9499 250.626 34.7194C250.549 34.489 250.424 34.2772 250.26 34.0975C250.096 33.9178 249.896 33.7742 249.672 33.676C249.449 33.5777 249.208 33.527 248.964 33.527C248.72 33.527 248.478 33.5777 248.255 33.676C248.032 33.7742 247.832 33.9178 247.667 34.0975C247.503 34.2772 247.378 34.489 247.301 34.7194C247.224 34.9499 247.196 35.1938 247.219 35.4356C247.196 35.6774 247.224 35.9214 247.301 36.1518C247.378 36.3823 247.503 36.5941 247.667 36.7738C247.832 36.9535 248.032 37.097 248.255 37.1953C248.478 37.2935 248.72 37.3443 248.964 37.3443C249.208 37.3443 249.449 37.2935 249.672 37.1953C249.896 37.097 250.096 36.9535 250.26 36.7738C250.424 36.5941 250.549 36.3823 250.626 36.1518C250.703 35.9214 250.731 35.6774 250.708 35.4356Z" fill="#EA4335"/>
<path d="M259.031 35.4356C259.048 35.852 258.981 36.2675 258.832 36.6573C258.684 37.047 258.458 37.4029 258.168 37.7035C257.878 38.0042 257.53 38.2434 257.145 38.4068C256.76 38.5702 256.345 38.6545 255.927 38.6545C255.508 38.6545 255.093 38.5702 254.708 38.4068C254.323 38.2434 253.975 38.0042 253.685 37.7035C253.395 37.4029 253.169 37.047 253.021 36.6573C252.872 36.2675 252.805 35.852 252.822 35.4356C252.805 35.0193 252.872 34.6037 253.021 34.214C253.169 33.8243 253.395 33.4684 253.685 33.1677C253.975 32.8671 254.323 32.6279 254.708 32.4644C255.093 32.301 255.508 32.2168 255.927 32.2168C256.345 32.2168 256.76 32.301 257.145 32.4644C257.53 32.6279 257.878 32.8671 258.168 33.1677C258.458 33.4684 258.684 33.8243 258.832 34.214C258.981 34.6037 259.048 35.0193 259.031 35.4356ZM257.671 35.4356C257.69 35.196 257.658 34.9551 257.579 34.7281C257.5 34.5011 257.374 34.2929 257.21 34.1165C257.046 33.9401 256.847 33.7994 256.626 33.7031C256.404 33.6069 256.165 33.5572 255.924 33.5572C255.682 33.5572 255.443 33.6069 255.222 33.7031C255.001 33.7994 254.802 33.9401 254.638 34.1165C254.474 34.2929 254.348 34.5011 254.269 34.7281C254.189 34.9551 254.158 35.196 254.177 35.4356C254.158 35.6753 254.189 35.9161 254.269 36.1431C254.348 36.3701 254.474 36.5784 254.638 36.7548C254.802 36.9311 255.001 37.0719 255.222 37.1681C255.443 37.2644 255.682 37.3141 255.924 37.3141C256.165 37.3141 256.404 37.2644 256.626 37.1681C256.847 37.0719 257.046 36.9311 257.21 36.7548C257.374 36.5784 257.5 36.3701 257.579 36.1431C257.658 35.9161 257.69 35.6753 257.671 35.4356Z" fill="#FBBC04"/>
<path d="M265.816 32.5102V38.1112C265.816 40.4119 264.44 41.3593 262.819 41.3593C262.222 41.3626 261.638 41.1891 261.14 40.861C260.643 40.5328 260.255 40.0649 260.025 39.5166L261.234 38.9961C261.356 39.3152 261.57 39.5914 261.849 39.7896C262.128 39.9879 262.46 40.0994 262.803 40.11C263.849 40.11 264.487 39.4698 264.487 38.2777V37.8301H264.456C264.247 38.065 263.989 38.2519 263.7 38.3777C263.411 38.5036 263.098 38.5654 262.782 38.5588C261.95 38.5588 261.151 38.2298 260.563 37.6441C259.974 37.0583 259.644 36.2639 259.644 35.4356C259.644 34.6073 259.974 33.8129 260.563 33.2272C261.151 32.6414 261.95 32.3124 262.782 32.3124C263.096 32.3066 263.408 32.3677 263.697 32.4916C263.986 32.6155 264.245 32.7993 264.456 33.0307H264.503V32.5102H265.816ZM264.597 35.4564C264.617 35.2204 264.588 34.983 264.513 34.7583C264.438 34.5335 264.318 34.3261 264.161 34.1484C264.004 33.9706 263.813 33.8261 263.598 33.7235C263.384 33.621 263.151 33.5624 262.913 33.5513C262.672 33.5599 262.434 33.6163 262.215 33.7171C261.996 33.8179 261.799 33.9612 261.636 34.1385C261.473 34.3158 261.347 34.5237 261.265 34.7499C261.183 34.9762 261.148 35.2164 261.161 35.4564C261.149 35.6949 261.186 35.9331 261.268 36.1573C261.351 36.3815 261.477 36.587 261.64 36.762C261.804 36.9369 262 37.0778 262.219 37.1763C262.437 37.2748 262.673 37.3289 262.913 37.3356C263.15 37.3272 263.382 37.2712 263.597 37.1708C263.811 37.0705 264.003 36.928 264.16 36.7518C264.318 36.5757 264.437 36.3696 264.513 36.1461C264.588 35.9226 264.617 35.6862 264.597 35.4512V35.4564Z" fill="#4285F4"/>
<path d="M268.238 29.2002V38.3721H266.857V29.2002H268.238Z" fill="#34A853"/>
<path d="M273.68 36.4658L274.757 37.1946C274.469 37.6218 274.08 37.9717 273.624 38.2133C273.168 38.4548 272.658 38.5805 272.142 38.5792C271.731 38.585 271.322 38.5078 270.942 38.3522C270.562 38.1966 270.217 37.9658 269.929 37.6738C269.641 37.3818 269.416 37.0347 269.266 36.6535C269.117 36.2723 269.047 35.8649 269.061 35.456C268.999 34.7529 269.2 34.0521 269.625 33.487C270.05 32.9219 270.668 32.532 271.363 32.3918C272.058 32.2516 272.781 32.3707 273.393 32.7265C274.006 33.0823 274.465 33.65 274.684 34.3212L274.825 34.6804L270.64 36.4033C270.771 36.695 270.986 36.9411 271.258 37.11C271.53 37.2788 271.847 37.3627 272.168 37.3507C272.475 37.3438 272.775 37.2588 273.039 37.1039C273.304 36.9491 273.524 36.7294 273.68 36.4658ZM270.379 35.3414L273.193 34.1858C273.08 33.9785 272.91 33.8082 272.702 33.6955C272.494 33.5828 272.257 33.5325 272.021 33.5508C271.795 33.5608 271.573 33.6151 271.368 33.7106C271.163 33.806 270.979 33.9408 270.827 34.1071C270.674 34.2734 270.556 34.4681 270.479 34.6799C270.402 34.8917 270.368 35.1165 270.379 35.3414Z" fill="#EA4335"/>
</g>
<rect x="1" y="1.00098" width="99.3901" height="55.7328" rx="2.40248" fill="#362D79" fill-opacity="0.08"/>
<rect x="0.53556" y="0.536537" width="100.319" height="56.6616" rx="2.86692" stroke="white" stroke-opacity="0.03" stroke-width="0.928879"/>
<path d="M36.4848 29.7891L33.9695 22.2817H33.9181C33.9267 22.4528 33.9395 22.6967 33.9566 23.0132C33.9738 23.3212 33.9866 23.6591 33.9951 24.027C34.0123 24.3863 34.0208 24.7243 34.0208 25.0408V29.7891H32.545V20.6263H34.8293L37.2419 27.8256H37.2932L39.8085 20.6263H42.0928V29.7891H40.5272V24.9638C40.5272 24.6729 40.5314 24.3564 40.54 24.0142C40.5571 23.6634 40.5699 23.334 40.5785 23.026C40.5956 22.7095 40.6084 22.4657 40.617 22.2946H40.5657L37.9477 29.7891H36.4848ZM45.9262 22.8335V29.7891H44.3092V22.8335H45.9262ZM45.1177 20.1514C45.3573 20.1514 45.5669 20.2156 45.7465 20.3439C45.9262 20.4637 46.016 20.6819 46.016 20.9984C46.016 21.3064 45.9262 21.5288 45.7465 21.6657C45.5669 21.7941 45.3573 21.8582 45.1177 21.8582C44.8696 21.8582 44.6557 21.7941 44.476 21.6657C44.3049 21.5288 44.2194 21.3064 44.2194 20.9984C44.2194 20.6819 44.3049 20.4637 44.476 20.3439C44.6557 20.2156 44.8696 20.1514 45.1177 20.1514ZM50.8042 29.9174C50.1454 29.9174 49.5722 29.7933 49.0845 29.5452C48.6054 29.2886 48.2333 28.8993 47.968 28.3774C47.7114 27.847 47.5831 27.1711 47.5831 26.3498C47.5831 25.4943 47.7242 24.8013 48.0065 24.2708C48.2974 23.7319 48.6953 23.3383 49.2 23.0902C49.7048 22.8335 50.2823 22.7052 50.9325 22.7052C51.3688 22.7052 51.7581 22.748 52.1003 22.8335C52.4425 22.9191 52.7334 23.0218 52.9729 23.1415L52.4981 24.412C52.2329 24.3093 51.9677 24.2238 51.7025 24.1553C51.4373 24.0783 51.1806 24.0398 50.9325 24.0398C50.5475 24.0398 50.2267 24.1254 49.97 24.2965C49.7219 24.4676 49.538 24.7243 49.4182 25.0665C49.2984 25.4002 49.2385 25.8236 49.2385 26.337C49.2385 26.8332 49.2984 27.2481 49.4182 27.5818C49.5465 27.9154 49.7347 28.1678 49.9828 28.3389C50.2309 28.5015 50.5389 28.5828 50.9068 28.5828C51.3004 28.5828 51.6469 28.5357 51.9463 28.4416C52.2457 28.3475 52.5281 28.2192 52.7933 28.0566V29.4554C52.5281 29.618 52.2415 29.7335 51.9335 29.8019C51.634 29.8789 51.2576 29.9174 50.8042 29.9174ZM58.0674 22.7052C58.17 22.7052 58.2898 22.7095 58.4267 22.718C58.5636 22.7266 58.6791 22.7437 58.7732 22.7694L58.632 24.2708C58.555 24.2537 58.4524 24.2409 58.324 24.2323C58.2043 24.2152 58.0973 24.2067 58.0032 24.2067C57.7465 24.2067 57.4984 24.2495 57.2589 24.335C57.0279 24.412 56.8183 24.5318 56.6301 24.6943C56.4504 24.8483 56.305 25.0494 56.1937 25.2975C56.0911 25.5456 56.0397 25.8408 56.0397 26.183V29.7891H54.4228V22.8335H55.6676L55.8986 24.0398H55.9756C56.1125 23.7917 56.2836 23.5693 56.4889 23.3725C56.6942 23.1672 56.9295 23.0046 57.1947 22.8849C57.4685 22.7651 57.7594 22.7052 58.0674 22.7052ZM66.0229 26.2985C66.0229 26.8802 65.9459 27.3936 65.7919 27.8384C65.6379 28.2833 65.4154 28.664 65.1246 28.9806C64.8422 29.2886 64.4915 29.5238 64.0722 29.6864C63.6616 29.8404 63.2039 29.9174 62.6991 29.9174C62.22 29.9174 61.7794 29.8404 61.3773 29.6864C60.9752 29.5238 60.6244 29.2886 60.325 28.9806C60.0341 28.664 59.8074 28.2833 59.6448 27.8384C59.4823 27.3936 59.401 26.8802 59.401 26.2985C59.401 25.5285 59.5336 24.8783 59.7988 24.3478C60.064 23.8089 60.4448 23.4025 60.941 23.1287C61.4457 22.8464 62.0403 22.7052 62.7248 22.7052C63.375 22.7052 63.9439 22.8464 64.4316 23.1287C64.9278 23.4025 65.317 23.8089 65.5994 24.3478C65.8817 24.8783 66.0229 25.5285 66.0229 26.2985ZM61.0565 26.2985C61.0565 26.7861 61.1121 27.2053 61.2233 27.5561C61.3431 27.8983 61.5227 28.1593 61.7623 28.3389C62.0104 28.5186 62.3269 28.6084 62.7119 28.6084C63.1055 28.6084 63.422 28.5186 63.6616 28.3389C63.9097 28.1593 64.0894 27.8983 64.2006 27.5561C64.3118 27.2053 64.3674 26.7861 64.3674 26.2985C64.3674 25.8023 64.3075 25.3873 64.1877 25.0537C64.0765 24.7114 63.8969 24.4548 63.6487 24.2837C63.4092 24.104 63.0969 24.0142 62.7119 24.0142C62.1302 24.0142 61.7067 24.211 61.4415 24.6045C61.1848 24.9981 61.0565 25.5627 61.0565 26.2985ZM72.4299 27.7743C72.4299 28.2363 72.3187 28.6298 72.0962 28.9549C71.8738 29.2715 71.5444 29.511 71.1081 29.6736C70.6803 29.8361 70.1541 29.9174 69.5296 29.9174C69.0419 29.9174 68.6227 29.8832 68.272 29.8147C67.9212 29.7463 67.5875 29.6393 67.271 29.4939V28.1208C67.6132 28.2833 67.9939 28.4202 68.4131 28.5314C68.8323 28.6426 69.2216 28.6983 69.5809 28.6983C70.0258 28.6983 70.3466 28.6298 70.5434 28.4929C70.7402 28.356 70.8386 28.1721 70.8386 27.9411C70.8386 27.8042 70.8001 27.6802 70.7231 27.5689C70.6461 27.4577 70.4964 27.3422 70.2739 27.2224C70.0515 27.0941 69.7135 26.9358 69.2601 26.7476C68.8152 26.568 68.4431 26.3883 68.1436 26.2086C67.8527 26.029 67.6303 25.8151 67.4763 25.567C67.3309 25.3103 67.2581 24.9895 67.2581 24.6045C67.2581 23.98 67.5063 23.5094 68.0025 23.1929C68.4987 22.8678 69.1532 22.7052 69.9659 22.7052C70.3937 22.7052 70.7958 22.748 71.1722 22.8335C71.5572 22.9105 71.9422 23.0389 72.3272 23.2185L71.8139 24.412C71.6 24.3179 71.3861 24.2366 71.1722 24.1682C70.9669 24.0912 70.7573 24.0313 70.5434 23.9885C70.3381 23.9457 70.1285 23.9244 69.9146 23.9244C69.5638 23.9244 69.2986 23.98 69.1189 24.0912C68.9393 24.1938 68.8494 24.3393 68.8494 24.5275C68.8494 24.6729 68.8922 24.8013 68.9778 24.9125C69.0719 25.0152 69.2302 25.1221 69.4526 25.2333C69.6836 25.336 70.0087 25.4729 70.4279 25.644C70.8471 25.8065 71.2022 25.9776 71.4931 26.1573C71.7925 26.3284 72.0235 26.5423 72.186 26.799C72.3486 27.0556 72.4299 27.3807 72.4299 27.7743ZM80.1969 26.2985C80.1969 26.8802 80.1199 27.3936 79.9659 27.8384C79.8119 28.2833 79.5895 28.664 79.2986 28.9806C79.0162 29.2886 78.6655 29.5238 78.2463 29.6864C77.8356 29.8404 77.3779 29.9174 76.8731 29.9174C76.394 29.9174 75.9534 29.8404 75.5513 29.6864C75.1492 29.5238 74.7984 29.2886 74.499 28.9806C74.2081 28.664 73.9814 28.2833 73.8189 27.8384C73.6563 27.3936 73.575 26.8802 73.575 26.2985C73.575 25.5285 73.7076 24.8783 73.9729 24.3478C74.2381 23.8089 74.6188 23.4025 75.115 23.1287C75.6198 22.8464 76.2144 22.7052 76.8988 22.7052C77.549 22.7052 78.1179 22.8464 78.6056 23.1287C79.1018 23.4025 79.4911 23.8089 79.7734 24.3478C80.0557 24.8783 80.1969 25.5285 80.1969 26.2985ZM75.2305 26.2985C75.2305 26.7861 75.2861 27.2053 75.3973 27.5561C75.5171 27.8983 75.6968 28.1593 75.9363 28.3389C76.1844 28.5186 76.501 28.6084 76.886 28.6084C77.2795 28.6084 77.5961 28.5186 77.8356 28.3389C78.0837 28.1593 78.2634 27.8983 78.3746 27.5561C78.4858 27.2053 78.5414 26.7861 78.5414 26.2985C78.5414 25.8023 78.4815 25.3873 78.3618 25.0537C78.2505 24.7114 78.0709 24.4548 77.8228 24.2837C77.5832 24.104 77.2709 24.0142 76.886 24.0142C76.3042 24.0142 75.8807 24.211 75.6155 24.6045C75.3588 24.9981 75.2305 25.5627 75.2305 26.2985ZM85.4746 24.0527H83.7935V29.7891H82.1765V24.0527H81.06V23.2827L82.1765 22.8207V22.3459C82.1765 21.747 82.2706 21.2765 82.4588 20.9342C82.647 20.592 82.9208 20.3482 83.2801 20.2028C83.6395 20.0488 84.063 19.9718 84.5506 19.9718C84.8928 19.9718 85.2008 20.0017 85.4746 20.0616C85.7484 20.1129 85.9751 20.1728 86.1547 20.2413L85.7441 21.4476C85.5986 21.4048 85.4361 21.3663 85.2564 21.3321C85.0853 21.2893 84.8971 21.2679 84.6918 21.2679C84.3838 21.2679 84.1571 21.3663 84.0116 21.5631C83.8662 21.7598 83.7935 22.0336 83.7935 22.3844V22.8335H85.4746V24.0527ZM89.3257 28.6213C89.531 28.6213 89.7278 28.6041 89.916 28.5699C90.1043 28.5271 90.2796 28.4801 90.4422 28.4288V29.6351C90.2711 29.7121 90.0486 29.7762 89.7749 29.8276C89.5011 29.8874 89.2145 29.9174 88.9151 29.9174C88.5215 29.9174 88.1622 29.8532 87.8371 29.7249C87.5205 29.588 87.2639 29.357 87.0671 29.0319C86.8789 28.7068 86.7848 28.2534 86.7848 27.6716V24.0527H85.848V23.3469L86.8746 22.7822L87.3879 21.3064H88.4017V22.8335H90.378V24.0527H88.4017V27.6588C88.4017 27.9839 88.4873 28.2277 88.6584 28.3903C88.8295 28.5443 89.0519 28.6213 89.3257 28.6213Z" fill="#E8E8E8"/>
<path d="M36.1336 37.2537C36.1336 37.657 36.0359 38.0005 35.8406 38.2841C35.6452 38.5677 35.3648 38.7882 34.9992 38.9458C34.6337 39.097 34.1989 39.1727 33.6947 39.1727C33.4489 39.1727 33.2126 39.1569 32.9857 39.1254C32.7588 39.1002 32.5477 39.0624 32.3523 39.012C32.157 38.9615 31.9837 38.8985 31.8324 38.8229V37.8587C32.0845 37.9721 32.3807 38.0761 32.721 38.1706C33.0613 38.2588 33.4079 38.303 33.7609 38.303C34.0634 38.303 34.3155 38.262 34.5171 38.1801C34.7188 38.0981 34.87 37.9847 34.9709 37.8398C35.0717 37.6948 35.1221 37.5246 35.1221 37.3293C35.1221 37.1213 35.0686 36.948 34.9614 36.8093C34.8606 36.6644 34.6999 36.5321 34.4793 36.4123C34.265 36.2863 33.9751 36.1539 33.6096 36.0153C33.3575 35.9207 33.1275 35.8168 32.9195 35.7033C32.7179 35.5836 32.5382 35.4449 32.3807 35.2874C32.2294 35.1298 32.1129 34.9471 32.0309 34.7391C31.949 34.5311 31.908 34.2885 31.908 34.0112C31.908 33.6394 31.9994 33.3211 32.1822 33.0564C32.3712 32.7917 32.6296 32.5901 32.9573 32.4514C33.2851 32.3065 33.6663 32.234 34.1012 32.234C34.4667 32.234 34.8039 32.2718 35.1127 32.3474C35.4278 32.4167 35.7271 32.5144 36.0107 32.6405L35.6893 33.4818C35.4309 33.3747 35.1694 33.2864 34.9047 33.2171C34.64 33.1478 34.3627 33.1131 34.0728 33.1131C33.8207 33.1131 33.6096 33.1509 33.4395 33.2266C33.2693 33.3022 33.1401 33.4062 33.0519 33.5385C32.9699 33.6709 32.929 33.8253 32.929 34.0017C32.929 34.2097 32.9762 34.383 33.0708 34.5217C33.1653 34.6603 33.3166 34.7895 33.5245 34.9093C33.7325 35.0227 34.0066 35.1487 34.347 35.2874C34.7251 35.4323 35.0465 35.5899 35.3112 35.76C35.5822 35.9302 35.787 36.135 35.9257 36.3745C36.0643 36.6077 36.1336 36.9007 36.1336 37.2537ZM38.3438 33.9828V39.0781H37.3418V33.9828H38.3438ZM37.8523 32.0449C38.0035 32.0449 38.1359 32.089 38.2493 32.1773C38.3627 32.2655 38.4195 32.4136 38.4195 32.6216C38.4195 32.8232 38.3627 32.9713 38.2493 33.0659C38.1359 33.1541 38.0035 33.1982 37.8523 33.1982C37.6884 33.1982 37.5498 33.1541 37.4363 33.0659C37.3292 32.9713 37.2756 32.8232 37.2756 32.6216C37.2756 32.4136 37.3292 32.2655 37.4363 32.1773C37.5498 32.089 37.6884 32.0449 37.8523 32.0449ZM40.9195 39.0781H39.9174V31.8937H40.9195V39.0781ZM43.6369 39.0781L41.7084 33.9828H42.7672L43.826 36.9606C43.8701 37.0866 43.9142 37.2284 43.9583 37.386C44.0087 37.5436 44.0528 37.6948 44.0907 37.8398C44.1285 37.9847 44.1537 38.1107 44.1663 38.2179H44.2041C44.223 38.1107 44.2514 37.9847 44.2892 37.8398C44.3333 37.6885 44.3806 37.5372 44.431 37.386C44.4814 37.2284 44.5255 37.0866 44.5633 36.9606L45.6221 33.9828H46.6808L44.7429 39.0781H43.6369ZM49.473 33.8883C49.9205 33.8883 50.3049 33.9828 50.6263 34.1719C50.9477 34.3547 51.1935 34.6194 51.3637 34.966C51.5401 35.3126 51.6284 35.7222 51.6284 36.1949V36.7432H48.2063C48.2189 37.2663 48.3544 37.6664 48.6128 37.9437C48.8775 38.221 49.2461 38.3597 49.7188 38.3597C50.0465 38.3597 50.3364 38.3313 50.5885 38.2746C50.8469 38.2116 51.1116 38.1202 51.3826 38.0005V38.8323C51.1305 38.9458 50.8721 39.0309 50.6074 39.0876C50.349 39.1443 50.0402 39.1727 49.681 39.1727C49.1894 39.1727 48.7546 39.075 48.3764 38.8796C47.9983 38.6842 47.7021 38.3943 47.4878 38.0099C47.2799 37.6192 47.1759 37.1402 47.1759 36.573C47.1759 35.9995 47.2704 35.5143 47.4595 35.1172C47.6548 34.7202 47.9227 34.4177 48.263 34.2097C48.6096 33.9954 49.013 33.8883 49.473 33.8883ZM49.473 34.6635C49.1138 34.6635 48.8239 34.7801 48.6033 35.0132C48.389 35.2464 48.263 35.5773 48.2252 36.0058H50.6263C50.6263 35.7411 50.5853 35.508 50.5034 35.3063C50.4215 35.1046 50.2954 34.9471 50.1253 34.8336C49.9551 34.7202 49.7377 34.6635 49.473 34.6635ZM55.3933 33.8883C55.4815 33.8883 55.5792 33.8946 55.6863 33.9072C55.7934 33.9135 55.8817 33.923 55.951 33.9356L55.847 34.8714C55.7777 34.8525 55.6958 34.8368 55.6012 34.8242C55.5067 34.8116 55.4185 34.8053 55.3365 34.8053C55.1475 34.8053 54.9647 34.8431 54.7882 34.9187C54.6181 34.988 54.4637 35.092 54.325 35.2307C54.1864 35.363 54.0761 35.5269 53.9942 35.7222C53.9185 35.9176 53.8807 36.1413 53.8807 36.3934V39.0781H52.8787V33.9828H53.6728L53.8051 34.8903H53.8429C53.9501 34.7076 54.0793 34.5406 54.2305 34.3893C54.3818 34.2381 54.5551 34.1183 54.7504 34.0301C54.9458 33.9356 55.1601 33.8883 55.3933 33.8883Z" fill="#C4C4C4"/>
<path d="M61.3542 32.3285C62.2365 32.3285 62.8793 32.5081 63.2826 32.8674C63.686 33.2203 63.8876 33.715 63.8876 34.3515C63.8876 34.6351 63.8404 34.9061 63.7458 35.1645C63.6576 35.4229 63.5095 35.6561 63.3015 35.864C63.0936 36.0657 62.8163 36.2264 62.4697 36.3461C62.1293 36.4596 61.7102 36.5163 61.2124 36.5163H60.4845V39.0781H59.4635V32.3285H61.3542ZM61.2786 33.1888H60.4845V35.6561H61.0989C61.4834 35.6561 61.8048 35.6151 62.0632 35.5332C62.3216 35.4449 62.5138 35.3094 62.6398 35.1267C62.7722 34.9376 62.8383 34.6918 62.8383 34.3893C62.8383 33.986 62.7123 33.6866 62.4602 33.4913C62.2144 33.2896 61.8205 33.1888 61.2786 33.1888ZM67.1141 33.8883C67.7569 33.8883 68.2359 34.0301 68.551 34.3137C68.8661 34.591 69.0236 35.029 69.0236 35.6277V39.0781H68.3146L68.1161 38.3691H68.0783C67.9334 38.5519 67.7821 38.7031 67.6245 38.8229C67.4733 38.9426 67.2968 39.0309 67.0952 39.0876C66.8998 39.1443 66.6603 39.1727 66.3767 39.1727C66.0742 39.1727 65.8001 39.1191 65.5543 39.012C65.3148 38.8985 65.1257 38.7284 64.9871 38.5015C64.8484 38.2683 64.7791 37.9784 64.7791 37.6318C64.7791 37.115 64.9745 36.7211 65.3652 36.4501C65.7623 36.1791 66.3641 36.031 67.1708 36.0058L68.0405 35.9775V35.6939C68.0405 35.3157 67.9554 35.051 67.7853 34.8998C67.6151 34.7485 67.3756 34.6729 67.0668 34.6729C66.8021 34.6729 66.55 34.7107 66.3105 34.7864C66.0711 34.862 65.8442 34.9534 65.6299 35.0605L65.3085 34.3326C65.548 34.2066 65.8221 34.1026 66.1309 34.0206C66.446 33.9324 66.7738 33.8883 67.1141 33.8883ZM67.3504 36.6486C66.7706 36.6739 66.3673 36.7715 66.1404 36.9417C65.9198 37.1056 65.8095 37.3387 65.8095 37.6412C65.8095 37.9059 65.8883 38.0981 66.0459 38.2179C66.2097 38.3376 66.4145 38.3975 66.6603 38.3975C67.0574 38.3975 67.3851 38.2872 67.6435 38.0666C67.9018 37.8461 68.031 37.5152 68.031 37.074V36.6297L67.3504 36.6486ZM73.0811 33.8883C73.1694 33.8883 73.267 33.8946 73.3742 33.9072C73.4813 33.9135 73.5695 33.923 73.6389 33.9356L73.5349 34.8714C73.4656 34.8525 73.3836 34.8368 73.2891 34.8242C73.1946 34.8116 73.1063 34.8053 73.0244 34.8053C72.8353 34.8053 72.6526 34.8431 72.4761 34.9187C72.306 34.988 72.1516 35.092 72.0129 35.2307C71.8743 35.363 71.764 35.5269 71.6821 35.7222C71.6064 35.9176 71.5686 36.1413 71.5686 36.3934V39.0781H70.5666V33.9828H71.3606L71.493 34.8903H71.5308C71.6379 34.7076 71.7671 34.5406 71.9184 34.3893C72.0696 34.2381 72.2429 34.1183 72.4383 34.0301C72.6337 33.9356 72.8479 33.8883 73.0811 33.8883ZM76.4163 38.3597C76.5486 38.3597 76.6841 38.3471 76.8228 38.3219C76.9614 38.2967 77.0812 38.2683 77.182 38.2368V38.993C77.0748 39.0435 76.9299 39.0844 76.7471 39.1159C76.5644 39.1538 76.3816 39.1727 76.1988 39.1727C75.9216 39.1727 75.6663 39.1254 75.4331 39.0309C75.2063 38.9363 75.0235 38.7725 74.8849 38.5393C74.7462 38.3061 74.6769 37.9816 74.6769 37.5656V34.7485H73.9679V34.2948L74.7147 33.9167L75.0645 32.839H75.6789V33.9828H77.1347V34.7485H75.6789V37.5467C75.6789 37.824 75.7451 38.0288 75.8774 38.1612C76.0161 38.2935 76.1957 38.3597 76.4163 38.3597ZM80.7819 33.8883C81.3743 33.8883 81.828 34.0364 82.1432 34.3326C82.4583 34.6288 82.6158 35.1046 82.6158 35.76V39.0781H81.6232V35.9018C81.6232 35.5048 81.5382 35.2086 81.368 35.0132C81.2041 34.8116 80.9394 34.7107 80.5739 34.7107C80.0571 34.7107 79.6979 34.8651 79.4963 35.1739C79.3009 35.4827 79.2032 35.927 79.2032 36.5068V39.0781H78.2012V33.9828H78.9952L79.137 34.6635H79.1937C79.3072 34.487 79.4458 34.3421 79.6097 34.2286C79.7735 34.1152 79.9563 34.0301 80.158 33.9734C80.3596 33.9167 80.5676 33.8883 80.7819 33.8883ZM86.1597 33.8883C86.6071 33.8883 86.9916 33.9828 87.313 34.1719C87.6344 34.3547 87.8802 34.6194 88.0503 34.966C88.2268 35.3126 88.315 35.7222 88.315 36.1949V36.7432H84.8929C84.9055 37.2663 85.041 37.6664 85.2994 37.9437C85.5641 38.221 85.9328 38.3597 86.4055 38.3597C86.7332 38.3597 87.0231 38.3313 87.2752 38.2746C87.5335 38.2116 87.7982 38.1202 88.0692 38.0005V38.8323C87.8171 38.9458 87.5588 39.0309 87.2941 39.0876C87.0357 39.1443 86.7269 39.1727 86.3676 39.1727C85.8761 39.1727 85.4412 39.075 85.0631 38.8796C84.685 38.6842 84.3888 38.3943 84.1745 38.0099C83.9665 37.6192 83.8625 37.1402 83.8625 36.573C83.8625 35.9995 83.9571 35.5143 84.1461 35.1172C84.3415 34.7202 84.6093 34.4177 84.9497 34.2097C85.2963 33.9954 85.6996 33.8883 86.1597 33.8883ZM86.1597 34.6635C85.8005 34.6635 85.5106 34.7801 85.29 35.0132C85.0757 35.2464 84.9497 35.5773 84.9118 36.0058H87.313C87.313 35.7411 87.272 35.508 87.1901 35.3063C87.1081 35.1046 86.9821 34.9471 86.8119 34.8336C86.6418 34.7202 86.4244 34.6635 86.1597 34.6635ZM92.0799 33.8883C92.1681 33.8883 92.2658 33.8946 92.373 33.9072C92.4801 33.9135 92.5683 33.923 92.6376 33.9356L92.5337 34.8714C92.4643 34.8525 92.3824 34.8368 92.2879 34.8242C92.1933 34.8116 92.1051 34.8053 92.0232 34.8053C91.8341 34.8053 91.6514 34.8431 91.4749 34.9187C91.3047 34.988 91.1503 35.092 91.0117 35.2307C90.873 35.363 90.7628 35.5269 90.6808 35.7222C90.6052 35.9176 90.5674 36.1413 90.5674 36.3934V39.0781H89.5653V33.9828H90.3594L90.4918 34.8903H90.5296C90.6367 34.7076 90.7659 34.5406 90.9172 34.3893C91.0684 34.2381 91.2417 34.1183 91.4371 34.0301C91.6325 33.9356 91.8467 33.8883 92.0799 33.8883Z" fill="#A2A2A2"/>
<rect x="8.38867" y="19.9189" width="9.3888" height="9.3888" fill="#EB5321"/>
<rect x="19.3418" y="19.9189" width="9.3888" height="9.3888" fill="#7FBA00"/>
<rect x="19.3418" y="30.8726" width="9.3888" height="9.3888" fill="#FCBB01"/>
<rect x="8.38867" y="30.8726" width="9.3888" height="9.3888" fill="#08A1EF"/>
<defs>
<clipPath id="clip0_891_5994">
<rect width="72.371" height="12.4918" fill="white" transform="translate(235.582 28.8667)"/>
</clipPath>
</defs>
</svg>
