<svg width="109" height="62" viewBox="0 0 109 62" fill="none" xmlns="http://www.w3.org/2000/svg">
<g opacity="0.9">
<rect x="1" y="1" width="107" height="60" rx="2.58643" fill="#04101F" fill-opacity="0.49"/>
<rect x="0.5" y="0.5" width="108" height="61" rx="3.08643" stroke="white" stroke-opacity="0.03"/>
</g>
<path d="M80.7024 34.0007H79.7781V35.6055H78.7015V34.0007H75.5835V33.1476L78.6914 28.3232H79.7781V33.0867H80.7024V34.0007ZM78.7015 31.1163C78.7015 30.9538 78.7015 30.7981 78.7015 30.6491C78.7083 30.5001 78.7151 30.3579 78.7219 30.2225C78.7286 30.0803 78.732 29.9517 78.732 29.8366C78.7388 29.7147 78.7456 29.6064 78.7523 29.5116H78.7117C78.6575 29.647 78.5932 29.7858 78.5187 29.928C78.451 30.0702 78.3833 30.1954 78.3156 30.3038L76.6093 33.0867H78.7015V31.1163ZM81.4952 35.0062C81.4952 34.7422 81.5595 34.556 81.6882 34.4476C81.8236 34.3393 81.9895 34.2851 82.1859 34.2851C82.3755 34.2851 82.538 34.3393 82.6734 34.4476C82.8156 34.556 82.8867 34.7422 82.8867 35.0062C82.8867 35.2703 82.8156 35.4599 82.6734 35.575C82.538 35.6901 82.3755 35.7477 82.1859 35.7477C81.9895 35.7477 81.8236 35.6901 81.6882 35.575C81.5595 35.4599 81.4952 35.2703 81.4952 35.0062ZM86.2463 28.2522C86.6526 28.2522 87.0114 28.3199 87.3229 28.4553C87.6412 28.5839 87.8883 28.7769 88.0643 29.0342C88.2472 29.2915 88.3386 29.6131 88.3386 29.9991C88.3386 30.2902 88.281 30.5441 88.1659 30.7608C88.0576 30.9775 87.9052 31.1705 87.7089 31.3397C87.5193 31.5022 87.3094 31.6444 87.0792 31.7663C87.3432 31.9085 87.587 32.071 87.8104 32.2538C88.0339 32.4299 88.2133 32.6364 88.3487 32.8734C88.4909 33.1104 88.562 33.3947 88.562 33.7265C88.562 34.1328 88.4672 34.4849 88.2776 34.7828C88.0948 35.0739 87.8307 35.3008 87.4854 35.4633C87.1401 35.6258 86.7305 35.707 86.2565 35.707C85.7487 35.707 85.3187 35.6292 84.9666 35.4734C84.6213 35.3177 84.3606 35.0976 84.1846 34.8133C84.0085 34.5221 83.9205 34.17 83.9205 33.757C83.9205 33.4252 83.9814 33.1374 84.1033 32.8937C84.232 32.6499 84.3978 32.44 84.601 32.264C84.8109 32.0879 85.0411 31.939 85.2916 31.8171C85.0749 31.6817 84.8786 31.5293 84.7025 31.36C84.5265 31.184 84.3877 30.9843 84.2861 30.7608C84.1913 30.5374 84.1439 30.2801 84.1439 29.9889C84.1439 29.6097 84.2353 29.2949 84.4182 29.0444C84.601 28.7871 84.8515 28.5907 85.1697 28.4553C85.488 28.3199 85.8468 28.2522 86.2463 28.2522ZM84.9768 33.7367C84.9768 34.0684 85.0817 34.3427 85.2916 34.5593C85.5015 34.7692 85.8164 34.8742 86.2362 34.8742C86.5206 34.8742 86.7542 34.8268 86.937 34.732C87.1198 34.6304 87.2586 34.495 87.3534 34.3257C87.455 34.1497 87.5057 33.95 87.5057 33.7265C87.5057 33.5031 87.4516 33.3067 87.3432 33.1374C87.2349 32.9682 87.0859 32.8192 86.8963 32.6905C86.7135 32.5551 86.5036 32.4333 86.2666 32.3249L86.1346 32.264C85.8908 32.3791 85.6809 32.5077 85.5049 32.6499C85.3356 32.7921 85.2036 32.9512 85.1088 33.1273C85.0208 33.3033 84.9768 33.5065 84.9768 33.7367ZM86.226 29.0951C85.9281 29.0951 85.6809 29.1764 85.4846 29.3389C85.295 29.5014 85.2002 29.7384 85.2002 30.0499C85.2002 30.2733 85.2476 30.4629 85.3424 30.6186C85.444 30.7744 85.5726 30.9098 85.7283 31.0249C85.8908 31.1332 86.0669 31.2382 86.2565 31.3397C86.4461 31.2449 86.6153 31.1434 86.7643 31.035C86.92 30.9199 87.0419 30.7845 87.1299 30.6288C87.2247 30.4663 87.2721 30.2733 87.2721 30.0499C87.2721 29.7384 87.174 29.5014 86.9776 29.3389C86.788 29.1764 86.5375 29.0951 86.226 29.0951Z" fill="#F0F0F0"/>
<path d="M17.3503 9.53162C17.8032 9.53162 18.1771 9.59219 18.472 9.71331C18.767 9.83444 18.9855 10.0161 19.1277 10.2584C19.2752 10.4954 19.3489 10.7955 19.3489 11.1589C19.3489 11.4486 19.2989 11.6935 19.1988 11.8936C19.104 12.0884 18.9776 12.2491 18.8196 12.3754C18.6669 12.4966 18.501 12.594 18.3219 12.6677L19.815 15.1719H18.8196L17.5636 12.8889H16.7025V15.1719H15.8257V9.53162H17.3503ZM17.3108 10.2584H16.7025V12.178H17.3266C17.5847 12.178 17.7953 12.1411 17.9586 12.0674C18.1271 11.9936 18.2508 11.883 18.3298 11.7356C18.4141 11.5881 18.4562 11.4064 18.4562 11.1905C18.4562 10.9641 18.4141 10.785 18.3298 10.6534C18.2508 10.5164 18.1245 10.4164 17.9507 10.3532C17.7821 10.29 17.5689 10.2584 17.3108 10.2584ZM22.0869 10.835C22.5872 10.835 22.9638 10.9535 23.2166 11.1905C23.4746 11.4222 23.6036 11.7883 23.6036 12.2886V15.1719H22.9954L22.8295 14.5794H22.7979C22.6768 14.7321 22.5556 14.8585 22.4345 14.9586C22.3186 15.0586 22.1817 15.1324 22.0237 15.1798C21.871 15.2272 21.6814 15.2509 21.455 15.2509C21.218 15.2509 21.0047 15.2061 20.8151 15.1166C20.6255 15.0218 20.4754 14.8796 20.3648 14.69C20.2542 14.4952 20.1989 14.2529 20.1989 13.9632C20.1989 13.5314 20.3517 13.2023 20.6571 12.9758C20.9678 12.7494 21.4392 12.6256 22.0711 12.6045L22.7505 12.5808V12.3438C22.7505 12.0279 22.6847 11.8067 22.553 11.6803C22.4266 11.5539 22.2475 11.4907 22.0158 11.4907C21.821 11.4907 21.6288 11.5223 21.4392 11.5855C21.2496 11.6487 21.0653 11.7251 20.8862 11.8146L20.6255 11.2063C20.8204 11.101 21.0416 11.0141 21.2891 10.9456C21.5419 10.8719 21.8078 10.835 22.0869 10.835ZM22.237 13.1417C21.8052 13.1628 21.505 13.2444 21.3365 13.3866C21.1679 13.5235 21.0837 13.7184 21.0837 13.9711C21.0837 14.1923 21.1416 14.353 21.2575 14.453C21.3786 14.5531 21.534 14.6031 21.7235 14.6031C22.0132 14.6031 22.2554 14.5109 22.4503 14.3266C22.6504 14.1423 22.7505 13.8658 22.7505 13.4972V13.1259L22.237 13.1417ZM26.2888 14.5715C26.3994 14.5715 26.5074 14.561 26.6127 14.5399C26.7181 14.5188 26.8102 14.4952 26.8892 14.4688V15.1008C26.7997 15.1429 26.6812 15.1771 26.5337 15.2035C26.3915 15.2351 26.2415 15.2509 26.0835 15.2509C25.8623 15.2509 25.6595 15.2114 25.4752 15.1324C25.2909 15.0534 25.1434 14.9165 25.0328 14.7216C24.9222 14.5267 24.8669 14.2555 24.8669 13.908V11.5539H24.3219V11.1747L24.9064 10.8587L25.1987 9.9582H25.728V10.914H26.8576V11.5539H25.728V13.8922C25.728 14.1239 25.7806 14.295 25.886 14.4056C25.9913 14.5162 26.1256 14.5715 26.2888 14.5715ZM29.2921 10.835C29.645 10.835 29.9504 10.914 30.2085 11.072C30.4665 11.2248 30.664 11.4459 30.801 11.7356C30.9431 12.0252 31.0142 12.3675 31.0142 12.7625V13.2207H28.3363C28.3468 13.6578 28.4522 13.9922 28.6523 14.2239C28.8524 14.4557 29.1342 14.5715 29.4975 14.5715C29.7556 14.5715 29.9847 14.5478 30.1848 14.5004C30.3902 14.4478 30.5982 14.3714 30.8089 14.2713V14.9665C30.6087 15.0613 30.4033 15.1324 30.1927 15.1798C29.9873 15.2272 29.7372 15.2509 29.4422 15.2509C29.0578 15.2509 28.7155 15.1692 28.4153 15.006C28.1151 14.8427 27.8808 14.6005 27.7122 14.2792C27.5437 13.9527 27.4595 13.5525 27.4595 13.0785C27.4595 12.5993 27.5358 12.1938 27.6885 11.862C27.8413 11.5302 28.0546 11.2774 28.3284 11.1036C28.6075 10.9246 28.9288 10.835 29.2921 10.835ZM29.2921 11.4828C29.0236 11.4828 28.8076 11.5802 28.6444 11.7751C28.4811 11.9699 28.3863 12.2464 28.36 12.6045H30.169C30.169 12.3833 30.1374 12.1885 30.0742 12.02C30.011 11.8514 29.9136 11.7198 29.7819 11.625C29.6555 11.5302 29.4923 11.4828 29.2921 11.4828ZM37.4769 13.039C37.4769 13.3919 37.4321 13.7052 37.3426 13.979C37.2531 14.2529 37.1241 14.4846 36.9555 14.6742C36.7923 14.8638 36.5922 15.0086 36.3552 15.1087C36.1182 15.2035 35.8522 15.2509 35.5573 15.2509C35.2887 15.2509 35.0386 15.2035 34.8069 15.1087C34.5751 15.0086 34.375 14.8638 34.2065 14.6742C34.038 14.4846 33.9063 14.2529 33.8115 13.979C33.722 13.7052 33.6772 13.3892 33.6772 13.0311C33.6772 12.5624 33.7536 12.1648 33.9063 11.8383C34.059 11.5118 34.2776 11.2642 34.562 11.0957C34.8516 10.9219 35.1939 10.835 35.5889 10.835C35.9576 10.835 36.2841 10.9219 36.5685 11.0957C36.8528 11.2642 37.074 11.5118 37.232 11.8383C37.3953 12.1648 37.4769 12.565 37.4769 13.039ZM34.562 13.039C34.562 13.355 34.5962 13.6288 34.6647 13.8606C34.7384 14.087 34.849 14.2608 34.9965 14.3819C35.1492 14.503 35.3414 14.5636 35.5731 14.5636C35.8101 14.5636 36.0023 14.503 36.1498 14.3819C36.3025 14.2608 36.4131 14.087 36.4816 13.8606C36.5553 13.6288 36.5922 13.355 36.5922 13.039C36.5922 12.7125 36.5553 12.4386 36.4816 12.2175C36.4078 11.9963 36.2972 11.8277 36.1498 11.7119C36.0023 11.5908 35.8075 11.5302 35.5652 11.5302C35.2124 11.5302 34.957 11.6619 34.799 11.9252C34.641 12.1885 34.562 12.5598 34.562 13.039ZM40.5354 10.835C40.9988 10.835 41.3543 10.9588 41.6018 11.2063C41.8546 11.4538 41.981 11.8514 41.981 12.3991V15.1719H41.1278V12.5176C41.1278 12.1859 41.062 11.9383 40.9303 11.7751C40.804 11.6066 40.6065 11.5223 40.3379 11.5223C39.9429 11.5223 39.6717 11.6513 39.5242 11.9094C39.3768 12.1674 39.303 12.5387 39.303 13.0232V15.1719H38.4499V10.914H39.1214L39.2399 11.4828H39.2872C39.3768 11.3353 39.4847 11.2142 39.6111 11.1194C39.7375 11.0246 39.8797 10.9535 40.0377 10.9061C40.1957 10.8587 40.3616 10.835 40.5354 10.835Z" fill="#F0F0F0"/>
<path d="M30.8948 19.7139H33.4534V35.5971H30.8948V19.7139Z" fill="white"/>
<path d="M42.3532 30.5644C42.3532 33.0254 40.3508 33.2491 39.6833 33.2491C38.1259 33.2491 37.9034 31.7949 37.9034 31.0119V24.8594H35.3448V30.9C35.3448 32.3542 35.7898 33.6966 36.6797 34.4796C37.4584 35.2627 38.4596 35.5983 39.6833 35.5983C40.5733 35.5983 41.6857 35.3746 42.3532 34.7034V35.5983H44.9118V24.8594H42.3532V30.5644Z" fill="white"/>
<path d="M49.9168 20.9443H47.3582V24.8592H45.467V27.32H47.3582V35.5972H49.9168V27.32H51.808V24.8592H49.9168V20.9443Z" fill="white"/>
<path d="M59.8188 32.3543C59.2626 32.8018 58.4839 33.1374 57.7052 33.1374C55.9253 33.1374 54.7016 31.795 54.7016 30.0052C54.7016 28.2154 55.9253 26.9849 57.7052 26.9849C58.4839 26.9849 59.2626 27.2086 59.8188 27.7679L60.1526 28.1035L61.9325 26.4256L61.4875 26.09C60.4863 25.1951 59.1514 24.6357 57.7052 24.6357C54.5903 24.6357 52.2542 26.9849 52.2542 30.1171C52.2542 33.2492 54.5903 35.5984 57.7052 35.5984C59.1514 35.5984 60.4863 35.0391 61.4875 34.1441L61.9325 33.8086L60.1526 32.0187L59.8188 32.3543Z" fill="white"/>
<path d="M70.9437 25.754C70.165 24.971 69.3863 24.6354 68.1626 24.6354C67.2726 24.6354 66.3827 24.8592 65.7152 25.5303V19.7139H63.1566V35.5971H65.7152V29.6689C65.7152 27.2081 67.3839 26.9844 68.0513 26.9844C69.6088 26.9844 69.4975 28.4385 69.4975 29.2215V35.4853H72.0562V29.3333C72.0562 27.8792 71.7224 26.537 70.9437 25.754Z" fill="white"/>
<path d="M57.5935 31.9058C58.5765 31.9058 59.3734 31.1045 59.3734 30.116C59.3734 29.1275 58.5765 28.3262 57.5935 28.3262C56.6105 28.3262 55.8136 29.1275 55.8136 30.116C55.8136 31.1045 56.6105 31.9058 57.5935 31.9058Z" fill="#EF4335"/>
<path d="M27.335 31.6823C26.445 32.5772 25.1101 33.1364 23.6639 33.1364C20.8828 33.1364 18.8804 30.8994 18.8804 27.8793C18.8804 24.8592 20.8828 22.6222 23.7752 22.6222C25.1101 22.6222 26.445 23.1814 27.4462 24.1881L27.78 24.5237L29.4486 22.8459L29.1149 22.5103C27.6687 21.0562 25.7776 20.2732 23.7752 20.2732C19.5479 20.1614 16.433 23.517 16.433 27.8793C16.433 32.2416 19.5479 35.5972 23.6639 35.5972C25.6663 35.5972 27.6687 34.8142 29.0036 33.3601L29.3374 33.0246L27.6687 31.3468L27.335 31.6823Z" fill="white"/>
<path d="M35.0906 42.0486L34.064 44.1493C34.0118 44.2562 33.9346 44.3486 33.8391 44.4187C33.7437 44.4888 33.6328 44.5344 33.516 44.5515L31.2214 44.8885C31.1139 44.9042 31.0128 44.95 30.9297 45.0208C30.8466 45.0915 30.7848 45.1843 30.7512 45.2887C30.7176 45.3931 30.7137 45.5049 30.7398 45.6115C30.7659 45.718 30.821 45.8151 30.8988 45.8916L32.5599 47.527C32.6442 47.6101 32.7073 47.7126 32.7438 47.8258C32.7802 47.939 32.7889 48.0594 32.7691 48.1768L32.377 50.486C32.3588 50.5941 32.3708 50.7052 32.4119 50.8068C32.4529 50.9083 32.5212 50.9962 32.6091 51.0606C32.697 51.125 32.8009 51.1632 32.9092 51.171C33.0175 51.1789 33.1258 51.156 33.2219 51.1049L35.2744 50.0148C35.3788 49.9593 35.4951 49.9303 35.6131 49.9303C35.731 49.9303 35.8473 49.9593 35.9517 50.0148L38.0042 51.1049C38.1003 51.156 38.2086 51.1789 38.3169 51.171C38.4252 51.1632 38.5291 51.125 38.617 51.0606C38.7049 50.9962 38.7732 50.9083 38.8142 50.8068C38.8553 50.7052 38.8673 50.5941 38.8491 50.486L38.457 48.1768C38.4372 48.0594 38.4459 47.939 38.4823 47.8258C38.5188 47.7126 38.5819 47.6101 38.6662 47.527L40.3272 45.8916C40.4051 45.8151 40.4602 45.718 40.4863 45.6115C40.5124 45.5049 40.5085 45.3931 40.4749 45.2887C40.4413 45.1843 40.3795 45.0915 40.2964 45.0208C40.2133 44.95 40.1122 44.9042 40.0047 44.8885L37.7092 44.5515C37.5924 44.5344 37.4815 44.4888 37.386 44.4187C37.2906 44.3486 37.2134 44.2562 37.1612 44.1493L36.1346 42.0486C36.0866 41.9501 36.0122 41.8673 35.9199 41.8093C35.8277 41.7514 35.7212 41.7207 35.6126 41.7207C35.504 41.7207 35.3975 41.7514 35.3052 41.8093C35.213 41.8673 35.1386 41.9501 35.0906 42.0486Z" fill="#FFAF00"/>
<path d="M49.3615 42.0486L48.3349 44.1493C48.2827 44.2562 48.2055 44.3487 48.11 44.4188C48.0145 44.4888 47.9036 44.5344 47.7868 44.5516L45.4914 44.8885C45.3838 44.9042 45.2828 44.9501 45.1997 45.0208C45.1166 45.0915 45.0547 45.1844 45.0212 45.2888C44.9876 45.3932 44.9836 45.505 45.0097 45.6115C45.0358 45.7181 45.0909 45.8151 45.1688 45.8917L46.8298 47.527C46.9142 47.6101 46.9773 47.7127 47.0137 47.8259C47.0502 47.9391 47.0588 48.0595 47.039 48.1768L46.6469 50.4861C46.6287 50.5942 46.6408 50.7053 46.6818 50.8068C46.7228 50.9083 46.7912 50.9962 46.879 51.0606C46.9669 51.125 47.0709 51.1633 47.1792 51.1711C47.2875 51.1789 47.3958 51.156 47.4918 51.1049L49.5443 50.0148C49.6488 49.9594 49.765 49.9304 49.883 49.9304C50.001 49.9304 50.1172 49.9594 50.2217 50.0148L52.2742 51.1049C52.3703 51.156 52.4786 51.1789 52.5868 51.1711C52.6951 51.1633 52.7991 51.125 52.887 51.0606C52.9749 50.9962 53.0432 50.9083 53.0842 50.8068C53.1252 50.7053 53.1373 50.5942 53.1191 50.4861L52.727 48.1768C52.7071 48.0595 52.7158 47.939 52.7523 47.8259C52.7887 47.7127 52.8518 47.6101 52.9362 47.527L54.5972 45.8917C54.6751 45.8151 54.7302 45.7181 54.7563 45.6115C54.7824 45.505 54.7784 45.3932 54.7448 45.2888C54.7113 45.1844 54.6494 45.0915 54.5663 45.0208C54.4832 44.9501 54.3822 44.9042 54.2746 44.8885L51.9792 44.5516C51.8624 44.5344 51.7515 44.4888 51.656 44.4188C51.5605 44.3487 51.4833 44.2562 51.4311 44.1493L50.4046 42.0486C50.3564 41.9504 50.2821 41.8678 50.1899 41.81C50.0978 41.7523 49.9915 41.7217 49.883 41.7217C49.7746 41.7217 49.6683 41.7523 49.5761 41.81C49.4839 41.8678 49.4096 41.9504 49.3615 42.0486Z" fill="#FFAF00"/>
<path d="M63.6305 42.0476L62.6039 44.1483C62.5517 44.2552 62.4745 44.3477 62.3791 44.4177C62.2836 44.4878 62.1727 44.5334 62.0559 44.5505L59.7607 44.8875C59.6532 44.9032 59.5521 44.9491 59.469 45.0198C59.3859 45.0905 59.3241 45.1833 59.2905 45.2877C59.257 45.3921 59.253 45.5039 59.2791 45.6105C59.3052 45.7171 59.3603 45.8141 59.4382 45.8907L61.0992 47.526C61.1835 47.6091 61.2466 47.7117 61.2831 47.8249C61.3195 47.938 61.3282 48.0585 61.3084 48.1758L60.9163 50.4851C60.8981 50.5932 60.9102 50.7043 60.9512 50.8058C60.9922 50.9073 61.0605 50.9952 61.1484 51.0596C61.2363 51.124 61.3402 51.1622 61.4485 51.1701C61.5568 51.1779 61.6651 51.155 61.7612 51.1039L63.8137 50.0138C63.9181 49.9583 64.0344 49.9294 64.1524 49.9294C64.2704 49.9294 64.3866 49.9583 64.491 50.0138L66.5435 51.1039C66.6396 51.155 66.7479 51.1779 66.8562 51.1701C66.9645 51.1622 67.0684 51.124 67.1563 51.0596C67.2442 50.9952 67.3125 50.9073 67.3535 50.8058C67.3946 50.7043 67.4067 50.5932 67.3884 50.4851L66.9963 48.1758C66.9765 48.0585 66.9852 47.938 67.0216 47.8248C67.0581 47.7117 67.1212 47.6091 67.2056 47.526L68.8666 45.8907C68.9444 45.8141 68.9995 45.7171 69.0256 45.6105C69.0517 45.5039 69.0478 45.3921 69.0142 45.2877C68.9806 45.1833 68.9188 45.0905 68.8357 45.0198C68.7526 44.9491 68.6515 44.9032 68.544 44.8875L66.2485 44.5505C66.1317 44.5334 66.0208 44.4878 65.9253 44.4177C65.8299 44.3477 65.7527 44.2552 65.7005 44.1483L64.6745 42.0476C64.6265 41.9492 64.5521 41.8663 64.4599 41.8084C64.3676 41.7504 64.2611 41.7197 64.1525 41.7197C64.0439 41.7197 63.9374 41.7504 63.8452 41.8084C63.7529 41.8663 63.6785 41.9492 63.6305 42.0476Z" fill="#FFAF00"/>
<path d="M78.9477 42.0488L79.9743 44.1495C80.0265 44.2564 80.1036 44.3489 80.1991 44.419C80.2946 44.489 80.4055 44.5346 80.5223 44.5518L82.8175 44.8887C82.925 44.9045 83.0261 44.9503 83.1092 45.021C83.1923 45.0918 83.2541 45.1846 83.2877 45.289C83.3212 45.3934 83.3252 45.5052 83.2991 45.6117C83.273 45.7183 83.2179 45.8153 83.14 45.8919L81.479 47.5272C81.3947 47.6103 81.3316 47.7129 81.2951 47.8261C81.2587 47.9393 81.25 48.0597 81.2698 48.177L81.6619 50.4863C81.6801 50.5944 81.668 50.7055 81.627 50.807C81.586 50.9085 81.5177 50.9965 81.4298 51.0608C81.3419 51.1252 81.238 51.1635 81.1297 51.1713C81.0214 51.1791 80.9131 51.1562 80.817 51.1051L78.7645 50.015C78.6601 49.9596 78.5438 49.9306 78.4258 49.9306C78.3078 49.9306 78.1916 49.9596 78.0872 50.015L76.0346 51.1051C75.9386 51.1562 75.8303 51.1791 75.722 51.1713C75.6137 51.1635 75.5097 51.1252 75.4219 51.0608C75.334 50.9965 75.2657 50.9085 75.2246 50.807C75.1836 50.7055 75.1715 50.5944 75.1897 50.4863L75.5819 48.177C75.6017 48.0597 75.593 47.9393 75.5566 47.8261C75.5201 47.7129 75.457 47.6103 75.3726 47.5272L73.7116 45.8919C73.6338 45.8153 73.5786 45.7183 73.5526 45.6117C73.5265 45.5052 73.5304 45.3934 73.564 45.289C73.5976 45.1846 73.6594 45.0918 73.7425 45.021C73.8256 44.9503 73.9267 44.9045 74.0342 44.8887L76.3297 44.5518C76.4465 44.5346 76.5574 44.489 76.6528 44.419C76.7483 44.3489 76.8255 44.2564 76.8777 44.1495L77.9015 42.0488C77.9493 41.9498 78.0237 41.8664 78.1162 41.808C78.2087 41.7497 78.3156 41.7188 78.4246 41.7188C78.5337 41.7188 78.6405 41.7497 78.733 41.808C78.8255 41.8664 78.8999 41.9498 78.9477 42.0488Z" fill="#FFAF00"/>
<path d="M80.817 51.1055L79.4192 50.3628V43.0127L79.974 44.1483C80.0262 44.2552 80.1033 44.3477 80.1988 44.4178C80.2943 44.4878 80.4052 44.5334 80.522 44.5506L82.8175 44.8875C82.925 44.9032 83.0261 44.9491 83.1092 45.0198C83.1923 45.0905 83.2541 45.1834 83.2877 45.2878C83.3212 45.3922 83.3252 45.504 83.2991 45.6105C83.273 45.7171 83.2179 45.8141 83.14 45.8907L81.479 47.526C81.3947 47.6091 81.3316 47.7117 81.2951 47.8249C81.2587 47.9381 81.25 48.0585 81.2698 48.1758L81.6619 50.4851C81.6805 50.5933 81.6686 50.7046 81.6278 50.8064C81.5869 50.9081 81.5186 50.9963 81.4306 51.0609C81.3427 51.1255 81.2386 51.1639 81.1301 51.1718C81.0217 51.1796 80.9132 51.1567 80.817 51.1055Z" fill="#FDE3AC"/>
<path d="M20.8231 42.0498L19.7965 44.1509C19.7443 44.2578 19.6671 44.3502 19.5716 44.4203C19.4762 44.4904 19.3652 44.536 19.2484 44.5531L16.953 44.8901C16.8454 44.9058 16.7444 44.9516 16.6613 45.0224C16.5782 45.0931 16.5164 45.1859 16.4828 45.2903C16.4492 45.3947 16.4452 45.5065 16.4713 45.6131C16.4974 45.7196 16.5525 45.8167 16.6304 45.8932L18.2914 47.5286C18.3758 47.6117 18.4389 47.7142 18.4753 47.8274C18.5118 47.9406 18.5205 48.061 18.5007 48.1784L18.1085 50.4876C18.0903 50.5957 18.1024 50.7068 18.1434 50.8084C18.1845 50.9099 18.2528 50.9978 18.3406 51.0622C18.4285 51.1265 18.5325 51.1648 18.6408 51.1726C18.7491 51.1805 18.8574 51.1576 18.9534 51.1065L21.006 50.0164C21.1104 49.9609 21.2266 49.9319 21.3446 49.9319C21.4626 49.9319 21.5788 49.9609 21.6833 50.0164L23.7358 51.1065C23.8319 51.1576 23.9402 51.1805 24.0485 51.1726C24.1567 51.1648 24.2607 51.1265 24.3486 51.0622C24.4365 50.9978 24.5048 50.9099 24.5458 50.8084C24.5868 50.7068 24.5989 50.5957 24.5807 50.4876L24.1886 48.1784C24.1688 48.061 24.1774 47.9406 24.2139 47.8274C24.2503 47.7142 24.3134 47.6117 24.3978 47.5286L26.0588 45.8932C26.1367 45.8167 26.1918 45.7196 26.2179 45.6131C26.244 45.5065 26.24 45.3947 26.2064 45.2903C26.1729 45.1859 26.111 45.0931 26.0279 45.0224C25.9448 44.9516 25.8438 44.9058 25.7362 44.8901L23.442 44.5528C23.3252 44.5357 23.2143 44.4901 23.1188 44.42C23.0234 44.3499 22.9462 44.2575 22.894 44.1505L21.8674 42.0498C21.8194 41.9514 21.745 41.8684 21.6527 41.8104C21.5604 41.7524 21.4539 41.7217 21.3452 41.7217C21.2365 41.7217 21.13 41.7524 21.0377 41.8104C20.9454 41.8684 20.8711 41.9514 20.8231 42.0498Z" fill="#E2E2E2"/>
<path d="M21.8463 42.0496L22.8729 44.1503C22.9251 44.2572 23.0023 44.3497 23.0978 44.4197C23.1932 44.4898 23.3042 44.5354 23.421 44.5525L25.7164 44.8895C25.8239 44.9052 25.925 44.951 26.0081 45.0218C26.0912 45.0925 26.153 45.1853 26.1866 45.2897C26.2202 45.3941 26.2241 45.5059 26.1981 45.6125C26.172 45.7191 26.1169 45.8161 26.039 45.8927L24.378 47.528C24.2936 47.6111 24.2305 47.7137 24.1941 47.8268C24.1576 47.94 24.1489 48.0605 24.1687 48.1778L24.5609 50.487C24.5791 50.5951 24.567 50.7062 24.526 50.8078C24.485 50.9093 24.4166 50.9972 24.3288 51.0616C24.2409 51.126 24.1369 51.1642 24.0286 51.1721C23.9203 51.1799 23.812 51.157 23.716 51.1059L21.6634 50.0158C21.559 49.9603 21.4428 49.9314 21.3248 49.9314C21.2068 49.9314 21.0906 49.9603 20.9861 50.0158L18.9336 51.1059C18.8375 51.157 18.7292 51.1799 18.6209 51.1721C18.5127 51.1642 18.4087 51.126 18.3208 51.0616C18.2329 50.9972 18.1646 50.9093 18.1236 50.8078C18.0826 50.7062 18.0705 50.5951 18.0887 50.487L18.4808 48.1778C18.5006 48.0605 18.492 47.94 18.4555 47.8268C18.4191 47.7136 18.3559 47.6111 18.2716 47.528L16.6106 45.8927C16.5327 45.8161 16.4776 45.7191 16.4515 45.6125C16.4254 45.5059 16.4294 45.3941 16.4629 45.2897C16.4965 45.1853 16.5584 45.0925 16.6415 45.0218C16.7246 44.951 16.8256 44.9052 16.9332 44.8895L19.2286 44.5525C19.3454 44.5354 19.4563 44.4898 19.5518 44.4197C19.6473 44.3497 19.7244 44.2572 19.7767 44.1503L20.8032 42.0496C20.8514 41.9514 20.9257 41.8688 21.0179 41.811C21.11 41.7533 21.2163 41.7227 21.3248 41.7227C21.4332 41.7227 21.5395 41.7533 21.6317 41.811C21.7238 41.8688 21.7982 41.9514 21.8463 42.0496Z" fill="#FFAF00"/>
</svg>
