<svg width="109" height="62" viewBox="0 0 109 62" fill="none" xmlns="http://www.w3.org/2000/svg">
<g opacity="0.6">
<rect x="1.00064" y="0.999023" width="106.999" height="60" rx="2.58643" fill="#04101F" fill-opacity="0.49"/>
<rect x="0.500641" y="0.499023" width="107.999" height="61" rx="3.08643" stroke="white" stroke-opacity="0.03"/>
</g>
<path d="M1 20.1367H107.999V3.58521C107.999 2.15677 106.841 0.998787 105.413 0.998787H3.58643C2.15798 0.998787 1 2.15677 1 3.58521V20.1367Z" fill="#4285F4"/>
<path d="M38.9855 7.42738C39.9121 7.42738 40.5855 7.62072 41.0055 8.00738C41.4321 8.39405 41.6455 8.92738 41.6455 9.60738C41.6455 9.91405 41.5988 10.2074 41.5055 10.4874C41.4121 10.7607 41.2555 11.0074 41.0355 11.2274C40.8155 11.4474 40.5255 11.6207 40.1655 11.7474C39.8121 11.874 39.3721 11.9374 38.8455 11.9374H38.1355V14.5674H36.8555V7.42738H38.9855ZM38.9055 8.48738H38.1355V10.8774H38.7155C39.0621 10.8774 39.3555 10.8374 39.5955 10.7574C39.8421 10.6707 40.0288 10.5374 40.1555 10.3574C40.2821 10.1774 40.3455 9.94405 40.3455 9.65738C40.3455 9.26405 40.2288 8.97072 39.9955 8.77738C39.7621 8.58405 39.3988 8.48738 38.9055 8.48738ZM45.0869 9.04738C45.7869 9.04738 46.3169 9.20072 46.6769 9.50738C47.0435 9.80738 47.2269 10.2807 47.2269 10.9274V14.5674H46.3369L46.0869 13.8174H46.0469C45.8935 14.0107 45.7335 14.174 45.5669 14.3074C45.4069 14.434 45.2202 14.524 45.0069 14.5774C44.8002 14.6374 44.5469 14.6674 44.2469 14.6674C43.9269 14.6674 43.6369 14.6074 43.3769 14.4874C43.1235 14.3674 42.9235 14.184 42.7769 13.9374C42.6302 13.684 42.5569 13.3674 42.5569 12.9874C42.5569 12.4274 42.7602 12.0074 43.1669 11.7274C43.5802 11.4407 44.2035 11.284 45.0369 11.2574L45.9769 11.2274V10.9574C45.9769 10.6107 45.8935 10.364 45.7269 10.2174C45.5602 10.0707 45.3269 9.99738 45.0269 9.99738C44.7535 9.99738 44.4902 10.0374 44.2369 10.1174C43.9835 10.1974 43.7369 10.2907 43.4969 10.3974L43.0969 9.51738C43.3635 9.37738 43.6669 9.26405 44.0069 9.17738C44.3535 9.09072 44.7135 9.04738 45.0869 9.04738ZM45.3169 12.0274C44.7635 12.0474 44.3802 12.144 44.1669 12.3174C43.9535 12.484 43.8469 12.7107 43.8469 12.9974C43.8469 13.2507 43.9235 13.434 44.0769 13.5474C44.2302 13.6607 44.4269 13.7174 44.6669 13.7174C45.0335 13.7174 45.3435 13.614 45.5969 13.4074C45.8502 13.194 45.9769 12.8807 45.9769 12.4674V12.0074L45.3169 12.0274ZM51.6458 9.04738C51.7258 9.04738 51.8191 9.05072 51.9258 9.05738C52.0325 9.06405 52.1225 9.07738 52.1958 9.09738L52.0858 10.2674C52.0258 10.254 51.9458 10.244 51.8458 10.2374C51.7525 10.224 51.6691 10.2174 51.5958 10.2174C51.3958 10.2174 51.2025 10.2507 51.0158 10.3174C50.8358 10.3774 50.6725 10.4707 50.5258 10.5974C50.3858 10.7174 50.2725 10.874 50.1858 11.0674C50.1058 11.2607 50.0658 11.4907 50.0658 11.7574V14.5674H48.8058V9.14738H49.7758L49.9558 10.0874H50.0158C50.1225 9.89405 50.2558 9.72072 50.4158 9.56738C50.5758 9.40738 50.7591 9.28072 50.9658 9.18738C51.1791 9.09405 51.4058 9.04738 51.6458 9.04738ZM55.3003 13.6574C55.4603 13.6574 55.6137 13.644 55.7603 13.6174C55.907 13.584 56.0437 13.5474 56.1703 13.5074V14.4474C56.037 14.5074 55.8637 14.5574 55.6503 14.5974C55.437 14.644 55.2137 14.6674 54.9803 14.6674C54.6737 14.6674 54.3937 14.6174 54.1403 14.5174C53.8937 14.4107 53.6937 14.2307 53.5403 13.9774C53.3937 13.724 53.3203 13.3707 53.3203 12.9174V10.0974H52.5903V9.54738L53.3903 9.10738L53.7903 7.95738H54.5803V9.14738H56.1203V10.0974H54.5803V12.9074C54.5803 13.1607 54.647 13.3507 54.7803 13.4774C54.9137 13.5974 55.087 13.6574 55.3003 13.6574ZM60.1628 9.04738C60.7695 9.04738 61.2428 9.20405 61.5828 9.51738C61.9295 9.83072 62.1028 10.3374 62.1028 11.0374V14.5674H60.8428V11.2874C60.8428 10.8807 60.7628 10.5774 60.6028 10.3774C60.4428 10.1707 60.1895 10.0674 59.8428 10.0674C59.3362 10.0674 58.9895 10.2274 58.8028 10.5474C58.6162 10.8607 58.5228 11.3174 58.5228 11.9174V14.5674H57.2628V9.14738H58.2328L58.4128 9.85738H58.4828C58.6028 9.67072 58.7495 9.51738 58.9228 9.39738C59.0962 9.27738 59.2895 9.19072 59.5028 9.13738C59.7162 9.07738 59.9362 9.04738 60.1628 9.04738ZM65.8588 9.04738C66.3455 9.04738 66.7622 9.14738 67.1088 9.34738C67.4622 9.54072 67.7355 9.82072 67.9288 10.1874C68.1222 10.5474 68.2188 10.9874 68.2188 11.5074V12.1474H64.6388C64.6522 12.6407 64.7888 13.024 65.0488 13.2974C65.3088 13.564 65.6688 13.6974 66.1288 13.6974C66.4822 13.6974 66.7955 13.664 67.0688 13.5974C67.3488 13.524 67.6355 13.4207 67.9288 13.2874V14.2974C67.6622 14.424 67.3855 14.5174 67.0988 14.5774C66.8122 14.6374 66.4688 14.6674 66.0688 14.6674C65.5422 14.6674 65.0722 14.5674 64.6588 14.3674C64.2522 14.1607 63.9322 13.8507 63.6988 13.4374C63.4722 13.024 63.3588 12.5107 63.3588 11.8974C63.3588 11.2774 63.4622 10.7574 63.6688 10.3374C63.8822 9.91072 64.1755 9.59072 64.5488 9.37738C64.9222 9.15738 65.3588 9.04738 65.8588 9.04738ZM65.8588 9.97738C65.5255 9.97738 65.2522 10.0874 65.0388 10.3074C64.8322 10.5207 64.7088 10.8407 64.6688 11.2674H66.9988C66.9988 11.014 66.9555 10.7907 66.8688 10.5974C66.7888 10.404 66.6655 10.254 66.4988 10.1474C66.3322 10.034 66.1188 9.97738 65.8588 9.97738ZM72.3294 9.04738C72.4094 9.04738 72.5027 9.05072 72.6094 9.05738C72.716 9.06405 72.806 9.07738 72.8794 9.09738L72.7694 10.2674C72.7094 10.254 72.6294 10.244 72.5294 10.2374C72.436 10.224 72.3527 10.2174 72.2794 10.2174C72.0794 10.2174 71.886 10.2507 71.6994 10.3174C71.5194 10.3774 71.356 10.4707 71.2094 10.5974C71.0694 10.7174 70.956 10.874 70.8694 11.0674C70.7894 11.2607 70.7494 11.4907 70.7494 11.7574V14.5674H69.4894V9.14738H70.4594L70.6394 10.0874H70.6994C70.806 9.89405 70.9394 9.72072 71.0994 9.56738C71.2594 9.40738 71.4427 9.28072 71.6494 9.18738C71.8627 9.09405 72.0894 9.04738 72.3294 9.04738Z" fill="white"/>
<g clip-path="url(#clip0_6_12656)">
<path d="M66.0862 41.4334C65.4465 41.4482 64.8104 41.333 64.2169 41.095C63.6234 40.857 63.0849 40.501 62.6343 40.0489C62.1837 39.5969 61.8304 39.0581 61.596 38.4656C61.3617 37.8731 61.2512 37.2392 61.2712 36.6028C61.2547 35.9705 61.3675 35.3414 61.6027 34.7538C61.838 34.1661 62.1908 33.6322 62.6397 33.1844C63.087 32.729 63.6241 32.3706 64.2171 32.1314C64.8102 31.8923 65.4465 31.7776 66.0862 31.7946C66.7268 31.7789 67.3628 31.9062 67.9475 32.167C68.5322 32.4279 69.0507 32.8157 69.4651 33.3021L68.6373 34.1259C68.3336 33.7439 67.9454 33.4369 67.5029 33.2289C67.0604 33.0209 66.5755 32.9174 66.0862 32.9266C65.6093 32.915 65.135 33.0005 64.6924 33.1778C64.2499 33.3551 63.8484 33.6205 63.5126 33.9577C63.1696 34.3058 62.9017 34.72 62.7254 35.1749C62.5492 35.6297 62.4682 36.1157 62.4876 36.6028C62.4667 37.0918 62.5468 37.5798 62.7231 38.0368C62.8994 38.4937 63.1681 38.9097 63.5126 39.2591C63.8476 39.5973 64.2489 39.8635 64.6917 40.0408C65.1344 40.2182 65.6091 40.3031 66.0862 40.2902C66.6275 40.2876 67.1613 40.1644 67.6486 39.9297C68.1358 39.6951 68.5641 39.3548 68.902 38.934L69.7692 39.7746C69.3302 40.2968 68.7775 40.7127 68.153 40.9907C67.5048 41.2867 66.7993 41.4378 66.0862 41.4334ZM71.9261 32.002V41.2316H70.7322V32.002H71.9261ZM72.951 38.071C72.938 37.6286 73.0129 37.1881 73.1714 36.7746C73.3299 36.361 73.5689 35.9827 73.8746 35.6613C74.1772 35.3493 74.5418 35.1035 74.9451 34.9395C75.3485 34.7754 75.7817 34.6968 76.2173 34.7087C76.6513 34.6963 77.083 34.7747 77.4846 34.9388C77.8862 35.1029 78.2487 35.3491 78.5488 35.6613C78.8576 35.9808 79.0989 36.3587 79.2585 36.7726C79.4181 37.1864 79.4927 37.628 79.478 38.071C79.4943 38.5143 79.4205 38.9562 79.2608 39.3703C79.1011 39.7844 78.8589 40.1621 78.5488 40.4807C78.2496 40.7941 77.8872 41.041 77.4854 41.2052C77.0836 41.3694 76.6515 41.4471 76.2173 41.4334C75.7816 41.4466 75.3479 41.3686 74.9443 41.2045C74.5408 41.0404 74.1763 40.7938 73.8746 40.4807C73.5689 40.1593 73.3299 39.781 73.1714 39.3675C73.0129 38.954 72.938 38.5134 72.951 38.071ZM74.1449 38.071C74.1175 38.6771 74.3321 39.2694 74.7418 39.7186C74.9314 39.9187 75.16 40.0782 75.4138 40.1872C75.6675 40.2962 75.9409 40.3524 76.2173 40.3524C76.4937 40.3524 76.7671 40.2962 77.0208 40.1872C77.2746 40.0782 77.5032 39.9187 77.6928 39.7186C78.1025 39.2694 78.3171 38.6771 78.2897 38.071C78.316 37.4685 78.1013 36.8801 77.6928 36.4347C77.505 36.2316 77.2769 36.0694 77.023 35.9585C76.769 35.8476 76.4947 35.7903 76.2173 35.7903C75.94 35.7903 75.6656 35.8476 75.4117 35.9585C75.1577 36.0694 74.9296 36.2316 74.7418 36.4347C74.3333 36.8801 74.1186 37.4685 74.1449 38.071ZM86.0668 41.2316H84.9405V40.3518H84.8842C84.6829 40.6807 84.3946 40.9483 84.0508 41.1252C83.6935 41.3266 83.29 41.4328 82.8794 41.4334C82.5501 41.4546 82.22 41.4067 81.9105 41.2928C81.601 41.1789 81.3191 41.0015 81.0829 40.7721C80.6367 40.2469 80.4127 39.5699 80.4578 38.8836V34.9216H81.6461V38.8107C81.6213 39.0213 81.645 39.2347 81.7154 39.4348C81.7858 39.6348 81.9012 39.8163 82.0526 39.9654C82.2041 40.1145 82.3877 40.2273 82.5895 40.2952C82.7913 40.3631 83.006 40.3844 83.2173 40.3574C83.4453 40.3614 83.6712 40.3128 83.8773 40.2156C84.0835 40.1184 84.2642 39.9752 84.4055 39.797C84.7268 39.4121 84.8969 38.9243 84.8842 38.4241V34.9216H86.0781L86.0668 41.2316ZM90.099 41.4334C89.6937 41.4333 89.2932 41.3461 88.9248 41.1778C88.5564 41.0096 88.2289 40.7641 87.9647 40.4583C87.3731 39.8038 87.0513 38.9513 87.0636 38.071C87.0443 37.1953 87.3581 36.3447 87.9421 35.6894C88.2044 35.3808 88.5314 35.1331 88.9001 34.9636C89.2688 34.7942 89.6704 34.7072 90.0765 34.7087C90.5207 34.7012 90.9599 34.8032 91.3548 35.0057C91.7167 35.1832 92.024 35.4541 92.2446 35.7902H92.2953L92.2672 34.9216V32.002H93.4554V41.2316H92.3291V40.3518H92.2784C92.0578 40.6879 91.7505 40.9589 91.3886 41.1364C90.9903 41.3406 90.547 41.4427 90.099 41.4334ZM90.2961 40.3518C90.5679 40.3606 90.8382 40.3082 91.0869 40.1985C91.3355 40.0889 91.5561 39.9248 91.7322 39.7186C92.126 39.262 92.3278 38.6719 92.2953 38.071C92.3225 37.4743 92.1213 36.8895 91.7322 36.4347C91.5566 36.227 91.3365 36.0613 91.0879 35.9497C90.8393 35.8382 90.5687 35.7837 90.2961 35.7902C90.0239 35.786 89.754 35.8416 89.5058 35.953C89.2576 36.0644 89.0372 36.2289 88.8601 36.4347C88.471 36.8895 88.2697 37.4743 88.2969 38.071C88.2657 38.6683 88.4674 39.2545 88.8601 39.7074C89.0372 39.9132 89.2576 40.0776 89.5058 40.189C89.754 40.3004 90.0239 40.356 90.2961 40.3518Z" fill="white"/>
<path d="M20.8866 41.4342C19.4853 41.4388 18.1386 40.8938 17.1383 39.9173C16.1379 38.9407 15.5645 37.6113 15.5423 36.217C15.5645 34.8227 16.1379 33.4932 17.1383 32.5167C18.1386 31.5401 19.4853 30.9951 20.8866 30.9997C21.5544 30.9887 22.2176 31.1103 22.8375 31.3576C23.4573 31.605 24.0213 31.9729 24.4965 32.4399L23.4771 33.443C22.7822 32.7771 21.8514 32.4106 20.8866 32.4231C20.3871 32.4216 19.8923 32.5189 19.4309 32.7095C18.9696 32.9 18.5509 33.1799 18.1993 33.533C17.8476 33.886 17.5701 34.3051 17.3827 34.7659C17.1953 35.2267 17.1019 35.7199 17.1079 36.217C17.1019 36.714 17.1953 37.2073 17.3827 37.668C17.5701 38.1288 17.8476 38.5479 18.1993 38.901C18.5509 39.254 18.9696 39.5339 19.4309 39.7245C19.8923 39.915 20.3871 40.0124 20.8866 40.0108C21.3787 40.0309 21.8696 39.948 22.3274 39.7675C22.7853 39.587 23.2 39.3129 23.5447 38.9629C24.0042 38.4697 24.2805 37.835 24.3275 37.164H20.8866V35.7462H25.7298C25.7826 36.0403 25.8071 36.3386 25.803 36.6373C25.8411 37.8671 25.3921 39.0625 24.5528 39.966C24.0804 40.4543 23.5095 40.8376 22.8777 41.0906C22.2458 41.3437 21.5672 41.4608 20.8866 41.4342Z" fill="#4285F4"/>
<path d="M33.2921 38.0717C33.3106 38.52 33.2378 38.9673 33.0782 39.3869C32.9186 39.8065 32.6753 40.1896 32.3632 40.5133C32.051 40.8369 31.6763 41.0945 31.2615 41.2704C30.8468 41.4463 30.4006 41.537 29.9498 41.537C29.4989 41.537 29.0527 41.4463 28.638 41.2704C28.2233 41.0945 27.8486 40.8369 27.5364 40.5133C27.2242 40.1896 26.981 39.8065 26.8214 39.3869C26.6617 38.9673 26.589 38.52 26.6075 38.0717C26.589 37.6235 26.6617 37.1761 26.8214 36.7566C26.981 36.337 27.2242 35.9539 27.5364 35.6302C27.8486 35.3065 28.2233 35.049 28.638 34.8731C29.0527 34.6971 29.4989 34.6064 29.9498 34.6064C30.4006 34.6064 30.8468 34.6971 31.2615 34.8731C31.6763 35.049 32.051 35.3065 32.3632 35.6302C32.6753 35.9539 32.9186 36.337 33.0782 36.7566C33.2378 37.1761 33.3106 37.6235 33.2921 38.0717ZM31.8279 38.0717C31.8527 37.8114 31.8226 37.5488 31.7396 37.3007C31.6565 37.0526 31.5222 36.8246 31.3454 36.6311C31.1686 36.4377 30.9531 36.2831 30.7128 36.1773C30.4724 36.0716 30.2126 36.017 29.9498 36.017C29.687 36.017 29.4271 36.0716 29.1868 36.1773C28.9464 36.2831 28.731 36.4377 28.5541 36.6311C28.3773 36.8246 28.2431 37.0526 28.16 37.3007C28.0769 37.5488 28.0468 37.8114 28.0717 38.0717C28.0468 38.3321 28.0769 38.5947 28.16 38.8428C28.2431 39.0908 28.3773 39.3189 28.5541 39.5123C28.731 39.7058 28.9464 39.8604 29.1868 39.9661C29.4271 40.0719 29.687 40.1265 29.9498 40.1265C30.2126 40.1265 30.4724 40.0719 30.7128 39.9661C30.9531 39.8604 31.1686 39.7058 31.3454 39.5123C31.5222 39.3189 31.6565 39.0908 31.7396 38.8428C31.8226 38.5947 31.8527 38.3321 31.8279 38.0717Z" fill="#EA4335"/>
<path d="M40.7884 38.0717C40.8069 38.52 40.7342 38.9673 40.5745 39.3869C40.4149 39.8065 40.1717 40.1896 39.8595 40.5133C39.5473 40.8369 39.1726 41.0945 38.7579 41.2704C38.3431 41.4463 37.897 41.537 37.4461 41.537C36.9953 41.537 36.5491 41.4463 36.1344 41.2704C35.7196 41.0945 35.3449 40.8369 35.0327 40.5133C34.7205 40.1896 34.4773 39.8065 34.3177 39.3869C34.1581 38.9673 34.0853 38.52 34.1038 38.0717C34.0853 37.6235 34.1581 37.1761 34.3177 36.7566C34.4773 36.337 34.7205 35.9539 35.0327 35.6302C35.3449 35.3065 35.7196 35.049 36.1344 34.8731C36.5491 34.6971 36.9953 34.6064 37.4461 34.6064C37.897 34.6064 38.3431 34.6971 38.7579 34.8731C39.1726 35.049 39.5473 35.3065 39.8595 35.6302C40.1717 35.9539 40.4149 36.337 40.5745 36.7566C40.7342 37.1761 40.8069 37.6235 40.7884 38.0717ZM39.3242 38.0717C39.3443 37.8138 39.3106 37.5544 39.2251 37.3101C39.1397 37.0657 39.0045 36.8415 38.8278 36.6516C38.6512 36.4617 38.4371 36.3102 38.1988 36.2066C37.9605 36.103 37.7033 36.0495 37.4433 36.0495C37.1833 36.0495 36.9261 36.103 36.6878 36.2066C36.4495 36.3102 36.2354 36.4617 36.0588 36.6516C35.8821 36.8415 35.7469 37.0657 35.6614 37.3101C35.576 37.5544 35.5423 37.8138 35.5624 38.0717C35.5423 38.3297 35.576 38.589 35.6614 38.8334C35.7469 39.0778 35.8821 39.302 36.0588 39.4919C36.2354 39.6818 36.4495 39.8333 36.6878 39.9369C36.9261 40.0405 37.1833 40.094 37.4433 40.094C37.7033 40.094 37.9605 40.0405 38.1988 39.9369C38.4371 39.8333 38.6512 39.6818 38.8278 39.4919C39.0045 39.302 39.1397 39.0778 39.2251 38.8334C39.3106 38.589 39.3443 38.3297 39.3242 38.0717Z" fill="#FBBC04"/>
<path d="M48.0932 34.9223V40.9522C48.0932 43.4291 46.6121 44.449 44.8663 44.449C44.2238 44.4525 43.5948 44.2658 43.0593 43.9125C42.5238 43.5593 42.106 43.0555 41.8591 42.4652L43.16 41.9048C43.291 42.2484 43.5215 42.5457 43.8221 42.7591C44.1228 42.9725 44.4803 43.0926 44.8494 43.1041C45.9757 43.1041 46.6628 42.4148 46.6628 41.1315V40.6496H46.629C46.4037 40.9025 46.1259 41.1037 45.8147 41.2392C45.5035 41.3746 45.1665 41.4411 44.8269 41.4341C43.9307 41.4341 43.0713 41.0799 42.4376 40.4493C41.804 39.8187 41.448 38.9635 41.448 38.0717C41.448 37.18 41.804 36.3248 42.4376 35.6942C43.0713 35.0636 43.9307 34.7094 44.8269 34.7094C45.1653 34.7032 45.5011 34.7689 45.8119 34.9023C46.1227 35.0357 46.4013 35.2336 46.629 35.4827H46.6797V34.9223H48.0932ZM46.781 38.0942C46.8017 37.8401 46.7708 37.5845 46.6901 37.3425C46.6095 37.1006 46.4807 36.8773 46.3115 36.6859C46.1423 36.4945 45.9361 36.339 45.7053 36.2286C45.4744 36.1181 45.2235 36.0551 44.9677 36.0431C44.7078 36.0524 44.4523 36.1131 44.2162 36.2217C43.9802 36.3302 43.7681 36.4844 43.5926 36.6753C43.417 36.8662 43.2813 37.09 43.1935 37.3336C43.1057 37.5772 43.0675 37.8357 43.0811 38.0942C43.069 38.3508 43.1085 38.6073 43.1972 38.8487C43.2859 39.09 43.4221 39.3113 43.5977 39.4997C43.7734 39.688 43.985 39.8397 44.2202 39.9457C44.4554 40.0517 44.7095 40.11 44.9677 40.1172C45.2225 40.1082 45.4729 40.0478 45.7037 39.9398C45.9344 39.8318 46.1408 39.6784 46.3103 39.4887C46.4798 39.2991 46.6089 39.0773 46.6898 38.8366C46.7707 38.596 46.8017 38.3415 46.781 38.0886V38.0942Z" fill="#4285F4"/>
<path d="M50.7001 31.3584V41.2325H49.2134V31.3584H50.7001Z" fill="#34A853"/>
<path d="M56.5575 39.181L57.7176 39.9656C57.4079 40.4256 56.9888 40.8023 56.4976 41.0623C56.0064 41.3224 55.4582 41.4577 54.9018 41.4562C54.4592 41.4625 54.0199 41.3794 53.6106 41.2119C53.2012 41.0443 52.8302 40.7959 52.5201 40.4816C52.21 40.1672 51.9673 39.7935 51.8065 39.3831C51.6457 38.9727 51.5703 38.5341 51.5849 38.0939C51.5189 37.337 51.7352 36.5825 52.1924 35.9741C52.6496 35.3658 53.3158 34.9461 54.064 34.7951C54.8122 34.6441 55.5901 34.7724 56.2494 35.1555C56.9086 35.5385 57.4032 36.1496 57.6387 36.8722L57.7908 37.2589L53.2856 39.1138C53.426 39.4278 53.6576 39.6928 53.9507 39.8745C54.2438 40.0563 54.5849 40.1466 54.93 40.1337C55.2604 40.1263 55.5834 40.0348 55.8683 39.8681C56.1531 39.7013 56.3904 39.4648 56.5575 39.181ZM53.004 37.9706L56.0338 36.7265C55.9125 36.5033 55.7288 36.32 55.5049 36.1986C55.281 36.0773 55.0265 36.0232 54.7723 36.0428C54.5289 36.0536 54.29 36.1121 54.0694 36.2149C53.8487 36.3176 53.6506 36.4627 53.4863 36.6418C53.3221 36.8208 53.1949 37.0304 53.1122 37.2584C53.0294 37.4864 52.9927 37.7284 53.004 37.9706Z" fill="#EA4335"/>
</g>
<defs>
<clipPath id="clip0_6_12656">
<rect width="77.9122" height="13.4483" fill="white" transform="translate(15.543 30.999)"/>
</clipPath>
</defs>
</svg>
