<svg width="14" height="15" viewBox="0 0 14 15" fill="none" xmlns="http://www.w3.org/2000/svg">
<path d="M13.3176 6.22434C13.2762 4.07099 12.976 2.48288 12.9801 2.48128C12.8552 2.2378 12.6363 2.03419 12.3682 1.93019C10.6092 1.24851 8.87954 0.597802 7.19296 0.0426116C7.02061 -0.0142039 6.83884 -0.0142039 6.6667 0.0426116C4.98061 0.596329 3.2512 1.24589 1.49225 1.92673C1.25561 2.01839 1.05721 2.1881 0.927871 2.39433C0.937818 2.39548 0.566432 3.55419 0.503065 6.11328C0.465581 8.6727 0.784518 9.43928 0.77393 9.44035C0.946592 10.0029 1.26972 10.575 1.73264 11.1568C2.25011 11.8066 2.94935 12.4778 3.794 13.1376C5.19215 14.2342 6.50078 14.8896 6.55546 14.9127C6.6742 14.9707 6.79995 15.0003 6.92958 15C7.05941 15 7.18527 14.9704 7.30369 14.9121C7.35877 14.889 8.66877 14.2316 10.0662 13.1352C10.9112 12.4749 11.6104 11.8037 12.1281 11.1541C12.6242 10.5309 12.9596 9.91957 13.1217 9.31898C13.1152 9.31814 13.3497 8.37823 13.3173 6.22467L13.3176 6.22434ZM7.62581 7.90389V9.26831C7.62581 9.65274 7.3142 9.96413 6.9295 9.96442C6.54479 9.96442 6.23289 9.65303 6.23289 9.2686V7.92323C5.73091 7.67389 5.3856 7.15648 5.3856 6.55862C5.3856 5.71717 6.06809 5.03486 6.91014 5.03486C7.7522 5.03486 8.43468 5.71685 8.435 6.5583C8.435 7.14132 8.10726 7.64784 7.62581 7.90386V7.90389Z" fill="#016BE3"/>
</svg>
