<svg width="40" height="40" viewBox="0 0 40 40" fill="none" xmlns="http://www.w3.org/2000/svg">
<path d="M20 40C8.95563 40 0 31.0459 0 19.9991C0 8.95414 8.95563 0 20 0C31.0462 0 40 8.95414 40 19.9991C40 31.0459 31.0462 40 20 40Z" fill="#016BE3"/>
<path d="M15.3557 16.0828C14.6258 15.3362 13.4435 15.3362 12.7185 16.0828C11.9886 16.8294 11.9886 18.0389 12.7185 18.7805C13.4483 19.5271 14.6307 19.5271 15.3557 18.7805C16.0856 18.0389 16.0856 16.8294 15.3557 16.0828ZM14.6988 19.6914C14.1247 19.8656 13.5019 19.8059 12.9764 19.5222C12.519 19.8308 12.086 20.433 11.7356 21.3837C11.3902 22.3145 11.1323 23.5638 11.0058 25.1715C10.923 26.2466 11.7405 27.1525 12.7963 27.1525H15.2584C15.38 27.1525 15.4773 27.252 15.4773 27.3765V31H17.1609V27.5855C17.1609 26.5751 16.3532 25.7489 15.3654 25.7489H15.2584C15.1367 25.7489 15.0394 25.6493 15.0394 25.5249V23.6683C15.0394 23.5439 15.1367 23.4443 15.2584 23.4443H18.6838V22.1303H16.1683C16.0758 22.1303 15.9834 22.0656 15.959 21.9661C15.7206 21.11 15.3119 20.219 14.6988 19.6914ZM24.9022 9H19.6862C19.4623 9 19.2774 9.18914 19.2774 9.4181V12.6285C19.2774 12.8575 19.4623 13.0466 19.6862 13.0466H22.9218C22.99 13.0466 23.0532 13.0814 23.0921 13.1312L24.0361 14.3258V13.2706C24.0361 13.1462 24.1334 13.0466 24.255 13.0466H24.8973C25.1211 13.0466 25.306 12.8575 25.306 12.6285V9.4181C25.3109 9.18914 25.126 9 24.9022 9ZM20.3333 10.752C20.0462 10.752 20.0462 10.3041 20.3333 10.3041H22.7759C23.063 10.3041 23.063 10.752 22.7759 10.752H20.3333ZM20.3333 11.9367C20.0462 11.9367 20.0462 11.4887 20.3333 11.4887H24.2696C24.5567 11.4887 24.5567 11.9367 24.2696 11.9367H20.3333ZM15.7936 14.4303C15.7936 14.1367 16.2315 14.1367 16.2315 14.4303V14.6643C16.2315 14.9579 15.7936 14.9579 15.7936 14.6643V14.4303ZM14.655 11.1751C14.655 11.4688 14.2171 11.4688 14.2171 11.1751C14.2171 10.1597 15.02 9.33846 16.0126 9.33846C17.3604 9.33846 18.2216 10.8068 17.6036 12.0163C17.4333 12.3498 17.2144 12.5638 16.9079 12.7629C16.6743 12.9122 16.3045 13.1511 16.2413 13.5941C16.1975 13.8878 15.7644 13.8231 15.8082 13.5294C15.9104 12.8027 16.4651 12.5439 16.7911 12.31C17.4771 11.8172 17.5647 10.8068 16.9711 10.1946C16.1147 9.32353 14.655 9.94072 14.655 11.1751ZM12.7866 27.6054H11.1031V31H15.0346V27.6054H12.7866ZM27.0236 19.5271C26.4981 19.8059 25.8753 19.8706 25.3012 19.6964C25.0482 19.9154 24.8292 20.1991 24.6443 20.5027C23.5593 22.3294 22.4693 22.9516 21.0291 24.1163L21.9001 25.2412L24.6054 22.9217C24.7465 22.7973 24.9654 22.9068 24.9654 23.0959V25.5348C24.9654 25.6593 24.8681 25.7588 24.7465 25.7588H24.6394C23.6517 25.7588 22.844 26.5851 22.844 27.5955V31H24.5275V27.3814C24.5275 27.257 24.6248 27.1575 24.7465 27.1575H27.2085C28.2595 27.1575 29.077 26.2516 28.9942 25.1765C28.8726 23.5638 28.6098 22.3145 28.2644 21.3887C27.9092 20.438 27.481 19.8357 27.0236 19.5271ZM25.958 15.5253C24.9265 15.5253 24.0896 16.3814 24.0896 17.4367C24.0896 18.4919 24.9265 19.348 25.958 19.348C26.9896 19.348 27.8265 18.4919 27.8265 17.4367C27.8265 16.3814 26.9896 15.5253 25.958 15.5253ZM28.8921 27.6054C27.5832 27.6054 26.2743 27.6054 24.9654 27.6054V31H28.8921V27.6054Z" fill="#F8F8F8"/>
</svg>
