<svg width="19" height="19" viewBox="0 0 19 19" fill="none" xmlns="http://www.w3.org/2000/svg">
<g clip-path="url(#clip0_259_1448)">
<path d="M12.2195 0.962524C13.3063 0.962524 14.1463 1.41725 14.5613 2.25842L14.6257 2.40002C14.8865 3.02645 14.9109 3.80718 14.7097 4.6803L14.6003 5.08948C14.3966 5.76765 14.0713 6.47496 13.6443 7.17932H15.5535C16.3728 7.17944 17.2128 7.58105 17.7498 8.22815L17.9167 8.45178C18.2495 8.94798 18.3897 9.51825 18.3152 10.0914L18.2937 10.2233L17.3503 15.2496C17.228 15.9012 16.991 16.4818 16.657 16.942L16.5085 17.1315C16.0063 17.7222 15.3487 18.0376 14.6101 18.0377H8.20874C7.53517 18.0376 6.92012 17.7778 6.44214 17.3522C6.10895 17.7682 5.59906 18.0377 5.02515 18.0377H2.48315C1.48072 18.0375 0.665771 17.2218 0.665771 16.2194V8.66272C0.665771 7.66028 1.48072 6.84455 2.48315 6.84436H5.02515C5.79667 6.84436 6.45683 7.32748 6.72046 8.00647C8.70311 6.12214 10.7778 3.3341 11.5789 1.39124L11.6257 1.29846C11.7498 1.09217 11.9738 0.962656 12.2195 0.962524ZM2.48315 8.23206C2.24597 8.23225 2.05249 8.4255 2.05249 8.66272V16.2194C2.05249 16.4566 2.24597 16.6498 2.48315 16.65H5.02515C5.26248 16.65 5.45581 16.4567 5.45581 16.2194V8.66272C5.45581 8.42538 5.26249 8.23206 5.02515 8.23206H2.48315ZM12.6492 2.39417C11.5252 4.77225 9.05948 7.90691 6.84351 9.75842V15.1207C6.84351 15.974 7.46577 16.6499 8.20874 16.65H14.6101C14.9927 16.6499 15.2949 16.4491 15.5251 16.1373C15.7568 15.8235 15.91 15.4035 15.9871 14.9928L16.9304 9.96741L16.946 9.83264C16.9557 9.61337 16.8868 9.42481 16.7966 9.27502L16.6814 9.11389C16.4049 8.78085 15.9596 8.56616 15.5535 8.56604H12.3308C12.0997 8.56604 11.8856 8.45168 11.7576 8.26428L11.7087 8.17932C11.592 7.94262 11.6195 7.66033 11.78 7.45081L12.0652 7.06311C12.6958 6.16842 13.0862 5.34275 13.2869 4.64612C13.4886 3.94562 13.4954 3.38666 13.3757 3.01819L13.3171 2.87268C13.2887 2.81506 13.2398 2.71634 13.1326 2.61975C13.0354 2.53228 12.8849 2.44504 12.6492 2.39417Z" fill="#016BE3" stroke="#016BE3" stroke-width="0.2"/>
</g>
<defs>
<clipPath id="clip0_259_1448">
<rect width="19" height="19" fill="white"/>
</clipPath>
</defs>
</svg>
