<svg width="19" height="19" viewBox="0 0 19 19" fill="none" xmlns="http://www.w3.org/2000/svg">
<g clip-path="url(#clip0_259_1456)">
<path d="M6.78052 18.0375C5.69365 18.0375 4.85375 17.5827 4.43872 16.7416L4.37427 16.6C4.11348 15.9736 4.08908 15.1928 4.29028 14.3197L4.39966 13.9105C4.60336 13.2323 4.92874 12.525 5.35571 11.8207H3.44653C2.62724 11.8206 1.78718 11.419 1.25024 10.7719L1.08325 10.5482C0.750516 10.052 0.610327 9.48175 0.684814 8.90857L0.706299 8.77673L1.64966 3.75037C1.77203 3.0988 2.009 2.51822 2.34302 2.05798L2.49146 1.86853C2.99369 1.27775 3.65126 0.962396 4.38989 0.96228H10.7913C11.4648 0.962357 12.0799 1.22218 12.5579 1.64783C12.891 1.23177 13.4009 0.96228 13.9749 0.96228H16.5168C17.5193 0.962472 18.3342 1.77816 18.3342 2.78064V10.3373C18.3342 11.3397 17.5193 12.1554 16.5168 12.1556H13.9749C13.2033 12.1556 12.5432 11.6725 12.2795 10.9935C10.2969 12.8779 8.22216 15.6659 7.42114 17.6088L7.37427 17.7015C7.25024 17.9078 7.02618 18.0373 6.78052 18.0375ZM16.5168 10.7679C16.754 10.7678 16.9475 10.5745 16.9475 10.3373V2.78064C16.9475 2.54342 16.754 2.35017 16.5168 2.34998H13.9749C13.7375 2.34998 13.5442 2.54329 13.5442 2.78064V10.3373C13.5442 10.5746 13.7375 10.7679 13.9749 10.7679H16.5168ZM6.35083 16.6058C7.47485 14.2278 9.94052 11.0931 12.1565 9.24158V3.87927C12.1565 3.02603 11.5342 2.35013 10.7913 2.34998H4.38989C4.00729 2.35013 3.70512 2.55091 3.47485 2.86267C3.24325 3.17648 3.09004 3.59647 3.01294 4.0072L2.06958 9.03259L2.05396 9.16736C2.04431 9.38663 2.11323 9.57519 2.20337 9.72498L2.3186 9.88611C2.59513 10.2191 3.04042 10.4338 3.44653 10.434H6.66919C6.90035 10.434 7.11438 10.5483 7.24243 10.7357L7.29126 10.8207C7.40803 11.0574 7.38049 11.3397 7.21997 11.5492L6.93481 11.9369C6.30424 12.8316 5.91381 13.6572 5.71313 14.3539C5.51138 15.0544 5.50459 15.6133 5.62427 15.9818L5.68286 16.1273C5.7113 16.1849 5.76024 16.2837 5.86743 16.3802C5.9646 16.4677 6.11511 16.555 6.35083 16.6058Z" fill="#FF4C64" stroke="#FF4C64" stroke-width="0.2"/>
</g>
<defs>
<clipPath id="clip0_259_1456">
<rect width="19" height="19" fill="white" transform="matrix(-1 0 0 -1 19 19)"/>
</clipPath>
</defs>
</svg>
