<svg width="188" height="26" viewBox="0 0 188 26" fill="none" xmlns="http://www.w3.org/2000/svg">
<g clip-path="url(#clip0_913_6394)">
<path d="M108.564 22.9748C107.405 22.9748 106.418 22.8462 105.602 22.589C104.786 22.3532 104.002 22.0638 103.251 21.7209V18.0555C103.745 18.3771 104.26 18.6878 104.797 18.9879C105.355 19.2666 105.945 19.4916 106.568 19.6631C107.212 19.8347 107.899 19.9203 108.629 19.9203C109.488 19.9203 110.121 19.7596 110.529 19.4381C110.958 19.0951 111.173 18.6878 111.173 18.2163C111.173 17.7662 111.012 17.4232 110.69 17.1874C110.368 16.9302 109.949 16.7158 109.434 16.5444C108.919 16.3729 108.371 16.2015 107.791 16.0299C107.255 15.9014 106.707 15.7299 106.149 15.5155C105.612 15.3012 105.119 15.0118 104.668 14.6474C104.217 14.283 103.852 13.8221 103.573 13.2649C103.316 12.6861 103.186 11.9895 103.186 11.175C103.186 10.2104 103.379 9.39586 103.766 8.73137C104.153 8.06688 104.658 7.53106 105.28 7.12379C105.902 6.71653 106.589 6.42716 107.341 6.25568C108.092 6.06277 108.822 5.96631 109.531 5.96631C110.755 6.00918 111.742 6.15923 112.493 6.41644C113.244 6.65222 113.953 6.96303 114.619 7.34885L114.651 10.6605C113.9 10.2532 113.169 9.88884 112.461 9.56737C111.752 9.22443 110.948 9.05292 110.046 9.05292C109.208 9.05292 108.554 9.20297 108.081 9.50307C107.631 9.78171 107.405 10.1782 107.405 10.6927C107.405 11.1428 107.545 11.5072 107.824 11.7858C108.103 12.0645 108.468 12.2789 108.919 12.4289C109.37 12.5789 109.863 12.729 110.4 12.879C110.937 13.0291 111.495 13.2006 112.075 13.3934C112.654 13.565 113.191 13.8221 113.685 14.1651C114.178 14.5081 114.576 14.9689 114.876 15.5477C115.199 16.105 115.36 16.8552 115.36 17.7983C115.338 19.0415 115.005 20.049 114.361 20.8206C113.717 21.5709 112.869 22.1174 111.817 22.4603C110.786 22.8034 109.702 22.9748 108.564 22.9748Z" fill="#05164D"/>
<path d="M124.139 23.0062C122.464 23.0062 121.187 22.5989 120.307 21.7844C119.427 20.9484 118.986 19.7481 118.986 18.1833V9.50226H116.475V6.28702H118.986V1.81787H123.205V6.28702H126.973V9.50226H123.205V17.5403C123.205 18.2048 123.334 18.6978 123.592 19.0193C123.85 19.3408 124.301 19.5016 124.945 19.5016C125.288 19.5016 125.642 19.448 126.007 19.3408C126.394 19.2122 126.715 19.0621 126.973 18.8906V22.4274C126.544 22.6418 126.072 22.7918 125.556 22.8776C125.062 22.9633 124.59 23.0062 124.139 23.0062Z" fill="#05164D"/>
<path d="M135.682 22.9746C134.781 22.9746 133.922 22.8888 133.107 22.7174C132.291 22.5459 131.56 22.2672 130.916 21.8814C130.273 21.4742 129.757 20.9275 129.371 20.2417C129.006 19.5343 128.823 18.6555 128.823 17.6052C128.823 16.512 129.049 15.5903 129.499 14.8401C129.95 14.0684 130.605 13.4897 131.464 13.1039C132.344 12.6966 133.418 12.493 134.684 12.493C135.457 12.493 136.177 12.568 136.841 12.718C137.507 12.8467 138.108 13.0288 138.645 13.2646C139.182 13.5004 139.622 13.7576 139.966 14.0363L140.256 16.3191C139.805 16.019 139.225 15.7832 138.516 15.6118C137.829 15.4188 137.078 15.3224 136.262 15.3224C135.125 15.3224 134.276 15.5046 133.718 15.869C133.16 16.2333 132.88 16.8014 132.88 17.5731C132.88 18.1089 133.031 18.559 133.332 18.9234C133.633 19.2663 134.019 19.5343 134.491 19.7272C134.963 19.8987 135.457 19.9844 135.972 19.9844C137.153 19.9844 138.001 19.9094 138.516 19.7594C139.053 19.5879 139.322 19.2342 139.322 18.6983V12.3001C139.322 11.2498 138.989 10.4888 138.323 10.0173C137.657 9.52423 136.724 9.27778 135.521 9.27778C134.598 9.27778 133.654 9.43855 132.687 9.76003C131.721 10.0601 130.938 10.4567 130.336 10.9497V7.25217C130.916 6.88778 131.786 6.56626 132.945 6.28761C134.104 6.00896 135.35 5.86963 136.681 5.86963C137.239 5.86963 137.829 5.92322 138.452 6.03039C139.074 6.13756 139.665 6.30905 140.223 6.54482C140.802 6.78061 141.328 7.11285 141.801 7.54157C142.274 7.9488 142.649 8.47397 142.928 9.117C143.208 9.73857 143.347 10.4995 143.347 11.3998V19.0842C143.347 20.0916 143.025 20.8847 142.381 21.4634C141.736 22.0207 140.846 22.4066 139.708 22.6209C138.57 22.8567 137.228 22.9746 135.682 22.9746Z" fill="#05164D"/>
<path d="M152.957 23.0062C151.282 23.0062 150.005 22.5989 149.124 21.7844C148.244 20.9484 147.804 19.7481 147.804 18.1833V9.50226H145.292V6.28702H147.804V1.81787H152.023V6.28702H155.79V9.50226H152.023V17.5403C152.023 18.2048 152.151 18.6978 152.409 19.0193C152.667 19.3408 153.117 19.5016 153.761 19.5016C154.105 19.5016 154.459 19.448 154.825 19.3408C155.211 19.2122 155.533 19.0621 155.79 18.8906V22.4274C155.361 22.6418 154.888 22.7918 154.374 22.8776C153.879 22.9633 153.407 23.0062 152.957 23.0062Z" fill="#05164D"/>
<path d="M165.851 22.9746C164.349 22.9746 163.039 22.7388 161.923 22.2672C160.828 21.7742 159.969 21.0455 159.346 20.0809C158.745 19.1163 158.445 17.8838 158.445 16.3834V6.2876H162.534V15.9654C162.534 17.1657 162.802 18.0553 163.34 18.634C163.876 19.2128 164.714 19.5021 165.851 19.5021C167.032 19.5021 167.88 19.2128 168.395 18.634C168.932 18.0553 169.201 17.1657 169.201 15.9654V6.2876H173.065V16.3834C173.065 18.6126 172.421 20.2738 171.132 21.3669C169.866 22.4387 168.105 22.9746 165.851 22.9746Z" fill="#05164D"/>
<path d="M181.204 22.9748C180.045 22.9748 179.058 22.8462 178.242 22.589C177.426 22.3532 176.642 22.0638 175.891 21.7209V18.0555C176.385 18.3771 176.9 18.6878 177.437 18.9879C177.995 19.2666 178.585 19.4916 179.208 19.6631C179.852 19.8347 180.539 19.9203 181.269 19.9203C182.128 19.9203 182.761 19.7596 183.169 19.4381C183.598 19.0951 183.813 18.6878 183.813 18.2163C183.813 17.7662 183.652 17.4232 183.33 17.1874C183.008 16.9302 182.589 16.7158 182.074 16.5444C181.559 16.3729 181.011 16.2015 180.431 16.0299C179.895 15.9014 179.347 15.7299 178.79 15.5155C178.252 15.3012 177.759 15.0118 177.308 14.6474C176.857 14.283 176.492 13.8221 176.213 13.2649C175.956 12.6861 175.826 11.9895 175.826 11.175C175.826 10.2104 176.02 9.39586 176.406 8.73137C176.793 8.06688 177.298 7.53106 177.92 7.12379C178.542 6.71653 179.229 6.42716 179.981 6.25568C180.733 6.06277 181.462 5.96631 182.171 5.96631C183.395 6.00918 184.382 6.15923 185.133 6.41644C185.885 6.65222 186.593 6.96303 187.259 7.34885L187.291 10.6605C186.54 10.2532 185.809 9.88884 185.101 9.56737C184.392 9.22443 183.588 9.05292 182.686 9.05292C181.848 9.05292 181.194 9.20297 180.721 9.50307C180.271 9.78171 180.045 10.1782 180.045 10.6927C180.045 11.1428 180.185 11.5072 180.464 11.7858C180.743 12.0645 181.108 12.2789 181.559 12.4289C182.01 12.5789 182.504 12.729 183.04 12.879C183.577 13.0291 184.135 13.2006 184.715 13.3934C185.295 13.565 185.831 13.8221 186.325 14.1651C186.818 14.5081 187.216 14.9689 187.516 15.5477C187.839 16.105 188 16.8552 188 17.7983C187.978 19.0415 187.645 20.049 187.001 20.8206C186.357 21.5709 185.509 22.1174 184.457 22.4603C183.427 22.8034 182.343 22.9748 181.204 22.9748Z" fill="#05164D"/>
<path d="M36.6366 22.4923L31.2264 6.2876H35.606L39.4704 19.7593L38.2145 19.888L41.9179 6.2876H45.0738L48.7128 19.5022H47.7145L51.5145 6.2876H55.7653L50.3552 22.4923H46.6196L43.0772 10.9175L43.7857 11.1104L40.4044 22.4923H36.6366Z" fill="#624DE3"/>
<path d="M63.9479 22.9755C61.2858 22.9755 59.2892 22.236 57.9581 20.757C56.6271 19.278 55.9615 17.1452 55.9615 14.3587C55.9615 11.3793 56.6378 9.21433 57.9904 7.86396C59.3643 6.51357 61.3394 5.83838 63.9158 5.83838C65.7191 5.83838 67.2219 6.1599 68.4242 6.80294C69.6264 7.42456 70.5174 8.36768 71.0971 9.63236C71.6982 10.897 71.9988 12.4725 71.9988 14.3587C71.9988 17.1452 71.301 19.278 69.9055 20.757C68.5315 22.236 66.5457 22.9755 63.9479 22.9755ZM63.9479 19.6317C64.8926 19.6317 65.6547 19.4173 66.2344 18.9886C66.8355 18.5599 67.2756 17.9597 67.5547 17.1881C67.8338 16.395 67.9733 15.4519 67.9733 14.3587C67.9733 13.1369 67.8231 12.1402 67.5225 11.3686C67.2434 10.5969 66.8033 10.0289 66.2021 9.66447C65.6225 9.30008 64.8711 9.11792 63.9479 9.11792C63.0033 9.11792 62.2412 9.31081 61.6615 9.69666C61.0819 10.0825 60.6525 10.6612 60.3734 11.4329C60.1157 12.2045 59.987 13.1798 59.987 14.3587C59.987 16.0735 60.2982 17.381 60.9208 18.2813C61.5434 19.1815 62.5525 19.6317 63.9479 19.6317Z" fill="#624DE3"/>
<path d="M74.51 22.4923V7.86306C74.8106 7.67017 75.3369 7.41293 76.0883 7.09141C76.8606 6.76989 77.7517 6.49123 78.7608 6.25546C79.7698 5.99824 80.7894 5.86963 81.8202 5.86963C82.5933 5.86963 83.2049 5.93393 83.6557 6.06254C84.1283 6.16971 84.4927 6.30904 84.7504 6.48052V9.56716C84.3214 9.50279 83.8277 9.44922 83.2695 9.40638C82.7323 9.36347 82.1741 9.35282 81.5948 9.3742C81.0365 9.3742 80.4888 9.39565 79.9524 9.43849C79.437 9.48141 78.9861 9.53497 78.6 9.59927V22.4923H74.51Z" fill="#624DE3"/>
<path d="M89.8738 13.3295L96.1535 6.28811H101.145L91.967 15.4836L89.8738 13.3295ZM90.7431 22.4928H86.6859V0.179199H90.7754L90.7431 22.4928ZM92.804 11.7539L101.757 22.4928H96.572L89.9061 14.4869L92.804 11.7539Z" fill="#624DE3"/>
<path fill-rule="evenodd" clip-rule="evenodd" d="M3.09559 12.0966C2.83556 14.2635 3.33949 16.4532 4.52078 18.2894C5.70208 20.1256 7.48697 21.4937 9.56874 22.1585C11.6506 22.8235 13.8994 22.7437 15.9286 21.9328C17.9578 21.1219 19.6409 19.6308 20.6886 17.7154C21.7364 15.8001 22.0832 13.5802 21.6697 11.4371C21.2563 9.29415 20.1081 7.36187 18.4228 5.9723C17.1088 4.88896 15.5322 4.18822 13.8655 3.93198V5.66003C13.8655 6.44929 13.2247 7.08912 12.4342 7.08912C11.6437 7.08912 11.003 6.44929 11.003 5.66003V2.59769C11.003 1.70262 11.7345 0.949075 12.6657 0.966609C15.4343 1.01875 18.1066 2.00495 20.2454 3.76835C22.4437 5.58085 23.9412 8.10127 24.4805 10.8964C25.0199 13.6917 24.5674 16.5872 23.2009 19.0855C21.8343 21.5837 19.6389 23.5288 16.9921 24.5864C14.3452 25.644 11.4121 25.7482 8.69667 24.8809C5.98129 24.0137 3.65317 22.2292 2.11236 19.8341C0.571538 17.4391 -0.0857586 14.583 0.253405 11.7565C0.592569 8.93013 1.90702 6.30993 3.97089 4.34612C4.54313 3.80162 5.44909 3.82341 5.9944 4.39479C6.53972 4.96616 6.5179 5.87075 5.94566 6.41525C4.36336 7.92083 3.35562 9.92968 3.09559 12.0966Z" fill="#05164D"/>
<path fill-rule="evenodd" clip-rule="evenodd" d="M7.33303 7.91564C7.89194 7.35755 8.7982 7.35755 9.35711 7.91564L13.8553 12.4071C14.4143 12.9651 14.4143 13.87 13.8553 14.4281C13.2964 14.9862 12.3902 14.9862 11.8313 14.4281L7.33303 9.93672C6.77408 9.37862 6.77408 8.47375 7.33303 7.91564Z" fill="#624DE3"/>
</g>
<defs>
<clipPath id="clip0_913_6394">
<rect width="187.833" height="25.5082" fill="white" transform="translate(0.166748)"/>
</clipPath>
</defs>
</svg>
