<svg width="21" height="11" viewBox="0 0 21 11" fill="none" xmlns="http://www.w3.org/2000/svg">
<path d="M20.2575 5.67319V1.22305C20.2575 0.898678 20.1287 0.58759 19.8995 0.358223C19.6703 0.128856 19.3594 0 19.0353 0H14.593C14.2675 0 13.9554 0.129374 13.7253 0.359662C13.4951 0.58995 13.3658 0.902287 13.3658 1.22796C13.3658 1.55364 13.4951 1.86598 13.7253 2.09626C13.9554 2.32655 14.2675 2.45593 14.593 2.45593H16.0656L11.7264 6.81274L7.88786 2.97167C7.65867 2.74251 7.34794 2.61379 7.02395 2.61379C6.69995 2.61379 6.38922 2.74251 6.16003 2.97167L0.382623 8.74801C0.26388 8.86033 0.168849 8.99534 0.10315 9.14504C0.037451 9.29475 0.00241778 9.45612 0.000120785 9.61961C-0.00217621 9.7831 0.0283096 9.9454 0.0897769 10.0969C0.151244 10.2484 0.242445 10.386 0.357985 10.5016C0.473526 10.6173 0.611061 10.7085 0.762457 10.77C0.913854 10.8315 1.07604 10.862 1.23942 10.8597C1.4028 10.8574 1.56407 10.8224 1.71368 10.7566C1.86329 10.6909 1.9982 10.5958 2.11045 10.477L7.01904 5.56513L10.8576 9.4062C11.0867 9.63535 11.3975 9.76408 11.7215 9.76408C12.0455 9.76408 12.3562 9.63535 12.5854 9.4062L17.8179 4.17507V5.64863C17.8179 5.9743 17.9472 6.28664 18.1774 6.51693C18.4075 6.74722 18.7196 6.87659 19.0451 6.87659C19.3705 6.87659 19.6827 6.74722 19.9128 6.51693C20.1429 6.28664 20.2722 5.9743 20.2722 5.64863L20.2575 5.67319Z" fill="#016BE3"/>
</svg>
