<svg width="43" height="72" viewBox="0 0 43 72" fill="none" xmlns="http://www.w3.org/2000/svg">
<path d="M40.2467 61.7858V63.053H39.9852V61.7858H40.2467ZM40.6387 61.7858V61.9904H39.5996V61.7858H40.6387ZM40.9082 61.7858H41.1304L41.4574 62.7162L41.7846 61.7858H42.0067L41.5467 63.053H41.3683L40.9082 61.7858ZM40.7883 61.7858H41.0095L41.0498 62.6927V63.053H40.7883V61.7858ZM41.9053 61.7858H42.1276V63.053H41.865V62.6927L41.9053 61.7858Z" fill="white"/>
<path d="M42.3191 0.8125H0.888672V41.8518H42.3191V0.8125Z" fill="#DD0401"/>
<path d="M9.29289 8.70774C9.14909 8.44538 8.95135 8.24561 8.69968 8.10847C8.44803 7.97133 8.15441 7.90276 7.81887 7.90276C7.44737 7.90276 7.1178 7.98622 6.83019 8.15319C6.54258 8.32015 6.31788 8.55865 6.15608 8.86874C5.99429 9.17875 5.91342 9.53654 5.91342 9.94203C5.91342 10.3594 5.99429 10.7232 6.15608 11.0332C6.32386 11.3433 6.55455 11.5818 6.84817 11.7488C7.14177 11.9157 7.48331 11.9992 7.8728 11.9992C8.35215 11.9992 8.74463 11.874 9.05021 11.6235C9.35581 11.3671 9.55654 11.0124 9.65241 10.5592H7.49529V9.60212H10.8928V10.6934C10.8089 11.1286 10.6291 11.5311 10.3535 11.9008C10.0778 12.2705 9.72131 12.5687 9.2839 12.7952C8.85249 13.0159 8.36713 13.1261 7.82786 13.1261C7.22267 13.1261 6.67439 12.992 6.18305 12.7237C5.69769 12.4494 5.31421 12.0707 5.03259 11.5877C4.75696 11.1047 4.61914 10.5562 4.61914 9.94203C4.61914 9.32788 4.75696 8.77928 5.03259 8.29631C5.31421 7.80736 5.69769 7.42871 6.18305 7.16037C6.67439 6.88611 7.21966 6.74896 7.81887 6.74896C8.52592 6.74896 9.1401 6.92188 9.6614 7.26772C10.1827 7.6076 10.5423 8.0876 10.74 8.70774H9.29289ZM13.082 8.88662C13.2438 8.62425 13.4536 8.41853 13.7112 8.26946C13.9748 8.12039 14.2745 8.04586 14.61 8.04586V9.36062H14.2774C13.8819 9.36062 13.5823 9.45308 13.3786 9.63789C13.1808 9.82279 13.082 10.1447 13.082 10.6039V13.0725H11.8237V8.11742H13.082V8.88662ZM20.0864 10.4877C20.0864 10.6665 20.0744 10.8275 20.0504 10.9706H16.4103C16.4402 11.3283 16.566 11.6086 16.7878 11.8113C17.0095 12.0141 17.2821 12.1155 17.6056 12.1155C18.073 12.1155 18.4056 11.9157 18.6033 11.5162H19.9605C19.8167 11.9932 19.541 12.3868 19.1336 12.6969C18.7261 13.0009 18.2258 13.153 17.6326 13.153C17.1532 13.153 16.7218 13.0486 16.3383 12.84C15.9608 12.6252 15.6643 12.3241 15.4486 11.9365C15.2388 11.549 15.1339 11.1018 15.1339 10.595C15.1339 10.0822 15.2388 9.63193 15.4486 9.24442C15.6583 8.85681 15.9519 8.55865 16.3294 8.34997C16.7068 8.14126 17.1413 8.03691 17.6326 8.03691C18.106 8.03691 18.5284 8.13828 18.8999 8.34102C19.2774 8.54375 19.568 8.83294 19.7718 9.20865C19.9815 9.57827 20.0864 10.0047 20.0864 10.4877ZM18.7831 10.1299C18.7771 9.80784 18.6603 9.55149 18.4325 9.36062C18.2048 9.16389 17.9262 9.06547 17.5967 9.06547C17.285 9.06547 17.0214 9.16086 16.8057 9.35173C16.596 9.53654 16.4672 9.79592 16.4192 10.1299H18.7831ZM20.6812 10.5771C20.6812 10.0762 20.7801 9.63193 20.9779 9.24442C21.1814 8.85681 21.4542 8.55865 21.7958 8.34997C22.1433 8.14126 22.5297 8.03691 22.9551 8.03691C23.3267 8.03691 23.6502 8.11145 23.926 8.26052C24.2075 8.40958 24.4321 8.59742 24.6 8.82402V8.11742H25.8673V13.0725H24.6V12.348C24.4382 12.5806 24.2135 12.7744 23.926 12.9294C23.6443 13.0784 23.3177 13.153 22.9462 13.153C22.5268 13.153 22.1433 13.0457 21.7958 12.831C21.4542 12.6164 21.1814 12.3152 20.9779 11.9276C20.7801 11.5341 20.6812 11.0839 20.6812 10.5771ZM24.6 10.595C24.6 10.2908 24.5401 10.0315 24.4203 9.81683C24.3004 9.59616 24.1386 9.42923 23.9348 9.31596C23.7311 9.19672 23.5124 9.13701 23.2788 9.13701C23.045 9.13701 22.8294 9.1937 22.6316 9.30697C22.4339 9.42033 22.2721 9.58726 22.1463 9.80784C22.0265 10.0226 21.9665 10.2789 21.9665 10.5771C21.9665 10.8752 22.0265 11.1376 22.1463 11.3641C22.2721 11.5848 22.4339 11.7547 22.6316 11.874C22.8353 11.9932 23.051 12.0528 23.2788 12.0528C23.5124 12.0528 23.7311 11.9962 23.9348 11.8829C24.1386 11.7636 24.3004 11.5967 24.4203 11.382C24.5401 11.1614 24.6 10.899 24.6 10.595ZM28.5613 9.146V11.5431C28.5613 11.71 28.6002 11.8323 28.6781 11.9098C28.7621 11.9813 28.8999 12.0171 29.0916 12.0171H29.6759V13.0725H28.8848C27.8244 13.0725 27.294 12.5597 27.294 11.5341V9.146H26.7009V8.11742H27.294V6.89206H28.5613V8.11742H29.6759V9.146H28.5613Z" fill="white"/>
<path d="M9.49871 17.5795C9.49871 17.9135 9.41781 18.2265 9.25604 18.5186C9.10024 18.8108 8.85158 19.0464 8.51003 19.2252C8.17447 19.4042 7.74904 19.4936 7.23374 19.4936H6.18214V21.8906H4.92383V15.6476H7.23374C7.71908 15.6476 8.13253 15.731 8.47408 15.8981C8.81561 16.065 9.07027 16.2946 9.23806 16.5867C9.41182 16.8789 9.49871 17.2098 9.49871 17.5795ZM7.17981 18.4829C7.52734 18.4829 7.78501 18.4054 7.95277 18.2504C8.12055 18.0894 8.20444 17.8657 8.20444 17.5795C8.20444 16.9713 7.8629 16.6672 7.17981 16.6672H6.18214V18.4829H7.17981ZM11.6504 15.2719V21.8906H10.3921V15.2719H11.6504ZM12.5701 19.3952C12.5701 18.8943 12.6689 18.4501 12.8667 18.0625C13.0704 17.6749 13.343 17.3767 13.6846 17.1681C14.0321 16.9594 14.4186 16.855 14.8441 16.855C15.2155 16.855 15.5391 16.9296 15.8147 17.0787C16.0964 17.2277 16.3211 17.4155 16.4888 17.6421V16.9356H17.7561V21.8906H16.4888V21.1661C16.3271 21.3987 16.1023 21.5924 15.8147 21.7475C15.5331 21.8965 15.2066 21.9712 14.835 21.9712C14.4156 21.9712 14.0321 21.8638 13.6846 21.6492C13.343 21.4345 13.0704 21.1334 12.8667 20.7457C12.6689 20.3522 12.5701 19.902 12.5701 19.3952ZM16.4888 19.4131C16.4888 19.109 16.4289 18.8496 16.3091 18.6349C16.1892 18.4143 16.0275 18.2473 15.8237 18.1341C15.62 18.0148 15.4013 17.9552 15.1676 17.9552C14.934 17.9552 14.7182 18.0118 14.5204 18.1252C14.3227 18.2384 14.161 18.4054 14.0351 18.626C13.9152 18.8407 13.8554 19.0971 13.8554 19.3952C13.8554 19.6934 13.9152 19.9557 14.0351 20.1823C14.161 20.4029 14.3227 20.5729 14.5204 20.6922C14.7242 20.8114 14.9399 20.8709 15.1676 20.8709C15.4013 20.8709 15.62 20.8143 15.8237 20.701C16.0275 20.5818 16.1892 20.4148 16.3091 20.2002C16.4289 19.9795 16.4888 19.7172 16.4888 19.4131ZM18.6615 19.4131C18.6615 18.9003 18.7664 18.4531 18.9761 18.0714C19.1859 17.6839 19.4764 17.3857 19.848 17.1771C20.2194 16.9624 20.6448 16.855 21.1243 16.855C21.7414 16.855 22.2508 17.0101 22.6522 17.3202C23.0595 17.6243 23.3322 18.0535 23.4701 18.6082H22.1129C22.0411 18.3934 21.9182 18.2265 21.7444 18.1072C21.5766 17.982 21.3669 17.9194 21.1152 17.9194C20.7557 17.9194 20.4711 18.0506 20.2614 18.3129C20.0517 18.5694 19.9468 18.936 19.9468 19.4131C19.9468 19.8841 20.0517 20.2508 20.2614 20.5132C20.4711 20.7696 20.7557 20.8979 21.1152 20.8979C21.6246 20.8979 21.9571 20.6713 22.1129 20.2181H23.4701C23.3322 20.7546 23.0595 21.1811 22.6522 21.497C22.2448 21.8132 21.7355 21.9712 21.1243 21.9712C20.6448 21.9712 20.2194 21.8667 19.848 21.6581C19.4764 21.4434 19.1859 21.1453 18.9761 20.7637C18.7664 20.376 18.6615 19.9259 18.6615 19.4131ZM29.0208 19.3058C29.0208 19.4846 29.0088 19.6457 28.9847 19.7887H25.3445C25.3747 20.1465 25.5005 20.4267 25.7223 20.6295C25.9438 20.8323 26.2166 20.9336 26.5401 20.9336C27.0075 20.9336 27.34 20.7339 27.5376 20.3343H28.8948C28.7511 20.8114 28.4754 21.205 28.0681 21.515C27.6607 21.819 27.1602 21.9712 26.5671 21.9712C26.0876 21.9712 25.6563 21.8667 25.2727 21.6581C24.8952 21.4434 24.5987 21.1422 24.3829 20.7546C24.1731 20.3671 24.0684 19.9199 24.0684 19.4131C24.0684 18.9003 24.1731 18.4501 24.3829 18.0625C24.5926 17.6749 24.8863 17.3767 25.2638 17.1681C25.6412 16.9594 26.0757 16.855 26.5671 16.855C27.0404 16.855 27.4629 16.9564 27.8343 17.1592C28.2118 17.3619 28.5025 17.6511 28.7061 18.0267C28.9158 18.3965 29.0208 18.8228 29.0208 19.3058ZM27.7175 18.948C27.7115 18.626 27.5947 18.3696 27.367 18.1788C27.1392 17.982 26.8606 17.8837 26.5311 17.8837C26.2195 17.8837 25.9559 17.9791 25.74 18.1698C25.5303 18.3547 25.4016 18.6141 25.3537 18.948H27.7175Z" fill="white"/>
<path d="M9.19363 24.4687V25.4793H7.52187V30.7116H6.26356V25.4793H4.5918V24.4687H9.19363ZM12.3227 30.7923C11.8435 30.7923 11.412 30.6878 11.0286 30.4791C10.645 30.2645 10.3424 29.9634 10.1207 29.5759C9.90502 29.1883 9.79717 28.7411 9.79717 28.2342C9.79717 27.7273 9.90801 27.2802 10.1297 26.8925C10.3574 26.5051 10.666 26.2069 11.0554 25.9982C11.4449 25.7836 11.8794 25.6762 12.3588 25.6762C12.8381 25.6762 13.2725 25.7836 13.662 25.9982C14.0515 26.2069 14.3571 26.5051 14.5788 26.8925C14.8064 27.2802 14.9203 27.7273 14.9203 28.2342C14.9203 28.7411 14.8035 29.1883 14.5697 29.5759C14.3421 29.9634 14.0305 30.2645 13.635 30.4791C13.2456 30.6878 12.8081 30.7923 12.3227 30.7923ZM12.3227 29.7011C12.5505 29.7011 12.7632 29.6474 12.9609 29.54C13.1646 29.4268 13.3265 29.2598 13.4463 29.0391C13.5661 28.8186 13.6261 28.5501 13.6261 28.2342C13.6261 27.7633 13.5003 27.4023 13.2485 27.1519C13.0029 26.8955 12.7003 26.7674 12.3408 26.7674C11.9812 26.7674 11.6787 26.8955 11.433 27.1519C11.1933 27.4023 11.0735 27.7633 11.0735 28.2342C11.0735 28.7052 11.1903 29.0691 11.424 29.3254C11.6637 29.5759 11.9633 29.7011 12.3227 29.7011Z" fill="white"/>
<path d="M13.3102 33.2855L11.5575 39.5284H10.0745L8.89708 35.0832L7.66572 39.5284L6.1917 39.5375L4.50195 33.2855H5.85015L6.95568 38.1331L8.23197 33.2855H9.63408L10.8385 38.1064L11.953 33.2855H13.3102ZM16.3428 39.6091C15.8635 39.6091 15.4321 39.5046 15.0486 39.2959C14.6651 39.0813 14.3625 38.7802 14.1408 38.3925C13.9251 38.0051 13.8173 37.5579 13.8173 37.051C13.8173 36.5441 13.9281 36.097 14.1497 35.7093C14.3775 35.3217 14.686 35.0237 15.0755 34.815C15.465 34.6002 15.8994 34.493 16.3788 34.493C16.8582 34.493 17.2926 34.6002 17.6821 34.815C18.0716 35.0237 18.3771 35.3217 18.5989 35.7093C18.8265 36.097 18.9404 36.5441 18.9404 37.051C18.9404 37.5579 18.8235 38.0051 18.5898 38.3925C18.3622 38.7802 18.0506 39.0813 17.6551 39.2959C17.2656 39.5046 16.8282 39.6091 16.3428 39.6091ZM16.3428 38.5179C16.5705 38.5179 16.7833 38.4642 16.981 38.3568C17.1847 38.2436 17.3465 38.0766 17.4664 37.8559C17.5862 37.6354 17.6461 37.3669 17.6461 37.051C17.6461 36.58 17.5203 36.2192 17.2686 35.9687C17.0229 35.7123 16.7204 35.5842 16.3608 35.5842C16.0013 35.5842 15.6987 35.7123 15.4531 35.9687C15.2133 36.2192 15.0935 36.58 15.0935 37.051C15.0935 37.522 15.2104 37.8859 15.444 38.1422C15.6837 38.3925 15.9833 38.5179 16.3428 38.5179ZM21.1217 35.3426C21.2835 35.0803 21.4932 34.8745 21.7509 34.7255C22.0145 34.5763 22.3141 34.5018 22.6496 34.5018V35.8168H22.317C21.9216 35.8168 21.622 35.9091 21.4184 36.0941C21.2205 36.2789 21.1217 36.6007 21.1217 37.0599V39.5284H19.8634V34.5734H21.1217V35.3426ZM26.4453 39.5284L24.7556 37.4178V39.5284H23.4972V32.9099H24.7556V36.6754L26.4272 34.5734H28.063L25.8699 37.0599L28.0811 39.5284H26.4453Z" fill="white"/>
<path d="M42.3191 41.8535H0.888672V58.1226H42.3191V41.8535Z" fill="#001666"/>
<path d="M21.5968 58.1203H42.3164L31.9557 64.94L21.5968 71.7594L11.2378 64.94L0.876953 58.1203H21.5968Z" fill="#001666"/>
<path d="M9.24268 48.9041H10.472C10.4473 49.305 10.3363 49.6608 10.1389 49.9719C9.94434 50.2829 9.67162 50.5256 9.32079 50.7001C8.97269 50.8746 8.55334 50.962 8.06272 50.962C7.67899 50.962 7.33501 50.8966 7.03079 50.7657C6.72653 50.6319 6.46614 50.4411 6.24961 50.1928C6.03582 49.9447 5.87274 49.6445 5.76037 49.2928C5.64801 48.9409 5.5918 48.5468 5.5918 48.1102V47.6972C5.5918 47.2607 5.64937 46.8665 5.76449 46.5147C5.88235 46.1602 6.04953 45.8587 6.26607 45.6106C6.48534 45.3625 6.74709 45.1715 7.05134 45.0379C7.35557 44.904 7.69545 44.8373 8.07095 44.8373C8.56978 44.8373 8.99052 44.9273 9.33313 45.1072C9.67848 45.2873 9.94571 45.5354 10.1349 45.852C10.3267 46.1683 10.4418 46.5284 10.4802 46.9319H9.24678C9.23308 46.6921 9.18511 46.4888 9.10288 46.3224C9.02066 46.1533 8.89595 46.0266 8.72877 45.942C8.56432 45.8547 8.34504 45.811 8.07095 45.811C7.86538 45.811 7.68584 45.8492 7.53237 45.9257C7.37886 46.0019 7.25005 46.1178 7.14588 46.2733C7.04174 46.4289 6.96363 46.6251 6.91154 46.8626C6.86221 47.0971 6.83753 47.3726 6.83753 47.6889V48.1102C6.83753 48.4185 6.86084 48.6899 6.90744 48.9246C6.95402 49.1564 7.0253 49.3528 7.12123 49.5136C7.2199 49.6719 7.34598 49.7919 7.49947 49.8737C7.6557 49.9528 7.84344 49.9924 8.06272 49.9924C8.32037 49.9924 8.53278 49.9514 8.69997 49.8696C8.86718 49.7878 8.99464 49.6664 9.08233 49.5056C9.1728 49.3446 9.22622 49.1441 9.24268 48.9041ZM13.2553 50.962C12.91 50.962 12.6003 50.9074 12.3262 50.7984C12.0521 50.6864 11.8191 50.5323 11.6273 50.3361C11.4381 50.1396 11.2929 49.912 11.1914 49.6528C11.09 49.3909 11.0393 49.1128 11.0393 48.8182V48.6544C11.0393 48.319 11.0873 48.0121 11.1833 47.7338C11.2791 47.4557 11.4162 47.2143 11.5944 47.0098C11.7753 46.8053 11.9946 46.6483 12.2522 46.5394C12.5099 46.4275 12.8004 46.3714 13.1238 46.3714C13.439 46.3714 13.7186 46.4233 13.9625 46.527C14.2065 46.6306 14.4106 46.778 14.5751 46.9688C14.7423 47.1598 14.8684 47.389 14.9533 47.6562C15.0383 47.9207 15.0808 48.2154 15.0808 48.5399V49.0308H11.545V48.2453H13.9173V48.1554C13.9173 47.9917 13.8871 47.8458 13.8268 47.7175C13.7693 47.5866 13.6816 47.483 13.5637 47.4067C13.4459 47.3303 13.2951 47.292 13.1115 47.292C12.9552 47.292 12.8209 47.3261 12.7085 47.3943C12.5962 47.4625 12.5043 47.5581 12.4331 47.6808C12.3645 47.8034 12.3125 47.9481 12.2769 48.1144C12.244 48.2782 12.2275 48.4581 12.2275 48.6544V48.8182C12.2275 48.9953 12.2522 49.1591 12.3015 49.3091C12.3536 49.4591 12.4262 49.5887 12.5194 49.6977C12.6153 49.8069 12.7304 49.8914 12.8647 49.9514C13.0018 50.0115 13.1567 50.0415 13.3294 50.0415C13.5431 50.0415 13.7419 50.0007 13.9255 49.9187C14.1119 49.8341 14.2722 49.7073 14.4065 49.5383L14.9821 50.1601C14.8889 50.2937 14.7615 50.422 14.5997 50.5447C14.4408 50.6674 14.2489 50.7682 14.0242 50.8475C13.7994 50.9237 13.5431 50.962 13.2553 50.962ZM16.9391 47.419V50.8801H15.755V46.4534H16.8693L16.9391 47.419ZM18.2794 46.4246L18.2589 47.5171C18.2013 47.509 18.1314 47.5021 18.0492 47.4966C17.9697 47.4885 17.897 47.4844 17.8313 47.4844C17.6641 47.4844 17.5189 47.5063 17.3954 47.5498C17.2749 47.5908 17.1735 47.6521 17.0912 47.7338C17.0117 47.8158 16.9514 47.9153 16.9103 48.0326C16.8719 48.1499 16.85 48.2835 16.8446 48.4335L16.606 48.36C16.606 48.0737 16.6349 47.8103 16.6924 47.5703C16.75 47.3275 16.8336 47.1162 16.9432 46.9361C17.0556 46.7562 17.1926 46.6171 17.3544 46.5189C17.5161 46.4205 17.701 46.3714 17.9094 46.3714C17.9751 46.3714 18.0424 46.377 18.1109 46.3879C18.1794 46.3961 18.2356 46.4083 18.2794 46.4246ZM21.2231 46.4534V47.2881H18.633V46.4534H21.2231ZM19.2744 45.3611H20.4584V49.5464C20.4584 49.6747 20.4749 49.7728 20.5078 49.841C20.5434 49.9092 20.5955 49.9569 20.664 49.984C20.7326 50.0087 20.8189 50.0209 20.9231 50.0209C20.9969 50.0209 21.0627 50.0182 21.1204 50.0129C21.1806 50.0046 21.2314 49.9965 21.2724 49.9882L21.2766 50.8556C21.1752 50.8883 21.0655 50.9143 20.9477 50.9334C20.8299 50.9525 20.6997 50.962 20.5571 50.962C20.2967 50.962 20.0692 50.9198 19.8746 50.8353C19.6828 50.748 19.5347 50.6088 19.4306 50.4179C19.3264 50.2268 19.2744 49.976 19.2744 49.6651V45.3611ZM23.1473 46.4534V50.8801H21.959V46.4534H23.1473ZM21.885 45.2995C21.885 45.1277 21.9454 44.986 22.0659 44.8741C22.1866 44.7623 22.3482 44.7064 22.551 44.7064C22.7512 44.7064 22.9114 44.7623 23.032 44.8741C23.1554 44.986 23.2172 45.1277 23.2172 45.2995C23.2172 45.4714 23.1554 45.6133 23.032 45.7251C22.9114 45.837 22.7512 45.8928 22.551 45.8928C22.3482 45.8928 22.1866 45.837 22.0659 45.7251C21.9454 45.6133 21.885 45.4714 21.885 45.2995ZM25.6057 50.8801H24.4177V46.2529C24.4177 45.8764 24.4944 45.5587 24.6479 45.2995C24.8041 45.0404 25.0262 44.8442 25.3139 44.7105C25.6044 44.5769 25.9554 44.5101 26.3665 44.5101C26.5993 44.5101 26.8255 44.5331 27.0447 44.5795C27.264 44.6232 27.4901 44.6805 27.7232 44.7513L27.5505 45.6965C27.3999 45.6502 27.238 45.6064 27.0654 45.5656C26.8927 45.5246 26.6843 45.5042 26.4405 45.5042C26.1665 45.5042 25.9581 45.5682 25.8155 45.6965C25.6756 45.8221 25.6057 46.0075 25.6057 46.2529V50.8801ZM26.4898 46.4534V47.2881H23.7557V46.4534H26.4898ZM28.2742 46.4534V50.8801H27.0859V46.4534H28.2742ZM31.3123 50.962C30.9669 50.962 30.6572 50.9074 30.3831 50.7984C30.109 50.6864 29.8762 50.5323 29.6842 50.3361C29.4951 50.1396 29.3499 49.912 29.2485 49.6528C29.1471 49.3909 29.0964 49.1128 29.0964 48.8182V48.6544C29.0964 48.319 29.1443 48.0121 29.2402 47.7338C29.3363 47.4557 29.4733 47.2143 29.6514 47.0098C29.8323 46.8053 30.0516 46.6483 30.3092 46.5394C30.5669 46.4275 30.8574 46.3714 31.1809 46.3714C31.4959 46.3714 31.7756 46.4233 32.0195 46.527C32.2635 46.6306 32.4677 46.778 32.6321 46.9688C32.7993 47.1598 32.9253 47.389 33.0104 47.6562C33.0953 47.9207 33.1379 48.2154 33.1379 48.5399V49.0308H29.6021V48.2453H31.9744V48.1554C31.9744 47.9917 31.9441 47.8458 31.8839 47.7175C31.8262 47.5866 31.7385 47.483 31.6206 47.4067C31.5029 47.3303 31.3522 47.292 31.1685 47.292C31.0123 47.292 30.878 47.3261 30.7655 47.3943C30.6532 47.4625 30.5614 47.5581 30.49 47.6808C30.4215 47.8034 30.3695 47.9481 30.3338 48.1144C30.3009 48.2782 30.2845 48.4581 30.2845 48.6544V48.8182C30.2845 48.9953 30.3092 49.1591 30.3586 49.3091C30.4106 49.4591 30.4833 49.5887 30.5764 49.6977C30.6725 49.8069 30.7875 49.8914 30.9218 49.9514C31.0588 50.0115 31.2137 50.0415 31.3864 50.0415C31.6001 50.0415 31.799 50.0007 31.9825 49.9187C32.1688 49.8341 32.3293 49.7073 32.4636 49.5383L33.0391 50.1601C32.946 50.2937 32.8184 50.422 32.6569 50.5447C32.4978 50.6674 32.3059 50.7682 32.0811 50.8475C31.8563 50.9237 31.6001 50.962 31.3123 50.962ZM36.4392 49.9147V44.5958H37.6314V50.8801H36.5584L36.4392 49.9147ZM33.6271 48.72V48.6341C33.6271 48.2959 33.6655 47.9889 33.7421 47.7136C33.8189 47.4353 33.9313 47.1966 34.0794 46.9976C34.2273 46.7983 34.4095 46.6442 34.6262 46.5353C34.8426 46.426 35.0893 46.3714 35.3662 46.3714C35.6265 46.3714 35.854 46.426 36.0487 46.5353C36.2459 46.6442 36.4133 46.7997 36.5503 47.0016C36.69 47.2008 36.8024 47.4367 36.8874 47.7094C36.9723 47.9795 37.034 48.2754 37.0724 48.5973V48.7855C37.034 49.0936 36.9723 49.38 36.8874 49.6445C36.8024 49.9092 36.69 50.141 36.5503 50.3402C36.4133 50.5365 36.2459 50.6892 36.0487 50.7984C35.8512 50.9074 35.6211 50.962 35.3579 50.962C35.0811 50.962 34.8345 50.906 34.6179 50.7943C34.4041 50.6825 34.2231 50.5256 34.0752 50.3239C33.9298 50.1218 33.8189 49.8845 33.7421 49.6118C33.6655 49.3391 33.6271 49.0418 33.6271 48.72ZM34.8111 48.6341V48.72C34.8111 48.9027 34.8248 49.0732 34.8523 49.2314C34.8824 49.3895 34.9304 49.53 34.9961 49.6528C35.0647 49.7728 35.1523 49.8668 35.2593 49.935C35.3688 50.0007 35.5019 50.0333 35.6582 50.0333C35.861 50.0333 36.0281 49.9882 36.1595 49.8984C36.2913 49.8056 36.3913 49.6786 36.4598 49.5178C36.5311 49.3568 36.5721 49.1713 36.5832 48.9612V48.4254C36.5748 48.2535 36.5503 48.0994 36.5092 47.963C36.4707 47.8239 36.4133 47.7053 36.3365 47.6072C36.2623 47.509 36.1693 47.4325 36.0568 47.378C35.9473 47.3236 35.8169 47.2962 35.6663 47.2962C35.5128 47.2962 35.3813 47.3316 35.2716 47.4025C35.162 47.4708 35.0729 47.5648 35.0044 47.6848C34.9387 47.8048 34.8891 47.9467 34.8562 48.1102C34.8262 48.2713 34.8111 48.4459 34.8111 48.6341Z" fill="white"/>
<path d="M17.4123 59.7836V62.6429H16.8223V59.7836H17.4123ZM20.3051 59.7836V62.6429H19.7132L18.5588 60.7262V62.6429H17.9668V59.7836H18.5588L19.7151 61.7022V59.7836H20.3051ZM21.7023 62.6429H21.0768L21.0807 62.1833H21.7023C21.8576 62.1833 21.9885 62.1486 22.095 62.0792C22.2016 62.0084 22.2818 61.9057 22.3357 61.7708C22.3909 61.636 22.4187 61.473 22.4187 61.2819V61.1425C22.4187 60.9959 22.4028 60.867 22.3713 60.7557C22.341 60.6443 22.2957 60.5507 22.2351 60.4748C22.1745 60.3989 22.1002 60.3419 22.012 60.304C21.9239 60.2647 21.8228 60.245 21.7083 60.245H21.0649V59.7836H21.7083C21.9001 59.7836 22.0759 59.8164 22.2351 59.8818C22.3955 59.9459 22.5343 60.0382 22.6513 60.1587C22.7686 60.2791 22.8587 60.4232 22.9219 60.5907C22.9863 60.757 23.0185 60.9422 23.0185 61.1464V61.2819C23.0185 61.4848 22.9863 61.6701 22.9219 61.8376C22.8587 62.0053 22.7686 62.1491 22.6513 62.2696C22.5357 62.3888 22.3968 62.4811 22.2351 62.5465C22.0747 62.6107 21.897 62.6429 21.7023 62.6429ZM21.4122 59.7836V62.6429H20.8203V59.7836H21.4122ZM24.0782 59.7836V62.6429H23.488V59.7836H24.0782ZM25.8364 60.2726L25.055 62.6429H24.4254L25.4931 59.7836H25.8937L25.8364 60.2726ZM26.4856 62.6429L25.7021 60.2726L25.639 59.7836H26.0436L27.117 62.6429H26.4856ZM26.4502 61.5784V62.04H24.9326V61.5784H26.4502Z" fill="white"/>
<path d="M29.627 36.6805H30.1472C30.2539 36.6805 30.3454 36.6965 30.422 36.7282C30.4993 36.76 30.5587 36.8068 30.6001 36.8691C30.6417 36.9314 30.6626 37.0081 30.6626 37.099C30.6626 37.1733 30.6497 37.2371 30.6241 37.2905C30.5994 37.3431 30.5639 37.3872 30.5179 37.4229C30.4726 37.4578 30.4191 37.4858 30.3579 37.5068L30.267 37.5543H29.8148L29.8128 37.3315H30.1491C30.1994 37.3315 30.2414 37.3226 30.2745 37.3047C30.3078 37.2869 30.3328 37.2621 30.3492 37.2304C30.3666 37.1987 30.3752 37.1618 30.3752 37.1198C30.3752 37.0755 30.3668 37.0371 30.3502 37.0045C30.3335 36.9722 30.3084 36.9474 30.2745 36.9302C30.2407 36.913 30.1983 36.9044 30.1472 36.9044H29.9144V38.0681H29.627V36.6805ZM30.4068 38.0681L30.0887 37.4495L30.3924 37.4478L30.7142 38.0548V38.0681H30.4068Z" fill="white"/>
<path d="M12.8483 56.23V56.6072H11.1719V56.2854L11.9646 55.439C12.0442 55.3507 12.1071 55.273 12.1531 55.2059C12.1991 55.1378 12.2322 55.0769 12.2524 55.0232C12.2738 54.9685 12.2844 54.9165 12.2844 54.8674C12.2844 54.7936 12.2721 54.7305 12.2474 54.678C12.2227 54.6243 12.1863 54.583 12.138 54.5539C12.0908 54.5249 12.0325 54.5103 11.9629 54.5103C11.8889 54.5103 11.8249 54.5282 11.7711 54.564C11.7183 54.5997 11.678 54.6495 11.6499 54.7132C11.623 54.7769 11.6095 54.8489 11.6095 54.9294H11.123C11.123 54.7841 11.1579 54.6511 11.2274 54.5305C11.2969 54.4087 11.3952 54.312 11.5219 54.2405C11.6488 54.1679 11.7991 54.1315 11.973 54.1315C12.1447 54.1315 12.2895 54.1595 12.4073 54.2154C12.5262 54.2701 12.616 54.3495 12.6766 54.4534C12.7383 54.5562 12.7692 54.6791 12.7692 54.8221C12.7692 54.9026 12.7563 54.9813 12.7304 55.0584C12.7046 55.1345 12.6676 55.2104 12.6193 55.2864C12.5722 55.3613 12.515 55.4372 12.4476 55.5144C12.3803 55.5915 12.3057 55.6714 12.2238 55.754L11.798 56.23H12.8483ZM14.8696 55.1724V55.5948C14.8696 55.7781 14.85 55.9362 14.8107 56.0692C14.7714 56.201 14.7148 56.3094 14.6407 56.3943C14.5678 56.4781 14.4809 56.5401 14.3798 56.5804C14.2789 56.6206 14.1666 56.6408 14.0432 56.6408C13.9445 56.6408 13.8524 56.6284 13.7672 56.6038C13.6819 56.5781 13.6051 56.5385 13.5365 56.4848C13.4692 56.4312 13.4109 56.3636 13.3616 56.2821C13.3133 56.1993 13.2763 56.101 13.2505 55.987C13.2246 55.8731 13.2117 55.7423 13.2117 55.5948V55.1724C13.2117 54.9892 13.2314 54.8322 13.2706 54.7015C13.3111 54.5696 13.3677 54.4617 13.4407 54.378C13.5147 54.2941 13.6022 54.2327 13.7032 54.1935C13.8042 54.1534 13.9164 54.1332 14.0399 54.1332C14.1386 54.1332 14.2301 54.1461 14.3141 54.1718C14.3994 54.1964 14.4763 54.2349 14.5448 54.2875C14.6132 54.3399 14.6716 54.4075 14.7199 54.4902C14.768 54.5718 14.805 54.6696 14.8309 54.7836C14.8567 54.8965 14.8696 55.0261 14.8696 55.1724ZM14.3832 55.6585V55.107C14.3832 55.0188 14.3782 54.9417 14.368 54.8757C14.3591 54.8098 14.345 54.7539 14.3259 54.7082C14.3069 54.6612 14.2833 54.6232 14.2553 54.5942C14.2272 54.5651 14.1952 54.5439 14.1593 54.5305C14.1234 54.517 14.0836 54.5103 14.0399 54.5103C13.9849 54.5103 13.9361 54.521 13.8934 54.5422C13.8519 54.5634 13.8165 54.5975 13.7873 54.6444C13.7582 54.6903 13.7358 54.7517 13.72 54.8288C13.7055 54.9048 13.6982 54.9975 13.6982 55.107V55.6585C13.6982 55.7468 13.7026 55.8245 13.7116 55.8915C13.7218 55.9586 13.7363 56.0161 13.7554 56.0641C13.7755 56.1111 13.7991 56.1496 13.8261 56.1798C13.8541 56.2089 13.8861 56.23 13.922 56.2434C13.959 56.2569 13.9994 56.2636 14.0432 56.2636C14.0971 56.2636 14.1448 56.253 14.1862 56.2317C14.2289 56.2094 14.2648 56.1747 14.294 56.1278C14.3243 56.0798 14.3468 56.0172 14.3613 55.9401C14.3759 55.863 14.3832 55.7692 14.3832 55.6585ZM16.9448 56.23V56.6072H15.2684V56.2854L16.0612 55.439C16.1409 55.3507 16.2037 55.273 16.2497 55.2059C16.2957 55.1378 16.3288 55.0769 16.349 55.0232C16.3703 54.9685 16.381 54.9165 16.381 54.8674C16.381 54.7936 16.3686 54.7305 16.344 54.678C16.3193 54.6243 16.2828 54.583 16.2345 54.5539C16.1874 54.5249 16.1291 54.5103 16.0595 54.5103C15.9854 54.5103 15.9215 54.5282 15.8676 54.564C15.8149 54.5997 15.7745 54.6495 15.7464 54.7132C15.7195 54.7769 15.7061 54.8489 15.7061 54.9294H15.2196C15.2196 54.7841 15.2544 54.6511 15.3239 54.5305C15.3936 54.4087 15.4917 54.312 15.6186 54.2405C15.7453 54.1679 15.8957 54.1315 16.0696 54.1315C16.2413 54.1315 16.386 54.1595 16.5038 54.2154C16.6227 54.2701 16.7125 54.3495 16.7731 54.4534C16.8348 54.5562 16.8657 54.6791 16.8657 54.8221C16.8657 54.9026 16.8528 54.9813 16.827 55.0584C16.8012 55.1345 16.7642 55.2104 16.7159 55.2864C16.6688 55.3613 16.6116 55.4372 16.5443 55.5144C16.4769 55.5915 16.4023 55.6714 16.3204 55.754L15.8946 56.23H16.9448ZM18.9931 56.23V56.6072H17.3167V56.2854L18.1094 55.439C18.1891 55.3507 18.252 55.273 18.298 55.2059C18.344 55.1378 18.3771 55.0769 18.3972 55.0232C18.4186 54.9685 18.4293 54.9165 18.4293 54.8674C18.4293 54.7936 18.417 54.7305 18.3923 54.678C18.3676 54.6243 18.3311 54.583 18.2829 54.5539C18.2357 54.5249 18.1774 54.5103 18.1078 54.5103C18.0337 54.5103 17.9698 54.5282 17.9159 54.564C17.8632 54.5997 17.8228 54.6495 17.7947 54.7132C17.7678 54.7769 17.7543 54.8489 17.7543 54.9294H17.2679C17.2679 54.7841 17.3027 54.6511 17.3723 54.5305C17.4418 54.4087 17.54 54.312 17.6668 54.2405C17.7936 54.1679 17.9439 54.1315 18.1179 54.1315C18.2896 54.1315 18.4343 54.1595 18.5522 54.2154C18.6711 54.2701 18.7609 54.3495 18.8215 54.4534C18.8832 54.5562 18.914 54.6791 18.914 54.8221C18.914 54.9026 18.9011 54.9813 18.8752 55.0584C18.8495 55.1345 18.8124 55.2104 18.7642 55.2864C18.7171 55.3613 18.6598 55.4372 18.5925 55.5144C18.5252 55.5915 18.4506 55.6714 18.3687 55.754L17.9428 56.23H18.9931ZM21.2686 55.3702V55.749H20.3175V55.3702H21.2686ZM24.3249 56.23V56.6072H22.6486V56.2854L23.4413 55.439C23.521 55.3507 23.5838 55.273 23.6298 55.2059C23.6758 55.1378 23.709 55.0769 23.7291 55.0232C23.7504 54.9685 23.7611 54.9165 23.7611 54.8674C23.7611 54.7936 23.7487 54.7305 23.7241 54.678C23.6994 54.6243 23.6629 54.583 23.6147 54.5539C23.5676 54.5249 23.5092 54.5103 23.4397 54.5103C23.3656 54.5103 23.3016 54.5282 23.2477 54.564C23.195 54.5997 23.1546 54.6495 23.1266 54.7132C23.0996 54.7769 23.0862 54.8489 23.0862 54.9294H22.5998C22.5998 54.7841 22.6345 54.6511 22.7041 54.5305C22.7737 54.4087 22.8719 54.312 22.9987 54.2405C23.1254 54.1679 23.2758 54.1315 23.4497 54.1315C23.6214 54.1315 23.7662 54.1595 23.884 54.2154C24.0029 54.2701 24.0927 54.3495 24.1533 54.4534C24.215 54.5562 24.2458 54.6791 24.2458 54.8221C24.2458 54.9026 24.2329 54.9813 24.2071 55.0584C24.1813 55.1345 24.1443 55.2104 24.0961 55.2864C24.0489 55.3613 23.9917 55.4372 23.9244 55.5144C23.8571 55.5915 23.7825 55.6714 23.7005 55.754L23.2747 56.23H24.3249ZM26.3463 55.1724V55.5948C26.3463 55.7781 26.3266 55.9362 26.2874 56.0692C26.2481 56.201 26.1914 56.3094 26.1174 56.3943C26.0444 56.4781 25.9575 56.5401 25.8566 56.5804C25.7555 56.6206 25.6433 56.6408 25.5199 56.6408C25.4211 56.6408 25.3291 56.6284 25.2439 56.6038C25.1586 56.5781 25.0817 56.5385 25.0133 56.4848C24.946 56.4312 24.8876 56.3636 24.8382 56.2821C24.7899 56.1993 24.7529 56.101 24.7271 55.987C24.7013 55.8731 24.6884 55.7423 24.6884 55.5948V55.1724C24.6884 54.9892 24.7081 54.8322 24.7473 54.7015C24.7877 54.5696 24.8444 54.4617 24.9173 54.378C24.9914 54.2941 25.079 54.2327 25.1799 54.1935C25.2809 54.1534 25.3931 54.1332 25.5165 54.1332C25.6153 54.1332 25.7067 54.1461 25.7909 54.1718C25.8762 54.1964 25.953 54.2349 26.0214 54.2875C26.0899 54.3399 26.1482 54.4075 26.1965 54.4902C26.2448 54.5718 26.2818 54.6696 26.3076 54.7836C26.3334 54.8965 26.3463 55.0261 26.3463 55.1724ZM25.8599 55.6585V55.107C25.8599 55.0188 25.8548 54.9417 25.8448 54.8757C25.8357 54.8098 25.8217 54.7539 25.8027 54.7082C25.7836 54.6612 25.76 54.6232 25.732 54.5942C25.704 54.5651 25.6719 54.5439 25.6361 54.5305C25.6002 54.517 25.5603 54.5103 25.5165 54.5103C25.4615 54.5103 25.4127 54.521 25.3701 54.5422C25.3285 54.5634 25.2933 54.5975 25.2641 54.6444C25.2349 54.6903 25.2124 54.7517 25.1968 54.8288C25.1821 54.9048 25.1748 54.9975 25.1748 55.107V55.6585C25.1748 55.7468 25.1793 55.8245 25.1883 55.8915C25.1984 55.9586 25.213 56.0161 25.2321 56.0641C25.2523 56.1111 25.2759 56.1496 25.3028 56.1798C25.3309 56.2089 25.3628 56.23 25.3987 56.2434C25.4358 56.2569 25.4761 56.2636 25.5199 56.2636C25.5737 56.2636 25.6214 56.253 25.663 56.2317C25.7056 56.2094 25.7415 56.1747 25.7707 56.1278C25.8009 56.0798 25.8234 56.0172 25.838 55.9401C25.8526 55.863 25.8599 55.7692 25.8599 55.6585ZM28.4216 56.23V56.6072H26.7451V56.2854L27.5379 55.439C27.6175 55.3507 27.6804 55.273 27.7264 55.2059C27.7724 55.1378 27.8055 55.0769 27.8257 55.0232C27.847 54.9685 27.8576 54.9165 27.8576 54.8674C27.8576 54.7936 27.8453 54.7305 27.8206 54.678C27.7959 54.6243 27.7595 54.583 27.7113 54.5539C27.6641 54.5249 27.6057 54.5103 27.5362 54.5103C27.4622 54.5103 27.3981 54.5282 27.3444 54.564C27.2916 54.5997 27.2512 54.6495 27.2232 54.7132C27.1963 54.7769 27.1827 54.8489 27.1827 54.9294H26.6963C26.6963 54.7841 26.7312 54.6511 26.8007 54.5305C26.8702 54.4087 26.9684 54.312 27.0952 54.2405C27.222 54.1679 27.3724 54.1315 27.5463 54.1315C27.718 54.1315 27.8627 54.1595 27.9806 54.2154C28.0995 54.2701 28.1893 54.3495 28.2499 54.4534C28.3116 54.5562 28.3424 54.6791 28.3424 54.8221C28.3424 54.9026 28.3296 54.9813 28.3037 55.0584C28.2779 55.1345 28.2409 55.2104 28.1926 55.2864C28.1454 55.3613 28.0883 55.4372 28.0209 55.5144C27.9536 55.5915 27.879 55.6714 27.7971 55.754L27.3713 56.23H28.4216ZM29.29 55.1775H29.5492C29.6321 55.1775 29.7007 55.1635 29.7544 55.1356C29.8083 55.1065 29.8482 55.0662 29.874 55.0149C29.9009 54.9623 29.9144 54.9014 29.9144 54.8322C29.9144 54.7696 29.9021 54.7143 29.8773 54.6663C29.8538 54.6171 29.8173 54.5791 29.768 54.5522C29.7186 54.5244 29.6563 54.5103 29.5811 54.5103C29.5216 54.5103 29.4666 54.5221 29.4162 54.5455C29.3657 54.569 29.3253 54.602 29.295 54.6444C29.2647 54.6869 29.2495 54.7383 29.2495 54.7987H28.7632C28.7632 54.6646 28.799 54.5477 28.8708 54.4483C28.9438 54.3489 29.0414 54.2712 29.1637 54.2154C29.286 54.1595 29.4207 54.1315 29.5677 54.1315C29.7337 54.1315 29.8791 54.1584 30.0036 54.212C30.1281 54.2645 30.2252 54.3422 30.2948 54.445C30.3643 54.5477 30.3991 54.6751 30.3991 54.8271C30.3991 54.9043 30.3812 54.9791 30.3453 55.0517C30.3093 55.1233 30.2578 55.188 30.1904 55.2462C30.1242 55.3031 30.0435 55.349 29.948 55.3836C29.8526 55.4171 29.7455 55.4339 29.6266 55.4339H29.29V55.1775ZM29.29 55.5445V55.2948H29.6266C29.7601 55.2948 29.8773 55.3098 29.9783 55.34C30.0793 55.3702 30.164 55.4138 30.2324 55.4708C30.301 55.5267 30.3525 55.5932 30.3874 55.6702C30.4221 55.7462 30.4395 55.8306 30.4395 55.9233C30.4395 56.0373 30.4177 56.139 30.3739 56.2284C30.3301 56.3166 30.2684 56.3916 30.1887 56.453C30.1101 56.5145 30.0181 56.5614 29.9127 56.5938C29.8072 56.6251 29.6922 56.6408 29.5677 56.6408C29.4644 56.6408 29.3628 56.6267 29.263 56.5988C29.1643 56.5698 29.0745 56.5268 28.9937 56.4697C28.914 56.4116 28.8501 56.339 28.8018 56.2519C28.7547 56.1635 28.7311 56.0591 28.7311 55.9384H29.2176C29.2176 56.001 29.2332 56.0569 29.2647 56.106C29.2962 56.1552 29.3393 56.1937 29.3943 56.2217C29.4504 56.2496 29.5127 56.2636 29.5811 56.2636C29.6586 56.2636 29.7248 56.2496 29.7798 56.2217C29.8359 56.1926 29.8785 56.1524 29.9076 56.101C29.9379 56.0484 29.9531 55.9875 29.9531 55.9183C29.9531 55.8289 29.9368 55.7574 29.9043 55.7038C29.8718 55.649 29.8252 55.6087 29.7646 55.5831C29.704 55.5574 29.6321 55.5445 29.5492 55.5445H29.29Z" fill="white"/>
</svg>
