<svg width="40" height="35" viewBox="0 0 40 35" fill="none" xmlns="http://www.w3.org/2000/svg">
<path d="M39.4952 16.713C39.3587 16.5082 39.1403 16.3854 38.9082 16.3854H32.0824C31.823 16.3854 31.5909 16.5355 31.4681 16.7676L28.9289 21.846H27.4409C27.4665 21.7692 27.4886 21.6907 27.5228 21.6139L29.7207 17.2183C29.4749 17.0818 29.2019 16.9453 28.9289 16.8361C29.5978 16.2218 30.0346 15.3344 30.0346 14.3378C30.0346 12.4539 28.5056 10.9249 26.6217 10.9249C24.7378 10.9249 23.2088 12.4539 23.2088 14.3378C23.2088 15.3344 23.6457 16.2217 24.3146 16.8361C22.0757 17.7508 20.4785 19.9623 20.4785 22.5287C20.4785 22.9109 20.7789 23.2113 21.1611 23.2113H36.1778C36.4372 23.2113 36.6693 23.0611 36.7921 22.829L39.5225 17.3684C39.618 17.1636 39.6181 16.9041 39.4952 16.713ZM26.6216 12.2899C27.7547 12.2899 28.6694 13.2046 28.6694 14.3376C28.6694 15.4707 27.7547 16.3854 26.6216 16.3854C25.4886 16.3854 24.5739 15.4707 24.5739 14.3376C24.5739 13.2046 25.4886 12.2899 26.6216 12.2899Z" fill="#0400F5"/>
<path d="M12.1638 23.2102H18.43C18.8122 23.2102 19.1125 22.9098 19.1125 22.5276C19.1125 19.9611 17.5153 17.7493 15.2765 16.835C15.9454 16.2207 16.3822 15.3333 16.3822 14.3367C16.3822 12.4528 14.8532 10.9238 12.9693 10.9238C11.0854 10.9238 9.55643 12.4528 9.55643 14.3367C9.55643 15.3333 9.99328 16.2206 10.6622 16.835C10.3892 16.9442 10.1161 17.0807 9.87039 17.2172L12.0956 21.6539C12.1229 21.7153 12.1195 21.7819 12.14 21.845H10.6622L8.12301 16.7666C8.00015 16.5345 7.76807 16.3844 7.50871 16.3844H0.682922C0.450845 16.3844 0.232441 16.5072 0.0958819 16.712C-0.0269824 16.9031 -0.0269824 17.1625 0.0685787 17.3673L2.7989 22.8279C2.92176 23.06 3.15384 23.2102 3.4132 23.2102H12.1638ZM10.9215 14.3369C10.9215 13.2038 11.8361 12.2891 12.9692 12.2891C14.1023 12.2891 15.0169 13.2038 15.0169 14.3369C15.0169 15.4699 14.1023 16.3846 12.9692 16.3846C11.8361 16.3846 10.9215 15.4699 10.9215 14.3369Z" fill="#0400F5"/>
<path d="M34.3253 24.668C34.0045 24.4786 33.583 24.5895 33.3936 24.9171C30.5916 29.76 25.3817 32.7669 19.7931 32.7669C14.8527 32.7669 10.2658 30.4393 7.30352 26.5317L7.53731 26.5693C7.92126 26.629 8.25912 26.373 8.31888 26.001C8.37861 25.629 8.12434 25.2792 7.75233 25.2194L5.84622 24.9174C5.66363 24.8901 5.48445 24.9327 5.33768 25.0402C5.19092 25.146 5.09366 25.3065 5.06465 25.4856L4.7626 27.3934C4.70288 27.7654 4.95714 28.1152 5.32916 28.175C5.36499 28.1801 5.40083 28.1835 5.43666 28.1835C5.76601 28.1835 6.05782 27.9429 6.11072 27.6068L6.16192 27.2808C9.38028 31.5742 14.3922 34.1324 19.793 34.1324C25.8661 34.1324 31.5281 30.8628 34.5743 25.6003C34.7637 25.2743 34.651 24.8563 34.3251 24.6685L34.3253 24.668Z" fill="#0400F5"/>
<path d="M3.52763 15.0113C3.56518 15.0182 3.60442 15.0199 3.64026 15.0199C3.9679 15.0199 4.2563 14.7844 4.31262 14.4499C5.58394 6.86967 12.0955 1.36841 19.795 1.36841C26.7231 1.36841 32.7844 5.89724 34.793 12.4605L34.5609 12.3325C34.235 12.1499 33.8169 12.2677 33.6326 12.597C33.45 12.9264 33.5678 13.3427 33.8988 13.5253L35.5865 14.4621C35.6872 14.5202 35.8032 14.5475 35.9176 14.5475C35.9807 14.5475 36.0438 14.5389 36.1053 14.5202C36.2793 14.4707 36.4261 14.3529 36.5148 14.1942L37.4499 12.5048C37.6325 12.1755 37.5131 11.7591 37.1837 11.5765C36.8578 11.3939 36.4397 11.5117 36.2554 11.8427L36.1104 12.1038C33.9398 4.94515 27.341 0 19.7931 0C11.4248 0 4.34653 5.98092 2.96433 14.2217C2.9029 14.5937 3.15375 14.9452 3.52577 15.0084L3.52763 15.0113Z" fill="#0400F5"/>
</svg>
