<svg width="24" height="23" viewBox="0 0 24 23" fill="none" xmlns="http://www.w3.org/2000/svg">
<path d="M22.8219 20.2187H0.35657C0.142663 20.2187 0 20.3613 0 20.5753V22.6434C0 22.8573 0.142659 23 0.35657 23H22.8219C23.0358 23 23.1785 22.8573 23.1785 22.6434V20.5753C23.1785 20.397 23.0358 20.2187 22.8219 20.2187Z" fill="#016BE3"/>
<path d="M8.55762 15.2622H10.3406V17.3304H8.55762V15.2622Z" fill="#016BE3" fill-opacity="0.58"/>
<path d="M8.55762 10.9827H10.3406V13.0509H8.55762V10.9827Z" fill="#016BE3" fill-opacity="0.58"/>
<path d="M12.8358 15.2622H14.6188V17.3304H12.8358V15.2622Z" fill="#016BE3" fill-opacity="0.58"/>
<path d="M8.55762 6.73969H10.3406V8.80786H8.55762V6.73969Z" fill="#016BE3" fill-opacity="0.58"/>
<path d="M8.55762 2.49597H10.3406V4.56414H8.55762V2.49597Z" fill="#016BE3" fill-opacity="0.58"/>
<path d="M12.8358 10.9827H14.6188V13.0508H12.8358V10.9827Z" fill="#016BE3" fill-opacity="0.58"/>
<path d="M12.8358 2.49597H14.6188V4.56414H12.8358V2.49597Z" fill="#016BE3" fill-opacity="0.58"/>
<path d="M12.8358 6.73969H14.6188V8.80786H12.8358V6.73969Z" fill="#016BE3" fill-opacity="0.58"/>
<path d="M17.0807 0.356735C17.0807 0.142828 16.9024 0.000164146 16.7241 0.000164146L6.45404 0C6.24014 0 6.09747 0.142659 6.09747 0.35657V19.5056H17.0803L17.0807 0.356735ZM11.0545 17.6511C11.0545 17.8294 10.8762 18.0077 10.6979 18.0077H8.20172C7.98781 18.0077 7.84515 17.8294 7.84515 17.6511V14.8696C7.84515 14.6557 7.98781 14.513 8.20172 14.513H10.6979C10.8762 14.513 11.0545 14.6557 11.0545 14.8696V17.6511ZM11.0545 13.4077C11.0545 13.6216 10.8762 13.7642 10.6979 13.7642H8.20172C7.98781 13.7642 7.84515 13.6216 7.84515 13.4077V10.6262C7.84515 10.4123 7.98781 10.2696 8.20172 10.2696H10.6979C10.8762 10.2696 11.0545 10.4123 11.0545 10.6262V13.4077ZM11.0545 9.16425C11.0545 9.34253 10.8762 9.52082 10.6979 9.52082H8.20172C7.98781 9.52082 7.84515 9.34253 7.84515 9.16425V6.38276C7.84515 6.16885 7.98781 6.02619 8.20172 6.02619H10.6979C10.8762 6.02619 11.0545 6.16885 11.0545 6.38276V9.16425ZM11.0545 4.8851C11.0545 5.09901 10.8762 5.24167 10.6979 5.24167H8.20172C7.98781 5.24167 7.84515 5.09901 7.84515 4.8851V2.13925C7.84515 1.96097 7.98781 1.78268 8.20172 1.78268H10.6979C10.8762 1.78268 11.0545 1.96097 11.0545 2.13925V4.8851ZM15.3336 17.6507C15.3336 17.829 15.1553 18.0072 14.977 18.0072H12.4809C12.267 18.0072 12.1243 17.829 12.1243 17.6507V14.8692C12.1243 14.6553 12.267 14.5126 12.4809 14.5126H14.977C15.1553 14.5126 15.3336 14.6553 15.3336 14.8692V17.6507ZM15.3336 13.4073C15.3336 13.6212 15.1553 13.7638 14.977 13.7638H12.4809C12.267 13.7638 12.1243 13.6212 12.1243 13.4073V10.6258C12.1243 10.4119 12.267 10.2692 12.4809 10.2692H14.977C15.1553 10.2692 15.3336 10.4119 15.3336 10.6258V13.4073ZM15.3336 9.16383C15.3336 9.34211 15.1553 9.5204 14.977 9.5204H12.4809C12.267 9.5204 12.1243 9.34211 12.1243 9.16383V6.38234C12.1243 6.16843 12.267 6.02577 12.4809 6.02577H14.977C15.1553 6.02577 15.3336 6.16843 15.3336 6.38234V9.16383ZM15.3336 4.88468C15.3336 5.09859 15.1553 5.24125 14.977 5.24125H12.4809C12.267 5.24125 12.1243 5.09859 12.1243 4.88468V2.13883C12.1243 1.96055 12.267 1.78226 12.4809 1.78226H14.977C15.1553 1.78226 15.3336 1.96055 15.3336 2.13883V4.88468Z" fill="#016BE3" fill-opacity="0.58"/>
<path d="M22.3943 7.63126C22.3943 7.52422 22.3587 7.41735 22.2516 7.34594L18.5075 4.17226C18.4004 4.06522 18.2579 4.06522 18.1153 4.13663C17.9726 4.20788 17.9014 4.31492 17.9014 4.45758V19.5056H22.3587L22.3585 7.631L22.3943 7.63126ZM20.7183 18.008H19.6128C19.4345 18.008 19.2562 17.8298 19.2562 17.6515C19.2562 17.4376 19.4345 17.2949 19.6128 17.2949H20.7183C20.8966 17.2949 21.0749 17.4376 21.0749 17.6515C21.0749 17.8654 20.9324 18.008 20.7183 18.008ZM20.7183 15.191H19.6128C19.4345 15.191 19.2562 15.0127 19.2562 14.8344C19.2562 14.6561 19.4345 14.4778 19.6128 14.4778H20.7183C20.8966 14.4778 21.0749 14.6561 21.0749 14.8344C21.0749 15.0127 20.9324 15.191 20.7183 15.191ZM20.7183 12.3382H19.6128C19.4345 12.3382 19.2562 12.1956 19.2562 11.9817C19.2562 11.7678 19.4345 11.6251 19.6128 11.6251H20.7183C20.8966 11.6251 21.0749 11.7678 21.0749 11.9817C21.0749 12.16 20.9324 12.3382 20.7183 12.3382ZM20.7183 9.48551H19.6128C19.4345 9.48551 19.2562 9.34285 19.2562 9.12894C19.2562 8.91503 19.4345 8.77237 19.6128 8.77237H20.7183C20.8966 8.77237 21.0749 8.91503 21.0749 9.12894C21.0749 9.34285 20.9324 9.48551 20.7183 9.48551Z" fill="#016BE3"/>
<path d="M5.24359 4.4575C5.24359 4.31484 5.17234 4.20796 5.02968 4.13655C4.88702 4.06531 4.74436 4.10093 4.63749 4.17218L0.89317 7.34586C0.821923 7.41711 0.786133 7.52414 0.786133 7.63118V19.5411H5.24347L5.24359 4.4575ZM3.56761 18.0081H2.46227C2.24836 18.0081 2.1057 17.8298 2.1057 17.6516C2.1057 17.4377 2.24836 17.295 2.46227 17.295H3.56778C3.78168 17.295 3.92435 17.4377 3.92435 17.6516C3.92418 17.8655 3.78169 18.0081 3.56761 18.0081H3.56761ZM3.56761 15.191H2.46227C2.24836 15.191 2.1057 15.0128 2.1057 14.8345C2.1057 14.6562 2.24836 14.4779 2.46227 14.4779H3.56778C3.78168 14.4779 3.92435 14.6562 3.92435 14.8345C3.92418 15.0128 3.78169 15.191 3.56761 15.191H3.56761ZM3.56761 12.3383H2.46227C2.24836 12.3383 2.1057 12.1957 2.1057 11.9818C2.1057 11.7678 2.24836 11.6252 2.46227 11.6252H3.56778C3.78168 11.6252 3.92435 11.7678 3.92435 11.9818C3.92418 12.16 3.78169 12.3383 3.56761 12.3383H3.56761ZM3.56761 9.4856H2.46227C2.24836 9.4856 2.1057 9.34294 2.1057 9.12903C2.1057 8.91512 2.24836 8.77246 2.46227 8.77246H3.56778C3.78168 8.77246 3.92435 8.91512 3.92435 9.12903C3.92418 9.34294 3.78169 9.4856 3.56761 9.4856H3.56761Z" fill="#016BE3"/>
</svg>
