<svg width="40" height="40" viewBox="0 0 40 40" fill="none" xmlns="http://www.w3.org/2000/svg">
<path d="M25.8332 29.9405V27.6205C25.8332 26.3899 25.3415 25.2097 24.4663 24.3395C23.5912 23.4693 22.4042 22.9805 21.1665 22.9805H11.8332C10.5955 22.9805 9.40851 23.4693 8.53334 24.3395C7.65817 25.2097 7.1665 26.3899 7.1665 27.6205V29.9405" stroke="white" stroke-width="2" stroke-linecap="round" stroke-linejoin="round"/>
<path d="M16.5002 18.3396C17.7378 18.3396 18.9248 17.8507 19.8 16.9805C20.6752 16.1104 21.1668 14.9302 21.1668 13.6996C21.1668 12.469 20.6752 11.2888 19.8 10.4186C18.9248 9.54843 17.7378 9.05957 16.5002 9.05957C15.2625 9.05957 14.0755 9.54843 13.2003 10.4186C12.3252 11.2888 11.8335 12.469 11.8335 13.6996C11.8335 14.9302 12.3252 16.1104 13.2003 16.9805C14.0755 17.8507 15.2625 18.3396 16.5002 18.3396Z" stroke="white" stroke-width="2" stroke-linecap="round" stroke-linejoin="round"/>
<path d="M32.8332 29.9401V27.6201C32.8324 26.5921 32.4883 25.5934 31.8548 24.7808C31.2213 23.9683 30.3343 23.388 29.3332 23.1309M24.6665 9.21094C25.6703 9.46649 26.56 10.047 27.1954 10.8608C27.8308 11.6747 28.1757 12.6757 28.1757 13.7059C28.1757 14.7362 27.8308 15.7372 27.1954 16.5511C26.56 17.3649 25.6703 17.9454 24.6665 18.2009" stroke="white" stroke-width="2" stroke-linecap="round" stroke-linejoin="round"/>
</svg>
