<svg width="109" height="62" viewBox="0 0 109 62" fill="none" xmlns="http://www.w3.org/2000/svg">
<g opacity="0.6">
<rect x="1" y="0.999023" width="106.999" height="60" rx="2.58643" fill="#4733A4" fill-opacity="0.51"/>
<rect x="0.5" y="0.499023" width="107.999" height="61" rx="3.08643" stroke="white" stroke-opacity="0.09"/>
</g>
<path d="M1 20.1367H107.999V3.58521C107.999 2.15677 106.841 0.998787 105.413 0.998787H3.58643C2.15798 0.998787 1 2.15677 1 3.58521V20.1367Z" fill="#4285F4"/>
<path d="M38.9858 7.42738C39.9124 7.42738 40.5858 7.62072 41.0058 8.00738C41.4324 8.39405 41.6458 8.92738 41.6458 9.60738C41.6458 9.91405 41.5991 10.2074 41.5058 10.4874C41.4124 10.7607 41.2558 11.0074 41.0358 11.2274C40.8158 11.4474 40.5258 11.6207 40.1658 11.7474C39.8124 11.874 39.3724 11.9374 38.8458 11.9374H38.1358V14.5674H36.8558V7.42738H38.9858ZM38.9058 8.48738H38.1358V10.8774H38.7158C39.0624 10.8774 39.3558 10.8374 39.5958 10.7574C39.8424 10.6707 40.0291 10.5374 40.1558 10.3574C40.2824 10.1774 40.3458 9.94405 40.3458 9.65738C40.3458 9.26405 40.2291 8.97072 39.9958 8.77738C39.7624 8.58405 39.3991 8.48738 38.9058 8.48738ZM45.0872 9.04738C45.7872 9.04738 46.3172 9.20072 46.6772 9.50738C47.0439 9.80738 47.2272 10.2807 47.2272 10.9274V14.5674H46.3372L46.0872 13.8174H46.0472C45.8939 14.0107 45.7339 14.174 45.5672 14.3074C45.4072 14.434 45.2205 14.524 45.0072 14.5774C44.8005 14.6374 44.5472 14.6674 44.2472 14.6674C43.9272 14.6674 43.6372 14.6074 43.3772 14.4874C43.1239 14.3674 42.9239 14.184 42.7772 13.9374C42.6305 13.684 42.5572 13.3674 42.5572 12.9874C42.5572 12.4274 42.7605 12.0074 43.1672 11.7274C43.5805 11.4407 44.2039 11.284 45.0372 11.2574L45.9772 11.2274V10.9574C45.9772 10.6107 45.8939 10.364 45.7272 10.2174C45.5605 10.0707 45.3272 9.99738 45.0272 9.99738C44.7539 9.99738 44.4905 10.0374 44.2372 10.1174C43.9839 10.1974 43.7372 10.2907 43.4972 10.3974L43.0972 9.51738C43.3639 9.37738 43.6672 9.26405 44.0072 9.17738C44.3539 9.09072 44.7139 9.04738 45.0872 9.04738ZM45.3172 12.0274C44.7639 12.0474 44.3805 12.144 44.1672 12.3174C43.9539 12.484 43.8472 12.7107 43.8472 12.9974C43.8472 13.2507 43.9239 13.434 44.0772 13.5474C44.2305 13.6607 44.4272 13.7174 44.6672 13.7174C45.0339 13.7174 45.3439 13.614 45.5972 13.4074C45.8505 13.194 45.9772 12.8807 45.9772 12.4674V12.0074L45.3172 12.0274ZM51.6461 9.04738C51.7261 9.04738 51.8194 9.05072 51.9261 9.05738C52.0328 9.06405 52.1228 9.07738 52.1961 9.09738L52.0861 10.2674C52.0261 10.254 51.9461 10.244 51.8461 10.2374C51.7528 10.224 51.6694 10.2174 51.5961 10.2174C51.3961 10.2174 51.2028 10.2507 51.0161 10.3174C50.8361 10.3774 50.6728 10.4707 50.5261 10.5974C50.3861 10.7174 50.2728 10.874 50.1861 11.0674C50.1061 11.2607 50.0661 11.4907 50.0661 11.7574V14.5674H48.8061V9.14738H49.7761L49.9561 10.0874H50.0161C50.1228 9.89405 50.2561 9.72072 50.4161 9.56738C50.5761 9.40738 50.7594 9.28072 50.9661 9.18738C51.1794 9.09405 51.4061 9.04738 51.6461 9.04738ZM55.3006 13.6574C55.4606 13.6574 55.614 13.644 55.7606 13.6174C55.9073 13.584 56.044 13.5474 56.1706 13.5074V14.4474C56.0373 14.5074 55.864 14.5574 55.6506 14.5974C55.4373 14.644 55.214 14.6674 54.9806 14.6674C54.674 14.6674 54.394 14.6174 54.1406 14.5174C53.894 14.4107 53.694 14.2307 53.5406 13.9774C53.394 13.724 53.3206 13.3707 53.3206 12.9174V10.0974H52.5906V9.54738L53.3906 9.10738L53.7906 7.95738H54.5806V9.14738H56.1206V10.0974H54.5806V12.9074C54.5806 13.1607 54.6473 13.3507 54.7806 13.4774C54.914 13.5974 55.0873 13.6574 55.3006 13.6574ZM60.1631 9.04738C60.7698 9.04738 61.2431 9.20405 61.5831 9.51738C61.9298 9.83072 62.1031 10.3374 62.1031 11.0374V14.5674H60.8431V11.2874C60.8431 10.8807 60.7631 10.5774 60.6031 10.3774C60.4431 10.1707 60.1898 10.0674 59.8431 10.0674C59.3365 10.0674 58.9898 10.2274 58.8031 10.5474C58.6165 10.8607 58.5231 11.3174 58.5231 11.9174V14.5674H57.2631V9.14738H58.2331L58.4131 9.85738H58.4831C58.6031 9.67072 58.7498 9.51738 58.9231 9.39738C59.0965 9.27738 59.2898 9.19072 59.5031 9.13738C59.7165 9.07738 59.9365 9.04738 60.1631 9.04738ZM65.8591 9.04738C66.3458 9.04738 66.7625 9.14738 67.1091 9.34738C67.4625 9.54072 67.7358 9.82072 67.9291 10.1874C68.1225 10.5474 68.2191 10.9874 68.2191 11.5074V12.1474H64.6391C64.6525 12.6407 64.7891 13.024 65.0491 13.2974C65.3091 13.564 65.6691 13.6974 66.1291 13.6974C66.4825 13.6974 66.7958 13.664 67.0691 13.5974C67.3491 13.524 67.6358 13.4207 67.9291 13.2874V14.2974C67.6625 14.424 67.3858 14.5174 67.0991 14.5774C66.8125 14.6374 66.4691 14.6674 66.0691 14.6674C65.5425 14.6674 65.0725 14.5674 64.6591 14.3674C64.2525 14.1607 63.9325 13.8507 63.6991 13.4374C63.4725 13.024 63.3591 12.5107 63.3591 11.8974C63.3591 11.2774 63.4625 10.7574 63.6691 10.3374C63.8825 9.91072 64.1758 9.59072 64.5491 9.37738C64.9225 9.15738 65.3591 9.04738 65.8591 9.04738ZM65.8591 9.97738C65.5258 9.97738 65.2525 10.0874 65.0391 10.3074C64.8325 10.5207 64.7091 10.8407 64.6691 11.2674H66.9991C66.9991 11.014 66.9558 10.7907 66.8691 10.5974C66.7891 10.404 66.6658 10.254 66.4991 10.1474C66.3325 10.034 66.1191 9.97738 65.8591 9.97738ZM72.3297 9.04738C72.4097 9.04738 72.503 9.05072 72.6097 9.05738C72.7164 9.06405 72.8064 9.07738 72.8797 9.09738L72.7697 10.2674C72.7097 10.254 72.6297 10.244 72.5297 10.2374C72.4364 10.224 72.353 10.2174 72.2797 10.2174C72.0797 10.2174 71.8864 10.2507 71.6997 10.3174C71.5197 10.3774 71.3564 10.4707 71.2097 10.5974C71.0697 10.7174 70.9564 10.874 70.8697 11.0674C70.7897 11.2607 70.7497 11.4907 70.7497 11.7574V14.5674H69.4897V9.14738H70.4597L70.6397 10.0874H70.6997C70.8064 9.89405 70.9397 9.72072 71.0997 9.56738C71.2597 9.40738 71.443 9.28072 71.6497 9.18738C71.863 9.09405 72.0897 9.04738 72.3297 9.04738Z" fill="white"/>
<g clip-path="url(#clip0_2955_13211)">
<path d="M66.0868 41.4334C65.4471 41.4482 64.8111 41.333 64.2176 41.095C63.6241 40.857 63.0855 40.501 62.6349 40.0489C62.1843 39.5969 61.831 39.0581 61.5967 38.4656C61.3623 37.8731 61.2518 37.2392 61.2718 36.6028C61.2553 35.9705 61.3681 35.3414 61.6033 34.7538C61.8386 34.1661 62.1914 33.6322 62.6403 33.1844C63.0876 32.729 63.6247 32.3706 64.2177 32.1314C64.8108 31.8923 65.4471 31.7776 66.0868 31.7946C66.7274 31.7789 67.3634 31.9062 67.9481 32.167C68.5328 32.4279 69.0513 32.8157 69.4657 33.3021L68.6379 34.1259C68.3343 33.7439 67.946 33.4369 67.5035 33.2289C67.061 33.0209 66.5761 32.9174 66.0868 32.9266C65.6099 32.915 65.1356 33.0005 64.693 33.1778C64.2505 33.3551 63.849 33.6205 63.5132 33.9577C63.1702 34.3058 62.9023 34.72 62.726 35.1749C62.5498 35.6297 62.4689 36.1157 62.4883 36.6028C62.4673 37.0918 62.5474 37.5798 62.7237 38.0368C62.9 38.4937 63.1687 38.9097 63.5132 39.2591C63.8482 39.5973 64.2495 39.8635 64.6923 40.0408C65.135 40.2182 65.6097 40.3031 66.0868 40.2902C66.6281 40.2876 67.1619 40.1644 67.6492 39.9297C68.1364 39.6951 68.5647 39.3548 68.9026 38.934L69.7698 39.7746C69.3309 40.2968 68.7781 40.7127 68.1536 40.9907C67.5054 41.2867 66.8 41.4378 66.0868 41.4334ZM71.9267 32.002V41.2316H70.7328V32.002H71.9267ZM72.9516 38.071C72.9386 37.6286 73.0135 37.1881 73.172 36.7746C73.3305 36.361 73.5695 35.9827 73.8752 35.6613C74.1778 35.3493 74.5424 35.1035 74.9457 34.9395C75.3491 34.7754 75.7823 34.6968 76.2179 34.7087C76.6519 34.6963 77.0836 34.7747 77.4852 34.9388C77.8868 35.1029 78.2493 35.3491 78.5494 35.6613C78.8582 35.9808 79.0995 36.3587 79.2591 36.7726C79.4187 37.1864 79.4933 37.628 79.4786 38.071C79.4949 38.5143 79.4211 38.9562 79.2614 39.3703C79.1017 39.7844 78.8595 40.1621 78.5494 40.4807C78.2502 40.7941 77.8878 41.041 77.486 41.2052C77.0842 41.3694 76.6521 41.4471 76.2179 41.4334C75.7822 41.4466 75.3485 41.3686 74.9449 41.2045C74.5414 41.0404 74.1769 40.7938 73.8752 40.4807C73.5695 40.1593 73.3305 39.781 73.172 39.3675C73.0135 38.954 72.9386 38.5134 72.9516 38.071ZM74.1455 38.071C74.1181 38.6771 74.3327 39.2694 74.7425 39.7186C74.932 39.9187 75.1606 40.0782 75.4144 40.1872C75.6681 40.2962 75.9416 40.3524 76.2179 40.3524C76.4943 40.3524 76.7677 40.2962 77.0215 40.1872C77.2752 40.0782 77.5038 39.9187 77.6934 39.7186C78.1031 39.2694 78.3177 38.6771 78.2903 38.071C78.3166 37.4685 78.1019 36.8801 77.6934 36.4347C77.5056 36.2316 77.2775 36.0694 77.0236 35.9585C76.7696 35.8476 76.4953 35.7903 76.2179 35.7903C75.9406 35.7903 75.6662 35.8476 75.4123 35.9585C75.1583 36.0694 74.9302 36.2316 74.7425 36.4347C74.3339 36.8801 74.1193 37.4685 74.1455 38.071ZM86.0675 41.2316H84.9412V40.3518H84.8848C84.6835 40.6807 84.3952 40.9483 84.0514 41.1252C83.6941 41.3266 83.2906 41.4328 82.88 41.4334C82.5507 41.4546 82.2206 41.4067 81.9111 41.2928C81.6017 41.1789 81.3197 41.0015 81.0836 40.7721C80.6374 40.2469 80.4133 39.5699 80.4585 38.8836V34.9216H81.6467V38.8107C81.6219 39.0213 81.6456 39.2347 81.716 39.4348C81.7865 39.6348 81.9018 39.8163 82.0532 39.9654C82.2047 40.1145 82.3883 40.2273 82.5901 40.2952C82.7919 40.3631 83.0066 40.3844 83.2179 40.3574C83.446 40.3614 83.6718 40.3128 83.878 40.2156C84.0841 40.1184 84.2648 39.9752 84.4062 39.797C84.7274 39.4121 84.8975 38.9243 84.8848 38.4241V34.9216H86.0787L86.0675 41.2316ZM90.0996 41.4334C89.6943 41.4333 89.2938 41.3461 88.9254 41.1778C88.5571 41.0096 88.2296 40.7641 87.9653 40.4583C87.3737 39.8038 87.0519 38.9513 87.0642 38.071C87.0449 37.1953 87.3587 36.3447 87.9428 35.6894C88.205 35.3808 88.532 35.1331 88.9007 34.9636C89.2694 34.7942 89.671 34.7072 90.0771 34.7087C90.5213 34.7012 90.9605 34.8032 91.3555 35.0057C91.7173 35.1832 92.0246 35.4541 92.2452 35.7902H92.2959L92.2678 34.9216V32.002H93.456V41.2316H92.3297V40.3518H92.279C92.0584 40.6879 91.7511 40.9589 91.3892 41.1364C90.9909 41.3406 90.5476 41.4427 90.0996 41.4334ZM90.2967 40.3518C90.5686 40.3606 90.8388 40.3082 91.0875 40.1985C91.3361 40.0889 91.5567 39.9248 91.7328 39.7186C92.1266 39.262 92.3284 38.6719 92.2959 38.071C92.3231 37.4743 92.1219 36.8895 91.7328 36.4347C91.5573 36.227 91.3371 36.0613 91.0885 35.9497C90.8399 35.8382 90.5693 35.7837 90.2967 35.7902C90.0245 35.786 89.7547 35.8416 89.5065 35.953C89.2582 36.0644 89.0378 36.2289 88.8607 36.4347C88.4716 36.8895 88.2703 37.4743 88.2975 38.071C88.2663 38.6683 88.468 39.2545 88.8607 39.7074C89.0378 39.9132 89.2582 40.0776 89.5065 40.189C89.7547 40.3004 90.0245 40.356 90.2967 40.3518Z" fill="white"/>
<path d="M20.8873 41.4342C19.486 41.4388 18.1392 40.8938 17.1389 39.9173C16.1386 38.9407 15.5652 37.6113 15.543 36.217C15.5652 34.8227 16.1386 33.4932 17.1389 32.5167C18.1392 31.5401 19.486 30.9951 20.8873 30.9997C21.555 30.9887 22.2183 31.1103 22.8381 31.3576C23.458 31.605 24.022 31.9729 24.4971 32.4399L23.4778 33.443C22.7828 32.7771 21.852 32.4106 20.8873 32.4231C20.3878 32.4216 19.8929 32.5189 19.4316 32.7095C18.9702 32.9 18.5515 33.1799 18.1999 33.533C17.8483 33.886 17.5707 34.3051 17.3833 34.7659C17.196 35.2267 17.1026 35.7199 17.1085 36.217C17.1026 36.714 17.196 37.2073 17.3833 37.668C17.5707 38.1288 17.8483 38.5479 18.1999 38.901C18.5515 39.254 18.9702 39.5339 19.4316 39.7245C19.8929 39.915 20.3878 40.0124 20.8873 40.0108C21.3794 40.0309 21.8702 39.948 22.3281 39.7675C22.7859 39.587 23.2006 39.3129 23.5454 38.9629C24.0049 38.4697 24.2811 37.835 24.3281 37.164H20.8873V35.7462H25.7304C25.7832 36.0403 25.8077 36.3386 25.8036 36.6373C25.8417 37.8671 25.3928 39.0625 24.5534 39.966C24.081 40.4543 23.5102 40.8376 22.8783 41.0906C22.2464 41.3437 21.5679 41.4608 20.8873 41.4342Z" fill="#4285F4"/>
<path d="M33.2929 38.0717C33.3114 38.52 33.2386 38.9673 33.079 39.3869C32.9194 39.8065 32.6762 40.1896 32.364 40.5133C32.0518 40.8369 31.6771 41.0945 31.2624 41.2704C30.8476 41.4463 30.4014 41.537 29.9506 41.537C29.4998 41.537 29.0536 41.4463 28.6388 41.2704C28.2241 41.0945 27.8494 40.8369 27.5372 40.5133C27.225 40.1896 26.9818 39.8065 26.8222 39.3869C26.6625 38.9673 26.5898 38.52 26.6083 38.0717C26.5898 37.6235 26.6625 37.1761 26.8222 36.7566C26.9818 36.337 27.225 35.9539 27.5372 35.6302C27.8494 35.3065 28.2241 35.049 28.6388 34.8731C29.0536 34.6971 29.4998 34.6064 29.9506 34.6064C30.4014 34.6064 30.8476 34.6971 31.2624 34.8731C31.6771 35.049 32.0518 35.3065 32.364 35.6302C32.6762 35.9539 32.9194 36.337 33.079 36.7566C33.2386 37.1761 33.3114 37.6235 33.2929 38.0717ZM31.8287 38.0717C31.8535 37.8114 31.8235 37.5488 31.7404 37.3007C31.6573 37.0526 31.523 36.8246 31.3462 36.6311C31.1694 36.4377 30.9539 36.2831 30.7136 36.1773C30.4733 36.0716 30.2134 36.017 29.9506 36.017C29.6878 36.017 29.4279 36.0716 29.1876 36.1773C28.9473 36.2831 28.7318 36.4377 28.555 36.6311C28.3782 36.8246 28.2439 37.0526 28.1608 37.3007C28.0777 37.5488 28.0476 37.8114 28.0725 38.0717C28.0476 38.3321 28.0777 38.5947 28.1608 38.8428C28.2439 39.0908 28.3782 39.3189 28.555 39.5123C28.7318 39.7058 28.9473 39.8604 29.1876 39.9661C29.4279 40.0719 29.6878 40.1265 29.9506 40.1265C30.2134 40.1265 30.4733 40.0719 30.7136 39.9661C30.9539 39.8604 31.1694 39.7058 31.3462 39.5123C31.523 39.3189 31.6573 39.0908 31.7404 38.8428C31.8235 38.5947 31.8535 38.3321 31.8287 38.0717Z" fill="#EA4335"/>
<path d="M40.789 38.0717C40.8075 38.52 40.7347 38.9673 40.5751 39.3869C40.4155 39.8065 40.1723 40.1896 39.8601 40.5133C39.5479 40.8369 39.1732 41.0945 38.7584 41.2704C38.3437 41.4463 37.8975 41.537 37.4467 41.537C36.9958 41.537 36.5497 41.4463 36.1349 41.2704C35.7202 41.0945 35.3455 40.8369 35.0333 40.5133C34.7211 40.1896 34.4779 39.8065 34.3183 39.3869C34.1586 38.9673 34.0859 38.52 34.1044 38.0717C34.0859 37.6235 34.1586 37.1761 34.3183 36.7566C34.4779 36.337 34.7211 35.9539 35.0333 35.6302C35.3455 35.3065 35.7202 35.049 36.1349 34.8731C36.5497 34.6971 36.9958 34.6064 37.4467 34.6064C37.8975 34.6064 38.3437 34.6971 38.7584 34.8731C39.1732 35.049 39.5479 35.3065 39.8601 35.6302C40.1723 35.9539 40.4155 36.337 40.5751 36.7566C40.7347 37.1761 40.8075 37.6235 40.789 38.0717ZM39.3248 38.0717C39.3449 37.8138 39.3111 37.5544 39.2257 37.3101C39.1403 37.0657 39.005 36.8415 38.8284 36.6516C38.6518 36.4617 38.4376 36.3102 38.1994 36.2066C37.9611 36.103 37.7039 36.0495 37.4439 36.0495C37.1839 36.0495 36.9266 36.103 36.6884 36.2066C36.4501 36.3102 36.236 36.4617 36.0593 36.6516C35.8827 36.8415 35.7474 37.0657 35.662 37.3101C35.5766 37.5544 35.5429 37.8138 35.5629 38.0717C35.5429 38.3297 35.5766 38.589 35.662 38.8334C35.7474 39.0778 35.8827 39.302 36.0593 39.4919C36.236 39.6818 36.4501 39.8333 36.6884 39.9369C36.9266 40.0405 37.1839 40.094 37.4439 40.094C37.7039 40.094 37.9611 40.0405 38.1994 39.9369C38.4376 39.8333 38.6518 39.6818 38.8284 39.4919C39.005 39.302 39.1403 39.0778 39.2257 38.8334C39.3111 38.589 39.3449 38.3297 39.3248 38.0717Z" fill="#FBBC04"/>
<path d="M48.0944 34.9223V40.9522C48.0944 43.4291 46.6133 44.449 44.8676 44.449C44.2251 44.4525 43.5961 44.2658 43.0606 43.9125C42.525 43.5593 42.1072 43.0555 41.8603 42.4652L43.1612 41.9048C43.2923 42.2484 43.5227 42.5457 43.8234 42.7591C44.1241 42.9725 44.4815 43.0926 44.8507 43.1041C45.977 43.1041 46.664 42.4148 46.664 41.1315V40.6496H46.6302C46.405 40.9025 46.1271 41.1037 45.8159 41.2392C45.5048 41.3746 45.1677 41.4411 44.8281 41.4341C43.932 41.4341 43.0725 41.0799 42.4389 40.4493C41.8052 39.8187 41.4492 38.9635 41.4492 38.0717C41.4492 37.18 41.8052 36.3248 42.4389 35.6942C43.0725 35.0636 43.932 34.7094 44.8281 34.7094C45.1665 34.7032 45.5024 34.7689 45.8131 34.9023C46.1239 35.0357 46.4025 35.2336 46.6302 35.4827H46.6809V34.9223H48.0944ZM46.7823 38.0942C46.803 37.8401 46.772 37.5845 46.6914 37.3425C46.6107 37.1006 46.482 36.8773 46.3128 36.6859C46.1436 36.4945 45.9374 36.339 45.7065 36.2286C45.4756 36.1181 45.2248 36.0551 44.9689 36.0431C44.709 36.0524 44.4536 36.1131 44.2175 36.2217C43.9814 36.3302 43.7694 36.4844 43.5938 36.6753C43.4182 36.8662 43.2826 37.09 43.1948 37.3336C43.1069 37.5772 43.0687 37.8357 43.0824 38.0942C43.0703 38.3508 43.1098 38.6073 43.1985 38.8487C43.2872 39.09 43.4233 39.3113 43.599 39.4997C43.7746 39.688 43.9862 39.8397 44.2215 39.9457C44.4567 40.0517 44.7108 40.11 44.9689 40.1172C45.2238 40.1082 45.4742 40.0478 45.7049 39.9398C45.9357 39.8318 46.1421 39.6784 46.3116 39.4887C46.481 39.2991 46.6101 39.0773 46.691 38.8366C46.772 38.596 46.803 38.3415 46.7823 38.0886V38.0942Z" fill="#4285F4"/>
<path d="M50.7016 31.3584V41.2325H49.2148V31.3584H50.7016Z" fill="#34A853"/>
<path d="M56.5585 39.181L57.7186 39.9656C57.4088 40.4256 56.9898 40.8023 56.4986 41.0623C56.0073 41.3224 55.4592 41.4577 54.9028 41.4562C54.4602 41.4625 54.0209 41.3794 53.6115 41.2119C53.2021 41.0443 52.8312 40.7959 52.5211 40.4816C52.211 40.1672 51.9682 39.7935 51.8075 39.3831C51.6467 38.9727 51.5713 38.5341 51.5858 38.0939C51.5199 37.337 51.7362 36.5825 52.1934 35.9741C52.6506 35.3658 53.3168 34.9461 54.065 34.7951C54.8132 34.6441 55.5911 34.7724 56.2503 35.1555C56.9096 35.5385 57.4041 36.1496 57.6397 36.8722L57.7918 37.2589L53.2866 39.1138C53.4269 39.4278 53.6586 39.6928 53.9517 39.8745C54.2448 40.0563 54.5858 40.1466 54.931 40.1337C55.2614 40.1263 55.5844 40.0348 55.8693 39.8681C56.1541 39.7013 56.3914 39.4648 56.5585 39.181ZM53.005 37.9706L56.0347 36.7265C55.9135 36.5033 55.7298 36.32 55.5058 36.1986C55.2819 36.0773 55.0275 36.0232 54.7733 36.0428C54.5299 36.0536 54.291 36.1121 54.0704 36.2149C53.8497 36.3176 53.6516 36.4627 53.4873 36.6418C53.3231 36.8208 53.1959 37.0304 53.1132 37.2584C53.0304 37.4864 52.9936 37.7284 53.005 37.9706Z" fill="#EA4335"/>
</g>
<defs>
<clipPath id="clip0_2955_13211">
<rect width="77.9122" height="13.4483" fill="white" transform="translate(15.543 30.999)"/>
</clipPath>
</defs>
</svg>
