<svg width="81" height="49" viewBox="0 0 81 49" fill="none" xmlns="http://www.w3.org/2000/svg">
<path d="M71.6972 28.7886H70.6742V30.5647H69.4827V28.7886H66.0317V27.8444L69.4715 22.5049H70.6742V27.7769H71.6972V28.7886ZM69.4827 25.5962C69.4827 25.4163 69.4827 25.244 69.4827 25.0791C69.4902 24.9142 69.4977 24.7569 69.5052 24.607C69.5127 24.4496 69.5164 24.3072 69.5164 24.1798C69.5239 24.0449 69.5314 23.925 69.5389 23.8201H69.4939C69.434 23.97 69.3628 24.1236 69.2804 24.281C69.2054 24.4384 69.1305 24.577 69.0555 24.6969L67.1671 27.7769H69.4827V25.5962ZM72.5747 29.9015C72.5747 29.6092 72.6459 29.4031 72.7882 29.2832C72.9381 29.1633 73.1217 29.1034 73.339 29.1034C73.5489 29.1034 73.7287 29.1633 73.8786 29.2832C74.036 29.4031 74.1147 29.6092 74.1147 29.9015C74.1147 30.1937 74.036 30.4036 73.8786 30.531C73.7287 30.6584 73.5489 30.7221 73.339 30.7221C73.1217 30.7221 72.9381 30.6584 72.7882 30.531C72.6459 30.4036 72.5747 30.1937 72.5747 29.9015ZM77.8331 22.4262C78.2827 22.4262 78.6799 22.5012 79.0246 22.651C79.3768 22.7934 79.6504 23.007 79.8452 23.2918C80.0475 23.5766 80.1487 23.9325 80.1487 24.3597C80.1487 24.6819 80.085 24.9629 79.9576 25.2027C79.8377 25.4426 79.6691 25.6561 79.4518 25.8435C79.2419 26.0233 79.0096 26.1807 78.7548 26.3156C79.0471 26.473 79.3169 26.6528 79.5642 26.8552C79.8115 27.05 80.0101 27.2786 80.1599 27.5409C80.3173 27.8032 80.396 28.1179 80.396 28.4851C80.396 28.9347 80.2911 29.3244 80.0813 29.6542C79.8789 29.9764 79.5867 30.2275 79.2045 30.4073C78.8223 30.5872 78.3689 30.6771 77.8443 30.6771C77.2823 30.6771 76.8064 30.5909 76.4167 30.4186C76.0345 30.2462 75.746 30.0026 75.5511 29.6879C75.3563 29.3657 75.2589 28.976 75.2589 28.5188C75.2589 28.1516 75.3263 27.8331 75.4612 27.5634C75.6036 27.2936 75.7872 27.0613 76.012 26.8664C76.2443 26.6716 76.4991 26.5067 76.7764 26.3718C76.5366 26.2219 76.3193 26.0533 76.1244 25.866C75.9296 25.6711 75.776 25.45 75.6636 25.2027C75.5586 24.9554 75.5062 24.6707 75.5062 24.3484C75.5062 23.9288 75.6074 23.5803 75.8097 23.303C76.012 23.0183 76.2893 22.8009 76.6415 22.651C76.9937 22.5012 77.3909 22.4262 77.8331 22.4262ZM76.4279 28.4964C76.4279 28.8636 76.5441 29.1671 76.7764 29.4069C77.0087 29.6392 77.3572 29.7553 77.8218 29.7553C78.1366 29.7553 78.3951 29.7029 78.5975 29.598C78.7998 29.4856 78.9534 29.3357 79.0583 29.1483C79.1707 28.9535 79.2269 28.7324 79.2269 28.4851C79.2269 28.2378 79.167 28.0205 79.0471 27.8331C78.9272 27.6458 78.7623 27.4809 78.5525 27.3385C78.3502 27.1887 78.1178 27.0538 77.8555 26.9339L77.7094 26.8664C77.4396 26.9938 77.2073 27.1362 77.0125 27.2936C76.8251 27.4509 76.679 27.627 76.5741 27.8219C76.4767 28.0167 76.4279 28.2416 76.4279 28.4964ZM77.8106 23.3592C77.4808 23.3592 77.2073 23.4492 76.99 23.629C76.7802 23.8089 76.6752 24.0712 76.6752 24.4159C76.6752 24.6632 76.7277 24.873 76.8326 25.0454C76.945 25.2177 77.0874 25.3676 77.2598 25.495C77.4396 25.6149 77.6345 25.7311 77.8443 25.8435C78.0541 25.7386 78.2415 25.6262 78.4064 25.5063C78.5787 25.3789 78.7136 25.229 78.811 25.0566C78.9159 24.8768 78.9684 24.6632 78.9684 24.4159C78.9684 24.0712 78.8597 23.8089 78.6424 23.629C78.4326 23.4492 78.1553 23.3592 77.8106 23.3592Z" fill="white"/>
<path d="M2.58897 2.75752C3.09023 2.75752 3.50406 2.82455 3.83047 2.95861C4.15687 3.09266 4.39876 3.29375 4.55614 3.56187C4.71934 3.82416 4.80094 4.15639 4.80094 4.55857C4.80094 4.87915 4.74557 5.15018 4.63482 5.37167C4.52991 5.58733 4.39002 5.7651 4.21516 5.90499C4.04613 6.03905 3.86253 6.14688 3.66435 6.22848L5.31677 9H4.21516L2.82503 6.47328H1.87204V9H0.901573V2.75752H2.58897ZM2.54525 3.56187H1.87204V5.68641H2.56274C2.84834 5.68641 3.08149 5.64561 3.26218 5.56401C3.44869 5.48241 3.58567 5.36001 3.6731 5.19681C3.76635 5.0336 3.81298 4.83252 3.81298 4.59354C3.81298 4.34291 3.76635 4.14474 3.6731 3.99902C3.58567 3.84747 3.44578 3.73673 3.25343 3.66679C3.06692 3.59684 2.83086 3.56187 2.54525 3.56187ZM7.83134 4.20011C8.38506 4.20011 8.80181 4.33125 9.08158 4.59354C9.36718 4.85 9.50999 5.25509 9.50999 5.80881V9H8.83678L8.65317 8.34428H8.6182C8.48414 8.51331 8.35008 8.6532 8.21603 8.76394C8.0878 8.87468 7.93625 8.95629 7.76139 9.00874C7.59236 9.0612 7.38253 9.08743 7.1319 9.08743C6.86961 9.08743 6.63355 9.03789 6.42372 8.9388C6.21389 8.83388 6.04777 8.67651 5.92537 8.46668C5.80297 8.25102 5.74176 7.9829 5.74176 7.66232C5.74176 7.18438 5.9108 6.82009 6.24886 6.56945C6.59275 6.31882 7.11441 6.18185 7.81385 6.15853L8.56575 6.1323V5.87002C8.56575 5.5203 8.49289 5.27549 8.34717 5.13561C8.20728 4.99572 8.00911 4.92577 7.75265 4.92577C7.53699 4.92577 7.32424 4.96075 7.11441 5.03069C6.90458 5.10063 6.70058 5.18515 6.5024 5.28424L6.21389 4.61103C6.42955 4.49445 6.67435 4.39828 6.94829 4.32251C7.22807 4.24091 7.52242 4.20011 7.83134 4.20011ZM7.99745 6.75306C7.5195 6.77637 7.18727 6.86671 7.00075 7.02409C6.81424 7.17563 6.72098 7.39129 6.72098 7.67107C6.72098 7.91587 6.78509 8.09365 6.91332 8.20439C7.04738 8.31513 7.21933 8.37051 7.42916 8.37051C7.74973 8.37051 8.01785 8.2685 8.23351 8.0645C8.455 7.8605 8.56575 7.5545 8.56575 7.14649V6.73557L7.99745 6.75306ZM12.4819 8.33553C12.6043 8.33553 12.7238 8.32388 12.8404 8.30056C12.9569 8.27725 13.059 8.25102 13.1464 8.22188V8.92131C13.0473 8.96794 12.9161 9.00583 12.7529 9.03497C12.5956 9.06994 12.4295 9.08743 12.2546 9.08743C12.0098 9.08743 11.7854 9.04371 11.5814 8.95629C11.3774 8.86886 11.2142 8.71731 11.0918 8.50165C10.9694 8.28599 10.9082 7.98582 10.9082 7.60112V4.99572H10.3049V4.57606L10.9519 4.22634L11.2754 3.22964H11.8612V4.28754H13.1114V4.99572H11.8612V7.58364C11.8612 7.8401 11.9194 8.02953 12.036 8.15193C12.1526 8.27433 12.3012 8.33553 12.4819 8.33553ZM15.8059 4.20011C16.1964 4.20011 16.5345 4.28754 16.8201 4.4624C17.1057 4.63143 17.3242 4.87623 17.4758 5.19681C17.6332 5.51738 17.7119 5.89624 17.7119 6.33339V6.84049H14.748C14.7596 7.32426 14.8762 7.69438 15.0977 7.95084C15.3192 8.2073 15.631 8.33553 16.0332 8.33553C16.3188 8.33553 16.5724 8.30931 16.7938 8.25685C17.0212 8.19856 17.2514 8.11405 17.4845 8.0033V8.77268C17.263 8.8776 17.0357 8.95629 16.8026 9.00874C16.5753 9.0612 16.2984 9.08743 15.972 9.08743C15.5465 9.08743 15.1676 8.99709 14.8354 8.8164C14.5032 8.63571 14.2438 8.36759 14.0573 8.01204C13.8708 7.65067 13.7775 7.20769 13.7775 6.68311C13.7775 6.1527 13.862 5.7039 14.0311 5.33669C14.2001 4.96949 14.4362 4.68971 14.7392 4.49737C15.0482 4.29919 15.4037 4.20011 15.8059 4.20011ZM15.8059 4.91703C15.5086 4.91703 15.2696 5.02486 15.089 5.24052C14.9083 5.45618 14.8034 5.76219 14.7742 6.15853H16.7764C16.7764 5.91373 16.7414 5.69807 16.6714 5.51155C16.6015 5.32504 16.4937 5.17932 16.3479 5.0744C16.2081 4.96949 16.0274 4.91703 15.8059 4.91703ZM24.8646 6.6394C24.8646 7.02992 24.815 7.37672 24.7159 7.67981C24.6168 7.9829 24.474 8.23936 24.2875 8.44919C24.1068 8.65902 23.8853 8.81931 23.6231 8.93006C23.3608 9.03497 23.0664 9.08743 22.74 9.08743C22.4428 9.08743 22.1659 9.03497 21.9094 8.93006C21.653 8.81931 21.4315 8.65902 21.245 8.44919C21.0585 8.23936 20.9127 7.9829 20.8078 7.67981C20.7087 7.37672 20.6592 7.027 20.6592 6.63065C20.6592 6.1119 20.7437 5.67184 20.9127 5.31047C21.0818 4.94909 21.3237 4.67514 21.6384 4.48863C21.959 4.29628 22.3378 4.20011 22.775 4.20011C23.183 4.20011 23.5444 4.29628 23.8591 4.48863C24.1739 4.67514 24.4187 4.94909 24.5935 5.31047C24.7742 5.67184 24.8646 6.11482 24.8646 6.6394ZM21.6384 6.6394C21.6384 6.98912 21.6763 7.29221 21.7521 7.54867C21.8337 7.7993 21.9561 7.99164 22.1193 8.1257C22.2883 8.25976 22.501 8.32679 22.7575 8.32679C23.0198 8.32679 23.2325 8.25976 23.3957 8.1257C23.5648 7.99164 23.6872 7.7993 23.7629 7.54867C23.8445 7.29221 23.8853 6.98912 23.8853 6.6394C23.8853 6.27802 23.8445 5.97493 23.7629 5.73013C23.6813 5.48532 23.5589 5.29881 23.3957 5.17058C23.2325 5.03652 23.0169 4.96949 22.7488 4.96949C22.3582 4.96949 22.0756 5.11521 21.9007 5.40664C21.7258 5.69807 21.6384 6.10899 21.6384 6.6394ZM28.2496 4.20011C28.7625 4.20011 29.1559 4.33708 29.4299 4.61103C29.7097 4.88497 29.8496 5.32504 29.8496 5.93122V9H28.9053V6.06236C28.9053 5.69516 28.8325 5.42121 28.6867 5.24052C28.5469 5.054 28.3283 4.96075 28.031 4.96075C27.5939 4.96075 27.2937 5.10355 27.1305 5.38915C26.9673 5.67476 26.8857 6.08568 26.8857 6.62191V9H25.9414V4.28754H26.6846L26.8157 4.91703H26.8682C26.9673 4.75383 27.0868 4.61977 27.2267 4.51485C27.3666 4.40994 27.5239 4.33125 27.6988 4.27879C27.8736 4.22634 28.0572 4.20011 28.2496 4.20011Z" fill="white"/>
<path d="M16.0955 13.3293H18.943V30.9539H16.0955V13.3293Z" fill="white"/>
<path d="M28.8462 25.3724C28.8462 28.103 26.6177 28.3512 25.8748 28.3512C24.1415 28.3512 23.8939 26.7377 23.8939 25.8689V19.0424H21.0463V25.7448C21.0463 27.3583 21.5416 28.8477 22.532 29.7165C23.3987 30.5853 24.5129 30.9577 25.8748 30.9577C26.8653 30.9577 28.1034 30.7095 28.8462 29.9648V30.9577H31.6938V19.0424H28.8462V25.3724Z" fill="white"/>
<path d="M37.2676 14.6944H34.42V19.0385H32.3152V21.7691H34.42V30.9538H37.2676V21.7691H39.3723V19.0385H37.2676V14.6944Z" fill="white"/>
<path d="M48.2909 27.3517C47.6719 27.8482 46.8052 28.2206 45.9386 28.2206C43.9577 28.2206 42.5958 26.7311 42.5958 24.7453C42.5958 22.7594 43.9577 21.3941 45.9386 21.3941C46.8052 21.3941 47.6719 21.6423 48.2909 22.2629L48.6624 22.6353L50.6433 20.7735L50.1481 20.4012C49.0338 19.4082 47.5481 18.7876 45.9386 18.7876C42.472 18.7876 39.872 21.3941 39.872 24.8694C39.872 28.3447 42.472 30.9511 45.9386 30.9511C47.5481 30.9511 49.0338 30.3306 50.1481 29.3376L50.6433 28.9653L48.6624 26.9794L48.2909 27.3517Z" fill="white"/>
<path d="M60.6692 20.0316C59.8026 19.1628 58.9359 18.7904 57.574 18.7904C56.5836 18.7904 55.5931 19.0387 54.8503 19.7834V13.3293H52.0027V30.9539H54.8503V24.3757C54.8503 21.6451 56.7074 21.3969 57.4502 21.3969C59.1835 21.3969 59.0597 23.0104 59.0597 23.8792V30.8298H61.9073V24.0034C61.9073 22.3898 61.5359 20.9004 60.6692 20.0316Z" fill="white"/>
<path d="M45.8054 26.8568C46.8994 26.8568 47.7863 25.9677 47.7863 24.8709C47.7863 23.7741 46.8994 22.885 45.8054 22.885C44.7114 22.885 43.8245 23.7741 43.8245 24.8709C43.8245 25.9677 44.7114 26.8568 45.8054 26.8568Z" fill="#EF4335"/>
<path d="M12.1332 26.6096C11.1427 27.6025 9.657 28.2231 8.0475 28.2231C4.95231 28.2231 2.72377 25.7407 2.72377 22.3896C2.72377 19.0384 4.95231 16.556 8.17131 16.556C9.657 16.556 11.1427 17.1766 12.257 18.2937L12.6284 18.666L14.4855 16.8043L14.1141 16.4319C12.5046 14.8184 10.3998 13.9496 8.17131 13.9496C3.46662 13.8255 0 17.549 0 22.3896C0 27.2301 3.46662 30.9537 8.0475 30.9537C10.276 30.9537 12.5046 30.0848 13.9903 28.4713L14.3617 28.099L12.5046 26.2372L12.1332 26.6096Z" fill="white"/>
<path d="M20.7725 38.1047L19.63 40.4355C19.5719 40.5542 19.486 40.6568 19.3798 40.7345C19.2735 40.8123 19.1501 40.8628 19.0201 40.8819L16.4664 41.2557C16.3467 41.2732 16.2343 41.324 16.1418 41.4025C16.0493 41.481 15.9805 41.584 15.9431 41.6998C15.9058 41.8157 15.9013 41.9397 15.9304 42.0579C15.9594 42.1762 16.0208 42.2839 16.1074 42.3688L17.956 44.1833C18.0499 44.2755 18.1201 44.3893 18.1607 44.5149C18.2012 44.6404 18.2109 44.7741 18.1889 44.9042L17.7525 47.4665C17.7322 47.5864 17.7457 47.7097 17.7913 47.8223C17.837 47.935 17.913 48.0325 18.0108 48.1039C18.1086 48.1754 18.2243 48.2178 18.3448 48.2265C18.4653 48.2352 18.5859 48.2098 18.6928 48.1531L20.9771 46.9436C21.0933 46.8821 21.2227 46.8499 21.354 46.8499C21.4853 46.8499 21.6147 46.8821 21.7309 46.9436L24.0152 48.1531C24.1222 48.2098 24.2427 48.2352 24.3632 48.2265C24.4837 48.2178 24.5994 48.1754 24.6972 48.1039C24.795 48.0325 24.8711 47.935 24.9167 47.8223C24.9624 47.7097 24.9758 47.5864 24.9556 47.4665L24.5192 44.9042C24.4971 44.7741 24.5067 44.6404 24.5473 44.5148C24.5879 44.3893 24.6581 44.2755 24.752 44.1833L26.6006 42.3688C26.6873 42.2839 26.7486 42.1762 26.7776 42.0579C26.8067 41.9397 26.8023 41.8157 26.7649 41.6998C26.7275 41.584 26.6587 41.481 26.5662 41.4025C26.4737 41.324 26.3613 41.2732 26.2416 41.2557L23.6869 40.8819C23.5569 40.8628 23.4335 40.8123 23.3272 40.7345C23.221 40.6568 23.1351 40.5542 23.077 40.4355L21.9345 38.1047C21.881 37.9955 21.7982 37.9036 21.6956 37.8393C21.5929 37.775 21.4744 37.741 21.3535 37.741C21.2326 37.741 21.1141 37.775 21.0114 37.8393C20.9088 37.9036 20.826 37.9955 20.7725 38.1047Z" fill="#FFAF00"/>
<path d="M36.6512 38.1037L35.5088 40.4345C35.4506 40.5531 35.3647 40.6557 35.2585 40.7335C35.1522 40.8112 35.0288 40.8618 34.8988 40.8808L32.3441 41.2547C32.2244 41.2721 32.112 41.323 32.0195 41.4015C31.927 41.48 31.8582 41.5829 31.8208 41.6988C31.7834 41.8146 31.779 41.9387 31.8081 42.0569C31.8371 42.1751 31.8984 42.2828 31.9851 42.3678L33.8337 44.1822C33.9276 44.2744 33.9978 44.3882 34.0384 44.5138C34.0789 44.6394 34.0886 44.773 34.0666 44.9032L33.6302 47.4654C33.6099 47.5854 33.6233 47.7086 33.669 47.8213C33.7146 47.9339 33.7907 48.0315 33.8885 48.1029C33.9863 48.1743 34.102 48.2168 34.2225 48.2255C34.343 48.2342 34.4636 48.2087 34.5705 48.1521L36.8548 46.9425C36.971 46.881 37.1004 46.8489 37.2317 46.8489C37.363 46.8489 37.4924 46.881 37.6086 46.9425L39.8929 48.1521C39.9998 48.2087 40.1204 48.2342 40.2409 48.2255C40.3614 48.2168 40.4771 48.1743 40.5749 48.1029C40.6727 48.0315 40.7488 47.9339 40.7944 47.8213C40.8401 47.7086 40.8535 47.5854 40.8332 47.4654L40.3968 44.9032C40.3748 44.773 40.3844 44.6394 40.425 44.5138C40.4656 44.3882 40.5358 44.2744 40.6297 44.1822L42.4783 42.3678C42.565 42.2828 42.6263 42.1751 42.6553 42.0569C42.6844 41.9387 42.68 41.8146 42.6426 41.6988C42.6052 41.5829 42.5364 41.48 42.4439 41.4015C42.3514 41.323 42.239 41.2721 42.1193 41.2547L39.5646 40.8808C39.4346 40.8618 39.3112 40.8112 39.2049 40.7335C39.0987 40.6557 39.0128 40.5531 38.9547 40.4345L37.8122 38.1037C37.7586 37.9948 37.6758 37.9031 37.5733 37.839C37.4707 37.7749 37.3524 37.741 37.2317 37.741C37.111 37.741 36.9927 37.7749 36.8901 37.839C36.7876 37.9031 36.7048 37.9948 36.6512 38.1037Z" fill="#FFAF00"/>
<path d="M52.5332 38.1047L51.3907 40.4355C51.3326 40.5542 51.2467 40.6568 51.1404 40.7345C51.0341 40.8123 50.9107 40.8628 50.7807 40.8819L48.2264 41.2557C48.1067 41.2732 47.9942 41.324 47.9017 41.4025C47.8093 41.481 47.7404 41.584 47.7031 41.6998C47.6657 41.8157 47.6613 41.9397 47.6903 42.0579C47.7194 42.1762 47.7807 42.2839 47.8674 42.3688L49.716 44.1833C49.8098 44.2755 49.8801 44.3893 49.9206 44.5149C49.9612 44.6404 49.9709 44.7741 49.9488 44.9042L49.5124 47.4665C49.4922 47.5864 49.5056 47.7097 49.5513 47.8223C49.5969 47.935 49.6729 48.0325 49.7707 48.1039C49.8686 48.1754 49.9843 48.2178 50.1048 48.2265C50.2253 48.2352 50.3458 48.2098 50.4527 48.1531L52.7371 46.9436C52.8533 46.8821 52.9826 46.8499 53.114 46.8499C53.2453 46.8499 53.3746 46.8821 53.4909 46.9436L55.7752 48.1531C55.8821 48.2098 56.0026 48.2352 56.1231 48.2265C56.2437 48.2178 56.3594 48.1754 56.4572 48.1039C56.555 48.0325 56.631 47.935 56.6767 47.8223C56.7223 47.7097 56.7358 47.5864 56.7155 47.4665L56.2791 44.9042C56.257 44.7741 56.2667 44.6404 56.3073 44.5148C56.3478 44.3893 56.4181 44.2755 56.512 44.1833L58.3605 42.3688C58.4472 42.2839 58.5085 42.1762 58.5376 42.0579C58.5666 41.9397 58.5622 41.8157 58.5249 41.6998C58.4875 41.584 58.4187 41.481 58.3262 41.4025C58.2337 41.324 58.1212 41.2732 58.0015 41.2557L55.4469 40.8819C55.3169 40.8628 55.1934 40.8123 55.0872 40.7345C54.9809 40.6568 54.895 40.5542 54.8369 40.4355L53.6951 38.1047C53.6416 37.9955 53.5589 37.9036 53.4562 37.8393C53.3535 37.775 53.235 37.741 53.1141 37.741C52.9932 37.741 52.8747 37.775 52.7721 37.8393C52.6694 37.9036 52.5866 37.9955 52.5332 38.1047Z" fill="#FFAF00"/>
<path d="M69.5685 38.105L70.711 40.4358C70.7691 40.5544 70.855 40.657 70.9613 40.7348C71.0675 40.8125 71.191 40.8631 71.321 40.8821L73.8753 41.256C73.995 41.2734 74.1075 41.3243 74.1999 41.4028C74.2924 41.4812 74.3613 41.5842 74.3986 41.7001C74.436 41.8159 74.4404 41.9399 74.4114 42.0582C74.3823 42.1764 74.321 42.2841 74.2343 42.369L72.3857 44.1835C72.2919 44.2757 72.2216 44.3895 72.1811 44.5151C72.1405 44.6407 72.1308 44.7743 72.1529 44.9045L72.5893 47.4667C72.6095 47.5866 72.5961 47.7099 72.5504 47.8226C72.5048 47.9352 72.4288 48.0328 72.3309 48.1042C72.2331 48.1756 72.1174 48.2181 71.9969 48.2267C71.8764 48.2354 71.7559 48.21 71.6489 48.1533L69.3646 46.9438C69.2484 46.8823 69.119 46.8501 68.9877 46.8501C68.8564 46.8501 68.7271 46.8823 68.6108 46.9438L66.3265 48.1533C66.2196 48.21 66.0991 48.2354 65.9785 48.2267C65.858 48.2181 65.7423 48.1756 65.6445 48.1042C65.5467 48.0328 65.4707 47.9352 65.425 47.8226C65.3794 47.7099 65.3659 47.5866 65.3862 47.4667L65.8226 44.9045C65.8447 44.7743 65.835 44.6407 65.7944 44.5151C65.7539 44.3895 65.6836 44.2757 65.5897 44.1835L63.7411 42.369C63.6545 42.2841 63.5931 42.1764 63.5641 42.0582C63.5351 41.9399 63.5395 41.8159 63.5768 41.7001C63.6142 41.5842 63.683 41.4812 63.7755 41.4028C63.868 41.3243 63.9804 41.2734 64.1001 41.256L66.6548 40.8821C66.7848 40.8631 66.9082 40.8125 67.0145 40.7348C67.1208 40.657 67.2067 40.5544 67.2648 40.4358L68.4042 38.105C68.4574 37.9951 68.5402 37.9026 68.6432 37.8378C68.7461 37.7731 68.865 37.7387 68.9864 37.7387C69.1077 37.7387 69.2266 37.7731 69.3296 37.8378C69.4325 37.9026 69.5153 37.9951 69.5685 38.105Z" fill="#FFAF00"/>
<path d="M71.6489 48.1536L70.0932 47.3296V39.1743L70.7107 40.4343C70.7688 40.5529 70.8547 40.6555 70.9609 40.7332C71.0672 40.811 71.1906 40.8616 71.3206 40.8806L73.8753 41.2545C73.995 41.2719 74.1075 41.3228 74.1999 41.4012C74.2924 41.4797 74.3613 41.5827 74.3986 41.6986C74.436 41.8144 74.4404 41.9384 74.4114 42.0567C74.3823 42.1749 74.321 42.2826 74.2343 42.3675L72.3857 44.182C72.2919 44.2742 72.2216 44.388 72.1811 44.5136C72.1405 44.6392 72.1308 44.7728 72.1529 44.903L72.5893 47.4652C72.6099 47.5853 72.5967 47.7088 72.5513 47.8217C72.5058 47.9346 72.4298 48.0324 72.3319 48.1041C72.234 48.1758 72.1181 48.2184 71.9974 48.2271C71.8767 48.2359 71.756 48.2104 71.6489 48.1536Z" fill="#FDE3AC"/>
<path d="M4.89123 38.106L3.74874 40.4372C3.69063 40.5558 3.60474 40.6584 3.49848 40.7362C3.39222 40.8139 3.26878 40.8645 3.1388 40.8835L0.584113 41.2574C0.464413 41.2748 0.351951 41.3257 0.259464 41.4042C0.166978 41.4827 0.0981585 41.5856 0.0607963 41.7015C0.0234341 41.8173 0.0190234 41.9414 0.0480609 42.0596C0.0770985 42.1778 0.138434 42.2855 0.225108 42.3705L2.0737 44.1849C2.16757 44.2771 2.2378 44.3909 2.27836 44.5165C2.31892 44.6421 2.32859 44.7757 2.30655 44.9059L1.87015 47.4681C1.84988 47.5881 1.86334 47.7113 1.90899 47.824C1.95464 47.9366 2.03066 48.0342 2.12848 48.1056C2.22629 48.177 2.34199 48.2195 2.46251 48.2282C2.58303 48.2369 2.70354 48.2114 2.81046 48.1548L5.09478 46.9452C5.21102 46.8837 5.34037 46.8516 5.47169 46.8516C5.60301 46.8516 5.73236 46.8837 5.8486 46.9452L8.13292 48.1548C8.23984 48.2114 8.36036 48.2369 8.48088 48.2282C8.60139 48.2195 8.7171 48.177 8.81491 48.1056C8.91272 48.0342 8.98875 47.9366 9.0344 47.824C9.08005 47.7113 9.0935 47.5881 9.07324 47.4681L8.63683 44.9059C8.61476 44.7757 8.62442 44.6421 8.66499 44.5165C8.70555 44.3909 8.7758 44.2771 8.86969 44.1849L10.7183 42.3705C10.805 42.2855 10.8663 42.1778 10.8953 42.0596C10.9244 41.9414 10.9199 41.8173 10.8826 41.7015C10.8452 41.5856 10.7764 41.4827 10.6839 41.4042C10.5914 41.3257 10.479 41.2748 10.3593 41.2574L7.80595 40.8832C7.67597 40.8641 7.55253 40.8136 7.44627 40.7358C7.34001 40.6581 7.25412 40.5555 7.19601 40.4369L6.0535 38.106C6.00006 37.9968 5.9173 37.9047 5.81459 37.8404C5.71188 37.776 5.59333 37.7419 5.47237 37.7419C5.3514 37.7419 5.23285 37.776 5.13015 37.8404C5.02744 37.9047 4.94468 37.9968 4.89123 38.106Z" fill="#FDE3AC"/>
<path d="M6.02303 38.1095L7.16553 40.4403C7.22365 40.5589 7.30954 40.6615 7.41579 40.7393C7.52205 40.817 7.64549 40.8676 7.77548 40.8866L10.3301 41.2605C10.4498 41.278 10.5623 41.3288 10.6548 41.4073C10.7473 41.4858 10.8161 41.5888 10.8535 41.7046C10.8908 41.8204 10.8952 41.9445 10.8662 42.0627C10.8372 42.1809 10.7758 42.2886 10.6892 42.3736L8.84058 44.188C8.74671 44.2803 8.67648 44.394 8.63591 44.5196C8.59535 44.6452 8.58567 44.7788 8.60771 44.909L9.04411 47.4712C9.06438 47.5912 9.05093 47.7144 9.00528 47.8271C8.95963 47.9397 8.88361 48.0373 8.7858 48.1087C8.68798 48.1801 8.57228 48.2226 8.45176 48.2313C8.33125 48.24 8.21072 48.2145 8.1038 48.1579L5.81949 46.9484C5.70325 46.8868 5.5739 46.8547 5.44258 46.8547C5.31126 46.8547 5.18191 46.8868 5.06567 46.9484L2.78135 48.1579C2.67443 48.2145 2.5539 48.24 2.43339 48.2313C2.31287 48.2226 2.19718 48.1801 2.09936 48.1087C2.00155 48.0373 1.92552 47.9397 1.87987 47.8271C1.83423 47.7144 1.82077 47.5912 1.84103 47.4712L2.27744 44.909C2.29951 44.7788 2.28985 44.6452 2.24928 44.5196C2.20872 44.394 2.13847 44.2802 2.04457 44.188L0.195984 42.3736C0.109309 42.2886 0.0479847 42.1809 0.0189472 42.0627C-0.0100904 41.9445 -0.00567967 41.8204 0.0316826 41.7046C0.0690448 41.5888 0.137864 41.4858 0.23035 41.4073C0.322837 41.3288 0.435299 41.278 0.554999 41.2605L3.10968 40.8866C3.23967 40.8676 3.36311 40.817 3.46936 40.7393C3.57562 40.6615 3.66151 40.5589 3.71963 40.4403L4.86212 38.1095C4.91571 38.0006 4.99845 37.9089 5.10101 37.8448C5.20357 37.7807 5.32187 37.7468 5.44258 37.7468C5.56328 37.7468 5.68158 37.7807 5.78415 37.8448C5.88671 37.9089 5.96944 38.0006 6.02303 38.1095Z" fill="#FFAF00"/>
</svg>
