<svg width="25" height="24" viewBox="0 0 25 24" fill="none" xmlns="http://www.w3.org/2000/svg">
<path d="M21.9438 20.9375C21.9438 20.3681 21.713 19.8517 21.339 19.4665C22.1169 19.1276 22.6625 18.3772 22.6625 17.5C22.6625 16.9306 22.4317 16.4142 22.0577 16.029C22.8357 15.6901 23.3813 14.9397 23.3813 14.0625C23.3813 13.4931 23.1505 12.9767 22.7765 12.5915C23.5544 12.2526 24.1 11.5022 24.1 10.625C24.1 9.42643 23.0853 8.4625 21.8438 8.4625H15.8467L16.5525 2.38654L16.5525 2.38654L16.5526 2.38494C16.6335 1.57469 16.0505 0.9 15.196 0.9H13.7582C13.2826 0.9 12.939 1.06069 12.6711 1.32648C12.4081 1.58756 12.2223 1.9462 12.0496 2.33355C12.0495 2.3338 12.0494 2.33405 12.0493 2.3343L9.17494 8.52036L9.17491 8.52035L9.17395 8.52254C8.79236 9.39804 8.35402 9.89641 7.93163 10.1767C7.50986 10.4567 7.09528 10.525 6.75 10.525H6.74789H6.74579H6.74368H6.74158H6.73947H6.73737H6.73526H6.73316H6.73105H6.72895H6.72684H6.72474H6.72263H6.72053H6.71842H6.71632H6.71422H6.71211H6.71001H6.70791H6.7058H6.7037H6.7016H6.6995H6.6974H6.6953H6.6932H6.6911H6.689H6.6869H6.6848H6.6827H6.68061H6.67851H6.67641H6.67432H6.67222H6.67013H6.66804H6.66594H6.66385H6.66176H6.65967H6.65758H6.65549H6.6534H6.65131H6.64922H6.64714H6.64505H6.64296H6.64088H6.6388H6.63671H6.63463H6.63255H6.63047H6.62839H6.62631H6.62424H6.62216H6.62008H6.61801H6.61594H6.61386H6.61179H6.60972H6.60765H6.60559H6.60352H6.60145H6.59939H6.59732H6.59526H6.5932H6.59114H6.58908H6.58703H6.58497H6.58291H6.58086H6.57881H6.57676H6.57471H6.57266H6.57061H6.56857H6.56652H6.56448H6.56244H6.5604H6.55836H6.55632H6.55429H6.55225H6.55022H6.54819H6.54616H6.54413H6.54211H6.54008H6.53806H6.53604H6.53402H6.532H6.52998H6.52797H6.52596H6.52394H6.52194H6.51993H6.51792H6.51592H6.51392H6.51192H6.50992H6.50792H6.50593H6.50393H6.50194H6.49995H6.49796H6.49598H6.494H6.49202H6.49004H6.48806H6.48608H6.48411H6.48214H6.48017H6.4782H6.47624H6.47428H6.47232H6.47036H6.4684H6.46645H6.4645H6.46255H6.4606H6.45866H6.45671H6.45477H6.45283H6.4509H6.44897H6.44703H6.44511H6.44318H6.44126H6.43933H6.43742H6.4355H6.43359H6.43167H6.42976H6.42786H6.42595H6.42405H6.42215H6.42026H6.41836H6.41647H6.41459H6.4127H6.41082H6.40894H6.40706H6.40518H6.40331H6.40144H6.39958H6.39771H6.39585H6.39399H6.39214H6.39028H6.38843H6.38659H6.38474H6.3829H6.38106H6.37923H6.3774H6.37557H6.37374H6.37192H6.3701H6.36828H6.36647H6.36465H6.36285H6.36104H6.35924H6.35744H6.35565H6.35385H6.35206H6.35028H6.3485H6.34672H6.34494H6.34317H6.3414H6.33963H6.33787H6.33611H6.33435H6.3326H6.33085H6.3291H6.32736H6.32562H6.32388H6.32215H6.32042H6.31869H6.31697H6.31525H6.31354H6.31183H6.31012H6.30841H6.30671H6.30502H6.30332H6.30163H6.29995H6.29826H6.29659H6.29491H6.29324H6.29157H6.28991H6.28825H6.28659H6.28494H6.28329H6.28164H6.28H6.27837H6.27673H6.2751H6.27348H6.27186H6.27024H6.26862H6.26701H6.26541H6.26381H6.26221H6.26062H6.25903H6.25744H6.25586H6.25428H6.25271H6.25114H6.24958H6.24801H6.24646H6.24491H6.24336H6.24181H6.24027H6.23874H6.23721H6.23568H6.23416H6.23264H6.23113H6.22962H6.22811H6.22661H6.22512H6.22363H6.22214H6.22066H6.21918H6.2177H6.21624H6.21477H6.21331H6.21185H6.2104H6.20896H6.20752H6.20608H6.20465H6.20322H6.2018H6.20038H6.19896H6.19755H6.19615H6.19475H6.19336H6.19197H6.19058H6.1892H6.18782H6.18645H6.18509H6.18373H6.18237H6.18102H6.17967H6.17833H6.177H6.17566H6.17434H6.17302H6.1717H6.17039H6.16908H6.16778H6.16649H6.1652H6.16391H6.16263H6.16135H6.16008H6.15882H6.15756H6.1563H6.15505H6.15381H6.15257H6.15134H6.15011H6.14889H6.14767H6.14646H6.14525H6.14405H6.14285H6.14166H6.14048H6.1393H6.13812H6.13695H6.13579H6.13463H6.13348H6.13233H6.13125V9.9375C6.13125 9.11774 5.4393 8.4625 4.59375 8.4625H2.4375C1.59195 8.4625 0.9 9.11774 0.9 9.9375V21.625C0.9 22.444 1.59191 23.1 2.4375 23.1H4.59375C5.43934 23.1 6.13125 22.444 6.13125 21.625V21.0384C6.53434 21.0464 7.36985 21.1282 8.1929 21.9359C9.34212 23.0645 10.7146 23.1 11.4219 23.1H19.6875C20.9291 23.1 21.9438 22.1354 21.9438 20.9375ZM14.9199 8.55102L14.9198 8.55101L14.9196 8.55428C14.8939 8.86585 14.9828 9.0764 15.1549 9.20256C15.318 9.32214 15.5359 9.35 15.7344 9.35H21.8438C22.5866 9.35 23.1812 9.9247 23.1812 10.625C23.1812 11.325 22.5866 11.9 21.8438 11.9H18.25C18.0003 11.9 17.7906 12.0939 17.7906 12.3438C17.7906 12.5928 18.0002 12.7875 18.25 12.7875H21.125C21.8679 12.7875 22.4625 13.3622 22.4625 14.0625C22.4625 14.7625 21.8679 15.3375 21.125 15.3375H17.5312C17.2816 15.3375 17.0719 15.5314 17.0719 15.7812C17.0719 16.0303 17.2815 16.225 17.5312 16.225H20.4062C21.1491 16.225 21.7437 16.7997 21.7437 17.5C21.7437 18.2 21.1491 18.775 20.4062 18.775H16.8125C16.5628 18.775 16.3531 18.9689 16.3531 19.2188C16.3531 19.4678 16.5627 19.6625 16.8125 19.6625H19.6875C20.4304 19.6625 21.025 20.2372 21.025 20.9375C21.025 21.6375 20.4304 22.2125 19.6875 22.2125H11.4219H11.4114C11.0367 22.2126 9.76397 22.2129 8.84765 21.3134C8.2795 20.7556 7.76964 20.463 7.30074 20.3111C6.87337 20.1727 6.48544 20.1532 6.13125 20.1504V11.4125H6.75C7.48235 11.4125 8.09699 11.2746 8.65123 10.8453C9.20169 10.419 9.68162 9.71354 10.1657 8.60295C10.1657 8.60279 10.1658 8.60262 10.1659 8.60245L12.9498 2.41769C13.137 2.03879 13.337 1.7875 13.6683 1.7875H15.0156C15.1909 1.7875 15.3577 1.85111 15.474 1.95539C15.5887 2.05832 15.6536 2.19942 15.635 2.36377L14.9199 8.55102ZM5.2125 21.625C5.2125 21.9451 4.93951 22.2125 4.59375 22.2125H2.4375C2.09174 22.2125 1.81875 21.9451 1.81875 21.625V9.9375C1.81875 9.61706 2.09171 9.35 2.4375 9.35H4.59375C4.93954 9.35 5.2125 9.61706 5.2125 9.9375V21.625Z" fill="#016BE3" stroke="#016BE3" stroke-width="0.2"/>
<path d="M3.51562 19.4625C2.86917 19.4625 2.3375 19.9644 2.3375 20.5938C2.3375 21.2224 2.86913 21.725 3.51562 21.725C4.16212 21.725 4.69375 21.2224 4.69375 20.5938C4.69375 19.9644 4.16208 19.4625 3.51562 19.4625ZM3.51562 20.8375C3.36802 20.8375 3.25625 20.7239 3.25625 20.5938C3.25625 20.463 3.36788 20.35 3.51562 20.35C3.66337 20.35 3.775 20.463 3.775 20.5938C3.775 20.7239 3.66323 20.8375 3.51562 20.8375Z" fill="#016BE3" stroke="#016BE3" stroke-width="0.2"/>
</svg>
