<svg width="23" height="23" viewBox="0 0 23 23" fill="none" xmlns="http://www.w3.org/2000/svg">
<path d="M11.9699 16.415L11.9698 16.4148C11.9387 16.3405 11.8821 16.2692 11.8005 16.2152L11.9699 16.415ZM11.9699 16.415C12.0008 16.4888 12.0078 16.5676 11.9914 16.6436L12.9688 16.8547M11.9699 16.415L11.2955 16.9614M11.2955 16.9614L11.2961 16.9616C11.3921 16.9995 11.5001 17.01 11.6048 16.9902C11.7095 16.9703 11.8001 16.9223 11.8675 16.8584C11.9345 16.7947 11.9751 16.7189 11.9915 16.6431L12.9688 16.8547M11.2955 16.9614C11.1998 16.9237 11.1245 16.8625 11.0744 16.7915L11.0742 16.7912M11.2955 16.9614L11.0742 16.7912M12.9688 16.8547C12.909 17.1313 12.7653 17.3848 12.5559 17.5837L12.8922 16.0286C13.0021 16.2908 13.0286 16.5781 12.9688 16.8547ZM11.0742 16.7912C11.0257 16.7226 11.0017 16.6465 11 16.5719M11.0742 16.7912L11 16.5719M11 16.5719C11.0007 16.5199 11.0116 16.4678 11.0331 16.4183C11.056 16.3658 11.0903 16.316 11.1362 16.2725C11.1827 16.2284 11.2403 16.1913 11.3065 16.1655C11.3715 16.1403 11.442 16.1269 11.5141 16.127C11.6202 16.1297 11.7197 16.1619 11.8003 16.215L11 16.5719ZM11.4861 13.0212L11.486 13.0153L11.2968 6.25944L11.2956 6.21832L11.2911 6.17744C11.2893 6.1612 11.2909 6.14421 11.2968 6.12681L11.2971 6.12604C11.3031 6.10841 11.3139 6.08911 11.3314 6.07046L11.3314 6.07042C11.3491 6.05163 11.3733 6.03382 11.404 6.02065C11.4351 6.00742 11.4702 6 11.5067 6C11.5433 6 11.5784 6.00744 11.6094 6.02065L12.0016 5.10093L11.609 6.0205C11.6399 6.03368 11.6643 6.05156 11.682 6.07042L11.6821 6.07046C11.6996 6.08911 11.7104 6.10841 11.7163 6.12604L11.7166 6.12681C11.7225 6.1442 11.7241 6.1612 11.7223 6.17744L11.7177 6.21932L11.7166 6.26144L11.5409 13.0173L11.4861 13.0212Z" fill="#016BE3" stroke="#016BE3" stroke-width="2"/>
<path d="M22.25 11.5C22.25 17.437 17.437 22.25 11.5 22.25C5.56294 22.25 0.75 17.437 0.75 11.5C0.75 5.56294 5.56294 0.75 11.5 0.75C17.437 0.75 22.25 5.56294 22.25 11.5Z" stroke="#016BE3" stroke-width="1.5" stroke-linecap="round" stroke-linejoin="round"/>
</svg>
