<svg width="32" height="37" viewBox="0 0 32 37" fill="none" xmlns="http://www.w3.org/2000/svg">
<path d="M9.81791 4.52333H17.8448C18.8024 4.52333 19.5885 3.74519 19.5885 2.78432V2.71948C19.5885 1.7645 18.8083 0.980469 17.8448 0.980469H9.81791C8.86036 0.980469 8.07422 1.7586 8.07422 2.71948V2.78432C8.07422 3.74519 8.85445 4.52333 9.81791 4.52333Z" fill="#CFE3F9"/>
<path d="M13.4327 26.436H6.54844V24.2155H14.001C15.372 20.6922 18.7585 18.1933 22.7309 18.1933C24.1429 18.1933 25.4729 18.519 26.674 19.0815V5.2015C26.674 3.84548 25.5901 2.75 24.2484 2.75H21.1138V2.78553C21.1138 4.62712 19.6374 6.12526 17.8094 6.12526H9.8529C8.03076 6.12526 6.54844 4.63304 6.54844 2.78553V2.75H3.41389C2.07219 2.75 0.988281 3.84548 0.988281 5.2015V29.5271C0.988281 30.8831 2.07219 31.9786 3.41389 31.9786H14.376C13.7198 30.6877 13.3448 29.2251 13.3448 27.6736C13.3448 27.2532 13.38 26.8446 13.4327 26.436ZM6.54844 11.9461H21.108V14.1667H6.54844V11.9461ZM6.54844 18.0808H14.2003V20.3014H6.54844V18.0808Z" fill="white"/>
<path d="M28.4552 31.884C29.4676 30.6461 30.0345 29.1015 30.0345 27.4586C30.0345 23.606 26.8991 20.4648 23.0407 20.4648C19.1822 20.4648 16.0469 23.6002 16.0469 27.4586C16.0469 31.3171 19.188 34.4524 23.0407 34.4524C24.6084 34.4524 26.0893 33.9434 27.3272 32.9831C27.3735 32.9484 27.414 32.9021 27.4602 32.8674L31.0005 36.4077L31.9897 35.4185L28.4552 31.884ZM26.4711 31.8782C25.4819 32.6476 24.296 33.0525 23.0407 33.0525C19.9574 33.0525 17.4468 30.5419 17.4468 27.4586C17.4468 24.3754 19.9574 21.8648 23.0407 21.8648C26.124 21.8648 28.6346 24.3754 28.6346 27.4586C28.6346 29.1999 27.842 30.808 26.4711 31.8782Z" fill="#CFE3F9"/>
</svg>
