<svg width="32" height="36" viewBox="0 0 32 36" fill="none" xmlns="http://www.w3.org/2000/svg">
<path d="M9.00541 3.97645H17.0323C17.9899 3.97645 18.776 3.19832 18.776 2.23744V2.1726C18.776 1.21762 17.9958 0.433594 17.0323 0.433594H9.00541C8.04786 0.433594 7.26172 1.21173 7.26172 2.1726V2.23744C7.26172 3.19832 8.04195 3.97645 9.00541 3.97645Z" fill="#CFE3F9"/>
<path d="M12.6202 25.8892H5.73594V23.6686H13.1885C14.5595 20.1453 17.946 17.6464 21.9184 17.6464C23.3304 17.6464 24.6604 17.9721 25.8615 18.5346V4.65463C25.8615 3.2986 24.7776 2.20312 23.4359 2.20312H20.3013V2.23865C20.3013 4.08024 18.8249 5.57839 16.9969 5.57839H9.0404C7.21826 5.57839 5.73594 4.08617 5.73594 2.23865V2.20312H2.60139C1.25969 2.20312 0.175781 3.2986 0.175781 4.65463V28.9802C0.175781 30.3362 1.25969 31.4317 2.60139 31.4317H13.5635C12.9073 30.1408 12.5323 28.6782 12.5323 27.1268C12.5323 26.7063 12.5675 26.2977 12.6202 25.8892ZM5.73594 11.3992H20.2955V13.6198H5.73594V11.3992ZM5.73594 17.5339H13.3878V19.7545H5.73594V17.5339Z" fill="white"/>
<path d="M27.6427 31.3371C28.6551 30.0992 29.222 28.5546 29.222 26.9118C29.222 23.0591 26.0866 19.918 22.2282 19.918C18.3697 19.918 15.2344 23.0533 15.2344 26.9118C15.2344 30.7702 18.3755 33.9056 22.2282 33.9056C23.7959 33.9056 25.2768 33.3965 26.5147 32.4362C26.561 32.4015 26.6015 32.3552 26.6477 32.3205L30.188 35.8608L31.1772 34.8716L27.6427 31.3371ZM25.6586 31.3313C24.6694 32.1007 23.4835 32.5057 22.2282 32.5057C19.1449 32.5057 16.6343 29.9951 16.6343 26.9118C16.6343 23.8285 19.1449 21.3179 22.2282 21.3179C25.3115 21.3179 27.8221 23.8285 27.8221 26.9118C27.8221 28.653 27.0295 30.2612 25.6586 31.3313Z" fill="#CFE3F9"/>
</svg>
