<svg width="131" height="70" viewBox="0 0 131 70" fill="none" xmlns="http://www.w3.org/2000/svg">
<path d="M75.5005 0.634766H69.7905V5.07582H75.5005V0.634766Z" fill="#010066"/>
<path d="M30.9321 9.69992C32.9739 9.69992 33.5715 11.606 33.5715 12.6479H28.0936C28.0936 11.1485 29.1145 9.69992 30.9321 9.69992ZM36.7835 18.4677C36.2108 18.671 35.5883 18.8489 34.9908 18.976C34.2936 19.1284 33.5466 19.2047 32.7996 19.2047C30.3844 19.2047 28.492 18.3914 28.1932 16.4346H38.4767C38.5514 16.0534 38.7008 15.1639 38.7008 14.1982C38.7008 9.77617 36.5345 5.70996 31.0317 5.70996C25.6784 5.70996 22.8398 9.97947 22.8398 14.7827C22.8398 20.2975 26.6246 23.4742 31.9281 23.4742C33.2727 23.4742 34.2438 23.3471 35.0655 23.1946C35.912 23.0167 36.8333 22.7372 37.6052 22.3814L36.7835 18.4677Z" fill="#010066"/>
<path d="M111.909 9.69992C114.033 9.69992 114.68 11.606 114.68 12.6479H108.957C108.957 11.1485 109.993 9.69992 111.909 9.69992ZM117.969 18.4677C117.373 18.671 116.752 18.8489 116.104 18.976C115.379 19.1284 114.602 19.2047 113.825 19.2047C111.314 19.2047 109.346 18.3914 109.035 16.4346H119.704C119.781 16.0534 119.911 15.1639 119.911 14.1982C119.911 9.77617 117.658 5.70996 111.935 5.70996C106.368 5.70996 103.416 9.97947 103.416 14.7827C103.416 20.2975 107.352 23.4742 112.841 23.4742C114.24 23.4742 115.276 23.3471 116.13 23.1946C117.011 23.0167 117.969 22.7372 118.797 22.3814L117.969 18.4677Z" fill="#010066"/>
<path d="M46.9477 0.634766H41.2378V23.4745H46.9477V0.634766Z" fill="#010066"/>
<path d="M58.3817 19.2749C56.5211 19.2749 55.3233 17.4425 55.3233 14.6175C55.3233 12.3525 56.1388 9.96014 58.4072 9.96014C60.599 9.96014 61.3891 12.4543 61.3891 14.5921C61.3636 17.4171 60.1912 19.2749 58.3817 19.2749ZM58.3052 23.4742C62.7399 23.4742 67.2511 20.6747 67.2511 14.4394C67.2511 10.7236 65.0337 5.70996 58.5601 5.70996C51.8826 5.70996 49.4868 10.571 49.4868 14.7193C49.5123 19.9366 53.1314 23.4742 58.3052 23.4742Z" fill="#010066"/>
<path d="M75.5005 6.34375H69.7905V23.4735H75.5005V6.34375Z" fill="#010066"/>
<path d="M79.6019 1.91701V6.45277H77.4009V10.5898H79.6019V17.4184C79.6019 21.1815 81.3678 23.4743 85.3859 23.4743C86.1537 23.4743 86.9983 23.3996 87.7916 23.275C88.5082 23.1753 89.1737 23.0257 89.4552 22.951L89.404 18.5647C89.1992 18.6395 87.9196 18.8389 87.4333 18.8389C86.9727 18.8389 86.2816 18.789 85.7954 18.2906C85.4371 17.9417 85.1811 17.3685 85.1811 16.4713V10.5649H88.8921V6.42785H85.1811V1.26904L79.6019 1.91701Z" fill="#010066"/>
<path d="M92.9256 1.91701V6.45277H90.7246V10.5898H92.9256V17.4184C92.9256 21.1815 94.6915 23.4743 98.7096 23.4743C99.4774 23.4743 100.322 23.3996 101.115 23.275C101.832 23.1753 102.497 23.0257 102.779 22.951L102.728 18.5647C102.549 18.6395 101.243 18.8389 100.757 18.8389C100.296 18.8389 99.6054 18.789 99.1191 18.2906C98.7608 17.9417 98.5049 17.3685 98.5049 16.4713V10.5649H102.216V6.42785H98.5049V1.26904L92.9256 1.91701Z" fill="#010066"/>
<path d="M122.446 20.3021C122.446 18.5625 123.878 17.1299 125.618 17.1299C127.358 17.1299 128.79 18.5369 128.79 20.3021C128.79 22.0672 127.358 23.4743 125.618 23.4743C123.853 23.4743 122.446 22.0417 122.446 20.3021Z" fill="#99CA4A"/>
<path d="M0.632324 23.4742H7.06892C7.50141 23.4742 8.03568 23.4742 8.44274 23.4487C17.2708 22.9904 20.9343 17.7711 20.9343 11.7371C20.9343 4.20091 15.8715 0 7.1198 0C4.85554 0 2.87114 0.0763801 0.657765 0.2546V23.4742H0.632324ZM8.87523 18.8659C8.64626 18.8914 8.29009 18.8914 8.06112 18.8914H6.2548V4.71011C6.86539 4.65919 7.6795 4.60827 8.21377 4.60827C11.5211 4.60827 15.0574 6.74691 15.0574 11.7116C15.032 16.9309 11.6992 18.6622 8.87523 18.8659Z" fill="#010066"/>
<path d="M8.98034 36.3626C9.22732 36.3626 9.47431 36.3878 9.72129 36.3373C10.3387 36.2362 10.2153 35.5288 10.5363 35.5288C10.7833 35.5288 10.7833 36.1099 10.7833 36.8426C10.7833 37.6763 10.7586 38.5859 10.4622 38.5859C10.1165 38.5859 10.1659 37.8027 9.91887 37.449C9.82008 37.2721 9.12853 36.9437 7.37495 36.9437C6.6834 36.9437 6.55991 36.9942 6.55991 38.0806V45.3064C6.55991 46.1402 6.80689 46.2918 7.57254 46.3928C8.04181 46.4686 8.48637 46.4434 8.48637 46.7213C8.48637 46.9487 8.21469 46.9487 8.1159 46.9487C7.57254 46.9487 6.60931 46.8729 5.84366 46.8729C5.12741 46.8729 4.28767 46.9487 3.37383 46.9487L3.07745 46.7718C3.07745 46.4939 3.64551 46.4686 4.06538 46.3928C4.85573 46.216 5.02862 45.9633 5.02862 44.9022V37.7016C5.02862 36.9689 4.90513 36.9437 3.47263 36.9437C1.86724 36.9437 1.22508 38.7122 0.854609 38.7122L0.632324 38.4848C0.632324 38.2574 1.15099 36.8426 1.34857 36.312C1.52146 35.832 1.59556 35.5288 1.84254 35.5288C2.21301 35.5288 1.89194 36.1352 2.48469 36.2362C3.37383 36.3373 4.21357 36.3626 5.07801 36.3626H8.98034Z" fill="#010066"/>
<path d="M9.22577 36.0289V36.3315H9.67516L10.0717 36.3063C10.5211 36.2306 10.759 35.9028 10.8647 35.701L10.9705 35.4741L10.8912 35.3984V35.4993L10.9705 35.4741L10.8912 35.3984V35.4993V35.348L10.8119 35.4741L10.8912 35.4993V35.348L10.8119 35.4741L10.8647 35.3984L10.7854 35.4488L10.8119 35.4741L10.8647 35.3984L10.7854 35.4488L10.8383 35.7767C10.8647 35.9784 10.8647 36.2306 10.8647 36.508C10.8647 36.9115 10.8647 37.3402 10.8119 37.668L10.7326 37.9959V38.0211L10.7854 38.0463L10.759 37.9959L10.7326 38.0211L10.7854 38.0463L10.759 37.9959L10.8383 38.122V37.9707L10.759 37.9959L10.8383 38.122V37.9707V38.0463L10.8912 37.9707L10.8383 37.9454V38.0211L10.8912 37.9454L10.759 37.542L10.5475 36.9115C10.3625 36.6845 10.1246 36.6089 9.64873 36.4576C9.1729 36.3567 8.51203 36.2558 7.53394 36.2558C7.19028 36.2558 6.84663 36.2306 6.58228 36.5332C6.34437 36.8106 6.3708 37.1385 6.34437 37.6933V44.9057C6.34437 45.3596 6.39724 45.6874 6.66159 45.9396C6.92594 46.1918 7.26959 46.2422 7.66611 46.2927C7.93046 46.3179 8.19481 46.3431 8.32698 46.3683L8.43272 46.3935L8.48559 46.3179H8.40629L8.45916 46.3935L8.51203 46.3179H8.40629H8.48559L8.40629 46.3683L8.37985 46.4188H8.45916L8.40629 46.3683L8.48559 46.4188L8.45916 46.3431L8.40629 46.3683L8.48559 46.4188L8.45916 46.3431L8.32698 46.3683C7.79829 46.3683 6.74089 46.2927 5.89498 46.2927C5.10193 46.2927 4.20314 46.3683 3.25149 46.3683V46.6709L3.4101 46.4188L3.09288 46.2422L2.93427 46.4944H3.25149H3.11931L3.22505 46.5449V46.4944H3.11931L3.22505 46.5449L3.17218 46.5196L3.22505 46.5701L3.25149 46.5449L3.19862 46.5196L3.25149 46.5701C3.27792 46.5196 3.72732 46.444 4.0974 46.3935C4.52036 46.2927 4.89045 46.1666 5.12836 45.864C5.33984 45.5361 5.39271 45.1579 5.39271 44.6283V37.4411L5.33984 36.9115C5.26054 36.6341 4.96976 36.4576 4.67897 36.4324C4.38819 36.3819 3.99166 36.3819 3.4101 36.3819C2.43201 36.3819 1.7447 36.8863 1.29531 37.3654C1.05739 37.5924 0.87235 37.8194 0.740176 37.9959L0.581567 38.1472L0.555132 38.1724L0.634437 38.2985V38.1724L0.555132 38.1976L0.634437 38.3237V38.1976V38.5002L0.845915 38.2985L0.634437 38.0715L0.396523 38.2733H0.713741H0.660872H0.713741H0.660872H0.713741C0.713741 38.1976 0.845916 37.7689 1.03096 37.3402C1.18957 36.9115 1.37461 36.4324 1.48035 36.1802C1.58609 35.928 1.63896 35.7262 1.69183 35.6506L1.7447 35.6001L1.71827 35.5497V35.6001H1.7447L1.71827 35.5497V35.6001V35.5245L1.6654 35.6001L1.71827 35.6254V35.5497L1.6654 35.6254L1.7447 35.5245L1.61253 35.6001L1.6654 35.6506L1.7447 35.5497L1.61253 35.6254L1.7447 35.9784C1.82401 36.155 2.06192 36.3315 2.3527 36.3567C3.30436 36.4576 4.25601 36.4828 5.1548 36.4828H9.30507V36.0289V35.7262H5.10193C4.17671 35.7262 3.27792 35.701 2.3527 35.6001L2.29983 35.8776L2.3527 35.6001L2.22053 35.5497L2.14122 35.3228L2.00905 35.0454L1.63896 34.894C1.34818 34.894 1.1367 35.0958 1.05739 35.2723C0.951655 35.4488 0.898785 35.6506 0.819481 35.8776C0.713741 36.1297 0.528697 36.6341 0.343653 37.088C0.264348 37.315 0.185044 37.542 0.105739 37.7185L0 38.1724V38.2985L0.290783 38.6011L0.396523 38.702H0.528697C0.872351 38.6516 0.951655 38.475 1.1367 38.3237C1.58609 37.7941 2.24696 36.9367 3.33079 36.9367C4.0974 36.9367 4.52036 36.9619 4.59967 37.0124L4.65254 37.0628L4.67897 37.4159V44.6031C4.67897 45.1074 4.6261 45.3848 4.52036 45.5109C4.44106 45.637 4.28245 45.7127 3.88593 45.7883C3.67445 45.8387 3.4101 45.864 3.14575 45.9144L2.77566 46.0657L2.53775 46.4692V46.6457L3.01357 46.8979L3.09288 46.9483H3.17218C4.15027 46.9483 5.04906 46.8727 5.81567 46.8727C6.63515 46.8727 7.63968 46.9483 8.24768 46.9483L8.59133 46.8979C8.74994 46.8475 8.96142 46.6457 8.96142 46.4188L8.74994 46.0153C8.40629 45.7883 8.06263 45.8387 7.69255 45.7883C7.29602 45.7379 7.08454 45.6622 7.03167 45.6118C6.95237 45.5361 6.8995 45.41 6.8995 45.0065V37.7941C6.8995 37.2646 6.95237 37.0124 6.9788 37.0124L7.05811 36.9872L7.45463 36.9619C8.37985 36.9619 9.01429 37.0376 9.41081 37.1385L9.83377 37.2898L9.93951 37.3402C10.0188 37.4159 10.0452 37.6933 10.1246 37.9454L10.2832 38.3489L10.759 38.6263C11.0233 38.6263 11.1819 38.4498 11.2348 38.2985C11.4199 37.8698 11.4199 37.2141 11.4199 36.5837C11.4199 36.2054 11.4199 35.8776 11.3934 35.6001L11.2613 35.2219L10.8383 34.9697L10.3889 35.2219L10.1774 35.6001L9.91308 35.7767L9.96595 36.0793L9.91308 35.7767L9.59586 35.8019H9.14646V36.0289H9.22577Z" fill="#010066"/>
<path d="M15.2157 41.3979C15.2157 40.8262 14.6026 40.3737 13.8029 40.3737C12.4434 40.3737 11.6437 41.5408 11.6437 42.0648C11.6437 42.1839 11.697 42.2077 13.2964 42.2077C14.9758 42.2315 15.2157 42.0171 15.2157 41.3979ZM11.4837 42.7317C11.4571 42.827 11.4571 43.0413 11.4571 43.3272C11.4571 44.7324 11.8836 46.1377 14.2027 46.1377C15.6689 46.1377 15.6955 45.447 16.0154 45.447L16.1754 45.5899C16.1754 45.709 15.3757 46.9476 13.4297 46.9476C11.3504 46.9476 10.1509 45.6375 10.1509 43.5177C10.1509 41.9219 11.2438 39.9688 13.5896 39.9688C15.7489 39.9688 16.4952 41.6122 16.4952 42.3506C16.4952 42.6602 16.4419 42.7317 16.1221 42.7317H11.4837Z" fill="#010066"/>
<path d="M14.9214 41.2028H15.241C15.241 40.3729 14.4419 39.7764 13.5363 39.7764C12.7372 39.7764 12.1246 40.1395 11.725 40.5804C11.2988 41.0213 11.0857 41.5141 11.0591 41.9291L11.2189 42.2403C11.4054 42.37 11.5119 42.344 11.7783 42.37C12.0446 42.37 12.4176 42.37 13.0302 42.37C13.8826 42.37 14.3887 42.3181 14.7616 42.1365C15.1611 41.9291 15.2677 41.5141 15.2677 41.1769H14.9214H14.6018C14.5751 41.4881 14.5751 41.5141 14.4153 41.5919C14.2288 41.6956 13.776 41.7734 12.9769 41.7475C12.1778 41.7475 11.7783 41.7475 11.5918 41.7216H11.5119L11.4853 41.7994L11.5385 41.7216H11.5119L11.4853 41.7994L11.5385 41.7216L11.432 41.9291L11.6451 41.8512L11.5385 41.7475L11.432 41.955L11.6451 41.8772L11.4853 41.9291H11.6717V41.8772L11.5119 41.9291H11.6984C11.6984 41.7734 11.8582 41.3325 12.2045 40.9954C12.5241 40.6582 13.0036 40.3729 13.5629 40.3729C14.2288 40.3729 14.655 40.7619 14.655 41.1769H14.9214V41.2028ZM11.1923 42.6553L10.8993 42.5775C10.846 42.785 10.846 42.9924 10.846 43.3037C10.846 44.1077 10.9525 44.9117 11.4054 45.5861C11.8582 46.2604 12.6839 46.6754 13.8826 46.6754C14.655 46.6754 15.1345 46.4679 15.4275 46.2345L15.7205 45.9492L15.7738 45.9232L15.7205 45.8195V45.9492L15.7738 45.9232L15.7205 45.8195V45.9492V45.6379L15.5074 45.8713L15.6672 46.027L15.8803 45.7935H15.5607H15.7471L15.5607 45.7157L15.534 45.7935H15.7205L15.534 45.7157C15.5074 45.7676 15.2943 46.1048 14.9214 46.3901C14.5219 46.6754 13.9358 46.9607 13.0835 46.9607C12.1246 46.9607 11.4054 46.6494 10.9259 46.0788C10.4198 45.5082 10.1534 44.6523 10.1534 43.5371C10.1534 42.7331 10.4198 41.8253 10.9259 41.125C11.4586 40.4248 12.2045 39.9579 13.2699 39.9579C14.2555 39.9579 14.8948 40.347 15.2943 40.8397C15.6939 41.3325 15.8537 41.9291 15.8537 42.2403L15.827 42.3959L15.9336 42.4478L15.907 42.344L15.8537 42.3959L15.9602 42.4478L15.9336 42.344H15.827H10.9525L10.8726 42.5775L11.1923 42.6553V42.9665H15.8004L16.3598 42.759L16.493 42.2403C16.493 41.7734 16.2799 41.0732 15.7738 40.4507C15.2677 39.8282 14.4419 39.3354 13.2699 39.3354C11.9914 39.3354 11.0324 39.932 10.4198 40.7619C9.80716 41.5919 9.51416 42.6034 9.51416 43.5371C9.51416 44.7561 9.80716 45.7417 10.4464 46.4679C11.0591 47.1941 11.9914 47.5831 13.0835 47.5831C14.1489 47.5831 14.8948 47.22 15.4009 46.831C15.6406 46.6235 15.827 46.4419 15.9336 46.2604L16.0934 46.027L16.1467 45.7935V45.6639L15.8803 45.4304L15.8004 45.3526H15.6939L15.2677 45.5601C15.0279 45.7935 14.9214 46.0529 13.9092 46.1048C12.8171 46.1048 12.2844 45.7676 11.9381 45.2748C11.5918 44.782 11.4853 44.0818 11.4853 43.3296C11.4853 43.0443 11.4853 42.7849 11.5119 42.759L11.1923 42.6553V42.9665V42.6553Z" fill="#010066"/>
<path d="M21.0177 39.9688C21.5837 39.9688 22.8388 40.0874 22.8388 40.8233C22.8388 41.1319 22.642 41.2506 22.3466 41.2506C21.6329 41.2506 21.5345 40.3723 20.6239 40.3723C19.7872 40.3723 18.2859 41.2981 18.2859 43.6243C18.2859 45.4996 19.5411 46.2117 20.9438 46.2117C22.0267 46.2117 22.2974 45.8082 22.5189 45.8082L22.6173 45.9506C22.6173 46.2354 21.5591 46.9476 20.3778 46.9476C18.1875 46.9476 17.1293 45.2385 17.1293 43.648C17.1047 41.844 18.3598 39.9688 21.0177 39.9688Z" fill="#010066"/>
<path d="M21.1826 39.6467V39.9579C21.479 39.9579 21.964 39.9839 22.3143 40.1135L22.7185 40.321L22.8532 40.5804L22.8263 40.7101L22.6376 40.7619C22.3951 40.7619 22.2604 40.6323 21.991 40.3729C21.7485 40.1135 21.3443 39.8023 20.7245 39.8023C19.5928 39.8023 17.8414 40.9694 17.8414 43.6408C17.8414 44.7302 18.2186 45.5342 18.8384 46.0529C19.4581 46.5457 20.2395 46.7532 21.0748 46.7532C21.6946 46.7532 22.1257 46.6235 22.4221 46.5197L22.7454 46.3641L22.8263 46.3382L22.7993 46.2345V46.3382H22.8263L22.7993 46.2345V46.3382V46.027L22.5299 46.2085L22.6376 46.3641L22.8802 46.1826H22.5568H22.6646L22.5568 46.1307V46.1826H22.6646L22.5568 46.1307L22.5299 46.1826C22.3143 46.4419 21.3712 46.9607 20.4012 46.9347C18.2186 46.9347 17.1678 45.2489 17.1408 43.6408C17.1678 41.8253 18.3534 39.9579 21.1018 39.932V39.6467V39.3354C19.5659 39.3354 18.4072 39.8801 17.6258 40.7101C16.8714 41.54 16.4941 42.6034 16.4941 43.6668C16.4941 44.6005 16.8175 45.5601 17.4642 46.3123C18.1109 47.0644 19.1078 47.5831 20.3742 47.5831C21.1018 47.5831 21.7485 47.3756 22.2604 47.1163C22.5029 46.9866 22.7185 46.8569 22.8532 46.7272C23.0149 46.5716 23.1227 46.4679 23.1496 46.2085V46.1048L22.9879 45.8713L22.8802 45.7417H22.8263C22.5029 45.7676 22.4221 45.8973 22.1796 45.9751C21.964 46.0788 21.6407 46.1566 21.1018 46.1566C20.3742 46.1566 19.7276 45.9751 19.2695 45.5861C18.8114 45.197 18.4881 44.6005 18.4881 43.6408C18.4881 41.2288 20.024 40.3988 20.7245 40.3988C21.1018 40.3988 21.2904 40.5544 21.5329 40.7879C21.7754 40.9954 22.0718 41.3585 22.6107 41.3585L23.2035 41.1769C23.3921 41.0213 23.4729 40.8138 23.4729 40.5804C23.4729 40.2951 23.3382 40.0357 23.1496 39.8801C22.5838 39.4133 21.6676 39.3614 21.1557 39.3614V39.6467H21.1826Z" fill="#010066"/>
<path d="M26.4508 40.7105L26.5272 40.962C26.7308 40.962 27.4436 39.805 29.0982 39.805C31.2874 39.805 31.3383 41.6664 31.3383 42.2197V45.5149C31.3383 46.2444 31.4656 46.3953 31.8729 46.5211C32.1275 46.5965 32.3311 46.5965 32.3566 46.7474L31.9238 46.9487C31.4402 46.9487 31.0074 46.8732 30.5237 46.8732C30.1419 46.8732 29.6837 46.9487 29.2764 46.9487L28.9964 46.7726C28.9964 46.6217 29.1237 46.6217 29.5055 46.5211C29.8874 46.4204 30.0401 45.9928 30.0401 45.4143V41.8424C30.0401 41.113 29.3782 40.5847 28.4109 40.5847C27.2399 40.5847 26.4763 41.3394 26.4763 42.0437V45.8167C26.4763 46.3198 26.6799 46.4456 27.3672 46.5211C27.7491 46.5462 27.8763 46.5714 27.8763 46.7474L27.5454 46.9487C27.1636 46.9487 26.5272 46.8732 26.0181 46.8732C25.4835 46.8732 24.9235 46.9487 24.3889 46.9487L24.1089 46.7474L24.4144 46.5211C25.1017 46.4456 25.2544 46.0934 25.2544 45.6155V36.9626C25.2544 36.6356 24.3634 36.5601 24.3634 36.3337L24.5162 36.1074L26.1963 35.5288C26.5017 35.5288 26.5017 35.73 26.5017 36.1577V40.7105H26.4508Z" fill="#010066"/>
<path d="M26.3334 40.4552L26.0597 40.531L26.1343 40.7583L26.209 40.9605H26.4329L26.7066 40.8594C27.0549 40.5815 27.652 39.8235 28.9457 39.8235C29.9409 39.8235 30.339 40.2278 30.5878 40.6573C30.8366 41.1121 30.8366 41.6679 30.8366 41.9458V45.2556C30.8366 45.6345 30.8615 45.8872 30.9859 46.1399C31.1103 46.3925 31.3342 46.4936 31.5581 46.5694L31.9064 46.6704L31.9562 46.5694L31.8816 46.6452L31.9064 46.6704L31.9562 46.5694L31.8816 46.6452L31.9811 46.5441L31.8318 46.5694L31.8567 46.6452L31.9562 46.5441L31.8069 46.5694L32.1055 46.5188L31.9811 46.2409L31.5581 46.443L31.6825 46.721V46.4178C31.2596 46.4178 30.8117 46.342 30.3141 46.342C29.9161 46.342 29.4433 46.4178 29.095 46.4178V46.721L29.2443 46.4683L28.9955 46.2914L28.8462 46.5441H29.1448H28.9706L29.095 46.6704L29.1448 46.5441H28.9706L29.095 46.6704L29.0204 46.5946L29.0701 46.6957L29.095 46.6704L29.0204 46.5946L29.0701 46.6957C29.095 46.6704 29.2443 46.6452 29.4433 46.5946C29.717 46.5188 29.9409 46.2914 30.0405 46.0641C30.14 45.8114 30.1897 45.5335 30.1897 45.205V41.6174C30.1897 41.1626 29.9907 40.7331 29.6424 40.4804C29.2941 40.2025 28.8462 40.0509 28.3237 40.0509C27.0549 40.0509 26.1592 40.8847 26.1343 41.8195V45.6093C26.1343 45.8872 26.209 46.1904 26.4329 46.3672C26.6568 46.5188 26.9305 46.5694 27.2788 46.6199L27.5773 46.6452L27.6271 46.5188L27.5276 46.5946L27.5773 46.6452L27.6271 46.5188L27.5276 46.5946L27.652 46.5188L27.5276 46.5441L27.5525 46.5946L27.6769 46.5188L27.5525 46.5441H27.5773H27.5525H27.5773H27.5525H27.851L27.7017 46.2914L27.3534 46.4936L27.5027 46.7462V46.4178C27.1544 46.4178 26.5324 46.342 26.0099 46.342C25.4626 46.342 24.9152 46.4178 24.4176 46.4178V46.721L24.5918 46.4683L24.2932 46.2662L24.119 46.5188L24.2932 46.7462L24.5918 46.5188L24.4176 46.2914L24.4425 46.5946C24.8157 46.5441 25.1142 46.4178 25.3133 46.1651C25.4874 45.9377 25.5372 45.6345 25.5372 45.3819V36.6906C25.5372 36.4632 25.3879 36.3117 25.2884 36.2359L24.7659 35.9832L24.6166 35.9074L24.4922 36.0337H24.6664L24.6166 35.9074L24.4922 36.0337H24.6664H24.3678L24.6166 36.1853L24.6913 36.0337L26.2338 35.5032L26.1343 35.2252V35.5284H26.1841V35.4526L26.1343 35.5032L26.1841 35.5284V35.4526L26.1343 35.5032L26.1841 35.4779L26.1094 35.5032L26.1343 35.5284L26.1841 35.5032L26.1094 35.5284L26.1343 35.9074V40.5815V40.6068L26.3334 40.4552H26.6319V35.8316C26.6319 35.6042 26.6568 35.4526 26.5822 35.2505C26.5324 35.0231 26.2338 34.8715 26.0348 34.8968H25.985L24.2932 35.4779L24.1937 35.5032L23.9946 35.8316L23.9449 35.9074V35.9832L24.0693 36.2611L24.6415 36.5643L24.8157 36.6654H24.8406L24.8654 36.6401L24.8157 36.6654L24.8406 36.6401L24.7908 36.6654L24.8903 36.6148H24.7908V36.6654L24.8903 36.6148H24.7908V45.3061L24.6913 45.7356C24.6415 45.8114 24.5171 45.8872 24.2434 45.9377H24.1688L23.7956 46.2157L23.4722 46.4683L24.0942 46.8978L24.1688 46.9483H24.2683C24.8157 46.9483 25.363 46.8725 25.8606 46.8725C26.3334 46.8725 26.9554 46.9483 27.3534 46.9483H27.4281L27.8261 46.721L27.9754 46.6199V46.443L27.6769 45.9883L27.2042 45.9125C26.8807 45.8872 26.7066 45.8367 26.6568 45.7861C26.6319 45.7356 26.5822 45.7356 26.5822 45.5082V41.7184C26.5822 41.4658 26.7066 41.1878 26.9802 40.9352C27.2539 40.7078 27.6769 40.531 28.1745 40.531C28.9955 40.5562 29.4682 40.9857 29.4682 41.5163V45.104C29.4682 45.3819 29.4433 45.584 29.3687 45.7103L29.1697 45.9125L28.7467 46.0388L28.5477 46.1904L28.4481 46.4683V46.6199L28.8462 46.8978L28.9209 46.9483H29.0204C29.4433 46.9483 29.9161 46.8725 30.2395 46.8725C30.6625 46.8725 31.1103 46.9483 31.6079 46.9483H31.6825L32.1552 46.721L32.3543 46.6199L32.3294 46.3925C32.3045 46.1651 32.0806 46.0135 31.9811 46.0135L31.6576 45.9377L31.4337 45.7861C31.384 45.7356 31.3591 45.5335 31.3591 45.1798V41.87C31.3591 41.5921 31.3591 40.9352 31.0357 40.3036C30.7371 39.6972 30.0405 39.1414 28.8711 39.1414C28.0003 39.1414 27.3534 39.4698 26.9056 39.773C26.6817 39.9246 26.5324 40.0762 26.408 40.1772L26.2836 40.2783H26.2587L26.3582 40.4552V40.253L26.2587 40.2783L26.3582 40.4552V40.253V40.5562L26.6319 40.4552L26.5573 40.2278L26.3334 40.4552H26.6319H26.3334Z" fill="#010066"/>
<path d="M33.9553 41.942C33.9553 40.9097 33.1488 41.271 33.1488 40.9097C33.1488 40.7291 33.435 40.7033 33.8773 40.3161C34.2936 39.929 34.866 39.3354 35.0481 39.3354L35.2302 39.5677V40.5226C35.9847 39.9806 36.5831 39.5677 37.5718 39.5677C40.0435 39.5677 40.0695 41.4001 40.0695 42.2259V45.6583C40.0695 46.0712 40.0956 46.3809 40.5899 46.4583C40.8501 46.51 41.2404 46.51 41.2404 46.7164C41.2404 46.8971 41.1103 46.9229 40.8501 46.9229C40.3297 46.9229 39.7573 46.8455 39.3931 46.8455C38.8467 46.8455 38.4564 46.9229 38.0402 46.9229L37.6759 46.7422L37.9361 46.4842C38.4564 46.3809 38.8467 46.3551 38.8467 45.4002V42.3549C38.8467 41.6065 38.7426 40.3936 37.2856 40.3936C36.1408 40.3936 35.2823 41.0646 35.2562 41.2452C35.2302 41.7098 35.2302 42.1227 35.2302 42.5614V45.4002C35.2302 46.0454 35.2562 46.3809 36.0628 46.4842C36.2969 46.5358 36.6092 46.5358 36.6092 46.7422L36.1929 46.9487C36.0108 46.9487 35.3083 46.8713 34.866 46.8713C34.3196 46.8713 33.9553 46.9487 33.5911 46.9487L32.9927 46.7422L33.2789 46.4842C33.7732 46.4067 33.9814 46.0196 33.9814 45.1422V41.942H33.9553Z" fill="#010066"/>
<path d="M34.0274 42.0493H34.3509C34.3779 41.521 34.0274 41.1607 33.7309 41.0887L33.4613 41.0166L33.3804 41.1127H33.5152L33.4613 41.0166L33.3804 41.1127H33.5152H33.3804L33.4882 41.2087L33.5152 41.1127H33.3804L33.4882 41.2087C33.4882 41.1847 33.7848 41.0646 34.1622 40.7764L34.8631 40.2L35.1327 39.9839L35.2136 39.9359L35.1597 39.7918V39.9599H35.2136L35.1597 39.8158V39.9839V39.6957L34.9171 39.8638L35.0519 40.0079V40.8005V41.3528L35.5641 41.0166C36.3459 40.5123 36.8581 40.2 37.8017 40.2C39.0149 40.2 39.5001 40.5843 39.7697 40.9926C40.0393 41.4249 40.0663 42.0013 40.0663 42.3855V45.5798C40.0663 45.7719 40.0663 45.988 40.1741 46.2042C40.2819 46.4203 40.5515 46.5884 40.875 46.6125L41.2794 46.6605L41.3333 46.6845H41.3603L41.4412 46.5644H41.2794L41.3603 46.6845L41.4412 46.5644H41.2794H41.3873L41.3064 46.5164L41.2794 46.5644H41.3873L41.3064 46.5164L41.4681 46.5884L41.3873 46.4443L41.3333 46.4924L41.4951 46.5644L41.4142 46.4203L41.4681 46.4924L41.4412 46.4203H41.4142L41.4681 46.4924L41.4412 46.4203H41.2525C40.7402 46.4203 40.1741 46.3483 39.7427 46.3483C39.1496 46.3483 38.7183 46.4203 38.3409 46.4203V46.7085L38.4757 46.4443L38.0713 46.2762L37.9365 46.5404L38.1522 46.7325L38.4218 46.4924L38.1791 46.2762L38.26 46.5644C38.5026 46.5164 38.7992 46.4924 39.0688 46.3002C39.3384 46.0841 39.4462 45.7479 39.4462 45.2675V42.4336C39.4462 42.0733 39.4192 41.593 39.1766 41.1367C38.934 40.6804 38.3678 40.3201 37.5051 40.3201C36.8581 40.3201 36.292 40.4882 35.8606 40.6804L35.3484 40.9926C35.2136 41.1127 35.1327 41.1607 35.0788 41.3769C35.0519 41.8092 35.0519 42.2174 35.0519 42.6257V45.2675C35.0519 45.5557 35.0519 45.8439 35.2136 46.1081C35.4023 46.3723 35.7258 46.5164 36.1841 46.5884L36.5346 46.6365H36.5616L36.5885 46.5644L36.5346 46.6125L36.5616 46.6365L36.5885 46.5644L36.5346 46.6125L36.6694 46.5404H36.5077L36.5346 46.6125L36.6694 46.5404H36.5077H36.8312L36.6964 46.3002L36.265 46.4924L36.3998 46.7566V46.3963C36.265 46.3963 35.5102 46.3243 35.0249 46.3243C34.4318 46.3243 34.0274 46.3963 33.7039 46.3963V46.6845L33.8117 46.4203L33.1917 46.2282L33.0839 46.4924L33.2995 46.7085L33.5961 46.4924L33.3804 46.2522L33.4343 46.5404C33.7578 46.4924 34.0544 46.3002 34.2161 46.0361C34.3779 45.7719 34.4048 45.4357 34.4318 45.0034V42.0493H34.0274H33.7039V45.0034C33.7039 45.3876 33.65 45.6518 33.5691 45.7719L33.2186 45.988L33.1378 46.012L32.7873 46.2762L32.356 46.5884L33.4882 46.9487H33.5422H33.5961C34.0274 46.9487 34.4048 46.8766 34.9171 46.8766C35.3484 46.8766 36.0763 46.9487 36.292 46.9487H36.3729L36.8581 46.7325L37.0468 46.6605V46.4924L36.912 46.1561C36.6424 45.964 36.3998 46.0121 36.2381 45.964C35.8606 45.916 35.7528 45.8199 35.7258 45.7719C35.6719 45.6998 35.645 45.5317 35.6719 45.2195V42.5777C35.6719 42.1694 35.6719 41.7851 35.6989 41.3769H35.5102L35.6719 41.4489V41.4009H35.4832L35.645 41.4729C35.6719 41.4249 35.9146 41.2568 36.2381 41.1127C36.5616 40.9686 36.9929 40.8725 37.4512 40.8725C38.1252 40.8965 38.3678 41.0887 38.5296 41.3769C38.6913 41.6651 38.7183 42.0974 38.7183 42.4336V45.2675C38.7183 45.6998 38.6105 45.8199 38.5565 45.8679C38.5026 45.94 38.3139 45.964 38.0443 46.012L37.9365 46.0361L37.613 46.3243L37.2895 46.5884L38.0713 46.9247L38.1522 46.9487H38.233C38.6913 46.9487 39.0957 46.8766 39.6349 46.8766C39.9854 46.8766 40.5785 46.9487 41.1446 46.9487L41.576 46.9007L41.8725 46.4924L41.6568 46.1561C41.3873 46.012 41.0907 46.012 40.902 45.988L40.6863 45.892L40.6324 45.5077V42.3135C40.6324 41.9292 40.6324 41.2568 40.2819 40.6564C39.9045 40.0319 39.0957 39.5516 37.7478 39.5516C36.6155 39.5516 35.9146 39.9839 35.1327 40.4882L35.3215 40.7284H35.645V39.8398V39.7437L35.4023 39.4555L35.3215 39.3354H35.1597L34.7553 39.4795C34.4588 39.6717 34.0274 40.0559 33.7039 40.3201L33.1917 40.6564L32.976 40.8005L32.8412 41.1127L33.1647 41.521L33.5422 41.6651C33.5961 41.7131 33.65 41.7611 33.677 42.0733H34.0274V42.0493Z" fill="#010066"/>
<path d="M47.4953 43.3986C47.4953 42.0886 46.692 40.3737 45.3615 40.3737C44.031 40.3737 43.2026 41.6837 43.2026 43.5653C43.2026 44.8277 44.0059 46.5665 45.3364 46.5665C46.6669 46.5665 47.4953 45.2326 47.4953 43.3986ZM48.8509 43.4224C48.8509 45.1374 47.8216 46.9476 45.3364 46.9476C42.8762 46.9476 41.8721 45.3041 41.8721 43.4939C41.8721 41.779 42.9013 39.9688 45.3866 39.9688C47.3698 39.9688 48.8509 41.6122 48.8509 43.4224Z" fill="#010066"/>
<path d="M47.7767 43.3682H48.0782C48.0782 42.5877 47.8772 41.7291 47.4752 41.0266C47.0732 40.3501 46.4702 39.7777 45.641 39.7777C44.8621 39.7777 44.2088 40.2201 43.8068 40.8965C43.4048 41.573 43.1786 42.5096 43.1786 43.5764C43.1786 44.3309 43.4048 45.1895 43.7817 45.8659C44.1837 46.5684 44.7867 47.1408 45.6159 47.1408C46.3948 47.1408 47.0229 46.6985 47.4501 46.0221C47.8521 45.3456 48.0782 44.4089 48.0782 43.3682H47.7767H47.4752C47.4752 44.3309 47.2742 45.1374 46.9476 45.6838C46.6209 46.2302 46.1938 46.5164 45.6159 46.5164C45.0882 46.5164 44.636 46.1521 44.3093 45.5537C43.9575 44.9813 43.7817 44.2008 43.7817 43.5503C43.7817 42.5617 43.9827 41.7551 44.3093 41.2087C44.636 40.6624 45.0631 40.3762 45.641 40.3762C46.1687 40.3762 46.6209 40.7404 46.9476 41.3388C47.2742 41.9372 47.4752 42.7178 47.4752 43.3682H47.7767ZM49.1335 43.3942H48.832C48.832 44.2788 48.5808 45.1895 48.0782 45.8399C47.5506 46.4904 46.7717 46.9327 45.6159 46.9587C44.4601 46.9587 43.6812 46.5424 43.1786 45.918C42.6761 45.2936 42.45 44.4089 42.45 43.4983C42.45 42.6137 42.7012 41.7031 43.2038 41.0526C43.7314 40.4022 44.5103 39.9599 45.6661 39.9599C47.4752 39.9599 48.8572 41.625 48.8572 43.4203H49.1335H49.4351C49.4351 41.3128 47.827 39.3354 45.6661 39.3354C44.3596 39.3354 43.3545 39.8818 42.7515 40.6884C42.1233 41.4689 41.8721 42.5096 41.8721 43.4983C41.8721 44.539 42.1233 45.5537 42.7515 46.3083C43.3796 47.0888 44.3596 47.5831 45.641 47.5831C46.9476 47.5831 47.9526 47.0367 48.5808 46.2562C49.2089 45.4497 49.4853 44.435 49.4853 43.4203H49.1335V43.3942Z" fill="#010066"/>
<path d="M52.568 45.8266C52.568 46.2754 52.9074 46.3502 53.6591 46.5248L53.9258 46.7243L53.7075 46.9487C53.1984 46.9487 52.665 46.8739 52.1316 46.8739C51.5497 46.8739 50.9435 46.9487 50.3616 46.9487L50.1191 46.7492L50.4828 46.5248C51.1132 46.3502 51.4042 46.3004 51.4042 45.2282V36.9501C51.4042 36.576 50.5798 36.4514 50.5798 36.3018L50.7253 36.1023L52.1073 35.6036L52.4468 35.5288L52.6165 35.8779C52.6165 36.3018 52.5922 36.7007 52.5922 37.1495V45.8266H52.568Z" fill="#010066"/>
<path d="M52.6362 45.5228H52.3239C52.2979 45.8229 52.5061 46.1231 52.7664 46.2231C53.0267 46.3481 53.313 46.4232 53.7034 46.5232L53.7815 46.2481L53.5993 46.4982L53.8856 46.6733L54.0678 46.4232L53.8335 46.2231L53.5993 46.4732L53.8335 46.6733V46.3731C53.313 46.3731 52.7403 46.2981 52.1417 46.2981C51.491 46.2981 50.8403 46.3731 50.2416 46.3731V46.6733L50.4238 46.4482L50.1636 46.2481L49.9814 46.4982L50.1375 46.7483L50.5279 46.5232L50.3718 46.2731L50.4499 46.5482C50.7622 46.4482 51.0745 46.3982 51.3348 46.1481C51.5951 45.873 51.6472 45.5228 51.6472 44.9726V36.6197C51.6472 36.3946 51.517 36.2445 51.4129 36.1445L50.8663 35.8444L50.7101 35.7694H50.6841L50.606 35.8944L50.7101 35.8194L50.6841 35.7944L50.606 35.9194L50.7101 35.8444L50.5019 35.9944H50.7622L50.7101 35.8444L50.5019 35.9944H50.7622H50.4499L50.7101 36.1695L50.7882 36.0445L52.1677 35.5693L52.2718 35.5443L52.3239 35.6943L52.6102 35.5693H52.3759C52.3759 35.9694 52.3499 36.3946 52.3499 36.8447V45.5228H52.6362H52.9486V36.8447C52.9486 36.4196 52.9746 35.9944 52.9746 35.5693V35.5193L52.7664 35.1191L52.6623 34.894L52.0376 35.0191H52.0116L50.5019 35.5193L50.3978 35.5443L50.1896 35.8194L50.1375 35.8944V35.9944L50.2937 36.2695L50.8403 36.5196L50.9965 36.6197L51.0225 36.6447H51.0485H51.0745H51.1006H51.0745V44.9726C51.0745 45.4728 50.9704 45.6729 50.9184 45.7479C50.8403 45.8229 50.6581 45.898 50.3197 45.973H50.2677L49.8512 46.2231L49.4868 46.4482L50.1115 46.8983L50.1896 46.9483H50.2937C50.9444 46.9483 51.5691 46.8733 52.1937 46.8733C52.7143 46.8733 53.2869 46.9483 53.8856 46.9483H54.0157L54.3281 46.6232L54.5623 46.3731L54.0157 45.998L53.9637 45.973H53.9116C53.5212 45.873 53.2088 45.7979 53.1047 45.7479L53.0006 45.5479H52.6362V45.5228Z" fill="#010066"/>
<path d="M60.8239 43.3986C60.8239 42.0886 60.0234 40.3737 58.6977 40.3737C57.372 40.3737 56.5465 41.6837 56.5465 43.5653C56.5465 44.8277 57.347 46.5665 58.6727 46.5665C60.0234 46.5426 60.8239 45.2326 60.8239 43.3986ZM62.1746 43.4224C62.1746 45.1374 61.149 46.9476 58.6727 46.9476C56.2214 46.9476 55.1958 45.3041 55.1958 43.4939C55.1958 41.779 56.2214 39.9688 58.7227 39.9688C60.6738 39.9688 62.1746 41.6122 62.1746 43.4224Z" fill="#010066"/>
<path d="M60.5159 43.3682H60.8175C60.8175 42.5877 60.5913 41.7291 60.1893 41.0266C59.7873 40.3501 59.1843 39.7777 58.3551 39.7777C57.5762 39.7777 56.948 40.2201 56.5209 40.8965C56.1189 41.573 55.8927 42.5096 55.8927 43.5764C55.8927 44.3309 56.0937 45.1895 56.4958 45.8659C56.8978 46.5684 57.5008 47.1408 58.33 47.1408C59.1089 47.1408 59.737 46.6985 60.1642 46.0221C60.5662 45.3456 60.7923 44.4089 60.7923 43.3682H60.5159H60.2144C60.2144 44.3309 60.0134 45.1374 59.6868 45.6838C59.3601 46.2302 58.933 46.5164 58.3551 46.5164C57.8274 46.5164 57.3752 46.1521 57.0485 45.5537C56.7219 44.9813 56.5209 44.2008 56.5209 43.5503C56.5209 42.5617 56.7219 41.7551 57.0485 41.2087C57.3752 40.6624 57.8023 40.3762 58.3802 40.3762C58.9079 40.3762 59.3601 40.7404 59.6868 41.3388C60.0134 41.9372 60.2144 42.7178 60.2144 43.3682H60.5159ZM61.8728 43.3942H61.5712C61.5712 44.2788 61.32 45.1895 60.8175 45.8399C60.2898 46.4904 59.5109 46.9327 58.3551 46.9587C57.1993 46.9587 56.4204 46.5424 55.9178 45.918C55.4153 45.2936 55.1641 44.4089 55.1641 43.4983C55.1641 42.6137 55.4153 41.7031 55.9178 41.0526C56.4455 40.4022 57.1993 39.9599 58.3802 39.9599C60.1642 39.9599 61.5461 41.625 61.5461 43.4203H61.8728H62.1743C62.1743 41.3128 60.5662 39.3354 58.4053 39.3354C57.0737 39.3354 56.0937 39.8818 55.4656 40.6884C54.8374 41.4689 54.561 42.5096 54.561 43.4983C54.561 44.539 54.8123 45.5537 55.4405 46.3083C56.0686 47.0888 57.0234 47.5831 58.33 47.5831C59.6365 47.5831 60.6416 47.0367 61.2446 46.2562C61.8728 45.4497 62.1491 44.435 62.1491 43.4203H61.8728V43.3942Z" fill="#010066"/>
<path d="M67.0257 40.2167C65.749 40.2167 65.5447 41.3324 65.5447 42.2002C65.5447 42.9936 65.6468 44.4813 67.0002 44.4813C68.2514 44.4813 68.5578 43.5639 68.5578 42.4482C68.5578 41.5556 68.379 40.2167 67.0257 40.2167ZM66.0043 50.1839C69.1451 50.1839 69.7579 48.8202 69.7579 48.2996C69.7579 47.2334 68.4812 47.1094 66.515 47.1094C65.8256 47.1094 65.4936 47.1342 65.366 47.2086C64.8042 47.5309 63.9871 48.4235 63.9871 48.8202C63.9871 49.7128 64.9063 50.1839 66.0043 50.1839ZM69.9111 41.4316C69.809 41.4316 69.7068 41.5556 69.7068 42.2498C69.7068 42.5225 69.7068 44.63 66.9491 44.8036C66.5661 44.8284 65.1361 44.8036 65.1361 45.5226C65.1361 45.9193 65.366 46.0433 67.1534 46.0433C69.0685 46.0433 70.5495 46.2912 70.5495 47.9772C70.5495 50.2087 66.847 50.7542 65.749 50.7542C63.4764 50.7542 62.8125 49.7624 62.8125 49.0682C62.8125 47.9029 64.1148 47.407 65.1361 46.9359C64.8297 46.7623 63.7317 45.9937 63.7317 45.597C63.7317 45.0515 65.3404 44.7292 65.6724 44.6796C64.7787 44.0598 64.2424 43.4647 64.2424 42.3738C64.2424 40.9605 65.366 39.9688 66.9236 39.9688C67.5619 39.9688 68.0216 40.1423 68.4812 40.3655C68.9408 40.5886 69.4515 40.7622 70.1665 40.7622H70.9325L71.0602 41.2085C71.0602 41.4812 71.0091 41.506 70.7282 41.506H69.9111V41.4316Z" fill="#010066"/>
<path d="M66.6919 39.9644V39.6499C65.9474 39.6499 65.434 40.0168 65.203 40.5147C64.9463 40.9864 64.8949 41.5629 64.8949 42.0346C64.8949 42.48 64.9206 43.109 65.126 43.6855C65.3313 44.262 65.8448 44.7861 66.6662 44.7599C67.385 44.7599 67.8984 44.4716 68.1808 43.9737C68.4632 43.502 68.5402 42.8993 68.5402 42.2966C68.5402 41.7987 68.4889 41.1698 68.2578 40.6457C68.0268 40.0954 67.4877 39.6499 66.7176 39.6499V39.9644V40.2788C67.2823 40.2788 67.539 40.5409 67.7187 40.9077C67.8984 41.3008 67.9498 41.8511 67.9498 42.2966C67.9498 42.8469 67.8728 43.3448 67.6931 43.6593C67.4877 43.9737 67.2567 44.1572 66.6919 44.1572C66.1271 44.1572 65.9218 43.8951 65.7164 43.4496C65.5367 43.0303 65.511 42.4538 65.511 42.0346C65.511 41.5891 65.5624 41.1174 65.7421 40.8029C65.9218 40.4885 66.1528 40.2788 66.7176 40.2526V39.9644H66.6919ZM65.6651 50.4988V50.8132C67.2823 50.8132 68.2835 50.4464 68.9253 49.9747C69.5414 49.4768 69.7467 48.9003 69.7467 48.5072C69.7724 47.7997 69.259 47.328 68.6429 47.1707C68.0011 46.9611 67.1796 46.9349 66.1785 46.9349C65.4597 46.9349 65.1773 46.9349 64.8949 47.0659C64.5612 47.2756 64.2018 47.59 63.9194 47.9569C63.6371 48.3238 63.3804 48.6382 63.3547 49.0313C63.3547 49.634 63.6371 50.1057 64.0991 50.394C64.5355 50.6822 65.1003 50.8132 65.6907 50.8132V50.4988V50.1843C65.1773 50.1843 64.7152 50.0533 64.4072 49.8699C64.0991 49.6602 63.9451 49.4244 63.9451 49.0313C63.9194 49.0051 64.0991 48.6644 64.3559 48.35C64.6126 48.0355 64.9463 47.7211 65.1773 47.59L65.0233 47.328L65.1773 47.59C65.2543 47.5638 65.588 47.5376 66.1785 47.5376C67.154 47.5376 67.9754 47.59 68.4632 47.7473C68.9766 47.9307 69.1306 48.0879 69.1563 48.5072C69.1563 48.8479 68.7712 50.1843 65.6907 50.2105V50.4988H65.6651ZM69.5927 41.2484V40.934L69.3103 41.0388C69.105 41.3008 69.105 41.5105 69.105 42.087C69.105 42.218 69.105 42.7683 68.7969 43.3186C68.4889 43.8427 67.9241 44.3668 66.6149 44.4716C66.4352 44.4716 65.9731 44.4716 65.511 44.5764C65.28 44.6289 65.0746 44.7075 64.8693 44.8647C64.6639 44.9957 64.5099 45.2578 64.5099 45.546L64.6382 45.9653C64.8179 46.2012 65.049 46.2536 65.3827 46.306C65.7164 46.3584 66.1785 46.3846 66.8716 46.3846C67.8214 46.3846 68.6429 46.4632 69.1563 46.7253C69.6697 46.9873 69.9521 47.328 69.9521 48.1141C69.9521 49.1099 69.182 49.765 68.1551 50.1843C67.154 50.6036 65.9474 50.7346 65.434 50.7346C63.2263 50.7084 62.7899 49.765 62.7899 49.2671C62.7899 48.7692 63.0466 48.4286 63.4574 48.1141C63.8681 47.7997 64.4329 47.5376 64.972 47.3018L65.4854 47.0659L64.9976 46.7777C64.8436 46.6991 64.5099 46.437 64.2275 46.2012L63.8424 45.8343L63.7397 45.6771V45.6247V45.5984C63.7911 45.4936 64.1762 45.284 64.5355 45.1792C64.9206 45.0481 65.3057 44.9695 65.4084 44.9433L66.1271 44.8123L65.5367 44.393C64.6639 43.7379 64.2275 43.24 64.2275 42.1918C64.2275 40.8815 65.1773 39.9644 66.6149 39.9382C67.2053 39.9382 67.5904 40.0954 68.0525 40.3312C68.5402 40.5671 69.105 40.7767 69.8751 40.7767H70.4142L70.4655 41.0126L70.7479 40.934H70.4398V41.0388L70.5682 41.065L70.4655 41.0126L70.4398 41.065L70.5682 41.0912L70.4655 41.0126L70.6195 41.1174L70.5425 40.9602L70.4655 41.0126L70.6195 41.1174L70.5425 40.9602L70.5939 41.065L70.5682 40.9602H70.5425L70.5939 41.065L70.5682 40.9602H70.4398H69.6184V41.2484V41.5629H70.4398L70.9019 41.4318L71.0559 40.934V40.8815L70.9019 40.3836L70.8506 40.174H69.8751C69.2076 40.174 68.7456 39.9906 68.3092 39.7809C67.8214 39.5451 67.308 39.3354 66.6149 39.3354C65.7421 39.3354 64.9976 39.6237 64.4585 40.1478C63.9194 40.6457 63.6114 41.3794 63.6114 42.218C63.5857 43.502 64.2788 44.262 65.1773 44.9171L65.357 44.6551L65.3057 44.3406C65.126 44.3668 64.6382 44.4716 64.1762 44.6551C63.9451 44.7337 63.7141 44.8647 63.5087 44.9957C63.329 45.1268 63.1236 45.3364 63.1236 45.6247C63.1236 45.8605 63.252 46.0177 63.3804 46.2012C63.7397 46.6728 64.4072 47.1445 64.6896 47.3018L64.8436 47.0397L64.7152 46.7515C64.2018 47.0135 63.6114 47.2494 63.098 47.6424C62.6102 48.0093 62.1738 48.5596 62.1738 49.2934C62.1738 49.7388 62.3792 50.2891 62.9183 50.7084C63.4317 51.1277 64.2532 51.3898 65.434 51.3898C66.0245 51.3898 67.2567 51.2587 68.3862 50.787C69.49 50.3415 70.5682 49.5292 70.5682 48.1403C70.5939 47.1707 70.1061 46.4894 69.413 46.175C68.7199 45.8605 67.8471 45.7819 66.8716 45.7819C65.9731 45.7819 65.4597 45.7295 65.2543 45.6771L65.1516 45.6509V45.5722L65.2543 45.3888C65.511 45.153 66.3838 45.1268 66.6919 45.1268C68.1551 45.0219 68.9766 44.3668 69.3617 43.6593C69.7467 42.9779 69.7467 42.2704 69.7467 42.1394C69.7467 41.7987 69.7724 41.5891 69.7981 41.5367V41.5105L69.6697 41.4318L69.7467 41.5629L69.7981 41.5105L69.6697 41.4318L69.7467 41.5629L69.644 41.4056V41.6153L69.7467 41.5891L69.644 41.4318V41.6415V41.2484H69.5927Z" fill="#010066"/>
<path d="M75.4985 45.1589L75.6549 45.3868L75.8635 45.1589L77.089 42.4752C77.2975 42.0195 77.5322 41.4372 77.5322 41.0068C77.5322 40.3992 76.4111 40.5764 76.4111 40.1966C76.4111 40.07 76.5414 39.9941 76.75 39.9941C76.8282 39.9941 76.9847 40.0447 77.7929 40.0447C78.549 40.0447 78.7315 39.9941 78.888 39.9941C79.1487 39.9941 79.3051 40.07 79.3051 40.1966C79.3051 40.5004 78.6272 40.3738 78.3404 41.0321L74.586 49.5642C74.2209 50.3491 73.9602 50.7542 73.152 50.7542C72.4219 50.7542 72.1873 50.3491 72.1873 50.02C72.1873 49.5642 72.5001 49.3617 72.9434 49.3617C73.2563 49.3617 73.4909 49.5136 73.6995 49.5136C74.0645 49.5136 74.8728 47.3616 74.8728 47.159C74.8728 46.8805 74.7424 46.6527 74.6381 46.3742L72.6305 40.9562C72.4741 40.5511 71.6919 40.5257 71.6919 40.2219C71.6919 40.07 71.7962 39.9688 72.083 39.9688C72.4741 39.9688 72.9173 40.0194 73.3605 40.0194C73.8038 40.0194 74.247 39.9688 74.8206 39.9688C75.1074 39.9688 75.1856 40.0447 75.1856 40.2219C75.1856 40.4751 73.9863 40.3738 73.9863 40.8802L74.0906 41.2853L75.4985 45.1589Z" fill="#010066"/>
<path d="M75.4625 45.4523L75.2223 45.6284L75.3664 45.8548L75.5826 46.1818L75.9909 45.6535L76.0149 45.6284L77.1677 42.9118C77.3598 42.4338 77.6 41.8553 77.6 41.3271C77.624 41.0755 77.4799 40.8743 77.3358 40.7485C77.0956 40.5976 76.8554 40.5473 76.6873 40.497L76.5192 40.4467L76.4952 40.497L76.5192 40.4718V40.4467L76.4952 40.497L76.5192 40.4718L76.4232 40.5473H76.5432L76.5192 40.4718L76.4232 40.5473H76.5432H76.4232L76.4952 40.6479L76.5432 40.5473H76.4232L76.4952 40.6479V40.6228V40.6479V40.6228V40.6479H76.5913C76.5913 40.6479 76.8314 40.6731 77.5519 40.6731C78.2484 40.6731 78.4646 40.6479 78.5606 40.6479L78.7287 40.6731L78.7528 40.5976L78.7047 40.6479L78.7287 40.6731L78.7528 40.5976L78.7047 40.6479L78.8248 40.5473H78.6807L78.7047 40.6479L78.8248 40.5473H78.6807H78.8008L78.7047 40.4718L78.6807 40.5473H78.8008L78.7047 40.4718L78.7528 40.497L78.7287 40.4467L78.7047 40.4718L78.7528 40.497L78.7287 40.4467C78.6807 40.497 78.0803 40.6228 77.8161 41.2516L74.3577 49.7285C74.2136 50.1058 74.0695 50.3825 73.9254 50.5334C73.7813 50.6592 73.6372 50.7598 73.325 50.7598C73.0368 50.7598 72.8927 50.6843 72.8207 50.6088L72.7006 50.3322L72.7967 50.0555L73.1089 49.98C73.325 49.9548 73.4691 50.1058 73.8053 50.1309L74.1416 49.9297C74.3817 49.653 74.5979 49.1248 74.814 48.6217C74.9101 48.3701 74.9822 48.1186 75.0542 47.9174L75.1743 47.4646C75.1743 47.0873 75.0302 46.8358 74.9581 46.6094L73.1089 41.2264C72.9648 40.8743 72.6766 40.7737 72.4844 40.6479L72.2683 40.5221H72.2443L72.2203 40.5473L72.2443 40.5221L72.2203 40.5473L72.2443 40.5221L72.1482 40.5724H72.2683L72.2443 40.5221L72.1482 40.5724H72.2683H72.1722L72.2203 40.6479L72.2683 40.5724H72.1722L72.2203 40.6479H72.2443H72.3644C72.7246 40.6479 73.1089 40.6731 73.5412 40.6731C73.9735 40.6731 74.3817 40.6479 74.8861 40.6479H75.0062L75.0782 40.5473L74.9581 40.5976L75.0062 40.6731L75.0782 40.5724L74.9581 40.6228L75.0062 40.5976H74.9581V40.6228L75.0062 40.5976H74.9581V40.6228H75.1503L75.0302 40.4718L74.9581 40.6228H75.1503L75.0302 40.4718C74.9822 40.497 74.718 40.5473 74.4778 40.6228L74.1176 40.824L73.8774 41.3019V41.3522L73.9975 41.7798V41.805L75.2704 45.7038L75.2944 45.729L75.4625 45.4523L75.7267 45.3517L74.4778 41.5031L74.3817 41.1258L74.1176 41.2013H74.4058L74.5258 41.1258L75.0062 41.0001L75.2704 40.8994L75.5105 40.5221L75.3424 40.0945L74.8861 39.9688C74.3337 39.9688 73.9254 40.0191 73.5412 40.0191C73.1569 40.0191 72.7726 39.9688 72.3644 39.9688L71.908 40.0945L71.6919 40.5221C71.6919 40.7485 71.836 40.8743 71.9321 40.9498L72.3884 41.2013L72.5805 41.3522L74.4298 46.7351L74.694 46.6345L74.4298 46.7351C74.5258 47.0118 74.6219 47.2382 74.6219 47.4143C74.5979 47.5652 74.4058 48.1438 74.1896 48.672C74.0935 48.9235 73.9735 49.1499 73.8774 49.326L73.7573 49.5021V49.5272L73.8534 49.6782V49.5272L73.7573 49.5524L73.8534 49.7033V49.5524C73.8054 49.5775 73.5652 49.4015 73.1569 49.4015C72.9167 49.4015 72.6766 49.4518 72.4844 49.6278C72.2923 49.8039 72.1722 50.0555 72.1962 50.3573C72.1962 50.5837 72.2683 50.8604 72.4604 51.0616C72.6766 51.2628 72.9648 51.3886 73.349 51.3886C73.7573 51.3886 74.1176 51.2628 74.3577 51.0113C74.5979 50.7598 74.742 50.4328 74.9101 50.0303L78.3685 41.5534C78.4646 41.3019 78.6087 41.2264 78.7768 41.151L79.065 41.0252L79.3051 40.6228L79.041 40.2203L78.6327 40.1448C78.4405 40.1448 78.3205 40.1951 77.624 40.1951C76.8795 40.1951 76.7834 40.17 76.6633 40.1448L76.2791 40.2454L76.0629 40.6479C76.0629 40.9246 76.2791 41.0504 76.3991 41.1258L76.9755 41.3019L77.1196 41.4528C77.1196 41.7798 76.9275 42.3584 76.7354 42.8111L75.6306 45.4271L75.4625 45.6284L75.6786 45.8045L75.9188 45.6284L75.7507 45.402L75.4625 45.4523L75.7267 45.3517L75.4625 45.4523Z" fill="#010066"/>
<path d="M92.6285 38.0228L92.4204 38.2066L92.2122 38.1016C91.6399 36.7102 92.1862 36.2114 88.96 36.2114C87.9453 36.2114 87.7372 36.3689 87.7372 36.9465V40.0968C87.7372 40.7006 87.8412 40.7793 89.0641 40.7793C89.4283 40.7793 89.7406 40.7006 90.1048 40.6743C91.4057 40.5168 90.8853 38.9679 91.5358 38.9679C91.6399 38.9679 91.7439 38.9942 91.7439 39.2829C91.7439 39.808 91.6919 40.3068 91.6919 40.8318C91.6919 41.3306 91.7439 42.4332 91.7439 42.7483L91.5618 43.037C91.3276 43.037 91.2756 42.827 91.0675 42.0132C90.9374 41.4881 90.8073 41.2519 88.882 41.2519C87.9453 41.2519 87.7112 41.3044 87.7112 41.7507V45.321C87.7112 46.1086 87.9193 46.2136 89.0641 46.3711C89.4283 46.4236 89.8186 46.3974 89.8186 46.6861C89.8446 46.8699 89.7405 46.9487 89.3503 46.9487C89.0641 46.9487 88.6738 46.8699 87.0607 46.8699C86.2802 46.8699 85.5256 46.9487 84.9532 46.9487C84.641 46.9487 84.3809 46.9224 84.3809 46.6861C84.3809 46.5024 84.4589 46.4761 85.4996 46.3449C85.9419 46.2924 86.098 46.0561 86.098 44.8485V36.999C86.098 36.3164 86.02 36.2639 85.5517 36.1326C84.8752 35.9489 84.4849 36.1064 84.4849 35.7913C84.4849 35.5813 84.6931 35.5551 85.3695 35.5551C85.7598 35.5551 86.2541 35.5551 86.7745 35.5813C87.2949 35.5813 87.8412 35.6076 88.3096 35.6076C89.6365 35.6076 91.5358 35.5288 92.1602 35.5288L92.5505 35.7126V38.0228H92.6285Z" fill="#010066"/>
<path d="M92.2669 38.1355L92.074 37.9121L92.0499 37.9369H92.0258L91.8811 38.1852L92.1463 38.061C91.8811 37.4652 91.9052 36.9935 91.4712 36.5715C91.0372 36.1743 90.3621 36.0998 88.8673 36.075C88.3851 36.075 88.0716 36.0998 87.8064 36.2736C87.5171 36.4474 87.4448 36.7949 87.4689 37.0928V40.0719L87.493 40.494C87.5653 40.7174 87.7823 40.916 88.0234 40.9408C88.2645 40.9905 88.5538 41.0153 88.9878 41.0153C89.3495 41.0153 89.6388 40.9408 89.9764 40.916H90.0005C90.7479 40.8415 91.0372 40.2457 91.1337 39.8485L91.2542 39.352L91.2783 39.3023L91.2542 39.2775L91.2783 39.3023L91.2542 39.2775L91.2783 39.3023V39.2527L91.2542 39.3023H91.2783V39.2527L91.2542 39.3023L91.3025 39.1782L91.1819 39.2279L91.2783 39.3023L91.3266 39.1782L91.206 39.2279L91.2301 39.203H91.206L91.2301 39.1782H91.206V39.2775C91.206 39.774 91.1819 40.2457 91.1819 40.7422C91.1819 41.2139 91.206 42.2566 91.206 42.5545H91.4953L91.2542 42.4056L91.0855 42.6786L91.3266 42.8276V42.5297L91.3025 42.6042L91.3507 42.5545L91.3266 42.5297L91.3025 42.6042L91.3507 42.5545C91.3266 42.5545 91.2301 42.2814 91.1337 41.7849C91.0855 41.5367 90.9408 41.1891 90.5791 41.0401C90.2175 40.8912 89.7353 40.8415 88.8432 40.8415C88.4092 40.8415 88.1199 40.8415 87.8787 40.9408L87.5653 41.2139L87.493 41.6111V44.9874C87.493 45.3598 87.5412 45.7074 87.8305 45.9308C88.0957 46.1294 88.4333 46.1791 88.9637 46.2784L89.4218 46.328L89.47 46.3529L89.4942 46.3032L89.4459 46.328L89.47 46.3529L89.4942 46.3032L89.4459 46.328L89.4942 46.3032H89.4218L89.4459 46.328L89.4942 46.3032H89.4218V46.328H89.4942L89.4218 46.2784V46.328H89.4942L89.4218 46.2784L89.5183 46.328L89.4459 46.2287L89.4218 46.2784L89.5183 46.328L89.4459 46.2287L89.47 46.2536V46.2287L89.4942 46.2536V46.2287L89.3013 46.2536C89.0602 46.2536 88.6744 46.1791 87.1795 46.1791C86.4321 46.1791 85.7329 46.2536 85.2266 46.2536L84.9372 46.2287H84.9131L84.8649 46.3032H84.9372L84.9131 46.2287L84.8649 46.3032H84.9372L84.8167 46.3777L84.9131 46.5266L84.9855 46.4273L84.8167 46.3777L84.9131 46.5266L84.889 46.5018L84.9131 46.5266L84.889 46.5018L84.9131 46.5266C84.9372 46.5018 85.2266 46.4522 85.7811 46.3777C86.0222 46.3529 86.3357 46.2039 86.4321 45.906C86.5527 45.6329 86.5768 45.2605 86.5768 44.6647V37.2418C86.5768 36.9191 86.5768 36.6956 86.4321 36.4722C86.2874 36.2488 86.0704 36.1991 85.8534 36.1246C85.5159 36.0253 85.2266 36.0253 85.0819 36.0005L85.0096 35.9757L84.9372 36.0998L85.0578 36.0253L85.0096 35.9757L84.9372 36.0998L85.0578 36.0253L84.9614 36.075L85.0578 36.0502V36.0253L84.9614 36.075L85.0578 36.0502H84.9372L85.0337 36.1246L85.0578 36.0502H84.9372L85.0337 36.1246L84.9372 36.0502L85.0096 36.1495L85.0337 36.1246L84.9372 36.0502L85.0096 36.1495H85.0337C85.106 36.1246 85.2989 36.1246 85.6123 36.1246C85.974 36.1246 86.4321 36.1246 86.9143 36.1495C87.3724 36.1495 87.9029 36.1743 88.3368 36.1743C89.5665 36.1743 91.3266 36.0998 91.9052 36.0998V35.8019L91.7847 36.075L91.9776 36.1743V38.1355H92.2669L92.074 37.9121L92.2669 38.1355H92.5562V35.9757V35.8019L92.0258 35.5536L91.9776 35.5288H91.9052C91.3025 35.5288 89.5424 35.6033 88.3368 35.6033C87.9029 35.6033 87.3965 35.5785 86.9143 35.5785V35.8764V35.5785C86.4321 35.5536 85.974 35.5536 85.5882 35.5536C85.2748 35.5536 85.0578 35.5536 84.8649 35.6033L84.5997 35.7522L84.4791 36.075L84.672 36.4722L85.1542 36.5963L85.6847 36.6956C85.9017 36.7453 85.9499 36.7949 85.9499 36.7949C85.9499 36.7949 85.9981 36.9439 85.9981 37.2418V44.6647C85.9981 45.2109 85.9499 45.5336 85.9017 45.6577L85.6847 45.8067C85.2025 45.8563 84.9373 45.906 84.7444 45.9556L84.4791 46.1294L84.3827 46.4273C84.3586 46.6756 84.5756 46.8742 84.7444 46.899L85.2266 46.9487C85.7811 46.9487 86.4562 46.8742 87.1795 46.8742C88.6744 46.8742 88.9637 46.9487 89.3013 46.9487L89.7594 46.8494L90.0005 46.4273V46.3529L89.7112 46.3777H90.0005L89.8317 46.0053C89.5424 45.757 89.2772 45.8315 89.0361 45.7819C88.5056 45.7074 88.2163 45.6329 88.144 45.5584C88.0716 45.5088 88.0234 45.4343 88.0234 45.0619V41.6856L88.0475 41.5615H88.0234H88.0475H88.0234H88.0475L88.2163 41.5118C88.361 41.487 88.5538 41.487 88.8432 41.487C89.7112 41.487 90.1693 41.5367 90.3621 41.636C90.5309 41.7353 90.5068 41.7353 90.6032 41.9835C90.6997 42.3559 90.7479 42.6042 90.8444 42.8028L91.0372 43.0759L91.3507 43.1752H91.5194L91.7606 42.7531L91.8088 42.6786V42.6042C91.8088 42.2814 91.7847 41.2387 91.7847 40.7919C91.7847 40.3202 91.8088 39.8237 91.8088 39.3272L91.6882 38.9051L91.3507 38.7562C91.0613 38.7562 90.8685 39.0044 90.7961 39.1782C90.6997 39.4513 90.6515 39.7492 90.555 39.9726C90.4586 40.1961 90.3621 40.3202 90.0005 40.3698L90.0246 40.6678L90.0005 40.3698C89.6147 40.3947 89.3254 40.4691 89.0361 40.4691C88.4574 40.4691 88.1681 40.4443 88.1199 40.3947V40.3698L88.0957 40.1216V37.1425C88.0957 36.8694 88.1198 36.8694 88.1681 36.8198C88.2163 36.7701 88.4815 36.7205 88.9396 36.7205C90.4104 36.7205 90.989 36.8694 91.1819 37.068C91.3989 37.217 91.423 37.639 91.7123 38.359L91.7364 38.4583L92.0017 38.6072L92.1945 38.7065L92.5321 38.3838L92.6285 38.3093V38.1852H92.2669V38.1355Z" fill="#010066"/>
<path d="M97.3829 43.7911C97.3829 43.2239 97.2492 43.1746 97.1155 43.1746C97.0353 43.1746 94.7358 43.6678 94.7358 45.172C94.7358 45.6159 95.0834 46.1091 95.7518 46.1091C96.9283 46.1091 97.3562 45.172 97.3562 44.5555V43.7911H97.3829ZM98.6129 45.3447C98.6129 45.5913 98.6931 45.9118 99.2279 45.9118C99.7626 45.9118 99.7626 45.5666 100.03 45.5666L100.244 45.7146C100.244 45.8872 99.7359 46.7749 98.6664 46.7749C97.8375 46.7749 97.4096 46.2078 97.2225 45.9612C96.4738 46.479 96.0727 46.9476 94.816 46.9476C94.0673 46.9476 93.3453 46.553 93.3453 45.6652C93.3453 43.8897 95.8053 43.2485 95.939 43.1992C96.554 42.9773 96.9551 42.854 97.3294 42.7553L97.4096 42.2375C97.4096 41.2018 97.3829 40.5113 96.2064 40.5113C94.2277 40.5113 94.9497 42.5334 93.693 42.5334C93.3186 42.5334 93.2651 42.3115 93.2651 42.1142C93.2651 41.7689 94.5219 39.9688 96.7946 39.9688C98.6129 39.9688 98.6129 41.0785 98.6129 41.4977V45.3447Z" fill="#010066"/>
<path d="M97.2565 43.5785H97.5504C97.5504 43.279 97.5259 43.0793 97.4279 42.9046L97.0117 42.655L96.8402 42.6799C96.5954 42.7548 96.0322 42.9046 95.5424 43.254C95.0282 43.6034 94.5385 44.1525 94.5385 44.9762C94.5385 45.2757 94.6364 45.5752 94.8568 45.7998C95.0527 46.0494 95.3955 46.2241 95.7628 46.2241C96.3995 46.2241 96.8647 45.9496 97.1341 45.5502C97.4279 45.1758 97.5259 44.7515 97.5259 44.3522V43.5535H97.2565H96.9872V44.3522C96.9872 44.6018 96.8892 44.9262 96.7178 45.1758C96.5219 45.4254 96.2526 45.6001 95.7873 45.6001C95.3465 45.6001 95.1506 45.2507 95.1506 44.9262C95.1506 44.3023 95.5669 43.878 96.0567 43.5785C96.3015 43.4287 96.5464 43.3289 96.7668 43.279L97.0117 43.2041L97.0606 43.1791H97.0851L97.0606 42.9794V43.1791H97.0851L97.0606 42.9794V43.1791V43.1292L97.0117 43.229L97.0606 43.254V43.1292L97.0117 43.229L97.0606 43.1292L96.9627 43.2041L97.0117 43.229L97.0606 43.1292L96.9627 43.2041C96.9872 43.229 97.0117 43.3538 97.0117 43.5785H97.2565ZM98.3829 45.1509H98.0891L98.236 45.7C98.3829 45.8996 98.6278 45.9995 98.9216 45.9995C99.2155 45.9995 99.4604 45.8747 99.5828 45.7748L99.6807 45.675V45.3755L99.4848 45.6001L99.6807 45.7748L99.8766 45.5502H99.5828H99.7052L99.6073 45.5253V45.5502H99.7297L99.6318 45.5253L99.3134 45.9745C99.1175 46.1742 98.8237 46.3239 98.4564 46.3239C97.8687 46.3239 97.5504 45.8996 97.3545 45.6251L97.1586 45.4005L96.9382 45.5752C96.2281 46.1243 95.9832 46.4986 94.9058 46.4986C94.3181 46.4737 93.8773 46.2241 93.8528 45.4753C93.8528 44.7266 94.3181 44.1775 94.8568 43.8031C95.3955 43.4287 95.9587 43.279 96.0322 43.229C96.6199 43.0044 96.9627 42.8796 97.281 42.7798L97.4769 42.7299L97.5993 42.0061V41.9811V41.9561C97.5993 41.432 97.5993 40.9578 97.4279 40.5584C97.232 40.1341 96.7913 39.8845 96.2036 39.9095C95.7138 39.9095 95.3221 40.0593 95.0527 40.3089C94.6609 40.6583 94.5385 41.1574 94.3915 41.5069L94.1712 41.8563L93.9018 41.9561L93.8283 41.9312L93.8039 41.8064H93.7304H93.8039H93.7304H93.8039C93.8039 41.7315 94.0977 41.1824 94.5874 40.7581C95.1017 40.3338 95.8118 39.9345 96.7423 39.9345C97.5014 39.9345 97.7952 40.1841 97.9422 40.4087C98.0891 40.6583 98.1136 40.9827 98.1136 41.1824V45.076H98.3829H98.6768V41.1824C98.6768 40.9578 98.6768 40.5085 98.4319 40.0842C98.1625 39.6599 97.6238 39.3354 96.7423 39.3354C95.6159 39.3354 94.7344 39.8346 94.1712 40.3588C93.8773 40.6084 93.6569 40.9079 93.51 41.1325C93.3631 41.3821 93.2651 41.5568 93.2651 41.7814L93.3876 42.2307C93.4855 42.4054 93.7304 42.5052 93.9508 42.4803C94.3181 42.4803 94.6364 42.2806 94.7833 42.031C95.0282 41.6566 95.1017 41.2323 95.2976 40.9328C95.4935 40.6333 95.6649 40.4336 96.277 40.4336C96.7668 40.4586 96.8892 40.5584 96.9872 40.7331C97.0851 40.9328 97.1096 41.3571 97.1096 41.8813H97.4035L97.1096 41.8313L97.0361 42.3555L97.3055 42.4054L97.232 42.1308C96.8402 42.2307 96.4974 42.3804 95.9097 42.5801C95.8608 42.6051 95.2241 42.7798 94.6119 43.2041C93.9997 43.6034 93.3386 44.3272 93.3386 45.3505C93.3386 45.8747 93.5345 46.299 93.8528 46.5735C94.1712 46.8481 94.563 46.9479 94.9547 46.9479C96.2036 46.9729 96.6933 46.3988 97.3545 45.8996L97.1586 45.675L96.9382 45.8747C97.1096 46.0993 97.5749 46.7982 98.5054 46.7982C99.0931 46.7982 99.5338 46.5236 99.8032 46.2491L100.122 45.8248L100.244 45.4504V45.3006L99.9501 45.051L99.8766 44.9762H99.6807C99.4114 44.9762 99.2645 45.1758 99.191 45.2257L98.9216 45.3256L98.7013 45.2507L98.6523 45.051H98.3829V45.1509Z" fill="#010066"/>
<path d="M100.875 45.4708C100.875 45.1373 100.899 44.9468 101.065 44.9468L101.326 45.3755C101.374 45.4946 101.825 46.5188 102.799 46.5188C103.464 46.5188 104.152 46.1854 104.152 45.3755C104.152 43.875 100.97 43.8988 100.97 41.9219C100.97 40.9691 101.54 39.9688 103.06 39.9688C104.841 39.9688 104.865 40.2308 104.865 40.9929C104.865 41.6599 104.841 41.7789 104.722 41.7789C104.224 41.7789 104.39 40.4451 103.06 40.4451C102.419 40.4451 101.967 40.8262 101.967 41.4693C101.967 42.7317 105.316 43.2319 105.316 44.9706C105.316 45.8043 104.77 46.9476 102.965 46.9476C102.466 46.9476 100.899 46.8761 100.899 46.2806V45.4708H100.875Z" fill="#010066"/>
<path d="M100.533 45.5664H100.823L100.847 45.2303L100.75 45.1786V45.3079L100.847 45.2303L100.75 45.1786V45.3079V44.9976L100.509 45.1528L100.774 45.6182L101.016 45.463L100.75 45.5664C100.774 45.6699 100.919 45.9801 101.209 46.3162C101.475 46.6524 101.91 46.9885 102.515 46.9885C102.901 46.9885 103.288 46.885 103.626 46.6524C103.941 46.3938 104.182 45.9801 104.182 45.463C104.182 44.9201 103.916 44.5323 103.578 44.2479C103.07 43.8083 102.37 43.5239 101.838 43.162C101.306 42.7741 100.944 42.3863 100.944 41.7399C100.944 41.2746 101.064 40.835 101.354 40.4989C101.644 40.1628 102.08 39.9301 102.78 39.9301C103.675 39.9301 104.11 40.0335 104.206 40.1369L104.303 40.2921L104.327 40.7575C104.327 41.1194 104.327 41.3263 104.303 41.378V41.4038L104.448 41.4814L104.351 41.3263L104.279 41.4038L104.424 41.4814L104.327 41.3263L104.424 41.4814V41.3004L104.327 41.3263L104.424 41.4814V41.3004V41.3263L104.448 41.3004H104.424V41.3263L104.448 41.3004C104.4 41.3004 104.279 40.9384 104.061 40.5765C103.844 40.2145 103.409 39.8525 102.732 39.8525C102.345 39.8525 102.007 39.9818 101.741 40.2145C101.499 40.4731 101.33 40.835 101.33 41.2746C101.33 41.7658 101.62 42.1278 101.983 42.438C102.49 42.8776 103.215 43.2395 103.796 43.6791C104.376 44.1186 104.762 44.5581 104.762 45.1011C104.762 45.4889 104.641 45.9543 104.327 46.3162C104.013 46.6782 103.505 46.9368 102.635 46.9626C102.394 46.9626 101.886 46.9368 101.451 46.8592C101.234 46.8075 101.04 46.7558 100.944 46.6782L100.823 46.5489V45.644H100.533H100.243V46.5489C100.243 46.8592 100.436 47.0919 100.654 47.1953C101.258 47.5573 102.249 47.5573 102.635 47.5831C103.626 47.5831 104.303 47.247 104.738 46.7558C105.173 46.2645 105.318 45.644 105.318 45.1269C105.318 44.5581 105.052 44.0927 104.714 43.7049C104.182 43.162 103.457 42.7483 102.853 42.3605C102.563 42.1795 102.297 41.9726 102.152 41.7917L101.91 41.3004C101.935 40.7575 102.2 40.5248 102.732 40.4989C103.312 40.5248 103.457 40.7575 103.651 41.0677L103.892 41.559C103.989 41.7141 104.158 41.9209 104.424 41.9209L104.714 41.7917L104.859 41.378C104.883 41.2487 104.883 41.0419 104.883 40.7833L104.835 40.1887C104.786 39.9043 104.569 39.594 104.206 39.4906C103.892 39.3872 103.433 39.3354 102.732 39.3354C101.91 39.3354 101.282 39.6457 100.871 40.1111C100.484 40.5765 100.315 41.197 100.315 41.7658C100.315 42.3863 100.557 42.8775 100.895 43.2395C101.403 43.7825 102.104 44.0927 102.66 44.4288C102.925 44.584 103.167 44.765 103.312 44.9201C103.457 45.1011 103.53 45.2562 103.53 45.4889C103.53 45.825 103.409 46.0318 103.215 46.187C103.022 46.3421 102.732 46.4197 102.442 46.4197C102.055 46.4197 101.765 46.187 101.572 45.9543C101.354 45.6957 101.234 45.4113 101.234 45.3855L101.209 45.3596L100.919 44.8684L100.823 44.7132H100.726C100.509 44.6874 100.291 44.9201 100.291 45.0752L100.243 45.5923H100.533V45.5664Z" fill="#010066"/>
<path d="M109.464 40.7695C108.941 40.7695 108.889 40.9227 108.889 41.4844C108.889 42.4548 108.836 43.9613 108.836 44.9827C108.836 45.7232 109.124 46.1573 110.118 46.1573C110.903 46.1573 110.903 45.953 111.243 45.953L111.453 46.1317C111.453 46.3105 110.903 46.9489 109.569 46.9489C108.182 46.9489 107.528 46.4382 107.528 45.0848C107.528 43.8336 107.554 42.5824 107.554 41.178C107.554 40.9227 107.476 40.8716 107.162 40.8716H106.743L106.586 40.7184C106.586 40.4375 107.476 40.2843 107.947 39.7736C108.653 39.0076 108.496 38.7012 108.784 38.7012L109.02 39.0331V39.697C109.02 39.8758 109.072 39.9268 109.307 39.9268H111.322C111.505 39.9268 111.662 39.9779 111.662 40.3354C111.662 40.5652 111.636 40.7184 111.348 40.7184H109.464V40.7695Z" fill="#010066"/>
<path d="M109.107 40.9264V40.6361C108.844 40.6361 108.554 40.6603 108.37 40.9022C108.212 41.1198 108.238 41.3375 108.212 41.6036C108.212 42.5227 108.16 43.9497 108.16 44.9172C108.16 45.3042 108.238 45.667 108.528 45.933C108.817 46.1991 109.238 46.32 109.765 46.32C110.186 46.32 110.422 46.2716 110.58 46.2232L110.896 46.1507V45.8604L110.686 46.0781L110.896 46.2474L111.107 46.0297H110.817H110.922L110.843 45.9814V46.0297H110.949L110.87 45.9814C110.843 46.0781 110.37 46.5135 109.265 46.5135C108.581 46.5135 108.16 46.3926 107.923 46.1749C107.66 45.9814 107.528 45.6186 107.528 45.0139C107.528 43.8288 107.581 42.6436 107.581 41.3133L107.37 40.8538L106.87 40.7329H106.581L106.528 40.6845L106.291 40.878H106.607H106.475L106.581 40.9505L106.607 40.878H106.475L106.581 40.9505L106.607 40.9264C106.791 40.7812 107.449 40.6119 107.87 40.1766C108.238 39.7896 108.396 39.5235 108.502 39.33L108.554 39.2333L108.581 39.2091L108.475 39.1365L108.528 39.2333L108.581 39.1849L108.475 39.1123L108.528 39.2091L108.449 39.1849V39.2817H108.502L108.449 39.1849V39.2817V38.9914L108.186 39.1365L108.37 39.4026V39.9589L108.528 40.3459L108.975 40.4668H111.001H111.054L111.08 40.3942L111.028 40.4426L111.08 40.4668L111.107 40.3942L111.054 40.4426V40.4668L111.08 40.5877V40.7087V40.7329L111.159 40.7812L111.107 40.7087L111.054 40.757L111.133 40.8054L111.08 40.7329V40.6361H111.028H109.159V40.9264V41.2166H111.028L111.554 40.9747L111.659 40.5636L111.449 40.0314L111.001 39.8863H108.975H108.896L108.87 39.9589L108.923 39.8863L108.896 39.8621L108.87 39.9347L108.923 39.8621L108.844 39.9831L109.002 39.9347L108.923 39.8621L108.844 39.9831L109.002 39.9347H108.975H109.002H108.975H109.002V39.9105V39.2817V39.2091L108.738 38.8221L108.633 38.7012H108.449L108.081 38.8463L107.844 39.2091C107.765 39.3542 107.633 39.5235 107.396 39.7896C107.212 39.9831 106.923 40.1282 106.633 40.2491L106.239 40.4426C106.107 40.5152 105.949 40.6361 105.949 40.8538V40.9747L106.186 41.1924L106.291 41.265H106.844H107.002H107.028L107.054 41.1924L107.002 41.2408H107.028L107.054 41.1682L107.002 41.2166L107.054 41.1198L106.923 41.144L106.975 41.1924L107.028 41.0957L106.896 41.1198L106.923 41.1924C106.923 42.5227 106.87 43.7078 106.87 44.893C106.87 45.5702 107.054 46.1023 107.475 46.4651C107.896 46.8279 108.502 46.9489 109.238 46.9489C109.975 46.9489 110.501 46.7795 110.87 46.586L111.291 46.2716L111.475 45.8846V45.7637L111.159 45.4976L111.054 45.4251H110.922C110.686 45.4251 110.528 45.4976 110.396 45.5218C110.265 45.5702 110.133 45.5944 109.765 45.5944C109.317 45.5944 109.08 45.4976 108.975 45.4009C108.87 45.28 108.791 45.0865 108.791 44.772C108.791 43.8288 108.844 42.4017 108.844 41.4585V41.1682L108.87 41.0957L109.107 41.0715V40.9264Z" fill="#010066"/>
<path d="M115.054 38.3931L115.005 38.6137C115.005 38.8343 120.026 38.9813 120.026 42.7307C120.026 46.3576 115.891 47.5829 114.685 47.5829C114.39 47.5829 114.316 47.4849 114.316 47.3869L114.488 47.1663C114.636 47.1418 114.98 47.0928 115.423 46.9458C117.245 46.3821 118.844 45.1323 118.844 43.0493C118.844 41.873 118.525 41.0888 117.048 40.3781C115.547 39.692 114.316 39.5204 114.316 39.2754C114.316 39.0303 114.98 37.1433 115.054 36.8738C115.128 36.6287 115.202 36.6042 115.817 36.5307L118.697 36.2366C118.918 36.2121 118.992 36.1631 119.091 36.1631C119.312 36.1631 119.411 36.1876 119.411 36.4327C119.411 36.6532 119.411 37.1678 119.017 37.2168L115.448 37.7315C115.227 37.756 115.202 37.8785 115.177 37.9765L115.054 38.3931Z" fill="#010066"/>
<path d="M114.704 38.155L114.405 38.103L114.38 38.337V38.363V38.389L114.505 38.649L114.928 38.805C115.5 38.935 116.644 39.143 117.639 39.7411C118.634 40.3391 119.455 41.1971 119.455 42.7572C119.455 44.5513 118.485 45.7474 117.341 46.5274C116.196 47.2815 114.878 47.6195 114.33 47.5935H114.206H114.181L114.131 47.6975L114.206 47.6455L114.156 47.6195L114.107 47.7235L114.181 47.6715L114.082 47.7495H114.231L114.206 47.6715L114.107 47.7495H114.256H113.957L114.181 47.9315L114.355 47.6975L114.131 47.5155L114.181 47.8275C114.33 47.8015 114.704 47.7235 115.151 47.5675C117.067 46.9695 118.809 45.5134 118.809 43.1473C118.809 42.4972 118.734 41.8992 118.435 41.3792C118.137 40.8591 117.614 40.4171 116.843 40.0271C116.072 39.663 115.35 39.403 114.853 39.247C114.604 39.169 114.405 39.091 114.281 39.039L114.181 38.987L114.131 39.065L114.206 39.013L114.181 38.987L114.131 39.065L114.206 39.013L114.032 39.117H114.231L114.206 39.013L114.032 39.117H114.231H114.206H114.256H114.206H114.256C114.281 39.013 114.43 38.415 114.604 37.8949C114.778 37.3489 114.952 36.8029 115.002 36.6469L115.027 36.5949L114.977 36.5689L115.002 36.5949L115.027 36.5689L114.977 36.5429L115.002 36.5689C115.002 36.5689 115.176 36.5169 115.525 36.4909L118.435 36.1788H118.46C118.709 36.1528 118.759 36.1268 118.833 36.1268H118.933L118.983 35.9968L118.858 36.0748L118.933 36.1528L118.983 36.0228L118.858 36.1008L118.908 36.0748H118.858V36.1008L118.908 36.0748H118.858V36.1268L118.833 36.5169L118.709 36.6729L115.102 37.1929L114.704 37.4009L114.579 37.6869L114.878 37.7649L114.604 37.6609L114.455 38.077V38.103V38.129L114.704 38.155L114.977 38.259L115.127 37.8429L115.151 37.7649L115.077 37.7129L115.127 37.7909L115.151 37.7649L115.077 37.7129L115.127 37.7909L115.176 37.7649L118.759 37.2449C119.107 37.1929 119.306 36.9069 119.356 36.6729C119.43 36.4389 119.43 36.2308 119.43 36.1008L119.231 35.6328L118.809 35.5288C118.634 35.5288 118.585 35.5548 118.361 35.5808L118.41 35.8928L118.386 35.5808L115.475 35.8928C115.176 35.9188 114.977 35.9448 114.803 36.0228L114.455 36.4649L114.728 36.5429L114.455 36.4389C114.405 36.5689 114.206 37.1669 114.032 37.7389C113.932 38.025 113.858 38.311 113.783 38.545C113.733 38.779 113.684 38.935 113.684 39.091L113.858 39.429C114.107 39.611 114.43 39.6891 114.903 39.8451C115.375 40.0011 115.997 40.2091 116.619 40.5211C117.341 40.8591 117.739 41.2231 117.963 41.6132C118.187 42.0032 118.261 42.4712 118.261 43.0693C118.261 45.0974 116.793 46.3454 115.002 46.9175C114.554 47.0735 114.256 47.1255 114.082 47.1515L113.982 47.1775L113.733 47.5155L113.684 47.5935V47.6975L113.907 48.1135L114.355 48.2175C115.052 48.2175 116.42 47.8795 117.664 47.0215C118.908 46.1894 120.052 44.7853 120.028 42.7312C120.028 40.5731 118.634 39.429 117.316 38.857C116.644 38.571 115.997 38.389 115.5 38.285C115.276 38.207 115.052 38.181 114.928 38.155L114.803 38.129L114.753 38.233L114.828 38.129L114.803 38.103L114.753 38.207L114.828 38.103L114.704 38.363H114.952L114.853 38.129L114.704 38.363H114.952H114.654L114.952 38.415L114.977 38.181L114.704 38.155L114.977 38.259L114.704 38.155Z" fill="#010066"/>
<path d="M128.768 41.5558C128.768 39.2026 128.051 36.5063 126.384 36.5063C124.693 36.5063 123.975 39.2026 123.975 41.5558C123.975 43.909 124.667 46.6053 126.384 46.6053C128.051 46.5808 128.768 43.8845 128.768 41.5558ZM122.565 41.5558C122.565 37.977 124.513 36.1631 126.384 36.1631C128.589 36.1631 130.178 38.4182 130.178 41.5558C130.178 44.9875 128.23 46.9485 126.384 46.9485C124.18 46.924 122.565 44.9875 122.565 41.5558Z" fill="#010066"/>
<path d="M128.483 41.569H128.791C128.791 40.2933 128.611 38.9394 128.2 37.8459C127.815 36.7785 127.121 35.9193 126.093 35.9193C125.04 35.9193 124.372 36.8045 123.96 37.8459C123.549 38.9394 123.37 40.2933 123.37 41.569C123.37 42.8447 123.549 44.2246 123.96 45.292C124.346 46.3595 125.04 47.2186 126.093 47.2186C127.121 47.2186 127.815 46.3595 128.2 45.292C128.611 44.2246 128.791 42.8447 128.791 41.569H128.483H128.174C128.174 42.7926 127.994 44.0944 127.635 45.0577C127.249 46.047 126.735 46.6198 126.093 46.6198C125.425 46.6198 124.911 46.0731 124.526 45.0837C124.166 44.1204 123.986 42.7926 123.986 41.595C123.986 40.3714 124.166 39.0696 124.526 38.1063C124.911 37.117 125.425 36.5442 126.093 36.5442C126.735 36.5442 127.275 37.0909 127.635 38.1063C127.994 39.0696 128.174 40.3974 128.174 41.595H128.483V41.569ZM122.265 41.569H122.573C122.573 37.872 124.449 36.1537 126.093 36.1537C127.069 36.1537 127.943 36.6744 128.585 37.6377C129.228 38.601 129.613 39.9548 129.613 41.569C129.613 43.3394 129.151 44.6932 128.457 45.6044C127.789 46.5157 126.915 46.9843 126.093 46.9843C125.091 46.9843 124.217 46.5157 123.601 45.6305C122.958 44.7192 122.573 43.3394 122.573 41.569H122.265H121.956C121.956 43.4435 122.367 44.9275 123.087 45.9689C123.806 47.0103 124.885 47.5831 126.067 47.5831C128.174 47.5571 130.178 45.292 130.178 41.569C130.178 39.8507 129.767 38.3667 129.048 37.2732C128.328 36.1797 127.275 35.5288 126.067 35.5288C125.04 35.5288 123.986 36.0755 123.215 37.0909C122.445 38.1063 121.931 39.6163 121.931 41.569H122.265Z" fill="#010066"/>
<path d="M38.1548 62.3134L41.4532 59.3587C41.675 59.1788 41.8413 58.999 42.0076 58.8448C42.1739 58.6906 42.2848 58.5365 42.3957 58.3823C42.5065 58.2282 42.562 58.074 42.6174 57.9198C42.6728 57.7657 42.6728 57.5858 42.6728 57.3803C42.6728 57.1747 42.6451 56.9692 42.562 56.815C42.4788 56.6351 42.3679 56.5067 42.2293 56.3782C42.0908 56.2497 41.9244 56.1726 41.7304 56.0956C41.5364 56.0442 41.3147 55.9928 41.1206 55.9928C40.6771 55.9928 40.3168 56.1213 40.0119 56.3525C39.7347 56.5837 39.5407 56.8921 39.4575 57.2775L38.3488 57.2004C38.4042 56.8664 38.5151 56.5838 38.6814 56.3268C38.8477 56.0699 39.0418 55.8643 39.2912 55.7102C39.5407 55.5303 39.8179 55.4018 40.1228 55.3248C40.4277 55.2477 40.7603 55.1963 41.1206 55.1963C41.481 55.1963 41.8136 55.2477 42.1462 55.3505C42.4511 55.4532 42.7283 55.5817 42.9777 55.7616C43.2272 55.9414 43.4212 56.1727 43.5598 56.4553C43.6984 56.7379 43.7816 57.0462 43.7816 57.4059C43.7816 57.7143 43.7261 58.0226 43.643 58.2795C43.5321 58.5365 43.4212 58.7677 43.2549 58.999C43.0886 59.2302 42.9223 59.4101 42.7283 59.6156C42.5342 59.8212 42.3125 60.001 42.0908 60.1809L39.4021 62.519V62.5447H43.8647V63.444H38.1548V62.3134Z" fill="#010066"/>
<path d="M44.498 59.3074C44.498 58.876 44.5219 58.3939 44.5934 57.9117C44.6648 57.4295 44.8078 56.9727 44.9984 56.5667C45.1891 56.1606 45.4512 55.8307 45.761 55.577C46.0946 55.3232 46.5235 55.1963 47.0239 55.1963C47.5481 55.1963 47.9532 55.3232 48.2868 55.577C48.6204 55.8307 48.8825 56.1606 49.0731 56.5667C49.2638 56.9727 49.4067 57.4041 49.4544 57.9117C49.5259 58.3939 49.5735 58.876 49.5735 59.3074C49.5735 59.7642 49.5497 60.221 49.4544 60.7286C49.3829 61.2108 49.2638 61.6675 49.0731 62.0736C48.8825 62.4796 48.6204 62.8095 48.2868 63.0633C47.9532 63.3171 47.5481 63.444 47.0239 63.444C46.4997 63.444 46.0946 63.3171 45.761 63.0633C45.4274 62.8095 45.1652 62.4796 44.9984 62.0736C44.8078 61.6675 44.6887 61.2361 44.5934 60.7286C44.5457 60.2464 44.498 59.7642 44.498 59.3074ZM45.4035 59.3074C45.4035 59.5105 45.4035 59.7135 45.4274 59.9673C45.4512 60.221 45.475 60.4494 45.4988 60.7032C45.5465 60.957 45.5942 61.1854 45.6656 61.4391C45.7371 61.6675 45.8563 61.8706 45.9754 62.0736C46.0946 62.2512 46.2375 62.4035 46.4282 62.505C46.6188 62.6065 46.8094 62.6826 47.0715 62.6826C47.3098 62.6826 47.5243 62.6319 47.7149 62.505C47.8817 62.4035 48.0247 62.2512 48.1677 62.0736C48.2868 61.8959 48.3821 61.6929 48.4536 61.4391C48.5251 61.2108 48.5966 60.957 48.6204 60.7032C48.6681 60.4494 48.6919 60.221 48.6919 59.9673C48.7157 59.7389 48.7157 59.5105 48.7157 59.3074C48.7157 59.1044 48.7157 58.9014 48.6919 58.6476C48.6681 58.3939 48.6442 58.1655 48.6204 57.9117C48.5727 57.6833 48.5251 57.4295 48.4536 57.2011C48.3821 56.9727 48.2868 56.7697 48.1677 56.5667C48.0247 56.389 47.8817 56.2368 47.7149 56.1353C47.5243 56.0337 47.3098 55.983 47.0715 55.983C46.8333 55.983 46.6188 56.0337 46.4282 56.1353C46.2375 56.2621 46.0946 56.389 45.9754 56.5667C45.8563 56.7443 45.761 56.9473 45.6656 57.2011C45.5942 57.4295 45.5465 57.6833 45.4988 57.9117C45.4512 58.1655 45.4274 58.3939 45.4274 58.6476C45.4035 58.9014 45.4035 59.1044 45.4035 59.3074Z" fill="#010066"/>
<path d="M54.6507 63.4428H53.6204V56.9897H53.5933L52.075 58.1256L51.4785 57.4731L53.756 55.8296H54.6507V63.4428Z" fill="#010066"/>
<path d="M57.1851 62.3134L60.117 59.3587C60.3141 59.1788 60.462 58.999 60.6098 58.8448C60.7576 58.6906 60.8562 58.5365 60.9547 58.3823C61.0533 58.2282 61.1026 58.074 61.1518 57.9198C61.2011 57.7657 61.2011 57.5858 61.2011 57.3803C61.2011 57.1747 61.1765 56.9692 61.1026 56.815C61.0286 56.6351 60.9301 56.5067 60.8069 56.3782C60.6837 56.2497 60.5359 56.1726 60.3634 56.0956C60.1909 56.0442 59.9938 55.9928 59.8214 55.9928C59.4271 55.9928 59.0822 56.1213 58.8358 56.3525C58.5894 56.5837 58.417 56.8921 58.3431 57.2775L57.3575 57.2004C57.4068 56.8664 57.5054 56.5838 57.6532 56.3268C57.801 56.0699 57.9735 55.8643 58.1952 55.7102C58.417 55.5303 58.6634 55.4018 58.9344 55.3248C59.2054 55.2477 59.5011 55.1963 59.8214 55.1963C60.1417 55.1963 60.462 55.2477 60.733 55.3505C61.0286 55.4532 61.275 55.5817 61.4968 55.7616C61.7185 55.9414 61.891 56.1727 62.0142 56.4553C62.1374 56.7379 62.2113 57.0462 62.2113 57.4059C62.2113 57.7143 62.162 58.0226 62.0881 58.2795C61.9895 58.5365 61.891 58.7677 61.7431 58.999C61.5953 59.2302 61.4475 59.4101 61.275 59.6156C61.1026 59.8212 60.9054 60.001 60.7083 60.1809L58.3184 62.519V62.5447H62.2606V63.444H57.259V62.3134H57.1851Z" fill="#010066"/>
<path d="M66.0688 55.8296H67.1397L68.9756 62.1377L70.9644 55.8296H72.0353L73.9731 62.1377H73.9986L75.8599 55.8296H76.8543L74.5085 63.4428H73.4631L71.4743 56.9897L69.4855 63.4428H68.4401L66.0688 55.8296Z" fill="#010066"/>
<path d="M77.4907 56.458C77.4907 56.2888 77.5669 56.1438 77.6684 56.0229C77.7953 55.9021 77.9475 55.8296 78.1252 55.8296C78.3028 55.8296 78.4551 55.9021 78.582 56.0229C78.7088 56.1438 78.7596 56.2888 78.7596 56.458C78.7596 56.6272 78.7088 56.7722 78.582 56.893C78.4551 57.0139 78.3028 57.0622 78.1252 57.0622C77.9221 57.0622 77.7953 56.9897 77.6684 56.893C77.5415 56.7963 77.4907 56.6272 77.4907 56.458ZM77.6937 58.4157H78.582V63.4428H77.6937V58.4157Z" fill="#010066"/>
<path d="M80.0848 59.7031C80.0848 59.4648 80.0848 59.2503 80.057 59.0597C80.057 58.8691 80.0293 58.6784 80.0293 58.5116H80.9446C80.9446 58.6546 80.9446 58.7737 80.9446 58.9167C80.9446 59.0597 80.9723 59.1788 80.9723 59.3218H81C81.0555 59.2027 81.1664 59.0835 81.2774 58.9644C81.3883 58.8452 81.527 58.7499 81.6934 58.6546C81.8598 58.5831 82.0262 58.4878 82.2481 58.4401C82.47 58.3925 82.6641 58.3687 82.9137 58.3687C83.302 58.3687 83.6348 58.4163 83.8845 58.5116C84.1618 58.6069 84.3837 58.7499 84.5778 58.9167C84.7442 59.1073 84.8829 59.298 84.9661 59.5601C85.0493 59.7984 85.1048 60.0843 85.1048 60.3703V63.4441H84.1341V60.4656C84.1341 60.0367 84.0231 59.7269 83.8013 59.4648C83.5794 59.2265 83.2466 59.1073 82.8028 59.1073C82.4977 59.1073 82.2204 59.155 81.9985 59.2503C81.7766 59.3456 81.5825 59.4648 81.4438 59.6316C81.3051 59.7984 81.1942 59.989 81.111 60.2273C81.0278 60.4656 81 60.7039 81 60.9898V63.4203H80.057V59.7031H80.0848Z" fill="#010066"/>
<path d="M86.4256 59.7031C86.4256 59.4648 86.3979 59.2503 86.3979 59.0597C86.3701 58.8691 86.3701 58.6784 86.3701 58.5116H87.2854C87.2854 58.6546 87.2854 58.7737 87.3131 58.9167C87.3131 59.0597 87.3131 59.1788 87.3131 59.3218H87.3408C87.3963 59.2027 87.5072 59.0835 87.6182 58.9644C87.7291 58.8452 87.8678 58.7499 88.0342 58.6546C88.2006 58.5831 88.3948 58.4878 88.5889 58.4401C88.8108 58.3925 89.0049 58.3687 89.2546 58.3687C89.6151 58.3687 89.9479 58.4163 90.2253 58.5116C90.5026 58.6069 90.7245 58.7499 90.9187 58.9167C91.1128 59.1073 91.2237 59.298 91.3069 59.5601C91.3901 59.7984 91.4456 60.0843 91.4456 60.3703V63.4441H90.4749V60.4656C90.4749 60.0367 90.364 59.7269 90.1698 59.4648C89.9479 59.2265 89.6151 59.1073 89.1713 59.1073C88.8663 59.1073 88.5889 59.155 88.367 59.2503C88.1452 59.3456 87.951 59.4648 87.8123 59.6316C87.6737 59.7984 87.5627 59.989 87.4795 60.2273C87.3963 60.4656 87.3686 60.7039 87.3686 60.9898V63.4203H86.3979V59.7031H86.4256Z" fill="#010066"/>
<path d="M97.6204 62.4244C97.2986 62.7952 96.9767 63.0502 96.6053 63.2124C96.234 63.3514 95.8131 63.4441 95.3427 63.4441C94.9465 63.4441 94.5751 63.3746 94.2533 63.2356C93.9314 63.0965 93.6591 62.9343 93.4363 62.7025C93.2134 62.4708 93.0401 62.1927 92.9163 61.8914C92.7925 61.5901 92.7183 61.2424 92.7183 60.8948C92.7183 60.524 92.7925 60.1764 92.9163 59.8751C93.0401 59.5738 93.2382 59.2957 93.461 59.0639C93.7086 58.8322 93.9809 58.6699 94.3028 58.5541C94.6247 58.415 94.9713 58.3687 95.3674 58.3687C95.7388 58.3687 96.0607 58.415 96.3578 58.5309C96.6549 58.6468 96.9272 58.809 97.1253 59.0176C97.3481 59.2262 97.5214 59.5043 97.6204 59.8056C97.7442 60.1068 97.7938 60.4776 97.7938 60.8716V61.1266H93.6343C93.6591 61.3352 93.7086 61.5206 93.8076 61.7291C93.8819 61.9145 94.0305 62.0768 94.1543 62.2158C94.3028 62.3549 94.4761 62.4708 94.6742 62.5403C94.8723 62.633 95.0703 62.6562 95.3179 62.6562C95.6893 62.6562 96.0111 62.5866 96.2587 62.4708C96.5063 62.3549 96.7539 62.1695 96.952 61.9145L97.6204 62.4244ZM96.8777 60.4545C96.8529 60.0373 96.7291 59.7129 96.4568 59.4579C96.1845 59.203 95.8131 59.0871 95.3427 59.0871C94.8723 59.0871 94.4761 59.203 94.179 59.4579C93.8819 59.7129 93.7086 60.0373 93.6591 60.4545H96.8777Z" fill="#010066"/>
<path d="M99.1153 59.6968C99.1153 59.4596 99.1153 59.2462 99.0884 59.0565C99.0884 58.8667 99.0615 58.677 99.0615 58.511H99.9487C99.9487 58.6533 99.9487 58.7718 99.9755 58.9142C99.9755 59.0565 99.9755 59.175 99.9755 59.3173H100.002C100.056 59.1988 100.164 59.0802 100.271 58.9616C100.379 58.843 100.513 58.7481 100.674 58.6533C100.836 58.5821 101.024 58.4872 101.212 58.4398C101.427 58.3924 101.615 58.3687 101.857 58.3687C101.911 58.3687 101.992 58.3687 102.046 58.3924C102.099 58.3924 102.153 58.4161 102.234 58.4398L102.18 59.2699C102.019 59.2225 101.857 59.1988 101.696 59.1988C101.105 59.1988 100.701 59.3648 100.433 59.6968C100.164 60.0289 100.056 60.4558 100.056 61.025V63.4441H99.1153V59.6968Z" fill="#010066"/>
<path d="M0.318695 64.1646V63.539H1.53446V56.7401H0.342302V56.1146H3.98958V56.7401H2.79743V63.539H4.01319V64.1646H0.318695ZM9.19714 64.1646V63.539H10.0706V60.0923C10.0706 59.6595 9.94863 59.3448 9.70469 59.1481C9.46862 58.9435 9.14993 58.8412 8.74861 58.8412C8.45746 58.8412 8.18598 58.9081 7.93417 59.0418C7.68236 59.1756 7.47777 59.3881 7.32039 59.6792C7.16301 59.9625 7.08432 60.3363 7.08432 60.8006H6.78923C6.78923 60.1632 6.87579 59.6359 7.0489 59.2189C7.22989 58.8018 7.49744 58.4949 7.85154 58.2982C8.21352 58.0936 8.65812 57.9913 9.18534 57.9913C9.79912 57.9913 10.2988 58.1526 10.6844 58.4753C11.0778 58.7979 11.2746 59.3251 11.2746 60.0569V63.539H12.1598V64.1646H9.19714ZM4.81804 64.1646V63.539H5.85675V58.7113H4.91247V58.0857H6.94267V60.2458L7.08432 60.2222V63.539H7.95777V64.1646H4.81804ZM16.0005 64.2944C15.4496 64.2944 14.9618 64.1724 14.5368 63.9285C14.1119 63.6767 13.7775 63.3147 13.5335 62.8426C13.2896 62.3625 13.1676 61.7881 13.1676 61.1192C13.1676 60.4504 13.2896 59.8799 13.5335 59.4077C13.7775 58.9356 14.1119 58.5776 14.5368 58.3336C14.9618 58.0818 15.4496 57.9559 16.0005 57.9559C16.5907 57.9559 17.0746 58.0818 17.4523 58.3336C17.8379 58.5854 18.1212 58.9474 18.3022 59.4195C18.491 59.8917 18.5854 60.4543 18.5854 61.1074L18.6563 61.1311C18.6563 61.7763 18.5579 62.3389 18.3612 62.819C18.1645 63.2911 17.8694 63.657 17.4759 63.9167C17.0825 64.1685 16.5907 64.2944 16.0005 64.2944ZM16.4018 63.4799C16.7874 63.4799 17.1257 63.3895 17.4169 63.2085C17.7081 63.0275 17.9363 62.7599 18.1015 62.4058C18.2668 62.0517 18.3494 61.6229 18.3494 61.1192C18.3494 60.6156 18.2668 60.1907 18.1015 59.8445C17.9363 59.4904 17.7081 59.2228 17.4169 59.0418C17.1257 58.853 16.7874 58.7585 16.4018 58.7585C16.0162 58.7585 15.6778 58.853 15.3867 59.0418C15.0955 59.2228 14.8673 59.4904 14.7021 59.8445C14.5447 60.1907 14.466 60.6156 14.466 61.1192C14.466 61.6229 14.5447 62.0517 14.7021 62.4058C14.8673 62.7599 15.0955 63.0275 15.3867 63.2085C15.6778 63.3895 16.0162 63.4799 16.4018 63.4799ZM18.3848 64.1646V62.5593L18.5264 61.1192L18.2786 59.9035V56.2916H17.3579V55.666H19.5061V63.539H20.4268V64.1646H18.3848ZM21.3015 64.1646V63.539H22.3402V58.7113H21.3959V58.0857H23.5559V63.539H24.4766V64.1646H21.3015ZM22.8831 57.2713C22.6392 57.2713 22.4385 57.2005 22.2811 57.0588C22.1316 56.9172 22.0569 56.7323 22.0569 56.5041C22.0569 56.2759 22.1316 56.0949 22.2811 55.9611C22.4385 55.8273 22.6392 55.7605 22.8831 55.7605C23.1271 55.7605 23.3238 55.8273 23.4733 55.9611C23.6228 56.087 23.6976 56.268 23.6976 56.5041C23.6976 56.7323 23.6228 56.9172 23.4733 57.0588C23.3238 57.2005 23.1271 57.2713 22.8831 57.2713ZM26.7874 60.1278C26.5749 60.1278 26.3822 60.0687 26.209 59.9507C26.0438 59.8248 25.9612 59.6281 25.9612 59.3605C25.9612 59.0536 26.0831 58.7979 26.3271 58.5933C26.5789 58.3887 26.9054 58.2353 27.3068 58.133C27.7081 58.0228 28.133 57.9677 28.5815 57.9677C29.3055 57.9677 29.8681 58.1133 30.2694 58.4044C30.6708 58.6956 30.8675 59.1363 30.8596 59.7264L29.7147 59.5494C29.7147 59.2425 29.5966 59.0064 29.3606 58.8412C29.1324 58.6759 28.7901 58.5933 28.3337 58.5933C28.0582 58.5933 27.7946 58.6248 27.5428 58.6877C27.291 58.7507 27.0825 58.853 26.9172 58.9946C26.7599 59.1284 26.6733 59.3094 26.6576 59.5376L26.6458 58.971C26.8976 58.9789 27.0982 59.03 27.2477 59.1245C27.3973 59.2189 27.4681 59.3645 27.4602 59.5612C27.4523 59.7343 27.3894 59.872 27.2713 59.9743C27.1533 60.0766 26.992 60.1278 26.7874 60.1278ZM31.4026 64.2826C30.899 64.2826 30.5134 64.1449 30.2458 63.8695C29.9783 63.5862 29.8445 63.1888 29.8445 62.6773V62.2996H29.7147V60.5645H29.6439L29.7147 60.0333V59.5494L30.8596 59.7264V62.7717C30.8596 62.9842 30.9108 63.1613 31.0131 63.3029C31.1232 63.4367 31.2845 63.5036 31.497 63.5036C31.7016 63.5036 31.855 63.4367 31.9573 63.3029C32.0675 63.1613 32.1226 62.9842 32.1226 62.7717V61.0484H32.9252V62.6891C32.9252 63.1927 32.7954 63.5862 32.5357 63.8695C32.276 64.1449 31.8983 64.2826 31.4026 64.2826ZM27.5664 64.2826C26.9684 64.2826 26.4766 64.1409 26.091 63.8577C25.7133 63.5665 25.5244 63.1652 25.5244 62.6537C25.5244 62.2839 25.6031 61.9848 25.7605 61.7566C25.9257 61.5206 26.15 61.3356 26.4333 61.2019C26.7166 61.0602 27.0431 60.954 27.413 60.8832L28.4163 60.6707C28.6602 60.6235 28.8806 60.5566 29.0773 60.4701C29.274 60.3835 29.4275 60.2655 29.5376 60.1159C29.6557 59.9664 29.7147 59.7776 29.7147 59.5494L29.7501 60.5645H29.7147C29.636 60.7376 29.4983 60.8792 29.3016 60.9894C29.1127 61.0996 28.8727 61.1861 28.5815 61.2491L28.0622 61.3553C27.8261 61.4104 27.6097 61.4812 27.413 61.5678C27.2163 61.6465 27.0589 61.7527 26.9409 61.8865C26.8228 62.0202 26.7638 62.2012 26.7638 62.4294C26.7638 62.7442 26.8779 62.9842 27.1061 63.1494C27.3343 63.3147 27.6412 63.3973 28.0268 63.3973C28.3258 63.3973 28.6012 63.3344 28.853 63.2085C29.1127 63.0826 29.3212 62.878 29.4786 62.5947C29.636 62.3035 29.7147 61.9219 29.7147 61.4497L30.057 61.4734C30.057 62.1501 29.9468 62.697 29.7265 63.114C29.5061 63.5232 29.2071 63.8222 28.8294 64.0111C28.4517 64.1921 28.0307 64.2826 27.5664 64.2826Z" fill="#010066"/>
</svg>
