<svg width="156" height="40" viewBox="0 0 156 40" fill="none" xmlns="http://www.w3.org/2000/svg">
<g clip-path="url(#clip0_913_6410)">
<path d="M0 37.6412V31.4209H1.0088V37.6412H0Z" fill="#F76600"/>
<path d="M3.31338 37.6417H2.32275V33.1013H3.30429V33.3828C3.74658 33.1286 4.16464 33.0015 4.55847 33.0015C5.16435 33.0015 5.57636 33.174 5.79447 33.519C6.01865 33.858 6.13074 34.4211 6.13074 35.2081V37.6417H5.14921V35.2353C5.14921 34.7449 5.09468 34.3968 4.98562 34.191C4.88262 33.9852 4.66753 33.8823 4.34035 33.8823C4.03135 33.8823 3.73447 33.9428 3.4497 34.0639L3.31338 34.1183V37.6417Z" fill="#F76600"/>
<path d="M6.81213 33.1006H7.84821L8.72068 36.7965H9.01152L9.92035 33.1006H10.9291L9.74767 37.641H7.98452L6.81213 33.1006Z" fill="#F76600"/>
<path d="M11.8781 33.5917C12.1932 33.1982 12.7142 33.0015 13.4413 33.0015C14.1683 33.0015 14.6864 33.1982 14.9954 33.5917C15.3104 33.9852 15.468 34.5754 15.468 35.3624C15.468 36.1494 15.3165 36.7427 15.0135 37.1422C14.7106 37.5418 14.1865 37.7416 13.4413 37.7416C12.696 37.7416 12.1719 37.5418 11.869 37.1422C11.566 36.7427 11.4146 36.1494 11.4146 35.3624C11.4146 34.5754 11.5691 33.9852 11.8781 33.5917ZM12.6233 36.5429C12.7627 36.785 13.0353 36.9061 13.4413 36.9061C13.8472 36.9061 14.1199 36.785 14.2592 36.5429C14.3986 36.3008 14.4683 35.9042 14.4683 35.3533C14.4683 34.8024 14.3925 34.412 14.241 34.1819C14.0956 33.9519 13.829 33.8368 13.4413 33.8368C13.0535 33.8368 12.7839 33.9519 12.6324 34.1819C12.487 34.412 12.4143 34.8024 12.4143 35.3533C12.4143 35.9042 12.4839 36.3008 12.6233 36.5429Z" fill="#F76600"/>
<path d="M16.452 37.6421V33.1018H17.4426V37.6421H16.452ZM16.452 32.3299V31.2856H17.4426V32.3299H16.452Z" fill="#F76600"/>
<path d="M20.3437 33.0015C20.6649 33.0015 21.0435 33.0438 21.4798 33.1286L21.707 33.174L21.6706 33.9549C21.192 33.9064 20.8375 33.8823 20.6073 33.8823C20.1468 33.8823 19.8378 33.9852 19.6803 34.191C19.5227 34.3968 19.444 34.7843 19.444 35.3533C19.444 35.9224 19.5197 36.3159 19.6712 36.5338C19.8227 36.7517 20.1377 36.8607 20.6164 36.8607L21.6797 36.7881L21.707 37.5781C21.095 37.687 20.6345 37.7416 20.3255 37.7416C19.6348 37.7416 19.1471 37.5569 18.8624 37.1876C18.5836 36.8123 18.4443 36.2009 18.4443 35.3533C18.4443 34.5058 18.5927 33.9035 18.8896 33.5463C19.1865 33.183 19.6712 33.0015 20.3437 33.0015Z" fill="#F76600"/>
<path d="M22.6648 37.6421V33.1018H23.6554V37.6421H22.6648ZM22.6648 32.3299V31.2856H23.6554V32.3299H22.6648Z" fill="#F76600"/>
<path d="M25.8476 37.6417H24.8569V33.1013H25.8385V33.3828C26.2808 33.1286 26.6988 33.0015 27.0927 33.0015C27.6986 33.0015 28.1105 33.174 28.3287 33.519C28.5529 33.858 28.6649 34.4211 28.6649 35.2081V37.6417H27.6834V35.2353C27.6834 34.7449 27.6289 34.3968 27.5198 34.191C27.4168 33.9852 27.2017 33.8823 26.8746 33.8823C26.5656 33.8823 26.2686 33.9428 25.9839 34.0639L25.8476 34.1183V37.6417Z" fill="#F76600"/>
<path d="M33.7897 38.2589C33.7897 39.2517 33.0718 39.7481 31.6358 39.7481C30.9451 39.7481 30.4331 39.6542 30.0999 39.4666C29.7666 39.2789 29.6 38.9368 29.6 38.4404C29.6 38.2165 29.6546 38.0227 29.7636 37.8593C29.8727 37.7019 30.0484 37.5294 30.2908 37.3417C30.0908 37.2085 29.9908 36.9876 29.9908 36.6788C29.9908 36.5578 30.0726 36.361 30.2362 36.0886L30.318 35.9524C29.8817 35.6921 29.6636 35.238 29.6636 34.5903C29.6636 34.0454 29.8272 33.6459 30.1544 33.3916C30.4816 33.1374 30.9239 33.0103 31.4813 33.0103C31.7479 33.0103 32.0114 33.0405 32.272 33.101L32.4083 33.1283L33.817 33.0919V33.8911L33.0626 33.8457C33.2262 34.0575 33.308 34.3057 33.308 34.5903C33.308 35.1835 33.1566 35.5952 32.8536 35.8252C32.5567 36.0492 32.0902 36.1612 31.454 36.1612C31.2965 36.1612 31.1632 36.1491 31.0541 36.1249C30.9693 36.3307 30.9269 36.4911 30.9269 36.6062C30.9269 36.7151 30.9814 36.7908 31.0905 36.8332C31.2056 36.8756 31.4782 36.8998 31.9085 36.9058C32.6294 36.9119 33.1232 37.0087 33.3898 37.1964C33.6564 37.3841 33.7897 37.7382 33.7897 38.2589ZM30.5725 38.3497C30.5725 38.5615 30.6573 38.7129 30.8269 38.8037C30.9966 38.8945 31.2874 38.9399 31.6994 38.9399C32.4325 38.9399 32.7991 38.731 32.7991 38.3133C32.7991 38.0772 32.7324 37.9259 32.5992 37.8593C32.4719 37.7988 32.2144 37.7654 31.8266 37.7594L30.936 37.7049C30.8027 37.8139 30.7088 37.9138 30.6543 38.0046C30.5997 38.1014 30.5725 38.2165 30.5725 38.3497ZM30.6452 34.5903C30.6452 34.8688 30.7118 35.0746 30.8451 35.2078C30.9784 35.3349 31.1935 35.3984 31.4904 35.3984C31.7872 35.3984 31.9993 35.3349 32.1266 35.2078C32.2598 35.0746 32.3265 34.8688 32.3265 34.5903C32.3265 34.3118 32.2598 34.109 32.1266 33.9819C31.9933 33.8487 31.7782 33.7821 31.4813 33.7821C30.9239 33.7821 30.6452 34.0515 30.6452 34.5903Z" fill="#F76600"/>
<path d="M38.535 32.2024C37.7656 32.2024 37.3808 32.4718 37.3808 33.0106C37.3808 33.2891 37.4717 33.4889 37.6534 33.6099C37.8352 33.725 38.2351 33.8702 38.8531 34.0458C39.4772 34.2153 39.9164 34.4212 40.1709 34.6633C40.4254 34.8994 40.5526 35.2747 40.5526 35.7893C40.5526 36.4431 40.3648 36.9335 39.9891 37.2603C39.6195 37.5812 39.1136 37.7416 38.4714 37.7416C37.9564 37.7416 37.3868 37.6811 36.7628 37.56L36.4356 37.4964L36.5356 36.6883C37.3535 36.7973 37.9776 36.8517 38.4078 36.8517C39.1591 36.8517 39.5347 36.5188 39.5347 35.8529C39.5347 35.5925 39.4499 35.4018 39.2803 35.2808C39.1106 35.1536 38.7289 35.0174 38.1351 34.8721C37.5414 34.7208 37.0991 34.515 36.8082 34.2546C36.5174 33.9944 36.372 33.5827 36.372 33.0197C36.372 32.4567 36.5538 32.0329 36.9173 31.7484C37.2869 31.4578 37.7958 31.3125 38.4441 31.3125C38.9107 31.3125 39.462 31.367 40.0982 31.476L40.4163 31.5305L40.3345 32.3477C39.4863 32.2509 38.8864 32.2024 38.535 32.2024Z" fill="#F76600"/>
<path d="M41.5245 37.6421V33.1018H42.5151V37.6421H41.5245ZM41.5245 32.3299V31.2856H42.5151V32.3299H41.5245Z" fill="#F76600"/>
<path d="M44.7075 37.6417H43.7169V33.1013H44.6984V33.3828C45.1286 33.1286 45.5224 33.0015 45.8799 33.0015C46.407 33.0015 46.7918 33.1498 47.0341 33.4464C47.5855 33.1498 48.1338 33.0015 48.679 33.0015C49.2244 33.0015 49.6091 33.1709 49.8333 33.5099C50.0574 33.8429 50.1696 34.4089 50.1696 35.2081V37.6417H49.188V35.2353C49.188 34.7449 49.1365 34.3968 49.0335 34.191C48.9366 33.9852 48.7306 33.8823 48.4155 33.8823C48.1429 33.8823 47.849 33.9428 47.5339 34.0639L47.3795 34.1274C47.4279 34.2485 47.4521 34.6359 47.4521 35.2897V37.6417H46.4706V35.308C46.4706 34.7692 46.4222 34.3968 46.3252 34.191C46.2283 33.9852 46.0162 33.8823 45.6891 33.8823C45.3861 33.8823 45.1043 33.9428 44.8438 34.0639L44.7075 34.1183V37.6417Z" fill="#F76600"/>
<path d="M51.3318 39.594V33.1013H52.3133V33.3828C52.7314 33.1286 53.1222 33.0015 53.4857 33.0015C54.0856 33.0015 54.5249 33.1861 54.8036 33.5554C55.0822 33.9186 55.2216 34.533 55.2216 35.3987C55.2216 36.2584 55.061 36.8637 54.7399 37.2149C54.4248 37.566 53.9069 37.7416 53.1858 37.7416C52.9374 37.7416 52.6496 37.7143 52.3224 37.6598V39.594H51.3318ZM53.3131 33.8823C53.0283 33.8823 52.7435 33.9459 52.4588 34.073L52.3224 34.1365V36.8153C52.5648 36.8637 52.8314 36.888 53.1222 36.888C53.5342 36.888 53.819 36.7699 53.9765 36.5338C54.1341 36.2977 54.2128 35.8951 54.2128 35.3261C54.2128 34.3636 53.9129 33.8823 53.3131 33.8823Z" fill="#F76600"/>
<path d="M56.2677 37.6406V31.2114H57.2583V37.6406H56.2677Z" fill="#F76600"/>
<path d="M58.5118 37.6421V33.1018H59.5024V37.6421H58.5118ZM58.5118 32.3299V31.2856H59.5024V32.3299H58.5118Z" fill="#F76600"/>
<path d="M61.8947 33.9455V37.6413H60.9132V33.9455H60.3861V33.1009H60.9132V32.8104C60.9132 32.1626 61.0071 31.7177 61.1949 31.4755C61.3828 31.2333 61.716 31.1123 62.1949 31.1123L63.1764 31.2031L63.1671 32.0113C62.8699 31.9991 62.6219 31.9931 62.4218 31.9931C62.2278 31.9931 62.0916 32.0536 62.0129 32.1747C61.9341 32.2897 61.8947 32.5046 61.8947 32.8195V33.1009H63.0943V33.9455H61.8947Z" fill="#F76600"/>
<path d="M63.8459 37.6421V33.1018H64.8368V37.6421H63.8459ZM63.8459 32.3299V31.2856H64.8368V32.3299H63.8459Z" fill="#F76600"/>
<path d="M69.2735 36.8244L69.5277 36.7972L69.5463 37.5327C68.8558 37.6719 68.2435 37.7416 67.7102 37.7416C67.0376 37.7416 66.5534 37.5569 66.2562 37.1876C65.9653 36.8184 65.8199 36.2281 65.8199 35.4169C65.8199 33.8066 66.4775 33.0015 67.7922 33.0015C69.0646 33.0015 69.7005 33.6946 69.7005 35.0809L69.6371 35.7892H66.8194C66.8256 36.1645 66.9077 36.44 67.0649 36.6155C67.2228 36.7911 67.5162 36.8788 67.9464 36.8788C68.3765 36.8788 68.8191 36.8607 69.2735 36.8244ZM68.7283 35.0264C68.7283 34.5785 68.6556 34.2667 68.5101 34.0911C68.3709 33.9095 68.1316 33.8187 67.7922 33.8187C67.4528 33.8187 67.2042 33.9125 67.0469 34.1002C66.8952 34.2879 66.8169 34.5966 66.8107 35.0264H68.7283Z" fill="#F76600"/>
<path d="M74.3611 31.2114V37.6406H73.3796V37.4045C72.937 37.6285 72.5311 37.7405 72.1619 37.7405C71.5683 37.7405 71.1319 37.5619 70.8528 37.2047C70.5805 36.8475 70.4438 36.2482 70.4438 35.4067C70.4438 34.5652 70.5955 33.9538 70.8982 33.5724C71.2077 33.191 71.6864 33.0004 72.3347 33.0004C72.5522 33.0004 72.8978 33.0397 73.3703 33.1184V31.2114H74.3611ZM73.2161 36.6962L73.3703 36.6326V33.9448C73.0072 33.8842 72.671 33.8539 72.3614 33.8539C71.7498 33.8539 71.4439 34.3625 71.4439 35.3795C71.4439 35.9364 71.5135 36.3238 71.6528 36.5418C71.7982 36.7537 72.0251 36.8596 72.3347 36.8596C72.6436 36.8596 72.937 36.8052 73.2161 36.6962Z" fill="#F76600"/>
<path d="M0.0393066 1.40161V0.034668H5.56498V5.8685L0.0393066 1.40161Z" fill="#F76600"/>
<path d="M0.0393066 12.6941V25.4614H5.56498V5.87012L0.0393066 12.6941Z" fill="#05164D"/>
<path d="M10.534 8.6431C10.9945 8.40099 11.6003 8.15881 12.3517 7.9167C13.1029 7.65029 13.927 7.4203 14.8237 7.22655C15.7204 7.0328 16.6171 6.87541 17.5138 6.75432C18.4348 6.6333 19.283 6.57275 20.0585 6.57275C21.7065 6.57275 23.1122 6.79068 24.2755 7.22655C25.4388 7.63823 26.3234 8.3162 26.9293 9.26059C27.5594 10.205 27.8744 11.4884 27.8744 13.1108V25.4605H22.4579V14.2005C22.4579 13.7404 22.3851 13.3166 22.2397 12.9292C22.1185 12.5417 21.9246 12.2148 21.658 11.9485C21.3914 11.6579 21.0279 11.44 20.5675 11.2947C20.107 11.1252 19.5496 11.0404 18.8952 11.0404C18.3378 11.0404 17.7804 11.1131 17.223 11.2583C16.6656 11.3794 16.2414 11.5126 15.9506 11.6579V25.4605H10.534V8.6431Z" fill="#05164D"/>
<path d="M38.0494 25.4598L30.3788 7.08057H36.2681L41.8301 21.2464L40.5214 21.2827L45.4654 7.08057H51.1728L43.5023 25.4598H38.0494Z" fill="#05164D"/>
<path d="M61.6371 26.0049C58.535 26.0049 56.1962 25.1816 54.6209 23.535C53.0699 21.8642 52.2944 19.4185 52.2944 16.1979C52.2944 12.7351 53.082 10.2531 54.6573 8.75172C56.2568 7.22614 58.5834 6.46338 61.6371 6.46338C63.6974 6.46338 65.418 6.81446 66.7991 7.51673C68.2052 8.19477 69.2594 9.24812 69.9618 10.6768C70.6891 12.1055 71.0527 13.9458 71.0527 16.1979C71.0527 19.4185 70.2409 21.8642 68.6167 23.535C66.9931 25.1816 64.6665 26.0049 61.6371 26.0049ZM61.6371 21.6826C62.5338 21.6826 63.2728 21.4767 63.8547 21.0651C64.4607 20.6292 64.9089 20.0117 65.1998 19.2126C65.5149 18.3893 65.6722 17.3844 65.6722 16.1979C65.6722 14.8418 65.5149 13.7763 65.1998 13.0014C64.9089 12.2023 64.4607 11.6333 63.8547 11.2943C63.2486 10.931 62.5095 10.7495 61.6371 10.7495C60.7162 10.7495 59.9648 10.931 59.3832 11.2943C58.8015 11.6575 58.3653 12.2387 58.0745 13.0377C57.8079 13.8126 57.6746 14.866 57.6746 16.1979C57.6746 18.0381 57.9897 19.4185 58.6198 20.3386C59.2741 21.2346 60.2799 21.6826 61.6371 21.6826Z" fill="#05164D"/>
<path d="M74.9001 25.46V7.33496H80.3167L80.3528 25.46H74.9001Z" fill="#05164D"/>
<path d="M93.8086 25.9327C92.5001 25.9327 91.2638 25.739 90.1007 25.3515C88.9371 24.9641 87.9071 24.3829 87.0108 23.608C86.1138 22.8332 85.4108 21.8525 84.9024 20.6659C84.3933 19.4794 84.139 18.0991 84.139 16.5252C84.139 14.8543 84.3808 13.4014 84.8657 12.1664C85.3505 10.9073 86.0169 9.86596 86.8654 9.04266C87.7374 8.21936 88.7556 7.60186 89.9186 7.19025C91.0822 6.77856 92.3665 6.57275 93.7725 6.57275C94.7658 6.57275 95.784 6.68172 96.8258 6.89965C97.8924 7.09334 98.8254 7.37181 99.6254 7.73507V12.3843C98.777 11.9969 97.9409 11.6821 97.1167 11.44C96.3173 11.1736 95.4931 11.0404 94.6446 11.0404C93.118 11.0404 91.8822 11.4278 90.9368 12.2027C90.0156 12.9534 89.5556 14.1884 89.5556 15.9077C89.5556 17.7238 89.9671 19.0919 90.7913 20.0121C91.6156 20.9323 92.9849 21.3924 94.8995 21.3924C95.7958 21.3924 96.6561 21.235 97.4803 20.9202C98.3288 20.6054 99.0554 20.2785 99.6615 19.9394V24.5524C98.813 24.9883 97.9285 25.3273 97.0079 25.5695C96.0867 25.8116 95.0207 25.9327 93.8086 25.9327Z" fill="#05164D"/>
<path d="M111.765 26.0049C109.923 26.0049 108.287 25.6296 106.858 24.8789C105.452 24.104 104.35 23.0144 103.55 21.6099C102.774 20.1812 102.387 18.4861 102.387 16.5248C102.387 13.3283 103.174 10.8584 104.749 9.11491C106.349 7.34722 108.627 6.46338 111.584 6.46338C113.619 6.46338 115.255 6.89924 116.491 7.77096C117.752 8.64269 118.672 9.91403 119.254 11.5849C119.836 13.2557 120.114 15.2898 120.09 17.6871H106.094L105.513 14.2364H115.619L114.819 15.9436C114.795 13.9821 114.516 12.6019 113.983 11.8028C113.45 11.0037 112.578 10.6041 111.366 10.6041C110.687 10.6041 110.069 10.7736 109.511 11.1127C108.979 11.4517 108.554 12.0207 108.239 12.8198C107.949 13.5947 107.803 14.6723 107.803 16.0525C107.803 17.796 108.215 19.14 109.039 20.0844C109.887 21.0288 111.233 21.5009 113.074 21.5009C113.753 21.5009 114.419 21.4283 115.073 21.283C115.752 21.1135 116.382 20.9198 116.964 20.7019C117.545 20.4839 118.043 20.2902 118.454 20.1207V24.7699C117.582 25.1332 116.601 25.4238 115.51 25.6417C114.444 25.8838 113.195 26.0049 111.765 26.0049Z" fill="#05164D"/>
<path d="M123.854 25.4603V9.0061C124.193 8.7155 124.799 8.38861 125.671 8.02541C126.543 7.63797 127.537 7.29895 128.652 7.00836C129.791 6.69358 130.93 6.53613 132.069 6.53613C133.208 6.53613 134.105 6.62092 134.76 6.79043C135.414 6.95994 135.911 7.17787 136.25 7.44422V11.4034C135.838 11.3066 135.317 11.2339 134.687 11.1855C134.057 11.137 133.402 11.1128 132.724 11.1128C132.045 11.0886 131.403 11.0886 130.797 11.1128C130.191 11.137 129.682 11.1855 129.27 11.2581V25.4603H123.854Z" fill="#05164D"/>
<path d="M146.492 26.0051C145.377 26.0051 144.323 25.8961 143.329 25.6782C142.36 25.4844 141.5 25.1575 140.748 24.6975C140.021 24.2132 139.451 23.5715 139.039 22.7724C138.627 21.9491 138.421 20.932 138.421 19.7213C138.421 18.5832 138.651 17.5903 139.112 16.7428C139.597 15.8953 140.324 15.2415 141.293 14.7814C142.263 14.3213 143.487 14.0912 144.965 14.0912C145.789 14.0912 146.589 14.176 147.364 14.3455C148.14 14.515 148.831 14.7451 149.437 15.0356C150.066 15.3262 150.564 15.6411 150.927 15.98L151.145 18.5952C150.661 18.3047 150.079 18.0747 149.4 17.9052C148.721 17.7356 147.995 17.6509 147.219 17.6509C146.032 17.6509 145.159 17.8325 144.601 18.1957C144.069 18.5347 143.802 19.0796 143.802 19.8302C143.802 20.2903 143.935 20.702 144.202 21.0652C144.468 21.4284 144.819 21.7069 145.256 21.9006C145.716 22.0943 146.189 22.1912 146.674 22.1912C147.909 22.1912 148.77 22.1064 149.255 21.9369C149.764 21.7674 150.018 21.4284 150.018 20.9199V14.1639C150.018 13.05 149.655 12.2509 148.928 11.7666C148.225 11.2581 147.219 11.0038 145.91 11.0038C144.844 11.0038 143.765 11.1976 142.675 11.585C141.608 11.9482 140.736 12.3962 140.057 12.9289V8.13438C140.688 7.74694 141.657 7.38368 142.966 7.04466C144.299 6.70564 145.789 6.53613 147.437 6.53613C148.019 6.53613 148.661 6.58462 149.364 6.68146C150.066 6.77831 150.769 6.95994 151.472 7.22629C152.175 7.46846 152.818 7.83166 153.399 8.31594C154.005 8.80029 154.49 9.41778 154.853 10.1684C155.217 10.9191 155.398 11.8514 155.398 12.9653L155.362 21.6463C155.362 22.6876 155.01 23.5352 154.307 24.189C153.605 24.8185 152.587 25.2786 151.254 25.5692C149.945 25.8598 148.358 26.0051 146.492 26.0051Z" fill="#05164D"/>
</g>
<defs>
<clipPath id="clip0_913_6410">
<rect width="155.398" height="39.782" fill="white"/>
</clipPath>
</defs>
</svg>
