<svg width="14" height="21" viewBox="0 0 14 21" fill="none" xmlns="http://www.w3.org/2000/svg">
<path d="M13.0532 3.34C11.8053 1.27456 9.49885 0.000739375 7.00194 5.45735e-07C4.50513 -0.00096141 2.19762 1.26985 0.947874 3.33532C-0.301048 5.39981 -0.302053 7.94439 0.944852 10.0099L3.03477 13.4654C1.12516 14.235 0 15.4818 0 16.8749C0 19.1837 3.07499 21 6.99905 21C10.9231 21 13.9981 19.1885 13.9981 16.8749C13.9981 15.4771 12.8731 14.2274 10.9633 13.4654L13.0532 10.0175C13.6726 9.00454 14 7.85204 14 6.67927C14 5.50561 13.6726 4.35311 13.0532 3.34ZM12.9242 16.8823C12.9242 18.5629 10.2221 19.9819 6.9991 19.9819C3.77611 19.9819 1.07396 18.5629 1.07396 16.8823C1.07396 15.9077 2.02776 14.9582 3.5768 14.3705L4.73205 16.282C5.20039 17.0555 6.06456 17.5317 6.99923 17.5317C7.9339 17.5317 8.79807 17.0555 9.26641 16.282L10.4217 14.3686C11.9737 14.9564 12.9245 15.8924 12.9245 16.8823L12.9242 16.8823ZM12.1185 9.50455L8.34167 15.7693C8.06671 16.2244 7.55807 16.5053 7.00715 16.5053C6.45622 16.5053 5.94758 16.2244 5.67262 15.7693L1.87749 9.50455C0.824988 7.7585 0.828004 5.60846 1.88454 3.86433C2.94008 2.1202 4.88991 1.04668 6.99904 1.04668C9.10816 1.04668 11.0579 2.12029 12.1135 3.86433C13.1701 5.60846 13.1731 7.75845 12.1206 9.50455H12.1185ZM6.9991 3.67568C5.75018 3.67568 4.62518 4.39431 4.14766 5.49581C3.67024 6.59829 3.93514 7.86622 4.81745 8.70898C5.70075 9.55171 7.02922 9.80279 8.18148 9.34583C9.33471 8.88886 10.0861 7.81332 10.0851 6.62151C10.082 4.99473 8.70231 3.67765 6.9991 3.67568ZM6.9991 8.55023C6.18531 8.55023 5.45207 8.08174 5.14086 7.36406C4.82964 6.64639 5.00086 5.82003 5.57696 5.26975C6.15208 4.72043 7.01723 4.55594 7.7686 4.8532C8.52097 5.15142 9.01046 5.85178 9.01046 6.62908C9.00441 7.68634 8.10601 8.54156 6.9991 8.54252V8.55023Z" fill="black"/>
</svg>
