<svg width="109" height="62" viewBox="0 0 109 62" fill="none" xmlns="http://www.w3.org/2000/svg">
<rect x="1" y="1" width="107" height="60" rx="2.58643" fill="#04101F" fill-opacity="0.49"/>
<rect x="0.5" y="0.5" width="108" height="61" rx="3.08643" stroke="white" stroke-opacity="0.03"/>
<path d="M39.4062 32.998L36.6984 24.9159H36.6431C36.6523 25.1001 36.6661 25.3626 36.6846 25.7034C36.703 26.035 36.7168 26.3988 36.726 26.7948C36.7444 27.1817 36.7536 27.5455 36.7536 27.8863V32.998H35.1648V23.1337H37.624L40.2214 30.8843H40.2766L42.9845 23.1337H45.4437V32.998H43.7582V27.8034C43.7582 27.4902 43.7628 27.1494 43.772 26.781C43.7904 26.4034 43.8042 26.0488 43.8134 25.7172C43.8319 25.3764 43.8457 25.1139 43.8549 24.9297H43.7996L40.9812 32.998H39.4062ZM49.5706 25.51V32.998H47.8298V25.51H49.5706ZM48.7002 22.6225C48.9581 22.6225 49.1837 22.6916 49.3771 22.8297C49.5706 22.9587 49.6673 23.1935 49.6673 23.5343C49.6673 23.8659 49.5706 24.1054 49.3771 24.2527C49.1837 24.3909 48.9581 24.46 48.7002 24.46C48.4331 24.46 48.2028 24.3909 48.0094 24.2527C47.8252 24.1054 47.7331 23.8659 47.7331 23.5343C47.7331 23.1935 47.8252 22.9587 48.0094 22.8297C48.2028 22.6916 48.4331 22.6225 48.7002 22.6225ZM54.822 33.1362C54.1128 33.1362 53.4957 33.0027 52.9707 32.7355C52.4549 32.4592 52.0543 32.0402 51.7688 31.4783C51.4924 30.9073 51.3543 30.1797 51.3543 29.2955C51.3543 28.3744 51.5063 27.6284 51.8102 27.0573C52.1234 26.4771 52.5516 26.0534 53.0951 25.7863C53.6385 25.51 54.2602 25.3718 54.9602 25.3718C55.4299 25.3718 55.849 25.4179 56.2174 25.51C56.5858 25.6021 56.899 25.7126 57.1569 25.8415L56.6457 27.2093C56.3602 27.0988 56.0746 27.0067 55.7891 26.933C55.5036 26.8501 55.2273 26.8086 54.9602 26.8086C54.5457 26.8086 54.2003 26.9007 53.924 27.085C53.6569 27.2692 53.4589 27.5455 53.3299 27.9139C53.201 28.2731 53.1365 28.729 53.1365 29.2816C53.1365 29.8158 53.201 30.2625 53.3299 30.6218C53.4681 30.981 53.6707 31.2527 53.9378 31.4369C54.2049 31.6119 54.5365 31.6994 54.9325 31.6994C55.3562 31.6994 55.7292 31.6487 56.0516 31.5474C56.374 31.4461 56.6779 31.3079 56.9634 31.1329V32.6388C56.6779 32.8138 56.3694 32.9382 56.0378 33.0119C55.7154 33.0948 55.3102 33.1362 54.822 33.1362ZM62.6413 25.3718C62.7519 25.3718 62.8808 25.3764 63.0282 25.3856C63.1756 25.3948 63.2999 25.4133 63.4012 25.4409L63.2492 27.0573C63.1663 27.0389 63.0558 27.0251 62.9177 27.0159C62.7887 26.9975 62.6736 26.9882 62.5723 26.9882C62.296 26.9882 62.0289 27.0343 61.771 27.1264C61.5223 27.2093 61.2966 27.3382 61.094 27.5132C60.9006 27.679 60.744 27.8955 60.6243 28.1626C60.5137 28.4297 60.4585 28.7474 60.4585 29.1159V32.998H58.7177V25.51H60.0578L60.3065 26.8086H60.3894C60.5368 26.5415 60.721 26.3021 60.942 26.0902C61.1631 25.8692 61.4164 25.6942 61.7019 25.5652C61.9966 25.4363 62.3098 25.3718 62.6413 25.3718ZM71.206 29.2402C71.206 29.8665 71.1231 30.4191 70.9573 30.8981C70.7915 31.377 70.552 31.7869 70.2389 32.1277C69.9349 32.4592 69.5573 32.7125 69.106 32.8875C68.6639 33.0533 68.1711 33.1362 67.6277 33.1362C67.1119 33.1362 66.6376 33.0533 66.2047 32.8875C65.7718 32.7125 65.3942 32.4592 65.0718 32.1277C64.7587 31.7869 64.5146 31.377 64.3396 30.8981C64.1646 30.4191 64.0771 29.8665 64.0771 29.2402C64.0771 28.4113 64.2199 27.7113 64.5054 27.1402C64.7909 26.56 65.2008 26.1225 65.735 25.8277C66.2784 25.5238 66.9185 25.3718 67.6554 25.3718C68.3553 25.3718 68.9678 25.5238 69.4928 25.8277C70.027 26.1225 70.4461 26.56 70.7501 27.1402C71.054 27.7113 71.206 28.4113 71.206 29.2402ZM65.8593 29.2402C65.8593 29.7652 65.9192 30.2165 66.0389 30.5941C66.1679 30.9625 66.3613 31.2435 66.6192 31.4369C66.8863 31.6303 67.2271 31.727 67.6415 31.727C68.0652 31.727 68.406 31.6303 68.6639 31.4369C68.931 31.2435 69.1244 30.9625 69.2441 30.5941C69.3639 30.2165 69.4238 29.7652 69.4238 29.2402C69.4238 28.706 69.3593 28.2593 69.2303 27.9001C69.1106 27.5317 68.9172 27.2553 68.6501 27.0711C68.3922 26.8777 68.056 26.781 67.6415 26.781C67.0152 26.781 66.5593 26.9928 66.2738 27.4165C65.9975 27.8402 65.8593 28.4481 65.8593 29.2402ZM78.1035 30.829C78.1035 31.3264 77.9838 31.75 77.7443 32.1C77.5049 32.4408 77.1503 32.6987 76.6805 32.8737C76.22 33.0487 75.6536 33.1362 74.9812 33.1362C74.4562 33.1362 74.0049 33.0994 73.6273 33.0257C73.2496 32.952 72.8904 32.8369 72.5496 32.6803V31.202C72.9181 31.377 73.3279 31.5244 73.7792 31.6441C74.2306 31.7638 74.6496 31.8237 75.0365 31.8237C75.5154 31.8237 75.8608 31.75 76.0726 31.6027C76.2845 31.4553 76.3904 31.2573 76.3904 31.0086C76.3904 30.8612 76.349 30.7277 76.2661 30.6079C76.1832 30.4882 76.022 30.3639 75.7825 30.2349C75.543 30.0968 75.1792 29.9264 74.6911 29.7237C74.2121 29.5303 73.8115 29.3369 73.4891 29.1435C73.176 28.9501 72.9365 28.7198 72.7707 28.4527C72.6141 28.1764 72.5358 27.831 72.5358 27.4165C72.5358 26.7442 72.8029 26.2376 73.3371 25.8968C73.8713 25.5468 74.5759 25.3718 75.4509 25.3718C75.9115 25.3718 76.3443 25.4179 76.7496 25.51C77.1641 25.5929 77.5785 25.731 77.993 25.9244L77.4404 27.2093C77.2101 27.108 76.9799 27.0205 76.7496 26.9468C76.5286 26.8639 76.3029 26.7994 76.0726 26.7534C75.8516 26.7073 75.6259 26.6843 75.3957 26.6843C75.018 26.6843 74.7325 26.7442 74.5391 26.8639C74.3457 26.9744 74.249 27.131 74.249 27.3336C74.249 27.4902 74.295 27.6284 74.3871 27.7481C74.4884 27.8586 74.6588 27.9738 74.8983 28.0935C75.147 28.204 75.497 28.3514 75.9483 28.5356C76.3996 28.7106 76.7818 28.8948 77.095 29.0882C77.4174 29.2724 77.666 29.5027 77.841 29.779C78.016 30.0553 78.1035 30.4053 78.1035 30.829ZM86.4652 29.2402C86.4652 29.8665 86.3823 30.4191 86.2166 30.8981C86.0508 31.377 85.8113 31.7869 85.4981 32.1277C85.1942 32.4592 84.8166 32.7125 84.3653 32.8875C83.9232 33.0533 83.4304 33.1362 82.887 33.1362C82.3712 33.1362 81.8969 33.0533 81.464 32.8875C81.0311 32.7125 80.6535 32.4592 80.3311 32.1277C80.0179 31.7869 79.7739 31.377 79.5989 30.8981C79.4239 30.4191 79.3364 29.8665 79.3364 29.2402C79.3364 28.4113 79.4791 27.7113 79.7647 27.1402C80.0502 26.56 80.46 26.1225 80.9942 25.8277C81.5377 25.5238 82.1778 25.3718 82.9146 25.3718C83.6146 25.3718 84.2271 25.5238 84.7521 25.8277C85.2863 26.1225 85.7054 26.56 86.0093 27.1402C86.3133 27.7113 86.4652 28.4113 86.4652 29.2402ZM81.1186 29.2402C81.1186 29.7652 81.1785 30.2165 81.2982 30.5941C81.4271 30.9625 81.6206 31.2435 81.8784 31.4369C82.1455 31.6303 82.4863 31.727 82.9008 31.727C83.3245 31.727 83.6653 31.6303 83.9232 31.4369C84.1903 31.2435 84.3837 30.9625 84.5034 30.5941C84.6232 30.2165 84.683 29.7652 84.683 29.2402C84.683 28.706 84.6185 28.2593 84.4896 27.9001C84.3699 27.5317 84.1764 27.2553 83.9093 27.0711C83.6515 26.8777 83.3153 26.781 82.9008 26.781C82.2745 26.781 81.8186 26.9928 81.5331 27.4165C81.2567 27.8402 81.1186 28.4481 81.1186 29.2402ZM92.147 26.8225H90.3372V32.998H88.5964V26.8225H87.3945V25.9935L88.5964 25.4962V24.985C88.5964 24.3402 88.6977 23.8337 88.9004 23.4653C89.103 23.0968 89.3977 22.8343 89.7846 22.6778C90.1714 22.512 90.6273 22.4291 91.1523 22.4291C91.5207 22.4291 91.8523 22.4613 92.147 22.5258C92.4418 22.581 92.6858 22.6455 92.8793 22.7192L92.4372 24.0179C92.2806 23.9718 92.1056 23.9304 91.9122 23.8935C91.728 23.8475 91.5253 23.8245 91.3043 23.8245C90.9727 23.8245 90.7286 23.9304 90.5721 24.1422C90.4155 24.3541 90.3372 24.6488 90.3372 25.0264V25.51H92.147V26.8225ZM96.293 31.7408C96.5141 31.7408 96.7259 31.7224 96.9285 31.6856C97.1312 31.6395 97.32 31.5889 97.495 31.5336V32.8323C97.3108 32.9152 97.0713 32.9842 96.7766 33.0395C96.4818 33.104 96.1733 33.1362 95.8509 33.1362C95.4272 33.1362 95.0404 33.0671 94.6904 32.929C94.3496 32.7816 94.0733 32.5329 93.8615 32.1829C93.6588 31.8329 93.5575 31.3448 93.5575 30.7185V26.8225H92.549V26.0626L93.6542 25.4547L94.2069 23.8659H95.2983V25.51H97.4259V26.8225H95.2983V30.7046C95.2983 31.0546 95.3904 31.3171 95.5746 31.4921C95.7588 31.6579 95.9983 31.7408 96.293 31.7408Z" fill="#E8E8E8"/>
<path d="M38.9517 40.2643C38.9517 40.6986 38.8465 41.0683 38.6362 41.3736C38.4258 41.679 38.1239 41.9164 37.7304 42.086C37.3369 42.2489 36.8688 42.3303 36.326 42.3303C36.0614 42.3303 35.807 42.3133 35.5627 42.2794C35.3185 42.2523 35.0912 42.2116 34.8808 42.1573C34.6705 42.103 34.4839 42.0352 34.3211 41.9537V40.9157C34.5925 41.0378 34.9114 41.1498 35.2778 41.2515C35.6441 41.3465 36.0173 41.394 36.3972 41.394C36.7229 41.394 36.9943 41.3499 37.2114 41.2617C37.4285 41.1735 37.5913 41.0514 37.6999 40.8953C37.8084 40.7393 37.8627 40.5561 37.8627 40.3458C37.8627 40.1219 37.805 39.9353 37.6897 39.786C37.5812 39.63 37.4081 39.4875 37.1707 39.3586C36.94 39.2229 36.6279 39.0804 36.2344 38.9312C35.963 38.8294 35.7154 38.7174 35.4915 38.5953C35.2744 38.4664 35.081 38.3171 34.9114 38.1475C34.7485 37.9779 34.623 37.7812 34.5348 37.5573C34.4466 37.3334 34.4025 37.0722 34.4025 36.7736C34.4025 36.3733 34.5009 36.0307 34.6977 35.7457C34.9012 35.4608 35.1794 35.2437 35.5322 35.0944C35.885 34.9384 36.2955 34.8603 36.7636 34.8603C37.1571 34.8603 37.5201 34.9011 37.8525 34.9825C38.1918 35.0571 38.514 35.1623 38.8194 35.298L38.4733 36.2037C38.1952 36.0884 37.9136 35.9934 37.6286 35.9188C37.3437 35.8441 37.0452 35.8068 36.7331 35.8068C36.4617 35.8068 36.2344 35.8475 36.0512 35.9289C35.868 36.0104 35.7289 36.1223 35.6339 36.2648C35.5457 36.4073 35.5016 36.5735 35.5016 36.7635C35.5016 36.9873 35.5525 37.1739 35.6543 37.3232C35.7561 37.4725 35.9189 37.6115 36.1428 37.7404C36.3667 37.8626 36.6618 37.9983 37.0282 38.1475C37.4353 38.3036 37.7813 38.4732 38.0663 38.6564C38.358 38.8396 38.5785 39.0601 38.7278 39.3179C38.877 39.5689 38.9517 39.8844 38.9517 40.2643ZM41.3311 36.7431V42.2285H40.2523V36.7431H41.3311ZM40.8019 34.6568C40.9647 34.6568 41.1072 34.7043 41.2293 34.7993C41.3514 34.8943 41.4125 35.0537 41.4125 35.2776C41.4125 35.4947 41.3514 35.6542 41.2293 35.7559C41.1072 35.8509 40.9647 35.8984 40.8019 35.8984C40.6255 35.8984 40.4762 35.8509 40.3541 35.7559C40.2388 35.6542 40.1811 35.4947 40.1811 35.2776C40.1811 35.0537 40.2388 34.8943 40.3541 34.7993C40.4762 34.7043 40.6255 34.6568 40.8019 34.6568ZM44.1039 42.2285H43.0252V34.494H44.1039V42.2285ZM47.0294 42.2285L44.9533 36.7431H46.0931L47.233 39.9489C47.2805 40.0846 47.328 40.2372 47.3755 40.4068C47.4297 40.5764 47.4772 40.7393 47.5179 40.8953C47.5586 41.0514 47.5858 41.1871 47.5993 41.3024H47.6401C47.6604 41.1871 47.6909 41.0514 47.7316 40.8953C47.7791 40.7325 47.83 40.5697 47.8843 40.4068C47.9386 40.2372 47.9861 40.0846 48.0268 39.9489L49.1666 36.7431H50.3064L48.2201 42.2285H47.0294ZM53.3124 36.6413C53.7941 36.6413 54.208 36.7431 54.554 36.9466C54.9 37.1434 55.1646 37.4284 55.3478 37.8015C55.5378 38.1747 55.6328 38.6157 55.6328 39.1245V39.7148H51.9487C51.9622 40.2779 52.1081 40.7087 52.3863 41.0073C52.6712 41.3058 53.0681 41.4551 53.577 41.4551C53.9298 41.4551 54.2419 41.4245 54.5133 41.3635C54.7915 41.2956 55.0764 41.1972 55.3682 41.0683V41.9639C55.0968 42.086 54.8186 42.1776 54.5336 42.2387C54.2555 42.2998 53.923 42.3303 53.5363 42.3303C53.0071 42.3303 52.5389 42.2251 52.1319 42.0148C51.7248 41.8045 51.4059 41.4924 51.1752 41.0785C50.9513 40.6579 50.8394 40.1422 50.8394 39.5316C50.8394 38.9142 50.9411 38.3918 51.1447 37.9643C51.355 37.5369 51.6434 37.2112 52.0097 36.9873C52.3829 36.7567 52.8171 36.6413 53.3124 36.6413ZM53.3124 37.4758C52.9257 37.4758 52.6136 37.6014 52.3761 37.8524C52.1454 38.1034 52.0097 38.4596 51.969 38.921H54.554C54.554 38.636 54.5099 38.385 54.4217 38.1679C54.3335 37.9508 54.1978 37.7812 54.0146 37.659C53.8314 37.5369 53.5974 37.4758 53.3124 37.4758ZM59.6859 36.6413C59.7809 36.6413 59.8861 36.6481 60.0014 36.6617C60.1167 36.6685 60.2117 36.6786 60.2864 36.6922L60.1744 37.6997C60.0998 37.6794 60.0116 37.6624 59.9098 37.6489C59.808 37.6353 59.7131 37.6285 59.6249 37.6285C59.4213 37.6285 59.2246 37.6692 59.0346 37.7506C58.8514 37.8253 58.6852 37.9372 58.5359 38.0865C58.3867 38.2289 58.2679 38.4053 58.1797 38.6157C58.0983 38.826 58.0576 39.0669 58.0576 39.3382V42.2285H56.9788V36.7431H57.8337L57.9762 37.7201H58.0169C58.1322 37.5233 58.2713 37.3435 58.4341 37.1807C58.597 37.0179 58.7836 36.889 58.9939 36.794C59.2042 36.6922 59.4349 36.6413 59.6859 36.6413Z" fill="#C4C4C4"/>
<path d="M66.1032 34.9621C67.0531 34.9621 67.7451 35.1555 68.1794 35.5422C68.6136 35.9222 68.8307 36.4547 68.8307 37.14C68.8307 37.4453 68.7798 37.7371 68.678 38.0152C68.5831 38.2934 68.4236 38.5444 68.1997 38.7683C67.9758 38.9854 67.6773 39.1584 67.3041 39.2874C66.9378 39.4095 66.4866 39.4705 65.9506 39.4705H65.167V42.2285H64.0678V34.9621H66.1032ZM66.0218 35.8882H65.167V38.5444H65.8285C66.2423 38.5444 66.5884 38.5003 66.8665 38.4121C67.1447 38.3171 67.3516 38.1713 67.4873 37.9745C67.6298 37.771 67.701 37.5064 67.701 37.1807C67.701 36.7465 67.5653 36.4242 67.294 36.2139C67.0294 35.9968 66.6053 35.8882 66.0218 35.8882ZM72.3042 36.6413C72.9962 36.6413 73.5118 36.794 73.8511 37.0993C74.1903 37.3978 74.3599 37.8694 74.3599 38.5139V42.2285H73.5966L73.3829 41.4652H73.3422C73.1862 41.662 73.0233 41.8248 72.8537 41.9537C72.6909 42.0826 72.5009 42.1776 72.2838 42.2387C72.0735 42.2998 71.8157 42.3303 71.5104 42.3303C71.1847 42.3303 70.8896 42.2726 70.625 42.1573C70.3671 42.0352 70.1636 41.852 70.0143 41.6077C69.8651 41.3567 69.7904 41.0446 69.7904 40.6714C69.7904 40.1151 70.0008 39.691 70.4214 39.3993C70.8488 39.1076 71.4968 38.9481 72.3652 38.921L73.3015 38.8905V38.5851C73.3015 38.1781 73.2099 37.8931 73.0267 37.7303C72.8435 37.5674 72.5857 37.486 72.2533 37.486C71.9683 37.486 71.6969 37.5267 71.4391 37.6081C71.1813 37.6896 70.937 37.7879 70.7064 37.9033L70.3603 37.1196C70.6182 36.984 70.9133 36.872 71.2458 36.7838C71.585 36.6888 71.9378 36.6413 72.3042 36.6413ZM72.5586 39.613C71.9344 39.6402 71.5002 39.7453 71.2559 39.9285C71.0185 40.1049 70.8997 40.3559 70.8997 40.6816C70.8997 40.9666 70.9845 41.1735 71.1542 41.3024C71.3306 41.4313 71.5511 41.4958 71.8157 41.4958C72.2431 41.4958 72.5959 41.377 72.8741 41.1396C73.1522 40.9021 73.2913 40.5459 73.2913 40.071V39.5927L72.5586 39.613ZM78.7281 36.6413C78.8231 36.6413 78.9282 36.6481 79.0436 36.6617C79.1589 36.6685 79.2539 36.6786 79.3285 36.6922L79.2166 37.6997C79.142 37.6794 79.0538 37.6624 78.952 37.6489C78.8502 37.6353 78.7552 37.6285 78.667 37.6285C78.4635 37.6285 78.2667 37.6692 78.0768 37.7506C77.8936 37.8253 77.7273 37.9372 77.5781 38.0865C77.4288 38.2289 77.3101 38.4053 77.2219 38.6157C77.1405 38.826 77.0998 39.0669 77.0998 39.3382V42.2285H76.021V36.7431H76.8759L77.0183 37.7201H77.0591C77.1744 37.5233 77.3135 37.3435 77.4763 37.1807C77.6391 37.0179 77.8257 36.889 78.0361 36.794C78.2464 36.6922 78.4771 36.6413 78.7281 36.6413ZM82.3186 41.4551C82.4611 41.4551 82.6069 41.4415 82.7562 41.4144C82.9055 41.3872 83.0344 41.3567 83.1429 41.3228V42.1369C83.0276 42.1912 82.8715 42.2353 82.6748 42.2692C82.478 42.3099 82.2813 42.3303 82.0845 42.3303C81.786 42.3303 81.5112 42.2794 81.2602 42.1776C81.0159 42.0759 80.8192 41.8995 80.6699 41.6484C80.5207 41.3974 80.446 41.048 80.446 40.6002V37.5674H79.6827V37.0789L80.4867 36.6719L80.8633 35.5117H81.5248V36.7431H83.092V37.5674H81.5248V40.5798C81.5248 40.8784 81.596 41.0989 81.7385 41.2413C81.8878 41.3838 82.0811 41.4551 82.3186 41.4551ZM87.0185 36.6413C87.6562 36.6413 88.1447 36.8008 88.484 37.1196C88.8232 37.4385 88.9928 37.9508 88.9928 38.6564V42.2285H87.9242V38.809C87.9242 38.3816 87.8326 38.0627 87.6494 37.8524C87.473 37.6353 87.1881 37.5267 86.7946 37.5267C86.2382 37.5267 85.8515 37.693 85.6344 38.0254C85.4241 38.3579 85.3189 38.8362 85.3189 39.4604V42.2285H84.2401V36.7431H85.095L85.2477 37.4758H85.3087C85.4309 37.2859 85.5801 37.1298 85.7565 37.0077C85.9329 36.8856 86.1297 36.794 86.3468 36.7329C86.5639 36.6719 86.7878 36.6413 87.0185 36.6413ZM92.808 36.6413C93.2897 36.6413 93.7036 36.7431 94.0496 36.9466C94.3956 37.1434 94.6602 37.4284 94.8434 37.8015C95.0334 38.1747 95.1284 38.6157 95.1284 39.1245V39.7148H91.4443C91.4579 40.2779 91.6037 40.7087 91.8819 41.0073C92.1669 41.3058 92.5638 41.4551 93.0726 41.4551C93.4254 41.4551 93.7375 41.4245 94.0089 41.3635C94.2871 41.2956 94.572 41.1972 94.8638 41.0683V41.9639C94.5924 42.086 94.3142 42.1776 94.0292 42.2387C93.7511 42.2998 93.4186 42.3303 93.0319 42.3303C92.5027 42.3303 92.0346 42.2251 91.6275 42.0148C91.2204 41.8045 90.9015 41.4924 90.6708 41.0785C90.4469 40.6579 90.335 40.1422 90.335 39.5316C90.335 38.9142 90.4368 38.3918 90.6403 37.9643C90.8506 37.5369 91.139 37.2112 91.5053 36.9873C91.8785 36.7567 92.3127 36.6413 92.808 36.6413ZM92.808 37.4758C92.4213 37.4758 92.1092 37.6014 91.8717 37.8524C91.641 38.1034 91.5053 38.4596 91.4646 38.921H94.0496C94.0496 38.636 94.0055 38.385 93.9173 38.1679C93.8291 37.9508 93.6934 37.7812 93.5102 37.659C93.327 37.5369 93.093 37.4758 92.808 37.4758ZM99.1815 36.6413C99.2765 36.6413 99.3817 36.6481 99.497 36.6617C99.6124 36.6685 99.7073 36.6786 99.782 36.6922L99.67 37.6997C99.5954 37.6794 99.5072 37.6624 99.4054 37.6489C99.3037 37.6353 99.2087 37.6285 99.1205 37.6285C98.9169 37.6285 98.7202 37.6692 98.5302 37.7506C98.347 37.8253 98.1808 37.9372 98.0315 38.0865C97.8823 38.2289 97.7635 38.4053 97.6753 38.6157C97.5939 38.826 97.5532 39.0669 97.5532 39.3382V42.2285H96.4744V36.7431H97.3293L97.4718 37.7201H97.5125C97.6278 37.5233 97.7669 37.3435 97.9298 37.1807C98.0926 37.0179 98.2792 36.889 98.4895 36.794C98.6998 36.6922 98.9305 36.6413 99.1815 36.6413Z" fill="#A2A2A2"/>
<rect x="8.95575" y="21.3672" width="10.1077" height="10.1077" fill="#EB5321"/>
<rect x="20.748" y="21.3672" width="10.1077" height="10.1077" fill="#7FBA00"/>
<rect x="20.748" y="33.1592" width="10.1077" height="10.1077" fill="#FCBB01"/>
<rect x="8.95575" y="33.1592" width="10.1077" height="10.1077" fill="#08A1EF"/>
</svg>
