<svg width="163" height="57" viewBox="0 0 163 57" fill="none" xmlns="http://www.w3.org/2000/svg">
<path d="M34.5717 38.2782C34.5717 38.3172 34.6107 38.3497 34.6887 38.3758C34.7667 38.3887 34.8706 38.4082 35.0007 38.4342C35.1436 38.4472 35.2931 38.4602 35.4491 38.4732C35.605 38.4732 35.761 38.4732 35.917 38.4732H36.4435V39.5261H30.4188V38.4732H30.6138C31.0557 38.4732 31.4131 38.4277 31.6861 38.3367C31.9721 38.2457 32.1151 38.0573 32.1151 37.7713V27.4378C32.1151 27.1519 31.9721 26.9633 31.6861 26.8723C31.4131 26.7814 31.0557 26.7359 30.6138 26.7359H30.4188V25.683H36.6384C38.2892 25.683 39.5695 26.0535 40.4794 26.7944C41.3892 27.5223 41.8442 28.5166 41.8442 29.7775C41.8442 30.6353 41.6297 31.3892 41.2008 32.0392C40.7718 32.676 40.1609 33.1765 39.3681 33.5404C38.5751 33.8914 37.6328 34.0669 36.5409 34.0669H33.9868V32.819H36.2485C36.9374 32.819 37.5028 32.702 37.9448 32.468C38.3997 32.2211 38.7376 31.8701 38.9586 31.4152C39.1926 30.9603 39.3095 30.4274 39.3095 29.8164C39.3095 29.1925 39.199 28.6726 38.9781 28.2567C38.7571 27.8277 38.4257 27.5028 37.9837 27.2818C37.5548 27.0609 37.0089 26.9504 36.3459 26.9504H34.5717V38.2782ZM45.7639 27.6912C45.335 27.6912 44.984 27.5743 44.711 27.3403C44.4511 27.1064 44.3211 26.7814 44.3211 26.3654C44.3211 25.9625 44.4511 25.644 44.711 25.4101C44.984 25.1761 45.335 25.0591 45.7639 25.0591C46.1798 25.0591 46.5178 25.1761 46.7777 25.4101C47.0507 25.644 47.1872 25.9625 47.1872 26.3654C47.1872 26.7814 47.0507 27.1064 46.7777 27.3403C46.5178 27.5743 46.1798 27.6912 45.7639 27.6912ZM46.9922 29.602V37.8688C46.9922 38.1417 47.1287 38.3237 47.4016 38.4147C47.6746 38.4927 48.0126 38.5317 48.4155 38.5317H48.435V39.5261H43.2097V38.5317H43.2292C43.6452 38.5317 43.9832 38.4927 44.2431 38.4147C44.5161 38.3237 44.6526 38.1417 44.6526 37.8688V31.4542C44.6526 31.1942 44.5485 31.0187 44.3406 30.9277C44.1456 30.8368 43.8336 30.7458 43.4047 30.6549L43.2097 30.6158V29.602H46.9922ZM60.1167 39.5261H54.8135V38.5317H54.8525C55.0995 38.5317 55.3464 38.5252 55.5934 38.5122C55.8404 38.4992 56.0419 38.4797 56.1978 38.4537C56.3538 38.4277 56.4318 38.3952 56.4318 38.3562L53.6826 35.0027L53.6047 34.9442L50.5436 31.1032C50.4396 30.9732 50.3292 30.8758 50.2122 30.8108C50.1082 30.7328 49.9781 30.6808 49.8222 30.6549C49.6662 30.6158 49.4778 30.5963 49.2568 30.5963H49.2373V29.602H54.4625V30.5768H54.4235C54.1896 30.5768 53.9556 30.5833 53.7217 30.5963C53.4877 30.6094 53.2927 30.6288 53.1368 30.6549C52.9937 30.6678 52.9223 30.6938 52.9223 30.7328L55.5544 34.0474L55.6324 34.1253L58.6935 37.8688C58.8234 38.0247 58.947 38.1547 59.0639 38.2587C59.1938 38.3497 59.3369 38.4213 59.4928 38.4732C59.6488 38.5122 59.8503 38.5317 60.0973 38.5317H60.1167V39.5261ZM49.0619 39.5261V38.5317H49.0813C49.2632 38.5317 49.4323 38.5057 49.5883 38.4537C49.7572 38.4017 49.9197 38.3237 50.0757 38.2198C50.2316 38.1028 50.3811 37.9598 50.5241 37.7908L53.4877 34.2813L54.4625 34.9442L51.7719 38.1417C51.7719 38.2198 51.8434 38.2912 51.9864 38.3562C52.1423 38.4082 52.3309 38.4537 52.5518 38.4927C52.7728 38.5187 52.9937 38.5317 53.2147 38.5317H53.2343V39.5261H49.0619ZM55.5739 34.7297L54.6575 34.0083L57.2116 30.9668C57.2116 30.8888 57.1402 30.8238 56.9972 30.7718C56.8542 30.7068 56.6722 30.6613 56.4512 30.6353C56.2433 30.5963 56.0353 30.5768 55.8273 30.5768H55.7689V29.602H59.9023V30.5768H59.8828C59.6748 30.5768 59.4863 30.6094 59.3174 30.6743C59.1484 30.7263 58.9859 30.8173 58.83 30.9472C58.674 31.0773 58.5049 31.2462 58.323 31.4542L55.5739 34.7297ZM63.0896 34.6322C63.0896 35.2302 63.1611 35.7696 63.3041 36.2505C63.447 36.7314 63.655 37.1344 63.928 37.4594C64.2009 37.7843 64.5259 38.0313 64.9029 38.2002C65.2798 38.3692 65.7022 38.4537 66.1702 38.4537C66.6772 38.4537 67.1125 38.3562 67.4765 38.1612C67.8404 37.9533 68.1524 37.7064 68.4124 37.4203C68.6723 37.1214 68.8868 36.8224 69.0558 36.5235L70.0892 37.3619C69.8422 37.8038 69.5302 38.2067 69.1533 38.5707C68.7763 38.9216 68.3279 39.2011 67.808 39.409C67.288 39.617 66.6706 39.721 65.9557 39.721C64.9418 39.721 64.0385 39.5131 63.2456 39.0971C62.4657 38.6812 61.8483 38.0897 61.3933 37.3229C60.9385 36.556 60.711 35.6461 60.711 34.5932C60.711 33.5664 60.9254 32.6631 61.3544 31.8832C61.7963 31.1032 62.3812 30.4989 63.1091 30.0699C63.85 29.628 64.6819 29.4069 65.6048 29.4069C66.3587 29.4069 67.015 29.524 67.574 29.758C68.1459 29.9919 68.6203 30.3429 68.9973 30.8108C69.3872 31.2788 69.6797 31.8701 69.8746 32.585C70.0826 33.287 70.1866 34.1124 70.1866 35.0612H62.7387V33.8523H68.3538L67.8469 34.3398C67.834 33.6899 67.782 33.131 67.691 32.6631C67.6 32.1951 67.4635 31.8181 67.2815 31.5322C67.0996 31.2333 66.8721 31.0123 66.5991 30.8693C66.3261 30.7263 66.0012 30.6549 65.6243 30.6549C65.2733 30.6549 64.9418 30.7393 64.6299 30.9083C64.331 31.0773 64.0645 31.3372 63.8305 31.6881C63.5966 32.0261 63.4146 32.442 63.2846 32.936C63.1546 33.4169 63.0896 33.9823 63.0896 34.6322ZM75.0943 25.1956V37.8688C75.0943 38.1417 75.2242 38.3237 75.4843 38.4147C75.7442 38.4927 76.0822 38.5317 76.4981 38.5317H76.5176V39.5261H71.2923V38.5317H71.3313C71.7473 38.5317 72.0852 38.4927 72.3451 38.4147C72.6052 38.3237 72.7351 38.1417 72.7351 37.8688V27.0478C72.7351 26.8789 72.6896 26.7489 72.5986 26.6579C72.5206 26.5539 72.3906 26.4759 72.2087 26.4239C72.0268 26.3589 71.7862 26.3005 71.4873 26.2484L71.2923 26.2095V25.1956H75.0943ZM84.4223 26.8334C83.8374 26.8334 83.2915 26.9699 82.7846 27.2428C82.2907 27.5157 81.8552 27.9057 81.4782 28.4126C81.1143 28.9195 80.8283 29.5305 80.6204 30.2454C80.4124 30.9472 80.3085 31.7336 80.3085 32.6045C80.3085 33.4885 80.4059 34.2878 80.6008 35.0027C80.8088 35.7046 81.1013 36.309 81.4782 36.8159C81.8552 37.3098 82.3167 37.6933 82.8626 37.9663C83.4085 38.2393 84.0194 38.3758 84.6953 38.3758C85.4232 38.3758 86.0601 38.2067 86.606 37.8688C87.152 37.5308 87.6068 37.0694 87.9708 36.4845C88.3478 35.8866 88.6207 35.2172 88.7897 34.4762L90.0572 34.9637C89.849 35.8996 89.4977 36.725 89.0042 37.4399C88.5103 38.1547 87.8798 38.7136 87.113 39.1166C86.3461 39.5195 85.4622 39.721 84.4613 39.721C83.4735 39.721 82.5636 39.5521 81.7317 39.2141C80.9128 38.8632 80.1979 38.3758 79.587 37.7519C78.9891 37.1149 78.5212 36.361 78.1832 35.4901C77.8582 34.6193 77.6958 33.6574 77.6958 32.6045C77.6958 31.5517 77.8648 30.5898 78.2027 29.7189C78.5537 28.848 79.0281 28.1007 79.626 27.4768C80.237 26.8398 80.9324 26.3524 81.7123 26.0144C82.5051 25.6635 83.35 25.488 84.2469 25.488C85.1567 25.488 85.9236 25.6311 86.5475 25.917C87.1714 26.2029 87.6783 26.5994 88.0683 27.1064C88.4713 27.6133 88.7767 28.2112 88.9847 28.9L88.1658 28.8416L88.4973 25.683H89.8034V29.9334H88.3217C88.1138 29.3095 87.8343 28.7701 87.4834 28.3151C87.1454 27.8472 86.723 27.4833 86.2161 27.2233C85.7222 26.9633 85.1243 26.8334 84.4223 26.8334ZM98.7097 29.485V31.6687C98.6051 31.6297 98.488 31.6037 98.3584 31.5907C98.2413 31.5647 98.118 31.5452 97.9884 31.5322C97.8579 31.5192 97.7283 31.5127 97.5978 31.5127C97.2599 31.5127 96.9613 31.5582 96.7012 31.6492C96.4545 31.7271 96.2266 31.8506 96.0183 32.0196C95.811 32.1886 95.6224 32.4096 95.4534 32.6826C95.2845 32.9425 95.1093 33.261 94.9269 33.6379V32.4096C95.1218 31.8117 95.356 31.2917 95.6286 30.8498C95.9146 30.4079 96.2525 30.0634 96.6422 29.8164C97.0329 29.5565 97.4878 29.4265 98.0072 29.4265C98.1502 29.4265 98.2869 29.433 98.4165 29.446C98.547 29.446 98.6445 29.459 98.7097 29.485ZM91.5151 39.5261V38.5317H91.5348C91.9504 38.5317 92.2883 38.4927 92.5484 38.4147C92.8085 38.3237 92.9381 38.1417 92.9381 37.8688V31.4542C92.9381 31.2852 92.8925 31.1552 92.8014 31.0642C92.7236 30.9732 92.5868 30.9017 92.392 30.8498C92.2105 30.7848 91.9763 30.7198 91.6903 30.6549L91.5151 30.6158V29.602H95.1021V32.5656L95.297 32.3511V37.9663C95.297 38.1352 95.3819 38.2653 95.5509 38.3562C95.7198 38.4342 95.9209 38.4862 96.1551 38.5122C96.4018 38.5252 96.6101 38.5317 96.779 38.5317H97.0525V39.5261H91.5151ZM106.333 33.5209V34.5738C105.749 34.6387 105.229 34.7232 104.774 34.8273C104.319 34.9183 103.923 35.0352 103.585 35.1782C103.259 35.3081 102.993 35.4641 102.785 35.6461C102.577 35.8281 102.415 36.036 102.298 36.27C102.194 36.5039 102.142 36.7574 102.142 37.0304C102.142 37.3424 102.206 37.6088 102.337 37.8298C102.467 38.0508 102.649 38.2198 102.882 38.3367C103.116 38.4537 103.39 38.5122 103.702 38.5122C104.104 38.5122 104.462 38.4147 104.774 38.2198C105.099 38.0118 105.385 37.7258 105.632 37.3619C105.892 36.9849 106.113 36.5494 106.295 36.0556V37.4399C106.099 37.9078 105.846 38.3172 105.534 38.6681C105.222 39.0061 104.851 39.2661 104.423 39.4481C103.994 39.63 103.506 39.721 102.961 39.721C102.363 39.721 101.83 39.617 101.362 39.409C100.893 39.2011 100.523 38.9021 100.251 38.5122C99.9772 38.1093 99.8413 37.6348 99.8413 37.0889C99.8413 36.556 99.9772 36.0946 100.251 35.7046C100.523 35.3016 100.933 34.9637 101.479 34.6908C102.025 34.4048 102.701 34.1708 103.506 33.9888C104.326 33.7939 105.268 33.6379 106.333 33.5209ZM106.041 39.5261V37.4984L105.827 37.4594V32.585C105.827 32.1041 105.761 31.7207 105.632 31.4347C105.502 31.1487 105.306 30.9472 105.047 30.8303C104.787 30.7003 104.462 30.6353 104.072 30.6353C103.487 30.6353 103.006 30.7588 102.629 31.0058C102.265 31.2397 101.972 31.5257 101.751 31.8636C101.7 31.7207 101.68 31.5842 101.693 31.4542C101.719 31.3243 101.765 31.2073 101.83 31.1032C101.908 30.9993 102.005 30.9083 102.122 30.8303C102.24 30.7523 102.369 30.6873 102.512 30.6353V32.6631H100.465V30.6158C100.66 30.4598 100.933 30.2909 101.284 30.1089C101.634 29.9139 102.063 29.7514 102.57 29.6215C103.078 29.4785 103.643 29.4069 104.267 29.4069C104.8 29.4069 105.294 29.4655 105.749 29.5825C106.216 29.6865 106.626 29.8684 106.977 30.1284C107.341 30.3753 107.621 30.7068 107.815 31.1228C108.024 31.5257 108.127 32.0261 108.127 32.624V37.8493C108.127 38.0183 108.185 38.1483 108.303 38.2393C108.433 38.3303 108.602 38.3952 108.809 38.4342C109.018 38.4732 109.258 38.4992 109.531 38.5122H109.55V39.5261H106.041ZM116.048 38.2002L115.561 39.3311L114.585 40.0524L110.803 31.2788C110.725 31.0968 110.627 30.9603 110.51 30.8693C110.393 30.7653 110.244 30.6938 110.062 30.6549C109.893 30.6158 109.692 30.5963 109.457 30.5963H109.438V29.602H114.625V30.5963H114.585C114.351 30.5963 114.111 30.6028 113.864 30.6158C113.617 30.6288 113.415 30.6483 113.26 30.6743C113.103 30.6873 113.026 30.7198 113.026 30.7718L116.048 38.2002ZM116.165 39.1751C115.801 40.02 115.436 40.7544 115.073 41.3783C114.722 42.0022 114.357 42.5091 113.981 42.8991C113.604 43.289 113.207 43.5815 112.791 43.7765C112.388 43.9714 111.94 44.0689 111.446 44.0689C111.108 44.0689 110.822 44.0299 110.588 43.952C110.355 43.8739 110.166 43.7829 110.023 43.679V41.7878C110.062 41.8007 110.153 41.8397 110.296 41.9047C110.452 41.9698 110.634 42.0282 110.842 42.0802C111.063 42.1452 111.297 42.1777 111.544 42.1777C111.843 42.1777 112.135 42.1322 112.421 42.0412C112.707 41.9502 112.993 41.7812 113.279 41.5343C113.565 41.2873 113.851 40.9298 114.137 40.4619C114.436 40.0069 114.728 39.409 115.014 38.6681L115.249 38.1223L118.212 31.0253C118.212 30.9343 118.14 30.8628 117.997 30.8108C117.868 30.7458 117.685 30.6938 117.451 30.6549C117.23 30.6158 116.996 30.5963 116.749 30.5963H116.691V29.602H120.805V30.5963H120.785C120.604 30.5963 120.428 30.6223 120.259 30.6743C120.09 30.7133 119.934 30.7978 119.791 30.9277C119.648 31.0448 119.531 31.2267 119.44 31.4737L116.165 39.1751ZM131.883 34.5543C131.883 35.5681 131.662 36.465 131.221 37.2449C130.778 38.0247 130.162 38.6357 129.369 39.0776C128.576 39.5066 127.653 39.721 126.6 39.721C125.56 39.721 124.644 39.5066 123.851 39.0776C123.058 38.6357 122.434 38.0247 121.979 37.2449C121.537 36.465 121.316 35.5681 121.316 34.5543C121.316 33.8004 121.439 33.1114 121.686 32.4875C121.946 31.8506 122.31 31.3047 122.778 30.8498C123.259 30.3819 123.818 30.0244 124.455 29.7775C125.105 29.5305 125.82 29.4069 126.6 29.4069C127.392 29.4069 128.108 29.5305 128.745 29.7775C129.395 30.0244 129.953 30.3819 130.422 30.8498C130.903 31.3047 131.266 31.8506 131.513 32.4875C131.76 33.1114 131.883 33.8004 131.883 34.5543ZM123.772 34.5543C123.772 35.3602 123.883 36.062 124.104 36.6599C124.338 37.2449 124.664 37.6998 125.079 38.0247C125.508 38.3367 126.015 38.4927 126.6 38.4927C127.198 38.4927 127.704 38.3367 128.121 38.0247C128.55 37.6998 128.874 37.2449 129.095 36.6599C129.329 36.062 129.447 35.3602 129.447 34.5543C129.447 33.7484 129.329 33.053 129.095 32.468C128.874 31.8832 128.55 31.4347 128.121 31.1228C127.704 30.8108 127.198 30.6549 126.6 30.6549C126.015 30.6549 125.508 30.8108 125.079 31.1228C124.664 31.4347 124.338 31.8832 124.104 32.468C123.883 33.053 123.772 33.7484 123.772 34.5543ZM133.365 39.5261V38.5317H133.385C133.657 38.5317 133.898 38.5122 134.106 38.4732C134.327 38.4342 134.496 38.3692 134.613 38.2782C134.73 38.1743 134.789 38.0378 134.789 37.8688V31.4542C134.789 31.2852 134.744 31.1552 134.652 31.0642C134.575 30.9732 134.438 30.9017 134.243 30.8498C134.061 30.7848 133.826 30.7198 133.541 30.6549L133.365 30.6158V29.602H136.953V31.6881L137.148 31.8441V38.3562C137.148 38.3822 137.213 38.4147 137.343 38.4537C137.486 38.4797 137.649 38.4992 137.83 38.5122C138.025 38.5252 138.207 38.5317 138.376 38.5317H138.435V39.5261H133.365ZM145.044 39.5261H139.975V38.5317H139.995C140.164 38.5317 140.345 38.5252 140.54 38.5122C140.735 38.4992 140.904 38.4797 141.047 38.4537C141.19 38.4147 141.261 38.3758 141.261 38.3367V32.741C141.261 32.3121 141.21 31.9611 141.106 31.6881C141.015 31.4022 140.859 31.1942 140.638 31.0642C140.43 30.9343 140.144 30.8693 139.78 30.8693C139.39 30.8693 139.02 30.9538 138.668 31.1228C138.318 31.2917 137.986 31.5452 137.674 31.8832C137.362 32.2211 137.063 32.6371 136.777 33.131V31.6297C137.102 31.1487 137.44 30.7458 137.792 30.4208C138.155 30.0829 138.551 29.8295 138.98 29.6604C139.423 29.4915 139.904 29.4069 140.423 29.4069C141.06 29.4069 141.613 29.524 142.081 29.758C142.562 29.9789 142.932 30.3299 143.192 30.8108C143.465 31.2788 143.602 31.8832 143.602 32.624V37.8688C143.602 38.0378 143.66 38.1743 143.777 38.2782C143.894 38.3692 144.057 38.4342 144.265 38.4732C144.486 38.5122 144.732 38.5317 145.005 38.5317H145.044V39.5261ZM152.245 37.0109C152.245 36.7509 152.174 36.5365 152.031 36.3675C151.901 36.1985 151.719 36.062 151.484 35.9581C151.25 35.8411 150.984 35.7436 150.685 35.6656C150.399 35.5746 150.087 35.4901 149.749 35.4121C149.36 35.3081 148.963 35.1911 148.56 35.0612C148.157 34.9312 147.793 34.7558 147.468 34.5348C147.143 34.3138 146.877 34.0343 146.668 33.6964C146.474 33.3454 146.376 32.9035 146.376 32.3706C146.376 31.7597 146.533 31.2333 146.844 30.7913C147.169 30.3364 147.618 29.9919 148.19 29.758C148.774 29.511 149.47 29.3875 150.276 29.3875C150.912 29.3875 151.465 29.4395 151.933 29.5434C152.414 29.6344 152.804 29.7514 153.103 29.8945C153.415 30.0244 153.642 30.1479 153.785 30.2649V32.3511H151.855V30.5768C152.011 30.5639 152.134 30.5833 152.225 30.6353C152.329 30.6873 152.401 30.7588 152.44 30.8498C152.492 30.9408 152.518 31.0448 152.518 31.1618C152.518 31.2657 152.492 31.3827 152.44 31.5127C152.297 31.3047 152.115 31.1357 151.894 31.0058C151.686 30.8628 151.446 30.7588 151.172 30.6938C150.9 30.6288 150.6 30.5963 150.276 30.5963C149.665 30.5963 149.203 30.7263 148.891 30.9863C148.593 31.2462 148.443 31.5777 148.443 31.9806C148.443 32.2536 148.514 32.4811 148.657 32.6631C148.8 32.832 148.989 32.975 149.223 33.0919C149.47 33.2089 149.749 33.3129 150.061 33.4039C150.373 33.4819 150.698 33.5664 151.036 33.6574C151.439 33.7613 151.836 33.8783 152.225 34.0083C152.629 34.1383 152.992 34.3138 153.318 34.5348C153.642 34.7427 153.902 35.0157 154.097 35.3536C154.292 35.6916 154.389 36.114 154.389 36.6209C154.389 37.2319 154.221 37.7713 153.883 38.2393C153.558 38.7072 153.084 39.0711 152.46 39.3311C151.836 39.591 151.075 39.721 150.179 39.721C149.529 39.721 148.937 39.6691 148.404 39.565C147.884 39.4611 147.423 39.3311 147.02 39.1751C146.63 39.0061 146.292 38.8372 146.006 38.6681V36.426H147.995V38.8241C147.787 38.7072 147.624 38.5902 147.507 38.4732C147.391 38.3432 147.312 38.2198 147.274 38.1028C147.248 37.9728 147.24 37.8558 147.254 37.7519C147.28 37.6348 147.325 37.5308 147.391 37.4399C147.598 37.6868 147.838 37.8883 148.112 38.0442C148.398 38.2002 148.71 38.3172 149.048 38.3952C149.386 38.4602 149.756 38.4927 150.159 38.4927C150.588 38.4927 150.952 38.4407 151.25 38.3367C151.562 38.2198 151.803 38.0508 151.972 37.8298C152.154 37.5959 152.245 37.3229 152.245 37.0109Z" fill="#00234B"/>
<mask id="mask0_913_6441" style="mask-type:luminance" maskUnits="userSpaceOnUse" x="6" y="25" width="13" height="25">
<path d="M8.681 49.251C14.3837 43.2156 8.8754 33.9658 18.3368 25.5688C7.2553 30.7513 4.59835 43.478 8.681 49.251Z" fill="white"/>
</mask>
<g mask="url(#mask0_913_6441)">
<path d="M4.59802 25.5034H18.3364V49.1855H4.59802V25.5034Z" fill="url(#paint0_linear_913_6441)"/>
</g>
<mask id="mask1_913_6441" style="mask-type:luminance" maskUnits="userSpaceOnUse" x="8" y="0" width="16" height="33">
<path d="M18.3367 32.2598C20.6696 27.3397 21.7064 21.1075 16.8462 17.0403C9.39373 10.7425 12.3099 9.03681 8.16248 0.180664C15.5501 3.39513 22.2249 8.77445 23.4561 17.3026C24.1042 21.9604 22.6785 26.946 18.3367 32.2598Z" fill="white"/>
</mask>
<g mask="url(#mask1_913_6441)">
<path d="M8.16248 0.180664H24.1042V32.2598H8.16248V0.180664Z" fill="url(#paint1_linear_913_6441)"/>
</g>
<mask id="mask2_913_6441" style="mask-type:luminance" maskUnits="userSpaceOnUse" x="0" y="4" width="44" height="29">
<path d="M18.3395 32.2617C19.2467 27.8007 19.7652 21.7655 16.1361 20.3222C7.06361 16.6485 7.12841 18.4854 0 4.11865C11.7295 5.16827 15.6825 11.7284 19.5708 14.4181C20.9317 15.3365 22.3573 15.8613 23.5885 15.5333C24.8846 15.2709 25.0142 13.4997 26.7639 12.6468C28.5137 11.794 30.7818 12.2532 32.0779 14.09C34.67 14.1557 39.8543 14.746 43.4185 15.5989C37.9102 14.8773 33.8276 15.2709 30.393 16.7797C25.4679 19.0102 25.1438 25.3735 18.3395 32.2617Z" fill="white"/>
</mask>
<g mask="url(#mask2_913_6441)">
<path d="M0 4.11865H43.4185V32.1961H0V4.11865Z" fill="url(#paint2_linear_913_6441)"/>
</g>
<mask id="mask3_913_6441" style="mask-type:luminance" maskUnits="userSpaceOnUse" x="9" y="12" width="35" height="25">
<path d="M16.1353 20.2543C12.8951 18.9422 10.8214 18.3518 9.20129 17.499C9.3309 17.5646 20.4772 21.5663 24.6894 14.7438C25.2078 14.0877 25.6615 13.1693 26.7631 12.6445C28.5128 11.7917 30.781 12.2509 32.0771 14.0877C34.6692 14.1533 39.8535 14.7438 43.4177 15.5965C37.9742 15.0717 33.8268 15.1373 30.3922 16.5149C26.8279 17.9582 26.4391 22.8127 22.6157 27.864C20.7364 30.3568 16.7834 32.8497 16.589 36.9826C15.0985 32.9809 16.913 30.5537 18.0795 28.192C19.4404 25.5023 19.1811 21.5007 16.1353 20.2543Z" fill="white"/>
</mask>
<g mask="url(#mask3_913_6441)">
<path d="M9.20129 11.8579H43.4177V36.9832H9.20129V11.8579Z" fill="url(#paint3_linear_913_6441)"/>
</g>
<mask id="mask4_913_6441" style="mask-type:luminance" maskUnits="userSpaceOnUse" x="16" y="14" width="28" height="23">
<path d="M32.0801 14.1523C34.6723 14.1523 39.8565 14.7427 43.4208 15.5956C37.9772 15.0707 33.8298 15.3987 30.3952 16.7763C27.3494 18.0228 28.6455 22.6149 26.7014 27.1414C24.3036 32.5207 16.9161 32.3239 16.6568 36.9816C16.3976 30.487 22.6835 30.7494 24.3684 22.1557C25.0813 18.4164 27.3494 14.4147 32.0801 14.1523Z" fill="white"/>
</mask>
<g mask="url(#mask4_913_6441)">
<path d="M16.3302 14.1523H43.4182V36.9816H16.3302V14.1523Z" fill="url(#paint4_linear_913_6441)"/>
</g>
<mask id="mask5_913_6441" style="mask-type:luminance" maskUnits="userSpaceOnUse" x="16" y="16" width="8" height="19">
<path d="M20.2818 23.8617C20.1521 21.9592 19.6337 20.188 18.4024 18.6135C20.2169 18.3512 21.9667 17.6952 23.3275 16.4487C23.3923 16.7112 23.4572 16.9735 23.4572 17.3016C23.7812 19.7288 23.5868 22.2873 22.6795 24.8457C21.4482 28.3226 17.236 30.9466 16.6527 34.686C16.3935 30.3562 20.4762 27.6009 20.2818 23.8617Z" fill="white"/>
</mask>
<g mask="url(#mask5_913_6441)">
<path d="M16.3945 16.4487H23.7822V34.686H16.3945V16.4487Z" fill="url(#paint5_linear_913_6441)"/>
</g>
<mask id="mask6_913_6441" style="mask-type:luminance" maskUnits="userSpaceOnUse" x="10" y="7" width="14" height="12">
<path d="M18.4055 18.616C17.9519 18.0911 17.4983 17.5663 16.915 17.0416C12.0547 12.9743 11.6011 10.8094 10.6938 7.33252C14.8413 9.69421 17.2391 12.7775 19.572 14.4175C20.7384 15.2703 22.0345 15.7295 23.1362 15.5983C23.201 15.8607 23.2658 16.1231 23.3306 16.4511C21.9049 17.6976 20.1553 18.3536 18.4055 18.616Z" fill="white"/>
</mask>
<g mask="url(#mask6_913_6441)">
<path d="M10.6938 7.33252H23.3306V18.616H10.6938V7.33252Z" fill="url(#paint6_linear_913_6441)"/>
</g>
<mask id="mask7_913_6441" style="mask-type:luminance" maskUnits="userSpaceOnUse" x="11" y="25" width="12" height="31">
<path d="M18.3392 25.5044C10.4979 33.7702 17.2376 47.7433 22.0331 55.7467C16.0063 51.6138 10.9515 45.7096 11.3404 37.9031C11.47 33.7046 13.5437 29.5061 18.3392 25.5044Z" fill="white"/>
</mask>
<g mask="url(#mask7_913_6441)">
<path d="M10.5619 25.5044H22.0322V55.7467H10.5619V25.5044Z" fill="url(#paint7_linear_913_6441)"/>
</g>
<mask id="mask8_913_6441" style="mask-type:luminance" maskUnits="userSpaceOnUse" x="10" y="25" width="9" height="26">
<path d="M16.0734 50.5642C16.2031 48.137 15.8142 45.5785 14.9718 42.8232C12.9628 36.5255 12.1204 31.8022 18.3416 25.5044C8.55622 32.2614 8.16739 42.1016 16.0734 50.5642Z" fill="white"/>
</mask>
<g mask="url(#mask8_913_6441)">
<path d="M8.16748 25.5044H18.3417V50.5642H8.16748V25.5044Z" fill="url(#paint8_linear_913_6441)"/>
</g>
<mask id="mask9_913_6441" style="mask-type:luminance" maskUnits="userSpaceOnUse" x="3" y="25" width="16" height="20">
<path d="M3.69583 44.332C6.4824 41.6424 8.88013 39.8056 9.52822 36.3943C10.3058 32.4582 12.3795 29.5061 18.3415 25.5044C7.38964 28.5877 2.78858 39.4775 3.69583 44.332Z" fill="white"/>
</mask>
<g mask="url(#mask9_913_6441)">
<path d="M2.78833 25.5044H18.3412V44.332H2.78833V25.5044Z" fill="url(#paint9_linear_913_6441)"/>
</g>
<mask id="mask10_913_6441" style="mask-type:luminance" maskUnits="userSpaceOnUse" x="6" y="25" width="13" height="17">
<path d="M6.93115 41.1175C8.22723 39.7399 9.13452 38.2967 9.52335 36.3943C10.3009 32.4582 12.3746 29.5061 18.3366 25.5044C11.2082 28.9157 7.51439 35.4102 6.93115 41.1175Z" fill="white"/>
</mask>
<g mask="url(#mask10_913_6441)">
<path d="M6.93115 25.5044H18.3366V41.1175H6.93115V25.5044Z" fill="url(#paint10_linear_913_6441)"/>
</g>
<path fill-rule="evenodd" clip-rule="evenodd" d="M28.7077 14.4834C28.9669 14.4834 29.1613 14.2865 29.1613 14.0241C29.1613 13.7618 28.9669 13.5649 28.7077 13.5649C28.4484 13.5649 28.254 13.7618 28.254 14.0241C28.254 14.2865 28.4484 14.4834 28.7077 14.4834Z" fill="#00234B"/>
<mask id="mask11_913_6441" style="mask-type:luminance" maskUnits="userSpaceOnUse" x="7" y="25" width="12" height="12">
<path d="M12.7007 34.753C13.4784 31.7353 14.9041 28.5865 18.3387 25.5688C12.96 28.1273 9.52534 32.3913 7.97009 36.8523C9.65495 36.393 11.2751 35.6714 12.7007 34.753Z" fill="white"/>
</mask>
<g mask="url(#mask11_913_6441)">
<path d="M7.97009 25.5034H18.3387V36.7869H7.97009V25.5034Z" fill="url(#paint11_linear_913_6441)"/>
</g>
<mask id="mask12_913_6441" style="mask-type:luminance" maskUnits="userSpaceOnUse" x="11" y="9" width="8" height="10">
<path d="M18.6019 18.8781C18.1483 18.2221 17.5651 17.6317 16.917 17.0412C13.2232 13.958 12.0567 11.99 11.3439 9.69385C14.8433 11.5307 17.5651 14.8764 18.6019 18.8781Z" fill="white"/>
</mask>
<g mask="url(#mask12_913_6441)">
<path d="M11.3439 9.69385H18.6019V18.8781H11.3439V9.69385Z" fill="url(#paint12_linear_913_6441)"/>
</g>
<mask id="mask13_913_6441" style="mask-type:luminance" maskUnits="userSpaceOnUse" x="2" y="8" width="18" height="17">
<path d="M18.9204 24.714C18.6612 22.6804 17.8835 20.9748 16.1338 20.3188C8.03336 17.1043 7.19091 18.2195 2.07141 8.31367C2.91386 8.18247 3.75631 8.05127 4.66356 8.05127C12.6344 8.05127 19.05 14.6114 19.05 22.6148C19.05 23.3364 18.9852 23.9924 18.9204 24.714Z" fill="white"/>
</mask>
<g mask="url(#mask13_913_6441)">
<path d="M2.07141 8.05127H19.05V24.714H2.07141V8.05127Z" fill="url(#paint13_linear_913_6441)"/>
</g>
<mask id="mask14_913_6441" style="mask-type:luminance" maskUnits="userSpaceOnUse" x="9" y="17" width="11" height="8">
<path d="M16.1353 20.2529C12.895 18.9408 10.8214 18.3504 9.20129 17.4976C9.3309 17.5632 14.0615 19.2688 18.4682 18.5472C18.857 19.8592 19.0514 21.1713 19.0514 22.5489C19.0514 23.3361 18.9866 24.1233 18.857 24.9105C18.9218 23.0081 18.0794 21.0401 16.1353 20.2529Z" fill="white"/>
</mask>
<g mask="url(#mask14_913_6441)">
<path d="M9.20129 17.4976H19.0514V24.9105H9.20129V17.4976Z" fill="url(#paint14_linear_913_6441)"/>
</g>
<mask id="mask15_913_6441" style="mask-type:luminance" maskUnits="userSpaceOnUse" x="18" y="18" width="1" height="1">
<path d="M18.6012 18.8757C18.5363 18.8101 18.4715 18.6789 18.4067 18.6133H18.5363L18.6012 18.8757Z" fill="white"/>
</mask>
<g mask="url(#mask15_913_6441)">
<path d="M18.4067 18.6133H18.6012V18.8757H18.4067V18.6133Z" fill="url(#paint15_linear_913_6441)"/>
</g>
<mask id="mask16_913_6441" style="mask-type:luminance" maskUnits="userSpaceOnUse" x="11" y="9" width="8" height="10">
<path d="M18.4074 18.6156C17.9538 18.0909 17.5002 17.5661 16.9169 17.0412C13.2232 13.958 12.0567 11.99 11.3439 9.69385C14.7784 11.5307 17.4354 14.7452 18.537 18.6156H18.4074Z" fill="white"/>
</mask>
<g mask="url(#mask16_913_6441)">
<path d="M11.3439 9.69385H18.537V18.6156H11.3439V9.69385Z" fill="url(#paint16_linear_913_6441)"/>
</g>
<mask id="mask17_913_6441" style="mask-type:luminance" maskUnits="userSpaceOnUse" x="11" y="25" width="8" height="11">
<path d="M18.3363 25.5044L18.2715 25.57L18.2067 25.6356C16.3274 27.7349 15.2905 30.1622 14.9665 32.7861C13.9945 33.7702 12.8928 34.623 11.7263 35.279C12.4392 31.9989 14.5129 28.7189 18.3363 25.5044Z" fill="white"/>
</mask>
<g mask="url(#mask17_913_6441)">
<path d="M11.6608 25.5044H18.3356V35.3446H11.6608V25.5044Z" fill="url(#paint17_linear_913_6441)"/>
</g>
<mask id="mask18_913_6441" style="mask-type:luminance" maskUnits="userSpaceOnUse" x="10" y="25" width="9" height="11">
<path d="M13.5451 34.097C13.8691 31.4074 15.23 28.6521 18.3406 25.5688C14.0636 28.5209 11.5362 32.0634 10.7585 35.8682C11.7954 35.3435 12.7027 34.753 13.5451 34.097Z" fill="white"/>
</mask>
<g mask="url(#mask18_913_6441)">
<path d="M10.7585 25.5034H18.3406V35.8029H10.7585V25.5034Z" fill="url(#paint18_linear_913_6441)"/>
</g>
<mask id="mask19_913_6441" style="mask-type:luminance" maskUnits="userSpaceOnUse" x="4" y="25" width="15" height="13">
<path d="M9.5278 36.3287C10.3054 32.3926 12.3792 29.5061 18.3412 25.5044C11.4071 27.4069 7.0653 32.4582 4.99158 37.1815C6.54687 37.1815 8.10216 36.8534 9.5278 36.3287Z" fill="white"/>
</mask>
<g mask="url(#mask19_913_6441)">
<path d="M4.99158 25.5044H18.3412V37.1815H4.99158V25.5044Z" fill="url(#paint19_linear_913_6441)"/>
</g>
<mask id="mask20_913_6441" style="mask-type:luminance" maskUnits="userSpaceOnUse" x="7" y="25" width="12" height="12">
<path d="M9.52543 36.3287C10.303 32.3926 12.3767 29.5061 18.3387 25.5044C12.96 28.0629 9.52534 32.327 7.97009 36.7878C8.48853 36.6567 9.007 36.5255 9.52543 36.3287Z" fill="white"/>
</mask>
<g mask="url(#mask20_913_6441)">
<path d="M7.97009 25.5044H18.3387V36.7878H7.97009V25.5044Z" fill="url(#paint20_linear_913_6441)"/>
</g>
<path d="M156.19 30.4471V27.6665H155.948C155.803 27.6665 155.687 27.6733 155.599 27.6867C155.512 27.7002 155.446 27.7255 155.402 27.7626C155.362 27.7962 155.338 27.8435 155.332 27.9041L155.281 28.4653H154.927V27.3379H158.086V28.4653H157.738L157.687 27.9041C157.684 27.8435 157.661 27.7962 157.616 27.7626C157.572 27.7255 157.505 27.7002 157.414 27.6867C157.327 27.6733 157.21 27.6665 157.065 27.6665H156.822V30.4471C156.822 30.5213 156.86 30.5701 156.934 30.5937C157.011 30.6173 157.107 30.6291 157.222 30.6291H157.308V30.9274H155.711V30.6291H155.797C155.908 30.6291 156 30.6173 156.074 30.5937C156.152 30.5701 156.19 30.5213 156.19 30.4471Z" fill="#00234B"/>
<path d="M158.531 30.9274V30.6291H158.587C158.661 30.6291 158.727 30.624 158.784 30.6139C158.845 30.6038 158.891 30.5853 158.926 30.5583C158.959 30.5313 158.976 30.4942 158.976 30.4471V27.8182C158.976 27.7676 158.959 27.7305 158.926 27.7069C158.891 27.68 158.845 27.6614 158.784 27.6513C158.727 27.6412 158.661 27.6362 158.587 27.6362H158.531V27.3379H159.911L160.832 30.3056L160.715 30.2196L161.65 27.3379H163V27.6362H162.944C162.871 27.6362 162.803 27.6412 162.742 27.6513C162.685 27.6614 162.64 27.68 162.606 27.7069C162.572 27.7305 162.556 27.7676 162.556 27.8182V30.4471C162.556 30.4942 162.572 30.5313 162.606 30.5583C162.64 30.5853 162.685 30.6038 162.742 30.6139C162.803 30.624 162.871 30.6291 162.944 30.6291H163V30.9274H161.524V30.6291H161.569C161.62 30.6291 161.672 30.6274 161.726 30.624C161.784 30.6206 161.83 30.6156 161.868 30.6089C161.908 30.5987 161.929 30.5886 161.929 30.5785V27.4491L161.979 27.439L160.821 30.9374H160.447L159.289 27.439H159.345V30.5785C159.345 30.5886 159.365 30.5987 159.406 30.6089C159.446 30.6156 159.495 30.6206 159.552 30.624C159.609 30.6274 159.662 30.6291 159.709 30.6291H159.729V30.9274H158.531Z" fill="#00234B"/>
<defs>
<linearGradient id="paint0_linear_913_6441" x1="8.32813" y1="37.4734" x2="17.8327" y2="37.2159" gradientUnits="userSpaceOnUse">
<stop stop-color="#E860F9"/>
<stop offset="0.56" stop-color="#0884D1"/>
<stop offset="1" stop-color="#0CBAB1"/>
</linearGradient>
<linearGradient id="paint1_linear_913_6441" x1="10.9264" y1="7.32013" x2="15.7111" y2="15.2901" gradientUnits="userSpaceOnUse">
<stop stop-color="#16BAEB"/>
<stop offset="1" stop-color="#0FC3E2"/>
</linearGradient>
<linearGradient id="paint2_linear_913_6441" x1="4.14764" y1="1.56852" x2="17.2401" y2="13.6637" gradientUnits="userSpaceOnUse">
<stop stop-color="#B5D91E"/>
<stop offset="0.5" stop-color="#3BDAA9"/>
<stop offset="1" stop-color="#26A5FF"/>
</linearGradient>
<linearGradient id="paint3_linear_913_6441" x1="34.116" y1="13.7288" x2="18.7747" y2="34.229" gradientUnits="userSpaceOnUse">
<stop stop-color="#E860F9"/>
<stop offset="0.56" stop-color="#0884D1"/>
<stop offset="1" stop-color="#0CBAB1"/>
</linearGradient>
<linearGradient id="paint4_linear_913_6441" x1="25.5973" y1="30.8047" x2="39.8601" y2="13.6517" gradientUnits="userSpaceOnUse">
<stop stop-color="#E860F9"/>
<stop offset="0.56" stop-color="#0884D1"/>
<stop offset="1" stop-color="#0CBAB1"/>
</linearGradient>
<linearGradient id="paint5_linear_913_6441" x1="23.4326" y1="17.6799" x2="19.1458" y2="27.5763" gradientUnits="userSpaceOnUse">
<stop stop-color="#3512BE"/>
<stop offset="1" stop-color="#2A81EF"/>
</linearGradient>
<linearGradient id="paint6_linear_913_6441" x1="11.8073" y1="11.6683" x2="21.0802" y2="13.9467" gradientUnits="userSpaceOnUse">
<stop stop-color="#5086FF"/>
<stop offset="1" stop-color="#7C66FF"/>
</linearGradient>
<linearGradient id="paint7_linear_913_6441" x1="26.3985" y1="45.903" x2="19.6844" y2="42.5148" gradientUnits="userSpaceOnUse">
<stop stop-color="#B5D91E"/>
<stop offset="0.5" stop-color="#3BDAA9"/>
<stop offset="1" stop-color="#26A5FF"/>
</linearGradient>
<linearGradient id="paint8_linear_913_6441" x1="11.0252" y1="37.8826" x2="16.9775" y2="38.3436" gradientUnits="userSpaceOnUse">
<stop stop-color="#5086FF"/>
<stop offset="1" stop-color="#7C66FF"/>
</linearGradient>
<linearGradient id="paint9_linear_913_6441" x1="6.80499" y1="31.9498" x2="9.18151" y2="33.7971" gradientUnits="userSpaceOnUse">
<stop stop-color="#B5D91E"/>
<stop offset="0.5" stop-color="#3BDAA9"/>
<stop offset="1" stop-color="#26A5FF"/>
</linearGradient>
<linearGradient id="paint10_linear_913_6441" x1="5.41299" y1="30.1096" x2="10.7607" y2="32.442" gradientUnits="userSpaceOnUse">
<stop stop-color="#BCDD35"/>
<stop offset="0.5" stop-color="#4FDEB2"/>
<stop offset="1" stop-color="#3CAEFF"/>
</linearGradient>
<linearGradient id="paint11_linear_913_6441" x1="8.16347" y1="31.3134" x2="17.668" y2="31.0558" gradientUnits="userSpaceOnUse">
<stop stop-color="#F097FB"/>
<stop offset="0.56" stop-color="#5DAEE1"/>
<stop offset="1" stop-color="#60D2CC"/>
</linearGradient>
<linearGradient id="paint12_linear_913_6441" x1="10.8879" y1="7.34791" x2="15.6726" y2="15.318" gradientUnits="userSpaceOnUse">
<stop stop-color="#66D2F2"/>
<stop offset="1" stop-color="#62D7EC"/>
</linearGradient>
<linearGradient id="paint13_linear_913_6441" x1="-0.149803" y1="6.2143" x2="12.9427" y2="18.3095" gradientUnits="userSpaceOnUse">
<stop stop-color="#CEE66B"/>
<stop offset="0.5" stop-color="#7FE7C7"/>
<stop offset="1" stop-color="#72C4FF"/>
</linearGradient>
<linearGradient id="paint14_linear_913_6441" x1="24.7504" y1="6.71803" x2="9.40902" y2="27.2181" gradientUnits="userSpaceOnUse">
<stop stop-color="#F097FB"/>
<stop offset="0.56" stop-color="#5DAEE1"/>
<stop offset="1" stop-color="#60D2CC"/>
</linearGradient>
<linearGradient id="paint15_linear_913_6441" x1="19.627" y1="16.0297" x2="15.3402" y2="25.9261" gradientUnits="userSpaceOnUse">
<stop stop-color="#7A63D5"/>
<stop offset="1" stop-color="#73ACF4"/>
</linearGradient>
<linearGradient id="paint16_linear_913_6441" x1="11.4176" y1="13.2619" x2="20.6904" y2="15.5404" gradientUnits="userSpaceOnUse">
<stop stop-color="#8DB0FF"/>
<stop offset="1" stop-color="#AA9AFF"/>
</linearGradient>
<linearGradient id="paint17_linear_913_6441" x1="30.2192" y1="38.3259" x2="23.5052" y2="34.9378" gradientUnits="userSpaceOnUse">
<stop stop-color="#CEE66B"/>
<stop offset="0.5" stop-color="#7FE7C7"/>
<stop offset="1" stop-color="#72C4FF"/>
</linearGradient>
<linearGradient id="paint18_linear_913_6441" x1="11.6003" y1="30.4422" x2="17.5525" y2="30.9033" gradientUnits="userSpaceOnUse">
<stop stop-color="#8DB0FF"/>
<stop offset="1" stop-color="#AA9AFF"/>
</linearGradient>
<linearGradient id="paint19_linear_913_6441" x1="8.93871" y1="29.2048" x2="11.3152" y2="31.0523" gradientUnits="userSpaceOnUse">
<stop stop-color="#CEE66B"/>
<stop offset="0.5" stop-color="#7FE7C7"/>
<stop offset="1" stop-color="#72C4FF"/>
</linearGradient>
<linearGradient id="paint20_linear_913_6441" x1="6.28629" y1="28.112" x2="11.634" y2="30.4444" gradientUnits="userSpaceOnUse">
<stop stop-color="#D3E97A"/>
<stop offset="0.5" stop-color="#8CE9CD"/>
<stop offset="1" stop-color="#80CAFF"/>
</linearGradient>
</defs>
</svg>
