<svg width="19" height="20" viewBox="0 0 19 20" fill="none" xmlns="http://www.w3.org/2000/svg">
<path fill-rule="evenodd" clip-rule="evenodd" d="M1.72727 9.99999C1.72727 5.70724 5.20724 2.22727 9.5 2.22727C13.7928 2.22727 17.2727 5.70724 17.2727 9.99999C17.2727 14.2927 13.7928 17.7727 9.5 17.7727C5.20724 17.7727 1.72727 14.2927 1.72727 9.99999ZM9.5 0.5C4.25329 0.5 0 4.75329 0 9.99999C0 15.2467 4.25329 19.5 9.5 19.5C14.7467 19.5 19 15.2467 19 9.99999C19 4.75329 14.7467 0.5 9.5 0.5ZM10.2485 13.8009C10.2485 13.2659 9.81475 12.8321 9.27977 12.8321H9.24206C8.70699 12.8321 8.27335 13.2659 8.27335 13.8009C8.27335 14.3358 8.70699 14.7696 9.24206 14.7696H9.27977C9.81475 14.7696 10.2485 14.3358 10.2485 13.8009ZM6.37112 7.41506C6.24004 7.91061 6.66845 8.33787 7.18105 8.33787H7.4619C7.81274 8.33787 8.08412 8.04832 8.17269 7.70883C8.22297 7.50753 8.29849 7.3356 8.39915 7.19302C8.50816 7.04204 8.64231 6.92463 8.8017 6.84076C8.96944 6.74849 9.16654 6.70237 9.393 6.70237C9.72848 6.70237 9.98853 6.79462 10.173 6.97914C10.3659 7.16366 10.4624 7.44883 10.4624 7.83464C10.4707 8.0611 10.4288 8.24978 10.3366 8.40073C10.2527 8.55177 10.1395 8.69014 9.99688 8.81594C9.85428 8.94175 9.69911 9.06755 9.53138 9.19335C9.36364 9.31915 9.20425 9.4701 9.05331 9.64628C8.90236 9.81402 8.76812 10.0195 8.65076 10.2627C8.54165 10.506 8.47458 10.8079 8.44943 11.1686C8.44943 11.4812 8.70286 11.7346 9.0156 11.7346H9.66975C9.93383 11.7346 10.1478 11.5207 10.1478 11.2566C10.1814 11.005 10.2611 10.7953 10.3869 10.6276C10.5211 10.4598 10.672 10.313 10.8398 10.1872C11.0075 10.0531 11.1837 9.92303 11.3681 9.79722C11.5611 9.66307 11.733 9.50368 11.884 9.31915C12.0433 9.13462 12.1733 8.91238 12.274 8.65243C12.383 8.39238 12.4375 8.0611 12.4375 7.65851C12.4375 7.41528 12.383 7.15528 12.274 6.8785C12.1733 6.59334 12.0014 6.32914 11.7582 6.08591C11.515 5.84268 11.1921 5.64139 10.7895 5.48203C10.3953 5.31429 9.90044 5.23041 9.30491 5.23041C8.84364 5.23041 8.42429 5.3101 8.04688 5.46945C7.67782 5.62042 7.3591 5.8343 7.09071 6.11107C6.83071 6.38785 6.62522 6.71495 6.47426 7.09237C6.43471 7.19703 6.40034 7.30459 6.37112 7.41506Z" fill="#666666"/>
</svg>
