<svg width="14" height="14" viewBox="0 0 14 14" fill="none" xmlns="http://www.w3.org/2000/svg">
<path fill-rule="evenodd" clip-rule="evenodd" d="M1.27273 7C1.27273 3.83691 3.83691 1.27273 7 1.27273C10.1631 1.27273 12.7273 3.83691 12.7273 7C12.7273 10.1631 10.1631 12.7273 7 12.7273C3.83691 12.7273 1.27273 10.1631 1.27273 7ZM7 0C3.13401 0 0 3.13401 0 7C0 10.866 3.13401 14 7 14C10.866 14 14 10.866 14 7C14 3.13401 10.866 0 7 0ZM7.55151 9.80063C7.55151 9.40644 7.23192 9.08685 6.83773 9.08685H6.80994C6.41568 9.08685 6.09615 9.40644 6.09615 9.80063C6.09615 10.1948 6.41568 10.5144 6.80994 10.5144H6.83773C7.23192 10.5144 7.55151 10.1948 7.55151 9.80063ZM4.69451 5.09531C4.59792 5.46045 4.9136 5.77528 5.2913 5.77528H5.49825C5.75676 5.77528 5.95672 5.56193 6.02198 5.31177C6.05903 5.16345 6.11468 5.03676 6.18885 4.9317C6.26917 4.82046 6.36802 4.73394 6.48546 4.67214C6.60906 4.60416 6.75429 4.57017 6.92116 4.57017C7.16835 4.57017 7.35997 4.63815 7.49587 4.77411C7.63806 4.91007 7.70912 5.12019 7.70912 5.40448C7.71527 5.57134 7.68437 5.71037 7.61642 5.82159C7.55463 5.93288 7.47119 6.03484 7.36612 6.12754C7.26105 6.22024 7.14672 6.31294 7.02312 6.40563C6.89952 6.49833 6.78208 6.60955 6.67086 6.73937C6.55964 6.86297 6.46072 7.01435 6.37424 7.19359C6.29385 7.37284 6.24442 7.59528 6.2259 7.86107C6.2259 8.09143 6.41264 8.27817 6.64307 8.27817H7.12508C7.31967 8.27817 7.47734 8.12049 7.47734 7.92591C7.50209 7.74051 7.56078 7.58602 7.65347 7.46242C7.75239 7.33883 7.86362 7.23064 7.98721 7.13795C8.11081 7.0391 8.24063 6.94329 8.37652 6.85059C8.51872 6.75174 8.64535 6.6343 8.75665 6.49833C8.87402 6.36236 8.96983 6.1986 9.044 6.00706C9.12432 5.81544 9.16448 5.57134 9.16448 5.27469C9.16448 5.09547 9.12432 4.90389 9.044 4.69995C8.96983 4.48983 8.84312 4.29516 8.66395 4.11594C8.48471 3.93672 8.24678 3.78839 7.95016 3.67097C7.6597 3.54738 7.29506 3.48557 6.85625 3.48557C6.51636 3.48557 6.20737 3.54429 5.92928 3.6617C5.65734 3.77295 5.4225 3.93054 5.22474 4.13448C5.03316 4.33842 4.88174 4.57944 4.77051 4.85754C4.74137 4.93466 4.71604 5.01391 4.69451 5.09531Z" fill="#666666"/>
</svg>
