<svg width="40" height="40" viewBox="0 0 40 40" fill="none" xmlns="http://www.w3.org/2000/svg">
<path d="M20 40C8.95563 40 0 31.0459 0 19.9991C0 8.95414 8.95563 0 20 0C31.0462 0 40 8.95414 40 19.9991C40 31.0459 31.0462 40 20 40Z" fill="#016BE3"/>
<path d="M10.2712 12.617C9.06223 12.617 8.44922 14.1553 9.3063 15.0521C10.1634 15.9489 11.6335 15.3134 11.6335 14.0424C11.6391 13.2585 11.0261 12.617 10.2712 12.617ZM12.587 17.006C12.2294 16.5665 11.7072 16.2993 11.1396 16.2993H9.40279C8.84087 16.2993 8.313 16.5665 7.95541 17.0001C9.23251 18.3483 11.3099 18.3423 12.587 17.006ZM29.7171 12.617C28.5082 12.617 27.8952 14.1553 28.7522 15.0521C29.6093 15.9489 31.0794 15.3134 31.0794 14.0424C31.0794 13.2585 30.4721 12.617 29.7171 12.617ZM32.033 17.006C31.6754 16.5665 31.1532 16.3052 30.5856 16.3052H28.8487C28.2868 16.3052 27.7589 16.5725 27.4013 17.006C28.6784 18.3483 30.7615 18.3364 32.033 17.006ZM26.8054 13.0031C27.1743 14.7432 26.7997 16.133 26.8054 16.1567C26.8565 16.2577 26.9075 16.3527 26.97 16.4478C27.3389 16.038 27.8214 15.7529 28.3549 15.64C27.4808 14.8204 27.4411 13.401 28.2754 12.5339C29.0758 11.6965 30.3699 11.6965 31.1702 12.5339C31.9989 13.401 31.9592 14.8204 31.0907 15.64C31.6243 15.7529 32.1067 16.038 32.4757 16.4478C33.1795 15.3074 33.1681 13.8464 32.4814 12.7239C31.5845 11.2629 29.7739 10.7403 28.2811 11.5064C27.6511 11.8271 27.1346 12.3438 26.8054 13.0031ZM13.183 16.1627C12.8141 14.4225 13.1887 13.0268 13.183 13.009C12.973 12.5814 12.6722 12.2013 12.3089 11.8984C11.2078 10.9838 9.66389 10.9185 8.50031 11.7024C6.98482 12.7239 6.53642 14.868 7.52971 16.4478C7.89865 16.038 8.38111 15.7529 8.91466 15.64C8.04055 14.8204 8.00082 13.401 8.83519 12.5339C9.63551 11.6965 10.9296 11.6965 11.7299 12.5339C12.5586 13.401 12.5189 14.8204 11.6505 15.64C12.184 15.7529 12.6665 16.038 13.0354 16.4478C13.0808 16.3587 13.1319 16.2577 13.183 16.1627ZM19.9942 10.6809C18.456 10.6809 17.2073 11.9875 17.2073 13.597C17.2073 15.2065 18.456 16.5131 19.9942 16.5131C21.5381 16.5131 22.7868 15.2065 22.7868 13.597C22.7811 11.9875 21.5324 10.6809 19.9942 10.6809ZM14.9255 18.4908C15.7315 17.4336 16.9348 16.7803 18.246 16.7328C16.2878 15.5331 15.9302 12.718 17.5422 11.0313C18.8987 9.61185 21.0953 9.61185 22.4462 11.0313C24.0582 12.718 23.7006 15.5331 21.7424 16.7328C23.0535 16.7803 24.2568 17.4336 25.0628 18.4908C25.5737 17.7662 25.9483 16.9169 26.147 15.9786C26.5159 14.2028 26.1583 12.4329 25.2842 11.0194C24.4101 9.59998 23.0195 8.53094 21.3224 8.15084C19.6252 7.7648 17.9338 8.13896 16.5829 9.05358C15.2264 9.9682 14.2047 11.4173 13.8414 13.1991C13.4725 14.9749 13.8301 16.7447 14.7042 18.1582C14.7723 18.2651 14.8461 18.378 14.9255 18.4908ZM18.8363 21.0565V19.4589C18.8363 18.7224 19.4096 18.1226 20.1134 18.1226H20.261C20.9648 18.1226 21.5381 18.7224 21.5381 19.4589V20.9733C22.7243 20.6586 23.7914 19.9874 24.6201 19.055C23.9163 18.0572 22.8038 17.4455 21.5891 17.4455H18.3936C17.1846 17.4455 16.0664 18.0572 15.3626 19.055C16.2594 20.0647 17.4513 20.7833 18.8363 21.0565ZM18.683 28.0884C19.0803 28.7951 19.4209 29.2881 19.699 29.686C20.3801 30.6778 20.715 31.1589 20.7775 33H25.2842V32.6852C25.2842 30.6778 26.0959 30.8144 26.0959 29.0327V25.2792C26.0959 24.5843 25.3353 24.1508 24.9209 24.8813C24.7563 25.1663 24.3363 25.0773 24.2909 24.7447C24.2058 24.0854 23.4225 24.1329 23.2181 24.5665C23.0933 24.8337 22.73 24.8337 22.6051 24.5665C22.3838 24.0854 21.7254 24.0854 21.504 24.5665C21.3451 24.905 20.8569 24.7862 20.8569 24.4121V19.4648C20.8569 19.1203 20.5845 18.8353 20.261 18.8353C20.0396 18.8353 19.875 18.8293 19.6934 19.0194C19.5855 19.1322 19.5174 19.2926 19.5174 19.4648V25.2435C19.5174 26.3957 17.7578 26.4432 18.683 28.0884Z" fill="#F8F8F8"/>
</svg>
