<svg width="28" height="28" viewBox="0 0 28 28" fill="none" xmlns="http://www.w3.org/2000/svg">
<path fill-rule="evenodd" clip-rule="evenodd" d="M14.9908 2.81424C17.8555 2.95503 20.5249 4.13636 22.5637 6.17655C24.7384 8.35267 25.9355 11.2453 25.9343 14.3215C25.9317 20.6695 20.7639 25.8345 14.4155 25.8345C12.0282 25.8345 10.1311 25.101 8.90615 24.4332L2.7998 26.0342L4.434 20.0681C3.42598 18.3221 2.89556 16.3416 2.89639 14.3124C2.89894 7.96452 8.0663 2.8 14.4154 2.8L14.9908 2.81424ZM9.18903 22.3489L9.53869 22.5563C11.0086 23.4282 12.6936 23.8895 14.4116 23.8901H14.4155C19.6924 23.8901 23.9873 19.5973 23.9894 14.3208C23.9904 11.7639 22.9955 9.3597 21.1879 7.55096C19.3803 5.74211 16.9765 4.74538 14.4193 4.74455C9.13827 4.74455 4.84334 9.03696 4.84124 14.313C4.84052 16.1212 5.34666 17.8822 6.30504 19.4057L6.53268 19.7678L5.56549 23.299L9.18903 22.3489ZM20.2186 17.0593C20.1467 16.9392 19.9548 16.8673 19.667 16.7233C19.3792 16.5793 17.9641 15.8833 17.7003 15.7872C17.4365 15.6914 17.2446 15.6434 17.0528 15.9313C16.8609 16.2192 16.3093 16.8673 16.1414 17.0593C15.9735 17.2513 15.8056 17.2753 15.5179 17.1313C15.23 16.9873 14.3026 16.6835 13.2033 15.7034C12.3477 14.9406 11.77 13.9986 11.6021 13.7106C11.4343 13.4226 11.5842 13.2669 11.7283 13.1235C11.8578 12.9946 12.0162 12.7875 12.1601 12.6195C12.304 12.4516 12.3519 12.3315 12.4479 12.1396C12.5438 11.9475 12.4958 11.7796 12.4239 11.6356C12.3519 11.4916 11.7763 10.0756 11.5365 9.49954C11.3028 8.93865 11.0656 9.01459 10.8889 9.00572C10.7212 8.99742 10.5292 8.99559 10.3373 8.99559C10.1454 8.99559 9.8336 9.06753 9.56978 9.3556C9.30595 9.64355 8.56242 10.3396 8.56242 11.7555C8.56242 13.1715 9.59377 14.5393 9.73768 14.7314C9.88159 14.9234 11.7672 17.829 14.6544 19.0752C15.3411 19.3716 15.8772 19.5486 16.2952 19.6811C16.9847 19.9001 17.6121 19.8692 18.108 19.7951C18.661 19.7126 19.8109 19.0992 20.0507 18.4273C20.2906 17.7552 20.2906 17.1793 20.2186 17.0593Z" fill="white"/>
<mask id="mask0_472_9648" style="mask-type:alpha" maskUnits="userSpaceOnUse" x="4" y="4" width="20" height="20">
<path fill-rule="evenodd" clip-rule="evenodd" d="M9.1891 22.3484L9.53876 22.5558C11.0087 23.4277 12.6937 23.889 14.4117 23.8896H14.4155C19.6925 23.8896 23.9874 19.5968 23.9895 14.3203C23.9905 11.7634 22.9956 9.35919 21.188 7.55045C19.3804 5.7416 16.9766 4.74487 14.4194 4.74404C9.13834 4.74404 4.84342 9.03645 4.84131 14.3125C4.84059 16.1207 5.34673 17.8816 6.30511 19.4051L6.53275 19.7673L5.56556 23.2984L9.1891 22.3484ZM20.2187 17.0588C20.1467 16.9387 19.9549 16.8668 19.6671 16.7228C19.3792 16.5787 17.9642 15.8828 17.7004 15.7867C17.4366 15.6909 17.2447 15.6429 17.0528 15.9308C16.861 16.2187 16.3094 16.8668 16.1414 17.0588C15.9736 17.2507 15.8057 17.2748 15.5179 17.1308C15.2301 16.9868 14.3027 16.683 13.2034 15.7029C12.3477 14.9401 11.7701 13.9981 11.6022 13.7101C11.4343 13.4221 11.5843 13.2664 11.7284 13.123C11.8579 12.9941 12.0162 12.787 12.1602 12.619C12.3041 12.4511 12.352 12.331 12.448 12.1391C12.5439 11.947 12.4959 11.7791 12.424 11.6351C12.352 11.491 11.7764 10.0751 11.5366 9.49904C11.3029 8.93814 11.0656 9.01408 10.889 9.00522C10.7213 8.99691 10.5292 8.99508 10.3374 8.99508C10.1455 8.99508 9.83367 9.06703 9.56985 9.35509C9.30603 9.64304 8.56249 10.3391 8.56249 11.755C8.56249 13.171 9.59384 14.5388 9.73775 14.7309C9.88166 14.9229 11.7673 17.8285 14.6545 19.0747C15.3412 19.3711 15.8773 19.548 16.2953 19.6806C16.9848 19.8996 17.6122 19.8687 18.1081 19.7946C18.6611 19.712 19.811 19.0987 20.0508 18.4268C20.2906 17.7547 20.2906 17.1787 20.2187 17.0588Z" fill="black"/>
</mask>
<g mask="url(#mask0_472_9648)">
<path d="M30.2333 -1.63142H-2.13086V30.7328H30.2333V-1.63142Z" fill="url(#paint0_linear_472_9648)"/>
</g>
<defs>
<linearGradient id="paint0_linear_472_9648" x1="14.0513" y1="30.7328" x2="14.0513" y2="-1.63142" gradientUnits="userSpaceOnUse">
<stop stop-color="#25CF43"/>
<stop offset="1" stop-color="#61FD7D"/>
</linearGradient>
</defs>
</svg>
