<svg width="24" height="24" viewBox="0 0 24 24" fill="none" xmlns="http://www.w3.org/2000/svg">
<path d="M15.5303 10.5303C15.8232 10.2374 15.8232 9.76256 15.5303 9.46967C15.2374 9.17678 14.7626 9.17678 14.4697 9.46967L11 12.9393L9.53033 11.4697C9.23744 11.1768 8.76256 11.1768 8.46967 11.4697C8.17678 11.7626 8.17678 12.2374 8.46967 12.5303L10.4697 14.5303C10.6103 14.671 10.8011 14.75 11 14.75C11.1989 14.75 11.3897 14.671 11.5303 14.5303L15.5303 10.5303Z" fill="#DFFB0B"/>
<path fill-rule="evenodd" clip-rule="evenodd" d="M14.1243 2.22364C12.787 1.55501 11.213 1.55501 9.87574 2.22364L4.77016 4.77642C3.83851 5.24225 3.25 6.19448 3.25 7.2361V14.783C3.25 16.4208 4.09369 17.943 5.4825 18.811L10.5425 21.9735C11.4342 22.5308 12.5658 22.5308 13.4575 21.9735L18.5175 18.811C19.9063 17.943 20.75 16.4208 20.75 14.783V7.2361C20.75 6.19448 20.1615 5.24225 19.2298 4.77643L14.1243 2.22364ZM10.5466 3.56528C11.4615 3.1078 12.5385 3.1078 13.4534 3.56528L18.559 6.11807C18.9825 6.32981 19.25 6.76263 19.25 7.2361V14.783C19.25 15.9036 18.6727 16.9451 17.7225 17.539L12.6625 20.7015C12.2572 20.9548 11.7428 20.9548 11.3375 20.7015L6.2775 17.539C5.32726 16.9451 4.75 15.9036 4.75 14.783V7.2361C4.75 6.76263 5.0175 6.32981 5.44098 6.11807L10.5466 3.56528Z" fill="#DFFB0B"/>
</svg>
