<svg width="20" height="20" viewBox="0 0 20 20" fill="none" xmlns="http://www.w3.org/2000/svg">
<path d="M11.1667 10.0002L16.4167 4.75016C16.75 4.41683 16.75 3.91683 16.4167 3.5835C16.0833 3.25016 15.5833 3.25016 15.25 3.5835L10 8.8335L4.75001 3.5835C4.41668 3.25016 3.91668 3.25016 3.58334 3.5835C3.25001 3.91683 3.25001 4.41683 3.58334 4.75016L8.83334 10.0002L3.58334 15.2502C3.41668 15.4168 3.33334 15.5835 3.33334 15.8335C3.33334 16.3335 3.66668 16.6668 4.16668 16.6668C4.41668 16.6668 4.58334 16.5835 4.75001 16.4168L10 11.1668L15.25 16.4168C15.4167 16.5835 15.5833 16.6668 15.8333 16.6668C16.0833 16.6668 16.25 16.5835 16.4167 16.4168C16.75 16.0835 16.75 15.5835 16.4167 15.2502L11.1667 10.0002Z" fill="#FF6467"/>
</svg>
