<svg width="12" height="12" viewBox="0 0 12 12" fill="none" xmlns="http://www.w3.org/2000/svg">
<path d="M1.34626 6.20266L5.47126 10.3277C5.61178 10.4673 5.80187 10.5458 6.00001 10.5458C6.19814 10.5458 6.38823 10.4673 6.52876 10.3277L10.6538 6.20266C10.7833 6.06022 10.8531 5.87342 10.8487 5.68095C10.8443 5.48847 10.766 5.30505 10.6301 5.16868C10.4942 5.0323 10.3111 4.95341 10.1187 4.94833C9.92619 4.94325 9.73915 5.01238 9.59626 5.14141L6.00001 8.73766L2.40376 5.14141C2.3354 5.06624 2.25249 5.00575 2.16005 4.96359C2.06761 4.92144 1.96757 4.89851 1.866 4.89619C1.76443 4.89387 1.66344 4.91221 1.56918 4.9501C1.47491 4.98799 1.38932 5.04464 1.31761 5.11661C1.2459 5.18857 1.18955 5.27436 1.152 5.36876C1.11444 5.46316 1.09646 5.56421 1.09914 5.66577C1.10182 5.76733 1.1251 5.86729 1.16758 5.95958C1.21006 6.05187 1.27085 6.13457 1.34626 6.20266Z" fill="#71717B"/>
<path d="M5.47125 6.85859C5.61177 6.99828 5.80186 7.07669 6 7.07669C6.19813 7.07669 6.38822 6.99828 6.52875 6.85859L10.6537 2.73359C10.7833 2.59115 10.8531 2.40436 10.8487 2.21188C10.8443 2.01941 10.766 1.83599 10.6301 1.69961C10.4942 1.56324 10.3111 1.48434 10.1186 1.47926C9.92618 1.47419 9.73914 1.54332 9.59624 1.67234L6 5.26859L2.40374 1.67234C2.26085 1.54332 2.07381 1.47419 1.88135 1.47926C1.68889 1.48434 1.50575 1.56324 1.36986 1.69961C1.23396 1.83599 1.15571 2.01941 1.15132 2.21188C1.14692 2.40436 1.21672 2.59115 1.34625 2.73359L5.47125 6.85859Z" fill="#71717B"/>
</svg>
