<svg width="22" height="22" viewBox="0 0 22 22" fill="none" xmlns="http://www.w3.org/2000/svg">
<g clip-path="url(#clip0_3971_280)">
<path d="M19.8321 4.62542C21.5179 2.94629 20.3091 -0.00562075 17.9036 8.1602e-06C15.4982 -0.00566371 14.2893 2.94676 15.9752 4.62542C15.8451 4.69516 15.7192 4.77164 15.5979 4.85457C12.9116 2.99098 9.08845 2.99102 6.40217 4.85457C6.28091 4.77169 6.15497 4.69516 6.02486 4.62542C7.71061 2.94629 6.50182 -0.00562075 4.09634 8.1602e-06C1.69095 -0.00566371 0.48198 2.94676 2.16795 4.62542C0.87884 5.31623 0 6.67662 0 8.23853V9.61925C0 9.9752 0.288578 10.2638 0.644531 10.2638H2.88501C2.24486 13.6594 3.99936 17.2962 7.04249 18.9166C6.95213 19.2543 6.90366 19.6089 6.90366 19.9747V21.3555C6.90366 21.7114 7.19224 22 7.54819 22H14.4519C14.8078 22 15.0964 21.7114 15.0964 21.3555V19.9748C15.0964 19.609 15.0479 19.2543 14.9576 18.9166C18.0008 17.2961 19.7551 13.6595 19.115 10.2638H21.3555C21.7114 10.2638 22 9.97525 22 9.61929V8.23858C22 6.67662 21.1212 5.31623 19.8321 4.62542ZM17.9037 1.28907C18.6903 1.28907 19.3302 1.92905 19.3302 2.71563C19.2519 4.60815 16.5552 4.60759 16.4771 2.71563C16.4771 1.929 17.117 1.28907 17.9037 1.28907ZM4.09634 1.28907C4.88293 1.28907 5.5229 1.92905 5.5229 2.71563C5.44453 4.60815 2.74785 4.60759 2.66978 2.71563C2.66978 1.929 3.30975 1.28907 4.09634 1.28907ZM1.28906 8.97476V8.23858C1.44371 4.5134 6.75039 4.51628 6.90366 8.23858V8.97476H1.28906ZM13.8073 20.7109H8.19272V19.9748C8.34737 16.2496 13.6541 16.2525 13.8073 19.9748V20.7109H13.8073ZM9.57344 14.4518C9.57344 13.6652 10.2134 13.0253 11 13.0253C12.8925 13.1036 12.892 15.8003 11 15.8784C10.2134 15.8784 9.57344 15.2384 9.57344 14.4518ZM14.4279 17.7347C14.0517 17.161 13.5357 16.687 12.9285 16.3616C14.6144 14.6825 13.4055 11.7306 11 11.7362C8.59461 11.7306 7.38564 14.683 9.07161 16.3616C8.46441 16.687 7.94836 17.161 7.57221 17.7347C4.98652 16.2924 3.56121 13.1776 4.19745 10.2638H7.54823C7.90419 10.2638 8.19277 9.97525 8.19277 9.61929V8.23858C8.19277 7.3117 7.88318 6.45589 7.36218 5.76869C9.51895 4.40293 12.4812 4.40297 14.6379 5.76869C14.117 6.45589 13.8074 7.3117 13.8074 8.23858V9.61929C13.8074 9.97525 14.0959 10.2638 14.4519 10.2638H17.8027C18.4388 13.1779 17.0136 16.2922 14.4279 17.7347ZM20.7109 8.97476H15.0963V8.23858C15.251 4.5134 20.5577 4.51628 20.7109 8.23858V8.97476Z" fill="#9F9FA9"/>
</g>
<defs>
<clipPath id="clip0_3971_280">
<rect width="22" height="22" fill="white"/>
</clipPath>
</defs>
</svg>
