<svg width="22" height="22" viewBox="0 0 22 22" fill="none" xmlns="http://www.w3.org/2000/svg">
<path d="M11.0928 7.31643L11.4386 8.2755C11.8222 9.34043 12.6603 10.1785 13.7252 10.5621L14.6843 10.9079C14.7709 10.9389 14.7709 11.0619 14.6843 11.0929L13.7252 11.4387C12.6603 11.8223 11.8222 12.6604 11.4386 13.7253L11.0928 14.6844C11.0619 14.771 10.9388 14.771 10.9079 14.6844L10.5621 13.7253C10.1784 12.6604 9.34037 11.8223 8.27543 11.4387L7.31637 11.0929C7.22975 11.0619 7.22975 10.9389 7.31637 10.9079L8.27543 10.5621C9.34037 10.1785 10.1784 9.34043 10.5621 8.2755L10.9079 7.31643C10.9388 7.22981 11.0612 7.22981 11.0928 7.31643Z" fill="#0400F5"/>
<path d="M18.8382 6.27828C18.6416 5.95378 18.2194 5.85203 17.8936 6.04659C17.5691 6.24321 17.4652 6.66603 17.6619 6.99121C18.392 8.19571 18.7777 9.5824 18.7777 11.0007C18.7777 15.2886 15.2886 18.7784 11 18.7784C10.2651 18.7784 9.54869 18.6711 8.85637 18.4725L9.53906 18.1445C9.88075 17.9802 10.0251 17.5691 9.86081 17.2267C9.69719 16.885 9.28469 16.7407 8.943 16.905L6.79456 17.9383C6.62269 18.0215 6.49275 18.172 6.43637 18.3542C6.38 18.5364 6.402 18.7337 6.49687 18.8994L7.68487 20.9674C7.81137 21.1888 8.04306 21.3125 8.28162 21.3125C8.39781 21.3125 8.51537 21.283 8.62331 21.2211C8.95262 21.032 9.06675 20.6113 8.877 20.2826L8.61575 19.8275C9.38781 20.0365 10.1846 20.1527 11.0007 20.1527C16.0476 20.1527 20.1534 16.047 20.1534 11C20.1527 9.33078 19.6982 7.69728 18.8382 6.27828Z" fill="#0400F5"/>
<path d="M10.9993 3.22229C11.7343 3.22229 12.4513 3.32954 13.1429 3.52823L12.4603 3.85617C12.1186 4.02048 11.9742 4.4316 12.1385 4.77398C12.2568 5.01942 12.5022 5.1631 12.7586 5.1631C12.859 5.1631 12.9601 5.14179 13.0563 5.09504L15.2048 4.06173C15.3766 3.97854 15.5066 3.82798 15.5629 3.64579C15.6193 3.4636 15.598 3.2656 15.5024 3.09992L14.3144 1.03192C14.1261 0.702604 13.706 0.589167 13.376 0.778229C13.0467 0.967292 12.9326 1.38804 13.1223 1.71667L13.3836 2.17179C12.6115 1.96279 11.8147 1.8466 10.9986 1.8466C5.9517 1.8466 1.84595 5.95235 1.84595 10.9993C1.84595 12.6692 2.30038 14.3027 3.16045 15.7217C3.2897 15.9349 3.51726 16.0524 3.74895 16.0524C3.87063 16.0524 3.99301 16.0201 4.10507 15.9527C4.42957 15.7561 4.53338 15.3333 4.33676 15.0081C3.60663 13.8036 3.22095 12.4169 3.22095 10.9986C3.22232 6.71135 6.71138 3.22229 10.9993 3.22229Z" fill="#0400F5"/>
</svg>
