<svg width="20" height="20" viewBox="0 0 20 20" fill="none" xmlns="http://www.w3.org/2000/svg">
<g clip-path="url(#clip0_2916_6514)">
<path d="M18.9892 10.1727L9.0456 0.22908C8.74048 -0.0760346 8.24584 -0.0760346 7.94076 0.22908C7.63569 0.534195 7.63565 1.02884 7.94076 1.33392L8.65791 2.05106L5.04762 9.75127L1.46718 13.3317C0.553359 14.2455 0.553359 15.7324 1.46718 16.6463L2.57205 17.7511C3.48802 18.6671 4.97063 18.6671 5.8866 17.7511L6.80198 16.8357L9.25989 19.2937C9.70469 19.7493 10.3 20.0001 10.9369 20.0001C12.2292 20.0001 13.2806 18.9487 13.2806 17.6563C13.2806 17.0194 13.0298 16.4242 12.5742 15.9793L10.3511 13.7562L17.1673 10.5604L17.8844 11.2775C18.1895 11.5826 18.6842 11.5826 18.9892 11.2775C19.2943 10.9724 19.2943 10.4778 18.9892 10.1727ZM4.78172 16.6463C4.47641 16.9516 3.98224 16.9516 3.67689 16.6463L2.57202 15.5414C2.26741 15.2368 2.26741 14.7412 2.57202 14.4366L5.69683 11.3118L7.90654 13.5215L4.78172 16.6463ZM11.481 17.0959C11.6339 17.2443 11.7181 17.4434 11.7181 17.6564C11.7181 18.0872 11.3676 18.4377 10.9368 18.4377C10.7238 18.4377 10.5248 18.3535 10.3763 18.2006C10.3736 18.1979 7.90674 15.731 7.90674 15.731L9.01134 14.6264C9.01142 14.6263 11.4783 17.0932 11.481 17.0959ZM9.17614 12.5814L6.63691 10.0421L9.83274 3.22593L15.9923 9.38549L9.17614 12.5814Z" fill="#0400F5"/>
<path d="M16.1503 5.0697C16.3459 5.45423 16.8163 5.60739 17.2008 5.41177L18.791 4.60275C19.1756 4.40708 19.3288 3.93673 19.1331 3.55216C18.9375 3.16759 18.4672 3.01446 18.0826 3.21009L16.4923 4.01911C16.1078 4.21478 15.9546 4.68513 16.1503 5.0697Z" fill="#0400F5"/>
<path d="M14.1486 3.06802C14.5332 3.26364 15.0035 3.11048 15.1991 2.72591L16.0081 1.13564C16.2038 0.751065 16.0506 0.280714 15.6661 0.0850887C15.2815 -0.110536 14.8112 0.0425887 14.6155 0.427198L13.8065 2.01747C13.6109 2.40204 13.764 2.87239 14.1486 3.06802Z" fill="#0400F5"/>
</g>
<defs>
<clipPath id="clip0_2916_6514">
<rect width="20" height="20" fill="white"/>
</clipPath>
</defs>
</svg>
