<svg width="20" height="20" viewBox="0 0 20 20" fill="none" xmlns="http://www.w3.org/2000/svg">
<g clip-path="url(#clip0_2923_6576)">
<path d="M4.26074 7.64111C3.06761 7.64111 2.09694 8.61178 2.09694 9.80492C2.09694 10.9981 3.06761 11.9687 4.26074 11.9687C5.45388 11.9687 6.42455 10.9981 6.42455 9.80492C6.42455 8.61178 5.45388 7.64111 4.26074 7.64111ZM4.26074 10.7923C3.71631 10.7923 3.27333 10.3494 3.27333 9.80492C3.27333 9.26045 3.71631 8.81751 4.26074 8.81751C4.80517 8.81751 5.24815 9.26045 5.24815 9.80492C5.24815 10.3494 4.80517 10.7923 4.26074 10.7923Z" fill="#0400F5"/>
<path d="M8.09248 12.7517C6.89938 12.7517 5.92871 13.7224 5.92871 14.9155C5.92871 16.1086 6.89938 17.0793 8.09248 17.0793C9.28561 17.0793 10.2563 16.1086 10.2563 14.9155C10.2563 13.7224 9.28561 12.7517 8.09248 12.7517ZM8.09248 15.9029C7.54804 15.9029 7.1051 15.4599 7.1051 14.9155C7.1051 14.371 7.54804 13.9281 8.09248 13.9281C8.63695 13.9281 9.07989 14.371 9.07989 14.9155C9.07993 15.4599 8.63695 15.9029 8.09248 15.9029Z" fill="#0400F5"/>
<path d="M19.458 12.733C19.4542 12.7292 19.4503 12.7254 19.4463 12.7217L17.4095 10.7996C18.5497 9.93753 19.0647 8.41153 18.5963 6.99984C16.3882 0.337766 7.90282 -1.7758 2.84678 3.20385C-0.939925 6.93334 -0.904592 12.9468 2.68819 16.6499C5.91584 19.9766 11.0016 20.4438 14.7553 17.9867C16.5131 16.8364 15.705 14.0984 13.6015 14.0984C12.0305 14.0984 11.7665 11.9019 13.2505 11.5258L16.8389 15.3287C16.8426 15.3326 16.8464 15.3366 16.8503 15.3404C17.5696 16.0614 18.7381 16.0633 19.4593 15.3421C20.1804 14.621 20.1804 13.4538 19.458 12.733ZM11.858 14.5803C12.3306 15.0281 12.9498 15.2747 13.6016 15.2747C14.541 15.2747 14.8952 16.4893 14.1111 17.0024C10.8258 19.153 6.36384 18.749 3.53251 15.8307C0.356898 12.5577 0.375604 7.30498 3.68529 4.04945C8.12031 -0.312978 15.5382 1.51212 17.4798 7.37012C17.8087 8.36161 17.3976 9.43898 16.5354 9.97479L13.2682 6.89169C13.466 5.94196 13.192 4.94075 12.4742 4.22298C11.5733 3.32204 8.73513 2.87298 7.50513 2.73937C7.13207 2.69875 6.81619 3.01412 6.85678 3.38773C6.99149 4.62251 7.43792 7.45424 8.34043 8.35679C9.0587 9.07498 10.0604 9.34839 11.0094 9.15063L12.3856 10.6091C10.9202 11.4047 10.6226 13.4095 11.858 14.5803ZM9.17223 7.52494C8.72898 7.08169 8.33294 5.39585 8.12384 4.00639C9.51333 4.21545 11.1992 4.61153 11.6424 5.05479C12.3249 5.7373 12.325 6.84224 11.6424 7.52494C10.9614 8.206 9.85623 8.20894 9.17223 7.52494ZM18.6275 14.5103C18.3683 14.7695 17.9488 14.7707 17.688 14.5145C17.3869 14.1954 12.4222 8.93377 12.1456 8.64063C12.3776 8.46828 12.5856 8.26028 12.7582 8.02796L18.6321 13.5708C18.8885 13.8318 18.8871 14.2506 18.6275 14.5103Z" fill="#0400F5"/>
</g>
<defs>
<clipPath id="clip0_2923_6576">
<rect width="20" height="20" fill="white"/>
</clipPath>
</defs>
</svg>
