<svg width="16" height="16" viewBox="0 0 16 16" fill="none" xmlns="http://www.w3.org/2000/svg">
<g clip-path="url(#clip0_3422_3955)">
<path fill-rule="evenodd" clip-rule="evenodd" d="M0.666748 7.99984C0.666748 3.94984 3.95008 0.666504 8.00008 0.666504C12.0501 0.666504 15.3334 3.94984 15.3334 7.99984C15.3334 12.0498 12.0501 15.3332 8.00008 15.3332C3.95008 15.3332 0.666748 12.0498 0.666748 7.99984ZM8.00008 13.9998C7.21215 13.9998 6.43193 13.8446 5.70398 13.5431C4.97603 13.2416 4.31459 12.7996 3.75744 12.2425C3.20029 11.6853 2.75833 11.0239 2.4568 10.2959C2.15528 9.56798 2.00008 8.78777 2.00008 7.99984C2.00008 7.21191 2.15528 6.43169 2.4568 5.70374C2.75833 4.97578 3.20029 4.31435 3.75744 3.7572C4.31459 3.20004 4.97603 2.75809 5.70398 2.45656C6.43193 2.15503 7.21215 1.99984 8.00008 1.99984C9.59138 1.99984 11.1175 2.63198 12.2427 3.7572C13.3679 4.88241 14.0001 6.40854 14.0001 7.99984C14.0001 9.59114 13.3679 11.1173 12.2427 12.2425C11.1175 13.3677 9.59138 13.9998 8.00008 13.9998Z" fill="#D4D4D8"/>
<path d="M6.82867 10.8758L4 8.04644L4.94267 7.10377L6.82867 8.98911L10.5993 5.21777L11.5427 6.16111L6.82867 10.8758Z" fill="#D4D4D8"/>
</g>
<defs>
<clipPath id="clip0_3422_3955">
<rect width="16" height="16" fill="white"/>
</clipPath>
</defs>
</svg>
