<svg width="20" height="20" viewBox="0 0 20 20" fill="none" xmlns="http://www.w3.org/2000/svg">
<g clip-path="url(#clip0_2923_6530)">
<path d="M19.2187 4.63546C19.6502 4.63546 20 4.28573 20 3.85421V0.781249C20 0.355987 19.654 0 19.2187 0H16.1458C15.7144 0 15.3645 0.349731 15.3645 0.781249C15.3645 1.21277 15.7144 1.5625 16.1458 1.5625H17.3326L15.3517 3.54339C13.788 1.36383 11.2785 0 8.46358 0C3.78585 0 0 3.78539 0 8.46358C0 13.141 3.78539 16.9272 8.46358 16.9272C10.4619 16.9272 12.354 16.2388 13.8704 14.9753L18.6663 19.7712C18.9714 20.0763 19.4661 20.0763 19.7711 19.7712C20.0763 19.4661 20.0763 18.9714 19.7711 18.6663L14.9753 13.8704C17.1318 11.2825 17.4624 7.77678 16.1636 4.94124L18.4375 2.66738V3.85406C18.4375 4.28558 18.7872 4.63546 19.2187 4.63546ZM8.46358 1.5625C10.8684 1.5625 12.9895 2.79922 14.2253 4.66979L9.99998 8.89509L7.47954 6.37465C7.17436 6.06963 6.67983 6.06963 6.37465 6.37465L1.96457 10.7847C0.36087 6.30797 3.69598 1.5625 8.46358 1.5625ZM8.46358 15.3645C6.05864 15.3645 3.93768 14.1278 2.70187 12.2572L6.92717 8.03191L9.44761 10.5523C9.75264 10.8575 10.2473 10.8575 10.5523 10.5523L14.9624 6.14226C16.5663 10.619 13.2312 15.3645 8.46358 15.3645Z" fill="#0400F5"/>
</g>
<defs>
<clipPath id="clip0_2923_6530">
<rect width="20" height="20" fill="white"/>
</clipPath>
</defs>
</svg>
