<svg width="20" height="20" viewBox="0 0 20 20" fill="none" xmlns="http://www.w3.org/2000/svg">
<path d="M13.125 7.65625C12.6935 7.65625 12.3438 8.00602 12.3438 8.4375C12.3438 9.72984 11.2923 10.7812 10 10.7812C8.70766 10.7812 7.65625 9.72984 7.65625 8.4375C7.65625 8.00602 7.30648 7.65625 6.875 7.65625C6.44352 7.65625 6.09375 8.00602 6.09375 8.4375C6.09375 10.5914 7.84609 12.3438 10 12.3438C12.1539 12.3438 13.9062 10.5914 13.9062 8.4375C13.9062 8.00602 13.5565 7.65625 13.125 7.65625Z" fill="#0400F5"/>
<path d="M18.5751 17.36L17.0249 5.21359C16.9753 4.82422 16.6384 4.53125 16.25 4.53125H13.9062V3.90625C13.9062 1.75234 12.1539 0 10 0C7.84609 0 6.09375 1.75234 6.09375 3.90625V4.53125H3.75C3.35336 4.53125 3.02391 4.83055 2.97504 5.21359L1.42473 17.3612C1.41246 17.4585 1.40625 17.5578 1.40625 17.6562C1.40625 18.9486 2.45766 20 3.75 20H16.25C17.5423 20 18.5938 18.9486 18.5938 17.6562C18.5938 17.5579 18.5875 17.4587 18.5751 17.36ZM7.65625 3.90625C7.65625 2.61391 8.70766 1.5625 10 1.5625C11.2923 1.5625 12.3438 2.61391 12.3438 3.90625V4.53125H7.65625V3.90625ZM16.25 18.4375H3.75C3.31922 18.4375 2.96875 18.087 2.96875 17.6562C2.96875 17.6229 2.97086 17.5893 2.9748 17.5579L4.43789 6.09375H15.5621L17.025 17.5564C17.0291 17.5892 17.0312 17.6228 17.0312 17.6562C17.0312 18.087 16.6808 18.4375 16.25 18.4375Z" fill="#0400F5"/>
</svg>
