<svg width="11" height="10" viewBox="0 0 11 10" fill="none" xmlns="http://www.w3.org/2000/svg">
<path d="M6.41211 0.200195C6.52273 0.0861299 6.69612 0.0690938 6.8252 0.151367L6.87695 0.192383L11.0029 4.31836C11.0972 4.41242 11.1261 4.55463 11.0752 4.67773C11.067 4.69761 11.0568 4.71658 11.0449 4.73438L11.0039 4.78418L6.87207 8.91602C6.7413 9.04228 6.53256 9.03895 6.40625 8.9082C6.28036 8.7778 6.28347 8.56975 6.41309 8.44336L9.97559 4.88086H0.229492C0.0476991 4.88086 -0.0996094 4.73355 -0.0996094 4.55176C-0.0995869 4.36998 0.0477296 4.22269 0.229492 4.22266H9.97559L6.41309 0.65918L6.41211 0.658203C6.28891 0.530656 6.28894 0.328735 6.41211 0.201172V0.200195Z" fill="#DFFB0B" stroke="#DFFB0B" stroke-width="0.2"/>
</svg>
