<svg width="108" height="61" viewBox="0 0 108 61" fill="none" xmlns="http://www.w3.org/2000/svg">
<rect width="107.892" height="60.8325" rx="5.73892" fill="#020218" fill-opacity="0.39"/>
<path d="M25.5952 38.5486V45.0271H23.5469V29.0244H28.972C30.35 29.0244 31.5169 29.4863 32.4852 30.41C33.466 31.3337 33.9501 32.4571 33.9501 33.7803C33.9501 35.1409 33.466 36.2643 32.4852 37.1755C31.5417 38.0868 30.3624 38.5361 28.972 38.5361H25.5952V38.5486ZM25.5952 30.9967V36.5889H29.0216C29.841 36.5889 30.5113 36.3142 31.0452 35.765C31.5914 35.2158 31.8645 34.5542 31.8645 33.7928C31.8645 33.0438 31.5914 32.3947 31.0452 31.8455C30.5113 31.2838 29.841 30.9967 29.0216 30.9967H25.5952Z" fill="white"/>
<path d="M39.4258 33.7178C40.9404 33.7178 42.1321 34.1297 43.0012 34.9411C43.8702 35.7525 44.3171 36.8634 44.3171 38.2865V45.0395H42.3556V43.5167H42.2687C41.4245 44.7649 40.2948 45.3891 38.892 45.3891C37.6878 45.3891 36.6822 45.0271 35.8753 44.3155C35.0684 43.604 34.6587 42.7053 34.6587 41.6318C34.6587 40.4959 35.0808 39.5971 35.9374 38.9231C36.794 38.249 37.9237 37.912 39.3513 37.912C40.5679 37.912 41.5611 38.1367 42.3556 38.586V38.1117C42.3556 37.4002 42.0701 36.7885 41.5114 36.2892C40.9528 35.7899 40.2824 35.5403 39.5375 35.5403C38.3954 35.5403 37.4892 36.0271 36.8312 36.9883L35.0311 35.8523C36.0119 34.4418 37.4768 33.7178 39.4258 33.7178ZM36.7815 41.6817C36.7815 42.2185 37.005 42.6678 37.4643 43.0174C37.9113 43.3794 38.4451 43.5541 39.0534 43.5541C39.91 43.5541 40.6797 43.2296 41.35 42.5929C42.0204 41.9563 42.3556 41.1949 42.3556 40.3336C41.7225 39.8218 40.8286 39.5722 39.6865 39.5722C38.8547 39.5722 38.1595 39.7719 37.6133 40.1713C37.0547 40.5832 36.7815 41.0826 36.7815 41.6817Z" fill="white"/>
<path d="M46.625 34.0798H48.5865V35.8648H48.6734C49.2817 34.4668 50.5355 33.7677 52.4349 33.7677L52.857 33.8177V35.9647L51.9508 35.8773C51.0073 35.8773 50.2252 36.1769 49.6044 36.7636C48.9837 37.3502 48.6858 38.0992 48.6858 39.0104V45.052H46.6374V34.0798H46.625ZM59.387 45.2143C58.4931 45.2143 57.7607 44.9397 57.1772 44.3904C56.5937 43.8412 56.2958 43.0673 56.271 42.0936V35.9647H54.3592V34.0923H56.271V30.7345H58.3193V34.0923H60.9884V35.9647H58.3193V41.4196C58.3193 42.156 58.4559 42.6429 58.7414 42.905C59.027 43.1671 59.3373 43.292 59.6973 43.292C59.8587 43.292 60.0201 43.2795 60.1815 43.242C60.3429 43.2046 60.4794 43.1547 60.616 43.0922L61.2615 44.9272C60.7153 45.1144 60.0946 45.2143 59.387 45.2143Z" fill="white"/>
<path d="M63.0493 34.0797H65.0108V35.6026H65.0977C65.408 35.0658 65.8922 34.6165 66.5378 34.267C67.1833 33.905 67.8537 33.7302 68.5489 33.7302C69.8772 33.7302 70.9076 34.1172 71.6277 34.8786C72.3477 35.64 72.7077 36.7385 72.7077 38.1491V45.0394H70.6593V38.2864C70.6097 36.5013 69.7158 35.6026 67.9654 35.6026C67.1461 35.6026 66.4633 35.9396 65.917 36.6012C65.3708 37.2628 65.0977 38.0617 65.0977 38.9854V45.0394H63.0493V34.0797Z" fill="white"/>
<path d="M79.9959 45.3891C78.3944 45.3891 77.0785 44.8398 76.0357 43.7289C74.9929 42.6304 74.4839 41.2323 74.4839 39.5472C74.4839 37.8745 74.9929 36.489 75.9984 35.378C77.004 34.2671 78.2951 33.7178 79.8717 33.7178C81.4856 33.7178 82.7767 34.2421 83.7326 35.2906C84.6885 36.3392 85.1727 37.8121 85.1727 39.7095L85.1478 39.9342H76.5819C76.6067 41.0077 76.9668 41.869 77.6496 42.5305C78.3323 43.1921 79.1517 43.5167 80.0952 43.5167C81.3987 43.5167 82.4167 42.8551 83.1615 41.5444L84.9864 42.4432C84.5023 43.3669 83.8195 44.0909 82.9505 44.6151C82.0691 45.1269 81.0883 45.3891 79.9959 45.3891ZM76.7309 38.2365H82.9753C82.9132 37.4751 82.6029 36.851 82.0567 36.3516C81.498 35.8523 80.7531 35.6027 79.8221 35.6027C79.0524 35.6027 78.382 35.8399 77.8358 36.3142C77.2771 36.7885 76.9047 37.4376 76.7309 38.2365Z" fill="white"/>
<path d="M89.0703 45.0395H87.022V34.0798H88.9834V35.8648H89.0703C89.2814 35.2781 89.7035 34.7913 90.349 34.3794C90.9946 33.9674 91.6277 33.7677 92.2484 33.7677C92.8443 33.7677 93.3409 33.8551 93.763 34.0298L93.1423 36.0146C92.894 35.9147 92.4843 35.8523 91.9381 35.8523C91.1684 35.8523 90.498 36.1644 89.9269 36.7885C89.3559 37.4126 89.0703 38.1491 89.0703 38.9854V45.0395Z" fill="white"/>
<path d="M28.1776 19.675V21.0731H31.5046C31.3929 21.9593 31.0329 22.6459 30.4122 23.1327C29.8038 23.6195 29.059 23.8567 28.1776 23.8567C27.1472 23.8567 26.2906 23.4947 25.583 22.7707C24.8753 22.0592 24.5277 21.1729 24.5277 20.1369C24.5277 19.1008 24.8753 18.227 25.583 17.503C26.2906 16.779 27.1472 16.417 28.1776 16.417C29.1335 16.417 29.9652 16.7541 30.6853 17.4157L31.666 16.4295C30.6853 15.4933 29.5183 15.019 28.1776 15.019C27.2713 15.019 26.4147 15.2562 25.5954 15.718C24.7884 16.1799 24.1553 16.804 23.696 17.6029C23.2366 18.3893 23.0132 19.2256 23.0132 20.1369C23.0132 21.0481 23.2366 21.8969 23.696 22.6833C24.1553 23.4697 24.7884 24.0939 25.5954 24.5557C26.4023 25.0176 27.2589 25.2547 28.1776 25.2547C29.5556 25.2547 30.6853 24.8178 31.5915 23.9565C32.4854 23.0952 32.9323 21.9718 32.9323 20.5488C32.9323 20.2118 32.9074 19.9247 32.8578 19.675H28.1776Z" fill="#016BE3"/>
<path d="M36.7058 18.6638C35.7747 18.6638 34.9926 18.9759 34.3595 19.6125C33.7264 20.2366 33.416 21.023 33.416 21.9592C33.416 22.883 33.7388 23.6694 34.3719 24.306C35.0051 24.9426 35.7747 25.2547 36.7058 25.2547C37.6369 25.2547 38.4066 24.9426 39.0397 24.306C39.6729 23.6694 39.9956 22.883 39.9956 21.9592C39.9956 21.023 39.6729 20.2366 39.0397 19.6125C38.419 18.9759 37.6369 18.6638 36.7058 18.6638ZM38.0093 23.3823C37.6493 23.7692 37.2148 23.9565 36.7058 23.9565C36.1844 23.9565 35.7499 23.7692 35.3899 23.3823C35.0299 22.9953 34.8561 22.521 34.8561 21.9592C34.8561 21.3726 35.0299 20.8982 35.3899 20.5362C35.7499 20.1493 36.1844 19.962 36.7058 19.962C37.2272 19.962 37.6617 20.1493 38.0217 20.5362C38.3818 20.8982 38.5556 21.3726 38.5556 21.9592C38.5556 22.5085 38.3818 22.9828 38.0093 23.3823Z" fill="#EF372C"/>
<path d="M56.4703 15.3684H55.0303V25.0425H56.4703V15.3684Z" fill="#00AC4E"/>
<path d="M43.8816 18.6638C42.9505 18.6638 42.1684 18.9759 41.5353 19.6125C40.9022 20.2366 40.5918 21.023 40.5918 21.9592C40.5918 22.883 40.9146 23.6694 41.5477 24.306C42.1808 24.9426 42.9505 25.2547 43.8816 25.2547C44.8127 25.2547 45.5824 24.9426 46.2155 24.306C46.8486 23.6694 47.1714 22.883 47.1714 21.9592C47.1714 21.023 46.8486 20.2366 46.2155 19.6125C45.5824 18.9759 44.8003 18.6638 43.8816 18.6638ZM45.1851 23.3823C44.8251 23.7692 44.3906 23.9565 43.8816 23.9565C43.3602 23.9565 42.9257 23.7692 42.5657 23.3823C42.2057 22.9953 42.0319 22.521 42.0319 21.9592C42.0319 21.3726 42.2057 20.8982 42.5657 20.5362C42.9257 20.1493 43.3602 19.962 43.8816 19.962C44.403 19.962 44.8375 20.1493 45.1975 20.5362C45.5575 20.8982 45.7313 21.3726 45.7313 21.9592C45.7313 22.5085 45.5451 22.9828 45.1851 23.3823Z" fill="#FDB614"/>
<path d="M60.4047 23.9565C59.6847 23.9565 59.1508 23.6195 58.8157 22.9579L63.1979 21.1355L63.049 20.761C62.9372 20.4489 62.7883 20.1743 62.602 19.9122C62.4158 19.65 62.2048 19.4378 61.9689 19.2506C61.733 19.0633 61.4599 18.926 61.1744 18.8262C60.8889 18.7263 60.5785 18.6764 60.2557 18.6764C59.3743 18.6764 58.6419 18.9884 58.046 19.6126C57.4625 20.2492 57.1646 21.0356 57.1646 21.9718C57.1646 22.908 57.4749 23.6819 58.0956 24.3185C58.7163 24.9551 59.486 25.2672 60.4171 25.2672C61.5717 25.2672 62.4779 24.7804 63.1483 23.8067L62.031 23.0578C61.6089 23.6445 61.0751 23.9565 60.4047 23.9565ZM59.0764 20.4864C59.4364 20.1244 59.8461 19.9371 60.293 19.9371C60.5785 19.9371 60.8268 19.9995 61.0502 20.1244C61.2737 20.2492 61.4227 20.4239 61.5096 20.6237L58.5798 21.847C58.5674 21.2977 58.7288 20.8484 59.0764 20.4864Z" fill="#EF372C"/>
<path d="M52.672 19.4003H52.6223C52.2126 18.9135 51.6291 18.6638 50.8967 18.6638C50.0525 18.6638 49.3201 18.9884 48.6869 19.6375C48.0662 20.2866 47.7559 21.0605 47.7559 21.9717C47.7559 22.8705 48.0662 23.6444 48.6869 24.2935C49.3201 24.9301 50.0649 25.2547 50.8967 25.2547C51.6291 25.2547 52.2126 25.005 52.6223 24.5057H52.672V24.8427C52.672 26.2283 52.0885 26.9148 50.9215 26.9148C50.5491 26.9148 50.2139 26.8025 49.9284 26.5903C49.6428 26.3781 49.4194 26.091 49.2704 25.7415L48.0166 26.2657C48.1407 26.5528 48.3021 26.815 48.4883 27.0521C48.6745 27.2893 48.898 27.489 49.1463 27.6638C49.3946 27.8386 49.6677 27.9634 49.9656 28.0632C50.2636 28.1631 50.5739 28.2005 50.9091 28.2005C51.8898 28.2005 52.6471 27.901 53.1934 27.3143C53.7396 26.7151 54.0127 25.8788 54.0127 24.7803V18.876H52.6471V19.4003H52.672ZM52.2623 23.3947C51.9271 23.7692 51.505 23.9565 51.0208 23.9565C50.5119 23.9565 50.0773 23.7692 49.7173 23.3823C49.3697 22.9953 49.1959 22.5334 49.1959 21.9717C49.1959 21.41 49.3697 20.9357 49.7297 20.5487C50.0898 20.1617 50.5243 19.962 51.0208 19.962C51.5174 19.962 51.9271 20.1493 52.2623 20.5362C52.5975 20.9232 52.7713 21.41 52.7713 21.9717C52.7713 22.521 52.5975 22.9953 52.2623 23.3947Z" fill="#016BE3"/>
<path d="M14.9215 10.33H9.18262V50.5025H14.9215V10.33Z" fill="#016BE3"/>
</svg>
