<svg width="108" height="61" viewBox="0 0 108 61" fill="none" xmlns="http://www.w3.org/2000/svg">
<g opacity="0.9">
<rect x="0.108398" width="107.892" height="60.8325" rx="5.73892" fill="#020218" fill-opacity="0.39"/>
</g>
<path d="M83.3213 36.1857H82.3928V37.7979H81.3112V36.1857H78.1788V35.3286L81.301 30.482H82.3928V35.2674H83.3213V36.1857ZM81.3112 33.288C81.3112 33.1247 81.3112 32.9683 81.3112 32.8186C81.318 32.669 81.3248 32.5261 81.3316 32.3901C81.3384 32.2472 81.3418 32.118 81.3418 32.0023C81.3486 31.8799 81.3555 31.7711 81.3623 31.6758H81.3214C81.267 31.8119 81.2024 31.9513 81.1276 32.0942C81.0596 32.237 80.9915 32.3629 80.9235 32.4717L79.2093 35.2674H81.3112V33.288ZM84.1178 37.1959C84.1178 36.9306 84.1824 36.7435 84.3117 36.6347C84.4477 36.5258 84.6144 36.4714 84.8116 36.4714C85.0021 36.4714 85.1653 36.5258 85.3014 36.6347C85.4442 36.7435 85.5157 36.9306 85.5157 37.1959C85.5157 37.4611 85.4442 37.6516 85.3014 37.7672C85.1653 37.8829 85.0021 37.9407 84.8116 37.9407C84.6144 37.9407 84.4477 37.8829 84.3117 37.7672C84.1824 37.6516 84.1178 37.4611 84.1178 37.1959ZM88.8908 30.4106C89.299 30.4106 89.6595 30.4786 89.9724 30.6147C90.2921 30.7439 90.5404 30.9378 90.7172 31.1963C90.9009 31.4548 90.9927 31.7779 90.9927 32.1656C90.9927 32.4581 90.9349 32.7132 90.8193 32.9308C90.7104 33.1485 90.5574 33.3424 90.3601 33.5124C90.1697 33.6757 89.9588 33.8185 89.7275 33.941C89.9928 34.0838 90.2377 34.2471 90.4621 34.4307C90.6866 34.6076 90.8669 34.8151 91.0029 35.0531C91.1458 35.2912 91.2172 35.5769 91.2172 35.9102C91.2172 36.3184 91.122 36.6721 90.9315 36.9714C90.7478 37.2639 90.4826 37.4918 90.1356 37.655C89.7887 37.8183 89.3772 37.8999 88.901 37.8999C88.3909 37.8999 87.9589 37.8217 87.6052 37.6652C87.2583 37.5088 86.9964 37.2877 86.8195 37.002C86.6427 36.7095 86.5543 36.3558 86.5543 35.9408C86.5543 35.6075 86.6155 35.3184 86.7379 35.0736C86.8672 34.8287 87.0338 34.6178 87.2379 34.4409C87.4488 34.2641 87.68 34.1144 87.9317 33.992C87.714 33.8559 87.5168 33.7029 87.3399 33.5328C87.1631 33.356 87.0236 33.1553 86.9216 32.9308C86.8263 32.7064 86.7787 32.4479 86.7787 32.1554C86.7787 31.7745 86.8706 31.4582 87.0542 31.2065C87.2379 30.948 87.4896 30.7507 87.8093 30.6147C88.129 30.4786 88.4895 30.4106 88.8908 30.4106ZM87.6154 35.9204C87.6154 36.2537 87.7208 36.5292 87.9317 36.7469C88.1426 36.9578 88.4589 37.0632 88.8806 37.0632C89.1663 37.0632 89.401 37.0156 89.5847 36.9204C89.7683 36.8183 89.9078 36.6823 90.003 36.5122C90.105 36.3354 90.156 36.1347 90.156 35.9102C90.156 35.6858 90.1016 35.4885 89.9928 35.3184C89.884 35.1484 89.7343 34.9987 89.5438 34.8695C89.3602 34.7334 89.1493 34.611 88.9112 34.5022L88.7786 34.4409C88.5337 34.5566 88.3228 34.6858 88.146 34.8287C87.9759 34.9715 87.8433 35.1314 87.7481 35.3082C87.6596 35.4851 87.6154 35.6892 87.6154 35.9204ZM88.8704 31.2575C88.5711 31.2575 88.3228 31.3391 88.1256 31.5024C87.9351 31.6656 87.8399 31.9037 87.8399 32.2166C87.8399 32.4411 87.8875 32.6315 87.9827 32.788C88.0848 32.9444 88.214 33.0805 88.3705 33.1961C88.5337 33.305 88.7106 33.4104 88.901 33.5124C89.0915 33.4172 89.2616 33.3152 89.4112 33.2063C89.5677 33.0907 89.6901 32.9546 89.7785 32.7982C89.8738 32.6349 89.9214 32.4411 89.9214 32.2166C89.9214 31.9037 89.8227 31.6656 89.6255 31.5024C89.435 31.3391 89.1833 31.2575 88.8704 31.2575Z" fill="#F0F0F0"/>
<path d="M19.4792 11.4423C19.9342 11.4423 20.3098 11.5031 20.6061 11.6248C20.9023 11.7465 21.1219 11.929 21.2648 12.1724C21.4129 12.4105 21.487 12.712 21.487 13.0771C21.487 13.3681 21.4367 13.6141 21.3362 13.8151C21.2409 14.0109 21.114 14.1722 20.9553 14.2992C20.8018 14.4209 20.6352 14.5188 20.4553 14.5928L21.9552 17.1085H20.9553L19.6934 14.8151H18.8284V17.1085H17.9475V11.4423H19.4792ZM19.4395 12.1724H18.8284V14.1008H19.4554C19.7146 14.1008 19.9262 14.0638 20.0902 13.9897C20.2595 13.9156 20.3839 13.8045 20.4632 13.6564C20.5479 13.5083 20.5902 13.3257 20.5902 13.1088C20.5902 12.8813 20.5479 12.7014 20.4632 12.5692C20.3839 12.4316 20.2569 12.3311 20.0823 12.2676C19.913 12.2041 19.6987 12.1724 19.4395 12.1724ZM24.2376 12.7517C24.7403 12.7517 25.1185 12.8707 25.3725 13.1088C25.6317 13.3416 25.7613 13.7093 25.7613 14.2119V17.1085H25.1503L24.9836 16.5133H24.9519C24.8302 16.6668 24.7085 16.7938 24.5868 16.8943C24.4704 16.9948 24.3329 17.0689 24.1742 17.1165C24.0207 17.1641 23.8303 17.1879 23.6028 17.1879C23.3647 17.1879 23.1504 17.1429 22.96 17.053C22.7695 16.9578 22.6187 16.8149 22.5076 16.6244C22.3965 16.4287 22.3409 16.1853 22.3409 15.8943C22.3409 15.4605 22.4944 15.1298 22.8012 14.9023C23.1134 14.6748 23.5869 14.5505 24.2218 14.5294L24.9043 14.5055V14.2675C24.9043 13.95 24.8381 13.7278 24.7059 13.6008C24.5789 13.4739 24.399 13.4104 24.1662 13.4104C23.9705 13.4104 23.7774 13.4421 23.5869 13.5056C23.3964 13.5691 23.2113 13.6458 23.0314 13.7358L22.7695 13.1247C22.9652 13.0189 23.1874 12.9316 23.4361 12.8628C23.6901 12.7887 23.9572 12.7517 24.2376 12.7517ZM24.3884 15.069C23.9546 15.0902 23.653 15.1722 23.4837 15.315C23.3144 15.4526 23.2298 15.6483 23.2298 15.9023C23.2298 16.1245 23.288 16.2858 23.4044 16.3864C23.526 16.4869 23.6821 16.5372 23.8726 16.5372C24.1636 16.5372 24.4069 16.4446 24.6027 16.2594C24.8037 16.0742 24.9043 15.7965 24.9043 15.4261V15.0531L24.3884 15.069ZM28.459 16.5054C28.5701 16.5054 28.6785 16.4948 28.7843 16.4737C28.8901 16.4525 28.9827 16.4287 29.0621 16.4022V17.0371C28.9721 17.0794 28.8531 17.1138 28.705 17.1403C28.5621 17.172 28.4113 17.1879 28.2526 17.1879C28.0304 17.1879 27.8267 17.1482 27.6415 17.0689C27.4564 16.9895 27.3082 16.8519 27.1971 16.6562C27.086 16.4604 27.0305 16.188 27.0305 15.8388V13.4739H26.4829V13.0929L27.0702 12.7755L27.3638 11.8708H27.8955V12.8311H29.0303V13.4739H27.8955V15.8229C27.8955 16.0557 27.9484 16.2277 28.0542 16.3388C28.16 16.4499 28.2949 16.5054 28.459 16.5054ZM31.4761 12.7517C31.8306 12.7517 32.1374 12.8311 32.3967 12.9898C32.6559 13.1432 32.8543 13.3654 32.9919 13.6564C33.1347 13.9474 33.2061 14.2913 33.2061 14.6881V15.1484H30.5159C30.5264 15.5875 30.6322 15.9234 30.8333 16.1562C31.0343 16.389 31.3174 16.5054 31.6824 16.5054C31.9417 16.5054 32.1718 16.4816 32.3729 16.434C32.5792 16.3811 32.7882 16.3044 32.9998 16.2038V16.9022C32.7988 16.9974 32.5924 17.0689 32.3808 17.1165C32.1745 17.1641 31.9232 17.1879 31.6269 17.1879C31.2407 17.1879 30.8968 17.1059 30.5952 16.9419C30.2936 16.7779 30.0582 16.5345 29.8889 16.2118C29.7196 15.8838 29.635 15.4817 29.635 15.0055C29.635 14.5241 29.7117 14.1167 29.8651 13.7834C30.0185 13.4501 30.2328 13.1961 30.5079 13.0215C30.7883 12.8416 31.111 12.7517 31.4761 12.7517ZM31.4761 13.4025C31.2063 13.4025 30.9894 13.5003 30.8254 13.6961C30.6613 13.8918 30.5661 14.1696 30.5397 14.5294H32.357C32.357 14.3072 32.3252 14.1114 32.2618 13.9421C32.1983 13.7728 32.1004 13.6405 31.9681 13.5453C31.8412 13.4501 31.6771 13.4025 31.4761 13.4025ZM39.6986 14.9658C39.6986 15.3203 39.6537 15.6351 39.5637 15.9102C39.4738 16.1853 39.3442 16.4181 39.1749 16.6086C39.0108 16.799 38.8098 16.9445 38.5717 17.0451C38.3336 17.1403 38.0665 17.1879 37.7702 17.1879C37.5004 17.1879 37.2491 17.1403 37.0163 17.0451C36.7835 16.9445 36.5824 16.799 36.4131 16.6086C36.2438 16.4181 36.1116 16.1853 36.0163 15.9102C35.9264 15.6351 35.8814 15.3177 35.8814 14.9579C35.8814 14.487 35.9581 14.0876 36.1116 13.7596C36.265 13.4315 36.4846 13.1829 36.7703 13.0136C37.0612 12.839 37.4051 12.7517 37.8019 12.7517C38.1723 12.7517 38.5003 12.839 38.786 13.0136C39.0717 13.1829 39.2939 13.4315 39.4526 13.7596C39.6166 14.0876 39.6986 14.4897 39.6986 14.9658ZM36.7703 14.9658C36.7703 15.2833 36.8046 15.5584 36.8734 15.7912C36.9475 16.0187 37.0586 16.1933 37.2067 16.3149C37.3602 16.4366 37.5533 16.4975 37.7861 16.4975C38.0241 16.4975 38.2172 16.4366 38.3654 16.3149C38.5188 16.1933 38.6299 16.0187 38.6987 15.7912C38.7728 15.5584 38.8098 15.2833 38.8098 14.9658C38.8098 14.6378 38.7728 14.3627 38.6987 14.1405C38.6246 13.9183 38.5135 13.749 38.3654 13.6326C38.2172 13.5109 38.0215 13.4501 37.7781 13.4501C37.4236 13.4501 37.1671 13.5823 37.0083 13.8469C36.8496 14.1114 36.7703 14.4844 36.7703 14.9658ZM42.7712 12.7517C43.2368 12.7517 43.5939 12.876 43.8426 13.1247C44.0965 13.3734 44.2235 13.7728 44.2235 14.323V17.1085H43.3664V14.4421C43.3664 14.1088 43.3003 13.8601 43.168 13.6961C43.041 13.5268 42.8426 13.4421 42.5728 13.4421C42.176 13.4421 41.9035 13.5718 41.7554 13.831C41.6073 14.0902 41.5332 14.4632 41.5332 14.95V17.1085H40.6761V12.8311H41.3507L41.4697 13.4025H41.5173C41.6073 13.2543 41.7157 13.1326 41.8427 13.0374C41.9697 12.9422 42.1125 12.8707 42.2712 12.8231C42.43 12.7755 42.5966 12.7517 42.7712 12.7517Z" fill="#F0F0F0"/>
<path d="M33.0938 21.8384H35.6737V37.9421H33.0938V21.8384Z" fill="white"/>
<path d="M44.6474 32.8395C44.6474 35.3347 42.6283 35.5615 41.9553 35.5615C40.3849 35.5615 40.1605 34.0871 40.1605 33.2932V27.0553H37.5806V33.1798C37.5806 34.6542 38.0293 36.0152 38.9266 36.8091C39.7118 37.603 40.7214 37.9432 41.9553 37.9432C42.8526 37.9432 43.9743 37.7164 44.6474 37.0359V37.9432H47.2273V27.0553H44.6474V32.8395Z" fill="white"/>
<path d="M52.2735 23.0859H49.6935V27.0552H47.7866V29.5501H49.6935V37.9421H52.2735V29.5501H54.1804V27.0552H52.2735V23.0859Z" fill="white"/>
<path d="M62.2585 34.6543C61.6977 35.1079 60.9125 35.4482 60.1273 35.4482C58.3325 35.4482 57.0986 34.0872 57.0986 32.2725C57.0986 30.4579 58.3325 29.2103 60.1273 29.2103C60.9125 29.2103 61.6977 29.4371 62.2585 30.0042L62.595 30.3445L64.3898 28.6432L63.9411 28.303C62.9316 27.3956 61.5855 26.8286 60.1273 26.8286C56.9865 26.8286 54.6309 29.2103 54.6309 32.3859C54.6309 35.5616 56.9865 37.9433 60.1273 37.9433C61.5855 37.9433 62.9316 37.3762 63.9411 36.4689L64.3898 36.1287L62.595 34.314L62.2585 34.6543Z" fill="white"/>
<path d="M73.4775 27.9623C72.6923 27.1685 71.9071 26.8283 70.6732 26.8283C69.7758 26.8283 68.8785 27.0551 68.2054 27.7355V21.8384H65.6255V37.9421H68.2054V31.9315C68.2054 29.4366 69.888 29.2098 70.561 29.2098C72.1314 29.2098 72.0193 30.6841 72.0193 31.4779V37.8287H74.5992V31.5913C74.5992 30.117 74.2627 28.7562 73.4775 27.9623Z" fill="white"/>
<path d="M60.015 34.1995C61.0062 34.1995 61.8097 33.3871 61.8097 32.3849C61.8097 31.3827 61.0062 30.5702 60.015 30.5702C59.0238 30.5702 58.2202 31.3827 58.2202 32.3849C58.2202 33.3871 59.0238 34.1995 60.015 34.1995Z" fill="#EF4335"/>
<path d="M29.5045 33.9729C28.6072 34.8801 27.2611 35.4472 25.8029 35.4472C22.9986 35.4472 20.9795 33.179 20.9795 30.1171C20.9795 27.0551 22.9986 24.787 25.915 24.787C27.2611 24.787 28.6072 25.354 29.6167 26.3747L29.9532 26.7149L31.6358 25.0138L31.2993 24.6736C29.841 23.1993 27.9341 22.4055 25.915 22.4055C21.6525 22.2921 18.5117 25.6942 18.5117 30.1171C18.5117 34.5399 21.6525 37.9421 25.8029 37.9421C27.822 37.9421 29.841 37.1483 31.1871 35.674L31.5236 35.3338L29.841 33.6327L29.5045 33.9729Z" fill="white"/>
<path d="M37.3251 44.483L36.29 46.6129C36.2374 46.7213 36.1595 46.815 36.0633 46.8861C35.967 46.9571 35.8552 47.0033 35.7374 47.0207L33.4237 47.3623C33.3153 47.3783 33.2134 47.4247 33.1296 47.4965C33.0458 47.5682 32.9835 47.6623 32.9496 47.7681C32.9158 47.874 32.9118 47.9873 32.9381 48.0954C32.9644 48.2034 33.0199 48.3018 33.0985 48.3794L34.7733 50.0374C34.8584 50.1217 34.922 50.2257 34.9587 50.3404C34.9955 50.4552 35.0043 50.5773 34.9843 50.6963L34.5889 53.0376C34.5705 53.1472 34.5827 53.2598 34.6241 53.3627C34.6654 53.4657 34.7343 53.5548 34.8229 53.6201C34.9116 53.6853 35.0164 53.7241 35.1256 53.7321C35.2348 53.74 35.344 53.7168 35.4408 53.665L37.5105 52.5598C37.6158 52.5035 37.733 52.4742 37.852 52.4742C37.9709 52.4742 38.0881 52.5035 38.1934 52.5598L40.2631 53.665C40.3599 53.7168 40.4691 53.74 40.5783 53.7321C40.6875 53.7241 40.7923 53.6853 40.8809 53.6201C40.9696 53.5548 41.0385 53.4657 41.0798 53.3627C41.1212 53.2598 41.1334 53.1472 41.115 53.0376L40.7196 50.6963C40.6996 50.5773 40.7084 50.4552 40.7451 50.3404C40.7819 50.2257 40.8455 50.1217 40.9306 50.0374L42.6054 48.3794C42.684 48.3018 42.7395 48.2034 42.7658 48.0954C42.7921 47.9873 42.7881 47.874 42.7543 47.7681C42.7204 47.6623 42.6581 47.5682 42.5743 47.4965C42.4905 47.4247 42.3886 47.3783 42.2802 47.3623L39.9656 47.0207C39.8478 47.0033 39.736 46.9571 39.6397 46.8861C39.5434 46.815 39.4656 46.7213 39.413 46.6129L38.3779 44.483C38.3294 44.3832 38.2544 44.2992 38.1614 44.2405C38.0684 44.1817 37.961 44.1506 37.8515 44.1506C37.7419 44.1506 37.6346 44.1817 37.5416 44.2405C37.4486 44.2992 37.3736 44.3832 37.3251 44.483Z" fill="#FFAF00"/>
<path d="M51.7118 44.4831L50.6767 46.6129C50.624 46.7213 50.5462 46.8151 50.4499 46.8861C50.3537 46.9571 50.2418 47.0034 50.1241 47.0207L47.8095 47.3624C47.701 47.3783 47.5991 47.4248 47.5153 47.4965C47.4316 47.5682 47.3692 47.6623 47.3353 47.7682C47.3015 47.874 47.2975 47.9874 47.3238 48.0954C47.3501 48.2035 47.4057 48.3018 47.4842 48.3795L49.1591 50.0375C49.2441 50.1218 49.3077 50.2257 49.3445 50.3405C49.3812 50.4552 49.39 50.5773 49.37 50.6963L48.9746 53.0376C48.9563 53.1472 48.9685 53.2598 49.0098 53.3628C49.0512 53.4657 49.1201 53.5548 49.2087 53.6201C49.2973 53.6854 49.4021 53.7242 49.5113 53.7321C49.6205 53.7401 49.7297 53.7168 49.8266 53.665L51.8962 52.5598C52.0015 52.5036 52.1187 52.4742 52.2377 52.4742C52.3567 52.4742 52.4739 52.5036 52.5792 52.5598L54.6488 53.665C54.7457 53.7168 54.8549 53.7401 54.9641 53.7321C55.0732 53.7242 55.1781 53.6854 55.2667 53.6201C55.3553 53.5548 55.4242 53.4657 55.4656 53.3628C55.5069 53.2598 55.5191 53.1472 55.5007 53.0376L55.1054 50.6963C55.0854 50.5773 55.0941 50.4552 55.1309 50.3405C55.1676 50.2257 55.2313 50.1217 55.3163 50.0375L56.9912 48.3795C57.0697 48.3018 57.1253 48.2035 57.1516 48.0954C57.1779 47.9874 57.1739 47.874 57.14 47.7682C57.1062 47.6623 57.0438 47.5682 56.96 47.4965C56.8762 47.4248 56.7744 47.3783 56.6659 47.3624L54.3513 47.0207C54.2336 47.0034 54.1217 46.9571 54.0255 46.8861C53.9292 46.8151 53.8514 46.7213 53.7987 46.6129L52.7636 44.4831C52.715 44.3835 52.6401 44.2998 52.5472 44.2412C52.4542 44.1826 52.3471 44.1516 52.2377 44.1516C52.1283 44.1516 52.0211 44.1826 51.9282 44.2412C51.8353 44.2998 51.7603 44.3835 51.7118 44.4831Z" fill="#FFAF00"/>
<path d="M66.1036 44.4819L65.0685 46.6118C65.0158 46.7202 64.938 46.8139 64.8417 46.885C64.7454 46.956 64.6336 47.0022 64.5158 47.0196L62.2016 47.3612C62.0931 47.3772 61.9912 47.4236 61.9074 47.4954C61.8236 47.5671 61.7613 47.6612 61.7274 47.767C61.6936 47.8729 61.6896 47.9862 61.7159 48.0943C61.7422 48.2023 61.7978 48.3007 61.8763 48.3783L63.5511 50.0363C63.6362 50.1206 63.6998 50.2246 63.7366 50.3394C63.7733 50.4541 63.7821 50.5762 63.7621 50.6952L63.3667 53.0365C63.3484 53.1461 63.3606 53.2587 63.4019 53.3616C63.4433 53.4646 63.5122 53.5537 63.6008 53.619C63.6894 53.6842 63.7942 53.723 63.9034 53.731C64.0126 53.7389 64.1218 53.7157 64.2187 53.6639L66.2883 52.5587C66.3936 52.5024 66.5108 52.4731 66.6298 52.4731C66.7488 52.4731 66.866 52.5024 66.9713 52.5587L69.0409 53.6639C69.1378 53.7157 69.247 53.7389 69.3561 53.731C69.4653 53.723 69.5702 53.6842 69.6588 53.619C69.7474 53.5537 69.8163 53.4646 69.8576 53.3616C69.899 53.2587 69.9112 53.1461 69.8928 53.0365L69.4974 50.6952C69.4774 50.5762 69.4862 50.4541 69.523 50.3393C69.5597 50.2246 69.6234 50.1206 69.7084 50.0363L71.3833 48.3783C71.4618 48.3007 71.5174 48.2023 71.5437 48.0943C71.57 47.9862 71.566 47.8729 71.5321 47.767C71.4983 47.6612 71.4359 47.5671 71.3521 47.4954C71.2683 47.4236 71.1664 47.3772 71.058 47.3612L68.7434 47.0196C68.6257 47.0022 68.5138 46.956 68.4175 46.885C68.3213 46.8139 68.2435 46.7202 68.1908 46.6118L67.1563 44.4819C67.1078 44.3821 67.0329 44.2981 66.9398 44.2394C66.8468 44.1806 66.7395 44.1495 66.6299 44.1495C66.5204 44.1495 66.413 44.1806 66.32 44.2394C66.227 44.2981 66.152 44.3821 66.1036 44.4819Z" fill="#FFAF00"/>
<path d="M81.5444 44.4833L82.5795 46.6131C82.6322 46.7215 82.71 46.8153 82.8062 46.8863C82.9025 46.9573 83.0143 47.0036 83.1321 47.0209L85.4464 47.3626C85.5548 47.3785 85.6567 47.425 85.7405 47.4967C85.8243 47.5684 85.8867 47.6625 85.9205 47.7684C85.9544 47.8742 85.9584 47.9876 85.9321 48.0956C85.9057 48.2037 85.8502 48.302 85.7717 48.3797L84.0968 50.0377C84.0118 50.122 83.9481 50.2259 83.9114 50.3407C83.8746 50.4554 83.8659 50.5775 83.8858 50.6965L84.2812 53.0378C84.2996 53.1474 84.2874 53.26 84.246 53.363C84.2047 53.4659 84.1358 53.555 84.0472 53.6203C83.9585 53.6856 83.8537 53.7244 83.7445 53.7323C83.6353 53.7403 83.5261 53.717 83.4293 53.6652L81.3597 52.56C81.2543 52.5038 81.1371 52.4744 81.0182 52.4744C80.8992 52.4744 80.782 52.5038 80.6767 52.56L78.6071 53.6652C78.5102 53.717 78.401 53.7403 78.2918 53.7323C78.1826 53.7244 78.0778 53.6856 77.9892 53.6203C77.9005 53.555 77.8317 53.4659 77.7903 53.363C77.7489 53.26 77.7368 53.1474 77.7551 53.0378L78.1505 50.6965C78.1705 50.5775 78.1617 50.4554 78.125 50.3407C78.0882 50.2259 78.0246 50.1219 77.9395 50.0377L76.2647 48.3797C76.1862 48.302 76.1306 48.2037 76.1043 48.0956C76.078 47.9876 76.082 47.8742 76.1158 47.7684C76.1497 47.6625 76.212 47.5684 76.2958 47.4967C76.3796 47.425 76.4815 47.3785 76.59 47.3626L78.9045 47.0209C79.0223 47.0036 79.1341 46.9573 79.2304 46.8863C79.3267 46.8153 79.4045 46.7215 79.4572 46.6131L80.4895 44.4833C80.5377 44.3829 80.6127 44.2983 80.706 44.2391C80.7992 44.18 80.907 44.1486 81.0169 44.1486C81.1269 44.1486 81.2346 44.18 81.3279 44.2391C81.4211 44.2983 81.4962 44.3829 81.5444 44.4833Z" fill="#FFAF00"/>
<path d="M83.4293 53.6656L82.0198 52.9127V45.4605L82.5792 46.6119C82.6318 46.7203 82.7097 46.814 82.8059 46.8851C82.9022 46.9561 83.014 47.0024 83.1318 47.0197L85.4464 47.3614C85.5548 47.3773 85.6567 47.4238 85.7405 47.4955C85.8243 47.5672 85.8867 47.6613 85.9205 47.7672C85.9544 47.873 85.9584 47.9864 85.9321 48.0944C85.9057 48.2024 85.8502 48.3008 85.7717 48.3785L84.0968 50.0365C84.0118 50.1207 83.9481 50.2247 83.9114 50.3395C83.8746 50.4542 83.8659 50.5763 83.8858 50.6953L84.2812 53.0366C84.2999 53.1463 84.288 53.2592 84.2468 53.3624C84.2056 53.4655 84.1367 53.5549 84.048 53.6204C83.9593 53.6859 83.8544 53.7248 83.745 53.7328C83.6356 53.7408 83.5263 53.7175 83.4293 53.6656Z" fill="#FDE3AC"/>
<path d="M22.9374 44.4844L21.9023 46.6145C21.8496 46.7229 21.7718 46.8167 21.6755 46.8877C21.5792 46.9588 21.4674 47.005 21.3496 47.0224L19.0351 47.364C18.9266 47.38 18.8247 47.4264 18.7409 47.4981C18.6571 47.5698 18.5948 47.664 18.5609 47.7698C18.5271 47.8756 18.5231 47.989 18.5494 48.097C18.5757 48.2051 18.6313 48.3035 18.7098 48.3811L20.3846 50.0391C20.4697 50.1234 20.5333 50.2274 20.5701 50.3421C20.6068 50.4569 20.6156 50.579 20.5956 50.6979L20.2002 53.0392C20.1819 53.1488 20.1941 53.2615 20.2354 53.3644C20.2768 53.4673 20.3457 53.5565 20.4343 53.6217C20.5229 53.687 20.6277 53.7258 20.7369 53.7337C20.8461 53.7417 20.9553 53.7185 21.0522 53.6667L23.1218 52.5614C23.2271 52.5052 23.3443 52.4758 23.4633 52.4758C23.5823 52.4758 23.6995 52.5052 23.8048 52.5614L25.8744 53.6667C25.9713 53.7185 26.0805 53.7417 26.1896 53.7337C26.2988 53.7258 26.4037 53.687 26.4923 53.6217C26.5809 53.5565 26.6498 53.4673 26.6911 53.3644C26.7325 53.2615 26.7447 53.1488 26.7263 53.0392L26.3309 50.6979C26.3109 50.579 26.3197 50.4569 26.3565 50.3421C26.3932 50.2273 26.4568 50.1234 26.5419 50.0391L28.2168 48.3811C28.2953 48.3035 28.3509 48.2051 28.3772 48.097C28.4035 47.989 28.3995 47.8756 28.3656 47.7698C28.3318 47.664 28.2694 47.5698 28.1856 47.4981C28.1018 47.4264 27.9999 47.38 27.8915 47.364L25.5782 47.0221C25.4604 47.0047 25.3485 46.9585 25.2523 46.8874C25.156 46.8164 25.0782 46.7226 25.0255 46.6142L23.9904 44.4844C23.942 44.3845 23.867 44.3004 23.774 44.2416C23.6809 44.1828 23.5735 44.1516 23.4639 44.1516C23.3543 44.1516 23.2469 44.1828 23.1538 44.2416C23.0608 44.3004 22.9858 44.3845 22.9374 44.4844Z" fill="#E2E2E2"/>
<path d="M23.9667 44.4841L25.0018 46.6139C25.0545 46.7223 25.1323 46.8161 25.2286 46.8871C25.3249 46.9581 25.4367 47.0044 25.5545 47.0217L27.869 47.3634C27.9775 47.3793 28.0794 47.4258 28.1632 47.4975C28.247 47.5692 28.3093 47.6633 28.3432 47.7692C28.377 47.875 28.381 47.9884 28.3547 48.0964C28.3284 48.2045 28.2728 48.3028 28.1943 48.3805L26.5195 50.0385C26.4344 50.1228 26.3708 50.2267 26.334 50.3415C26.2973 50.4562 26.2885 50.5783 26.3085 50.6973L26.7039 53.0386C26.7222 53.1482 26.71 53.2608 26.6687 53.3638C26.6273 53.4667 26.5584 53.5558 26.4698 53.6211C26.3812 53.6864 26.2764 53.7252 26.1672 53.7331C26.058 53.7411 25.9488 53.7178 25.8519 53.666L23.7823 52.5608C23.677 52.5046 23.5598 52.4752 23.4408 52.4752C23.3218 52.4752 23.2046 52.5046 23.0993 52.5608L21.0297 53.666C20.9328 53.7178 20.8236 53.7411 20.7144 53.7331C20.6053 53.7252 20.5004 53.6864 20.4118 53.6211C20.3232 53.5558 20.2543 53.4667 20.213 53.3638C20.1716 53.2608 20.1594 53.1482 20.1778 53.0386L20.5732 50.6973C20.5932 50.5783 20.5844 50.4562 20.5476 50.3415C20.5109 50.2267 20.4472 50.1227 20.3622 50.0385L18.6873 48.3805C18.6088 48.3028 18.5532 48.2045 18.5269 48.0964C18.5006 47.9884 18.5046 47.875 18.5385 47.7692C18.5723 47.6633 18.6347 47.5692 18.7185 47.4975C18.8023 47.4258 18.9042 47.3793 19.0126 47.3634L21.3272 47.0217C21.4449 47.0044 21.5568 46.9581 21.6531 46.8871C21.7493 46.8161 21.8271 46.7223 21.8798 46.6139L22.9149 44.4841C22.9635 44.3845 23.0384 44.3008 23.1314 44.2422C23.2243 44.1836 23.3315 44.1526 23.4408 44.1526C23.5502 44.1526 23.6574 44.1836 23.7503 44.2422C23.8432 44.3008 23.9182 44.3845 23.9667 44.4841Z" fill="#FFAF00"/>
</svg>
