<svg width="48" height="48" viewBox="0 0 48 48" fill="none" xmlns="http://www.w3.org/2000/svg">
<path d="M39.4122 18.9192H30.5625V45.0357H39.881V19.3879C39.881 19.1301 39.67 18.9192 39.4122 18.9192Z" fill="#9EA7AF"/>
<path d="M8.68164 23.7286C8.42383 23.7286 8.21289 23.9395 8.21289 24.1973V45.0356H17.344V23.7286H8.68164Z" fill="#FCDB67"/>
<path opacity="0.1" d="M10.594 45.0357V24.1973C10.594 23.9395 10.8049 23.7286 11.0627 23.7286H8.68164C8.42383 23.7286 8.21289 23.9395 8.21289 24.1973V45.0356H10.594V45.0357Z" fill="black"/>
<path d="M23.6351 4.10092C23.7277 4.04748 23.8586 4.01683 23.9941 4.01683C24.1297 4.01683 24.2606 4.04748 24.3532 4.10092L24.6973 4.29958V2.35492C24.6973 1.96661 24.3825 1.65179 23.9941 1.65179C23.6058 1.65179 23.291 1.96661 23.291 2.35492V4.29958L23.6351 4.10092Z" fill="#775436"/>
<path d="M28.1227 7.81659V6.63796C28.1227 6.38015 27.94 6.06375 27.7168 5.93484L24.3999 4.01971C24.1767 3.89081 23.8113 3.89081 23.588 4.01971L20.2712 5.93484C20.048 6.06375 19.8652 6.38015 19.8652 6.63796V7.81659H28.1227Z" fill="#C6A07D"/>
<path opacity="0.1" d="M22.211 7.81659V6.63796C22.211 6.38015 22.3938 6.06375 22.617 5.93484L25.1669 4.46259L24.3999 4.01971C24.1767 3.89081 23.8113 3.89081 23.588 4.01971L20.2712 5.93484C20.048 6.06375 19.8652 6.38015 19.8652 6.63796V7.81659H22.211Z" fill="black"/>
<path d="M29.3568 10.0838V8.19159C29.3568 7.93378 29.1459 7.72284 28.8881 7.72284H19.1001C18.8423 7.72284 18.6313 7.93378 18.6313 8.19159V10.0838H29.3568Z" fill="#775436"/>
<path opacity="0.1" d="M20.9999 10.0838V8.19159C20.9999 7.93378 21.2109 7.72284 21.4687 7.72284H19.1001C18.8423 7.72284 18.6313 7.93378 18.6313 8.19159V10.0838H20.9999Z" fill="black"/>
<path d="M30.7441 45.0357V10.4588C30.7441 10.201 30.5332 9.99008 30.2754 9.99008H17.7129C17.4551 9.99008 17.2441 10.201 17.2441 10.4588V45.0357H30.7441Z" fill="#C6A07D"/>
<path opacity="0.1" d="M19.5938 45.0357V10.4588C19.5938 10.201 19.8047 9.99008 20.0625 9.99008H17.7129C17.4551 9.99008 17.2441 10.201 17.2441 10.4588V45.0357H19.5938Z" fill="black"/>
<path d="M11.625 41.9954C11.625 42.1501 11.4984 42.2767 11.3438 42.2767H10.5C10.3453 42.2767 10.2188 42.1501 10.2188 41.9954V26.3705C10.2188 26.2158 10.3453 26.0892 10.5 26.0892H11.3438C11.4984 26.0892 11.625 26.2158 11.625 26.3705V41.9954Z" fill="#D19546"/>
<path d="M13.7812 41.9954C13.7812 42.1501 13.6547 42.2767 13.5 42.2767H12.6562C12.5016 42.2767 12.375 42.1501 12.375 41.9954V26.3705C12.375 26.2158 12.5016 26.0892 12.6562 26.0892H13.5C13.6547 26.0892 13.7812 26.2158 13.7812 26.3705V41.9954Z" fill="#D19546"/>
<path d="M15.9375 41.9954C15.9375 42.1501 15.8109 42.2767 15.6562 42.2767H14.8125C14.6578 42.2767 14.5312 42.1501 14.5312 41.9954V26.3705C14.5312 26.2158 14.6578 26.0892 14.8125 26.0892H15.6562C15.8109 26.0892 15.9375 26.2158 15.9375 26.3705V41.9954Z" fill="#D19546"/>
<path d="M38.5312 21.6205C38.5312 21.7752 38.4047 21.9018 38.25 21.9018H32.3438C32.1891 21.9018 32.0625 21.7752 32.0625 21.6205V20.7768C32.0625 20.6221 32.1891 20.4955 32.3438 20.4955H38.25C38.4047 20.4955 38.5312 20.6221 38.5312 20.7768V21.6205Z" fill="#A2F9F9"/>
<path d="M38.5312 23.7768C38.5312 23.9315 38.4047 24.058 38.25 24.058H32.3438C32.1891 24.058 32.0625 23.9315 32.0625 23.7768V22.933C32.0625 22.7784 32.1891 22.6518 32.3438 22.6518H38.25C38.4047 22.6518 38.5312 22.7784 38.5312 22.933V23.7768Z" fill="#A2F9F9"/>
<path d="M38.5312 25.933C38.5312 26.0877 38.4047 26.2143 38.25 26.2143H32.3438C32.1891 26.2143 32.0625 26.0877 32.0625 25.933V25.0893C32.0625 24.9346 32.1891 24.808 32.3438 24.808H38.25C38.4047 24.808 38.5312 24.9346 38.5312 25.0893V25.933Z" fill="#A2F9F9"/>
<path d="M38.5312 28.0893C38.5312 28.244 38.4047 28.3705 38.25 28.3705H32.3438C32.1891 28.3705 32.0625 28.244 32.0625 28.0893V27.2455C32.0625 27.0909 32.1891 26.9643 32.3438 26.9643H38.25C38.4047 26.9643 38.5312 27.0909 38.5312 27.2455V28.0893Z" fill="#A2F9F9"/>
<path d="M38.5312 30.2455C38.5312 30.4002 38.4047 30.5268 38.25 30.5268H32.3438C32.1891 30.5268 32.0625 30.4002 32.0625 30.2455V29.4018C32.0625 29.2471 32.1891 29.1205 32.3438 29.1205H38.25C38.4047 29.1205 38.5312 29.2471 38.5312 29.4018V30.2455Z" fill="#A2F9F9"/>
<path d="M38.5312 32.4018C38.5312 32.5565 38.4047 32.683 38.25 32.683H32.3438C32.1891 32.683 32.0625 32.5565 32.0625 32.4018V31.558C32.0625 31.4034 32.1891 31.2768 32.3438 31.2768H38.25C38.4047 31.2768 38.5312 31.4034 38.5312 31.558V32.4018Z" fill="#A2F9F9"/>
<path d="M20.3384 14.0817C20.3384 14.2364 20.2118 14.363 20.0571 14.363H19.2134C19.0587 14.363 18.9321 14.2364 18.9321 14.0817V12.3781C18.9321 12.2234 19.0587 12.0968 19.2134 12.0968H20.0571C20.2118 12.0968 20.3384 12.2234 20.3384 12.3781V14.0817Z" fill="white"/>
<path d="M22.5181 14.0817C22.5181 14.2364 22.3915 14.363 22.2368 14.363H21.3931C21.2384 14.363 21.1118 14.2364 21.1118 14.0817V12.3781C21.1118 12.2234 21.2384 12.0968 21.3931 12.0968H22.2368C22.3915 12.0968 22.5181 12.2234 22.5181 12.3781V14.0817Z" fill="white"/>
<path d="M24.6973 14.0817C24.6973 14.2364 24.5707 14.363 24.416 14.363H23.5723C23.4176 14.363 23.291 14.2364 23.291 14.0817V12.3781C23.291 12.2234 23.4176 12.0968 23.5723 12.0968H24.416C24.5707 12.0968 24.6973 12.2234 24.6973 12.3781V14.0817Z" fill="white"/>
<path d="M26.877 14.0817C26.877 14.2364 26.7504 14.363 26.5957 14.363H25.752C25.5973 14.363 25.4707 14.2364 25.4707 14.0817V12.3781C25.4707 12.2234 25.5973 12.0968 25.752 12.0968H26.5957C26.7504 12.0968 26.877 12.2234 26.877 12.3781V14.0817Z" fill="white"/>
<path d="M29.0562 14.0817C29.0562 14.2364 28.9296 14.363 28.7749 14.363H27.9312C27.7765 14.363 27.6499 14.2364 27.6499 14.0817V12.3781C27.6499 12.2234 27.7765 12.0968 27.9312 12.0968H28.7749C28.9296 12.0968 29.0562 12.2234 29.0562 12.3781V14.0817Z" fill="white"/>
<path d="M20.3384 17.4648C20.3384 17.6195 20.2118 17.746 20.0571 17.746H19.2134C19.0587 17.746 18.9321 17.6195 18.9321 17.4648V15.7612C18.9321 15.6065 19.0587 15.4799 19.2134 15.4799H20.0571C20.2118 15.4799 20.3384 15.6065 20.3384 15.7612V17.4648Z" fill="white"/>
<path d="M22.5181 17.4648C22.5181 17.6195 22.3915 17.746 22.2368 17.746H21.3931C21.2384 17.746 21.1118 17.6195 21.1118 17.4648V15.7612C21.1118 15.6065 21.2384 15.4799 21.3931 15.4799H22.2368C22.3915 15.4799 22.5181 15.6065 22.5181 15.7612V17.4648Z" fill="white"/>
<path d="M24.6973 17.4648C24.6973 17.6195 24.5707 17.746 24.416 17.746H23.5723C23.4176 17.746 23.291 17.6195 23.291 17.4648V15.7612C23.291 15.6065 23.4176 15.4799 23.5723 15.4799H24.416C24.5707 15.4799 24.6973 15.6065 24.6973 15.7612V17.4648Z" fill="white"/>
<path d="M26.877 17.4648C26.877 17.6195 26.7504 17.746 26.5957 17.746H25.752C25.5973 17.746 25.4707 17.6195 25.4707 17.4648V15.7612C25.4707 15.6065 25.5973 15.4799 25.752 15.4799H26.5957C26.7504 15.4799 26.877 15.6065 26.877 15.7612V17.4648Z" fill="white"/>
<path d="M29.0562 17.4648C29.0562 17.6195 28.9296 17.746 28.7749 17.746H27.9312C27.7765 17.746 27.6499 17.6195 27.6499 17.4648V15.7612C27.6499 15.6065 27.7765 15.4799 27.9312 15.4799H28.7749C28.9296 15.4799 29.0562 15.6065 29.0562 15.7612V17.4648Z" fill="white"/>
<path d="M20.3384 20.8479C20.3384 21.0025 20.2118 21.1291 20.0571 21.1291H19.2134C19.0587 21.1291 18.9321 21.0025 18.9321 20.8479V19.1442C18.9321 18.9895 19.0587 18.863 19.2134 18.863H20.0571C20.2118 18.863 20.3384 18.9895 20.3384 19.1442V20.8479Z" fill="white"/>
<path d="M22.5181 20.8479C22.5181 21.0025 22.3915 21.1291 22.2368 21.1291H21.3931C21.2384 21.1291 21.1118 21.0025 21.1118 20.8479V19.1442C21.1118 18.9895 21.2384 18.863 21.3931 18.863H22.2368C22.3915 18.863 22.5181 18.9895 22.5181 19.1442V20.8479Z" fill="white"/>
<path d="M24.6973 20.8479C24.6973 21.0025 24.5707 21.1291 24.416 21.1291H23.5723C23.4176 21.1291 23.291 21.0025 23.291 20.8479V19.1442C23.291 18.9895 23.4176 18.863 23.5723 18.863H24.416C24.5707 18.863 24.6973 18.9895 24.6973 19.1442V20.8479Z" fill="white"/>
<path d="M26.877 20.8479C26.877 21.0025 26.7504 21.1291 26.5957 21.1291H25.752C25.5973 21.1291 25.4707 21.0025 25.4707 20.8479V19.1442C25.4707 18.9895 25.5973 18.863 25.752 18.863H26.5957C26.7504 18.863 26.877 18.9895 26.877 19.1442V20.8479Z" fill="white"/>
<path d="M29.0562 20.8479C29.0562 21.0025 28.9296 21.1291 28.7749 21.1291H27.9312C27.7765 21.1291 27.6499 21.0025 27.6499 20.8479V19.1442C27.6499 18.9895 27.7765 18.863 27.9312 18.863H28.7749C28.9296 18.863 29.0562 18.9895 29.0562 19.1442V20.8479Z" fill="white"/>
<path d="M20.3384 24.2309C20.3384 24.3856 20.2118 24.5122 20.0571 24.5122H19.2134C19.0587 24.5122 18.9321 24.3856 18.9321 24.2309V22.5273C18.9321 22.3726 19.0587 22.246 19.2134 22.246H20.0571C20.2118 22.246 20.3384 22.3726 20.3384 22.5273V24.2309Z" fill="white"/>
<path d="M22.5181 24.2309C22.5181 24.3856 22.3915 24.5122 22.2368 24.5122H21.3931C21.2384 24.5122 21.1118 24.3856 21.1118 24.2309V22.5273C21.1118 22.3726 21.2384 22.246 21.3931 22.246H22.2368C22.3915 22.246 22.5181 22.3726 22.5181 22.5273V24.2309Z" fill="white"/>
<path d="M24.6973 24.2309C24.6973 24.3856 24.5707 24.5122 24.416 24.5122H23.5723C23.4176 24.5122 23.291 24.3856 23.291 24.2309V22.5273C23.291 22.3726 23.4176 22.246 23.5723 22.246H24.416C24.5707 22.246 24.6973 22.3726 24.6973 22.5273V24.2309Z" fill="white"/>
<path d="M26.877 24.2309C26.877 24.3856 26.7504 24.5122 26.5957 24.5122H25.752C25.5973 24.5122 25.4707 24.3856 25.4707 24.2309V22.5273C25.4707 22.3726 25.5973 22.246 25.752 22.246H26.5957C26.7504 22.246 26.877 22.3726 26.877 22.5273V24.2309Z" fill="white"/>
<path d="M29.0562 24.2309C29.0562 24.3856 28.9296 24.5122 28.7749 24.5122H27.9312C27.7765 24.5122 27.6499 24.3856 27.6499 24.2309V22.5273C27.6499 22.3726 27.7765 22.246 27.9312 22.246H28.7749C28.9296 22.246 29.0562 22.3726 29.0562 22.5273V24.2309Z" fill="white"/>
<path d="M20.3384 27.614C20.3384 27.7687 20.2118 27.8952 20.0571 27.8952H19.2134C19.0587 27.8952 18.9321 27.7687 18.9321 27.614V25.9103C18.9321 25.7557 19.0587 25.6291 19.2134 25.6291H20.0571C20.2118 25.6291 20.3384 25.7557 20.3384 25.9103V27.614Z" fill="white"/>
<path d="M22.5181 27.614C22.5181 27.7687 22.3915 27.8952 22.2368 27.8952H21.3931C21.2384 27.8952 21.1118 27.7687 21.1118 27.614V25.9103C21.1118 25.7557 21.2384 25.6291 21.3931 25.6291H22.2368C22.3915 25.6291 22.5181 25.7557 22.5181 25.9103V27.614Z" fill="white"/>
<path d="M24.6973 27.614C24.6973 27.7687 24.5707 27.8952 24.416 27.8952H23.5723C23.4176 27.8952 23.291 27.7687 23.291 27.614V25.9103C23.291 25.7557 23.4176 25.6291 23.5723 25.6291H24.416C24.5707 25.6291 24.6973 25.7557 24.6973 25.9103V27.614Z" fill="white"/>
<path d="M26.877 27.614C26.877 27.7687 26.7504 27.8952 26.5957 27.8952H25.752C25.5973 27.8952 25.4707 27.7687 25.4707 27.614V25.9103C25.4707 25.7557 25.5973 25.6291 25.752 25.6291H26.5957C26.7504 25.6291 26.877 25.7557 26.877 25.9103V27.614Z" fill="white"/>
<path d="M29.0562 27.614C29.0562 27.7687 28.9296 27.8952 28.7749 27.8952H27.9312C27.7765 27.8952 27.6499 27.7687 27.6499 27.614V25.9103C27.6499 25.7557 27.7765 25.6291 27.9312 25.6291H28.7749C28.9296 25.6291 29.0562 25.7557 29.0562 25.9103V27.614Z" fill="white"/>
<path d="M20.3384 30.997C20.3384 31.1517 20.2118 31.2783 20.0571 31.2783H19.2134C19.0587 31.2783 18.9321 31.1517 18.9321 30.997V29.2934C18.9321 29.1387 19.0587 29.0121 19.2134 29.0121H20.0571C20.2118 29.0121 20.3384 29.1387 20.3384 29.2934V30.997Z" fill="white"/>
<path d="M22.5181 30.997C22.5181 31.1517 22.3915 31.2783 22.2368 31.2783H21.3931C21.2384 31.2783 21.1118 31.1517 21.1118 30.997V29.2934C21.1118 29.1387 21.2384 29.0121 21.3931 29.0121H22.2368C22.3915 29.0121 22.5181 29.1387 22.5181 29.2934V30.997Z" fill="white"/>
<path d="M24.6973 30.997C24.6973 31.1517 24.5707 31.2783 24.416 31.2783H23.5723C23.4176 31.2783 23.291 31.1517 23.291 30.997V29.2934C23.291 29.1387 23.4176 29.0121 23.5723 29.0121H24.416C24.5707 29.0121 24.6973 29.1387 24.6973 29.2934V30.997Z" fill="white"/>
<path d="M26.877 30.997C26.877 31.1517 26.7504 31.2783 26.5957 31.2783H25.752C25.5973 31.2783 25.4707 31.1517 25.4707 30.997V29.2934C25.4707 29.1387 25.5973 29.0121 25.752 29.0121H26.5957C26.7504 29.0121 26.877 29.1387 26.877 29.2934V30.997Z" fill="white"/>
<path d="M29.0562 30.997C29.0562 31.1517 28.9296 31.2783 28.7749 31.2783H27.9312C27.7765 31.2783 27.6499 31.1517 27.6499 30.997V29.2934C27.6499 29.1387 27.7765 29.0121 27.9312 29.0121H28.7749C28.9296 29.0121 29.0562 29.1387 29.0562 29.2934V30.997Z" fill="white"/>
<path d="M20.3384 34.3801C20.3384 34.5348 20.2118 34.6613 20.0571 34.6613H19.2134C19.0587 34.6613 18.9321 34.5348 18.9321 34.3801V32.6765C18.9321 32.5218 19.0587 32.3952 19.2134 32.3952H20.0571C20.2118 32.3952 20.3384 32.5218 20.3384 32.6765V34.3801Z" fill="white"/>
<path d="M22.5181 34.3801C22.5181 34.5348 22.3915 34.6613 22.2368 34.6613H21.3931C21.2384 34.6613 21.1118 34.5348 21.1118 34.3801V32.6765C21.1118 32.5218 21.2384 32.3952 21.3931 32.3952H22.2368C22.3915 32.3952 22.5181 32.5218 22.5181 32.6765V34.3801Z" fill="white"/>
<path d="M24.6973 34.3801C24.6973 34.5348 24.5707 34.6613 24.416 34.6613H23.5723C23.4176 34.6613 23.291 34.5348 23.291 34.3801V32.6765C23.291 32.5218 23.4176 32.3952 23.5723 32.3952H24.416C24.5707 32.3952 24.6973 32.5218 24.6973 32.6765V34.3801Z" fill="white"/>
<path d="M26.877 34.3801C26.877 34.5348 26.7504 34.6613 26.5957 34.6613H25.752C25.5973 34.6613 25.4707 34.5348 25.4707 34.3801V32.6765C25.4707 32.5218 25.5973 32.3952 25.752 32.3952H26.5957C26.7504 32.3952 26.877 32.5218 26.877 32.6765V34.3801Z" fill="white"/>
<path d="M29.0562 34.3801C29.0562 34.5348 28.9296 34.6613 28.7749 34.6613H27.9312C27.7765 34.6613 27.6499 34.5348 27.6499 34.3801V32.6765C27.6499 32.5218 27.7765 32.3952 27.9312 32.3952H28.7749C28.9296 32.3952 29.0562 32.5218 29.0562 32.6765V34.3801Z" fill="white"/>
<path d="M20.3384 37.7631C20.3384 37.9178 20.2118 38.0444 20.0571 38.0444H19.2134C19.0587 38.0444 18.9321 37.9178 18.9321 37.7631V36.0595C18.9321 35.9048 19.0587 35.7783 19.2134 35.7783H20.0571C20.2118 35.7783 20.3384 35.9048 20.3384 36.0595V37.7631Z" fill="white"/>
<path d="M22.5181 37.7631C22.5181 37.9178 22.3915 38.0444 22.2368 38.0444H21.3931C21.2384 38.0444 21.1118 37.9178 21.1118 37.7631V36.0595C21.1118 35.9048 21.2384 35.7783 21.3931 35.7783H22.2368C22.3915 35.7783 22.5181 35.9048 22.5181 36.0595V37.7631Z" fill="white"/>
<path d="M24.6973 37.7631C24.6973 37.9178 24.5707 38.0444 24.416 38.0444H23.5723C23.4176 38.0444 23.291 37.9178 23.291 37.7631V36.0595C23.291 35.9048 23.4176 35.7783 23.5723 35.7783H24.416C24.5707 35.7783 24.6973 35.9048 24.6973 36.0595V37.7631Z" fill="white"/>
<path d="M26.877 37.7631C26.877 37.9178 26.7504 38.0444 26.5957 38.0444H25.752C25.5973 38.0444 25.4707 37.9178 25.4707 37.7631V36.0595C25.4707 35.9048 25.5973 35.7783 25.752 35.7783H26.5957C26.7504 35.7783 26.877 35.9048 26.877 36.0595V37.7631Z" fill="white"/>
<path d="M29.0562 37.7631C29.0562 37.9178 28.9296 38.0444 28.7749 38.0444H27.9312C27.7765 38.0444 27.6499 37.9178 27.6499 37.7631V36.0595C27.6499 35.9048 27.7765 35.7783 27.9312 35.7783H28.7749C28.9296 35.7783 29.0562 35.9048 29.0562 36.0595V37.7631Z" fill="white"/>
<path d="M20.3384 41.1462C20.3384 41.3009 20.2118 41.4274 20.0571 41.4274H19.2134C19.0587 41.4274 18.9321 41.3009 18.9321 41.1462V39.4426C18.9321 39.2879 19.0587 39.1613 19.2134 39.1613H20.0571C20.2118 39.1613 20.3384 39.2879 20.3384 39.4426V41.1462Z" fill="white"/>
<path d="M22.5181 41.1462C22.5181 41.3009 22.3915 41.4274 22.2368 41.4274H21.3931C21.2384 41.4274 21.1118 41.3009 21.1118 41.1462V39.4426C21.1118 39.2879 21.2384 39.1613 21.3931 39.1613H22.2368C22.3915 39.1613 22.5181 39.2879 22.5181 39.4426V41.1462Z" fill="white"/>
<path d="M24.6973 41.1462C24.6973 41.3009 24.5707 41.4274 24.416 41.4274H23.5723C23.4176 41.4274 23.291 41.3009 23.291 41.1462V39.4426C23.291 39.2879 23.4176 39.1613 23.5723 39.1613H24.416C24.5707 39.1613 24.6973 39.2879 24.6973 39.4426V41.1462Z" fill="white"/>
<path d="M26.877 41.1462C26.877 41.3009 26.7504 41.4274 26.5957 41.4274H25.752C25.5973 41.4274 25.4707 41.3009 25.4707 41.1462V39.4426C25.4707 39.2879 25.5973 39.1613 25.752 39.1613H26.5957C26.7504 39.1613 26.877 39.2879 26.877 39.4426V41.1462Z" fill="white"/>
<path d="M29.0562 41.1462C29.0562 41.3009 28.9296 41.4274 28.7749 41.4274H27.9312C27.7765 41.4274 27.6499 41.3009 27.6499 41.1462V39.4426C27.6499 39.2879 27.7765 39.1613 27.9312 39.1613H28.7749C28.9296 39.1613 29.0562 39.2879 29.0562 39.4426V41.1462Z" fill="white"/>
<path d="M36.75 45.0357V39.6674C36.75 39.5127 36.6234 39.3862 36.4688 39.3862H33.9375C33.7828 39.3862 33.6562 39.5127 33.6562 39.6674V45.0357H36.75Z" fill="#E6E9ED"/>
<path d="M3.45741 43.1352C5.36688 43.1352 6.91481 41.5873 6.91481 39.6778C6.91481 37.7683 5.36688 36.2204 3.45741 36.2204C1.54793 36.2204 0 37.7683 0 39.6778C0 41.5873 1.54793 43.1352 3.45741 43.1352Z" fill="#5DC647"/>
<g opacity="0.1">
<path d="M3.00094 39.6775C3.00094 38.3055 3.79988 37.1205 4.95788 36.5618C4.50403 36.3428 3.99506 36.22 3.45741 36.22C1.548 36.22 0 37.7678 0 39.6775C0 41.587 1.548 43.1349 3.45741 43.1349C3.99506 43.1349 4.50403 43.0122 4.95788 42.7932C3.79988 42.2345 3.00094 41.0493 3.00094 39.6775Z" fill="black"/>
</g>
<path d="M4.16064 45.0357V41.0546C4.16064 40.6662 3.84583 40.3515 3.45752 40.3515C3.06921 40.3515 2.75439 40.6662 2.75439 41.0546V45.0357H4.16064Z" fill="#775436"/>
<path d="M44.5424 43.1352C46.4518 43.1352 47.9998 41.5873 47.9998 39.6778C47.9998 37.7683 46.4518 36.2204 44.5424 36.2204C42.6329 36.2204 41.085 37.7683 41.085 39.6778C41.085 41.5873 42.6329 43.1352 44.5424 43.1352Z" fill="#5DC647"/>
<g opacity="0.1">
<path d="M44.0575 39.6775C44.0575 38.3001 44.8631 37.111 46.0287 36.5552C45.5784 36.3404 45.0745 36.22 44.5424 36.22C42.6329 36.22 41.085 37.7679 41.085 39.6775C41.085 41.587 42.633 43.1349 44.5424 43.1349C45.0745 43.1349 45.5783 43.0146 46.0287 42.7997C44.8631 42.2439 44.0575 41.0549 44.0575 39.6775Z" fill="black"/>
</g>
<path d="M45.2456 45.0357V41.0546C45.2456 40.6662 44.9308 40.3515 44.5425 40.3515C44.1542 40.3515 43.8394 40.6662 43.8394 41.0546V45.0357H45.2456Z" fill="#775436"/>
<path d="M47.2969 46.3482H0.703125C0.314812 46.3482 0 46.0335 0 45.6451C0 45.2567 0.314812 44.942 0.703125 44.942H47.2969C47.6852 44.942 48 45.2567 48 45.6451C48 46.0334 47.6852 46.3482 47.2969 46.3482Z" fill="#424F59"/>
</svg>
