<svg width="43" height="43" viewBox="0 0 43 43" fill="none" xmlns="http://www.w3.org/2000/svg">
<path fill-rule="evenodd" clip-rule="evenodd" d="M36.7791 4.39797C36.7012 4.08171 36.8946 3.76165 37.2108 3.68375C37.5271 3.60576 37.8472 3.79926 37.9251 4.11552C38.4267 6.15051 38.5835 8.27185 38.3702 10.3847C38.1162 12.9008 37.3376 15.4049 35.9912 17.7369C34.87 19.6788 33.4488 21.3392 31.8199 22.6937C30.9704 23.4002 30.0643 24.0234 29.115 24.5599C28.8313 24.7201 28.471 24.6199 28.3108 24.3364C28.1505 24.0528 28.2507 23.6925 28.5342 23.5322C29.4225 23.0303 30.2703 22.4472 31.0651 21.7862C32.5896 20.5184 33.9197 18.9642 34.9689 17.1467C36.229 14.9642 36.9581 12.6208 37.1957 10.2662C37.3955 8.28846 37.2486 6.30278 36.7791 4.39797Z" fill="#C6EA94"/>
<path fill-rule="evenodd" clip-rule="evenodd" d="M35.0437 18.2224C34.9485 18.3831 34.8401 18.536 34.7197 18.6795C33.7251 18.2999 32.9229 17.4608 32.6353 16.352C32.3477 15.2429 32.6409 14.1199 33.3255 13.3046C34.3202 13.6842 35.1224 14.5232 35.41 15.6321C35.6452 16.5385 35.4922 17.4543 35.0547 18.2038C35.4969 17.4571 36.223 16.8783 37.1293 16.6433C38.2383 16.3556 39.3614 16.6488 40.1766 17.3336C39.7969 18.3282 38.958 19.1304 37.8491 19.418C36.7401 19.7056 35.6169 19.4124 34.8018 18.7277C34.8686 18.5527 34.9496 18.3837 35.0437 18.2224Z" fill="#AFE269"/>
<path fill-rule="evenodd" clip-rule="evenodd" d="M33.7447 7.45435C34.7958 7.28572 35.91 7.61109 36.7136 8.42775C37.5172 9.24433 37.8248 10.3636 37.6393 11.4119C36.5882 11.5805 35.474 11.255 34.6705 10.4385C33.8668 9.62189 33.5593 8.50262 33.7447 7.45435Z" fill="#AFE269"/>
<path fill-rule="evenodd" clip-rule="evenodd" d="M41.6922 7.51791C41.8608 8.56905 41.5352 9.68326 40.7187 10.4869C39.9022 11.2905 38.7829 11.598 37.7345 11.4126C37.566 10.3615 37.8915 9.24727 38.7081 8.44376C39.5246 7.64008 40.6439 7.33259 41.6922 7.51791Z" fill="#AFE269"/>
<path fill-rule="evenodd" clip-rule="evenodd" d="M36.3331 1.26471C37.3307 1.63628 38.1396 2.46879 38.4361 3.5755C38.7326 4.68211 38.4483 5.80753 37.7702 6.62816C36.7725 6.25659 35.9636 5.42407 35.6672 4.31746C35.3706 3.21075 35.6549 2.08533 36.3331 1.26471Z" fill="#AFE269"/>
<path fill-rule="evenodd" clip-rule="evenodd" d="M4.4502 29.9369H8.63755V21.5863C8.63755 21.4 8.48655 21.249 8.3003 21.249C7.51517 21.249 5.5725 21.249 4.78745 21.249C4.6012 21.249 4.4502 21.4 4.4502 21.5863V29.9369Z" fill="#EB5463"/>
<path fill-rule="evenodd" clip-rule="evenodd" d="M12.0015 17.808C12.0015 17.7185 12.037 17.6328 12.1003 17.5695C12.1635 17.5063 12.2493 17.4707 12.3387 17.4707H15.8533C15.9427 17.4707 16.0285 17.5063 16.0918 17.5695C16.155 17.6328 16.1905 17.7185 16.1905 17.808V29.9369H12.0015V17.808Z" fill="#FDCD56"/>
<path fill-rule="evenodd" clip-rule="evenodd" d="M19.5547 14.0281C19.5547 13.9387 19.5902 13.8529 19.6534 13.7896C19.7167 13.7264 19.8025 13.6909 19.8919 13.6909H23.4065C23.4958 13.6909 23.5817 13.7264 23.6449 13.7896C23.7082 13.8529 23.7437 13.9387 23.7437 14.0281V29.9369H19.5547V14.0281Z" fill="#C6EA94"/>
<path fill-rule="evenodd" clip-rule="evenodd" d="M27.1079 29.9369H31.297V10.2482C31.297 10.1587 31.2615 10.073 31.1981 10.0097C31.1349 9.9465 31.0492 9.91092 30.9597 9.91092C30.1743 9.91092 28.2305 9.91092 27.4452 9.91092C27.3557 9.91092 27.27 9.9465 27.2067 10.0097C27.1434 10.073 27.1079 10.1587 27.1079 10.2482V29.9369Z" fill="#66D4F1"/>
<path fill-rule="evenodd" clip-rule="evenodd" d="M41.7352 34.4221C41.7352 33.2325 41.2627 32.0917 40.4215 31.2506C39.5803 30.4094 38.4395 29.9369 37.2499 29.9369H5.74997C4.56039 29.9369 3.41954 30.4094 2.57834 31.2506C1.73723 32.0917 1.26465 33.2325 1.26465 34.4221V37.25C1.26465 38.4396 1.73723 39.5804 2.57834 40.4216C3.41954 41.2627 4.56039 41.7353 5.74997 41.7353H37.2499C38.4395 41.7353 39.5803 41.2627 40.4215 40.4216C41.2627 39.5804 41.7352 38.4396 41.7352 37.25V34.4221Z" fill="#0B2FA3"/>
<path fill-rule="evenodd" clip-rule="evenodd" d="M29.7437 41.7353V29.9369H37.25C39.7272 29.9369 41.7353 31.945 41.7353 34.4221V37.25C41.7353 39.7272 39.7272 41.7353 37.25 41.7353H29.7437Z" fill="#D9E2FF"/>
<path fill-rule="evenodd" clip-rule="evenodd" d="M32.1263 33.8961L33.5629 32.4595L30.7901 29.6867L29.3535 31.1233L32.1263 33.8961Z" fill="#CAD0D7"/>
<path fill-rule="evenodd" clip-rule="evenodd" d="M25.5374 18.6005C29.5521 18.6005 32.8071 21.8555 32.8071 25.8703C32.8071 29.8851 29.5521 33.1401 25.5374 33.1401C21.5226 33.1401 18.2676 29.8851 18.2676 25.8703C18.2676 21.8555 21.5226 18.6005 25.5374 18.6005Z" fill="#A9B0BB"/>
<path fill-rule="evenodd" clip-rule="evenodd" d="M31.8001 33.2306L32.8976 32.133C33.2593 31.7701 33.8533 31.7701 34.2162 32.133L39.2607 37.1775C39.6236 37.5404 39.6236 38.1332 39.2607 38.496L38.1631 39.5936C37.8002 39.9565 37.2063 39.9565 36.8446 39.5936L31.8001 34.5492C31.4371 34.1862 31.4371 33.5935 31.8001 33.2306Z" fill="#A9B0BB"/>
<path fill-rule="evenodd" clip-rule="evenodd" d="M25.5375 31.1949C22.6052 31.1949 20.2129 28.8038 20.2129 25.8703C20.2129 22.938 22.6052 20.5458 25.5375 20.5458C28.471 20.5458 30.8621 22.938 30.8621 25.8703C30.8621 28.8038 28.471 31.1949 25.5375 31.1949Z" fill="#F4F6F8"/>
</svg>
