<svg width="46" height="46" viewBox="0 0 46 46" fill="none" xmlns="http://www.w3.org/2000/svg">
<path d="M41.8736 23.6765C41.8736 23.6088 41.806 23.6088 41.806 23.5412C41.1972 22.4588 39.8442 22.4588 38.8295 23.1353C37.4089 24.0823 34.4324 25.3676 31.7266 26.3147V33.4176L41.1972 26.3823C42.0766 25.7735 42.3472 24.6235 41.8736 23.6765Z" fill="#F2A496"/>
<path d="M44.4442 24.6912C43.9031 23.6088 42.5501 23.4735 41.5354 24.0823C40.0472 24.9617 36.9354 26.1118 34.1619 26.8559C34.1619 26.8559 34.3648 25.7735 33.8236 25.0294C33.0795 24.0147 31.7942 23.6765 30.7119 24.0823L21.5795 26.1117C20.9031 26.3823 18.4678 26.0441 17.656 25.8412C14.8825 25.097 11.9736 25.3 9.4707 26.45V39.3706C12.0413 37.6118 18.7384 38.0176 22.7972 38.4235C25.0295 38.6941 27.2619 38.1529 29.156 36.9353L43.7001 27.5323C44.5795 26.9235 44.9178 25.7735 44.4442 24.6912Z" fill="#FABDAB"/>
<path d="M43.4295 23.8117C43.8354 24.8264 43.4295 25.9088 42.6178 26.45L30.4413 34.3647C28.8854 35.3794 27.0589 35.9206 25.2325 35.9882C10.2825 36.597 9.4707 39.3706 9.4707 39.3706C12.0413 37.6117 18.7384 38.0176 22.7972 38.4235C25.0295 38.6941 27.2619 38.1529 29.156 36.9353L43.7001 27.5323C45.1207 26.5853 44.9178 24.2853 43.4295 23.8117Z" fill="#F2A496"/>
<path d="M33.0119 25.3C32.606 24.6912 31.7942 24.4882 31.1177 24.6912L29.5619 25.2323C29.2913 26.6529 29.5619 27.8029 30.5089 28.547L32.403 27.6676C33.3501 27.3294 33.6207 26.1117 33.0119 25.3Z" fill="#F8F9FE"/>
<path d="M33.0118 25.3C32.6736 24.8265 31.9971 24.4882 31.3206 24.6912C32.2 24.8941 32.7412 25.7059 32.5383 26.6529C32.2677 27.7353 30.3736 28.547 30.5089 28.6147L32.403 27.7353C33.35 27.3294 33.6206 26.1117 33.0118 25.3Z" fill="#F3F1FC"/>
<path d="M34.0943 26.8559C33.6207 28.75 31.3884 29.1559 29.8325 29.9C26.9237 30.9823 23.8796 31.8617 20.8354 32.6059C22.7972 31.9294 24.8266 31.2529 26.7884 30.5765L29.7649 29.5617C31.3207 28.9529 33.4178 28.6147 34.0943 26.8559Z" fill="#F2A496"/>
<path d="M10.8914 23.3382H5.88554C5.34436 23.3382 4.93848 23.7441 4.93848 24.2853V39.5059C4.93848 40.047 5.34436 40.4529 5.88554 40.4529H10.8914C11.4326 40.4529 11.8385 40.047 11.8385 39.5059V24.2853C11.7708 23.7441 11.3649 23.3382 10.8914 23.3382Z" fill="#E9E7FC"/>
<path d="M8.52362 21.7823H2.30009C1.75891 21.7823 1.35303 22.1882 1.35303 22.7294V41.0618C1.35303 41.5353 1.75891 41.9412 2.30009 41.9412H8.52362C9.06479 41.9412 9.47067 41.5353 9.47067 40.9941V22.7294C9.47067 22.1882 9.06479 21.7823 8.52362 21.7823Z" fill="#4C5C75"/>
<path d="M2.30031 41.9412H8.52384C9.06502 41.9412 9.4709 41.5353 9.4709 40.9941V22.7294C9.4709 22.5265 9.40325 22.3912 9.33561 22.2559C8.79443 25.7735 6.49443 38.6265 1.4209 41.4C1.55619 41.7382 1.89443 41.9412 2.30031 41.9412Z" fill="#1D2943"/>
<path d="M8.38849 40.9264C8.25319 39.7764 8.18555 38.6941 8.18555 37.5441C8.18555 36.4617 8.25319 35.2441 8.38849 34.1617C8.52378 35.2441 8.59143 36.5294 8.59143 37.5441C8.59143 38.6941 8.52378 39.7764 8.38849 40.9264Z" fill="white"/>
<path d="M5.41188 27.0588C6.34589 27.0588 7.10306 26.3016 7.10306 25.3676C7.10306 24.4336 6.34589 23.6765 5.41188 23.6765C4.47787 23.6765 3.7207 24.4336 3.7207 25.3676C3.7207 26.3016 4.47787 27.0588 5.41188 27.0588Z" fill="#E9E7FC"/>
<path d="M5.75018 23.7441C6.08841 24.0147 6.29135 24.4882 6.29135 24.9618C6.29135 25.9088 5.54724 26.6529 4.60018 26.6529C4.53253 26.6529 4.39724 26.6529 4.32959 26.6529C4.60018 26.8559 5.00606 27.0588 5.41194 27.0588C6.359 27.0588 7.10312 26.3147 7.10312 25.3676C7.10312 24.5559 6.4943 23.8794 5.75018 23.7441Z" fill="#DEDFFB"/>
<path d="M18.9411 12.5147V7.71175C18.9411 6.69704 18.5353 5.81763 17.8588 5.14116C17.1823 4.46469 16.3029 4.05881 15.2882 4.05881C13.2588 4.05881 11.6353 5.68234 11.6353 7.71175V12.5147C14.2735 13.1235 16.7088 13.1235 18.9411 12.5147Z" fill="#1D2943"/>
<path d="M21.1737 17.3176C21.1737 20.0235 9.33545 20.0235 9.33545 17.3176C9.33545 15.4235 10.8913 13.9353 12.7178 13.9353H13.056C13.056 15.1529 14.0707 16.1676 15.2884 16.1676C16.506 16.1676 17.5207 15.1529 17.5207 13.9353H17.7237C19.6178 13.9353 21.1737 15.4235 21.1737 17.3176Z" fill="#78E75A"/>
<path d="M21.1737 17.3176C21.1737 16.1 20.5649 15.0176 19.5502 14.4088C19.0767 15.1529 16.912 17.6559 9.94434 18.2647C12.4473 19.9559 21.1737 19.6853 21.1737 17.3176Z" fill="#72D561"/>
<path d="M17.5209 13.9353C17.5209 15.1529 16.5062 16.1676 15.2885 16.1676C14.0709 16.1676 13.0562 15.1529 13.0562 13.9353H17.5209Z" fill="white"/>
<path d="M16.7768 12.4471V13.9353C16.7768 14.7471 16.1003 15.4235 15.2885 15.4235C14.4768 15.4235 13.8003 14.7471 13.8003 13.9353V12.4471H16.7768Z" fill="#FABDAB"/>
<path d="M16.7768 12.7853V13.6647C14.3415 13.8 13.8003 12.9206 13.8003 12.9206V12.7853H16.7768Z" fill="#EA8B82"/>
<path d="M18.0619 8.45586V10.5529C18.0619 11.9735 16.9796 13.2588 15.559 13.3941C13.9355 13.5294 12.5825 12.2441 12.5825 10.6882V8.52351C12.5825 6.89998 18.0619 6.89998 18.0619 8.45586Z" fill="#FABDAB"/>
<path d="M14.4766 11.6353C14.409 11.6353 14.3413 11.7706 14.3413 11.8382C14.4766 12.1765 14.8148 12.3794 15.2207 12.3794C15.6266 12.3794 15.9648 12.1765 16.1001 11.8382C16.1678 11.7706 16.1001 11.6353 15.9648 11.6353H14.4766Z" fill="white"/>
<path d="M15.6267 10.7559C15.559 10.8912 15.4237 11.0264 15.2884 11.0264C15.0855 11.0264 14.9502 10.8912 14.9502 10.7559H15.6267Z" fill="#EA8B82"/>
<path d="M14.2739 9.74117C14.2739 9.87646 14.1386 10.0794 13.9356 10.0794C13.8003 10.0794 13.665 9.94411 13.665 9.74117C13.665 9.60587 13.8003 9.47058 13.9356 9.47058C14.1386 9.47058 14.2739 9.60587 14.2739 9.74117Z" fill="#1D2943"/>
<path d="M16.8447 9.74117C16.8447 9.87646 16.7094 10.0794 16.5064 10.0794C16.3711 10.0794 16.2358 9.94411 16.2358 9.74117C16.2358 9.60587 16.3711 9.47058 16.5064 9.47058C16.7094 9.47058 16.8447 9.60587 16.8447 9.74117Z" fill="#1D2943"/>
<path d="M14.6794 9.06468C14.6794 9.13232 14.6117 9.19997 14.5441 9.19997H13.3941C13.3264 9.19997 13.2588 9.13232 13.2588 9.06468C13.2588 8.99703 13.3264 8.92938 13.3941 8.92938H14.5441C14.6117 8.92938 14.6794 8.99703 14.6794 9.06468Z" fill="#1D2943"/>
<path d="M17.2502 9.06468C17.2502 9.13232 17.1825 9.19997 17.1149 9.19997H15.9649C15.8972 9.19997 15.8296 9.13232 15.8296 9.06468C15.8296 8.99703 15.8972 8.92938 15.9649 8.92938H17.1149C17.1825 8.92938 17.2502 8.99703 17.2502 9.06468Z" fill="#1D2943"/>
<path d="M19.0767 9.47058C19.0767 10.0118 18.6032 10.4853 18.062 10.4853V8.45587C18.6032 8.45587 19.0767 8.9294 19.0767 9.47058Z" fill="#FABDAB"/>
<path d="M18.265 8.45586V10.4176C18.1973 10.4176 18.1297 10.4176 18.062 10.4176V8.38821C18.1297 8.45586 18.1973 8.45586 18.265 8.45586Z" fill="#EA8B82"/>
<path d="M11.5679 9.47058C11.5679 10.0118 12.0414 10.4853 12.5826 10.4853V8.45587C12.0414 8.45587 11.5679 8.9294 11.5679 9.47058Z" fill="#FABDAB"/>
<path d="M12.3794 8.45586V10.4176H12.5823V8.38821C12.5147 8.45586 12.447 8.45586 12.3794 8.45586Z" fill="#EA8B82"/>
<path d="M12.853 6.56176C12.9883 6.02058 13.3266 5.6147 13.8001 5.34411C14.2736 5.07352 14.8148 4.93823 15.356 5.07352C14.8824 5.20882 14.4089 5.34411 14.003 5.6147C13.5295 5.81764 13.1913 6.15588 12.853 6.56176Z" fill="white"/>
<path d="M39.3032 7.71175V15.0176H32.0649V7.71175C32.0649 5.68234 33.6885 4.05881 35.7179 4.05881C36.7326 4.05881 37.612 4.46469 38.2885 5.14116C38.8973 5.81763 39.3032 6.76469 39.3032 7.71175Z" fill="#1D2943"/>
<path d="M41.5355 17.3176C41.5355 20.0235 29.6973 20.0235 29.6973 17.3176C29.6973 15.4235 31.2531 13.9353 33.0796 13.9353H33.4179C33.4179 15.1529 34.4326 16.1676 35.6502 16.1676C36.8679 16.1676 37.8826 15.1529 37.8826 13.9353H38.0855C40.0473 13.9353 41.5355 15.4235 41.5355 17.3176Z" fill="#57B3FE"/>
<path d="M41.5356 17.3176C41.5356 16.1 40.9267 15.0176 39.912 14.4088C39.4385 15.1529 37.2738 17.6559 30.3062 18.2647C32.8091 19.9559 41.5356 19.6853 41.5356 17.3176Z" fill="#5094FF"/>
<path d="M37.9501 13.9353C37.9501 15.1529 36.9354 16.1676 35.7177 16.1676C34.5001 16.1676 33.4854 15.1529 33.4854 13.9353H37.9501Z" fill="white"/>
<path d="M37.206 12.4471V13.9353C37.206 14.7471 36.5295 15.4235 35.7177 15.4235C34.906 15.4235 34.2295 14.7471 34.2295 13.9353V12.4471H37.206Z" fill="#FABDAB"/>
<path d="M37.206 12.7853V13.6647C34.7707 13.8 34.2295 12.9206 34.2295 12.9206V12.7853H37.206Z" fill="#EA8B82"/>
<path d="M38.4237 8.45586V10.5529C38.4237 11.9735 37.3414 13.2588 35.9208 13.3941C34.2973 13.5294 32.9443 12.2441 32.9443 10.6882V8.52351C32.9443 6.89998 38.4237 6.89998 38.4237 8.45586Z" fill="#FABDAB"/>
<path d="M34.9063 11.6353C34.8386 11.6353 34.771 11.7706 34.771 11.8382C34.9063 12.1765 35.2445 12.3794 35.6504 12.3794C36.0563 12.3794 36.3945 12.1765 36.5298 11.8382C36.5975 11.7706 36.5298 11.6353 36.3945 11.6353H34.9063Z" fill="white"/>
<path d="M35.9885 10.7559C35.9208 10.8912 35.7855 11.0264 35.6502 11.0264C35.4473 11.0264 35.312 10.8912 35.312 10.7559H35.9885Z" fill="#EA8B82"/>
<path d="M34.7031 9.74117C34.7031 9.87646 34.5678 10.0794 34.3648 10.0794C34.2295 10.0794 34.0942 9.94411 34.0942 9.74117C34.0942 9.60587 34.2295 9.47058 34.3648 9.47058C34.5678 9.47058 34.7031 9.60587 34.7031 9.74117Z" fill="#1D2943"/>
<path d="M37.206 9.74117C37.206 9.87646 37.0707 10.0794 36.8678 10.0794C36.7325 10.0794 36.5972 9.94411 36.5972 9.74117C36.5972 9.60587 36.7325 9.47058 36.8678 9.47058C37.0707 9.47058 37.206 9.60587 37.206 9.74117Z" fill="#1D2943"/>
<path d="M35.0414 9.06468C35.0414 9.13232 34.9738 9.19997 34.9061 9.19997H33.8238C33.7561 9.19997 33.6885 9.13232 33.6885 9.06468C33.6885 8.99703 33.7561 8.92938 33.8238 8.92938H34.9738C35.0414 8.92938 35.0414 8.99703 35.0414 9.06468Z" fill="#1D2943"/>
<path d="M37.612 9.06468C37.612 9.13232 37.5443 9.19997 37.4767 9.19997H36.3267C36.2591 9.19997 36.1914 9.13232 36.1914 9.06468C36.1914 8.99703 36.2591 8.92938 36.3267 8.92938H37.4767C37.5443 8.92938 37.612 8.99703 37.612 9.06468Z" fill="#1D2943"/>
<path d="M39.4385 9.47058C39.4385 10.0118 38.965 10.4853 38.4238 10.4853V8.45587C38.965 8.45587 39.4385 8.9294 39.4385 9.47058Z" fill="#FABDAB"/>
<path d="M38.6268 8.45586V10.4176C38.5591 10.4176 38.4915 10.4176 38.4238 10.4176V8.38821C38.4915 8.45586 38.5591 8.45586 38.6268 8.45586Z" fill="#EA8B82"/>
<path d="M31.9297 9.47058C31.9297 10.0118 32.4032 10.4853 32.9444 10.4853V8.45587C32.4032 8.45587 31.9297 8.9294 31.9297 9.47058Z" fill="#FABDAB"/>
<path d="M32.7412 8.45586V10.4176H32.9442V8.38821C32.8765 8.45586 32.8089 8.45586 32.7412 8.45586Z" fill="#EA8B82"/>
<path d="M33.2827 6.56176C33.418 6.02058 33.7562 5.6147 34.2298 5.34411C34.7033 5.07352 35.2445 4.93823 35.7857 5.07352C35.3121 5.20882 34.8386 5.34411 34.4327 5.6147C33.9592 5.81764 33.5533 6.15588 33.2827 6.56176Z" fill="white"/>
<path d="M32.8091 20.5647C32.8091 22.4588 28.818 23.0676 26.9915 23.2029C24.3532 23.4735 17.0474 23.2029 17.0474 20.5647C17.0474 19.2794 17.5885 18.197 18.4003 17.3176C18.7385 16.9794 19.0768 16.7088 19.4827 16.5059C20.0915 16.1676 20.8356 15.9647 21.6474 15.9647H22.0532H28.0062H28.2768C28.5474 15.9647 28.8856 15.9647 29.1562 16.0323C29.2915 16.0323 29.4268 16.1 29.5621 16.1676C31.4562 16.7765 32.8091 18.5353 32.8091 20.5647Z" fill="#F34B58"/>
<path d="M21.9858 16.0323L22.73 19.0088C22.8653 19.55 23.4064 19.6853 23.677 19.4147L25.03 18.1294L23.1358 15.8294L21.9858 16.0323Z" fill="#E9E7FC"/>
<path d="M28.0739 16.0324L27.2621 19.2118C27.1945 19.6177 26.6533 19.7529 26.3827 19.4824L25.0298 18.1971L26.9239 15.8971L28.0739 16.0324Z" fill="#E9E7FC"/>
<path d="M26.924 14.3412V16.2353C26.924 17.25 26.0446 18.1294 25.0299 18.1294C24.0152 18.1294 23.1357 17.25 23.1357 16.2353V14.3412H26.924Z" fill="#FABDAB"/>
<path d="M26.924 14.8147V15.897C23.8799 16.0323 23.1357 14.95 23.1357 14.95V14.747H26.924V14.8147Z" fill="#EA8B82"/>
<path d="M28.4796 7.84705V12.1088C28.4796 14.0029 26.9237 15.5588 25.0296 15.5588C23.1355 15.5588 21.5796 14.0029 21.5796 12.1088V7.84705H28.4796Z" fill="#FABDAB"/>
<path d="M29.6295 10.9588C29.6295 11.5676 29.156 12.1088 28.4795 12.1088V9.87645C29.0883 9.80881 29.6295 10.2823 29.6295 10.9588Z" fill="#FABDAB"/>
<path d="M28.7501 9.80881V12.0412C28.6824 12.0412 28.6148 12.0412 28.4795 12.0412V9.80881H28.7501Z" fill="#EA8B82"/>
<path d="M20.4297 10.9588C20.4297 11.5676 20.9032 12.1088 21.5797 12.1088V9.87645C20.9032 9.80881 20.4297 10.2823 20.4297 10.9588Z" fill="#FABDAB"/>
<path d="M21.3091 9.80881V12.0412H21.5797V9.80881C21.4444 9.80881 21.3767 9.80881 21.3091 9.80881Z" fill="#EA8B82"/>
<path d="M24.0149 13.3264C23.8796 13.3264 23.8119 13.4617 23.8796 13.597C24.0825 14.0029 24.4884 14.2735 24.9619 14.2735C25.4354 14.2735 25.909 14.0029 26.0443 13.597C26.1119 13.4617 26.0443 13.3264 25.909 13.3264H24.0149Z" fill="white"/>
<path d="M25.4353 12.1765C25.3677 12.3794 25.1648 12.5147 24.9618 12.5147C24.7589 12.5147 24.5559 12.3794 24.4883 12.1765H25.4353Z" fill="#EA8B82"/>
<path d="M23.7444 10.9588C23.7444 11.1617 23.5414 11.3647 23.3385 11.3647C23.1356 11.3647 22.9326 11.1617 22.9326 10.9588C22.9326 10.7559 23.1356 10.5529 23.3385 10.5529C23.5414 10.6206 23.7444 10.7559 23.7444 10.9588Z" fill="#1D2943"/>
<path d="M26.9236 10.9588C26.9236 11.1617 26.7206 11.3647 26.5177 11.3647C26.3148 11.3647 26.1118 11.1617 26.1118 10.9588C26.1118 10.7559 26.3148 10.5529 26.5177 10.5529C26.7883 10.6206 26.9236 10.7559 26.9236 10.9588Z" fill="#1D2943"/>
<path d="M24.218 10.0794C24.218 10.147 24.1504 10.2147 24.0827 10.2147H22.6622C22.5945 10.2147 22.5269 10.147 22.5269 10.0794C22.5269 10.0117 22.5945 9.94409 22.6622 9.94409H24.0827C24.1504 9.94409 24.218 10.0117 24.218 10.0794Z" fill="#1D2943"/>
<path d="M27.4651 10.0794C27.4651 10.147 27.3975 10.2147 27.3298 10.2147H25.9092C25.8416 10.2147 25.7739 10.147 25.7739 10.0794C25.7739 10.0117 25.8416 9.94409 25.9092 9.94409H27.3298C27.3975 9.94409 27.4651 10.0117 27.4651 10.0794Z" fill="#1D2943"/>
<path d="M28.615 11.2294C28.3444 10.4853 28.0738 9.26763 27.8032 7.91469C25.5709 8.7941 23.0003 8.59116 21.5797 7.6441C20.2944 6.76469 20.4973 5.41175 21.512 4.73528C22.7973 3.78822 25.2326 3.65293 26.9915 5.07352C26.9915 5.07352 29.2914 4.1941 28.4797 6.42646C29.9679 5.95293 29.4944 8.32058 28.615 11.2294Z" fill="#1D2943"/>
<path d="M21.3766 6.42647C22.7972 5.95294 22.3237 8.32059 21.4443 11.2294C21.1737 10.4853 20.9031 9.26765 20.6325 7.9147C20.6325 7.9147 20.4296 6.35882 21.3766 6.42647Z" fill="#1D2943"/>
<path d="M32.8091 20.5647C32.8091 18.8059 31.862 17.3176 30.4414 16.5735C29.9003 18.4 27.6003 22.5941 17.1826 21.0382C18.4679 24.2176 32.8091 24.0147 32.8091 20.5647Z" fill="#E11226"/>
<path d="M32.0648 19.9559C32.1325 20.6323 31.7266 21.2412 31.1854 21.647C30.5089 22.0529 29.7648 22.0529 29.2236 21.7823C29.9001 21.7147 30.4413 21.5118 30.9148 21.2412C31.3207 20.9029 31.7266 20.497 32.0648 19.9559Z" fill="white"/>
<path d="M41.0619 16.2353C41.1295 16.9118 40.7236 17.5206 40.1825 17.9265C39.9119 18.1294 39.5736 18.2647 39.2354 18.2647C38.8972 18.2647 38.5589 18.2647 38.2207 18.0618C38.8972 17.9941 39.4384 17.7912 39.9119 17.5206C40.3854 17.25 40.7236 16.7765 41.0619 16.2353Z" fill="white"/>
<path d="M10.35 16.7088C10.2823 16.2353 10.6206 15.7618 11.0264 15.4912C11.2294 15.3559 11.5 15.2882 11.7706 15.2206C12.0411 15.2206 12.3117 15.2206 12.5147 15.3559C12.0411 15.4235 11.6353 15.5588 11.297 15.7618C10.8235 15.9647 10.5529 16.2353 10.35 16.7088Z" fill="white"/>
</svg>
