<svg width="166" height="147" viewBox="0 0 166 147" fill="none" xmlns="http://www.w3.org/2000/svg">
<path d="M24.5339 123.64L45.9481 97.6693C46.2648 97.2853 46.8156 97.1926 47.2405 97.4518L74.9592 114.365C75.4978 114.694 75.6012 115.433 75.1736 115.896L47.9961 145.377C47.4134 146.009 46.3574 145.66 46.2665 144.805L44.1046 124.483C44.0467 123.939 43.5609 123.542 43.0154 123.594L25.4003 125.271C24.5138 125.356 23.9674 124.327 24.5339 123.64Z" fill="#016BE3"/>
<path d="M140.466 123.64L119.052 97.6693C118.735 97.2853 118.184 97.1926 117.759 97.4518L90.0408 114.365C89.5022 114.694 89.3988 115.433 89.8264 115.896L117.004 145.377C117.587 146.009 118.643 145.66 118.734 144.805L120.895 124.483C120.953 123.939 121.439 123.542 121.985 123.594L139.6 125.271C140.486 125.356 141.033 124.327 140.466 123.64Z" fill="#016BE3"/>
<path d="M83.0003 0.5H144C145.381 0.5 146.5 1.61929 146.5 3V83.0541C146.5 83.8932 146.079 84.6763 145.379 85.1393L84.3792 125.488C83.5429 126.041 82.4571 126.041 81.6208 125.488L20.6208 85.1393C19.9209 84.6763 19.5 83.8932 19.5 83.0541V3C19.5 1.61929 20.6193 0.5 22 0.5H83.0003Z" fill="white" stroke="#D7D7CA"/>
<path d="M83.0002 6.5H138C139.381 6.5 140.5 7.61929 140.5 9V80.8714C140.5 81.7178 140.072 82.5068 139.362 82.9679L83.876 119.01C83.0418 119.552 81.9657 119.548 81.1358 118.999L26.6216 82.9724C25.9213 82.5095 25.5 81.7261 25.5 80.8867V9C25.5 7.61929 26.6193 6.5 28 6.5H83.0002Z" fill="#F8F7E3" stroke="#D7D7CA"/>
<rect y="19" width="166" height="42" rx="4" fill="#016BE3"/>
<path d="M10.056 46.16C9.40533 46.16 8.808 46.08 8.264 45.92C7.72 45.7493 7.22933 45.4987 6.792 45.168C6.35467 44.8373 5.96533 44.4373 5.624 43.968L6.984 42.432C7.50667 43.1573 8.01867 43.6587 8.52 43.936C9.02133 44.2133 9.58667 44.352 10.216 44.352C10.5787 44.352 10.9093 44.2987 11.208 44.192C11.5067 44.0747 11.7413 43.92 11.912 43.728C12.0827 43.5253 12.168 43.296 12.168 43.04C12.168 42.8587 12.1307 42.6933 12.056 42.544C11.992 42.384 11.8907 42.2453 11.752 42.128C11.6133 42 11.4427 41.8827 11.24 41.776C11.0373 41.6693 10.808 41.5787 10.552 41.504C10.296 41.4293 10.0133 41.36 9.704 41.296C9.11733 41.1787 8.60533 41.024 8.168 40.832C7.73067 40.6293 7.36267 40.384 7.064 40.096C6.76533 39.7973 6.54667 39.4667 6.408 39.104C6.26933 38.7307 6.2 38.3093 6.2 37.84C6.2 37.3707 6.30133 36.9387 6.504 36.544C6.71733 36.1493 7.00533 35.808 7.368 35.52C7.73067 35.232 8.152 35.008 8.632 34.848C9.112 34.688 9.62933 34.608 10.184 34.608C10.8133 34.608 11.3733 34.6827 11.864 34.832C12.3653 34.9813 12.8027 35.2053 13.176 35.504C13.56 35.792 13.8747 36.144 14.12 36.56L12.744 37.92C12.5307 37.5893 12.2907 37.3173 12.024 37.104C11.7573 36.88 11.4693 36.7147 11.16 36.608C10.8507 36.4907 10.5253 36.432 10.184 36.432C9.8 36.432 9.464 36.4853 9.176 36.592C8.89867 36.6987 8.68 36.8533 8.52 37.056C8.36 37.248 8.28 37.4827 8.28 37.76C8.28 37.9733 8.328 38.1653 8.424 38.336C8.52 38.496 8.65333 38.64 8.824 38.768C9.00533 38.896 9.23467 39.008 9.512 39.104C9.78933 39.2 10.104 39.2853 10.456 39.36C11.0427 39.4773 11.5707 39.6373 12.04 39.84C12.5093 40.032 12.9093 40.2667 13.24 40.544C13.5707 40.8107 13.8213 41.12 13.992 41.472C14.1627 41.8133 14.248 42.1973 14.248 42.624C14.248 43.36 14.072 43.9947 13.72 44.528C13.3787 45.0507 12.8933 45.456 12.264 45.744C11.6347 46.0213 10.8987 46.16 10.056 46.16ZM14.1673 46L18.5353 34.8H20.4873L24.8233 46H22.6633L20.2633 39.632C20.2099 39.504 20.1353 39.3013 20.0393 39.024C19.9539 38.7467 19.8579 38.448 19.7513 38.128C19.6446 37.7973 19.5486 37.4933 19.4633 37.216C19.3779 36.928 19.3139 36.72 19.2713 36.592L19.6713 36.576C19.6073 36.7893 19.5326 37.0293 19.4473 37.296C19.3619 37.5627 19.2713 37.84 19.1753 38.128C19.0793 38.416 18.9833 38.6933 18.8873 38.96C18.8019 39.2267 18.7219 39.4667 18.6473 39.68L16.2473 46H14.1673ZM16.1513 43.44L16.8713 41.632H21.9753L22.7433 43.44H16.1513ZM25.4671 46V34.8H27.4351L31.5151 41.44L30.3631 41.424L34.4911 34.8H36.3631V46H34.2991V41.792C34.2991 40.832 34.3205 39.968 34.3631 39.2C34.4165 38.432 34.5018 37.6693 34.6191 36.912L34.8751 37.6L31.4031 42.96H30.3471L26.9871 37.648L27.2111 36.912C27.3285 37.6267 27.4085 38.3627 27.4511 39.12C27.5045 39.8667 27.5311 40.7573 27.5311 41.792V46H25.4671ZM38.2534 46V34.8H45.5814V36.688H40.3014V44.112H45.6454V46H38.2534ZM39.2134 41.2V39.344H44.7654V41.2H39.2134ZM50.7165 46V34.8H55.2125C56.0232 34.8 56.7538 34.9333 57.4045 35.2C58.0658 35.4667 58.6312 35.8507 59.1005 36.352C59.5805 36.8533 59.9432 37.4453 60.1885 38.128C60.4445 38.8107 60.5725 39.568 60.5725 40.4C60.5725 41.232 60.4445 41.9947 60.1885 42.688C59.9432 43.3707 59.5858 43.9627 59.1165 44.464C58.6472 44.9547 58.0818 45.3333 57.4205 45.6C56.7592 45.8667 56.0232 46 55.2125 46H50.7165ZM52.7965 44.384L52.6365 44.08H55.1325C55.6552 44.08 56.1192 43.9947 56.5245 43.824C56.9405 43.6533 57.2925 43.408 57.5805 43.088C57.8685 42.768 58.0872 42.384 58.2365 41.936C58.3858 41.4773 58.4605 40.9653 58.4605 40.4C58.4605 39.8347 58.3858 39.328 58.2365 38.88C58.0872 38.4213 57.8632 38.032 57.5645 37.712C57.2765 37.392 56.9298 37.1467 56.5245 36.976C56.1192 36.8053 55.6552 36.72 55.1325 36.72H52.5885L52.7965 36.448V44.384ZM60.1454 46L64.5134 34.8H66.4654L70.8014 46H68.6414L66.2414 39.632C66.188 39.504 66.1134 39.3013 66.0174 39.024C65.932 38.7467 65.836 38.448 65.7294 38.128C65.6227 37.7973 65.5267 37.4933 65.4414 37.216C65.356 36.928 65.292 36.72 65.2494 36.592L65.6494 36.576C65.5854 36.7893 65.5107 37.0293 65.4254 37.296C65.34 37.5627 65.2494 37.84 65.1534 38.128C65.0574 38.416 64.9614 38.6933 64.8654 38.96C64.78 39.2267 64.7 39.4667 64.6254 39.68L62.2254 46H60.1454ZM62.1294 43.44L62.8494 41.632H67.9534L68.7214 43.44H62.1294ZM73.14 46V40.416L73.252 41.2L68.724 34.8H71.156L74.612 39.76L73.86 39.712L76.98 34.8H79.316L74.98 41.376L75.22 40.288V46H73.14ZM83.3459 46V34.8H88.2099C88.8819 34.8 89.4952 34.96 90.0499 35.28C90.6045 35.5893 91.0419 36.016 91.3619 36.56C91.6925 37.0933 91.8579 37.696 91.8579 38.368C91.8579 39.008 91.6925 39.6 91.3619 40.144C91.0419 40.6773 90.6045 41.104 90.0499 41.424C89.5059 41.7333 88.8925 41.888 88.2099 41.888H85.3779V46H83.3459ZM89.8419 46L86.9939 40.944L89.1379 40.544L92.3059 46.016L89.8419 46ZM85.3779 40.08H88.2259C88.5352 40.08 88.8019 40.0107 89.0259 39.872C89.2605 39.7227 89.4419 39.52 89.5699 39.264C89.6979 39.008 89.7619 38.7253 89.7619 38.416C89.7619 38.064 89.6819 37.76 89.5219 37.504C89.3619 37.248 89.1379 37.0453 88.8499 36.896C88.5619 36.7467 88.2312 36.672 87.8579 36.672H85.3779V40.08ZM93.3821 46V34.8H100.71V36.688H95.4301V44.112H100.774V46H93.3821ZM94.3421 41.2V39.344H99.8941V41.2H94.3421ZM105.814 46.16C105.163 46.16 104.566 46.08 104.022 45.92C103.478 45.7493 102.987 45.4987 102.55 45.168C102.113 44.8373 101.723 44.4373 101.382 43.968L102.742 42.432C103.265 43.1573 103.777 43.6587 104.278 43.936C104.779 44.2133 105.345 44.352 105.974 44.352C106.337 44.352 106.667 44.2987 106.966 44.192C107.265 44.0747 107.499 43.92 107.67 43.728C107.841 43.5253 107.926 43.296 107.926 43.04C107.926 42.8587 107.889 42.6933 107.814 42.544C107.75 42.384 107.649 42.2453 107.51 42.128C107.371 42 107.201 41.8827 106.998 41.776C106.795 41.6693 106.566 41.5787 106.31 41.504C106.054 41.4293 105.771 41.36 105.462 41.296C104.875 41.1787 104.363 41.024 103.926 40.832C103.489 40.6293 103.121 40.384 102.822 40.096C102.523 39.7973 102.305 39.4667 102.166 39.104C102.027 38.7307 101.958 38.3093 101.958 37.84C101.958 37.3707 102.059 36.9387 102.262 36.544C102.475 36.1493 102.763 35.808 103.126 35.52C103.489 35.232 103.91 35.008 104.39 34.848C104.87 34.688 105.387 34.608 105.942 34.608C106.571 34.608 107.131 34.6827 107.622 34.832C108.123 34.9813 108.561 35.2053 108.934 35.504C109.318 35.792 109.633 36.144 109.878 36.56L108.502 37.92C108.289 37.5893 108.049 37.3173 107.782 37.104C107.515 36.88 107.227 36.7147 106.918 36.608C106.609 36.4907 106.283 36.432 105.942 36.432C105.558 36.432 105.222 36.4853 104.934 36.592C104.657 36.6987 104.438 36.8533 104.278 37.056C104.118 37.248 104.038 37.4827 104.038 37.76C104.038 37.9733 104.086 38.1653 104.182 38.336C104.278 38.496 104.411 38.64 104.582 38.768C104.763 38.896 104.993 39.008 105.27 39.104C105.547 39.2 105.862 39.2853 106.214 39.36C106.801 39.4773 107.329 39.6373 107.798 39.84C108.267 40.032 108.667 40.2667 108.998 40.544C109.329 40.8107 109.579 41.12 109.75 41.472C109.921 41.8133 110.006 42.1973 110.006 42.624C110.006 43.36 109.83 43.9947 109.478 44.528C109.137 45.0507 108.651 45.456 108.022 45.744C107.393 46.0213 106.657 46.16 105.814 46.16ZM111.173 46V34.8H115.829C116.469 34.8 117.045 34.9547 117.557 35.264C118.08 35.5733 118.496 35.9947 118.805 36.528C119.115 37.0613 119.269 37.6587 119.269 38.32C119.269 38.992 119.115 39.6 118.805 40.144C118.496 40.6773 118.08 41.104 117.557 41.424C117.045 41.744 116.469 41.904 115.829 41.904H113.253V46H111.173ZM113.253 39.984H115.685C115.952 39.984 116.192 39.9093 116.405 39.76C116.629 39.6107 116.805 39.4133 116.933 39.168C117.072 38.9227 117.141 38.6453 117.141 38.336C117.141 38.0267 117.072 37.7547 116.933 37.52C116.805 37.2747 116.629 37.0827 116.405 36.944C116.192 36.7947 115.952 36.72 115.685 36.72H113.253V39.984ZM125.182 46.16C124.382 46.16 123.641 46.016 122.958 45.728C122.276 45.44 121.678 45.04 121.166 44.528C120.665 44.0053 120.276 43.392 119.998 42.688C119.721 41.984 119.582 41.216 119.582 40.384C119.582 39.552 119.721 38.784 119.998 38.08C120.276 37.376 120.665 36.768 121.166 36.256C121.678 35.7333 122.276 35.328 122.958 35.04C123.641 34.752 124.382 34.608 125.182 34.608C125.993 34.608 126.74 34.752 127.422 35.04C128.105 35.328 128.697 35.7333 129.198 36.256C129.7 36.7787 130.089 37.392 130.366 38.096C130.644 38.7893 130.782 39.552 130.782 40.384C130.782 41.2053 130.644 41.968 130.366 42.672C130.089 43.376 129.7 43.9893 129.198 44.512C128.697 45.0347 128.105 45.44 127.422 45.728C126.74 46.016 125.993 46.16 125.182 46.16ZM125.182 44.176C125.694 44.176 126.158 44.0853 126.574 43.904C127.001 43.712 127.369 43.4453 127.678 43.104C127.988 42.752 128.228 42.3467 128.398 41.888C128.58 41.4293 128.67 40.928 128.67 40.384C128.67 39.84 128.58 39.3387 128.398 38.88C128.228 38.4213 127.988 38.0213 127.678 37.68C127.369 37.328 127.001 37.0613 126.574 36.88C126.158 36.688 125.694 36.592 125.182 36.592C124.681 36.592 124.217 36.688 123.79 36.88C123.364 37.0613 122.996 37.3227 122.686 37.664C122.377 38.0053 122.137 38.4053 121.966 38.864C121.796 39.3227 121.71 39.8293 121.71 40.384C121.71 40.928 121.796 41.4347 121.966 41.904C122.137 42.3627 122.377 42.7627 122.686 43.104C122.996 43.4453 123.364 43.712 123.79 43.904C124.217 44.0853 124.681 44.176 125.182 44.176ZM131.918 46V34.8H133.79L140.286 43.552L139.934 43.616C139.891 43.3173 139.854 43.0133 139.822 42.704C139.79 42.384 139.758 42.0533 139.726 41.712C139.704 41.3707 139.683 41.0133 139.662 40.64C139.651 40.2667 139.64 39.8773 139.63 39.472C139.619 39.056 139.614 38.6187 139.614 38.16V34.8H141.678V46H139.774L133.246 37.376L133.662 37.264C133.715 37.8613 133.758 38.3733 133.79 38.8C133.832 39.216 133.864 39.5787 133.886 39.888C133.907 40.1867 133.923 40.4373 133.934 40.64C133.955 40.8427 133.966 41.0293 133.966 41.2C133.976 41.36 133.982 41.5147 133.982 41.664V46H131.918ZM147.115 46.16C146.465 46.16 145.867 46.08 145.323 45.92C144.779 45.7493 144.289 45.4987 143.851 45.168C143.414 44.8373 143.025 44.4373 142.683 43.968L144.043 42.432C144.566 43.1573 145.078 43.6587 145.579 43.936C146.081 44.2133 146.646 44.352 147.275 44.352C147.638 44.352 147.969 44.2987 148.267 44.192C148.566 44.0747 148.801 43.92 148.971 43.728C149.142 43.5253 149.227 43.296 149.227 43.04C149.227 42.8587 149.19 42.6933 149.115 42.544C149.051 42.384 148.95 42.2453 148.811 42.128C148.673 42 148.502 41.8827 148.299 41.776C148.097 41.6693 147.867 41.5787 147.611 41.504C147.355 41.4293 147.073 41.36 146.763 41.296C146.177 41.1787 145.665 41.024 145.227 40.832C144.79 40.6293 144.422 40.384 144.123 40.096C143.825 39.7973 143.606 39.4667 143.467 39.104C143.329 38.7307 143.259 38.3093 143.259 37.84C143.259 37.3707 143.361 36.9387 143.563 36.544C143.777 36.1493 144.065 35.808 144.427 35.52C144.79 35.232 145.211 35.008 145.691 34.848C146.171 34.688 146.689 34.608 147.243 34.608C147.873 34.608 148.433 34.6827 148.923 34.832C149.425 34.9813 149.862 35.2053 150.235 35.504C150.619 35.792 150.934 36.144 151.179 36.56L149.803 37.92C149.59 37.5893 149.35 37.3173 149.083 37.104C148.817 36.88 148.529 36.7147 148.219 36.608C147.91 36.4907 147.585 36.432 147.243 36.432C146.859 36.432 146.523 36.4853 146.235 36.592C145.958 36.6987 145.739 36.8533 145.579 37.056C145.419 37.248 145.339 37.4827 145.339 37.76C145.339 37.9733 145.387 38.1653 145.483 38.336C145.579 38.496 145.713 38.64 145.883 38.768C146.065 38.896 146.294 39.008 146.571 39.104C146.849 39.2 147.163 39.2853 147.515 39.36C148.102 39.4773 148.63 39.6373 149.099 39.84C149.569 40.032 149.969 40.2667 150.299 40.544C150.63 40.8107 150.881 41.12 151.051 41.472C151.222 41.8133 151.307 42.1973 151.307 42.624C151.307 43.36 151.131 43.9947 150.779 44.528C150.438 45.0507 149.953 45.456 149.323 45.744C148.694 46.0213 147.958 46.16 147.115 46.16ZM152.475 46V34.8H159.803V36.688H154.523V44.112H159.867V46H152.475ZM153.435 41.2V39.344H158.987V41.2H153.435Z" fill="white"/>
<path d="M46.768 81.14C46.0307 81.14 45.3493 81.014 44.724 80.762C44.0987 80.5007 43.5527 80.1413 43.086 79.684C42.6287 79.2267 42.274 78.6947 42.022 78.088C41.77 77.472 41.644 76.8047 41.644 76.086C41.644 75.3767 41.77 74.7187 42.022 74.112C42.2833 73.496 42.6473 72.964 43.114 72.516C43.5807 72.0587 44.1267 71.704 44.752 71.452C45.3867 71.2 46.068 71.074 46.796 71.074C47.3093 71.074 47.804 71.144 48.28 71.284C48.756 71.424 49.1853 71.62 49.568 71.872C49.9507 72.124 50.268 72.4087 50.52 72.726L49.372 73.93C49.1107 73.678 48.84 73.468 48.56 73.3C48.2893 73.132 48.0047 73.0013 47.706 72.908C47.4073 72.8147 47.0993 72.768 46.782 72.768C46.3153 72.768 45.8813 72.852 45.48 73.02C45.088 73.188 44.7427 73.4213 44.444 73.72C44.1547 74.0187 43.926 74.3687 43.758 74.77C43.59 75.1713 43.506 75.61 43.506 76.086C43.506 76.5433 43.59 76.9773 43.758 77.388C43.9353 77.7987 44.178 78.158 44.486 78.466C44.794 78.774 45.1487 79.0167 45.55 79.194C45.9607 79.362 46.3947 79.446 46.852 79.446C47.1973 79.446 47.5193 79.3947 47.818 79.292C48.1167 79.1893 48.3827 79.0493 48.616 78.872C48.8493 78.6853 49.0267 78.4707 49.148 78.228C49.2787 77.9853 49.344 77.724 49.344 77.444V77.136L49.596 77.43H46.698V75.806H51.136C51.1547 75.9087 51.1687 76.0253 51.178 76.156C51.1873 76.2773 51.192 76.3987 51.192 76.52C51.2013 76.632 51.206 76.73 51.206 76.814C51.206 77.458 51.094 78.046 50.87 78.578C50.646 79.1007 50.3287 79.5533 49.918 79.936C49.5167 80.3187 49.0453 80.6173 48.504 80.832C47.972 81.0373 47.3933 81.14 46.768 81.14ZM57.0368 81.084C56.2621 81.084 55.5714 80.9207 54.9648 80.594C54.3581 80.258 53.8774 79.8007 53.5228 79.222C53.1774 78.634 53.0048 77.9713 53.0048 77.234V71.186H54.8388V77.108C54.8388 77.5467 54.9368 77.9387 55.1328 78.284C55.3381 78.62 55.6088 78.8907 55.9448 79.096C56.2808 79.3013 56.6448 79.404 57.0368 79.404C57.4661 79.404 57.8534 79.3013 58.1988 79.096C58.5441 78.8907 58.8148 78.62 59.0108 78.284C59.2161 77.9387 59.3188 77.5467 59.3188 77.108V71.186H61.0828V77.234C61.0828 77.9713 60.9054 78.634 60.5508 79.222C60.2054 79.8007 59.7294 80.258 59.1228 80.594C58.5161 80.9207 57.8208 81.084 57.0368 81.084ZM63.6031 81V71.2H67.8591C68.4471 71.2 68.9838 71.34 69.4691 71.62C69.9544 71.8907 70.3371 72.264 70.6171 72.74C70.9064 73.2067 71.0511 73.734 71.0511 74.322C71.0511 74.882 70.9064 75.4 70.6171 75.876C70.3371 76.3427 69.9544 76.716 69.4691 76.996C68.9931 77.2667 68.4564 77.402 67.8591 77.402H65.3811V81H63.6031ZM69.2871 81L66.7951 76.576L68.6711 76.226L71.4431 81.014L69.2871 81ZM65.3811 75.82H67.8731C68.1438 75.82 68.3771 75.7593 68.5731 75.638C68.7784 75.5073 68.9371 75.33 69.0491 75.106C69.1611 74.882 69.2171 74.6347 69.2171 74.364C69.2171 74.056 69.1471 73.79 69.0071 73.566C68.8671 73.342 68.6711 73.1647 68.4191 73.034C68.1671 72.9033 67.8778 72.838 67.5511 72.838H65.3811V75.82ZM72.2728 81L76.0948 71.2H77.8028L81.5968 81H79.7068L77.6068 75.428C77.5602 75.316 77.4948 75.1387 77.4108 74.896C77.3362 74.6533 77.2522 74.392 77.1588 74.112C77.0655 73.8227 76.9815 73.5567 76.9068 73.314C76.8322 73.062 76.7762 72.88 76.7388 72.768L77.0888 72.754C77.0328 72.9407 76.9675 73.1507 76.8928 73.384C76.8182 73.6173 76.7388 73.86 76.6548 74.112C76.5708 74.364 76.4868 74.6067 76.4028 74.84C76.3282 75.0733 76.2582 75.2833 76.1928 75.47L74.0928 81H72.2728ZM74.0088 78.76L74.6388 77.178H79.1048L79.7768 78.76H74.0088ZM83.1402 81V71.2H84.7782L90.4622 78.858L90.1542 78.914C90.1169 78.6527 90.0842 78.3867 90.0562 78.116C90.0282 77.836 90.0002 77.5467 89.9722 77.248C89.9536 76.9493 89.9349 76.6367 89.9162 76.31C89.9069 75.9833 89.8976 75.6427 89.8882 75.288C89.8789 74.924 89.8742 74.5413 89.8742 74.14V71.2H91.6802V81H90.0142L84.3022 73.454L84.6662 73.356C84.7129 73.8787 84.7502 74.3267 84.7782 74.7C84.8156 75.064 84.8436 75.3813 84.8622 75.652C84.8809 75.9133 84.8949 76.1327 84.9042 76.31C84.9229 76.4873 84.9322 76.6507 84.9322 76.8C84.9416 76.94 84.9462 77.0753 84.9462 77.206V81H83.1402ZM96.2701 81V72.88H93.4701V71.2H100.974V72.88H98.0901V81H96.2701ZM102.759 81V71.2H109.171V72.852H104.551V79.348H109.227V81H102.759ZM103.599 76.8V75.176H108.457V76.8H103.599ZM111.509 81V71.2H117.921V72.852H113.301V79.348H117.977V81H111.509ZM112.349 76.8V75.176H117.207V76.8H112.349ZM120.259 81V71.2H124.193C124.903 71.2 125.542 71.3167 126.111 71.55C126.69 71.7833 127.185 72.1193 127.595 72.558C128.015 72.9967 128.333 73.5147 128.547 74.112C128.771 74.7093 128.883 75.372 128.883 76.1C128.883 76.828 128.771 77.4953 128.547 78.102C128.333 78.6993 128.02 79.2173 127.609 79.656C127.199 80.0853 126.704 80.4167 126.125 80.65C125.547 80.8833 124.903 81 124.193 81H120.259ZM122.079 79.586L121.939 79.32H124.123C124.581 79.32 124.987 79.2453 125.341 79.096C125.705 78.9467 126.013 78.732 126.265 78.452C126.517 78.172 126.709 77.836 126.839 77.444C126.97 77.0427 127.035 76.5947 127.035 76.1C127.035 75.6053 126.97 75.162 126.839 74.77C126.709 74.3687 126.513 74.028 126.251 73.748C125.999 73.468 125.696 73.2533 125.341 73.104C124.987 72.9547 124.581 72.88 124.123 72.88H121.897L122.079 72.642V79.586Z" fill="#2C2D53"/>
<path d="M81.2935 92.9885L77 93.5918L80.1008 96.5131C80.1461 96.5557 80.18 96.6085 80.1995 96.6669C80.219 96.7253 80.2236 96.7875 80.2128 96.848L79.4757 101L83.2547 99.0595C83.3303 99.0212 83.4144 99.0011 83.4996 99.0011C83.5849 99.0011 83.6689 99.0212 83.7446 99.0595L87.5189 100.977L86.7872 96.8469C86.7764 96.7864 86.781 96.7242 86.8005 96.6658C86.82 96.6074 86.8539 96.5546 86.8992 96.5119L90 93.5907L85.7134 92.9892C85.6906 92.9861 85.6682 92.981 85.6464 92.9738C85.5482 92.9416 85.4671 92.8728 85.4207 92.7825L83.4888 89L81.5801 92.7817C81.5521 92.8356 81.5116 92.8823 81.4618 92.9182C81.4121 92.954 81.3545 92.9781 81.2935 92.9885Z" fill="#FFAF00"/>
<path d="M95.3119 92.9942L93 93.2959L94.6696 94.7565C94.694 94.7779 94.7123 94.8043 94.7228 94.8335C94.7333 94.8627 94.7358 94.8937 94.73 94.924L94.3331 97L96.3679 96.0298C96.4086 96.0106 96.4539 96.0006 96.4998 96.0006C96.5457 96.0006 96.5909 96.0106 96.6317 96.0298L98.664 96.9883L98.27 94.9234C98.2642 94.8932 98.2667 94.8621 98.2772 94.8329C98.2877 94.8037 98.306 94.7773 98.3304 94.756L100 93.2953L97.6918 92.9946C97.6796 92.9931 97.6675 92.9905 97.6557 92.9869C97.6029 92.9708 97.5592 92.9364 97.5342 92.8912L96.494 91L95.4662 92.8909C95.4511 92.9178 95.4293 92.9411 95.4025 92.9591C95.3758 92.977 95.3447 92.9891 95.3119 92.9942Z" fill="#FFAF00"/>
<path d="M69.3119 92.9942L67 93.2959L68.6696 94.7565C68.694 94.7779 68.7123 94.8043 68.7228 94.8335C68.7333 94.8627 68.7358 94.8937 68.73 94.924L68.3331 97L70.3679 96.0298C70.4086 96.0106 70.4539 96.0006 70.4998 96.0006C70.5457 96.0006 70.5909 96.0106 70.6317 96.0298L72.664 96.9883L72.27 94.9234C72.2642 94.8932 72.2667 94.8621 72.2772 94.8329C72.2877 94.8037 72.306 94.7773 72.3304 94.756L74 93.2953L71.6918 92.9946C71.6796 92.9931 71.6675 92.9905 71.6557 92.9869C71.6029 92.9708 71.5592 92.9364 71.5342 92.8912L70.494 91L69.4662 92.8909C69.4511 92.9178 69.4293 92.9411 69.4025 92.9591C69.3758 92.977 69.3447 92.9891 69.3119 92.9942Z" fill="#FFAF00"/>
</svg>
