<svg width="18" height="18" viewBox="0 0 18 18" fill="none" xmlns="http://www.w3.org/2000/svg">
<g clip-path="url(#clip0_189_3800)">
<path opacity="0.2" d="M18 9C18 4.02944 13.9706 0 9 0C4.02944 0 0 4.02944 0 9C0 13.9706 4.02944 18 9 18C13.9706 18 18 13.9706 18 9Z" fill="url(#paint0_linear_189_3800)"/>
<path d="M15 9C15 5.68629 12.3137 3 9 3C5.68629 3 3 5.68629 3 9C3 12.3137 5.68629 15 9 15C12.3137 15 15 12.3137 15 9Z" fill="url(#paint1_linear_189_3800)"/>
<path d="M6 9.00085L7.9998 11.0014L12 7.00024" stroke="white" stroke-width="2"/>
<path d="M6 8.99938L7.9998 11L12 6.99878" stroke="white" stroke-width="2"/>
</g>
<defs>
<linearGradient id="paint0_linear_189_3800" x1="9" y1="0" x2="9" y2="18" gradientUnits="userSpaceOnUse">
<stop stop-color="#05164D"/>
<stop offset="1" stop-color="#0B2FA3"/>
</linearGradient>
<linearGradient id="paint1_linear_189_3800" x1="9" y1="3" x2="9" y2="15" gradientUnits="userSpaceOnUse">
<stop stop-color="#05164D"/>
<stop offset="1" stop-color="#0B2FA3"/>
</linearGradient>
<clipPath id="clip0_189_3800">
<rect width="18" height="18" fill="white"/>
</clipPath>
</defs>
</svg>
