<svg width="204" height="72" viewBox="0 0 204 72" fill="none" xmlns="http://www.w3.org/2000/svg">
<g clip-path="url(#clip0_189_5197)">
<path d="M43.6162 48.4486C43.6162 48.5469 43.6657 48.6207 43.7647 48.6699C43.8801 48.7027 44.0286 48.7355 44.2101 48.7683C44.3915 48.801 44.5812 48.8256 44.7792 48.842C44.9936 48.842 45.1998 48.842 45.3978 48.842H45.9669V49.924H38.4199V48.842H38.6426C39.1705 48.842 39.6077 48.7846 39.9541 48.6699C40.317 48.5551 40.4984 48.3256 40.4984 47.9814V34.4079C40.4984 34.0636 40.317 33.8341 39.9541 33.7194C39.6077 33.6047 39.1705 33.5473 38.6426 33.5473H38.4199V32.4653H46.1896C48.2516 32.4653 49.8517 32.9161 50.9899 33.8178C52.1448 34.703 52.7221 35.9324 52.7221 37.5062C52.7221 38.5717 52.4498 39.5062 51.9056 40.3094C51.3609 41.0963 50.5858 41.711 49.5795 42.1536C48.5898 42.5799 47.4186 42.793 46.0658 42.793H42.8491V41.5143H45.6947C46.5525 41.5143 47.2618 41.3586 47.8227 41.0471C48.3836 40.7356 48.8042 40.2848 49.0846 39.6947C49.3816 39.1045 49.5301 38.3914 49.5301 37.5554C49.5301 36.7193 49.3898 36.0226 49.1094 35.4652C48.829 34.9079 48.4083 34.4899 47.8474 34.2112C47.3031 33.9161 46.6267 33.7686 45.8184 33.7686H43.6162V48.4486Z" fill="white"/>
<path d="M57.7024 34.7768C57.1582 34.7768 56.713 34.6293 56.3662 34.3342C56.0362 34.0227 55.8715 33.6129 55.8715 33.1047C55.8715 32.5802 56.0362 32.1703 56.3662 31.8753C56.713 31.5802 57.1582 31.4326 57.7024 31.4326C58.2303 31.4326 58.6592 31.5802 58.9891 31.8753C59.3354 32.1703 59.5088 32.5802 59.5088 33.1047C59.5088 33.6129 59.3354 34.0227 58.9891 34.3342C58.6592 34.6293 58.2303 34.7768 57.7024 34.7768ZM59.2365 37.285V48.0552C59.2365 48.3995 59.4017 48.629 59.7317 48.7437C60.078 48.8421 60.4987 48.8913 60.9934 48.8913H61.0184V49.924H54.4858V48.8913H54.5353C55.03 48.8913 55.4426 48.8421 55.7726 48.7437C56.1025 48.629 56.2673 48.3995 56.2673 48.0552V39.3997C56.2673 39.0718 56.1438 38.8505 55.896 38.7358C55.6486 38.6046 55.261 38.4899 54.7332 38.3915L54.4858 38.3423V37.285H59.2365Z" fill="white"/>
<path d="M75.6244 49.9243H69.1418V48.8915H69.1912C69.4712 48.8915 69.7517 48.8833 70.0322 48.8669C70.329 48.8505 70.5682 48.8259 70.7498 48.7931C70.9477 48.744 71.0466 48.6866 71.0466 48.621L67.6322 44.1703L67.5332 44.0965L63.698 39.0311C63.5496 38.8343 63.4007 38.6868 63.2523 38.5884C63.1207 38.4901 62.9636 38.4245 62.7821 38.3917C62.601 38.3589 62.3863 38.3425 62.139 38.3425H62.114V37.2852H68.3747V38.3179H68.3247C68.0611 38.3179 67.7969 38.3261 67.5332 38.3425C67.2859 38.3589 67.0793 38.3835 66.9146 38.4163C66.7494 38.4491 66.6672 38.4983 66.6672 38.5638L69.8593 42.7687L69.9583 42.867L73.8674 47.9817C74.0327 48.1784 74.1892 48.3505 74.3376 48.498C74.5029 48.6292 74.6844 48.7275 74.8823 48.7931C75.0965 48.8587 75.3357 48.8915 75.5999 48.8915H75.6244V49.9243ZM61.8916 49.9243V48.8915H61.9411C62.1884 48.8915 62.4113 48.8587 62.6092 48.7931C62.8071 48.7275 62.9968 48.621 63.1783 48.4734C63.3762 48.3259 63.5578 48.1456 63.7225 47.9325L67.5082 43.3096L68.4737 43.949L64.9847 48.3259C64.9847 48.4406 65.0669 48.5472 65.2321 48.6456C65.4137 48.7275 65.636 48.7931 65.9002 48.8423C66.1639 48.8751 66.4281 48.8915 66.6917 48.8915H66.7167V49.9243H61.8916ZM69.7849 43.7276L68.9928 42.8424L72.1849 38.8343C72.1849 38.7196 72.111 38.6294 71.9626 38.5638C71.8136 38.4819 71.6244 38.4245 71.3934 38.3917C71.1624 38.3425 70.915 38.3179 70.6509 38.3179H70.5769V37.2852H75.2036V38.3179H75.1791C74.915 38.3179 74.6758 38.3589 74.4616 38.4409C74.2637 38.5065 74.0658 38.6212 73.8674 38.7851C73.6695 38.9491 73.4635 39.1622 73.2493 39.4245L69.7849 43.7276Z" fill="white"/>
<path d="M79.401 43.7028C79.401 44.5389 79.4918 45.2848 79.6734 45.9405C79.8712 46.5798 80.1431 47.1208 80.4899 47.5634C80.8525 47.9896 81.2814 48.3175 81.7766 48.547C82.2713 48.7765 82.8241 48.8912 83.4341 48.8912C84.0777 48.8912 84.6387 48.7683 85.1171 48.5224C85.6118 48.2765 86.0325 47.965 86.3788 47.588C86.7251 47.2109 87.0219 46.8093 87.2698 46.3831L88.3087 47.2192C87.9955 47.7929 87.5911 48.3093 87.0964 48.7683C86.618 49.2109 86.0489 49.5551 85.3889 49.8011C84.729 50.047 83.9706 50.1699 83.1128 50.1699C81.8261 50.1699 80.6714 49.9076 79.6484 49.3831C78.6421 48.8585 77.8419 48.1044 77.2483 47.1208C76.671 46.1372 76.3823 44.9815 76.3823 43.6536C76.3823 42.3422 76.6542 41.1947 77.1988 40.2111C77.7598 39.2111 78.5182 38.4325 79.475 37.8751C80.4322 37.3177 81.4961 37.0391 82.6671 37.0391C83.5912 37.0391 84.4077 37.1866 85.1171 37.4817C85.8428 37.7768 86.4446 38.2111 86.923 38.7849C87.4182 39.3423 87.7895 40.0472 88.0368 40.8996C88.3005 41.7356 88.4408 42.711 88.4576 43.8258H78.609V42.6209H86.181L85.5373 43.0635C85.521 42.2275 85.4552 41.5144 85.3395 40.9242C85.2242 40.3176 85.0426 39.8259 84.7953 39.4488C84.5643 39.0554 84.2756 38.7685 83.9293 38.5882C83.5825 38.3915 83.1786 38.2931 82.7165 38.2931C82.2381 38.2931 81.7929 38.4079 81.3803 38.6374C80.9846 38.8669 80.6383 39.2111 80.3415 39.6702C80.0441 40.1291 79.8136 40.6947 79.6484 41.3668C79.4836 42.039 79.401 42.8176 79.401 43.7028Z" fill="white"/>
<path d="M94.612 31.6787V48.0554C94.612 48.3996 94.7767 48.6291 95.1067 48.7439C95.4367 48.8422 95.8488 48.8914 96.344 48.8914H96.3934V49.9242H89.8608V48.8914H89.9103C90.4055 48.8914 90.8176 48.8422 91.1476 48.7439C91.4775 48.6291 91.6423 48.3996 91.6423 48.0554V33.7934C91.6423 33.5639 91.5846 33.3918 91.4694 33.2771C91.3704 33.1623 91.2052 33.0721 90.9742 33.0066C90.76 32.9246 90.4713 32.8508 90.1082 32.7852L89.8608 32.736V31.6787H94.612Z" fill="white"/>
<path d="M106.625 33.5968C105.817 33.5968 105.083 33.7771 104.423 34.1377C103.763 34.482 103.194 34.9902 102.715 35.6623C102.237 36.318 101.866 37.1131 101.602 38.0475C101.338 38.9819 101.206 40.031 101.206 41.1949C101.206 42.3917 101.338 43.4572 101.602 44.3916C101.866 45.326 102.237 46.121 102.715 46.7768C103.194 47.4325 103.779 47.9325 104.472 48.2767C105.165 48.621 105.949 48.7931 106.823 48.7931C107.78 48.7931 108.629 48.58 109.371 48.1538C110.114 47.7112 110.741 47.1128 111.252 46.3588C111.763 45.5883 112.134 44.7113 112.365 43.7277L113.627 44.2195C113.364 45.3834 112.91 46.4161 112.267 47.3178C111.64 48.2194 110.84 48.9243 109.866 49.4324C108.893 49.9243 107.771 50.1701 106.501 50.1701C105.264 50.1701 104.117 49.957 103.062 49.5308C102.006 49.0882 101.09 48.4735 100.315 47.6866C99.5563 46.8833 98.9627 45.9325 98.5338 44.8342C98.1049 43.7359 97.8901 42.5228 97.8901 41.1949C97.8901 39.8671 98.1049 38.6622 98.5338 37.5803C98.979 36.4819 99.5895 35.5311 100.365 34.7279C101.14 33.9246 102.039 33.3099 103.062 32.8836C104.085 32.441 105.19 32.2197 106.378 32.2197C107.483 32.2197 108.439 32.4001 109.248 32.7607C110.056 33.105 110.724 33.5885 111.252 34.2115C111.78 34.8344 112.176 35.5639 112.44 36.4L111.524 36.1295L111.945 32.4656H113.306V37.777H111.846C111.565 36.9246 111.195 36.1869 110.732 35.5639C110.287 34.941 109.726 34.4574 109.05 34.1131C108.374 33.7689 107.565 33.5968 106.625 33.5968Z" fill="white"/>
<path d="M124.485 37.1623V39.8426C124.37 39.7934 124.229 39.7606 124.064 39.7442C123.916 39.7114 123.751 39.6868 123.569 39.6705C123.388 39.654 123.214 39.6459 123.05 39.6459C122.637 39.6459 122.275 39.6951 121.961 39.7934C121.648 39.8917 121.359 40.0475 121.095 40.2606C120.848 40.4737 120.617 40.7442 120.402 41.072C120.188 41.3835 119.982 41.7688 119.784 42.2278L119.685 41.0229C119.948 40.236 120.262 39.5475 120.625 38.9574C120.988 38.3672 121.417 37.9082 121.911 37.5803C122.407 37.2361 122.975 37.064 123.619 37.064C123.8 37.064 123.965 37.0721 124.114 37.0886C124.279 37.1049 124.402 37.1295 124.485 37.1623ZM115.404 49.9243V48.8915H115.428C115.94 48.8915 116.361 48.8424 116.691 48.744C117.021 48.6292 117.185 48.3998 117.185 48.0555V39.4C117.185 39.1705 117.128 38.9983 117.012 38.8836C116.897 38.7688 116.724 38.6787 116.493 38.6131C116.278 38.5311 115.997 38.4574 115.651 38.3918L115.404 38.3426V37.2852H119.932V40.9737L120.154 40.7524V48.3998C120.154 48.5309 120.253 48.6375 120.452 48.7194C120.65 48.785 120.889 48.8342 121.169 48.8669C121.449 48.8834 121.714 48.8915 121.961 48.8915H122.382V49.9243H115.404Z" fill="white"/>
<path d="M134.187 42.375L134.162 43.457C133.42 43.5389 132.751 43.6455 132.158 43.7766C131.58 43.8913 131.077 44.0471 130.648 44.2438C130.219 44.4241 129.865 44.6372 129.584 44.8832C129.304 45.129 129.098 45.4077 128.966 45.7192C128.834 46.0306 128.768 46.3831 128.768 46.7766C128.768 47.2192 128.85 47.5962 129.015 47.9077C129.18 48.2027 129.411 48.4323 129.708 48.5962C130.005 48.7601 130.351 48.842 130.747 48.842C131.259 48.842 131.712 48.7191 132.108 48.4732C132.504 48.2273 132.859 47.8913 133.172 47.4651C133.486 47.0224 133.758 46.5224 133.989 45.9651L134.212 47.047C133.964 47.6863 133.634 48.2437 133.222 48.7191C132.809 49.1781 132.323 49.5388 131.762 49.8011C131.201 50.047 130.557 50.1699 129.832 50.1699C129.073 50.1699 128.397 50.0388 127.803 49.7765C127.209 49.5142 126.739 49.1371 126.392 48.6454C126.046 48.1372 125.873 47.5388 125.873 46.8503C125.873 46.1782 126.046 45.5962 126.392 45.1044C126.755 44.6127 127.283 44.1946 127.976 43.8504C128.685 43.4897 129.559 43.1947 130.599 42.9652C131.638 42.7193 132.834 42.5225 134.187 42.375ZM133.791 49.924V47.4405L133.543 47.4651V40.9242C133.543 40.2849 133.453 39.7685 133.271 39.3751C133.106 38.9816 132.85 38.703 132.504 38.539C132.174 38.3751 131.745 38.2931 131.217 38.2931C130.458 38.2931 129.832 38.4488 129.337 38.7603C128.842 39.0718 128.446 39.4488 128.149 39.8914C128.132 39.6619 128.141 39.4652 128.174 39.3013C128.223 39.121 128.298 38.9652 128.397 38.8341C128.495 38.6865 128.611 38.5718 128.743 38.4898C128.891 38.4079 129.056 38.3505 129.238 38.3177V41.0226H126.689V38.539C126.936 38.3587 127.275 38.1538 127.704 37.9243C128.149 37.6784 128.693 37.4734 129.337 37.3095C129.98 37.1292 130.706 37.0391 131.514 37.0391C132.224 37.0391 132.875 37.121 133.469 37.2849C134.063 37.4325 134.583 37.6702 135.028 37.998C135.49 38.3095 135.845 38.7275 136.092 39.2521C136.339 39.7603 136.463 40.3833 136.463 41.1209V48.0306C136.463 48.2437 136.537 48.4158 136.686 48.547C136.834 48.6617 137.032 48.7437 137.28 48.7929C137.543 48.842 137.841 48.8666 138.171 48.8666H138.22V49.924H133.791Z" fill="white"/>
<path d="M146.492 48.1538L145.799 49.58L144.784 50.7602L139.786 39.1294C139.687 38.9163 139.563 38.7523 139.415 38.6376C139.283 38.5065 139.11 38.4245 138.895 38.3917C138.698 38.3425 138.458 38.3179 138.178 38.3179H138.153V37.2852H144.513V38.3179H144.488C144.207 38.3179 143.918 38.3261 143.622 38.3425C143.325 38.3589 143.077 38.3835 142.879 38.4163C142.681 38.4327 142.582 38.4737 142.582 38.5392L146.492 48.1538ZM146.393 49.6046C145.948 50.6865 145.502 51.6125 145.057 52.3832C144.628 53.1701 144.183 53.8014 143.72 54.2765C143.258 54.7521 142.772 55.0964 142.26 55.3093C141.766 55.5223 141.23 55.6288 140.652 55.6288C140.223 55.6288 139.852 55.5796 139.539 55.4817C139.242 55.3996 139.011 55.2931 138.846 55.1618V52.801C138.895 52.8177 139.011 52.8669 139.192 52.9486C139.39 53.0307 139.638 53.1128 139.935 53.1945C140.232 53.2766 140.553 53.3177 140.9 53.3177C141.312 53.3177 141.7 53.2604 142.062 53.1453C142.442 53.0469 142.813 52.8421 143.176 52.5307C143.539 52.2194 143.894 51.7768 144.24 51.2028C144.586 50.6291 144.941 49.8751 145.304 48.9406L145.626 48.1538L149.313 38.9081C149.313 38.7769 149.222 38.6704 149.04 38.5884C148.876 38.5065 148.653 38.4409 148.372 38.3917C148.109 38.3425 147.836 38.3179 147.556 38.3179H147.482V37.2852H152.133V38.3179C151.886 38.3179 151.663 38.3507 151.465 38.4163C151.267 38.4819 151.086 38.5966 150.921 38.7605C150.756 38.9245 150.616 39.154 150.5 39.4491L146.393 49.6046Z" fill="white"/>
<path d="M166.129 43.629C166.129 44.9078 165.84 46.047 165.262 47.047C164.702 48.0306 163.918 48.8011 162.912 49.3585C161.906 49.8994 160.743 50.1699 159.423 50.1699C158.103 50.1699 156.932 49.8994 155.909 49.3585C154.903 48.8011 154.111 48.0306 153.534 47.047C152.973 46.047 152.692 44.9078 152.692 43.629C152.692 42.6619 152.858 41.7767 153.188 40.9734C153.518 40.1537 153.979 39.457 154.573 38.8833C155.183 38.2931 155.893 37.8423 156.701 37.5308C157.526 37.203 158.433 37.0391 159.423 37.0391C160.413 37.0391 161.312 37.203 162.12 37.5308C162.945 37.8423 163.654 38.2931 164.248 38.8833C164.858 39.457 165.32 40.1537 165.634 40.9734C165.964 41.7767 166.129 42.6619 166.129 43.629ZM155.811 43.6045C155.811 44.7028 155.951 45.6536 156.231 46.4569C156.511 47.2601 156.916 47.8749 157.444 48.3011C157.988 48.7273 158.648 48.9404 159.423 48.9404C160.198 48.9404 160.85 48.7273 161.378 48.3011C161.922 47.8749 162.334 47.2683 162.615 46.4815C162.895 45.6782 163.036 44.7192 163.036 43.6045C163.036 42.5061 162.895 41.5553 162.615 40.7521C162.334 39.9488 161.922 39.3423 161.378 38.9325C160.85 38.5062 160.198 38.2931 159.423 38.2931C158.648 38.2931 157.988 38.5062 157.444 38.9325C156.916 39.3587 156.511 39.9734 156.231 40.7767C155.951 41.5636 155.811 42.5061 155.811 43.6045Z" fill="white"/>
<path d="M167.889 49.924V48.8912H167.914C168.243 48.8912 168.54 48.8666 168.804 48.8175C169.068 48.7683 169.274 48.6863 169.423 48.5716C169.588 48.4404 169.67 48.2683 169.67 48.0552V39.3996C169.67 39.1702 169.612 38.998 169.497 38.8833C169.381 38.7685 169.209 38.6784 168.978 38.6128C168.763 38.5308 168.482 38.4571 168.136 38.3915L167.889 38.3423V37.2849H172.417V39.916L172.639 40.0882V48.6454C172.639 48.6945 172.722 48.7437 172.887 48.7929C173.052 48.8257 173.25 48.8503 173.481 48.8666C173.728 48.8831 173.967 48.8912 174.198 48.8912H174.248V49.924H167.889ZM182.636 49.924H176.277V48.8912H176.302C176.516 48.8912 176.747 48.8831 176.995 48.8666C177.242 48.8503 177.448 48.8257 177.613 48.7929C177.794 48.7437 177.885 48.6945 177.885 48.6454V41.1209C177.885 40.5308 177.819 40.0472 177.687 39.6702C177.572 39.2931 177.374 39.0226 177.094 38.8587C176.813 38.6784 176.45 38.5882 176.005 38.5882C175.493 38.5882 175.015 38.703 174.57 38.9325C174.124 39.1619 173.704 39.498 173.307 39.9406C172.928 40.3668 172.565 40.8996 172.219 41.539L172.021 40.1865C172.433 39.5144 172.87 38.9488 173.332 38.4898C173.811 38.0145 174.339 37.6538 174.916 37.4079C175.493 37.162 176.145 37.0391 176.871 37.0391C177.695 37.0391 178.405 37.1866 178.999 37.4817C179.593 37.7768 180.055 38.2276 180.385 38.8341C180.715 39.4242 180.879 40.1783 180.879 41.0963V48.0552C180.879 48.2683 180.954 48.4404 181.102 48.5716C181.251 48.6863 181.449 48.7683 181.696 48.8175C181.96 48.8666 182.265 48.8912 182.611 48.8912H182.636V49.924Z" fill="white"/>
<path d="M191.827 46.8749C191.827 46.5306 191.745 46.252 191.58 46.0389C191.415 45.8093 191.176 45.6126 190.862 45.4487C190.566 45.2848 190.219 45.1454 189.823 45.0307C189.444 44.9159 189.032 44.8012 188.586 44.6864C188.091 44.5389 187.596 44.3832 187.101 44.2192C186.607 44.0389 186.153 43.8094 185.741 43.5307C185.328 43.2356 184.99 42.8668 184.726 42.4242C184.478 41.9652 184.355 41.3996 184.355 40.7275C184.355 39.9734 184.553 39.3259 184.949 38.7849C185.345 38.2276 185.905 37.8014 186.631 37.5063C187.357 37.1948 188.223 37.0391 189.229 37.0391C190.005 37.0391 190.681 37.1046 191.258 37.2357C191.852 37.3505 192.339 37.498 192.718 37.6784C193.114 37.8423 193.403 37.998 193.584 38.1456V40.6291H191.209V38.2439C191.39 38.2439 191.539 38.2849 191.655 38.3669C191.77 38.4325 191.861 38.5308 191.926 38.662C191.993 38.7767 192.034 38.8997 192.05 39.0308C192.067 39.1456 192.05 39.2603 192.001 39.3751C191.819 39.1456 191.596 38.9488 191.333 38.7849C191.069 38.6046 190.764 38.4734 190.417 38.3915C190.087 38.3095 189.7 38.2685 189.254 38.2685C188.413 38.2685 187.786 38.4488 187.374 38.8095C186.978 39.1702 186.78 39.621 186.78 40.1619C186.78 40.539 186.87 40.8504 187.052 41.0963C187.25 41.3259 187.506 41.5225 187.819 41.6865C188.132 41.834 188.496 41.9733 188.908 42.1045C189.32 42.2193 189.749 42.334 190.194 42.4487C190.689 42.5799 191.184 42.7356 191.679 42.916C192.191 43.0963 192.644 43.3258 193.04 43.6045C193.452 43.8667 193.782 44.211 194.03 44.6372C194.277 45.0471 194.401 45.5635 194.401 46.1864C194.401 46.9732 194.187 47.67 193.758 48.2765C193.345 48.8666 192.743 49.3339 191.951 49.6781C191.176 50.006 190.228 50.1699 189.106 50.1699C188.281 50.1699 187.53 50.0961 186.854 49.9486C186.194 49.8174 185.617 49.6453 185.122 49.4322C184.644 49.2027 184.239 48.9814 183.91 48.7683V46.1126H186.359V49.088C186.144 48.9732 185.972 48.8585 185.84 48.7437C185.724 48.6126 185.642 48.4896 185.592 48.3749C185.543 48.2437 185.526 48.1208 185.543 48.006C185.575 47.8913 185.625 47.7765 185.691 47.6618C185.922 47.9569 186.211 48.1945 186.557 48.3749C186.903 48.5552 187.283 48.6945 187.695 48.7929C188.124 48.8912 188.586 48.9404 189.081 48.9404C189.675 48.9404 190.17 48.8585 190.566 48.6945C190.978 48.5306 191.291 48.2929 191.506 47.9814C191.72 47.67 191.827 47.3011 191.827 46.8749Z" fill="white"/>
<path d="M122.674 59.7058L121.691 59.5557V58.9295H123.342C123.602 58.9295 123.976 58.9127 124.463 58.8793C124.95 58.8463 125.315 58.8296 125.559 58.8296C127.121 58.8296 128.28 59.2215 129.036 60.0064C129.8 60.7822 130.183 61.8759 130.183 63.2865C130.183 64.2712 129.985 65.1478 129.591 65.9155C129.204 66.6751 128.658 67.2678 127.952 67.6932C127.247 68.1191 126.437 68.3316 125.521 68.3316C125.32 68.3316 124.975 68.3148 124.488 68.2819C123.984 68.2484 123.606 68.2317 123.354 68.2317H121.628V67.6182L122.674 67.4929V59.7058ZM124.01 67.5304C124.303 67.5974 124.681 67.6308 125.143 67.6308H125.521C126.151 67.6222 126.705 67.4635 127.184 67.1547C127.671 66.8459 128.049 66.3871 128.318 65.7776C128.587 65.16 128.721 64.4131 128.721 63.537C128.721 62.2182 128.431 61.2162 127.852 60.5322C127.281 59.8477 126.416 59.5055 125.257 59.5055C125.013 59.5055 124.723 59.5222 124.388 59.5557C124.245 59.5805 124.119 59.5932 124.01 59.5932V67.5304Z" fill="white"/>
<path d="M132.649 60.0312C132.381 60.0312 132.179 59.9562 132.045 59.8061C131.91 59.6555 131.843 59.4638 131.843 59.2301C131.843 58.9629 131.923 58.7418 132.082 58.5664C132.251 58.3909 132.477 58.3037 132.763 58.3037C133.048 58.3037 133.258 58.3788 133.392 58.5288C133.527 58.6789 133.594 58.8711 133.594 59.1048C133.594 59.3883 133.51 59.6139 133.342 59.7807C133.183 59.9475 132.956 60.0312 132.662 60.0312H132.649ZM132.146 62.247L131.188 62.0219V61.3581L133.141 61.1203H133.166L133.456 61.346V67.5177L134.463 67.6181V68.2316H131.125V67.6181L132.146 67.5055V62.247Z" fill="white"/>
<path d="M138.369 71.6117C137.294 71.6117 136.513 71.4409 136.026 71.0986C135.547 70.765 135.308 70.3015 135.308 69.7088C135.308 69.3417 135.421 69.0035 135.648 68.6947C135.883 68.3859 136.16 68.1522 136.48 67.994C136.093 67.777 135.9 67.4261 135.9 66.9424C135.9 66.6417 135.988 66.3578 136.164 66.0911C136.341 65.8238 136.572 65.6195 136.858 65.4775C136.437 65.294 136.114 65.0308 135.887 64.6886C135.669 64.3463 135.56 63.9417 135.56 63.4742C135.56 62.99 135.694 62.5686 135.963 62.2097C136.24 61.8507 136.601 61.5753 137.046 61.3837C137.5 61.1915 137.978 61.0957 138.482 61.0957C139.331 61.0957 139.995 61.2706 140.473 61.6215C140.599 61.4962 140.792 61.3751 141.053 61.2584C141.313 61.1413 141.59 61.083 141.884 61.083H142.312V62.1848H140.927C141.128 62.4936 141.229 62.8526 141.229 63.2613C141.229 63.7541 141.103 64.1922 140.851 64.576C140.608 64.9517 140.263 65.2438 139.818 65.4522C139.381 65.6611 138.886 65.7655 138.331 65.7655C137.97 65.7655 137.647 65.728 137.361 65.6525C137.244 65.7696 137.147 65.8989 137.072 66.0409C136.996 66.1828 136.958 66.3202 136.958 66.4541C136.958 66.7543 137.059 66.9632 137.26 67.0798C137.462 67.1883 137.823 67.2426 138.344 67.2426H139.768C140.582 67.2426 141.187 67.3972 141.582 67.706C141.976 68.0148 142.174 68.4529 142.174 69.0202C142.174 69.4964 142.001 69.9304 141.657 70.3223C141.313 70.7229 140.847 71.0362 140.259 71.2614C139.679 71.4951 139.049 71.6117 138.369 71.6117ZM138.457 65.077C139.415 65.077 139.894 64.5131 139.894 63.3865C139.894 62.8272 139.768 62.4186 139.516 62.16C139.272 61.8928 138.903 61.7589 138.407 61.7589C137.945 61.7589 137.58 61.8887 137.311 62.1473C137.042 62.3978 136.907 62.8024 136.907 63.3617C136.907 63.8875 137.033 64.3048 137.286 64.6135C137.546 64.9223 137.937 65.077 138.457 65.077ZM138.482 70.8857C138.894 70.8857 139.281 70.8233 139.642 70.6981C140.011 70.5814 140.309 70.4019 140.536 70.1596C140.763 69.9258 140.876 69.6505 140.876 69.3336C140.876 68.9579 140.775 68.6826 140.574 68.5071C140.372 68.3403 139.982 68.2566 139.402 68.2566H137.916C137.58 68.2566 137.315 68.2359 137.122 68.1943C136.777 68.5695 136.606 68.9913 136.606 69.4588C136.606 69.9258 136.748 70.2808 137.033 70.5226C137.319 70.765 137.802 70.8857 138.482 70.8857Z" fill="white"/>
<path d="M144.497 60.0312C144.228 60.0312 144.027 59.9562 143.892 59.8061C143.758 59.6555 143.691 59.4638 143.691 59.2301C143.691 58.9629 143.77 58.7418 143.93 58.5664C144.098 58.3909 144.325 58.3037 144.61 58.3037C144.896 58.3037 145.106 58.3788 145.24 58.5288C145.375 58.6789 145.442 58.8711 145.442 59.1048C145.442 59.3883 145.358 59.6139 145.19 59.7807C145.031 59.9475 144.804 60.0312 144.509 60.0312H144.497ZM143.993 62.247L143.035 62.0219V61.3581L144.988 61.1203H145.014L145.303 61.346V67.5177L146.311 67.6181V68.2316H142.973V67.6181L143.993 67.5055V62.247Z" fill="white"/>
<path d="M149.36 68.3568C148.881 68.3568 148.525 68.2482 148.289 68.0312C148.054 67.8142 147.937 67.4426 147.937 66.9168V62.1095H147.029V61.5462C147.072 61.5375 147.189 61.5086 147.382 61.4584C147.575 61.4082 147.706 61.3621 147.773 61.3205C147.907 61.2455 148.012 61.0954 148.088 60.8698C148.155 60.7116 148.234 60.4565 148.327 60.1062C148.42 59.7558 148.474 59.5469 148.491 59.4805H149.234L149.259 61.283H151.363V62.1095H149.259V65.9529C149.259 66.4285 149.272 66.7626 149.297 66.9543C149.33 67.1464 149.394 67.2717 149.486 67.33C149.587 67.3883 149.755 67.4177 149.99 67.4177C150.217 67.4177 150.465 67.3883 150.733 67.33C151.01 67.2717 151.225 67.2088 151.376 67.1424L151.565 67.7057C151.363 67.8558 151.036 68.0018 150.582 68.1438C150.137 68.2858 149.73 68.3568 149.36 68.3568Z" fill="white"/>
<path d="M152.336 66.3538C152.336 65.5694 152.731 64.9934 153.521 64.6263C154.31 64.2506 155.309 64.0503 156.519 64.0255V63.6746C156.519 63.2821 156.477 62.9734 156.393 62.7482C156.309 62.5231 156.162 62.3603 155.952 62.2599C155.75 62.1514 155.461 62.0972 155.083 62.0972C154.654 62.0972 154.268 62.1601 153.924 62.2848C153.587 62.4019 153.252 62.5479 152.916 62.7234L152.601 62.0723C152.71 61.9806 152.912 61.8594 153.205 61.7093C153.499 61.5587 153.839 61.4254 154.226 61.3082C154.612 61.1916 154.999 61.1333 155.385 61.1333C155.981 61.1333 156.452 61.2165 156.796 61.3838C157.149 61.542 157.401 61.8011 157.552 62.1601C157.703 62.5185 157.779 62.9987 157.779 63.5996V67.6184H158.522V68.169C158.354 68.2111 158.14 68.2527 157.88 68.2943C157.628 68.3363 157.405 68.3571 157.212 68.3571C156.976 68.3571 156.817 68.3196 156.733 68.2446C156.649 68.1776 156.607 68.023 156.607 67.7811V67.3679C156.355 67.6184 156.044 67.8481 155.675 68.0565C155.314 68.2654 154.902 68.3693 154.44 68.3693C153.835 68.3693 153.331 68.1984 152.929 67.8562C152.533 67.5058 152.336 67.0048 152.336 66.3538ZM154.982 67.518C155.2 67.518 155.452 67.4516 155.738 67.3177C156.023 67.1843 156.284 67.0256 156.519 66.8421V64.6887C155.604 64.6887 154.91 64.8307 154.44 65.1146C153.978 65.3899 153.747 65.753 153.747 66.2037C153.747 66.6545 153.856 66.9881 154.075 67.2051C154.301 67.414 154.604 67.518 154.982 67.518Z" fill="white"/>
<path d="M160.318 58.8917L159.297 58.7538V58.2158L161.326 57.978H161.351L161.628 58.1656V67.5175L162.699 67.6179V68.2314H159.297V67.6179L160.318 67.5054V58.8917Z" fill="white"/>
<path d="M167.641 59.706L166.558 59.5559V58.9297H173.298L173.424 61.0582H172.605L172.227 59.6684L168.989 59.5807V63.2117L171.269 63.1741L171.484 62.1347H172.151V65.0644H171.496L171.269 63.9753L168.989 63.9251V67.4931L170.954 67.6184V68.2319H166.633V67.6184L167.641 67.4931V59.706Z" fill="white"/>
<path d="M175.87 60.0312C175.601 60.0312 175.399 59.9562 175.265 59.8061C175.131 59.6555 175.064 59.4638 175.064 59.2301C175.064 58.9629 175.143 58.7418 175.303 58.5664C175.471 58.3909 175.698 58.3037 175.983 58.3037C176.269 58.3037 176.479 58.3788 176.613 58.5288C176.748 58.6789 176.815 58.8711 176.815 59.1048C176.815 59.3883 176.731 59.6139 176.563 59.7807C176.403 59.9475 176.177 60.0312 175.882 60.0312H175.87ZM175.366 62.247L174.408 62.0219V61.3581L176.361 61.1203H176.386L176.676 61.346V67.5177L177.684 67.6181V68.2316H174.346V67.6181L175.366 67.5055V62.247Z" fill="white"/>
<path d="M178.604 67.6183L179.549 67.5433V62.2472L178.641 62.0221V61.3462L180.38 61.1205H180.405L180.682 61.3462V61.5713L180.645 62.5479H180.682C180.766 62.4059 180.917 62.2224 181.136 61.9972C181.354 61.7716 181.635 61.5672 181.98 61.3837C182.324 61.1915 182.698 61.0957 183.101 61.0957C183.269 61.0957 183.408 61.1165 183.517 61.1581V62.5605C183.458 62.5185 183.362 62.4809 183.227 62.4475C183.101 62.4059 182.958 62.3851 182.799 62.3851C182.102 62.3851 181.455 62.5981 180.859 63.0235V67.5306L182.459 67.631V68.2318H178.604V67.6183Z" fill="white"/>
<path d="M185.52 67.2305C185.604 67.3552 185.781 67.4683 186.049 67.5682C186.326 67.6686 186.616 67.7183 186.919 67.7183C187.397 67.7183 187.75 67.6265 187.977 67.4429C188.204 67.2594 188.317 67.0048 188.317 66.6793C188.317 66.4542 188.246 66.258 188.103 66.0912C187.96 65.9238 187.759 65.7778 187.498 65.6526C187.246 65.5192 186.881 65.3605 186.402 65.177C185.755 64.9351 185.281 64.6471 184.978 64.313C184.685 63.9712 184.537 63.5245 184.537 62.9734C184.537 62.6063 184.646 62.2848 184.865 62.0095C185.092 61.7341 185.398 61.5212 185.785 61.3711C186.18 61.2124 186.616 61.1333 187.095 61.1333C187.482 61.1333 187.817 61.1622 188.103 61.221C188.397 61.2793 188.632 61.3376 188.809 61.3959C188.985 61.4548 189.102 61.4923 189.161 61.509V63.0611H188.392L188.14 62.1347C188.09 62.0348 187.956 61.9512 187.738 61.8842C187.519 61.8092 187.276 61.7717 187.007 61.7717C186.629 61.7717 186.322 61.8553 186.087 62.0221C185.86 62.189 185.747 62.4146 185.747 62.698C185.747 62.9485 185.806 63.1574 185.924 63.3242C186.049 63.4829 186.205 63.6122 186.39 63.7121C186.574 63.8125 186.826 63.9291 187.145 64.063L187.397 64.1629C187.868 64.3464 188.25 64.5219 188.544 64.6887C188.838 64.8555 189.081 65.0771 189.275 65.3524C189.476 65.6196 189.577 65.9492 189.577 66.3411C189.577 66.9592 189.333 67.4516 188.846 67.8187C188.367 68.1858 187.708 68.3693 186.868 68.3693C186.456 68.3693 186.024 68.3151 185.571 68.2065C185.125 68.0899 184.76 67.9733 184.475 67.8562V66.2539H185.294L185.52 67.2305Z" fill="white"/>
<path d="M192.863 68.3568C192.385 68.3568 192.028 68.2482 191.792 68.0312C191.557 67.8142 191.44 67.4426 191.44 66.9168V62.1095H190.533V61.5462C190.575 61.5375 190.692 61.5086 190.886 61.4584C191.078 61.4082 191.209 61.3621 191.276 61.3205C191.41 61.2455 191.515 61.0954 191.591 60.8698C191.658 60.7116 191.738 60.4565 191.83 60.1062C191.922 59.7558 191.977 59.5469 191.994 59.4805H192.737L192.762 61.283H194.867V62.1095H192.762V65.9529C192.762 66.4285 192.775 66.7626 192.8 66.9543C192.834 67.1464 192.897 67.2717 192.989 67.33C193.09 67.3883 193.258 67.4177 193.493 67.4177C193.72 67.4177 193.968 67.3883 194.236 67.33C194.514 67.2717 194.728 67.2088 194.879 67.1424L195.068 67.7057C194.866 67.8558 194.539 68.0018 194.085 68.1438C193.64 68.2858 193.233 68.3568 192.863 68.3568Z" fill="white"/>
<path d="M197.212 38.4909V35.7366H196.97C196.825 35.7366 196.709 35.7433 196.622 35.7566C196.535 35.77 196.469 35.7951 196.426 35.8318C196.385 35.8651 196.362 35.9119 196.355 35.972L196.305 36.5278H195.952V35.4111H199.101V36.5278H198.754L198.704 35.972C198.7 35.9119 198.677 35.8651 198.633 35.8318C198.589 35.7951 198.522 35.77 198.431 35.7566C198.344 35.7433 198.228 35.7366 198.083 35.7366H197.842V38.4909C197.842 38.5644 197.879 38.6128 197.952 38.6361C198.03 38.6595 198.126 38.6712 198.24 38.6712H198.326V38.9667H196.733V38.6712H196.819C196.93 38.6712 197.022 38.6595 197.096 38.6361C197.173 38.6128 197.212 38.5644 197.212 38.4909Z" fill="white"/>
<path d="M199.545 38.9667V38.6712H199.601C199.674 38.6712 199.74 38.6662 199.797 38.6562C199.858 38.6462 199.904 38.6278 199.938 38.6011C199.972 38.5744 199.988 38.5377 199.988 38.4909V35.8868C199.988 35.8368 199.972 35.8 199.938 35.7767C199.904 35.75 199.858 35.7316 199.797 35.7216C199.74 35.7116 199.674 35.7066 199.601 35.7066H199.545V35.4111H200.92L201.838 38.3507L201.722 38.2656L202.654 35.4111H204V35.7066H203.944C203.87 35.7066 203.803 35.7116 203.743 35.7216C203.686 35.7316 203.64 35.75 203.607 35.7767C203.573 35.8 203.556 35.8368 203.556 35.8868V38.4909C203.556 38.5377 203.573 38.5744 203.607 38.6011C203.64 38.6278 203.686 38.6462 203.743 38.6562C203.803 38.6662 203.87 38.6712 203.944 38.6712H204V38.9667H202.528V38.6712H202.573C202.624 38.6712 202.676 38.6695 202.73 38.6662C202.787 38.6628 202.834 38.6578 202.871 38.6512C202.911 38.6411 202.931 38.6312 202.931 38.6211V35.5213L202.982 35.5113L201.828 38.9767H201.455L200.301 35.5113H200.356V38.6211C200.356 38.6312 200.376 38.6411 200.417 38.6512C200.457 38.6578 200.506 38.6628 200.563 38.6662C200.62 38.6695 200.672 38.6712 200.719 38.6712H200.739V38.9667H199.545Z" fill="white"/>
<mask id="mask0_189_5197" style="mask-type:luminance" maskUnits="userSpaceOnUse" x="8" y="32" width="16" height="30">
<path d="M11.0204 61.8854C18.2578 54.2737 11.2671 42.6082 23.2746 32.0181C9.21105 38.5541 5.83908 54.6048 11.0204 61.8854Z" fill="white"/>
</mask>
<g mask="url(#mask0_189_5197)">
<path d="M5.83887 31.9355H23.2744V61.8028H5.83887V31.9355Z" fill="url(#paint0_linear_189_5197)"/>
</g>
<mask id="mask1_189_5197" style="mask-type:luminance" maskUnits="userSpaceOnUse" x="10" y="0" width="20" height="41">
<path d="M23.2745 40.4577C26.2352 34.2525 27.5511 26.3926 21.3829 21.263C11.9249 13.3204 15.6259 11.1693 10.3623 0C19.738 4.05404 28.2091 10.8383 29.7717 21.594C30.5942 27.4682 28.7848 33.7561 23.2745 40.4577Z" fill="white"/>
</mask>
<g mask="url(#mask1_189_5197)">
<path d="M10.3623 0H30.5942V40.4577H10.3623V0Z" fill="url(#paint1_linear_189_5197)"/>
</g>
<mask id="mask2_189_5197" style="mask-type:luminance" maskUnits="userSpaceOnUse" x="0" y="4" width="56" height="37">
<path d="M23.2748 40.4579C24.4262 34.8319 25.0842 27.2202 20.4786 25.4C8.96449 20.7668 9.04675 23.0834 0 4.96436C14.886 6.28814 19.9029 14.5616 24.8374 17.9538C26.5645 19.1121 28.3739 19.774 29.9365 19.3603C31.5814 19.0294 31.7459 16.7955 33.9664 15.72C36.187 14.6444 39.0655 15.2235 40.7104 17.5402C44.0001 17.6229 50.5796 18.3675 55.103 19.443C48.1122 18.533 42.9309 19.0294 38.572 20.9323C32.3216 23.7453 31.9104 31.7707 23.2748 40.4579Z" fill="white"/>
</mask>
<g mask="url(#mask2_189_5197)">
<path d="M0 4.96436H55.103V40.3751H0V4.96436Z" fill="url(#paint2_linear_189_5197)"/>
</g>
<mask id="mask3_189_5197" style="mask-type:luminance" maskUnits="userSpaceOnUse" x="11" y="15" width="45" height="32">
<path d="M20.4788 25.3166C16.3666 23.6619 13.7348 22.9172 11.6787 21.8417C11.8432 21.9245 25.9891 26.9713 31.3349 18.3668C31.9928 17.5394 32.5685 16.3812 33.9666 15.7193C36.1872 14.6437 39.0657 15.2229 40.7106 17.5395C44.0003 17.6222 50.5798 18.3668 55.1032 19.4424C48.1947 18.7805 42.9312 18.8632 38.5722 20.6007C34.0489 22.4208 33.5554 28.5433 28.7031 34.9139C26.318 38.0578 21.3012 41.2018 21.0544 46.4141C19.1629 41.3672 21.4657 38.306 22.946 35.3276C24.6732 31.9354 24.3442 26.8885 20.4788 25.3166Z" fill="white"/>
</mask>
<g mask="url(#mask3_189_5197)">
<path d="M11.6787 14.7271H55.1032V46.4148H11.6787V14.7271Z" fill="url(#paint3_linear_189_5197)"/>
</g>
<mask id="mask4_189_5197" style="mask-type:luminance" maskUnits="userSpaceOnUse" x="21" y="17" width="35" height="30">
<path d="M40.7102 17.6226C44 17.6226 50.5794 18.3672 55.1028 19.4427C48.1943 18.7808 42.9308 19.1945 38.5719 20.932C34.7065 22.504 36.3513 28.2954 33.884 34.0042C30.841 40.7885 21.4653 40.5403 21.1364 46.4145C20.8073 38.2237 28.785 38.5546 30.9233 27.7163C31.8279 23.0004 34.7065 17.9535 40.7102 17.6226Z" fill="white"/>
</mask>
<g mask="url(#mask4_189_5197)">
<path d="M20.7251 17.6226H55.1028V46.4145H20.7251V17.6226Z" fill="url(#paint4_linear_189_5197)"/>
</g>
<mask id="mask5_189_5197" style="mask-type:luminance" maskUnits="userSpaceOnUse" x="21" y="20" width="9" height="24">
<path d="M25.7417 29.8677C25.5773 27.4683 24.9193 25.2345 23.3567 23.2488C25.6595 22.9179 27.8801 22.0905 29.6072 20.5186C29.6894 20.8495 29.7717 21.1804 29.7717 21.5941C30.1829 24.6553 29.9361 27.882 28.7847 31.1087C27.2221 35.4936 21.8763 38.8031 21.1361 43.519C20.8071 38.0585 25.9885 34.5836 25.7417 29.8677Z" fill="white"/>
</mask>
<g mask="url(#mask5_189_5197)">
<path d="M20.8071 20.5181H30.1829V43.5185H20.8071V20.5181Z" fill="url(#paint5_linear_189_5197)"/>
</g>
<mask id="mask6_189_5197" style="mask-type:luminance" maskUnits="userSpaceOnUse" x="13" y="9" width="17" height="15">
<path d="M23.3568 23.2481C22.7811 22.5862 22.2053 21.9243 21.4652 21.2624C15.2969 16.1328 14.7213 13.4025 13.5698 9.01758C18.8334 11.996 21.8764 15.8846 24.8372 17.953C26.3175 19.0286 27.9624 19.6077 29.3605 19.4422C29.4428 19.7732 29.525 20.1041 29.6072 20.5178C27.7979 22.0897 25.5773 22.9171 23.3568 23.2481Z" fill="white"/>
</mask>
<g mask="url(#mask6_189_5197)">
<path d="M13.5698 9.01758H29.6072V23.2481H13.5698V9.01758Z" fill="url(#paint6_linear_189_5197)"/>
</g>
<mask id="mask7_189_5197" style="mask-type:luminance" maskUnits="userSpaceOnUse" x="14" y="31" width="14" height="40">
<path d="M23.2747 31.9355C13.3233 42.3602 21.8766 59.9831 27.9626 70.0768C20.3139 64.8644 13.899 57.418 14.3924 47.5726C14.5569 42.2775 17.1887 36.9824 23.2747 31.9355Z" fill="white"/>
</mask>
<g mask="url(#mask7_189_5197)">
<path d="M13.4058 31.9355H27.9628V70.0768H13.4058V31.9355Z" fill="url(#paint7_linear_189_5197)"/>
</g>
<mask id="mask8_189_5197" style="mask-type:luminance" maskUnits="userSpaceOnUse" x="13" y="31" width="11" height="33">
<path d="M20.3961 63.5405C20.5606 60.4795 20.0671 57.2527 18.998 53.7779C16.4485 45.8351 15.3793 39.8782 23.2746 31.9355C10.8559 40.4573 10.3624 52.8678 20.3961 63.5405Z" fill="white"/>
</mask>
<g mask="url(#mask8_189_5197)">
<path d="M10.3623 31.9355H23.2745V63.5405H10.3623V31.9355Z" fill="url(#paint8_linear_189_5197)"/>
</g>
<mask id="mask9_189_5197" style="mask-type:luminance" maskUnits="userSpaceOnUse" x="4" y="31" width="20" height="25">
<path d="M4.68754 55.6808C8.22397 52.2887 11.267 49.9719 12.0894 45.6696C13.0764 40.7055 15.7081 36.9824 23.2745 31.9355C9.3754 35.8241 3.53613 49.5582 4.68754 55.6808Z" fill="white"/>
</mask>
<g mask="url(#mask9_189_5197)">
<path d="M3.53613 31.9355H23.2745V55.6808H3.53613V31.9355Z" fill="url(#paint9_linear_189_5197)"/>
</g>
<mask id="mask10_189_5197" style="mask-type:luminance" maskUnits="userSpaceOnUse" x="8" y="31" width="16" height="21">
<path d="M8.7998 51.6265C10.4447 49.8892 11.596 48.069 12.0895 45.6696C13.0765 40.7055 15.7082 36.9824 23.2746 31.9355C14.2278 36.2378 9.53997 44.4286 8.7998 51.6265Z" fill="white"/>
</mask>
<g mask="url(#mask10_189_5197)">
<path d="M8.7998 31.9355H23.2746V51.6265H8.7998V31.9355Z" fill="url(#paint10_linear_189_5197)"/>
</g>
<path fill-rule="evenodd" clip-rule="evenodd" d="M36.4331 18.0362C36.7621 18.0362 37.0088 17.788 37.0088 17.4571C37.0088 17.1261 36.7621 16.8779 36.4331 16.8779C36.1041 16.8779 35.8574 17.1261 35.8574 17.4571C35.8574 17.788 36.1041 18.0362 36.4331 18.0362Z" fill="white"/>
<mask id="mask11_189_5197" style="mask-type:luminance" maskUnits="userSpaceOnUse" x="10" y="32" width="14" height="15">
<path d="M16.1194 43.601C17.1063 39.7952 18.9157 35.8239 23.2746 32.0181C16.4484 35.2447 12.0895 40.6225 10.1157 46.2486C12.254 45.6694 14.3101 44.7593 16.1194 43.601Z" fill="white"/>
</mask>
<g mask="url(#mask11_189_5197)">
<path d="M10.1157 31.9355H23.2746V46.166H10.1157V31.9355Z" fill="url(#paint11_linear_189_5197)"/>
</g>
<mask id="mask12_189_5197" style="mask-type:luminance" maskUnits="userSpaceOnUse" x="14" y="11" width="10" height="13">
<path d="M23.6033 23.5791C23.0276 22.7517 22.2875 22.0071 21.465 21.2624C16.7772 17.3739 15.2968 14.8918 14.3921 11.9961C18.8332 14.3127 22.2875 18.5322 23.6033 23.5791Z" fill="white"/>
</mask>
<g mask="url(#mask12_189_5197)">
<path d="M14.3921 11.9961H23.6033V23.5791H14.3921V11.9961Z" fill="url(#paint12_linear_189_5197)"/>
</g>
<mask id="mask13_189_5197" style="mask-type:luminance" maskUnits="userSpaceOnUse" x="2" y="9" width="23" height="22">
<path d="M24.0151 30.9426C23.6861 28.3778 22.6992 26.2267 20.4786 25.3993C10.1982 21.3453 9.12907 22.7517 2.63184 10.2587C3.701 10.0932 4.77016 9.92773 5.92158 9.92773C16.0375 9.92773 24.1795 18.2013 24.1795 28.295C24.1795 29.2051 24.0973 30.0325 24.0151 30.9426Z" fill="white"/>
</mask>
<g mask="url(#mask13_189_5197)">
<path d="M2.63184 9.92773H24.1795V30.9426H2.63184V9.92773Z" fill="url(#paint13_linear_189_5197)"/>
</g>
<mask id="mask14_189_5197" style="mask-type:luminance" maskUnits="userSpaceOnUse" x="11" y="21" width="14" height="11">
<path d="M20.4783 25.3172C16.3661 23.6625 13.7343 22.9179 11.6782 21.8423C11.8427 21.925 17.8465 24.0762 23.439 23.1661C23.9325 24.8208 24.1792 26.4755 24.1792 28.2129C24.1792 29.2058 24.097 30.1986 23.9325 31.1914C24.0147 28.7921 22.9456 26.31 20.4783 25.3172Z" fill="white"/>
</mask>
<g mask="url(#mask14_189_5197)">
<path d="M11.6782 21.8423H24.1791V31.1914H11.6782V21.8423Z" fill="url(#paint14_linear_189_5197)"/>
</g>
<mask id="mask15_189_5197" style="mask-type:luminance" maskUnits="userSpaceOnUse" x="23" y="23" width="1" height="1">
<path d="M23.6035 23.5795C23.5214 23.4967 23.4391 23.3313 23.3569 23.2485H23.5214L23.6035 23.5795Z" fill="white"/>
</mask>
<g mask="url(#mask15_189_5197)">
<path d="M23.3569 23.2485H23.6035V23.5795H23.3569V23.2485Z" fill="url(#paint15_linear_189_5197)"/>
</g>
<mask id="mask16_189_5197" style="mask-type:luminance" maskUnits="userSpaceOnUse" x="14" y="11" width="10" height="13">
<path d="M23.3566 23.2481C22.7809 22.5862 22.2052 21.9243 21.465 21.2624C16.7772 17.3739 15.2968 14.8918 14.3921 11.9961C18.751 14.3127 22.123 18.3667 23.5211 23.2481H23.3566Z" fill="white"/>
</mask>
<g mask="url(#mask16_189_5197)">
<path d="M14.3921 11.9961H23.5211V23.2481H14.3921V11.9961Z" fill="url(#paint16_linear_189_5197)"/>
</g>
<mask id="mask17_189_5197" style="mask-type:luminance" maskUnits="userSpaceOnUse" x="14" y="31" width="10" height="14">
<path d="M23.2745 31.9355L23.1923 32.0183L23.1101 32.101C20.725 34.7486 19.4091 37.8098 18.9979 41.1192C17.7642 42.3602 16.3661 43.4358 14.8857 44.2631C15.7904 40.1264 18.4222 35.9896 23.2745 31.9355Z" fill="white"/>
</mask>
<g mask="url(#mask17_189_5197)">
<path d="M14.8037 31.9355H23.2748V44.3459H14.8037V31.9355Z" fill="url(#paint17_linear_189_5197)"/>
</g>
<mask id="mask18_189_5197" style="mask-type:luminance" maskUnits="userSpaceOnUse" x="13" y="32" width="11" height="14">
<path d="M17.1883 42.7736C17.5995 39.3815 19.3266 35.9066 23.2743 32.0181C17.8462 35.7411 14.6388 40.2089 13.6519 45.0075C14.9678 44.3456 16.1191 43.601 17.1883 42.7736Z" fill="white"/>
</mask>
<g mask="url(#mask18_189_5197)">
<path d="M13.6519 31.9355H23.2743V44.925H13.6519V31.9355Z" fill="url(#paint18_linear_189_5197)"/>
</g>
<mask id="mask19_189_5197" style="mask-type:luminance" maskUnits="userSpaceOnUse" x="6" y="31" width="18" height="16">
<path d="M12.0896 45.5869C13.0765 40.6228 15.7083 36.9824 23.2746 31.9355C14.4746 34.3349 8.96432 40.7055 6.33252 46.6625C8.30637 46.6625 10.2802 46.2488 12.0896 45.5869Z" fill="white"/>
</mask>
<g mask="url(#mask19_189_5197)">
<path d="M6.33252 31.9355H23.2746V46.6625H6.33252V31.9355Z" fill="url(#paint19_linear_189_5197)"/>
</g>
<mask id="mask20_189_5197" style="mask-type:luminance" maskUnits="userSpaceOnUse" x="10" y="31" width="14" height="16">
<path d="M12.0895 45.5869C13.0765 40.6228 15.7082 36.9824 23.2746 31.9355C16.4484 35.1622 12.0895 40.5401 10.1157 46.166C10.7736 46.0006 11.4316 45.8351 12.0895 45.5869Z" fill="white"/>
</mask>
<g mask="url(#mask20_189_5197)">
<path d="M10.1157 31.9355H23.2746V46.166H10.1157V31.9355Z" fill="url(#paint20_linear_189_5197)"/>
</g>
</g>
<defs>
<linearGradient id="paint0_linear_189_5197" x1="10.5728" y1="47.0319" x2="22.6349" y2="46.703" gradientUnits="userSpaceOnUse">
<stop stop-color="#E860F9"/>
<stop offset="0.56" stop-color="#0884D1"/>
<stop offset="1" stop-color="#0CBAB1"/>
</linearGradient>
<linearGradient id="paint1_linear_189_5197" x1="13.8701" y1="9.0042" x2="19.8867" y2="19.0891" gradientUnits="userSpaceOnUse">
<stop stop-color="#16BAEB"/>
<stop offset="1" stop-color="#0FC3E2"/>
</linearGradient>
<linearGradient id="paint2_linear_189_5197" x1="5.26383" y1="1.74818" x2="21.7836" y2="17.1056" gradientUnits="userSpaceOnUse">
<stop stop-color="#B5D91E"/>
<stop offset="0.5" stop-color="#3BDAA9"/>
<stop offset="1" stop-color="#26A5FF"/>
</linearGradient>
<linearGradient id="paint3_linear_189_5197" x1="43.2983" y1="17.0867" x2="23.9846" y2="43.0573" gradientUnits="userSpaceOnUse">
<stop stop-color="#E860F9"/>
<stop offset="0.56" stop-color="#0884D1"/>
<stop offset="1" stop-color="#0CBAB1"/>
</linearGradient>
<linearGradient id="paint4_linear_189_5197" x1="32.4861" y1="38.6243" x2="50.4532" y2="16.8805" gradientUnits="userSpaceOnUse">
<stop stop-color="#E860F9"/>
<stop offset="0.56" stop-color="#0884D1"/>
<stop offset="1" stop-color="#0CBAB1"/>
</linearGradient>
<linearGradient id="paint5_linear_189_5197" x1="29.7393" y1="22.0707" x2="24.3559" y2="34.5765" gradientUnits="userSpaceOnUse">
<stop stop-color="#3512BE"/>
<stop offset="1" stop-color="#2A81EF"/>
</linearGradient>
<linearGradient id="paint6_linear_189_5197" x1="14.9829" y1="14.4857" x2="26.7428" y2="17.3934" gradientUnits="userSpaceOnUse">
<stop stop-color="#5086FF"/>
<stop offset="1" stop-color="#7C66FF"/>
</linearGradient>
<linearGradient id="paint7_linear_189_5197" x1="33.5042" y1="57.6619" x2="25.0049" y2="53.3462" gradientUnits="userSpaceOnUse">
<stop stop-color="#B5D91E"/>
<stop offset="0.5" stop-color="#3BDAA9"/>
<stop offset="1" stop-color="#26A5FF"/>
</linearGradient>
<linearGradient id="paint8_linear_189_5197" x1="13.989" y1="47.5467" x2="21.5426" y2="48.1354" gradientUnits="userSpaceOnUse">
<stop stop-color="#5086FF"/>
<stop offset="1" stop-color="#7C66FF"/>
</linearGradient>
<linearGradient id="paint9_linear_189_5197" x1="8.63371" y1="40.0643" x2="11.6355" y2="42.4124" gradientUnits="userSpaceOnUse">
<stop stop-color="#B5D91E"/>
<stop offset="0.5" stop-color="#3BDAA9"/>
<stop offset="1" stop-color="#26A5FF"/>
</linearGradient>
<linearGradient id="paint10_linear_189_5197" x1="6.87308" y1="37.7435" x2="13.6463" y2="40.7162" gradientUnits="userSpaceOnUse">
<stop stop-color="#BCDD35"/>
<stop offset="0.5" stop-color="#4FDEB2"/>
<stop offset="1" stop-color="#3CAEFF"/>
</linearGradient>
<linearGradient id="paint11_linear_189_5197" x1="10.3611" y1="39.2629" x2="22.4232" y2="38.934" gradientUnits="userSpaceOnUse">
<stop stop-color="#F097FB"/>
<stop offset="0.56" stop-color="#5DAEE1"/>
<stop offset="1" stop-color="#60D2CC"/>
</linearGradient>
<linearGradient id="paint12_linear_189_5197" x1="13.8134" y1="9.0374" x2="19.8299" y2="19.1224" gradientUnits="userSpaceOnUse">
<stop stop-color="#66D2F2"/>
<stop offset="1" stop-color="#62D7EC"/>
</linearGradient>
<linearGradient id="paint13_linear_189_5197" x1="-0.187132" y1="7.61101" x2="16.3327" y2="22.9685" gradientUnits="userSpaceOnUse">
<stop stop-color="#CEE66B"/>
<stop offset="0.5" stop-color="#7FE7C7"/>
<stop offset="1" stop-color="#72C4FF"/>
</linearGradient>
<linearGradient id="paint14_linear_189_5197" x1="31.4117" y1="8.24727" x2="12.098" y2="34.2178" gradientUnits="userSpaceOnUse">
<stop stop-color="#F097FB"/>
<stop offset="0.56" stop-color="#5DAEE1"/>
<stop offset="1" stop-color="#60D2CC"/>
</linearGradient>
<linearGradient id="paint15_linear_189_5197" x1="24.9049" y1="19.9902" x2="19.5199" y2="32.4942" gradientUnits="userSpaceOnUse">
<stop stop-color="#7A63D5"/>
<stop offset="1" stop-color="#73ACF4"/>
</linearGradient>
<linearGradient id="paint16_linear_189_5197" x1="14.4857" y1="16.4961" x2="26.2456" y2="19.4038" gradientUnits="userSpaceOnUse">
<stop stop-color="#8DB0FF"/>
<stop offset="1" stop-color="#AA9AFF"/>
</linearGradient>
<linearGradient id="paint17_linear_189_5197" x1="38.3564" y1="48.1058" x2="29.8573" y2="43.79" gradientUnits="userSpaceOnUse">
<stop stop-color="#CEE66B"/>
<stop offset="0.5" stop-color="#7FE7C7"/>
<stop offset="1" stop-color="#72C4FF"/>
</linearGradient>
<linearGradient id="paint18_linear_189_5197" x1="14.72" y1="38.1643" x2="22.2735" y2="38.753" gradientUnits="userSpaceOnUse">
<stop stop-color="#8DB0FF"/>
<stop offset="1" stop-color="#AA9AFF"/>
</linearGradient>
<linearGradient id="paint19_linear_189_5197" x1="11.3419" y1="36.6025" x2="14.3437" y2="38.9507" gradientUnits="userSpaceOnUse">
<stop stop-color="#CEE66B"/>
<stop offset="0.5" stop-color="#7FE7C7"/>
<stop offset="1" stop-color="#72C4FF"/>
</linearGradient>
<linearGradient id="paint20_linear_189_5197" x1="7.97877" y1="35.2242" x2="14.752" y2="38.1969" gradientUnits="userSpaceOnUse">
<stop stop-color="#D3E97A"/>
<stop offset="0.5" stop-color="#8CE9CD"/>
<stop offset="1" stop-color="#80CAFF"/>
</linearGradient>
<clipPath id="clip0_189_5197">
<rect width="204" height="72" fill="white"/>
</clipPath>
</defs>
</svg>
