<svg width="10" height="15" viewBox="0 0 10 15" fill="none" xmlns="http://www.w3.org/2000/svg">
<path d="M0.90598 6.9151L7.27658 0.544616C7.42393 0.397155 7.62062 0.315918 7.83034 0.315918C8.04007 0.315918 8.23676 0.397155 8.38411 0.544616L8.85326 1.01365C9.15854 1.31928 9.15854 1.81601 8.85326 2.12118L3.50371 7.47072L8.85919 12.8262C9.00654 12.9737 9.08789 13.1702 9.08789 13.3799C9.08789 13.5897 9.00654 13.7863 8.85919 13.9339L8.39004 14.4028C8.24258 14.5502 8.04601 14.6315 7.83628 14.6315C7.62655 14.6315 7.42986 14.5502 7.28252 14.4028L0.90598 8.02647C0.758287 7.87854 0.677167 7.68103 0.677632 7.47107C0.677167 7.2603 0.758287 7.06291 0.90598 6.9151Z" fill="#656565"/>
</svg>
