<svg width="41" height="32" viewBox="0 0 41 32" fill="none" xmlns="http://www.w3.org/2000/svg">
<path d="M11.499 0.997437C10.6767 0.997437 10.001 1.67799 10.001 2.50034V29.4994C10.001 30.3217 10.6767 30.9974 11.499 30.9974H30.5C31.3223 30.9974 31.999 30.3217 31.999 29.4994V27.0004C31.999 26.3331 30.998 26.3331 30.998 27.0004V29.4994C30.998 29.785 30.7856 29.9974 30.5 29.9974H11.499C11.2134 29.9974 11.001 29.785 11.001 29.4994V2.50034C11.001 2.21469 11.2134 1.99843 11.499 1.99843H27.001V4.50037C27.001 5.32272 27.6776 5.99942 28.5 5.99942H30.998V15.9974C30.998 16.6647 31.999 16.6647 31.999 15.9974V5.50137C31.9995 5.36871 31.9478 5.24118 31.8545 5.14687L27.8535 1.14588C27.7597 1.05158 27.6321 0.998475 27.499 0.998475L11.499 0.997437ZM28.002 2.70836L30.291 4.9994H28.5C28.2143 4.9994 28.002 4.78605 28.002 4.50037V2.70836ZM16.999 4.9994C16.3178 4.98428 16.3178 6.01412 16.999 5.99942H24.499C25.1802 6.01453 25.1802 4.9847 24.499 4.9994H16.999ZM13.5 8.9994H24.499C25.1802 9.01452 25.1802 7.98469 24.499 7.99939H13.4761C12.8006 8.04474 12.8471 9.01636 13.5 8.9994ZM26.499 8.9994H28.5C29.1812 9.01452 29.1812 7.98469 28.5 7.99939H26.4751C25.7996 8.04474 25.8461 9.01636 26.499 8.9994ZM13.5 12.0004H28.5C29.1812 12.0155 29.1812 10.9856 28.5 11.0004H13.4761C12.8006 11.0459 12.8471 12.0173 13.5 12.0004ZM37.7344 13.0014C37.1532 13.0014 36.5739 13.2204 36.1328 13.6615L26.1445 23.6459C26.085 23.7067 26.042 23.7816 26.0195 23.8636L25.0195 27.3627C24.9146 27.738 25.2604 28.0838 25.6357 27.9789L29.1387 26.9789C29.2194 26.9554 29.293 26.9122 29.3525 26.8528L39.3398 16.8684C40.2221 15.9862 40.2221 14.5437 39.3398 13.6614C38.8987 13.2203 38.3156 13.0014 37.7344 13.0014ZM37.7344 13.9896C38.0571 13.9896 38.3805 14.1153 38.6318 14.3666C39.1346 14.8693 38.0028 13.4971 37.5 13.9999V14.4999L37.9021 14.001L36.4561 14.7484L38.5 14.9999C38.7514 14.7485 37.4116 13.9896 37.7344 13.9896ZM13.4761 14.001C12.8388 14.0771 12.8821 14.98 13.5 14.9971H15.5C16.1856 15.0572 16.2437 14.0155 15.5278 14L13.4761 14.001ZM17.501 14.9971H28.5C29.1867 15.0577 29.2439 14.0137 28.5547 13.999C28.5364 13.9987 28.5182 13.9993 28.5 14.0009H17.4751C16.8343 14.0782 16.8814 14.984 17.501 14.9971ZM35.749 15.4551H35.5L27.208 23.6459V24L35.749 15.4551ZM37.543 17.4999V17.25L29.002 25.793H29.3525L37.543 17.4999ZM13.5 16.998C12.8188 16.9829 12.8188 18.0127 13.5 17.998H28.5C29.1812 18.0132 29.1812 16.9833 28.5 16.998H13.5ZM13.5 19.9991C12.8188 19.9839 12.8188 21.0137 13.5 20.999H22.498C23.1793 21.0141 23.1793 19.9844 22.498 19.9991H13.5ZM24.499 19.9991C23.8178 19.9839 23.8178 21.0137 24.499 20.999H26.499C27.1802 21.0141 27.1802 19.9844 26.499 19.9991H24.499ZM13.5 23.9991H23.498C24.1793 24.0142 24.1793 22.9843 23.498 22.999H13.4761C12.8006 23.0444 12.8471 24.016 13.5 23.9991ZM26.7461 24.9541L28.0469 26.253L26.2295 26.7715L26.7461 24.9541ZM13.5 27H15.5C16.1812 27.0151 16.1812 25.9853 15.5 26H13.4761C12.8006 26.0456 12.8471 27.017 13.5 27ZM17.501 27H22.498C23.1793 27.0151 23.1793 25.9853 22.498 26H17.4751C16.7974 26.0476 16.8477 27.0199 17.501 27Z" fill="url(#paint0_linear_1_9)"/>
<rect y="10" width="21" height="22" fill="#0B2FA3" fill-opacity="0.45"/>
<defs>
<linearGradient id="paint0_linear_1_9" x1="25.0013" y1="0.997437" x2="25.0013" y2="30.9974" gradientUnits="userSpaceOnUse">
<stop stop-color="#0B2FA3"/>
<stop offset="1" stop-color="#04123D"/>
</linearGradient>
</defs>
</svg>
