<svg width="42" height="27" viewBox="0 0 42 27" fill="none" xmlns="http://www.w3.org/2000/svg">
<path d="M35.5478 22.6411C35.3501 22.3345 35.0157 22.1517 34.653 22.1517H1.0656C0.706228 22.1517 0.374074 22.3328 0.176324 22.6355C-0.0241884 22.9432 -0.0558528 23.3265 0.092451 23.662L0.559026 24.6957C1.02672 25.7216 2.04986 26.3842 3.16464 26.3842H32.5423C33.6637 26.3842 34.6869 25.721 35.1479 24.6968L35.6256 23.6637L35.6261 23.662C35.7761 23.3304 35.7467 22.9482 35.5478 22.6411ZM20.7152 24.9134H14.9996C14.6274 24.9134 14.3253 24.6118 14.3253 24.2391C14.3253 23.8664 14.6274 23.5642 14.9996 23.5642H20.7152C21.0878 23.5642 21.3895 23.8664 21.3895 24.2391C21.3895 24.6118 21.0878 24.9134 20.7152 24.9134Z" fill="url(#paint0_linear_1_23)"/>
<path d="M26.6981 11.4314C26.6647 11.4014 26.6314 11.3719 26.5903 11.3558C26.5564 11.3397 26.522 11.3308 26.4876 11.3292L26.3831 11.3236L23.2226 11.2947C23.0271 11.2981 22.8722 11.4503 22.8688 11.6458C22.866 11.8341 23.0249 11.9963 23.2138 11.9918L25.5783 12.0135L20.8781 16.5159L18.1392 13.8292C17.9536 13.6448 17.6543 13.6287 17.4432 13.792L12.753 17.4496L9.48863 14.6724C9.34143 14.5458 9.12425 14.5624 8.99816 14.7091C8.87152 14.8563 8.89486 15.0734 9.03482 15.1995L12.4064 18.0668C12.4925 18.1478 12.6025 18.1889 12.7202 18.1951C12.8385 18.2012 12.9663 18.1662 13.0757 18.0812L17.7581 14.4297L20.5037 17.1242C20.7092 17.3302 21.0375 17.3269 21.2436 17.1286L26.1048 12.4817L26.0726 14.9151C26.0693 15.104 26.222 15.2584 26.4026 15.2684C26.4098 15.2684 26.4165 15.269 26.4165 15.269C26.612 15.2723 26.7669 15.1129 26.7697 14.9251L26.8036 11.6813C26.8086 11.5836 26.7714 11.498 26.7053 11.4314H26.6981Z" fill="url(#paint1_linear_1_23)"/>
<path d="M15.8197 12.6738H16.9095C17.1222 12.6738 17.2944 12.5016 17.2944 12.2888V5.37183C17.2944 5.1591 17.1222 4.98691 16.9095 4.98691H15.8197C15.6075 4.98691 15.4347 5.1591 15.4347 5.37183V12.2888C15.4347 12.5016 15.6075 12.6738 15.8197 12.6738Z" fill="url(#paint2_linear_1_23)"/>
<path d="M13.117 12.6739H14.2417C14.4544 12.6739 14.6266 12.5017 14.6266 12.289V8.75243C14.6266 8.54025 14.4544 8.36806 14.2417 8.36806H13.117C12.9042 8.36806 12.732 8.54025 12.732 8.75243V12.289C12.732 12.5017 12.9042 12.6739 13.117 12.6739Z" fill="url(#paint3_linear_1_23)"/>
<path d="M10.3945 12.6739H11.4842C11.697 12.6739 11.8692 12.5017 11.8692 12.2889V7.63985C11.8692 7.4271 11.697 7.25491 11.4842 7.25491H10.3945C10.1817 7.25491 10.0095 7.4271 10.0095 7.63985V12.2889C10.0095 12.5017 10.1817 12.6739 10.3945 12.6739Z" fill="url(#paint4_linear_1_23)"/>
<path d="M9.15415 12.289V10.361C9.15415 10.1488 8.9814 9.97608 8.76921 9.97608H7.67942C7.46668 9.97608 7.2945 10.1488 7.2945 10.361V12.289C7.2945 12.5017 7.46668 12.6739 7.67942 12.6739H8.76921C8.9814 12.6739 9.15415 12.5017 9.15415 12.289Z" fill="url(#paint5_linear_1_23)"/>
<path d="M32.9814 3.2746C32.9814 1.94152 31.9038 0.858398 30.5708 0.858398H5.15347C3.82038 0.858398 2.7317 1.94152 2.7317 3.2746V21.7322H32.9814V3.2746ZM30.2758 19.2404C30.2758 19.6464 29.9465 19.9758 29.5404 19.9758H6.18159C5.77501 19.9758 5.44563 19.6464 5.44563 19.2404V4.30274C5.44563 3.8967 5.77501 3.56732 6.18159 3.56732H29.5404C29.9465 3.56732 30.2758 3.8967 30.2758 4.30274V19.2404Z" fill="url(#paint6_linear_1_23)"/>
<path d="M28.2021 5.33381H19.5221C19.4071 5.33381 19.3138 5.42713 19.3138 5.5421C19.3138 5.65708 19.4071 5.75039 19.5221 5.75039H28.2021C28.3171 5.75039 28.4104 5.65708 28.4104 5.5421C28.4104 5.42713 28.3171 5.33381 28.2021 5.33381Z" fill="url(#paint7_linear_1_23)"/>
<path d="M28.2021 7.04656H19.5221C19.4071 7.04656 19.3138 7.13988 19.3138 7.25485C19.3138 7.36983 19.4071 7.46314 19.5221 7.46314H28.2021C28.3171 7.46314 28.4104 7.36983 28.4104 7.25485C28.4104 7.13988 28.3171 7.04656 28.2021 7.04656Z" fill="url(#paint8_linear_1_23)"/>
<path d="M28.2021 8.75931H19.5221C19.4071 8.75931 19.3138 8.85263 19.3138 8.9676C19.3138 9.08258 19.4071 9.17589 19.5221 9.17589H28.2021C28.3171 9.17589 28.4104 9.08258 28.4104 8.9676C28.4104 8.85263 28.3171 8.75931 28.2021 8.75931Z" fill="url(#paint9_linear_1_23)"/>
<rect x="21" y="4" width="21" height="22" fill="#0B2FA3" fill-opacity="0.45"/>
<defs>
<linearGradient id="paint0_linear_1_23" x1="17.8605" y1="22.1517" x2="17.8605" y2="26.3842" gradientUnits="userSpaceOnUse">
<stop stop-color="#0B2FA3"/>
<stop offset="1" stop-color="#04123D"/>
</linearGradient>
<linearGradient id="paint1_linear_1_23" x1="17.8596" y1="11.2947" x2="17.8596" y2="18.1957" gradientUnits="userSpaceOnUse">
<stop stop-color="#0B2FA3"/>
<stop offset="1" stop-color="#04123D"/>
</linearGradient>
<linearGradient id="paint2_linear_1_23" x1="16.3645" y1="4.98691" x2="16.3645" y2="12.6738" gradientUnits="userSpaceOnUse">
<stop stop-color="#0B2FA3"/>
<stop offset="1" stop-color="#04123D"/>
</linearGradient>
<linearGradient id="paint3_linear_1_23" x1="13.6793" y1="8.36806" x2="13.6793" y2="12.6739" gradientUnits="userSpaceOnUse">
<stop stop-color="#0B2FA3"/>
<stop offset="1" stop-color="#04123D"/>
</linearGradient>
<linearGradient id="paint4_linear_1_23" x1="10.9393" y1="7.25491" x2="10.9393" y2="12.6739" gradientUnits="userSpaceOnUse">
<stop stop-color="#0B2FA3"/>
<stop offset="1" stop-color="#04123D"/>
</linearGradient>
<linearGradient id="paint5_linear_1_23" x1="8.22432" y1="9.97608" x2="8.22432" y2="12.6739" gradientUnits="userSpaceOnUse">
<stop stop-color="#0B2FA3"/>
<stop offset="1" stop-color="#04123D"/>
</linearGradient>
<linearGradient id="paint6_linear_1_23" x1="17.8566" y1="0.858398" x2="17.8566" y2="21.7322" gradientUnits="userSpaceOnUse">
<stop stop-color="#0B2FA3"/>
<stop offset="1" stop-color="#04123D"/>
</linearGradient>
<linearGradient id="paint7_linear_1_23" x1="23.8621" y1="5.33381" x2="23.8621" y2="5.75039" gradientUnits="userSpaceOnUse">
<stop stop-color="#0B2FA3"/>
<stop offset="1" stop-color="#04123D"/>
</linearGradient>
<linearGradient id="paint8_linear_1_23" x1="23.8621" y1="7.04656" x2="23.8621" y2="7.46314" gradientUnits="userSpaceOnUse">
<stop stop-color="#0B2FA3"/>
<stop offset="1" stop-color="#04123D"/>
</linearGradient>
<linearGradient id="paint9_linear_1_23" x1="23.8621" y1="8.75931" x2="23.8621" y2="9.17589" gradientUnits="userSpaceOnUse">
<stop stop-color="#0B2FA3"/>
<stop offset="1" stop-color="#04123D"/>
</linearGradient>
</defs>
</svg>
