<svg width="78" height="78" viewBox="0 0 78 78" fill="none" xmlns="http://www.w3.org/2000/svg">
<path d="M37.5794 3.05065C37.0173 2.5531 36.2694 2.31986 35.5254 2.41096C28.4647 3.27582 21.7867 6.48646 16.6678 11.4646L11.6779 6.47473C11.1869 5.98403 10.5343 5.71362 9.84037 5.71362H3.19971C2.5687 5.71362 2.05713 6.22519 2.05713 6.8562C2.05713 7.48721 2.5687 7.99878 3.19971 7.99878H9.84037C9.92294 7.99878 10.0038 8.0323 10.0622 8.09064L15.0863 13.1148C10.6461 18.0868 7.78449 24.3564 6.97555 30.9609C6.88445 31.7041 7.11784 32.4527 7.61524 33.015C8.11569 33.5805 8.83582 33.9048 9.59083 33.9048H26.6431C27.2743 33.9048 27.7857 33.3933 27.7857 32.7623C27.7857 32.1312 27.2743 31.6197 26.6431 31.6197H9.59068C9.4525 31.6197 9.36567 31.545 9.32636 31.5004C9.28036 31.4484 9.22871 31.3608 9.24364 31.2387C9.99089 25.1379 12.6214 19.3432 16.7042 14.7327L24.79 22.8185C25.0132 23.0415 25.3057 23.1532 25.598 23.1532C25.8904 23.1532 26.1829 23.0417 26.4061 22.8185C26.8523 22.3723 26.8523 21.6488 26.4061 21.2027L18.2837 13.0804C23.0434 8.46114 29.2462 5.48221 35.8032 4.67906C35.926 4.66428 36.013 4.71577 36.0651 4.76178C36.1096 4.80124 36.1843 4.88792 36.1843 5.0261V31.2717C36.1843 31.4635 36.0283 31.6195 35.8365 31.6195H31.6228C30.9916 31.6195 30.4802 32.1311 30.4802 32.7621C30.4802 33.3931 30.9916 33.9047 31.6228 33.9047H35.8365C37.2883 33.9047 38.4694 32.7236 38.4694 31.2717V5.02625C38.4694 4.27123 38.1451 3.5511 37.5794 3.05065Z" fill="black"/>
<path d="M44.3362 33.9046H63.722C64.4845 33.9046 65.2089 33.5744 65.7093 32.9987C66.2101 32.4226 66.4363 31.6586 66.3301 30.9025C65.6168 25.8246 63.388 21.2169 60.1198 17.5544L66.1733 11.5009C66.8217 11.8763 67.5732 12.0923 68.3746 12.0923C70.8054 12.0923 72.7831 10.1147 72.7831 7.68376C72.7831 5.25296 70.8055 3.27539 68.3746 3.27539C65.9438 3.27539 63.966 5.25296 63.966 7.68376C63.966 8.48524 64.1821 9.2366 64.5573 9.88498L58.5232 15.919C54.7884 12.416 50.003 10.0218 44.7051 9.27758C43.9484 9.17109 43.1848 9.39793 42.6088 9.89869C42.0333 10.3991 41.7031 11.1234 41.7031 11.8859V31.2716C41.7031 32.7234 42.8842 33.9046 44.3362 33.9046ZM68.3746 5.56055C69.5455 5.56055 70.4979 6.513 70.4979 7.68391C70.4979 8.85483 69.5455 9.80728 68.3746 9.80728C67.2038 9.80728 66.2512 8.85468 66.2512 7.68391C66.2512 6.51315 67.2036 5.56055 68.3746 5.56055ZM43.9883 11.8859C43.9883 11.748 44.0634 11.6621 44.1082 11.6232C44.1475 11.5891 44.2256 11.537 44.3362 11.537C44.3525 11.537 44.3696 11.5381 44.3873 11.5406C49.183 12.2143 53.5177 14.3735 56.9086 17.5339L50.9004 23.542C50.4542 23.9882 50.4542 24.7117 50.9004 25.1579C51.1236 25.3809 51.4161 25.4926 51.7085 25.4926C52.0008 25.4926 52.2933 25.3811 52.5165 25.1579L58.5025 19.1717C61.4292 22.4888 63.4244 26.6448 64.0672 31.2206C64.0865 31.3583 64.0238 31.4546 63.9845 31.4995C63.9456 31.5443 63.8598 31.6194 63.7218 31.6194H44.3361C44.1443 31.6194 43.9883 31.4634 43.9883 31.2716V11.8859Z" fill="black"/>
<path d="M15.6323 51.4346H29.6447C30.2759 51.4346 30.7873 50.923 30.7873 50.292C30.7873 49.661 30.2759 49.1494 29.6447 49.1494H15.6323C15.0012 49.1494 14.4897 49.661 14.4897 50.292C14.4897 50.923 15.0013 51.4346 15.6323 51.4346Z" fill="black"/>
<path d="M15.6328 57.5342H29.6452C30.2764 57.5342 30.7878 57.0226 30.7878 56.3916C30.7878 55.7606 30.2764 55.249 29.6452 55.249H15.6328C15.0017 55.249 14.4902 55.7606 14.4902 56.3916C14.4902 57.0226 15.0018 57.5342 15.6328 57.5342Z" fill="black"/>
<path d="M35.8365 37.1377H2.63412C1.88489 37.1377 1.16872 37.4582 0.669035 38.0167C0.171175 38.5734 -0.0667857 39.3176 0.0162416 40.0584C0.922535 48.1538 4.22748 55.7006 9.57353 61.8829C9.98638 62.3603 10.708 62.4124 11.185 61.9997C11.6625 61.587 11.7149 60.8655 11.302 60.3881C6.25914 54.5565 3.14203 47.4387 2.28708 39.804C2.27321 39.68 2.32593 39.592 2.37254 39.5398C2.41169 39.4961 2.49762 39.4225 2.63427 39.4225H35.8367C36.0285 39.4225 36.1845 39.5785 36.1845 39.7703V72.9728C36.1845 73.1093 36.111 73.1955 36.0672 73.2346C36.0149 73.2812 35.9259 73.3338 35.803 73.3199C27.918 72.4371 20.6171 69.1585 14.6895 63.8387C14.2197 63.4173 13.4976 63.4563 13.0759 63.926C12.6544 64.3956 12.6935 65.1181 13.163 65.5394C19.4471 71.1789 27.1878 74.6546 35.5486 75.5909C35.6455 75.6017 35.7424 75.6071 35.8391 75.6071C36.4809 75.6069 37.1065 75.3706 37.5903 74.9378C38.1489 74.4381 38.4695 73.722 38.4695 72.9728V39.7707C38.4696 38.319 37.2885 37.1377 35.8365 37.1377Z" fill="black"/>
<path d="M6.82153 12.9004C7.45269 12.9004 7.96411 12.3888 7.96411 11.7578C7.96411 11.1268 7.45269 10.6152 6.82153 10.6152H3.19971C2.5687 10.6152 2.05713 11.1268 2.05713 11.7578C2.05713 12.3888 2.5687 12.9004 3.19971 12.9004H6.82153Z" fill="black"/>
<path d="M77.9999 64.6973C77.9999 64.0663 77.4885 63.5547 76.8574 63.5547H70.2167C70.1328 63.5547 70.054 63.5221 69.9947 63.4627L65.3021 58.77C70.049 53.6089 73.1025 47.0246 73.9441 40.0801C74.0341 39.3366 73.8003 38.5879 73.3023 38.026C72.802 37.4614 72.0824 37.1377 71.3283 37.1377H54.3272C53.6961 37.1377 53.1847 37.6493 53.1847 38.2803C53.1847 38.9113 53.6961 39.4228 54.3272 39.4228H71.3285C71.4662 39.4228 71.5529 39.4973 71.5922 39.5417C71.6385 39.5939 71.6906 39.6821 71.6757 39.8052C70.8954 46.2448 68.0723 52.3524 63.6843 57.1522L55.2667 48.7347C54.8204 48.2885 54.097 48.2885 53.6508 48.7347C53.2046 49.1809 53.2046 49.9044 53.6508 50.3505L62.0808 58.7804C57.2276 63.3612 50.9739 66.3098 44.3707 67.11C44.2488 67.1253 44.1594 67.0729 44.1071 67.0266C44.0628 66.9873 43.9883 66.9006 43.9883 66.7629V39.7707C43.9883 39.5789 44.1443 39.4228 44.3361 39.4228H49.3476C49.9787 39.4228 50.4902 38.9113 50.4902 38.2803C50.4902 37.6493 49.9787 37.1377 49.3476 37.1377H44.3361C42.8842 37.1377 41.7031 38.3188 41.7031 39.7707V66.7631C41.7031 67.5172 42.027 68.2367 42.5916 68.7371C43.0744 69.1649 43.6949 69.3977 44.3315 69.3977C44.436 69.3977 44.541 69.3915 44.6456 69.3788C51.7539 68.5175 58.4839 65.3376 63.6974 60.3972L68.3788 65.0786C68.8698 65.5696 69.5225 65.8399 70.2168 65.8399H76.8575C77.4885 65.8399 77.9999 65.3283 77.9999 64.6973Z" fill="black"/>
<path d="M76.8573 67.5811H73.2354C72.6042 67.5811 72.0928 68.0926 72.0928 68.7236C72.0928 69.3546 72.6042 69.8662 73.2354 69.8662H76.8573C77.4885 69.8662 77.9999 69.3546 77.9999 68.7236C77.9999 68.0926 77.4885 67.5811 76.8573 67.5811Z" fill="black"/>
</svg>
