<svg width="60" height="60" viewBox="0 0 60 60" fill="none" xmlns="http://www.w3.org/2000/svg">
<path d="M18.4898 43.5096C20.3788 42.3494 21.6304 40.2647 21.6304 37.901C21.6304 34.2729 18.6796 31.3221 15.0515 31.3221C11.4234 31.3221 8.47258 34.2729 8.47258 37.901C8.47258 40.2647 9.72415 42.3494 11.6132 43.5096C6.75227 44.7998 2.84993 48.7561 1.78587 53.8525C1.64055 54.551 1.80813 55.24 2.25813 55.7943C2.70813 56.3475 3.34915 56.6533 4.06282 56.6533H26.0413C26.755 56.6533 27.396 56.3486 27.846 55.7943C28.296 55.24 28.4636 54.551 28.3171 53.8525C27.2531 48.7561 23.3507 44.7998 18.4898 43.5096ZM9.87883 37.901C9.87883 35.0486 12.1991 32.7283 15.0515 32.7283C17.9038 32.7283 20.2241 35.0486 20.2241 37.901C20.2241 40.6455 18.0796 42.9143 15.3421 43.0654V43.0666C15.2448 43.0643 15.1488 43.0596 15.0515 43.0596C14.9542 43.0596 14.8581 43.0643 14.7609 43.0666V43.0654C12.0234 42.9143 9.87883 40.6455 9.87883 37.901ZM26.7538 54.9072C26.5687 55.1357 26.3355 55.2471 26.0413 55.2471H4.06165C3.76751 55.2471 3.5343 55.1357 3.34915 54.9084C3.16399 54.6799 3.10305 54.4291 3.16282 54.1408C4.33352 48.5357 9.33274 44.467 15.0515 44.467C20.7702 44.467 25.7706 48.5357 26.9402 54.1396C26.9999 54.4268 26.939 54.6787 26.7538 54.9072ZM58.1659 53.8525C57.1019 48.7572 53.1995 44.7998 48.3386 43.5096C50.2277 42.3494 51.4792 40.2647 51.4792 37.901C51.4792 34.2729 48.5284 31.3221 44.9003 31.3221C41.2722 31.3221 38.3214 34.2729 38.3214 37.901C38.3214 40.2647 39.573 42.3494 41.462 43.5096C36.6011 44.7998 32.6988 48.7561 31.6347 53.8525C31.4882 54.551 31.6558 55.24 32.1058 55.7943C32.5558 56.3475 33.1968 56.6533 33.9105 56.6533H55.889C56.6027 56.6533 57.2437 56.3486 57.6937 55.7943C58.1448 55.24 58.3124 54.551 58.1659 53.8525ZM39.7288 37.901C39.7288 35.0486 42.0491 32.7283 44.9015 32.7283C47.7538 32.7283 50.0741 35.0486 50.0741 37.901C50.0741 40.6455 47.9296 42.9143 45.1921 43.0654V43.0666C45.0948 43.0643 44.9988 43.0596 44.9015 43.0596C44.8042 43.0596 44.7081 43.0643 44.6109 43.0666V43.0654C41.8722 42.9143 39.7288 40.6455 39.7288 37.901ZM56.6038 54.9072C56.4187 55.1357 56.1855 55.2471 55.8913 55.2471H33.9116C33.6175 55.2471 33.3843 55.1357 33.1991 54.9084C33.014 54.6799 32.9531 54.4291 33.0128 54.1408C34.1835 48.5357 39.1827 44.467 44.9015 44.467C50.6202 44.467 55.6206 48.5357 56.7902 54.1396C56.8499 54.4279 56.789 54.6787 56.6038 54.9072ZM31.821 43.9303C31.6406 43.9303 31.4613 43.8611 31.3241 43.724C31.0499 43.4498 31.0499 43.0045 31.3241 42.7303L32.9109 41.1436H24.9304C24.5425 41.1436 24.2273 40.8283 24.2273 40.4404C24.2273 40.0525 24.5425 39.7373 24.9304 39.7373H32.9109L31.3241 38.1506C31.0499 37.8764 31.0499 37.4311 31.3241 37.1568C31.5984 36.8826 32.0437 36.8826 32.3179 37.1568L35.1046 39.9436C35.3788 40.2178 35.3788 40.6631 35.1046 40.9373L32.3179 43.724C32.1808 43.8611 32.0015 43.9303 31.821 43.9303ZM35.0214 35.3135H27.0409L28.6277 36.9002C28.9019 37.1744 28.9019 37.6197 28.6277 37.8951C28.4906 38.0322 28.3101 38.1014 28.1308 38.1014C27.9503 38.1014 27.771 38.0322 27.6339 37.8951L24.8472 35.1072C24.573 34.833 24.573 34.3877 24.8472 34.1135L27.6339 31.3268C27.9081 31.0525 28.3534 31.0525 28.6277 31.3268C28.9019 31.601 28.9019 32.0463 28.6277 32.3205L27.0409 33.9072H35.0214C35.4093 33.9072 35.7245 34.2225 35.7245 34.6104C35.7245 34.9982 35.4105 35.3135 35.0214 35.3135ZM9.28938 24.1396H25.9359L29.4222 28.601C29.5558 28.7721 29.7597 28.8717 29.9765 28.8717C30.1933 28.8717 30.3972 28.7721 30.5308 28.601L34.0171 24.1396H50.6636C53.0448 24.1396 54.982 22.2025 54.982 19.8213V7.77441C54.982 5.39316 53.0448 3.45605 50.6636 3.45605H9.28938C6.90813 3.45605 4.97102 5.39316 4.97102 7.77441V19.8213C4.97102 22.2025 6.90813 24.1396 9.28938 24.1396ZM6.37727 7.77441C6.37727 6.16895 7.68391 4.8623 9.28938 4.8623H50.6624C52.2679 4.8623 53.5745 6.16895 53.5745 7.77441V19.8213C53.5745 21.4268 52.2679 22.7334 50.6624 22.7334H33.6738C33.457 22.7334 33.253 22.833 33.1195 23.0041L29.9753 27.0271L26.8323 23.0041C26.6988 22.833 26.4948 22.7334 26.2781 22.7334H9.28938C7.68391 22.7334 6.37727 21.4268 6.37727 19.8213V7.77441ZM40.3066 15.4807L39.7757 18.8346C39.7347 19.0959 39.8437 19.3584 40.057 19.5131C40.2702 19.6689 40.5538 19.6912 40.7894 19.5705L43.8152 18.0295L46.8409 19.5705C46.9417 19.6221 47.0507 19.6467 47.1597 19.6467C47.3062 19.6467 47.4503 19.601 47.5734 19.5119C47.7878 19.3561 47.8956 19.0947 47.8546 18.8334L47.3238 15.4795L49.7238 13.0783C49.9101 12.8908 49.9769 12.6154 49.8948 12.3635C49.8128 12.1115 49.5972 11.9275 49.3359 11.8865L45.9843 11.3557L44.4421 8.33105C44.3226 8.09551 44.08 7.94668 43.8152 7.94668C43.5503 7.94668 43.3089 8.09551 43.1882 8.33105L41.6472 11.3557L38.2933 11.8877C38.032 11.9287 37.8163 12.1139 37.7343 12.3646C37.6523 12.6154 37.7191 12.892 37.9054 13.0795L40.3066 15.4807ZM42.2202 12.6893C42.4429 12.6541 42.6339 12.5146 42.737 12.3143L43.8152 10.199L44.8933 12.3143C44.9952 12.5146 45.1874 12.6541 45.4101 12.6893L47.755 13.0607L46.0769 14.74C45.9175 14.8994 45.8448 15.1244 45.88 15.3471L46.2515 17.692L44.1363 16.615C43.9359 16.5131 43.6991 16.5131 43.4976 16.615L41.3823 17.692L41.7527 15.3471C41.7878 15.1244 41.714 14.8994 41.5558 14.74L39.8777 13.0607L42.2202 12.6893ZM26.4679 15.4807L25.937 18.8346C25.896 19.0959 26.0038 19.3584 26.2183 19.5131C26.4327 19.6689 26.7152 19.6912 26.9507 19.5705L29.9765 18.0295L33.0011 19.5705C33.1019 19.6221 33.2109 19.6467 33.3198 19.6467C33.4663 19.6467 33.6105 19.601 33.7335 19.5119C33.948 19.3561 34.0558 19.0947 34.0148 18.8334L33.4839 15.4795L35.8839 13.0783C36.0702 12.8908 36.137 12.6154 36.055 12.3635C35.973 12.1127 35.7573 11.9275 35.496 11.8865L32.1445 11.3557L30.6023 8.33105C30.4827 8.09551 30.2402 7.94668 29.9753 7.94668C29.7105 7.94668 29.4691 8.09551 29.3484 8.33105L27.8073 11.3557L24.4534 11.8877C24.1921 11.9287 23.9765 12.1139 23.8945 12.3646C23.8124 12.6166 23.8792 12.892 24.0656 13.0795L26.4679 15.4807ZM28.3816 12.6893C28.6042 12.6541 28.7952 12.5146 28.8984 12.3143L29.9765 10.199L31.0546 12.3143C31.1566 12.5146 31.3488 12.6541 31.5714 12.6893L33.9163 13.0607L32.2382 14.74C32.0788 14.8994 32.0062 15.1244 32.0413 15.3471L32.4128 17.692L30.2976 16.615C30.1968 16.5635 30.0878 16.5389 29.9788 16.5389C29.8698 16.5389 29.7597 16.5646 29.6601 16.615L27.5448 17.692L27.9163 15.3471C27.9515 15.1244 27.8777 14.8994 27.7195 14.74L26.0413 13.0607L28.3816 12.6893ZM12.6281 15.4807L12.0972 18.8346C12.0562 19.0959 12.1652 19.3584 12.3784 19.5131C12.5929 19.6689 12.8753 19.6912 13.1109 19.5705L16.1366 18.0295L19.1624 19.5705C19.2632 19.6221 19.3722 19.6467 19.4812 19.6467C19.6277 19.6467 19.7718 19.601 19.8948 19.5119C20.1093 19.3561 20.2171 19.0947 20.1761 18.8334L19.6452 15.4795L22.0452 13.0783C22.2316 12.8908 22.2984 12.6154 22.2163 12.3635C22.1343 12.1115 21.9187 11.9275 21.6573 11.8865L18.3034 11.3545L16.7613 8.32988C16.6417 8.09434 16.3991 7.94551 16.1343 7.94551C15.8695 7.94551 15.6281 8.09434 15.5073 8.32988L13.9687 11.3557L10.6148 11.8877C10.3534 11.9287 10.1378 12.1139 10.0558 12.3646C9.97376 12.6166 10.0406 12.892 10.2269 13.0795L12.6281 15.4807ZM14.5417 12.6893C14.7644 12.6541 14.9554 12.5146 15.0585 12.3143L16.1366 10.199L17.2148 12.3143C17.3167 12.5146 17.5089 12.6541 17.7316 12.6893L20.0765 13.0607L18.3984 14.74C18.239 14.8994 18.1663 15.1244 18.2015 15.3471L18.573 17.692L16.4577 16.615C16.357 16.5635 16.248 16.5389 16.139 16.5389C16.03 16.5389 15.9198 16.5646 15.8202 16.615L13.705 17.692L14.0765 15.3471C14.1116 15.1244 14.0378 14.8994 13.8796 14.74L12.2015 13.0607L14.5417 12.6893Z" fill="#05247E"/>
</svg>
