<svg width="60" height="60" viewBox="0 0 60 60" fill="none" xmlns="http://www.w3.org/2000/svg">
<g clip-path="url(#clip0_376_5514)">
<path d="M50.3758 10.7955C50.0676 10.7955 49.7653 10.6701 49.5474 10.4522C49.3295 10.2342 49.2041 9.93196 49.2041 9.62381C49.2041 9.31566 49.3295 9.01337 49.5474 8.79545C49.7653 8.57763 50.0676 8.45215 50.3758 8.45215C50.6839 8.45215 50.9862 8.57752 51.2041 8.79545C51.4221 9.01337 51.5474 9.31566 51.5474 9.62381C51.5474 9.93313 51.4221 10.2342 51.2041 10.4522C50.9862 10.6701 50.6839 10.7955 50.3758 10.7955Z" fill="#05164D"/>
<path d="M29.9991 59.9998C23.778 60 17.6984 58.0717 12.6329 54.4695L4.89099 56.5439C4.48654 56.6522 4.05525 56.5366 3.75917 56.2407C3.46321 55.9447 3.34756 55.5132 3.45594 55.109L5.53037 47.3671C1.52352 41.7326 -0.412067 34.8426 0.0733525 27.8999C0.577284 20.6944 3.67094 13.9099 8.78454 8.79621C19.0207 -1.43978 35.0881 -2.9169 46.9895 5.28415C47.5223 5.65135 47.6567 6.38083 47.2895 6.9137C46.9224 7.4468 46.1927 7.58096 45.6598 7.21376C34.6896 -0.345803 19.8783 1.01661 10.4417 10.4532C0.832706 20.0622 -0.325247 35.5305 7.74832 46.4336C7.96086 46.7207 8.03093 47.0892 7.93849 47.4341L6.24473 53.7552L12.5657 52.0615C12.9107 51.9691 13.2792 52.0391 13.5662 52.2515C24.4697 60.3252 39.938 59.1673 49.5468 49.5582C58.9836 40.1215 60.3458 25.3098 52.7858 14.3395C52.4186 13.8066 52.5529 13.077 53.0858 12.7098C53.6185 12.3427 54.3483 12.477 54.7155 13.0097C62.917 24.9112 61.4402 40.9791 51.2039 51.2153C46.0901 56.329 39.3058 59.4227 32.1002 59.9266C31.3991 59.9755 30.6978 59.9998 29.9991 59.9998Z" fill="#05164D"/>
<path d="M29.8015 39.1904C27.7603 39.1904 26.1076 37.5378 26.1076 35.5063C26.1076 31.6423 28.2714 28.153 31.7546 26.4001C33.2939 25.6254 34.2374 24.0099 34.158 22.2845C34.0626 20.2076 32.0842 18.2294 30.0074 18.1337C28.7991 18.0789 27.6525 18.505 26.7816 19.3368C26.2622 19.8329 25.8847 20.4216 25.6594 21.0866C25.148 22.5968 23.7522 23.6219 22.1861 23.6374V23.6375C22.1738 23.6376 22.1615 23.6376 22.1492 23.6376C20.973 23.6376 19.8581 23.0729 19.1609 22.1217C18.4553 21.1593 18.2619 19.9605 18.6301 18.8324C19.2237 17.0141 20.2804 15.3437 21.6858 14.0013C24.0281 11.7644 27.1028 10.6153 30.3464 10.7638C33.1888 10.8944 35.9212 12.1332 38.0399 14.2519C40.1586 16.3706 41.3973 19.1028 41.528 21.9455C41.741 26.5737 39.2066 30.9092 35.0712 32.9905C34.093 33.4828 33.4853 34.4469 33.4853 35.5064C33.4855 37.5378 31.8329 39.1904 29.8015 39.1904ZM29.7934 15.7855C29.9005 15.7855 30.0077 15.788 30.1155 15.793C33.4233 15.9451 36.3467 18.8685 36.4988 22.1767C36.6206 24.8242 35.1719 27.3035 32.8081 28.4932C30.1204 29.8457 28.4509 32.533 28.4509 35.5062C28.4509 36.2455 29.0523 36.8469 29.7916 36.8469C30.5407 36.8469 31.1421 36.2454 31.1421 35.5062C31.1421 33.5559 32.244 31.7898 34.0179 30.8971C37.3287 29.2308 39.3578 25.7592 39.1873 22.0531C39.0835 19.7954 38.0876 17.6133 36.3829 15.9089C34.6783 14.2043 32.4963 13.2084 30.2388 13.1045C27.6421 12.9866 25.1791 13.9053 23.3044 15.6959C22.1617 16.7872 21.3385 18.0871 20.8579 19.5597C20.7267 19.9613 20.7971 20.3901 21.0508 20.7362C21.3111 21.0914 21.7105 21.2943 22.1484 21.2943C22.1532 21.2943 22.1571 21.2918 22.1628 21.2942C22.7342 21.2886 23.2475 20.903 23.4399 20.3348C23.7827 19.3225 24.3787 18.3915 25.163 17.6423C26.4239 16.4381 28.0577 15.7855 29.7934 15.7855Z" fill="#05164D"/>
<path d="M29.7964 49.2597C27.7623 49.2597 26.1074 47.6048 26.1074 45.5708C26.1074 43.5367 27.7623 41.8818 29.7964 41.8818C31.8305 41.8818 33.4854 43.5367 33.4854 45.5708C33.4854 47.6048 31.8305 49.2597 29.7964 49.2597ZM29.7964 44.2252C29.0544 44.2252 28.4507 44.8288 28.4507 45.5708C28.4507 46.3127 29.0544 46.9164 29.7964 46.9164C30.5384 46.9164 31.1421 46.3127 31.1421 45.5708C31.1421 44.8288 30.5384 44.2252 29.7964 44.2252Z" fill="#05164D"/>
</g>
<defs>
<clipPath id="clip0_376_5514">
<rect width="60" height="60" fill="white"/>
</clipPath>
</defs>
</svg>
