<svg width="58" height="58" viewBox="0 0 58 58" fill="none" xmlns="http://www.w3.org/2000/svg">
<path d="M28.9999 28.461C34.4814 28.461 38.9255 23.0634 38.9255 16.4054C38.9255 9.74718 37.4662 4.34961 28.9999 4.34961C20.5332 4.34961 19.0742 9.74718 19.0742 16.4054C19.0744 23.0634 23.5183 28.461 28.9999 28.461Z" fill="#05164D"/>
<path d="M47.7253 46.3816C47.5417 34.7829 46.0268 31.4779 34.4351 29.3857C34.4351 29.3857 32.8031 31.4649 28.9999 31.4649C25.1967 31.4649 23.565 29.3857 23.565 29.3857C12.0996 31.4549 10.4924 34.711 10.2812 46.0047C10.264 46.9269 10.2561 46.9753 10.2529 46.8682C10.2535 47.0688 10.2544 47.4398 10.2544 48.0868C10.2544 48.0868 13.0142 53.6502 29 53.6502C44.9858 53.6502 47.7459 48.0868 47.7459 48.0868C47.7459 47.6712 47.7462 47.382 47.7465 47.1855C47.7434 47.2517 47.737 47.1234 47.7253 46.3816Z" fill="#05164D"/>
<path d="M42.7742 26.3084C47.2264 26.3084 50.8355 21.9247 50.8355 16.5171C50.8355 11.1093 49.6505 6.72559 42.7742 6.72559C41.6176 6.72559 40.6223 6.85003 39.7661 7.08235C41.3543 10.0102 41.572 13.5665 41.572 16.4052C41.572 19.6193 40.7007 22.6879 39.0962 25.2287C40.199 25.9174 41.4487 26.3084 42.7742 26.3084Z" fill="#05164D"/>
<path d="M57.9828 40.8633C57.8335 31.443 56.6033 28.7588 47.1886 27.0596C47.1886 27.0596 45.8633 28.7484 42.7744 28.7484C42.6466 28.7484 42.5228 28.7445 42.4009 28.7389C44.3635 29.6238 46.149 30.8559 47.4638 32.6588C49.7369 35.7757 50.2595 39.9627 50.3673 46.1138C56.7013 44.8622 57.9994 42.2485 57.9994 42.2485C57.9994 41.9079 57.9994 41.6742 58 41.5145C57.9975 41.5707 57.9923 41.47 57.9828 40.8633Z" fill="#05164D"/>
<path d="M15.2256 26.3083C16.5512 26.3083 17.8006 25.9173 18.9039 25.2287C17.2994 22.6879 16.4281 19.6193 16.4281 16.4052C16.4281 13.5663 16.6457 10.0101 18.2337 7.08235C17.3776 6.85003 16.3825 6.72559 15.2256 6.72559C8.34927 6.72559 7.16455 11.1093 7.16455 16.5171C7.16455 21.9245 10.7737 26.3083 15.2256 26.3083Z" fill="#05164D"/>
<path d="M15.5989 28.7389C15.4772 28.7445 15.3534 28.7484 15.2254 28.7484C12.1364 28.7484 10.8111 27.0596 10.8111 27.0596C1.39671 28.7588 0.166279 31.4429 0.0171807 40.8633C0.00746986 41.4701 0.00253975 41.5707 0 41.5143C0.000298794 41.674 0.000597589 41.9077 0.000597589 42.2483C0.000597589 42.2483 1.29886 44.862 7.6324 46.1137C7.74071 39.9627 8.26301 35.7757 10.5364 32.6587C11.8511 30.8561 13.6362 29.6238 15.5989 28.7389Z" fill="#05164D"/>
</svg>
