<svg width="83" height="168" viewBox="0 0 83 168" fill="none" xmlns="http://www.w3.org/2000/svg">
<g filter="url(#filter0_d_1_5054)">
<rect x="14" y="14" width="55.6522" height="140" rx="27.8261" fill="white"/>
<rect x="14.4348" y="14.4348" width="54.7826" height="139.13" rx="27.3913" stroke="#110302" stroke-opacity="0.49" stroke-width="0.869565"/>
</g>
<path d="M47.3914 131.656L38.7827 131.656L38.7827 134.911L36.4348 134.911L36.4348 125.661L38.7827 125.661L38.7827 128.995L47.3914 128.995L47.3914 131.656ZM47.5479 119.259C47.5479 120.094 47.407 120.856 47.1253 121.544C46.8435 122.233 46.447 122.833 45.9357 123.344C45.4244 123.856 44.8244 124.252 44.1357 124.534C43.447 124.816 42.6905 124.957 41.8661 124.957C41.0418 124.957 40.2853 124.816 39.5966 124.534C38.9079 124.252 38.3079 123.856 37.7966 123.344C37.2853 122.833 36.8887 122.233 36.607 121.544C36.3253 120.856 36.1844 120.099 36.1844 119.275C36.1844 118.451 36.3253 117.694 36.607 117.005C36.8887 116.317 37.2853 115.717 37.7966 115.205C38.3079 114.694 38.9079 114.303 39.5966 114.031C40.2853 113.75 41.0418 113.609 41.8661 113.609C42.6801 113.609 43.4366 113.75 44.1357 114.031C44.8244 114.303 45.4244 114.694 45.9357 115.205C46.447 115.717 46.8435 116.317 47.1253 117.005C47.407 117.694 47.5479 118.445 47.5479 119.259ZM45.0435 119.275C45.0435 118.847 44.9653 118.456 44.8087 118.101C44.6522 117.736 44.4331 117.423 44.1514 117.162C43.8592 116.891 43.5201 116.682 43.134 116.536C42.7479 116.39 42.3253 116.317 41.8661 116.317C41.407 116.317 40.9844 116.39 40.5983 116.536C40.2122 116.682 39.8783 116.891 39.5966 117.162C39.3044 117.423 39.0801 117.736 38.9235 118.101C38.767 118.456 38.6887 118.847 38.6887 119.275C38.6887 119.703 38.767 120.099 38.9235 120.464C39.0801 120.819 39.3044 121.132 39.5966 121.404C39.8783 121.675 40.2122 121.884 40.5983 122.03C40.9844 122.165 41.407 122.233 41.8661 122.233C42.3253 122.233 42.7531 122.165 43.1496 122.03C43.5357 121.884 43.8696 121.675 44.1514 121.404C44.4331 121.132 44.6522 120.819 44.8087 120.464C44.9653 120.099 45.0435 119.703 45.0435 119.275ZM47.3914 104.157L38.7827 104.157L38.7827 107.413L36.4348 107.413L36.4348 98.1626L38.7827 98.1626L38.7827 101.497L47.3914 101.497L47.3914 104.157ZM47.5479 91.7609C47.5479 92.5957 47.407 93.3574 47.1253 94.0461C46.8435 94.7348 46.447 95.3348 45.9357 95.8461C45.4244 96.3574 44.8244 96.7539 44.1357 97.0357C43.447 97.3174 42.6905 97.4583 41.8661 97.4583C41.0418 97.4583 40.2853 97.3174 39.5966 97.0357C38.9079 96.7539 38.3079 96.3574 37.7966 95.8461C37.2853 95.3348 36.8887 94.7348 36.607 94.0461C36.3253 93.3574 36.1844 92.6009 36.1844 91.7766C36.1844 90.9522 36.3253 90.1957 36.607 89.507C36.8887 88.8183 37.2853 88.2183 37.7966 87.707C38.3079 87.1957 38.9079 86.8044 39.5966 86.5331C40.2853 86.2513 41.0418 86.1105 41.8661 86.1105C42.6801 86.1105 43.4366 86.2513 44.1357 86.5331C44.8244 86.8044 45.4244 87.1957 45.9357 87.707C46.447 88.2183 46.8435 88.8183 47.1253 89.507C47.407 90.1957 47.5479 90.947 47.5479 91.7609ZM45.0435 91.7766C45.0435 91.3487 44.9653 90.9574 44.8087 90.6026C44.6522 90.2374 44.4331 89.9244 44.1514 89.6635C43.8592 89.3922 43.5201 89.1835 43.134 89.0374C42.7479 88.8913 42.3253 88.8183 41.8661 88.8183C41.407 88.8183 40.9844 88.8913 40.5983 89.0374C40.2122 89.1835 39.8783 89.3922 39.5966 89.6635C39.3044 89.9244 39.0801 90.2374 38.9235 90.6026C38.767 90.9574 38.6887 91.3487 38.6887 91.7766C38.6887 92.2044 38.767 92.6009 38.9235 92.9661C39.0801 93.3209 39.3044 93.6339 39.5966 93.9053C39.8783 94.1766 40.2122 94.3853 40.5983 94.5313C40.9844 94.667 41.407 94.7348 41.8661 94.7348C42.3253 94.7348 42.7531 94.667 43.1496 94.5313C43.5357 94.3853 43.8696 94.1766 44.1514 93.9053C44.4331 93.6339 44.6522 93.3209 44.8087 92.9661C44.9653 92.6009 45.0435 92.2044 45.0435 91.7766ZM47.3914 84.0518L36.4348 84.0518L36.4348 79.3249C36.4348 78.6362 36.5914 78.0258 36.9044 77.4936C37.2174 76.951 37.6453 76.5231 38.1879 76.2101C38.7305 75.8866 39.3409 75.7249 40.0192 75.7249C40.7287 75.7249 41.3653 75.8866 41.9287 76.2101C42.4818 76.5231 42.9201 76.951 43.2435 77.4936C43.567 78.0258 43.7287 78.6362 43.7287 79.3249L43.7287 81.391L47.3914 81.391L47.3914 84.0518ZM41.3966 81.4379L41.3966 79.7005C41.3966 79.471 41.3392 79.2623 41.2244 79.0744C41.1096 78.8866 40.9531 78.7353 40.7548 78.6205C40.5566 78.5058 40.327 78.4484 40.0661 78.4484C39.7948 78.4484 39.5653 78.5058 39.3774 78.6205C39.1896 78.7353 39.0435 78.8866 38.9392 79.0744C38.8348 79.2623 38.7827 79.471 38.7827 79.7005L38.7827 81.4379L41.3966 81.4379Z" fill="#110302"/>
<path d="M41.8262 34.6086L34.2955 47.6521L49.3568 47.6521L41.8262 34.6086ZM40.5218 46.3478L40.5218 65.0434L43.1305 65.0434L43.1305 46.3478L40.5218 46.3478Z" fill="black"/>
<defs>
<filter id="filter0_d_1_5054" x="0.956522" y="0.956522" width="81.7392" height="166.087" filterUnits="userSpaceOnUse" color-interpolation-filters="sRGB">
<feFlood flood-opacity="0" result="BackgroundImageFix"/>
<feColorMatrix in="SourceAlpha" type="matrix" values="0 0 0 0 0 0 0 0 0 0 0 0 0 0 0 0 0 0 127 0" result="hardAlpha"/>
<feMorphology radius="4.34783" operator="dilate" in="SourceAlpha" result="effect1_dropShadow_1_5054"/>
<feOffset/>
<feGaussianBlur stdDeviation="4.34783"/>
<feComposite in2="hardAlpha" operator="out"/>
<feColorMatrix type="matrix" values="0 0 0 0 0 0 0 0 0 0 0 0 0 0 0 0 0 0 0.08 0"/>
<feBlend mode="normal" in2="BackgroundImageFix" result="effect1_dropShadow_1_5054"/>
<feBlend mode="normal" in="SourceGraphic" in2="effect1_dropShadow_1_5054" result="shape"/>
</filter>
</defs>
</svg>
