<svg width="90" height="37" viewBox="0 0 90 37" fill="none" xmlns="http://www.w3.org/2000/svg">
<path d="M30.8093 12.0554C31.1597 12.2799 31.7025 12.4714 32.3731 12.5996C33.0437 12.791 33.7459 12.8227 34.4811 12.8227C35.1833 12.8227 35.8223 12.7277 36.3967 12.5665C36.9711 12.375 37.4823 12.1201 37.9289 11.7992C38.3439 11.4795 38.6956 11.0966 38.9196 10.5841C39.1422 10.1047 39.27 9.59362 39.27 8.9861C39.27 8.28214 39.0474 7.64293 38.6324 7.06709C38.2174 6.52293 37.5139 6.07522 36.5245 5.75562L34.6089 5.1164C33.9067 4.89323 33.3639 4.63701 33.0753 4.34909C32.8211 4.09285 32.6603 3.77325 32.6603 3.35721C32.6603 2.81444 32.8843 2.36671 33.2993 2.14216C33.7459 1.88731 34.3217 1.72751 35.1201 1.72751C36.1095 1.72751 36.9395 1.91899 37.7695 2.27028C37.9934 2.36671 38.1844 2.46315 38.3122 2.46315C38.5362 2.46315 38.6324 2.33503 38.6324 2.01543V1.47127C38.6324 1.27978 38.5994 1.11999 38.5046 1.02355C38.4084 0.895437 38.2806 0.767313 38.0896 0.672258C37.9618 0.575826 37.7378 0.479402 37.5139 0.447717C37.2912 0.352662 37.0356 0.319596 36.7484 0.224542C36.4928 0.191479 36.1727 0.0964213 35.8539 0.0964213C35.5351 -1.09311e-05 35.2149 0 34.9277 0C34.2887 0 33.7789 0.0964245 33.2361 0.224542C32.6933 0.416028 32.2137 0.639192 31.7987 0.927111C31.3837 1.24672 31.0965 1.59939 30.8093 2.04711C30.5537 2.49483 30.4575 2.97423 30.4575 3.58175C30.4575 4.28571 30.6815 4.95662 31.1281 5.56414C31.5747 6.20335 32.2783 6.65105 33.3309 6.93897L35.3111 7.57818C35.9817 7.80273 36.4283 8.0259 36.6839 8.28214C36.9395 8.53837 37.0356 8.85798 37.0356 9.20927C37.0356 9.75342 36.8117 10.2011 36.3334 10.5207C35.8539 10.8403 35.2149 10.9685 34.3217 10.9685C33.7789 10.9685 33.2361 10.9368 32.7249 10.777C32.1821 10.6806 31.7025 10.5208 31.1927 10.2962C31.0649 10.2645 30.9371 10.2011 30.8409 10.1694C30.7447 10.1364 30.6485 10.1364 30.5853 10.1364C30.3613 10.1364 30.2665 10.2645 30.2665 10.5841V11.2564C30.2665 11.3845 30.2981 11.5112 30.3613 11.6724C30.4575 11.8322 30.5853 11.9273 30.8093 12.0554Z" fill="white"/>
<path d="M7.69171 5.43998C7.21213 5.34355 6.70121 5.34354 6.25419 5.34354C4.88113 5.34354 3.76352 5.69621 2.90151 6.43185C2.03936 7.13443 1.6561 8.09461 1.6561 9.24491C1.6561 10.3649 1.97546 11.2273 2.64605 11.8996C3.31651 12.5704 4.21068 12.89 5.36017 12.89C6.95667 12.89 8.29771 12.2508 9.38331 11.0041C9.5111 11.3237 9.6389 11.5799 9.79831 11.8031C9.95771 12.0277 10.1185 12.2508 10.2779 12.4423C10.4057 12.5704 10.5335 12.6352 10.6929 12.6352C10.7877 12.6352 10.9155 12.6035 11.0433 12.5071L11.9063 11.9312C12.0973 11.8031 12.1619 11.675 12.1619 11.5152C12.1619 11.4201 12.1289 11.3237 12.0657 11.1956C11.8747 10.8443 11.7139 10.5247 11.6191 10.2051C11.5229 9.8855 11.4913 9.50115 11.4913 8.99006V4.51285C11.4913 3.04157 11.1395 1.92296 10.3727 1.15563C9.6073 0.388308 8.45712 0.0356369 6.79699 0.0356369C6.03062 0.0356369 5.32815 0.132075 4.65769 0.291877C4.01898 0.483364 3.44431 0.643151 2.96527 0.93107C2.77371 1.0275 2.64605 1.12256 2.61404 1.18731C2.51826 1.28374 2.51825 1.44355 2.51825 1.66673V2.33898C2.51825 2.59384 2.61403 2.78534 2.77371 2.78534C2.80559 2.78534 2.90151 2.78534 2.99729 2.75366C3.09307 2.72197 3.25274 2.65859 3.47618 2.56216C3.95522 2.37067 4.46599 2.21088 4.94503 2.11444C5.42393 1.98633 5.93484 1.92295 6.41388 1.92295C7.49933 1.92295 8.20153 2.14612 8.64951 2.56216C9.09611 2.9782 9.28711 3.71384 9.28711 4.76909V5.75957C8.71271 5.63146 8.23451 5.53641 7.69171 5.43998ZM9.25552 7.87006C9.25552 8.31778 9.22391 8.73381 9.12772 9.02173C9.03152 9.34134 8.9051 9.66094 8.68112 9.88549C8.32933 10.3001 7.88272 10.5881 7.3718 10.7479C6.89277 10.9407 6.38185 11.0041 5.93484 11.0041C5.29626 11.0041 4.81723 10.8126 4.49801 10.5247C4.17865 10.2051 4.01898 9.72432 4.01898 9.08511C4.01898 8.41422 4.24256 7.87007 4.68957 7.51878C5.13659 7.1675 5.80718 6.97463 6.70121 6.97463C7.11635 6.97463 7.56391 7.0063 8.01051 7.07105C8.45712 7.10273 8.87212 7.19917 9.25552 7.29422V7.87006Z" fill="white"/>
<path d="M16.1549 11.8336C16.2498 12.0885 16.346 12.2813 16.4105 12.3764C16.5054 12.4728 16.6661 12.5045 16.9533 12.5045H18.1021C18.3577 12.5045 18.5487 12.4728 18.6449 12.3764C18.7411 12.2813 18.8373 12.1215 18.9005 11.8336L21.0085 3.0073L23.1481 11.8336C23.1797 12.0885 23.2745 12.2813 23.4023 12.3764C23.4985 12.4728 23.7225 12.5045 23.9451 12.5045H25.0953C25.3193 12.5045 25.5103 12.4728 25.6381 12.3764C25.7343 12.2813 25.8621 12.1215 25.8937 11.8336L29.2136 1.28117C29.2466 1.15306 29.3098 1.02493 29.3098 0.961556C29.3098 0.865124 29.3414 0.833447 29.3414 0.737015C29.3414 0.513843 29.2466 0.417418 29.0226 0.417418H27.7776C27.522 0.417418 27.331 0.449085 27.2348 0.545518C27.1387 0.64195 27.0425 0.801769 26.9792 1.08831L24.6157 10.2659L22.4129 1.05661C22.3813 0.801755 22.2851 0.608894 22.1573 0.51384C22.0611 0.417407 21.8385 0.385719 21.6145 0.385719H20.4973C20.2417 0.385719 20.0507 0.417407 19.9545 0.51384C19.8583 0.608894 19.7621 0.768692 19.6989 1.05661L17.5593 10.1061L15.292 1.05661C15.1972 0.801755 15.101 0.608894 15.0364 0.51384C14.9416 0.417407 14.7822 0.385719 14.4936 0.385719H13.1538C12.9298 0.385719 12.8336 0.480788 12.8336 0.705337C12.8336 0.801769 12.8652 0.961556 12.9614 1.24947L16.1549 11.8336Z" fill="white"/>
<path d="M36.4012 18.4493C31.3869 20.5915 25.8957 21.6151 20.9459 21.6151C13.5694 21.6151 6.41758 19.5996 0.638112 16.2107C0.159215 15.8911 -0.255924 16.4339 0.191093 16.85C5.55542 21.6784 12.6116 24.5879 20.4993 24.5879C26.0867 24.5879 32.6002 22.8301 37.135 19.4715C37.774 18.9604 37.1666 18.1614 36.4012 18.4493Z" fill="#FF9900"/>
<path d="M33.5902 16.5912C33.1752 16.8475 33.2714 17.2635 33.6864 17.2304C35.1224 17.0389 38.3792 16.656 38.9233 17.4233C39.4977 18.1259 38.2844 21.1965 37.7732 22.5714C37.5822 22.9874 37.9642 23.1472 38.3476 22.8262C40.7743 20.8122 41.3817 16.5595 40.9021 15.9837C40.3909 15.2797 36.1448 14.8003 33.5902 16.5912Z" fill="#FF9900"/>
<path d="M51.6325 9.6871C51.5377 9.6871 51.4415 9.65542 51.4415 9.49562V2.10892C51.4415 2.01248 51.4731 1.91742 51.6325 1.91742H51.8565C51.9843 1.91742 52.0475 1.94911 52.0475 2.10892L52.0805 2.55663C52.3993 2.3004 52.7511 2.10891 53.0699 1.9808C53.3887 1.85268 53.7089 1.7893 54.0593 1.7893C54.7629 1.7893 55.3057 2.04554 55.7206 2.55663C56.1356 3.03604 56.3583 3.77167 56.3583 4.60374C56.3583 5.49918 56.1356 6.20177 55.7206 6.74592C55.2727 7.2887 54.7299 7.54494 53.9645 7.54494C53.2939 7.54494 52.7181 7.28869 52.1437 6.7776V9.46394C52.1437 9.559 52.1121 9.65542 51.9527 9.65542H51.6325V9.6871ZM53.8683 7.00216C54.4427 7.00216 54.8893 6.8093 55.2095 6.42633C55.5283 6.01029 55.6561 5.43444 55.6561 4.66712C55.6561 3.13247 55.0817 2.39683 53.8999 2.39683C53.3255 2.39683 52.6865 2.62139 52.1121 3.10079V6.26651C52.4309 6.52136 52.6865 6.71424 52.9737 6.84098C53.2609 6.90573 53.5811 7.00216 53.8683 7.00216Z" fill="white"/>
<path d="M58.9795 7.54494C58.5013 7.54494 58.085 7.41682 57.7661 7.09722C57.4473 6.84098 57.3195 6.42632 57.3195 5.94691C57.3195 5.40276 57.5106 5.0184 57.8624 4.6988C58.2128 4.37919 58.724 4.25108 59.3313 4.25108C59.8095 4.25108 60.3207 4.34752 60.8951 4.50732V3.61189C60.8951 3.16416 60.8003 2.84456 60.5763 2.68475C60.3523 2.49327 60.0335 2.42851 59.5539 2.42851C59.0757 2.42851 58.5329 2.52495 57.9901 2.68475C57.9585 2.68475 57.8623 2.71643 57.7977 2.71643C57.7029 2.71643 57.7029 2.68474 57.7029 2.58831V2.36514C57.7029 2.33345 57.7029 2.26872 57.7346 2.23704C57.7662 2.20535 57.7661 2.20534 57.8307 2.14059C58.4051 1.91742 58.9795 1.7893 59.6501 1.7893C60.2891 1.7893 60.7673 1.91742 61.0875 2.20534C61.4063 2.46019 61.5341 2.87624 61.5341 3.42039V7.25702C61.5341 7.35345 61.5025 7.44988 61.3431 7.44988H61.1191C61.0229 7.44988 60.9281 7.41682 60.9281 7.25702L60.8951 6.8093C60.3207 7.32177 59.6501 7.54494 58.9795 7.54494ZM59.0757 7.00216C59.3313 7.00216 59.6501 6.9691 59.9689 6.8093C60.2891 6.68118 60.6079 6.55443 60.9597 6.32988V4.98673C60.4801 4.85862 60.0335 4.79524 59.5223 4.79524C58.5013 4.79524 57.9901 5.21127 57.9901 5.94691C57.9901 6.26652 58.085 6.52138 58.2457 6.71425C58.4367 6.90573 58.7239 7.00216 59.0757 7.00216Z" fill="white"/>
<path d="M63.4137 7.44964C63.3176 7.44964 63.2227 7.41658 63.2227 7.25677V2.10867C63.2227 2.01362 63.2543 1.91718 63.4137 1.91718H63.6377C63.7655 1.91718 63.8287 1.94887 63.8287 2.10867L63.8603 2.74789C64.1159 2.42828 64.4032 2.2051 64.6587 2.10867C64.9143 1.98056 65.2345 1.91718 65.5533 1.91718C65.6811 1.91718 65.7773 1.91718 65.8089 1.91718C65.9037 1.91718 65.9999 1.94887 65.9999 2.10867V2.36489C65.9999 2.39658 65.9999 2.39658 65.9683 2.45995C65.9683 2.49301 65.9367 2.49301 65.8721 2.49301C65.8405 2.49301 65.7443 2.49301 65.6811 2.49301C65.6495 2.49301 65.5533 2.49301 65.4571 2.49301C65.1383 2.49301 64.8182 2.52471 64.5639 2.68451C64.3083 2.81263 64.0843 3.00411 63.7971 3.26035V7.25677C63.7971 7.35321 63.7655 7.44964 63.6048 7.44964H63.4137Z" fill="white"/>
<path d="M68.842 7.51291C68.3941 7.51291 68.0753 7.38479 67.8513 7.16161C67.6287 6.93707 67.5009 6.61746 67.5009 6.16974V2.55629H66.6379C66.5431 2.55629 66.4469 2.52459 66.4469 2.36479V2.26837C66.4469 2.23668 66.4469 2.17331 66.4785 2.14025C66.4785 2.10856 66.5101 2.10857 66.6063 2.10857L67.5009 2.01351L67.5957 0.573922C67.5957 0.542237 67.6287 0.477486 67.6287 0.445802C67.6603 0.414117 67.6603 0.414124 67.7565 0.414124H67.9475C68.0436 0.414124 68.1385 0.445798 68.1385 0.6056V2.04519H69.7036C69.7998 2.04519 69.8947 2.07689 69.8947 2.23669V2.46123C69.8947 2.55629 69.863 2.65273 69.7036 2.65273H68.1385V6.26616C68.1385 6.58576 68.1715 6.74557 68.3309 6.90537C68.4587 7.03349 68.6813 7.09687 68.9698 7.09687C69.1925 7.09687 69.3848 7.09686 69.5126 7.06517C69.6075 7.06517 69.639 7.03349 69.7036 7.03349C69.7352 7.03349 69.7998 7.03349 69.7998 7.03349C69.8947 7.03349 69.9276 7.06518 69.9276 7.16161V7.35309C69.9276 7.48121 69.8947 7.54458 69.7998 7.57627C69.5126 7.44953 69.2241 7.51291 68.842 7.51291Z" fill="white"/>
<path d="M71.2721 7.44802C71.1759 7.44802 71.0797 7.41496 71.0797 7.25516V2.10706C71.0797 2.012 71.1127 1.91556 71.2721 1.91556H71.4961C71.6225 1.91556 71.6871 1.94725 71.6871 2.10706L71.7187 2.55477C72.0705 2.29854 72.4209 2.10705 72.8359 1.97894C73.2523 1.85082 73.6027 1.75576 73.9545 1.75576C74.4973 1.75576 74.8807 1.88388 75.1679 2.1718C75.4235 2.42666 75.5829 2.84269 75.5829 3.41853V7.22348C75.5829 7.31991 75.5513 7.41495 75.3905 7.41495H75.0717C74.9755 7.41495 74.8807 7.38328 74.8807 7.22348V3.73812C74.8807 3.25872 74.7845 2.93912 74.6251 2.71457C74.4327 2.4914 74.1455 2.39497 73.7621 2.39497C73.0599 2.39497 72.3261 2.61953 71.6555 3.09893V7.3199C71.6555 7.41495 71.6225 7.5114 71.4631 7.5114H71.2405V7.44802H71.2721Z" fill="white"/>
<path d="M79.5649 7.57661C78.7033 7.57661 78.0327 7.35345 77.6493 6.87404C77.2013 6.39464 76.9787 5.65899 76.9787 4.66712C76.9787 3.77168 77.2013 3.06772 77.6493 2.55663C78.0959 2.07723 78.7349 1.7893 79.4687 1.7893C80.1393 1.7893 80.6189 1.98078 81.0023 2.36514C81.3527 2.71642 81.5451 3.26058 81.5451 3.96316C81.5451 4.21939 81.5451 4.44395 81.5121 4.63544C81.5121 4.73049 81.4173 4.82692 81.3211 4.82692H77.6493C77.6493 5.59424 77.8403 6.17009 78.1275 6.52138C78.4477 6.87405 78.9905 7.06552 79.6611 7.06552C80.2039 7.06552 80.6821 6.9691 81.1301 6.8093C81.2249 6.77762 81.3211 6.7776 81.3211 6.7776C81.3527 6.7776 81.3527 6.77762 81.4173 6.8093C81.4173 6.84099 81.4489 6.84098 81.4489 6.90572V7.09722C81.4489 7.22534 81.4173 7.2887 81.3211 7.32176C80.7467 7.44988 80.2039 7.57661 79.5649 7.57661ZM80.9061 4.31582C80.9061 4.21939 80.9061 4.09128 80.9061 3.96316C80.9061 3.42038 80.7783 3.06773 80.5543 2.81287C80.2987 2.55664 79.9167 2.39684 79.4371 2.39684C78.2869 2.39684 77.6809 3.03603 77.6177 4.31582H80.9061Z" fill="white"/>
<path d="M83.0184 7.44964C82.9222 7.44964 82.8274 7.41658 82.8274 7.25677V2.10867C82.8274 2.01362 82.859 1.91718 83.0184 1.91718H83.2424C83.3702 1.91718 83.4334 1.94887 83.4334 2.10867L83.465 2.74789C83.7206 2.42828 84.0078 2.2051 84.2634 2.10867C84.519 1.98056 84.8392 1.91718 85.158 1.91718C85.2858 1.91718 85.382 1.91718 85.4136 1.91718C85.5098 1.91718 85.6046 1.94887 85.6046 2.10867V2.36489C85.6046 2.39658 85.6046 2.39658 85.573 2.45995C85.573 2.49301 85.5414 2.49301 85.4768 2.49301C85.4136 2.49301 85.349 2.49301 85.2858 2.49301C85.2542 2.49301 85.158 2.49301 85.0618 2.49301C84.743 2.49301 84.4242 2.52471 84.1686 2.68451C83.913 2.81263 83.689 3.00411 83.4018 3.26035V7.25677C83.4018 7.35321 83.3702 7.44964 83.2108 7.44964H83.0184Z" fill="white"/>
<path d="M51.6325 19.5002C51.5377 19.5002 51.4415 19.4685 51.4415 19.3087V14.1923C51.4415 14.0972 51.4731 14.0008 51.6325 14.0008H51.8565C51.9843 14.0008 52.0475 14.0325 52.0475 14.1923L52.0805 14.64C52.4309 14.3838 52.7827 14.1923 53.1977 14.0642C53.6127 13.936 53.9645 13.841 54.3149 13.841C54.8577 13.841 55.2411 13.9691 55.5283 14.257C55.7839 14.5119 55.9433 14.9279 55.9433 15.5037V19.3087C55.9433 19.4051 55.9117 19.5002 55.7523 19.5002H55.4321C55.3373 19.5002 55.2411 19.4685 55.2411 19.3087V15.76C55.2411 15.2792 55.1449 14.9596 54.9855 14.7364C54.7945 14.5119 54.5073 14.4168 54.1239 14.4168C53.4217 14.4168 52.6865 14.64 52.0159 15.1194V19.3404C52.0159 19.4368 51.9843 19.5332 51.8249 19.5332H51.6009V19.5002H51.6325Z" fill="white"/>
<path d="M59.9602 19.6639C59.0973 19.6639 58.428 19.4408 58.0447 18.9614C57.5967 18.482 57.3741 17.7463 57.3741 16.7544C57.3741 15.859 57.5967 15.1564 58.0447 14.644C58.4913 14.1645 59.1302 13.8766 59.864 13.8766C60.5346 13.8766 61.0142 14.0681 61.3976 14.4525C61.748 14.8037 61.9404 15.3479 61.9404 16.0519C61.9404 16.3067 61.9404 16.5313 61.9074 16.7228C61.9074 16.8192 61.8126 16.9142 61.7164 16.9142H58.0447C58.0447 17.6816 58.2357 18.2574 58.5229 18.6087C58.843 18.9613 59.3858 19.1528 60.0564 19.1528C60.5992 19.1528 61.0774 19.0564 61.524 18.8966C61.6202 18.8649 61.7164 18.8649 61.7164 18.8649C61.748 18.8649 61.748 18.8649 61.8126 18.8966C61.8126 18.9297 61.8442 18.9297 61.8442 18.993V19.1845C61.8442 19.3127 61.8126 19.3774 61.7164 19.4091C61.1736 19.5372 60.5662 19.6639 59.9602 19.6639ZM61.3014 16.3715C61.3014 16.275 61.3014 16.1469 61.3014 16.0188C61.3014 15.476 61.1736 15.1233 60.9496 14.8685C60.694 14.6123 60.3106 14.4525 59.8324 14.4525C58.6823 14.4525 58.0763 15.0917 58.0117 16.3715H61.3014Z" fill="white"/>
<path d="M64.9807 19.6028C64.5327 19.6028 64.2139 19.4747 63.9899 19.2515C63.7673 19.027 63.6395 18.7074 63.6395 18.2596V14.5828H62.7765C62.6817 14.5828 62.5855 14.5511 62.5855 14.3913V14.2949C62.5855 14.2632 62.5855 14.1985 62.6171 14.1668C62.6171 14.1351 62.6487 14.1351 62.7449 14.1351L63.6395 14.0386L63.7343 12.6004C63.7343 12.5688 63.7673 12.504 63.7673 12.4723C63.7989 12.4406 63.7989 12.4406 63.8937 12.4406H64.0861C64.1823 12.4406 64.2771 12.4723 64.2771 12.6321V14.0717H65.8423C65.9385 14.0717 66.0333 14.1034 66.0333 14.2632V14.4864C66.0333 14.5828 66.0017 14.6792 65.8423 14.6792H64.3101V18.2927C64.3101 18.6123 64.3417 18.7721 64.5011 18.9319C64.6605 19.0917 64.8529 19.1234 65.1401 19.1234C65.3627 19.1234 65.555 19.1234 65.6828 19.0917C65.7777 19.0917 65.8107 19.06 65.8739 19.06C65.9055 19.06 65.97 19.06 65.97 19.06C66.0662 19.06 66.0978 19.0917 66.0978 19.1868V19.3796C66.0978 19.5077 66.0662 19.5711 65.97 19.6028C65.6512 19.5394 65.3311 19.6028 64.9807 19.6028Z" fill="white"/>
<path d="M68.4947 19.5062C68.3985 19.5062 68.3037 19.4745 68.2707 19.3795L66.5791 14.3264C66.5475 14.23 66.5475 14.1983 66.5475 14.1349C66.5475 14.0702 66.5791 14.0385 66.6753 14.0385H67.0257C67.1219 14.0385 67.1535 14.0702 67.2181 14.1666L68.6857 18.7719L69.9953 14.1666C70.0269 14.0702 70.0915 14.0385 70.2193 14.0385H70.6343C70.7304 14.0385 70.8253 14.0702 70.8582 14.1666L72.1665 18.7719L73.7 14.1033C73.7316 14.0068 73.7948 13.9751 73.891 13.9751H74.2098C74.306 13.9751 74.3376 14.0068 74.3376 14.0702C74.3376 14.1033 74.3376 14.1666 74.306 14.2631L72.5182 19.3147C72.4866 19.4112 72.4221 19.4428 72.2943 19.4428H71.9438C71.8476 19.4428 71.7515 19.4112 71.7199 19.3147L70.4103 14.7108L69.1021 19.3147C69.0691 19.4112 69.0059 19.4428 68.8781 19.4428H68.5593V19.5062H68.4947Z" fill="white"/>
<path d="M77.4957 19.66C76.6973 19.66 76.0597 19.4051 75.6117 18.8926C75.1651 18.4132 74.9411 17.6776 74.9411 16.7505C74.9411 15.855 75.1651 15.1525 75.6117 14.6083C76.0597 14.1289 76.6973 13.841 77.4957 13.841C78.2941 13.841 78.933 14.0972 79.3797 14.6083C79.8276 15.0877 80.0503 15.8234 80.0503 16.7505C80.0503 17.6459 79.8276 18.3499 79.3797 18.8926C78.9014 19.4051 78.2941 19.66 77.4957 19.66ZM77.4957 19.0855C78.742 19.0855 79.3797 18.3182 79.3797 16.7505C79.3797 15.1841 78.742 14.4168 77.4957 14.4168C76.2507 14.4168 75.6117 15.1841 75.6117 16.7505C75.6117 18.3182 76.2191 19.0855 77.4957 19.0855Z" fill="white"/>
<path d="M81.5943 19.506C81.4981 19.506 81.4019 19.4743 81.4019 19.3145V14.1981C81.4019 14.103 81.4349 14.0066 81.5943 14.0066H81.8169C81.9447 14.0066 82.0093 14.0383 82.0093 14.1981L82.0409 14.8373C82.2965 14.5177 82.5837 14.2945 82.8393 14.1981C83.0949 14.07 83.4137 14.0066 83.7339 14.0066C83.8617 14.0066 83.9565 14.0066 83.9881 14.0066C84.0843 14.0066 84.1805 14.0383 84.1805 14.1981V14.4543C84.1805 14.486 84.1805 14.486 84.1489 14.5507C84.1159 14.5824 84.1159 14.5824 84.0527 14.5824C84.0211 14.5824 83.9249 14.5824 83.8617 14.5824C83.8287 14.5824 83.7339 14.5824 83.6377 14.5824C83.3189 14.5824 82.9987 14.6141 82.7431 14.7739C82.4875 14.902 82.2649 15.0935 81.9777 15.3498V19.3462C81.9777 19.4426 81.9448 19.539 81.7853 19.539H81.5627V19.506H81.5943Z" fill="white"/>
<path d="M85.316 19.5006C85.2212 19.5006 85.125 19.469 85.125 19.3092V11.6029C85.125 11.5064 85.1566 11.4114 85.316 11.4114H85.6362C85.7324 11.4114 85.8272 11.443 85.8272 11.6029V16.463L88.4134 14.1294C88.5095 14.0329 88.6057 14.0329 88.669 14.0329H89.084C89.1802 14.0329 89.2117 14.0646 89.2117 14.1294C89.2117 14.1927 89.1802 14.2244 89.084 14.3209L86.4346 16.6559L89.3079 19.3092C89.3395 19.3408 89.4041 19.4056 89.4041 19.4373C89.4041 19.5337 89.3725 19.5337 89.2763 19.5337H88.8284C88.7335 19.5337 88.6373 19.5006 88.6057 19.4373L85.8272 16.8474V19.3409C85.8272 19.4373 85.7956 19.5337 85.6362 19.5337H85.316V19.5006Z" fill="white"/>
<path d="M2.17025 33.3539C1.56356 33.1293 1.11653 32.8428 0.861075 32.5218C0.605617 32.2022 0.477966 31.7875 0.477966 31.2751C0.477966 30.6358 0.701406 30.1248 1.18044 29.7404C1.65934 29.3561 2.29804 29.1646 3.0963 29.1646C3.76675 29.1646 4.40547 29.2927 5.04404 29.5489V30.6992C4.37345 30.5077 3.76675 30.3796 3.19208 30.3796C2.39383 30.3796 1.97869 30.6359 1.97869 31.147C1.97869 31.3398 2.04259 31.4996 2.17025 31.6263C2.29805 31.7545 2.58538 31.8826 2.9685 32.0107L3.73487 32.2986C4.37344 32.5218 4.82046 32.8097 5.07592 33.0976C5.33137 33.4172 5.49105 33.8016 5.49105 34.3127C5.49105 35.0166 5.23559 35.5608 4.72468 35.9754C4.21376 36.3915 3.54331 36.583 2.64928 36.583C2.26602 36.583 1.88291 36.5513 1.49966 36.4879C1.11654 36.4232 0.797176 36.3281 0.509838 36.2V35.0166C0.861075 35.1131 1.21231 35.2081 1.59557 35.2729C1.97868 35.3362 2.32992 35.3679 2.64928 35.3679C3.06428 35.3679 3.35176 35.3045 3.5752 35.1447C3.79877 34.9849 3.89455 34.7921 3.89455 34.5055C3.89455 34.281 3.83065 34.1212 3.70299 33.9931C3.57519 33.865 3.28786 33.7368 2.90461 33.577L2.17025 33.3539ZM7.7899 34.2176C7.82151 34.6653 7.9493 34.985 8.20489 35.2081C8.46049 35.3996 8.84389 35.496 9.35508 35.496C9.80168 35.496 10.3445 35.3996 10.9519 35.2398V36.2317C10.7279 36.3598 10.4407 36.4548 10.0889 36.5196C9.77007 36.583 9.41829 36.616 9.06788 36.616C8.2049 36.616 7.53431 36.3915 7.08756 35.9121C6.64055 35.4327 6.41711 34.7604 6.41711 33.8333C6.41711 32.9695 6.64055 32.2986 7.08756 31.7875C7.53431 31.3067 8.1733 31.0519 8.97169 31.0519C9.64228 31.0519 10.1535 31.2434 10.5355 31.6263C10.8873 32.0107 11.0783 32.5218 11.0783 33.2257C11.0783 33.3855 11.0783 33.5453 11.0467 33.7368C11.0151 33.9297 11.0151 34.0895 10.9835 34.2176H7.7899ZM8.87549 32.1071C8.52508 32.1071 8.26949 32.2022 8.0771 32.395C7.88609 32.5865 7.7899 32.8745 7.75829 33.2574H9.77007V33.0976C9.77007 32.4267 9.48288 32.1071 8.87549 32.1071ZM14.4958 36.3598C14.2086 36.4879 13.8885 36.5196 13.5696 36.5196C12.6435 36.5196 12.1969 36.0085 12.1969 34.9849V28.8766H13.6974V34.8568C13.6974 35.0483 13.729 35.1764 13.7936 35.2729C13.8568 35.3362 13.953 35.3996 14.1124 35.3996C14.2086 35.3996 14.3364 35.3996 14.4958 35.3679V36.3598ZM16.6354 34.2176C16.667 34.6653 16.7948 34.985 17.0504 35.2081C17.306 35.3996 17.688 35.496 18.1992 35.496C18.6472 35.496 19.19 35.3996 19.796 35.2398V36.2317C19.572 36.3598 19.2848 36.4548 18.9344 36.5196C18.6142 36.583 18.2638 36.616 17.912 36.616C17.0504 36.616 16.3798 36.3915 15.9318 35.9121C15.4852 35.4327 15.2612 34.7604 15.2612 33.8333C15.2612 32.9695 15.4852 32.2986 15.9318 31.7875C16.3798 31.3067 17.0174 31.0519 17.8158 31.0519C18.4864 31.0519 18.9976 31.2434 19.381 31.6263C19.7328 32.0107 19.9238 32.5218 19.9238 33.2257C19.9238 33.3855 19.9238 33.5453 19.8922 33.7368C19.8606 33.9297 19.8606 34.0895 19.8276 34.2176H16.6354ZM17.7526 32.1071C17.4008 32.1071 17.1452 32.2022 16.9542 32.395C16.7632 32.5865 16.667 32.8745 16.6354 33.2574H18.6472V33.0976C18.6142 32.4267 18.327 32.1071 17.7526 32.1071ZM24.8089 36.2317C24.6179 36.3281 24.3939 36.4232 24.1383 36.4879C23.8828 36.5513 23.5956 36.583 23.34 36.583C22.51 36.583 21.871 36.3598 21.4244 35.8804C20.9778 35.3996 20.7538 34.7287 20.7538 33.865C20.7538 33.0026 20.9778 32.3303 21.456 31.8509C21.9356 31.3715 22.5745 31.1153 23.3729 31.1153C23.8828 31.1153 24.3307 31.2117 24.7457 31.4349V32.4267C24.3307 32.2986 23.9789 32.2669 23.6272 32.2669C23.1489 32.2669 22.7972 32.3951 22.5745 32.6182C22.3506 32.8745 22.2544 33.2574 22.2544 33.7699V33.9297C22.2544 34.4408 22.3506 34.8251 22.5745 35.08C22.7972 35.3362 23.149 35.4327 23.5956 35.4327C23.9157 35.4327 24.3307 35.3679 24.7457 35.2398V36.2317H24.8089ZM28.9603 36.3281C28.5769 36.4548 28.1935 36.5513 27.7153 36.5513C27.1395 36.5513 26.6929 36.4232 26.4373 36.1352C26.1501 35.8473 26.0223 35.4327 26.0223 34.8568V32.3303H25.2239V31.4032L26.0539 31.2434L26.2779 29.8038H27.4913V31.2117H28.8957V32.3303H27.4913V34.7921C27.4913 35.0166 27.5559 35.1764 27.6507 35.2729C27.7469 35.3679 27.9379 35.3996 28.1935 35.3996C28.4175 35.3996 28.6415 35.3679 28.9287 35.3362V36.3281H28.9603Z" fill="white"/>
<path d="M32.6794 35.7707C32.619 35.7707 32.5931 35.7456 32.5931 35.6877V32.1582H31.3338C31.2734 32.1582 31.2476 32.1332 31.2476 32.0749V31.9421C31.2476 31.8842 31.2734 31.8591 31.3338 31.8591H34.1976C34.2578 31.8591 34.2838 31.8842 34.2838 31.9421V32.0749C34.2838 32.1332 34.2578 32.1582 34.1976 32.1582H32.9382V35.6877C32.9382 35.7456 32.9123 35.7707 32.8519 35.7707H32.6794ZM36.0952 35.8537C35.6293 35.8537 35.2841 35.7292 35.0429 35.4716C34.8097 35.2143 34.6891 34.8405 34.6891 34.3421C34.6891 33.8687 34.8097 33.5035 35.0429 33.2376C35.2841 32.9718 35.6119 32.8473 36.0347 32.8473C36.3884 32.8473 36.6643 32.9471 36.8539 33.1382C37.044 33.3375 37.1386 33.6115 37.1386 33.9768C37.1386 34.1263 37.1301 34.2426 37.1127 34.3174C37.1041 34.3754 37.0696 34.4004 37.0095 34.4004H35.0254C35.0254 34.799 35.1204 35.0895 35.293 35.2723C35.4653 35.4634 35.7414 35.5546 36.1123 35.5546C36.397 35.5546 36.6643 35.5049 36.9144 35.4136C36.966 35.3968 37.0006 35.3886 37.018 35.3886C37.0351 35.3886 37.044 35.3968 37.0611 35.405C37.0696 35.4218 37.0785 35.4301 37.0785 35.4551V35.5381C37.0785 35.5961 37.0611 35.6376 37.0095 35.6544C36.7418 35.7871 36.4315 35.8537 36.0952 35.8537ZM36.8194 34.1428C36.8194 34.0931 36.8283 34.0265 36.8283 33.9603C36.8283 33.6863 36.7593 33.487 36.6212 33.3457C36.4831 33.2044 36.2849 33.1382 36.0173 33.1382C35.3962 33.1382 35.0685 33.4784 35.0339 34.151H36.8194V34.1428ZM39.1138 35.8369C38.6654 35.8369 38.3205 35.7124 38.0789 35.4634C37.8462 35.2143 37.7251 34.8405 37.7251 34.3589C37.7251 33.877 37.8462 33.5117 38.0789 33.2545C38.3205 32.9969 38.6654 32.8723 39.1138 32.8723C39.3295 32.8723 39.5366 32.9056 39.7263 32.9804C39.7693 32.9969 39.7953 33.0384 39.7953 33.0967V33.1797C39.7953 33.2294 39.7693 33.2545 39.7263 33.2545C39.7177 33.2545 39.7003 33.2545 39.6832 33.2459C39.6658 33.2376 39.6402 33.2376 39.5971 33.2294C39.4416 33.1961 39.2864 33.1711 39.1312 33.1711C38.7604 33.1711 38.4928 33.2627 38.3291 33.4451C38.165 33.628 38.0789 33.9188 38.0789 34.3256V34.3922C38.0789 34.7825 38.165 35.073 38.3291 35.2558C38.4928 35.4383 38.7604 35.5381 39.1227 35.5381C39.2779 35.5381 39.4416 35.5131 39.6316 35.4634C39.6747 35.4551 39.7003 35.4469 39.7177 35.4383C39.7348 35.4301 39.7523 35.4301 39.7608 35.4301C39.8039 35.4301 39.8298 35.4551 39.8298 35.5049V35.5879C39.8298 35.6462 39.8124 35.6877 39.7693 35.7041C39.5711 35.7871 39.3469 35.8369 39.1138 35.8369ZM40.6235 35.7707C40.563 35.7707 40.537 35.7456 40.537 35.6877V31.6763C40.537 31.6183 40.563 31.5933 40.6235 31.5933H40.7786C40.8391 31.5933 40.8647 31.6183 40.8647 31.6763V33.2545C41.0548 33.1296 41.253 33.0301 41.4687 32.9553C41.6758 32.8806 41.8826 32.8473 42.0812 32.8473C42.3655 32.8473 42.5812 32.9221 42.7367 33.0634C42.8919 33.2044 42.9609 33.4205 42.9609 33.7027V35.6877C42.9609 35.7456 42.9349 35.7707 42.8744 35.7707H42.7193C42.6591 35.7707 42.6331 35.7456 42.6331 35.6877V33.8441C42.6331 33.6029 42.5812 33.4205 42.4865 33.3124C42.3915 33.2044 42.2363 33.1464 42.0207 33.1464C41.6324 33.1464 41.253 33.2627 40.8822 33.5035V35.6877C40.8822 35.7456 40.8562 35.7707 40.7957 35.7707H40.6235ZM43.9528 35.7707C43.8922 35.7707 43.8666 35.7456 43.8666 35.6877V33.0133C43.8666 32.9553 43.8922 32.9303 43.9528 32.9303H44.0734C44.1339 32.9303 44.1684 32.9553 44.177 33.0133L44.2029 33.2545C44.3926 33.1214 44.5998 33.0219 44.8065 32.9471C45.0136 32.8723 45.2208 32.8391 45.419 32.8391C45.7037 32.8391 45.9194 32.9138 46.0745 33.0548C46.2297 33.1961 46.2987 33.4122 46.2987 33.6945V35.6877C46.2987 35.7456 46.2731 35.7707 46.2126 35.7707H46.0575C45.997 35.7707 45.971 35.7456 45.971 35.6877V33.8441C45.971 33.6029 45.9194 33.4205 45.8243 33.3124C45.7297 33.2044 45.5742 33.1464 45.3589 33.1464C44.9706 33.1464 44.5912 33.2627 44.22 33.5035V35.6877C44.22 35.7456 44.1944 35.7707 44.1339 35.7707H43.9528ZM48.4034 35.8537C47.9721 35.8537 47.6358 35.7209 47.4031 35.4551C47.1614 35.1893 47.0493 34.8154 47.0493 34.3421C47.0493 33.8687 47.1699 33.5035 47.4031 33.2376C47.6443 32.9718 47.9806 32.8391 48.4034 32.8391C48.8348 32.8391 49.1711 32.9718 49.4038 33.2376C49.6455 33.5035 49.7661 33.8687 49.7661 34.3421C49.7661 34.8154 49.6455 35.1893 49.4038 35.4551C49.1711 35.7209 48.8348 35.8537 48.4034 35.8537ZM48.4034 35.5628C49.076 35.5628 49.4213 35.156 49.4213 34.3507C49.4213 33.545 49.085 33.1464 48.4034 33.1464C47.7308 33.1464 47.3856 33.545 47.3856 34.3507C47.3856 35.156 47.7219 35.5628 48.4034 35.5628ZM51.0256 35.7871C50.8704 35.7871 50.7494 35.7456 50.6633 35.6544C50.5772 35.5632 50.5338 35.4469 50.5338 35.2805V31.6681C50.5338 31.6101 50.5597 31.5851 50.6202 31.5851H50.7754C50.8359 31.5851 50.8615 31.6101 50.8615 31.6681V35.2723C50.8615 35.3553 50.879 35.4136 50.9135 35.4469C50.948 35.4798 51.0081 35.4966 51.0946 35.4966C51.1206 35.4966 51.1462 35.4966 51.1722 35.4884C51.1982 35.4884 51.2238 35.4798 51.2413 35.4798C51.2929 35.4798 51.3274 35.5049 51.3274 35.5628V35.6709C51.3274 35.721 51.3018 35.7456 51.2498 35.7539C51.1808 35.7789 51.1117 35.7871 51.0256 35.7871ZM53.1993 35.8537C52.768 35.8537 52.4313 35.7209 52.1986 35.4551C51.9569 35.1893 51.8448 34.8154 51.8448 34.3421C51.8448 33.8687 51.9658 33.5035 52.1986 33.2376C52.4402 32.9718 52.7765 32.8391 53.1993 32.8391C53.6303 32.8391 53.967 32.9718 54.1997 33.2376C54.4414 33.5035 54.562 33.8687 54.562 34.3421C54.562 34.8154 54.4414 35.1893 54.1997 35.4551C53.967 35.7209 53.6303 35.8537 53.1993 35.8537ZM53.1993 35.5628C53.8719 35.5628 54.2168 35.156 54.2168 34.3507C54.2168 33.545 53.8805 33.1464 53.1993 33.1464C52.5264 33.1464 52.1815 33.545 52.1815 34.3507C52.19 35.156 52.5264 35.5628 53.1993 35.5628ZM56.3646 36.9996C56.2009 36.9996 56.0368 36.9832 55.8816 36.9499C55.7265 36.9166 55.5884 36.8751 55.4677 36.8172C55.4247 36.8004 55.3987 36.7589 55.3987 36.7009V36.6175C55.3987 36.5678 55.4158 36.5431 55.4677 36.5431C55.4763 36.5431 55.4934 36.5431 55.5023 36.5513C55.5193 36.5513 55.5453 36.5596 55.5798 36.576C55.8556 36.659 56.1144 36.7091 56.3389 36.7091C56.7012 36.7091 56.9685 36.6261 57.1411 36.4515C57.3133 36.2773 57.3998 36.0032 57.3998 35.6294V35.3553C57.2532 35.4716 57.0977 35.5628 56.9165 35.6294C56.7443 35.6959 56.5717 35.7292 56.4165 35.7292C56.0368 35.7292 55.7435 35.5961 55.5108 35.3388C55.2866 35.0812 55.1745 34.741 55.1745 34.3174C55.1745 33.8605 55.2866 33.5035 55.5108 33.2376C55.735 32.9718 56.0457 32.8391 56.4336 32.8391C56.8044 32.8391 57.1237 32.9636 57.4084 33.2129L57.4343 33.0051C57.4429 32.9471 57.4774 32.9221 57.5375 32.9221H57.6586C57.7187 32.9221 57.7447 32.9471 57.7447 33.0051V35.6294C57.7447 36.0694 57.624 36.41 57.3909 36.6426C57.1582 36.8751 56.8044 36.9996 56.3646 36.9996ZM56.4941 35.4383C56.7874 35.4383 57.0891 35.322 57.3998 35.0812V33.5117C57.2358 33.3872 57.0891 33.2874 56.934 33.2294C56.7873 33.1711 56.6233 33.1382 56.4596 33.1382C56.1489 33.1382 55.9076 33.2376 55.7524 33.4287C55.5969 33.628 55.5193 33.9103 55.5193 34.3006C55.5193 34.6662 55.6058 34.9485 55.7695 35.1478C55.9336 35.3471 56.1749 35.4383 56.4941 35.4383ZM58.754 36.9996C58.6589 36.9996 58.5728 36.9832 58.4867 36.9581C58.4262 36.9417 58.4002 36.9084 58.4002 36.8419V36.7589C58.4002 36.7091 58.4262 36.6841 58.4693 36.6841C58.4952 36.6841 58.5123 36.6841 58.5298 36.6923C58.5468 36.6923 58.5728 36.7009 58.6073 36.7009C58.6419 36.7009 58.6764 36.7009 58.728 36.7009C58.8575 36.7009 58.9611 36.6676 59.0387 36.6011C59.1163 36.5345 59.1853 36.4183 59.2543 36.2522L59.4526 35.7789L58.2966 33.0466C58.2796 33.0133 58.271 32.9886 58.271 32.9718C58.271 32.9303 58.2966 32.9056 58.3397 32.9056H58.5298C58.5814 32.9056 58.6159 32.9303 58.6333 32.9804L59.6163 35.405L60.6085 32.9804C60.6256 32.9303 60.6601 32.9056 60.712 32.9056H60.8843C60.9273 32.9056 60.9533 32.9221 60.9533 32.9718C60.9533 32.9804 60.9448 33.0051 60.9273 33.0466L59.5476 36.3521C59.4526 36.5846 59.3405 36.7424 59.2198 36.8419C59.0988 36.9581 58.9436 36.9996 58.754 36.9996Z" fill="white"/>
<path d="M63.7708 36.8871C63.6937 36.8871 63.6607 36.8537 63.6607 36.7746V31.6976C63.6607 31.619 63.6937 31.5851 63.7708 31.5851H65.4433C65.9162 31.5851 66.2904 31.7315 66.5768 32.0128C66.8629 32.2946 66.995 32.6772 66.995 33.1612C66.995 33.634 66.852 34.0167 66.5768 34.2979C66.2904 34.5797 65.9162 34.7257 65.4433 34.7257H64.0898V36.7746C64.0898 36.8537 64.0568 36.8871 63.9798 36.8871H63.7708ZM65.4323 34.3207C66.1696 34.3207 66.5437 33.9381 66.5437 33.1612C66.5437 32.3843 66.1696 31.9905 65.4323 31.9905H64.0898V34.3207H65.4323ZM68.8323 36.9773C68.4914 36.9773 68.2163 36.876 68.007 36.6733C67.809 36.4705 67.6991 36.2004 67.6991 35.8629C67.6991 35.4914 67.8199 35.1985 68.0732 34.9846C68.3261 34.7708 68.6675 34.6583 69.0966 34.6583C69.4266 34.6583 69.7898 34.7145 70.1639 34.8387V34.1971C70.1639 33.8818 70.0868 33.668 69.9438 33.5327C69.8007 33.3974 69.5588 33.33 69.2287 33.33C68.8873 33.33 68.5241 33.3974 68.1391 33.5215C68.095 33.5327 68.051 33.5438 68.0292 33.5438C67.9852 33.5438 67.952 33.5104 67.952 33.4425V33.3188C67.952 33.2737 67.9629 33.2514 67.9743 33.2286C67.9852 33.2063 68.0183 33.1835 68.051 33.1723C68.4473 33.0147 68.8655 32.9362 69.3054 32.9362C69.7458 32.9362 70.065 33.0259 70.2847 33.2174C70.5049 33.409 70.6039 33.6903 70.6039 34.0729V36.7746C70.6039 36.8537 70.5707 36.8871 70.494 36.8871H70.3396C70.2629 36.8871 70.2298 36.8537 70.2189 36.7746L70.1857 36.4482C69.7458 36.7969 69.2945 36.9773 68.8323 36.9773ZM68.8873 36.5719C69.0743 36.5719 69.2836 36.5384 69.5034 36.4594C69.7236 36.3808 69.9438 36.2683 70.1748 36.1219V35.165C69.8448 35.0748 69.5147 35.0297 69.2064 35.0297C68.5132 35.0297 68.1613 35.2999 68.1613 35.8517C68.1613 36.0879 68.2271 36.2683 68.3484 36.392C68.4582 36.5156 68.6453 36.5719 68.8873 36.5719ZM71.8583 36.8871C71.7811 36.8871 71.7484 36.8537 71.7484 36.7746V33.15C71.7484 33.071 71.7811 33.0375 71.8583 33.0375H72.0013C72.0785 33.0375 72.1225 33.071 72.1334 33.15L72.1666 33.6001C72.3536 33.3862 72.5407 33.2286 72.7277 33.15C72.9148 33.0598 73.1127 33.0147 73.3438 33.0147C73.421 33.0147 73.4868 33.0147 73.5417 33.0259C73.6189 33.0259 73.6521 33.071 73.6521 33.15V33.3411C73.6521 33.3639 73.6407 33.3862 73.6298 33.3974C73.6189 33.4202 73.5967 33.4202 73.5749 33.4202C73.5309 33.4202 73.4977 33.4202 73.465 33.4202C73.4319 33.4202 73.377 33.4202 73.3107 33.4202C73.0796 33.4202 72.8816 33.4653 72.7055 33.555C72.5298 33.6452 72.3536 33.7805 72.1992 33.9716V36.7858C72.1992 36.8648 72.1666 36.8983 72.0894 36.8983H71.8583V36.8871ZM75.4785 36.9322C75.1816 36.9322 74.9614 36.8537 74.8071 36.6961C74.6532 36.5384 74.5764 36.3018 74.5764 35.9977V33.4313H73.9821C73.905 33.4313 73.8718 33.3974 73.8718 33.3188V33.2402C73.8718 33.1951 73.8832 33.1723 73.8941 33.15C73.905 33.1272 73.9381 33.1161 73.9821 33.1161L74.5873 33.0598L74.6423 32.0468C74.6423 32.0017 74.6532 31.9793 74.6754 31.9566C74.6972 31.9342 74.7195 31.9342 74.7521 31.9342H74.8842C74.9614 31.9342 74.9946 31.9682 74.9946 32.0468V33.0487H76.0837C76.1609 33.0487 76.1936 33.0826 76.1936 33.1612V33.3188C76.1936 33.3974 76.1609 33.4313 76.0837 33.4313H74.9946V35.9754C74.9946 36.1893 75.0382 36.3357 75.1262 36.4143C75.2143 36.5045 75.3573 36.5496 75.5666 36.5496C75.7096 36.5496 75.8418 36.5384 75.9516 36.5157C76.0065 36.5045 76.0506 36.4933 76.0837 36.4933C76.1169 36.4822 76.1387 36.4822 76.1609 36.4822C76.2159 36.4822 76.2485 36.5156 76.2485 36.5719V36.6844C76.2485 36.7746 76.2267 36.8197 76.1609 36.842C75.9625 36.8983 75.7314 36.9322 75.4785 36.9322ZM77.1402 36.8871C77.063 36.8871 77.0299 36.8537 77.0299 36.7746V33.15C77.0299 33.071 77.063 33.0375 77.1402 33.0375H77.2941C77.3713 33.0375 77.4153 33.071 77.4262 33.15L77.4589 33.4764C77.7014 33.2965 77.9651 33.1612 78.2294 33.0598C78.4936 32.9585 78.7574 32.9134 79.0107 32.9134C79.3739 32.9134 79.6491 33.0147 79.847 33.2063C80.0449 33.3974 80.133 33.6903 80.133 34.0729V36.7746C80.133 36.8537 80.0999 36.8871 80.0232 36.8871H79.8247C79.748 36.8871 79.7149 36.8537 79.7149 36.7746V34.2756C79.7149 33.9492 79.6491 33.7014 79.5278 33.555C79.4066 33.409 79.2087 33.33 78.9335 33.33C78.4387 33.33 77.9542 33.4876 77.4812 33.8139V36.7746C77.4812 36.8537 77.448 36.8871 77.3713 36.8871H77.1402ZM82.873 36.9996C82.2787 36.9996 81.8387 36.8309 81.5305 36.4822C81.2335 36.133 81.0792 35.6262 81.0792 34.9512C81.0792 34.3096 81.2335 33.8139 81.5305 33.4541C81.8387 33.0938 82.2569 32.925 82.7958 32.925C83.2471 32.925 83.5989 33.0598 83.8414 33.3188C84.0833 33.5889 84.2041 33.9604 84.2041 34.4555C84.2041 34.6583 84.1932 34.8159 84.1714 34.9172C84.1605 34.9963 84.1165 35.0297 84.0393 35.0297H81.5087C81.5087 35.57 81.6294 35.9642 81.8496 36.2116C82.0698 36.4705 82.4217 36.5947 82.8947 36.5947C83.2579 36.5947 83.5989 36.5268 83.9181 36.4031C83.9844 36.3808 84.0284 36.3692 84.0502 36.3692C84.0724 36.3692 84.0833 36.3808 84.1051 36.392C84.1165 36.4143 84.1274 36.4254 84.1274 36.4594V36.5719C84.1274 36.651 84.1051 36.7072 84.0393 36.7295C83.6983 36.9099 83.302 36.9996 82.873 36.9996ZM83.7973 34.6811C83.7973 34.6132 83.8082 34.5234 83.8082 34.4332C83.8082 34.0618 83.7201 33.7916 83.544 33.6001C83.3678 33.409 83.1149 33.3188 82.774 33.3188C81.9817 33.3188 81.5636 33.7805 81.5196 34.6922H83.7973V34.6811ZM85.2715 36.8871C85.1947 36.8871 85.1616 36.8537 85.1616 36.7746V33.15C85.1616 33.071 85.1947 33.0375 85.2715 33.0375H85.4145C85.4917 33.0375 85.5357 33.071 85.5466 33.15L85.5797 33.6001C85.7668 33.3862 85.9538 33.2286 86.1409 33.15C86.3279 33.0598 86.5259 33.0147 86.757 33.0147C86.8342 33.0147 86.9 33.0147 86.9554 33.0259C87.0321 33.0259 87.0652 33.071 87.0652 33.15V33.3411C87.0652 33.3639 87.0544 33.3862 87.043 33.3974C87.0321 33.4202 87.0103 33.4202 86.9881 33.4202C86.944 33.4202 86.9114 33.4202 86.8782 33.4202C86.8451 33.4202 86.7901 33.4202 86.7243 33.4202C86.4932 33.4202 86.2948 33.4653 86.1191 33.555C85.9429 33.6452 85.7668 33.7805 85.6129 33.9716V36.7858C85.6129 36.8648 85.5797 36.8983 85.5026 36.8983H85.2715V36.8871Z" fill="white"/>
</svg>
