<svg width="212" height="64" viewBox="0 0 212 64" fill="none" xmlns="http://www.w3.org/2000/svg">
<path d="M71.2148 38.7715H66.7734V36.4395H71.2148C71.9883 36.4395 72.6133 36.3145 73.0898 36.0645C73.5664 35.8145 73.9141 35.4707 74.1328 35.0332C74.3594 34.5879 74.4727 34.0801 74.4727 33.5098C74.4727 32.9707 74.3594 32.4668 74.1328 31.998C73.9141 31.5215 73.5664 31.1387 73.0898 30.8496C72.6133 30.5605 71.9883 30.416 71.2148 30.416H67.6758V45.1348H64.7344V28.0723H71.2148C72.5352 28.0723 73.6562 28.3066 74.5781 28.7754C75.5078 29.2363 76.2148 29.877 76.6992 30.6973C77.1836 31.5098 77.4258 32.4395 77.4258 33.4863C77.4258 34.5879 77.1836 35.5332 76.6992 36.3223C76.2148 37.1113 75.5078 37.7168 74.5781 38.1387C73.6562 38.5605 72.5352 38.7715 71.2148 38.7715ZM82.8047 32.4551V45.1348H79.9688V32.4551H82.8047ZM79.7812 29.127C79.7812 28.6973 79.9219 28.3418 80.2031 28.0605C80.4922 27.7715 80.8906 27.627 81.3984 27.627C81.8984 27.627 82.293 27.7715 82.582 28.0605C82.8711 28.3418 83.0156 28.6973 83.0156 29.127C83.0156 29.5488 82.8711 29.9004 82.582 30.1816C82.293 30.4629 81.8984 30.6035 81.3984 30.6035C80.8906 30.6035 80.4922 30.4629 80.2031 30.1816C79.9219 29.9004 79.7812 29.5488 79.7812 29.127ZM88.0547 32.4551L90.4688 36.6621L92.9297 32.4551H96.0352L92.1914 38.6777L96.1875 45.1348H93.082L90.5039 40.752L87.9258 45.1348H84.8086L88.793 38.6777L84.9609 32.4551H88.0547ZM103.324 45.3691C102.387 45.3691 101.539 45.2168 100.781 44.9121C100.031 44.5996 99.3906 44.166 98.8594 43.6113C98.3359 43.0566 97.9336 42.4043 97.6523 41.6543C97.3711 40.9043 97.2305 40.0957 97.2305 39.2285V38.7598C97.2305 37.7676 97.375 36.8691 97.6641 36.0645C97.9531 35.2598 98.3555 34.5723 98.8711 34.002C99.3867 33.4238 99.9961 32.9824 100.699 32.6777C101.402 32.373 102.164 32.2207 102.984 32.2207C103.891 32.2207 104.684 32.373 105.363 32.6777C106.043 32.9824 106.605 33.4121 107.051 33.9668C107.504 34.5137 107.84 35.166 108.059 35.9238C108.285 36.6816 108.398 37.5176 108.398 38.4316V39.6387H98.6016V37.6113H105.609V37.3887C105.594 36.8809 105.492 36.4043 105.305 35.959C105.125 35.5137 104.848 35.1543 104.473 34.8809C104.098 34.6074 103.598 34.4707 102.973 34.4707C102.504 34.4707 102.086 34.5723 101.719 34.7754C101.359 34.9707 101.059 35.2559 100.816 35.6309C100.574 36.0059 100.387 36.459 100.254 36.9902C100.129 37.5137 100.066 38.1035 100.066 38.7598V39.2285C100.066 39.7832 100.141 40.2988 100.289 40.7754C100.445 41.2441 100.672 41.6543 100.969 42.0059C101.266 42.3574 101.625 42.6348 102.047 42.8379C102.469 43.0332 102.949 43.1309 103.488 43.1309C104.168 43.1309 104.773 42.9941 105.305 42.7207C105.836 42.4473 106.297 42.0605 106.688 41.5605L108.176 43.002C107.902 43.4004 107.547 43.7832 107.109 44.1504C106.672 44.5098 106.137 44.8027 105.504 45.0293C104.879 45.2559 104.152 45.3691 103.324 45.3691ZM113.625 27.1348V45.1348H110.789V27.1348H113.625ZM127.078 39.5801H130.008C129.914 40.6973 129.602 41.6934 129.07 42.5684C128.539 43.4355 127.793 44.1191 126.832 44.6191C125.871 45.1191 124.703 45.3691 123.328 45.3691C122.273 45.3691 121.324 45.1816 120.48 44.8066C119.637 44.4238 118.914 43.8848 118.312 43.1895C117.711 42.4863 117.25 41.6387 116.93 40.6465C116.617 39.6543 116.461 38.5449 116.461 37.3184V35.9004C116.461 34.6738 116.621 33.5645 116.941 32.5723C117.27 31.5801 117.738 30.7324 118.348 30.0293C118.957 29.3184 119.688 28.7754 120.539 28.4004C121.398 28.0254 122.363 27.8379 123.434 27.8379C124.793 27.8379 125.941 28.0879 126.879 28.5879C127.816 29.0879 128.543 29.7793 129.059 30.6621C129.582 31.5449 129.902 32.5566 130.02 33.6973H127.09C127.012 32.9629 126.84 32.334 126.574 31.8105C126.316 31.2871 125.934 30.8887 125.426 30.6152C124.918 30.334 124.254 30.1934 123.434 30.1934C122.762 30.1934 122.176 30.3184 121.676 30.5684C121.176 30.8184 120.758 31.1855 120.422 31.6699C120.086 32.1543 119.832 32.752 119.66 33.4629C119.496 34.166 119.414 34.9707 119.414 35.877V37.3184C119.414 38.1777 119.488 38.959 119.637 39.6621C119.793 40.3574 120.027 40.9551 120.34 41.4551C120.66 41.9551 121.066 42.3418 121.559 42.6152C122.051 42.8887 122.641 43.0254 123.328 43.0254C124.164 43.0254 124.84 42.8926 125.355 42.627C125.879 42.3613 126.273 41.9746 126.539 41.4668C126.812 40.9512 126.992 40.3223 127.078 39.5801ZM135.234 34.8691V45.1348H132.41V32.4551H135.105L135.234 34.8691ZM139.113 32.373L139.09 34.998C138.918 34.9668 138.73 34.9434 138.527 34.9277C138.332 34.9121 138.137 34.9043 137.941 34.9043C137.457 34.9043 137.031 34.9746 136.664 35.1152C136.297 35.248 135.988 35.4434 135.738 35.7012C135.496 35.9512 135.309 36.2559 135.176 36.6152C135.043 36.9746 134.965 37.377 134.941 37.8223L134.297 37.8691C134.297 37.0723 134.375 36.334 134.531 35.6543C134.688 34.9746 134.922 34.377 135.234 33.8613C135.555 33.3457 135.953 32.9434 136.43 32.6543C136.914 32.3652 137.473 32.2207 138.105 32.2207C138.277 32.2207 138.461 32.2363 138.656 32.2676C138.859 32.2988 139.012 32.334 139.113 32.373ZM147.609 42.5918V36.5449C147.609 36.0918 147.527 35.7012 147.363 35.373C147.199 35.0449 146.949 34.791 146.613 34.6113C146.285 34.4316 145.871 34.3418 145.371 34.3418C144.91 34.3418 144.512 34.4199 144.176 34.5762C143.84 34.7324 143.578 34.9434 143.391 35.209C143.203 35.4746 143.109 35.7754 143.109 36.1113H140.297C140.297 35.6113 140.418 35.127 140.66 34.6582C140.902 34.1895 141.254 33.7715 141.715 33.4043C142.176 33.0371 142.727 32.748 143.367 32.5371C144.008 32.3262 144.727 32.2207 145.523 32.2207C146.477 32.2207 147.32 32.3809 148.055 32.7012C148.797 33.0215 149.379 33.5059 149.801 34.1543C150.23 34.7949 150.445 35.5996 150.445 36.5684V42.2051C150.445 42.7832 150.484 43.3027 150.562 43.7637C150.648 44.2168 150.77 44.6113 150.926 44.9473V45.1348H148.031C147.898 44.8301 147.793 44.4434 147.715 43.9746C147.645 43.498 147.609 43.0371 147.609 42.5918ZM148.02 37.4238L148.043 39.1699H146.016C145.492 39.1699 145.031 39.2207 144.633 39.3223C144.234 39.416 143.902 39.5566 143.637 39.7441C143.371 39.9316 143.172 40.1582 143.039 40.4238C142.906 40.6895 142.84 40.9902 142.84 41.3262C142.84 41.6621 142.918 41.9707 143.074 42.252C143.23 42.5254 143.457 42.7402 143.754 42.8965C144.059 43.0527 144.426 43.1309 144.855 43.1309C145.434 43.1309 145.938 43.0137 146.367 42.7793C146.805 42.5371 147.148 42.2441 147.398 41.9004C147.648 41.5488 147.781 41.2168 147.797 40.9043L148.711 42.1582C148.617 42.4785 148.457 42.8223 148.23 43.1895C148.004 43.5566 147.707 43.9082 147.34 44.2441C146.98 44.5723 146.547 44.8418 146.039 45.0527C145.539 45.2637 144.961 45.3691 144.305 45.3691C143.477 45.3691 142.738 45.2051 142.09 44.877C141.441 44.541 140.934 44.0918 140.566 43.5293C140.199 42.959 140.016 42.3145 140.016 41.5957C140.016 40.9238 140.141 40.3301 140.391 39.8145C140.648 39.291 141.023 38.8535 141.516 38.502C142.016 38.1504 142.625 37.8848 143.344 37.7051C144.062 37.5176 144.883 37.4238 145.805 37.4238H148.02ZM156.891 43.752L160.336 32.4551H163.359L158.273 47.0684C158.156 47.3809 158.004 47.7207 157.816 48.0879C157.629 48.4551 157.383 48.8027 157.078 49.1309C156.781 49.4668 156.41 49.7363 155.965 49.9395C155.52 50.1504 154.98 50.2559 154.348 50.2559C154.098 50.2559 153.855 50.2324 153.621 50.1855C153.395 50.1465 153.18 50.1035 152.977 50.0566L152.965 47.9004C153.043 47.9082 153.137 47.916 153.246 47.9238C153.363 47.9316 153.457 47.9355 153.527 47.9355C153.996 47.9355 154.387 47.877 154.699 47.7598C155.012 47.6504 155.266 47.4707 155.461 47.2207C155.664 46.9707 155.836 46.6348 155.977 46.2129L156.891 43.752ZM154.945 32.4551L157.957 41.9473L158.461 44.9238L156.504 45.4277L151.898 32.4551H154.945ZM164.25 38.9355V38.666C164.25 37.752 164.383 36.9043 164.648 36.123C164.914 35.334 165.297 34.6504 165.797 34.0723C166.305 33.4863 166.922 33.0332 167.648 32.7129C168.383 32.3848 169.211 32.2207 170.133 32.2207C171.062 32.2207 171.891 32.3848 172.617 32.7129C173.352 33.0332 173.973 33.4863 174.48 34.0723C174.988 34.6504 175.375 35.334 175.641 36.123C175.906 36.9043 176.039 37.752 176.039 38.666V38.9355C176.039 39.8496 175.906 40.6973 175.641 41.4785C175.375 42.2598 174.988 42.9434 174.48 43.5293C173.973 44.1074 173.355 44.5605 172.629 44.8887C171.902 45.209 171.078 45.3691 170.156 45.3691C169.227 45.3691 168.395 45.209 167.66 44.8887C166.934 44.5605 166.316 44.1074 165.809 43.5293C165.301 42.9434 164.914 42.2598 164.648 41.4785C164.383 40.6973 164.25 39.8496 164.25 38.9355ZM167.074 38.666V38.9355C167.074 39.5059 167.133 40.0449 167.25 40.5527C167.367 41.0605 167.551 41.5059 167.801 41.8887C168.051 42.2715 168.371 42.5723 168.762 42.791C169.152 43.0098 169.617 43.1191 170.156 43.1191C170.68 43.1191 171.133 43.0098 171.516 42.791C171.906 42.5723 172.227 42.2715 172.477 41.8887C172.727 41.5059 172.91 41.0605 173.027 40.5527C173.152 40.0449 173.215 39.5059 173.215 38.9355V38.666C173.215 38.1035 173.152 37.5723 173.027 37.0723C172.91 36.5645 172.723 36.1152 172.465 35.7246C172.215 35.334 171.895 35.0293 171.504 34.8105C171.121 34.584 170.664 34.4707 170.133 34.4707C169.602 34.4707 169.141 34.584 168.75 34.8105C168.367 35.0293 168.051 35.334 167.801 35.7246C167.551 36.1152 167.367 36.5645 167.25 37.0723C167.133 37.5723 167.074 38.1035 167.074 38.666ZM181.207 35.1621V45.1348H178.383V32.4551H181.043L181.207 35.1621ZM180.703 38.3262L179.789 38.3145C179.797 37.416 179.922 36.5918 180.164 35.8418C180.414 35.0918 180.758 34.4473 181.195 33.9082C181.641 33.3691 182.172 32.9551 182.789 32.666C183.406 32.3691 184.094 32.2207 184.852 32.2207C185.461 32.2207 186.012 32.3066 186.504 32.4785C187.004 32.6426 187.43 32.9121 187.781 33.2871C188.141 33.6621 188.414 34.1504 188.602 34.752C188.789 35.3457 188.883 36.0762 188.883 36.9434V45.1348H186.047V36.9316C186.047 36.3223 185.957 35.8418 185.777 35.4902C185.605 35.1309 185.352 34.877 185.016 34.7285C184.688 34.5723 184.277 34.4941 183.785 34.4941C183.301 34.4941 182.867 34.5957 182.484 34.7988C182.102 35.002 181.777 35.2793 181.512 35.6309C181.254 35.9824 181.055 36.3887 180.914 36.8496C180.773 37.3105 180.703 37.8027 180.703 38.3262ZM198.879 41.7012C198.879 41.4199 198.809 41.166 198.668 40.9395C198.527 40.7051 198.258 40.4941 197.859 40.3066C197.469 40.1191 196.891 39.9473 196.125 39.791C195.453 39.6426 194.836 39.4668 194.273 39.2637C193.719 39.0527 193.242 38.7988 192.844 38.502C192.445 38.2051 192.137 37.8535 191.918 37.4473C191.699 37.041 191.59 36.5723 191.59 36.041C191.59 35.5254 191.703 35.0371 191.93 34.5762C192.156 34.1152 192.48 33.709 192.902 33.3574C193.324 33.0059 193.836 32.7285 194.438 32.5254C195.047 32.3223 195.727 32.2207 196.477 32.2207C197.539 32.2207 198.449 32.4004 199.207 32.7598C199.973 33.1113 200.559 33.5918 200.965 34.2012C201.371 34.8027 201.574 35.4824 201.574 36.2402H198.75C198.75 35.9043 198.664 35.5918 198.492 35.3027C198.328 35.0059 198.078 34.7676 197.742 34.5879C197.406 34.4004 196.984 34.3066 196.477 34.3066C195.992 34.3066 195.59 34.3848 195.27 34.541C194.957 34.6895 194.723 34.8848 194.566 35.127C194.418 35.3691 194.344 35.6348 194.344 35.9238C194.344 36.1348 194.383 36.3262 194.461 36.498C194.547 36.6621 194.688 36.8145 194.883 36.9551C195.078 37.0879 195.344 37.2129 195.68 37.3301C196.023 37.4473 196.453 37.5605 196.969 37.6699C197.938 37.873 198.77 38.1348 199.465 38.4551C200.168 38.7676 200.707 39.1738 201.082 39.6738C201.457 40.166 201.645 40.791 201.645 41.5488C201.645 42.1113 201.523 42.627 201.281 43.0957C201.047 43.5566 200.703 43.959 200.25 44.3027C199.797 44.6387 199.254 44.9004 198.621 45.0879C197.996 45.2754 197.293 45.3691 196.512 45.3691C195.363 45.3691 194.391 45.166 193.594 44.7598C192.797 44.3457 192.191 43.8184 191.777 43.1777C191.371 42.5293 191.168 41.8574 191.168 41.1621H193.898C193.93 41.6855 194.074 42.1035 194.332 42.416C194.598 42.7207 194.926 42.9434 195.316 43.084C195.715 43.2168 196.125 43.2832 196.547 43.2832C197.055 43.2832 197.48 43.2168 197.824 43.084C198.168 42.9434 198.43 42.7559 198.609 42.5215C198.789 42.2793 198.879 42.0059 198.879 41.7012Z" fill="white"/>
<path d="M205.188 29.8398V34.1055H204.459V29.8398H205.188ZM206.527 29.8398V30.4258H203.132V29.8398H206.527ZM207.389 29.8398H208.045L209.278 33.1299L210.509 29.8398H211.165L209.536 34.1055H209.015L207.389 29.8398ZM207.09 29.8398H207.714L207.822 32.6875V34.1055H207.09V29.8398ZM210.84 29.8398H211.467V34.1055H210.731V32.6875L210.84 29.8398Z" fill="white"/>
<path opacity="0.6" d="M40.3345 18.2573C40.3345 18.2573 28.1296 31.0156 18.264 21.6385C18.264 21.6385 8.15198 10.1149 11.7767 7.48194C11.7767 7.48194 13.7103 5.57527 25.3277 10.9067L40.3345 18.2573Z" fill="#00BFF3"/>
<path opacity="0.6" d="M44.4094 19.615C44.4094 19.615 30.1722 30.8952 20.9284 19.23C20.9284 19.23 11.6733 5.25871 15.7681 3.13052C15.7681 3.13052 18.009 1.46355 29.5541 9.17009L44.4094 19.615Z" fill="#E20965"/>
<path opacity="0.66" d="M46.8919 20.5857C46.8919 20.5857 31.7409 30.4786 23.5209 17.931C23.5209 17.931 15.4866 3.07715 19.7484 1.34843C19.7484 1.34843 22.1256 -0.10063 32.977 8.71724L46.8919 20.5857Z" fill="#2E3192"/>
<path opacity="0.6" d="M44.4149 20.2111C44.4149 20.2111 29.3853 25.8947 24.8733 14.2586C24.8733 14.2586 20.9869 0.755872 25.0022 0.0186281C25.0022 0.0186281 27.3378 -0.787616 34.8716 8.20819L44.4149 20.2111Z" fill="#32004B"/>
<path d="M61.2323 9.42188H80.6753L60.5195 11.4484L61.2323 9.42188Z" fill="#0071BC"/>
<path d="M62.7664 9.397H61.1816C61.1816 9.397 56.5559 5.64905 52.0591 6.02674C52.0591 6.02674 43.4675 6.24102 35.5356 18.2693C30.1516 26.4371 26.1136 37.1909 26.8758 46.9566C27.0881 49.7058 27.6188 52.7128 28.6047 55.3133C30.1554 59.4099 34.383 63.6262 39.24 63.6917C39.24 63.6917 48.2297 63.8151 52.59 51.9139C52.4724 52.2408 50.9482 52.5749 50.6791 52.6694C49.079 53.2141 47.4562 53.7225 45.8107 54.1293C42.459 54.9573 37.7536 55.2987 34.7394 53.2867C33.8143 52.6694 32.7109 51.7578 32.3317 50.759C31.8048 49.3608 31.4748 47.3706 32.0322 45.8707C32.7564 43.9241 35.4029 44.0149 37.0977 43.7389C39.2134 43.3939 41.295 42.6965 43.1149 41.5925C47.2552 39.0793 50.698 35.2549 52.4686 30.8606C54.1408 26.7095 53.2118 22.5839 53.7349 18.2984C53.9929 16.1956 55.0696 14.2635 57.2194 13.3701C60.2526 12.1063 62.2357 10.4865 62.7664 9.397Z" fill="#29ABE2"/>
<path opacity="0.6" d="M39.6294 21.2969C39.6294 21.2969 40.2891 42.6952 22.8405 43.4579C22.8405 43.4579 3.20782 42.6335 4.06851 37.2549C4.06851 37.2549 4.06851 33.9607 19.4053 28.2626L39.6294 21.2969Z" fill="#FF0000"/>
<path opacity="0.6" d="M39.631 21.2969C39.631 21.2969 37.1438 42.5718 19.7557 40.9737C19.7557 40.9737 0.441672 37.5127 2.08341 32.3011C2.08341 32.3011 2.56493 29.0434 18.5842 25.4661L39.631 21.2969Z" fill="#EF3A03"/>
<path opacity="0.7" d="M39.6305 21.2969C39.6305 21.2969 34.0456 42.027 17.0633 38.1011C17.0633 38.1011 -1.55319 32.0722 0.839266 27.133C0.839266 27.133 1.79473 23.9699 18.1818 22.5898L39.6305 21.2969Z" fill="#FFE600"/>
<path opacity="0.6" d="M39.631 21.2979C39.631 21.2979 31.0546 41.0689 14.8192 34.8951C14.8192 34.8951 -2.72806 26.4187 0.365831 21.85C0.365831 21.85 1.77629 18.8502 18.2013 19.6891L39.631 21.2979Z" fill="#00A810"/>
<path opacity="0.7" d="M32.0271 48.6584C32.956 50.7683 34.2148 53.0019 35.7353 54.7887C38.1276 57.607 42.7572 59.8187 46.7686 58.602C46.7686 58.602 54.1962 56.3467 54.5337 45.8438C54.5223 46.1307 53.3659 46.7953 53.165 46.9406C51.9971 47.7867 50.8028 48.6148 49.5592 49.3665C47.0303 50.8955 43.25 52.3954 40.2244 51.6001C40.2244 51.6001 36.1296 51.2623 31.5684 47.5108L32.0271 48.6584Z" fill="#6D68C5"/>
<path d="M31.8847 48.6988C32.5596 50.8959 33.5454 53.2493 34.8459 55.1923C36.8934 58.2502 41.2346 60.9449 45.3636 60.1678C45.3636 60.1678 53.0074 58.7296 54.5771 48.3247C54.5354 48.608 53.3031 49.1454 53.0908 49.2652C51.832 49.9807 50.5467 50.6744 49.2234 51.2845C46.5315 52.5302 42.5996 53.6161 39.6839 52.4976C39.6839 52.4976 35.6535 51.7203 31.5625 47.5039L31.8847 48.6988Z" fill="#43B6E6"/>
<path d="M31.3776 48.8792C31.169 50.4807 31.1766 52.293 31.605 53.949C32.2837 56.5566 33.9482 58.7756 37.6488 60.6786C37.6488 60.6786 44.7882 64.9822 51.3362 56.3351C51.196 56.4985 49.9257 56.4186 49.6945 56.4222C48.3372 56.444 46.9607 56.4404 45.5845 56.3787C42.7787 56.2479 38.9493 55.5942 36.8108 53.9091C36.8108 53.9091 33.5729 52.0569 31.533 48.0293L31.3776 48.8792Z" fill="#FBED20"/>
<path opacity="0.8" d="M31.6745 48.5828C31.955 50.5693 32.5124 52.7374 33.4565 54.5897C34.939 57.5023 38.742 60.4041 42.9543 60.2733C42.9543 60.2733 50.746 60.03 54.1204 51.2339C54.0294 51.4736 52.7213 51.775 52.49 51.8513C51.1213 52.3053 49.7335 52.7338 48.3231 53.0934C45.4491 53.8197 41.3808 54.2447 38.704 52.8937C38.704 52.8937 34.8631 51.6916 31.5684 47.5078L31.6745 48.5828Z" fill="#009239"/>
</svg>
