<svg width="213" height="44" viewBox="0 0 213 44" fill="none" xmlns="http://www.w3.org/2000/svg">
<path d="M49.1985 26.5142H46.1302V24.9032H49.1985C49.7328 24.9032 50.1646 24.8168 50.4938 24.6441C50.823 24.4714 51.0632 24.234 51.2143 23.9317C51.3708 23.6241 51.4491 23.2733 51.4491 22.8793C51.4491 22.5069 51.3708 22.1588 51.2143 21.8349C51.0632 21.5057 50.823 21.2413 50.4938 21.0416C50.1646 20.8419 49.7328 20.742 49.1985 20.742H46.7536V30.9102H44.7216V19.1229H49.1985C50.1106 19.1229 50.8851 19.2848 51.5219 19.6086C52.1642 19.9271 52.6526 20.3696 52.9872 20.9363C53.3219 21.4976 53.4892 22.1399 53.4892 22.8631C53.4892 23.6241 53.3219 24.2771 52.9872 24.8222C52.6526 25.3673 52.1642 25.7856 51.5219 26.0771C50.8851 26.3685 50.1106 26.5142 49.1985 26.5142ZM57.2051 22.1507V30.9102H55.2459V22.1507H57.2051ZM55.1164 19.8515C55.1164 19.5547 55.2135 19.3091 55.4078 19.1148C55.6075 18.9151 55.8828 18.8153 56.2336 18.8153C56.579 18.8153 56.8516 18.9151 57.0512 19.1148C57.2509 19.3091 57.3508 19.5547 57.3508 19.8515C57.3508 20.143 57.2509 20.3858 57.0512 20.5801C56.8516 20.7744 56.579 20.8716 56.2336 20.8716C55.8828 20.8716 55.6075 20.7744 55.4078 20.5801C55.2135 20.3858 55.1164 20.143 55.1164 19.8515ZM60.8319 22.1507L62.4996 25.057L64.1997 22.1507H66.345L63.6897 26.4495L66.4503 30.9102H64.3049L62.5239 27.8824L60.7429 30.9102H58.5894L61.3419 26.4495L58.6947 22.1507H60.8319ZM71.3805 31.0721C70.7329 31.0721 70.1473 30.9668 69.6238 30.7563C69.1056 30.5405 68.6631 30.2409 68.2961 29.8577C67.9345 29.4745 67.6565 29.0239 67.4622 28.5058C67.2679 27.9876 67.1708 27.429 67.1708 26.83V26.5061C67.1708 25.8207 67.2706 25.2 67.4703 24.6441C67.67 24.0882 67.948 23.6133 68.3042 23.2193C68.6604 22.8199 69.0814 22.515 69.5671 22.3045C70.0528 22.094 70.5791 21.9888 71.1457 21.9888C71.7718 21.9888 72.3196 22.094 72.7892 22.3045C73.2587 22.515 73.6473 22.8118 73.9549 23.195C74.268 23.5728 74.5 24.0235 74.6512 24.547C74.8077 25.0705 74.8859 25.648 74.8859 26.2795V27.1133H68.118V25.7128H72.9592V25.5589C72.9484 25.2081 72.8782 24.8789 72.7487 24.5713C72.6245 24.2636 72.433 24.0154 72.1739 23.8265C71.9148 23.6376 71.5694 23.5431 71.1376 23.5431C70.8138 23.5431 70.5251 23.6133 70.2714 23.7536C70.0231 23.8885 69.8154 24.0855 69.6481 24.3446C69.4807 24.6037 69.3512 24.9167 69.2595 25.2837C69.1731 25.6453 69.1299 26.0528 69.1299 26.5061V26.83C69.1299 27.2131 69.1812 27.5694 69.2837 27.8986C69.3917 28.2224 69.5482 28.5058 69.7533 28.7486C69.9584 28.9915 70.2067 29.1831 70.4981 29.3234C70.7895 29.4583 71.1215 29.5258 71.4939 29.5258C71.9634 29.5258 72.3817 29.4314 72.7487 29.2425C73.1157 29.0536 73.4341 28.7864 73.704 28.441L74.7321 29.4368C74.5432 29.712 74.2976 29.9765 73.9954 30.2301C73.6932 30.4784 73.3235 30.6808 72.8863 30.8373C72.4545 30.9938 71.9526 31.0721 71.3805 31.0721ZM78.4966 18.4753V30.9102H76.5374V18.4753H78.4966ZM87.7904 27.0728H89.8143C89.7495 27.8446 89.5336 28.5327 89.1666 29.1372C88.7996 29.7363 88.2842 30.2085 87.6204 30.5539C86.9565 30.8994 86.1497 31.0721 85.1998 31.0721C84.4712 31.0721 83.8154 30.9425 83.2325 30.6835C82.6496 30.419 82.1504 30.0466 81.7348 29.5663C81.3193 29.0805 81.0008 28.495 80.7796 27.8095C80.5637 27.1241 80.4557 26.3577 80.4557 25.5104V24.5308C80.4557 23.6835 80.5664 22.9171 80.7876 22.2316C81.0143 21.5462 81.3381 20.9606 81.7591 20.4749C82.1801 19.9837 82.6847 19.6086 83.273 19.3496C83.8667 19.0905 84.5332 18.961 85.2726 18.961C86.2117 18.961 87.0051 19.1337 87.6527 19.4791C88.3004 19.8245 88.8023 20.3022 89.1585 20.912C89.5201 21.5219 89.7414 22.2208 89.8224 23.0088H87.7985C87.7445 22.5015 87.6258 22.067 87.4423 21.7054C87.2642 21.3438 86.9997 21.0686 86.6489 20.8797C86.2981 20.6854 85.8393 20.5882 85.2726 20.5882C84.8085 20.5882 84.4037 20.6746 84.0583 20.8473C83.7129 21.02 83.4241 21.2737 83.192 21.6083C82.96 21.9429 82.7846 22.3558 82.6658 22.8469C82.5525 23.3326 82.4958 23.8885 82.4958 24.5146V25.5104C82.4958 26.104 82.5471 26.6438 82.6496 27.1295C82.7576 27.6098 82.9195 28.0227 83.1354 28.3681C83.3567 28.7135 83.6373 28.9807 83.9773 29.1696C84.3173 29.3585 84.7248 29.4529 85.1998 29.4529C85.7773 29.4529 86.2441 29.3612 86.6003 29.1777C86.9619 28.9942 87.2345 28.727 87.418 28.3762C87.6069 28.02 87.731 27.5855 87.7904 27.0728ZM93.4249 23.8184V30.9102H91.4739V22.1507H93.3359L93.4249 23.8184ZM96.1046 22.094L96.0884 23.9074C95.9697 23.8858 95.8401 23.8697 95.6998 23.8589C95.5649 23.8481 95.43 23.8427 95.295 23.8427C94.9604 23.8427 94.6663 23.8912 94.4126 23.9884C94.1589 24.0801 93.9458 24.2151 93.773 24.3932C93.6057 24.5659 93.4762 24.7764 93.3845 25.0246C93.2927 25.2729 93.2387 25.5508 93.2225 25.8585L92.7773 25.8909C92.7773 25.3404 92.8313 24.8303 92.9392 24.3608C93.0471 23.8912 93.209 23.4784 93.4249 23.1222C93.6462 22.7659 93.9215 22.488 94.2507 22.2883C94.5853 22.0886 94.9712 21.9888 95.4084 21.9888C95.5271 21.9888 95.6539 21.9996 95.7889 22.0211C95.9292 22.0427 96.0344 22.067 96.1046 22.094ZM101.974 29.1534V24.9761C101.974 24.663 101.917 24.3932 101.804 24.1665C101.691 23.9398 101.518 23.7644 101.286 23.6403C101.059 23.5161 100.773 23.4541 100.428 23.4541C100.109 23.4541 99.834 23.508 99.6019 23.616C99.3698 23.7239 99.189 23.8697 99.0595 24.0532C98.93 24.2367 98.8652 24.4444 98.8652 24.6765H96.9222C96.9222 24.3311 97.0059 23.9965 97.1732 23.6727C97.3405 23.3488 97.5834 23.0601 97.9018 22.8064C98.2202 22.5528 98.6007 22.3531 99.0433 22.2073C99.4859 22.0616 99.9824 21.9888 100.533 21.9888C101.191 21.9888 101.774 22.0994 102.282 22.3207C102.794 22.542 103.196 22.8766 103.488 23.3245C103.785 23.7671 103.933 24.323 103.933 24.9922V28.8862C103.933 29.2856 103.96 29.6445 104.014 29.963C104.073 30.276 104.157 30.5486 104.265 30.7806V30.9102H102.265C102.174 30.6997 102.101 30.4325 102.047 30.1087C101.998 29.7795 101.974 29.461 101.974 29.1534ZM102.257 25.5832L102.273 26.7895H100.873C100.511 26.7895 100.193 26.8246 99.9176 26.8947C99.6424 26.9595 99.413 27.0566 99.2295 27.1862C99.046 27.3157 98.9084 27.4722 98.8166 27.6557C98.7249 27.8392 98.679 28.047 98.679 28.2791C98.679 28.5111 98.733 28.7243 98.8409 28.9186C98.9489 29.1075 99.1054 29.2559 99.3105 29.3639C99.5209 29.4718 99.7746 29.5258 100.071 29.5258C100.471 29.5258 100.819 29.4448 101.116 29.2829C101.418 29.1156 101.655 28.9132 101.828 28.6758C102.001 28.4329 102.093 28.2035 102.103 27.9876L102.735 28.8539C102.67 29.0751 102.56 29.3126 102.403 29.5663C102.246 29.8199 102.041 30.0628 101.788 30.2949C101.539 30.5216 101.24 30.7078 100.889 30.8535C100.544 30.9992 100.144 31.0721 99.691 31.0721C99.1189 31.0721 98.6088 30.9587 98.1609 30.7321C97.7129 30.5 97.3621 30.1896 97.1084 29.8011C96.8548 29.4071 96.728 28.9618 96.728 28.4653C96.728 28.0011 96.8143 27.5909 96.987 27.2347C97.1651 26.8731 97.4242 26.5709 97.7642 26.328C98.1096 26.0852 98.5306 25.9017 99.0271 25.7775C99.5236 25.648 100.09 25.5832 100.727 25.5832H102.257ZM108.386 29.9549L110.766 22.1507H112.854L109.341 32.2459C109.26 32.4618 109.155 32.6966 109.025 32.9503C108.896 33.2039 108.726 33.4441 108.515 33.6708C108.31 33.9028 108.054 34.089 107.746 34.2294C107.438 34.3751 107.066 34.4479 106.629 34.4479C106.456 34.4479 106.289 34.4318 106.127 34.3994C105.97 34.3724 105.822 34.3427 105.682 34.3103L105.674 32.8207C105.728 32.8261 105.792 32.8315 105.868 32.8369C105.949 32.8423 106.014 32.845 106.062 32.845C106.386 32.845 106.656 32.8045 106.872 32.7236C107.088 32.648 107.263 32.5239 107.398 32.3512C107.538 32.1785 107.657 31.9464 107.754 31.655L108.386 29.9549ZM107.042 22.1507L109.122 28.7081L109.47 30.7644L108.119 31.1125L104.937 22.1507H107.042ZM113.47 26.6276V26.4414C113.47 25.8099 113.561 25.2243 113.745 24.6846C113.928 24.1395 114.193 23.6673 114.538 23.2679C114.889 22.8631 115.316 22.5501 115.817 22.3288C116.325 22.1021 116.897 21.9888 117.534 21.9888C118.176 21.9888 118.748 22.1021 119.25 22.3288C119.757 22.5501 120.186 22.8631 120.537 23.2679C120.888 23.6673 121.155 24.1395 121.339 24.6846C121.522 25.2243 121.614 25.8099 121.614 26.4414V26.6276C121.614 27.259 121.522 27.8446 121.339 28.3843C121.155 28.924 120.888 29.3963 120.537 29.8011C120.186 30.2004 119.76 30.5135 119.258 30.7401C118.756 30.9614 118.187 31.0721 117.55 31.0721C116.908 31.0721 116.333 30.9614 115.826 30.7401C115.324 30.5135 114.897 30.2004 114.546 29.8011C114.196 29.3963 113.928 28.924 113.745 28.3843C113.561 27.8446 113.47 27.259 113.47 26.6276ZM115.421 26.4414V26.6276C115.421 27.0216 115.461 27.394 115.542 27.7448C115.623 28.0956 115.75 28.4032 115.923 28.6677C116.095 28.9321 116.317 29.1399 116.587 29.291C116.856 29.4421 117.178 29.5177 117.55 29.5177C117.912 29.5177 118.225 29.4421 118.489 29.291C118.759 29.1399 118.98 28.9321 119.153 28.6677C119.326 28.4032 119.452 28.0956 119.533 27.7448C119.62 27.394 119.663 27.0216 119.663 26.6276V26.4414C119.663 26.0528 119.62 25.6858 119.533 25.3404C119.452 24.9895 119.323 24.6792 119.145 24.4094C118.972 24.1395 118.751 23.929 118.481 23.7779C118.216 23.6214 117.901 23.5431 117.534 23.5431C117.167 23.5431 116.848 23.6214 116.578 23.7779C116.314 23.929 116.095 24.1395 115.923 24.4094C115.75 24.6792 115.623 24.9895 115.542 25.3404C115.461 25.6858 115.421 26.0528 115.421 26.4414ZM125.184 24.0208V30.9102H123.233V22.1507H125.071L125.184 24.0208ZM124.836 26.2066L124.205 26.1985C124.21 25.5778 124.296 25.0084 124.464 24.4903C124.636 23.9722 124.874 23.5269 125.176 23.1545C125.484 22.7821 125.851 22.4961 126.277 22.2964C126.703 22.0913 127.178 21.9888 127.702 21.9888C128.123 21.9888 128.503 22.0481 128.843 22.1669C129.189 22.2802 129.483 22.4664 129.726 22.7255C129.974 22.9845 130.163 23.3218 130.292 23.7374C130.422 24.1476 130.487 24.6522 130.487 25.2513V30.9102H128.528V25.2432C128.528 24.8222 128.466 24.4903 128.341 24.2474C128.223 23.9992 128.047 23.8238 127.815 23.7212C127.589 23.6133 127.305 23.5593 126.965 23.5593C126.631 23.5593 126.331 23.6295 126.067 23.7698C125.802 23.9101 125.578 24.1017 125.395 24.3446C125.216 24.5875 125.079 24.8681 124.982 25.1865C124.885 25.505 124.836 25.845 124.836 26.2066ZM137.392 28.5381C137.392 28.3438 137.344 28.1684 137.247 28.0119C137.149 27.85 136.963 27.7043 136.688 27.5748C136.418 27.4452 136.019 27.3265 135.49 27.2185C135.026 27.116 134.599 26.9946 134.211 26.8542C133.828 26.7085 133.498 26.5331 133.223 26.328C132.948 26.1229 132.735 25.8801 132.584 25.5994C132.432 25.3188 132.357 24.9949 132.357 24.6279C132.357 24.2717 132.435 23.9344 132.592 23.616C132.748 23.2976 132.972 23.0169 133.264 22.774C133.555 22.5312 133.909 22.3396 134.324 22.1993C134.745 22.0589 135.215 21.9888 135.733 21.9888C136.467 21.9888 137.095 22.1129 137.619 22.3612C138.148 22.604 138.553 22.936 138.833 23.3569C139.114 23.7725 139.254 24.2421 139.254 24.7656H137.303C137.303 24.5335 137.244 24.3176 137.125 24.1179C137.012 23.9128 136.839 23.7482 136.607 23.6241C136.375 23.4946 136.084 23.4298 135.733 23.4298C135.398 23.4298 135.12 23.4838 134.899 23.5917C134.683 23.6942 134.521 23.8292 134.413 23.9965C134.311 24.1638 134.259 24.3473 134.259 24.547C134.259 24.6927 134.286 24.8249 134.34 24.9437C134.4 25.057 134.497 25.1623 134.632 25.2594C134.767 25.3512 134.95 25.4375 135.182 25.5185C135.42 25.5994 135.717 25.6777 136.073 25.7532C136.742 25.8936 137.317 26.0744 137.797 26.2956C138.283 26.5115 138.655 26.7922 138.914 27.1376C139.173 27.4776 139.303 27.9094 139.303 28.4329C139.303 28.8215 139.219 29.1777 139.052 29.5015C138.89 29.8199 138.653 30.0979 138.34 30.3354C138.026 30.5674 137.651 30.7482 137.214 30.8778C136.782 31.0073 136.297 31.0721 135.757 31.0721C134.964 31.0721 134.292 30.9317 133.741 30.6511C133.191 30.3651 132.772 30.0007 132.486 29.5582C132.206 29.1102 132.065 28.6461 132.065 28.1657H133.952C133.973 28.5273 134.073 28.8161 134.251 29.032C134.435 29.2425 134.661 29.3963 134.931 29.4934C135.207 29.5852 135.49 29.631 135.781 29.631C136.132 29.631 136.426 29.5852 136.664 29.4934C136.901 29.3963 137.082 29.2667 137.206 29.1048C137.33 28.9375 137.392 28.7486 137.392 28.5381Z" fill="#253053"/>
<path d="M141.746 20.4692V23.416H141.242V20.4692H141.746ZM142.671 20.4692V20.874H140.325V20.4692H142.671ZM143.266 20.4692H143.72L144.572 22.7421L145.422 20.4692H145.875L144.75 23.416H144.389L143.266 20.4692ZM143.06 20.4692H143.491L143.566 22.4364V23.416H143.06V20.4692ZM145.65 20.4692H146.083V23.416H145.575V22.4364L145.65 20.4692Z" fill="#253053"/>
<path opacity="0.6" d="M27.8642 12.6124C27.8642 12.6124 19.4327 21.4262 12.6173 14.9482C12.6173 14.9482 5.63166 6.98745 8.1357 5.16849C8.1357 5.16849 9.47153 3.85131 17.4971 7.53439L27.8642 12.6124Z" fill="#00BFF3"/>
<path opacity="0.6" d="M30.6803 13.5515C30.6803 13.5515 20.8449 21.3442 14.459 13.2856C14.459 13.2856 8.06527 3.63381 10.8941 2.16361C10.8941 2.16361 12.4422 1.01201 20.4178 6.3359L30.6803 13.5515Z" fill="#E20965"/>
<path opacity="0.66" d="M32.3938 14.2201C32.3938 14.2201 21.9271 21.0543 16.2485 12.3861C16.2485 12.3861 10.6982 2.12464 13.6423 0.930394C13.6423 0.930394 15.2846 -0.0706579 22.781 6.02097L32.3938 14.2201Z" fill="#2E3192"/>
<path opacity="0.6" d="M30.6828 13.9624C30.6828 13.9624 20.2999 17.8888 17.1829 9.85025C17.1829 9.85025 14.4981 0.522177 17.272 0.0128688C17.272 0.0128688 18.8855 -0.544107 24.09 5.67045L30.6828 13.9624Z" fill="#32004B"/>
<path d="M42.3049 6.50781H55.7367L41.8125 7.90778L42.3049 6.50781Z" fill="#0071BC"/>
<path d="M43.3582 6.49127H42.2634C42.2634 6.49127 39.0678 3.90208 35.9613 4.16301C35.9613 4.16301 30.026 4.31104 24.5464 12.6205C20.827 18.2631 18.0374 25.692 18.564 32.4385C18.7106 34.3377 19.0773 36.4151 19.7583 38.2115C20.8296 41.0415 23.7501 43.9543 27.1055 43.9995C27.1055 43.9995 33.3158 44.0848 36.328 35.8631C36.2468 36.089 35.1939 36.3198 35.0079 36.385C33.9026 36.7613 32.7814 37.1125 31.6447 37.3936C29.3293 37.9656 26.0787 38.2014 23.9963 36.8115C23.3573 36.385 22.595 35.7553 22.3331 35.0653C21.969 34.0994 21.7411 32.7245 22.1261 31.6883C22.6265 30.3436 24.4547 30.4063 25.6255 30.2156C27.0871 29.9773 28.5251 29.4955 29.7824 28.7328C32.6426 26.9967 35.021 24.3547 36.2442 21.3189C37.3993 18.4513 36.7576 15.6011 37.119 12.6406C37.2972 11.1879 38.041 9.85322 39.5262 9.23599C41.6216 8.36291 42.9915 7.24395 43.3582 6.49127Z" fill="#29ABE2"/>
<path opacity="0.6" d="M27.3823 14.7129C27.3823 14.7129 27.838 29.4955 15.7841 30.0223C15.7841 30.0223 2.22128 29.4528 2.81587 25.7371C2.81587 25.7371 2.81587 23.4614 13.4109 19.525L27.3823 14.7129Z" fill="#FF0000"/>
<path opacity="0.6" d="M27.3745 14.7129C27.3745 14.7129 25.6563 29.4102 13.6441 28.3062C13.6441 28.3062 0.301446 25.9152 1.4356 22.3149C1.4356 22.3149 1.76825 20.0644 12.8348 17.5931L27.3745 14.7129Z" fill="#EF3A03"/>
<path opacity="0.7" d="M27.3744 14.7129C27.3744 14.7129 23.5162 29.0338 11.7844 26.3217C11.7844 26.3217 -1.07642 22.1568 0.576359 18.7447C0.576359 18.7447 1.23642 16.5595 12.557 15.6061L27.3744 14.7129Z" fill="#FFE600"/>
<path opacity="0.6" d="M27.3782 14.7117C27.3782 14.7117 21.4534 28.3701 10.2375 24.1051C10.2375 24.1051 -1.88462 18.2493 0.252726 15.0931C0.252726 15.0931 1.22711 13.0208 12.574 13.6003L27.3782 14.7117Z" fill="#00A810"/>
<path opacity="0.7" d="M22.1216 33.6144C22.7633 35.072 23.6329 36.615 24.6833 37.8494C26.336 39.7963 29.5343 41.3242 32.3054 40.4837C32.3054 40.4837 37.4366 38.9256 37.6698 31.6699C37.6619 31.8681 36.863 32.3273 36.7242 32.4276C35.9174 33.0122 35.0924 33.5842 34.2332 34.1035C32.4862 35.1598 29.8747 36.196 27.7845 35.6466C27.7845 35.6466 24.9557 35.4132 21.8047 32.8215L22.1216 33.6144Z" fill="#6D68C5"/>
<path d="M22.0273 33.6418C22.4935 35.1597 23.1745 36.7855 24.073 38.1278C25.4874 40.2402 28.4865 42.1018 31.3389 41.5649C31.3389 41.5649 36.6194 40.5714 37.7038 33.3834C37.675 33.5791 36.8237 33.9504 36.677 34.0332C35.8074 34.5274 34.9195 35.0067 34.0053 35.4281C32.1457 36.2887 29.4294 37.0389 27.4152 36.2662C27.4152 36.2662 24.6309 35.7292 21.8047 32.8164L22.0273 33.6418Z" fill="#43B6E6"/>
<path d="M21.6781 33.7688C21.5341 34.8752 21.5393 36.1271 21.8352 37.2712C22.3041 39.0725 23.454 40.6055 26.0104 41.9202C26.0104 41.9202 30.9426 44.8932 35.4661 38.9195C35.3692 39.0324 34.4917 38.9772 34.332 38.9797C33.3943 38.9948 32.4434 38.9923 31.4926 38.9496C29.5543 38.8593 26.9089 38.4077 25.4315 37.2435C25.4315 37.2435 23.1947 35.964 21.7855 33.1816L21.6781 33.7688Z" fill="#FBED20"/>
<path opacity="0.8" d="M21.878 33.561C22.0718 34.9333 22.4568 36.4311 23.109 37.7107C24.1332 39.7228 26.7604 41.7275 29.6704 41.6371C29.6704 41.6371 35.0531 41.469 37.3843 35.3925C37.3214 35.558 36.4177 35.7663 36.2579 35.819C35.3124 36.1326 34.3537 36.4286 33.3793 36.677C31.3939 37.1788 28.5834 37.4724 26.7342 36.5391C26.7342 36.5391 24.0808 35.7086 21.8047 32.8184L21.878 33.561Z" fill="#009239"/>
<rect x="154.047" y="11.0527" width="0.533045" height="26.1192" fill="#656565"/>
<path d="M165.812 18.614H166.595C166.575 19.0448 166.489 19.4167 166.335 19.7298C166.185 20.04 165.965 20.2783 165.675 20.4449C165.389 20.6115 165.029 20.6948 164.598 20.6948C164.288 20.6948 164.009 20.633 163.759 20.5095C163.509 20.386 163.294 20.2094 163.115 19.9797C162.939 19.747 162.805 19.4684 162.711 19.1439C162.617 18.8194 162.57 18.4546 162.57 18.0497V16.8908C162.57 16.4887 162.617 16.1254 162.711 15.8009C162.807 15.4763 162.945 15.1992 163.124 14.9694C163.306 14.7368 163.526 14.5587 163.784 14.4352C164.045 14.3117 164.341 14.25 164.67 14.25C165.073 14.25 165.414 14.3319 165.692 14.4956C165.973 14.6564 166.189 14.8933 166.34 15.2064C166.493 15.5166 166.578 15.8971 166.595 16.348H165.812C165.792 16.0177 165.741 15.7492 165.658 15.5424C165.576 15.3327 165.454 15.1791 165.292 15.0814C165.133 14.9809 164.926 14.9307 164.67 14.9307C164.443 14.9307 164.246 14.9766 164.078 15.0685C163.913 15.1604 163.777 15.2925 163.669 15.4649C163.564 15.6343 163.485 15.8397 163.431 16.0809C163.38 16.3193 163.354 16.5864 163.354 16.8822V18.0497C163.354 18.3254 163.375 18.5824 163.418 18.8208C163.463 19.0592 163.534 19.2688 163.631 19.4498C163.73 19.6278 163.859 19.7671 164.018 19.8676C164.177 19.9682 164.371 20.0184 164.598 20.0184C164.884 20.0184 165.112 19.971 165.279 19.8763C165.447 19.7815 165.57 19.6307 165.65 19.4239C165.732 19.2171 165.786 18.9472 165.812 18.614Z" fill="#656565"/>
<path d="M167.903 14.3362H168.661L170.284 19.4498L171.902 14.3362H172.66L170.578 20.6086H169.981L167.903 14.3362ZM167.656 14.3362H168.32L168.435 18.1617V20.6086H167.656V14.3362ZM172.239 14.3362H172.903V20.6086H172.124V18.1617L172.239 14.3362Z" fill="#656565"/>
<path d="M174.496 14.3362H175.254L176.877 19.4498L178.496 14.3362H179.254L177.171 20.6086H176.575L174.496 14.3362ZM174.249 14.3362H174.914L175.029 18.1617V20.6086H174.249V14.3362ZM178.832 14.3362H179.496V20.6086H178.717V18.1617L178.832 14.3362Z" fill="#656565"/>
<path d="M181.66 14.3362V20.6086H180.876V14.3362H181.66Z" fill="#656565"/>
<path d="M188.241 19.9323V20.6086H185.668V19.9323H188.241ZM185.809 14.3362V20.6086H185.025V14.3362H185.809Z" fill="#656565"/>
<path d="M192.508 19.9323V20.6086H189.817V19.9323H192.508ZM189.957 14.3362V20.6086H189.173V14.3362H189.957ZM192.146 17.033V17.7093H189.817V17.033H192.146ZM192.466 14.3362V15.0168H189.817V14.3362H192.466Z" fill="#656565"/>
<path d="M195.213 19.6566L196.704 14.3362H197.556L195.63 20.6086H195.03L195.213 19.6566ZM193.876 14.3362L195.354 19.6566L195.55 20.6086H194.949L193.024 14.3362H193.876Z" fill="#656565"/>
<path d="M201.734 19.9323V20.6086H199.042V19.9323H201.734ZM199.183 14.3362V20.6086H198.399V14.3362H199.183ZM201.372 17.033V17.7093H199.042V17.033H201.372ZM201.691 14.3362V15.0168H199.042V14.3362H201.691Z" fill="#656565"/>
<path d="M205.951 19.9323V20.6086H203.378V19.9323H205.951ZM203.519 14.3362V20.6086H202.735V14.3362H203.519Z" fill="#656565"/>
<path d="M209.682 17.0804H210.167C210.383 17.0804 210.562 17.0344 210.704 16.9425C210.846 16.8477 210.951 16.7199 211.019 16.5591C211.09 16.3954 211.126 16.2116 211.126 16.0077C211.126 15.7664 211.094 15.5639 211.032 15.4002C210.969 15.2365 210.876 15.113 210.751 15.0298C210.629 14.9465 210.474 14.9048 210.286 14.9048C210.11 14.9048 209.957 14.9493 209.826 15.0384C209.696 15.1245 209.595 15.248 209.524 15.4089C209.453 15.5697 209.418 15.7592 209.418 15.9775H208.668C208.668 15.6587 208.733 15.3686 208.864 15.1073C208.997 14.8459 209.185 14.6377 209.426 14.4826C209.67 14.3275 209.957 14.25 210.286 14.25C210.602 14.25 210.879 14.3175 211.117 14.4525C211.356 14.5846 211.542 14.7828 211.675 15.047C211.811 15.3083 211.879 15.6343 211.879 16.0249C211.879 16.1829 211.85 16.3523 211.79 16.5332C211.733 16.7113 211.641 16.8779 211.513 17.033C211.388 17.1881 211.224 17.3159 211.019 17.4164C210.817 17.514 210.57 17.5629 210.278 17.5629H209.682V17.0804ZM209.682 17.7352V17.257H210.278C210.624 17.257 210.907 17.3044 211.126 17.3992C211.344 17.4939 211.513 17.6203 211.632 17.7783C211.752 17.9362 211.834 18.11 211.879 18.2995C211.928 18.4862 211.952 18.6729 211.952 18.8596C211.952 19.1525 211.909 19.4124 211.824 19.6393C211.742 19.8662 211.624 20.0586 211.471 20.2166C211.32 20.3746 211.144 20.4937 210.942 20.5742C210.741 20.6546 210.521 20.6948 210.282 20.6948C210.049 20.6948 209.834 20.656 209.635 20.5785C209.436 20.5009 209.261 20.3889 209.111 20.2424C208.96 20.0931 208.843 19.9107 208.757 19.6953C208.675 19.4771 208.634 19.2286 208.634 18.95H209.388C209.388 19.1683 209.423 19.3593 209.494 19.523C209.565 19.6867 209.667 19.8145 209.801 19.9064C209.934 19.9955 210.095 20.04 210.282 20.04C210.47 20.04 210.631 19.9983 210.768 19.915C210.904 19.8289 211.009 19.6996 211.083 19.5273C211.16 19.355 211.198 19.1382 211.198 18.8768C211.198 18.6155 211.155 18.4015 211.07 18.2349C210.988 18.0655 210.87 17.9405 210.717 17.8601C210.563 17.7768 210.38 17.7352 210.167 17.7352H209.682Z" fill="#656565"/>
<path d="M163.526 27.0803V33.3528H162.742V27.0803H163.526Z" fill="#656565"/>
<path d="M167.602 31.7674C167.602 31.6209 167.585 31.4917 167.551 31.3797C167.517 31.2648 167.457 31.1614 167.372 31.0695C167.287 30.9776 167.168 30.89 167.014 30.8067C166.861 30.7234 166.666 30.6387 166.431 30.5526C166.175 30.4607 165.944 30.3587 165.736 30.2467C165.529 30.1318 165.352 30.0011 165.204 29.8547C165.059 29.7082 164.947 29.5402 164.868 29.3506C164.788 29.1611 164.748 28.9442 164.748 28.7001C164.748 28.456 164.789 28.2305 164.872 28.0238C164.957 27.817 165.076 27.6375 165.23 27.4853C165.386 27.3302 165.573 27.2095 165.792 27.1234C166.01 27.0372 166.255 26.9941 166.524 26.9941C166.928 26.9941 167.267 27.0846 167.542 27.2655C167.821 27.4436 168.031 27.6777 168.173 27.9678C168.315 28.255 168.386 28.5623 168.386 28.8897H167.602C167.602 28.6542 167.564 28.4459 167.487 28.265C167.413 28.0812 167.297 27.9376 167.138 27.8342C166.982 27.7279 166.777 27.6748 166.524 27.6748C166.297 27.6748 166.11 27.7193 165.962 27.8084C165.817 27.8974 165.709 28.018 165.638 28.1702C165.57 28.3224 165.536 28.4962 165.536 28.6915C165.536 28.8236 165.559 28.9442 165.604 29.0534C165.65 29.1596 165.719 29.2587 165.813 29.3506C165.91 29.4425 166.029 29.5273 166.171 29.6048C166.316 29.6823 166.486 29.757 166.682 29.8288C166.986 29.9293 167.246 30.0413 167.461 30.1648C167.677 30.2883 167.853 30.4276 167.99 30.5827C168.126 30.7349 168.225 30.9087 168.288 31.104C168.353 31.2964 168.386 31.5147 168.386 31.7588C168.386 32.0144 168.343 32.2456 168.258 32.4524C168.176 32.6592 168.055 32.8358 167.896 32.9823C167.737 33.1287 167.545 33.2422 167.321 33.3226C167.097 33.4002 166.844 33.4389 166.563 33.4389C166.319 33.4389 166.079 33.3987 165.843 33.3183C165.61 33.2379 165.399 33.1173 165.208 32.9564C165.018 32.7956 164.866 32.5974 164.753 32.3619C164.639 32.1235 164.582 31.8478 164.582 31.5348H165.366C165.366 31.7502 165.397 31.9354 165.46 32.0905C165.522 32.2427 165.609 32.3691 165.719 32.4696C165.83 32.5701 165.956 32.6448 166.098 32.6936C166.243 32.7396 166.398 32.7626 166.563 32.7626C166.79 32.7626 166.98 32.7224 167.133 32.6419C167.29 32.5615 167.406 32.4466 167.483 32.2973C167.562 32.148 167.602 31.9713 167.602 31.7674Z" fill="#656565"/>
<path d="M173.446 29.6737V30.7637C173.446 31.2059 173.397 31.5951 173.301 31.9311C173.207 32.2643 173.069 32.5429 172.888 32.7669C172.706 32.9909 172.487 33.1589 172.232 33.2709C171.976 33.3829 171.688 33.4389 171.367 33.4389C171.058 33.4389 170.775 33.3829 170.52 33.2709C170.264 33.1589 170.044 32.9909 169.859 32.7669C169.675 32.5429 169.531 32.2643 169.429 31.9311C169.33 31.5951 169.28 31.2059 169.28 30.7637V29.6737C169.28 29.2314 169.33 28.8437 169.429 28.5106C169.529 28.1745 169.671 27.8945 169.855 27.6705C170.04 27.4465 170.26 27.2785 170.515 27.1665C170.771 27.0516 171.053 26.9941 171.363 26.9941C171.684 26.9941 171.972 27.0516 172.227 27.1665C172.486 27.2785 172.705 27.4465 172.883 27.6705C173.065 27.8945 173.204 28.1745 173.301 28.5106C173.397 28.8437 173.446 29.2314 173.446 29.6737ZM172.67 30.7637V29.6651C172.67 29.3205 172.642 29.0247 172.585 28.7777C172.528 28.5278 172.445 28.3239 172.334 28.1659C172.223 28.008 172.087 27.8916 171.925 27.817C171.763 27.7394 171.576 27.7007 171.363 27.7007C171.161 27.7007 170.98 27.7394 170.818 27.817C170.659 27.8916 170.522 28.008 170.409 28.1659C170.295 28.3239 170.207 28.5278 170.145 28.7777C170.085 29.0247 170.055 29.3205 170.055 29.6651V30.7637C170.055 31.1112 170.085 31.4099 170.145 31.6597C170.207 31.9067 170.295 32.1106 170.409 32.2715C170.525 32.4294 170.664 32.5472 170.826 32.6247C170.988 32.6994 171.168 32.7367 171.367 32.7367C171.58 32.7367 171.767 32.6994 171.929 32.6247C172.094 32.5472 172.23 32.4294 172.338 32.2715C172.449 32.1106 172.531 31.9067 172.585 31.6597C172.642 31.4099 172.67 31.1112 172.67 30.7637Z" fill="#656565"/>
<path d="M177.172 32.685H177.232C177.615 32.685 177.924 32.6204 178.156 32.4912C178.389 32.3619 178.564 32.1882 178.68 31.9699C178.799 31.7516 178.879 31.5061 178.919 31.2332C178.961 30.9575 178.983 30.6746 178.983 30.3845V29.4239C178.983 29.1395 178.956 28.8868 178.902 28.6656C178.851 28.4445 178.781 28.2593 178.693 28.1099C178.608 27.9606 178.51 27.8471 178.399 27.7696C178.291 27.692 178.18 27.6533 178.067 27.6533C177.922 27.6533 177.794 27.6906 177.684 27.7653C177.573 27.8371 177.479 27.939 177.402 28.0711C177.329 28.2033 177.272 28.3583 177.232 28.5364C177.192 28.7145 177.172 28.9083 177.172 29.118C177.172 29.3047 177.189 29.4856 177.224 29.6608C177.258 29.836 177.31 29.994 177.381 30.1347C177.455 30.2754 177.546 30.3874 177.654 30.4707C177.764 30.5511 177.895 30.5913 178.046 30.5913C178.171 30.5913 178.291 30.5569 178.408 30.4879C178.527 30.4161 178.635 30.3199 178.731 30.1993C178.828 30.0758 178.907 29.9365 178.97 29.7814C179.032 29.6263 179.069 29.4641 179.081 29.2946H179.434C179.434 29.533 179.396 29.7685 179.319 30.0011C179.245 30.2309 179.139 30.4405 179 30.6301C178.863 30.8197 178.703 30.9719 178.518 31.0868C178.337 31.1988 178.136 31.2548 177.918 31.2548C177.654 31.2548 177.428 31.1945 177.241 31.0738C177.053 30.9532 176.9 30.7924 176.781 30.5913C176.664 30.3903 176.578 30.1663 176.521 29.9193C176.464 29.6694 176.436 29.4167 176.436 29.1611C176.436 28.8624 176.47 28.5824 176.538 28.321C176.606 28.0597 176.707 27.8299 176.84 27.6317C176.977 27.4307 177.147 27.2742 177.351 27.1622C177.556 27.0501 177.794 26.9941 178.067 26.9941C178.371 26.9941 178.629 27.0659 178.842 27.2095C179.055 27.3531 179.227 27.5456 179.357 27.7868C179.488 28.0281 179.583 28.2995 179.643 28.601C179.702 28.9026 179.732 29.2128 179.732 29.5316V29.8202C179.732 30.1447 179.717 30.475 179.685 30.811C179.657 31.1442 179.596 31.463 179.502 31.7674C179.411 32.0719 179.275 32.3447 179.093 32.5859C178.912 32.8243 178.669 33.0139 178.365 33.1546C178.064 33.2925 177.686 33.3614 177.232 33.3614H177.177L177.172 32.685Z" fill="#656565"/>
<path d="M184.115 29.7168V30.6732C184.115 31.1873 184.075 31.6209 183.996 31.9742C183.919 32.3275 183.808 32.6118 183.664 32.8272C183.519 33.0426 183.344 33.1991 183.14 33.2968C182.938 33.3915 182.711 33.4389 182.458 33.4389C182.259 33.4389 182.073 33.4088 181.9 33.3485C181.73 33.2881 181.577 33.1919 181.44 33.0598C181.304 32.9248 181.187 32.7496 181.091 32.5342C180.994 32.3188 180.921 32.0575 180.869 31.7502C180.818 31.4429 180.793 31.0839 180.793 30.6732V29.7168C180.793 29.2027 180.833 28.7719 180.912 28.4244C180.992 28.0769 181.104 27.7983 181.249 27.5886C181.396 27.3761 181.571 27.2239 181.772 27.132C181.977 27.0401 182.204 26.9941 182.454 26.9941C182.656 26.9941 182.841 27.0243 183.012 27.0846C183.185 27.142 183.338 27.2354 183.472 27.3646C183.608 27.491 183.725 27.6604 183.821 27.873C183.918 28.0826 183.99 28.3397 184.038 28.6441C184.089 28.9485 184.115 29.3061 184.115 29.7168ZM183.365 30.8024V29.5833C183.365 29.3018 183.353 29.0548 183.327 28.8423C183.301 28.6269 183.265 28.4431 183.216 28.2909C183.168 28.1386 183.106 28.0151 183.029 27.9204C182.955 27.8256 182.87 27.7567 182.773 27.7136C182.677 27.6676 182.57 27.6447 182.454 27.6447C182.309 27.6447 182.18 27.6806 182.066 27.7524C181.956 27.8213 181.86 27.9319 181.781 28.0841C181.704 28.2363 181.646 28.4359 181.606 28.6829C181.567 28.9299 181.547 29.23 181.547 29.5833V30.8024C181.547 31.0839 181.559 31.3323 181.585 31.5477C181.613 31.7631 181.652 31.9498 181.7 32.1078C181.751 32.2628 181.814 32.3906 181.887 32.4912C181.961 32.5917 182.046 32.6664 182.143 32.7152C182.24 32.7611 182.345 32.7841 182.458 32.7841C182.609 32.7841 182.739 32.7468 182.85 32.6721C182.964 32.5974 183.059 32.4811 183.135 32.3232C183.212 32.1623 183.269 31.957 183.306 31.7071C183.346 31.4544 183.365 31.1528 183.365 30.8024Z" fill="#656565"/>
<path d="M188.425 29.7168V30.6732C188.425 31.1873 188.386 31.6209 188.306 31.9742C188.229 32.3275 188.119 32.6118 187.974 32.8272C187.829 33.0426 187.654 33.1991 187.45 33.2968C187.248 33.3915 187.021 33.4389 186.769 33.4389C186.57 33.4389 186.384 33.4088 186.211 33.3485C186.04 33.2881 185.887 33.1919 185.751 33.0598C185.614 32.9248 185.498 32.7496 185.401 32.5342C185.305 32.3188 185.231 32.0575 185.18 31.7502C185.129 31.4429 185.103 31.0839 185.103 30.6732V29.7168C185.103 29.2027 185.143 28.7719 185.222 28.4244C185.302 28.0769 185.414 27.7983 185.559 27.5886C185.707 27.3761 185.881 27.2239 186.083 27.132C186.287 27.0401 186.514 26.9941 186.764 26.9941C186.966 26.9941 187.152 27.0243 187.322 27.0846C187.495 27.142 187.649 27.2354 187.782 27.3646C187.919 27.491 188.035 27.6604 188.131 27.873C188.228 28.0826 188.3 28.3397 188.349 28.6441C188.4 28.9485 188.425 29.3061 188.425 29.7168ZM187.676 30.8024V29.5833C187.676 29.3018 187.663 29.0548 187.637 28.8423C187.612 28.6269 187.575 28.4431 187.527 28.2909C187.478 28.1386 187.416 28.0151 187.339 27.9204C187.265 27.8256 187.18 27.7567 187.084 27.7136C186.987 27.6676 186.881 27.6447 186.764 27.6447C186.619 27.6447 186.49 27.6806 186.377 27.7524C186.266 27.8213 186.171 27.9319 186.091 28.0841C186.015 28.2363 185.956 28.4359 185.917 28.6829C185.877 28.9299 185.857 29.23 185.857 29.5833V30.8024C185.857 31.0839 185.87 31.3323 185.895 31.5477C185.924 31.7631 185.962 31.9498 186.01 32.1078C186.061 32.2628 186.124 32.3906 186.198 32.4912C186.272 32.5917 186.357 32.6664 186.453 32.7152C186.55 32.7611 186.655 32.7841 186.769 32.7841C186.919 32.7841 187.05 32.7468 187.16 32.6721C187.274 32.5974 187.369 32.4811 187.446 32.3232C187.522 32.1623 187.579 31.957 187.616 31.7071C187.656 31.4544 187.676 31.1528 187.676 30.8024Z" fill="#656565"/>
<path d="M191.667 27.0458V33.3528H190.913V28.041L189.609 28.6269V27.9074L191.552 27.0458H191.667Z" fill="#656565"/>
<path d="M193.822 32.9306C193.822 32.7956 193.863 32.6822 193.945 32.5902C194.03 32.4955 194.153 32.4481 194.312 32.4481C194.471 32.4481 194.591 32.4955 194.674 32.5902C194.759 32.6822 194.801 32.7956 194.801 32.9306C194.801 33.0627 194.759 33.1747 194.674 33.2666C194.591 33.3585 194.471 33.4045 194.312 33.4045C194.153 33.4045 194.03 33.3585 193.945 33.2666C193.863 33.1747 193.822 33.0627 193.822 32.9306ZM193.818 29.1266C193.818 28.9916 193.859 28.8782 193.941 28.7863C194.026 28.6915 194.148 28.6441 194.307 28.6441C194.466 28.6441 194.587 28.6915 194.669 28.7863C194.755 28.8782 194.797 28.9916 194.797 29.1266C194.797 29.2587 194.755 29.3707 194.669 29.4626C194.587 29.5545 194.466 29.6005 194.307 29.6005C194.148 29.6005 194.026 29.5545 193.941 29.4626C193.859 29.3707 193.818 29.2587 193.818 29.1266Z" fill="#656565"/>
<path d="M199.235 32.6979V33.3528H195.768V32.7798L197.476 30.4922C197.686 30.2108 197.847 29.9724 197.958 29.7771C198.068 29.5789 198.145 29.4023 198.188 29.2472C198.23 29.0893 198.251 28.9284 198.251 28.7647C198.251 28.5579 198.219 28.3713 198.153 28.2047C198.088 28.0352 197.993 27.9003 197.868 27.7997C197.743 27.6992 197.593 27.649 197.417 27.649C197.187 27.649 196.998 27.7035 196.85 27.8127C196.705 27.9189 196.599 28.0683 196.531 28.2607C196.463 28.4531 196.428 28.6743 196.428 28.9241H195.675C195.675 28.5709 195.738 28.2478 195.866 27.9548C195.997 27.6619 196.191 27.4292 196.45 27.2569C196.708 27.0817 197.03 26.9941 197.417 26.9941C197.749 26.9941 198.033 27.0645 198.268 27.2052C198.507 27.3431 198.689 27.5384 198.814 27.7911C198.941 28.041 199.005 28.3339 199.005 28.67C199.005 28.8538 198.98 29.0404 198.929 29.23C198.88 29.4167 198.812 29.6034 198.724 29.79C198.639 29.9767 198.538 30.1605 198.422 30.3415C198.305 30.5224 198.18 30.7005 198.047 30.8757L196.671 32.6979H199.235Z" fill="#656565"/>
<path d="M203.392 29.7168V30.6732C203.392 31.1873 203.353 31.6209 203.273 31.9742C203.196 32.3275 203.086 32.6118 202.941 32.8272C202.796 33.0426 202.621 33.1991 202.417 33.2968C202.215 33.3915 201.988 33.4389 201.735 33.4389C201.537 33.4389 201.351 33.4088 201.177 33.3485C201.007 33.2881 200.854 33.1919 200.717 33.0598C200.581 32.9248 200.465 32.7496 200.368 32.5342C200.272 32.3188 200.198 32.0575 200.147 31.7502C200.096 31.4429 200.07 31.0839 200.07 30.6732V29.7168C200.07 29.2027 200.11 28.7719 200.189 28.4244C200.269 28.0769 200.381 27.7983 200.526 27.5886C200.673 27.3761 200.848 27.2239 201.05 27.132C201.254 27.0401 201.481 26.9941 201.731 26.9941C201.933 26.9941 202.119 27.0243 202.289 27.0846C202.462 27.142 202.616 27.2354 202.749 27.3646C202.885 27.491 203.002 27.6604 203.098 27.873C203.195 28.0826 203.267 28.3397 203.316 28.6441C203.367 28.9485 203.392 29.3061 203.392 29.7168ZM202.643 30.8024V29.5833C202.643 29.3018 202.63 29.0548 202.604 28.8423C202.579 28.6269 202.542 28.4431 202.494 28.2909C202.445 28.1386 202.383 28.0151 202.306 27.9204C202.232 27.8256 202.147 27.7567 202.051 27.7136C201.954 27.6676 201.848 27.6447 201.731 27.6447C201.586 27.6447 201.457 27.6806 201.344 27.7524C201.233 27.8213 201.138 27.9319 201.058 28.0841C200.982 28.2363 200.923 28.4359 200.884 28.6829C200.844 28.9299 200.824 29.23 200.824 29.5833V30.8024C200.824 31.0839 200.837 31.3323 200.862 31.5477C200.891 31.7631 200.929 31.9498 200.977 32.1078C201.028 32.2628 201.091 32.3906 201.165 32.4912C201.239 32.5917 201.324 32.6664 201.42 32.7152C201.517 32.7611 201.622 32.7841 201.735 32.7841C201.886 32.7841 202.017 32.7468 202.127 32.6721C202.241 32.5974 202.336 32.4811 202.413 32.3232C202.489 32.1623 202.546 31.957 202.583 31.7071C202.623 31.4544 202.643 31.1528 202.643 30.8024Z" fill="#656565"/>
<path d="M206.634 27.0458V33.3528H205.88V28.041L204.576 28.6269V27.9074L206.519 27.0458H206.634Z" fill="#656565"/>
<path d="M209.611 30.3673L209.01 30.2036L209.274 27.0803H211.975V27.817H209.909L209.764 29.5229C209.861 29.4569 209.977 29.3951 210.113 29.3377C210.25 29.2803 210.409 29.2515 210.59 29.2515C210.835 29.2515 211.052 29.3018 211.242 29.4023C211.435 29.5 211.598 29.6407 211.732 29.8245C211.865 30.0083 211.968 30.2295 212.039 30.4879C212.11 30.7464 212.145 31.0351 212.145 31.3538C212.145 31.6554 212.11 31.9326 212.039 32.1853C211.97 32.438 211.865 32.6592 211.723 32.8487C211.584 33.0354 211.408 33.1804 211.195 33.2838C210.985 33.3872 210.739 33.4389 210.458 33.4389C210.248 33.4389 210.049 33.4045 209.862 33.3355C209.675 33.2637 209.506 33.156 209.355 33.0124C209.208 32.866 209.087 32.685 208.993 32.4696C208.899 32.2514 208.841 31.9957 208.819 31.7028H209.53C209.558 31.9383 209.612 32.1365 209.692 32.2973C209.774 32.4581 209.879 32.5802 210.007 32.6635C210.137 32.7439 210.288 32.7841 210.458 32.7841C210.603 32.7841 210.734 32.7511 210.85 32.685C210.967 32.619 211.065 32.5242 211.144 32.4007C211.224 32.2772 211.285 32.1279 211.327 31.9527C211.37 31.7775 211.391 31.5807 211.391 31.3625C211.391 31.1643 211.37 30.9805 211.327 30.811C211.285 30.6416 211.221 30.4937 211.136 30.3673C211.05 30.2409 210.947 30.1433 210.825 30.0744C210.705 30.0026 210.566 29.9667 210.407 29.9667C210.194 29.9667 210.037 30.0026 209.934 30.0744C209.835 30.1462 209.727 30.2438 209.611 30.3673Z" fill="#656565"/>
</svg>
