<svg width="22" height="22" viewBox="0 0 22 22" fill="none" xmlns="http://www.w3.org/2000/svg">
<g clip-path="url(#clip0_803_12815)">
<path d="M16.1562 12.0312H15.2969V6.01562C15.2969 5.54099 14.9121 5.15625 14.4375 5.15625C13.9629 5.15625 13.5781 5.54099 13.5781 6.01562V12.0312H11.8594V7.73438C11.8594 7.25974 11.4746 6.875 11 6.875C10.5254 6.875 10.1406 7.25974 10.1406 7.73438V12.0312H8.42188V9.45312C8.42188 8.97849 8.03713 8.59375 7.5625 8.59375C7.08787 8.59375 6.70312 8.97849 6.70312 9.45312V12.0312H5.84375C5.36912 12.0312 4.98438 12.416 4.98438 12.8906C4.98438 13.3653 5.36912 13.75 5.84375 13.75H16.1562C16.6309 13.75 17.0156 13.3653 17.0156 12.8906C17.0156 12.416 16.6309 12.0312 16.1562 12.0312Z" fill="white"/>
<path d="M17.7031 0H4.29688C1.92758 0 0 1.92758 0 4.29688V14.6094C0 16.9787 1.92758 18.9062 4.29688 18.9062H10.1406V20.2812H7.5625C7.08787 20.2812 6.70312 20.666 6.70312 21.1406C6.70312 21.6153 7.08787 22 7.5625 22H14.4375C14.9121 22 15.2969 21.6153 15.2969 21.1406C15.2969 20.666 14.9121 20.2812 14.4375 20.2812H11.8594V18.0469C11.8594 17.5722 11.4746 17.1875 11 17.1875H4.29688C2.8753 17.1875 1.71875 16.031 1.71875 14.6094V4.29688C1.71875 2.8753 2.8753 1.71875 4.29688 1.71875H17.7031C19.1247 1.71875 20.2812 2.8753 20.2812 4.29688V14.6094C20.2812 16.031 19.1247 17.1875 17.7031 17.1875H14.4375C13.9629 17.1875 13.5781 17.5722 13.5781 18.0469C13.5781 18.5215 13.9629 18.9062 14.4375 18.9062H17.7031C20.0725 18.9062 22 16.9787 22 14.6094V4.29688C22 1.92758 20.0725 0 17.7031 0Z" fill="white"/>
</g>
<defs>
<clipPath id="clip0_803_12815">
<rect width="22" height="22" fill="white"/>
</clipPath>
</defs>
</svg>
