<svg width="11" height="11" viewBox="0 0 11 11" fill="none" xmlns="http://www.w3.org/2000/svg">
<g clip-path="url(#clip0_1_2)">
<path d="M9.9762 5.16792L6.41287 1.60458L6.41164 1.60335L6.41165 1.60334C6.28845 1.47579 6.28846 1.27357 6.41164 1.146L6.41165 1.14599C6.53795 1.01526 6.74634 1.0116 6.8771 1.13792L6.87835 1.13912L6.87834 1.13913L11.0032 5.26404L9.9762 5.16792ZM9.9762 5.16792H0.229174H0.229157C0.0473806 5.16795 -0.1 5.31532 -0.1 5.49711C-0.1 5.6789 0.0473807 5.82629 0.229174 5.82629H9.9762L6.41388 9.38861C6.28382 9.51497 6.2804 9.72283 6.40649 9.85338L6.4065 9.85339C6.53281 9.98414 6.74116 9.98774 6.87193 9.86148L6.87196 9.86145L6.8788 9.85461L6.87881 9.85462L11.0038 5.72962L11.004 5.72944C11.0344 5.69892 11.0585 5.66273 11.075 5.62284C11.1259 5.49978 11.0976 5.35819 11.0033 5.26413L9.9762 5.16792Z" fill="white" stroke="white" stroke-width="0.2"/>
</g>
<defs>
<clipPath id="clip0_1_2">
<rect width="11" height="11" fill="white"/>
</clipPath>
</defs>
</svg>
