<svg width="25" height="26" viewBox="0 0 25 26" fill="none" xmlns="http://www.w3.org/2000/svg">
<path d="M17.6183 18.5245C18.5638 20.1842 19.4987 21.825 20.4329 23.4641C16.296 26.668 9.85985 27.0552 5.09526 23.3656C-0.387732 19.1165 -1.28891 11.8661 1.6466 6.64694C5.02286 0.643818 11.341 -0.683809 15.4089 0.289689C15.2989 0.531463 12.8625 5.64464 12.8625 5.64464C12.8625 5.64464 12.6699 5.65744 12.5609 5.65957C11.3585 5.71113 10.463 5.99414 9.5031 6.49618C8.44998 7.05208 7.54749 7.86046 6.87451 8.85065C6.20152 9.84085 5.77853 10.9827 5.64251 12.1765C5.50058 13.3871 5.66606 14.6143 6.12333 15.7423C6.50995 16.6959 7.05684 17.5428 7.79002 18.2578C8.91473 19.3557 10.2531 20.0356 11.8046 20.2606C13.2737 20.4739 14.6866 20.2628 16.0106 19.5897C16.5073 19.3376 16.9297 19.0592 17.4236 18.6773C17.4865 18.6361 17.5424 18.5838 17.6183 18.5245Z" fill="#FF492C"/>
<path d="M17.6273 3.96852C17.3872 3.72959 17.1648 3.50915 16.9433 3.28728C16.8112 3.15502 16.6839 3.01742 16.5486 2.88836C16.5001 2.84178 16.4432 2.77814 16.4432 2.77814C16.4432 2.77814 16.4892 2.67929 16.5089 2.63876C16.7679 2.1129 17.1739 1.72855 17.6554 1.42278C18.1879 1.08208 18.8082 0.908738 19.4381 0.92465C20.244 0.94065 20.9934 1.14367 21.6257 1.69051C22.0924 2.09406 22.3318 2.60605 22.374 3.21724C22.4442 4.24834 22.0225 5.03802 21.1849 5.58912C20.6928 5.91338 20.1621 6.16404 19.63 6.46093C19.3365 6.62484 19.0856 6.76884 18.7988 7.06537C18.5464 7.36296 18.5341 7.64349 18.5341 7.64349L22.3465 7.63851V9.35618H16.4618C16.4618 9.35618 16.4618 9.23885 16.4618 9.19014C16.4393 8.34606 16.5367 7.55176 16.9187 6.78519C17.2702 6.08191 17.8164 5.56707 18.4726 5.17064C18.978 4.86522 19.5101 4.60531 20.0166 4.30131C20.3291 4.11394 20.5498 3.8391 20.548 3.44053C20.548 3.09849 20.302 2.79449 19.9505 2.69956C19.1218 2.47343 18.2782 2.83431 17.8396 3.60159C17.7756 3.71359 17.7102 3.82488 17.6273 3.96852Z" fill="#FF492C"/>
<path d="M25.0015 16.6987L21.7887 11.0859H15.4309L12.1973 16.7566H18.6019L21.7623 22.3427L25.0015 16.6987Z" fill="#FF492C"/>
</svg>
