<svg width="25" height="26" viewBox="0 0 25 26" fill="none" xmlns="http://www.w3.org/2000/svg">
<path d="M17.6183 18.5242C18.5638 20.1839 19.4987 21.8248 20.433 23.4639C16.2961 26.6678 9.85991 27.0549 5.09532 23.3654C-0.387671 19.1162 -1.28885 11.8658 1.64666 6.64669C5.02292 0.643574 11.341 -0.684053 15.409 0.289445C15.299 0.531219 12.8626 5.64439 12.8626 5.64439C12.8626 5.64439 12.6699 5.65719 12.561 5.65933C11.3586 5.71088 10.463 5.9939 9.50316 6.49594C8.45004 7.05184 7.54755 7.86021 6.87457 8.85041C6.20158 9.8406 5.77859 10.9825 5.64257 12.1762C5.50064 13.3868 5.66612 14.6141 6.12339 15.742C6.51001 16.6956 7.0569 17.5425 7.79008 18.2576C8.91479 19.3555 10.2532 20.0353 11.8046 20.2604C13.2738 20.4737 14.6867 20.2625 16.0107 19.5894C16.5073 19.3374 16.9298 19.059 17.4236 18.6771C17.4865 18.6359 17.5424 18.5836 17.6183 18.5242Z" fill="#FF492C"/>
<path d="M17.6274 3.9687C17.3873 3.72977 17.1648 3.50933 16.9434 3.28747C16.8112 3.1552 16.684 3.0176 16.5487 2.88854C16.5002 2.84196 16.4432 2.77832 16.4432 2.77832C16.4432 2.77832 16.4893 2.67948 16.509 2.63894C16.768 2.11308 17.174 1.72873 17.6555 1.42296C18.1879 1.08227 18.8083 0.908921 19.4381 0.924833C20.2441 0.940833 20.9934 1.14385 21.6257 1.69069C22.0925 2.09424 22.3318 2.60623 22.374 3.21742C22.4443 4.24852 22.0225 5.0382 21.185 5.5893C20.6929 5.91356 20.1622 6.16423 19.6301 6.46111C19.3366 6.62502 19.0856 6.76902 18.7988 7.06555C18.5465 7.36314 18.5342 7.64367 18.5342 7.64367L22.3466 7.6387V9.35636H16.4619C16.4619 9.35636 16.4619 9.23903 16.4619 9.19032C16.4394 8.34624 16.5367 7.55194 16.9188 6.78537C17.2703 6.0821 17.8164 5.56726 18.4726 5.17082C18.9781 4.8654 19.5102 4.60549 20.0167 4.3015C20.3291 4.11412 20.5499 3.83928 20.5481 3.44071C20.5481 3.09867 20.3021 2.79467 19.9506 2.69974C19.1218 2.47361 18.2783 2.8345 17.8396 3.60177C17.7757 3.71377 17.7103 3.82506 17.6274 3.9687Z" fill="#FF492C"/>
<path d="M25.0016 16.6987L21.7888 11.0859H15.4309L12.1974 16.7566H18.6019L21.7624 22.3427L25.0016 16.6987Z" fill="#FF492C"/>
</svg>
