<svg width="28" height="24" viewBox="0 0 28 24" fill="none" xmlns="http://www.w3.org/2000/svg">
<path d="M15.9655 12.73C15.9655 8.30368 14.3504 6.28751 13.4953 5.52276C13.329 5.38371 13.0677 5.49959 13.0915 5.73133C13.2578 8.23415 10.0274 8.85986 10.0274 12.7763V12.7995C10.0274 15.1864 11.8801 17.1331 14.1603 17.1331C16.4406 17.1331 18.2933 15.1864 18.2933 12.7995V12.7763C18.2933 11.6639 17.8657 10.5979 17.4382 9.81001C17.3432 9.64779 17.1057 9.71731 17.1294 9.85635C17.9132 13.2398 15.9655 15.3255 15.9655 12.73ZM11.0488 22.0692C10.9538 22.0692 10.835 22.0229 10.7637 21.9533L0.193861 11.6408C0.0513463 11.5017 0.0513463 11.2468 0.193861 11.0846L11.3575 0.192673C11.4288 0.146324 11.5238 0.0999756 11.6188 0.0999756H14.8254C15.0154 0.0999756 15.1342 0.215847 15.1817 0.331719C15.2292 0.44759 15.2292 0.60981 15.0867 0.748856L4.61183 10.9919C4.39806 11.2005 4.39806 11.5249 4.61183 11.7335L12.9015 19.8445C13.044 19.9835 13.044 20.2384 12.9015 20.4007L11.31 21.9765C11.2388 22.0229 11.1438 22.0692 11.0488 22.0692ZM13.1627 23.8768C12.9727 23.8768 12.854 23.7609 12.8065 23.6451C12.7589 23.5292 12.7589 23.367 12.9015 23.2279L23.4001 12.9849C23.4951 12.8922 23.5663 12.7531 23.5663 12.6141C23.5663 12.475 23.5188 12.336 23.4001 12.2433L15.0867 4.1323C14.9442 3.99326 14.9442 3.73834 15.0867 3.57612L16.7019 2.00027C16.7731 1.93074 16.8681 1.8844 16.9869 1.8844C17.1057 1.8844 17.1769 1.95392 17.2482 2.02344L27.7943 12.336C27.8656 12.4055 27.9131 12.4982 27.9131 12.6141C27.9131 12.73 27.8656 12.8227 27.7943 12.8922L16.6306 23.7841C16.5594 23.8536 16.4643 23.9 16.3456 23.9H13.1627V23.8768Z" fill="#FF6600"/>
</svg>
