<svg width="28" height="24" viewBox="0 0 28 24" fill="none" xmlns="http://www.w3.org/2000/svg">
<path d="M15.9655 12.7296C15.9655 8.30331 14.3503 6.28715 13.4952 5.52239C13.3289 5.38335 13.0677 5.49922 13.0914 5.73096C13.2577 8.23379 10.0273 8.85949 10.0273 12.7759V12.7991C10.0273 15.1861 11.88 17.1327 14.1603 17.1327C16.4405 17.1327 18.2932 15.1861 18.2932 12.7991V12.7759C18.2932 11.6636 17.8657 10.5976 17.4381 9.80964C17.3431 9.64742 17.1056 9.71694 17.1294 9.85599C17.9132 13.2394 15.9655 15.3251 15.9655 12.7296ZM11.0487 22.0688C10.9537 22.0688 10.8349 22.0225 10.7637 21.953L0.1938 11.6404C0.0512853 11.5014 0.0512853 11.2464 0.1938 11.0842L11.3575 0.192307C11.4287 0.145958 11.5238 0.0996094 11.6188 0.0996094H14.8254C15.0154 0.0996094 15.1341 0.215481 15.1816 0.331352C15.2291 0.447224 15.2292 0.609444 15.0866 0.74849L4.61177 10.9915C4.398 11.2001 4.398 11.5245 4.61177 11.7331L12.9014 19.8441C13.0439 19.9832 13.0439 20.2381 12.9014 20.4003L11.31 21.9761C11.2387 22.0225 11.1437 22.0688 11.0487 22.0688ZM13.1627 23.8764C12.9727 23.8764 12.8539 23.7606 12.8064 23.6447C12.7589 23.5288 12.7589 23.3666 12.9014 23.2276L23.4 12.9845C23.495 12.8918 23.5663 12.7528 23.5663 12.6137C23.5663 12.4747 23.5188 12.3356 23.4 12.2429L15.0866 4.13194C14.9441 3.99289 14.9441 3.73797 15.0866 3.57575L16.7018 1.9999C16.7731 1.93038 16.8681 1.88403 16.9868 1.88403C17.1056 1.88403 17.1769 1.95355 17.2481 2.02308L27.7942 12.3356C27.8655 12.4052 27.913 12.4979 27.913 12.6137C27.913 12.7296 27.8655 12.8223 27.7942 12.8918L16.6306 23.7837C16.5593 23.8533 16.4643 23.8996 16.3455 23.8996H13.1627V23.8764Z" fill="#FF6600"/>
</svg>
