<svg width="18" height="29" viewBox="0 0 18 29" fill="none" xmlns="http://www.w3.org/2000/svg">
<path d="M8.6786 18.0975C8.62568 18.0446 8.62568 18.0975 8.6786 18.0975L8.41401 17.9388L8.36109 17.8858L2.11673 13.4407C2.11673 13.4407 2.06381 13.4407 2.06381 13.3878L1.95798 13.2819L1.90506 13.229H1.79922L0 11.959L3.54553 12.4882C3.70428 12.4882 3.7572 12.5411 3.91595 12.594C3.96887 12.594 4.07471 12.6469 4.07471 12.6469C4.23346 12.6998 4.28638 12.7528 4.39222 12.8057C4.49805 12.8586 4.55097 12.9115 4.65681 12.9644C4.70973 13.0173 4.81556 13.0703 4.81556 13.1232C4.86848 13.1761 4.9214 13.1761 4.97432 13.229C5.08016 13.2819 5.13307 13.3349 5.13307 13.3878C5.29183 13.5465 5.39767 13.7053 5.55642 13.8111L8.36109 17.78L8.41401 17.8329L8.6786 18.0975Z" fill="#2A66FF"/>
<path d="M8.67854 24.236L8.41395 23.8127L8.36103 23.7598L0.0528564 11.959L1.85208 13.229L2.16959 13.4407L8.41395 17.8858H8.46686L8.67854 18.0446C8.67854 18.0446 8.73145 18.0446 8.73145 18.0975L8.99605 17.8858L17.4101 11.959L8.94313 23.8127L8.89021 23.8656L8.67854 24.236Z" fill="#2A66FF"/>
<path d="M8.67856 16.086L8.41397 15.6626L8.36105 15.6097L6.29724 12.7521L8.36105 13.1755H8.41397L8.67856 13.2284L8.94316 13.1755L10.9541 12.6992L8.94316 15.6626V15.7156L8.67856 16.086Z" fill="#2A66FF"/>
<path d="M17.463 11.9062L14.8171 12.2767L13.8117 12.4354C13.0179 12.5413 12.277 12.9646 11.8008 13.6526L8.9961 17.6743L8.94318 17.7273L8.67859 18.0977L8.9961 17.7802L9.04902 17.7273L8.67859 18.0977L15.8226 13.0175L17.463 11.9062Z" fill="#2A66FF"/>
<path d="M10.0015 3.54553C10.0015 5.87393 5.97975 7.09105 5.97975 9.57821C5.92684 10.1603 6.08559 10.7424 6.35018 11.2716C6.35018 11.2716 4.81555 9.78988 4.81555 8.20233C4.81555 6.61479 6.29726 4.23346 6.29726 4.23346C6.29726 5.29183 6.72061 5.60934 7.14396 5.66226H7.19687C7.67314 5.66226 7.93773 5.29183 7.93773 4.76265C7.93773 4.23346 7.35563 3.70428 7.35563 2.64591C7.35563 1.64047 8.62567 0 8.62567 0C9.52528 1.05837 10.0015 2.27549 10.0015 3.54553Z" fill="#2A66FF"/>
<path d="M8.89029 12.0133C7.62025 12.0133 6.66772 11.0079 6.66772 9.79075V9.73783C6.66772 7.039 10.4249 6.77441 10.4249 3.12305C10.5308 3.2818 11.5362 4.65768 11.5362 6.13939C11.5362 7.99153 9.7899 8.46779 9.7899 9.3674C9.7899 9.73783 9.94866 10.0024 10.4778 10.0024C10.5308 10.0024 10.5837 10.0024 10.6366 9.94951C11.642 9.52616 12.33 8.57363 12.3829 7.46235C12.3829 7.51526 12.9121 12.0133 8.89029 12.0133Z" fill="#2A66FF"/>
<path d="M10.5308 10.0024C10.5837 10.0024 10.6366 10.0024 10.6896 9.94951C10.1604 10.1083 8.20239 10.5845 8.20239 9.20865C8.20239 7.51526 11.1129 7.14484 11.1129 5.71604C11.1129 4.81643 10.9012 3.91682 10.425 3.12305C10.5308 3.2818 11.5362 4.65768 11.5362 6.13939C11.5362 7.99153 9.78994 8.46779 9.78994 9.3674C9.84286 9.73783 10.0545 10.0024 10.5308 10.0024Z" fill="#2A66FF"/>
<path d="M8.94326 4.49805C8.94326 5.82101 7.24988 5.71517 7.14404 5.66226H7.3028C7.77906 5.66226 8.04365 5.29183 8.04365 4.76265C8.04365 4.23346 7.46155 3.70428 7.46155 2.64591C7.46155 1.64047 8.73159 0 8.73159 0C8.30825 0.687938 8.09657 1.42879 8.04365 2.16965C8.04365 3.38677 8.94326 3.49261 8.94326 4.49805Z" fill="#2A66FF"/>
<path d="M7.88491 27.623L6.7207 26.8292H8.1495L8.62576 25.4004L9.04911 26.8292H10.4779L9.3137 27.623L9.73705 28.9988L8.57284 28.1521L7.35572 28.9988L7.88491 27.623Z" fill="#2A66FF"/>
<path d="M13.9705 27.623L12.8063 26.8292H14.2351L14.7113 25.4004L15.1347 26.8292H16.5635L15.3993 27.623L15.8226 28.9988L14.6584 28.1521L13.4413 28.9988L13.9705 27.623Z" fill="#2A66FF"/>
<path d="M1.85219 27.623L0.687988 26.8292H2.11678L2.59305 25.4004L3.01639 26.8292H4.44519L3.28098 27.623L3.70433 28.9988L2.54013 28.1521L1.37593 28.9988L1.85219 27.623Z" fill="#2A66FF"/>
</svg>
