<svg width="41" height="34" viewBox="0 0 41 34" fill="none" xmlns="http://www.w3.org/2000/svg">
<path d="M23.3831 18.0428C23.3831 11.7196 21.0612 8.83934 19.8321 7.74684C19.593 7.5482 19.2175 7.71373 19.2516 8.04479C19.4906 11.6203 14.847 12.5141 14.847 18.1091V18.1422C14.847 21.5521 17.5102 24.333 20.7881 24.333C24.0659 24.333 26.7292 21.5521 26.7292 18.1422V18.1091C26.7292 16.52 26.1146 14.9971 25.5 13.8715C25.3634 13.6397 25.022 13.739 25.0561 13.9377C26.1829 18.7712 23.3831 21.7507 23.3831 18.0428ZM16.3152 31.3846C16.1786 31.3846 16.0079 31.3184 15.9055 31.2191L0.711266 16.4869C0.506401 16.2882 0.506401 15.9241 0.711266 15.6923L16.7591 0.132425C16.8615 0.0662123 16.9981 0 17.1347 0H21.7441C22.0173 0 22.188 0.165531 22.2563 0.331061C22.3246 0.496592 22.3246 0.728335 22.1197 0.926972L7.0621 15.5599C6.7548 15.8578 6.7548 16.3213 7.0621 16.6193L18.9784 28.2064C19.1833 28.4051 19.1833 28.7692 18.9784 29.001L16.6908 31.2522C16.5883 31.3184 16.4518 31.3846 16.3152 31.3846ZM19.354 33.9669C19.0809 33.9669 18.9102 33.8014 18.8419 33.6358C18.7736 33.4703 18.7736 33.2386 18.9784 33.0399L34.0702 18.407C34.2068 18.2746 34.3092 18.076 34.3092 17.8773C34.3092 17.6787 34.2409 17.48 34.0702 17.3476L22.1197 5.76047C21.9149 5.56183 21.9149 5.19766 22.1197 4.96592L24.4415 2.7147C24.544 2.61538 24.6805 2.54917 24.8513 2.54917C25.022 2.54917 25.1244 2.64849 25.2268 2.74781L40.3869 17.48C40.4893 17.5794 40.5576 17.7118 40.5576 17.8773C40.5576 18.0428 40.4893 18.1753 40.3869 18.2746L24.3391 33.8345C24.2367 33.9338 24.1001 34 23.9294 34H19.354V33.9669Z" fill="#FF6600"/>
</svg>
