<svg width="27" height="28" viewBox="0 0 27 28" fill="none" xmlns="http://www.w3.org/2000/svg">
<g clip-path="url(#clip0_3141_22212)">
<path d="M19.0279 19.9492C20.049 21.7365 21.0587 23.5036 22.0677 25.2688C17.5999 28.7191 10.6488 29.1361 5.50306 25.1627C-0.418578 20.5867 -1.39185 12.7786 1.7785 7.15798C5.42486 0.693079 12.2484 -0.736673 16.6418 0.31171C16.523 0.572082 13.8917 6.07858 13.8917 6.07858C13.8917 6.07858 13.6836 6.09236 13.566 6.09466C12.2674 6.15018 11.3002 6.45497 10.2635 6.99563C9.12615 7.59429 8.15146 8.46484 7.42464 9.53121C6.69782 10.5976 6.24099 11.8273 6.09408 13.1128C5.9408 14.4166 6.11952 15.7382 6.61336 16.953C7.03092 17.9799 7.62156 18.892 8.41339 19.662C9.62808 20.8444 11.0736 21.5765 12.7491 21.8189C14.3358 22.0486 15.8617 21.8212 17.2917 21.0963C17.828 20.8249 18.2843 20.525 18.8176 20.1138C18.8856 20.0694 18.9459 20.0131 19.0279 19.9492Z" fill="#FF492C"/>
<path d="M19.0376 4.27324C18.7784 4.01593 18.5381 3.77853 18.2989 3.5396C18.1562 3.39716 18.0188 3.24898 17.8727 3.10998C17.8203 3.05982 17.7588 2.99128 17.7588 2.99128C17.7588 2.99128 17.8085 2.88484 17.8298 2.84119C18.1095 2.27488 18.548 1.86096 19.068 1.53167C19.6431 1.16477 20.3131 0.978087 20.9933 0.995223C21.8637 1.01245 22.673 1.23109 23.3559 1.81999C23.86 2.25458 24.1185 2.80596 24.164 3.46417C24.2399 4.57458 23.7844 5.425 22.8799 6.0185C22.3484 6.3677 21.7753 6.63765 21.2006 6.95737C20.8836 7.13389 20.6126 7.28896 20.3028 7.6083C20.0303 7.92879 20.017 8.2309 20.017 8.2309L24.1344 8.22554V10.0753H17.7789C17.7789 10.0753 17.7789 9.94897 17.7789 9.89652C17.7546 8.98751 17.8598 8.13211 18.2724 7.30658C18.652 6.5492 19.2419 5.99476 19.9506 5.56782C20.4964 5.23891 21.0711 4.95901 21.6181 4.63163C21.9556 4.42984 22.1939 4.13386 22.192 3.70463C22.192 3.33628 21.9263 3.0089 21.5467 2.90666C20.6517 2.66314 19.7406 3.05178 19.2669 3.87808C19.1978 3.9987 19.1272 4.11854 19.0376 4.27324Z" fill="#FF492C"/>
<path d="M27.0024 17.9839L23.5325 11.9395H16.6661L13.1738 18.0463H20.0908L23.504 24.0621L27.0024 17.9839Z" fill="#FF492C"/>
</g>
<defs>
<clipPath id="clip0_3141_22212">
<rect width="27" height="28" fill="white"/>
</clipPath>
</defs>
</svg>
