<svg width="20" height="20" viewBox="0 0 20 20" fill="none" xmlns="http://www.w3.org/2000/svg">
<g clip-path="url(#clip0_2132_8530)">
<path fill-rule="evenodd" clip-rule="evenodd" d="M0.833313 9.99992C0.833313 4.93742 4.93748 0.833252 9.99998 0.833252C15.0625 0.833252 19.1666 4.93742 19.1666 9.99992C19.1666 15.0624 15.0625 19.1666 9.99998 19.1666C4.93748 19.1666 0.833313 15.0624 0.833313 9.99992ZM9.99998 17.4999C9.01507 17.4999 8.03979 17.3059 7.12985 16.929C6.21991 16.5521 5.39312 15.9997 4.69668 15.3032C4.00024 14.6068 3.44779 13.78 3.07088 12.87C2.69397 11.9601 2.49998 10.9848 2.49998 9.99992C2.49998 9.015 2.69397 8.03973 3.07088 7.12979C3.44779 6.21985 4.00024 5.39306 4.69668 4.69662C5.39312 4.00018 6.21991 3.44773 7.12985 3.07082C8.03979 2.69391 9.01507 2.49992 9.99998 2.49992C11.9891 2.49992 13.8968 3.29009 15.3033 4.69662C16.7098 6.10314 17.5 8.01079 17.5 9.99992C17.5 11.989 16.7098 13.8967 15.3033 15.3032C13.8968 16.7097 11.9891 17.4999 9.99998 17.4999Z" fill="white"/>
<path d="M8.53583 13.595L5 10.0583L6.17833 8.87996L8.53583 11.2366L13.2492 6.52246L14.4283 7.70163L8.53583 13.595Z" fill="white"/>
</g>
<defs>
<clipPath id="clip0_2132_8530">
<rect width="20" height="20" fill="white"/>
</clipPath>
</defs>
</svg>
