<svg width="16" height="16" viewBox="0 0 16 16" fill="none" xmlns="http://www.w3.org/2000/svg">
<path d="M3.49176 8.90875L14.7535 9.02817C15.007 9.03051 15.2217 8.94525 15.3977 8.77241C15.5734 8.59999 15.6623 8.38706 15.6647 8.13362C15.667 7.88019 15.5818 7.66545 15.4089 7.4894C15.2365 7.31378 15.0236 7.2248 14.7701 7.22247L3.50807 7.13472L8.36758 2.36379C8.54875 2.18593 8.64066 1.97556 8.64332 1.73269C8.64513 1.48981 8.5571 1.27779 8.37924 1.09663C8.20138 0.915462 7.99101 0.823551 7.74814 0.820894C7.50526 0.819083 7.29324 0.907109 7.11208 1.08497L0.717985 7.36251C0.53682 7.54037 0.445121 7.75053 0.442891 7.99298C0.440653 8.23628 0.528466 8.44851 0.70633 8.62967L6.98387 15.0238C7.16173 15.2049 7.3721 15.2964 7.61498 15.2982C7.85785 15.3009 8.06986 15.2133 8.25103 15.0354C8.43219 14.8576 8.52368 14.6472 8.5255 14.4043C8.52815 14.1614 8.44055 13.9494 8.26268 13.7683L3.49176 8.90875Z" fill="#05164D" fill-opacity="0.7"/>
</svg>
