<svg width="86" height="48" viewBox="0 0 86 48" fill="none" xmlns="http://www.w3.org/2000/svg">
<path d="M4.69043 0.641602H80.3662C82.6022 0.641602 84.415 2.4544 84.415 4.69043V42.7949C84.415 45.0309 82.6022 46.8438 80.3662 46.8438H4.69043C2.45445 46.8437 0.641678 45.0309 0.641602 42.7949V4.69043C0.641646 2.45443 2.45443 0.641649 4.69043 0.641602Z" fill="white" stroke="#EBEBEB" stroke-width="1.28353"/>
<path d="M69.4584 23.7959H68.6265V25.2402H67.6575V23.7959H64.851V23.028L67.6484 18.6857H68.6265V22.9731H69.4584V23.7959ZM67.6575 21.1996C67.6575 21.0534 67.6575 20.9132 67.6575 20.7791C67.6636 20.645 67.6697 20.5171 67.6758 20.3952C67.6819 20.2672 67.6849 20.1514 67.6849 20.0478C67.691 19.9381 67.6971 19.8406 67.7032 19.7552H67.6667C67.6179 19.8771 67.56 20.0021 67.493 20.1301C67.432 20.258 67.3711 20.3708 67.3101 20.4683L65.7743 22.9731H67.6575V21.1996ZM70.172 24.7009C70.172 24.4632 70.2299 24.2956 70.3457 24.1981C70.4676 24.1006 70.6169 24.0518 70.7937 24.0518C70.9643 24.0518 71.1106 24.1006 71.2325 24.1981C71.3605 24.2956 71.4244 24.4632 71.4244 24.7009C71.4244 24.9386 71.3605 25.1092 71.2325 25.2128C71.1106 25.3164 70.9643 25.3682 70.7937 25.3682C70.6169 25.3682 70.4676 25.3164 70.3457 25.2128C70.2299 25.1092 70.172 24.9386 70.172 24.7009ZM74.4484 18.6217C74.8141 18.6217 75.1371 18.6826 75.4174 18.8045C75.7039 18.9203 75.9263 19.094 76.0848 19.3256C76.2493 19.5572 76.3316 19.8467 76.3316 20.194C76.3316 20.4561 76.2798 20.6846 76.1762 20.8797C76.0787 21.0747 75.9415 21.2484 75.7648 21.4007C75.5942 21.547 75.4052 21.675 75.198 21.7847C75.4357 21.9127 75.6551 22.0589 75.8562 22.2235C76.0573 22.3819 76.2188 22.5678 76.3407 22.7811C76.4687 22.9944 76.5327 23.2504 76.5327 23.549C76.5327 23.9147 76.4474 24.2316 76.2767 24.4998C76.1122 24.7618 75.8745 24.966 75.5637 25.1123C75.2529 25.2585 74.8842 25.3317 74.4575 25.3317C74.0005 25.3317 73.6135 25.2616 73.2966 25.1214C72.9857 24.9812 72.7511 24.7832 72.5926 24.5272C72.4342 24.2651 72.355 23.9482 72.355 23.5765C72.355 23.2778 72.4098 23.0188 72.5195 22.7994C72.6353 22.58 72.7846 22.3911 72.9675 22.2326C73.1564 22.0742 73.3636 21.9401 73.5891 21.8304C73.3941 21.7085 73.2173 21.5714 73.0589 21.419C72.9004 21.2606 72.7755 21.0808 72.6841 20.8797C72.5987 20.6786 72.5561 20.447 72.5561 20.1849C72.5561 19.8436 72.6384 19.5602 72.8029 19.3347C72.9675 19.1031 73.1929 18.9264 73.4794 18.8045C73.7658 18.6826 74.0888 18.6217 74.4484 18.6217ZM73.3057 23.5582C73.3057 23.8568 73.4002 24.1036 73.5891 24.2986C73.778 24.4876 74.0614 24.582 74.4393 24.582C74.6952 24.582 74.9055 24.5394 75.07 24.4541C75.2346 24.3626 75.3595 24.2407 75.4448 24.0884C75.5363 23.9299 75.582 23.7501 75.582 23.549C75.582 23.3479 75.5332 23.1712 75.4357 23.0188C75.3382 22.8665 75.2041 22.7324 75.0335 22.6166C74.8689 22.4947 74.68 22.385 74.4667 22.2875L74.3478 22.2326C74.1284 22.3362 73.9395 22.452 73.7811 22.58C73.6287 22.708 73.5099 22.8512 73.4245 23.0097C73.3453 23.1681 73.3057 23.351 73.3057 23.5582ZM74.4301 19.3804C74.162 19.3804 73.9395 19.4536 73.7628 19.5998C73.5921 19.7461 73.5068 19.9594 73.5068 20.2398C73.5068 20.4409 73.5495 20.6115 73.6348 20.7517C73.7262 20.8919 73.842 21.0137 73.9822 21.1174C74.1284 21.2149 74.2869 21.3093 74.4575 21.4007C74.6282 21.3154 74.7805 21.224 74.9146 21.1265C75.0548 21.0229 75.1645 20.901 75.2437 20.7608C75.329 20.6146 75.3717 20.4409 75.3717 20.2398C75.3717 19.9594 75.2833 19.7461 75.1066 19.5998C74.936 19.4536 74.7105 19.3804 74.4301 19.3804Z" fill="#6D737D"/>
<path d="M11.5373 6.77295C11.9449 6.77295 12.2815 6.82746 12.5469 6.93648C12.8124 7.04551 13.0091 7.20904 13.1371 7.42709C13.2698 7.64039 13.3362 7.91058 13.3362 8.23764C13.3362 8.49835 13.2911 8.71877 13.2011 8.89889C13.1157 9.07427 13.002 9.21885 12.8598 9.33261C12.7223 9.44163 12.573 9.52932 12.4118 9.59569L13.7557 11.8496H12.8598L11.7293 9.79477H10.9543V11.8496H10.165V6.77295H11.5373ZM11.5017 7.42709H10.9543V9.15486H11.516C11.7482 9.15486 11.9378 9.12168 12.0848 9.05531C12.2365 8.98895 12.3478 8.88941 12.4189 8.75669C12.4948 8.62396 12.5327 8.46043 12.5327 8.26609C12.5327 8.06226 12.4948 7.9011 12.4189 7.78259C12.3478 7.65935 12.2341 7.56929 12.0777 7.51241C11.926 7.45553 11.734 7.42709 11.5017 7.42709ZM15.8006 7.94613C16.2509 7.94613 16.5898 8.05278 16.8174 8.26609C17.0496 8.47465 17.1658 8.80409 17.1658 9.2544V11.8496H16.6183L16.469 11.3163H16.4405C16.3315 11.4538 16.2225 11.5676 16.1135 11.6576C16.0092 11.7477 15.8859 11.8141 15.7437 11.8567C15.6063 11.8994 15.4356 11.9207 15.2318 11.9207C15.0185 11.9207 14.8265 11.8804 14.6559 11.7998C14.4852 11.7145 14.3501 11.5865 14.2506 11.4159C14.1511 11.2405 14.1013 11.0225 14.1013 10.7618C14.1013 10.3731 14.2387 10.0768 14.5137 9.87298C14.7933 9.66916 15.2176 9.55777 15.7864 9.5388L16.3979 9.51747V9.30417C16.3979 9.01976 16.3386 8.82068 16.2201 8.70692C16.1063 8.59315 15.9452 8.53627 15.7366 8.53627C15.5612 8.53627 15.3882 8.56471 15.2176 8.62159C15.0469 8.67847 14.881 8.74721 14.7199 8.82779L14.4852 8.28031C14.6606 8.1855 14.8597 8.10729 15.0825 8.04567C15.31 7.97931 15.5494 7.94613 15.8006 7.94613ZM15.9357 10.0223C15.547 10.0413 15.2768 10.1147 15.1251 10.2427C14.9735 10.366 14.8976 10.5413 14.8976 10.7689C14.8976 10.9679 14.9498 11.1125 15.054 11.2026C15.1631 11.2926 15.3029 11.3377 15.4735 11.3377C15.7342 11.3377 15.9523 11.2547 16.1277 11.0888C16.3078 10.9229 16.3979 10.6741 16.3979 10.3423V10.0081L15.9357 10.0223ZM19.5827 11.3092C19.6822 11.3092 19.7794 11.2998 19.8742 11.2808C19.969 11.2618 20.0519 11.2405 20.123 11.2168V11.7856C20.0425 11.8235 19.9358 11.8543 19.8031 11.8781C19.6751 11.9065 19.54 11.9207 19.3978 11.9207C19.1987 11.9207 19.0162 11.8852 18.8503 11.8141C18.6844 11.743 18.5517 11.6197 18.4521 11.4443C18.3526 11.2689 18.3028 11.0248 18.3028 10.712V8.59315H17.8122V8.25186L18.3384 7.96746L18.6015 7.1569H19.0778V8.01723H20.0946V8.59315H19.0778V10.6978C19.0778 10.9063 19.1252 11.0604 19.22 11.1599C19.3148 11.2595 19.4357 11.3092 19.5827 11.3092ZM22.2859 7.94613C22.6034 7.94613 22.8784 8.01723 23.1106 8.15943C23.3429 8.2969 23.5207 8.49598 23.6439 8.75669C23.7719 9.01739 23.8359 9.3255 23.8359 9.68101V10.0934H21.4255C21.435 10.4868 21.5298 10.7878 21.7099 10.9964C21.8901 11.205 22.1437 11.3092 22.4707 11.3092C22.703 11.3092 22.9092 11.2879 23.0893 11.2452C23.2742 11.1978 23.4614 11.1291 23.651 11.0391V11.6647C23.4709 11.7501 23.286 11.8141 23.0964 11.8567C22.9116 11.8994 22.6864 11.9207 22.421 11.9207C22.0749 11.9207 21.7668 11.8472 21.4966 11.7003C21.2264 11.5534 21.0155 11.3353 20.8638 11.0462C20.7121 10.7523 20.6363 10.392 20.6363 9.96542C20.6363 9.53406 20.705 9.16908 20.8425 8.87045C20.98 8.57182 21.1719 8.3443 21.4184 8.18787C21.6696 8.02671 21.9588 7.94613 22.2859 7.94613ZM22.2859 8.52916C22.0441 8.52916 21.8498 8.61685 21.7028 8.79224C21.5559 8.96762 21.4706 9.21648 21.4469 9.5388H23.0751C23.0751 9.33972 23.0466 9.16434 22.9898 9.01265C22.9329 8.86097 22.8452 8.74247 22.7267 8.65714C22.6129 8.57182 22.466 8.52916 22.2859 8.52916ZM29.6528 9.92986C29.6528 10.2475 29.6125 10.5295 29.5319 10.776C29.4513 11.0225 29.3352 11.231 29.1835 11.4017C29.0366 11.5723 28.8564 11.7027 28.6431 11.7927C28.4298 11.8781 28.1904 11.9207 27.925 11.9207C27.6833 11.9207 27.4581 11.8781 27.2495 11.7927C27.041 11.7027 26.8608 11.5723 26.7092 11.4017C26.5575 11.231 26.439 11.0225 26.3537 10.776C26.2731 10.5295 26.2328 10.2451 26.2328 9.92275C26.2328 9.50088 26.3015 9.14301 26.439 8.84912C26.5764 8.55523 26.7732 8.33245 27.0291 8.18076C27.2898 8.02434 27.5979 7.94613 27.9534 7.94613C28.2853 7.94613 28.5791 8.02434 28.8351 8.18076C29.0911 8.33245 29.2902 8.55523 29.4324 8.84912C29.5793 9.14301 29.6528 9.50325 29.6528 9.92986ZM27.0291 9.92986C27.0291 10.2143 27.0599 10.4608 27.1216 10.6693C27.1879 10.8731 27.2875 11.0296 27.4202 11.1386C27.5576 11.2476 27.7307 11.3021 27.9392 11.3021C28.1525 11.3021 28.3255 11.2476 28.4583 11.1386C28.5957 11.0296 28.6953 10.8731 28.7569 10.6693C28.8233 10.4608 28.8564 10.2143 28.8564 9.92986C28.8564 9.63598 28.8233 9.38949 28.7569 9.19041C28.6905 8.99132 28.591 8.83964 28.4583 8.73536C28.3255 8.62633 28.1502 8.57182 27.9321 8.57182C27.6145 8.57182 27.3846 8.69033 27.2424 8.92733C27.1002 9.16434 27.0291 9.49851 27.0291 9.92986ZM32.4056 7.94613C32.8228 7.94613 33.1427 8.05752 33.3655 8.28031C33.593 8.50309 33.7068 8.86097 33.7068 9.35394V11.8496H32.9389V9.46059C32.9389 9.16197 32.8796 8.93918 32.7611 8.79224C32.6474 8.64055 32.4696 8.56471 32.2279 8.56471C31.8724 8.56471 31.6282 8.68084 31.4955 8.91311C31.3628 9.14538 31.2964 9.47955 31.2964 9.91564V11.8496H30.5285V8.01723H31.1329L31.2396 8.52916H31.2822C31.3628 8.39644 31.46 8.28742 31.5737 8.20209C31.6875 8.11677 31.8155 8.05278 31.9577 8.01012C32.0999 7.96746 32.2492 7.94613 32.4056 7.94613Z" fill="#6D737D"/>
<path d="M23.6782 14.5859H26.0243V28.8973H23.6782V14.5859Z" fill="#1C2024"/>
<path d="M34.185 24.3646C34.185 26.5818 32.349 26.7834 31.7369 26.7834C30.3089 26.7834 30.1049 25.4732 30.1049 24.7677V19.2246H27.7588V24.6669C27.7588 25.9771 28.1668 27.1865 28.9828 27.892C29.6969 28.5975 30.6149 28.8999 31.7369 28.8999C32.553 28.8999 33.573 28.6983 34.185 28.0936V28.8999H36.5311V19.2246H34.185V24.3646Z" fill="#1C2024"/>
<path d="M41.1207 15.6953H38.7746V19.2227H37.0405V21.44H38.7746V28.898H41.1207V21.44H42.8547V19.2227H41.1207V15.6953Z" fill="#1C2024"/>
<path d="M50.1997 25.9707C49.6897 26.3738 48.9756 26.6762 48.2616 26.6762C46.6296 26.6762 45.5075 25.4668 45.5075 23.8542C45.5075 22.2417 46.6296 21.1331 48.2616 21.1331C48.9756 21.1331 49.6897 21.3346 50.1997 21.8385L50.5057 22.1409L52.1377 20.6291L51.7297 20.3268C50.8117 19.5205 49.5877 19.0166 48.2616 19.0166C45.4055 19.0166 43.2634 21.1331 43.2634 23.955C43.2634 26.777 45.4055 28.8934 48.2616 28.8934C49.5877 28.8934 50.8117 28.3895 51.7297 27.5832L52.1377 27.2809L50.5057 25.6683L50.1997 25.9707Z" fill="#1C2024"/>
<path d="M60.4008 20.0283C59.6867 19.3228 58.9727 19.0204 57.8507 19.0204C57.0346 19.0204 56.2186 19.222 55.6066 19.8267V14.5859H53.2605V28.8973H55.6066V23.5557C55.6066 21.3385 57.1366 21.1369 57.7487 21.1369C59.1767 21.1369 59.0747 22.4471 59.0747 23.1526V28.7965H61.4208V23.2534C61.4208 21.9432 61.1148 20.7338 60.4008 20.0283Z" fill="#1C2024"/>
<path d="M48.1594 25.5659C49.0608 25.5659 49.7915 24.8439 49.7915 23.9534C49.7915 23.0628 49.0608 22.3408 48.1594 22.3408C47.258 22.3408 46.5273 23.0628 46.5273 23.9534C46.5273 24.8439 47.258 25.5659 48.1594 25.5659Z" fill="#EF4335"/>
<path d="M20.4141 25.3703C19.5981 26.1766 18.374 26.6805 17.048 26.6805C14.4979 26.6805 12.6618 24.6648 12.6618 21.9436C12.6618 19.2225 14.4979 17.2068 17.15 17.2068C18.374 17.2068 19.5981 17.7107 20.5161 18.6178L20.8221 18.9201L22.3522 17.4084L22.0461 17.106C20.7201 15.7958 18.986 15.0903 17.15 15.0903C13.2738 14.9896 10.4177 18.0131 10.4177 21.9436C10.4177 25.8742 13.2738 28.8977 17.048 28.8977C18.884 28.8977 20.7201 28.1922 21.9441 26.8821L22.2502 26.5797L20.7201 25.0679L20.4141 25.3703Z" fill="#1C2024"/>
<path d="M27.5258 34.7153L26.5845 36.6079C26.5366 36.7043 26.4658 36.7876 26.3783 36.8507C26.2907 36.9138 26.189 36.9549 26.0819 36.9704L23.978 37.2739C23.8794 37.2881 23.7867 37.3294 23.7105 37.3931C23.6343 37.4569 23.5776 37.5405 23.5469 37.6345C23.5161 37.7286 23.5124 37.8293 23.5364 37.9253C23.5603 38.0213 23.6108 38.1088 23.6822 38.1777L25.2053 39.6511C25.2826 39.726 25.3405 39.8184 25.3739 39.9204C25.4073 40.0223 25.4153 40.1308 25.3971 40.2365L25.0376 42.3171C25.0209 42.4145 25.0319 42.5146 25.0696 42.606C25.1072 42.6975 25.1698 42.7767 25.2504 42.8347C25.331 42.8927 25.4263 42.9272 25.5256 42.9342C25.6249 42.9413 25.7242 42.9206 25.8123 42.8746L27.6943 41.8925C27.7901 41.8425 27.8966 41.8164 28.0048 41.8164C28.113 41.8164 28.2196 41.8425 28.3154 41.8925L30.1974 42.8746C30.2855 42.9206 30.3848 42.9413 30.4841 42.9342C30.5833 42.9272 30.6787 42.8927 30.7593 42.8347C30.8398 42.7767 30.9025 42.6975 30.9401 42.606C30.9777 42.5146 30.9888 42.4145 30.9721 42.3171L30.6125 40.2365C30.5944 40.1308 30.6023 40.0223 30.6357 39.9203C30.6692 39.8184 30.727 39.726 30.8044 39.6511L32.3274 38.1777C32.3988 38.1088 32.4494 38.0213 32.4733 37.9253C32.4972 37.8293 32.4936 37.7286 32.4628 37.6345C32.432 37.5405 32.3753 37.4569 32.2991 37.3931C32.2229 37.3294 32.1303 37.2881 32.0316 37.2739L29.9269 36.9704C29.8198 36.9549 29.7181 36.9138 29.6305 36.8507C29.543 36.7876 29.4722 36.7043 29.4243 36.6079L28.4831 34.7153C28.439 34.6266 28.3708 34.552 28.2862 34.4998C28.2016 34.4476 28.104 34.4199 28.0044 34.4199C27.9048 34.4199 27.8072 34.4476 27.7226 34.4998C27.638 34.552 27.5698 34.6266 27.5258 34.7153Z" fill="#FFAF00"/>
<path d="M40.6086 34.7145L39.6673 36.6071C39.6195 36.7034 39.5487 36.7867 39.4611 36.8499C39.3736 36.913 39.2719 36.9541 39.1648 36.9695L37.06 37.2731C36.9614 37.2873 36.8688 37.3285 36.7926 37.3923C36.7164 37.456 36.6597 37.5396 36.6289 37.6337C36.5981 37.7277 36.5945 37.8285 36.6184 37.9245C36.6423 38.0205 36.6928 38.1079 36.7643 38.1769L38.2873 39.6503C38.3646 39.7251 38.4225 39.8175 38.4559 39.9195C38.4893 40.0215 38.4973 40.13 38.4791 40.2357L38.1196 42.3162C38.1029 42.4136 38.114 42.5137 38.1516 42.6052C38.1892 42.6967 38.2518 42.7759 38.3324 42.8339C38.413 42.8919 38.5083 42.9263 38.6076 42.9334C38.7069 42.9404 38.8062 42.9198 38.8943 42.8738L40.7763 41.8916C40.8721 41.8417 40.9787 41.8156 41.0869 41.8156C41.1951 41.8156 41.3016 41.8417 41.3974 41.8916L43.2794 42.8738C43.3675 42.9198 43.4668 42.9404 43.5661 42.9334C43.6654 42.9263 43.7607 42.8919 43.8413 42.8339C43.9219 42.7759 43.9845 42.6967 44.0221 42.6052C44.0597 42.5137 44.0708 42.4136 44.0541 42.3162L43.6946 40.2357C43.6764 40.13 43.6844 40.0215 43.7178 39.9195C43.7512 39.8175 43.8091 39.7251 43.8864 39.6503L45.4095 38.1769C45.4809 38.1079 45.5314 38.0205 45.5553 37.9245C45.5792 37.8285 45.5756 37.7277 45.5448 37.6337C45.514 37.5396 45.4573 37.456 45.3811 37.3923C45.3049 37.3285 45.2123 37.2873 45.1137 37.2731L43.0089 36.9695C42.9018 36.9541 42.8001 36.913 42.7126 36.8499C42.625 36.7867 42.5543 36.7034 42.5064 36.6071L41.5651 34.7145C41.5209 34.626 41.4528 34.5516 41.3683 34.4995C41.2838 34.4475 41.1863 34.4199 41.0869 34.4199C40.9874 34.4199 40.8899 34.4475 40.8054 34.4995C40.7209 34.5516 40.6528 34.626 40.6086 34.7145Z" fill="#FFAF00"/>
<path d="M53.696 34.7153L52.7547 36.6079C52.7068 36.7043 52.6361 36.7876 52.5485 36.8507C52.461 36.9138 52.3593 36.9549 52.2522 36.9704L50.1477 37.2739C50.0491 37.2881 49.9564 37.3294 49.8802 37.3931C49.804 37.4569 49.7473 37.5405 49.7165 37.6345C49.6858 37.7286 49.6821 37.8293 49.706 37.9253C49.73 38.0213 49.7805 38.1088 49.8519 38.1777L51.3749 39.6511C51.4523 39.726 51.5101 39.8184 51.5436 39.9204C51.577 40.0223 51.5849 40.1308 51.5668 40.2365L51.2072 42.3171C51.1905 42.4145 51.2016 42.5146 51.2392 42.606C51.2768 42.6975 51.3395 42.7767 51.4201 42.8347C51.5007 42.8927 51.596 42.9272 51.6953 42.9342C51.7946 42.9413 51.8939 42.9206 51.982 42.8746L53.864 41.8925C53.9597 41.8425 54.0663 41.8164 54.1745 41.8164C54.2827 41.8164 54.3893 41.8425 54.485 41.8925L56.3671 42.8746C56.4551 42.9206 56.5544 42.9413 56.6537 42.9342C56.753 42.9272 56.8484 42.8927 56.9289 42.8347C57.0095 42.7767 57.0722 42.6975 57.1098 42.606C57.1474 42.5146 57.1585 42.4145 57.1418 42.3171L56.7822 40.2365C56.764 40.1308 56.772 40.0223 56.8054 39.9203C56.8388 39.8184 56.8967 39.726 56.9741 39.6511L58.4971 38.1777C58.5685 38.1088 58.619 38.0213 58.643 37.9253C58.6669 37.8293 58.6633 37.7286 58.6325 37.6345C58.6017 37.5405 58.545 37.4569 58.4688 37.3931C58.3926 37.3294 58.2999 37.2881 58.2013 37.2739L56.0966 36.9704C55.9895 36.9549 55.8878 36.9138 55.8002 36.8507C55.7127 36.7876 55.6419 36.7043 55.594 36.6079L54.6533 34.7153C54.6092 34.6266 54.541 34.552 54.4565 34.4998C54.3719 34.4476 54.2743 34.4199 54.1746 34.4199C54.075 34.4199 53.9774 34.4476 53.8928 34.4998C53.8082 34.552 53.7401 34.6266 53.696 34.7153Z" fill="#FFAF00"/>
<path d="M67.7366 34.7085L68.6779 36.6011C68.7258 36.6975 68.7966 36.7808 68.8841 36.8439C68.9716 36.907 69.0733 36.9481 69.1804 36.9636L71.2849 37.2671C71.3836 37.2813 71.4762 37.3226 71.5524 37.3863C71.6286 37.4501 71.6853 37.5337 71.7161 37.6277C71.7469 37.7218 71.7505 37.8225 71.7266 37.9185C71.7027 38.0145 71.6521 38.102 71.5807 38.1709L70.0577 39.6443C69.9803 39.7192 69.9225 39.8116 69.8891 39.9136C69.8556 40.0155 69.8477 40.124 69.8658 40.2297L70.2254 42.3103C70.2421 42.4077 70.231 42.5078 70.1934 42.5992C70.1558 42.6907 70.0931 42.7699 70.0125 42.8279C69.932 42.8859 69.8366 42.9204 69.7373 42.9274C69.6381 42.9345 69.5388 42.9139 69.4507 42.8678L67.5686 41.8857C67.4729 41.8357 67.3663 41.8096 67.2581 41.8096C67.1499 41.8096 67.0434 41.8357 66.9476 41.8857L65.0656 42.8678C64.9775 42.9139 64.8782 42.9345 64.7789 42.9274C64.6796 42.9204 64.5843 42.8859 64.5037 42.8279C64.4231 42.7699 64.3605 42.6907 64.3228 42.5992C64.2852 42.5078 64.2742 42.4077 64.2908 42.3103L64.6504 40.2297C64.6686 40.124 64.6606 40.0155 64.6272 39.9135C64.5938 39.8116 64.5359 39.7192 64.4585 39.6443L62.9355 38.1709C62.8641 38.102 62.8136 38.0145 62.7896 37.9185C62.7657 37.8225 62.7694 37.7218 62.8001 37.6277C62.8309 37.5337 62.8876 37.4501 62.9638 37.3863C63.04 37.3226 63.1327 37.2813 63.2313 37.2671L65.3361 36.9636C65.4432 36.9481 65.5449 36.907 65.6324 36.8439C65.7199 36.7808 65.7907 36.6975 65.8386 36.6011L66.7774 34.7085C66.8212 34.6193 66.8894 34.5442 66.9742 34.4916C67.059 34.439 67.157 34.4111 67.257 34.4111C67.357 34.4111 67.455 34.439 67.5398 34.4916C67.6246 34.5442 67.6928 34.6193 67.7366 34.7085Z" fill="#FFAF00"/>
<path d="M69.4507 42.8713L68.1689 42.2022V35.5801L68.6776 36.6032C68.7255 36.6995 68.7963 36.7828 68.8838 36.846C68.9714 36.9091 69.0731 36.9502 69.1802 36.9656L71.2849 37.2692C71.3836 37.2834 71.4762 37.3247 71.5524 37.3884C71.6286 37.4521 71.6853 37.5357 71.7161 37.6298C71.7469 37.7239 71.7505 37.8246 71.7266 37.9206C71.7027 38.0166 71.6521 38.104 71.5807 38.173L70.0577 39.6464C69.9803 39.7212 69.9225 39.8136 69.8891 39.9156C69.8556 40.0176 69.8477 40.1261 69.8658 40.2318L70.2254 42.3123C70.2424 42.4098 70.2315 42.5101 70.1941 42.6018C70.1566 42.6935 70.094 42.773 70.0133 42.8311C69.9327 42.8893 69.8372 42.9239 69.7378 42.931C69.6383 42.9381 69.5389 42.9174 69.4507 42.8713Z" fill="#FDE3AC"/>
<path d="M14.4414 34.7068L13.5001 36.5997C13.4522 36.696 13.3815 36.7793 13.2939 36.8425C13.2064 36.9056 13.1047 36.9467 12.9976 36.9621L10.8928 37.2657C10.7942 37.2799 10.7015 37.3212 10.6253 37.3849C10.5491 37.4486 10.4924 37.5323 10.4616 37.6263C10.4309 37.7204 10.4272 37.8211 10.4512 37.9171C10.4751 38.0131 10.5256 38.1005 10.597 38.1695L12.1201 39.6429C12.1974 39.7178 12.2553 39.8102 12.2887 39.9121C12.3221 40.0141 12.3301 40.1226 12.3119 40.2283L11.9524 42.3089C11.9357 42.4062 11.9467 42.5063 11.9844 42.5978C12.022 42.6893 12.0846 42.7685 12.1652 42.8265C12.2458 42.8845 12.3411 42.919 12.4404 42.926C12.5397 42.9331 12.639 42.9124 12.7271 42.8664L14.6091 41.8843C14.7049 41.8343 14.8114 41.8082 14.9196 41.8082C15.0278 41.8082 15.1344 41.8343 15.2302 41.8843L17.1122 42.8664C17.2003 42.9124 17.2996 42.9331 17.3989 42.926C17.4981 42.919 17.5935 42.8845 17.6741 42.8265C17.7546 42.7685 17.8173 42.6893 17.8549 42.5978C17.8925 42.5063 17.9036 42.4062 17.8869 42.3089L17.5273 40.2283C17.5092 40.1226 17.5171 40.0141 17.5505 39.9121C17.584 39.8101 17.6418 39.7177 17.7192 39.6429L19.2422 38.1695C19.3136 38.1005 19.3642 38.0131 19.3881 37.9171C19.412 37.8211 19.4084 37.7204 19.3776 37.6263C19.3468 37.5323 19.2901 37.4486 19.2139 37.3849C19.1377 37.3212 19.0451 37.2799 18.9464 37.2657L16.8428 36.9618C16.7357 36.9464 16.634 36.9053 16.5465 36.8422C16.4589 36.7791 16.3881 36.6957 16.3403 36.5994L15.399 34.7068C15.3549 34.6181 15.2868 34.5433 15.2021 34.4911C15.1175 34.4388 15.0198 34.4111 14.9202 34.4111C14.8205 34.4111 14.7228 34.4388 14.6382 34.4911C14.5536 34.5433 14.4854 34.6181 14.4414 34.7068Z" fill="#E2E2E2"/>
<path d="M15.38 34.7105L16.3213 36.6032C16.3692 36.6995 16.44 36.7828 16.5275 36.846C16.6151 36.9091 16.7168 36.9502 16.8238 36.9656L18.9286 37.2692C19.0272 37.2834 19.1199 37.3246 19.1961 37.3884C19.2723 37.4521 19.329 37.5357 19.3598 37.6298C19.3905 37.7238 19.3942 37.8246 19.3703 37.9206C19.3463 38.0166 19.2958 38.104 19.2244 38.173L17.7014 39.6463C17.624 39.7212 17.5662 39.8136 17.5328 39.9156C17.4993 40.0176 17.4914 40.1261 17.5095 40.2318L17.8691 42.3123C17.8858 42.4097 17.8747 42.5098 17.8371 42.6013C17.7995 42.6928 17.7368 42.772 17.6562 42.83C17.5757 42.888 17.4803 42.9224 17.381 42.9295C17.2817 42.9365 17.1824 42.9159 17.0943 42.8699L15.2123 41.8877C15.1166 41.8378 15.01 41.8117 14.9018 41.8117C14.7936 41.8117 14.687 41.8378 14.5913 41.8877L12.7092 42.8699C12.6212 42.9159 12.5219 42.9365 12.4226 42.9295C12.3233 42.9224 12.228 42.888 12.1474 42.83C12.0668 42.772 12.0041 42.6928 11.9665 42.6013C11.9289 42.5098 11.9178 42.4097 11.9345 42.3123L12.2941 40.2318C12.3123 40.1261 12.3043 40.0176 12.2709 39.9156C12.2375 39.8136 12.1796 39.7212 12.1022 39.6463L10.5792 38.173C10.5078 38.104 10.4573 38.0166 10.4333 37.9206C10.4094 37.8246 10.413 37.7238 10.4438 37.6298C10.4746 37.5357 10.5313 37.4521 10.6075 37.3884C10.6837 37.3246 10.7764 37.2834 10.875 37.2692L12.9798 36.9656C13.0868 36.9502 13.1885 36.9091 13.2761 36.846C13.3636 36.7828 13.4344 36.6995 13.4823 36.6032L14.4236 34.7105C14.4677 34.6221 14.5359 34.5477 14.6204 34.4956C14.7049 34.4436 14.8024 34.416 14.9018 34.416C15.0012 34.416 15.0987 34.4436 15.1832 34.4956C15.2677 34.5477 15.3359 34.6221 15.38 34.7105Z" fill="#FFAF00"/>
</svg>
