<svg width="17" height="17" viewBox="0 0 17 17" fill="none" xmlns="http://www.w3.org/2000/svg">
<path fill-rule="evenodd" clip-rule="evenodd" d="M8.70783 0.010168C10.754 0.110733 12.6607 0.954538 14.1171 2.41182C15.6705 3.96619 16.5255 6.03236 16.5246 8.22964C16.5228 12.7639 12.8315 16.4532 8.29694 16.4532C6.59171 16.4532 5.23664 15.9293 4.36167 15.4523L0 16.5959L1.16728 12.3344C0.447266 11.0872 0.0683953 9.67257 0.068989 8.22312C0.0708097 3.68894 3.76178 0 8.29682 0L8.70783 0.010168ZM4.56373 13.9635L4.81349 14.1116C5.86346 14.7344 7.067 15.0639 8.29413 15.0644H8.2969C12.0662 15.0644 15.1339 11.9981 15.1354 8.22917C15.1361 6.40282 14.4255 4.6855 13.1344 3.39354C11.8432 2.1015 10.1262 1.38956 8.29963 1.38896C4.52748 1.38896 1.45967 4.45497 1.45817 8.22359C1.45765 9.51515 1.81918 10.773 2.50374 11.8612L2.66634 12.1198L1.97549 14.6421L4.56373 13.9635ZM12.442 10.1852C12.3906 10.0994 12.2536 10.048 12.048 9.94518C11.8424 9.84232 10.8317 9.34523 10.6432 9.2766C10.4548 9.20811 10.3177 9.17385 10.1807 9.37949C10.0436 9.58517 9.64966 10.048 9.52969 10.1852C9.4098 10.3223 9.28987 10.3395 9.08432 10.2366C8.87874 10.1338 8.21631 9.91678 7.43106 9.21674C6.81989 8.67186 6.4073 7.999 6.28737 7.79328C6.16748 7.5876 6.27458 7.47635 6.37749 7.37393C6.47 7.28183 6.58312 7.13391 6.68591 7.01392C6.7887 6.89397 6.82294 6.8082 6.89149 6.67112C6.96001 6.53396 6.92573 6.41401 6.87436 6.31115C6.82294 6.20825 6.41181 5.19683 6.2405 4.78539C6.07359 4.38475 5.9041 4.43899 5.77792 4.43266C5.65815 4.42672 5.52096 4.42542 5.38393 4.42542C5.24686 4.42542 5.02414 4.47681 4.83569 4.68257C4.64725 4.88825 4.11615 5.38542 4.11615 6.39676C4.11615 7.40823 4.85283 8.38524 4.95563 8.5224C5.05842 8.6596 6.40528 10.735 8.46757 11.6251C8.95806 11.8369 9.34101 11.9632 9.63957 12.058C10.1321 12.2143 10.5802 12.1923 10.9345 12.1394C11.3294 12.0804 12.1508 11.6423 12.3221 11.1624C12.4934 10.6823 12.4934 10.2709 12.442 10.1852Z" fill="white"/>
<mask id="mask0_2333_668" style="mask-type:alpha" maskUnits="userSpaceOnUse" x="1" y="1" width="15" height="15">
<path fill-rule="evenodd" clip-rule="evenodd" d="M4.56374 13.9632L4.8135 14.1113C5.86347 14.7341 7.06701 15.0636 8.29414 15.0641H8.29691C12.0662 15.0641 15.1339 11.9978 15.1354 8.22888C15.1362 6.40253 14.4255 4.68521 13.1344 3.39325C11.8432 2.10121 10.1262 1.38927 8.29964 1.38867C4.52749 1.38867 1.45968 4.45468 1.45818 8.2233C1.45766 9.51486 1.81919 10.7727 2.50375 11.8609L2.66635 12.1195L1.9755 14.6418L4.56374 13.9632ZM12.442 10.1849C12.3906 10.0991 12.2536 10.0478 12.048 9.94489C11.8424 9.84203 10.8317 9.34494 10.6432 9.2763C10.4548 9.20782 10.3177 9.17356 10.1807 9.3792C10.0437 9.58488 9.64967 10.0478 9.5297 10.1849C9.40981 10.322 9.28988 10.3392 9.08433 10.2363C8.87875 10.1335 8.21632 9.91649 7.43108 9.21645C6.8199 8.67157 6.40731 7.99871 6.28738 7.79299C6.16749 7.58731 6.27459 7.47606 6.3775 7.37364C6.47001 7.28154 6.58313 7.13362 6.68592 7.01363C6.78871 6.89368 6.82295 6.80791 6.89151 6.67083C6.96002 6.53367 6.92574 6.41372 6.87437 6.31086C6.82295 6.20796 6.41182 5.19654 6.24052 4.7851C6.0736 4.38446 5.90412 4.4387 5.77793 4.43237C5.65816 4.42643 5.52097 4.42513 5.38394 4.42513C5.24687 4.42513 5.02415 4.47652 4.8357 4.68228C4.64726 4.88796 4.11616 5.38513 4.11616 6.39647C4.11616 7.40794 4.85284 8.38495 4.95564 8.52211C5.05843 8.65931 6.40529 10.7347 8.46758 11.6248C8.95807 11.8366 9.34102 11.963 9.63958 12.0577C10.1321 12.2141 10.5802 12.192 10.9345 12.1391C11.3294 12.0801 12.1508 11.642 12.3221 11.1621C12.4934 10.682 12.4934 10.2706 12.442 10.1849Z" fill="black"/>
</mask>
<g mask="url(#mask0_2333_668)">
<path d="M19.5952 -2.10645H-3.52206V21.0108H19.5952V-2.10645Z" fill="url(#paint0_linear_2333_668)"/>
</g>
<defs>
<linearGradient id="paint0_linear_2333_668" x1="8.03659" y1="21.0108" x2="8.03659" y2="-2.10645" gradientUnits="userSpaceOnUse">
<stop stop-color="#25CF43"/>
<stop offset="1" stop-color="#61FD7D"/>
</linearGradient>
</defs>
</svg>
