<svg width="17" height="14" viewBox="0 0 17 14" fill="none" xmlns="http://www.w3.org/2000/svg">
<path d="M13.6265 1H3.37283C2.06436 1 1 2.09359 1 3.43784V10.5622C1 11.9065 2.06443 13 3.37283 13H13.6265C14.9349 13 15.9993 11.9064 15.9993 10.5622L16 3.43784C16 2.09352 14.9349 1 13.6265 1ZM15.0929 11.3635L10.3563 6.41595L15.2885 3.76889V10.5622C15.2885 10.8516 15.2174 11.1245 15.0929 11.3635ZM3.3728 1.73096H13.6264C14.387 1.73096 15.0288 2.25947 15.2252 2.97806L8.49921 6.58776L1.77469 2.97806C1.97106 2.25949 2.6122 1.73096 3.3728 1.73096ZM1.90708 11.3635C1.78256 11.1245 1.71141 10.8518 1.71141 10.5616V3.76904L6.6436 6.41666L1.90708 11.3635ZM3.3728 12.2692C2.99641 12.2692 2.65062 12.1383 2.3717 11.9212L7.30243 6.77064L8.49919 7.4132L9.69666 6.77064L14.6281 11.922C14.3492 12.1391 14.0027 12.2699 13.6263 12.2699L3.3728 12.2692Z" fill="#05164D" fill-opacity="0.8"/>
<path d="M8.45188 7.5013L8.49917 7.52669L8.54647 7.50132L9.67698 6.89469L14.4766 11.9083C14.2313 12.0732 13.9397 12.1699 13.6263 12.1699L3.3728 12.1692C3.05948 12.1692 2.76841 12.0725 2.52321 11.9076L7.32209 6.89471L8.45188 7.5013ZM13.6265 0.9H3.37283C2.0066 0.9 0.9 2.04093 0.9 3.43784V10.5622C0.9 11.9591 2.00668 13.1 3.37283 13.1H13.6265C14.9927 13.1 16.0993 11.9591 16.0993 10.5622L16.1 3.43785C16.1 2.04081 14.9926 0.9 13.6265 0.9ZM15.1885 10.5622C15.1885 10.7845 15.144 10.9963 15.0641 11.1889L10.5196 6.44184L15.1885 3.93605V10.5622ZM3.3728 1.83096H13.6264C14.3121 1.83096 14.8977 2.2897 15.106 2.92854L8.49921 6.47426L1.89388 2.92854C2.10214 2.28968 2.68719 1.83096 3.3728 1.83096ZM6.48037 6.44253L1.93581 11.1889C1.85591 10.9963 1.81141 10.7845 1.81141 10.5616V3.93621L6.48037 6.44253Z" stroke="#05164D" stroke-opacity="0.8" stroke-width="0.2"/>
</svg>
