<svg width="17" height="17" viewBox="0 0 17 17" fill="none" xmlns="http://www.w3.org/2000/svg">
<path fill-rule="evenodd" clip-rule="evenodd" d="M8.70783 0.010168C10.754 0.110733 12.6607 0.954538 14.1171 2.41182C15.6705 3.96619 16.5255 6.03236 16.5246 8.22964C16.5228 12.7639 12.8315 16.4532 8.29694 16.4532C6.59171 16.4532 5.23664 15.9293 4.36167 15.4523L0 16.5959L1.16728 12.3344C0.447266 11.0872 0.0683953 9.67257 0.068989 8.22312C0.0708097 3.68894 3.76178 0 8.29682 0L8.70783 0.010168ZM4.56373 13.9635L4.81349 14.1116C5.86346 14.7344 7.067 15.0639 8.29413 15.0644H8.2969C12.0662 15.0644 15.1339 11.9981 15.1354 8.22917C15.1361 6.40282 14.4255 4.6855 13.1344 3.39354C11.8432 2.1015 10.1262 1.38956 8.29963 1.38896C4.52748 1.38896 1.45967 4.45497 1.45817 8.22359C1.45765 9.51515 1.81918 10.773 2.50374 11.8612L2.66634 12.1198L1.97549 14.6421L4.56373 13.9635ZM12.442 10.1852C12.3906 10.0994 12.2536 10.048 12.048 9.94518C11.8424 9.84232 10.8317 9.34523 10.6432 9.2766C10.4548 9.20811 10.3177 9.17385 10.1807 9.37949C10.0436 9.58517 9.64966 10.048 9.52969 10.1852C9.4098 10.3223 9.28987 10.3395 9.08432 10.2366C8.87874 10.1338 8.21631 9.91678 7.43106 9.21674C6.81989 8.67186 6.4073 7.999 6.28737 7.79328C6.16748 7.5876 6.27458 7.47635 6.37749 7.37393C6.47 7.28183 6.58312 7.13391 6.68591 7.01392C6.7887 6.89397 6.82294 6.8082 6.89149 6.67112C6.96001 6.53396 6.92573 6.41401 6.87436 6.31115C6.82294 6.20825 6.41181 5.19683 6.2405 4.78539C6.07359 4.38475 5.9041 4.43899 5.77792 4.43266C5.65815 4.42672 5.52096 4.42542 5.38393 4.42542C5.24686 4.42542 5.02414 4.47681 4.83569 4.68257C4.64725 4.88825 4.11615 5.38542 4.11615 6.39676C4.11615 7.40823 4.85283 8.38524 4.95563 8.5224C5.05842 8.6596 6.40528 10.735 8.46757 11.6251C8.95806 11.8369 9.34101 11.9632 9.63957 12.058C10.1321 12.2143 10.5802 12.1923 10.9345 12.1394C11.3294 12.0804 12.1508 11.6423 12.3221 11.1624C12.4934 10.6823 12.4934 10.2709 12.442 10.1852Z" fill="white"/>
<mask id="mask0_3558_19954" style="mask-type:alpha" maskUnits="userSpaceOnUse" x="1" y="1" width="15" height="15">
<path fill-rule="evenodd" clip-rule="evenodd" d="M4.56382 13.9613L4.81358 14.1094C5.86354 14.7322 7.06708 15.0617 8.29422 15.0621H8.29699C12.0662 15.0621 15.134 11.9958 15.1355 8.22693C15.1362 6.40057 14.4256 4.68325 13.1345 3.3913C11.8433 2.09926 10.1263 1.38731 8.29972 1.38672C4.52756 1.38672 1.45976 4.45273 1.45825 8.22135C1.45774 9.51291 1.81927 10.7707 2.50382 11.8589L2.66642 12.1176L1.97558 14.6399L4.56382 13.9613ZM12.4421 10.183C12.3907 10.0972 12.2537 10.0458 12.0481 9.94294C11.8425 9.84008 10.8318 9.34299 10.6433 9.27435C10.4549 9.20587 10.3178 9.17161 10.1808 9.37725C10.0437 9.58293 9.64975 10.0458 9.52978 10.183C9.40989 10.3201 9.28996 10.3372 9.08441 10.2344C8.87883 10.1316 8.2164 9.91453 7.43115 9.2145C6.81998 8.66962 6.40739 7.99676 6.28746 7.79104C6.16757 7.58536 6.27467 7.47411 6.37758 7.37169C6.47008 7.27959 6.5832 7.13167 6.686 7.01168C6.78879 6.89173 6.82303 6.80596 6.89158 6.66888C6.9601 6.53172 6.92582 6.41177 6.87444 6.30891C6.82303 6.20601 6.4119 5.19458 6.24059 4.78314C6.07368 4.38251 5.90419 4.43674 5.77801 4.43041C5.65824 4.42448 5.52105 4.42317 5.38402 4.42317C5.24695 4.42317 5.02423 4.47456 4.83578 4.68032C4.64734 4.886 4.11624 5.38317 4.11624 6.39452C4.11624 7.40599 4.85292 8.383 4.95571 8.52015C5.0585 8.65735 6.40537 10.7327 8.46766 11.6229C8.95815 11.8346 9.34109 11.961 9.63965 12.0557C10.1322 12.2121 10.5803 12.1901 10.9345 12.1371C11.3295 12.0781 12.1509 11.64 12.3222 11.1601C12.4935 10.68 12.4935 10.2687 12.4421 10.183Z" fill="black"/>
</mask>
<g mask="url(#mask0_3558_19954)">
<path d="M19.5953 -2.10938H-3.52197V21.0079H19.5953V-2.10938Z" fill="url(#paint0_linear_3558_19954)"/>
</g>
<defs>
<linearGradient id="paint0_linear_3558_19954" x1="8.03668" y1="21.0079" x2="8.03668" y2="-2.10938" gradientUnits="userSpaceOnUse">
<stop stop-color="#25CF43"/>
<stop offset="1" stop-color="#61FD7D"/>
</linearGradient>
</defs>
</svg>
