<svg width="32" height="33" viewBox="0 0 32 33" fill="none" xmlns="http://www.w3.org/2000/svg">
<path d="M0 16.6855C0 7.84899 7.16344 0.685547 16 0.685547C24.8366 0.685547 32 7.84899 32 16.6855C32 25.5221 24.8366 32.6855 16 32.6855C7.16344 32.6855 0 25.5221 0 16.6855Z" fill="#4527B7"/>
<path d="M20.0721 24.2895V22.5237C20.0721 21.5871 19.6768 20.6888 18.9731 20.0265C18.2694 19.3643 17.315 18.9922 16.3199 18.9922H8.81537C7.82021 18.9922 6.86581 19.3643 6.16213 20.0265C5.45844 20.6888 5.06312 21.5871 5.06312 22.5237V24.2895" stroke="white" stroke-width="1.32432" stroke-linecap="round" stroke-linejoin="round"/>
<path d="M12.5676 14.5777C13.6213 14.5777 14.6319 14.2056 15.3769 13.5434C16.122 12.8811 16.5406 11.9828 16.5406 11.0462C16.5406 10.1096 16.122 9.2113 15.3769 8.54901C14.6319 7.88672 13.6213 7.51465 12.5676 7.51465C11.5139 7.51465 10.5034 7.88672 9.75831 8.54901C9.01323 9.2113 8.59465 10.1096 8.59465 11.0462C8.59465 11.9828 9.01323 12.8811 9.75831 13.5434C10.5034 14.2056 11.5139 14.5777 12.5676 14.5777Z" stroke="white" stroke-width="1.32432" stroke-linecap="round" stroke-linejoin="round"/>
<path d="M26.2523 24.2894V22.412C26.2516 21.58 25.954 20.7719 25.4061 20.1143C24.8582 19.4568 24.0911 18.9872 23.2253 18.7792M19.1892 7.51465C20.0574 7.72145 20.8269 8.19118 21.3764 8.84979C21.9259 9.5084 22.2242 10.3184 22.2242 11.1522C22.2242 11.9859 21.9259 12.7959 21.3764 13.4545C20.8269 14.1131 20.0574 14.5829 19.1892 14.7897" stroke="white" stroke-width="1.32432" stroke-linecap="round" stroke-linejoin="round"/>
</svg>
