<svg width="32" height="33" viewBox="0 0 32 33" fill="none" xmlns="http://www.w3.org/2000/svg">
<path d="M0 16.8057C0 8.05811 7.09131 0.966797 15.8389 0.966797H16.1611C24.9087 0.966797 32 8.05811 32 16.8057C32 25.5532 24.9087 32.6446 16.1611 32.6446H15.8389C7.09131 32.6446 0 25.5532 0 16.8057Z" fill="#4527B7"/>
<path d="M15.6576 19.0406C16.5369 19.0406 17.4075 18.868 18.2198 18.5325C19.0321 18.1971 19.7701 17.7054 20.3918 17.0857C21.0136 16.4659 21.5067 15.7301 21.8432 14.9203C22.1796 14.1105 22.3528 13.2425 22.3528 12.366C22.3528 11.4895 22.1796 10.6215 21.8432 9.81174C21.5067 9.00195 21.0136 8.26614 20.3918 7.64635C19.7701 7.02656 19.0321 6.53491 18.2198 6.19948C17.4075 5.86405 16.5369 5.69141 15.6576 5.69141C13.882 5.69141 12.179 6.39462 10.9234 7.64635C9.66782 8.89808 8.96243 10.5958 8.96243 12.366C8.96243 14.1362 9.66782 15.8339 10.9234 17.0857C12.179 18.3374 13.882 19.0406 15.6576 19.0406Z" stroke="white" stroke-width="1.32432" stroke-linecap="round" stroke-linejoin="round"/>
<path d="M12.0327 17.9822L10.8754 26.6687L15.6577 23.8082L20.44 26.6687L19.2827 17.9727" stroke="white" stroke-width="1.32432" stroke-linecap="round" stroke-linejoin="round"/>
</svg>
