<svg width="32" height="32" viewBox="0 0 32 32" fill="none" xmlns="http://www.w3.org/2000/svg">
<rect width="32" height="32" rx="16" fill="#4527B7"/>
<path d="M15.8047 21.1692C12.4448 21.1692 9.72051 18.3795 9.72051 14.939V8.80176H21.7981V15.032C21.8889 18.3795 19.1646 21.1692 15.8047 21.1692Z" stroke="white" stroke-width="1.32432" stroke-linecap="round" stroke-linejoin="round"/>
<path d="M9.72055 15.0296V10.6592H5.81577V12.054C5.81577 14.3787 7.63195 16.2385 9.90217 16.2385C9.81136 15.7735 9.72055 15.4016 9.72055 15.0296Z" stroke="white" stroke-width="1.32432" stroke-linecap="round" stroke-linejoin="round"/>
<path d="M21.889 10.6592V14.9366C21.889 15.3086 21.889 15.7735 21.7981 16.1455C24.0684 16.1455 25.8845 14.2857 25.8845 11.961V10.6592H21.889Z" stroke="white" stroke-width="1.32432" stroke-linecap="round" stroke-linejoin="round"/>
<path d="M13.2621 24.6113H18.3474" stroke="white" stroke-width="1.32432" stroke-linecap="round" stroke-linejoin="round"/>
<path d="M15.8047 24.6076V21.167" stroke="white" stroke-width="1.32432" stroke-linecap="round" stroke-linejoin="round"/>
</svg>
