<svg width="40" height="32" viewBox="0 0 40 32" fill="none" xmlns="http://www.w3.org/2000/svg">
<path d="M14.1351 0.169132L18.0661 4.25132L12.5224 9.74463C11.6152 10.6182 10.6913 11.6093 9.75053 12.7181C8.80978 13.7932 8.00343 14.9692 7.33146 16.2459C6.6595 17.489 6.34031 18.8162 6.37391 20.2273H4.20682C4.44201 19.0177 4.92919 17.9762 5.66835 17.1026C6.44111 16.2291 7.58345 15.7923 9.09537 15.7923C10.4393 15.7923 11.6992 16.1451 12.8752 16.8507C14.0511 17.5226 14.9919 18.4466 15.6974 19.6225C16.4366 20.7985 16.8062 22.1424 16.8062 23.6543C16.8062 25.8046 16.0166 27.6525 14.4375 29.198C12.892 30.7099 10.9937 31.4659 8.74259 31.4659C6.4915 31.4659 4.55961 30.6595 2.94689 29.0468C1.33417 27.4005 0.494218 25.099 0.427021 22.1424C0.359825 19.8913 0.746205 17.7746 1.58616 15.7923C2.45972 13.7764 3.50126 11.9789 4.7108 10.3998C5.92033 8.78708 7.06267 7.44315 8.13782 6.36801L14.1351 0.169132ZM35.4532 0.169132L39.3842 4.25132L33.8405 9.74463C32.9669 10.6182 32.043 11.6093 31.0686 12.7181C30.1279 13.7932 29.3215 14.9692 28.6495 16.2459C27.9776 17.489 27.6584 18.8162 27.692 20.2273H25.5249C25.7601 19.0177 26.2473 17.9762 26.9864 17.1026C27.7592 16.2291 28.9015 15.7923 30.4135 15.7923C31.7574 15.7923 33.0173 16.1451 34.1933 16.8507C35.3692 17.5226 36.3267 18.4466 37.0659 19.6225C37.8051 20.7985 38.1747 22.1424 38.1747 23.6543C38.1747 25.8046 37.3851 27.6525 35.806 29.198C34.2269 30.7099 32.3118 31.4659 30.0607 31.4659C27.8096 31.4659 25.8777 30.6595 24.265 29.0468C22.6523 27.4005 21.8123 25.099 21.7451 22.1424C21.7115 19.8913 22.1147 17.7746 22.9546 15.7923C23.7946 13.7764 24.8193 11.9789 26.0289 10.3998C27.2384 8.78708 28.3808 7.44315 29.4559 6.36801L35.4532 0.169132Z" fill="#016BE3"/>
</svg>
