<svg width="40" height="32" viewBox="0 0 40 32" fill="none" xmlns="http://www.w3.org/2000/svg">
<path d="M14.1351 0.128116L18.0661 4.2103L12.5224 9.70362C11.6152 10.5772 10.6913 11.5683 9.75053 12.6771C8.80978 13.7522 8.00343 14.9281 7.33146 16.2049C6.6595 17.448 6.34031 18.7751 6.37391 20.1863H4.20682C4.44201 18.9767 4.92919 17.9352 5.66835 17.0616C6.44111 16.1881 7.58345 15.7513 9.09537 15.7513C10.4393 15.7513 11.6992 16.1041 12.8752 16.8096C14.0511 17.4816 14.9919 18.4056 15.6974 19.5815C16.4366 20.7574 16.8062 22.1014 16.8062 23.6133C16.8062 25.7636 16.0166 27.6115 14.4375 29.157C12.892 30.6689 10.9937 31.4249 8.74259 31.4249C6.4915 31.4249 4.55961 30.6185 2.94689 29.0058C1.33417 27.3595 0.494218 25.058 0.427021 22.1014C0.359825 19.8503 0.746205 17.7336 1.58616 15.7513C2.45972 13.7354 3.50126 11.9379 4.7108 10.3588C5.92033 8.74607 7.06267 7.40214 8.13782 6.32699L14.1351 0.128116ZM35.4532 0.128116L39.3842 4.2103L33.8405 9.70362C32.9669 10.5772 32.043 11.5683 31.0686 12.6771C30.1279 13.7522 29.3215 14.9281 28.6495 16.2049C27.9776 17.448 27.6584 18.7751 27.692 20.1863H25.5249C25.7601 18.9767 26.2473 17.9352 26.9864 17.0616C27.7592 16.1881 28.9015 15.7513 30.4135 15.7513C31.7574 15.7513 33.0173 16.1041 34.1933 16.8096C35.3692 17.4816 36.3267 18.4056 37.0659 19.5815C37.8051 20.7574 38.1747 22.1014 38.1747 23.6133C38.1747 25.7636 37.3851 27.6115 35.806 29.157C34.2269 30.6689 32.3118 31.4249 30.0607 31.4249C27.8096 31.4249 25.8777 30.6185 24.265 29.0058C22.6523 27.3595 21.8123 25.058 21.7451 22.1014C21.7115 19.8503 22.1147 17.7336 22.9546 15.7513C23.7946 13.7354 24.8193 11.9379 26.0289 10.3588C27.2384 8.74607 28.3808 7.40214 29.4559 6.32699L35.4532 0.128116Z" fill="#FFAD00"/>
</svg>
