<svg width="22" height="22" viewBox="0 0 22 22" fill="none" xmlns="http://www.w3.org/2000/svg">
<g clip-path="url(#clip0_803_13025)">
<path d="M21.3555 0H18.7773C18.4214 0 18.1328 0.288578 18.1328 0.644531V1.28906H12.8227C12.5567 0.538914 11.8403 0 11 0C10.1597 0 9.44333 0.538914 9.17727 1.28906H3.86719V0.644531C3.86719 0.288578 3.57861 0 3.22266 0H0.644531C0.288578 0 0 0.288578 0 0.644531V3.22266C0 3.57861 0.288578 3.86719 0.644531 3.86719H3.22266C3.57861 3.86719 3.86719 3.57861 3.86719 3.22266V2.56953H6.54745C4.22215 4.04224 2.80865 6.53018 2.63863 9.17134C1.87937 9.43241 1.33203 10.1533 1.33203 11C1.33203 12.0662 2.19944 12.9336 3.26562 12.9336C4.33181 12.9336 5.19922 12.0662 5.19922 11C5.19922 10.1673 4.67006 9.45579 3.93035 9.18414C4.1592 6.14853 6.34511 3.53401 9.26819 2.7922C9.58504 3.42865 10.2421 3.86719 11 3.86719C11.7579 3.86719 12.415 3.42865 12.7318 2.79224C15.6549 3.53405 17.8408 6.14857 18.0696 9.18418C17.3299 9.45579 16.8008 10.1673 16.8008 11C16.8008 12.0662 17.6682 12.9336 18.7344 12.9336C19.8006 12.9336 20.668 12.0662 20.668 11C20.668 10.1533 20.1206 9.43241 19.3614 9.17134C19.191 6.52489 17.7733 4.04796 15.4525 2.57812H18.1328V3.22266C18.1328 3.57861 18.4214 3.86719 18.7773 3.86719H21.3555C21.7114 3.86719 22 3.57861 22 3.22266V0.644531C22 0.288578 21.7114 0 21.3555 0ZM2.57812 2.57812H1.28906V1.28906H2.57812V2.57812ZM3.26562 11.6445C2.91023 11.6445 2.62109 11.3554 2.62109 11C2.62109 10.6446 2.91023 10.3555 3.26562 10.3555C3.62102 10.3555 3.91016 10.6446 3.91016 11C3.91016 11.3554 3.62102 11.6445 3.26562 11.6445ZM11 2.57812C10.6446 2.57812 10.3555 2.28899 10.3555 1.93359C10.3555 1.5782 10.6446 1.28906 11 1.28906C11.3554 1.28906 11.6445 1.5782 11.6445 1.93359C11.6445 2.28899 11.3554 2.57812 11 2.57812ZM18.7344 10.3555C19.0898 10.3555 19.3789 10.6446 19.3789 11C19.3789 11.3554 19.0898 11.6445 18.7344 11.6445C18.379 11.6445 18.0898 11.3554 18.0898 11C18.0898 10.6446 18.379 10.3555 18.7344 10.3555ZM20.7109 2.57812H19.4219V1.28906H20.7109V2.57812Z" fill="white"/>
<path d="M16.6925 13.2206L11.5362 5.48626C11.5361 5.48601 11.5359 5.48575 11.5357 5.48545C11.5338 5.4827 11.5318 5.48008 11.5299 5.47737C11.5211 5.46452 11.5118 5.45215 11.502 5.44007C11.2304 5.1026 10.7133 5.12537 10.4701 5.47737C10.4682 5.48008 10.4662 5.4827 10.4643 5.48545C10.4641 5.48575 10.4639 5.48596 10.4637 5.48626L5.3075 13.2206C5.13704 13.4763 5.17077 13.8167 5.38802 14.0339C6.67394 15.3198 7.49241 17.0008 7.71538 18.7992C7.6153 18.8801 7.51867 18.9667 7.42706 19.0605C6.82167 19.6797 6.48828 20.4948 6.48828 21.3555C6.48828 21.7114 6.77685 22 7.13281 22H14.8672C15.2231 22 15.5117 21.7114 15.5117 21.3555C15.5117 20.4948 15.1783 19.6797 14.573 19.0604C14.4813 18.9667 14.3847 18.8801 14.2846 18.7991C14.5075 17.0006 15.326 15.3197 16.6119 14.0339C16.8292 13.8167 16.863 13.4762 16.6925 13.2206ZM11 12.9336C11.3554 12.9336 11.6445 13.2227 11.6445 13.5781C11.6445 13.9335 11.3554 14.2227 11 14.2227C10.6446 14.2227 10.3555 13.9335 10.3555 13.5781C10.3555 13.2227 10.6446 12.9336 11 12.9336ZM7.88725 20.711C8.15542 19.9447 8.88237 19.3789 9.71093 19.3789H12.2891C13.1176 19.3789 13.8446 19.9447 14.1127 20.711H7.88725ZM13.073 18.188C12.8195 18.1232 12.5567 18.0899 12.2891 18.0899H9.71093C9.44328 18.0899 9.18048 18.1232 8.92697 18.188C8.62533 16.4508 7.84196 14.8269 6.66466 13.5087L10.3555 7.97252V11.7554C9.60527 12.0215 9.0664 12.7379 9.0664 13.5782C9.0664 14.6444 9.93381 15.5118 11 15.5118C12.0662 15.5118 12.9336 14.6444 12.9336 13.5782C12.9336 12.7379 12.3947 12.0215 11.6445 11.7554V7.97252L15.3354 13.5087C14.158 14.8268 13.3746 16.4507 13.073 18.188Z" fill="white"/>
</g>
<defs>
<clipPath id="clip0_803_13025">
<rect width="22" height="22" fill="white"/>
</clipPath>
</defs>
</svg>
