<svg width="22" height="22" viewBox="0 0 22 22" fill="none" xmlns="http://www.w3.org/2000/svg">
<path d="M18.2437 11.6016C18.5097 12.3518 19.2262 12.8906 20.0664 12.8906C21.1326 12.8906 22 12.0232 22 10.957C22 9.89085 21.1326 9.02344 20.0664 9.02344C19.2262 9.02344 18.5097 9.56231 18.2437 10.3125H13.3203V8.59375H17.4883C17.6391 8.59375 17.7851 8.5409 17.9009 8.44435L19.0792 7.46247C19.3684 7.63495 19.7059 7.73438 20.0664 7.73438C21.1326 7.73438 22 6.86696 22 5.80078C22 4.7346 21.1326 3.86719 20.0664 3.86719C19.0002 3.86719 18.1328 4.7346 18.1328 5.80078C18.1328 6.03694 18.1755 6.26325 18.2534 6.47264L17.2549 7.30469H13.3203V2.57812H15.2359C15.5019 3.32832 16.2183 3.86719 17.0586 3.86719C18.1248 3.86719 18.9922 2.99978 18.9922 1.93359C18.9922 0.86741 18.1248 0 17.0586 0C16.2183 0 15.5019 0.538871 15.2359 1.28906H13.3203V0.644531C13.3203 0.288578 13.0317 0 12.6758 0H9.23828C8.88233 0 8.59375 0.288578 8.59375 0.644531V1.58439C7.67529 1.81393 6.80591 2.17297 5.99839 2.6562L5.33607 1.99388C5.08436 1.74217 4.67629 1.74217 4.42458 1.99388L1.99388 4.42454C1.74217 4.6762 1.74217 5.08432 1.99388 5.33603L2.6562 5.99835C2.17297 6.80582 1.81397 7.67521 1.58439 8.59375H0.644531C0.288578 8.59375 0 8.88233 0 9.23828V12.6758C0 13.0317 0.288578 13.3203 0.644531 13.3203H1.58439C1.81397 14.2388 2.17297 15.1082 2.6562 15.9157L1.99388 16.578C1.87301 16.6988 1.80507 16.8628 1.80507 17.0337C1.80507 17.2046 1.87301 17.3686 1.99388 17.4894L4.42458 19.9201C4.67625 20.1717 5.08436 20.1717 5.33607 19.9201L5.99839 19.2578C6.80586 19.741 7.67525 20.1001 8.59375 20.3296V21.2695C8.59375 21.6255 8.88233 21.9141 9.23828 21.9141H12.6758C13.0317 21.9141 13.3203 21.6255 13.3203 21.2695V20.625H15.2359C15.5019 21.3752 16.2183 21.9141 17.0586 21.9141C18.1248 21.9141 18.9922 21.0467 18.9922 19.9805C18.9922 18.9143 18.1248 18.0469 17.0586 18.0469C16.2183 18.0469 15.5019 18.5857 15.2359 19.3359H13.3203V14.6094H17.2549L18.2534 15.4414C18.1755 15.6508 18.1328 15.8771 18.1328 16.1133C18.1328 17.1795 19.0002 18.0469 20.0664 18.0469C21.1326 18.0469 22 17.1795 22 16.1133C22 15.0471 21.1326 14.1797 20.0664 14.1797C19.7059 14.1797 19.3684 14.2791 19.0792 14.4516L17.9009 13.4697C17.7851 13.3732 17.6391 13.3203 17.4883 13.3203H13.3203V11.6016H18.2437ZM20.0664 10.3125C20.4218 10.3125 20.7109 10.6016 20.7109 10.957C20.7109 11.3124 20.4218 11.6016 20.0664 11.6016C19.711 11.6016 19.4219 11.3124 19.4219 10.957C19.4219 10.6016 19.711 10.3125 20.0664 10.3125ZM20.0664 5.15625C20.4218 5.15625 20.7109 5.44539 20.7109 5.80078C20.7109 6.15618 20.4218 6.44531 20.0664 6.44531C19.711 6.44531 19.4219 6.15618 19.4219 5.80078C19.4219 5.44539 19.711 5.15625 20.0664 5.15625ZM17.0586 1.28906C17.414 1.28906 17.7031 1.5782 17.7031 1.93359C17.7031 2.28899 17.414 2.57812 17.0586 2.57812C16.7032 2.57812 16.4141 2.28899 16.4141 1.93359C16.4141 1.5782 16.7032 1.28906 17.0586 1.28906ZM17.0586 19.3359C17.414 19.3359 17.7031 19.6251 17.7031 19.9805C17.7031 20.3359 17.414 20.625 17.0586 20.625C16.7032 20.625 16.4141 20.3359 16.4141 19.9805C16.4141 19.6251 16.7032 19.3359 17.0586 19.3359ZM20.0664 15.4688C20.4218 15.4688 20.7109 15.7579 20.7109 16.1133C20.7109 16.4687 20.4218 16.7578 20.0664 16.7578C19.711 16.7578 19.4219 16.4687 19.4219 16.1133C19.4219 15.7579 19.711 15.4688 20.0664 15.4688ZM12.0312 15.3346C11.6762 15.4232 11.3166 15.4688 10.957 15.4688C8.46927 15.4688 6.44531 13.4448 6.44531 10.957C6.44531 8.46927 8.46927 6.44531 10.957 6.44531C11.3166 6.44531 11.6762 6.49095 12.0312 6.5795V15.3346ZM9.88281 20.625V19.8124C9.88281 19.5035 9.66367 19.2381 9.3604 19.1795C8.24308 18.9638 7.20302 18.5343 6.26927 17.9027C6.01343 17.7297 5.67084 17.7624 5.45243 17.9808L4.88035 18.5528L3.36119 17.0337L3.93327 16.4616C4.15168 16.2433 4.18443 15.9006 4.01139 15.6448C3.37984 14.711 2.95023 13.6709 2.73453 12.5536C2.67596 12.2504 2.41055 12.0312 2.10169 12.0312H1.28906V9.88281H2.10169C2.41055 9.88281 2.67601 9.66367 2.73453 9.36044C2.95023 8.243 3.37984 7.20298 4.01135 6.26927C4.18438 6.01348 4.15164 5.67084 3.93323 5.45243L3.36114 4.88035L4.8803 3.36119L5.45239 3.93327C5.67076 4.15168 6.01339 4.18447 6.26923 4.01139C7.20307 3.37979 8.24308 2.95023 9.36036 2.73457C9.66367 2.67601 9.88281 2.41059 9.88281 2.10169V1.28906H12.0312V5.2592C11.6757 5.19088 11.3166 5.15625 10.957 5.15625C7.75848 5.15625 5.15625 7.75848 5.15625 10.957C5.15625 14.1556 7.75848 16.7578 10.957 16.7578C11.3166 16.7578 11.6757 16.7232 12.0312 16.6549V20.625H9.88281Z" fill="white"/>
</svg>
