<svg width="22" height="22" viewBox="0 0 22 22" fill="none" xmlns="http://www.w3.org/2000/svg">
<g clip-path="url(#clip0_1860_4926)">
<path d="M18.2437 11.6445C18.5097 12.3947 19.2262 12.9336 20.0664 12.9336C21.1326 12.9336 22 12.0662 22 11C22 9.93382 21.1326 9.06641 20.0664 9.06641C19.2262 9.06641 18.5097 9.60528 18.2437 10.3555H13.3203V8.63672H17.4883C17.6391 8.63672 17.7851 8.58387 17.9009 8.48732L19.0792 7.50544C19.3684 7.67791 19.7059 7.77734 20.0664 7.77734C21.1326 7.77734 22 6.90993 22 5.84375C22 4.77757 21.1326 3.91016 20.0664 3.91016C19.0002 3.91016 18.1328 4.77757 18.1328 5.84375C18.1328 6.07991 18.1755 6.30622 18.2534 6.51561L17.2549 7.34766H13.3203V2.62109H15.2359C15.5019 3.37129 16.2183 3.91016 17.0586 3.91016C18.1248 3.91016 18.9922 3.04275 18.9922 1.97656C18.9922 0.910379 18.1248 0.0429688 17.0586 0.0429688C16.2183 0.0429688 15.5019 0.58184 15.2359 1.33203H13.3203V0.6875C13.3203 0.331547 13.0317 0.0429688 12.6758 0.0429688H9.23828C8.88233 0.0429688 8.59375 0.331547 8.59375 0.6875V1.62736C7.67529 1.85689 6.80591 2.21594 5.99839 2.69917L5.33607 2.03685C5.08436 1.78514 4.67629 1.78514 4.42458 2.03685L1.99388 4.4675C1.74217 4.71917 1.74217 5.12729 1.99388 5.379L2.6562 6.04132C2.17297 6.84879 1.81397 7.71818 1.58439 8.63672H0.644531C0.288578 8.63672 0 8.9253 0 9.28125V12.7188C0 13.0747 0.288578 13.3633 0.644531 13.3633H1.58439C1.81397 14.2818 2.17297 15.1511 2.6562 15.9586L1.99388 16.621C1.87301 16.7418 1.80507 16.9058 1.80507 17.0767C1.80507 17.2476 1.87301 17.4116 1.99388 17.5324L4.42458 19.963C4.67625 20.2147 5.08436 20.2147 5.33607 19.963L5.99839 19.3007C6.80586 19.784 7.67525 20.1431 8.59375 20.3726V21.3125C8.59375 21.6685 8.88233 21.957 9.23828 21.957H12.6758C13.0317 21.957 13.3203 21.6685 13.3203 21.3125V20.668H15.2359C15.5019 21.4182 16.2183 21.957 17.0586 21.957C18.1248 21.957 18.9922 21.0896 18.9922 20.0234C18.9922 18.9573 18.1248 18.0898 17.0586 18.0898C16.2183 18.0898 15.5019 18.6287 15.2359 19.3789H13.3203V14.6523H17.2549L18.2534 15.4844C18.1755 15.6938 18.1328 15.9201 18.1328 16.1562C18.1328 17.2224 19.0002 18.0898 20.0664 18.0898C21.1326 18.0898 22 17.2224 22 16.1562C22 15.0901 21.1326 14.2227 20.0664 14.2227C19.7059 14.2227 19.3684 14.3221 19.0792 14.4946L17.9009 13.5127C17.7851 13.4161 17.6391 13.3633 17.4883 13.3633H13.3203V11.6445H18.2437ZM20.0664 10.3555C20.4218 10.3555 20.7109 10.6446 20.7109 11C20.7109 11.3554 20.4218 11.6445 20.0664 11.6445C19.711 11.6445 19.4219 11.3554 19.4219 11C19.4219 10.6446 19.711 10.3555 20.0664 10.3555ZM20.0664 5.19922C20.4218 5.19922 20.7109 5.48836 20.7109 5.84375C20.7109 6.19914 20.4218 6.48828 20.0664 6.48828C19.711 6.48828 19.4219 6.19914 19.4219 5.84375C19.4219 5.48836 19.711 5.19922 20.0664 5.19922ZM17.0586 1.33203C17.414 1.33203 17.7031 1.62117 17.7031 1.97656C17.7031 2.33196 17.414 2.62109 17.0586 2.62109C16.7032 2.62109 16.4141 2.33196 16.4141 1.97656C16.4141 1.62117 16.7032 1.33203 17.0586 1.33203ZM17.0586 19.3789C17.414 19.3789 17.7031 19.668 17.7031 20.0234C17.7031 20.3788 17.414 20.668 17.0586 20.668C16.7032 20.668 16.4141 20.3788 16.4141 20.0234C16.4141 19.668 16.7032 19.3789 17.0586 19.3789ZM20.0664 15.5117C20.4218 15.5117 20.7109 15.8009 20.7109 16.1562C20.7109 16.5116 20.4218 16.8008 20.0664 16.8008C19.711 16.8008 19.4219 16.5116 19.4219 16.1562C19.4219 15.8009 19.711 15.5117 20.0664 15.5117ZM12.0312 15.3775C11.6762 15.4661 11.3166 15.5117 10.957 15.5117C8.46927 15.5117 6.44531 13.4878 6.44531 11C6.44531 8.51224 8.46927 6.48828 10.957 6.48828C11.3166 6.48828 11.6762 6.53391 12.0312 6.62247V15.3775ZM9.88281 20.668V19.8553C9.88281 19.5465 9.66367 19.281 9.3604 19.2225C8.24308 19.0068 7.20302 18.5772 6.26927 17.9456C6.01343 17.7726 5.67084 17.8053 5.45243 18.0238L4.88035 18.5958L3.36119 17.0767L3.93327 16.5046C4.15168 16.2862 4.18443 15.9436 4.01139 15.6878C3.37984 14.754 2.95023 13.7139 2.73453 12.5966C2.67596 12.2934 2.41055 12.0742 2.10169 12.0742H1.28906V9.92578H2.10169C2.41055 9.92578 2.67601 9.70664 2.73453 9.40341C2.95023 8.28596 3.37984 7.24595 4.01135 6.31224C4.18438 6.05645 4.15164 5.71381 3.93323 5.4954L3.36114 4.92332L4.8803 3.40416L5.45239 3.97624C5.67076 4.19465 6.01339 4.22744 6.26923 4.05436C7.20307 3.42276 8.24308 2.9932 9.36036 2.77754C9.66367 2.71898 9.88281 2.45356 9.88281 2.14466V1.33203H12.0312V5.30217C11.6757 5.23385 11.3166 5.19922 10.957 5.19922C7.75848 5.19922 5.15625 7.80145 5.15625 11C5.15625 14.1986 7.75848 16.8008 10.957 16.8008C11.3166 16.8008 11.6757 16.7662 12.0312 16.6978V20.668H9.88281Z" fill="#111827"/>
</g>
<defs>
<clipPath id="clip0_1860_4926">
<rect width="22" height="22" fill="white"/>
</clipPath>
</defs>
</svg>
