<svg width="92" height="52" viewBox="0 0 92 52" fill="none" xmlns="http://www.w3.org/2000/svg">
<g opacity="0.6">
<path opacity="0.6" d="M6.65475 0.696688C3.53497 0.696688 1.00589 3.22576 1.00589 6.34554V45.9254C1.00589 49.0452 3.53498 51.5743 6.65475 51.5743H85.2379C88.3577 51.5743 90.8868 49.0452 90.8868 45.9254V6.34554C90.8868 3.22577 88.3577 0.696688 85.2379 0.696688H6.65475Z" fill="#143CBF" stroke="#113ABE" stroke-width="0.606623"/>
</g>
<path d="M1.30969 17.0352H90.584V5.5115C90.584 3.02012 88.5643 1.00046 86.0729 1.00046H5.82074C3.32936 1.00046 1.30969 3.02012 1.30969 5.5115V17.0352Z" fill="#4285F4"/>
<path d="M35.0145 6.71471C35.6487 6.71471 36.1095 6.84703 36.397 7.11168C36.689 7.37633 36.835 7.74136 36.835 8.20677C36.835 8.41666 36.8031 8.61743 36.7392 8.80907C36.6753 8.99615 36.5681 9.16498 36.4175 9.31555C36.267 9.46613 36.0685 9.58476 35.8221 9.67146C35.5803 9.75815 35.2791 9.8015 34.9186 9.8015H34.4327V11.6016H33.5566V6.71471H35.0145ZM34.9597 7.44021H34.4327V9.076H34.8297C35.0669 9.076 35.2677 9.04863 35.432 8.99387C35.6008 8.93455 35.7285 8.8433 35.8152 8.7201C35.9019 8.5969 35.9453 8.4372 35.9453 8.24099C35.9453 7.97178 35.8654 7.77102 35.7057 7.63869C35.546 7.50637 35.2974 7.44021 34.9597 7.44021ZM39.1905 7.82349C39.6696 7.82349 40.0323 7.92844 40.2787 8.13833C40.5297 8.34366 40.6552 8.66762 40.6552 9.11022V11.6016H40.046L39.8749 11.0882H39.8475C39.7426 11.2206 39.6331 11.3324 39.519 11.4236C39.4095 11.5103 39.2817 11.5719 39.1357 11.6084C38.9943 11.6495 38.8209 11.67 38.6155 11.67C38.3965 11.67 38.198 11.6289 38.0201 11.5468C37.8467 11.4647 37.7098 11.3392 37.6094 11.1704C37.509 10.997 37.4588 10.7802 37.4588 10.5202C37.4588 10.1369 37.598 9.84941 37.8764 9.65777C38.1592 9.46157 38.5859 9.35434 39.1562 9.33609L39.7996 9.31555V9.13076C39.7996 8.89349 39.7426 8.72466 39.6285 8.62428C39.5144 8.52389 39.3547 8.4737 39.1494 8.4737C38.9623 8.4737 38.7821 8.50108 38.6087 8.55583C38.4353 8.61059 38.2665 8.67447 38.1022 8.74747L37.8284 8.14517C38.011 8.04935 38.2186 7.97178 38.4513 7.91247C38.6885 7.85315 38.9349 7.82349 39.1905 7.82349ZM39.3479 9.8631C38.9692 9.87679 38.7068 9.94295 38.5608 10.0616C38.4148 10.1757 38.3418 10.3308 38.3418 10.527C38.3418 10.7004 38.3942 10.8259 38.4992 10.9034C38.6041 10.981 38.7387 11.0198 38.903 11.0198C39.154 11.0198 39.3661 10.9491 39.5395 10.8076C39.7129 10.6616 39.7996 10.4472 39.7996 10.1643V9.84941L39.3479 9.8631ZM43.6796 7.82349C43.7344 7.82349 43.7982 7.82577 43.8712 7.83033C43.9442 7.8349 44.0058 7.84402 44.056 7.85771L43.9807 8.6585C43.9397 8.64937 43.8849 8.64253 43.8165 8.63797C43.7526 8.62884 43.6956 8.62428 43.6454 8.62428C43.5085 8.62428 43.3762 8.64709 43.2484 8.69272C43.1252 8.73379 43.0134 8.79767 42.913 8.88436C42.8172 8.96649 42.7396 9.07372 42.6803 9.20604C42.6256 9.33837 42.5982 9.49579 42.5982 9.6783V11.6016H41.7358V7.89193H42.3997L42.5229 8.5353H42.564C42.637 8.40298 42.7282 8.28434 42.8377 8.17939C42.9473 8.06989 43.0727 7.98319 43.2142 7.91931C43.3602 7.85543 43.5153 7.82349 43.6796 7.82349ZM46.1809 10.9787C46.2904 10.9787 46.3953 10.9696 46.4957 10.9514C46.5961 10.9285 46.6896 10.9034 46.7763 10.8761V11.5194C46.6851 11.5605 46.5664 11.5947 46.4204 11.6221C46.2744 11.654 46.1216 11.67 45.9619 11.67C45.752 11.67 45.5603 11.6358 45.3869 11.5673C45.2181 11.4943 45.0812 11.3711 44.9763 11.1977C44.8759 11.0244 44.8257 10.7825 44.8257 10.4722V8.54214H44.3261V8.16571L44.8736 7.86456L45.1474 7.07746H45.6881V7.89193H46.7421V8.54214H45.6881V10.4654C45.6881 10.6388 45.7337 10.7688 45.825 10.8555C45.9162 10.9377 46.0349 10.9787 46.1809 10.9787ZM49.5089 7.82349C49.9242 7.82349 50.2481 7.93072 50.4808 8.14517C50.7181 8.35963 50.8367 8.70641 50.8367 9.18551V11.6016H49.9744V9.35662C49.9744 9.07828 49.9196 8.87067 49.8101 8.73379C49.7006 8.59234 49.5272 8.52161 49.2899 8.52161C48.9431 8.52161 48.7059 8.63112 48.5781 8.85014C48.4503 9.0646 48.3865 9.37715 48.3865 9.78781V11.6016H47.5241V7.89193H48.188L48.3112 8.37788H48.3591C48.4412 8.25012 48.5416 8.14517 48.6602 8.06304C48.7789 7.98091 48.9112 7.92159 49.0572 7.88509C49.2032 7.84402 49.3538 7.82349 49.5089 7.82349ZM53.4075 7.82349C53.7406 7.82349 54.0258 7.89193 54.263 8.02882C54.5049 8.16114 54.6919 8.35278 54.8243 8.60374C54.9566 8.85014 55.0227 9.15129 55.0227 9.5072V9.94523H52.5725C52.5816 10.2829 52.6751 10.5453 52.8531 10.7323C53.031 10.9148 53.2774 11.0061 53.5923 11.0061C53.8341 11.0061 54.0486 10.9833 54.2356 10.9377C54.4273 10.8875 54.6235 10.8167 54.8243 10.7255V11.4168C54.6417 11.5035 54.4524 11.5673 54.2562 11.6084C54.06 11.6495 53.825 11.67 53.5512 11.67C53.1907 11.67 52.8691 11.6016 52.5862 11.4647C52.3078 11.3232 52.0888 11.1111 51.9291 10.8282C51.774 10.5453 51.6964 10.1939 51.6964 9.77412C51.6964 9.34978 51.7671 8.99387 51.9086 8.70641C52.0546 8.41438 52.2554 8.19536 52.5109 8.04935C52.7664 7.89878 53.0653 7.82349 53.4075 7.82349ZM53.4075 8.46001C53.1793 8.46001 52.9923 8.5353 52.8462 8.68588C52.7048 8.83189 52.6204 9.05091 52.593 9.34293H54.1877C54.1877 9.16954 54.1581 9.01668 54.0988 8.88436C54.044 8.75204 53.9596 8.64937 53.8455 8.57637C53.7314 8.4988 53.5854 8.46001 53.4075 8.46001ZM57.8361 7.82349C57.8909 7.82349 57.9548 7.82577 58.0278 7.83033C58.1008 7.8349 58.1624 7.84402 58.2126 7.85771L58.1373 8.6585C58.0962 8.64937 58.0415 8.64253 57.973 8.63797C57.9092 8.62884 57.8521 8.62428 57.8019 8.62428C57.665 8.62428 57.5327 8.64709 57.405 8.69272C57.2818 8.73379 57.17 8.79767 57.0696 8.88436C56.9738 8.96649 56.8962 9.07372 56.8369 9.20604C56.7821 9.33837 56.7547 9.49579 56.7547 9.6783V11.6016H55.8924V7.89193H56.5563L56.6795 8.5353H56.7205C56.7935 8.40298 56.8848 8.28434 56.9943 8.17939C57.1038 8.06989 57.2293 7.98319 57.3707 7.91931C57.5167 7.85543 57.6719 7.82349 57.8361 7.82349Z" fill="white"/>
<g clip-path="url(#clip0_3246_24205)">
<path d="M55.6155 34.8812C55.0817 34.8936 54.551 34.7971 54.0559 34.5977C53.5607 34.3983 53.1114 34.1001 52.7354 33.7214C52.3594 33.3426 52.0647 32.8912 51.8691 32.3949C51.6736 31.8985 51.5814 31.3674 51.5981 30.8342C51.5843 30.3045 51.6784 29.7775 51.8747 29.2852C52.071 28.7929 52.3653 28.3456 52.7399 27.9704C53.1131 27.5889 53.5612 27.2886 54.056 27.0882C54.5508 26.8879 55.0817 26.7918 55.6155 26.8061C56.1499 26.7929 56.6805 26.8995 57.1684 27.1181C57.6562 27.3366 58.0889 27.6615 58.4346 28.069L57.7439 28.7591C57.4906 28.4391 57.1667 28.1819 56.7975 28.0077C56.4283 27.8334 56.0237 27.7467 55.6155 27.7544C55.2175 27.7447 54.8218 27.8163 54.4526 27.9649C54.0833 28.1134 53.7484 28.3358 53.4682 28.6183C53.182 28.9099 52.9585 29.2569 52.8114 29.638C52.6643 30.019 52.5968 30.4261 52.613 30.8342C52.5955 31.2439 52.6624 31.6528 52.8095 32.0356C52.9566 32.4184 53.1808 32.7669 53.4682 33.0596C53.7477 33.343 54.0825 33.566 54.4519 33.7146C54.8213 33.8632 55.2174 33.9343 55.6155 33.9235C56.0671 33.9213 56.5125 33.8181 56.919 33.6215C57.3255 33.4249 57.6829 33.1399 57.9648 32.7873L58.6884 33.4915C58.3221 33.929 57.8609 34.2774 57.3398 34.5103C56.7991 34.7583 56.2105 34.8849 55.6155 34.8812ZM60.4879 26.9798V34.7122H59.4918V26.9798H60.4879ZM61.3431 32.0643C61.3322 31.6937 61.3947 31.3246 61.527 30.9781C61.6592 30.6317 61.8586 30.3148 62.1137 30.0455C62.3661 29.7841 62.6703 29.5782 63.0068 29.4407C63.3434 29.3033 63.7049 29.2375 64.0683 29.2474C64.4304 29.2371 64.7906 29.3027 65.1257 29.4402C65.4607 29.5777 65.7632 29.7839 66.0135 30.0455C66.2712 30.3132 66.4725 30.6297 66.6057 30.9765C66.7388 31.3232 66.8011 31.6931 66.7888 32.0643C66.8025 32.4356 66.7408 32.8059 66.6076 33.1528C66.4744 33.4998 66.2723 33.8162 66.0135 34.0831C65.7639 34.3456 65.4616 34.5525 65.1263 34.69C64.7911 34.8276 64.4305 34.8927 64.0683 34.8812C63.7047 34.8923 63.3429 34.827 63.0062 34.6895C62.6695 34.552 62.3654 34.3454 62.1137 34.0831C61.8586 33.8138 61.6592 33.4969 61.527 33.1504C61.3947 32.804 61.3322 32.4349 61.3431 32.0643ZM62.3392 32.0643C62.3163 32.5721 62.4954 33.0682 62.8372 33.4446C62.9954 33.6123 63.1862 33.7459 63.3979 33.8372C63.6096 33.9285 63.8377 33.9756 64.0683 33.9756C64.2989 33.9756 64.527 33.9285 64.7387 33.8372C64.9504 33.7459 65.1412 33.6123 65.2993 33.4446C65.6412 33.0682 65.8203 32.5721 65.7974 32.0643C65.8193 31.5595 65.6402 31.0666 65.2993 30.6934C65.1427 30.5232 64.9524 30.3874 64.7405 30.2945C64.5286 30.2016 64.2997 30.1536 64.0683 30.1536C63.8369 30.1536 63.608 30.2016 63.3961 30.2945C63.1842 30.3874 62.9939 30.5232 62.8372 30.6934C62.4964 31.0666 62.3173 31.5595 62.3392 32.0643ZM72.2862 34.7122H71.3465V33.9751H71.2995C71.1315 34.2507 70.8909 34.4748 70.6041 34.623C70.306 34.7918 69.9694 34.8807 69.6268 34.8812C69.352 34.899 69.0766 34.8589 68.8184 34.7634C68.5602 34.668 68.3249 34.5194 68.1279 34.3272C67.7556 33.8872 67.5686 33.32 67.6063 32.745V29.4258H68.5978V32.684C68.577 32.8604 68.5968 33.0392 68.6556 33.2068C68.7144 33.3744 68.8106 33.5265 68.9369 33.6514C69.0633 33.7763 69.2165 33.8708 69.3849 33.9277C69.5532 33.9846 69.7324 34.0024 69.9087 33.9798C70.099 33.9831 70.2874 33.9424 70.4594 33.861C70.6314 33.7796 70.7822 33.6596 70.9001 33.5103C71.1681 33.1878 71.31 32.7791 71.2995 32.3601V29.4258H72.2956L72.2862 34.7122ZM75.6504 34.8812C75.3122 34.8811 74.978 34.8081 74.6707 34.6671C74.3634 34.5261 74.0901 34.3205 73.8696 34.0643C73.376 33.516 73.1075 32.8018 73.1178 32.0643C73.1017 31.3307 73.3635 30.618 73.8508 30.069C74.0696 29.8105 74.3425 29.6029 74.6501 29.461C74.9577 29.3191 75.2928 29.2462 75.6316 29.2474C76.0022 29.2411 76.3687 29.3266 76.6982 29.4962C77.0001 29.6449 77.2565 29.8719 77.4406 30.1535H77.4829L77.4594 29.4258V26.9798H78.4508V34.7122H77.5111V33.9751H77.4688C77.2847 34.2567 77.0283 34.4837 76.7264 34.6324C76.394 34.8035 76.0242 34.889 75.6504 34.8812ZM75.8149 33.9751C76.0416 33.9824 76.2672 33.9385 76.4746 33.8467C76.6821 33.7548 76.8661 33.6174 77.013 33.4446C77.3416 33.0621 77.5099 32.5677 77.4829 32.0643C77.5056 31.5644 77.3377 31.0745 77.013 30.6934C76.8666 30.5194 76.6829 30.3806 76.4755 30.2871C76.2681 30.1937 76.0423 30.148 75.8149 30.1535C75.5877 30.15 75.3626 30.1966 75.1555 30.2899C74.9484 30.3832 74.7644 30.521 74.6167 30.6934C74.292 31.0745 74.1241 31.5644 74.1468 32.0643C74.1208 32.5647 74.2891 33.0558 74.6167 33.4352C74.7644 33.6076 74.9484 33.7454 75.1555 33.8387C75.3626 33.932 75.5877 33.9786 75.8149 33.9751Z" fill="white"/>
<path d="M17.9046 34.8791C16.7354 34.8829 15.6117 34.4263 14.7771 33.6082C13.9425 32.7901 13.4641 31.6763 13.4456 30.5082C13.4641 29.3401 13.9425 28.2263 14.7771 27.4082C15.6117 26.5901 16.7354 26.1334 17.9046 26.1373C18.4617 26.128 19.015 26.23 19.5322 26.4372C20.0494 26.6444 20.52 26.9526 20.9164 27.3439L20.0659 28.1843C19.4861 27.6264 18.7095 27.3193 17.9046 27.3298C17.4878 27.3285 17.0749 27.4101 16.69 27.5697C16.3051 27.7293 15.9557 27.9638 15.6624 28.2596C15.369 28.5554 15.1374 28.9065 14.9811 29.2925C14.8247 29.6786 14.7468 30.0918 14.7518 30.5082C14.7468 30.9246 14.8247 31.3378 14.9811 31.7239C15.1374 32.1099 15.369 32.461 15.6624 32.7568C15.9557 33.0526 16.3051 33.2871 16.69 33.4467C17.0749 33.6063 17.4878 33.6879 17.9046 33.6866C18.3151 33.7034 18.7246 33.634 19.1067 33.4828C19.4887 33.3316 19.8347 33.1019 20.1223 32.8087C20.5057 32.3955 20.7362 31.8637 20.7754 31.3016H17.9046V30.1138H21.9454C21.9894 30.3602 22.0099 30.6101 22.0065 30.8603C22.0383 31.8906 21.6637 32.8921 20.9634 33.649C20.5692 34.0581 20.0929 34.3792 19.5657 34.5912C19.0385 34.8032 18.4724 34.9013 17.9046 34.8791Z" fill="#4285F4"/>
<path d="M28.2564 32.0633C28.2718 32.4388 28.2111 32.8136 28.0779 33.1651C27.9447 33.5166 27.7418 33.8376 27.4813 34.1088C27.2209 34.3799 26.9082 34.5957 26.5622 34.7431C26.2162 34.8905 25.8439 34.9664 25.4677 34.9664C25.0916 34.9664 24.7193 34.8905 24.3733 34.7431C24.0273 34.5957 23.7146 34.3799 23.4541 34.1088C23.1937 33.8376 22.9908 33.5166 22.8576 33.1651C22.7244 32.8136 22.6637 32.4388 22.6791 32.0633C22.6637 31.6878 22.7244 31.313 22.8576 30.9615C22.9908 30.61 23.1937 30.289 23.4541 30.0178C23.7146 29.7467 24.0273 29.5309 24.3733 29.3835C24.7193 29.2361 25.0916 29.1602 25.4677 29.1602C25.8439 29.1602 26.2162 29.2361 26.5622 29.3835C26.9082 29.5309 27.2209 29.7467 27.4813 30.0178C27.7418 30.289 27.9447 30.61 28.0779 30.9615C28.2111 31.313 28.2718 31.6878 28.2564 32.0633ZM27.0347 32.0633C27.0555 31.8452 27.0304 31.6252 26.961 31.4173C26.8917 31.2095 26.7797 31.0184 26.6322 30.8564C26.4846 30.6943 26.3049 30.5648 26.1043 30.4762C25.9038 30.3876 25.687 30.3419 25.4677 30.3419C25.2485 30.3419 25.0317 30.3876 24.8311 30.4762C24.6306 30.5648 24.4508 30.6943 24.3033 30.8564C24.1558 31.0184 24.0438 31.2095 23.9745 31.4173C23.9051 31.6252 23.88 31.8452 23.9008 32.0633C23.88 32.2814 23.9051 32.5014 23.9745 32.7092C24.0438 32.9171 24.1558 33.1081 24.3033 33.2702C24.4508 33.4323 24.6306 33.5618 24.8311 33.6504C25.0317 33.739 25.2485 33.7847 25.4677 33.7847C25.687 33.7847 25.9038 33.739 26.1043 33.6504C26.3049 33.5618 26.4846 33.4323 26.6322 33.2702C26.7797 33.1081 26.8917 32.9171 26.961 32.7092C27.0304 32.5014 27.0555 32.2814 27.0347 32.0633Z" fill="#EA4335"/>
<path d="M34.5113 32.0633C34.5267 32.4388 34.466 32.8136 34.3328 33.1651C34.1996 33.5166 33.9967 33.8376 33.7362 34.1088C33.4758 34.3799 33.1631 34.5957 32.8171 34.7431C32.4711 34.8905 32.0988 34.9664 31.7226 34.9664C31.3465 34.9664 30.9742 34.8905 30.6282 34.7431C30.2821 34.5957 29.9695 34.3799 29.709 34.1088C29.4486 33.8376 29.2456 33.5166 29.1124 33.1651C28.9793 32.8136 28.9186 32.4388 28.934 32.0633C28.9186 31.6878 28.9793 31.313 29.1124 30.9615C29.2456 30.61 29.4486 30.289 29.709 30.0178C29.9695 29.7467 30.2821 29.5309 30.6282 29.3835C30.9742 29.2361 31.3465 29.1602 31.7226 29.1602C32.0988 29.1602 32.4711 29.2361 32.8171 29.3835C33.1631 29.5309 33.4758 29.7467 33.7362 30.0178C33.9967 30.289 34.1996 30.61 34.3328 30.9615C34.466 31.313 34.5267 31.6878 34.5113 32.0633ZM33.2896 32.0633C33.3064 31.8472 33.2782 31.6299 33.207 31.4252C33.1357 31.2204 33.0228 31.0326 32.8755 30.8735C32.7281 30.7144 32.5494 30.5875 32.3506 30.5007C32.1518 30.4139 31.9372 30.3691 31.7203 30.3691C31.5033 30.3691 31.2887 30.4139 31.0899 30.5007C30.8911 30.5875 30.7125 30.7144 30.5651 30.8735C30.4177 31.0326 30.3049 31.2204 30.2336 31.4252C30.1623 31.6299 30.1342 31.8472 30.1509 32.0633C30.1342 32.2794 30.1623 32.4967 30.2336 32.7014C30.3049 32.9061 30.4177 33.094 30.5651 33.253C30.7125 33.4121 30.8911 33.5391 31.0899 33.6259C31.2887 33.7127 31.5033 33.7575 31.7203 33.7575C31.9372 33.7575 32.1518 33.7127 32.3506 33.6259C32.5494 33.5391 32.7281 33.4121 32.8755 33.253C33.0228 33.094 33.1357 32.9061 33.207 32.7014C33.2782 32.4967 33.3064 32.2794 33.2896 32.0633Z" fill="#FBBC04"/>
<path d="M40.6044 29.4248V34.4765C40.6044 36.5516 39.3687 37.4061 37.9121 37.4061C37.3761 37.409 36.8513 37.2526 36.4045 36.9566C35.9577 36.6607 35.6091 36.2386 35.4031 35.7441L36.4884 35.2746C36.5978 35.5625 36.7901 35.8115 37.0409 35.9903C37.2918 36.1691 37.59 36.2697 37.898 36.2793C38.8378 36.2793 39.411 35.7018 39.411 34.6267V34.223H39.3828C39.1948 34.4349 38.963 34.6034 38.7034 34.7169C38.4438 34.8304 38.1626 34.8861 37.8792 34.8802C37.1315 34.8802 36.4145 34.5835 35.8858 34.0552C35.3571 33.5269 35.0601 32.8104 35.0601 32.0633C35.0601 31.3162 35.3571 30.5998 35.8858 30.0715C36.4145 29.5432 37.1315 29.2464 37.8792 29.2464C38.1616 29.2412 38.4418 29.2963 38.7011 29.4081C38.9604 29.5198 39.1928 29.6856 39.3828 29.8943H39.4251V29.4248H40.6044ZM39.5097 32.0821C39.5269 31.8693 39.5011 31.6551 39.4338 31.4524C39.3665 31.2497 39.2591 31.0627 39.1179 30.9023C38.9767 30.742 38.8047 30.6117 38.6121 30.5192C38.4195 30.4267 38.2102 30.3738 37.9967 30.3638C37.7799 30.3716 37.5667 30.4225 37.3698 30.5134C37.1728 30.6043 36.9959 30.7335 36.8494 30.8934C36.7029 31.0534 36.5897 31.2408 36.5164 31.4449C36.4432 31.649 36.4113 31.8656 36.4227 32.0821C36.4126 32.2972 36.4455 32.5121 36.5195 32.7142C36.5935 32.9164 36.7071 33.1018 36.8537 33.2596C37.0002 33.4174 37.1768 33.5445 37.3731 33.6333C37.5693 33.7221 37.7813 33.771 37.9967 33.777C38.2093 33.7694 38.4182 33.7189 38.6108 33.6284C38.8033 33.5379 38.9755 33.4093 39.1169 33.2505C39.2583 33.0916 39.366 32.9058 39.4335 32.7041C39.5011 32.5025 39.5269 32.2893 39.5097 32.0774V32.0821Z" fill="#4285F4"/>
<path d="M42.7797 26.4375V34.7098H41.5393V26.4375H42.7797Z" fill="#34A853"/>
<path d="M47.6665 32.9918L48.6344 33.649C48.376 34.0344 48.0264 34.35 47.6165 34.5679C47.2067 34.7857 46.7493 34.8991 46.2851 34.8979C45.9158 34.9031 45.5493 34.8335 45.2078 34.6931C44.8662 34.5528 44.5567 34.3446 44.298 34.0813C44.0392 33.818 43.8367 33.5049 43.7025 33.1611C43.5684 32.8172 43.5055 32.4498 43.5176 32.081C43.4626 31.4469 43.6431 30.8148 44.0245 30.3051C44.406 29.7954 44.9619 29.4438 45.5861 29.3173C46.2104 29.1908 46.8594 29.2983 47.4094 29.6192C47.9595 29.9402 48.3721 30.4521 48.5687 31.0575L48.6955 31.3814L44.9366 32.9354C45.0537 33.1985 45.247 33.4205 45.4916 33.5728C45.7361 33.725 46.0207 33.8007 46.3086 33.7899C46.5843 33.7836 46.8538 33.707 47.0915 33.5673C47.3291 33.4276 47.5271 33.2295 47.6665 32.9918ZM44.7017 31.9777L47.2295 30.9354C47.1284 30.7484 46.9751 30.5948 46.7883 30.4931C46.6015 30.3915 46.3891 30.3462 46.1771 30.3626C45.974 30.3717 45.7747 30.4207 45.5906 30.5068C45.4065 30.5929 45.2412 30.7144 45.1041 30.8644C44.9671 31.0144 44.861 31.19 44.7919 31.381C44.7229 31.572 44.6922 31.7748 44.7017 31.9777Z" fill="#EA4335"/>
</g>
<defs>
<clipPath id="clip0_3246_24205">
<rect width="65.0055" height="11.2676" fill="white" transform="translate(13.4436 26.1367)"/>
</clipPath>
</defs>
</svg>
