<svg width="92" height="52" viewBox="0 0 92 52" fill="none" xmlns="http://www.w3.org/2000/svg">
<path opacity="0.6" d="M6.34554 0.696688C3.22577 0.696688 0.696688 3.22576 0.696688 6.34554V45.9254C0.696688 49.0452 3.22576 51.5743 6.34553 51.5743H85.7955C88.9152 51.5743 91.4443 49.0452 91.4443 45.9254V6.34554C91.4443 3.22577 88.9152 0.696688 85.7955 0.696688H6.34554Z" fill="#143CBF" stroke="#113ABE" stroke-width="0.606623"/>
<path d="M33.2515 26.9883L30.9435 20.0996H30.8964C30.9042 20.2566 30.916 20.4803 30.9317 20.7708C30.9474 21.0534 30.9592 21.3635 30.967 21.7011C30.9827 22.0308 30.9906 22.3409 30.9906 22.6313V26.9883H29.6364V18.5805H31.7324L33.9462 25.1866H33.9933L36.3013 18.5805H38.3974V26.9883H36.9608V22.5607C36.9608 22.2938 36.9647 22.0033 36.9726 21.6893C36.9883 21.3674 37 21.0652 37.0079 20.7826C37.0236 20.4921 37.0354 20.2684 37.0432 20.1114H36.9961L34.5939 26.9883H33.2515ZM41.9149 20.6059V26.9883H40.4312V20.6059H41.9149ZM41.173 18.1448C41.3928 18.1448 41.5852 18.2037 41.75 18.3215C41.9149 18.4314 41.9973 18.6316 41.9973 18.922C41.9973 19.2046 41.9149 19.4087 41.75 19.5344C41.5852 19.6521 41.3928 19.711 41.173 19.711C40.9454 19.711 40.7491 19.6521 40.5842 19.5344C40.4272 19.4087 40.3487 19.2046 40.3487 18.922C40.3487 18.6316 40.4272 18.4314 40.5842 18.3215C40.7491 18.2037 40.9454 18.1448 41.173 18.1448ZM46.3909 27.106C45.7864 27.106 45.2604 26.9922 44.813 26.7645C44.3733 26.529 44.0319 26.1718 43.7885 25.693C43.553 25.2062 43.4352 24.5861 43.4352 23.8324C43.4352 23.0474 43.5648 22.4115 43.8238 21.9248C44.0907 21.4302 44.4558 21.0691 44.9189 20.8414C45.3821 20.6059 45.912 20.4882 46.5086 20.4882C46.909 20.4882 47.2662 20.5274 47.5802 20.6059C47.8942 20.6844 48.1611 20.7786 48.381 20.8885L47.9453 22.0543C47.7019 21.9601 47.4585 21.8816 47.2152 21.8188C46.9718 21.7482 46.7363 21.7128 46.5086 21.7128C46.1554 21.7128 45.861 21.7913 45.6255 21.9483C45.3978 22.1053 45.229 22.3409 45.1191 22.6549C45.0092 22.961 44.9543 23.3496 44.9543 23.8207C44.9543 24.276 45.0092 24.6567 45.1191 24.9629C45.2369 25.269 45.4096 25.5006 45.6373 25.6576C45.8649 25.8068 46.1475 25.8814 46.4851 25.8814C46.8462 25.8814 47.1642 25.8382 47.4389 25.7518C47.7137 25.6655 47.9727 25.5477 48.2161 25.3986V26.6821C47.9727 26.8313 47.7098 26.9373 47.4271 27.0001C47.1524 27.0707 46.807 27.106 46.3909 27.106ZM53.0556 20.4882C53.1498 20.4882 53.2597 20.4921 53.3853 20.4999C53.5109 20.5078 53.6169 20.5235 53.7032 20.547L53.5737 21.9248C53.5031 21.9091 53.4088 21.8973 53.2911 21.8895C53.1812 21.8738 53.0831 21.8659 52.9967 21.8659C52.7612 21.8659 52.5335 21.9052 52.3137 21.9837C52.1018 22.0543 51.9094 22.1642 51.7367 22.3134C51.5719 22.4547 51.4384 22.6392 51.3363 22.8668C51.2421 23.0945 51.195 23.3653 51.195 23.6793V26.9883H49.7113V20.6059H50.8535L51.0655 21.7128H51.1362C51.2618 21.4852 51.4188 21.2811 51.6072 21.1005C51.7956 20.9121 52.0115 20.7629 52.2548 20.653C52.5061 20.5431 52.773 20.4882 53.0556 20.4882ZM60.3555 23.7853C60.3555 24.3192 60.2849 24.7902 60.1435 25.1984C60.0022 25.6066 59.7981 25.956 59.5312 26.2464C59.2722 26.529 58.9503 26.7449 58.5656 26.8941C58.1888 27.0354 57.7688 27.106 57.3056 27.106C56.866 27.106 56.4617 27.0354 56.0928 26.8941C55.7238 26.7449 55.4019 26.529 55.1272 26.2464C54.8602 25.956 54.6522 25.6066 54.5031 25.1984C54.3539 24.7902 54.2793 24.3192 54.2793 23.7853C54.2793 23.0788 54.401 22.4822 54.6444 21.9954C54.8877 21.5009 55.2371 21.128 55.6924 20.8768C56.1556 20.6177 56.7012 20.4882 57.3292 20.4882C57.9258 20.4882 58.4479 20.6177 58.8953 20.8768C59.3507 21.128 59.7079 21.5009 59.9669 21.9954C60.226 22.4822 60.3555 23.0788 60.3555 23.7853ZM55.7984 23.7853C55.7984 24.2328 55.8494 24.6175 55.9514 24.9393C56.0614 25.2533 56.2262 25.4928 56.446 25.6576C56.6737 25.8225 56.9641 25.9049 57.3174 25.9049C57.6785 25.9049 57.969 25.8225 58.1888 25.6576C58.4165 25.4928 58.5813 25.2533 58.6834 24.9393C58.7854 24.6175 58.8365 24.2328 58.8365 23.7853C58.8365 23.33 58.7815 22.9493 58.6716 22.6431C58.5695 22.3291 58.4047 22.0936 58.177 21.9366C57.9572 21.7717 57.6707 21.6893 57.3174 21.6893C56.7836 21.6893 56.395 21.8698 56.1516 22.231C55.9161 22.5921 55.7984 23.1102 55.7984 23.7853ZM66.2346 25.1395C66.2346 25.5634 66.1325 25.9246 65.9284 26.2229C65.7243 26.5133 65.422 26.7331 65.0217 26.8823C64.6291 27.0315 64.1464 27.106 63.5733 27.106C63.1258 27.106 62.7411 27.0746 62.4193 27.0118C62.0974 26.949 61.7912 26.8509 61.5008 26.7174V25.4575C61.8148 25.6066 62.1641 25.7322 62.5488 25.8343C62.9335 25.9363 63.2907 25.9874 63.6204 25.9874C64.0286 25.9874 64.323 25.9246 64.5035 25.7989C64.6841 25.6733 64.7744 25.5046 64.7744 25.2926C64.7744 25.167 64.7391 25.0532 64.6684 24.9511C64.5977 24.8491 64.4604 24.7431 64.2563 24.6332C64.0521 24.5154 63.7421 24.3702 63.326 24.1975C62.9178 24.0326 62.5763 23.8678 62.3015 23.7029C62.0346 23.538 61.8305 23.3418 61.6892 23.1141C61.5557 22.8786 61.489 22.5842 61.489 22.231C61.489 21.6579 61.7167 21.2261 62.172 20.9356C62.6273 20.6373 63.2279 20.4882 63.9736 20.4882C64.3662 20.4882 64.7351 20.5274 65.0805 20.6059C65.4338 20.6766 65.7871 20.7943 66.1403 20.9592L65.6693 22.0543C65.4731 21.968 65.2768 21.8934 65.0805 21.8306C64.8921 21.7599 64.6998 21.705 64.5035 21.6657C64.3151 21.6265 64.1228 21.6068 63.9265 21.6068C63.6047 21.6068 63.3613 21.6579 63.1965 21.7599C63.0316 21.8541 62.9492 21.9876 62.9492 22.1603C62.9492 22.2938 62.9884 22.4115 63.0669 22.5136C63.1533 22.6078 63.2985 22.7059 63.5026 22.808C63.7146 22.9022 64.0129 23.0278 64.3976 23.1848C64.7822 23.3339 65.108 23.4909 65.3749 23.6558C65.6497 23.8128 65.8617 24.0091 66.0108 24.2446C66.16 24.4801 66.2346 24.7784 66.2346 25.1395ZM73.3615 23.7853C73.3615 24.3192 73.2909 24.7902 73.1496 25.1984C73.0083 25.6066 72.8041 25.956 72.5372 26.2464C72.2782 26.529 71.9563 26.7449 71.5716 26.8941C71.1948 27.0354 70.7748 27.106 70.3117 27.106C69.872 27.106 69.4677 27.0354 69.0988 26.8941C68.7298 26.7449 68.4079 26.529 68.1332 26.2464C67.8663 25.956 67.6582 25.6066 67.5091 25.1984C67.3599 24.7902 67.2853 24.3192 67.2853 23.7853C67.2853 23.0788 67.407 22.4822 67.6504 21.9954C67.8937 21.5009 68.2431 21.128 68.6984 20.8768C69.1616 20.6177 69.7072 20.4882 70.3352 20.4882C70.9318 20.4882 71.4539 20.6177 71.9014 20.8768C72.3567 21.128 72.7139 21.5009 72.9729 21.9954C73.232 22.4822 73.3615 23.0788 73.3615 23.7853ZM68.8044 23.7853C68.8044 24.2328 68.8554 24.6175 68.9575 24.9393C69.0674 25.2533 69.2322 25.4928 69.452 25.6576C69.6797 25.8225 69.9702 25.9049 70.3234 25.9049C70.6845 25.9049 70.975 25.8225 71.1948 25.6576C71.4225 25.4928 71.5873 25.2533 71.6894 24.9393C71.7914 24.6175 71.8425 24.2328 71.8425 23.7853C71.8425 23.33 71.7875 22.9493 71.6776 22.6431C71.5756 22.3291 71.4107 22.0936 71.183 21.9366C70.9632 21.7717 70.6767 21.6893 70.3234 21.6893C69.7896 21.6893 69.401 21.8698 69.1576 22.231C68.9221 22.5921 68.8044 23.1102 68.8044 23.7853ZM78.2043 21.7246H76.6617V26.9883H75.178V21.7246H74.1535V21.0181L75.178 20.5942V20.1585C75.178 19.6089 75.2644 19.1772 75.4371 18.8631C75.6098 18.5491 75.861 18.3254 76.1907 18.1919C76.5204 18.0506 76.909 17.98 77.3565 17.98C77.6705 17.98 77.9531 18.0075 78.2043 18.0624C78.4555 18.1095 78.6636 18.1645 78.8284 18.2273L78.4516 19.3342C78.3181 19.2949 78.169 19.2596 78.0041 19.2282C77.8471 19.1889 77.6744 19.1693 77.486 19.1693C77.2034 19.1693 76.9954 19.2596 76.8619 19.4401C76.7284 19.6207 76.6617 19.8719 76.6617 20.1938V20.6059H78.2043V21.7246ZM81.7381 25.9167C81.9265 25.9167 82.1071 25.901 82.2798 25.8696C82.4525 25.8304 82.6134 25.7872 82.7626 25.7401V26.847C82.6056 26.9176 82.4014 26.9765 82.1502 27.0236C81.899 27.0786 81.636 27.106 81.3613 27.106C81.0002 27.106 80.6704 27.0472 80.3721 26.9294C80.0817 26.8038 79.8461 26.5918 79.6656 26.2935C79.4929 25.9952 79.4065 25.5791 79.4065 25.0453V21.7246H78.5469V21.0769L79.489 20.5588L79.96 19.2046H80.8902V20.6059H82.7037V21.7246H80.8902V25.0335C80.8902 25.3319 80.9688 25.5556 81.1258 25.7047C81.2828 25.8461 81.4869 25.9167 81.7381 25.9167Z" fill="white"/>
<path d="M33.0117 34.5954C33.0117 34.9655 32.9221 35.2807 32.7428 35.5409C32.5635 35.8011 32.3062 36.0035 31.9708 36.1481C31.6354 36.2869 31.2364 36.3563 30.7737 36.3563C30.5482 36.3563 30.3313 36.3418 30.1232 36.3129C29.915 36.2898 29.7213 36.2551 29.542 36.2088C29.3627 36.1625 29.2037 36.1047 29.0649 36.0353V35.1506C29.2962 35.2546 29.568 35.3501 29.8803 35.4368C30.1926 35.5178 30.5106 35.5582 30.8345 35.5582C31.112 35.5582 31.3433 35.5207 31.5284 35.4455C31.7134 35.3703 31.8522 35.2662 31.9448 35.1332C32.0373 35.0002 32.0835 34.8441 32.0835 34.6648C32.0835 34.474 32.0344 34.3149 31.9361 34.1877C31.8436 34.0547 31.6961 33.9333 31.4937 33.8234C31.2971 33.7077 31.0311 33.5863 30.6957 33.4591C30.4644 33.3723 30.2533 33.2769 30.0624 33.1728C29.8774 33.063 29.7126 32.9357 29.568 32.7912C29.4292 32.6466 29.3222 32.4789 29.2471 32.2881C29.1719 32.0972 29.1343 31.8746 29.1343 31.6201C29.1343 31.279 29.2182 30.9869 29.3859 30.744C29.5593 30.5012 29.7964 30.3161 30.0971 30.1889C30.3978 30.0559 30.7477 29.9894 31.1467 29.9894C31.4821 29.9894 31.7915 30.0241 32.0749 30.0935C32.364 30.1571 32.6387 30.2467 32.8989 30.3624L32.604 31.1344C32.3669 31.0361 32.1269 30.9551 31.884 30.8915C31.6412 30.8279 31.3867 30.7961 31.1207 30.7961C30.8894 30.7961 30.6957 30.8308 30.5395 30.9002C30.3834 30.9696 30.2648 31.065 30.1839 31.1864C30.1087 31.3079 30.0711 31.4495 30.0711 31.6115C30.0711 31.8023 30.1145 31.9613 30.2012 32.0885C30.288 32.2158 30.4268 32.3343 30.6176 32.4442C30.8084 32.5483 31.06 32.6639 31.3723 32.7912C31.7192 32.9242 32.0141 33.0687 32.257 33.2249C32.5057 33.381 32.6936 33.569 32.8209 33.7887C32.9481 34.0027 33.0117 34.2716 33.0117 34.5954ZM35.0398 31.5941V36.2695H34.1203V31.5941H35.0398ZM34.5887 29.8159C34.7275 29.8159 34.8489 29.8564 34.953 29.9373C35.0571 30.0183 35.1092 30.1542 35.1092 30.345C35.1092 30.5301 35.0571 30.666 34.953 30.7527C34.8489 30.8337 34.7275 30.8742 34.5887 30.8742C34.4383 30.8742 34.3111 30.8337 34.207 30.7527C34.1087 30.666 34.0596 30.5301 34.0596 30.345C34.0596 30.1542 34.1087 30.0183 34.207 29.9373C34.3111 29.8564 34.4383 29.8159 34.5887 29.8159ZM37.4032 36.2695H36.4837V29.6771H37.4032V36.2695ZM39.8967 36.2695L38.1271 31.5941H39.0986L40.0701 34.3265C40.1106 34.4422 40.1511 34.5723 40.1916 34.7168C40.2378 34.8614 40.2783 35.0002 40.313 35.1332C40.3477 35.2662 40.3709 35.3819 40.3824 35.4802H40.4171C40.4345 35.3819 40.4605 35.2662 40.4952 35.1332C40.5357 34.9944 40.579 34.8556 40.6253 34.7168C40.6716 34.5723 40.712 34.4422 40.7467 34.3265L41.7183 31.5941H42.6898L40.9115 36.2695H39.8967ZM45.2519 31.5074C45.6624 31.5074 46.0152 31.5941 46.3101 31.7676C46.605 31.9353 46.8306 32.1782 46.9867 32.4962C47.1486 32.8143 47.2296 33.1902 47.2296 33.6239V34.127H44.0895C44.1011 34.607 44.2254 34.9742 44.4625 35.2286C44.7054 35.4831 45.0437 35.6103 45.4774 35.6103C45.7781 35.6103 46.0441 35.5843 46.2754 35.5322C46.5125 35.4744 46.7554 35.3905 47.004 35.2807V36.044C46.7727 36.1481 46.5356 36.2262 46.2928 36.2782C46.0557 36.3303 45.7723 36.3563 45.4427 36.3563C44.9916 36.3563 44.5926 36.2666 44.2456 36.0874C43.8987 35.9081 43.6269 35.6421 43.4303 35.2893C43.2394 34.9308 43.144 34.4913 43.144 33.9709C43.144 33.4446 43.2308 32.9993 43.4042 32.635C43.5835 32.2707 43.8293 31.9931 44.1415 31.8023C44.4596 31.6057 44.8297 31.5074 45.2519 31.5074ZM45.2519 32.2187C44.9222 32.2187 44.6562 32.3256 44.4538 32.5396C44.2572 32.7536 44.1415 33.0572 44.1069 33.4504H46.3101C46.3101 33.2075 46.2725 32.9936 46.1973 32.8085C46.1222 32.6235 46.0065 32.4789 45.8504 32.3748C45.6942 32.2707 45.4947 32.2187 45.2519 32.2187ZM50.6842 31.5074C50.7652 31.5074 50.8548 31.5132 50.9531 31.5247C51.0514 31.5305 51.1324 31.5392 51.196 31.5507L51.1006 32.4095C51.037 32.3921 50.9618 32.3777 50.8751 32.3661C50.7883 32.3546 50.7074 32.3488 50.6322 32.3488C50.4587 32.3488 50.291 32.3835 50.1291 32.4529C49.9729 32.5165 49.8313 32.6119 49.704 32.7391C49.5768 32.8606 49.4756 33.0109 49.4004 33.1902C49.331 33.3694 49.2964 33.5747 49.2964 33.806V36.2695H48.3769V31.5941H49.1055L49.227 32.4268H49.2617C49.36 32.2591 49.4785 32.1059 49.6173 31.9671C49.7561 31.8283 49.9151 31.7184 50.0944 31.6375C50.2736 31.5507 50.4703 31.5074 50.6842 31.5074Z" fill="white" fill-opacity="0.44"/>
<path d="M56.1539 30.0761C56.9635 30.0761 57.5534 30.2409 57.9235 30.5706C58.2936 30.8944 58.4786 31.3483 58.4786 31.9324C58.4786 32.1926 58.4353 32.4413 58.3485 32.6784C58.2676 32.9155 58.1317 33.1295 57.9408 33.3203C57.75 33.5053 57.4956 33.6528 57.1775 33.7627C56.8652 33.8668 56.4807 33.9188 56.0238 33.9188H55.3559V36.2695H54.4191V30.0761H56.1539ZM56.0846 30.8655H55.3559V33.1295H55.9197C56.2725 33.1295 56.5674 33.0919 56.8045 33.0167C57.0416 32.9357 57.218 32.8114 57.3336 32.6437C57.4551 32.4702 57.5158 32.2447 57.5158 31.9671C57.5158 31.597 57.4001 31.3223 57.1688 31.1431C56.9433 30.958 56.5819 30.8655 56.0846 30.8655ZM61.4392 31.5074C62.029 31.5074 62.4685 31.6375 62.7577 31.8977C63.0468 32.1522 63.1914 32.5541 63.1914 33.1034V36.2695H62.5408L62.3587 35.619H62.324C62.191 35.7867 62.0522 35.9255 61.9076 36.0353C61.7688 36.1452 61.6069 36.2262 61.4219 36.2782C61.2426 36.3303 61.0228 36.3563 60.7626 36.3563C60.485 36.3563 60.2335 36.3071 60.008 36.2088C59.7882 36.1047 59.6147 35.9486 59.4875 35.7404C59.3603 35.5264 59.2967 35.2604 59.2967 34.9424C59.2967 34.4682 59.4759 34.1068 59.8345 33.8581C60.1988 33.6094 60.751 33.4735 61.4912 33.4504L62.2893 33.4244V33.1642C62.2893 32.8172 62.2112 32.5743 62.0551 32.4355C61.8989 32.2967 61.6792 32.2273 61.3958 32.2273C61.153 32.2273 60.9216 32.262 60.7019 32.3314C60.4821 32.4008 60.274 32.4847 60.0773 32.583L59.7824 31.9151C60.0022 31.7994 60.2537 31.704 60.5371 31.6288C60.8262 31.5479 61.1269 31.5074 61.4392 31.5074ZM61.6561 34.0403C61.124 34.0634 60.7539 34.153 60.5458 34.3092C60.3434 34.4595 60.2422 34.6735 60.2422 34.951C60.2422 35.1939 60.3144 35.3703 60.459 35.4802C60.6094 35.59 60.7973 35.645 61.0228 35.645C61.3872 35.645 61.6879 35.5438 61.925 35.3414C62.1621 35.139 62.2806 34.8354 62.2806 34.4306V34.0229L61.6561 34.0403ZM66.9145 31.5074C66.9955 31.5074 67.0851 31.5132 67.1834 31.5247C67.2818 31.5305 67.3627 31.5392 67.4263 31.5507L67.3309 32.4095C67.2673 32.3921 67.1921 32.3777 67.1054 32.3661C67.0186 32.3546 66.9377 32.3488 66.8625 32.3488C66.689 32.3488 66.5213 32.3835 66.3594 32.4529C66.2033 32.5165 66.0616 32.6119 65.9344 32.7391C65.8071 32.8606 65.7059 33.0109 65.6308 33.1902C65.5614 33.3694 65.5267 33.5747 65.5267 33.806V36.2695H64.6072V31.5941H65.3358L65.4573 32.4268H65.492C65.5903 32.2591 65.7088 32.1059 65.8476 31.9671C65.9864 31.8283 66.1454 31.7184 66.3247 31.6375C66.504 31.5507 66.7006 31.5074 66.9145 31.5074ZM69.9749 35.6103C70.0963 35.6103 70.2206 35.5987 70.3478 35.5756C70.4751 35.5525 70.5849 35.5264 70.6775 35.4975V36.1915C70.5792 36.2377 70.4462 36.2753 70.2785 36.3042C70.1108 36.3389 69.943 36.3563 69.7753 36.3563C69.5209 36.3563 69.2867 36.3129 69.0727 36.2262C68.8646 36.1394 68.6968 35.9891 68.5696 35.7751C68.4424 35.5611 68.3788 35.2633 68.3788 34.8817V32.2967H67.7282V31.8804L68.4135 31.5334L68.7344 30.5445H69.2983V31.5941H70.6341V32.2967H69.2983V34.8643C69.2983 35.1187 69.359 35.3067 69.4804 35.4281C69.6076 35.5496 69.7725 35.6103 69.9749 35.6103ZM73.9807 31.5074C74.5243 31.5074 74.9407 31.6433 75.2298 31.9151C75.519 32.1869 75.6635 32.6235 75.6635 33.2249V36.2695H74.7527V33.355C74.7527 32.9907 74.6747 32.7189 74.5185 32.5396C74.3682 32.3546 74.1253 32.262 73.7899 32.262C73.3157 32.262 72.9861 32.4037 72.801 32.6871C72.6218 32.9704 72.5321 33.3781 72.5321 33.9101V36.2695H71.6127V31.5941H72.3413L72.4714 32.2187H72.5235C72.6275 32.0567 72.7548 31.9237 72.9051 31.8196C73.0555 31.7156 73.2232 31.6375 73.4082 31.5854C73.5933 31.5334 73.7841 31.5074 73.9807 31.5074ZM78.9154 31.5074C79.3259 31.5074 79.6787 31.5941 79.9736 31.7676C80.2685 31.9353 80.4941 32.1782 80.6502 32.4962C80.8121 32.8143 80.8931 33.1902 80.8931 33.6239V34.127H77.753C77.7646 34.607 77.8889 34.9742 78.126 35.2286C78.3689 35.4831 78.7072 35.6103 79.1409 35.6103C79.4416 35.6103 79.7076 35.5843 79.9389 35.5322C80.176 35.4744 80.4189 35.3905 80.6675 35.2807V36.044C80.4362 36.1481 80.1991 36.2262 79.9563 36.2782C79.7192 36.3303 79.4358 36.3563 79.1062 36.3563C78.6551 36.3563 78.2561 36.2666 77.9091 36.0874C77.5622 35.9081 77.2904 35.6421 77.0938 35.2893C76.9029 34.9308 76.8075 34.4913 76.8075 33.9709C76.8075 33.4446 76.8943 32.9993 77.0677 32.635C77.247 32.2707 77.4928 31.9931 77.8051 31.8023C78.1231 31.6057 78.4932 31.5074 78.9154 31.5074ZM78.9154 32.2187C78.5857 32.2187 78.3197 32.3256 78.1173 32.5396C77.9207 32.7536 77.8051 33.0572 77.7704 33.4504H79.9736C79.9736 33.2075 79.936 32.9936 79.8608 32.8085C79.7857 32.6235 79.67 32.4789 79.5139 32.3748C79.3577 32.2707 79.1582 32.2187 78.9154 32.2187ZM84.3477 31.5074C84.4287 31.5074 84.5183 31.5132 84.6166 31.5247C84.7149 31.5305 84.7959 31.5392 84.8595 31.5507L84.7641 32.4095C84.7005 32.3921 84.6253 32.3777 84.5386 32.3661C84.4518 32.3546 84.3709 32.3488 84.2957 32.3488C84.1222 32.3488 83.9545 32.3835 83.7926 32.4529C83.6364 32.5165 83.4948 32.6119 83.3675 32.7391C83.2403 32.8606 83.1391 33.0109 83.0639 33.1902C82.9945 33.3694 82.9599 33.5747 82.9599 33.806V36.2695H82.0404V31.5941H82.769L82.8905 32.4268H82.9252C83.0235 32.2591 83.142 32.1059 83.2808 31.9671C83.4196 31.8283 83.5786 31.7184 83.7579 31.6375C83.9371 31.5507 84.1338 31.5074 84.3477 31.5074Z" fill="white"/>
<rect x="7.49902" y="16.8633" width="8.61512" height="8.61512" fill="#EB5321"/>
<rect x="17.5498" y="16.8633" width="8.61512" height="8.61512" fill="#7FBA00"/>
<rect x="17.5498" y="26.9141" width="8.61512" height="8.61512" fill="#FCBB01"/>
<rect x="7.49902" y="26.9141" width="8.61512" height="8.61512" fill="#08A1EF"/>
</svg>
