<svg width="16" height="16" viewBox="0 0 16 16" fill="none" xmlns="http://www.w3.org/2000/svg">
<path d="M3.49176 8.90826L14.7535 9.02769C15.007 9.03002 15.2217 8.94476 15.3977 8.77192C15.5734 8.5995 15.6623 8.38657 15.6647 8.13314C15.667 7.8797 15.5818 7.66496 15.4089 7.48891C15.2365 7.31329 15.0236 7.22431 14.7701 7.22198L3.50807 7.13423L8.36758 2.3633C8.54875 2.18544 8.64066 1.97507 8.64332 1.7322C8.64513 1.48933 8.5571 1.27731 8.37924 1.09614C8.20138 0.914974 7.99101 0.823063 7.74814 0.820406C7.50526 0.818595 7.29324 0.90662 7.11208 1.08448L0.717985 7.36202C0.53682 7.53988 0.445121 7.75004 0.442891 7.99249C0.440653 8.23579 0.528466 8.44802 0.70633 8.62918L6.98387 15.0233C7.16173 15.2044 7.3721 15.2959 7.61498 15.2977C7.85785 15.3004 8.06986 15.2128 8.25103 15.0349C8.43219 14.8571 8.52368 14.6467 8.5255 14.4038C8.52815 14.161 8.44055 13.9489 8.26268 13.7678L3.49176 8.90826Z" fill="white" fill-opacity="0.5"/>
</svg>
