<svg width="23" height="23" viewBox="0 0 23 23" fill="none" xmlns="http://www.w3.org/2000/svg">
<g clip-path="url(#clip0_1893_202)">
<path d="M11.5 23C17.8403 23 23 17.8403 23 11.5C23 5.15968 17.8404 0 11.5 0C5.15961 0 0 5.15968 0 11.5C0 17.8403 5.15968 23 11.5 23ZM11.5 1.53331C16.997 1.53331 21.4667 6.00296 21.4667 11.5C21.4667 16.997 16.997 21.4667 11.5 21.4667C6.00296 21.4667 1.53331 16.997 1.53331 11.5C1.53331 6.00296 6.00302 1.53331 11.5 1.53331Z" fill="#6A7282"/>
<path d="M14.8611 15.1648C15.0029 15.2797 15.1715 15.3334 15.3402 15.3334C15.5664 15.3334 15.7887 15.2338 15.9382 15.0459C16.2027 14.7163 16.149 14.2333 15.8194 13.9688L12.2735 11.1321V5.36675C12.2735 4.94508 11.9286 4.6001 11.5069 4.6001C11.0852 4.6001 10.7402 4.94508 10.7402 5.36675V11.5001C10.7402 11.734 10.8476 11.9524 11.0277 12.0981L14.8611 15.1648Z" fill="#6A7282"/>
</g>
<defs>
<clipPath id="clip0_1893_202">
<rect width="23" height="23" fill="white"/>
</clipPath>
</defs>
</svg>
