<svg width="20" height="20" viewBox="0 0 20 20" fill="none" xmlns="http://www.w3.org/2000/svg">
<g clip-path="url(#clip0_476_1073)">
<path d="M10 20C15.5228 20 20 15.5228 20 10C20 4.47715 15.5228 0 10 0C4.47715 0 0 4.47715 0 10C0 15.5228 4.47715 20 10 20Z" fill="#4B5563"/>
<path d="M12.2812 4.57022C12.2802 4.5705 12.1228 4.61925 11.857 4.70151C11.8127 4.55745 11.7472 4.3805 11.654 4.20272C11.3534 3.62932 10.9134 3.32581 10.3815 3.32503C10.3809 3.32503 10.3803 3.32503 10.3797 3.32503C10.3428 3.32503 10.3061 3.3285 10.2693 3.33182C10.2537 3.313 10.2379 3.29432 10.2212 3.27651C9.98968 3.02866 9.69234 2.90792 9.33644 2.91835C8.64941 2.93803 7.96554 3.43413 7.41082 4.31514C7.02035 4.93522 6.72371 5.71417 6.63937 6.31706C5.8507 6.56128 5.29886 6.73217 5.28695 6.73592C4.88882 6.86085 4.87632 6.87335 4.82414 7.24846C4.7846 7.53241 3.74304 15.5876 3.74304 15.5876L12.3858 17.0822V4.55253C12.3432 4.55526 12.3051 4.56319 12.2812 4.57022ZM10.2855 5.18815C9.82812 5.32975 9.32878 5.48436 8.82792 5.63948C8.96894 5.10003 9.23585 4.56296 9.56386 4.21108C9.68589 4.08018 9.8566 3.93417 10.0587 3.85077C10.2489 4.24698 10.2901 4.8087 10.2855 5.18815ZM9.3496 3.3755C9.51089 3.37214 9.64675 3.40753 9.76277 3.48385C9.57722 3.58018 9.39773 3.7187 9.22937 3.89925C8.793 4.36733 8.45878 5.09413 8.3255 5.79503C7.90953 5.92382 7.50269 6.04979 7.12843 6.16569C7.36449 5.0619 8.28937 3.40596 9.3496 3.3755ZM8.01293 9.66174C8.05933 10.397 9.99359 10.5576 10.1023 12.2798C10.1878 13.6346 9.38367 14.5614 8.22488 14.6346C6.83437 14.7224 6.06867 13.9019 6.06867 13.9019L6.36332 12.6483C6.36332 12.6483 7.13386 13.2296 7.75066 13.1907C8.15355 13.1653 8.29753 12.8376 8.28289 12.6058C8.22234 11.6467 6.64726 11.7032 6.54777 10.1273C6.46402 8.80092 7.33496 7.45725 9.25675 7.33589C9.99722 7.28913 10.3764 7.47819 10.3764 7.47819L9.93691 9.12217C9.93691 9.12217 9.44671 8.89897 8.86554 8.93565C8.01347 8.98948 8.00441 9.52702 8.01293 9.66174ZM10.7421 5.04675C10.7371 4.69889 10.6955 4.21503 10.5335 3.79675C11.0547 3.89553 11.3114 4.4853 11.4197 4.83694C11.2188 4.89913 10.99 4.96999 10.7421 5.04675Z" fill="white"/>
<path d="M12.6716 17.0482L16.2571 16.157C16.2571 16.157 14.7133 5.71983 14.7035 5.64823C14.6937 5.57663 14.631 5.53706 14.5793 5.53272C14.5276 5.52843 13.5183 5.51304 13.5183 5.51304C13.5183 5.51304 12.9028 4.91534 12.6716 4.68921V17.0482Z" fill="white"/>
</g>
<defs>
<clipPath id="clip0_476_1073">
<rect width="20" height="20" fill="white"/>
</clipPath>
</defs>
</svg>
