<svg width="45" height="44" viewBox="0 0 45 44" fill="none" xmlns="http://www.w3.org/2000/svg">
<g clip-path="url(#clip0_419_10327)">
<path d="M0.833374 18.4945C0.833374 14.7677 4.3999 11.7466 8.79943 11.7466H36.8673C41.2668 11.7466 44.8334 14.7677 44.8334 18.4945V28.2419C44.8334 31.9687 41.2668 34.9898 36.8673 34.9898H8.79943C4.39989 34.9898 0.833374 31.9687 0.833374 28.2419V18.4945Z" fill="#F3F4F6"/>
<path d="M17.7834 16.6833L11.2667 10.1667C14.1167 7.68332 17.75 6.09998 21.75 5.81665V15.05C20.2667 15.2667 18.9334 15.8333 17.7834 16.6833ZM16.0167 18.45L9.50002 11.9333C7.01669 14.7833 5.43336 18.4166 5.15002 22.4167H14.3834C14.6 20.9333 15.1667 19.6 16.0167 18.45ZM31.6167 22.4167H40.85C40.5667 18.4166 38.9834 14.7833 36.5 11.9333L29.9834 18.45C30.8334 19.6 31.4167 20.9333 31.6167 22.4167ZM31.6167 24.9167C31.35 26.7833 30.5334 28.5 29.1834 29.85C28.95 30.0833 28.8167 30.4 28.8167 30.7333C28.8167 31.0667 28.95 31.3833 29.1834 31.6167L33.9 36.3333C34.15 36.5833 34.4667 36.7 34.7834 36.7C35.1 36.7 35.4167 36.5833 35.6667 36.3333C38.75 33.25 40.5667 29.2333 40.85 24.9167H31.6167ZM17.1667 30.7333C17.1667 30.4 17.0334 30.0833 16.8 29.85C15.45 28.5166 14.6167 26.7833 14.3667 24.9167H5.15002C5.45002 29.2333 7.25002 33.25 10.3334 36.3333C10.8167 36.8167 11.6167 36.8167 12.1 36.3333L16.8167 31.6167C17.05 31.3833 17.1834 31.0667 17.1834 30.7333H17.1667ZM34.7167 10.1667C31.8667 7.68332 28.2334 6.09998 24.2334 5.81665V15.05C25.7167 15.2667 27.05 15.8333 28.2 16.6833L34.7167 10.1667ZM27.9834 35.75H17.9834C17.3 35.75 16.7334 36.3166 16.7334 37C16.7334 37.6833 17.3 38.25 17.9834 38.25H27.9834C28.6667 38.25 29.2334 37.6833 29.2334 37C29.2334 36.3166 28.6667 35.75 27.9834 35.75ZM26.7834 19.1667C26.15 18.9167 25.4167 19.2167 25.1667 19.8667L22.8 25.7667C21.2834 25.8666 20.0667 27.1166 20.0667 28.6667C20.0667 30.2167 21.3834 31.5833 22.9834 31.5833C24.5834 31.5833 25.9 30.2666 25.9 28.6667C25.9 27.9 25.6 27.2167 25.1167 26.7L27.4834 20.8C27.7334 20.1666 27.4334 19.4333 26.7834 19.1833V19.1667Z" fill="#0400F5"/>
</g>
<defs>
<clipPath id="clip0_419_10327">
<rect width="44" height="44" fill="white" transform="translate(0.833374)"/>
</clipPath>
</defs>
</svg>
