<svg width="20" height="20" viewBox="0 0 20 20" fill="none" xmlns="http://www.w3.org/2000/svg">
<path d="M14.4983 19.3324H4.83262C2.1675 19.3324 -0.000228882 17.1638 -0.000228882 14.4995V9.37577C-0.000228882 8.68341 0.355924 8.05993 0.953116 7.70923C1.54669 7.35944 2.26623 7.34856 2.87157 7.68567L9.66544 11.4602L16.4602 7.68567C17.0656 7.34856 17.7833 7.35944 18.3787 7.70923C18.9759 8.05993 19.332 8.68341 19.332 9.37577V14.4986C19.332 17.1637 17.1635 19.3324 14.4983 19.3324ZM1.93272 9.37484V14.4986C1.93272 16.0981 3.23315 17.3985 4.83262 17.3985H14.4992C16.0987 17.3985 17.3991 16.0981 17.3991 14.4986V9.37484L10.135 13.4103C9.84412 13.5725 9.48706 13.5725 9.19707 13.4103L1.93272 9.37484Z" fill="white"/>
<path d="M9.6654 13.5323C9.50409 13.5323 9.34189 13.4915 9.19599 13.4108L2.42926 9.65187C2.12297 9.4806 1.93266 9.15799 1.93266 8.80638V4.8326C1.93266 2.16748 4.10125 -0.000244141 6.76551 -0.000244141H12.5653C15.2304 -0.000244141 17.3981 2.16834 17.3981 4.8326V8.80638C17.3981 9.15799 17.2078 9.48059 16.9006 9.65097L10.1339 13.4099C9.98891 13.4915 9.8267 13.5323 9.6654 13.5323ZM3.86562 8.23729L9.6654 11.459L15.4652 8.23729V4.83259C15.4652 3.23312 14.1648 1.93269 12.5653 1.93269H6.76551C5.16604 1.93269 3.86562 3.23312 3.86562 4.83259V8.23729Z" fill="white"/>
<path d="M11.5978 5.79858H7.73093C7.19716 5.79858 6.76489 5.36631 6.76489 4.83254C6.76489 4.29877 7.19716 3.8656 7.73183 3.8656H11.5987C12.1333 3.8656 12.5656 4.29877 12.5656 4.83254C12.5647 5.36631 12.1324 5.79858 11.5978 5.79858Z" fill="white"/>
<path d="M9.66478 8.69829H7.73183C7.19716 8.69829 6.76489 8.26511 6.76489 7.73135C6.76489 7.19758 7.19716 6.7644 7.73183 6.7644H9.66478C10.1995 6.7644 10.6317 7.19758 10.6317 7.73135C10.6317 8.26602 10.1995 8.69829 9.66478 8.69829Z" fill="white"/>
</svg>
