<svg width="22" height="22" viewBox="0 0 22 22" fill="none" xmlns="http://www.w3.org/2000/svg">
<g clip-path="url(#clip0_2132_8683)">
<path fill-rule="evenodd" clip-rule="evenodd" d="M0.916565 11.0006C0.916565 5.43182 5.43115 0.917236 10.9999 0.917236C16.5686 0.917236 21.0832 5.43182 21.0832 11.0006C21.0832 16.5693 16.5686 21.0839 10.9999 21.0839C5.43115 21.0839 0.916565 16.5693 0.916565 11.0006ZM10.9999 19.2506C9.91649 19.2506 8.8437 19.0372 7.84276 18.6226C6.84182 18.208 5.93235 17.6003 5.16627 16.8342C4.40018 16.0681 3.79249 15.1586 3.37789 14.1577C2.96329 13.1568 2.7499 12.084 2.7499 11.0006C2.7499 9.91716 2.96329 8.84437 3.37789 7.84343C3.79249 6.84249 4.40018 5.93302 5.16627 5.16694C5.93235 4.40086 6.84182 3.79316 7.84276 3.37856C8.8437 2.96396 9.91649 2.75057 10.9999 2.75057C13.1879 2.75057 15.2864 3.61976 16.8335 5.16694C18.3807 6.71411 19.2499 8.81253 19.2499 11.0006C19.2499 13.1886 18.3807 15.287 16.8335 16.8342C15.2864 18.3814 13.1879 19.2506 10.9999 19.2506Z" fill="url(#paint0_linear_2132_8683)"/>
<path d="M9.38929 14.9543L5.49988 11.064L6.79604 9.76781L9.38929 12.3601L14.574 7.17456L15.871 8.47164L9.38929 14.9543Z" fill="url(#paint1_linear_2132_8683)"/>
</g>
<defs>
<linearGradient id="paint0_linear_2132_8683" x1="21.0832" y1="11.0006" x2="0.916565" y2="11.0006" gradientUnits="userSpaceOnUse">
<stop offset="0.217722" stop-color="#0B147C"/>
<stop offset="1" stop-color="#4B1BAC"/>
</linearGradient>
<linearGradient id="paint1_linear_2132_8683" x1="15.871" y1="11.0644" x2="5.49988" y2="11.0644" gradientUnits="userSpaceOnUse">
<stop offset="0.217722" stop-color="#0B147C"/>
<stop offset="1" stop-color="#4B1BAC"/>
</linearGradient>
<clipPath id="clip0_2132_8683">
<rect width="22" height="22" fill="white"/>
</clipPath>
</defs>
</svg>
