<svg width="20" height="20" viewBox="0 0 20 20" fill="none" xmlns="http://www.w3.org/2000/svg">
<g clip-path="url(#clip0_1175_4494)">
<path opacity="0.5" d="M20 10C20 4.47715 15.5228 0 10 0C4.47715 0 0 4.47715 0 10C0 15.5228 4.47715 20 10 20C15.5228 20 20 15.5228 20 10Z" fill="white"/>
<path d="M16.6668 9.99992C16.6668 6.31802 13.6821 3.33325 10.0002 3.33325C6.31826 3.33325 3.3335 6.31802 3.3335 9.99992C3.3335 13.6818 6.31826 16.6666 10.0002 16.6666C13.6821 16.6666 16.6668 13.6818 16.6668 9.99992Z" fill="white"/>
<path d="M6.6665 10.001L8.8885 12.2239L13.3332 7.77808" stroke="#0400F5" stroke-width="2"/>
<path d="M6.6665 9.9995L8.8885 12.2224L13.3332 7.77661" stroke="#0400F5" stroke-width="2"/>
</g>
<defs>
<clipPath id="clip0_1175_4494">
<rect width="20" height="20" rx="10" fill="white"/>
</clipPath>
</defs>
</svg>
