<svg width="20" height="20" viewBox="0 0 20 20" fill="none" xmlns="http://www.w3.org/2000/svg">
<g clip-path="url(#clip0_2132_8391)">
<circle cx="10" cy="9.99996" r="8.33333" fill="white"/>
<path fill-rule="evenodd" clip-rule="evenodd" d="M0.833336 10C0.833336 4.93754 4.9375 0.833374 10 0.833374C15.0625 0.833374 19.1667 4.93754 19.1667 10C19.1667 15.0625 15.0625 19.1667 10 19.1667C4.9375 19.1667 0.833336 15.0625 0.833336 10ZM10 17.5C9.01509 17.5 8.03982 17.306 7.12988 16.9291C6.21993 16.5522 5.39314 15.9998 4.6967 15.3033C4.00026 14.6069 3.44782 13.7801 3.07091 12.8702C2.694 11.9602 2.5 10.985 2.5 10C2.5 9.01513 2.694 8.03986 3.07091 7.12991C3.44782 6.21997 4.00026 5.39318 4.6967 4.69674C5.39314 4.0003 6.21993 3.44785 7.12988 3.07094C8.03982 2.69403 9.01509 2.50004 10 2.50004C11.9891 2.50004 13.8968 3.29022 15.3033 4.69674C16.7098 6.10326 17.5 8.01092 17.5 10C17.5 11.9892 16.7098 13.8968 15.3033 15.3033C13.8968 16.7099 11.9891 17.5 10 17.5Z" fill="url(#paint0_linear_2132_8391)"/>
<path d="M8.53583 13.5951L5 10.0584L6.17833 8.88008L8.53583 11.2367L13.2492 6.52258L14.4283 7.70175L8.53583 13.5951Z" fill="url(#paint1_linear_2132_8391)"/>
</g>
<defs>
<linearGradient id="paint0_linear_2132_8391" x1="19.1667" y1="10" x2="0.833336" y2="10" gradientUnits="userSpaceOnUse">
<stop offset="0.217722" stop-color="#0B147C"/>
<stop offset="1" stop-color="#4B1BAC"/>
</linearGradient>
<linearGradient id="paint1_linear_2132_8391" x1="14.4283" y1="10.0588" x2="5" y2="10.0588" gradientUnits="userSpaceOnUse">
<stop offset="0.217722" stop-color="#0B147C"/>
<stop offset="1" stop-color="#4B1BAC"/>
</linearGradient>
<clipPath id="clip0_2132_8391">
<rect width="20" height="20" fill="white"/>
</clipPath>
</defs>
</svg>
