<svg width="20" height="20" viewBox="0 0 20 20" fill="none" xmlns="http://www.w3.org/2000/svg">
<g clip-path="url(#clip0_3190_24542)">
<path fill-rule="evenodd" clip-rule="evenodd" d="M0.833374 10.0007C0.833374 4.93815 4.93754 0.833984 10 0.833984C15.0625 0.833984 19.1667 4.93815 19.1667 10.0007C19.1667 15.0631 15.0625 19.1673 10 19.1673C4.93754 19.1673 0.833374 15.0631 0.833374 10.0007ZM10 17.5006C9.01513 17.5007 8.03986 17.3067 7.12991 16.9297C6.21997 16.5528 5.39318 16.0004 4.69674 15.304C4.0003 14.6075 3.44785 13.7807 3.07094 12.8708C2.69403 11.9608 2.50004 10.9856 2.50004 10.0007C2.50004 9.01574 2.69403 8.04047 3.07094 7.13052C3.44785 6.22058 4.0003 5.39379 4.69674 4.69735C5.39318 4.00091 6.21997 3.44846 7.12991 3.07155C8.03986 2.69464 9.01513 2.50065 10 2.50065C11.9892 2.50065 13.8968 3.29083 15.3033 4.69735C16.7099 6.10387 17.5 8.01153 17.5 10.0007C17.5 11.9898 16.7099 13.8974 15.3033 15.304C13.8968 16.7105 11.9892 17.5006 10 17.5006Z" fill="white"/>
<path d="M8.53583 13.5959L5 10.0593L6.17833 8.88094L8.53583 11.2376L13.2492 6.52344L14.4283 7.7026L8.53583 13.5959Z" fill="#FFAD00"/>
</g>
<defs>
<clipPath id="clip0_3190_24542">
<rect width="20" height="20" fill="white"/>
</clipPath>
</defs>
</svg>
