<svg width="20" height="20" viewBox="0 0 20 20" fill="none" xmlns="http://www.w3.org/2000/svg">
<path fill-rule="evenodd" clip-rule="evenodd" d="M0.833008 9.99992C0.833008 4.93742 4.93717 0.833252 9.99967 0.833252C15.0622 0.833252 19.1663 4.93742 19.1663 9.99992C19.1663 15.0624 15.0622 19.1666 9.99967 19.1666C4.93717 19.1666 0.833008 15.0624 0.833008 9.99992ZM9.99967 17.4999C9.01476 17.4999 8.03949 17.3059 7.12955 16.929C6.21961 16.5521 5.39281 15.9997 4.69637 15.3032C3.99993 14.6068 3.44749 13.78 3.07058 12.87C2.69367 11.9601 2.49967 10.9848 2.49967 9.99992C2.49967 9.015 2.69367 8.03973 3.07058 7.12979C3.44749 6.21985 3.99993 5.39306 4.69637 4.69662C5.39281 4.00018 6.21961 3.44773 7.12955 3.07082C8.03949 2.69391 9.01476 2.49992 9.99967 2.49992C11.9888 2.49992 13.8965 3.29009 15.303 4.69662C16.7095 6.10314 17.4997 8.01079 17.4997 9.99992C17.4997 11.989 16.7095 13.8967 15.303 15.3032C13.8965 16.7097 11.9888 17.4999 9.99967 17.4999Z" fill="url(#paint0_linear_2653_10782)"/>
<path d="M8.53583 13.595L5 10.0583L6.17833 8.87996L8.53583 11.2366L13.2492 6.52246L14.4283 7.70163L8.53583 13.595Z" fill="url(#paint1_linear_2653_10782)"/>
<defs>
<linearGradient id="paint0_linear_2653_10782" x1="19.1663" y1="9.99992" x2="0.833008" y2="9.99992" gradientUnits="userSpaceOnUse">
<stop offset="0.217722" stop-color="#0B147C"/>
<stop offset="1" stop-color="#4B1BAC"/>
</linearGradient>
<linearGradient id="paint1_linear_2653_10782" x1="14.4283" y1="10.0587" x2="5" y2="10.0587" gradientUnits="userSpaceOnUse">
<stop offset="0.217722" stop-color="#0B147C"/>
<stop offset="1" stop-color="#4B1BAC"/>
</linearGradient>
</defs>
</svg>
