<svg width="20" height="20" viewBox="0 0 20 20" fill="none" xmlns="http://www.w3.org/2000/svg">
<g clip-path="url(#clip0_3190_24337)">
<circle cx="10.0001" cy="9.99935" r="8.33333" fill="white"/>
<path fill-rule="evenodd" clip-rule="evenodd" d="M0.833252 10.0007C0.833252 4.93815 4.93742 0.833984 9.99992 0.833984C15.0624 0.833984 19.1666 4.93815 19.1666 10.0007C19.1666 15.0631 15.0624 19.1673 9.99992 19.1673C4.93742 19.1673 0.833252 15.0631 0.833252 10.0007ZM9.99992 17.5006C9.015 17.5007 8.03973 17.3067 7.12979 16.9297C6.21985 16.5528 5.39306 16.0004 4.69662 15.304C4.00018 14.6075 3.44773 13.7807 3.07082 12.8708C2.69391 11.9608 2.49992 10.9856 2.49992 10.0007C2.49992 9.01574 2.69391 8.04047 3.07082 7.13052C3.44773 6.22058 4.00018 5.39379 4.69662 4.69735C5.39306 4.00091 6.21985 3.44846 7.12979 3.07155C8.03973 2.69464 9.015 2.50065 9.99992 2.50065C11.989 2.50065 13.8967 3.29083 15.3032 4.69735C16.7097 6.10387 17.4999 8.01153 17.4999 10.0007C17.4999 11.9898 16.7097 13.8974 15.3032 15.304C13.8967 16.7105 11.989 17.5006 9.99992 17.5006Z" fill="#FFAD00"/>
<path d="M8.53583 13.5959L5 10.0593L6.17833 8.88094L8.53583 11.2376L13.2492 6.52344L14.4283 7.7026L8.53583 13.5959Z" fill="#FFAD00"/>
</g>
<defs>
<clipPath id="clip0_3190_24337">
<rect width="20" height="20" fill="white"/>
</clipPath>
</defs>
</svg>
