<svg width="22" height="22" viewBox="0 0 22 22" fill="none" xmlns="http://www.w3.org/2000/svg">
<g clip-path="url(#clip0_1860_4919)">
<path d="M20.8875 11.19L9.94954 0.251964C9.61391 -0.0836624 9.0698 -0.0836624 8.73422 0.251964C8.39863 0.58759 8.39859 1.1317 8.73422 1.46728L9.52308 2.25614L5.55176 10.7264L1.61328 14.6649C0.608074 15.6701 0.608074 17.3057 1.61328 18.3109L2.82864 19.5262C3.83621 20.5338 5.46707 20.5338 6.47464 19.5262L7.48156 18.5193L10.1853 21.223C10.6745 21.7242 11.3293 22 12.0299 22C13.4515 22 14.608 20.8435 14.608 19.4219C14.608 18.7213 14.3322 18.0665 13.831 17.5773L11.3855 15.1318L18.8834 11.6164L19.6722 12.4052C20.0078 12.7409 20.552 12.7409 20.8875 12.4052C21.2231 12.0697 21.2231 11.5255 20.8875 11.19ZM5.25928 18.3109C4.92344 18.6468 4.37984 18.6467 4.04396 18.3109L2.8286 17.0955C2.49353 16.7605 2.49353 16.2153 2.8286 15.8802L6.2659 12.4429L8.69658 14.8736L5.25928 18.3109ZM12.6285 18.8054C12.7967 18.9687 12.8893 19.1877 12.8893 19.422C12.8893 19.8959 12.5038 20.2814 12.0299 20.2814C11.7956 20.2814 11.5766 20.1888 11.4133 20.0207C11.4104 20.0177 8.69679 17.304 8.69679 17.304L9.91185 16.089C9.91194 16.0889 12.6255 18.8025 12.6285 18.8054ZM10.0931 13.8395L7.29998 11.0463L10.8154 3.5485L17.591 10.324L10.0931 13.8395Z" fill="white"/>
<path d="M17.7655 5.57667C17.9807 5.99965 18.4981 6.16813 18.9211 5.95295L20.6704 5.06302C21.0934 4.84779 21.2619 4.3304 21.0466 3.90738C20.8314 3.48435 20.3141 3.31591 19.891 3.5311L18.1418 4.42102C17.7187 4.63625 17.5503 5.15364 17.7655 5.57667Z" fill="white"/>
<path d="M15.5636 3.37482C15.9867 3.59001 16.5041 3.42153 16.7192 2.9985L17.6091 1.2492C17.8244 0.826172 17.6559 0.308785 17.2329 0.0935976C16.8098 -0.12159 16.2925 0.0468476 16.0773 0.469918L15.1874 2.21922C14.9721 2.64225 15.1406 3.15963 15.5636 3.37482Z" fill="white"/>
</g>
<defs>
<clipPath id="clip0_1860_4919">
<rect width="22" height="22" fill="white"/>
</clipPath>
</defs>
</svg>
