<svg width="21" height="22" viewBox="0 0 21 22" fill="none" xmlns="http://www.w3.org/2000/svg">
<path d="M20.0282 11.19L9.09016 0.251964C8.75454 -0.0836624 8.21043 -0.0836624 7.87484 0.251964C7.53926 0.58759 7.53922 1.1317 7.87484 1.46728L8.6637 2.25614L4.69239 10.7264L0.753902 14.6649C-0.251301 15.6701 -0.251301 17.3057 0.753902 18.3109L1.96926 19.5262C2.97683 20.5338 4.6077 20.5338 5.61526 19.5262L6.62219 18.5193L9.32589 21.223C9.81517 21.7242 10.47 22 11.1706 22C12.5921 22 13.7487 20.8435 13.7487 19.4219C13.7487 18.7213 13.4728 18.0665 12.9716 17.5773L10.5262 15.1318L18.024 11.6164L18.8128 12.4052C19.1485 12.7409 19.6926 12.7409 20.0282 12.4052C20.3637 12.0697 20.3637 11.5255 20.0282 11.19ZM4.3999 18.3109C4.06406 18.6468 3.52047 18.6467 3.18458 18.3109L1.96922 17.0955C1.63415 16.7605 1.63415 16.2153 1.96922 15.8802L5.40652 12.4429L7.8372 14.8736L4.3999 18.3109ZM11.7692 18.8054C11.9373 18.9687 12.0299 19.1877 12.0299 19.422C12.0299 19.8959 11.6444 20.2814 11.1705 20.2814C10.9362 20.2814 10.7172 20.1888 10.5539 20.0207C10.551 20.0177 7.83742 17.304 7.83742 17.304L9.05248 16.089C9.05256 16.0889 11.7661 18.8025 11.7692 18.8054ZM9.23376 13.8395L6.4406 11.0463L9.95602 3.5485L16.7316 10.324L9.23376 13.8395Z" fill="white"/>
<path d="M16.9051 5.57667C17.1203 5.99965 17.6378 6.16813 18.0607 5.95295L19.81 5.06302C20.233 4.84779 20.4015 4.3304 20.1863 3.90738C19.9711 3.48435 19.4537 3.31591 19.0307 3.5311L17.2814 4.42102C16.8584 4.63625 16.6899 5.15364 16.9051 5.57667Z" fill="white"/>
<path d="M14.7033 3.37482C15.1263 3.59001 15.6437 3.42153 15.8589 2.9985L16.7488 1.2492C16.964 0.826172 16.7955 0.308785 16.3725 0.0935976C15.9495 -0.12159 15.4321 0.0468476 15.2169 0.469918L14.327 2.21922C14.1118 2.64225 14.2803 3.15963 14.7033 3.37482Z" fill="white"/>
</svg>
