<svg width="14" height="14" viewBox="0 0 14 14" fill="none" xmlns="http://www.w3.org/2000/svg">
<path d="M11.0829 4.05906L2.08271 13.0846C1.87989 13.2874 1.63887 13.3889 1.35965 13.3889C1.08111 13.3889 0.840428 13.2874 0.637607 13.0846C0.434785 12.8818 0.333374 12.6408 0.333374 12.3616C0.333374 12.083 0.434785 11.8423 0.637607 11.6395L9.66318 2.6393H1.95595C1.66862 2.6393 1.4276 2.54229 1.23289 2.34825C1.03886 2.15354 0.941839 1.91252 0.941839 1.62519C0.941839 1.33786 1.03886 1.09684 1.23289 0.902134C1.4276 0.708101 1.66862 0.611084 1.95595 0.611084H12.097C12.3844 0.611084 12.6251 0.708101 12.8191 0.902134C13.0138 1.09684 13.1112 1.33786 13.1112 1.62519V11.7663C13.1112 12.0536 13.0138 12.2943 12.8191 12.4883C12.6251 12.683 12.3844 12.7804 12.097 12.7804C11.8097 12.7804 11.569 12.683 11.375 12.4883C11.1803 12.2943 11.0829 12.0536 11.0829 11.7663V4.05906Z" fill="#05164D"/>
</svg>
