<svg width="72" height="17" viewBox="0 0 72 17" fill="none" xmlns="http://www.w3.org/2000/svg">
<g clip-path="url(#clip0_483_1537)">
<path d="M0.921509 6.17484L7.32008 6.17609L11.2108 6.17674V2.3999L0.921509 6.17484Z" fill="#9CA3AF"/>
<path d="M11.2108 2.39987V15.734L16.0703 0.616455L11.2108 2.39987Z" fill="#9CA3AF"/>
<path d="M11.2108 6.17667L7.32007 6.17603L11.2108 15.734V6.17667Z" fill="#9CA3AF"/>
<path d="M0.921509 6.1748L8.31782 8.62849L7.32008 6.17606L0.921509 6.1748Z" fill="#9CA3AF"/>
<path d="M24.4925 12.224C24.4361 12.2792 24.3421 12.3482 24.2107 12.431C24.079 12.514 23.9076 12.5968 23.6962 12.6797C23.4849 12.7625 23.2263 12.8337 22.9211 12.8938C22.6156 12.9535 22.2658 12.9835 21.8712 12.9835C21.1101 12.9835 20.4523 12.8637 19.898 12.6245C19.3435 12.3853 18.8855 12.0513 18.5239 11.6233C18.1621 11.1952 17.8968 10.6889 17.7277 10.1042C17.5585 9.51964 17.474 8.87756 17.474 8.17779C17.474 7.47831 17.5656 6.83141 17.7488 6.23762C17.932 5.64378 18.2068 5.13073 18.5732 4.69783C18.9397 4.26525 19.3977 3.92687 19.9474 3.68283C20.497 3.43906 21.1429 3.31689 21.8852 3.31689C22.2517 3.31689 22.5829 3.34922 22.8788 3.41355C23.1748 3.47802 23.4331 3.55403 23.654 3.64141C23.8746 3.72902 24.0579 3.8209 24.2037 3.9176C24.3492 4.01425 24.4596 4.095 24.5349 4.15923C24.6194 4.23307 24.6921 4.32045 24.7533 4.4216C24.8144 4.52303 24.8449 4.6335 24.8449 4.75307C24.8449 4.93733 24.7745 5.12137 24.6335 5.30544C24.4926 5.48971 24.3376 5.66001 24.1684 5.8164C24.0557 5.70593 23.9288 5.59332 23.7879 5.47811C23.647 5.36305 23.4895 5.26189 23.3158 5.17428C23.1418 5.08691 22.9445 5.0133 22.7238 4.95333C22.503 4.89355 22.2564 4.86354 21.984 4.86354C21.5048 4.86354 21.1031 4.95807 20.779 5.14664C20.4548 5.33545 20.1941 5.58163 19.9968 5.88546C19.7995 6.18929 19.6585 6.53686 19.5739 6.92806C19.4894 7.31946 19.4471 7.71758 19.4471 8.1226C19.4471 8.55541 19.4894 8.96967 19.5739 9.36538C19.6585 9.76127 19.804 10.1112 20.0109 10.4149C20.2174 10.7187 20.4876 10.9627 20.8212 11.1468C21.1546 11.3311 21.5704 11.423 22.0685 11.423C22.3314 11.423 22.5735 11.3908 22.7943 11.3264C23.0149 11.262 23.21 11.1837 23.3792 11.0915C23.5483 10.9996 23.6963 10.903 23.8231 10.8016C23.95 10.7004 24.0557 10.613 24.1402 10.5392C24.1966 10.6037 24.2622 10.6821 24.3375 10.774C24.4132 10.8669 24.4838 10.9637 24.5489 11.064C24.6146 11.1654 24.6709 11.2666 24.718 11.3677C24.7649 11.4692 24.7885 11.5611 24.7885 11.6438C24.7885 11.7637 24.7649 11.8649 24.718 11.9477C24.6709 12.0306 24.5958 12.1228 24.4925 12.224ZM31.7555 11.1648C31.7555 11.8966 31.864 12.4291 32.0816 12.7626C31.9115 12.8273 31.7531 12.8736 31.6066 12.9014C31.46 12.9292 31.3065 12.9431 31.1458 12.9431C30.8056 12.9431 30.5479 12.8782 30.3731 12.7486C30.1981 12.6191 30.0871 12.4338 30.04 12.1929C29.8319 12.4061 29.5578 12.5866 29.2176 12.7349C28.8773 12.8828 28.4612 12.9571 27.9699 12.9571C27.7147 12.9571 27.4595 12.9224 27.2043 12.8534C26.949 12.7838 26.7173 12.6709 26.5095 12.5141C26.3014 12.3571 26.1314 12.147 25.9991 11.8839C25.8666 11.6207 25.8005 11.2999 25.8005 10.9215C25.8005 10.4506 25.9162 10.0674 26.1479 9.77208C26.3795 9.4765 26.6701 9.24345 27.02 9.07259C27.3696 8.90191 27.7477 8.78443 28.1542 8.71964C28.5606 8.65494 28.9341 8.61353 29.2743 8.59484C29.3878 8.5857 29.4987 8.58092 29.6075 8.58092H29.9123V8.32806C29.9123 7.97206 29.8153 7.71915 29.6217 7.56939C29.4278 7.41959 29.1135 7.3445 28.6788 7.3445C28.2723 7.3445 27.9107 7.40939 27.5942 7.53897C27.2773 7.66879 26.9678 7.81683 26.6655 7.98356C26.533 7.82615 26.4266 7.65255 26.3464 7.46258C26.2661 7.27289 26.2259 7.13158 26.2259 7.03886C26.2259 6.90928 26.299 6.78424 26.4457 6.66375C26.5922 6.54353 26.7931 6.43454 27.0483 6.33729C27.3036 6.24003 27.5964 6.16146 27.9274 6.10112C28.2581 6.04097 28.6079 6.01082 28.9766 6.01082C29.487 6.01082 29.9194 6.06184 30.2739 6.16364C30.6284 6.26568 30.9166 6.42304 31.1388 6.63597C31.3608 6.84917 31.5192 7.1153 31.6137 7.4348C31.7081 7.75435 31.7556 8.12729 31.7556 8.55314L31.7555 11.1648ZM29.9406 9.55335H29.7422C29.6759 9.55335 29.6097 9.55818 29.5437 9.56731C29.3072 9.58596 29.0733 9.61369 28.8419 9.65056C28.6101 9.68771 28.4045 9.75255 28.2251 9.84512C28.0454 9.93779 27.899 10.0583 27.7856 10.2063C27.6721 10.3546 27.6154 10.5445 27.6154 10.776C27.6154 11.0353 27.6909 11.2551 27.8422 11.4358C27.9933 11.6164 28.2485 11.7067 28.6079 11.7067C28.7873 11.7067 28.9575 11.6837 29.1183 11.6372C29.2789 11.5911 29.4207 11.5308 29.5437 11.4567C29.6664 11.3826 29.7634 11.3016 29.8343 11.2135C29.9052 11.1256 29.9407 11.0446 29.9407 10.9705L29.9406 9.55335ZM35.2857 6.81652C35.4364 6.6407 35.6721 6.46228 35.9924 6.28163C36.3128 6.10103 36.7179 6.01073 37.208 6.01073C37.5567 6.01073 37.8888 6.06866 38.2046 6.18438C38.52 6.30028 38.8005 6.48788 39.0455 6.74705C39.2905 7.00644 39.486 7.34919 39.6322 7.77509C39.7782 8.20122 39.8513 8.7246 39.8513 9.34492C39.8513 10.0673 39.7663 10.6626 39.5968 11.1301C39.4271 11.598 39.2081 11.9685 38.9397 12.2416C38.6711 12.5148 38.3718 12.707 38.0422 12.8181C37.7123 12.9292 37.3824 12.9849 37.0528 12.9849C36.7795 12.9849 36.5414 12.9548 36.339 12.8946C36.1363 12.8343 35.9644 12.7673 35.823 12.6931C35.6817 12.6191 35.5734 12.5451 35.4981 12.4708C35.4228 12.3968 35.3756 12.3457 35.3568 12.3179V15.733H33.4285V6.2052C33.4759 6.19611 33.5331 6.18679 33.5999 6.17746C33.6571 6.16837 33.7238 6.16137 33.8 6.15659C33.8761 6.15205 33.9666 6.14968 34.0713 6.14968C34.3855 6.14968 34.6522 6.2007 34.8713 6.3025C35.0903 6.40454 35.2286 6.57577 35.2857 6.81652ZM37.8379 9.38657C37.8379 9.10876 37.8144 8.8496 37.7674 8.60866C37.7205 8.36795 37.6429 8.15952 37.5348 7.98351C37.4267 7.80764 37.2809 7.67092 37.0977 7.57361C36.9142 7.4764 36.6912 7.42785 36.4282 7.42785C36.0334 7.42785 35.7585 7.50205 35.6034 7.65005C35.4484 7.79832 35.3708 7.96051 35.3708 8.13633V11.0816C35.4459 11.1558 35.5797 11.2436 35.7724 11.3455C35.9652 11.4475 36.1882 11.4983 36.4421 11.4983C36.9215 11.4983 37.274 11.3132 37.4995 10.9426C37.7251 10.5723 37.8379 10.0535 37.8379 9.38657ZM41.3395 11.7762C41.2732 11.5911 41.2307 11.3965 41.2119 11.1927C41.1929 10.989 41.1835 10.7853 41.1835 10.5813V4.13521C41.2496 4.12612 41.3205 4.11679 41.3962 4.10743C41.4622 4.09834 41.5331 4.09143 41.6088 4.0866C41.6844 4.08206 41.76 4.07969 41.8357 4.07969C41.9868 4.07969 42.1382 4.09361 42.2894 4.12134C42.4405 4.14917 42.5776 4.20473 42.7007 4.28803C42.8234 4.37137 42.9226 4.48495 42.9984 4.6284C43.0739 4.77209 43.1118 4.95969 43.1118 5.19103V6.17737H45.0968V7.58062H43.1118V10.5432C43.1118 11.1892 43.3811 11.5122 43.92 11.5122C44.0523 11.5122 44.1774 11.4914 44.2957 11.4497C44.4138 11.408 44.5201 11.3618 44.6147 11.3108C44.7092 11.2599 44.792 11.2066 44.8629 11.151C44.9338 11.0954 44.9834 11.0538 45.0117 11.026C45.1535 11.2299 45.262 11.4064 45.3378 11.5553C45.4134 11.7044 45.4512 11.8443 45.4512 11.9751C45.4512 12.0967 45.4017 12.216 45.3024 12.3328C45.203 12.4496 45.0635 12.5573 44.884 12.6554C44.7044 12.7535 44.4871 12.8329 44.2319 12.8937C43.9767 12.9545 43.6977 12.9849 43.3953 12.9849C42.8091 12.9849 42.3532 12.8737 42.0271 12.6515C41.701 12.4291 41.4717 12.1374 41.3395 11.7762ZM49.9805 11.5956C50.2175 11.5956 50.4262 11.5702 50.6066 11.5191C50.7867 11.4684 50.9479 11.4058 51.0903 11.3317C51.2325 11.2577 51.3559 11.1766 51.4603 11.0886C51.5646 11.0007 51.6594 10.9196 51.7449 10.8454C51.8586 10.9842 51.9771 11.1627 52.1005 11.3802C52.2238 11.598 52.2855 11.7762 52.2855 11.9151C52.2855 12.1189 52.1672 12.3041 51.9311 12.4708C51.7326 12.6191 51.4511 12.7465 51.0875 12.8528C50.7234 12.9592 50.2956 13.0126 49.8043 13.0126C49.3598 13.0126 48.9227 12.9571 48.4928 12.8459C48.0626 12.7348 47.6797 12.5403 47.3444 12.2624C47.0087 11.9846 46.7369 11.6119 46.529 11.1441C46.3211 10.6764 46.2171 10.0861 46.2171 9.37275C46.2171 8.78921 46.3093 8.28697 46.4935 7.86543C46.6779 7.44408 46.9236 7.09443 47.231 6.81657C47.538 6.53871 47.8853 6.33511 48.273 6.20525C48.6605 6.07571 49.0576 6.01078 49.464 6.01078C49.9933 6.01078 50.4423 6.09199 50.8109 6.2539C51.1796 6.41604 51.4795 6.63374 51.7113 6.90687C51.9427 7.18009 52.1105 7.49268 52.2146 7.84461C52.3184 8.19667 52.3705 8.56701 52.3705 8.95599V9.15046C52.3705 9.22476 52.3681 9.30328 52.3635 9.38662C52.3586 9.47006 52.354 9.55122 52.3493 9.62974C52.3444 9.70863 52.3373 9.77106 52.3281 9.81734H48.1454C48.1833 10.3268 48.3445 10.7504 48.629 11.0886C48.9134 11.4267 49.3639 11.5956 49.9805 11.5956ZM50.6266 8.77534C50.6266 8.3308 50.5386 7.9696 50.3627 7.69174C50.1868 7.41393 49.8706 7.27493 49.4145 7.27493C49.0246 7.27493 48.7133 7.40697 48.4805 7.67092C48.2474 7.93491 48.1312 8.30302 48.1312 8.7753L50.6266 8.77534ZM55.7262 6.85163C55.7828 6.76898 55.8584 6.67715 55.953 6.57595C56.0474 6.47485 56.1633 6.38297 56.3004 6.30032C56.4373 6.21763 56.5886 6.14857 56.7541 6.09347C56.9193 6.03833 57.0966 6.01078 57.2859 6.01078C57.3992 6.01078 57.5198 6.0201 57.6474 6.03833C57.775 6.05679 57.893 6.09129 58.0017 6.14166C58.1104 6.19226 58.1979 6.26104 58.2641 6.34833C58.3302 6.43561 58.3634 6.54349 58.3634 6.672C58.3634 6.87408 58.3113 7.10616 58.2074 7.36816C58.1033 7.63038 57.9995 7.85398 57.8955 8.03912C57.7346 7.90949 57.574 7.80992 57.4134 7.74044C57.2526 7.67101 57.0636 7.63623 56.8462 7.63623C56.5532 7.63623 56.3075 7.71985 56.1091 7.88695C55.9104 8.0541 55.8112 8.25381 55.8112 8.48603V12.9834H53.883V6.2052C53.9302 6.19611 53.9869 6.18679 54.0531 6.17746C54.1098 6.16837 54.1759 6.16137 54.2516 6.15659C54.3272 6.15205 54.4169 6.14968 54.521 6.14968C54.8234 6.14968 55.0857 6.20715 55.3079 6.32184C55.5299 6.4364 55.6695 6.6131 55.7262 6.85163ZM61.2085 6.85163C61.2652 6.76898 61.3407 6.67715 61.4354 6.57595C61.5297 6.47485 61.6456 6.38297 61.7827 6.30032C61.9197 6.21763 62.0709 6.14857 62.2364 6.09347C62.4017 6.03833 62.5789 6.01078 62.7681 6.01078C62.8815 6.01078 63.002 6.0201 63.1296 6.03833C63.2572 6.05679 63.3753 6.09129 63.4841 6.14166C63.5927 6.19226 63.6801 6.26104 63.7465 6.34833C63.8125 6.43561 63.8457 6.54349 63.8457 6.672C63.8457 6.87408 63.7936 7.10616 63.6898 7.36816C63.5855 7.63038 63.4817 7.85398 63.3778 8.03912C63.217 7.90949 63.0562 7.80992 62.8957 7.74044C62.7349 7.67101 62.5459 7.63623 62.3286 7.63623C62.0355 7.63623 61.7898 7.71985 61.5913 7.88695C61.3928 8.0541 61.2936 8.25381 61.2936 8.48603V12.9834H59.3653V6.2052C59.4125 6.19611 59.4692 6.18679 59.5355 6.17746C59.5922 6.16837 59.6583 6.16137 59.734 6.15659C59.8095 6.15205 59.8992 6.14968 60.0033 6.14968C60.3058 6.14968 60.5681 6.20715 60.7902 6.32184C61.0121 6.4364 61.1517 6.6131 61.2085 6.85163ZM70.4104 11.1648C70.4104 11.8966 70.519 12.4291 70.7365 12.7626C70.5663 12.8273 70.408 12.8736 70.2616 12.9014C70.1149 12.9292 69.9614 12.9431 69.8008 12.9431C69.4604 12.9431 69.2028 12.8782 69.0281 12.7486C68.853 12.6191 68.742 12.4338 68.6948 12.1929C68.4868 12.4061 68.2127 12.5866 67.8725 12.7349C67.5322 12.8828 67.1161 12.9571 66.6248 12.9571C66.3695 12.9571 66.1144 12.9224 65.8591 12.8534C65.6039 12.7838 65.3721 12.6709 65.1644 12.5141C64.9563 12.3571 64.7862 12.147 64.6539 11.8839C64.5215 11.6207 64.4555 11.2999 64.4555 10.9215C64.4555 10.4506 64.571 10.0674 64.8029 9.77208C65.0343 9.4765 65.3251 9.24345 65.6749 9.07259C66.0244 8.90191 66.4025 8.78443 66.8092 8.71964C67.2154 8.65494 67.5889 8.61353 67.9292 8.59484C68.0427 8.5857 68.1536 8.58092 68.2625 8.58092H68.5673V8.32806C68.5673 7.97206 68.4702 7.71915 68.2765 7.56939C68.0826 7.41959 67.7684 7.3445 67.3337 7.3445C66.9272 7.3445 66.5657 7.40939 66.2491 7.53897C65.9323 7.66879 65.6228 7.81683 65.3203 7.98356C65.1879 7.82615 65.0814 7.65255 65.0013 7.46258C64.921 7.27289 64.8808 7.13158 64.8808 7.03886C64.8808 6.90928 64.9539 6.78424 65.1006 6.66375C65.2471 6.54353 65.448 6.43454 65.7032 6.33729C65.9584 6.24003 66.2513 6.16146 66.5822 6.10112C66.913 6.04097 67.2628 6.01082 67.6314 6.01082C68.1418 6.01082 68.5743 6.06184 68.9288 6.16364C69.2832 6.26568 69.5714 6.42304 69.7936 6.63597C70.0156 6.84917 70.1739 7.1153 70.2687 7.4348C70.3629 7.75435 70.4104 8.12729 70.4104 8.55314V11.1648ZM68.5955 9.55335H68.397C68.3308 9.55335 68.2646 9.55818 68.1986 9.56731C67.9622 9.58596 67.7282 9.61369 67.4967 9.65056C67.265 9.68771 67.0595 9.75255 66.88 9.84512C66.7003 9.93779 66.5538 10.0583 66.4404 10.2063C66.327 10.3546 66.2703 10.5445 66.2703 10.776C66.2703 11.0353 66.3459 11.2551 66.4971 11.4358C66.6482 11.6164 66.9035 11.7067 67.2628 11.7067C67.4423 11.7067 67.6125 11.6837 67.7732 11.6372C67.9339 11.5911 68.0756 11.5308 68.1986 11.4567C68.3212 11.3826 68.4184 11.3016 68.4892 11.2135C68.5601 11.1256 68.5956 11.0446 68.5956 10.9705L68.5955 9.55335Z" fill="#9CA3AF"/>
</g>
<defs>
<clipPath id="clip0_483_1537">
<rect width="71" height="16" fill="white" transform="translate(0.5 0.26709)"/>
</clipPath>
</defs>
</svg>
