<svg width="92" height="17" viewBox="0 0 92 17" fill="none" xmlns="http://www.w3.org/2000/svg">
<path d="M23.5365 6.23555L17.4476 0.146586C17.2371 -0.0488621 16.9214 -0.0488621 16.7259 0.146586L15.5231 1.34935L20.4094 6.23555C20.6048 6.431 20.6048 6.76176 20.4094 6.95721L15.3728 11.9938L16.5756 13.1965C16.786 13.392 17.1018 13.392 17.2972 13.1965L23.5215 6.97224C23.732 6.76176 23.732 6.44604 23.5365 6.23555Z" fill="#9CA3AF"/>
<path d="M13.1628 0.597722L12.7268 0.161723C12.5163 -0.0337254 12.2006 -0.0337254 12.0051 0.161723L10.8024 1.36448L11.5992 2.16131L13.1628 3.7249L14.7264 2.16131L13.1628 0.597722Z" fill="#9CA3AF"/>
<path d="M13.0274 9.64844L11.4638 11.212L10.667 12.0088L11.8698 13.2116C12.0802 13.4071 12.396 13.4071 12.5914 13.2116L13.0274 12.7756L14.591 11.212L13.0274 9.64844Z" fill="#9CA3AF"/>
<path d="M15.7036 6.23562C15.8991 6.4461 15.8991 6.76183 15.7036 6.95728L13.0275 9.63341L14.5911 11.197L18.8308 6.95728C19.0262 6.76183 19.0262 6.43107 18.8308 6.23562L14.7414 2.14624L13.1628 3.70983L15.7036 6.23562Z" fill="#9CA3AF"/>
<path d="M5.76585 6.3859L10.0056 2.14618L8.44199 0.582585L7.99096 0.146586C7.78047 -0.0488621 7.46475 -0.0488621 7.2693 0.146586L1.04502 6.3859C0.849575 6.58135 0.849575 6.91211 1.04502 7.10756L7.13399 13.1965C7.34447 13.392 7.6602 13.392 7.85565 13.1965L8.30668 12.7605L9.87027 11.1969L5.78089 7.10756C5.5704 6.91211 5.5704 6.59638 5.76585 6.3859Z" fill="#9CA3AF"/>
<path d="M10.4867 6.38582L12.3509 4.52155L10.7873 2.95796L9.99052 2.16113L5.78086 6.40086C5.58542 6.59631 5.58542 6.92706 5.78086 7.12251L9.85521 11.1969L10.652 10.4L12.2156 8.83645L10.4867 7.10748C10.2912 6.92707 10.2912 6.59631 10.4867 6.38582Z" fill="#9CA3AF"/>
<path d="M10.4866 7.10766L12.2156 8.83663L14.0799 6.97235C14.2753 6.7769 14.2753 6.44614 14.0799 6.25069L12.3509 4.52173L10.4866 6.386C10.3062 6.59649 10.3062 6.91221 10.4866 7.10766Z" fill="#9CA3AF"/>
<path d="M28.4228 4.95777C28.4378 4.26618 28.5731 3.58963 28.8287 2.94315C29.0693 2.3568 29.4301 1.81556 29.8811 1.37956C30.3773 0.928529 30.9636 0.582734 31.595 0.372251C32.3618 0.116665 33.1737 -0.00361 33.9705 0.0114245C34.8726 -0.0186445 35.7746 0.116668 36.6166 0.417357C37.2179 0.642875 37.7893 0.97363 38.2704 1.40963C38.6462 1.74039 38.9319 2.14632 39.1273 2.59736C39.2777 2.92812 39.3679 3.27391 39.413 3.63474C39.428 3.77005 39.3829 3.90536 39.2777 3.99556C39.1724 4.08577 39.0521 4.13087 38.9168 4.13087H37.4284C37.3082 4.13087 37.2029 4.10081 37.1127 4.02563C37.0375 3.9655 36.9774 3.89032 36.9473 3.81515C36.9173 3.77004 36.8571 3.66481 36.7519 3.49943C36.6166 3.30398 36.4512 3.12356 36.2557 2.98825C35.9851 2.7928 35.6844 2.62743 35.3687 2.50715C34.9327 2.35681 34.4516 2.28163 33.9855 2.29667C33.1887 2.25156 32.3919 2.52218 31.7755 3.03336C31.2192 3.54453 30.9035 4.26618 30.8884 5.03294C30.8584 5.49901 30.8584 5.99515 30.8584 6.53639C30.8584 7.0626 30.8584 7.57377 30.8884 8.03984C30.9185 9.06218 31.2192 9.79888 31.7755 10.2499C32.4069 10.731 33.1887 10.9716 33.9705 10.9415C34.3915 10.9415 34.8124 10.8964 35.2184 10.7912C35.5792 10.7009 35.9099 10.5356 36.1956 10.31C36.4813 10.0845 36.7068 9.78384 36.8421 9.43805C37.0075 9.01708 37.0826 8.56605 37.0676 8.11501V7.96467H34.8275C34.6922 7.96467 34.5719 7.91956 34.4817 7.81432C34.3915 7.72411 34.3313 7.60384 34.3313 7.46853V6.16053C34.3313 5.88991 34.5568 5.66439 34.8275 5.66439H39.0672C39.3378 5.66439 39.5633 5.88991 39.5633 6.16053V8.17515C39.5784 8.86673 39.4581 9.55832 39.2175 10.2048C38.992 10.8062 38.6312 11.3474 38.1651 11.7985C37.669 12.2645 37.0676 12.6254 36.4211 12.8509C34.8425 13.347 33.1436 13.347 31.5499 12.8509C30.9185 12.6404 30.3321 12.2946 29.851 11.8436C29.4 11.3925 29.0392 10.8513 28.8137 10.2499C28.5731 9.60343 28.4378 8.91184 28.4228 8.22025C28.4228 7.99474 28.4077 7.72412 28.3927 7.4535C28.3927 7.16784 28.3927 6.88219 28.3927 6.5815C28.3927 6.28081 28.3927 5.99515 28.3927 5.72453C28.3927 5.43887 28.4077 5.19832 28.4228 4.95777Z" fill="#9CA3AF"/>
<path d="M45.2313 5.52897C44.9156 5.51394 44.6149 5.57408 44.3142 5.67932C44.0737 5.76952 43.8632 5.90483 43.6828 6.08525C43.5174 6.23559 43.3821 6.43104 43.2919 6.64152C43.2017 6.82194 43.1415 7.01738 43.1265 7.21283H47.276C47.246 7.01738 47.2009 6.82194 47.1407 6.64152C47.0655 6.43104 46.9603 6.25062 46.81 6.08525C46.6446 5.90483 46.4341 5.76952 46.2086 5.67932C45.8929 5.55904 45.5621 5.51394 45.2313 5.52897ZM40.736 8.28028C40.736 7.61876 40.8413 6.97228 41.0518 6.34083C41.2472 5.75449 41.5479 5.21325 41.9538 4.74718C42.3447 4.29614 42.8409 3.93532 43.3821 3.69476C43.9684 3.43918 44.5999 3.30387 45.2313 3.30387C45.8628 3.28883 46.4942 3.42414 47.0806 3.67973C47.6218 3.92028 48.118 4.26608 48.5239 4.70208C48.9148 5.13808 49.2305 5.63421 49.441 6.19049C49.6515 6.7618 49.7718 7.36318 49.7567 7.97959V8.80649C49.7567 9.07711 49.5312 9.30263 49.2606 9.30263H43.1265C43.1265 9.55821 43.1867 9.8138 43.2919 10.0393C43.4122 10.2498 43.5625 10.4302 43.758 10.5655C43.9684 10.7159 44.194 10.8211 44.4345 10.8963C44.6901 10.9715 44.9607 11.0015 45.2313 11.0015C45.5471 11.0166 45.8778 10.9715 46.1936 10.8812C46.404 10.8211 46.6145 10.7159 46.7949 10.5806C46.9002 10.5054 47.0054 10.4302 47.1257 10.3701C47.2309 10.325 47.3512 10.3099 47.4715 10.3099H48.9449C49.0802 10.3099 49.2155 10.3701 49.3057 10.4603C49.4109 10.5505 49.456 10.6708 49.441 10.8061C49.3959 11.0466 49.3057 11.2721 49.1553 11.4676C48.9449 11.7833 48.6742 12.0539 48.3585 12.2644C47.9526 12.5501 47.5015 12.7756 47.0355 12.9259C46.4491 13.1214 45.8327 13.2116 45.2313 13.1966C44.5999 13.1966 43.9684 13.0763 43.3821 12.8357C42.8409 12.6102 42.3447 12.2644 41.9538 11.8284C41.5479 11.3624 41.2472 10.8361 41.0518 10.2498C40.8262 9.63339 40.721 8.95683 40.736 8.28028Z" fill="#9CA3AF"/>
<path d="M54.1618 9.60323C54.1468 9.93399 54.252 10.2647 54.4625 10.5053C54.6579 10.7308 55.0338 10.8511 55.5901 10.8511H56.7026C56.9733 10.8511 57.1988 11.0766 57.1988 11.3472V12.565C57.1988 12.8356 56.9733 13.0612 56.7026 13.0612H55.3345C54.1768 13.0612 53.3048 12.7755 52.6884 12.2192C52.072 11.663 51.7713 10.806 51.7563 9.66337V5.7093H50.5385C50.4032 5.7093 50.2829 5.6642 50.1927 5.55896C50.1025 5.46875 50.0424 5.34847 50.0424 5.21316V3.99537C50.0424 3.86006 50.0875 3.73979 50.1927 3.64958C50.2829 3.55937 50.4032 3.49923 50.5385 3.49923H51.7563V0.507367C51.7563 0.236746 51.9818 0.0112305 52.2524 0.0112305H53.6506C53.9213 0.0112305 54.1468 0.236746 54.1468 0.507367V3.49923H56.5222C56.7928 3.51427 56.9883 3.72475 57.0033 3.99537V5.21316C57.0033 5.48379 56.7778 5.7093 56.5072 5.7093H54.1317L54.1618 9.60323Z" fill="#9CA3AF"/>
<path d="M66.2345 8.26526L64.2049 3.03326L62.1902 8.26526H66.2345ZM65.2122 0.191739C65.3776 0.176705 65.5279 0.236843 65.6482 0.342084C65.7685 0.477395 65.8587 0.64277 65.9188 0.80815L70.4141 12.4298C70.4291 12.4749 70.4291 12.52 70.4291 12.5501C70.4291 12.8207 70.2036 13.0462 69.933 13.0462H68.61C68.4296 13.0613 68.2341 13.0162 68.0988 12.8959C68.0086 12.8057 67.9485 12.7004 67.9034 12.5952L67.1065 10.5505H61.3032L60.5064 12.5952C60.4613 12.7155 60.3861 12.8057 60.3109 12.8959C60.1606 13.0162 59.9802 13.0763 59.7998 13.0462H58.4767C58.2061 13.0462 57.9806 12.8207 57.9806 12.5501C57.9806 12.505 57.9806 12.4599 57.9956 12.4298L62.4909 0.80815C62.5511 0.64277 62.6413 0.477395 62.7616 0.342084C62.8818 0.236843 63.0472 0.176705 63.1976 0.191739H65.2122Z" fill="#9CA3AF"/>
<path d="M78.3073 8.79156C78.3373 8.44576 78.3373 8.09997 78.3073 7.76921C78.2321 6.97239 77.9915 6.40108 77.5706 6.05528C77.1496 5.69446 76.6084 5.51404 76.0521 5.52908C75.4958 5.51404 74.9546 5.69446 74.5336 6.05528C74.0976 6.44618 73.8571 7.00245 73.827 7.57376C73.7969 7.79928 73.7819 8.03983 73.7969 8.26535C73.7969 8.5059 73.812 8.73142 73.827 8.95694C73.8571 9.52825 74.1126 10.0695 74.5336 10.4604C74.9546 10.8362 75.4958 11.0317 76.0521 11.0167C76.6084 11.0317 77.1496 10.8363 77.5706 10.4905C77.9915 10.1447 78.2321 9.57335 78.3073 8.79156ZM76.6084 13.2418C76.2626 13.2418 75.9168 13.2117 75.586 13.1365C75.3154 13.0764 75.0448 12.9862 74.7892 12.8659C74.5937 12.7607 74.3983 12.6404 74.2179 12.49C74.0826 12.3848 73.9473 12.2645 73.827 12.1292V16.0382C73.827 16.3088 73.6015 16.5343 73.3308 16.5343H71.9477C71.6771 16.5343 71.4515 16.3088 71.4515 16.0382V3.99556C71.4515 3.72494 71.6771 3.49942 71.9477 3.49942H73.3459C73.6165 3.49942 73.842 3.72494 73.842 3.99556V4.41652C73.9623 4.28121 74.0826 4.16093 74.2329 4.05569C74.4133 3.92038 74.6088 3.80011 74.8193 3.69487C75.0748 3.57459 75.3455 3.48439 75.6161 3.42425C75.9469 3.34908 76.2926 3.319 76.6384 3.319C77.2097 3.30397 77.7811 3.43928 78.3073 3.67983C78.7884 3.90535 79.2244 4.23611 79.5702 4.64204C79.931 5.04797 80.2016 5.51404 80.3971 6.02521C80.5925 6.55142 80.7128 7.09266 80.7428 7.64893C80.7579 7.82935 80.7579 8.03983 80.7579 8.29542C80.7579 8.55101 80.7579 8.76149 80.7428 8.9419C80.7128 9.49818 80.6075 10.0545 80.3971 10.5656C80.2016 11.0768 79.931 11.5429 79.5702 11.9488C79.2244 12.3547 78.7884 12.6705 78.3073 12.911C77.751 13.1365 77.1797 13.2568 76.6084 13.2418Z" fill="#9CA3AF"/>
<path d="M88.6961 8.79156C88.7262 8.44576 88.7262 8.09997 88.6961 7.76921C88.6209 6.97239 88.3804 6.40108 87.9594 6.05528C87.5384 5.69446 86.9972 5.51404 86.4409 5.52908C85.8847 5.51404 85.3434 5.69446 84.9224 6.05528C84.4864 6.44618 84.2459 7.00245 84.2158 7.57376C84.1858 7.79928 84.1707 8.03983 84.1858 8.26535C84.1858 8.5059 84.2008 8.73142 84.2158 8.95694C84.2459 9.52825 84.5015 10.0695 84.9224 10.4604C85.3434 10.8362 85.8847 11.0317 86.4409 11.0167C86.9972 11.0317 87.5384 10.8363 87.9594 10.4905C88.3804 10.1447 88.6209 9.57335 88.6961 8.79156ZM86.9822 13.2267C86.6364 13.2267 86.2906 13.1967 85.9598 13.1215C85.6892 13.0614 85.4186 12.9711 85.163 12.8509C84.9525 12.7456 84.7571 12.6254 84.5917 12.49C84.4564 12.3848 84.3211 12.2645 84.2008 12.1292V16.0382C84.2008 16.1735 84.1407 16.2938 84.0504 16.384C83.9602 16.4742 83.84 16.5343 83.7047 16.5343H82.3064C82.0358 16.5343 81.8103 16.3088 81.8103 16.0382V3.99556C81.8103 3.72494 82.0358 3.49942 82.3064 3.49942H83.7047C83.9753 3.49942 84.2008 3.72494 84.2008 3.99556V4.41652C84.3211 4.28121 84.4564 4.16093 84.5917 4.05569C84.7721 3.92038 84.9676 3.80011 85.163 3.69487C85.4186 3.57459 85.6892 3.48439 85.9598 3.42425C86.2906 3.34908 86.6364 3.319 86.9822 3.319C87.5535 3.30397 88.1248 3.43928 88.651 3.67983C89.1321 3.90535 89.5681 4.23611 89.9139 4.64204C90.2747 5.04797 90.5453 5.51404 90.7408 6.02521C90.9362 6.55142 91.0565 7.09266 91.0866 7.64893C91.1016 7.82935 91.1016 8.03983 91.1016 8.29542C91.1016 8.55101 91.1016 8.76149 91.0866 8.9419C91.0565 9.49818 90.9513 10.0545 90.7408 10.5656C90.5453 11.0768 90.2747 11.5429 89.9139 11.9488C89.5531 12.3547 89.1321 12.6705 88.651 12.911C88.1248 13.1516 87.5535 13.2718 86.9822 13.2718" fill="#9CA3AF"/>
</svg>
