<svg width="108" height="17" viewBox="0 0 108 17" fill="none" xmlns="http://www.w3.org/2000/svg">
<path d="M6.90959 5.89365C6.90959 5.89365 6.02132 5.80516 6.02132 6.59682V10.1129H11.8878V11.1681C11.8878 11.1681 11.9052 11.6953 11.3545 11.6953H6.02108V16.2666H12.4209C12.4209 16.2666 16.296 15.6686 16.3318 11.6953V5.89365H6.90959ZM16.1536 0.26709H4.59876C0.420524 1.25148 0.332031 4.68004 0.332031 4.68004V16.2671H4.77694V5.71786C4.77694 4.821 5.6652 4.66334 5.6652 4.66334H16.1543V0.26709H16.1536ZM31.4082 12.9511C31.1034 13.1546 30.878 13.3039 30.7186 13.3991C30.1488 13.7518 29.6054 14.0238 29.1019 14.2411C28.3728 14.5397 27.7228 14.689 27.1401 14.689C25.1386 14.689 23.4813 14.0779 22.142 12.8421C20.8027 11.6063 20.1413 10.059 20.1413 8.1854C20.1413 6.37976 20.7378 4.8179 21.9438 3.4867C23.1498 2.15644 24.6081 1.50432 26.3315 1.50432C27.0478 1.50432 27.8156 1.6262 28.611 1.88524C29.645 2.21059 30.4799 2.6998 31.1427 3.33738L29.9892 4.61349C29.4993 4.13882 28.8632 3.78533 28.1204 3.56827C27.5642 3.40512 26.9547 3.3245 26.278 3.3245C25.072 3.3245 24.0509 3.81205 23.2426 4.77664C22.4342 5.75411 22.0235 6.90833 22.0235 8.26602C22.0235 9.61082 22.4867 10.7102 23.4148 11.5932C24.3429 12.4755 25.5221 12.9234 26.9538 12.9234C27.5503 12.9234 28.1607 12.7329 28.783 12.3672C29.3004 11.9734 29.5654 11.7828 29.5785 11.7692V8.98612H25.708L26.2642 7.24823H31.4077V12.9511H31.4082ZM43.0995 9.5562C43.0995 10.9003 42.6225 12.0681 41.6679 13.0456C40.7133 14.023 39.5338 14.5259 38.1289 14.5259C36.8299 14.5259 35.69 14.0366 34.7087 13.073C33.7274 12.1091 33.2503 10.9413 33.2503 9.56979C33.2503 8.21211 33.715 7.04405 34.6424 6.03915C35.5695 5.03425 36.7101 4.54575 38.0487 4.54575C39.5336 4.54575 40.7398 5.02113 41.6808 5.985C42.6227 6.92217 43.0995 8.11694 43.0995 9.5562ZM41.2831 9.58363C41.2831 8.67389 40.9783 7.89988 40.3689 7.27518C39.7594 6.63665 39.0036 6.32443 38.1022 6.32443C37.2542 6.32443 36.5379 6.65049 35.9414 7.30261C35.3448 7.95403 35.0531 8.70061 35.0531 9.5426C35.0531 10.4256 35.3579 11.1722 35.9545 11.7971C36.551 12.4218 37.2938 12.7472 38.1945 12.7472C39.0303 12.7472 39.7456 12.4347 40.356 11.81C40.9785 11.1853 41.2841 10.4385 41.2841 9.58386L41.2831 9.58363ZM54.6317 9.5562C54.6317 10.9003 54.1546 12.0681 53.2001 13.0456C52.2455 14.023 51.066 14.5259 49.6611 14.5259C48.3621 14.5259 47.2222 14.0366 46.2409 13.073C45.2603 12.1091 44.7825 10.9413 44.7825 9.56979C44.7825 8.21211 45.2472 7.04405 46.1746 6.03915C47.1027 5.03425 48.2423 4.54575 49.5809 4.54575C51.0658 4.54575 52.272 5.02113 53.213 5.985C54.1546 6.92217 54.6317 8.11694 54.6317 9.5562ZM52.8153 9.58363C52.8153 8.67389 52.5105 7.89988 51.9011 7.27518C51.2916 6.63665 50.5358 6.32443 49.6344 6.32443C48.7864 6.32443 48.0701 6.65049 47.4736 7.30261C46.877 7.95403 46.5853 8.70061 46.5853 9.5426C46.5853 10.4256 46.8901 11.1722 47.4874 11.7971C48.0832 12.4218 48.826 12.7472 49.7274 12.7472C50.5625 12.7472 51.2778 12.4347 51.8882 11.81C52.5107 11.1853 52.8163 10.4385 52.8163 9.58386L52.8153 9.58363ZM65.3028 14.2539L63.6327 14.5123V12.8963L63.2746 13.3032C62.9593 13.5987 62.6018 13.8458 62.2142 14.0369C61.645 14.2995 61.0254 14.4338 60.3985 14.4307C59.0995 14.4307 57.9856 13.9553 57.0842 12.9907C56.1828 12.0261 55.7325 10.8864 55.7325 9.5562C55.7325 8.18468 56.1828 7.00374 57.0711 6.02555C57.9594 5.04736 59.0458 4.55886 60.3448 4.55886C61.0876 4.55886 61.7369 4.68075 62.28 4.92524C62.6647 5.10199 62.9963 5.33288 63.2742 5.61863C63.3672 5.74052 63.46 5.87624 63.553 5.99812V1.76192L65.3283 1.5036L65.3028 14.2539ZM63.7386 9.67808C63.7386 8.72804 63.4201 7.9266 62.7709 7.27495C62.1218 6.60899 61.3917 6.28364 60.5576 6.28364C59.6295 6.28364 58.8875 6.5961 58.3176 7.2208C57.7867 7.81735 57.5085 8.55105 57.5085 9.40664C57.5085 10.3705 57.7867 11.1712 58.3436 11.7959C58.8999 12.4206 59.603 12.7331 60.4648 12.7331C61.3128 12.7331 62.0555 12.4481 62.7184 11.8646C63.3941 11.2667 63.7393 10.5337 63.7393 9.67808H63.7386ZM74.6742 3.52796H69.7036V6.90857H73.5603V8.64646H69.7036V14.2411L67.7684 14.5261V1.77576H74.2895L74.6742 3.52796ZM78.6643 2.53594L77.4712 4.04294L76.3312 2.53594L77.5372 1.04254L78.6643 2.53594ZM78.3062 14.2539L76.5302 14.4984V5.06167L78.3062 4.79047V14.2547V14.2539ZM86.3259 4.6953L85.4908 6.62282C85.3811 6.60612 85.2704 6.5973 85.1593 6.5961C84.9871 6.5961 84.8148 6.6097 84.6419 6.63642C84.469 6.66313 84.2839 6.73159 84.0857 6.827C83.7145 6.99015 83.3961 7.34269 83.118 7.87221C82.8103 8.47329 82.651 9.13902 82.6533 9.81428V14.2408L80.8782 14.5259V5.06167L82.5217 4.76304V6.73182C82.7335 6.39193 82.9589 6.05298 83.1707 5.70021C83.4755 5.34671 83.8336 5.08911 84.2312 4.93907C84.443 4.85821 84.8277 4.78976 85.4107 4.73561C85.9679 4.6953 86.2863 4.66787 86.3259 4.6953ZM99.554 14.2539L97.778 14.5123V8.03536C97.778 7.43738 97.6453 7.00303 97.3803 6.73182C97.1151 6.45991 96.7175 6.32419 96.2001 6.32419C95.5776 6.32419 95.1 6.58251 94.7823 7.0982C94.5698 7.45098 94.451 7.83118 94.451 8.21139V14.2403L92.6749 14.5664V8.07591C92.6749 7.50608 92.5423 7.07101 92.2902 6.77309C92.025 6.47374 91.6808 6.32443 91.2297 6.32443H91.0575C90.4342 6.32443 89.9832 6.58275 89.7051 7.11227C89.4933 7.50608 89.3874 8.00817 89.3874 8.61927V14.2406L87.545 14.5666V5.06191L89.2013 4.77688V5.98524C89.3871 5.69949 89.5725 5.4686 89.7454 5.3064C90.2224 4.85845 90.7794 4.64044 91.4017 4.64044C92.1042 4.64044 92.6208 4.74944 92.9788 4.98034C93.2837 5.17092 93.5754 5.55017 93.8671 6.09353C94.4765 5.12965 95.3383 4.64068 96.4789 4.64068C97.5654 4.64068 98.3745 4.98058 98.904 5.67301C99.3422 6.24285 99.554 7.08484 99.554 8.18492V14.2539ZM107.668 11.3893C107.668 12.2577 107.363 12.9778 106.754 13.5348C106.144 14.1046 105.375 14.3768 104.447 14.3768C103.744 14.3768 103.121 14.2136 102.551 13.8876C101.981 13.5622 101.558 13.1949 101.279 12.7608L102.526 11.6476C102.618 11.7833 102.698 11.8913 102.777 11.9729C103.242 12.4483 103.798 12.693 104.447 12.693C104.898 12.693 105.256 12.5711 105.508 12.3403C105.773 12.1094 105.892 11.7833 105.892 11.3621C105.892 10.8874 105.587 10.5613 104.978 10.3846C103.771 10.0182 103.121 9.81476 103.029 9.77349C102.472 9.48846 102.074 9.18982 101.822 8.85016C101.544 8.45636 101.399 7.94043 101.399 7.27542C101.399 6.46015 101.703 5.78202 102.3 5.2389C102.896 4.69578 103.612 4.43746 104.433 4.43746C105.057 4.43746 105.64 4.57318 106.17 4.85869C106.701 5.14373 107.085 5.44236 107.31 5.79585L106.25 6.94936C106.091 6.79002 105.918 6.64452 105.733 6.51501C105.309 6.21637 104.898 6.06705 104.514 6.06705C104.142 6.06705 103.838 6.14863 103.599 6.31083C103.32 6.51501 103.175 6.81364 103.175 7.20768C103.175 7.58789 103.307 7.87293 103.586 8.04967C103.825 8.19899 104.328 8.36214 105.124 8.53793C105.919 8.72852 106.529 9.05458 106.966 9.51612C107.456 10.0041 107.668 10.6152 107.668 11.3893Z" fill="#9CA3AF"/>
</svg>
