<svg width="21" height="22" viewBox="0 0 21 22" fill="none" xmlns="http://www.w3.org/2000/svg">
<path d="M20.0072 14.6925L12.4041 21.306C12.3985 21.3113 12.3985 21.3167 12.3943 21.3207C12.3874 21.3274 12.3776 21.3287 12.3706 21.3354L12.3484 21.3568L12.3442 21.3528C11.4246 22.1805 10.0286 22.2005 8.99335 21.4918L8.95991 21.5293L8.68822 21.298C8.67011 21.2819 8.64782 21.2766 8.6311 21.2619C8.62135 21.2525 8.61856 21.2405 8.60881 21.2298L0.987601 14.7152C-0.166029 13.8501 -0.333223 12.2937 0.614203 11.2387C1.56163 10.1837 3.26421 10.0326 4.41784 10.8977L7.77563 13.8153V2.47103C7.77563 1.10581 8.98778 0 10.4828 0C11.9777 0 13.1899 1.10581 13.1899 2.47103V13.7458L16.5741 10.8723C17.7292 10.0058 19.4345 10.1596 20.3848 11.2133C21.335 12.2669 21.165 13.8247 20.01 14.6912L20.0072 14.6925Z" fill="#BACAF3"/>
</svg>
