<svg width="39" height="39" viewBox="0 0 39 39" fill="none" xmlns="http://www.w3.org/2000/svg">
<path d="M36.4643 21.3934L36.2749 21.4408L34.104 21.9835C33.6911 22.0867 33.3695 22.411 33.2689 22.8255C32.9254 24.256 32.359 25.6214 31.5865 26.8826M36.4643 21.3934L31.5865 26.8826M36.4643 21.3934V21.1982M36.4643 21.3934V21.1982M31.5865 26.8826C31.3644 27.2459 31.3622 27.7025 31.581 28.0681C31.581 28.0681 31.581 28.0681 31.581 28.0681L32.7343 29.9891L32.8348 30.1566L32.6967 30.2946L30.2946 32.6961L30.1565 32.8341L29.9892 32.7336L28.0685 31.5808L28.0682 31.5806C27.7037 31.3611 27.2461 31.3636 26.8832 31.5858C26.8832 31.5858 26.8832 31.5858 26.8832 31.5858L26.7527 31.3726M31.5865 26.8826L31.581 10.9319L32.7343 9.01086L32.8348 8.84344L32.6967 8.70538L30.2946 6.30393L30.1565 6.16592L29.9892 6.26638L28.0685 7.41916L28.0684 7.41925C27.7048 7.63786 27.2471 7.63683 26.8832 7.4142C25.6219 6.64159 24.2564 6.07516 22.8244 5.73032C22.4102 5.63035 22.0868 5.30956 21.9842 4.89697L21.9841 4.89653L21.4401 2.72496L21.3926 2.53571H21.1975H17.8025H17.6074L17.56 2.72496L17.0159 4.89653L17.0158 4.89697C16.9132 5.30956 16.5898 5.63035 16.1756 5.73032C14.7436 6.07515 13.3782 6.64157 12.1169 7.41415C11.7532 7.63668 11.2954 7.63737 10.9315 7.41916C10.9314 7.41914 10.9314 7.41912 10.9314 7.41911L9.01084 6.26638L8.84348 6.16592L8.70543 6.30393L6.3033 8.70538L6.1652 8.84344L6.26571 9.01086L7.41899 10.9319C7.63784 11.2975 7.63561 11.7542 7.41341 12.1176C6.64092 13.3788 6.07451 14.7442 5.73103 16.1748C5.63039 16.5892 5.30876 16.9133 4.89598 17.0165L2.72508 17.5592L2.53571 17.6066V17.8018V21.1982V21.3934L2.72508 21.4408L4.89598 21.9835C5.30874 22.0867 5.63036 22.4108 5.73101 22.8251C6.07451 24.2558 6.64096 25.6213 7.41352 26.8826C7.63561 27.246 7.63781 27.7025 7.41899 28.0681L6.26571 29.9891L6.1652 30.1566L6.3033 30.2946L8.70543 32.6961L8.84348 32.8341L9.01084 32.7336L10.9315 31.5808L10.9319 31.5806C11.2948 31.3618 11.7524 31.3635 12.1168 31.5858C12.1169 31.5859 12.117 31.5859 12.1171 31.586L12.2473 31.3726M12.2473 31.3726C13.4865 32.1316 14.8277 32.6879 16.2341 33.0266M12.2473 31.3726C11.8039 31.1019 11.2462 31.0992 10.8028 31.3665M12.2473 31.3726L10.8028 31.3665M16.2341 33.0266L16.1755 33.2697C16.1755 33.2697 16.1756 33.2697 16.1756 33.2697C16.5898 33.3697 16.9132 33.6904 17.0158 34.103L17.0159 34.1035L17.56 36.275L17.6074 36.4643H17.8025H21.1975H21.3926L21.4401 36.275L21.9841 34.1035L21.9842 34.103C22.0868 33.6904 22.4102 33.3697 22.8244 33.2697C22.8244 33.2697 22.8245 33.2697 22.8245 33.2697L22.7659 33.0266M16.2341 33.0266C16.7388 33.1484 17.1332 33.5394 17.2584 34.0427L16.2341 33.0266ZM22.7659 33.0266C24.1723 32.6879 25.5135 32.1316 26.7527 31.3726M22.7659 33.0266C22.2612 33.1484 21.8668 33.5394 21.7416 34.0427L22.7659 33.0266ZM26.7527 31.3726C27.1947 31.1019 27.7524 31.0985 28.1972 31.3665L26.7527 31.3726ZM10.8028 31.3665L8.88218 32.5193L10.8028 31.3665ZM36.4643 21.1982V17.8018V17.6066M36.4643 21.1982V17.6066M36.4643 17.6066L36.2749 17.5592M36.4643 17.6066L36.2749 17.5592M36.2749 17.5592L34.104 17.0165C33.6911 16.9133 33.3695 16.589 33.2689 16.1745L36.2749 17.5592ZM37.8838 15.6054L37.8838 15.6055C38.3929 15.7327 38.75 16.1898 38.75 16.7143V22.2857C38.75 22.8102 38.3929 23.2673 37.8838 23.3946L37.8838 23.3946L35.4531 24.0026L35.3146 24.0372L35.2741 24.1741C34.9485 25.2739 34.5078 26.3356 33.9571 27.3465L33.8887 27.4721L33.9623 27.5947L35.2532 29.7459L35.2532 29.746C35.5232 30.1956 35.4519 30.7715 35.0813 31.1421L31.1421 35.0813L31.1418 35.0815C30.7721 35.4524 30.1962 35.5219 29.7454 35.2528L27.5954 33.9623L27.4729 33.8888L27.3473 33.9571C26.3356 34.5071 25.2746 34.9479 24.1735 35.2734L24.0365 35.3139L24.0019 35.4525L23.3939 37.8845C23.3939 37.8845 23.3939 37.8845 23.3939 37.8845C23.2666 38.393 22.8101 38.75 22.2857 38.75H16.7143C16.1899 38.75 15.7334 38.393 15.6061 37.8845C15.6061 37.8845 15.6061 37.8845 15.6061 37.8845L14.9981 35.4525L14.9635 35.3139L14.8265 35.2734C13.7267 34.9479 12.6643 34.5071 11.6527 33.9571L11.5271 33.8888L11.4046 33.9623L9.25506 35.2526C9.25501 35.2526 9.25495 35.2527 9.2549 35.2527C8.80259 35.5213 8.22773 35.4511 7.85789 35.0813L3.91872 31.1421C3.54814 30.7715 3.4768 30.1956 3.7468 29.746L3.74684 29.7459L5.03768 27.5947L5.11127 27.4721L5.04285 27.3465C4.49219 26.3356 4.05146 25.2739 3.72594 24.1741L3.68542 24.0372L3.54689 24.0026L1.11619 23.3946L1.11616 23.3945C0.607086 23.2673 0.25 22.8102 0.25 22.2857V16.7143C0.25 16.1898 0.607086 15.7327 1.11616 15.6055L1.11619 15.6054L3.54689 14.9974L3.68542 14.9628L3.72594 14.8259C4.05146 13.7261 4.49219 12.6644 5.04285 11.6535L5.11127 11.5279L5.03768 11.4053L3.74684 9.25411L3.7468 9.25404C3.4768 8.80441 3.54814 8.22848 3.91872 7.85789L7.85789 3.91872L7.85803 3.91859C8.22827 3.54779 8.80415 3.4772 9.25424 3.74691L11.4046 5.03766L11.5271 5.11121L11.6527 5.04295C12.6643 4.49291 13.7267 4.05215 14.8265 3.72662L14.9635 3.68609L14.9981 3.54754L15.6061 1.11554C15.7334 0.607018 16.1899 0.25 16.7143 0.25H22.2857C22.8101 0.25 23.2666 0.606989 23.3939 1.11548C23.3939 1.1155 23.3939 1.11552 23.3939 1.11554L24.0019 3.54754L24.0365 3.68614L24.1735 3.72665C25.2746 4.05215 26.3356 4.49288 27.3473 5.04295L27.4729 5.11121L27.5954 5.03766L29.7459 3.74682L29.7462 3.74666C30.1944 3.47681 30.7702 3.54685 31.1421 3.91872L35.0813 7.85789C35.4519 8.22848 35.5232 8.80441 35.2532 9.25404L35.2532 9.25411L33.9623 11.4053L33.8887 11.5279L33.9571 11.6535C34.5078 12.6644 34.9485 13.7261 35.2741 14.8259L35.3146 14.9628L35.4531 14.9974L37.8838 15.6054ZM31.5865 12.1174C31.3645 11.7541 31.3622 11.2977 31.5808 10.9322L31.5866 12.1176C31.5866 12.1176 31.5865 12.1175 31.5865 12.1174Z" fill="#FFAD00" stroke="#FCFCFC" stroke-width="0.5"/>
<path d="M18.3574 27.8569V27.6069H18.1074H12.536C10.3699 27.6069 8.60742 25.8444 8.60742 23.6783V15.3211C8.60742 13.155 10.3699 11.3926 12.536 11.3926H26.4646C28.6307 11.3926 30.3931 13.155 30.3931 15.3211V23.6783C30.3931 25.8444 28.6307 27.6069 26.4646 27.6069H20.8931H20.6431V27.8569V29.2497V29.4997H20.8931H22.286C22.9177 29.4997 23.4289 30.0114 23.4289 30.6426C23.4289 31.2738 22.9177 31.7854 22.286 31.7854H16.7146C16.0828 31.7854 15.5717 31.2738 15.5717 30.6426C15.5717 30.0114 16.0828 29.4997 16.7146 29.4997H18.1074H18.3574V29.2497V27.8569ZM26.4646 25.3211C27.3712 25.3211 28.1074 24.5841 28.1074 23.6783V15.3211C28.1074 14.4153 27.3712 13.6783 26.4646 13.6783H12.536C11.6293 13.6783 10.8931 14.4153 10.8931 15.3211V23.6783C10.8931 24.5841 11.6293 25.3211 12.536 25.3211H26.4646Z" fill="#FFAD00" stroke="#FCFCFC" stroke-width="0.5"/>
</svg>
