<svg width="30" height="30" viewBox="0 0 30 30" fill="none" xmlns="http://www.w3.org/2000/svg">
<path d="M15.0056 30C11.5352 30.0012 8.17181 28.7998 5.48838 26.5992C2.80495 24.3986 0.967556 21.3354 0.289296 17.932C-0.388963 14.5285 0.133881 10.9947 1.76871 7.93355C3.40354 4.87238 6.04923 2.47287 9.25496 1.1437C12.4607 -0.185462 16.0281 -0.361779 19.3494 0.644483C22.6706 1.65075 25.5402 3.77838 27.4692 6.66323C29.3982 9.54809 30.2673 13.011 29.9282 16.4648C29.5892 19.9186 28.0631 23.1484 25.61 25.6031C24.221 27.0008 22.5686 28.1085 20.7483 28.8632C18.928 29.618 16.9761 30.0048 15.0056 30ZM11.144 12.1804V14.9882H12.896V23.1257H16.406V14.9882H18.7484L19.0628 12.1804H16.4108V10.7695C16.4108 10.0567 16.4648 9.65152 17.5772 9.65152H19.0364V6.8437H16.6988C14.1044 6.8437 12.896 8.00401 12.896 10.4976V12.1757L11.144 12.1804Z" fill="white"/>
</svg>
