<svg width="76" height="14" viewBox="0 0 76 14" fill="none" xmlns="http://www.w3.org/2000/svg">
<path d="M6.90926 0.534424L8.73672 4.65355L13.4801 5.01006L9.86615 7.91233L10.9703 12.2518L6.90926 9.92637L2.84824 12.2518L3.95237 7.91233L0.338396 5.01006L5.08181 4.65355L6.90926 0.534424Z" fill="#4B5563"/>
<path d="M22.4548 0.534424L24.2823 4.65355L29.0257 5.01006L25.4117 7.91233L26.5158 12.2518L22.4548 9.92637L18.3938 12.2518L19.4979 7.91233L15.8839 5.01006L20.6273 4.65355L22.4548 0.534424Z" fill="#4B5563"/>
<path d="M37.9996 0.534424L39.8271 4.65355L44.5705 5.01006L40.9565 7.91233L42.0606 12.2518L37.9996 9.92637L33.9386 12.2518L35.0427 7.91233L31.4287 5.01006L36.1721 4.65355L37.9996 0.534424Z" fill="#4B5563"/>
<path d="M53.5451 0.534424L55.3726 4.65355L60.116 5.01006L56.502 7.91233L57.6061 12.2518L53.5451 9.92637L49.4841 12.2518L50.5882 7.91233L46.9743 5.01006L51.7177 4.65355L53.5451 0.534424Z" fill="#4B5563"/>
<path d="M69.0908 0.534424L70.9182 4.65355L75.6617 5.01006L72.0477 7.91233L73.1518 12.2518L69.0908 9.92637L65.0298 12.2518L66.1339 7.91233L62.5199 5.01006L67.2633 4.65355L69.0908 0.534424Z" fill="#4B5563"/>
</svg>
