<svg width="76" height="14" viewBox="0 0 76 14" fill="none" xmlns="http://www.w3.org/2000/svg">
<path d="M6.90926 0.26709L8.73672 4.38622L13.4801 4.74273L9.86615 7.645L10.9703 11.9845L6.90926 9.65904L2.84824 11.9845L3.95237 7.645L0.338396 4.74273L5.08181 4.38622L6.90926 0.26709Z" fill="#4B5563"/>
<path d="M22.4548 0.26709L24.2823 4.38622L29.0257 4.74273L25.4117 7.645L26.5158 11.9845L22.4548 9.65904L18.3938 11.9845L19.4979 7.645L15.8839 4.74273L20.6273 4.38622L22.4548 0.26709Z" fill="#4B5563"/>
<path d="M37.9996 0.26709L39.8271 4.38622L44.5705 4.74273L40.9565 7.645L42.0606 11.9845L37.9996 9.65904L33.9386 11.9845L35.0427 7.645L31.4287 4.74273L36.1721 4.38622L37.9996 0.26709Z" fill="#4B5563"/>
<path d="M53.5451 0.26709L55.3726 4.38622L60.116 4.74273L56.502 7.645L57.6061 11.9845L53.5451 9.65904L49.4841 11.9845L50.5882 7.645L46.9743 4.74273L51.7177 4.38622L53.5451 0.26709Z" fill="#4B5563"/>
<path d="M69.0908 0.26709L70.9182 4.38622L75.6617 4.74273L72.0477 7.645L73.1518 11.9845L69.0908 9.65904L65.0298 11.9845L66.1339 7.645L62.5199 4.74273L67.2633 4.38622L69.0908 0.26709Z" fill="#4B5563"/>
<mask id="mask0_483_1512" style="mask-type:alpha" maskUnits="userSpaceOnUse" x="62" y="0" width="14" height="12">
<path d="M69.0901 0.26709L70.9175 4.38622L75.6609 4.74273L72.0469 7.645L73.1511 11.9845L69.0901 9.65904L65.029 11.9845L66.1332 7.645L62.5192 4.74273L67.2626 4.38622L69.0901 0.26709Z" fill="#FFB800"/>
</mask>
<g mask="url(#mask0_483_1512)">
<rect x="68.8745" y="0.26709" width="7.12493" height="12.6665" fill="#9CA3AF"/>
</g>
</svg>
