<svg width="22" height="20" viewBox="0 0 22 20" fill="none" xmlns="http://www.w3.org/2000/svg">
<path fill-rule="evenodd" clip-rule="evenodd" d="M10.9883 17.0638L5.35164 19.8828C4.82783 20.1449 4.1799 19.9532 3.90433 19.4496C3.79459 19.2512 3.75677 19.024 3.79672 18.8031L4.8785 12.8326L0.323629 8.60465C-0.0999741 8.21153 -0.109084 7.56662 0.304271 7.16321C0.468685 7.00261 0.684233 6.89812 0.91747 6.86593L7.22027 5.99954L10.0386 0.568401C10.3005 0.0637328 10.9496 -0.143658 11.4734 0.105428C11.6848 0.204559 11.856 0.367305 11.9602 0.568401L14.7785 5.99954L21.0813 6.86593C21.2794 6.8929 21.4656 6.97214 21.6187 7.09466C21.7718 7.21718 21.8858 7.37807 21.9476 7.55907C22.0095 7.74007 22.0167 7.93393 21.9685 8.11865C21.9204 8.30337 21.8187 8.47155 21.6752 8.60411L17.1203 12.8321L18.2021 18.8025C18.226 18.9345 18.2223 19.0696 18.1913 19.2001C18.1603 19.3307 18.1024 19.4542 18.0211 19.5635C17.9399 19.6728 17.8367 19.7658 17.7176 19.8371C17.5985 19.9084 17.4657 19.9567 17.327 19.9792C17.0947 20.0171 16.8555 19.9814 16.6471 19.8709L11.0105 17.0519L10.9883 17.0638Z" fill="#FFAD00"/>
</svg>
