<svg width="125" height="22" viewBox="0 0 125 22" fill="none" xmlns="http://www.w3.org/2000/svg">
<path d="M11.3635 0L14.3691 6.77485L22.1708 7.36121L16.2267 12.1347L18.0427 19.2719L11.3635 15.4472L4.68419 19.2719L6.50018 12.1347L0.556168 7.36121L8.35779 6.77485L11.3635 0Z" fill="#0400F5"/>
<path d="M36.9377 0L39.9434 6.77485L47.745 7.36121L41.801 12.1347L43.617 19.2719L36.9377 15.4472L30.2584 19.2719L32.0744 12.1347L26.1304 7.36121L33.932 6.77485L36.9377 0Z" fill="#0400F5"/>
<path d="M62.5002 0L65.5059 6.77485L73.3075 7.36121L67.3635 12.1347L69.1795 19.2719L62.5002 15.4472L55.8209 19.2719L57.6369 12.1347L51.6929 7.36121L59.4945 6.77485L62.5002 0Z" fill="#0400F5"/>
<path d="M88.0627 0L91.0684 6.77485L98.87 7.36121L92.926 12.1347L94.742 19.2719L88.0627 15.4472L81.3834 19.2719L83.1994 12.1347L77.2554 7.36121L85.057 6.77485L88.0627 0Z" fill="#0400F5"/>
<path d="M113.637 0L116.643 6.77485L124.444 7.36121L118.5 12.1347L120.316 19.2719L113.637 15.4472L106.958 19.2719L108.774 12.1347L102.83 7.36121L110.631 6.77485L113.637 0Z" fill="#0400F5"/>
</svg>
