<svg width="76" height="14" viewBox="0 0 76 14" fill="none" xmlns="http://www.w3.org/2000/svg">
<path d="M6.90926 0.26709L8.73672 4.38622L13.4801 4.74273L9.86615 7.645L10.9703 11.9845L6.90926 9.65904L2.84824 11.9845L3.95237 7.645L0.338396 4.74273L5.08181 4.38622L6.90926 0.26709Z" fill="#4B5563"/>
<path d="M22.4549 0.26709L24.2824 4.38622L29.0258 4.74273L25.4118 7.645L26.5159 11.9845L22.4549 9.65904L18.3939 11.9845L19.498 7.645L15.884 4.74273L20.6275 4.38622L22.4549 0.26709Z" fill="#4B5563"/>
<path d="M37.9996 0.26709L39.8271 4.38622L44.5705 4.74273L40.9565 7.645L42.0606 11.9845L37.9996 9.65904L33.9386 11.9845L35.0427 7.645L31.4287 4.74273L36.1721 4.38622L37.9996 0.26709Z" fill="#4B5563"/>
<path d="M53.5453 0.26709L55.3727 4.38622L60.1161 4.74273L56.5021 7.645L57.6063 11.9845L53.5453 9.65904L49.4842 11.9845L50.5884 7.645L46.9744 4.74273L51.7178 4.38622L53.5453 0.26709Z" fill="#4B5563"/>
<path d="M69.0909 0.26709L70.9184 4.38622L75.6618 4.74273L72.0478 7.645L73.1519 11.9845L69.0909 9.65904L65.0299 11.9845L66.134 7.645L62.52 4.74273L67.2634 4.38622L69.0909 0.26709Z" fill="#4B5563"/>
<mask id="mask0_483_1555" style="mask-type:alpha" maskUnits="userSpaceOnUse" x="62" y="0" width="14" height="12">
<path d="M69.0899 0.26709L70.9174 4.38622L75.6608 4.74273L72.0468 7.645L73.1509 11.9845L69.0899 9.65904L65.0289 11.9845L66.133 7.645L62.5191 4.74273L67.2625 4.38622L69.0899 0.26709Z" fill="#FFB800"/>
</mask>
<g mask="url(#mask0_483_1555)">
<rect x="68.8745" y="0.26709" width="7.12493" height="12.6665" fill="#9CA3AF"/>
</g>
</svg>
