<svg width="13" height="13" viewBox="0 0 13 13" fill="none" xmlns="http://www.w3.org/2000/svg">
<path d="M10.7496 3.5593L1.74934 12.5849C1.54652 12.7877 1.3055 12.8891 1.02628 12.8891C0.747737 12.8891 0.507054 12.7877 0.304232 12.5849C0.101411 12.382 0 12.141 0 11.8618C0 11.5833 0.101411 11.3426 0.304232 11.1398L9.32981 2.13955H1.62257C1.33524 2.13955 1.09422 2.04253 0.899515 1.8485C0.705482 1.65379 0.608465 1.41277 0.608465 1.12544C0.608465 0.838106 0.705482 0.597087 0.899515 0.402378C1.09422 0.208345 1.33524 0.111328 1.62257 0.111328H11.7637C12.051 0.111328 12.2917 0.208345 12.4857 0.402378C12.6804 0.597087 12.7778 0.838106 12.7778 1.12544V11.2665C12.7778 11.5539 12.6804 11.7945 12.4857 11.9886C12.2917 12.1833 12.051 12.2806 11.7637 12.2806C11.4763 12.2806 11.2357 12.1833 11.0416 11.9886C10.8469 11.7945 10.7496 11.5539 10.7496 11.2665V3.5593Z" fill="#05164D"/>
</svg>
