<svg width="20" height="20" viewBox="0 0 20 20" fill="none" xmlns="http://www.w3.org/2000/svg">
<path d="M14.4983 19.3326H4.83262C2.1675 19.3326 -0.000228882 17.164 -0.000228882 14.4998V9.37601C-0.000228882 8.68365 0.355924 8.06018 0.953116 7.70948C1.54669 7.35968 2.26623 7.3488 2.87157 7.68592L9.66544 11.4604L16.4602 7.68592C17.0656 7.34881 17.7833 7.35969 18.3787 7.70948C18.9759 8.06018 19.332 8.68365 19.332 9.37601V14.4988C19.332 17.164 17.1635 19.3326 14.4983 19.3326ZM1.93272 9.37508V14.4988C1.93272 16.0983 3.23315 17.3987 4.83262 17.3987H14.4992C16.0987 17.3987 17.3991 16.0983 17.3991 14.4988V9.37508L10.135 13.4106C9.84412 13.5728 9.48706 13.5728 9.19707 13.4106L1.93272 9.37508Z" fill="#05164D"/>
<path d="M9.6654 13.5325C9.50409 13.5325 9.34189 13.4917 9.19599 13.4111L2.42926 9.65212C2.12297 9.48084 1.93266 9.15823 1.93266 8.80663V4.83284C1.93266 2.16773 4.10125 0 6.76551 0H12.5653C15.2304 0 17.3981 2.16859 17.3981 4.83284V8.80663C17.3981 9.15823 17.2078 9.48084 16.9006 9.65121L10.1339 13.4102C9.98891 13.4917 9.8267 13.5325 9.6654 13.5325ZM3.86562 8.23754L9.6654 11.4592L15.4652 8.23754V4.83283C15.4652 3.23337 14.1648 1.93294 12.5653 1.93294H6.76551C5.16604 1.93294 3.86562 3.23337 3.86562 4.83283V8.23754Z" fill="#05164D"/>
<path d="M11.5978 5.7987H7.73093C7.19716 5.7987 6.76489 5.36643 6.76489 4.83266C6.76489 4.2989 7.19716 3.86572 7.73183 3.86572H11.5987C12.1333 3.86572 12.5656 4.2989 12.5656 4.83266C12.5647 5.36643 12.1324 5.7987 11.5978 5.7987Z" fill="#05164D"/>
<path d="M9.66478 8.69853H7.73183C7.19716 8.69853 6.76489 8.26536 6.76489 7.73159C6.76489 7.19782 7.19716 6.76465 7.73183 6.76465H9.66478C10.1995 6.76465 10.6317 7.19782 10.6317 7.73159C10.6317 8.26626 10.1995 8.69853 9.66478 8.69853Z" fill="#05164D"/>
</svg>
