<svg width="44" height="44" viewBox="0 0 44 44" fill="none" xmlns="http://www.w3.org/2000/svg">
<path d="M1.33333 22C1.33333 33.4139 10.5861 42.6667 22 42.6667C33.4139 42.6667 42.6667 33.4139 42.6667 22C42.6667 10.5861 33.4139 1.33333 22 1.33333C10.5861 1.33333 1.33333 10.5861 1.33333 22Z" fill="white" stroke="#E4E4E4" stroke-width="1.33333"/>
<path d="M28.825 29.1104L22.3228 32.4181V25.8027L28.825 29.1104Z" fill="white"/>
<path d="M15.6615 22.3917L22.2362 19.0547L15.6615 15.7031H15.6469L9.0579 19.0547L9 19.084V25.7286L9.04359 25.7579H9.0579L15.6469 29.1095H15.6615V29.1241L22.2362 32.4757L22.3231 32.4172V32.5196L28.9846 35.9005V29.1973L28.8252 29.1095L22.3231 25.8018L22.2362 25.7579L15.6615 22.4209L15.6469 22.4063L15.6615 22.3917Z" fill="#FFAD00"/>
<path d="M22.3231 12.3964V19.0118L22.2363 19.0557L15.6616 15.7041V15.6895L22.2363 12.3379L22.3231 12.3964Z" fill="#FFAD00"/>
<path d="M22.2363 12.337L15.6616 9V15.7032L22.2363 19.0548L22.3231 19.0109V19.0987L28.8253 22.4064L22.3231 25.7141V25.8019L28.8253 29.1096L28.9847 29.0364L35.4146 25.758L35.6462 25.6409V19.1719L35.4146 19.0548L28.9847 15.7764L28.8253 15.7032L22.3231 12.3955L22.2363 12.337Z" fill="white"/>
<path d="M35.6459 25.6408V19.1718L35.4142 19.0547L28.9923 22.3145V22.3133L28.8237 22.4071L28.9923 22.4986V22.4981L35.4142 25.7579L35.6459 25.6408Z" fill="#05164D"/>
<path d="M28.9843 15.7763V22.3185L28.825 22.4063L22.3228 19.0986V19.0108L28.825 15.7031L28.9843 15.7763Z" fill="#05164D"/>
<path d="M22.2363 19.0547L15.6616 22.3917V15.7031L22.2363 19.0547Z" fill="#D99913"/>
<path d="M15.6471 22.4063L9.05793 25.7579H9.04344L9 25.7286V19.084L9.05793 19.0547L15.6471 22.4063Z" fill="#D99913"/>
<path d="M15.661 22.4209V29.1094H15.6465L9.05737 25.7579L15.6465 22.4062L15.661 22.4209Z" fill="#FFAD00"/>
<path d="M22.3231 25.8017V32.4171L22.2363 32.4756L15.6616 29.1241V29.1094L22.2363 25.7578L22.3231 25.8017Z" fill="#FFAD00"/>
<path d="M28.9843 29.1972V35.9004L22.3228 32.5195V32.417L28.825 29.1094L28.9843 29.1972Z" fill="#FFAD00"/>
<path d="M22.2363 25.7588L15.6616 29.1104V22.4219L22.2363 25.7588Z" fill="#D99913"/>
<path d="M28.825 29.1104L22.3228 32.4181V25.8027L28.825 29.1104Z" fill="#D99913"/>
<path d="M28.9843 22.4941V29.0363L28.825 29.1094L22.3228 25.8018V25.714L28.825 22.4062L28.9843 22.4941Z" fill="#05164D"/>
<path d="M35.4144 25.7579L28.9846 29.0364V22.4941L35.4144 25.7579Z" fill="#0F2569"/>
<path d="M15.661 15.7031V22.3917L15.6465 22.4063L9.05737 19.0547L15.6465 15.7031H15.661Z" fill="#FFAD00"/>
<path d="M22.3231 12.3964V19.0118L22.2363 19.0557L15.6616 15.7041V15.6895L22.2363 12.3379L22.3231 12.3964Z" fill="#FFAD00"/>
<path d="M22.3231 12.3964V19.0118L22.2363 19.0557L15.6616 15.7041V15.6895L22.2363 12.3379L22.3231 12.3964Z" fill="#0F2569"/>
<path d="M35.4144 19.0558L28.9846 22.3196V15.7773L35.4144 19.0558Z" fill="#0F2569"/>
<path d="M28.825 15.7042L22.3228 19.0119V12.3965L28.825 15.7042Z" fill="#0F2569"/>
<path d="M22.2363 12.337L15.6616 15.6886V9L22.2363 12.337Z" fill="#05164D"/>
</svg>
