<svg width="20" height="20" viewBox="0 0 20 20" fill="none" xmlns="http://www.w3.org/2000/svg">
<path d="M15.5522 8.34394L6.38558 3.17227C6.08621 3.0012 5.74688 2.91246 5.40209 2.9151C5.05731 2.91773 4.71937 3.01164 4.42266 3.18727C4.13359 3.3526 3.89343 3.59149 3.72657 3.87969C3.55972 4.16788 3.47211 4.4951 3.47266 4.82811V15.1714C3.47211 15.5044 3.55972 15.8317 3.72657 16.1199C3.89343 16.4081 4.13359 16.6469 4.42266 16.8123C4.7194 16.9878 5.05733 17.0817 5.4021 17.0843C5.74686 17.087 6.08619 16.9983 6.38558 16.8273L15.5522 11.6556C15.8479 11.4918 16.0943 11.2519 16.2659 10.9607C16.4374 10.6695 16.5279 10.3377 16.5279 9.99977C16.5279 9.66181 16.4374 9.33 16.2659 9.03882C16.0943 8.74764 15.8479 8.50771 15.5522 8.34394Z" fill="#0400F5"/>
</svg>
