<svg width="179" height="35" viewBox="0 0 179 35" fill="none" xmlns="http://www.w3.org/2000/svg">
<g clip-path="url(#clip0_3917_25660)">
<path fill-rule="evenodd" clip-rule="evenodd" d="M2.82752 13.1469C2.57653 15.2691 3.06294 17.4137 4.20318 19.212C5.34342 21.0104 7.06625 22.3502 9.0757 23.0014C11.0852 23.6526 13.2558 23.5744 15.2145 22.7803C17.1732 21.9862 18.7978 20.5257 19.8091 18.6499C20.8204 16.774 21.1552 14.5999 20.7561 12.5011C20.357 10.4023 19.2488 8.50979 17.622 7.14888C16.3537 6.08785 14.8319 5.40155 13.223 5.15063V6.84302C13.223 7.61604 12.6045 8.24268 11.8415 8.24268C11.0785 8.24268 10.46 7.61604 10.46 6.84302V3.84383C10.46 2.96722 11.1662 2.22922 12.065 2.24639C14.7374 2.29745 17.3168 3.26332 19.3812 4.99038C21.5032 6.7655 22.9486 9.2339 23.4692 11.9715C23.9898 14.7091 23.553 17.5449 22.234 19.9917C20.9149 22.4384 18.7959 24.3434 16.241 25.3792C13.6862 26.415 10.855 26.517 8.23396 25.6676C5.61295 24.8182 3.36572 23.0706 1.87845 20.7249C0.391192 18.3792 -0.243259 15.582 0.0841166 12.8139C0.411492 10.0457 1.68026 7.47954 3.6724 5.55623C4.22475 5.02293 5.09922 5.04428 5.62557 5.60387C6.15196 6.16347 6.13089 7.04942 5.57854 7.58267C4.05122 9.05723 3.07851 11.0247 2.82752 13.1469Z" fill="white" fill-opacity="0.5"/>
<path fill-rule="evenodd" clip-rule="evenodd" d="M6.91781 9.0545C7.45732 8.50787 8.33205 8.50787 8.87155 9.0545L13.2135 13.4533C13.753 13.9999 13.753 14.8861 13.2135 15.4327C12.674 15.9793 11.7992 15.9793 11.2597 15.4327L6.91781 11.0338C6.37831 10.4873 6.37831 9.60109 6.91781 9.0545Z" fill="white" fill-opacity="0.5"/>
<path d="M103.722 22.4417C102.623 22.4417 101.687 22.3183 100.914 22.0716C100.141 21.8454 99.3983 21.5678 98.6859 21.2388V17.7225C99.1539 18.031 99.6422 18.3291 100.151 18.617C100.68 18.8843 101.239 19.1003 101.83 19.2647C102.44 19.4292 103.091 19.5115 103.782 19.5115C104.596 19.5115 105.197 19.3573 105.583 19.0489C105.99 18.7198 106.194 18.3291 106.194 17.8768C106.194 17.4449 106.041 17.1159 105.736 16.8897C105.431 16.643 105.034 16.4373 104.545 16.2728C104.057 16.1084 103.539 15.9438 102.989 15.7793C102.481 15.656 101.962 15.4915 101.433 15.2858C100.924 15.0802 100.456 14.8026 100.029 14.453C99.6014 14.1034 99.256 13.6613 98.9911 13.1267C98.7472 12.5715 98.625 11.9032 98.625 11.1218C98.625 10.1965 98.808 9.41511 99.1745 8.77763C99.5406 8.1402 100.019 7.62612 100.609 7.23544C101.199 6.84471 101.85 6.56714 102.562 6.40262C103.274 6.21757 103.966 6.125 104.637 6.125C105.797 6.16616 106.733 6.3101 107.445 6.55685C108.157 6.78301 108.828 7.08122 109.459 7.45132L109.489 10.6283C108.777 10.2376 108.086 9.88803 107.414 9.57958C106.743 9.2506 105.98 9.08608 105.125 9.08608C104.332 9.08608 103.711 9.23002 103.264 9.51793C102.836 9.78521 102.623 10.1657 102.623 10.6591C102.623 11.091 102.755 11.4406 103.02 11.7078C103.284 11.9752 103.63 12.1808 104.057 12.3247C104.485 12.4687 104.953 12.6127 105.461 12.7566C105.97 12.9005 106.499 13.065 107.048 13.2501C107.597 13.4146 108.106 13.6613 108.574 13.9903C109.042 14.3194 109.418 14.7615 109.703 15.3167C110.009 15.8513 110.161 16.571 110.161 17.4758C110.141 18.6684 109.825 19.6349 109.215 20.3752C108.605 21.0948 107.801 21.6192 106.804 21.9482C105.828 22.2772 104.8 22.4417 103.722 22.4417Z" fill="white" fill-opacity="0.5"/>
<path d="M118.481 22.4749C116.894 22.4749 115.684 22.0842 114.849 21.3028C114.015 20.5009 113.598 19.3494 113.598 17.8482V9.52028H111.218V6.4358H113.598V2.14844H117.596V6.4358H121.167V9.52028H117.596V17.2314C117.596 17.8688 117.718 18.3418 117.962 18.6502C118.207 18.9586 118.634 19.1129 119.244 19.1129C119.57 19.1129 119.905 19.0614 120.251 18.9587C120.617 18.8353 120.923 18.6913 121.167 18.5268V21.9197C120.76 22.1253 120.312 22.2693 119.824 22.3516C119.356 22.4338 118.908 22.4749 118.481 22.4749Z" fill="white" fill-opacity="0.5"/>
<path d="M129.42 22.4444C128.565 22.4444 127.752 22.3621 126.979 22.1977C126.206 22.0332 125.514 21.7658 124.903 21.3957C124.293 21.005 123.805 20.4807 123.438 19.8226C123.092 19.1441 122.92 18.3009 122.92 17.2934C122.92 16.2447 123.133 15.3604 123.561 14.6408C123.988 13.9005 124.609 13.3453 125.422 12.9751C126.256 12.5845 127.273 12.3891 128.474 12.3891C129.207 12.3891 129.888 12.4611 130.519 12.605C131.149 12.7284 131.719 12.9032 132.228 13.1294C132.736 13.3556 133.154 13.6023 133.479 13.8697L133.754 16.0596C133.326 15.7717 132.777 15.5455 132.106 15.381C131.454 15.196 130.742 15.1035 129.97 15.1035C128.891 15.1035 128.087 15.2782 127.558 15.6278C127.03 15.9773 126.765 16.5223 126.765 17.2625C126.765 17.7766 126.907 18.2084 127.192 18.558C127.477 18.887 127.843 19.1441 128.291 19.3291C128.739 19.4936 129.207 19.5759 129.695 19.5759C130.814 19.5759 131.617 19.5039 132.106 19.36C132.614 19.1955 132.868 18.8562 132.868 18.3421V12.2041C132.868 11.1965 132.553 10.4665 131.922 10.0141C131.292 9.54115 130.407 9.30469 129.267 9.30469C128.393 9.30469 127.498 9.45891 126.582 9.76736C125.666 10.0552 124.924 10.4357 124.354 10.9086V7.36147C124.903 7.01191 125.727 6.70346 126.826 6.43613C127.925 6.16884 129.105 6.03516 130.366 6.03516C130.895 6.03516 131.454 6.08656 132.045 6.18938C132.634 6.2922 133.194 6.45671 133.723 6.68288C134.272 6.90909 134.771 7.22783 135.218 7.63909C135.666 8.02978 136.022 8.53357 136.287 9.15046C136.551 9.74678 136.683 10.4768 136.683 11.3404V18.7122C136.683 19.6787 136.378 20.4395 135.768 20.9947C135.157 21.5294 134.313 21.8995 133.235 22.1051C132.157 22.3313 130.885 22.4444 129.42 22.4444Z" fill="white" fill-opacity="0.5"/>
<path d="M145.79 22.4749C144.203 22.4749 142.993 22.0842 142.159 21.3028C141.325 20.5009 140.908 19.3494 140.908 17.8482V9.52028H138.527V6.4358H140.908V2.14844H144.906V6.4358H148.476V9.52028H144.906V17.2314C144.906 17.8688 145.027 18.3418 145.272 18.6502C145.516 18.9586 145.943 19.1129 146.553 19.1129C146.879 19.1129 147.215 19.0614 147.561 18.9587C147.927 18.8353 148.232 18.6913 148.476 18.5268V21.9197C148.069 22.1253 147.621 22.2693 147.133 22.3516C146.665 22.4338 146.218 22.4749 145.79 22.4749Z" fill="white" fill-opacity="0.5"/>
<path d="M158.011 22.4419C156.587 22.4419 155.346 22.2157 154.288 21.7633C153.25 21.2904 152.436 20.5912 151.846 19.6659C151.277 18.7406 150.992 17.5582 150.992 16.1187V6.43359H154.868V15.7178C154.868 16.8693 155.122 17.7227 155.631 18.2779C156.139 18.8331 156.933 19.1107 158.011 19.1107C159.13 19.1107 159.934 18.8331 160.422 18.2779C160.93 17.7227 161.185 16.8693 161.185 15.7178V6.43359H164.847V16.1187C164.847 18.2573 164.237 19.8509 163.016 20.8996C161.816 21.9278 160.147 22.4419 158.011 22.4419Z" fill="white" fill-opacity="0.5"/>
<path d="M172.56 22.4417C171.462 22.4417 170.526 22.3183 169.753 22.0716C168.98 21.8454 168.237 21.5678 167.525 21.2388V17.7225C167.993 18.031 168.481 18.3291 168.99 18.617C169.519 18.8843 170.078 19.1003 170.668 19.2647C171.279 19.4292 171.93 19.5115 172.622 19.5115C173.435 19.5115 174.035 19.3573 174.422 19.0489C174.829 18.7198 175.032 18.3291 175.032 17.8768C175.032 17.4449 174.88 17.1159 174.575 16.8897C174.269 16.643 173.873 16.4373 173.384 16.2728C172.896 16.1084 172.377 15.9438 171.828 15.7793C171.32 15.656 170.8 15.4915 170.271 15.2858C169.763 15.0802 169.295 14.8026 168.868 14.453C168.441 14.1034 168.095 13.6613 167.83 13.1267C167.586 12.5715 167.464 11.9032 167.464 11.1218C167.464 10.1965 167.647 9.41511 168.013 8.77763C168.379 8.1402 168.858 7.62612 169.448 7.23544C170.038 6.84471 170.689 6.56714 171.401 6.40262C172.113 6.21757 172.805 6.125 173.476 6.125C174.636 6.16616 175.572 6.3101 176.284 6.55685C176.996 6.78301 177.667 7.08122 178.298 7.45132L178.328 10.6283C177.616 10.2376 176.924 9.88803 176.253 9.57958C175.582 9.2506 174.819 9.08608 173.964 9.08608C173.171 9.08608 172.55 9.23002 172.103 9.51793C171.675 9.78521 171.462 10.1657 171.462 10.6591C171.462 11.091 171.594 11.4406 171.859 11.7078C172.123 11.9752 172.469 12.1808 172.896 12.3247C173.323 12.4687 173.792 12.6127 174.3 12.7566C174.809 12.9005 175.338 13.065 175.887 13.2501C176.436 13.4146 176.945 13.6613 177.413 13.9903C177.881 14.3194 178.257 14.7615 178.542 15.3167C178.847 15.8513 179 16.571 179 17.4758C178.979 18.6684 178.664 19.6349 178.054 20.3752C177.444 21.0948 176.64 21.6192 175.643 21.9482C174.666 22.2772 173.639 22.4417 172.56 22.4417Z" fill="white" fill-opacity="0.5"/>
<path d="M35.557 21.9792L30.4299 6.43359H34.5804L38.2426 19.3574L37.0524 19.4808L40.562 6.43359H43.5528L47.0013 19.1107H46.0553L49.6563 6.43359H53.6847L48.5577 21.9792H45.0175L41.6607 10.8752L42.332 11.0603L39.1276 21.9792H35.557Z" fill="white" fill-opacity="0.5"/>
<path d="M61.4392 22.444C58.9166 22.444 57.0241 21.7346 55.7631 20.3157C54.5016 18.8969 53.8706 16.8509 53.8706 14.1777C53.8706 11.3194 54.5119 9.24256 55.7935 7.94712C57.0957 6.65163 58.9672 6.00391 61.4087 6.00391C63.1177 6.00391 64.5421 6.31235 65.6815 6.92925C66.8208 7.52556 67.6652 8.43033 68.2143 9.64354C68.784 10.8567 69.069 12.3682 69.069 14.1777C69.069 16.8509 68.4076 18.8969 67.0853 20.3157C65.7831 21.7346 63.9013 22.444 61.4392 22.444ZM61.4392 19.2362C62.3346 19.2362 63.0569 19.0305 63.606 18.6193C64.1756 18.208 64.5927 17.6323 64.8572 16.892C65.1217 16.1311 65.2541 15.2264 65.2541 14.1777C65.2541 13.0056 65.1118 12.0494 64.8267 11.3091C64.5623 10.5689 64.1452 10.024 63.5755 9.67441C63.0265 9.32484 62.314 9.15004 61.4392 9.15004C60.5442 9.15004 59.8219 9.33509 59.2724 9.70524C58.7233 10.0754 58.3161 10.6306 58.0516 11.3708C57.8077 12.1111 57.6855 13.0467 57.6855 14.1777C57.6855 15.8227 57.9804 17.0771 58.5707 17.9407C59.1605 18.8044 60.1168 19.2362 61.4392 19.2362Z" fill="white" fill-opacity="0.5"/>
<path d="M71.4487 21.9817V7.94754C71.7333 7.76245 72.2319 7.5157 72.9443 7.20725C73.6764 6.8988 74.5208 6.63152 75.4771 6.4053C76.4334 6.15855 77.3996 6.03516 78.3765 6.03516C79.1086 6.03516 79.6885 6.09685 80.1159 6.22025C80.5634 6.32307 80.9093 6.45671 81.1537 6.62123V9.58226C80.7464 9.52061 80.2788 9.4692 79.7499 9.42804C79.241 9.38692 78.7121 9.37663 78.1626 9.39721C77.6336 9.39721 77.115 9.41779 76.6062 9.45891C76.1179 9.50003 75.6906 9.55144 75.3245 9.61313V21.9817H71.4487Z" fill="white" fill-opacity="0.5"/>
<path d="M86.0086 13.1896L91.9594 6.43464H96.69L87.9923 15.2562L86.0086 13.1896ZM86.8324 21.9803H82.9871V0.574219H86.8629L86.8324 21.9803ZM88.7858 11.6782L97.2699 21.9803H92.3564L86.039 14.3L88.7858 11.6782Z" fill="white" fill-opacity="0.5"/>
<path d="M99.3335 32.6748V26.9297H103.049V27.7307H100.277V29.3931H102.692V30.2028H100.269V31.8737H103.049V32.6748H99.3335Z" fill="white" fill-opacity="0.5"/>
<path d="M104.715 32.6734V29.0988H104.035V28.3495H104.723V28.1772C104.723 27.8729 104.755 27.6202 104.817 27.4192C104.885 27.2183 104.973 27.0575 105.08 26.9369C105.188 26.8163 105.307 26.7273 105.438 26.6699C105.568 26.6067 105.698 26.5665 105.829 26.5493C105.965 26.5321 106.092 26.5234 106.211 26.5234C106.296 26.5234 106.381 26.5292 106.466 26.5407C106.551 26.5521 106.625 26.5665 106.687 26.5837V27.3848C106.636 27.3561 106.583 27.3331 106.526 27.3159C106.475 27.2929 106.407 27.2814 106.322 27.2814C106.237 27.2814 106.152 27.29 106.067 27.3073C105.982 27.3187 105.905 27.3532 105.837 27.4106C105.769 27.4623 105.715 27.5427 105.676 27.6518C105.636 27.7609 105.616 27.9102 105.616 28.0997V28.3495H106.687V29.0988H105.608V32.6734H104.715Z" fill="white" fill-opacity="0.5"/>
<path d="M108.055 32.6734V29.0988H107.375V28.3495H108.063V28.1772C108.063 27.8729 108.095 27.6202 108.157 27.4192C108.225 27.2183 108.313 27.0575 108.42 26.9369C108.528 26.8163 108.647 26.7273 108.777 26.6699C108.908 26.6067 109.038 26.5665 109.169 26.5493C109.305 26.5321 109.432 26.5234 109.551 26.5234C109.636 26.5234 109.721 26.5292 109.806 26.5407C109.891 26.5521 109.965 26.5665 110.027 26.5837V27.3848C109.976 27.3561 109.923 27.3331 109.866 27.3159C109.815 27.2929 109.747 27.2814 109.662 27.2814C109.577 27.2814 109.492 27.29 109.407 27.3073C109.322 27.3187 109.245 27.3532 109.177 27.4106C109.109 27.4623 109.055 27.5427 109.015 27.6518C108.976 27.7609 108.956 27.9102 108.956 28.0997V28.3495H110.027V29.0988H108.947V32.6734H108.055Z" fill="white" fill-opacity="0.5"/>
<path d="M112.633 32.8025C111.942 32.8025 111.426 32.6044 111.086 32.2082C110.751 31.812 110.584 31.2464 110.584 30.5114C110.584 29.7304 110.757 29.1591 111.103 28.7973C111.454 28.4298 111.959 28.2461 112.616 28.2461C113.087 28.2461 113.475 28.3351 113.781 28.5131C114.087 28.6854 114.314 28.9409 114.461 29.2797C114.609 29.6185 114.682 30.0291 114.682 30.5114C114.682 31.2407 114.504 31.8063 114.147 32.2082C113.795 32.6044 113.291 32.8025 112.633 32.8025ZM112.625 32.036C112.914 32.036 113.143 31.9728 113.313 31.8465C113.483 31.7144 113.606 31.5335 113.679 31.3038C113.759 31.0741 113.798 30.81 113.798 30.5114C113.798 30.1783 113.759 29.8999 113.679 29.6759C113.6 29.452 113.475 29.2855 113.305 29.1763C113.135 29.0615 112.908 29.0041 112.625 29.0041C112.341 29.0041 112.114 29.0644 111.944 29.1849C111.774 29.3055 111.653 29.4778 111.579 29.7017C111.505 29.9257 111.468 30.1956 111.468 30.5114C111.468 30.988 111.556 31.3613 111.732 31.6311C111.908 31.901 112.205 32.036 112.625 32.036Z" fill="white" fill-opacity="0.5"/>
<path d="M115.806 32.6765V28.7488C115.879 28.7028 116.015 28.6397 116.214 28.5593C116.412 28.4789 116.648 28.41 116.92 28.3526C117.192 28.2894 117.467 28.2578 117.744 28.2578C117.886 28.2578 118.002 28.2693 118.093 28.2923C118.183 28.3152 118.26 28.3411 118.323 28.3698V29.0933C118.192 29.0761 118.056 29.0646 117.915 29.0589C117.773 29.0474 117.631 29.0474 117.489 29.0589C117.348 29.0646 117.209 29.0761 117.073 29.0933C116.937 29.1105 116.812 29.1278 116.699 29.145V32.6765H115.806Z" fill="white" fill-opacity="0.5"/>
<path d="M120.809 32.7863C120.423 32.7863 120.117 32.6829 119.891 32.4762C119.67 32.2695 119.559 31.9651 119.559 31.5632V29.0998H118.87V28.3504H119.559V27.1445H120.477V28.3504H121.515V29.0998H120.477V31.3823C120.477 31.5833 120.511 31.7354 120.579 31.8388C120.653 31.9364 120.786 31.9852 120.979 31.9852C121.075 31.9852 121.171 31.9738 121.268 31.9508C121.364 31.9221 121.447 31.8876 121.515 31.8474V32.6485C121.413 32.6944 121.296 32.7288 121.166 32.7518C121.041 32.7748 120.922 32.7863 120.809 32.7863Z" fill="white" fill-opacity="0.5"/>
<path d="M123.519 32.6753H122.635V26.7148H123.519V32.6753Z" fill="white" fill-opacity="0.5"/>
<path d="M126.699 32.8025C126.279 32.8025 125.914 32.7164 125.602 32.5441C125.296 32.3719 125.058 32.1163 124.888 31.7776C124.723 31.4388 124.641 31.0253 124.641 30.5372C124.641 29.785 124.814 29.2165 125.16 28.8318C125.511 28.4413 125.999 28.2461 126.622 28.2461C127.082 28.2461 127.453 28.3495 127.736 28.5562C128.02 28.7629 128.224 29.0529 128.348 29.4261C128.479 29.7936 128.541 30.2243 128.536 30.7181H125.177L125.152 30.0463H127.855L127.643 30.2616C127.626 29.8195 127.535 29.4979 127.371 29.2969C127.206 29.0902 126.948 28.9868 126.597 28.9868C126.37 28.9868 126.177 29.0357 126.019 29.1333C125.86 29.2252 125.738 29.3859 125.653 29.6156C125.573 29.8396 125.534 30.1496 125.534 30.5459C125.534 31.0282 125.645 31.3957 125.866 31.6484C126.087 31.8953 126.413 32.0187 126.844 32.0187C127.036 32.0187 127.214 32.0015 127.379 31.9671C127.549 31.9326 127.705 31.8895 127.847 31.8379C127.988 31.7804 128.11 31.7259 128.212 31.6742V32.5097C128.014 32.5958 127.79 32.6647 127.541 32.7164C127.291 32.7739 127.01 32.8025 126.699 32.8025Z" fill="white" fill-opacity="0.5"/>
<path d="M130.88 32.8009C130.574 32.8009 130.313 32.7665 130.098 32.6976C129.888 32.6344 129.681 32.554 129.477 32.4564V31.6037C129.624 31.6956 129.769 31.7788 129.911 31.8535C130.052 31.9224 130.2 31.9769 130.353 32.0171C130.511 32.0573 130.687 32.0774 130.88 32.0774C131.123 32.0774 131.314 32.0257 131.45 31.9224C131.591 31.819 131.662 31.6898 131.662 31.5348C131.662 31.4027 131.617 31.2994 131.526 31.2247C131.441 31.15 131.331 31.0869 131.195 31.0352C131.058 30.9835 130.917 30.9319 130.769 30.8802C130.616 30.84 130.463 30.794 130.31 30.7424C130.157 30.6849 130.015 30.6103 129.885 30.5184C129.76 30.4208 129.658 30.2973 129.579 30.148C129.505 29.9988 129.469 29.815 129.469 29.5968C129.469 29.3556 129.516 29.1517 129.613 28.9852C129.709 28.813 129.834 28.6752 129.987 28.5718C130.146 28.4627 130.319 28.3852 130.506 28.3392C130.698 28.2876 130.885 28.2617 131.067 28.2617C131.367 28.2675 131.611 28.3048 131.798 28.3737C131.991 28.4426 132.178 28.5259 132.359 28.6235L132.368 29.3987C132.164 29.2896 131.971 29.1948 131.79 29.1144C131.608 29.0341 131.399 28.9939 131.161 28.9939C130.939 28.9939 130.755 29.0369 130.608 29.1231C130.46 29.2034 130.387 29.324 130.387 29.4848C130.387 29.6226 130.426 29.7317 130.506 29.8121C130.591 29.8925 130.698 29.9557 130.829 30.0016C130.965 30.0475 131.109 30.0935 131.263 30.1394C131.404 30.1853 131.552 30.2342 131.705 30.2859C131.858 30.3318 131.999 30.4007 132.13 30.4926C132.26 30.5845 132.365 30.705 132.444 30.8543C132.529 31.0036 132.572 31.1989 132.572 31.44C132.566 31.7616 132.481 32.0229 132.317 32.2239C132.158 32.4248 131.948 32.5712 131.688 32.6631C131.427 32.755 131.157 32.8009 130.88 32.8009Z" fill="white" fill-opacity="0.5"/>
<path d="M134.934 32.8009C134.628 32.8009 134.367 32.7665 134.152 32.6976C133.942 32.6344 133.735 32.554 133.531 32.4564V31.6037C133.678 31.6956 133.823 31.7788 133.965 31.8535C134.106 31.9224 134.254 31.9769 134.407 32.0171C134.565 32.0573 134.741 32.0774 134.934 32.0774C135.177 32.0774 135.368 32.0257 135.504 31.9224C135.645 31.819 135.716 31.6898 135.716 31.5348C135.716 31.4027 135.67 31.2994 135.58 31.2247C135.495 31.15 135.385 31.0869 135.248 31.0352C135.112 30.9835 134.971 30.9319 134.823 30.8802C134.67 30.84 134.517 30.794 134.364 30.7424C134.211 30.6849 134.069 30.6103 133.939 30.5184C133.814 30.4208 133.712 30.2973 133.633 30.148C133.559 29.9988 133.522 29.815 133.522 29.5968C133.522 29.3556 133.57 29.1517 133.667 28.9852C133.763 28.813 133.888 28.6752 134.041 28.5718C134.2 28.4627 134.373 28.3852 134.56 28.3392C134.752 28.2876 134.939 28.2617 135.121 28.2617C135.421 28.2675 135.665 28.3048 135.852 28.3737C136.045 28.4426 136.232 28.5259 136.413 28.6235L136.422 29.3987C136.218 29.2896 136.025 29.1948 135.844 29.1144C135.662 29.0341 135.453 28.9939 135.214 28.9939C134.993 28.9939 134.809 29.0369 134.662 29.1231C134.514 29.2034 134.441 29.324 134.441 29.4848C134.441 29.6226 134.48 29.7317 134.56 29.8121C134.645 29.8925 134.752 29.9557 134.883 30.0016C135.019 30.0475 135.163 30.0935 135.316 30.1394C135.458 30.1853 135.606 30.2342 135.759 30.2859C135.912 30.3318 136.053 30.4007 136.184 30.4926C136.314 30.5845 136.419 30.705 136.498 30.8543C136.583 31.0036 136.626 31.1989 136.626 31.44C136.62 31.7616 136.535 32.0229 136.371 32.2239C136.212 32.4248 136.002 32.5712 135.742 32.6631C135.481 32.755 135.211 32.8009 134.934 32.8009Z" fill="white" fill-opacity="0.5"/>
<path d="M140.298 32.6748V26.9297H144.014V27.7307H141.242V29.3931H143.657V30.2028H141.234V31.8737H144.014V32.6748H140.298Z" fill="white" fill-opacity="0.5"/>
<path d="M145.68 32.6734V29.0988H145V28.3495H145.688V28.1772C145.688 27.8729 145.72 27.6202 145.782 27.4192C145.85 27.2183 145.938 27.0575 146.046 26.9369C146.153 26.8163 146.272 26.7273 146.403 26.6699C146.533 26.6067 146.664 26.5665 146.794 26.5493C146.93 26.5321 147.057 26.5234 147.176 26.5234C147.261 26.5234 147.346 26.5292 147.431 26.5407C147.516 26.5521 147.59 26.5665 147.653 26.5837V27.3848C147.602 27.3561 147.548 27.3331 147.491 27.3159C147.44 27.2929 147.372 27.2814 147.287 27.2814C147.202 27.2814 147.117 27.29 147.032 27.3073C146.947 27.3187 146.87 27.3532 146.802 27.4106C146.734 27.4623 146.681 27.5427 146.641 27.6518C146.601 27.7609 146.581 27.9102 146.581 28.0997V28.3495H147.653V29.0988H146.573V32.6734H145.68Z" fill="white" fill-opacity="0.5"/>
<path d="M149.02 32.6734V29.0988H148.34V28.3495H149.029V28.1772C149.029 27.8729 149.06 27.6202 149.122 27.4192C149.19 27.2183 149.278 27.0575 149.386 26.9369C149.493 26.8163 149.612 26.7273 149.743 26.6699C149.873 26.6067 150.003 26.5665 150.134 26.5493C150.27 26.5321 150.398 26.5234 150.517 26.5234C150.602 26.5234 150.687 26.5292 150.772 26.5407C150.857 26.5521 150.93 26.5665 150.993 26.5837V27.3848C150.942 27.3561 150.888 27.3331 150.831 27.3159C150.78 27.2929 150.712 27.2814 150.627 27.2814C150.542 27.2814 150.457 27.29 150.372 27.3073C150.287 27.3187 150.211 27.3532 150.143 27.4106C150.075 27.4623 150.02 27.5427 149.981 27.6518C149.941 27.7609 149.922 27.9102 149.922 28.0997V28.3495H150.993V29.0988H149.913V32.6734H149.02ZM151.818 32.6734V28.3753H152.71L152.719 32.6734H151.818ZM151.792 27.6604V26.8421H152.744V27.6604H151.792Z" fill="white" fill-opacity="0.5"/>
<path d="M155.966 32.7626C155.705 32.7626 155.45 32.7253 155.201 32.6506C154.951 32.576 154.724 32.4554 154.52 32.2889C154.322 32.1166 154.163 31.8898 154.044 31.6084C153.925 31.3213 153.866 30.9653 153.866 30.5403C153.866 30.1039 153.923 29.7393 154.036 29.4465C154.149 29.1536 154.305 28.921 154.503 28.7488C154.702 28.5707 154.926 28.4445 155.175 28.3698C155.43 28.2951 155.691 28.2578 155.957 28.2578C156.184 28.2578 156.411 28.2808 156.638 28.3267C156.864 28.3669 157.074 28.4301 157.267 28.5162V29.3259C157.074 29.2397 156.881 29.1737 156.689 29.1278C156.496 29.0761 156.295 29.0502 156.085 29.0502C155.643 29.0502 155.308 29.1622 155.082 29.3862C154.861 29.6101 154.75 29.9719 154.75 30.4714C154.75 30.9882 154.855 31.3672 155.065 31.6084C155.28 31.8438 155.629 31.9615 156.11 31.9615C156.32 31.9615 156.524 31.9357 156.723 31.884C156.921 31.8266 157.105 31.7577 157.275 31.6773V32.487C157.077 32.5789 156.87 32.6478 156.655 32.6937C156.439 32.7396 156.21 32.7626 155.966 32.7626Z" fill="white" fill-opacity="0.5"/>
<path d="M158.415 32.675V28.3769H159.308L159.317 32.675H158.415ZM158.39 27.662V26.8438H159.342V27.662H158.39Z" fill="white" fill-opacity="0.5"/>
<path d="M162.52 32.8025C162.101 32.8025 161.735 32.7164 161.423 32.5441C161.117 32.3719 160.879 32.1163 160.709 31.7776C160.545 31.4388 160.462 31.0253 160.462 30.5372C160.462 29.785 160.636 29.2165 160.981 28.8318C161.333 28.4413 161.82 28.2461 162.443 28.2461C162.903 28.2461 163.274 28.3495 163.557 28.5562C163.841 28.7629 164.045 29.0529 164.17 29.4261C164.3 29.7936 164.362 30.2243 164.357 30.7181H160.998L160.973 30.0463H163.676L163.464 30.2616C163.447 29.8195 163.356 29.4979 163.192 29.2969C163.027 29.0902 162.77 28.9868 162.418 28.9868C162.192 28.9868 161.999 29.0357 161.84 29.1333C161.681 29.2252 161.559 29.3859 161.474 29.6156C161.395 29.8396 161.356 30.1496 161.356 30.5459C161.356 31.0282 161.466 31.3957 161.687 31.6484C161.908 31.8953 162.234 32.0187 162.665 32.0187C162.857 32.0187 163.036 32.0015 163.201 31.9671C163.371 31.9326 163.526 31.8895 163.668 31.8379C163.81 31.7804 163.932 31.7259 164.034 31.6742V32.5097C163.835 32.5958 163.611 32.6647 163.362 32.7164C163.112 32.7739 162.832 32.8025 162.52 32.8025Z" fill="white" fill-opacity="0.5"/>
<path d="M165.468 28.7057C165.593 28.6426 165.732 28.5851 165.885 28.5334C166.044 28.476 166.211 28.4272 166.386 28.387C166.562 28.3468 166.741 28.3152 166.922 28.2923C167.104 28.2693 167.279 28.2578 167.449 28.2578C167.852 28.2578 168.18 28.3153 168.435 28.4301C168.69 28.5392 168.881 28.7115 169.005 28.9469C169.13 29.1766 169.192 29.4665 169.192 29.8168V32.6765H168.299V29.9374C168.299 29.8283 168.285 29.7221 168.257 29.6187C168.234 29.5096 168.186 29.412 168.112 29.3259C168.044 29.234 167.942 29.1622 167.806 29.1105C167.676 29.0589 167.503 29.033 167.288 29.033C167.135 29.033 166.976 29.0474 166.811 29.0761C166.653 29.1048 166.503 29.145 166.361 29.1967V32.6765H165.468V28.7057Z" fill="white" fill-opacity="0.5"/>
<path d="M172.414 32.7626C172.154 32.7626 171.899 32.7253 171.649 32.6506C171.4 32.576 171.173 32.4554 170.969 32.2889C170.77 32.1166 170.612 31.8898 170.493 31.6084C170.373 31.3213 170.314 30.9653 170.314 30.5403C170.314 30.1039 170.371 29.7393 170.484 29.4465C170.598 29.1536 170.753 28.921 170.952 28.7488C171.15 28.5707 171.374 28.4445 171.623 28.3698C171.878 28.2951 172.139 28.2578 172.406 28.2578C172.632 28.2578 172.859 28.2808 173.086 28.3267C173.313 28.3669 173.523 28.4301 173.715 28.5162V29.3259C173.523 29.2397 173.33 29.1737 173.137 29.1278C172.944 29.0761 172.743 29.0502 172.533 29.0502C172.091 29.0502 171.757 29.1622 171.53 29.3862C171.309 29.6101 171.198 29.9719 171.198 30.4714C171.198 30.9882 171.303 31.3672 171.513 31.6084C171.729 31.8438 172.077 31.9615 172.559 31.9615C172.768 31.9615 172.973 31.9357 173.171 31.884C173.369 31.8266 173.553 31.7577 173.723 31.6773V32.487C173.525 32.5789 173.318 32.6478 173.103 32.6937C172.888 32.7396 172.658 32.7626 172.414 32.7626Z" fill="white" fill-opacity="0.5"/>
<path d="M175.501 34.3464C175.394 34.3464 175.292 34.335 175.195 34.312C175.099 34.2948 175.014 34.2718 174.94 34.2431V33.4679C175.008 33.4909 175.076 33.5109 175.144 33.5282C175.212 33.5454 175.286 33.554 175.365 33.554C175.535 33.554 175.677 33.5081 175.791 33.4162C175.904 33.3243 176 33.1923 176.08 33.02C176.159 32.8477 176.224 32.641 176.275 32.3998L176.292 32.8477L174.473 28.3516H175.484L176.717 31.7624H176.59L177.806 28.3516H178.732L176.972 32.9425C176.831 33.31 176.677 33.5942 176.513 33.7952C176.349 34.0019 176.179 34.1455 176.003 34.2259C175.833 34.3062 175.666 34.3464 175.501 34.3464Z" fill="white" fill-opacity="0.5"/>
</g>
<defs>
<clipPath id="clip0_3917_25660">
<rect width="179" height="34" fill="white" transform="translate(0 0.347656)"/>
</clipPath>
</defs>
</svg>
