<svg width="36" height="34" viewBox="0 0 36 34" fill="none" xmlns="http://www.w3.org/2000/svg">
<path d="M15.5898 0.584564H20.4102C27.7879 0.584571 33.8395 6.36742 34.2725 13.6383L34.2783 13.731L34.3633 13.7672C35.2374 14.1442 35.8505 15.0143 35.8506 16.024V21.4615C35.8505 22.8158 34.7478 23.9176 33.3936 23.9176H30.0801V26.1432C30.0801 27.6522 28.8518 28.8804 27.3428 28.8805H22.252L22.207 28.9332L18.6914 33.0953C18.5194 33.2986 18.2663 33.4156 18 33.4156C17.7337 33.4156 17.4805 33.2987 17.3086 33.0953H17.3096L13.793 28.9332L13.748 28.8805H8.65723C7.14831 28.8803 5.9209 27.6521 5.9209 26.1432V23.9176H2.60645C1.25218 23.9175 0.1505 22.8158 0.150391 21.4615V16.024C0.150498 15.0143 0.763521 14.1442 1.6377 13.7672L1.72168 13.731L1.72754 13.6383C2.16047 6.36749 8.21232 0.584702 15.5898 0.584564ZM8.65723 11.3727C8.14581 11.3728 7.73047 11.7889 7.73047 12.3004V26.1432C7.73047 26.6546 8.14582 27.0707 8.65723 27.0709H14.168C14.401 27.0709 14.6238 27.1611 14.791 27.3199L14.8594 27.3922L17.8857 30.9732L18 31.109L18.1143 30.9732L21.1416 27.3922C21.3135 27.1889 21.5658 27.0709 21.832 27.0709H27.3428C27.8544 27.0709 28.2705 26.6547 28.2705 26.1432V12.3004C28.2705 11.7888 27.8544 11.3727 27.3428 11.3727H8.65723ZM2.60645 15.3775C2.24969 15.3776 1.95917 15.6672 1.95898 16.024V21.4615C1.95905 21.7664 2.1718 22.0203 2.45605 22.0885V22.109H5.9209V15.3775H2.60645ZM30.0801 22.108H33.3936C33.7504 22.108 34.0409 21.8183 34.041 21.4615V16.024C34.0409 15.6672 33.7504 15.3775 33.3936 15.3775H30.0801V22.108ZM15.5898 2.39316C9.28926 2.39333 4.10105 7.24299 3.55859 13.4049L3.54492 13.568H5.9209V12.3004C5.9209 10.7914 7.14832 9.56324 8.65723 9.56308H27.3428C28.8518 9.5631 30.0801 10.7914 30.0801 12.3004V13.568H32.4561L32.4414 13.4049C31.8989 7.24281 26.7109 2.39316 20.4102 2.39316H15.5898Z" fill="#666666" stroke="white" stroke-width="0.3"/>
<path d="M21.958 20.3311C22.3086 20.0202 22.8335 20.0309 23.1709 20.3418L23.2354 20.4072C23.5462 20.7577 23.5354 21.2827 23.2246 21.6201L23.1592 21.6846C21.5616 23.1014 19.7773 23.8037 18.001 23.8037C16.3353 23.8037 14.6637 23.1873 13.1445 21.9424L12.8428 21.6846C12.4924 21.3736 12.4407 20.8515 12.709 20.4795L12.7666 20.4072C13.0776 20.0569 13.5997 20.0052 13.9717 20.2734L14.0439 20.3311C15.2625 21.4118 16.6305 21.9912 18.001 21.9912C19.2858 21.9912 20.5681 21.4815 21.7275 20.5273L21.958 20.3311Z" fill="#666666" stroke="white" stroke-width="0.3"/>
<path d="M13.6992 15.5488C14.1989 15.5488 14.6035 15.9534 14.6035 16.4531C14.6035 16.9527 14.1989 17.3574 13.6992 17.3574C13.1996 17.3574 12.7949 16.9527 12.7949 16.4531C12.7949 15.9534 13.1996 15.5488 13.6992 15.5488Z" fill="#666666" stroke="white" stroke-width="0.3"/>
<path d="M21.8535 15.5488C22.3532 15.5488 22.7578 15.9534 22.7578 16.4531C22.7578 16.9527 22.3532 17.3574 21.8535 17.3574C21.3539 17.3574 20.9492 16.9527 20.9492 16.4531C20.9492 15.9534 21.3539 15.5488 21.8535 15.5488Z" fill="#666666" stroke="white" stroke-width="0.3"/>
</svg>
