<svg width="43" height="29" viewBox="0 0 43 29" fill="none" xmlns="http://www.w3.org/2000/svg">
<path d="M38.1855 16.1561L34.4552 19.2022C34.0812 19.5069 33.5231 19.4603 33.2085 19.0979C32.894 18.7355 32.9422 18.1946 33.3161 17.8899L36.2429 15.5001L33.3161 13.1102C32.9421 12.8054 32.894 12.2645 33.2085 11.9022C33.5231 11.5397 34.0812 11.4931 34.4552 11.7978L38.1762 14.8362C38.6019 15.1743 38.6108 15.8095 38.1855 16.1561Z" fill="#666666"/>
<path d="M24.7571 15.5001L27.6839 17.8899C28.0578 18.1946 28.1061 18.7355 27.7916 19.0978C27.477 19.4603 26.9188 19.5069 26.5448 19.2022L22.8145 16.1561C22.3892 15.8095 22.3981 15.1743 22.8238 14.8362L26.5448 11.7978C26.9189 11.4931 27.4771 11.5398 27.7916 11.9022C28.1061 12.2646 28.0578 12.8055 27.6839 13.1102L24.7571 15.5001Z" fill="#666666"/>
<path d="M32.5025 11.5826L30.213 19.8616C30.0865 20.3206 29.5998 20.5933 29.1261 20.4706C28.6524 20.348 28.371 19.8765 28.4976 19.4174L30.787 11.1384C30.9136 10.6794 31.4002 10.4067 31.8739 10.5294C32.3477 10.652 32.6291 11.1235 32.5025 11.5826Z" fill="#666666"/>
<path d="M38.1855 16.1561L34.4552 19.2022C34.0812 19.5069 33.5231 19.4603 33.2085 19.0979C32.894 18.7355 32.9422 18.1946 33.3161 17.8899L36.2429 15.5001L33.3161 13.1102C32.9421 12.8054 32.894 12.2645 33.2085 11.9022C33.5231 11.5397 34.0812 11.4931 34.4552 11.7978L38.1762 14.8362C38.6019 15.1743 38.6108 15.8095 38.1855 16.1561Z" stroke="white" stroke-width="0.5"/>
<path d="M24.7571 15.5001L27.6839 17.8899C28.0578 18.1946 28.1061 18.7355 27.7916 19.0978C27.477 19.4603 26.9188 19.5069 26.5448 19.2022L22.8145 16.1561C22.3892 15.8095 22.3981 15.1743 22.8238 14.8362L26.5448 11.7978C26.9189 11.4931 27.4771 11.5398 27.7916 11.9022C28.1061 12.2646 28.0578 12.8055 27.6839 13.1102L24.7571 15.5001Z" stroke="white" stroke-width="0.5"/>
<path d="M32.5025 11.5826L30.213 19.8616C30.0865 20.3206 29.5998 20.5933 29.1261 20.4706C28.6524 20.348 28.371 19.8765 28.4976 19.4174L30.787 11.1384C30.9136 10.6794 31.4002 10.4067 31.8739 10.5294C32.3477 10.652 32.6291 11.1235 32.5025 11.5826Z" stroke="white" stroke-width="0.5"/>
<path d="M4.96875 6.59961H6.875C7.07887 6.59961 7.24414 6.76488 7.24414 6.96875V7.53711H11.251L11.2744 7.4707C11.4552 6.96425 11.9342 6.59961 12.5 6.59961C13.0658 6.59961 13.5448 6.96425 13.7256 7.4707L13.749 7.53711H17.7559V6.96875C17.7559 6.76488 17.9211 6.59961 18.125 6.59961H20.0312C20.2351 6.59961 20.4004 6.76488 20.4004 6.96875V8.84375C20.4004 9.04762 20.2351 9.21289 20.0312 9.21289H18.125C17.9211 9.21289 17.7559 9.04762 17.7559 8.84375V8.27539H15.3818L15.6777 8.45996C17.2769 9.45896 18.3328 11.2083 18.459 13.1758L18.4629 13.2432L18.5273 13.2646C19.0508 13.436 19.4316 13.9223 19.4316 14.5C19.4316 15.2202 18.8452 15.8066 18.125 15.8066C17.4048 15.8066 16.8184 15.2202 16.8184 14.5C16.8184 13.9452 17.1685 13.473 17.6592 13.2842L17.7285 13.2568L17.7227 13.1836C17.5597 10.9123 15.9748 8.99679 13.7686 8.4502L13.6924 8.43066L13.6562 8.50098C13.4383 8.92237 13.0037 9.21289 12.5 9.21289C11.9963 9.21289 11.5617 8.92237 11.3438 8.50098L11.3076 8.43066L11.2314 8.4502C9.02524 8.99682 7.44032 10.9123 7.27734 13.1836L7.27148 13.2568L7.34082 13.2842C7.83151 13.473 8.18164 13.9452 8.18164 14.5C8.18164 15.2202 7.59521 15.8066 6.875 15.8066C6.15479 15.8066 5.56836 15.2202 5.56836 14.5C5.56836 13.9223 5.9492 13.436 6.47266 13.2646L6.53711 13.2432L6.54102 13.1758C6.66721 11.2082 7.72325 9.45206 9.32227 8.45312L9.61816 8.26855H7.24414V8.84375C7.24414 9.04762 7.07887 9.21289 6.875 9.21289H4.96875C4.76488 9.21289 4.59961 9.04762 4.59961 8.84375V6.96875C4.59961 6.76488 4.76488 6.59961 4.96875 6.59961Z" fill="#666666" stroke="white" stroke-width="0.2"/>
<path d="M11.0947 20.6934H13.9072C14.6422 20.6935 15.2775 21.1712 15.5459 21.8184L15.5947 21.9492C15.6647 22.1634 15.4812 22.4004 15.2334 22.4004H9.76758C9.55067 22.4004 9.38302 22.219 9.3916 22.0303L9.40625 21.9492C9.63936 21.2363 10.3108 20.6934 11.0947 20.6934Z" fill="#666666" stroke="white" stroke-width="0.2"/>
<path d="M16.5566 16.1706C16.6419 16.2983 16.6381 16.4632 16.5527 16.5857L16.5107 16.6355C15.6629 17.4833 15.1128 18.5672 14.8828 19.7312C14.5775 19.6212 14.25 19.5564 13.9062 19.5564H11.0938C10.7497 19.5564 10.4218 19.621 10.1162 19.7312C9.90098 18.6423 9.40671 17.6234 8.64941 16.8025L8.48926 16.6355C8.38062 16.5267 8.35214 16.3641 8.41211 16.2273L8.44336 16.1706L11.9316 10.9372V14.987C11.3841 15.2117 10.9943 15.7453 10.9941 16.3747C10.9941 17.2054 11.6693 17.8816 12.5 17.8816C13.3307 17.8816 14.0059 17.2054 14.0059 16.3747C14.0057 15.7453 13.6159 15.2117 13.0684 14.987V10.9372L16.5566 16.1706Z" fill="#666666" stroke="white" stroke-width="0.2"/>
<path d="M2.5 1H40.5C41.3284 1 42 1.67157 42 2.5V26.5C42 27.3284 41.3284 28 40.5 28H2.5C1.67157 28 1 27.3284 1 26.5V2.5L1.00781 2.34668C1.08461 1.59028 1.72334 1 2.5 1Z" stroke="#666666"/>
</svg>
