<svg width="36" height="31" viewBox="0 0 36 31" fill="none" xmlns="http://www.w3.org/2000/svg">
<path d="M28.4107 26.8963C28.4519 26.9848 28.4766 27.0898 28.5384 27.166C28.6907 27.3513 28.7216 27.5695 28.736 27.7918C28.7731 28.3415 28.6084 28.8377 28.2934 29.2844C27.9022 29.8382 27.3834 30.2108 26.7061 30.322C26.1194 30.4188 25.6089 30.2623 25.1703 29.8382C24.9377 29.6138 24.7503 29.3626 24.5568 29.1094C24.0257 28.4095 23.4966 27.7095 22.9716 27.0033C22.8975 26.9045 22.8213 26.8736 22.7019 26.8736C15.6033 26.8757 8.50309 26.8757 1.40448 26.8757C1.33242 26.8757 1.26242 26.8798 1.19037 26.8984C0.842442 26.9889 0.566572 26.7831 0.539798 26.4228C0.53774 26.3816 0.53774 26.3384 0.53774 26.2972V4.74629C0.53774 4.56101 0.539798 4.37572 0.48833 4.19248C0.443038 4.02985 0.465684 3.85691 0.473919 3.69016C0.500682 3.1693 0.595384 2.66081 0.830077 2.19138C1.20682 1.43994 1.79149 0.923234 2.60881 0.692604C2.84351 0.626725 3.0885 0.657606 3.32732 0.657606C6.4072 0.653488 9.48887 0.655547 12.5688 0.655547C15.029 0.655547 17.4912 0.653488 19.9515 0.653488C24.1925 0.653488 28.4357 0.655547 32.6767 0.657606C32.8929 0.657606 33.1111 0.649371 33.3232 0.680251C33.5908 0.721426 33.842 0.832596 34.0726 0.978768C34.7684 1.42345 35.2193 2.04311 35.4108 2.85016C35.5117 3.27631 35.5775 3.7107 35.5158 4.13891C35.4355 4.703 35.4684 5.26708 35.4684 5.83116C35.4643 12.5819 35.4664 19.3322 35.4664 26.0829C35.4664 26.2023 35.4725 26.3238 35.4623 26.4432C35.4293 26.8014 35.1637 26.9888 34.8179 26.9003C34.7581 26.8858 34.7005 26.8776 34.6408 26.8776H28.5225C28.4875 26.8776 28.4504 26.8694 28.4092 26.8982L28.4107 26.8963ZM22.1111 25.8875C22.0802 25.8319 22.072 25.8113 22.0576 25.7928C21.4461 24.9796 20.8327 24.1705 20.2253 23.3553C20.1635 23.2708 20.1038 23.2832 20.0256 23.312C19.3998 23.5405 18.7554 23.6785 18.0925 23.7279C16.9911 23.8102 15.9184 23.6723 14.8829 23.2832C13.3286 22.7006 12.0954 21.7165 11.1814 20.331C10.7737 19.7133 10.4731 19.0463 10.2632 18.3402C10.222 18.2002 10.2199 18.2002 10.082 18.1961H9.95642H5.60634C5.49723 18.1961 5.39017 18.192 5.28724 18.1487C5.23165 18.124 4.80343 17.7658 4.77049 17.7143C4.70255 17.6094 4.69226 17.49 4.69226 17.3685V13.0534C4.69226 13.0061 4.69226 12.9566 4.69638 12.9093C4.7252 12.6705 4.91666 12.4687 5.15342 12.4811C5.32841 12.4893 5.49928 12.4625 5.67016 12.4646C7.37274 12.4687 9.07527 12.4667 10.7778 12.4708C10.8993 12.4708 10.9693 12.4399 11.0352 12.3308C11.6322 11.3426 12.4022 10.515 13.378 9.89532C15.1424 8.77332 17.0549 8.40687 19.0974 8.85153C21.1932 9.30857 22.8072 10.4779 23.9395 12.304C24.0157 12.4255 24.0918 12.4728 24.2359 12.4728C26.5047 12.4687 28.7734 12.4687 31.0421 12.4687C31.1018 12.4687 31.1635 12.4667 31.2232 12.4728C31.462 12.4975 31.6494 12.6664 31.67 12.8969C31.6844 13.0575 31.707 13.2181 31.705 13.3807C31.7029 14.7519 31.7029 16.125 31.7029 17.4961C31.7029 17.5558 31.705 17.6176 31.6988 17.6773C31.6782 17.8976 31.5444 18.054 31.3303 18.1179C31.145 18.1734 30.9577 18.2002 30.7621 18.2002C28.831 18.1961 26.8999 18.1981 24.9689 18.1981C24.7445 18.1981 24.7754 18.1899 24.7137 18.3917C24.4913 19.1287 24.1619 19.8142 23.7316 20.4525C23.6349 20.5966 23.6184 20.5616 23.744 20.7263C25.0039 22.398 26.2659 24.0697 27.5218 25.7454C27.6082 25.8607 27.6988 25.8978 27.8367 25.8978C29.9737 25.8937 32.1086 25.8957 34.2455 25.8937C34.5152 25.8937 34.4843 25.9225 34.4843 25.6507V6.60744C34.4843 6.2801 34.5357 6.32127 34.2002 6.32127H15.1384H1.79976C1.5033 6.32127 1.53418 6.29451 1.53418 6.57656V25.6567C1.53418 25.9285 1.51771 25.8956 1.78122 25.8956C5.40869 25.8956 9.03847 25.8935 12.6655 25.8914H21.8723H22.1172L22.1111 25.8875ZM18.006 5.32475H21.3638H34.2165C34.2639 5.32475 34.3133 5.32064 34.3607 5.32475C34.4554 5.33505 34.4801 5.29387 34.4842 5.20123C34.4986 4.83066 34.4821 4.46217 34.5357 4.0895C34.6077 3.59953 34.511 3.10543 34.3071 2.64633C34.1198 2.22841 33.8007 1.9381 33.3992 1.72813C33.251 1.6499 33.0904 1.63549 32.9278 1.63549C29.2385 1.63755 25.5514 1.63961 21.8622 1.63961C15.6058 1.63961 9.34725 1.63755 3.09084 1.63549C2.91379 1.63549 2.74497 1.6602 2.58645 1.7446C2.25294 1.91959 1.96882 2.15635 1.79385 2.48572C1.49739 3.04774 1.39034 3.65093 1.51798 4.283C1.53033 4.34065 1.53239 4.40241 1.53239 4.46211C1.53444 4.66593 1.53033 4.8718 1.53239 5.07563C1.53444 5.36179 1.50151 5.32474 1.78355 5.32474H18.0104L18.006 5.32475ZM17.4975 22.7643C21.1106 22.7725 24.0812 19.8162 24.0506 16.1537C24.0198 12.6148 21.1581 9.66487 17.5102 9.65433C13.8868 9.64404 10.9428 12.5818 10.9386 16.1948C10.9345 19.8284 13.8661 22.7643 17.4975 22.7643ZM24.5403 13.4527C24.5341 13.5515 24.5732 13.6153 24.5958 13.6812C24.8511 14.4017 24.9973 15.1408 25.024 15.9046C25.0364 16.2773 25.0323 16.6499 24.9891 17.0225C24.9685 17.2016 24.9726 17.2037 25.1455 17.2037H25.2546H28.1595H30.56C30.7144 17.2037 30.7185 17.2016 30.7185 17.0637V13.5989C30.7185 13.4589 30.7144 13.4589 30.5785 13.4548H30.4879H24.7316H24.5402L24.5403 13.4527ZM10.4484 13.4691C10.3908 13.4403 10.329 13.4527 10.2714 13.4527C9.77729 13.4506 9.28525 13.4527 8.79116 13.4527H5.84926C5.67221 13.4527 5.67015 13.4547 5.67015 13.6318V17.0431C5.67015 17.1996 5.67221 17.1996 5.82662 17.2037H5.9172H9.77936C10.0532 17.2037 10.0202 17.2387 9.99346 16.9608C9.88435 15.8161 10.0223 14.7044 10.4134 13.6256C10.432 13.5762 10.4649 13.5309 10.4484 13.4712L10.4484 13.4691ZM22.7557 25.0433C22.7742 25.1154 22.8154 25.1524 22.8463 25.1957C23.7748 26.4288 24.7053 27.6641 25.6338 28.8972C25.7141 29.0043 25.8109 29.0907 25.9097 29.1772C26.1073 29.3501 26.3317 29.3934 26.5829 29.3419C26.9143 29.274 27.1799 29.0928 27.394 28.8375C27.6205 28.5678 27.7646 28.261 27.7584 27.9008C27.7564 27.7773 27.7399 27.6538 27.6576 27.5447C27.1511 26.8797 26.6488 26.2127 26.1464 25.5456C25.6976 24.9507 25.2509 24.3536 24.8 23.7607C24.6662 23.5837 24.7012 23.5754 24.518 23.7154C24.3739 23.8225 24.2298 23.9316 24.0857 24.0407C23.6451 24.3742 23.2024 24.7057 22.7557 25.0433ZM22.9966 21.3685C22.4263 21.9717 21.7964 22.4575 21.0923 22.8384C21.1005 22.8631 21.1026 22.8775 21.1087 22.8858C21.4319 23.3181 21.7593 23.7484 22.0805 24.1848C22.1505 24.2795 22.1978 24.226 22.2555 24.1827C22.8257 23.7525 23.3981 23.3222 23.9683 22.8919C24.0795 22.8096 24.0795 22.8055 23.9992 22.6984C23.7686 22.3917 23.536 22.0849 23.3054 21.7782C23.2087 21.6485 23.1119 21.5208 22.9966 21.3705L22.9966 21.3685Z" fill="#666666"/>
<path d="M25.3259 4.07942H18.3427C18.2583 4.07942 18.1739 4.08147 18.0915 4.06295C17.861 4.01354 17.7045 3.83855 17.6922 3.61208C17.6798 3.38974 17.8219 3.19005 18.0401 3.11799C18.1265 3.08917 18.2171 3.08711 18.3077 3.08711H29.5852C30.5116 3.08711 31.438 3.08505 32.3644 3.08299C32.4612 3.08299 32.5579 3.09123 32.6485 3.12623C32.8565 3.20446 32.982 3.40004 32.9676 3.62032C32.9532 3.83854 32.8029 4.00942 32.5785 4.05883C32.4962 4.07735 32.4118 4.07735 32.3274 4.07735H25.3257L25.3259 4.07942Z" fill="#666666"/>
<path d="M4.39107 3.45598C4.39107 3.74215 4.17285 3.97478 3.90109 3.97684C3.62317 3.9789 3.39053 3.73803 3.39259 3.45187C3.39465 3.18012 3.61288 2.95777 3.88462 2.9516C4.15843 2.94542 4.39107 3.17806 4.39313 3.45393L4.39107 3.45598Z" fill="#666666"/>
<path d="M5.80813 3.92137C5.53843 3.92343 5.32227 3.71138 5.32227 3.44581C5.32227 3.18023 5.53843 2.96612 5.80607 2.96818C6.06752 2.97024 6.27545 3.17612 6.28163 3.43552C6.28781 3.70315 6.07577 3.91931 5.80813 3.92137Z" fill="#666666"/>
<path d="M7.00391 3.45588C7.00391 3.18825 7.22008 2.97414 7.48565 2.9762C7.74505 2.97825 7.95504 3.18413 7.96121 3.44558C7.96739 3.71321 7.75535 3.93144 7.48771 3.93556C7.22213 3.93968 7.00391 3.72351 7.00391 3.45794L7.00391 3.45588Z" fill="#666666"/>
<path d="M23.3726 16.1706C23.3685 19.3884 20.7539 21.9991 17.5442 21.9843C14.312 21.9719 11.7242 19.3677 11.7305 16.1353C11.7387 12.9216 14.3471 10.3358 17.5774 10.34C20.7766 10.3441 23.3769 12.9593 23.3726 16.1706ZM17.5668 17.2041H22.0961C22.2834 17.2041 22.2834 17.2041 22.3143 17.0291C22.5222 15.8185 22.3081 14.6862 21.6782 13.6301C21.602 13.5025 21.5176 13.451 21.3652 13.451C18.8268 13.4551 16.2884 13.4551 13.7501 13.451C13.5998 13.451 13.5113 13.4943 13.4331 13.6239C12.9884 14.361 12.7496 15.1577 12.7166 16.0162C12.7043 16.3538 12.7352 16.6894 12.7908 17.0229C12.8216 17.2062 12.8237 17.2062 13.0028 17.2062H13.0749H17.567L17.5668 17.2041ZM21.9251 18.2272C21.7419 18.1819 13.3282 18.1861 13.1943 18.2272C13.777 19.5984 15.4569 21.1198 17.8265 20.9921C18.8949 20.9345 19.8399 20.5515 20.6613 19.8701C21.2048 19.4192 21.6268 18.8737 21.9274 18.2272H21.9251ZM14.4892 12.4525C14.7219 12.4855 20.4927 12.4772 20.6202 12.4422C18.8435 10.8776 16.0293 11.032 14.4892 12.4525Z" fill="#666666"/>
</svg>
