<svg width="44" height="44" viewBox="0 0 44 44" fill="none" xmlns="http://www.w3.org/2000/svg">
<rect width="44" height="44" rx="7.33333" fill="#E6ECFE"/>
<path d="M30.6349 21.4536C29.4333 21.4536 28.2587 21.8099 27.2596 22.4775C26.2605 23.1451 25.4819 24.0939 25.022 25.204C24.5622 26.3141 24.4419 27.5357 24.6763 28.7142C24.9107 29.8927 25.4893 30.9752 26.339 31.8249C27.1886 32.6745 28.2712 33.2531 29.4497 33.4875C30.6282 33.722 31.8497 33.6017 32.9598 33.1418C34.07 32.682 35.0188 31.9033 35.6864 30.9042C36.3539 29.9051 36.7102 28.7305 36.7102 27.5289C36.7102 25.9177 36.0702 24.3724 34.9308 23.233C33.7915 22.0937 32.2462 21.4536 30.6349 21.4536ZM32.7856 28.8169C32.8977 28.9325 32.9603 29.0872 32.9603 29.2483C32.9603 29.4093 32.8977 29.564 32.7856 29.6796C32.7276 29.7356 32.659 29.7794 32.584 29.8086C32.5089 29.8378 32.4287 29.8518 32.3482 29.8497C32.2695 29.8509 32.1915 29.8364 32.1185 29.8072C32.0455 29.778 31.979 29.7346 31.9229 29.6796L30.6349 28.3916L29.3469 29.6796C29.2908 29.7346 29.2243 29.778 29.1513 29.8072C29.0783 29.8364 29.0003 29.8509 28.9217 29.8497C28.8411 29.8518 28.761 29.8378 28.6859 29.8086C28.6108 29.7794 28.5422 29.7356 28.4842 29.6796C28.3721 29.564 28.3095 29.4093 28.3095 29.2483C28.3095 29.0872 28.3721 28.9325 28.4842 28.8169L29.7722 27.5289L28.4842 26.241C28.3698 26.1266 28.3056 25.9714 28.3056 25.8096C28.3056 25.6478 28.3698 25.4927 28.4842 25.3783C28.5986 25.2639 28.7538 25.1996 28.9156 25.1996C29.0774 25.1996 29.2325 25.2639 29.3469 25.3783L30.6349 26.6663L31.9229 25.3783C32.0373 25.2639 32.1924 25.1996 32.3542 25.1996C32.516 25.1996 32.6712 25.2639 32.7856 25.3783C32.9 25.4927 32.9642 25.6478 32.9642 25.8096C32.9642 25.9714 32.9 26.1266 32.7856 26.241L31.4976 27.5289L32.7856 28.8169Z" fill="#0B2FA3"/>
<path d="M32.8343 12.2681C32.2965 11.9157 31.6668 11.7297 31.0238 11.7335H12.0202C11.4018 11.7319 10.7954 11.9046 10.2705 12.2316L21.522 20.1053L32.8343 12.2681Z" fill="#0B2FA3"/>
<path d="M30.6346 20.2388C31.915 20.2411 33.1722 20.5805 34.2798 21.223V14.9047C34.2668 14.2682 34.0543 13.6519 33.6722 13.1428L21.5216 21.6483L9.37089 13.1428C9.00743 13.6592 8.80838 14.2733 8.7998 14.9047V27.3956C8.81257 28.2411 9.15744 29.0476 9.75991 29.641C10.3624 30.2344 11.1741 30.567 12.0197 30.5669H24.0124C23.5035 29.4566 23.2817 28.2363 23.3674 27.0179C23.453 25.7996 23.8434 24.6223 24.5026 23.5942C25.1619 22.566 26.0688 21.72 27.1402 21.1337C28.2117 20.5474 29.4132 20.2397 30.6346 20.2388Z" fill="#0B2FA3"/>
</svg>
