<svg width="114" height="18" viewBox="0 0 114 18" fill="none" xmlns="http://www.w3.org/2000/svg">
<path d="M9.0411 0.302236C9.21464 -0.100746 9.78601 -0.100745 9.95955 0.302236L12.2219 5.55563C12.2943 5.72372 12.4527 5.83883 12.6349 5.85573L18.3303 6.38396C18.7672 6.42448 18.9438 6.96789 18.6141 7.25746L14.317 11.0325C14.1795 11.1533 14.119 11.3395 14.1592 11.518L15.4168 17.0979C15.5133 17.5259 15.051 17.8618 14.6737 17.6378L9.7556 14.7174C9.59824 14.624 9.4024 14.624 9.24504 14.7174L4.3269 17.6378C3.94963 17.8618 3.48739 17.5259 3.58385 17.0979L4.84144 11.518C4.88168 11.3395 4.82117 11.1533 4.68367 11.0325L0.386501 7.25746C0.0568696 6.96789 0.233433 6.42448 0.670319 6.38396L6.3657 5.85573C6.54793 5.83883 6.70636 5.72372 6.77875 5.55563L9.0411 0.302236Z" fill="#016BE3"/>
<path d="M32.6104 0.302236C32.784 -0.100746 33.3553 -0.100745 33.5289 0.302236L35.7912 5.55563C35.8636 5.72372 36.0221 5.83883 36.2043 5.85573L41.8997 6.38396C42.3366 6.42448 42.5131 6.96789 42.1835 7.25746L37.8863 11.0325C37.7488 11.1533 37.6883 11.3395 37.7285 11.518L38.9861 17.0979C39.0826 17.5259 38.6204 17.8618 38.2431 17.6378L33.3249 14.7174C33.1676 14.624 32.9717 14.624 32.8144 14.7174L27.8962 17.6378C27.519 17.8618 27.0567 17.5259 27.1532 17.0979L28.4108 11.518C28.451 11.3395 28.3905 11.1533 28.253 11.0325L23.9558 7.25746C23.6262 6.96789 23.8028 6.42448 24.2397 6.38396L29.935 5.85573C30.1173 5.83883 30.2757 5.72372 30.3481 5.55563L32.6104 0.302236Z" fill="#016BE3"/>
<path d="M56.1798 0.302236C56.3533 -0.100746 56.9247 -0.100745 57.0982 0.302236L59.3606 5.55563C59.433 5.72372 59.5914 5.83883 59.7736 5.85573L65.469 6.38396C65.9059 6.42448 66.0825 6.96789 65.7528 7.25746L61.4556 11.0325C61.3182 11.1533 61.2576 11.3395 61.2979 11.518L62.5555 17.0979C62.6519 17.5259 62.1897 17.8618 61.8124 17.6378L56.8943 14.7174C56.7369 14.624 56.5411 14.624 56.3837 14.7174L51.4656 17.6378C51.0883 17.8618 50.6261 17.5259 50.7225 17.0979L51.9801 11.518C52.0204 11.3395 51.9598 11.1533 51.8223 11.0325L47.5252 7.25746C47.1955 6.96789 47.3721 6.42448 47.809 6.38396L53.5044 5.85573C53.6866 5.83883 53.845 5.72372 53.9174 5.55563L56.1798 0.302236Z" fill="#016BE3"/>
<path d="M79.7491 0.302236C79.9226 -0.100746 80.494 -0.100745 80.6676 0.302236L82.9299 5.55563C83.0023 5.72372 83.1607 5.83883 83.343 5.85573L89.0383 6.38396C89.4752 6.42448 89.6518 6.96789 89.3222 7.25746L85.025 11.0325C84.8875 11.1533 84.827 11.3395 84.8672 11.518L86.1248 17.0979C86.2213 17.5259 85.759 17.8618 85.3818 17.6378L80.4636 14.7174C80.3063 14.624 80.1104 14.624 79.9531 14.7174L75.0349 17.6378C74.6576 17.8618 74.1954 17.5259 74.2919 17.0979L75.5495 11.518C75.5897 11.3395 75.5292 11.1533 75.3917 11.0325L71.0945 7.25746C70.7649 6.96789 70.9414 6.42448 71.3783 6.38396L77.0737 5.85573C77.2559 5.83883 77.4144 5.72372 77.4868 5.55563L79.7491 0.302236Z" fill="#016BE3"/>
<path d="M103.318 0.302236C103.492 -0.100746 104.063 -0.100745 104.237 0.302236L106.499 5.55563C106.572 5.72372 106.73 5.83883 106.912 5.85573L112.608 6.38396C113.045 6.42448 113.221 6.96789 112.891 7.25746L108.594 11.0325C108.457 11.1533 108.396 11.3395 108.437 11.518L109.694 17.0979C109.791 17.5259 109.328 17.8618 108.951 17.6378L104.033 14.7174C103.876 14.624 103.68 14.624 103.522 14.7174L98.6042 17.6378C98.227 17.8618 97.7647 17.5259 97.8612 17.0979L99.1188 11.518C99.159 11.3395 99.0985 11.1533 98.961 11.0325L94.6638 7.25746C94.3342 6.96789 94.5108 6.42448 94.9477 6.38396L100.643 5.85573C100.825 5.83883 100.984 5.72372 101.056 5.55563L103.318 0.302236Z" fill="#016BE3"/>
</svg>
