<svg width="37" height="37" viewBox="0 0 37 37" fill="none" xmlns="http://www.w3.org/2000/svg">
<path d="M20.6329 19.0391H16.3757C15.9523 19.0391 15.5463 19.2073 15.2469 19.5067C14.9475 19.806 14.7793 20.2121 14.7793 20.6355V24.327C15.8895 25.0437 17.1829 25.4249 18.5043 25.4249C19.8258 25.4249 21.1192 25.0437 22.2294 24.327V20.6355C22.2294 20.2121 22.0612 19.806 21.7618 19.5067C21.4624 19.2073 21.0563 19.0391 20.6329 19.0391Z" fill="#0E4B91"/>
<path d="M25.4199 18.5077C25.4218 17.3635 25.1399 16.2366 24.5993 15.2281C24.0588 14.2196 23.2766 13.3609 22.3227 12.729C21.3689 12.097 20.2732 11.7115 19.1337 11.607C17.9943 11.5025 16.8467 11.6823 15.7938 12.1302C14.7409 12.5781 13.8156 13.2802 13.1006 14.1736C12.3857 15.0669 11.9035 16.1237 11.6973 17.2492C11.491 18.3746 11.5672 19.5337 11.9189 20.6225C12.2706 21.7113 12.8869 22.6959 13.7126 23.4881V20.6363C13.7134 19.9309 13.994 19.2546 14.4928 18.7558C14.9916 18.257 15.6679 17.9764 16.3733 17.9755H18.5019C17.9757 17.9755 17.4612 17.8195 17.0237 17.5271C16.5861 17.2347 16.2451 16.8192 16.0437 16.333C15.8423 15.8468 15.7896 15.3118 15.8923 14.7957C15.995 14.2796 16.2484 13.8055 16.6205 13.4333C16.9926 13.0612 17.4667 12.8078 17.9828 12.7052C18.499 12.6025 19.0339 12.6552 19.5201 12.8566C20.0063 13.058 20.4219 13.399 20.7142 13.8365C21.0066 14.2741 21.1627 14.7885 21.1627 15.3148C21.1618 16.0202 20.8812 16.6965 20.3824 17.1953C19.8836 17.6941 19.2073 17.9747 18.5019 17.9755H20.6305C21.3359 17.9764 22.0122 18.257 22.511 18.7558C23.0098 19.2546 23.2904 19.9309 23.2913 20.6363V23.4881C23.9639 22.8446 24.4993 22.0716 24.8651 21.2157C25.231 20.3597 25.4197 19.4385 25.4199 18.5077Z" fill="#0E4B91"/>
<path d="M18.5047 16.9116C19.3863 16.9116 20.1011 16.1969 20.1011 15.3152C20.1011 14.4335 19.3863 13.7188 18.5047 13.7188C17.623 13.7188 16.9082 14.4335 16.9082 15.3152C16.9082 16.1969 17.623 16.9116 18.5047 16.9116Z" fill="#0E4B91"/>
<path d="M13.2581 12.5018L7.86266 7.1063V3.60156H3.60547V7.85876H7.1102L12.5057 13.2542C12.7397 12.9872 12.9911 12.7358 13.2581 12.5018Z" fill="#016BE3"/>
<path d="M10.5211 18.5036C10.5211 18.3237 10.5365 18.1481 10.5482 17.9715H7.7853C7.65578 17.4698 7.34776 17.0326 6.91896 16.7419C6.49017 16.4511 5.97004 16.3267 5.45609 16.392C4.94213 16.4573 4.46962 16.7077 4.12714 17.0965C3.78465 17.4852 3.5957 17.9855 3.5957 18.5036C3.5957 19.0217 3.78465 19.522 4.12714 19.9107C4.46962 20.2995 4.94213 20.55 5.45609 20.6152C5.97004 20.6805 6.49017 20.5561 6.91896 20.2653C7.34776 19.9746 7.65578 19.5374 7.7853 19.0358H10.5482C10.5365 18.8591 10.5211 18.6835 10.5211 18.5036Z" fill="#016BE3"/>
<path d="M12.5057 23.7422L7.1102 29.1376H3.60547V33.3948H7.86266V29.8901L13.2581 24.4946C12.9911 24.2606 12.7397 24.0092 12.5057 23.7422Z" fill="#016BE3"/>
<path d="M19.0377 29.216V26.4531C18.861 26.4648 18.6854 26.4803 18.5056 26.4803C18.3257 26.4803 18.1501 26.4648 17.9734 26.4531V29.216C17.4718 29.3456 17.0346 29.6536 16.7438 30.0824C16.453 30.5112 16.3286 31.0313 16.3939 31.5453C16.4592 32.0592 16.7097 32.5317 17.0984 32.8742C17.4872 33.2167 17.9875 33.4056 18.5056 33.4056C19.0236 33.4056 19.5239 33.2167 19.9127 32.8742C20.3014 32.5317 20.5519 32.0592 20.6172 31.5453C20.6825 31.0313 20.5581 30.5112 20.2673 30.0824C19.9765 29.6536 19.5393 29.3456 19.0377 29.216Z" fill="#016BE3"/>
<path d="M29.8999 29.1376L24.5044 23.7422C24.2704 24.0092 24.019 24.2606 23.752 24.4946L29.1474 29.8901V33.3948H33.4046V29.1376H29.8999Z" fill="#016BE3"/>
<path d="M31.2774 16.375C30.8066 16.3758 30.3494 16.5331 29.9776 16.8221C29.6059 17.111 29.3408 17.5154 29.2239 17.9714H26.4609C26.4726 18.1481 26.4881 18.3237 26.4881 18.5036C26.4881 18.6835 26.4726 18.8591 26.4609 19.0357H29.2239C29.324 19.4204 29.53 19.7693 29.8184 20.0428C30.1069 20.3163 30.4662 20.5034 30.8557 20.5829C31.2451 20.6624 31.6491 20.631 32.0216 20.4925C32.3942 20.3539 32.7204 20.1137 32.9633 19.799C33.2061 19.4843 33.3559 19.1079 33.3955 18.7124C33.4352 18.3169 33.3631 17.9182 33.1875 17.5616C33.012 17.2049 32.7399 16.9047 32.4022 16.695C32.0646 16.4852 31.6749 16.3744 31.2774 16.375Z" fill="#016BE3"/>
<path d="M29.1474 3.60156V7.1063L23.752 12.5018C24.019 12.7358 24.2704 12.9872 24.5044 13.2542L29.8999 7.85876H33.4046V3.60156H29.1474Z" fill="#016BE3"/>
<path d="M17.9734 7.78335V10.5463C18.1501 10.5346 18.3257 10.5191 18.5056 10.5191C18.6854 10.5191 18.861 10.5346 19.0377 10.5463V7.78335C19.5393 7.65383 19.9765 7.3458 20.2673 6.91701C20.5581 6.48821 20.6825 5.96809 20.6172 5.45413C20.5519 4.94018 20.3014 4.46767 19.9127 4.12519C19.5239 3.7827 19.0236 3.59375 18.5056 3.59375C17.9875 3.59375 17.4872 3.7827 17.0984 4.12519C16.7097 4.46767 16.4592 4.94018 16.3939 5.45413C16.3286 5.96809 16.453 6.48821 16.7438 6.91701C17.0346 7.3458 17.4718 7.65383 17.9734 7.78335Z" fill="#016BE3"/>
</svg>
