<svg width="28" height="28" viewBox="0 0 28 28" fill="none" xmlns="http://www.w3.org/2000/svg">
<path d="M21.7206 10.8182V12.7272H23.078L23.0782 10.8182C23.0782 10.3117 22.8637 9.82615 22.4817 9.46824C22.0998 9.1103 21.5819 8.90917 21.0419 8.90917H14.933V1.90903C14.933 1.4028 14.7185 0.917207 14.3365 0.559291C13.9547 0.201135 13.4367 0 12.8967 0H2.0363C1.49632 0 0.978354 0.20113 0.596344 0.559291C0.214539 0.917234 0 1.40281 0 1.90903V27.3629C0 27.5317 0.0715904 27.6936 0.198859 27.8129C0.326128 27.9322 0.498846 27.9993 0.678843 27.9993H4.0726V19.7267C4.0726 19.2205 4.28713 18.7349 4.66894 18.3767C5.05097 18.0188 5.56892 17.8177 6.10889 17.8177H8.82403C9.36401 17.8177 9.88198 18.0188 10.2638 18.3767C10.6458 18.7349 10.8603 19.2205 10.8603 19.7267V27.9993H14.2541C14.4341 27.9993 14.6068 27.9322 14.7341 27.8129C14.8613 27.6936 14.9329 27.5317 14.9329 27.3629V10.1817H21.0418C21.2218 10.1817 21.3943 10.2488 21.5218 10.3681C21.6491 10.4874 21.7206 10.6494 21.7206 10.8182ZM6.78809 15.9089C6.78809 16.0776 6.7165 16.2395 6.58923 16.3589C6.46196 16.4782 6.28924 16.5453 6.10925 16.5453H3.39411C3.01935 16.5453 2.7155 16.2602 2.7155 15.9089V13.3634C2.7155 13.0121 3.01935 12.7272 3.39411 12.7272H6.10925C6.28924 12.7272 6.46196 12.7941 6.58923 12.9134C6.7165 13.033 6.78809 13.1947 6.78809 13.3634V15.9089ZM6.78809 10.8182C6.78809 10.9869 6.7165 11.1487 6.58923 11.2682C6.46196 11.3875 6.28924 11.4544 6.10925 11.4544H3.39411C3.01935 11.4544 2.7155 11.1695 2.7155 10.8182V8.27276C2.7155 7.92142 3.01935 7.63634 3.39411 7.63634H6.10925C6.28924 7.63634 6.46196 7.70346 6.58923 7.82277C6.7165 7.94208 6.78809 8.10401 6.78809 8.27276V10.8182ZM6.78809 5.72752C6.78809 5.89627 6.7165 6.05798 6.58923 6.1773C6.46196 6.29661 6.28924 6.36373 6.10925 6.36373H3.39411C3.01935 6.36373 2.7155 6.07886 2.7155 5.72731V3.18208C2.7155 2.83053 3.01935 2.54567 3.39411 2.54567H6.10925C6.28924 2.54567 6.46196 2.61278 6.58923 2.7321C6.7165 2.85141 6.78809 3.01334 6.78809 3.18208V5.72752ZM12.2181 15.9092C12.2181 16.0779 12.1466 16.2397 12.0193 16.359C11.892 16.4783 11.7193 16.5454 11.5393 16.5454H8.82439C8.4494 16.5454 8.14554 16.2603 8.14554 15.909V13.3635C8.14554 13.0122 8.4494 12.7273 8.82439 12.7273H11.5395C11.7195 12.7273 11.892 12.7942 12.0193 12.9136C12.1466 13.0331 12.2181 13.1948 12.2181 13.3635L12.2181 15.9092ZM12.2181 10.8185C12.2181 10.9873 12.1466 11.1488 12.0193 11.2683C11.892 11.3876 11.7193 11.4545 11.5393 11.4545H8.82439C8.4494 11.4545 8.14554 11.1696 8.14554 10.8183V8.27287C8.14554 7.92153 8.4494 7.63645 8.82439 7.63645H11.5395C11.7195 7.63645 11.892 7.70357 12.0193 7.82288C12.1466 7.9422 12.2181 8.10412 12.2181 8.27287L12.2181 10.8185ZM12.2181 5.72785C12.2181 5.8966 12.1466 6.0581 12.0193 6.17741C11.892 6.29672 11.7193 6.36384 11.5393 6.36384H8.82439C8.4494 6.36384 8.14554 6.07897 8.14554 5.72742V3.1822C8.14554 2.83065 8.4494 2.54578 8.82439 2.54578H11.5395C11.7195 2.54578 11.892 2.6129 12.0193 2.73221C12.1466 2.85153 12.2181 3.01345 12.2181 3.1822L12.2181 5.72785ZM4.07295 3.81839H5.4304V5.091L4.07295 5.09121V3.81839ZM4.07295 8.90906H5.4304V10.1817L4.07295 10.1819V8.90906ZM4.07295 13.9997H5.4304V15.2723L4.07295 15.2726V13.9997ZM9.503 13.9997H10.8605V15.2723L9.503 15.2726V13.9997ZM9.503 19.7268V27.9995H5.4304V19.7268C5.4304 19.3755 5.73449 19.0904 6.10925 19.0904H8.82439C9.00439 19.0904 9.17688 19.1575 9.30437 19.2768C9.43164 19.3961 9.503 19.5581 9.503 19.7268ZM9.503 3.8186H10.8605V5.09122L9.503 5.09143V3.8186ZM9.503 8.90927H10.8605V10.1819L9.503 10.1821V8.90927ZM16.2909 12.7273V11.4547H20.3634V12.7273H16.2909Z" fill="#016BE3"/>
<path d="M24.2665 19.6476C23.9365 19.6476 23.6198 19.522 23.3865 19.2982C23.1531 19.0745 23.0221 18.7709 23.0221 18.4545V14.875H18.6665C18.1715 14.875 17.6967 15.0636 17.3465 15.3991C16.9965 15.7349 16.7998 16.1902 16.7998 16.6647V26.2103C16.7998 26.6849 16.9965 27.1401 17.3465 27.4757C17.6967 27.8114 18.1715 28 18.6665 28H26.1331C26.6281 28 27.103 27.8114 27.4531 27.4757C27.8031 27.1401 27.9998 26.6848 27.9998 26.2103V19.6475L24.2665 19.6476ZM25.5108 25.0168H19.289V23.8237H25.5108V25.0168ZM25.5108 22.6304L19.289 22.6306V21.4373H25.5108V22.6304ZM23.6442 18.4543V15.4717C23.6454 15.2308 23.7977 15.0142 24.03 14.9228C24.2617 14.8293 24.5294 14.8788 24.7084 15.048L27.8194 18.0308C27.9959 18.2024 28.0475 18.4591 27.95 18.6812C27.8546 18.904 27.6288 19.05 27.3775 19.0512H24.2665C23.923 19.0512 23.6442 18.7839 23.6442 18.4545L23.6442 18.4543Z" fill="#016BE3" fill-opacity="0.58"/>
</svg>
