<svg width="22" height="22" viewBox="0 0 22 22" fill="none" xmlns="http://www.w3.org/2000/svg">
<path d="M18.4646 9.73229C20.6836 9.73229 22.2512 10.6892 21.9665 11.8716L20.6734 17.2217C20.389 18.402 19.1787 19.3604 17.9713 19.3604H16.8791C16.6256 19.3604 16.3731 19.3162 16.1279 19.2371L17.8997 11.9053C18.0743 11.1882 17.9114 10.4832 17.429 9.87267C17.3909 9.8264 17.3493 9.77938 17.3067 9.73218L18.4646 9.73229Z" fill="#016BE3" fill-opacity="0.58"/>
<path d="M17.4528 3.31445C18.9313 3.31445 20.1295 4.51171 20.1295 5.98757C20.1295 7.46453 18.9315 8.66313 17.4528 8.66313C15.9759 8.66313 14.7788 7.46473 14.7788 5.98757C14.7784 4.51137 15.9755 3.31445 17.4528 3.31445Z" fill="#016BE3" fill-opacity="0.58"/>
<path d="M12.3863 8.7998C15.43 8.7998 17.5783 10.1131 17.1866 11.7338L15.4154 19.0665C15.0236 20.686 13.3649 21.9999 11.7106 21.9999H10.2116C8.55717 21.9999 6.90878 20.686 6.52925 19.0665L4.80993 11.7338C4.43006 10.1131 6.59024 8.7998 9.6322 8.7998H12.3863Z" fill="#016BE3"/>
<path d="M14.6661 3.66666C14.6661 5.69162 13.0246 7.33332 10.9997 7.33332C8.97456 7.33332 7.33301 5.69162 7.33301 3.66666C7.33301 1.6417 8.97452 0 10.9997 0C13.0246 0 14.6661 1.6417 14.6661 3.66666Z" fill="#016BE3"/>
<path d="M4.54735 3.31445C6.02431 3.31445 7.22104 4.51171 7.22104 5.98757C7.22104 7.46453 6.02431 8.66313 4.54735 8.66313C3.06852 8.66313 1.87256 7.46473 1.87256 5.98757C1.87256 4.51137 3.06852 3.31445 4.54735 3.31445Z" fill="#016BE3" fill-opacity="0.58"/>
<path d="M5.81479 19.234V19.2372C5.56981 19.3163 5.31885 19.3605 5.06532 19.3605H3.97272C2.76686 19.3605 1.5612 18.4021 1.2856 17.2218L0.0316043 11.8717C-0.245466 10.6894 1.33002 9.73242 3.54862 9.73242H4.69964C4.65897 9.77981 4.6168 9.82254 4.57855 9.87291C4.09417 10.483 3.92886 11.1836 4.09623 11.9018L5.81479 19.234Z" fill="#016BE3" fill-opacity="0.58"/>
</svg>
