<svg width="22" height="22" viewBox="0 0 22 22" fill="none" xmlns="http://www.w3.org/2000/svg">
<path d="M0.710449 7.88618C0.710449 6.397 1.92898 5.17847 3.41817 5.17847C4.90735 5.17847 6.12588 6.397 6.12588 7.88618C6.12588 9.37537 4.90735 10.5939 3.41817 10.5939C1.92882 10.5939 0.710449 9.37553 0.710449 7.88618Z" fill="#016BE3"/>
<path d="M15.8057 7.88618C15.8057 6.397 17.0242 5.17847 18.5134 5.17847C20.0026 5.17847 21.2211 6.397 21.2211 7.88618C21.2211 9.37537 20.0026 10.5939 18.5134 10.5939C17.0242 10.5939 15.8057 9.37553 15.8057 7.88618Z" fill="#016BE3"/>
<path d="M21.9321 14.08V21.6616C21.9321 21.8646 21.7967 22 21.5937 22H15.3999C15.1969 22 15.0615 21.8646 15.0615 21.6616V16.6183C13.1999 17.8028 10.9659 17.6676 10.8307 17.6676C9.30753 17.6676 7.95377 17.3291 6.87067 16.6183V21.6616C6.87067 21.8646 6.70144 22 6.53222 22H0.338446C0.135412 22 0 21.8646 0 21.6616V14.08C0 12.6247 1.18454 11.4399 2.6401 11.4399H4.26472C5.34782 11.4399 6.32936 12.1168 6.73545 13.1323C6.93848 13.7078 7.37852 14.4861 8.15702 14.9262C9.0709 15.4338 10.0186 15.5692 11.0339 15.5692H11.474C12.3879 15.5354 13.2002 15.2984 13.8433 14.9262C14.6218 14.4861 15.0278 13.7076 15.2648 13.1323C15.6371 12.117 16.6526 11.4399 17.7356 11.4399H19.3602C20.7479 11.4401 21.9326 12.6246 21.9326 14.08H21.9321Z" fill="#016BE3"/>
<path d="M15.8737 3.07998V5.92309C15.8737 6.39695 15.5014 6.7692 15.0276 6.7692H14.6891L14.7567 7.41228C14.7567 7.54768 14.7229 7.6831 14.5875 7.75072C14.4859 7.81835 14.3507 7.81835 14.2153 7.75072L12.7261 6.76922H10.4246C10.0523 6.76922 9.74769 6.53237 9.6123 6.22775H12.0492C12.9631 6.22775 13.7076 5.48307 13.7076 4.56935L13.7075 2.23389H14.9598C15.4675 2.23389 15.8737 2.60614 15.8737 3.08L15.8737 3.07998Z" fill="#016BE3" fill-opacity="0.58"/>
<path d="M13.0644 0.981518V4.56929C13.0644 5.11077 12.6244 5.5508 12.0829 5.5508H9.17218L7.31057 6.76933C7.20898 6.83695 7.07372 6.83695 6.93832 6.76933C6.83672 6.7017 6.76909 6.56629 6.76909 6.43088L6.87069 5.51699H6.36301C5.82153 5.51699 5.3815 5.07696 5.3815 4.53549L5.38135 0.981502C5.38135 0.44003 5.82138 0 6.36285 0H12.0827C12.6242 0 13.0642 0.44003 13.0642 0.981502L13.0644 0.981518Z" fill="#016BE3" fill-opacity="0.58"/>
</svg>
