<svg width="37" height="36" viewBox="0 0 37 36" fill="none" xmlns="http://www.w3.org/2000/svg">
<path d="M28.1861 12.8523V20.2175C28.1861 20.2175 23.8408 23.1144 18.0471 23.1144C12.2535 23.1144 7.9082 20.2175 7.9082 20.2175V12.8523L17.7869 16.652C17.9544 16.7162 18.1394 16.7162 18.3069 16.652L28.1861 12.8523Z" fill="#016BE3" fill-opacity="0.58"/>
<path d="M35.8133 7.59069L33.9796 8.29607V14.5571C34.8216 14.8564 35.428 15.6521 35.428 16.597V19.7835C35.428 20.0234 35.2334 20.218 34.9935 20.218H31.5173C31.2773 20.218 31.0827 20.0234 31.0827 19.7835V16.597C31.0827 15.6526 31.6891 14.8564 32.5312 14.5571V8.85323L18.2044 14.3635C18.0957 14.3635 17.9982 14.3635 17.89 14.3635L0.280631 7.59069C-0.0935438 7.44681 -0.0935438 6.91717 0.280631 6.77281L17.89 0C17.9987 0 18.0962 0 18.2044 0L35.8138 6.77281C36.1879 6.91717 36.1879 7.44681 35.8133 7.59069Z" fill="#016BE3"/>
<path d="M31.3488 31.8049H6.45965C5.65964 31.8049 5.01123 31.1565 5.01123 30.3565C5.01123 29.5565 5.65964 28.9081 6.45965 28.9081H31.3488C31.1871 29.3634 31.0828 29.8457 31.0828 30.3565C31.0828 30.8673 31.1871 31.3496 31.3488 31.8049Z" fill="#016BE3" fill-opacity="0.58"/>
<path d="M3.20046 30.3565C3.20046 31.9541 4.4997 33.2533 6.0973 33.2533H33.2552C33.6549 33.2533 33.9794 33.5773 33.9794 33.9775V34.7017C33.9794 35.1015 33.6549 35.4259 33.2552 35.4259H6.0973C3.30233 35.4259 1.02783 33.1514 1.02783 30.3565C1.02783 27.5615 3.30233 25.287 6.0973 25.287H33.2552C33.6549 25.287 33.9794 25.611 33.9794 26.0112V26.7354C33.9794 27.1352 33.6549 27.4596 33.2552 27.4596H6.0973C4.4997 27.4596 3.20046 28.7589 3.20046 30.3565Z" fill="#016BE3"/>
</svg>
