<svg width="200" height="70" viewBox="0 0 200 70" fill="none" xmlns="http://www.w3.org/2000/svg">
<g clip-path="url(#clip0_4865_17464)">
<path d="M42.9832 47.6754C42.9832 47.723 43.0308 47.7628 43.126 47.7945C43.2214 47.8104 43.3484 47.8342 43.5072 47.8659C43.6818 47.8818 43.8644 47.8977 44.0549 47.9136C44.2455 47.9136 44.436 47.9136 44.6265 47.9136H45.2697V49.1997H37.9102V47.9136H38.1483C38.6881 47.9136 39.1248 47.858 39.4582 47.7468C39.8075 47.6357 39.9823 47.4055 39.9823 47.0562V34.4331C39.9823 34.0838 39.8075 33.8535 39.4582 33.7424C39.1248 33.6312 38.6881 33.5756 38.1483 33.5756H37.9102V32.2895H45.5078C47.5243 32.2895 49.0883 32.7421 50.1998 33.6472C51.3112 34.5363 51.867 35.7509 51.867 37.2911C51.867 38.339 51.605 39.2601 51.0811 40.054C50.5571 40.8319 49.8107 41.4433 48.8422 41.8878C47.8736 42.3166 46.7225 42.5309 45.3887 42.5309H42.2687V41.0067H45.0315C45.873 41.0067 46.5637 40.8637 47.1036 40.5779C47.6593 40.2762 48.0721 39.8475 48.342 39.2917C48.6279 38.736 48.7707 38.0851 48.7707 37.3388C48.7707 36.5766 48.6358 35.9414 48.3658 35.4334C48.0959 34.9094 47.691 34.5125 47.1512 34.2426C46.6272 33.9726 45.9604 33.8377 45.1505 33.8377H42.9832V47.6754ZM56.6552 34.7427C56.1312 34.7427 55.7025 34.5998 55.3691 34.314C55.0515 34.0282 54.8927 33.6312 54.8927 33.1232C54.8927 32.6309 55.0515 32.2419 55.3691 31.9561C55.7025 31.6703 56.1312 31.5273 56.6552 31.5273C57.1633 31.5273 57.5761 31.6703 57.8936 31.9561C58.2271 32.2419 58.3938 32.6309 58.3938 33.1232C58.3938 33.6312 58.2271 34.0282 57.8936 34.314C57.5761 34.5998 57.1633 34.7427 56.6552 34.7427ZM58.1557 37.0768V47.1752C58.1557 47.5087 58.3224 47.731 58.6558 47.8421C58.9892 47.9374 59.4021 47.9851 59.8943 47.9851H59.9181V49.1997H53.5351V47.9851H53.5589C54.0671 47.9851 54.4799 47.9374 54.7974 47.8421C55.1309 47.731 55.2976 47.5087 55.2976 47.1752V39.3394C55.2976 39.0218 55.1705 38.8075 54.9166 38.6963C54.6783 38.5851 54.2972 38.474 53.7732 38.363L53.5351 38.3152V37.0768H58.1557ZM74.1881 49.1997H67.7099V47.9851H67.7575C68.0592 47.9851 68.3609 47.9771 68.6626 47.9612C68.9643 47.9453 69.2104 47.9215 69.4009 47.8898C69.5914 47.858 69.6867 47.8183 69.6867 47.7706L66.3284 43.6742L66.2332 43.6026L62.4939 38.9106C62.3669 38.7519 62.232 38.6329 62.089 38.5535C61.962 38.4582 61.8032 38.3946 61.6126 38.363C61.4221 38.3152 61.1919 38.2914 60.922 38.2914H60.8982V37.0768H67.2811V38.2676H67.2335C66.9477 38.2676 66.6619 38.2756 66.3761 38.2914C66.0903 38.3074 65.8521 38.3312 65.6616 38.363C65.4869 38.3788 65.3997 38.4106 65.3997 38.4582L68.615 42.5071L68.7102 42.6024L72.4495 47.1752C72.6082 47.3658 72.7592 47.5245 72.902 47.6516C73.0607 47.7628 73.2354 47.8501 73.426 47.9136C73.6165 47.9612 73.8626 47.9851 74.1643 47.9851H74.1881V49.1997ZM60.6839 49.1997V47.9851H60.7077C60.9299 47.9851 61.1363 47.9533 61.3269 47.8898C61.5332 47.8262 61.7318 47.731 61.9223 47.604C62.1128 47.4611 62.2954 47.2864 62.4701 47.08L66.0903 42.7929L67.2811 43.6026L63.9944 47.5087C63.9944 47.604 64.0817 47.6912 64.2563 47.7706C64.4469 47.8342 64.6771 47.8898 64.9471 47.9374C65.217 47.9691 65.4869 47.9851 65.7568 47.9851H65.7807V49.1997H60.6839ZM68.6388 43.3407L67.5194 42.4594L70.6393 38.744C70.6393 38.6487 70.5521 38.5693 70.3774 38.5058C70.2027 38.4264 69.9804 38.3708 69.7105 38.339C69.4565 38.2914 69.2024 38.2676 68.9483 38.2676H68.8769V37.0768H73.9262V38.2676H73.9024C73.6483 38.2676 73.418 38.3074 73.2116 38.3868C73.0053 38.4502 72.8068 38.5613 72.6162 38.7201C72.4257 38.879 72.2192 39.0853 71.997 39.3394L68.6388 43.3407ZM77.8197 43.2216C77.8197 43.952 77.907 44.6109 78.0817 45.1984C78.2563 45.7859 78.5104 46.2781 78.8439 46.6751C79.1772 47.072 79.5742 47.3737 80.0347 47.5801C80.4951 47.7866 81.0112 47.8898 81.5828 47.8898C82.2021 47.8898 82.734 47.7706 83.1786 47.5325C83.6231 47.2785 84.0042 46.9768 84.3218 46.6274C84.6393 46.2623 84.9013 45.897 85.1077 45.5319L86.3701 46.556C86.0684 47.0958 85.6873 47.5881 85.2269 48.0327C84.7663 48.4614 84.2186 48.8028 83.5835 49.0568C82.9483 49.3109 82.1941 49.4378 81.3208 49.4378C80.0823 49.4378 78.9788 49.1839 78.0102 48.6757C77.0575 48.1676 76.3033 47.4451 75.7476 46.5084C75.1919 45.5715 74.914 44.4601 74.914 43.174C74.914 41.9196 75.176 40.8161 75.7 39.8634C76.2398 38.9106 76.9543 38.1724 77.8435 37.6484C78.7485 37.1086 79.7648 36.8385 80.8921 36.8385C81.8131 36.8385 82.6148 36.9815 83.2976 37.2673C83.9963 37.5531 84.5758 37.9819 85.0363 38.5535C85.5126 39.1251 85.8699 39.8475 86.108 40.7208C86.3621 41.5783 86.4891 42.5865 86.4891 43.7456H77.391V42.2689H84.2503L83.6311 42.8643C83.6152 42.0705 83.5517 41.3877 83.4405 40.8161C83.3294 40.2445 83.1626 39.7839 82.9403 39.4346C82.7181 39.0695 82.4402 38.7996 82.1068 38.6249C81.7733 38.4502 81.3764 38.363 80.916 38.363C80.4872 38.363 80.0823 38.4661 79.7012 38.6725C79.3361 38.879 79.0106 39.1965 78.7247 39.6252C78.439 40.038 78.2167 40.5461 78.0579 41.1495C77.899 41.737 77.8197 42.4276 77.8197 43.2216ZM92.4842 31.6941V47.1752C92.4842 47.5087 92.6429 47.731 92.9606 47.8421C93.2781 47.9374 93.6909 47.9851 94.199 47.9851H94.2228V49.1997H87.8398V47.9851H87.8875C88.3956 47.9851 88.8084 47.9374 89.1259 47.8421C89.4436 47.731 89.6023 47.5087 89.6023 47.1752V33.9567C89.6023 33.7503 89.5467 33.5916 89.4356 33.4804C89.3403 33.3533 89.1815 33.2581 88.9592 33.1946C88.737 33.1152 88.4432 33.0438 88.078 32.9802L87.8398 32.9326V31.6941H92.4842ZM103.879 33.6948C103.164 33.6948 102.498 33.8615 101.878 34.1948C101.275 34.5283 100.743 35.0047 100.283 35.6239C99.838 36.2431 99.4887 36.9894 99.2347 37.8627C98.9806 38.7201 98.8536 39.6808 98.8536 40.7446C98.8536 41.8244 98.9727 42.8009 99.2108 43.6742C99.4649 44.5315 99.8222 45.2699 100.283 45.8891C100.743 46.4925 101.307 46.9609 101.974 47.2943C102.641 47.6278 103.387 47.7945 104.212 47.7945C105.102 47.7945 105.88 47.5881 106.546 47.1752C107.213 46.7624 107.769 46.1987 108.214 45.4842C108.674 44.7538 109.008 43.9361 109.214 43.031L110.762 43.6264C110.508 44.7698 110.079 45.778 109.476 46.6513C108.873 47.5245 108.103 48.2073 107.166 48.6995C106.229 49.1917 105.149 49.4378 103.927 49.4378C102.72 49.4378 101.608 49.2315 100.592 48.8186C99.5919 48.39 98.7186 47.7945 97.9724 47.0324C97.242 46.2543 96.6704 45.3334 96.2576 44.2696C95.8605 43.2057 95.6621 42.0307 95.6621 40.7446C95.6621 39.4584 95.8685 38.2835 96.2814 37.2196C96.71 36.1558 97.2896 35.2429 98.02 34.4807C98.7663 33.7026 99.6158 33.1072 100.568 32.6944C101.537 32.2657 102.569 32.0513 103.665 32.0513C104.776 32.0513 105.713 32.226 106.475 32.5753C107.237 32.9246 107.856 33.4089 108.333 34.0282C108.825 34.6474 109.198 35.3778 109.452 36.2193L108.452 36.1479L108.857 32.2895H110.452V37.4817H108.642C108.388 36.7195 108.047 36.0606 107.618 35.5048C107.205 34.9332 106.689 34.4887 106.07 34.171C105.467 33.8535 104.736 33.6948 103.879 33.6948ZM121.332 36.9339V39.6014C121.204 39.5538 121.061 39.522 120.903 39.5062C120.76 39.4744 120.609 39.4506 120.451 39.4346C120.291 39.4188 120.133 39.4108 119.974 39.4108C119.561 39.4108 119.196 39.4664 118.878 39.5776C118.577 39.6728 118.299 39.8237 118.044 40.0301C117.791 40.2365 117.561 40.5065 117.354 40.8399C117.148 41.1574 116.934 41.5465 116.711 42.0069V40.5065C116.949 39.7761 117.235 39.1409 117.568 38.6011C117.918 38.0613 118.33 37.6404 118.806 37.3388C119.284 37.0212 119.839 36.8625 120.474 36.8625C120.648 36.8625 120.816 36.8703 120.974 36.8863C121.133 36.8863 121.252 36.9021 121.332 36.9339ZM112.543 49.1997V47.9851H112.567C113.075 47.9851 113.488 47.9374 113.806 47.8421C114.123 47.731 114.282 47.5087 114.282 47.1752V39.3394C114.282 39.133 114.226 38.9742 114.115 38.863C114.02 38.7519 113.852 38.6645 113.614 38.6011C113.393 38.5217 113.107 38.4423 112.757 38.363L112.543 38.3152V37.0768H116.925V40.697L117.163 40.435V47.2943C117.163 47.5007 117.267 47.6596 117.473 47.7706C117.68 47.8659 117.925 47.9295 118.211 47.9612C118.513 47.9771 118.767 47.9851 118.973 47.9851H119.308V49.1997H112.543ZM130.645 41.864V43.1502C129.931 43.2295 129.295 43.3327 128.739 43.4598C128.184 43.571 127.7 43.7138 127.287 43.8885C126.89 44.0473 126.564 44.2378 126.31 44.4601C126.057 44.6824 125.858 44.9364 125.715 45.2222C125.588 45.508 125.525 45.8177 125.525 46.1511C125.525 46.5322 125.603 46.8577 125.763 47.1276C125.921 47.3975 126.144 47.604 126.429 47.7468C126.715 47.8898 127.049 47.9612 127.43 47.9612C127.922 47.9612 128.358 47.8421 128.739 47.604C129.137 47.3499 129.486 47.0006 129.788 46.556C130.105 46.0955 130.375 45.5636 130.598 44.9603V46.6513C130.359 47.2229 130.05 47.723 129.669 48.1517C129.288 48.5645 128.834 48.8822 128.311 49.1045C127.787 49.3267 127.191 49.4378 126.525 49.4378C125.795 49.4378 125.144 49.3109 124.572 49.0568C123.999 48.8028 123.547 48.4376 123.214 47.9612C122.88 47.469 122.714 46.8895 122.714 46.2225C122.714 45.5715 122.88 45.0079 123.214 44.5315C123.547 44.0393 124.048 43.6264 124.715 43.2931C125.382 42.9438 126.207 42.6579 127.191 42.4356C128.192 42.1975 129.343 42.0069 130.645 41.864ZM130.288 49.1997V46.7227L130.026 46.6751V40.7208C130.026 40.1333 129.946 39.6649 129.788 39.3156C129.629 38.9662 129.39 38.7201 129.074 38.5773C128.756 38.4185 128.358 38.339 127.882 38.339C127.168 38.339 126.581 38.4899 126.12 38.7916C125.676 39.0774 125.317 39.4268 125.048 39.8395C124.984 39.6649 124.96 39.4982 124.977 39.3394C125.008 39.1807 125.064 39.0377 125.144 38.9106C125.239 38.7837 125.358 38.6725 125.501 38.5773C125.644 38.482 125.802 38.4026 125.977 38.339V40.8161H123.476V38.3152C123.715 38.1247 124.048 37.9183 124.477 37.696C124.905 37.4579 125.429 37.2594 126.048 37.1006C126.668 36.9259 127.358 36.8385 128.12 36.8385C128.771 36.8385 129.375 36.9101 129.931 37.053C130.502 37.18 131.002 37.4023 131.431 37.7198C131.875 38.0215 132.217 38.4264 132.455 38.9346C132.71 39.4268 132.836 40.038 132.836 40.7684V47.1514C132.836 47.3579 132.907 47.5167 133.05 47.6278C133.21 47.739 133.416 47.8183 133.669 47.8659C133.924 47.9136 134.217 47.9453 134.551 47.9612H134.575V49.1997H130.288ZM142.512 47.5801L141.916 48.9616L140.725 49.8427L136.104 39.1251C136.009 38.9028 135.89 38.7361 135.747 38.6249C135.604 38.4979 135.422 38.4106 135.199 38.363C134.993 38.3152 134.747 38.2914 134.461 38.2914H134.437V37.0768H140.773V38.2914H140.725C140.439 38.2914 140.145 38.2994 139.844 38.3152C139.543 38.3312 139.296 38.355 139.106 38.3868C138.915 38.4026 138.82 38.4423 138.82 38.5058L142.512 47.5801ZM142.655 48.771C142.21 49.8031 141.765 50.7002 141.32 51.4623C140.892 52.2245 140.447 52.8437 139.987 53.3201C139.526 53.7964 139.041 54.1536 138.534 54.3919C138.041 54.63 137.494 54.7491 136.89 54.7491C136.478 54.7491 136.128 54.7014 135.842 54.6062C135.557 54.5109 135.327 54.3998 135.152 54.2728V51.9625C135.199 51.9784 135.31 52.026 135.485 52.1054C135.676 52.1848 135.898 52.2563 136.152 52.3198C136.422 52.3992 136.708 52.4388 137.009 52.4388C137.375 52.4388 137.732 52.3832 138.082 52.2721C138.431 52.1609 138.781 51.9546 139.129 51.6529C139.478 51.3512 139.828 50.9145 140.177 50.3429C140.543 49.7871 140.9 49.0568 141.249 48.1517L141.535 47.4849L145.155 38.8154C145.155 38.7043 145.068 38.6169 144.893 38.5535C144.735 38.474 144.512 38.4106 144.226 38.363C143.956 38.3152 143.67 38.2914 143.369 38.2914H143.298V37.0768H148.323V38.2914H148.299C148.077 38.2914 147.862 38.3232 147.655 38.3868C147.449 38.4344 147.259 38.5375 147.084 38.6963C146.91 38.8392 146.767 39.0615 146.655 39.3632L142.655 48.771ZM161.856 43.1264C161.856 44.3648 161.586 45.4604 161.046 46.4131C160.506 47.3658 159.753 48.1121 158.784 48.6519C157.816 49.1759 156.688 49.4378 155.401 49.4378C154.131 49.4378 153.012 49.1759 152.044 48.6519C151.075 48.1121 150.313 47.3658 149.757 46.4131C149.217 45.4604 148.947 44.3648 148.947 43.1264C148.947 42.2054 149.098 41.3638 149.399 40.6017C149.717 39.8237 150.161 39.1568 150.734 38.6011C151.321 38.0295 152.003 37.5928 152.782 37.2911C153.576 36.9895 154.449 36.8385 155.401 36.8385C156.37 36.8385 157.243 36.9895 158.022 37.2911C158.816 37.5928 159.498 38.0295 160.07 38.6011C160.658 39.1568 161.102 39.8237 161.404 40.6017C161.705 41.3638 161.856 42.2054 161.856 43.1264ZM151.948 43.1264C151.948 44.1108 152.083 44.9682 152.353 45.6985C152.639 46.4131 153.036 46.9688 153.544 47.3658C154.068 47.7468 154.687 47.9374 155.401 47.9374C156.132 47.9374 156.751 47.7468 157.26 47.3658C157.784 46.9688 158.18 46.4131 158.45 45.6985C158.736 44.9682 158.879 44.1108 158.879 43.1264C158.879 42.1419 158.736 41.2924 158.45 40.5779C158.18 39.8634 157.784 39.3156 157.26 38.9346C156.751 38.5535 156.132 38.363 155.401 38.363C154.687 38.363 154.068 38.5535 153.544 38.9346C153.036 39.3156 152.639 39.8634 152.353 40.5779C152.083 41.2924 151.948 42.1419 151.948 43.1264ZM163.666 49.1997V47.9851H163.69C164.023 47.9851 164.317 47.9612 164.571 47.9136C164.841 47.866 165.047 47.7866 165.19 47.6754C165.333 47.5484 165.405 47.3817 165.405 47.1752V39.3394C165.405 39.133 165.35 38.9742 165.238 38.863C165.143 38.7519 164.976 38.6645 164.738 38.6011C164.515 38.5217 164.229 38.4423 163.881 38.363L163.666 38.3152V37.0768H168.049V39.6252L168.287 39.8157V47.7706C168.287 47.8024 168.367 47.8421 168.525 47.8898C168.7 47.9215 168.898 47.9453 169.12 47.9612C169.358 47.9771 169.581 47.9851 169.787 47.9851H169.859V49.1997H163.666ZM177.933 49.1997H171.741V47.9851H171.765C171.971 47.9851 172.193 47.9771 172.431 47.9612C172.669 47.9453 172.875 47.9215 173.05 47.8898C173.224 47.8421 173.312 47.7945 173.312 47.7468V40.9113C173.312 40.3873 173.248 39.9586 173.122 39.6252C173.01 39.2759 172.82 39.0218 172.55 38.863C172.296 38.7043 171.947 38.6249 171.502 38.6249C171.025 38.6249 170.573 38.7281 170.144 38.9346C169.716 39.1409 169.311 39.4506 168.93 39.8634C168.549 40.2762 168.183 40.7843 167.834 41.3877V39.5538C168.231 38.9662 168.644 38.474 169.073 38.0771C169.517 37.6642 170.001 37.3547 170.525 37.1482C171.066 36.9418 171.653 36.8385 172.288 36.8385C173.066 36.8385 173.741 36.9815 174.313 37.2673C174.9 37.5373 175.353 37.9659 175.67 38.5535C176.003 39.1251 176.17 39.8634 176.17 40.7684V47.1752C176.17 47.3817 176.241 47.5484 176.384 47.6754C176.527 47.7866 176.726 47.866 176.981 47.9136C177.25 47.9612 177.552 47.9851 177.885 47.9851H177.933V49.1997ZM186.729 46.1273C186.729 45.8097 186.642 45.5477 186.467 45.3414C186.309 45.1349 186.086 44.9682 185.8 44.8412C185.514 44.6982 185.188 44.5792 184.824 44.4839C184.474 44.3728 184.093 44.2696 183.68 44.1742C183.204 44.0473 182.72 43.9043 182.227 43.7456C181.735 43.5868 181.29 43.3725 180.894 43.1025C180.496 42.8326 180.171 42.4912 179.917 42.0783C179.679 41.6497 179.56 41.1098 179.56 40.4588C179.56 39.7125 179.751 39.0695 180.132 38.5296C180.528 37.9739 181.076 37.5531 181.775 37.2673C182.489 36.9656 183.339 36.8147 184.324 36.8147C185.101 36.8147 185.776 36.8783 186.348 37.0053C186.935 37.1164 187.411 37.2594 187.777 37.4341C188.158 37.5928 188.436 37.7436 188.61 37.8866V40.435H186.253V38.2676C186.443 38.2518 186.594 38.2756 186.705 38.339C186.832 38.4026 186.919 38.4899 186.967 38.6011C187.03 38.7122 187.062 38.8392 187.062 38.9822C187.062 39.1091 187.03 39.2521 186.967 39.4108C186.792 39.1568 186.57 38.9504 186.3 38.7916C186.047 38.6169 185.753 38.4899 185.419 38.4106C185.086 38.3312 184.72 38.2914 184.324 38.2914C183.577 38.2914 183.013 38.4502 182.632 38.7678C182.268 39.0854 182.084 39.4902 182.084 39.9825C182.084 40.3159 182.171 40.5938 182.346 40.8161C182.521 41.0225 182.751 41.1972 183.037 41.34C183.339 41.4829 183.68 41.6099 184.061 41.7211C184.443 41.8164 184.839 41.9196 185.252 42.0307C185.744 42.1577 186.229 42.3007 186.705 42.4594C187.197 42.6182 187.642 42.8326 188.039 43.1025C188.436 43.3565 188.753 43.69 188.991 44.1028C189.229 44.5157 189.348 45.0317 189.348 45.6509C189.348 46.3972 189.142 47.0562 188.729 47.6278C188.333 48.1994 187.753 48.6439 186.991 48.9616C186.229 49.2791 185.3 49.4378 184.205 49.4378C183.411 49.4378 182.688 49.3744 182.037 49.2473C181.402 49.1203 180.838 48.9616 180.346 48.771C179.87 48.5645 179.457 48.3582 179.108 48.1517V45.4128H181.537V48.3422C181.283 48.1994 181.084 48.0565 180.941 47.9136C180.799 47.7548 180.703 47.604 180.656 47.4611C180.624 47.3023 180.615 47.1594 180.632 47.0324C180.664 46.8895 180.719 46.7624 180.799 46.6513C181.052 46.9529 181.346 47.199 181.68 47.3896C182.029 47.5801 182.411 47.723 182.823 47.8183C183.236 47.8977 183.688 47.9374 184.181 47.9374C184.705 47.9374 185.149 47.8739 185.514 47.7468C185.895 47.604 186.189 47.3975 186.395 47.1276C186.618 46.8419 186.729 46.5084 186.729 46.1273Z" fill="#05164D"/>
<mask id="mask0_4865_17464" style="mask-type:luminance" maskUnits="userSpaceOnUse" x="9" y="32" width="15" height="30">
<path d="M11.3562 61.0777C18.3224 53.7051 11.5937 42.4058 23.1513 32.1484C9.61462 38.4791 6.36897 54.0257 11.3562 61.0777Z" fill="white"/>
</mask>
<g mask="url(#mask0_4865_17464)">
<path d="M6.36719 32.0703H23.1496V60.9996H6.36719V32.0703Z" fill="url(#paint0_linear_4865_17464)"/>
</g>
<mask id="mask1_4865_17464" style="mask-type:luminance" maskUnits="userSpaceOnUse" x="10" y="1" width="20" height="40">
<path d="M23.1511 40.3195C26.0009 34.3093 27.2675 26.6964 21.3304 21.7279C12.2267 14.0347 15.789 11.9512 10.7227 1.13281C19.7472 5.0595 27.9008 11.6307 29.4049 22.0484C30.1965 27.7382 28.4549 33.8284 23.1511 40.3195Z" fill="white"/>
</mask>
<g mask="url(#mask1_4865_17464)">
<path d="M10.7227 1.13281H30.1965V40.3195H10.7227V1.13281Z" fill="url(#paint1_linear_4865_17464)"/>
</g>
<mask id="mask2_4865_17464" style="mask-type:luminance" maskUnits="userSpaceOnUse" x="0" y="5" width="54" height="36">
<path d="M23.1529 40.3239C24.2612 34.8745 24.8945 27.502 20.4614 25.739C9.37866 21.2514 9.45783 23.4952 0.75 5.94531C15.0783 7.22749 19.9072 15.2411 24.657 18.5268C26.3194 19.6487 28.0609 20.2897 29.565 19.889C31.1482 19.5685 31.3065 17.4048 33.4439 16.3631C35.5813 15.3213 38.352 15.8822 39.9352 18.126C43.1017 18.2062 49.4346 18.9274 53.7886 19.9692C47.0598 19.0877 42.0726 19.5685 37.877 21.4117C31.8607 24.1363 31.4649 31.9095 23.1529 40.3239Z" fill="white"/>
</mask>
<g mask="url(#mask2_4865_17464)">
<path d="M0.75 5.94531H53.7886V40.2437H0.75V5.94531Z" fill="url(#paint2_linear_4865_17464)"/>
</g>
<mask id="mask3_4865_17464" style="mask-type:luminance" maskUnits="userSpaceOnUse" x="11" y="15" width="43" height="32">
<path d="M20.4587 25.6565C16.5005 24.0537 13.9673 23.3325 11.9883 22.2907C12.1466 22.3708 25.7626 27.2592 30.908 18.925C31.5413 18.1236 32.0955 17.0017 33.4412 16.3606C35.5786 15.3188 38.3493 15.8798 39.9326 18.1236C43.0991 18.2037 49.432 18.925 53.7859 19.9667C47.1362 19.3257 42.0699 19.4058 37.8743 21.0886C33.5204 22.8517 33.0454 28.7818 28.3748 34.9522C26.0792 37.9974 21.2503 41.0426 21.0128 46.0912C19.1921 41.2029 21.4086 38.2379 22.8336 35.353C24.496 32.0673 24.1793 27.179 20.4587 25.6565Z" fill="white"/>
</mask>
<g mask="url(#mask3_4865_17464)">
<path d="M11.9883 15.3984H53.7859V46.0907H11.9883V15.3984Z" fill="url(#paint3_linear_4865_17464)"/>
</g>
<mask id="mask4_4865_17464" style="mask-type:luminance" maskUnits="userSpaceOnUse" x="21" y="18" width="33" height="29">
<path d="M39.936 18.2031C43.1025 18.2031 49.4354 18.9243 53.7894 19.9661C47.1397 19.3249 42.0734 19.7257 37.8778 21.4085C34.1572 22.9311 35.7404 28.5407 33.3655 34.0701C30.4365 40.6413 21.4121 40.4009 21.0955 46.0905C20.7788 38.157 28.4575 38.4776 30.5157 27.9798C31.3865 23.4119 34.1572 18.5236 39.936 18.2031Z" fill="white"/>
</mask>
<g mask="url(#mask4_4865_17464)">
<path d="M20.6953 18.2031H53.785V46.0905H20.6953V18.2031Z" fill="url(#paint4_linear_4865_17464)"/>
</g>
<mask id="mask5_4865_17464" style="mask-type:luminance" maskUnits="userSpaceOnUse" x="21" y="21" width="9" height="23">
<path d="M25.5257 30.0632C25.3674 27.7393 24.7341 25.5755 23.23 23.6523C25.4465 23.3318 27.5839 22.5305 29.2463 21.0078C29.3255 21.3284 29.4047 21.6489 29.4047 22.0496C29.8005 25.0146 29.563 28.14 28.4547 31.2653C26.9506 35.5125 21.8051 38.718 21.0926 43.2858C20.7759 37.9968 25.7632 34.631 25.5257 30.0632Z" fill="white"/>
</mask>
<g mask="url(#mask5_4865_17464)">
<path d="M20.7773 21.0078H29.8019V43.2858H20.7773V21.0078Z" fill="url(#paint5_linear_4865_17464)"/>
</g>
<mask id="mask6_4865_17464" style="mask-type:luminance" maskUnits="userSpaceOnUse" x="13" y="9" width="17" height="15">
<path d="M23.2328 23.6546C22.6787 23.0134 22.1246 22.3724 21.4121 21.7313C15.4749 16.7629 14.9208 14.1183 13.8125 9.87109C18.8789 12.756 21.8079 16.5224 24.6578 18.5259C26.0826 19.5676 27.6658 20.1285 29.0116 19.9682C29.0908 20.2888 29.1699 20.6094 29.2491 21.01C27.5075 22.5327 25.3702 23.334 23.2328 23.6546Z" fill="white"/>
</mask>
<g mask="url(#mask6_4865_17464)">
<path d="M13.8125 9.87109H29.2491V23.6546H13.8125V9.87109Z" fill="url(#paint6_linear_4865_17464)"/>
</g>
<mask id="mask7_4865_17464" style="mask-type:luminance" maskUnits="userSpaceOnUse" x="14" y="32" width="14" height="38">
<path d="M23.1534 32.0703C13.5747 42.1675 21.8076 59.2366 27.6656 69.0132C20.3035 63.9646 14.1288 56.7523 14.6038 47.2161C14.7621 42.0874 17.2954 36.9586 23.1534 32.0703Z" fill="white"/>
</mask>
<g mask="url(#mask7_4865_17464)">
<path d="M13.6523 32.0703H27.6641V69.0132H13.6523V32.0703Z" fill="url(#paint7_linear_4865_17464)"/>
</g>
<mask id="mask8_4865_17464" style="mask-type:luminance" maskUnits="userSpaceOnUse" x="13" y="32" width="11" height="31">
<path d="M20.3857 62.6825C20.5441 59.7175 20.0691 56.5921 19.04 53.2264C16.5859 45.5333 15.5568 39.7635 23.1564 32.0703C11.2029 40.3244 10.728 52.3449 20.3857 62.6825Z" fill="white"/>
</mask>
<g mask="url(#mask8_4865_17464)">
<path d="M10.7266 32.0703H23.155V62.6825H10.7266V32.0703Z" fill="url(#paint8_linear_4865_17464)"/>
</g>
<mask id="mask9_4865_17464" style="mask-type:luminance" maskUnits="userSpaceOnUse" x="5" y="32" width="19" height="24">
<path d="M5.26524 55.0695C8.66921 51.784 11.5982 49.5401 12.3899 45.373C13.3397 40.5648 15.8729 36.9586 23.1559 32.0703C9.77747 35.8368 4.15698 49.1394 5.26524 55.0695Z" fill="white"/>
</mask>
<g mask="url(#mask9_4865_17464)">
<path d="M4.15625 32.0703H23.1552V55.0695H4.15625V32.0703Z" fill="url(#paint9_linear_4865_17464)"/>
</g>
<mask id="mask10_4865_17464" style="mask-type:luminance" maskUnits="userSpaceOnUse" x="9" y="32" width="15" height="20">
<path d="M9.21875 51.1428C10.802 49.46 11.9103 47.697 12.3853 45.373C13.3351 40.5648 15.8683 36.9586 23.1513 32.0703C14.4434 36.2374 9.93121 44.1709 9.21875 51.1428Z" fill="white"/>
</mask>
<g mask="url(#mask10_4865_17464)">
<path d="M9.21875 32.0703H23.1513V51.1428H9.21875V32.0703Z" fill="url(#paint10_linear_4865_17464)"/>
</g>
<path fill-rule="evenodd" clip-rule="evenodd" d="M35.8198 18.6063C36.1364 18.6063 36.3739 18.3659 36.3739 18.0453C36.3739 17.7248 36.1364 17.4844 35.8198 17.4844C35.5031 17.4844 35.2656 17.7248 35.2656 18.0453C35.2656 18.3659 35.5031 18.6063 35.8198 18.6063Z" fill="#05164D"/>
<mask id="mask11_4865_17464" style="mask-type:luminance" maskUnits="userSpaceOnUse" x="10" y="32" width="14" height="14">
<path d="M16.2632 43.3675C17.2131 39.6812 18.9547 35.8347 23.1503 32.1484C16.5798 35.2738 12.3842 40.4826 10.4844 45.9319C12.5425 45.3709 14.5216 44.4894 16.2632 43.3675Z" fill="white"/>
</mask>
<g mask="url(#mask11_4865_17464)">
<path d="M10.4844 32.0703H23.1503V45.8538H10.4844V32.0703Z" fill="url(#paint11_linear_4865_17464)"/>
</g>
<mask id="mask12_4865_17464" style="mask-type:luminance" maskUnits="userSpaceOnUse" x="14" y="12" width="10" height="12">
<path d="M23.4717 23.973C22.9175 23.1717 22.2051 22.4505 21.4134 21.7292C16.9012 17.9628 15.4763 15.5588 14.6055 12.7539C18.8802 14.9978 22.2051 19.0847 23.4717 23.973Z" fill="white"/>
</mask>
<g mask="url(#mask12_4865_17464)">
<path d="M14.6055 12.7539H23.4717V23.973H14.6055V12.7539Z" fill="url(#paint12_linear_4865_17464)"/>
</g>
<mask id="mask13_4865_17464" style="mask-type:luminance" maskUnits="userSpaceOnUse" x="3" y="10" width="22" height="22">
<path d="M23.8634 31.1046C23.5467 28.6205 22.5968 26.5369 20.4594 25.7355C10.5642 21.8089 9.53506 23.1711 3.28125 11.0705C4.31035 10.9103 5.33947 10.75 6.44773 10.75C16.1846 10.75 24.0217 18.7637 24.0217 28.5403C24.0217 29.4218 23.9426 30.2231 23.8634 31.1046Z" fill="white"/>
</mask>
<g mask="url(#mask13_4865_17464)">
<path d="M3.28125 10.75H24.0217V31.1046H3.28125V10.75Z" fill="url(#paint13_linear_4865_17464)"/>
</g>
<mask id="mask14_4865_17464" style="mask-type:luminance" maskUnits="userSpaceOnUse" x="11" y="22" width="14" height="10">
<path d="M20.4586 25.6548C16.5004 24.052 13.9673 23.3308 11.9883 22.2891C12.1466 22.3692 17.9254 24.4528 23.3084 23.5713C23.7834 25.174 24.0209 26.7768 24.0209 28.4596C24.0209 29.4212 23.9417 30.3829 23.7834 31.3445C23.8626 29.0205 22.8334 26.6165 20.4586 25.6548Z" fill="white"/>
</mask>
<g mask="url(#mask14_4865_17464)">
<path d="M11.9883 22.2891H24.0209V31.3445H11.9883V22.2891Z" fill="url(#paint14_linear_4865_17464)"/>
</g>
<mask id="mask15_4865_17464" style="mask-type:luminance" maskUnits="userSpaceOnUse" x="23" y="23" width="1" height="1">
<path d="M23.4719 23.9729C23.3927 23.8928 23.3135 23.7325 23.2344 23.6523H23.3927L23.4719 23.9729Z" fill="white"/>
</mask>
<g mask="url(#mask15_4865_17464)">
<path d="M23.2344 23.6523H23.4719V23.9729H23.2344V23.6523Z" fill="url(#paint15_linear_4865_17464)"/>
</g>
<mask id="mask16_4865_17464" style="mask-type:luminance" maskUnits="userSpaceOnUse" x="14" y="12" width="10" height="12">
<path d="M23.2341 23.6525C22.6799 23.0114 22.1258 22.3704 21.4133 21.7292C16.9012 17.9628 15.4763 15.5588 14.6055 12.7539C18.801 14.9978 22.0466 18.9244 23.3924 23.6525H23.2341Z" fill="white"/>
</mask>
<g mask="url(#mask16_4865_17464)">
<path d="M14.6055 12.7539H23.3924V23.6525H14.6055V12.7539Z" fill="url(#paint16_linear_4865_17464)"/>
</g>
<mask id="mask17_4865_17464" style="mask-type:luminance" maskUnits="userSpaceOnUse" x="15" y="32" width="9" height="13">
<path d="M23.1488 32.0703L23.0696 32.1505L22.9905 32.2306C20.6948 34.795 19.4282 37.7601 19.0323 40.9655C17.8449 42.1675 16.4991 43.2093 15.0742 44.0106C15.945 40.0038 18.4782 35.997 23.1488 32.0703Z" fill="white"/>
</mask>
<g mask="url(#mask17_4865_17464)">
<path d="M14.9961 32.0703H23.1498V44.0908H14.9961V32.0703Z" fill="url(#paint17_linear_4865_17464)"/>
</g>
<mask id="mask18_4865_17464" style="mask-type:luminance" maskUnits="userSpaceOnUse" x="13" y="32" width="11" height="13">
<path d="M17.2946 42.5661C17.6904 39.2806 19.3528 35.9148 23.1526 32.1484C17.9279 35.7545 14.8406 40.0819 13.8906 44.7298C15.1572 44.0888 16.2655 43.3675 17.2946 42.5661Z" fill="white"/>
</mask>
<g mask="url(#mask18_4865_17464)">
<path d="M13.8906 32.0703H23.1526V44.6518H13.8906V32.0703Z" fill="url(#paint18_linear_4865_17464)"/>
</g>
<mask id="mask19_4865_17464" style="mask-type:luminance" maskUnits="userSpaceOnUse" x="6" y="32" width="18" height="15">
<path d="M12.3889 45.2929C13.3389 40.4847 15.8721 36.9586 23.1551 32.0703C14.6847 34.3943 9.38085 40.5648 6.84766 46.3346C8.74755 46.3346 10.6474 45.9339 12.3889 45.2929Z" fill="white"/>
</mask>
<g mask="url(#mask19_4865_17464)">
<path d="M6.84766 32.0703H23.1551V46.3346H6.84766V32.0703Z" fill="url(#paint19_linear_4865_17464)"/>
</g>
<mask id="mask20_4865_17464" style="mask-type:luminance" maskUnits="userSpaceOnUse" x="10" y="32" width="14" height="14">
<path d="M12.3843 45.2929C13.3342 40.4847 15.8674 36.9586 23.1503 32.0703C16.5798 35.1957 12.3842 40.4045 10.4844 45.8538C11.1177 45.6936 11.751 45.5333 12.3843 45.2929Z" fill="white"/>
</mask>
<g mask="url(#mask20_4865_17464)">
<path d="M10.4844 32.0703H23.1503V45.8538H10.4844V32.0703Z" fill="url(#paint20_linear_4865_17464)"/>
</g>
</g>
<path d="M191.547 38.1067V34.71H191.251C191.074 34.71 190.932 34.7183 190.825 34.7347C190.718 34.7512 190.638 34.7821 190.584 34.8274C190.535 34.8685 190.506 34.9262 190.498 35.0003L190.436 35.6858H190.004V34.3086H193.863V35.6858H193.437L193.375 35.0003C193.371 34.9262 193.343 34.8685 193.289 34.8274C193.235 34.7821 193.153 34.7512 193.042 34.7347C192.935 34.7183 192.793 34.71 192.616 34.71H192.319V38.1067C192.319 38.1973 192.365 38.257 192.455 38.2858C192.55 38.3146 192.667 38.329 192.807 38.329H192.912V38.6934H190.961V38.329H191.066C191.202 38.329 191.315 38.3146 191.405 38.2858C191.5 38.257 191.547 38.1973 191.547 38.1067Z" fill="#05164D"/>
<path d="M194.406 38.6934V38.329H194.474C194.564 38.329 194.645 38.3228 194.715 38.3105C194.789 38.2981 194.846 38.2755 194.888 38.2425C194.929 38.2096 194.949 38.1643 194.949 38.1067V34.8953C194.949 34.8335 194.929 34.7882 194.888 34.7594C194.846 34.7265 194.789 34.7038 194.715 34.6915C194.645 34.6791 194.564 34.673 194.474 34.673H194.406V34.3086H196.092L197.216 37.9338L197.074 37.8288L198.216 34.3086H199.865V34.673H199.797C199.707 34.673 199.624 34.6791 199.55 34.6915C199.48 34.7038 199.425 34.7265 199.383 34.7594C199.342 34.7882 199.322 34.8335 199.322 34.8953V38.1067C199.322 38.1643 199.342 38.2096 199.383 38.2425C199.425 38.2755 199.48 38.2981 199.55 38.3105C199.624 38.3228 199.707 38.329 199.797 38.329H199.865V38.6934H198.062V38.329H198.117C198.179 38.329 198.243 38.3269 198.309 38.3228C198.379 38.3187 198.436 38.3125 198.482 38.3043C198.531 38.2919 198.556 38.2796 198.556 38.2672V34.4445L198.618 34.4321L197.203 38.7057H196.746L195.332 34.4321H195.4V38.2672C195.4 38.2796 195.425 38.2919 195.474 38.3043C195.524 38.3125 195.583 38.3187 195.653 38.3228C195.723 38.3269 195.787 38.329 195.845 38.329H195.869V38.6934H194.406Z" fill="#05164D"/>
<defs>
<linearGradient id="paint0_linear_4865_17464" x1="10.9238" y1="46.6925" x2="22.5342" y2="46.3779" gradientUnits="userSpaceOnUse">
<stop stop-color="#E860F9"/>
<stop offset="0.56" stop-color="#0884D1"/>
<stop offset="1" stop-color="#0CBAB1"/>
</linearGradient>
<linearGradient id="paint1_linear_4865_17464" x1="14.099" y1="9.85414" x2="19.9438" y2="19.59" gradientUnits="userSpaceOnUse">
<stop stop-color="#16BAEB"/>
<stop offset="1" stop-color="#0FC3E2"/>
</linearGradient>
<linearGradient id="paint2_linear_4865_17464" x1="5.81661" y1="2.83016" x2="21.8099" y2="17.6052" gradientUnits="userSpaceOnUse">
<stop stop-color="#B5D91E"/>
<stop offset="0.5" stop-color="#3BDAA9"/>
<stop offset="1" stop-color="#26A5FF"/>
</linearGradient>
<linearGradient id="paint3_linear_4865_17464" x1="42.4233" y1="17.6839" x2="23.6828" y2="42.7262" gradientUnits="userSpaceOnUse">
<stop stop-color="#E860F9"/>
<stop offset="0.56" stop-color="#0884D1"/>
<stop offset="1" stop-color="#0CBAB1"/>
</linearGradient>
<linearGradient id="paint4_linear_4865_17464" x1="32.0157" y1="38.5451" x2="49.4386" y2="17.5916" gradientUnits="userSpaceOnUse">
<stop stop-color="#E860F9"/>
<stop offset="0.56" stop-color="#0884D1"/>
<stop offset="1" stop-color="#0CBAB1"/>
</linearGradient>
<linearGradient id="paint5_linear_4865_17464" x1="29.3748" y1="22.5118" x2="24.1382" y2="34.6008" gradientUnits="userSpaceOnUse">
<stop stop-color="#3512BE"/>
<stop offset="1" stop-color="#2A81EF"/>
</linearGradient>
<linearGradient id="paint6_linear_4865_17464" x1="15.1727" y1="15.1675" x2="26.5001" y2="17.9508" gradientUnits="userSpaceOnUse">
<stop stop-color="#5086FF"/>
<stop offset="1" stop-color="#7C66FF"/>
</linearGradient>
<linearGradient id="paint7_linear_4865_17464" x1="32.9978" y1="56.9885" x2="24.7961" y2="52.8497" gradientUnits="userSpaceOnUse">
<stop stop-color="#B5D91E"/>
<stop offset="0.5" stop-color="#3BDAA9"/>
<stop offset="1" stop-color="#26A5FF"/>
</linearGradient>
<linearGradient id="paint8_linear_4865_17464" x1="14.2174" y1="47.1911" x2="21.4886" y2="47.7542" gradientUnits="userSpaceOnUse">
<stop stop-color="#5086FF"/>
<stop offset="1" stop-color="#7C66FF"/>
</linearGradient>
<linearGradient id="paint9_linear_4865_17464" x1="9.06286" y1="39.9438" x2="11.9659" y2="42.2004" gradientUnits="userSpaceOnUse">
<stop stop-color="#B5D91E"/>
<stop offset="0.5" stop-color="#3BDAA9"/>
<stop offset="1" stop-color="#26A5FF"/>
</linearGradient>
<linearGradient id="paint10_linear_4865_17464" x1="7.36422" y1="37.6959" x2="13.8968" y2="40.5451" gradientUnits="userSpaceOnUse">
<stop stop-color="#BCDD35"/>
<stop offset="0.5" stop-color="#4FDEB2"/>
<stop offset="1" stop-color="#3CAEFF"/>
</linearGradient>
<linearGradient id="paint11_linear_4865_17464" x1="10.7206" y1="39.1675" x2="22.331" y2="38.853" gradientUnits="userSpaceOnUse">
<stop stop-color="#F097FB"/>
<stop offset="0.56" stop-color="#5DAEE1"/>
<stop offset="1" stop-color="#60D2CC"/>
</linearGradient>
<linearGradient id="paint12_linear_4865_17464" x1="14.0485" y1="9.88819" x2="19.8933" y2="19.6241" gradientUnits="userSpaceOnUse">
<stop stop-color="#66D2F2"/>
<stop offset="1" stop-color="#62D7EC"/>
</linearGradient>
<linearGradient id="paint13_linear_4865_17464" x1="0.567891" y1="8.50602" x2="16.5612" y2="23.2811" gradientUnits="userSpaceOnUse">
<stop stop-color="#CEE66B"/>
<stop offset="0.5" stop-color="#7FE7C7"/>
<stop offset="1" stop-color="#72C4FF"/>
</linearGradient>
<linearGradient id="paint14_linear_4865_17464" x1="30.9825" y1="9.12115" x2="12.242" y2="34.1633" gradientUnits="userSpaceOnUse">
<stop stop-color="#F097FB"/>
<stop offset="0.56" stop-color="#5DAEE1"/>
<stop offset="1" stop-color="#60D2CC"/>
</linearGradient>
<linearGradient id="paint15_linear_4865_17464" x1="24.725" y1="20.4963" x2="19.4884" y2="32.5854" gradientUnits="userSpaceOnUse">
<stop stop-color="#7A63D5"/>
<stop offset="1" stop-color="#73ACF4"/>
</linearGradient>
<linearGradient id="paint16_linear_4865_17464" x1="14.6956" y1="17.1125" x2="26.0229" y2="19.8959" gradientUnits="userSpaceOnUse">
<stop stop-color="#8DB0FF"/>
<stop offset="1" stop-color="#AA9AFF"/>
</linearGradient>
<linearGradient id="paint17_linear_4865_17464" x1="37.6665" y1="47.7326" x2="29.4648" y2="43.5939" gradientUnits="userSpaceOnUse">
<stop stop-color="#CEE66B"/>
<stop offset="0.5" stop-color="#7FE7C7"/>
<stop offset="1" stop-color="#72C4FF"/>
</linearGradient>
<linearGradient id="paint18_linear_4865_17464" x1="14.9189" y1="38.1034" x2="22.1899" y2="38.6666" gradientUnits="userSpaceOnUse">
<stop stop-color="#8DB0FF"/>
<stop offset="1" stop-color="#AA9AFF"/>
</linearGradient>
<linearGradient id="paint19_linear_4865_17464" x1="11.6693" y1="36.5907" x2="14.5724" y2="38.8474" gradientUnits="userSpaceOnUse">
<stop stop-color="#CEE66B"/>
<stop offset="0.5" stop-color="#7FE7C7"/>
<stop offset="1" stop-color="#72C4FF"/>
</linearGradient>
<linearGradient id="paint20_linear_4865_17464" x1="8.4275" y1="35.2557" x2="14.9601" y2="38.1049" gradientUnits="userSpaceOnUse">
<stop stop-color="#D3E97A"/>
<stop offset="0.5" stop-color="#8CE9CD"/>
<stop offset="1" stop-color="#80CAFF"/>
</linearGradient>
<clipPath id="clip0_4865_17464">
<rect width="191.082" height="68.7895" fill="white" transform="translate(0.75 0.914062)"/>
</clipPath>
</defs>
</svg>
