<svg width="33" height="32" viewBox="0 0 33 32" fill="none" xmlns="http://www.w3.org/2000/svg">
<path d="M32.0618 28.1304H0.805668C0.508059 28.1304 0.30957 28.3289 0.30957 28.6265V31.5039C0.30957 31.8015 0.508053 32 0.805668 32H32.0618C32.3594 32 32.5579 31.8015 32.5579 31.5039V28.6265C32.5579 28.3784 32.3594 28.1304 32.0618 28.1304Z" fill="#016BE3"/>
<path d="M12.2161 21.2344H14.6968V24.1118H12.2161V21.2344Z" fill="#016BE3" fill-opacity="0.58"/>
<path d="M12.2161 15.2803H14.6968V18.1577H12.2161V15.2803Z" fill="#016BE3" fill-opacity="0.58"/>
<path d="M18.1692 21.2344H20.6499V24.1118H18.1692V21.2344Z" fill="#016BE3" fill-opacity="0.58"/>
<path d="M12.2161 9.37695H14.6968V12.2544H12.2161V9.37695Z" fill="#016BE3" fill-opacity="0.58"/>
<path d="M12.2161 3.47266H14.6968V6.35011H12.2161V3.47266Z" fill="#016BE3" fill-opacity="0.58"/>
<path d="M18.1692 15.2803H20.6499V18.1577H18.1692V15.2803Z" fill="#016BE3" fill-opacity="0.58"/>
<path d="M18.1692 3.47266H20.6499V6.35011H18.1692V3.47266Z" fill="#016BE3" fill-opacity="0.58"/>
<path d="M18.1692 9.37695H20.6499V12.2544H18.1692V9.37695Z" fill="#016BE3" fill-opacity="0.58"/>
<path d="M24.0749 0.496326C24.0749 0.198717 23.8268 0.000228378 23.5788 0.000228378L9.29004 0C8.99243 0 8.79395 0.198482 8.79395 0.496098V27.1382H24.0744L24.0749 0.496326ZM15.6906 24.5581C15.6906 24.8061 15.4426 25.0542 15.1945 25.0542H11.7216C11.424 25.0542 11.2255 24.8061 11.2255 24.5581V20.6882C11.2255 20.3905 11.424 20.1921 11.7216 20.1921H15.1945C15.4426 20.1921 15.6906 20.3905 15.6906 20.6882V24.5581ZM15.6906 18.6542C15.6906 18.9518 15.4426 19.1503 15.1945 19.1503H11.7216C11.424 19.1503 11.2255 18.9518 11.2255 18.6542V14.7843C11.2255 14.4867 11.424 14.2882 11.7216 14.2882H15.1945C15.4426 14.2882 15.6906 14.4866 15.6906 14.7843V18.6542ZM15.6906 12.7503C15.6906 12.9983 15.4426 13.2464 15.1945 13.2464H11.7216C11.424 13.2464 11.2255 12.9983 11.2255 12.7503V8.88036C11.2255 8.58275 11.424 8.38426 11.7216 8.38426H15.1945C15.4426 8.38426 15.6906 8.58275 15.6906 8.88036V12.7503ZM15.6906 6.79666C15.6906 7.09427 15.4426 7.29276 15.1945 7.29276H11.7216C11.424 7.29276 11.2255 7.09428 11.2255 6.79666V2.97635C11.2255 2.7283 11.424 2.48025 11.7216 2.48025H15.1945C15.4426 2.48025 15.6906 2.7283 15.6906 2.97635V6.79666ZM21.6442 24.5575C21.6442 24.8055 21.3962 25.0536 21.1481 25.0536H17.6752C17.3776 25.0536 17.1791 24.8055 17.1791 24.5575V20.6876C17.1791 20.39 17.3776 20.1915 17.6752 20.1915H21.1481C21.3962 20.1915 21.6442 20.39 21.6442 20.6876V24.5575ZM21.6442 18.6536C21.6442 18.9512 21.3962 19.1497 21.1481 19.1497H17.6752C17.3776 19.1497 17.1791 18.9512 17.1791 18.6536V14.7837C17.1791 14.4861 17.3776 14.2876 17.6752 14.2876H21.1481C21.3962 14.2876 21.6442 14.4861 21.6442 14.7837V18.6536ZM21.6442 12.7497C21.6442 12.9977 21.3962 13.2458 21.1481 13.2458H17.6752C17.3776 13.2458 17.1791 12.9977 17.1791 12.7497V8.87978C17.1791 8.58217 17.3776 8.38368 17.6752 8.38368H21.1481C21.3962 8.38368 21.6442 8.58216 21.6442 8.87978V12.7497ZM21.6442 6.79608C21.6442 7.09369 21.3962 7.29218 21.1481 7.29218H17.6752C17.3776 7.29218 17.1791 7.09369 17.1791 6.79608V2.97576C17.1791 2.72772 17.3776 2.47967 17.6752 2.47967H21.1481C21.3962 2.47967 21.6442 2.72772 21.6442 2.97576V6.79608Z" fill="#016BE3" fill-opacity="0.58"/>
<path d="M31.4668 10.6174C31.4668 10.4685 31.4173 10.3198 31.2683 10.2204L26.0591 5.80486C25.9102 5.65593 25.7119 5.65593 25.5134 5.75529C25.3149 5.85442 25.2158 6.00334 25.2158 6.20182V27.1382H31.4173L31.4171 10.617L31.4668 10.6174ZM29.135 25.0547H27.5969C27.3489 25.0547 27.1008 24.8066 27.1008 24.5586C27.1008 24.2609 27.3489 24.0625 27.5969 24.0625H29.135C29.3831 24.0625 29.6311 24.2609 29.6311 24.5586C29.6311 24.8562 29.4329 25.0547 29.135 25.0547ZM29.135 21.1352H27.5969C27.3489 21.1352 27.1008 20.8872 27.1008 20.6391C27.1008 20.3911 27.3489 20.143 27.5969 20.143H29.135C29.3831 20.143 29.6311 20.3911 29.6311 20.6391C29.6311 20.8872 29.4329 21.1352 29.135 21.1352ZM29.135 17.1662H27.5969C27.3489 17.1662 27.1008 16.9677 27.1008 16.6701C27.1008 16.3725 27.3489 16.174 27.5969 16.174H29.135C29.3831 16.174 29.6311 16.3725 29.6311 16.6701C29.6311 16.9182 29.4329 17.1662 29.135 17.1662ZM29.135 13.1972H27.5969C27.3489 13.1972 27.1008 12.9987 27.1008 12.7011C27.1008 12.4035 27.3489 12.205 27.5969 12.205H29.135C29.3831 12.205 29.6311 12.4035 29.6311 12.7011C29.6311 12.9987 29.4329 13.1972 29.135 13.1972Z" fill="#016BE3"/>
<path d="M7.605 6.20174C7.605 6.00325 7.50587 5.85456 7.30739 5.7552C7.1089 5.65608 6.91042 5.70564 6.76173 5.80477L1.55224 10.2203C1.45311 10.3195 1.40332 10.4684 1.40332 10.6173V27.1876H7.60484L7.605 6.20174ZM5.2732 25.0548H3.73533C3.43772 25.0548 3.23924 24.8067 3.23924 24.5587C3.23924 24.2611 3.43772 24.0626 3.73533 24.0626H5.27343C5.57104 24.0626 5.76953 24.2611 5.76953 24.5587C5.7693 24.8563 5.57105 25.0548 5.27321 25.0548H5.2732ZM5.2732 21.1354H3.73533C3.43772 21.1354 3.23924 20.8873 3.23924 20.6393C3.23924 20.3912 3.43772 20.1432 3.73533 20.1432H5.27343C5.57104 20.1432 5.76953 20.3912 5.76953 20.6393C5.7693 20.8873 5.57105 21.1354 5.27321 21.1354H5.2732ZM5.2732 17.1664H3.73533C3.43772 17.1664 3.23924 16.9679 3.23924 16.6703C3.23924 16.3727 3.43772 16.1742 3.73533 16.1742H5.27343C5.57104 16.1742 5.76953 16.3727 5.76953 16.6703C5.7693 16.9183 5.57105 17.1664 5.27321 17.1664H5.2732ZM5.2732 13.1974H3.73533C3.43772 13.1974 3.23924 12.9989 3.23924 12.7013C3.23924 12.4036 3.43772 12.2052 3.73533 12.2052H5.27343C5.57104 12.2052 5.76953 12.4036 5.76953 12.7013C5.7693 12.9989 5.57105 13.1974 5.27321 13.1974H5.2732Z" fill="#016BE3"/>
</svg>
