<svg width="109" height="61" viewBox="0 0 109 61" fill="none" xmlns="http://www.w3.org/2000/svg">
<rect x="0.369141" width="107.892" height="60.8325" rx="5.73892" fill="#020218" fill-opacity="0.39"/>
<g clip-path="url(#clip0_2654_22840)">
<path d="M14.8827 22.7648C14.8827 23.7395 15.0954 24.4878 15.3735 24.9405C15.7381 25.5335 16.2819 25.7847 16.8364 25.7847C17.5514 25.7847 18.2056 25.6063 19.4663 23.8531C20.4762 22.4479 21.6663 20.4755 22.467 19.239L23.823 17.1441C24.765 15.6892 25.8553 14.0718 27.1054 12.9756C28.1259 12.0808 29.2268 11.5837 30.3347 11.5837C32.1948 11.5837 33.9667 12.6675 35.3227 14.7003C36.8067 16.9266 37.5271 19.7308 37.5271 22.6246C37.5271 24.3449 37.1899 25.609 36.616 26.6076C36.0616 27.5734 34.981 28.5383 33.1633 28.5383V25.7847C34.7197 25.7847 35.1082 24.3467 35.1082 22.7009C35.1082 20.3557 34.5643 17.753 33.3663 15.8933C32.5162 14.5743 31.4144 13.7682 30.2023 13.7682C28.8913 13.7682 27.8363 14.7624 26.6507 16.5351C26.0204 17.477 25.3733 18.6247 24.6467 19.9198L23.8469 21.3446C22.2401 24.2091 21.8331 24.8615 21.0298 25.9383C19.6217 27.8237 18.4193 28.5383 16.8364 28.5383C14.9586 28.5383 13.7712 27.7207 13.0358 26.4886C12.4355 25.4847 12.1406 24.1674 12.1406 22.6663L14.8827 22.7648Z" fill="#0081FB"/>
<path d="M14.3027 14.8947C15.5599 12.9463 17.3741 11.5837 19.4549 11.5837C20.6599 11.5837 21.8579 11.9423 23.1089 12.9693C24.4773 14.0923 25.9357 15.9413 27.7552 18.9887L28.4076 20.0823C29.9826 22.7205 30.8786 24.0777 31.403 24.7177C32.0775 25.5397 32.5498 25.7847 33.1634 25.7847C34.7198 25.7847 35.1082 24.3467 35.1082 22.7009L37.5272 22.6246C37.5272 24.3449 37.1899 25.609 36.6161 26.6076C36.0617 27.5734 34.9811 28.5383 33.1634 28.5383C32.0334 28.5383 31.0322 28.2915 29.9252 27.2414C29.0741 26.4354 28.0792 25.0036 27.3138 23.7164L25.037 19.8923C23.8946 17.9732 22.8467 16.5422 22.2402 15.8942C21.5878 15.1974 20.7491 14.3559 19.4107 14.3559C18.3275 14.3559 17.4076 15.1202 16.6378 16.2892L14.3027 14.8947Z" fill="url(#paint0_linear_2654_22840)"/>
<path d="M19.4107 14.3559C18.3274 14.3559 17.4075 15.1202 16.6377 16.2892C15.5492 17.9412 14.8827 20.4018 14.8827 22.7648C14.8827 23.7395 15.0954 24.4878 15.3735 24.9405L13.0358 26.4886C12.4355 25.4847 12.1406 24.1674 12.1406 22.6663C12.1406 19.9367 12.8857 17.0917 14.3027 14.8947C15.5598 12.9463 17.374 11.5837 19.4548 11.5837L19.4107 14.3559Z" fill="url(#paint1_linear_2654_22840)"/>
<path d="M42.8574 12.1199H46.0294L51.4226 21.9305L56.8166 12.1199H59.9197V28.2401H57.3322V15.8854L52.602 24.4408H50.1743L45.445 15.8854V28.2401H42.8574V12.1199ZM68.0276 18.1303C66.1719 18.1303 65.0542 19.5346 64.7868 21.2736H71.0848C70.955 19.4823 69.9274 18.1303 68.0276 18.1303ZM62.2213 22.2642C62.2213 18.6052 64.5731 15.9422 68.0726 15.9422C71.5147 15.9422 73.57 18.5715 73.57 22.4595V23.1741H64.7868C65.0984 25.0657 66.3467 26.3404 68.3595 26.3404C69.9654 26.3404 70.9692 25.8478 71.9208 24.9468L73.2954 26.6396C72.0003 27.8371 70.353 28.5277 68.2677 28.5277C64.4795 28.5277 62.2213 25.7501 62.2213 22.2642ZM76.7075 18.3611H74.3257V16.2307H76.7075V12.7075H79.2041V16.2307H82.8228V18.3611H79.2041V23.7609C79.2041 25.6046 79.7903 26.2597 81.2311 26.2597C81.8888 26.2597 82.2658 26.2028 82.8228 26.1096V28.217C82.1289 28.414 81.4668 28.5046 80.75 28.5046C78.0547 28.5046 76.7075 27.0239 76.7075 24.06V18.3611ZM93.3355 20.433C92.834 19.16 91.7155 18.2226 90.0717 18.2226C87.9353 18.2226 86.5678 19.7468 86.5678 22.2296C86.5678 24.6503 87.8267 26.2481 89.9693 26.2481C91.6537 26.2481 92.8561 25.2628 93.3355 24.0369V20.433ZM95.8321 28.2401H93.3814V26.5588C92.6963 27.5486 91.4498 28.5277 89.4308 28.5277C86.1837 28.5277 84.0138 25.7945 84.0138 22.2296C84.0138 18.631 86.2358 15.9422 89.5685 15.9422C91.2158 15.9422 92.5083 16.6044 93.3814 17.7735V16.2307H95.8321V28.2401Z" fill="white"/>
</g>
<path d="M14.6543 44.8393C14.2717 44.8393 13.9235 44.7627 13.6098 44.6097C13.2961 44.4567 13.0435 44.2501 12.8523 43.9899C12.661 43.7297 12.5653 43.4351 12.5653 43.1061C12.5653 42.5781 12.7796 42.1573 13.2081 41.8436C13.6366 41.5298 14.1952 41.3232 14.8838 41.2237L16.594 40.9827V40.6499C16.594 40.2826 16.4869 39.9956 16.2726 39.789C16.066 39.5824 15.7255 39.4791 15.2511 39.4791C14.9068 39.4791 14.6275 39.548 14.4132 39.6857C14.2066 39.8235 14.0612 39.9994 13.9771 40.2137C13.9312 40.3285 13.8508 40.3859 13.736 40.3859H13.2195C13.1354 40.3859 13.0703 40.3629 13.0244 40.317C12.9862 40.2634 12.967 40.2022 12.967 40.1334C12.967 40.0186 13.0091 39.877 13.0933 39.7087C13.1851 39.5403 13.3228 39.3758 13.5065 39.2151C13.6901 39.0544 13.9235 38.9205 14.2066 38.8134C14.4974 38.6986 14.8494 38.6412 15.2626 38.6412C15.7217 38.6412 16.1081 38.7025 16.4219 38.8249C16.7356 38.9397 16.9804 39.0965 17.1564 39.2955C17.3401 39.4944 17.4702 39.7202 17.5467 39.9727C17.6309 40.2252 17.6729 40.4815 17.6729 40.7417V44.4605C17.6729 44.537 17.6462 44.6021 17.5926 44.6556C17.5467 44.7015 17.4855 44.7245 17.409 44.7245H16.881C16.7968 44.7245 16.7318 44.7015 16.6858 44.6556C16.6399 44.6021 16.617 44.537 16.617 44.4605V43.967C16.5175 44.1047 16.3836 44.2424 16.2153 44.3802C16.0469 44.5102 15.8365 44.6212 15.584 44.713C15.3315 44.7972 15.0216 44.8393 14.6543 44.8393ZM14.8953 43.9784C15.209 43.9784 15.496 43.9134 15.7561 43.7833C16.0163 43.6456 16.2191 43.4351 16.3645 43.152C16.5175 42.8689 16.594 42.5131 16.594 42.0846V41.7632L15.2626 41.9583C14.7193 42.0348 14.3099 42.1649 14.0345 42.3486C13.759 42.5246 13.6213 42.7503 13.6213 43.0258C13.6213 43.24 13.6825 43.4198 13.8049 43.5652C13.935 43.703 14.0957 43.8063 14.287 43.8751C14.4859 43.944 14.6887 43.9784 14.8953 43.9784ZM21.5038 44.8393C21.0829 44.8393 20.7194 44.7666 20.4134 44.6212C20.1073 44.4681 19.8548 44.2654 19.6558 44.0129C19.4645 43.7527 19.3191 43.4581 19.2197 43.1291C19.1278 42.8 19.0743 42.4519 19.059 42.0846C19.0513 41.9622 19.0475 41.8474 19.0475 41.7403C19.0475 41.6331 19.0513 41.5183 19.059 41.3959C19.0743 41.0363 19.1278 40.6919 19.2197 40.3629C19.3191 40.0339 19.4645 39.7393 19.6558 39.4791C19.8548 39.219 20.1073 39.0162 20.4134 38.8708C20.7194 38.7178 21.0829 38.6412 21.5038 38.6412C21.9552 38.6412 22.3302 38.7216 22.6286 38.8823C22.927 39.043 23.1719 39.2419 23.3632 39.4791V36.8392C23.3632 36.7627 23.3861 36.7015 23.432 36.6556C23.4856 36.602 23.5506 36.5752 23.6272 36.5752H24.1781C24.2546 36.5752 24.3158 36.602 24.3617 36.6556C24.4153 36.7015 24.4421 36.7627 24.4421 36.8392V44.4605C24.4421 44.537 24.4153 44.6021 24.3617 44.6556C24.3158 44.7015 24.2546 44.7245 24.1781 44.7245H23.6616C23.5774 44.7245 23.5124 44.7015 23.4665 44.6556C23.4206 44.6021 23.3976 44.537 23.3976 44.4605V43.9784C23.2063 44.2233 22.9576 44.4299 22.6515 44.5982C22.3455 44.7589 21.9629 44.8393 21.5038 44.8393ZM21.7448 43.9096C22.1274 43.9096 22.4335 43.8216 22.663 43.6456C22.8926 43.4696 23.0647 43.2477 23.1795 42.9799C23.2943 42.7044 23.3555 42.4251 23.3632 42.142C23.3708 42.0195 23.3746 41.8742 23.3746 41.7058C23.3746 41.5298 23.3708 41.3806 23.3632 41.2582C23.3555 40.9904 23.2905 40.7264 23.168 40.4662C23.0533 40.206 22.8773 39.9918 22.6401 39.8235C22.4105 39.6551 22.1121 39.5709 21.7448 39.5709C21.3545 39.5709 21.0446 39.6589 20.8151 39.8349C20.5855 40.0033 20.421 40.229 20.3215 40.5121C20.2221 40.7876 20.1647 41.086 20.1494 41.4074C20.1417 41.6293 20.1417 41.8512 20.1494 42.0731C20.1647 42.3945 20.2221 42.6967 20.3215 42.9799C20.421 43.2553 20.5855 43.4811 20.8151 43.657C21.0446 43.8254 21.3545 43.9096 21.7448 43.9096ZM28.2152 44.8393C27.7866 44.8393 27.4194 44.7857 27.1133 44.6786C26.8072 44.5714 26.5585 44.4414 26.3672 44.2883C26.1759 44.1353 26.0305 43.9823 25.9311 43.8292C25.8392 43.6762 25.7895 43.5537 25.7818 43.4619C25.7742 43.3778 25.801 43.3127 25.8622 43.2668C25.9234 43.2209 25.9846 43.1979 26.0458 43.1979H26.5509C26.5968 43.1979 26.6312 43.2056 26.6542 43.2209C26.6848 43.2285 26.723 43.2592 26.7689 43.3127C26.8684 43.4198 26.9794 43.527 27.1018 43.6341C27.2242 43.7412 27.3734 43.8292 27.5494 43.8981C27.7331 43.967 27.9588 44.0014 28.2266 44.0014C28.6169 44.0014 28.9383 43.9287 29.1908 43.7833C29.4433 43.6303 29.5695 43.4084 29.5695 43.1176C29.5695 42.9263 29.516 42.7733 29.4088 42.6585C29.3094 42.5437 29.1257 42.4404 28.8579 42.3486C28.5977 42.2568 28.2381 42.1611 27.779 42.0616C27.3199 41.9545 26.9564 41.8244 26.6886 41.6714C26.4208 41.5107 26.2295 41.3232 26.1147 41.109C25.9999 40.8871 25.9425 40.6384 25.9425 40.3629C25.9425 40.0798 26.0267 39.8081 26.1951 39.548C26.3634 39.2802 26.6083 39.0621 26.9296 38.8937C27.2587 38.7254 27.668 38.6412 28.1578 38.6412C28.5557 38.6412 28.8962 38.691 29.1793 38.7904C29.4624 38.8899 29.6958 39.0162 29.8794 39.1692C30.0631 39.3146 30.2008 39.46 30.2926 39.6054C30.3845 39.7508 30.4342 39.8732 30.4419 39.9727C30.4495 40.0492 30.4265 40.1142 30.373 40.1678C30.3194 40.2137 30.2582 40.2367 30.1893 40.2367H29.7073C29.6537 40.2367 29.6078 40.2252 29.5695 40.2022C29.5389 40.1793 29.5083 40.1525 29.4777 40.1219C29.4012 40.0224 29.3094 39.9229 29.2022 39.8235C29.1028 39.724 28.9689 39.6436 28.8005 39.5824C28.6398 39.5136 28.4256 39.4791 28.1578 39.4791C27.7752 39.4791 27.4882 39.5595 27.2969 39.7202C27.1056 39.8808 27.01 40.0836 27.01 40.3285C27.01 40.4739 27.0521 40.6039 27.1362 40.7187C27.2204 40.8335 27.3811 40.9368 27.6183 41.0286C27.8555 41.1204 28.2075 41.2199 28.6743 41.327C29.1793 41.4265 29.5772 41.5604 29.868 41.7288C30.1587 41.8971 30.3653 42.0922 30.4878 42.3141C30.6102 42.536 30.6714 42.7924 30.6714 43.0832C30.6714 43.4045 30.5758 43.6991 30.3845 43.967C30.2008 44.2348 29.9253 44.449 29.5581 44.6097C29.1984 44.7627 28.7508 44.8393 28.2152 44.8393ZM35.2268 44.7245C35.1426 44.7245 35.0775 44.7015 35.0316 44.6556C34.9857 44.6021 34.9628 44.537 34.9628 44.4605V36.9655C34.9628 36.8813 34.9857 36.8163 35.0316 36.7703C35.0775 36.7168 35.1426 36.69 35.2268 36.69H39.9671C40.0513 36.69 40.1163 36.7168 40.1622 36.7703C40.2081 36.8163 40.2311 36.8813 40.2311 36.9655V37.4016C40.2311 37.4858 40.2081 37.5508 40.1622 37.5968C40.1163 37.6427 40.0513 37.6656 39.9671 37.6656H36.0646V40.1793H39.7146C39.7988 40.1793 39.8638 40.206 39.9097 40.2596C39.9556 40.3055 39.9786 40.3706 39.9786 40.4547V40.8794C39.9786 40.9559 39.9556 41.021 39.9097 41.0745C39.8638 41.1204 39.7988 41.1434 39.7146 41.1434H36.0646V43.7489H40.0589C40.1431 43.7489 40.2081 43.7718 40.2541 43.8177C40.3 43.8636 40.3229 43.9287 40.3229 44.0129V44.4605C40.3229 44.537 40.3 44.6021 40.2541 44.6556C40.2081 44.7015 40.1431 44.7245 40.0589 44.7245H35.2268ZM41.4988 44.7245C41.4376 44.7245 41.3802 44.7015 41.3266 44.6556C41.2807 44.6097 41.2577 44.5523 41.2577 44.4835C41.2577 44.4605 41.2616 44.4337 41.2692 44.4031C41.2845 44.3648 41.3075 44.3228 41.3381 44.2769L43.3352 41.6714L41.4643 39.2036C41.4337 39.1577 41.4108 39.1195 41.3955 39.0889C41.3878 39.0583 41.384 39.0277 41.384 38.997C41.384 38.9282 41.4069 38.8708 41.4529 38.8249C41.4988 38.779 41.5562 38.756 41.625 38.756H42.2104C42.2946 38.756 42.3558 38.779 42.394 38.8249C42.44 38.8631 42.4782 38.9014 42.5088 38.9397L44.0354 40.9253L45.5619 38.9511C45.5925 38.9129 45.627 38.8708 45.6652 38.8249C45.7111 38.779 45.7762 38.756 45.8603 38.756H46.4228C46.4916 38.756 46.549 38.779 46.5949 38.8249C46.6408 38.8708 46.6638 38.9282 46.6638 38.997C46.6638 39.0277 46.6561 39.0583 46.6408 39.0889C46.6332 39.1195 46.6141 39.1577 46.5834 39.2036L44.6896 41.6943L46.6867 44.2769C46.7174 44.3228 46.7365 44.361 46.7441 44.3916C46.7594 44.4222 46.7671 44.4528 46.7671 44.4835C46.7671 44.5523 46.7441 44.6097 46.6982 44.6556C46.6523 44.7015 46.5949 44.7245 46.5261 44.7245H45.9177C45.8412 44.7245 45.78 44.7054 45.7341 44.6671C45.6882 44.6288 45.6499 44.5906 45.6193 44.5523L44.0009 42.4519L42.3826 44.5523C42.352 44.5829 42.3137 44.6212 42.2678 44.6671C42.2295 44.7054 42.1683 44.7245 42.0841 44.7245H41.4988ZM48.237 46.9053C48.1605 46.9053 48.0954 46.8785 48.0419 46.8249C47.9959 46.779 47.973 46.7178 47.973 46.6413V39.02C47.973 38.9435 47.9959 38.8823 48.0419 38.8364C48.0954 38.7828 48.1605 38.756 48.237 38.756H48.765C48.8415 38.756 48.9027 38.7828 48.9486 38.8364C49.0022 38.8823 49.0289 38.9435 49.0289 39.02V39.525C49.2126 39.2725 49.4575 39.0621 49.7635 38.8937C50.0696 38.7254 50.4522 38.6412 50.9113 38.6412C51.3398 38.6412 51.7033 38.7139 52.0017 38.8593C52.3078 39.0047 52.5565 39.2036 52.7478 39.4562C52.9467 39.7087 53.0959 39.9956 53.1954 40.317C53.2949 40.6384 53.3484 40.9827 53.3561 41.35C53.3637 41.4724 53.3676 41.6025 53.3676 41.7403C53.3676 41.878 53.3637 42.0081 53.3561 42.1305C53.3484 42.4901 53.2949 42.8345 53.1954 43.1635C53.0959 43.4849 52.9467 43.7718 52.7478 44.0243C52.5565 44.2692 52.3078 44.4681 52.0017 44.6212C51.7033 44.7666 51.3398 44.8393 50.9113 44.8393C50.4675 44.8393 50.0926 44.7589 49.7865 44.5982C49.4881 44.4299 49.2432 44.2233 49.0519 43.9784V46.6413C49.0519 46.7178 49.0289 46.779 48.983 46.8249C48.9371 46.8785 48.8721 46.9053 48.7879 46.9053H48.237ZM50.6703 43.9096C51.0682 43.9096 51.3781 43.8254 51.6 43.657C51.8295 43.4811 51.9941 43.2553 52.0935 42.9799C52.193 42.6967 52.2504 42.3945 52.2657 42.0731C52.2733 41.8512 52.2733 41.6293 52.2657 41.4074C52.2504 41.086 52.193 40.7876 52.0935 40.5121C51.9941 40.229 51.8295 40.0033 51.6 39.8349C51.3781 39.6589 51.0682 39.5709 50.6703 39.5709C50.2953 39.5709 49.9893 39.6589 49.752 39.8349C49.5225 40.0109 49.3503 40.2367 49.2355 40.5121C49.1284 40.7799 49.0672 41.0554 49.0519 41.3385C49.0443 41.461 49.0404 41.6063 49.0404 41.7747C49.0404 41.943 49.0443 42.0922 49.0519 42.2223C49.0596 42.4901 49.1208 42.7541 49.2355 43.0143C49.358 43.2745 49.5378 43.4887 49.775 43.657C50.0122 43.8254 50.3106 43.9096 50.6703 43.9096ZM57.1748 44.8393C56.3867 44.8393 55.7592 44.5982 55.2924 44.1162C54.8257 43.6264 54.5693 42.9607 54.5234 42.119C54.5158 42.0195 54.5119 41.8933 54.5119 41.7403C54.5119 41.5796 54.5158 41.4495 54.5234 41.35C54.554 40.8067 54.6803 40.3323 54.9022 39.9268C55.1241 39.5136 55.4263 39.196 55.8089 38.9741C56.1992 38.7522 56.6545 38.6412 57.1748 38.6412C57.7563 38.6412 58.2422 38.7637 58.6325 39.0085C59.0304 39.2534 59.3326 39.6015 59.5392 40.053C59.7458 40.5045 59.8491 41.0325 59.8491 41.637V41.8321C59.8491 41.9162 59.8224 41.9813 59.7688 42.0272C59.7229 42.0731 59.6617 42.0961 59.5851 42.0961H55.6138C55.6138 42.1037 55.6138 42.119 55.6138 42.142C55.6138 42.1649 55.6138 42.1841 55.6138 42.1994C55.6291 42.5131 55.698 42.8077 55.8204 43.0832C55.9428 43.351 56.1188 43.5691 56.3484 43.7374C56.578 43.9057 56.8534 43.9899 57.1748 43.9899C57.4503 43.9899 57.6798 43.9478 57.8635 43.8636C58.0471 43.7795 58.1963 43.6877 58.3111 43.5882C58.4259 43.4811 58.5024 43.4007 58.5407 43.3471C58.6095 43.2477 58.6631 43.1903 58.7014 43.175C58.7396 43.152 58.8008 43.1405 58.885 43.1405H59.4359C59.5125 43.1405 59.5737 43.1635 59.6196 43.2094C59.6731 43.2477 59.6961 43.3051 59.6884 43.3816C59.6808 43.4964 59.6196 43.6379 59.5048 43.8063C59.39 43.967 59.2255 44.1276 59.0113 44.2883C58.797 44.449 58.5368 44.5829 58.2308 44.6901C57.9247 44.7895 57.5727 44.8393 57.1748 44.8393ZM55.6138 41.3041H58.7587V41.2697C58.7587 40.9253 58.6937 40.6192 58.5636 40.3514C58.4412 40.0836 58.2614 39.8732 58.0242 39.7202C57.7869 39.5595 57.5038 39.4791 57.1748 39.4791C56.8458 39.4791 56.5626 39.5595 56.3254 39.7202C56.0959 39.8732 55.9199 40.0836 55.7975 40.3514C55.675 40.6192 55.6138 40.9253 55.6138 41.2697V41.3041ZM61.4855 44.7245C61.409 44.7245 61.344 44.7015 61.2904 44.6556C61.2445 44.6021 61.2215 44.537 61.2215 44.4605V39.0315C61.2215 38.955 61.2445 38.8899 61.2904 38.8364C61.344 38.7828 61.409 38.756 61.4855 38.756H62.0135C62.09 38.756 62.1551 38.7828 62.2086 38.8364C62.2622 38.8899 62.289 38.955 62.289 39.0315V39.5365C62.442 39.2763 62.6524 39.0812 62.9203 38.9511C63.1881 38.8211 63.5095 38.756 63.8844 38.756H64.3435C64.42 38.756 64.4812 38.7828 64.5272 38.8364C64.5731 38.8823 64.596 38.9435 64.596 39.02V39.4906C64.596 39.5671 64.5731 39.6283 64.5272 39.6742C64.4812 39.7202 64.42 39.7431 64.3435 39.7431H63.6548C63.2416 39.7431 62.9164 39.8655 62.6792 40.1104C62.442 40.3476 62.3234 40.6728 62.3234 41.086V44.4605C62.3234 44.537 62.2966 44.6021 62.2431 44.6556C62.1895 44.7015 62.1245 44.7245 62.0479 44.7245H61.4855ZM67.9118 44.7245C67.4833 44.7245 67.1351 44.6441 66.8673 44.4835C66.5995 44.3151 66.4044 44.0817 66.2819 43.7833C66.1595 43.4772 66.0983 43.1176 66.0983 42.7044V39.6742H65.203C65.1265 39.6742 65.0614 39.6513 65.0079 39.6054C64.962 39.5518 64.939 39.4868 64.939 39.4103V39.02C64.939 38.9435 64.962 38.8823 65.0079 38.8364C65.0614 38.7828 65.1265 38.756 65.203 38.756H66.0983V36.8392C66.0983 36.7627 66.1212 36.7015 66.1671 36.6556C66.2207 36.602 66.2857 36.5752 66.3623 36.5752H66.9017C66.9782 36.5752 67.0395 36.602 67.0854 36.6556C67.1389 36.7015 67.1657 36.7627 67.1657 36.8392V38.756H68.589C68.6655 38.756 68.7267 38.7828 68.7726 38.8364C68.8262 38.8823 68.853 38.9435 68.853 39.02V39.4103C68.853 39.4868 68.8262 39.5518 68.7726 39.6054C68.7267 39.6513 68.6655 39.6742 68.589 39.6742H67.1657V42.624C67.1657 42.9837 67.2269 43.2668 67.3494 43.4734C67.4718 43.68 67.6899 43.7833 68.0036 43.7833H68.7037C68.7803 43.7833 68.8415 43.8101 68.8874 43.8636C68.941 43.9096 68.9677 43.9708 68.9677 44.0473V44.4605C68.9677 44.537 68.941 44.6021 68.8874 44.6556C68.8415 44.7015 68.7803 44.7245 68.7037 44.7245H67.9118Z" fill="white"/>
<defs>
<linearGradient id="paint0_linear_2654_22840" x1="17.5259" y1="21.9695" x2="35.0063" y2="22.8475" gradientUnits="userSpaceOnUse">
<stop stop-color="#0064E1"/>
<stop offset="0.4" stop-color="#0064E1"/>
<stop offset="0.83" stop-color="#0073EE"/>
<stop offset="1" stop-color="#0082FB"/>
</linearGradient>
<linearGradient id="paint1_linear_2654_22840" x1="16.1133" y1="23.9224" x2="16.1133" y2="17.4423" gradientUnits="userSpaceOnUse">
<stop stop-color="#0082FB"/>
<stop offset="1" stop-color="#0064E0"/>
</linearGradient>
<clipPath id="clip0_2654_22840">
<rect width="83.6916" height="16.9546" fill="white" transform="translate(12.1406 11.5837)"/>
</clipPath>
</defs>
</svg>
