<svg width="108" height="61" viewBox="0 0 108 61" fill="none" xmlns="http://www.w3.org/2000/svg">
<g opacity="0.9">
<rect x="0.109375" width="107.892" height="60.8325" rx="5.73892" fill="#020218" fill-opacity="0.39"/>
</g>
<path d="M83.3237 36.1857H82.3952V37.7979H81.3137V36.1857H78.1812V35.3286L81.3035 30.482H82.3952V35.2674H83.3237V36.1857ZM81.3137 33.288C81.3137 33.1247 81.3137 32.9683 81.3137 32.8186C81.3205 32.669 81.3273 32.5261 81.3341 32.3901C81.3409 32.2472 81.3443 32.118 81.3443 32.0023C81.3511 31.8799 81.3579 31.7711 81.3647 31.6758H81.3239C81.2695 31.8119 81.2048 31.9513 81.13 32.0942C81.062 32.237 80.994 32.3629 80.9259 32.4717L79.2118 35.2674H81.3137V33.288ZM84.1202 37.1959C84.1202 36.9306 84.1849 36.7435 84.3141 36.6347C84.4502 36.5258 84.6168 36.4714 84.8141 36.4714C85.0045 36.4714 85.1678 36.5258 85.3038 36.6347C85.4467 36.7435 85.5181 36.9306 85.5181 37.1959C85.5181 37.4611 85.4467 37.6516 85.3038 37.7672C85.1678 37.8829 85.0045 37.9407 84.8141 37.9407C84.6168 37.9407 84.4502 37.8829 84.3141 37.7672C84.1849 37.6516 84.1202 37.4611 84.1202 37.1959ZM88.8933 30.4106C89.3014 30.4106 89.6619 30.4786 89.9748 30.6147C90.2945 30.7439 90.5428 30.9378 90.7197 31.1963C90.9033 31.4548 90.9952 31.7779 90.9952 32.1656C90.9952 32.4581 90.9373 32.7132 90.8217 32.9308C90.7129 33.1485 90.5598 33.3424 90.3626 33.5124C90.1721 33.6757 89.9612 33.8185 89.7299 33.941C89.9952 34.0838 90.2401 34.2471 90.4646 34.4307C90.6891 34.6076 90.8693 34.8151 91.0054 35.0531C91.1482 35.2912 91.2196 35.5769 91.2196 35.9102C91.2196 36.3184 91.1244 36.6721 90.9339 36.9714C90.7503 37.2639 90.485 37.4918 90.1381 37.655C89.7912 37.8183 89.3796 37.8999 88.9035 37.8999C88.3933 37.8999 87.9614 37.8217 87.6076 37.6652C87.2607 37.5088 86.9988 37.2877 86.822 37.002C86.6451 36.7095 86.5567 36.3558 86.5567 35.9408C86.5567 35.6075 86.6179 35.3184 86.7404 35.0736C86.8696 34.8287 87.0363 34.6178 87.2403 34.4409C87.4512 34.2641 87.6825 34.1144 87.9342 33.992C87.7165 33.8559 87.5192 33.7029 87.3424 33.5328C87.1655 33.356 87.0261 33.1553 86.924 32.9308C86.8288 32.7064 86.7812 32.4479 86.7812 32.1554C86.7812 31.7745 86.873 31.4582 87.0567 31.2065C87.2403 30.948 87.492 30.7507 87.8117 30.6147C88.1314 30.4786 88.4919 30.4106 88.8933 30.4106ZM87.6178 35.9204C87.6178 36.2537 87.7233 36.5292 87.9342 36.7469C88.145 36.9578 88.4613 37.0632 88.8831 37.0632C89.1688 37.0632 89.4034 37.0156 89.5871 36.9204C89.7708 36.8183 89.9102 36.6823 90.0054 36.5122C90.1075 36.3354 90.1585 36.1347 90.1585 35.9102C90.1585 35.6858 90.1041 35.4885 89.9952 35.3184C89.8864 35.1484 89.7367 34.9987 89.5463 34.8695C89.3626 34.7334 89.1518 34.611 88.9137 34.5022L88.781 34.4409C88.5362 34.5566 88.3253 34.6858 88.1484 34.8287C87.9784 34.9715 87.8457 35.1314 87.7505 35.3082C87.6621 35.4851 87.6178 35.6892 87.6178 35.9204ZM88.8729 31.2575C88.5736 31.2575 88.3253 31.3391 88.128 31.5024C87.9376 31.6656 87.8423 31.9037 87.8423 32.2166C87.8423 32.4411 87.8899 32.6315 87.9852 32.788C88.0872 32.9444 88.2164 33.0805 88.3729 33.1961C88.5362 33.305 88.713 33.4104 88.9035 33.5124C89.0939 33.4172 89.264 33.3152 89.4136 33.2063C89.5701 33.0907 89.6925 32.9546 89.781 32.7982C89.8762 32.6349 89.9238 32.4411 89.9238 32.2166C89.9238 31.9037 89.8252 31.6656 89.6279 31.5024C89.4375 31.3391 89.1858 31.2575 88.8729 31.2575Z" fill="#F0F0F0"/>
<path d="M19.4811 11.4422C19.9361 11.4422 20.3117 11.5031 20.608 11.6248C20.9043 11.7465 21.1239 11.929 21.2667 12.1724C21.4148 12.4104 21.4889 12.712 21.4889 13.0771C21.4889 13.368 21.4387 13.6141 21.3381 13.8151C21.2429 14.0109 21.1159 14.1722 20.9572 14.2992C20.8038 14.4209 20.6371 14.5188 20.4572 14.5928L21.9571 17.1085H20.9572L19.6954 14.815H18.8304V17.1085H17.9495V11.4422H19.4811ZM19.4414 12.1724H18.8304V14.1008H19.4573C19.7166 14.1008 19.9282 14.0638 20.0922 13.9897C20.2615 13.9156 20.3858 13.8045 20.4652 13.6564C20.5498 13.5082 20.5922 13.3257 20.5922 13.1088C20.5922 12.8813 20.5498 12.7014 20.4652 12.5692C20.3858 12.4316 20.2588 12.3311 20.0843 12.2676C19.915 12.2041 19.7007 12.1724 19.4414 12.1724ZM24.2396 12.7517C24.7422 12.7517 25.1205 12.8707 25.3744 13.1088C25.6337 13.3416 25.7633 13.7093 25.7633 14.2119V17.1085H25.1522L24.9856 16.5133H24.9538C24.8321 16.6668 24.7105 16.7937 24.5888 16.8942C24.4724 16.9948 24.3348 17.0688 24.1761 17.1165C24.0227 17.1641 23.8322 17.1879 23.6047 17.1879C23.3666 17.1879 23.1524 17.1429 22.9619 17.053C22.7714 16.9577 22.6207 16.8149 22.5096 16.6244C22.3985 16.4287 22.3429 16.1853 22.3429 15.8943C22.3429 15.4605 22.4963 15.1298 22.8032 14.9023C23.1153 14.6748 23.5888 14.5505 24.2237 14.5293L24.9062 14.5055V14.2674C24.9062 13.95 24.8401 13.7278 24.7078 13.6008C24.5808 13.4739 24.401 13.4104 24.1682 13.4104C23.9724 13.4104 23.7793 13.4421 23.5888 13.5056C23.3984 13.5691 23.2132 13.6458 23.0333 13.7357L22.7714 13.1247C22.9672 13.0189 23.1894 12.9316 23.4381 12.8628C23.692 12.7887 23.9592 12.7517 24.2396 12.7517ZM24.3904 15.069C23.9565 15.0901 23.655 15.1721 23.4857 15.315C23.3164 15.4526 23.2317 15.6483 23.2317 15.9023C23.2317 16.1245 23.2899 16.2858 23.4063 16.3863C23.528 16.4869 23.6841 16.5371 23.8745 16.5371C24.1655 16.5371 24.4089 16.4445 24.6046 16.2594C24.8057 16.0742 24.9062 15.7964 24.9062 15.4261V15.0531L24.3904 15.069ZM28.4609 16.5054C28.572 16.5054 28.6805 16.4948 28.7863 16.4736C28.8921 16.4525 28.9847 16.4287 29.064 16.4022V17.0371C28.9741 17.0794 28.8551 17.1138 28.7069 17.1403C28.5641 17.172 28.4133 17.1879 28.2546 17.1879C28.0324 17.1879 27.8287 17.1482 27.6435 17.0688C27.4583 16.9895 27.3102 16.8519 27.1991 16.6562C27.088 16.4604 27.0324 16.1879 27.0324 15.8388V13.4739H26.4849V13.0929L27.0721 12.7755L27.3657 11.8708H27.8975V12.831H29.0323V13.4739H27.8975V15.8229C27.8975 16.0557 27.9504 16.2276 28.0562 16.3387C28.162 16.4498 28.2969 16.5054 28.4609 16.5054ZM31.4781 12.7517C31.8325 12.7517 32.1394 12.831 32.3986 12.9898C32.6579 13.1432 32.8563 13.3654 32.9938 13.6564C33.1367 13.9474 33.2081 14.2913 33.2081 14.6881V15.1483H30.5178C30.5284 15.5875 30.6342 15.9234 30.8352 16.1562C31.0363 16.389 31.3193 16.5054 31.6844 16.5054C31.9436 16.5054 32.1738 16.4816 32.3748 16.434C32.5812 16.3811 32.7901 16.3043 33.0018 16.2038V16.9022C32.8007 16.9974 32.5944 17.0688 32.3828 17.1165C32.1764 17.1641 31.9251 17.1879 31.6288 17.1879C31.2426 17.1879 30.8987 17.1059 30.5972 16.9419C30.2956 16.7779 30.0602 16.5345 29.8909 16.2118C29.7216 15.8837 29.6369 15.4816 29.6369 15.0055C29.6369 14.524 29.7136 14.1167 29.8671 13.7834C30.0205 13.45 30.2348 13.1961 30.5099 13.0215C30.7903 12.8416 31.113 12.7517 31.4781 12.7517ZM31.4781 13.4024C31.2082 13.4024 30.9913 13.5003 30.8273 13.6961C30.6633 13.8918 30.5681 14.1696 30.5416 14.5293H32.3589C32.3589 14.3071 32.3272 14.1114 32.2637 13.9421C32.2002 13.7728 32.1024 13.6405 31.9701 13.5453C31.8431 13.45 31.6791 13.4024 31.4781 13.4024ZM39.7006 14.9658C39.7006 15.3203 39.6556 15.6351 39.5657 15.9102C39.4757 16.1853 39.3461 16.4181 39.1768 16.6086C39.0128 16.799 38.8117 16.9445 38.5737 17.045C38.3356 17.1403 38.0684 17.1879 37.7721 17.1879C37.5023 17.1879 37.251 17.1403 37.0182 17.045C36.7854 16.9445 36.5844 16.799 36.4151 16.6086C36.2458 16.4181 36.1135 16.1853 36.0183 15.9102C35.9284 15.6351 35.8834 15.3176 35.8834 14.9579C35.8834 14.487 35.9601 14.0876 36.1135 13.7595C36.267 13.4315 36.4865 13.1829 36.7722 13.0136C37.0632 12.839 37.4071 12.7517 37.8039 12.7517C38.1742 12.7517 38.5022 12.839 38.7879 13.0136C39.0736 13.1829 39.2958 13.4315 39.4546 13.7595C39.6186 14.0876 39.7006 14.4897 39.7006 14.9658ZM36.7722 14.9658C36.7722 15.2833 36.8066 15.5584 36.8754 15.7912C36.9494 16.0186 37.0605 16.1932 37.2087 16.3149C37.3621 16.4366 37.5552 16.4975 37.788 16.4975C38.0261 16.4975 38.2192 16.4366 38.3673 16.3149C38.5208 16.1932 38.6319 16.0186 38.7006 15.7912C38.7747 15.5584 38.8117 15.2833 38.8117 14.9658C38.8117 14.6378 38.7747 14.3627 38.7006 14.1405C38.6266 13.9183 38.5155 13.749 38.3673 13.6326C38.2192 13.5109 38.0234 13.45 37.7801 13.45C37.4256 13.45 37.169 13.5823 37.0103 13.8468C36.8516 14.1114 36.7722 14.4844 36.7722 14.9658ZM42.7732 12.7517C43.2387 12.7517 43.5959 12.876 43.8445 13.1247C44.0985 13.3733 44.2254 13.7728 44.2254 14.323V17.1085H43.3684V14.442C43.3684 14.1087 43.3022 13.8601 43.17 13.6961C43.043 13.5268 42.8446 13.4421 42.5748 13.4421C42.178 13.4421 41.9055 13.5717 41.7574 13.831C41.6092 14.0902 41.5351 14.4632 41.5351 14.9499V17.1085H40.6781V12.831H41.3526L41.4717 13.4024H41.5193C41.6092 13.2543 41.7177 13.1326 41.8446 13.0374C41.9716 12.9421 42.1145 12.8707 42.2732 12.8231C42.4319 12.7755 42.5986 12.7517 42.7732 12.7517Z" fill="#F0F0F0"/>
<path d="M33.0957 21.8384H35.6756V37.9421H33.0957V21.8384Z" fill="white"/>
<path d="M44.6488 32.8395C44.6488 35.3346 42.6297 35.5615 41.9567 35.5615C40.3863 35.5615 40.162 34.0871 40.162 33.2932V27.0553H37.582V33.1797C37.582 34.6542 38.0307 36.0151 38.9281 36.809C39.7133 37.603 40.7228 37.9432 41.9567 37.9432C42.8541 37.9432 43.9758 37.7164 44.6488 37.0359V37.9432H47.2288V27.0553H44.6488V32.8395Z" fill="white"/>
<path d="M52.2759 23.0859H49.696V27.0551H47.7891V29.5501H49.696V37.9421H52.2759V29.5501H54.1828V27.0551H52.2759V23.0859Z" fill="white"/>
<path d="M62.2605 34.6542C61.6996 35.1079 60.9144 35.4481 60.1292 35.4481C58.3345 35.4481 57.1006 34.0872 57.1006 32.2725C57.1006 30.4579 58.3345 29.2103 60.1292 29.2103C60.9144 29.2103 61.6996 29.4371 62.2605 30.0042L62.597 30.3444L64.3917 28.6432L63.9431 28.303C62.9335 27.3956 61.5875 26.8286 60.1292 26.8286C56.9884 26.8286 54.6328 29.2103 54.6328 32.3859C54.6328 35.5616 56.9884 37.9433 60.1292 37.9433C61.5875 37.9433 62.9335 37.3762 63.9431 36.4689L64.3917 36.1286L62.597 34.314L62.2605 34.6542Z" fill="white"/>
<path d="M73.479 27.9624C72.6938 27.1685 71.9086 26.8283 70.6747 26.8283C69.7773 26.8283 68.8799 27.0551 68.2069 27.7356V21.8384H65.627V37.9421H68.2069V31.9316C68.2069 29.4366 69.8895 29.2098 70.5625 29.2098C72.1329 29.2098 72.0207 30.6841 72.0207 31.478V37.8287H74.6007V31.5914C74.6007 30.1171 74.2642 28.7562 73.479 27.9624Z" fill="white"/>
<path d="M60.0174 34.1995C61.0086 34.1995 61.8121 33.387 61.8121 32.3848C61.8121 31.3826 61.0086 30.5702 60.0174 30.5702C59.0262 30.5702 58.2227 31.3826 58.2227 32.3848C58.2227 33.387 59.0262 34.1995 60.0174 34.1995Z" fill="#EF4335"/>
<path d="M29.5065 33.9729C28.6091 34.8801 27.2631 35.4472 25.8048 35.4472C23.0005 35.4472 20.9814 33.179 20.9814 30.1171C20.9814 27.0551 23.0005 24.787 25.917 24.787C27.2631 24.787 28.6091 25.354 29.6187 26.3747L29.9552 26.7149L31.6377 25.0138L31.3012 24.6736C29.843 23.1993 27.9361 22.4055 25.917 22.4055C21.6545 22.2921 18.5137 25.6942 18.5137 30.1171C18.5137 34.5399 21.6545 37.9421 25.8048 37.9421C27.8239 37.9421 29.843 37.1482 31.1891 35.674L31.5256 35.3338L29.843 33.6327L29.5065 33.9729Z" fill="white"/>
<path d="M37.3261 44.483L36.291 46.6128C36.2383 46.7212 36.1605 46.815 36.0642 46.886C35.968 46.9571 35.8561 47.0033 35.7384 47.0207L33.4247 47.3623C33.3163 47.3782 33.2144 47.4247 33.1306 47.4964C33.0468 47.5681 32.9844 47.6622 32.9506 47.7681C32.9167 47.8739 32.9127 47.9873 32.939 48.0953C32.9653 48.2034 33.0209 48.3018 33.0994 48.3794L34.7743 50.0374C34.8593 50.1217 34.923 50.2257 34.9597 50.3404C34.9965 50.4552 35.0052 50.5773 34.9853 50.6962L34.5899 53.0375C34.5715 53.1471 34.5837 53.2598 34.6251 53.3627C34.6664 53.4656 34.7353 53.5548 34.8239 53.62C34.9125 53.6853 35.0174 53.7241 35.1266 53.732C35.2357 53.74 35.3449 53.7167 35.4418 53.665L37.5114 52.5597C37.6168 52.5035 37.734 52.4741 37.8529 52.4741C37.9719 52.4741 38.0891 52.5035 38.1944 52.5597L40.264 53.665C40.3609 53.7167 40.4701 53.74 40.5793 53.732C40.6885 53.7241 40.7933 53.6853 40.8819 53.62C40.9705 53.5548 41.0394 53.4656 41.0808 53.3627C41.1221 53.2598 41.1343 53.1471 41.116 53.0375L40.7206 50.6962C40.7006 50.5773 40.7093 50.4552 40.7461 50.3404C40.7829 50.2256 40.8465 50.1217 40.9316 50.0374L42.6064 48.3794C42.6849 48.3018 42.7405 48.2034 42.7668 48.0953C42.7931 47.9873 42.7891 47.8739 42.7553 47.7681C42.7214 47.6622 42.6591 47.5681 42.5753 47.4964C42.4915 47.4247 42.3896 47.3782 42.2811 47.3623L39.9666 47.0207C39.8488 47.0033 39.737 46.9571 39.6407 46.886C39.5444 46.815 39.4666 46.7212 39.4139 46.6128L38.3788 44.483C38.3304 44.3832 38.2554 44.2992 38.1624 44.2404C38.0694 44.1817 37.962 44.1506 37.8525 44.1506C37.7429 44.1506 37.6356 44.1817 37.5426 44.2404C37.4495 44.2992 37.3746 44.3832 37.3261 44.483Z" fill="#FFAF00"/>
<path d="M51.7137 44.483L50.6786 46.6128C50.626 46.7212 50.5482 46.815 50.4519 46.886C50.3556 46.9571 50.2438 47.0033 50.126 47.0207L47.8114 47.3623C47.703 47.3783 47.6011 47.4247 47.5173 47.4964C47.4335 47.5682 47.3712 47.6623 47.3373 47.7681C47.3035 47.874 47.2994 47.9873 47.3258 48.0954C47.3521 48.2034 47.4076 48.3018 47.4862 48.3794L49.161 50.0374C49.2461 50.1217 49.3097 50.2257 49.3464 50.3404C49.3832 50.4552 49.392 50.5773 49.372 50.6962L48.9766 53.0375C48.9582 53.1472 48.9704 53.2598 49.0118 53.3627C49.0531 53.4657 49.122 53.5548 49.2106 53.6201C49.2993 53.6853 49.4041 53.7241 49.5133 53.7321C49.6225 53.74 49.7317 53.7168 49.8285 53.665L51.8982 52.5598C52.0035 52.5035 52.1207 52.4742 52.2396 52.4742C52.3586 52.4742 52.4758 52.5035 52.5811 52.5598L54.6508 53.665C54.7476 53.7168 54.8568 53.74 54.966 53.7321C55.0752 53.7241 55.18 53.6853 55.2687 53.6201C55.3573 53.5548 55.4262 53.4657 55.4675 53.3627C55.5089 53.2598 55.5211 53.1472 55.5027 53.0375L55.1073 50.6962C55.0873 50.5773 55.0961 50.4552 55.1328 50.3404C55.1696 50.2257 55.2332 50.1217 55.3183 50.0374L56.9931 48.3794C57.0717 48.3018 57.1272 48.2034 57.1535 48.0954C57.1798 47.9873 57.1758 47.874 57.142 47.7681C57.1081 47.6623 57.0458 47.5682 56.962 47.4964C56.8782 47.4247 56.7763 47.3783 56.6679 47.3623L54.3533 47.0207C54.2355 47.0033 54.1237 46.9571 54.0274 46.886C53.9311 46.815 53.8533 46.7212 53.8007 46.6128L52.7655 44.483C52.717 44.3835 52.642 44.2997 52.5491 44.2411C52.4562 44.1826 52.349 44.1516 52.2396 44.1516C52.1303 44.1516 52.0231 44.1826 51.9302 44.2411C51.8373 44.2997 51.7623 44.3835 51.7137 44.483Z" fill="#FFAF00"/>
<path d="M66.106 44.4819L65.0709 46.6117C65.0182 46.7201 64.9404 46.8139 64.8442 46.8849C64.7479 46.956 64.636 47.0022 64.5183 47.0196L62.204 47.3612C62.0956 47.3771 61.9937 47.4236 61.9099 47.4953C61.8261 47.567 61.7637 47.6611 61.7299 47.767C61.696 47.8728 61.692 47.9862 61.7183 48.0942C61.7446 48.2023 61.8002 48.3007 61.8787 48.3783L63.5536 50.0363C63.6386 50.1206 63.7023 50.2246 63.739 50.3393C63.7758 50.4541 63.7845 50.5762 63.7646 50.6951L63.3692 53.0364C63.3508 53.146 63.363 53.2587 63.4044 53.3616C63.4457 53.4645 63.5146 53.5537 63.6032 53.6189C63.6918 53.6842 63.7967 53.723 63.9059 53.7309C64.015 53.7389 64.1242 53.7156 64.2211 53.6639L66.2907 52.5586C66.3961 52.5024 66.5132 52.473 66.6322 52.473C66.7512 52.473 66.8684 52.5024 66.9737 52.5586L69.0433 53.6639C69.1402 53.7156 69.2494 53.7389 69.3586 53.7309C69.4678 53.723 69.5726 53.6842 69.6612 53.6189C69.7498 53.5537 69.8187 53.4645 69.8601 53.3616C69.9014 53.2587 69.9136 53.146 69.8953 53.0364L69.4999 50.6951C69.4799 50.5762 69.4886 50.4541 69.5254 50.3393C69.5621 50.2245 69.6258 50.1206 69.7109 50.0363L71.3857 48.3783C71.4642 48.3007 71.5198 48.2023 71.5461 48.0942C71.5724 47.9862 71.5684 47.8728 71.5346 47.767C71.5007 47.6611 71.4384 47.567 71.3546 47.4953C71.2708 47.4236 71.1689 47.3771 71.0604 47.3612L68.7459 47.0196C68.6281 47.0022 68.5163 46.956 68.42 46.8849C68.3237 46.8139 68.2459 46.7201 68.1932 46.6117L67.1587 44.4819C67.1103 44.3821 67.0353 44.2981 66.9423 44.2394C66.8493 44.1806 66.7419 44.1495 66.6324 44.1495C66.5228 44.1495 66.4155 44.1806 66.3225 44.2394C66.2294 44.2981 66.1545 44.3821 66.106 44.4819Z" fill="#FFAF00"/>
<path d="M81.5463 44.4832L82.5814 46.613C82.6341 46.7214 82.7119 46.8152 82.8082 46.8862C82.9045 46.9573 83.0163 47.0035 83.1341 47.0209L85.4483 47.3625C85.5568 47.3785 85.6587 47.4249 85.7425 47.4966C85.8263 47.5684 85.8886 47.6625 85.9225 47.7683C85.9563 47.8742 85.9603 47.9875 85.934 48.0956C85.9077 48.2036 85.8521 48.302 85.7736 48.3796L84.0988 50.0376C84.0137 50.1219 83.9501 50.2259 83.9133 50.3406C83.8766 50.4554 83.8678 50.5775 83.8878 50.6964L84.2832 53.0377C84.3015 53.1474 84.2893 53.26 84.248 53.3629C84.2066 53.4659 84.1377 53.555 84.0491 53.6203C83.9605 53.6855 83.8557 53.7243 83.7465 53.7323C83.6373 53.7402 83.5281 53.717 83.4312 53.6652L81.3616 52.5599C81.2563 52.5037 81.1391 52.4744 81.0201 52.4744C80.9011 52.4744 80.7839 52.5037 80.6786 52.5599L78.609 53.6652C78.5121 53.717 78.4029 53.7402 78.2938 53.7323C78.1846 53.7243 78.0797 53.6855 77.9911 53.6203C77.9025 53.555 77.8336 53.4659 77.7923 53.3629C77.7509 53.26 77.7387 53.1474 77.7571 53.0377L78.1525 50.6964C78.1725 50.5775 78.1637 50.4554 78.127 50.3406C78.0902 50.2259 78.0266 50.1219 77.9415 50.0376L76.2666 48.3796C76.1881 48.302 76.1325 48.2036 76.1062 48.0956C76.0799 47.9875 76.0839 47.8742 76.1178 47.7683C76.1516 47.6625 76.214 47.5684 76.2978 47.4966C76.3816 47.4249 76.4835 47.3785 76.5919 47.3625L78.9065 47.0209C79.0243 47.0035 79.1361 46.9573 79.2324 46.8862C79.3286 46.8152 79.4064 46.7214 79.4591 46.613L80.4914 44.4832C80.5397 44.3828 80.6147 44.2983 80.7079 44.2391C80.8012 44.1799 80.9089 44.1486 81.0189 44.1486C81.1288 44.1486 81.2366 44.1799 81.3298 44.2391C81.4231 44.2983 81.4981 44.3828 81.5463 44.4832Z" fill="#FFAF00"/>
<path d="M83.4312 53.6656L82.0217 52.9126V45.4605L82.5811 46.6119C82.6338 46.7203 82.7116 46.814 82.8079 46.8851C82.9042 46.9561 83.016 47.0023 83.1338 47.0197L85.4483 47.3613C85.5568 47.3773 85.6587 47.4237 85.7425 47.4955C85.8263 47.5672 85.8886 47.6613 85.9225 47.7671C85.9563 47.873 85.9603 47.9863 85.934 48.0944C85.9077 48.2024 85.8521 48.3008 85.7736 48.3784L84.0988 50.0364C84.0137 50.1207 83.9501 50.2247 83.9133 50.3395C83.8766 50.4542 83.8678 50.5763 83.8878 50.6953L84.2832 53.0366C84.3019 53.1463 84.2899 53.2591 84.2487 53.3623C84.2075 53.4655 84.1387 53.5549 84.05 53.6204C83.9613 53.6859 83.8563 53.7248 83.747 53.7328C83.6376 53.7408 83.5282 53.7175 83.4312 53.6656Z" fill="#FDE3AC"/>
<path d="M22.9403 44.4843L21.9052 46.6145C21.8525 46.7229 21.7747 46.8166 21.6784 46.8877C21.5822 46.9587 21.4703 47.0049 21.3526 47.0223L19.038 47.364C18.9295 47.3799 18.8277 47.4264 18.7439 47.4981C18.6601 47.5698 18.5977 47.6639 18.5639 47.7698C18.53 47.8756 18.526 47.989 18.5523 48.097C18.5786 48.205 18.6342 48.3034 18.7127 48.3811L20.3876 50.0391C20.4726 50.1233 20.5363 50.2273 20.573 50.3421C20.6098 50.4568 20.6185 50.5789 20.5985 50.6979L20.2032 53.0392C20.1848 53.1488 20.197 53.2614 20.2383 53.3644C20.2797 53.4673 20.3486 53.5564 20.4372 53.6217C20.5258 53.687 20.6307 53.7258 20.7398 53.7337C20.849 53.7416 20.9582 53.7184 21.0551 53.6666L23.1247 52.5614C23.23 52.5052 23.3472 52.4758 23.4662 52.4758C23.5852 52.4758 23.7024 52.5052 23.8077 52.5614L25.8773 53.6666C25.9742 53.7184 26.0834 53.7416 26.1926 53.7337C26.3018 53.7258 26.4066 53.687 26.4952 53.6217C26.5838 53.5564 26.6527 53.4673 26.6941 53.3644C26.7354 53.2614 26.7476 53.1488 26.7293 53.0392L26.3339 50.6979C26.3139 50.5789 26.3226 50.4568 26.3594 50.3421C26.3961 50.2273 26.4598 50.1233 26.5448 50.0391L28.2197 48.3811C28.2982 48.3034 28.3538 48.205 28.3801 48.097C28.4064 47.989 28.4024 47.8756 28.3686 47.7698C28.3347 47.6639 28.2723 47.5698 28.1886 47.4981C28.1048 47.4264 28.0029 47.3799 27.8944 47.364L25.5811 47.022C25.4633 47.0046 25.3515 46.9584 25.2552 46.8874C25.1589 46.8163 25.0811 46.7226 25.0285 46.6142L23.9933 44.4843C23.9449 44.3845 23.8699 44.3004 23.7769 44.2416C23.6838 44.1828 23.5764 44.1516 23.4668 44.1516C23.3572 44.1516 23.2498 44.1828 23.1568 44.2416C23.0637 44.3004 22.9887 44.3845 22.9403 44.4843Z" fill="#E2E2E2"/>
<path d="M23.9687 44.484L25.0038 46.6138C25.0564 46.7222 25.1343 46.816 25.2305 46.887C25.3268 46.9581 25.4386 47.0043 25.5564 47.0217L27.871 47.3633C27.9794 47.3792 28.0813 47.4257 28.1651 47.4974C28.2489 47.5691 28.3113 47.6632 28.3451 47.7691C28.379 47.8749 28.383 47.9883 28.3567 48.0963C28.3303 48.2044 28.2748 48.3028 28.1963 48.3804L26.5214 50.0384C26.4364 50.1227 26.3727 50.2267 26.336 50.3414C26.2992 50.4562 26.2905 50.5783 26.3104 50.6972L26.7058 53.0385C26.7242 53.1481 26.712 53.2608 26.6706 53.3637C26.6293 53.4666 26.5604 53.5558 26.4718 53.621C26.3832 53.6863 26.2783 53.7251 26.1691 53.733C26.0599 53.741 25.9507 53.7177 25.8539 53.666L23.7843 52.5607C23.6789 52.5045 23.5618 52.4751 23.4428 52.4751C23.3238 52.4751 23.2066 52.5045 23.1013 52.5607L21.0317 53.666C20.9348 53.7177 20.8256 53.741 20.7164 53.733C20.6072 53.7251 20.5024 53.6863 20.4138 53.621C20.3252 53.5558 20.2563 53.4666 20.2149 53.3637C20.1736 53.2608 20.1614 53.1481 20.1797 53.0385L20.5751 50.6972C20.5951 50.5783 20.5864 50.4562 20.5496 50.3414C20.5129 50.2266 20.4492 50.1227 20.3641 50.0384L18.6893 48.3804C18.6108 48.3028 18.5552 48.2044 18.5289 48.0963C18.5026 47.9883 18.5066 47.8749 18.5404 47.7691C18.5743 47.6632 18.6366 47.5691 18.7204 47.4974C18.8042 47.4257 18.9061 47.3792 19.0146 47.3633L21.3291 47.0217C21.4469 47.0043 21.5587 46.9581 21.655 46.887C21.7513 46.816 21.8291 46.7222 21.8818 46.6138L22.9169 44.484C22.9654 44.3845 23.0404 44.3007 23.1333 44.2421C23.2262 44.1836 23.3334 44.1525 23.4428 44.1525C23.5521 44.1525 23.6593 44.1836 23.7522 44.2421C23.8452 44.3007 23.9201 44.3845 23.9687 44.484Z" fill="#FFAF00"/>
</svg>
