<svg width="16" height="16" viewBox="0 0 16 16" fill="none" xmlns="http://www.w3.org/2000/svg">
<path d="M3.49139 8.90899L14.7532 9.02842C15.0066 9.03075 15.2213 8.94549 15.3974 8.77265C15.573 8.60023 15.662 8.3873 15.6643 8.13387C15.6666 7.88044 15.5814 7.6657 15.4085 7.48964C15.2361 7.31402 15.0232 7.22504 14.7698 7.22271L3.50771 7.13496L8.36722 2.36403C8.54838 2.18617 8.6403 1.9758 8.64295 1.73294C8.64476 1.49006 8.55674 1.27804 8.37887 1.09687C8.20101 0.915706 7.99064 0.823795 7.74778 0.821139C7.5049 0.819327 7.29288 0.907353 7.11171 1.08522L0.717619 7.36275C0.536453 7.54062 0.444755 7.75077 0.442525 7.99322C0.440287 8.23652 0.5281 8.44875 0.705964 8.62992L6.9835 15.024C7.16136 15.2052 7.37173 15.2967 7.61461 15.2985C7.85748 15.3011 8.0695 15.2135 8.25066 15.0357C8.43183 14.8578 8.52332 14.6474 8.52513 14.4046C8.52778 14.1617 8.44018 13.9497 8.26232 13.7685L3.49139 8.90899Z" fill="white" fill-opacity="0.5"/>
</svg>
