<svg width="18" height="18" viewBox="0 0 18 18" fill="none" xmlns="http://www.w3.org/2000/svg">
<path d="M13.8957 9.95537L1.15029 10.0905C0.863469 10.0932 0.620436 9.99668 0.421191 9.80107C0.222429 9.60593 0.121729 9.36495 0.119091 9.07813C0.116452 8.79131 0.212939 8.54827 0.408552 8.34903C0.603691 8.15027 0.844671 8.04957 1.13149 8.04693L13.8773 7.94762L8.37755 2.54814C8.17251 2.34684 8.06849 2.10876 8.06549 1.8339C8.06344 1.55902 8.16306 1.31907 8.36436 1.11403C8.56565 0.909001 8.80373 0.804981 9.0786 0.801975C9.35347 0.799924 9.59343 0.899547 9.79846 1.10084L17.035 8.20542C17.24 8.40672 17.3438 8.64456 17.3463 8.91895C17.3488 9.1943 17.2494 9.43449 17.0481 9.63953L9.94357 16.876C9.74227 17.081 9.50418 17.1846 9.22931 17.1866C8.95444 17.1896 8.71449 17.0905 8.50946 16.8892C8.30442 16.6879 8.20088 16.4498 8.19883 16.1749C8.19583 15.9001 8.29497 15.6601 8.49627 15.4551L13.8957 9.95537Z" fill="white"/>
</svg>
