<svg width="67" height="67" viewBox="0 0 67 67" fill="none" xmlns="http://www.w3.org/2000/svg">
<path d="M20.688 0.551595H46.2058C57.3265 0.551595 66.3422 9.57262 66.3422 20.7014V46.2359C66.3422 57.3646 57.3265 66.3857 46.2058 66.3857H20.688C9.56728 66.3857 0.551595 57.3646 0.551595 46.2359V20.7014C0.551595 9.57262 9.56728 0.551595 20.688 0.551595Z" fill="white" stroke="#EFEEEE" stroke-width="1.10319"/>
<path d="M33.4462 15.3036C23.462 15.3036 15.293 23.478 15.293 33.4686C15.293 43.4592 23.462 51.6336 33.4462 51.6336C43.4303 51.6336 51.5993 43.4592 51.5993 33.4686C51.5993 23.478 43.4303 15.3036 33.4462 15.3036ZM19.4683 37.1012C19.1049 35.8304 18.9232 34.7404 18.9232 33.4686C18.9232 32.1968 19.1049 31.1068 19.4683 29.836H22.9169C22.5545 32.2442 22.5545 34.6931 22.9169 37.1012H19.4683ZM20.9201 40.7348H23.462C23.8244 42.3693 24.3696 44.0047 25.2771 45.4574C23.462 44.1856 22.0093 42.5511 20.9201 40.7348ZM23.462 26.2024H20.9201C22.0093 24.3861 23.462 22.7516 25.2771 21.4798C24.3696 22.9335 23.8244 24.568 23.462 26.2024ZM31.631 47.4555C29.4525 45.821 27.8181 43.4592 27.2739 40.7348H31.631V47.4555ZM31.631 37.1012H26.3664C26.1847 35.8304 26.1847 34.7404 26.1847 33.4686C26.1847 32.1968 26.1847 31.1068 26.3664 29.836H31.631V37.1012ZM31.631 26.2024H27.2739C27.8181 23.478 29.4525 21.1162 31.631 19.4817V26.2024ZM45.9713 26.2024H43.4303C43.0669 24.568 42.5228 22.9335 41.6152 21.4798C43.4303 22.7516 44.882 24.3861 45.9713 26.2024ZM35.2613 19.4817C37.4398 21.1162 39.0732 23.478 39.6184 26.2024H35.2613V19.4817ZM35.2613 47.4555V40.7348H39.6184C39.0732 43.4592 37.4398 45.821 35.2613 47.4555ZM40.5259 37.1012H35.2613V29.836H40.5259C40.7066 32.2544 40.7066 34.6829 40.5259 37.1012ZM41.7959 45.4574C42.5228 44.0047 43.0669 42.3693 43.612 40.7348H46.153C44.882 42.5511 43.4303 44.1856 41.7959 45.4574ZM44.1561 37.1012C44.5196 34.6931 44.5196 32.2441 44.1561 29.836H47.6057C48.3315 32.2033 48.3315 34.7339 47.6057 37.1012H44.1561Z" fill="#016BE3"/>
</svg>
