<svg width="44" height="44" viewBox="0 0 44 44" fill="none" xmlns="http://www.w3.org/2000/svg">
<g clip-path="url(#clip0_2769_12645)">
<path d="M0 18.4945C0 14.7677 3.56653 11.7466 7.96606 11.7466H36.034C40.4335 11.7466 44 14.7677 44 18.4945V28.2419C44 31.9687 40.4335 34.9898 36.034 34.9898H7.96606C3.56652 34.9898 0 31.9687 0 28.2419V18.4945Z" fill="white" fill-opacity="0.25"/>
<path d="M8.42371 34.3027H9.85084V37.6425C9.85365 37.6902 9.86347 37.7379 9.87891 37.7828C9.86487 37.8249 9.85645 37.8684 9.85224 37.9119C9.85224 38.0607 9.91259 38.2038 10.0178 38.3091C10.1231 38.4143 10.2648 38.4732 10.4136 38.4732H12.5662C12.771 38.4732 12.9605 38.361 13.0587 38.18L15.1692 34.3027H29.9581L31.8666 37.9033C31.9634 38.0872 32.1542 38.2008 32.3619 38.2008H34.2521C34.4008 38.2008 34.544 38.1419 34.6492 38.0366C34.7545 37.9314 34.8134 37.7883 34.8134 37.6395V34.3026H36.2419C36.3907 34.3026 36.5338 34.2436 36.6391 34.1384C36.7443 34.0331 36.8032 33.89 36.8032 33.7412V31.0694C36.8032 30.9207 36.7443 30.7776 36.6391 30.6723C36.5338 30.5671 36.3907 30.5081 36.2419 30.5081H29.9834L32.6776 23.4973C32.7422 23.3233 32.7197 23.1297 32.6159 22.9753C32.5092 22.8238 32.3352 22.734 32.15 22.734H22.5656L20.7526 20.921H20.7512C20.646 20.8157 20.5028 20.7554 20.3541 20.7554H11.9724C11.8195 20.7554 11.6721 20.8185 11.5669 20.9294L9.59111 23.0006C9.49148 23.1058 9.43535 23.2447 9.43535 23.3879V29.8401C9.43535 29.9621 9.47465 30.08 9.54761 30.1768L9.79459 30.5108H8.42361C8.11349 30.5108 7.8623 30.762 7.8623 31.0721V33.7439C7.86371 34.0526 8.115 34.3027 8.42371 34.3027ZM12.2294 37.3506H10.9735V34.3027H13.8923L12.2294 37.3506ZM33.6879 37.0784H32.6986L31.228 34.3027H33.6893L33.6879 37.0784ZM10.5565 23.6129L12.2109 21.8785H20.1223L21.6645 23.4207L18.4932 30.5083H17.7831V30.0817C17.7803 29.0279 16.9271 28.1747 15.8747 28.1733H14.0785V25.7948C14.0785 25.4847 13.8273 25.2335 13.5172 25.2335C13.2071 25.2335 12.9559 25.4847 12.9559 25.7948V28.7332V28.7318C12.9559 28.8806 13.0148 29.0237 13.1201 29.1289C13.2253 29.2342 13.3685 29.2931 13.5172 29.2931H15.8747C16.3083 29.2931 16.6605 29.6453 16.6605 30.0789V30.5055L11.1919 30.5069L10.559 29.6538L10.5565 23.6129ZM8.98484 31.631H35.6802V33.1802H8.98484V31.631Z" fill="white"/>
<path d="M15.799 19.748C17.1545 19.7466 18.3768 18.93 18.8946 17.6769C19.4138 16.4237 19.1261 14.9812 18.1677 14.0227C17.2093 13.0643 15.7667 12.7766 14.5136 13.2959C13.2605 13.8137 12.4438 15.0359 12.4424 16.3914C12.4438 18.2452 13.9453 19.7466 15.799 19.748ZM15.799 14.163C16.7013 14.1644 17.5138 14.7089 17.859 15.5424C18.2028 16.3774 18.0105 17.3372 17.372 17.9743C16.7335 18.6113 15.7737 18.8008 14.9402 18.4542C14.1067 18.1076 13.5636 17.2937 13.565 16.3914C13.5692 15.1607 14.5683 14.163 15.799 14.163Z" fill="white"/>
<path d="M26.2106 16.2674C26.3958 16.4007 26.48 16.6351 26.4239 16.8568L26.0646 18.2881L27.6587 17.2441C27.7906 17.1543 27.9548 17.1276 28.1078 17.1712C28.5863 17.2989 29.0774 17.3648 29.5728 17.3676C31.4096 17.3732 33.1371 16.4976 34.2205 15.0143C35.3038 13.5325 35.6112 11.6199 35.0471 9.87299C34.4844 8.12453 33.1176 6.75215 31.3721 6.18115C29.6264 5.61004 27.7137 5.91032 26.2264 6.98663C24.739 8.06292 23.8563 9.78613 23.8535 11.6229C23.8507 13.4598 24.7264 15.1858 26.211 16.2678L26.2106 16.2674ZM26.6035 14.0727C26.6049 12.7172 27.5086 11.5286 28.815 11.1652C27.9997 10.7751 27.5633 9.87136 27.764 8.99012C27.966 8.10888 28.7519 7.48443 29.6556 7.48863C30.5592 7.49144 31.3409 8.12009 31.5359 9.00273C31.7324 9.88537 31.289 10.7863 30.4709 11.1708C31.7801 11.5258 32.6894 12.7158 32.688 14.0727V15.083C32.688 15.2318 32.6291 15.3749 32.5238 15.4802C32.4186 15.5854 32.2755 15.6444 32.1267 15.6444H27.165C26.8549 15.6444 26.6037 15.3932 26.6037 15.0831L26.6035 14.0727Z" fill="white"/>
<path d="M29.6462 10.2337C29.9745 10.2351 30.2706 10.0387 30.3969 9.73557C30.5232 9.43247 30.4558 9.08446 30.2243 8.85153C29.9927 8.61859 29.6447 8.54843 29.3416 8.67192C29.0371 8.79681 28.8393 9.0915 28.8379 9.41984C28.8379 9.86748 29.1985 10.2309 29.6462 10.2337Z" fill="white"/>
<path d="M31.5679 14.073C31.5679 13.0121 30.7091 12.1533 29.6482 12.1533C28.5873 12.1533 27.7285 13.0121 27.7285 14.073V14.522H31.568L31.5679 14.073Z" fill="white"/>
</g>
<defs>
<clipPath id="clip0_2769_12645">
<rect width="44" height="44" fill="white"/>
</clipPath>
</defs>
</svg>
