<svg width="44" height="44" viewBox="0 0 44 44" fill="none" xmlns="http://www.w3.org/2000/svg">
<g clip-path="url(#clip0_2769_12598)">
<path d="M0 18.4945C0 14.7677 3.56653 11.7466 7.96606 11.7466H36.034C40.4335 11.7466 44 14.7677 44 18.4945V28.2419C44 31.9687 40.4335 34.9898 36.034 34.9898H7.96606C3.56652 34.9898 0 31.9687 0 28.2419V18.4945Z" fill="#624DE3" fill-opacity="0.14"/>
<path d="M41.4971 21.7129C41.3606 21.5081 41.1422 21.3852 40.9101 21.3852H34.0843C33.8249 21.3852 33.5929 21.5354 33.47 21.7675L30.9308 26.8459H29.4428C29.4684 26.7691 29.4906 26.6906 29.5247 26.6138L31.7226 22.2182C31.4769 22.0817 31.2039 21.9452 30.9308 21.836C31.5997 21.2217 32.0366 20.3343 32.0366 19.3377C32.0366 17.4538 30.5076 15.9248 28.6237 15.9248C26.7398 15.9248 25.2108 17.4538 25.2108 19.3377C25.2108 20.3342 25.6476 21.2216 26.3165 21.836C24.0777 22.7506 22.4805 24.9622 22.4805 27.5286C22.4805 27.9108 22.7808 28.2111 23.163 28.2111H38.1798C38.4392 28.2111 38.6712 28.061 38.7941 27.8289L41.5244 22.3683C41.62 22.1635 41.62 21.904 41.4971 21.7129ZM28.6236 17.2898C29.7567 17.2898 30.6713 18.2044 30.6713 19.3375C30.6713 20.4706 29.7567 21.3852 28.6236 21.3852C27.4905 21.3852 26.5759 20.4706 26.5759 19.3375C26.5759 18.2044 27.4905 17.2898 28.6236 17.2898Z" fill="#016BE3"/>
<path d="M14.1657 28.2102H20.4319C20.8142 28.2102 21.1145 27.9098 21.1145 27.5276C21.1145 24.9611 19.5173 22.7493 17.2784 21.835C17.9473 21.2207 18.3842 20.3333 18.3842 19.3367C18.3842 17.4528 16.8552 15.9238 14.9713 15.9238C13.0874 15.9238 11.5584 17.4528 11.5584 19.3367C11.5584 20.3333 11.9952 21.2206 12.6641 21.835C12.3911 21.9442 12.1181 22.0807 11.8723 22.2172L14.0976 26.6539C14.1249 26.7153 14.1215 26.7819 14.1419 26.845H12.6642L10.125 21.7666C10.0021 21.5345 9.77003 21.3844 9.51067 21.3844H2.68488C2.4528 21.3844 2.23439 21.5072 2.09784 21.712C1.97497 21.9031 1.97497 22.1625 2.07053 22.3673L4.80085 27.8279C4.92371 28.06 5.15579 28.2102 5.41515 28.2102H14.1657ZM12.9234 19.3369C12.9234 18.2038 13.8381 17.2891 14.9711 17.2891C16.1042 17.2891 17.0189 18.2038 17.0189 19.3369C17.0189 20.4699 16.1042 21.3846 14.9711 21.3846C13.8381 21.3846 12.9234 20.4699 12.9234 19.3369Z" fill="#016BE3"/>
<path d="M36.3272 29.6678C36.0064 29.4784 35.5849 29.5893 35.3955 29.917C32.5935 34.7599 27.3837 37.7668 21.795 37.7668C16.8547 37.7668 12.2678 35.4392 9.30548 31.5316L9.53926 31.5691C9.92321 31.6289 10.2611 31.3729 10.3208 31.0009C10.3806 30.6289 10.1263 30.2791 9.75428 30.2193L7.84817 29.9173C7.66558 29.89 7.4864 29.9326 7.33963 30.0401C7.19288 30.1459 7.09561 30.3063 7.0666 30.4855L6.76456 32.3933C6.70483 32.7653 6.95909 33.1151 7.33111 33.1749C7.36694 33.18 7.40278 33.1834 7.43861 33.1834C7.76796 33.1834 8.05977 32.9428 8.11267 32.6066L8.16387 32.2807C11.3822 36.5741 16.3941 39.1323 21.7949 39.1323C27.868 39.1323 33.53 35.8627 36.5762 30.6001C36.7656 30.2742 36.653 29.8561 36.3271 29.6684L36.3272 29.6678Z" fill="#016BE3"/>
<path d="M5.52959 20.0113C5.56713 20.0182 5.60638 20.0199 5.64221 20.0199C5.96985 20.0199 6.25826 19.7844 6.31457 19.4499C7.58589 11.8697 14.0975 6.36841 21.797 6.36841C28.725 6.36841 34.7863 10.8972 36.795 17.4605L36.5629 17.3325C36.2369 17.1499 35.8189 17.2677 35.6346 17.597C35.452 17.9264 35.5697 18.3427 35.9008 18.5253L37.5885 19.4621C37.6891 19.5202 37.8052 19.5475 37.9195 19.5475C37.9827 19.5475 38.0458 19.5389 38.1072 19.5202C38.2813 19.4707 38.428 19.3529 38.5168 19.1942L39.4519 17.5048C39.6345 17.1755 39.515 16.7591 39.1857 16.5765C38.8598 16.3939 38.4417 16.5117 38.2574 16.8427L38.1123 17.1038C35.9417 9.94515 29.343 5 21.7951 5C13.4268 5 6.34848 10.9809 4.96629 19.2217C4.90486 19.5937 5.1557 19.9452 5.52773 20.0084L5.52959 20.0113Z" fill="#016BE3"/>
</g>
<defs>
<clipPath id="clip0_2769_12598">
<rect width="44" height="44" fill="white"/>
</clipPath>
</defs>
</svg>
