<svg width="20" height="20" viewBox="0 0 20 20" fill="none" xmlns="http://www.w3.org/2000/svg">
<g clip-path="url(#clip0_2430_2699)">
<path d="M18.9892 10.1727L9.04552 0.22908C8.74041 -0.0760346 8.24576 -0.0760346 7.94069 0.22908C7.63561 0.534195 7.63557 1.02884 7.94069 1.33392L8.65783 2.05106L5.04754 9.75127L1.4671 13.3317C0.553283 14.2455 0.553283 15.7324 1.4671 16.6463L2.57198 17.7511C3.48795 18.6671 4.97055 18.6671 5.88652 17.7511L6.80191 16.8357L9.25982 19.2937C9.70462 19.7493 10.2999 20.0001 10.9368 20.0001C12.2291 20.0001 13.2805 18.9487 13.2805 17.6563C13.2805 17.0194 13.0297 16.4241 12.5741 15.9793L10.351 13.7562L17.1672 10.5604L17.8843 11.2775C18.1894 11.5826 18.6841 11.5826 18.9892 11.2775C19.2942 10.9724 19.2942 10.4778 18.9892 10.1727ZM4.78165 16.6463C4.47634 16.9516 3.98216 16.9516 3.67681 16.6463L2.57194 15.5414C2.26733 15.2368 2.26733 14.7412 2.57194 14.4366L5.69676 11.3118L7.90647 13.5215L4.78165 16.6463ZM11.481 17.0959C11.6338 17.2443 11.718 17.4434 11.718 17.6564C11.718 18.0872 11.3675 18.4376 10.9368 18.4376C10.7238 18.4376 10.5247 18.3535 10.3762 18.2006C10.3736 18.1979 7.90666 15.731 7.90666 15.731L9.01126 14.6264C9.01134 14.6263 11.4782 17.0932 11.481 17.0959ZM9.17607 12.5814L6.63683 10.0421L9.83266 3.22593L15.9923 9.38549L9.17607 12.5814Z" fill="white"/>
<path d="M16.1503 5.0697C16.3459 5.45423 16.8163 5.60739 17.2008 5.41177L18.7911 4.60275C19.1756 4.40708 19.3288 3.93673 19.1331 3.55216C18.9375 3.16759 18.4672 3.01446 18.0826 3.21009L16.4924 4.01911C16.1078 4.21478 15.9546 4.68513 16.1503 5.0697Z" fill="white"/>
<path d="M14.1486 3.06802C14.5332 3.26364 15.0035 3.11048 15.1992 2.72591L16.0081 1.13564C16.2038 0.751065 16.0506 0.280714 15.6661 0.0850887C15.2815 -0.110536 14.8112 0.0425887 14.6155 0.427198L13.8065 2.01747C13.6109 2.40204 13.764 2.87239 14.1486 3.06802Z" fill="white"/>
</g>
<defs>
<clipPath id="clip0_2430_2699">
<rect width="20" height="20" fill="white"/>
</clipPath>
</defs>
</svg>
