<svg width="133" height="46" viewBox="0 0 133 46" fill="none" xmlns="http://www.w3.org/2000/svg">
<path d="M20.9057 1.62651C15.9707 1.01493 5.998 4.6844 1.62851 6.59558C-2.38114 28.6124 12.8093 41.5065 20.9057 45.2015C39.4117 38.1683 41.468 17.0434 40.1828 7.36008C33.2431 3.15548 27.0744 2.39098 20.9057 1.62651Z" fill="#61BE7D"/>
<path d="M40.1893 7.36638C33.2495 3.16178 27.0808 2.39729 20.9121 1.63281V45.2078C39.4182 38.1746 41.4744 17.0497 40.1893 7.36638Z" fill="#56AA6F"/>
<path d="M24.7643 43.29L10.8848 29.5295L18.2101 15.3867H30.1619L39.415 21.8847C36.9475 35.3395 28.6198 41.761 24.7643 43.29Z" fill="#4C9964"/>
<path fill-rule="evenodd" clip-rule="evenodd" d="M20.9242 13.2455C22.1966 13.2455 23.2528 14.1711 23.4562 15.3858H18.3922C18.5956 14.1711 19.6518 13.2455 20.9242 13.2455ZM14.1807 15.3858H15.9301C16.1468 12.8176 18.2999 10.8008 20.9242 10.8008C23.5484 10.8008 25.7016 12.8176 25.9183 15.3858H27.6659C29.6912 15.3858 31.333 17.0276 31.333 19.0529V27.0082C31.333 29.0334 29.6912 30.6752 27.6659 30.6752H14.1808C12.1555 30.6752 10.5137 29.0334 10.5137 27.0082V19.0529C10.5137 17.0276 12.1555 15.3858 14.1807 15.3858ZM21.3062 24.5593C22.1581 24.5593 22.8487 23.8748 22.8487 23.0304C22.8487 22.186 22.1581 21.5014 21.3062 21.5014C20.4543 21.5014 19.7637 22.186 19.7637 23.0304C19.7637 23.8748 20.4543 24.5593 21.3062 24.5593Z" fill="white"/>
<path d="M46.7589 8.53912C47.6553 8.53912 48.3399 8.73469 48.8125 9.12585C49.2933 9.50885 49.5337 10.0997 49.5337 10.8983V15.3477H48.2624L47.908 14.4431H47.8591C47.5738 14.8017 47.2723 15.0624 46.9545 15.2254C46.6367 15.3884 46.2007 15.4699 45.6466 15.4699C45.0517 15.4699 44.5587 15.2988 44.1675 14.9565C43.7764 14.6061 43.5808 14.0723 43.5808 13.3552C43.5808 12.6462 43.8293 12.1247 44.3264 11.7906C44.8235 11.4483 45.5692 11.2609 46.5634 11.2283L47.7246 11.1916V10.8983C47.7246 10.5479 47.6309 10.2912 47.4435 10.1282C47.2642 9.9652 47.0116 9.88371 46.6856 9.88371C46.3596 9.88371 46.0418 9.93261 45.7322 10.0304C45.4225 10.12 45.1128 10.2341 44.8032 10.3727L44.2042 9.13807C44.5628 8.95064 44.958 8.80396 45.3899 8.69802C45.8299 8.59209 46.2863 8.53912 46.7589 8.53912ZM47.0156 12.2795C46.4289 12.2958 46.0214 12.4018 45.7933 12.5973C45.5651 12.7929 45.451 13.0496 45.451 13.3674C45.451 13.6445 45.5325 13.8442 45.6955 13.9664C45.8585 14.0805 46.0703 14.1375 46.3311 14.1375C46.7223 14.1375 47.0523 14.0234 47.3212 13.7953C47.5901 13.5589 47.7246 13.2289 47.7246 12.8051V12.2551L47.0156 12.2795ZM55.1873 8.55134C55.9044 8.55134 56.4789 8.74692 56.9108 9.13807C57.3427 9.52108 57.5587 10.1404 57.5587 10.9961V15.3477H55.7374V11.4483C55.7374 10.9675 55.6518 10.609 55.4807 10.3727C55.3095 10.1282 55.0365 10.0059 54.6617 10.0059C54.1075 10.0059 53.7286 10.1975 53.5249 10.5805C53.3212 10.9553 53.2193 11.4972 53.2193 12.2062V15.3477H51.398V8.67358H52.7915L53.0359 9.52923H53.1337C53.3456 9.18697 53.6349 8.93842 54.0016 8.78359C54.3765 8.62876 54.7717 8.55134 55.1873 8.55134ZM61.5463 15.4699C60.8048 15.4699 60.1977 15.1806 59.725 14.602C59.2605 14.0153 59.0283 13.1556 59.0283 12.0228C59.0283 10.882 59.2646 10.0182 59.7372 9.43144C60.2099 8.84471 60.8292 8.55134 61.5952 8.55134C62.076 8.55134 62.4712 8.64505 62.7809 8.83248C63.0906 9.01991 63.335 9.25216 63.5143 9.52923H63.5754C63.551 9.39884 63.5225 9.21141 63.4899 8.96694C63.4573 8.71432 63.441 8.45763 63.441 8.19686V6.05773H65.2623V15.3477H63.8688L63.5143 14.4798H63.441C63.2617 14.7568 63.0213 14.9932 62.7198 15.1887C62.4183 15.3762 62.0271 15.4699 61.5463 15.4699ZM62.182 14.0153C62.6872 14.0153 63.0417 13.8686 63.2454 13.5752C63.4491 13.2737 63.5551 12.8255 63.5632 12.2306V12.0351C63.5632 11.3831 63.4614 10.886 63.2576 10.5438C63.0621 10.2015 62.6953 10.0304 62.1575 10.0304C61.7582 10.0304 61.4445 10.2056 61.2163 10.556C60.9881 10.8983 60.874 11.3954 60.874 12.0473C60.874 12.6992 60.9881 13.1922 61.2163 13.5263C61.4445 13.8523 61.7664 14.0153 62.182 14.0153ZM70.8951 8.55134C70.9847 8.55134 71.0907 8.55541 71.2129 8.56356C71.3351 8.57171 71.4329 8.58394 71.5063 8.60023L71.3718 10.3115C71.3148 10.2952 71.2292 10.283 71.1151 10.2749C71.0092 10.2586 70.9155 10.2504 70.834 10.2504C70.5243 10.2504 70.2269 10.3075 69.9416 10.4215C69.6564 10.5275 69.4242 10.7027 69.2449 10.9472C69.0738 11.1916 68.9882 11.5257 68.9882 11.9495V15.3477H67.1669V8.67358H68.5482L68.8171 9.79815H68.9026C69.0982 9.45589 69.3671 9.16252 69.7094 8.91805C70.0517 8.67358 70.4469 8.55134 70.8951 8.55134ZM78.5418 11.9984C78.5418 13.1067 78.2484 13.9623 77.6617 14.5653C77.0831 15.1684 76.2927 15.4699 75.2903 15.4699C74.671 15.4699 74.1169 15.3354 73.6279 15.0665C73.1471 14.7976 72.7682 14.4064 72.4911 13.893C72.2141 13.3715 72.0755 12.74 72.0755 11.9984C72.0755 10.8901 72.3648 10.0385 72.9434 9.44366C73.522 8.84878 74.3165 8.55134 75.327 8.55134C75.9545 8.55134 76.5086 8.6858 76.9894 8.95472C77.4702 9.22364 77.8491 9.61479 78.1262 10.1282C78.4033 10.6334 78.5418 11.2568 78.5418 11.9984ZM73.9335 11.9984C73.9335 12.6585 74.0394 13.1596 74.2513 13.5019C74.4713 13.836 74.8258 14.0031 75.3148 14.0031C75.7956 14.0031 76.1419 13.836 76.3538 13.5019C76.5738 13.1596 76.6838 12.6585 76.6838 11.9984C76.6838 11.3383 76.5738 10.8453 76.3538 10.5193C76.1419 10.1852 75.7915 10.0182 75.3025 10.0182C74.8218 10.0182 74.4713 10.1852 74.2513 10.5193C74.0394 10.8453 73.9335 11.3383 73.9335 11.9984ZM80.9638 6.05773C81.2327 6.05773 81.465 6.12292 81.6605 6.25331C81.8561 6.37554 81.9539 6.60779 81.9539 6.95005C81.9539 7.28416 81.8561 7.51641 81.6605 7.64679C81.465 7.77718 81.2327 7.84237 80.9638 7.84237C80.6867 7.84237 80.4504 7.77718 80.2548 7.64679C80.0674 7.51641 79.9737 7.28416 79.9737 6.95005C79.9737 6.60779 80.0674 6.37554 80.2548 6.25331C80.4504 6.12292 80.6867 6.05773 80.9638 6.05773ZM81.8683 8.67358V15.3477H80.047V8.67358H81.8683ZM85.8861 15.4699C85.1445 15.4699 84.5374 15.1806 84.0648 14.602C83.6003 14.0153 83.368 13.1556 83.368 12.0228C83.368 10.882 83.6043 10.0182 84.077 9.43144C84.5496 8.84471 85.169 8.55134 85.935 8.55134C86.4158 8.55134 86.811 8.64505 87.1207 8.83248C87.4303 9.01991 87.6748 9.25216 87.8541 9.52923H87.9152C87.8907 9.39884 87.8622 9.21141 87.8296 8.96694C87.797 8.71432 87.7807 8.45763 87.7807 8.19686V6.05773H89.602V15.3477H88.2086L87.8541 14.4798H87.7807C87.6014 14.7568 87.3611 14.9932 87.0595 15.1887C86.758 15.3762 86.3669 15.4699 85.8861 15.4699ZM86.5217 14.0153C87.0269 14.0153 87.3814 13.8686 87.5852 13.5752C87.7889 13.2737 87.8948 12.8255 87.903 12.2306V12.0351C87.903 11.3831 87.8011 10.886 87.5974 10.5438C87.4018 10.2015 87.0351 10.0304 86.4973 10.0304C86.0979 10.0304 85.7842 10.2056 85.556 10.556C85.3279 10.8983 85.2138 11.3954 85.2138 12.0473C85.2138 12.6992 85.3279 13.1922 85.556 13.5263C85.7842 13.8523 86.1061 14.0153 86.5217 14.0153Z" fill="black"/>
<path d="M46.3947 21.6138C47.3156 21.6138 48.0449 21.8787 48.5828 22.4084C49.1206 22.9299 49.3895 23.6756 49.3895 24.6453V25.5254H45.0868C45.1031 26.0388 45.2539 26.4422 45.5391 26.7355C45.8324 27.0289 46.2358 27.1756 46.7492 27.1756C47.1811 27.1756 47.5723 27.1348 47.9227 27.0533C48.2731 26.9637 48.6357 26.8292 49.0106 26.65V28.0557C48.6846 28.2187 48.3383 28.3368 47.9716 28.4102C47.613 28.4916 47.177 28.5324 46.6637 28.5324C45.9954 28.5324 45.4046 28.4102 44.8912 28.1657C44.3778 27.9131 43.9745 27.5341 43.6811 27.0289C43.3877 26.5236 43.241 25.888 43.241 25.122C43.241 24.3397 43.3714 23.6919 43.6322 23.1785C43.9011 22.6569 44.2719 22.2658 44.7445 22.005C45.2172 21.7442 45.7673 21.6138 46.3947 21.6138ZM46.407 22.9095C46.0565 22.9095 45.7632 23.0236 45.5269 23.2518C45.2987 23.48 45.1642 23.8345 45.1235 24.3153H47.6782C47.6701 23.9078 47.5641 23.5737 47.3604 23.3129C47.1567 23.044 46.8389 22.9095 46.407 22.9095ZM54.6557 21.6138C55.3728 21.6138 55.9473 21.8094 56.3792 22.2006C56.8111 22.5836 57.0271 23.2029 57.0271 24.0586V28.4102H55.2057V24.5108C55.2057 24.03 55.1202 23.6715 54.949 23.4352C54.7779 23.1907 54.5049 23.0684 54.1301 23.0684C53.5759 23.0684 53.197 23.26 52.9933 23.643C52.7895 24.0178 52.6877 24.5597 52.6877 25.2687V28.4102H50.8664V21.7361H52.2599L52.5043 22.5917H52.6021C52.814 22.2495 53.1033 22.0009 53.47 21.8461C53.8449 21.6913 54.2401 21.6138 54.6557 21.6138ZM61.7115 27.0778C61.9152 27.0778 62.1108 27.0574 62.2982 27.0167C62.4856 26.9759 62.6731 26.927 62.8605 26.87V28.2268C62.6649 28.3083 62.4204 28.3776 62.1271 28.4346C61.8418 28.4998 61.5281 28.5324 61.1858 28.5324C60.7865 28.5324 60.428 28.4672 60.1102 28.3368C59.8005 28.2064 59.552 27.9823 59.3645 27.6645C59.1853 27.3386 59.0956 26.8904 59.0956 26.3199V23.1051H58.2277V22.335L59.2301 21.7239L59.7557 20.3181H60.9169V21.7361H62.7871V23.1051H60.9169V26.3199C60.9169 26.5725 60.9903 26.764 61.137 26.8944C61.2836 27.0167 61.4751 27.0778 61.7115 27.0778ZM66.9504 21.6138C67.8713 21.6138 68.6006 21.8787 69.1384 22.4084C69.6763 22.9299 69.9452 23.6756 69.9452 24.6453V25.5254H65.6425C65.6588 26.0388 65.8095 26.4422 66.0948 26.7355C66.3881 27.0289 66.7915 27.1756 67.3049 27.1756C67.7368 27.1756 68.128 27.1348 68.4784 27.0533C68.8288 26.9637 69.1914 26.8292 69.5663 26.65V28.0557C69.2403 28.2187 68.894 28.3368 68.5273 28.4102C68.1687 28.4916 67.7327 28.5324 67.2193 28.5324C66.5511 28.5324 65.9603 28.4102 65.4469 28.1657C64.9335 27.9131 64.5301 27.5341 64.2368 27.0289C63.9434 26.5236 63.7967 25.888 63.7967 25.122C63.7967 24.3397 63.9271 23.6919 64.1879 23.1785C64.4568 22.6569 64.8276 22.2658 65.3002 22.005C65.7729 21.7442 66.3229 21.6138 66.9504 21.6138ZM66.9626 22.9095C66.6122 22.9095 66.3189 23.0236 66.0825 23.2518C65.8544 23.48 65.7199 23.8345 65.6792 24.3153H68.2339C68.2257 23.9078 68.1198 23.5737 67.9161 23.3129C67.7124 23.044 67.3945 22.9095 66.9626 22.9095ZM75.1502 21.6138C75.2399 21.6138 75.3458 21.6179 75.4681 21.6261C75.5903 21.6342 75.6881 21.6464 75.7614 21.6627L75.627 23.374C75.5699 23.3577 75.4844 23.3455 75.3703 23.3374C75.2643 23.3211 75.1706 23.3129 75.0891 23.3129C74.7795 23.3129 74.482 23.37 74.1968 23.484C73.9116 23.59 73.6793 23.7652 73.5001 24.0097C73.3289 24.2541 73.2434 24.5882 73.2434 25.012V28.4102H71.4221V21.7361H72.8033L73.0722 22.8606H73.1578C73.3534 22.5184 73.6223 22.225 73.9646 21.9805C74.3068 21.7361 74.7021 21.6138 75.1502 21.6138ZM80.6888 21.6138C81.4385 21.6138 82.0456 21.9072 82.5101 22.4939C82.9746 23.0725 83.2068 23.9282 83.2068 25.0609C83.2068 26.1936 82.9664 27.0574 82.4856 27.6523C82.0048 28.239 81.3896 28.5324 80.6399 28.5324C80.1591 28.5324 79.7761 28.4468 79.4909 28.2757C79.2056 28.0964 78.9734 27.8968 78.7941 27.6767H78.6963C78.7615 28.019 78.7941 28.345 78.7941 28.6546V31.3438H76.9728V21.7361H78.4519L78.7086 22.604H78.7941C78.9734 22.335 79.2138 22.1028 79.5153 21.9072C79.8168 21.7116 80.208 21.6138 80.6888 21.6138ZM80.102 23.0684C79.6294 23.0684 79.2953 23.2151 79.0997 23.5085C78.9123 23.8019 78.8104 24.2501 78.7941 24.8531V25.0487C78.7941 25.6924 78.8878 26.1895 79.0753 26.5399C79.2708 26.8822 79.6212 27.0533 80.1265 27.0533C80.5421 27.0533 80.8477 26.8822 81.0433 26.5399C81.247 26.1895 81.3488 25.6884 81.3488 25.0364C81.3488 23.7244 80.9332 23.0684 80.102 23.0684ZM88.4362 21.6138C88.5259 21.6138 88.6318 21.6179 88.7541 21.6261C88.8763 21.6342 88.9741 21.6464 89.0474 21.6627L88.913 23.374C88.8559 23.3577 88.7704 23.3455 88.6563 23.3374C88.5503 23.3211 88.4566 23.3129 88.3751 23.3129C88.0655 23.3129 87.768 23.37 87.4828 23.484C87.1976 23.59 86.9653 23.7652 86.7861 24.0097C86.6149 24.2541 86.5294 24.5882 86.5294 25.012V28.4102H84.708V21.7361H86.0893L86.3582 22.8606H86.4438C86.6394 22.5184 86.9083 22.225 87.2506 21.9805C87.5928 21.7361 87.988 21.6138 88.4362 21.6138ZM91.1756 19.1202C91.4445 19.1202 91.6767 19.1854 91.8723 19.3158C92.0679 19.438 92.1657 19.6703 92.1657 20.0125C92.1657 20.3467 92.0679 20.5789 91.8723 20.7093C91.6767 20.8397 91.4445 20.9049 91.1756 20.9049C90.8985 20.9049 90.6622 20.8397 90.4666 20.7093C90.2792 20.5789 90.1855 20.3467 90.1855 20.0125C90.1855 19.6703 90.2792 19.438 90.4666 19.3158C90.6622 19.1854 90.8985 19.1202 91.1756 19.1202ZM92.0801 21.7361V28.4102H90.2588V21.7361H92.0801ZM98.6404 26.4299C98.6404 27.1063 98.4 27.6278 97.9192 27.9946C97.4465 28.3531 96.7376 28.5324 95.7923 28.5324C95.3278 28.5324 94.9285 28.4998 94.5944 28.4346C94.2602 28.3776 93.9261 28.2798 93.592 28.1412V26.6377C93.9506 26.8007 94.3377 26.9352 94.7533 27.0411C95.1689 27.1471 95.5356 27.2 95.8534 27.2C96.2119 27.2 96.4646 27.1471 96.6112 27.0411C96.7661 26.9352 96.8435 26.7966 96.8435 26.6255C96.8435 26.5114 96.8109 26.4096 96.7457 26.3199C96.6887 26.2303 96.5583 26.1284 96.3545 26.0143C96.1508 25.9002 95.833 25.7536 95.4011 25.5743C94.9855 25.395 94.6432 25.2198 94.3743 25.0487C94.1054 24.8694 93.9058 24.6575 93.7754 24.413C93.645 24.1604 93.5798 23.8467 93.5798 23.4718C93.5798 22.8525 93.8202 22.388 94.301 22.0783C94.7818 21.7687 95.4215 21.6138 96.2201 21.6138C96.6357 21.6138 97.0309 21.6546 97.4058 21.7361C97.7806 21.8176 98.1677 21.952 98.567 22.1395L98.017 23.4474C97.691 23.3088 97.3813 23.1948 97.088 23.1051C96.7946 23.0073 96.4972 22.9584 96.1956 22.9584C95.6578 22.9584 95.3889 23.1051 95.3889 23.3985C95.3889 23.5044 95.4215 23.6022 95.4867 23.6919C95.56 23.7733 95.6945 23.863 95.8901 23.9608C96.0938 24.0586 96.3912 24.1889 96.7824 24.3519C97.1654 24.5068 97.4954 24.6697 97.7725 24.8409C98.0496 25.0038 98.2614 25.2117 98.4081 25.4643C98.5629 25.7087 98.6404 26.0306 98.6404 26.4299ZM102.809 21.6138C103.73 21.6138 104.46 21.8787 104.997 22.4084C105.535 22.9299 105.804 23.6756 105.804 24.6453V25.5254H101.502C101.518 26.0388 101.669 26.4422 101.954 26.7355C102.247 27.0289 102.651 27.1756 103.164 27.1756C103.596 27.1756 103.987 27.1348 104.337 27.0533C104.688 26.9637 105.05 26.8292 105.425 26.65V28.0557C105.099 28.2187 104.753 28.3368 104.386 28.4102C104.028 28.4916 103.592 28.5324 103.078 28.5324C102.41 28.5324 101.819 28.4102 101.306 28.1657C100.793 27.9131 100.389 27.5341 100.096 27.0289C99.8025 26.5236 99.6558 25.888 99.6558 25.122C99.6558 24.3397 99.7862 23.6919 100.047 23.1785C100.316 22.6569 100.687 22.2658 101.159 22.005C101.632 21.7442 102.182 21.6138 102.809 21.6138ZM102.822 22.9095C102.471 22.9095 102.178 23.0236 101.942 23.2518C101.713 23.48 101.579 23.8345 101.538 24.3153H104.093C104.085 23.9078 103.979 23.5737 103.775 23.3129C103.571 23.044 103.254 22.9095 102.822 22.9095Z" fill="black"/>
<path d="M48.6873 34.6763C48.777 34.6763 48.8829 34.6804 49.0052 34.6886C49.1274 34.6967 49.2252 34.7089 49.2985 34.7252L49.1641 36.4365C49.107 36.4202 49.0215 36.408 48.9074 36.3999C48.8014 36.3836 48.7077 36.3754 48.6262 36.3754C48.3166 36.3754 48.0191 36.4325 47.7339 36.5465C47.4487 36.6525 47.2164 36.8277 47.0372 37.0722C46.866 37.3166 46.7805 37.6507 46.7805 38.0745V41.4727H44.9592V34.7986H46.3404L46.6093 35.9231H46.6949C46.8905 35.5809 47.1594 35.2875 47.5017 35.043C47.8439 34.7986 48.2392 34.6763 48.6873 34.6763ZM53.0215 34.6763C53.9423 34.6763 54.6717 34.9412 55.2095 35.4709C55.7473 35.9924 56.0163 36.7381 56.0163 37.7078V38.5879H51.7135C51.7298 39.1013 51.8806 39.5047 52.1658 39.798C52.4592 40.0914 52.8626 40.2381 53.376 40.2381C53.8079 40.2381 54.199 40.1973 54.5494 40.1158C54.8998 40.0262 55.2625 39.8917 55.6373 39.7125V41.1182C55.3114 41.2812 54.965 41.3993 54.5983 41.4727C54.2398 41.5541 53.8038 41.5949 53.2904 41.5949C52.6222 41.5949 52.0314 41.4727 51.518 41.2282C51.0046 40.9756 50.6012 40.5966 50.3078 40.0914C50.0145 39.5861 49.8678 38.9505 49.8678 38.1845C49.8678 37.4022 49.9982 36.7544 50.2589 36.241C50.5279 35.7194 50.8986 35.3283 51.3713 35.0675C51.8439 34.8067 52.394 34.6763 53.0215 34.6763ZM53.0337 35.972C52.6833 35.972 52.3899 36.0861 52.1536 36.3143C51.9254 36.5425 51.791 36.897 51.7502 37.3778H54.3049C54.2968 36.9703 54.1909 36.6362 53.9871 36.3754C53.7834 36.1065 53.4656 35.972 53.0337 35.972ZM60.2067 41.5949C59.2126 41.5949 58.4425 41.3219 57.8965 40.7759C57.3586 40.2218 57.0897 39.3539 57.0897 38.1723C57.0897 37.3574 57.2283 36.6932 57.5053 36.1798C57.7824 35.6665 58.1654 35.2875 58.6544 35.043C59.1514 34.7986 59.7219 34.6763 60.3657 34.6763C60.822 34.6763 61.2172 34.7212 61.5513 34.8108C61.8936 34.9004 62.191 35.0064 62.4437 35.1286L61.9058 36.5343C61.6206 36.4202 61.3517 36.3265 61.0991 36.2532C60.8546 36.1798 60.6101 36.1432 60.3657 36.1432C59.4204 36.1432 58.9477 36.8155 58.9477 38.1601C58.9477 38.8283 59.07 39.3213 59.3144 39.6391C59.567 39.9569 59.9175 40.1158 60.3657 40.1158C60.7487 40.1158 61.0868 40.0669 61.3802 39.9692C61.6736 39.8632 61.9588 39.7206 62.2359 39.5413V41.0937C61.9588 41.273 61.6654 41.3993 61.3558 41.4727C61.0542 41.5541 60.6712 41.5949 60.2067 41.5949ZM69.8349 38.1234C69.8349 39.2317 69.5416 40.0873 68.9548 40.6903C68.3762 41.2934 67.5858 41.5949 66.5835 41.5949C65.9641 41.5949 65.41 41.4604 64.921 41.1915C64.4402 40.9226 64.0613 40.5314 63.7842 40.018C63.5072 39.4965 63.3686 38.865 63.3686 38.1234C63.3686 37.0151 63.6579 36.1635 64.2365 35.5687C64.8151 34.9738 65.6096 34.6763 66.6201 34.6763C67.2476 34.6763 67.8017 34.8108 68.2825 35.0797C68.7633 35.3486 69.1423 35.7398 69.4193 36.2532C69.6964 36.7584 69.8349 37.3818 69.8349 38.1234ZM65.2266 38.1234C65.2266 38.7835 65.3326 39.2846 65.5444 39.6269C65.7645 39.961 66.119 40.1281 66.6079 40.1281C67.0887 40.1281 67.435 39.961 67.6469 39.6269C67.8669 39.2846 67.9769 38.7835 67.9769 38.1234C67.9769 37.4633 67.8669 36.9703 67.6469 36.6443C67.435 36.3102 67.0846 36.1432 66.5957 36.1432C66.1149 36.1432 65.7645 36.3102 65.5444 36.6443C65.3326 36.9703 65.2266 37.4633 65.2266 38.1234ZM79.1755 34.6763C79.9333 34.6763 80.5038 34.8719 80.8868 35.2631C81.2779 35.6461 81.4735 36.2654 81.4735 37.1211V41.4727H79.6522V37.5733C79.6522 36.6117 79.3181 36.1309 78.6499 36.1309C78.1691 36.1309 77.8268 36.3021 77.6231 36.6443C77.4193 36.9866 77.3175 37.4796 77.3175 38.1234V41.4727H75.4962V37.5733C75.4962 36.6117 75.1621 36.1309 74.4938 36.1309C73.9886 36.1309 73.6382 36.3225 73.4426 36.7055C73.2552 37.0803 73.1615 37.6222 73.1615 38.3312V41.4727H71.3401V34.7986H72.7336L72.9781 35.6542H73.0759C73.2796 35.312 73.5567 35.0634 73.9071 34.9086C74.2657 34.7538 74.6364 34.6763 75.0194 34.6763C75.5084 34.6763 75.924 34.7578 76.2663 34.9208C76.6085 35.0756 76.8693 35.3201 77.0486 35.6542H77.2075C77.4112 35.312 77.6923 35.0634 78.0509 34.9086C78.4176 34.7538 78.7925 34.6763 79.1755 34.6763ZM91.1842 34.6763C91.9421 34.6763 92.5125 34.8719 92.8955 35.2631C93.2866 35.6461 93.4822 36.2654 93.4822 37.1211V41.4727H91.6609V37.5733C91.6609 36.6117 91.3268 36.1309 90.6586 36.1309C90.1778 36.1309 89.8355 36.3021 89.6318 36.6443C89.4281 36.9866 89.3262 37.4796 89.3262 38.1234V41.4727H87.5049V37.5733C87.5049 36.6117 87.1708 36.1309 86.5026 36.1309C85.9973 36.1309 85.6469 36.3225 85.4513 36.7055C85.2639 37.0803 85.1702 37.6222 85.1702 38.3312V41.4727H83.3489V34.7986H84.7424L84.9868 35.6542H85.0846C85.2883 35.312 85.5654 35.0634 85.9158 34.9086C86.2744 34.7538 86.6452 34.6763 87.0282 34.6763C87.5171 34.6763 87.9327 34.7578 88.275 34.9208C88.6172 35.0756 88.878 35.3201 89.0573 35.6542H89.2162C89.4199 35.312 89.7011 35.0634 90.0596 34.9086C90.4263 34.7538 90.8012 34.6763 91.1842 34.6763ZM98.1079 34.6763C99.0287 34.6763 99.7581 34.9412 100.296 35.4709C100.834 35.9924 101.103 36.7381 101.103 37.7078V38.5879H96.8C96.8163 39.1013 96.967 39.5047 97.2522 39.798C97.5456 40.0914 97.949 40.2381 98.4624 40.2381C98.8943 40.2381 99.2854 40.1973 99.6358 40.1158C99.9863 40.0262 100.349 39.8917 100.724 39.7125V41.1182C100.398 41.2812 100.051 41.3993 99.6847 41.4727C99.3262 41.5541 98.8902 41.5949 98.3768 41.5949C97.7086 41.5949 97.1178 41.4727 96.6044 41.2282C96.091 40.9756 95.6876 40.5966 95.3943 40.0914C95.1009 39.5861 94.9542 38.9505 94.9542 38.1845C94.9542 37.4022 95.0846 36.7544 95.3454 36.241C95.6143 35.7194 95.9851 35.3283 96.4577 35.0675C96.9304 34.8067 97.4804 34.6763 98.1079 34.6763ZM98.1201 35.972C97.7697 35.972 97.4763 36.0861 97.24 36.3143C97.0118 36.5425 96.8774 36.897 96.8366 37.3778H99.3914C99.3832 36.9703 99.2773 36.6362 99.0736 36.3754C98.8698 36.1065 98.552 35.972 98.1201 35.972ZM106.369 34.6763C107.086 34.6763 107.66 34.8719 108.092 35.2631C108.524 35.6461 108.74 36.2654 108.74 37.1211V41.4727H106.919V37.5733C106.919 37.0925 106.833 36.734 106.662 36.4977C106.491 36.2532 106.218 36.1309 105.843 36.1309C105.289 36.1309 104.91 36.3225 104.706 36.7055C104.503 37.0803 104.401 37.6222 104.401 38.3312V41.4727H102.58V34.7986H103.973L104.217 35.6542H104.315C104.527 35.312 104.816 35.0634 105.183 34.9086C105.558 34.7538 105.953 34.6763 106.369 34.6763ZM112.728 41.5949C111.986 41.5949 111.379 41.3056 110.907 40.727C110.442 40.1403 110.21 39.2806 110.21 38.1478C110.21 37.007 110.446 36.1432 110.919 35.5564C111.391 34.9697 112.011 34.6763 112.777 34.6763C113.258 34.6763 113.653 34.7701 113.962 34.9575C114.272 35.1449 114.517 35.3772 114.696 35.6542H114.757C114.733 35.5238 114.704 35.3364 114.671 35.0919C114.639 34.8393 114.623 34.5826 114.623 34.3219V32.1827H116.444V41.4727H115.05L114.696 40.6048H114.623C114.443 40.8818 114.203 41.1182 113.901 41.3137C113.6 41.5012 113.209 41.5949 112.728 41.5949ZM113.364 40.1403C113.869 40.1403 114.223 39.9936 114.427 39.7002C114.631 39.3987 114.737 38.9505 114.745 38.3556V38.1601C114.745 37.5081 114.643 37.011 114.439 36.6688C114.244 36.3265 113.877 36.1554 113.339 36.1554C112.94 36.1554 112.626 36.3306 112.398 36.681C112.17 37.0233 112.056 37.5204 112.056 38.1723C112.056 38.8242 112.17 39.3172 112.398 39.6513C112.626 39.9773 112.948 40.1403 113.364 40.1403ZM121.099 34.6763C122.02 34.6763 122.749 34.9412 123.287 35.4709C123.825 35.9924 124.094 36.7381 124.094 37.7078V38.5879H119.791C119.807 39.1013 119.958 39.5047 120.243 39.798C120.536 40.0914 120.94 40.2381 121.453 40.2381C121.885 40.2381 122.276 40.1973 122.627 40.1158C122.977 40.0262 123.34 39.8917 123.715 39.7125V41.1182C123.389 41.2812 123.042 41.3993 122.676 41.4727C122.317 41.5541 121.881 41.5949 121.368 41.5949C120.699 41.5949 120.109 41.4727 119.595 41.2282C119.082 40.9756 118.678 40.5966 118.385 40.0914C118.092 39.5861 117.945 38.9505 117.945 38.1845C117.945 37.4022 118.075 36.7544 118.336 36.241C118.605 35.7194 118.976 35.3283 119.449 35.0675C119.921 34.8067 120.471 34.6763 121.099 34.6763ZM121.111 35.972C120.761 35.972 120.467 36.0861 120.231 36.3143C120.003 36.5425 119.868 36.897 119.827 37.3778H122.382C122.374 36.9703 122.268 36.6362 122.064 36.3754C121.861 36.1065 121.543 35.972 121.111 35.972ZM127.685 41.5949C126.944 41.5949 126.336 41.3056 125.864 40.727C125.399 40.1403 125.167 39.2806 125.167 38.1478C125.167 37.007 125.403 36.1432 125.876 35.5564C126.349 34.9697 126.968 34.6763 127.734 34.6763C128.215 34.6763 128.61 34.7701 128.92 34.9575C129.229 35.1449 129.474 35.3772 129.653 35.6542H129.714C129.69 35.5238 129.661 35.3364 129.629 35.0919C129.596 34.8393 129.58 34.5826 129.58 34.3219V32.1827H131.401V41.4727H130.008L129.653 40.6048H129.58C129.4 40.8818 129.16 41.1182 128.859 41.3137C128.557 41.5012 128.166 41.5949 127.685 41.5949ZM128.321 40.1403C128.826 40.1403 129.18 39.9936 129.384 39.7002C129.588 39.3987 129.694 38.9505 129.702 38.3556V38.1601C129.702 37.5081 129.6 37.011 129.396 36.6688C129.201 36.3265 128.834 36.1554 128.296 36.1554C127.897 36.1554 127.583 36.3306 127.355 36.681C127.127 37.0233 127.013 37.5204 127.013 38.1723C127.013 38.8242 127.127 39.3172 127.355 39.6513C127.583 39.9773 127.905 40.1403 128.321 40.1403Z" fill="black"/>
</svg>
