<svg width="27" height="26" viewBox="0 0 27 26" fill="none" xmlns="http://www.w3.org/2000/svg">
<path d="M26.2113 0H24.4031C20.4661 0.00579982 16.6982 1.55045 13.9162 4.2999L7.3251 10.8134C7.2445 10.893 7.2445 11.022 7.3251 11.1016L15.1993 18.8831C15.2799 18.9627 15.4104 18.9627 15.491 18.8831L22.0761 12.3755C24.8583 9.62606 26.4273 5.8853 26.4214 1.99483V0.207772C26.4214 0.0933247 26.3275 0.000336522 26.2115 0.000336522L26.2113 0ZM18.8099 10.9454C17.8417 11.9021 16.2784 11.9021 15.3103 10.9454C14.3421 9.98862 14.3421 8.44396 15.3103 7.48701C16.2784 6.53025 17.8417 6.53025 18.8099 7.48701C19.778 8.44396 19.778 9.98862 18.8099 10.9454Z" fill="#016BE3"/>
<path d="M6.83165 12.8245C6.73677 12.7307 6.57772 12.75 6.50886 12.8639L4.9804 15.3883C4.93188 15.4686 4.94479 15.571 5.0115 15.6369L10.6105 21.17C10.6774 21.2361 10.7811 21.2487 10.8623 21.2007L13.4168 19.6903C13.532 19.6222 13.5516 19.4651 13.4567 19.3713L6.83165 12.8245Z" fill="#016BE3" fill-opacity="0.58"/>
<path d="M23.3965 13.4003L18.3078 18.4394C18.2667 18.4802 18.2429 18.5344 18.2417 18.59L18.1006 23.9142C18.0965 24.0981 18.3188 24.182 18.4545 24.0476L23.4766 19.0847C23.5167 19.0451 23.5404 18.9927 23.5428 18.9384L23.7507 13.5374C23.7589 13.3513 23.5341 13.2637 23.3968 13.3998L23.3965 13.4003Z" fill="#016BE3" fill-opacity="0.58"/>
<path d="M7.18251 2.90543L2.12335 7.90498C1.98641 8.04031 2.07386 8.26321 2.26244 8.25992L7.61557 8.14432C7.6725 8.14335 7.72787 8.11977 7.76934 8.07898L12.8961 3.0235C13.0346 2.88682 12.944 2.6616 12.7533 2.66855L7.33255 2.84023C7.27699 2.84235 7.2232 2.86594 7.1827 2.90576L7.18251 2.90543Z" fill="#016BE3" fill-opacity="0.58"/>
<path d="M6.32256 19.7515C6.00036 19.4331 5.47844 19.4331 5.15622 19.7515L0.24165 24.6086C-0.0805499 24.927 -0.0805499 25.4427 0.24165 25.7612C0.563849 26.0796 1.08576 26.0796 1.40798 25.7612L6.32256 20.9041C6.64475 20.5859 6.64475 20.0701 6.32256 19.7515Z" fill="#016BE3"/>
<path d="M7.65492 21.4074L5.24067 23.7936C4.91847 24.112 4.91847 24.6282 5.24067 24.9462C5.56287 25.2646 6.08478 25.2646 6.407 24.9462L8.82125 22.56C9.14345 22.2416 9.14345 21.7255 8.82125 21.4074C8.49905 21.089 7.97714 21.089 7.65492 21.4074Z" fill="#016BE3"/>
<path d="M1.11763 20.8964C1.43983 21.2148 1.96174 21.2148 2.28396 20.8964L4.6982 18.5102C5.0204 18.1918 5.0204 17.6757 4.6982 17.3576C4.376 17.0392 3.85409 17.0392 3.53187 17.3576L1.11763 19.7438C0.795427 20.062 0.795427 20.5784 1.11763 20.8964Z" fill="#016BE3"/>
</svg>
