<svg width="704" height="69" viewBox="0 0 704 69" fill="none" xmlns="http://www.w3.org/2000/svg">
<g opacity="0.7" clip-path="url(#clip0_1_248)">
<path fill-rule="evenodd" clip-rule="evenodd" d="M3.6607 23.4124L3.66016 23.3792V20.725H6.29951V40.1925L6.30061 40.2532V42.8799H3.66016V40.2256L3.6607 40.1925V23.4124Z" fill="white"/>
<path fill-rule="evenodd" clip-rule="evenodd" d="M30.4981 34.8117C30.5658 38.8383 33.0484 42.0584 36.0433 42.0044C39.0377 41.9505 41.4099 38.6427 41.3422 34.6161C41.2738 30.589 38.7913 27.3688 35.7964 27.4234C32.802 27.4773 30.4297 30.7851 30.4981 34.8117ZM52.3515 29.9433C52.4204 30.0967 52.2569 29.714 52.2569 29.714L52.3515 29.9433ZM54.1503 46.6132C54.2712 46.4053 54.4398 46.0872 54.6403 45.6899L54.1503 46.6132ZM54.3054 28.5541C54.3373 28.6434 54.3743 28.7367 54.4157 28.835L55.3045 31.0318L54.3054 28.5541ZM43.2462 39.6127C44.8776 41.1075 46.3465 41.8802 48.2248 41.8802C50.1473 41.8949 51.8565 40.9457 51.8565 39.1187C51.8565 37.594 50.5174 36.7022 48.1251 35.6811C46.0978 34.7954 44.5891 34.1744 43.8006 32.8925C43.897 33.4494 43.9474 34.0249 43.9474 34.6139C43.9474 39.5587 40.3946 43.5679 36.0119 43.5679C31.6293 43.5679 28.0765 39.5587 28.0765 34.6139C28.0765 31.6326 29.3679 28.9918 31.3532 27.3643H25.9832V40.1926L25.9838 40.2438V42.88H23.5987V40.3297C23.6004 40.2848 23.6009 40.2393 23.6009 40.1926V27.3643H21.498V25.7498H23.6317C23.9072 22.4926 25.9059 20.6504 28.673 20.6504C30.4672 20.6504 31.4523 20.8392 32.0213 21.105V23.313C32.0123 23.4777 32.0123 23.5783 32.0123 23.5783C31.9877 23.5755 31.9289 23.5744 31.9289 23.5744C31.0654 22.7702 30.2136 22.1717 28.2238 22.1739C26.639 22.1739 25.5907 23.4738 25.9569 25.7498H34.8835C35.2526 25.6908 35.6289 25.6599 36.0119 25.6599C39.1911 25.6599 41.9341 27.7695 43.2003 30.8166C43.1886 30.6474 43.183 30.471 43.183 30.2866C43.183 27.1075 46.2311 25.7554 49.3974 25.7621C49.5184 25.7616 49.6371 25.7621 49.7536 25.765C50.868 25.747 52.4557 26.1139 53.4251 26.3713L55.3045 31.0318L57.9903 37.6452L58.3056 38.7073L58.6567 37.6452L62.0532 29.1565C62.6799 26.8192 65.1602 25.8077 67.8998 25.8133C69.2617 25.8071 70.2675 25.9729 71.4738 26.4011V28.9682C69.9886 27.8786 68.9251 27.2452 67.24 27.2452C65.7588 27.2452 63.9785 27.9072 63.9785 30.1079C63.95 31.7618 64.9328 32.0642 67.8169 33.509C70.1874 34.5481 72.3743 35.6951 72.3872 38.3516C72.3872 42.7805 68.0649 43.5476 65.961 43.5544C64.0827 43.5544 62.3612 43.0862 61.4036 42.2821V39.3581L61.5576 39.4868C63.2662 41.0974 64.776 41.9319 66.7271 41.9319C68.6502 41.9466 70.3588 40.9968 70.3588 39.1698C70.3588 37.6452 69.0198 36.7533 66.6274 35.7322C64.3408 34.733 62.8406 34.071 62.2274 32.416C61.2949 34.7116 56.9576 45.3752 55.9367 47.6546H53.5981L54.6565 45.6595C55.2429 44.494 56.0958 42.6653 56.8535 40.9159L52.3515 29.9433C52.3213 29.8764 52.2474 29.7078 52.0967 29.3622C51.7512 28.5675 51.4297 27.8336 50.4575 27.4638C49.9367 27.2868 49.3823 27.1941 48.7377 27.1941C47.2565 27.1941 45.362 27.8561 45.362 30.0568C45.3334 31.7107 46.4299 32.013 49.3145 33.4573C51.6851 34.497 53.872 35.644 53.8848 38.3004C53.8848 42.7294 49.5621 43.4959 47.4581 43.5032C45.7881 43.5032 44.2414 43.1329 43.2462 42.4855V39.6127Z" fill="white"/>
<path fill-rule="evenodd" clip-rule="evenodd" d="M11.2241 25.9149L11.2533 27.8526L11.2516 27.9829L11.2773 27.9824C11.3081 27.9015 11.3496 27.8329 11.3888 27.7818C12.3582 26.7325 13.5801 25.6901 16.4844 25.6901C19.2643 25.6901 21.0636 28.0745 21.1358 29.5756L21.1386 40.1925V40.2453V42.8799H18.7563V39.7142L18.7558 30.6759C18.7558 28.8046 17.1289 27.4513 15.1375 27.4513C13.4821 27.4513 11.3574 28.9552 11.2869 30.4776V40.1953L11.288 40.2667V42.8821H8.90454V28.1459L8.90512 25.9149H11.2241Z" fill="white"/>
<path fill-rule="evenodd" clip-rule="evenodd" d="M454.241 50.0372H401.387V18.2676H454.241V50.0372ZM420.343 44.3022C419.783 44.3022 419.469 43.8396 419.469 43.3433C419.469 42.4693 420.327 42.0012 422.136 41.7764V43.5252C421.544 44.049 420.95 44.3022 420.343 44.3022ZM419.752 45.6324C420.623 45.6324 421.434 45.3911 422.184 44.8964L422.354 45.5465H424.07C424.067 45.5327 424.068 40.1912 424.068 40.1912C424.068 38.8345 422.993 38.0008 421.076 38.0008C419.673 38.0008 418.628 38.4816 417.941 39.4434L419.251 40.1912C419.687 39.6409 420.296 39.3419 421.046 39.3419C421.794 39.3419 422.197 39.6545 422.197 40.1912V40.6025C419.08 40.9572 417.567 41.833 417.567 43.485C417.567 44.7155 418.379 45.6324 419.752 45.6324ZM427.202 38.1315L425.6 38.3537V45.5355H427.518V40.2387C428.174 39.6848 428.749 39.4168 429.326 39.4168C430.028 39.4168 430.261 39.8255 430.261 40.7324V45.5355H432.197V40.3913C432.197 38.7952 431.415 37.9898 429.903 37.9898C428.998 37.9898 428.283 38.3427 427.378 39.0082L427.202 38.1315ZM444.982 39.3026C445.901 39.3026 446.464 39.8831 446.464 40.8751H443.485C443.562 39.8712 444.108 39.3026 444.982 39.3026ZM441.55 41.8476C441.55 44.2794 442.845 45.6781 445.013 45.6781C446.525 45.6781 447.646 45.1259 448.271 44.0801L446.853 43.2885C446.399 43.9393 445.918 44.2365 445.187 44.2365C444.047 44.2365 443.47 43.5307 443.455 42.1302H448.349C448.349 42.0661 448.353 42.0025 448.358 41.9389C448.362 41.8756 448.366 41.8123 448.366 41.7489C448.366 39.3474 447.102 37.9898 444.982 37.9898C442.862 37.9898 441.55 39.3886 441.55 41.8476ZM406.247 41.8596C406.247 40.9134 406.513 39.6061 407.958 39.6061C409.403 39.6061 409.671 40.9134 409.671 41.8596C409.671 42.8085 409.403 44.1149 407.958 44.1149C406.513 44.1149 406.247 42.8085 406.247 41.8596ZM404.319 41.8596C404.319 44.5336 406.045 45.7585 407.958 45.7585C409.871 45.7585 411.597 44.5336 411.597 41.8596C411.597 39.1856 409.871 37.9606 407.958 37.9606C406.045 37.9606 404.319 39.1856 404.319 41.8596ZM414.761 38.1563H412.921V45.5409H414.887V40.6281C415.183 39.97 416.104 39.8419 416.946 39.8419H417.039V38.0173C416.961 38.0044 416.868 38.0044 416.79 38.0044C415.98 38.0044 415.114 38.5566 414.761 39.0247V38.1563ZM440.386 45.1223V38.1288H438.751L438.599 38.9754C438.448 38.6124 437.888 37.9918 436.477 37.9944C434.914 37.9953 433.523 39.3775 433.523 41.8495C433.523 44.3462 434.873 45.5382 436.585 45.5382C437.709 45.5382 438.177 45.0162 438.485 44.464L438.513 44.4934V45.3517C438.513 46.5064 438.03 46.9872 437.027 46.9872C435.944 46.9872 435.722 46.6261 435.644 46.2631L433.734 46.5703C434.003 47.8402 435.339 48.4188 436.785 48.4114C440.291 48.3886 440.386 46.3591 440.386 45.1223ZM438.525 41.4638C438.525 42.4456 438.404 43.9439 436.934 43.9558C435.516 43.9667 435.449 42.4575 435.449 41.5451C435.449 39.8795 436.224 39.3711 436.922 39.3711C437.963 39.3711 438.525 40.31 438.525 41.4638ZM451.892 37.796H452.294V35.3551H451.679L450.965 37.209L450.239 35.3551H449.619V37.796H450.022V35.7575H450.033L450.831 37.796H451.084L451.88 35.7575H451.892V37.796ZM448.364 35.6788H449.124V35.3551H447.203V35.6788H447.964V37.796H448.364V35.6788Z" fill="white"/>
<path d="M460.854 34.9541H463.874C464.914 34.9541 465.516 34.3965 465.516 33.4169C465.516 32.4654 464.914 31.9205 463.874 31.9205H460.854V34.9541ZM460.854 30.6961H463.642C464.462 30.6961 465.078 30.218 465.078 29.3496C465.078 28.3691 464.572 28.0149 463.642 28.0149H460.854V30.6961ZM459.145 26.6278H463.888C465.638 26.6278 466.786 27.4176 466.786 29.036C466.786 30.0165 466.28 30.7222 465.393 31.1045V31.1307C466.582 31.3901 467.225 32.3154 467.225 33.6347C467.225 35.1592 466.157 36.3411 463.629 36.3411H459.145M474.731 36.3411H473.199V35.3616H473.172C472.789 36.0701 471.941 36.5336 471.161 36.5336C469.315 36.5336 468.523 35.6074 468.523 33.7712V29.3071H470.081V33.6211C470.081 34.8582 470.588 35.3074 471.436 35.3074C472.735 35.3074 473.172 34.4797 473.172 33.3889V29.3071H474.731M477.492 34.0838C477.574 34.982 478.259 35.3074 479.091 35.3074C479.681 35.3074 480.706 35.1863 480.664 34.3847C480.623 33.5669 479.488 33.4721 478.353 33.2127C477.204 32.9696 476.083 32.5602 476.083 31.1307C476.083 29.5927 477.753 29.1173 479.037 29.1173C480.486 29.1173 481.798 29.7156 481.99 31.2789H480.364C480.226 30.547 479.612 30.3409 478.927 30.3409C478.477 30.3409 477.641 30.4511 477.641 31.062C477.641 31.8256 478.791 31.935 479.939 32.1916C481.073 32.451 482.222 32.8594 482.222 34.2465C482.222 35.9219 480.528 36.5336 479.063 36.5336C477.288 36.5336 475.961 35.7438 475.933 34.0838M483.55 29.3071H485.107V36.3411H483.55V29.3071ZM483.55 26.6278H485.107V28.0972H483.55M486.9 29.3071H488.375V30.3409L488.402 30.369C488.866 29.5927 489.674 29.1173 490.604 29.1173C492.135 29.1173 493.105 29.9325 493.105 31.512V36.3411H491.547V31.9205C491.519 30.819 491.082 30.3409 490.165 30.3409C489.128 30.3409 488.456 31.1588 488.456 32.1916V36.3411H486.9M499.574 32.206C499.519 31.2256 498.849 30.3409 497.796 30.3409C496.715 30.3409 495.978 31.1588 495.936 32.206H499.574ZM495.936 33.2254C495.936 34.3287 496.537 35.3074 497.836 35.3074C498.739 35.3074 499.285 34.9134 499.559 34.138H501.036C500.692 35.6751 499.381 36.5336 497.836 36.5336C495.622 36.5336 494.376 34.9956 494.376 32.8314C494.376 30.8316 495.689 29.1173 497.796 29.1173C500.024 29.1173 501.391 31.118 501.132 33.2254M503.593 34.0838C503.674 34.982 504.357 35.3074 505.192 35.3074C505.779 35.3074 506.807 35.1863 506.766 34.3847C506.723 33.5669 505.588 33.4721 504.453 33.2127C503.306 32.9696 502.183 32.5602 502.183 31.1307C502.183 29.5927 503.852 29.1173 505.138 29.1173C506.587 29.1173 507.9 29.7156 508.091 31.2789H506.464C506.328 30.547 505.712 30.3409 505.027 30.3409C504.577 30.3409 503.744 30.4511 503.744 31.062C503.744 31.8256 504.891 31.935 506.04 32.1916C507.176 32.451 508.323 32.8594 508.323 34.2465C508.323 35.9219 506.627 36.5336 505.165 36.5336C503.387 36.5336 502.062 35.7438 502.034 34.0838M510.687 34.0838C510.771 34.982 511.454 35.3074 512.287 35.3074C512.876 35.3074 513.902 35.1863 513.86 34.3847C513.818 33.5669 512.683 33.4721 511.549 33.2127C510.401 32.9696 509.28 32.5602 509.28 31.1307C509.28 29.5927 510.948 29.1173 512.233 29.1173C513.682 29.1173 514.995 29.7156 515.186 31.2789H513.559C513.422 30.547 512.807 30.3409 512.124 30.3409C511.672 30.3409 510.839 30.4511 510.839 31.062C510.839 31.8256 511.986 31.935 513.135 32.1916C514.271 32.451 515.418 32.8594 515.418 34.2465C515.418 35.9219 513.722 36.5336 512.261 36.5336C510.483 36.5336 509.156 35.7438 509.13 34.0838M460.527 45.7318C460.527 47.2283 461.634 47.8157 463.002 47.8157C464.506 47.8157 465.067 47.0801 465.067 46.3436C465.067 45.5963 464.657 45.2972 464.259 45.1489C463.577 44.8887 462.689 44.7107 461.346 44.3438C459.678 43.8948 459.187 42.8881 459.187 41.8823C459.187 39.935 460.991 39.025 462.756 39.025C464.793 39.025 466.501 40.0994 466.501 42.1263H464.793C464.712 40.8757 463.864 40.4111 462.689 40.4111C461.894 40.4111 460.896 40.6967 460.896 41.6781C460.896 42.3576 461.361 42.7381 462.059 42.9287C462.209 42.9702 464.369 43.5269 464.875 43.6779C466.16 44.0583 466.775 45.1489 466.775 46.153C466.775 48.3308 464.835 49.2009 462.892 49.2009C460.663 49.2009 458.859 48.1409 458.819 45.7318M472.927 44.8336C472.873 43.8559 472.202 42.9702 471.151 42.9702C470.071 42.9702 469.332 43.7872 469.291 44.8336H472.927ZM469.291 45.8547C469.291 46.9572 469.893 47.9367 471.191 47.9367C472.093 47.9367 472.64 47.541 472.915 46.7656H474.391C474.05 48.3036 472.737 49.1621 471.191 49.1621C468.977 49.1621 467.734 47.624 467.734 45.4607C467.734 43.4592 469.045 41.7458 471.151 41.7458C473.38 41.7458 474.747 43.7456 474.487 45.8547M475.689 41.9365H477.153V43.2956H477.18C477.359 42.5483 478.287 41.7458 479.245 41.7458C479.599 41.7458 479.695 41.772 479.831 41.7865V43.2838C479.614 43.2558 479.381 43.2142 479.162 43.2142C478.096 43.2142 477.247 44.0736 477.247 45.6225V48.9705H475.689M480.036 41.9365H481.734L483.523 47.3385H483.551L485.274 41.9365H486.887L484.36 48.9705H482.607M487.967 41.9365H489.527V48.9705H487.967V41.9365ZM487.967 39.2554H489.527V40.7247H487.967M495.938 44.2896C495.814 43.4329 495.186 42.9702 494.325 42.9702C493.517 42.9702 492.383 43.3923 492.383 45.5276C492.383 46.6979 492.903 47.9367 494.257 47.9367C495.159 47.9367 495.788 47.3385 495.938 46.3319H497.496C497.21 48.1555 496.074 49.1621 494.257 49.1621C492.041 49.1621 490.824 47.5969 490.824 45.5276C490.824 43.4058 491.987 41.7458 494.311 41.7458C495.952 41.7458 497.347 42.5618 497.496 44.2896M503.649 44.8336C503.594 43.8559 502.924 42.9702 501.873 42.9702C500.793 42.9702 500.053 43.7872 500.013 44.8336H503.649ZM500.013 45.8547C500.013 46.9572 500.614 47.9367 501.913 47.9367C502.815 47.9367 503.361 47.541 503.636 46.7656H505.113C504.771 48.3036 503.458 49.1621 501.913 49.1621C499.699 49.1621 498.455 47.624 498.455 45.4607C498.455 43.4592 499.767 41.7458 501.873 41.7458C504.1 41.7458 505.468 43.7456 505.209 45.8547M507.67 46.7123C507.751 47.6096 508.436 47.9367 509.269 47.9367C509.857 47.9367 510.882 47.8157 510.84 47.0114C510.8 46.1945 509.665 46.0987 508.53 45.8403C507.383 45.5963 506.26 45.1878 506.26 43.7601C506.26 42.2221 507.929 41.7458 509.215 41.7458C510.664 41.7458 511.975 42.3441 512.168 43.9092H510.541C510.405 43.1727 509.789 42.9702 509.104 42.9702C508.653 42.9702 507.82 43.0778 507.82 43.6913C507.82 44.4541 508.968 44.5625 510.116 44.8209C511.251 45.0793 512.4 45.4887 512.4 46.8741C512.4 48.5485 510.704 49.1621 509.242 49.1621C507.464 49.1621 506.137 48.3723 506.111 46.7123" fill="white"/>
<g clip-path="url(#clip1_1_248)">
<path d="M615.271 23.7421H615.249L613.493 32.9316H611.08L608.798 21.7195H610.729L612.309 30.3594H612.331L614.02 21.7195H616.521L618.189 30.3594H618.211L619.856 21.7195H621.721L619.417 32.9316H616.96L615.271 23.7421Z" fill="white"/>
<path d="M624.617 24.5116C626.306 24.5116 628.237 25.391 628.237 28.7546C628.237 32.2282 626.306 33.0196 624.617 33.0196C622.928 33.0196 620.975 32.2062 620.975 28.7546C620.997 25.391 622.95 24.5116 624.617 24.5116ZM624.617 31.6346C625.89 31.6346 626.197 30.1616 626.197 28.7766C626.197 27.3916 625.912 25.9406 624.617 25.9406C623.323 25.9406 623.037 27.3916 623.037 28.7766C623.037 30.1616 623.344 31.6346 624.617 31.6346Z" fill="white"/>
<path d="M629.225 26.0066C629.225 25.5449 629.203 25.1052 629.159 24.6436H630.958C630.98 25.1492 631.024 25.6548 631.024 26.1605H631.046C631.287 25.5229 631.902 24.5336 633.152 24.5336C633.262 24.5336 633.372 24.5556 633.481 24.5776V26.4463C633.306 26.4023 633.108 26.3584 632.933 26.3584C632.121 26.3584 631.221 26.864 631.221 28.4029V32.9317H629.247L629.225 26.0066Z" fill="white"/>
<path d="M634.337 20.8843H636.334V32.9099H634.337V20.8843Z" fill="white"/>
<path d="M644.43 20.8843V31.5029C644.43 31.9645 644.451 32.4482 644.495 32.9099H642.63C642.587 32.4922 642.565 32.0525 642.565 31.6348H642.521C642.192 32.3383 641.599 33.0418 640.327 33.0418C638.286 33.0418 637.43 31.0852 637.43 28.7988C637.43 26.0947 638.506 24.5338 640.283 24.5338C641.204 24.4898 642.038 25.0174 642.411 25.8528H642.433V20.8843H644.43ZM640.853 31.5688C642.016 31.5688 642.411 30.2937 642.411 28.7548C642.411 27.1499 641.972 25.9847 640.875 25.9847C639.778 25.9847 639.383 27.062 639.383 28.7108C639.405 30.6235 639.712 31.5688 640.853 31.5688Z" fill="white"/>
<path d="M650.332 21.7195H652.394V26.2703H655.707V21.7195H657.748V32.9316H655.707V27.9631H652.394V32.9097H650.332V21.7195Z" fill="white"/>
<path d="M665.011 32.514C664.243 32.8658 663.387 33.0417 662.553 33.0417C659.898 33.0417 658.736 31.129 658.736 28.9086C658.736 26.4463 660.03 24.5336 662.136 24.5336C663.914 24.5336 665.427 25.5669 665.427 28.9525V29.3483H660.666C660.666 30.7553 661.237 31.6127 662.773 31.6127C663.979 31.6127 664.572 31.2389 664.945 30.9751L665.011 32.514ZM663.497 28.0732C663.497 26.6222 663.014 25.8747 662.114 25.8747C661.061 25.8747 660.644 26.9739 660.644 28.0732H663.497Z" fill="white"/>
<path d="M666.7 25.1272C667.512 24.7314 668.411 24.5116 669.311 24.5116C671.878 24.5116 672.47 25.7647 672.47 27.8313V31.4367C672.47 31.9204 672.514 32.4041 672.58 32.8877H670.781C670.693 32.514 670.649 32.1402 670.671 31.7665H670.649C670.145 32.448 669.53 33.0196 668.345 33.0196C667.073 33.0196 665.888 32.1402 665.888 30.6013C665.888 28.3589 667.709 27.7873 670.232 27.7873H670.627V27.4795C670.627 26.6661 670.232 25.8966 669.091 25.8966C668.28 25.9186 667.49 26.2044 666.831 26.7101L666.7 25.1272ZM670.605 28.8645H670.43C668.74 28.8645 667.731 29.2163 667.731 30.4254C667.687 31.085 668.192 31.6566 668.85 31.7006C668.894 31.7006 668.96 31.7006 669.004 31.7006C670.188 31.7006 670.627 30.8212 670.627 29.3482V28.8645H670.605Z" fill="white"/>
<path d="M674.291 20.8843H676.266V32.9099H674.291V20.8843Z" fill="white"/>
<path d="M678.548 22.9506L680.523 22.3351V24.6435H682.168V26.0944H680.523V30.4034C680.523 31.2828 680.852 31.5466 681.422 31.5466C681.685 31.5466 681.949 31.4807 682.168 31.3707V32.7777C681.751 32.9536 681.29 33.0416 680.83 33.0416C679.36 33.0416 678.526 32.36 678.526 30.6233V26.1164H677.21V24.6654H678.526V22.9506H678.548Z" fill="white"/>
<path d="M682.805 20.8843H684.779V25.7209H684.823C685.174 25.2153 685.635 24.5338 686.864 24.5338C688.728 24.5338 689.299 25.9188 689.299 27.5896V32.9099H687.324V27.9633C687.324 26.6882 686.995 26.1606 686.183 26.1606C685.152 26.1606 684.779 27.04 684.779 28.0953V32.9099H682.805V20.8843Z" fill="white"/>
<path d="M613.34 35.8996C615.666 35.8996 617.794 37.6364 617.794 41.6595C617.794 45.6827 615.666 47.4195 613.34 47.4195C611.015 47.4195 608.886 45.6827 608.886 41.6595C608.886 37.6364 611.015 35.8996 613.34 35.8996ZM613.34 45.8586C614.635 45.8586 615.688 44.7594 615.688 41.6595C615.688 38.5597 614.635 37.4825 613.34 37.4825C612.046 37.4825 610.993 38.5817 610.993 41.6595C610.993 44.7374 612.046 45.8586 613.34 45.8586Z" fill="white"/>
<path d="M618.628 40.3626C618.628 39.9009 618.606 39.4612 618.562 38.9996H620.361C620.383 39.5052 620.427 40.0108 620.427 40.5165H620.449C620.69 39.8789 621.327 38.8896 622.555 38.8896C622.665 38.8896 622.775 38.9116 622.884 38.9336V40.8023C622.709 40.7583 622.511 40.7144 622.314 40.7144C621.502 40.7144 620.603 41.22 620.603 42.7589V47.2877H618.628V40.3626Z" fill="white"/>
<path d="M623.849 48.5629C624.595 49.0025 625.429 49.2444 626.285 49.2664C628.15 49.2664 628.457 47.9693 628.457 46.6722V45.8807H628.435C628.106 46.5183 627.557 47.2877 626.263 47.2877C625.122 47.2877 623.388 46.5183 623.388 43.1766C623.388 40.8902 624.2 38.8896 626.372 38.8896C627.579 38.8896 628.128 39.5712 628.544 40.2966H628.61C628.61 39.857 628.654 39.4392 628.676 39.0215H630.475C630.453 39.4612 630.409 39.8789 630.409 40.3186V46.4084C630.409 49.0025 629.62 50.8273 626.592 50.8273C625.626 50.8273 624.661 50.6514 623.761 50.3216L623.849 48.5629ZM626.723 45.8148C627.974 45.8148 628.479 44.9134 628.479 43.0447C628.479 41.3079 627.82 40.3846 626.877 40.4066C625.824 40.4286 625.429 41.3959 625.429 43.0667C625.429 45.0014 626.043 45.8148 626.723 45.8148Z" fill="white"/>
<path d="M632.165 39.4832C632.977 39.0655 633.876 38.8676 634.776 38.8676C637.343 38.8676 637.935 40.1207 637.935 42.1873V45.7927C637.935 46.2764 637.979 46.7601 638.045 47.2437H636.246C636.158 46.87 636.114 46.4962 636.136 46.1225H636.114C635.609 46.804 634.995 47.3756 633.81 47.3756C632.538 47.3756 631.353 46.4962 631.353 44.9573C631.353 42.7149 633.174 42.1433 635.697 42.1433H636.092V41.8355C636.092 41.0221 635.697 40.2526 634.556 40.2526C633.744 40.2746 632.955 40.5604 632.296 41.0661L632.165 39.4832ZM636.07 43.2205H635.895C634.205 43.2205 633.196 43.5723 633.196 44.7814C633.152 45.441 633.657 46.0126 634.315 46.0566C634.359 46.0566 634.403 46.0566 634.468 46.0566C635.653 46.0566 636.092 45.1772 636.092 43.7042L636.07 43.2205Z" fill="white"/>
<path d="M639.537 40.3626C639.537 39.9009 639.515 39.4612 639.471 38.9996H641.336C641.358 39.4173 641.402 39.857 641.402 40.2747H641.424C641.709 39.769 642.28 38.8896 643.618 38.8896C645.483 38.8896 646.053 40.2747 646.053 41.9455V47.2658H644.057V42.2972C644.057 41.0221 643.728 40.4945 642.916 40.4945C641.885 40.4945 641.512 41.3739 641.512 42.4292V47.2438H639.537V40.3626Z" fill="white"/>
<path d="M647.567 35.482H649.63V37.4386H647.567V35.482ZM647.611 38.9995H649.586V47.2657H647.611V38.9995Z" fill="white"/>
<path d="M651.144 45.5509L654.677 40.5164H651.254V38.9994H656.651V40.6923L653.185 45.7487H656.761V47.2656H651.122V45.5509H651.144Z" fill="white"/>
<path d="M658.274 39.4832C659.086 39.0655 659.986 38.8676 660.885 38.8676C663.452 38.8676 664.045 40.1207 664.045 42.1873V45.7927C664.045 46.2764 664.089 46.7601 664.155 47.2437H662.355C662.268 46.87 662.224 46.4962 662.246 46.1225H662.224C661.719 46.804 661.105 47.3756 659.92 47.3756C658.647 47.3756 657.463 46.4962 657.463 44.9573C657.463 42.7149 659.284 42.1433 661.807 42.1433H662.202V41.8355C662.202 41.0221 661.807 40.2526 660.666 40.2526C659.854 40.2746 659.064 40.5604 658.406 41.0661L658.274 39.4832ZM662.18 43.2205H662.004C660.315 43.2205 659.306 43.5723 659.306 44.7814C659.262 45.441 659.766 46.0126 660.425 46.0566C660.469 46.0566 660.512 46.0566 660.578 46.0566C661.763 46.0566 662.202 45.1772 662.202 43.7042V43.2205H662.18Z" fill="white"/>
<path d="M666.195 37.3066L668.169 36.6911V38.9995H669.815V40.4504H668.169V44.7374C668.169 45.6168 668.499 45.8806 669.069 45.8806C669.332 45.8806 669.596 45.8367 669.815 45.7048V47.1118C669.398 47.3096 668.937 47.3976 668.477 47.3756C667.007 47.3756 666.173 46.6941 666.173 44.9793V40.4504H664.856V38.9995H666.173L666.195 37.3066Z" fill="white"/>
<path d="M671.022 35.482H673.063V37.4386H671.022V35.482ZM671.066 38.9995H673.063V47.2657H671.088L671.066 38.9995Z" fill="white"/>
<path d="M677.78 38.8676C679.469 38.8676 681.4 39.747 681.4 43.1106C681.4 46.5842 679.469 47.3756 677.78 47.3756C676.091 47.3756 674.138 46.5842 674.138 43.1106C674.16 39.769 676.113 38.8676 677.78 38.8676ZM677.78 45.9906C679.053 45.9906 679.36 44.5176 679.36 43.1326C679.36 41.7476 679.075 40.2966 677.78 40.2966C676.486 40.2966 676.2 41.7476 676.2 43.1326C676.2 44.5176 676.507 45.9906 677.78 45.9906Z" fill="white"/>
<path d="M682.979 40.3626C682.979 39.9009 682.957 39.4612 682.914 38.9996H684.779C684.8 39.4173 684.844 39.857 684.844 40.2747H684.866C685.152 39.769 685.722 38.8896 687.06 38.8896C688.925 38.8896 689.496 40.2747 689.496 41.9455V47.2658H687.521V42.2972C687.521 41.0221 687.192 40.4945 686.38 40.4945C685.349 40.4945 684.976 41.3739 684.976 42.4292V47.2438H683.001L682.979 40.3626Z" fill="white"/>
<path d="M596.819 21.6094C597.675 22.6427 599.166 23.2363 600.044 24.2696C599.408 21.2357 597.082 18.7514 594.318 18.1579C595.678 19.1692 595.963 20.5762 596.819 21.6094ZM563.644 29.304C565.553 25.149 568.384 26.0283 569.59 22.0931C568.888 23.2803 565.795 23.7859 564.369 26.8857C565.115 25.039 564.742 22.225 565.97 20.6861C562.262 23.4561 563.842 27.897 563.644 29.304ZM567.067 39.2411C567.418 40.8459 566.409 43.1983 568.011 45.4187C566.365 43.572 562.855 43.0884 561.428 40.2743C563.206 47.1555 567.857 45.7485 569.941 47.2435C568.23 44.7592 569.634 43.1104 567.067 39.2411ZM566.541 43.572C565.509 39.7247 567.331 38.3837 565.948 34.6903C565.817 36.7788 564.412 37.7901 565.356 41.5934C563.71 38.3617 561.165 37.1525 560.419 34.9541C560.463 40.9998 565.312 41.9012 566.541 43.572ZM573.979 50.0135C572.552 48.0349 573.518 46.9137 569.525 43.3302C570.38 44.6493 569.503 46.2981 572.201 48.8483C569.568 47.2874 565.904 47.947 564.149 45.8584C567.177 51.6624 572.487 49.288 573.979 50.0135ZM593.396 48.8483C596.095 46.2761 595.217 44.6273 596.073 43.3302C592.058 46.9137 593.045 48.0349 591.597 50.0135C593.111 49.288 598.421 51.6624 601.426 45.8584C599.693 47.969 596.029 47.2874 593.396 48.8483ZM597.587 45.4187C599.188 43.1983 598.179 40.8679 598.508 39.2411C595.941 43.1104 597.345 44.7592 595.634 47.2435C597.74 45.7485 602.37 47.1555 604.147 40.2743C602.721 43.0884 599.232 43.572 597.587 45.4187ZM591.18 50.2993C589.754 49.9256 588.284 49.6837 586.792 49.6398C585.432 49.6178 584.071 49.8376 582.799 50.3213C581.526 49.8376 580.166 49.6178 578.806 49.6398C577.314 49.6837 575.844 49.9256 574.417 50.2993C572.004 50.9369 569.92 51.4425 568.098 50.5192C569.832 52.0581 571.872 52.6297 574.812 52.2999C577.248 52.0361 579.222 50.805 581.526 50.8269H581.614C580.166 51.5524 578.871 52.5637 577.818 53.7949L578.937 53.9488C578.937 53.9488 580.1 51.5964 582.799 50.9808C585.497 51.5964 586.66 53.9488 586.66 53.9488L587.779 53.7949C586.726 52.5637 585.432 51.5524 583.984 50.8269H584.071C586.375 50.805 588.35 52.0361 590.785 52.2999C593.725 52.6077 595.744 52.0581 597.499 50.5192C595.678 51.4425 593.594 50.9369 591.18 50.2993ZM566.124 30.5132C565.136 32.4259 563.579 32.8655 563.754 36.8008C562.92 33.3052 560.924 31.9862 560.946 29.7657C559.564 35.6136 563.25 36.2951 564.215 38.7574C564.061 35.2399 566.299 34.5364 566.124 30.5132ZM567.506 26.0064C567.155 26.49 566.914 26.7099 565.992 27.4573C564.61 28.5566 563.644 30.1175 563.315 31.8543C563.403 29.6998 562.087 26.6219 562.964 24.3795C559.564 29.1941 563.162 32.0741 563.293 33.8329C564.149 30.4692 566.19 30.4472 567.506 26.0064ZM602.282 31.8543C601.931 30.1175 600.988 28.5566 599.605 27.4573C598.684 26.6879 598.442 26.49 598.091 26.0064C599.408 30.4472 601.448 30.4692 602.326 33.8329C602.458 32.0961 606.056 29.2161 602.655 24.3795C603.533 26.6219 602.216 29.6998 602.282 31.8543ZM605.178 34.9541C604.432 37.1745 601.887 38.3617 600.242 41.5934C601.185 37.7901 599.781 36.7788 599.649 34.6903C598.267 38.3837 600.088 39.7247 599.057 43.572C600.285 41.9012 605.134 40.9998 605.178 34.9541ZM599.474 30.5132C599.276 34.5364 601.536 35.2399 601.383 38.7574C602.326 36.3171 606.034 35.6136 604.652 29.7657C604.674 32.0081 602.677 33.3052 601.843 36.8228C602.019 32.8436 600.483 32.4259 599.474 30.5132ZM568.779 21.6094C569.634 20.5762 569.92 19.1692 571.28 18.1579C568.493 18.7514 566.168 21.2137 565.531 24.2476C566.409 23.2143 567.923 22.6207 568.779 21.6094ZM596.029 22.0491C597.236 26.0064 600.066 25.127 601.975 29.2601C601.777 27.875 603.357 23.4122 599.649 20.6861C600.9 22.203 600.527 25.039 601.251 26.8857C599.803 23.7859 596.709 23.2803 596.029 22.0491ZM586.375 24.3135C585.651 24.0058 584.883 23.8079 584.115 23.698C584.115 23.8739 584.115 24.0277 584.115 24.2036C584.839 24.3135 585.541 24.5114 586.2 24.7752C586.287 24.6213 586.353 24.4674 586.375 24.3135ZM585.805 19.411L585.958 19.2791L585.673 19.1472L584.905 19.1252L584.708 19.2571L584.269 19.2131V19.323C584.554 19.345 584.839 19.367 585.059 19.411L585.432 19.389L585.805 19.411ZM584.357 35.8115C584.357 35.6796 584.181 35.5477 583.94 35.4377H583.896C583.896 35.5477 583.874 36.0533 583.874 36.3171C584.159 36.1632 584.357 36.0313 584.357 35.8115ZM575.558 26.1602C575.58 26.0723 575.602 25.9624 575.624 25.8744C575.514 25.8964 575.427 25.9184 575.317 25.8964L575.558 26.1602ZM572.026 22.6207L573.825 24.4235C571.653 26.6879 570.424 29.7217 570.38 32.8655H567.835C567.879 29.0182 569.371 25.3688 572.026 22.6207ZM570.929 36.6469L570.775 36.6249L570.622 36.471L569.898 36.4051L570.117 36.7128L569.459 36.5809L569.634 36.427L569.481 36.2732L568.998 36.471L568.822 36.7788L568.888 37.5043L569.437 38.8234L569.7 39.2411L569.854 39.285L569.437 38.4936L569.349 38.0979L569.437 38.0099L569.371 37.7901L569.612 37.8341L570.007 38.4057L570.095 38.4496V38.0319L570.249 38.1199L570.293 38.3397L570.687 38.4496L570.863 38.3177L570.929 38.3617V38.6695L571.104 38.8893L571.324 38.9333L571.806 39.7247L572.092 39.8127L572.179 39.4389C572.684 40.2524 573.255 41.0218 573.935 41.7033L572.136 43.5061C569.459 40.802 567.923 37.1745 567.835 33.3712H570.38C570.402 34.4704 570.6 35.5916 570.929 36.6469ZM573.43 33.3492C573.43 33.591 573.452 33.8329 573.496 34.0967L573.189 34.1626L573.123 34.4704L572.465 35.3058L572.487 36.449L571.828 36.6689H571.455C571.104 35.5916 570.929 34.4924 570.885 33.3492H573.43V33.3492ZM574.001 40.5382L574.571 40.8679L574.681 40.9559L574.264 41.3736C574.066 41.1757 573.891 40.9779 573.715 40.758L574.001 40.5382ZM576.326 26.9297L578.125 28.7324C577.752 29.1502 577.423 29.6118 577.182 30.1175H577.05L576.787 30.1834H576.699L576.436 30.4253L576.787 30.3813L577.094 30.3153L577.028 30.4033L576.765 30.5791H576.633L576.238 30.8869L575.865 30.843L575.317 31.8762L575.427 32.0741L575.119 32.4259L575.076 32.8655H573.935C573.957 30.6451 574.812 28.5346 576.326 26.9297ZM578.169 34.3825L578.301 34.3165L578.63 34.5584L578.476 34.6683L578.849 34.9101L578.827 34.6463L579.025 34.3165L579.244 34.5364L579.464 34.8442L579.069 34.9541L579.244 35.3058L579.508 35.1519L579.464 35.042L579.661 34.9101L579.771 34.3605C579.924 34.6903 580.122 34.998 580.363 35.2619L578.564 37.0646C577.687 36.1412 577.138 34.9541 576.984 33.679L577.357 34.0747H577.708L578.169 34.3825ZM575.58 32.4698L575.624 31.9642L575.931 31.7883L576.48 31.8762L576.568 31.9642C576.524 32.25 576.502 32.5578 576.48 32.8436H575.865L575.58 32.4698ZM574.746 34.2286L574.505 34.6023H574.088L574.066 34.5803C574.001 34.1846 573.957 33.7669 573.935 33.3712H574.703L574.527 33.9868L574.746 34.2286ZM576.436 39.1971C576.26 38.9992 576.063 38.8014 575.909 38.6035L575.997 37.966L575.734 37.3504L575.668 36.3831L575.361 35.7895L575.427 35.4158L575.054 34.7122L574.746 34.5584L574.878 34.1846L574.746 33.8988L574.878 33.5691H575.229L575.361 33.3712H575.953L576.041 33.5471L575.909 34.1407L575.844 34.2506L576.063 34.7342L575.909 34.8222L575.8 34.6903L575.756 34.7342L575.865 35.02L576.041 35.3498H576.129L576.173 35.042L576.085 34.9321V34.7342L576.063 34.3165L576.195 33.5691L576.063 33.3712H576.48C576.568 34.8881 577.182 36.3171 578.235 37.4164L576.436 39.1971ZM591.751 41.6594C593.923 39.4169 595.173 36.449 595.239 33.3492H597.784C597.696 37.1306 596.183 40.758 593.528 43.4621L591.751 41.6594ZM591.048 40.9559L591.246 40.736L591.048 39.7467L590.917 39.7027L591.005 39.5269L590.588 39.395L590.5 39.7467L590.456 40.1864L590.368 40.2743L589.6 39.5049C591.202 37.8341 592.124 35.6576 592.211 33.3492H594.756C594.669 36.3391 593.484 39.1751 591.399 41.3076L591.048 40.9559ZM588.81 43.3522L589.052 42.8465L588.964 42.6267L589.315 42.3189V42.143L589.008 41.9452L589.249 41.4395L589.622 40.9559L589.249 40.5601H588.964L588.789 40.2743C588.942 40.1424 589.096 40.0105 589.227 39.8786L591.026 41.6814C590.368 42.3189 589.622 42.8905 588.81 43.3522ZM588.459 38.3837L588.218 38.1418L588.394 37.9L588.635 37.4164L588.547 37.2844L588.701 36.9327L588.679 36.6029L588.591 36.2732L588.372 36.2072L588.284 36.3831L588.152 36.3391C588.35 36.0533 588.525 35.7235 588.679 35.4158L588.898 35.3278L589.03 35.1519L589.096 35.2179L589.249 35.042L589.118 34.8881L589.227 34.8661L589.425 34.9541H589.82L590.061 34.8222L590.675 34.6463L590.566 34.4484L590.522 34.2066L590.851 34.3605L590.983 34.2945L590.917 34.0307L590.5 34.1846L590.061 34.0967L589.71 33.3932H591.663C591.575 35.5696 590.697 37.6362 589.205 39.1971L588.942 38.9333L589.052 38.5815L588.854 37.7901L588.459 38.3837ZM587.538 28.7984L589.337 26.9957C589.754 27.4573 590.127 27.963 590.456 28.4906L590.237 28.5566L590.259 28.9523L590.917 29.37C591.092 29.7437 591.224 30.1175 591.334 30.5132L591.224 30.6891L590.983 30.8649L590.917 31.2387L590.741 31.3266L590.61 31.5025L590.478 31.4365H590.237L590.368 31.2387L590.478 30.733L590.654 30.6231L590.171 30.1614L589.82 30.2933L589.732 30.6451L589.513 30.8869L589.271 30.6891L589.183 30.4692L589.315 30.3813L589.381 30.5132L589.491 30.4692L589.447 30.2494H589.293V30.3373L589.183 30.3593L588.635 29.6998L588.437 29.5459L588.503 29.4799L588.679 29.414L588.503 29.348C588.503 29.348 588.306 29.392 588.284 29.392L588.394 29.5459H588.108C587.933 29.2601 587.757 29.0182 587.538 28.7984ZM587.823 38.6255L587.275 38.4716L587.099 38.5376L586.792 38.2957L586.507 38.1858C586.66 38.0759 586.792 37.966 586.924 37.856L587.384 38.1858L587.735 38.3617L587.911 38.5376L587.823 38.6255ZM586.858 30.1614L587.077 30.1175V30.0735L586.858 29.9196L586.924 29.436L587.187 29.1502C587.362 29.348 587.516 29.5459 587.67 29.7657L587.582 30.0515L587.34 29.8756L587.143 29.9196L587.231 30.0955H587.319L587.209 30.3593L587.143 30.2494L586.858 30.1614ZM589.908 31.9202L590.368 31.6784L590.829 31.6124L590.939 31.3926L591.202 31.2387L591.312 31.0188L591.399 30.6451C591.443 30.777 591.465 30.9089 591.509 31.0408L591.268 31.7663V32.0081L591.575 31.5025C591.641 31.9422 591.685 32.4039 591.707 32.8436H589.469L589.425 32.6457L589.688 32.4478L589.732 32.3159L589.842 32.228L590.149 32.184L590.171 32.0521L589.908 31.9202ZM590.412 25.9404L591.026 25.9624L591.18 26.1383L591.114 26.4021L591.97 26.9297L592.145 26.9077L593.221 28.1608L593.659 28.007C594.361 29.5239 594.734 31.1947 594.756 32.8655H592.211C592.211 32.206 592.124 31.5685 591.97 30.9309L592.08 30.777L592.233 29.9636L592.124 29.1062L591.816 28.1169L591.114 27.0836L591.29 27.1715L591.378 27.0836L590.807 26.6879L590.763 26.8198L591.334 27.6332L591.663 28.2928L591.882 28.9523L591.948 29.392L592.058 30.1395L591.838 30.1614C591.838 30.1614 591.597 29.6998 591.509 29.5019L591.619 29.326L591.399 29.0182V28.7324L591.246 28.5346L591.048 28.5566C590.983 28.4247 590.917 28.2928 590.829 28.1828L590.961 28.2488L591.005 28.2048L590.939 28.0509L591.114 27.963L591.048 27.875L590.807 27.963L590.895 27.5673L590.741 27.4793L590.61 27.7871C590.324 27.3694 590.017 26.9737 589.688 26.5999L590.412 25.9404ZM593.659 22.6647C596.292 25.4128 597.762 29.0622 597.806 32.8655H595.261C595.239 30.9749 594.8 29.1062 593.945 27.4134L593.967 27.3694L594.142 27.4573L594.186 27.3254L593.725 26.534L593.177 25.7865L592.54 25.2589C592.321 24.9951 592.102 24.7313 591.86 24.4674L593.659 22.6647ZM582.821 48.5186C591.378 48.5186 598.311 41.5495 598.289 32.9755C598.289 25.017 592.277 18.3557 584.378 17.5423L584.357 17.6302C584.335 17.7841 584.291 17.916 584.269 18.0479C587.67 18.3777 590.851 19.8727 593.286 22.269L591.575 23.9838L591.641 23.676L591.421 23.5661L591.136 23.5881L591.202 23.3902L591.005 22.6867L590.588 22.225L589.249 21.5215L589.14 21.6534L588.898 21.7194C589.359 22.3789 589.6 23.1703 589.6 23.9618C589.6 24.0717 589.6 24.1597 589.6 24.2696L590.259 25.105L589.951 25.1709L590.149 25.4787L589.556 26.0723L589.315 25.6326C589.205 25.9404 589.052 26.2482 588.876 26.512L589.008 26.6219L587.187 28.4247C587.077 28.3147 586.967 28.2268 586.858 28.1169C586.682 28.2048 586.507 28.2708 586.331 28.3367L586.485 28.4466L586.397 28.5346L586.178 28.6445L586.09 28.8644L585.958 28.7324L585.585 28.8644L585.695 29.0402L585.958 28.9743L586.134 28.9963L586.156 28.9083L586.287 28.8424L586.331 28.7764L586.573 28.7105H586.748L586.858 28.7984L586.156 29.5239L586.112 29.4579L585.366 29.5898L585.19 29.7657L585.037 29.7877L585.497 29.348L585.322 29.2601L584.883 29.8317L585.015 29.8097V30.0295L585.168 30.0955L585.19 30.3153L584.927 30.2714L584.664 30.3153L584.005 29.9856C584.005 29.9856 583.962 31.7443 583.962 32.6237C585.497 33.1513 587.143 33.8988 587.143 35.8774C587.165 36.7128 586.726 37.5043 586.024 37.966L585.98 37.988L585.936 38.0319C585.322 38.4496 584.51 38.6695 583.808 38.8893L583.786 40.2743C584.905 40.824 586.243 41.6374 586.112 43.9238C586.09 44.4954 585.87 44.6493 585.695 44.6932C585.037 44.8471 584.357 44.9571 583.698 45.001C583.698 45.1769 583.698 45.3528 583.698 45.5067C586.594 45.3088 589.315 44.0997 591.421 42.0991L593.221 43.9018C587.45 49.4859 578.301 49.4859 572.509 43.9458L574.308 42.143C576.392 44.0997 579.091 45.2868 581.943 45.5067C581.943 45.3528 581.943 45.1769 581.943 45.001C579.222 44.7812 576.677 43.66 574.703 41.7693L575.163 41.2856L575.822 41.3516L576.173 40.9779L577.094 41.0218L577.226 40.6921L577.182 40.5601C578.542 41.5934 580.166 42.253 581.877 42.4288C581.877 42.231 581.877 42.0551 581.877 41.9232C579.99 41.7033 578.235 40.9119 576.831 39.6148L578.63 37.8121C579.069 38.2078 579.552 38.5376 580.1 38.8014C580.144 38.6255 580.188 38.4716 580.276 38.3177C579.815 38.0759 579.376 37.7901 579.003 37.4603L580.802 35.6576C581.087 35.8774 581.416 36.0753 581.746 36.1852C581.746 36.0093 581.746 35.8115 581.746 35.6356C581.526 35.5477 581.329 35.4158 581.153 35.2838L581.658 34.7782C581.482 34.7342 581.307 34.6683 581.131 34.6023L580.78 34.9541C580.605 34.7562 580.451 34.5364 580.341 34.3165C580.034 34.1846 579.727 34.0307 579.442 33.8329C578.389 33.1953 577.752 32.0301 577.774 30.777C577.752 29.9416 577.994 29.1062 578.498 28.4466L576.699 26.6439C578.016 25.3688 579.705 24.5554 581.504 24.2696C581.504 24.0937 581.504 23.9178 581.504 23.7639C579.573 24.0497 577.752 24.9291 576.348 26.2922L576.041 25.9844C575.975 26.0943 575.887 26.2482 575.8 26.446L575.997 26.6439C574.395 28.3367 573.496 30.5791 573.452 32.9095H570.885C570.929 29.8976 572.092 27.0176 574.176 24.8192L574.988 25.6326C575.032 25.6326 575.054 25.6326 575.098 25.6326C575.251 25.6106 575.427 25.5667 575.558 25.5007L574.527 24.4674C575.076 23.9398 575.668 23.4561 576.304 23.0384C576.348 22.9065 576.37 22.7746 576.436 22.6647C576.546 22.4888 576.677 22.3129 576.831 22.1371C575.865 22.6647 574.988 23.3242 574.198 24.0937L572.399 22.291C574.812 19.9386 577.95 18.4656 581.329 18.1139C581.329 18.0479 581.307 18.004 581.307 18.004C581.285 17.8721 581.263 17.7621 581.241 17.6082C572.706 18.4876 566.541 26.1163 567.44 34.6463C568.274 42.5388 574.9 48.5405 582.821 48.5186ZM590.434 21.6754L590.281 21.4336L589.951 21.2577L589.688 21.4555L590.017 21.6314L590.39 21.8952L590.434 21.6754ZM588.898 28.8863L588.92 29.0842L589.359 28.9523L589.491 28.6885L589.183 28.2928L589.337 28.0509L589.754 28.3367L589.82 28.2708L589.732 28.2048L589.644 28.0289L589.82 27.941L589.644 27.7212L589.249 27.919L589.118 28.1608L589.03 28.3807L589.205 28.6665L589.14 28.7984L588.898 28.8863ZM570.512 40.3183L570.534 40.2084L570.314 39.7027L570.051 39.5928L570.512 40.3183ZM580.89 30.733C580.89 31.1727 581.153 31.4585 581.614 31.7223C581.614 31.7223 581.614 31.6564 581.614 31.5245L581.329 31.2167L581.482 30.9309L581.614 30.8869C581.592 30.3813 581.592 29.8317 581.592 29.7437H581.57C581.131 30.0075 580.912 30.3153 580.89 30.733Z" fill="white"/>
<path d="M583.742 41.7913C584.531 42.187 585.277 42.7586 585.585 43.8139C585.716 42.0551 584.729 41.3077 583.764 40.78L583.742 41.7913Z" fill="white"/>
<path d="M589.052 23.9619C589.052 22.3571 587.889 20.5983 585.059 19.9827C584.773 19.9388 584.488 19.8948 584.203 19.8728C584.203 20.1146 584.181 20.6642 584.181 20.6642C584.181 20.8401 584.159 21.4777 584.159 21.6096C584.334 21.6316 584.532 21.6536 584.707 21.6755C586.353 22.0713 586.945 23.0166 586.945 23.94C586.945 25.4569 585.651 26.0285 584.071 26.4682L583.545 26.6001C583.062 26.71 582.557 26.8419 582.075 26.9738C581.899 27.0178 581.724 27.0618 581.548 27.1277C579.793 27.6553 578.279 28.5127 578.279 30.6892C578.279 32.8657 580.012 33.6571 581.702 34.1848C581.702 33.5692 581.68 32.9316 581.658 32.3161C580.89 31.9643 580.385 31.5026 580.385 30.7332C580.385 29.9637 580.868 29.524 581.592 29.1943C581.745 29.1283 581.921 29.0624 582.118 28.9964C582.535 28.8425 583.018 28.7326 583.501 28.6007L584.027 28.4688C586.397 27.8972 589.074 27.1497 589.052 23.9619Z" fill="white"/>
<path d="M580.516 39.1974C580.516 40.0768 581.153 40.5385 581.789 40.9122C581.789 40.7583 581.767 39.4172 581.767 39.3953C581.789 39.1314 582.03 38.9556 582.25 38.8676C582.579 38.7137 582.93 38.5818 583.281 38.4719C583.478 38.4059 583.632 38.34 583.808 38.296C585.102 37.9003 586.594 37.4166 586.594 35.8338C586.594 34.2509 585.321 33.6133 583.917 33.1296C583.895 33.6353 583.895 34.3608 583.873 34.8664C584.466 35.0863 584.861 35.3721 584.861 35.8338C584.861 36.4053 584.268 36.7131 583.829 36.889C583.654 36.955 583.391 37.0429 583.303 37.0649C582.952 37.1748 582.601 37.2847 582.25 37.4166C582.074 37.4826 581.899 37.5485 581.723 37.6365C581.153 37.9443 580.516 38.4059 580.516 39.1974Z" fill="white"/>
<path d="M581.395 20.115C580.868 20.2908 580.342 20.4887 579.837 20.7525C579.289 20.9284 578.499 20.9724 577.687 21.8517C577.424 22.1595 577.182 22.4893 576.941 22.8191C576.7 23.1708 576.678 23.7424 576.502 24.0282C576.239 24.4679 576.305 24.7317 576.305 24.7317C576.261 24.9296 576.151 25.1274 576.02 25.2813C575.756 25.5891 575.361 25.743 574.966 25.6771C575.339 25.8529 575.844 25.6111 575.844 25.6111C575.756 25.8529 575.69 26.0948 575.647 26.3366C576.063 25.3913 576.436 25.0615 576.568 24.9516C576.744 24.9955 577.117 24.9736 577.797 24.5778C578.565 24.1381 579.727 23.4126 580.057 22.951C580.408 22.4893 580.868 22.1156 581.417 21.9177C581.417 21.2582 581.395 20.6426 581.395 20.115ZM578.148 23.0389L577.753 23.1268L578.236 22.3354L578.784 22.3574L578.148 23.0389Z" fill="white"/>
<path d="M582.995 39.0872C582.929 39.1092 582.732 39.1971 582.6 39.2411C582.469 39.2851 582.315 39.351 582.315 39.395C582.315 39.395 582.447 46.1662 582.447 46.2981C582.447 47.6832 583.149 47.7051 583.149 46.2981C583.149 46.2102 583.302 38.9773 583.302 38.9773C583.302 38.9773 583.105 39.0432 582.995 39.0872Z" fill="white"/>
<path d="M582.25 36.845C582.469 36.779 582.688 36.6911 582.886 36.6471C583.04 36.6031 583.171 36.5592 583.325 36.5152C583.325 36.0975 583.456 30.2056 583.478 29.1504C583.018 29.2603 582.557 29.3922 582.118 29.5461C582.14 30.3375 582.25 36.2074 582.25 36.845Z" fill="white"/>
<path d="M582.842 14.3547C580.867 14.3547 581.701 17.3007 581.855 18.268C581.855 18.312 582.008 24.9293 582.052 26.4463C582.359 26.3583 582.645 26.2924 582.952 26.2264L583.544 26.0725C583.566 24.5996 583.72 18.29 583.72 18.246C583.851 17.2347 584.883 14.3547 582.842 14.3547Z" fill="white"/>
</g>
<mask id="mask0_1_248" style="mask-type:luminance" maskUnits="userSpaceOnUse" x="117" y="24" width="84" height="20">
<path d="M200.387 24.6523H117.387V43.6523H200.387V24.6523Z" fill="white"/>
</mask>
<g mask="url(#mask0_1_248)">
<path d="M165.539 41.4722C165.539 41.6255 165.588 41.7144 165.68 41.7144C165.757 41.7144 165.821 41.6741 165.879 41.6336L191.748 25.2983C192.185 25.0011 192.708 24.8482 193.241 24.8622H198.926C199.798 24.8622 200.387 25.4273 200.387 26.2753V36.8371C200.387 38.1128 200.097 38.8559 198.935 39.534L192.038 43.5715C191.969 43.618 191.888 43.6523 191.806 43.6523C191.724 43.6523 191.64 43.5877 191.64 43.3536V31.0315C191.64 30.886 191.598 30.7892 191.499 30.7892C191.426 30.7892 191.357 30.8255 191.299 30.87L172.394 42.8209C171.962 43.1034 171.456 43.257 170.941 43.2489H158.41C157.53 43.2489 156.949 42.6838 156.949 41.8277V26.6067C156.949 26.4937 156.899 26.3888 156.799 26.3888C156.727 26.3888 156.658 26.4257 156.6 26.4696L144.127 33.7527C144.002 33.8335 143.969 33.8901 143.969 33.9466C143.969 33.995 143.994 34.0434 144.077 34.1323L152.99 42.7965C153.107 42.9096 153.19 42.9985 153.19 43.0953C153.19 43.1762 153.057 43.2408 152.899 43.2408H144.849C144.218 43.2408 143.728 43.1518 143.388 42.8209L137.986 37.5723C137.944 37.5241 137.885 37.4914 137.82 37.4914C137.761 37.4914 137.704 37.5107 137.654 37.5398L128.624 42.8209C128.077 43.144 127.703 43.2327 127.164 43.2327H118.856C117.968 43.2408 117.387 42.6675 117.387 41.8196V31.4595C117.387 30.1757 117.678 29.4408 118.848 28.7626L125.786 24.7091C125.84 24.6734 125.903 24.6538 125.969 24.6526C126.076 24.6526 126.135 24.7575 126.135 24.9917V38.8642C126.135 39.0097 126.168 39.074 126.276 39.074C126.349 39.074 126.417 39.0337 126.483 38.9932L149.92 25.274C150.368 24.9752 150.916 24.83 151.464 24.8541H164.079C164.95 24.8541 165.539 25.4192 165.539 26.2672L165.531 41.4722H165.539Z" fill="white"/>
</g>
<path fill-rule="evenodd" clip-rule="evenodd" d="M330.003 25.9463H334.515V32.494H343.654V25.9463H348.167V42.3013H343.654V35.0862H334.515V42.3013H330.003V25.9463ZM245.387 25.9463H249.901V32.494H259.039V25.9463H263.58V42.3013H259.039V35.0862H249.901V42.3013H245.387V25.9463ZM267.313 25.9463H271.883V42.3013H267.313V25.9463ZM351.817 25.9463H356.387V42.3013H351.817V25.9463ZM273.555 25.9463H291.303V28.6719H284.672V42.3013H280.186V28.6719H273.555V25.9463ZM295.203 36.0479L298.351 28.752L301.472 36.0479H295.203ZM302.614 38.64L304.175 42.3013H309.274L301.222 25.9729H295.51L287.402 42.3013H292.472L294.061 38.64H302.614ZM323.009 31.5049H327.635C327.578 28.5384 324.903 25.706 318.69 25.6526C314.066 25.6259 308.465 27.4432 308.436 34.0971C308.409 40.6976 314.121 42.7552 318.69 42.6484C322.897 42.5149 327.578 41.393 327.774 36.4223L323.12 36.449C322.981 39.5497 320.39 40.1637 318.691 40.1904C316.935 40.1904 313.341 39.8433 313.286 34.1778C313.231 28.8334 316.518 28.0852 318.691 28.0852C320.836 28.1113 322.981 29.0736 323.009 31.5049Z" fill="white"/>
</g>
<defs>
<clipPath id="clip0_1_248">
<rect width="704" height="69" fill="white"/>
</clipPath>
<clipPath id="clip1_1_248">
<rect width="129.077" height="39.5942" fill="white" transform="translate(560.418 14.3555)"/>
</clipPath>
</defs>
</svg>
