<svg width="40" height="40" viewBox="0 0 40 40" fill="none" xmlns="http://www.w3.org/2000/svg">
<path d="M20 23.2204C21.1491 23.2204 22.2869 22.9958 23.3485 22.5596C24.4101 22.1234 25.3747 21.4841 26.1872 20.678C26.9997 19.872 27.6442 18.9152 28.0839 17.862C28.5237 16.8089 28.75 15.6802 28.75 14.5404C28.75 13.4005 28.5237 12.2718 28.0839 11.2187C27.6442 10.1656 26.9997 9.20868 26.1872 8.40266C25.3747 7.59665 24.4101 6.95729 23.3485 6.52108C22.2869 6.08487 21.1491 5.86035 20 5.86035C17.6794 5.86035 15.4538 6.77485 13.8128 8.40266C12.1719 10.0305 11.25 12.2383 11.25 14.5404C11.25 16.8424 12.1719 19.0502 13.8128 20.678C15.4538 22.3059 17.6794 23.2204 20 23.2204Z" stroke="white" stroke-width="2" stroke-linecap="round" stroke-linejoin="round"/>
<path d="M15.2625 21.8435L13.75 33.1399L20 29.4199L26.25 33.1399L24.7375 21.8311" stroke="white" stroke-width="2" stroke-linecap="round" stroke-linejoin="round"/>
</svg>
