<svg width="11" height="11" viewBox="0 0 11 11" fill="none" xmlns="http://www.w3.org/2000/svg">
<path d="M10.103 0.896962C9.74022 0.534346 9.13983 0.534346 8.7771 0.896962L5.5 4.17301L2.2229 0.896962C1.86017 0.534346 1.25978 0.534346 0.897049 0.896962C0.534317 1.25958 0.534317 1.85977 0.897049 2.22239L4.17415 5.49844L0.897049 8.77449C0.534317 9.1371 0.534317 9.7373 0.897049 10.0999C1.08467 10.2875 1.32232 10.375 1.55997 10.375C1.79763 10.375 2.03528 10.2875 2.2229 10.0999L5.5 6.82386L8.7771 10.0999C8.96472 10.2875 9.20237 10.375 9.44002 10.375C9.67768 10.375 9.91533 10.2875 10.103 10.0999C10.4657 9.7373 10.4657 9.1371 10.103 8.77449L6.82585 5.49844L10.103 2.22239C10.4657 1.85977 10.4657 1.25958 10.103 0.896962Z" fill="#3F3F3F" fill-opacity="0.8"/>
</svg>
