<svg width="109" height="62" viewBox="0 0 109 62" fill="none" xmlns="http://www.w3.org/2000/svg">
<g opacity="0.9">
<rect x="1" y="1" width="107" height="60" rx="2.58643" fill="#4733A4" fill-opacity="0.51"/>
<rect x="0.5" y="0.5" width="108" height="61" rx="3.08643" stroke="white" stroke-opacity="0.09"/>
</g>
<path d="M80.7023 34.0007H79.778V35.6055H78.7015V34.0007H75.5834V33.1476L78.6913 28.3232H79.778V33.0867H80.7023V34.0007ZM78.7015 31.1163C78.7015 30.9538 78.7015 30.7981 78.7015 30.6491C78.7082 30.5001 78.715 30.3579 78.7218 30.2225C78.7285 30.0803 78.7319 29.9517 78.7319 29.8366C78.7387 29.7147 78.7455 29.6064 78.7522 29.5116H78.7116C78.6574 29.647 78.5931 29.7858 78.5186 29.928C78.4509 30.0702 78.3832 30.1954 78.3155 30.3038L76.6092 33.0867H78.7015V31.1163ZM81.4951 35.0062C81.4951 34.7422 81.5595 34.556 81.6881 34.4476C81.8235 34.3393 81.9894 34.2851 82.1858 34.2851C82.3754 34.2851 82.5379 34.3393 82.6733 34.4476C82.8155 34.556 82.8866 34.7422 82.8866 35.0062C82.8866 35.2703 82.8155 35.4599 82.6733 35.575C82.5379 35.6901 82.3754 35.7477 82.1858 35.7477C81.9894 35.7477 81.8235 35.6901 81.6881 35.575C81.5595 35.4599 81.4951 35.2703 81.4951 35.0062ZM86.2462 28.2522C86.6525 28.2522 87.0114 28.3199 87.3228 28.4553C87.6411 28.5839 87.8882 28.7769 88.0643 29.0342C88.2471 29.2915 88.3385 29.6131 88.3385 29.9991C88.3385 30.2902 88.2809 30.5441 88.1658 30.7608C88.0575 30.9775 87.9051 31.1705 87.7088 31.3397C87.5192 31.5022 87.3093 31.6444 87.0791 31.7663C87.3431 31.9085 87.5869 32.071 87.8103 32.2538C88.0338 32.4299 88.2132 32.6364 88.3486 32.8734C88.4908 33.1104 88.5619 33.3947 88.5619 33.7265C88.5619 34.1328 88.4671 34.4849 88.2775 34.7828C88.0947 35.0739 87.8307 35.3008 87.4853 35.4633C87.14 35.6258 86.7304 35.707 86.2564 35.707C85.7486 35.707 85.3186 35.6292 84.9665 35.4734C84.6212 35.3177 84.3605 35.0976 84.1845 34.8133C84.0084 34.5221 83.9204 34.17 83.9204 33.757C83.9204 33.4252 83.9813 33.1374 84.1032 32.8937C84.2319 32.6499 84.3977 32.44 84.6009 32.264C84.8108 32.0879 85.041 31.939 85.2915 31.8171C85.0748 31.6817 84.8785 31.5293 84.7024 31.36C84.5264 31.184 84.3876 30.9843 84.286 30.7608C84.1912 30.5374 84.1438 30.2801 84.1438 29.9889C84.1438 29.6097 84.2352 29.2949 84.4181 29.0444C84.6009 28.7871 84.8514 28.5907 85.1696 28.4553C85.4879 28.3199 85.8467 28.2522 86.2462 28.2522ZM84.9767 33.7367C84.9767 34.0684 85.0816 34.3427 85.2915 34.5593C85.5014 34.7692 85.8163 34.8742 86.2361 34.8742C86.5205 34.8742 86.7541 34.8268 86.9369 34.732C87.1197 34.6304 87.2585 34.495 87.3533 34.3257C87.4549 34.1497 87.5056 33.95 87.5056 33.7265C87.5056 33.5031 87.4515 33.3067 87.3431 33.1374C87.2348 32.9682 87.0858 32.8192 86.8963 32.6905C86.7134 32.5551 86.5035 32.4333 86.2665 32.3249L86.1345 32.264C85.8908 32.3791 85.6809 32.5077 85.5048 32.6499C85.3355 32.7921 85.2035 32.9512 85.1087 33.1273C85.0207 33.3033 84.9767 33.5065 84.9767 33.7367ZM86.2259 29.0951C85.928 29.0951 85.6809 29.1764 85.4845 29.3389C85.2949 29.5014 85.2001 29.7384 85.2001 30.0499C85.2001 30.2733 85.2475 30.4629 85.3423 30.6186C85.4439 30.7744 85.5725 30.9098 85.7283 31.0249C85.8908 31.1332 86.0668 31.2382 86.2564 31.3397C86.446 31.2449 86.6153 31.1434 86.7642 31.035C86.9199 30.9199 87.0418 30.7845 87.1299 30.6288C87.2246 30.4663 87.272 30.2733 87.272 30.0499C87.272 29.7384 87.1739 29.5014 86.9775 29.3389C86.7879 29.1764 86.5374 29.0951 86.2259 29.0951Z" fill="#F0F0F0"/>
<path d="M17.3498 9.53162C17.8027 9.53162 18.1766 9.59219 18.4715 9.71331C18.7664 9.83444 18.985 10.0161 19.1272 10.2584C19.2746 10.4954 19.3484 10.7955 19.3484 11.1589C19.3484 11.4486 19.2983 11.6935 19.1983 11.8936C19.1035 12.0884 18.9771 12.2491 18.8191 12.3754C18.6664 12.4966 18.5005 12.594 18.3214 12.6677L19.8144 15.1719H18.8191L17.5631 12.8889H16.702V15.1719H15.8252V9.53162H17.3498ZM17.3103 10.2584H16.702V12.178H17.3261C17.5841 12.178 17.7948 12.1411 17.958 12.0674C18.1266 11.9936 18.2503 11.883 18.3293 11.7356C18.4136 11.5881 18.4557 11.4064 18.4557 11.1905C18.4557 10.9641 18.4136 10.785 18.3293 10.6534C18.2503 10.5164 18.1239 10.4164 17.9501 10.3532C17.7816 10.29 17.5683 10.2584 17.3103 10.2584ZM22.0864 10.835C22.5867 10.835 22.9633 10.9535 23.216 11.1905C23.4741 11.4222 23.6031 11.7883 23.6031 12.2886V15.1719H22.9949L22.829 14.5794H22.7974C22.6762 14.7321 22.5551 14.8585 22.434 14.9586C22.3181 15.0586 22.1812 15.1324 22.0232 15.1798C21.8705 15.2272 21.6809 15.2509 21.4544 15.2509C21.2175 15.2509 21.0042 15.2061 20.8146 15.1166C20.625 15.0218 20.4749 14.8796 20.3643 14.69C20.2537 14.4952 20.1984 14.2529 20.1984 13.9632C20.1984 13.5314 20.3511 13.2023 20.6566 12.9758C20.9673 12.7494 21.4386 12.6256 22.0706 12.6045L22.75 12.5808V12.3438C22.75 12.0279 22.6841 11.8067 22.5525 11.6803C22.4261 11.5539 22.247 11.4907 22.0153 11.4907C21.8205 11.4907 21.6282 11.5223 21.4386 11.5855C21.2491 11.6487 21.0647 11.7251 20.8857 11.8146L20.625 11.2063C20.8199 11.101 21.041 11.0141 21.2886 10.9456C21.5413 10.8719 21.8073 10.835 22.0864 10.835ZM22.2365 13.1417C21.8047 13.1628 21.5045 13.2444 21.336 13.3866C21.1674 13.5235 21.0832 13.7184 21.0832 13.9711C21.0832 14.1923 21.1411 14.353 21.257 14.453C21.3781 14.5531 21.5334 14.6031 21.723 14.6031C22.0127 14.6031 22.2549 14.5109 22.4498 14.3266C22.6499 14.1423 22.75 13.8658 22.75 13.4972V13.1259L22.2365 13.1417ZM26.2883 14.5715C26.3989 14.5715 26.5069 14.561 26.6122 14.5399C26.7175 14.5188 26.8097 14.4952 26.8887 14.4688V15.1008C26.7992 15.1429 26.6807 15.1771 26.5332 15.2035C26.391 15.2351 26.2409 15.2509 26.0829 15.2509C25.8618 15.2509 25.659 15.2114 25.4747 15.1324C25.2904 15.0534 25.1429 14.9165 25.0323 14.7216C24.9217 14.5267 24.8664 14.2555 24.8664 13.908V11.5539H24.3214V11.1747L24.9059 10.8587L25.1982 9.9582H25.7275V10.914H26.8571V11.5539H25.7275V13.8922C25.7275 14.1239 25.7801 14.295 25.8855 14.4056C25.9908 14.5162 26.1251 14.5715 26.2883 14.5715ZM29.2916 10.835C29.6445 10.835 29.9499 10.914 30.208 11.072C30.466 11.2248 30.6635 11.4459 30.8004 11.7356C30.9426 12.0252 31.0137 12.3675 31.0137 12.7625V13.2207H28.3358C28.3463 13.6578 28.4516 13.9922 28.6518 14.2239C28.8519 14.4557 29.1336 14.5715 29.497 14.5715C29.7551 14.5715 29.9841 14.5478 30.1843 14.5004C30.3897 14.4478 30.5977 14.3714 30.8083 14.2713V14.9665C30.6082 15.0613 30.4028 15.1324 30.1922 15.1798C29.9868 15.2272 29.7366 15.2509 29.4417 15.2509C29.0573 15.2509 28.715 15.1692 28.4148 15.006C28.1146 14.8427 27.8802 14.6005 27.7117 14.2792C27.5432 13.9527 27.4589 13.5525 27.4589 13.0785C27.4589 12.5993 27.5353 12.1938 27.688 11.862C27.8407 11.5302 28.054 11.2774 28.3279 11.1036C28.607 10.9246 28.9282 10.835 29.2916 10.835ZM29.2916 11.4828C29.023 11.4828 28.8071 11.5802 28.6439 11.7751C28.4806 11.9699 28.3858 12.2464 28.3595 12.6045H30.1685C30.1685 12.3833 30.1369 12.1885 30.0737 12.02C30.0105 11.8514 29.9131 11.7198 29.7814 11.625C29.655 11.5302 29.4917 11.4828 29.2916 11.4828ZM37.4764 13.039C37.4764 13.3919 37.4316 13.7052 37.3421 13.979C37.2526 14.2529 37.1235 14.4846 36.955 14.6742C36.7918 14.8638 36.5916 15.0086 36.3547 15.1087C36.1177 15.2035 35.8517 15.2509 35.5568 15.2509C35.2882 15.2509 35.0381 15.2035 34.8063 15.1087C34.5746 15.0086 34.3745 14.8638 34.206 14.6742C34.0375 14.4846 33.9058 14.2529 33.811 13.979C33.7215 13.7052 33.6767 13.3892 33.6767 13.0311C33.6767 12.5624 33.7531 12.1648 33.9058 11.8383C34.0585 11.5118 34.2771 11.2642 34.5615 11.0957C34.8511 10.9219 35.1934 10.835 35.5884 10.835C35.957 10.835 36.2836 10.9219 36.5679 11.0957C36.8523 11.2642 37.0735 11.5118 37.2315 11.8383C37.3948 12.1648 37.4764 12.565 37.4764 13.039ZM34.5615 13.039C34.5615 13.355 34.5957 13.6288 34.6642 13.8606C34.7379 14.087 34.8485 14.2608 34.9959 14.3819C35.1487 14.503 35.3409 14.5636 35.5726 14.5636C35.8096 14.5636 36.0018 14.503 36.1493 14.3819C36.302 14.2608 36.4126 14.087 36.481 13.8606C36.5548 13.6288 36.5916 13.355 36.5916 13.039C36.5916 12.7125 36.5548 12.4386 36.481 12.2175C36.4073 11.9963 36.2967 11.8277 36.1493 11.7119C36.0018 11.5908 35.807 11.5302 35.5647 11.5302C35.2119 11.5302 34.9564 11.6619 34.7984 11.9252C34.6405 12.1885 34.5615 12.5598 34.5615 13.039ZM40.5349 10.835C40.9983 10.835 41.3538 10.9588 41.6013 11.2063C41.8541 11.4538 41.9805 11.8514 41.9805 12.3991V15.1719H41.1273V12.5176C41.1273 12.1859 41.0615 11.9383 40.9298 11.7751C40.8034 11.6066 40.6059 11.5223 40.3374 11.5223C39.9424 11.5223 39.6712 11.6513 39.5237 11.9094C39.3763 12.1674 39.3025 12.5387 39.3025 13.0232V15.1719H38.4494V10.914H39.1208L39.2393 11.4828H39.2867C39.3763 11.3353 39.4842 11.2142 39.6106 11.1194C39.737 11.0246 39.8792 10.9535 40.0372 10.9061C40.1952 10.8587 40.3611 10.835 40.5349 10.835Z" fill="#F0F0F0"/>
<path d="M30.8926 19.7139H33.4512V35.5971H30.8926V19.7139Z" fill="white"/>
<path d="M42.3522 30.5644C42.3522 33.0254 40.3498 33.2491 39.6823 33.2491C38.1249 33.2491 37.9024 31.7949 37.9024 31.0119V24.8594H35.3438V30.9C35.3438 32.3542 35.7887 33.6966 36.6787 34.4796C37.4574 35.2627 38.4586 35.5983 39.6823 35.5983C40.5722 35.5983 41.6847 35.3746 42.3522 34.7034V35.5983H44.9108V24.8594H42.3522V30.5644Z" fill="white"/>
<path d="M49.9146 20.9443H47.356V24.8592H45.4648V27.32H47.356V35.5972H49.9146V27.32H51.8058V24.8592H49.9146V20.9443Z" fill="white"/>
<path d="M59.8166 32.3543C59.2604 32.8018 58.4816 33.1374 57.7029 33.1374C55.923 33.1374 54.6993 31.795 54.6993 30.0052C54.6993 28.2154 55.923 26.9849 57.7029 26.9849C58.4816 26.9849 59.2604 27.2086 59.8166 27.7679L60.1503 28.1035L61.9302 26.4256L61.4853 26.09C60.484 25.1951 59.1491 24.6357 57.7029 24.6357C54.5881 24.6357 52.252 26.9849 52.252 30.1171C52.252 33.2492 54.5881 35.5984 57.7029 35.5984C59.1491 35.5984 60.484 35.0391 61.4853 34.1441L61.9302 33.8086L60.1503 32.0187L59.8166 32.3543Z" fill="white"/>
<path d="M70.9414 25.754C70.1627 24.971 69.384 24.6354 68.1603 24.6354C67.2703 24.6354 66.3804 24.8592 65.7129 25.5303V19.7139H63.1543V35.5971H65.7129V29.6689C65.7129 27.2081 67.3816 26.9844 68.0491 26.9844C69.6065 26.9844 69.4952 28.4385 69.4952 29.2215V35.4853H72.0539V29.3333C72.0539 27.8792 71.7201 26.537 70.9414 25.754Z" fill="white"/>
<path d="M57.5924 31.9058C58.5754 31.9058 59.3723 31.1045 59.3723 30.116C59.3723 29.1275 58.5754 28.3262 57.5924 28.3262C56.6094 28.3262 55.8125 29.1275 55.8125 30.116C55.8125 31.1045 56.6094 31.9058 57.5924 31.9058Z" fill="#EF4335"/>
<path d="M27.3336 31.6823C26.4437 32.5772 25.1087 33.1364 23.6625 33.1364C20.8814 33.1364 18.879 30.8994 18.879 27.8793C18.879 24.8592 20.8814 22.6222 23.7738 22.6222C25.1087 22.6222 26.4437 23.1814 27.4449 24.1881L27.7786 24.5237L29.4473 22.8459L29.1135 22.5103C27.6673 21.0562 25.7762 20.2732 23.7738 20.2732C19.5465 20.1614 16.4316 23.517 16.4316 27.8793C16.4316 32.2416 19.5465 35.5972 23.6625 35.5972C25.6649 35.5972 27.6673 34.8142 29.0023 33.3601L29.336 33.0246L27.6673 31.3468L27.3336 31.6823Z" fill="white"/>
<path d="M35.0905 42.0486L34.0639 44.1493C34.0117 44.2562 33.9345 44.3486 33.8391 44.4187C33.7436 44.4888 33.6327 44.5344 33.5159 44.5515L31.2213 44.8885C31.1138 44.9042 31.0127 44.95 30.9296 45.0208C30.8465 45.0915 30.7847 45.1843 30.7511 45.2887C30.7176 45.3931 30.7136 45.5049 30.7397 45.6115C30.7658 45.718 30.8209 45.8151 30.8988 45.8916L32.5598 47.527C32.6441 47.6101 32.7072 47.7126 32.7437 47.8258C32.7801 47.939 32.7888 48.0594 32.769 48.1768L32.3769 50.486C32.3587 50.5941 32.3708 50.7052 32.4118 50.8068C32.4528 50.9083 32.5211 50.9962 32.609 51.0606C32.6969 51.125 32.8008 51.1632 32.9091 51.171C33.0174 51.1789 33.1257 51.156 33.2218 51.1049L35.2743 50.0148C35.3787 49.9593 35.495 49.9303 35.613 49.9303C35.731 49.9303 35.8472 49.9593 35.9516 50.0148L38.0041 51.1049C38.1002 51.156 38.2085 51.1789 38.3168 51.171C38.4251 51.1632 38.529 51.125 38.6169 51.0606C38.7048 50.9962 38.7731 50.9083 38.8141 50.8068C38.8552 50.7052 38.8672 50.5941 38.849 50.486L38.4569 48.1768C38.4371 48.0594 38.4458 47.939 38.4822 47.8258C38.5187 47.7126 38.5818 47.6101 38.6662 47.527L40.3272 45.8916C40.405 45.8151 40.4601 45.718 40.4862 45.6115C40.5123 45.5049 40.5084 45.3931 40.4748 45.2887C40.4412 45.1843 40.3794 45.0915 40.2963 45.0208C40.2132 44.95 40.1121 44.9042 40.0046 44.8885L37.7091 44.5515C37.5923 44.5344 37.4814 44.4888 37.3859 44.4187C37.2905 44.3486 37.2133 44.2562 37.1611 44.1493L36.1345 42.0486C36.0865 41.9501 36.0121 41.8673 35.9198 41.8093C35.8276 41.7514 35.7211 41.7207 35.6125 41.7207C35.5039 41.7207 35.3974 41.7514 35.3052 41.8093C35.2129 41.8673 35.1385 41.9501 35.0905 42.0486Z" fill="#FFAF00"/>
<path d="M49.3609 42.0486L48.3344 44.1493C48.2822 44.2562 48.205 44.3487 48.1095 44.4188C48.014 44.4888 47.9031 44.5344 47.7863 44.5516L45.4909 44.8885C45.3833 44.9042 45.2823 44.9501 45.1992 45.0208C45.1161 45.0915 45.0542 45.1844 45.0207 45.2888C44.9871 45.3932 44.9831 45.505 45.0092 45.6115C45.0353 45.7181 45.0904 45.8151 45.1683 45.8917L46.8293 47.527C46.9136 47.6101 46.9767 47.7127 47.0132 47.8259C47.0496 47.9391 47.0583 48.0595 47.0385 48.1768L46.6464 50.4861C46.6282 50.5942 46.6403 50.7053 46.6813 50.8068C46.7223 50.9083 46.7906 50.9962 46.8785 51.0606C46.9664 51.125 47.0704 51.1633 47.1787 51.1711C47.2869 51.1789 47.3952 51.156 47.4913 51.1049L49.5438 50.0148C49.6483 49.9594 49.7645 49.9304 49.8825 49.9304C50.0005 49.9304 50.1167 49.9594 50.2212 50.0148L52.2737 51.1049C52.3697 51.156 52.478 51.1789 52.5863 51.1711C52.6946 51.1633 52.7986 51.125 52.8865 51.0606C52.9743 50.9962 53.0427 50.9083 53.0837 50.8068C53.1247 50.7053 53.1368 50.5942 53.1186 50.4861L52.7264 48.1768C52.7066 48.0595 52.7153 47.939 52.7518 47.8259C52.7882 47.7127 52.8513 47.6101 52.9357 47.527L54.5967 45.8917C54.6746 45.8151 54.7297 45.7181 54.7558 45.6115C54.7819 45.505 54.7779 45.3932 54.7443 45.2888C54.7108 45.1844 54.6489 45.0915 54.5658 45.0208C54.4827 44.9501 54.3817 44.9042 54.2741 44.8885L51.9787 44.5516C51.8619 44.5344 51.751 44.4888 51.6555 44.4188C51.56 44.3487 51.4828 44.2562 51.4306 44.1493L50.404 42.0486C50.3559 41.9504 50.2816 41.8678 50.1894 41.81C50.0972 41.7523 49.9909 41.7217 49.8825 41.7217C49.774 41.7217 49.6677 41.7523 49.5756 41.81C49.4834 41.8678 49.4091 41.9504 49.3609 42.0486Z" fill="#FFAF00"/>
<path d="M63.6302 42.0476L62.6036 44.1483C62.5514 44.2552 62.4742 44.3477 62.3787 44.4177C62.2833 44.4878 62.1723 44.5334 62.0555 44.5505L59.7604 44.8875C59.6528 44.9032 59.5518 44.9491 59.4687 45.0198C59.3856 45.0905 59.3238 45.1833 59.2902 45.2877C59.2566 45.3921 59.2527 45.5039 59.2787 45.6105C59.3048 45.7171 59.3599 45.8141 59.4378 45.8907L61.0988 47.526C61.1832 47.6091 61.2463 47.7117 61.2827 47.8249C61.3192 47.938 61.3279 48.0585 61.3081 48.1758L60.9159 50.4851C60.8977 50.5932 60.9098 50.7043 60.9508 50.8058C60.9919 50.9073 61.0602 50.9952 61.1481 51.0596C61.2359 51.124 61.3399 51.1622 61.4482 51.1701C61.5565 51.1779 61.6648 51.155 61.7608 51.1039L63.8134 50.0138C63.9178 49.9583 64.034 49.9294 64.152 49.9294C64.27 49.9294 64.3862 49.9583 64.4907 50.0138L66.5432 51.1039C66.6393 51.155 66.7476 51.1779 66.8559 51.1701C66.9641 51.1622 67.0681 51.124 67.156 51.0596C67.2439 50.9952 67.3122 50.9073 67.3532 50.8058C67.3942 50.7043 67.4063 50.5932 67.3881 50.4851L66.996 48.1758C66.9761 48.0585 66.9848 47.938 67.0213 47.8248C67.0577 47.7117 67.1208 47.6091 67.2052 47.526L68.8662 45.8907C68.9441 45.8141 68.9992 45.7171 69.0253 45.6105C69.0514 45.5039 69.0474 45.3921 69.0138 45.2877C68.9803 45.1833 68.9184 45.0905 68.8353 45.0198C68.7522 44.9491 68.6512 44.9032 68.5436 44.8875L66.2482 44.5505C66.1314 44.5334 66.0205 44.4878 65.925 44.4177C65.8295 44.3477 65.7524 44.2552 65.7001 44.1483L64.6742 42.0476C64.6261 41.9492 64.5518 41.8663 64.4595 41.8084C64.3673 41.7504 64.2608 41.7197 64.1522 41.7197C64.0435 41.7197 63.9371 41.7504 63.8448 41.8084C63.7526 41.8663 63.6782 41.9492 63.6302 42.0476Z" fill="#FFAF00"/>
<path d="M78.946 42.0488L79.9726 44.1495C80.0248 44.2564 80.102 44.3489 80.1974 44.419C80.2929 44.489 80.4038 44.5346 80.5206 44.5518L82.8158 44.8887C82.9233 44.9045 83.0244 44.9503 83.1075 45.021C83.1906 45.0918 83.2524 45.1846 83.286 45.289C83.3196 45.3934 83.3235 45.5052 83.2974 45.6117C83.2713 45.7183 83.2162 45.8153 83.1384 45.8919L81.4773 47.5272C81.393 47.6103 81.3299 47.7129 81.2935 47.8261C81.257 47.9393 81.2483 48.0597 81.2681 48.177L81.6602 50.4863C81.6784 50.5944 81.6664 50.7055 81.6253 50.807C81.5843 50.9085 81.516 50.9965 81.4281 51.0608C81.3402 51.1252 81.2363 51.1635 81.128 51.1713C81.0197 51.1791 80.9114 51.1562 80.8153 51.1051L78.7628 50.015C78.6584 49.9596 78.5421 49.9306 78.4242 49.9306C78.3062 49.9306 78.1899 49.9596 78.0855 50.015L76.033 51.1051C75.9369 51.1562 75.8286 51.1791 75.7203 51.1713C75.612 51.1635 75.5081 51.1252 75.4202 51.0608C75.3323 50.9965 75.264 50.9085 75.223 50.807C75.182 50.7055 75.1699 50.5944 75.1881 50.4863L75.5802 48.177C75.6 48.0597 75.5913 47.9393 75.5549 47.8261C75.5184 47.7129 75.4553 47.6103 75.371 47.5272L73.71 45.8919C73.6321 45.8153 73.577 45.7183 73.5509 45.6117C73.5248 45.5052 73.5288 45.3934 73.5623 45.289C73.5959 45.1846 73.6577 45.0918 73.7408 45.021C73.8239 44.9503 73.925 44.9045 74.0325 44.8887L76.328 44.5518C76.4448 44.5346 76.5557 44.489 76.6512 44.419C76.7466 44.3489 76.8238 44.2564 76.876 44.1495L77.8998 42.0488C77.9477 41.9498 78.0221 41.8664 78.1145 41.808C78.207 41.7497 78.3139 41.7188 78.4229 41.7188C78.532 41.7188 78.6388 41.7497 78.7313 41.808C78.8238 41.8664 78.8982 41.9498 78.946 42.0488Z" fill="#FFAF00"/>
<path d="M80.8153 51.1055L79.4175 50.3628V43.0127L79.9723 44.1483C80.0245 44.2552 80.1017 44.3477 80.1971 44.4178C80.2926 44.4878 80.4035 44.5334 80.5203 44.5506L82.8158 44.8875C82.9233 44.9032 83.0244 44.9491 83.1075 45.0198C83.1906 45.0905 83.2524 45.1834 83.286 45.2878C83.3196 45.3922 83.3235 45.504 83.2974 45.6105C83.2713 45.7171 83.2162 45.8141 83.1384 45.8907L81.4773 47.526C81.393 47.6091 81.3299 47.7117 81.2935 47.8249C81.257 47.9381 81.2483 48.0585 81.2681 48.1758L81.6602 50.4851C81.6788 50.5933 81.667 50.7046 81.6261 50.8064C81.5852 50.9081 81.5169 50.9963 81.429 51.0609C81.341 51.1255 81.2369 51.1639 81.1285 51.1718C81.02 51.1796 80.9115 51.1567 80.8153 51.1055Z" fill="#FDE3AC"/>
<path d="M20.8219 42.0498L19.7953 44.1509C19.7431 44.2578 19.6659 44.3502 19.5704 44.4203C19.475 44.4904 19.3641 44.536 19.2473 44.5531L16.9518 44.8901C16.8443 44.9058 16.7432 44.9516 16.6601 45.0224C16.577 45.0931 16.5152 45.1859 16.4816 45.2903C16.448 45.3947 16.4441 45.5065 16.4701 45.6131C16.4962 45.7196 16.5514 45.8167 16.6292 45.8932L18.2902 47.5286C18.3746 47.6117 18.4377 47.7142 18.4741 47.8274C18.5106 47.9406 18.5193 48.061 18.4995 48.1784L18.1073 50.4876C18.0891 50.5957 18.1012 50.7068 18.1422 50.8084C18.1833 50.9099 18.2516 50.9978 18.3395 51.0622C18.4273 51.1265 18.5313 51.1648 18.6396 51.1726C18.7479 51.1805 18.8562 51.1576 18.9522 51.1065L21.0048 50.0164C21.1092 49.9609 21.2254 49.9319 21.3434 49.9319C21.4614 49.9319 21.5776 49.9609 21.6821 50.0164L23.7346 51.1065C23.8307 51.1576 23.939 51.1805 24.0473 51.1726C24.1555 51.1648 24.2595 51.1265 24.3474 51.0622C24.4353 50.9978 24.5036 50.9099 24.5446 50.8084C24.5856 50.7068 24.5977 50.5957 24.5795 50.4876L24.1874 48.1784C24.1676 48.061 24.1762 47.9406 24.2127 47.8274C24.2491 47.7142 24.3123 47.6117 24.3966 47.5286L26.0576 45.8932C26.1355 45.8167 26.1906 45.7196 26.2167 45.6131C26.2428 45.5065 26.2388 45.3947 26.2053 45.2903C26.1717 45.1859 26.1098 45.0931 26.0267 45.0224C25.9436 44.9516 25.8426 44.9058 25.7351 44.8901L23.4408 44.5528C23.324 44.5357 23.2131 44.4901 23.1176 44.42C23.0222 44.3499 22.945 44.2575 22.8928 44.1505L21.8662 42.0498C21.8182 41.9514 21.7438 41.8684 21.6515 41.8104C21.5592 41.7524 21.4527 41.7217 21.344 41.7217C21.2353 41.7217 21.1288 41.7524 21.0365 41.8104C20.9443 41.8684 20.8699 41.9514 20.8219 42.0498Z" fill="#E2E2E2"/>
<path d="M21.8454 42.0496L22.872 44.1503C22.9242 44.2572 23.0014 44.3497 23.0969 44.4197C23.1924 44.4898 23.3033 44.5354 23.4201 44.5525L25.7155 44.8895C25.8231 44.9052 25.9241 44.951 26.0072 45.0218C26.0903 45.0925 26.1522 45.1853 26.1857 45.2897C26.2193 45.3941 26.2233 45.5059 26.1972 45.6125C26.1711 45.7191 26.116 45.8161 26.0381 45.8927L24.3771 47.528C24.2927 47.6111 24.2296 47.7137 24.1932 47.8268C24.1568 47.94 24.148 48.0605 24.1679 48.1778L24.56 50.487C24.5782 50.5951 24.5661 50.7062 24.5251 50.8078C24.4841 50.9093 24.4158 50.9972 24.3279 51.0616C24.24 51.126 24.136 51.1642 24.0277 51.1721C23.9194 51.1799 23.8111 51.157 23.7151 51.1059L21.6626 50.0158C21.5581 49.9603 21.4419 49.9314 21.3239 49.9314C21.2059 49.9314 21.0897 49.9603 20.9852 50.0158L18.9327 51.1059C18.8366 51.157 18.7283 51.1799 18.6201 51.1721C18.5118 51.1642 18.4078 51.126 18.3199 51.0616C18.232 50.9972 18.1637 50.9093 18.1227 50.8078C18.0817 50.7062 18.0696 50.5951 18.0878 50.487L18.4799 48.1778C18.4998 48.0605 18.4911 47.94 18.4546 47.8268C18.4182 47.7136 18.3551 47.6111 18.2707 47.528L16.6097 45.8927C16.5318 45.8161 16.4767 45.7191 16.4506 45.6125C16.4245 45.5059 16.4285 45.3941 16.4621 45.2897C16.4956 45.1853 16.5575 45.0925 16.6406 45.0218C16.7237 44.951 16.8247 44.9052 16.9323 44.8895L19.2277 44.5525C19.3445 44.5354 19.4554 44.4898 19.5509 44.4197C19.6464 44.3497 19.7236 44.2572 19.7758 44.1503L20.8023 42.0496C20.8505 41.9514 20.9248 41.8688 21.017 41.811C21.1091 41.7533 21.2154 41.7227 21.3239 41.7227C21.4324 41.7227 21.5387 41.7533 21.6308 41.811C21.723 41.8688 21.7973 41.9514 21.8454 42.0496Z" fill="#FFAF00"/>
</svg>
