<svg width="107" height="32" viewBox="0 0 107 32" fill="none" xmlns="http://www.w3.org/2000/svg">
<path d="M35.5927 17.0001L32.4076 7.49368H32.3426C32.3534 7.71035 32.3697 8.01911 32.3913 8.41995C32.413 8.80995 32.4293 9.23788 32.4401 9.70372C32.4618 10.1587 32.4726 10.5867 32.4726 10.9875V17.0001H30.6038V5.39739H33.4964L36.5514 14.5138H36.6164L39.8015 5.39739H42.694V17.0001H40.7115V10.89C40.7115 10.5217 40.7169 10.1208 40.7278 9.68747C40.7494 9.2433 40.7657 8.8262 40.7765 8.4362C40.7982 8.03536 40.8144 7.7266 40.8253 7.50993H40.7603L37.4452 17.0001H35.5927ZM47.5482 8.19244V17.0001H45.5007V8.19244H47.5482ZM46.5244 4.79613C46.8278 4.79613 47.0932 4.87738 47.3207 5.03988C47.5482 5.19155 47.6619 5.46781 47.6619 5.86865C47.6619 6.25865 47.5482 6.54033 47.3207 6.71366C47.0932 6.87617 46.8278 6.95742 46.5244 6.95742C46.2102 6.95742 45.9394 6.87617 45.7119 6.71366C45.4952 6.54033 45.3869 6.25865 45.3869 5.86865C45.3869 5.46781 45.4952 5.19155 45.7119 5.03988C45.9394 4.87738 46.2102 4.79613 46.5244 4.79613ZM53.7251 17.1626C52.8909 17.1626 52.1651 17.0055 51.5475 16.6914C50.9409 16.3664 50.4696 15.8734 50.1338 15.2126C49.8088 14.5409 49.6463 13.685 49.6463 12.645C49.6463 11.5617 49.825 10.6842 50.1825 10.0125C50.5509 9.32996 51.0546 8.83162 51.6938 8.51745C52.333 8.19244 53.0642 8.02994 53.8876 8.02994C54.4401 8.02994 54.933 8.08411 55.3664 8.19244C55.7997 8.30078 56.1681 8.43078 56.4714 8.58245L55.8701 10.1912C55.5343 10.0612 55.1985 9.95289 54.8626 9.86623C54.5268 9.76872 54.2018 9.71997 53.8876 9.71997C53.4001 9.71997 52.9938 9.82831 52.6688 10.045C52.3546 10.2616 52.1217 10.5867 51.9701 11.02C51.8184 11.4425 51.7426 11.9788 51.7426 12.6288C51.7426 13.2571 51.8184 13.7826 51.9701 14.2051C52.1326 14.6276 52.3709 14.9472 52.6851 15.1638C52.9992 15.3697 53.3893 15.4726 53.8551 15.4726C54.3534 15.4726 54.7922 15.413 55.1714 15.2938C55.5505 15.1747 55.908 15.0122 56.2439 14.8063V16.5776C55.908 16.7834 55.5451 16.9297 55.1551 17.0164C54.7759 17.1139 54.2993 17.1626 53.7251 17.1626ZM62.9224 8.02994C63.0524 8.02994 63.2041 8.03536 63.3774 8.04619C63.5507 8.05702 63.697 8.07869 63.8162 8.11119L63.6374 10.0125C63.5399 9.99081 63.4099 9.97456 63.2474 9.96373C63.0957 9.94206 62.9603 9.93123 62.8411 9.93123C62.5161 9.93123 62.202 9.98539 61.8986 10.0937C61.6061 10.1912 61.3407 10.3429 61.1024 10.5487C60.8748 10.7437 60.6907 10.9983 60.5498 11.3125C60.4198 11.6267 60.3548 12.0004 60.3548 12.4338V17.0001H58.3073V8.19244H59.8836L60.1761 9.71997H60.2736C60.4469 9.4058 60.6636 9.12413 60.9236 8.87496C61.1836 8.61495 61.4815 8.40911 61.8174 8.25744C62.164 8.10577 62.5324 8.02994 62.9224 8.02994ZM72.9963 12.58C72.9963 13.3167 72.8988 13.9667 72.7038 14.5301C72.5088 15.0934 72.2271 15.5755 71.8588 15.9763C71.5013 16.3664 71.0571 16.6643 70.5263 16.8701C70.0063 17.0651 69.4267 17.1626 68.7875 17.1626C68.1808 17.1626 67.6229 17.0651 67.1137 16.8701C66.6045 16.6643 66.1603 16.3664 65.7812 15.9763C65.4128 15.5755 65.1257 15.0934 64.9199 14.5301C64.7141 13.9667 64.6111 13.3167 64.6111 12.58C64.6111 11.605 64.7791 10.7817 65.1149 10.11C65.4507 9.42747 65.9328 8.91287 66.5612 8.5662C67.2004 8.20869 67.9533 8.02994 68.82 8.02994C69.6433 8.02994 70.3638 8.20869 70.9813 8.5662C71.6096 8.91287 72.1025 9.42747 72.4601 10.11C72.8176 10.7817 72.9963 11.605 72.9963 12.58ZM66.7074 12.58C66.7074 13.1975 66.7779 13.7284 66.9187 14.1726C67.0704 14.6059 67.2979 14.9363 67.6012 15.1638C67.9154 15.3913 68.3162 15.5051 68.8037 15.5051C69.3021 15.5051 69.7029 15.3913 70.0063 15.1638C70.3204 14.9363 70.5479 14.6059 70.6888 14.1726C70.8296 13.7284 70.9 13.1975 70.9 12.58C70.9 11.9517 70.8242 11.4263 70.6725 11.0037C70.5317 10.5704 70.3042 10.2454 69.99 10.0287C69.6867 9.80122 69.2912 9.68747 68.8037 9.68747C68.0671 9.68747 67.5308 9.93664 67.195 10.435C66.8699 10.9333 66.7074 11.6483 66.7074 12.58ZM81.1094 14.4488C81.1094 15.0338 80.9686 15.5322 80.6869 15.9438C80.4052 16.3447 79.9881 16.648 79.4356 16.8539C78.894 17.0597 78.2277 17.1626 77.4368 17.1626C76.8193 17.1626 76.2885 17.1193 75.8443 17.0326C75.4001 16.9459 74.9776 16.8105 74.5768 16.6264V14.8876C75.0101 15.0934 75.4922 15.2667 76.0231 15.4076C76.5539 15.5484 77.0468 15.6188 77.5018 15.6188C78.0652 15.6188 78.4714 15.5322 78.7206 15.3588C78.9698 15.1855 79.0944 14.9526 79.0944 14.6601C79.0944 14.4867 79.0456 14.3296 78.9481 14.1888C78.8506 14.048 78.661 13.9017 78.3794 13.7501C78.0977 13.5875 77.6698 13.3871 77.0956 13.1488C76.5322 12.9213 76.061 12.6938 75.6818 12.4663C75.3135 12.2388 75.0318 11.9679 74.8368 11.6538C74.6526 11.3288 74.5605 10.9225 74.5605 10.435C74.5605 9.64414 74.8747 9.04829 75.5031 8.64745C76.1314 8.23578 76.9602 8.02994 77.9894 8.02994C78.531 8.02994 79.0402 8.08411 79.5169 8.19244C80.0044 8.28994 80.4919 8.45245 80.9794 8.67995L80.3294 10.1912C80.0586 10.0721 79.7877 9.96914 79.5169 9.88248C79.2569 9.78497 78.9915 9.70914 78.7206 9.65497C78.4606 9.6008 78.1952 9.57372 77.9243 9.57372C77.4802 9.57372 77.1443 9.64414 76.9168 9.78497C76.6893 9.91498 76.5756 10.0991 76.5756 10.3375C76.5756 10.5217 76.6297 10.6842 76.7381 10.825C76.8572 10.955 77.0577 11.0904 77.3393 11.2313C77.6318 11.3613 78.0435 11.5346 78.5744 11.7513C79.1052 11.9571 79.5548 12.1738 79.9231 12.4013C80.3023 12.6179 80.5948 12.8888 80.8007 13.2138C81.0065 13.5388 81.1094 13.9505 81.1094 14.4488ZM90.9447 12.58C90.9447 13.3167 90.8472 13.9667 90.6522 14.5301C90.4572 15.0934 90.1755 15.5755 89.8071 15.9763C89.4496 16.3664 89.0055 16.6643 88.4746 16.8701C87.9546 17.0651 87.375 17.1626 86.7358 17.1626C86.1292 17.1626 85.5712 17.0651 85.062 16.8701C84.5529 16.6643 84.1087 16.3664 83.7295 15.9763C83.3612 15.5755 83.0741 15.0934 82.8683 14.5301C82.6624 13.9667 82.5595 13.3167 82.5595 12.58C82.5595 11.605 82.7274 10.7817 83.0633 10.11C83.3991 9.42747 83.8812 8.91287 84.5095 8.5662C85.1487 8.20869 85.9016 8.02994 86.7683 8.02994C87.5917 8.02994 88.3121 8.20869 88.9296 8.5662C89.558 8.91287 90.0509 9.42747 90.4084 10.11C90.7659 10.7817 90.9447 11.605 90.9447 12.58ZM84.6558 12.58C84.6558 13.1975 84.7262 13.7284 84.867 14.1726C85.0187 14.6059 85.2462 14.9363 85.5496 15.1638C85.8637 15.3913 86.2646 15.5051 86.7521 15.5051C87.2504 15.5051 87.6513 15.3913 87.9546 15.1638C88.2688 14.9363 88.4963 14.6059 88.6371 14.1726C88.778 13.7284 88.8484 13.1975 88.8484 12.58C88.8484 11.9517 88.7725 11.4263 88.6209 11.0037C88.48 10.5704 88.2525 10.2454 87.9384 10.0287C87.635 9.80122 87.2396 9.68747 86.7521 9.68747C86.0154 9.68747 85.4791 9.93664 85.1433 10.435C84.8183 10.9333 84.6558 11.6483 84.6558 12.58ZM97.6277 9.73622H95.4989V17.0001H93.4514V9.73622H92.0376V8.7612L93.4514 8.17619V7.57493C93.4514 6.81658 93.5706 6.22074 93.8089 5.7874C94.0472 5.35405 94.3939 5.0453 94.8489 4.86113C95.3039 4.66612 95.8402 4.56862 96.4577 4.56862C96.8911 4.56862 97.2811 4.60654 97.6277 4.68237C97.9744 4.74738 98.2615 4.82321 98.489 4.90988L97.969 6.43741C97.7848 6.38324 97.579 6.33449 97.3515 6.29116C97.1348 6.23699 96.8965 6.2099 96.6365 6.2099C96.2465 6.2099 95.9594 6.33449 95.7752 6.58366C95.591 6.83283 95.4989 7.17951 95.4989 7.62368V8.19244H97.6277V9.73622ZM102.504 15.5213C102.764 15.5213 103.014 15.4997 103.252 15.4563C103.49 15.4022 103.712 15.3426 103.918 15.2776V16.8051C103.701 16.9026 103.42 16.9839 103.073 17.0489C102.726 17.1247 102.364 17.1626 101.984 17.1626C101.486 17.1626 101.031 17.0814 100.619 16.9189C100.218 16.7455 99.8935 16.453 99.6443 16.0413C99.406 15.6297 99.2868 15.0555 99.2868 14.3188V9.73622H98.1005V8.84245L99.4005 8.12744L100.051 6.25865H101.334V8.19244H103.837V9.73622H101.334V14.3026C101.334 14.7142 101.443 15.023 101.659 15.2288C101.876 15.4238 102.158 15.5213 102.504 15.5213Z" fill="white"/>
<path d="M34.8817 26.2513C34.8817 26.762 34.758 27.197 34.5107 27.5561C34.2633 27.9152 33.9081 28.1945 33.4453 28.394C32.9824 28.5855 32.4318 28.6813 31.7934 28.6813C31.4821 28.6813 31.1829 28.6614 30.8956 28.6215C30.6083 28.5895 30.3409 28.5416 30.0935 28.4778C29.8462 28.414 29.6267 28.3342 29.4352 28.2384V27.0174C29.7544 27.1611 30.1295 27.2927 30.5604 27.4124C30.9913 27.5242 31.4303 27.58 31.8771 27.58C32.2602 27.58 32.5794 27.5281 32.8348 27.4244C33.0902 27.3207 33.2817 27.177 33.4094 26.9935C33.5371 26.8099 33.6009 26.5945 33.6009 26.3471C33.6009 26.0837 33.5331 25.8643 33.3974 25.6887C33.2697 25.5051 33.0662 25.3376 32.7869 25.1859C32.5156 25.0263 32.1485 24.8587 31.6856 24.6832C31.3664 24.5635 31.0751 24.4318 30.8118 24.2881C30.5564 24.1365 30.329 23.9609 30.1295 23.7614C29.9379 23.5619 29.7903 23.3305 29.6866 23.0671C29.5828 22.8038 29.5309 22.4966 29.5309 22.1454C29.5309 21.6746 29.6466 21.2716 29.8781 20.9364C30.1175 20.6012 30.4447 20.3459 30.8597 20.1703C31.2746 19.9867 31.7574 19.895 32.3081 19.895C32.7709 19.895 33.1979 19.9429 33.5889 20.0386C33.9879 20.1264 34.367 20.2501 34.7261 20.4097L34.3191 21.4751C33.9919 21.3394 33.6608 21.2277 33.3256 21.1399C32.9904 21.0521 32.6393 21.0082 32.2722 21.0082C31.953 21.0082 31.6856 21.0561 31.4702 21.1519C31.2547 21.2476 31.0911 21.3793 30.9794 21.5469C30.8756 21.7145 30.8237 21.91 30.8237 22.1335C30.8237 22.3968 30.8836 22.6163 31.0033 22.7918C31.123 22.9674 31.3145 23.131 31.5779 23.2826C31.8412 23.4263 32.1884 23.5859 32.6193 23.7614C33.0981 23.945 33.5051 24.1445 33.8403 24.36C34.1835 24.5754 34.4428 24.8348 34.6184 25.138C34.794 25.4333 34.8817 25.8044 34.8817 26.2513ZM37.6805 22.1095V28.5616H36.4116V22.1095H37.6805ZM37.058 19.6556C37.2496 19.6556 37.4171 19.7114 37.5608 19.8231C37.7044 19.9349 37.7763 20.1224 37.7763 20.3858C37.7763 20.6411 37.7044 20.8287 37.5608 20.9484C37.4171 21.0601 37.2496 21.116 37.058 21.116C36.8505 21.116 36.675 21.0601 36.5313 20.9484C36.3957 20.8287 36.3278 20.6411 36.3278 20.3858C36.3278 20.1224 36.3957 19.9349 36.5313 19.8231C36.675 19.7114 36.8505 19.6556 37.058 19.6556ZM40.942 28.5616H39.6731V19.464H40.942V28.5616ZM44.383 28.5616L41.941 22.1095H43.2817L44.6224 25.8802C44.6783 26.0398 44.7342 26.2194 44.79 26.4189C44.8539 26.6184 44.9097 26.8099 44.9576 26.9935C45.0055 27.177 45.0374 27.3366 45.0534 27.4723H45.1013C45.1252 27.3366 45.1611 27.177 45.209 26.9935C45.2649 26.8019 45.3247 26.6104 45.3885 26.4189C45.4524 26.2194 45.5083 26.0398 45.5561 25.8802L46.8968 22.1095H48.2375L45.7836 28.5616H44.383ZM51.7732 21.9898C52.3398 21.9898 52.8266 22.1095 53.2336 22.3489C53.6406 22.5803 53.9518 22.9155 54.1673 23.3544C54.3908 23.7934 54.5025 24.3121 54.5025 24.9106V25.6049H50.1692C50.1851 26.2673 50.3567 26.774 50.6839 27.1251C51.0191 27.4763 51.4859 27.6518 52.0844 27.6518C52.4994 27.6518 52.8665 27.6159 53.1857 27.5441C53.5129 27.4643 53.8481 27.3486 54.1912 27.197V28.2504C53.872 28.394 53.5448 28.5017 53.2097 28.5736C52.8825 28.6454 52.4914 28.6813 52.0366 28.6813C51.4141 28.6813 50.8635 28.5576 50.3846 28.3102C49.9058 28.0628 49.5307 27.6957 49.2594 27.2089C48.9961 26.7142 48.8644 26.1077 48.8644 25.3894C48.8644 24.6632 48.9841 24.0487 49.2235 23.546C49.4709 23.0432 49.81 22.6602 50.241 22.3968C50.6799 22.1255 51.1906 21.9898 51.7732 21.9898ZM51.7732 22.9714C51.3183 22.9714 50.9512 23.119 50.6719 23.4143C50.4006 23.7096 50.241 24.1285 50.1931 24.6712H53.2336C53.2336 24.336 53.1817 24.0407 53.078 23.7854C52.9742 23.53 52.8146 23.3305 52.5992 23.1869C52.3837 23.0432 52.1084 22.9714 51.7732 22.9714ZM59.2699 21.9898C59.3816 21.9898 59.5053 21.9978 59.641 22.0137C59.7767 22.0217 59.8884 22.0337 59.9762 22.0497L59.8445 23.2347C59.7567 23.2108 59.653 23.1908 59.5333 23.1749C59.4136 23.1589 59.3018 23.1509 59.1981 23.1509C58.9587 23.1509 58.7272 23.1988 58.5038 23.2946C58.2883 23.3824 58.0928 23.514 57.9172 23.6896C57.7417 23.8572 57.602 24.0647 57.4983 24.3121C57.4025 24.5595 57.3546 24.8428 57.3546 25.162V28.5616H56.0858V22.1095H57.0913L57.2589 23.2587H57.3068C57.4424 23.0272 57.606 22.8158 57.7975 22.6242C57.9891 22.4327 58.2085 22.2811 58.4559 22.1694C58.7033 22.0497 58.9746 21.9898 59.2699 21.9898Z" fill="#B0B0B0"/>
<path d="M66.8181 20.0147C67.9354 20.0147 68.7494 20.2421 69.2601 20.697C69.7709 21.1439 70.0262 21.7703 70.0262 22.5764C70.0262 22.9355 69.9664 23.2786 69.8467 23.6058C69.7349 23.933 69.5474 24.2283 69.2841 24.4916C69.0207 24.747 68.6696 24.9505 68.2307 25.1021C67.7997 25.2458 67.269 25.3176 66.6386 25.3176H65.7169V28.5616H64.424V20.0147H66.8181ZM66.7224 21.104H65.7169V24.2283H66.4949C66.9817 24.2283 67.3887 24.1764 67.7159 24.0727C68.0431 23.9609 68.2865 23.7894 68.4461 23.5579C68.6137 23.3185 68.6975 23.0073 68.6975 22.6242C68.6975 22.1135 68.5379 21.7344 68.2187 21.487C67.9075 21.2317 67.4087 21.104 66.7224 21.104ZM74.1118 21.9898C74.9258 21.9898 75.5323 22.1694 75.9313 22.5285C76.3303 22.8796 76.5298 23.4342 76.5298 24.1924V28.5616H75.6321L75.3807 27.6638H75.3328C75.1493 27.8952 74.9577 28.0868 74.7582 28.2384C74.5667 28.39 74.3432 28.5017 74.0879 28.5736C73.8405 28.6454 73.5372 28.6813 73.1781 28.6813C72.7951 28.6813 72.4479 28.6135 72.1367 28.4778C71.8334 28.3342 71.594 28.1187 71.4185 27.8314C71.2429 27.5361 71.1551 27.169 71.1551 26.7301C71.1551 26.0757 71.4025 25.577 71.8973 25.2338C72.4 24.8907 73.1622 24.7031 74.1836 24.6712L75.2849 24.6353V24.2762C75.2849 23.7973 75.1772 23.4622 74.9617 23.2706C74.7462 23.0791 74.443 22.9834 74.052 22.9834C73.7168 22.9834 73.3976 23.0312 73.0943 23.127C72.7911 23.2228 72.5038 23.3385 72.2324 23.4741L71.8254 22.5524C72.1287 22.3928 72.4758 22.2611 72.8669 22.1574C73.2659 22.0457 73.6809 21.9898 74.1118 21.9898ZM74.4111 25.4852C73.6769 25.5171 73.1661 25.6408 72.8788 25.8563C72.5995 26.0638 72.4599 26.359 72.4599 26.7421C72.4599 27.0773 72.5596 27.3207 72.7591 27.4723C72.9666 27.6239 73.226 27.6997 73.5372 27.6997C74.04 27.6997 74.455 27.5601 74.7822 27.2808C75.1093 27.0014 75.2729 26.5825 75.2729 26.0239V25.4612L74.4111 25.4852ZM81.6678 21.9898C81.7795 21.9898 81.9032 21.9978 82.0389 22.0137C82.1745 22.0217 82.2863 22.0337 82.3741 22.0497L82.2424 23.2347C82.1546 23.2108 82.0509 23.1908 81.9311 23.1749C81.8114 23.1589 81.6997 23.1509 81.596 23.1509C81.3566 23.1509 81.1251 23.1988 80.9017 23.2946C80.6862 23.3824 80.4907 23.514 80.3151 23.6896C80.1396 23.8572 79.9999 24.0647 79.8962 24.3121C79.8004 24.5595 79.7525 24.8428 79.7525 25.162V28.5616H78.4837V22.1095H79.4892L79.6568 23.2587H79.7046C79.8403 23.0272 80.0039 22.8158 80.1954 22.6242C80.387 22.4327 80.6064 22.2811 80.8538 22.1694C81.1012 22.0497 81.3725 21.9898 81.6678 21.9898ZM85.891 27.6518C86.0586 27.6518 86.2302 27.6359 86.4058 27.604C86.5813 27.572 86.733 27.5361 86.8607 27.4962V28.4539C86.725 28.5177 86.5414 28.5696 86.31 28.6095C86.0786 28.6574 85.8471 28.6813 85.6157 28.6813C85.2646 28.6813 84.9414 28.6215 84.6461 28.5017C84.3588 28.382 84.1274 28.1746 83.9518 27.8793C83.7763 27.584 83.6885 27.173 83.6885 26.6463V23.0791H82.7907V22.5045L83.7364 22.0257L84.1793 20.6611H84.9573V22.1095H86.8008V23.0791H84.9573V26.6224C84.9573 26.9735 85.0411 27.2329 85.2087 27.4005C85.3843 27.568 85.6117 27.6518 85.891 27.6518ZM91.4192 21.9898C92.1693 21.9898 92.7439 22.1773 93.1429 22.5524C93.5419 22.9275 93.7414 23.53 93.7414 24.36V28.5616H92.4845V24.5395C92.4845 24.0368 92.3768 23.6617 92.1613 23.4143C91.9538 23.1589 91.6187 23.0312 91.1558 23.0312C90.5014 23.0312 90.0465 23.2268 89.7912 23.6178C89.5438 24.0088 89.4201 24.5714 89.4201 25.3056V28.5616H88.1512V22.1095H89.1567L89.3363 22.9714H89.4081C89.5518 22.7479 89.7273 22.5644 89.9348 22.4207C90.1423 22.2771 90.3737 22.1694 90.6291 22.0975C90.8845 22.0257 91.1478 21.9898 91.4192 21.9898ZM98.229 21.9898C98.7956 21.9898 99.2824 22.1095 99.6894 22.3489C100.096 22.5803 100.408 22.9155 100.623 23.3544C100.847 23.7934 100.958 24.3121 100.958 24.9106V25.6049H96.6249C96.6409 26.2673 96.8125 26.774 97.1396 27.1251C97.4748 27.4763 97.9417 27.6518 98.5402 27.6518C98.9552 27.6518 99.3223 27.6159 99.6415 27.5441C99.9687 27.4643 100.304 27.3486 100.647 27.197V28.2504C100.328 28.394 100.001 28.5017 99.6654 28.5736C99.3382 28.6454 98.9472 28.6813 98.4923 28.6813C97.8698 28.6813 97.3192 28.5576 96.8404 28.3102C96.3616 28.0628 95.9865 27.6957 95.7152 27.2089C95.4518 26.7142 95.3201 26.1077 95.3201 25.3894C95.3201 24.6632 95.4398 24.0487 95.6792 23.546C95.9266 23.0432 96.2658 22.6602 96.6967 22.3968C97.1357 22.1255 97.6464 21.9898 98.229 21.9898ZM98.229 22.9714C97.7741 22.9714 97.407 23.119 97.1277 23.4143C96.8563 23.7096 96.6967 24.1285 96.6489 24.6712H99.6894C99.6894 24.336 99.6375 24.0407 99.5337 23.7854C99.43 23.53 99.2704 23.3305 99.0549 23.1869C98.8395 23.0432 98.5641 22.9714 98.229 22.9714ZM105.726 21.9898C105.837 21.9898 105.961 21.9978 106.097 22.0137C106.232 22.0217 106.344 22.0337 106.432 22.0497L106.3 23.2347C106.212 23.2108 106.109 23.1908 105.989 23.1749C105.869 23.1589 105.758 23.1509 105.654 23.1509C105.414 23.1509 105.183 23.1988 104.96 23.2946C104.744 23.3824 104.549 23.514 104.373 23.6896C104.197 23.8572 104.058 24.0647 103.954 24.3121C103.858 24.5595 103.81 24.8428 103.81 25.162V28.5616H102.542V22.1095H103.547L103.715 23.2587H103.762C103.898 23.0272 104.062 22.8158 104.253 22.6242C104.445 22.4327 104.664 22.2811 104.912 22.1694C105.159 22.0497 105.43 21.9898 105.726 21.9898Z" fill="#808080"/>
<rect x="0.000366211" y="3.96307" width="11.8889" height="11.8889" fill="#EB5321"/>
<rect x="13.8714" y="3.96307" width="11.8889" height="11.8889" fill="#7FBA00"/>
<rect x="13.8714" y="17.8333" width="11.8889" height="11.8889" fill="#FCBB01"/>
<rect x="0.000366211" y="17.8333" width="11.8889" height="11.8889" fill="#08A1EF"/>
</svg>
