<svg width="22" height="22" viewBox="0 0 22 22" fill="none" xmlns="http://www.w3.org/2000/svg">
<path d="M20.609 8.44815L19.8178 7.5214C19.5692 7.22755 19.4336 6.88849 19.411 6.52683L19.2979 5.28363C19.1623 3.56574 17.8287 2.23212 16.1334 2.1191L14.9128 2.02869C14.5512 2.00608 14.1895 1.84786 13.9183 1.62182L12.9915 0.830688C11.6805 -0.276896 9.80438 -0.276896 8.49336 0.830688L7.5666 1.62182C7.27276 1.87046 6.9337 2.00608 6.57204 2.02869L5.30623 2.0965C3.58835 2.23212 2.25472 3.56574 2.1191 5.26102L2.02869 6.48163C2.00608 6.84329 1.84786 7.20495 1.62182 7.47619L0.830688 8.40294C-0.276896 9.71396 -0.276896 11.5901 0.830688 12.9011L1.62182 13.8278C1.87046 14.1217 2.00608 14.4608 2.02869 14.8224L2.1191 16.1108C2.25472 17.8287 3.58834 19.1623 5.28363 19.2753L6.50423 19.3658C6.86589 19.3884 7.22755 19.5466 7.49879 19.7726L8.42555 20.5638C9.08106 21.1289 9.87219 21.4001 10.6633 21.4001C11.4544 21.4001 12.2682 21.1289 12.9011 20.5638L13.8278 19.7726C14.1217 19.524 14.4607 19.3884 14.8224 19.3658L16.043 19.2753C17.7609 19.1397 19.0945 17.8061 19.2301 16.1108L19.3206 14.8902C19.3432 14.5286 19.5014 14.1669 19.7274 13.8957L20.5186 12.9689C21.7166 11.6353 21.7166 9.73657 20.609 8.44815ZM19.3206 11.8161L18.5294 12.7429C18.0547 13.308 17.7609 13.9861 17.7157 14.732L17.6253 15.9526C17.5575 16.8115 16.8793 17.4897 16.0204 17.5575L14.7998 17.6479C14.0765 17.7157 13.3758 17.9869 12.8107 18.4616L11.8387 19.298C11.1832 19.863 10.2112 19.863 9.55573 19.298L8.62898 18.5068C8.06389 18.0321 7.38577 17.7383 6.63985 17.6931L5.41925 17.6027C4.56031 17.5349 3.88219 16.8567 3.81438 15.9978L3.72397 14.7772C3.65616 14.0539 3.38491 13.3532 2.91023 12.7881L2.0965 11.8161C1.5314 11.1606 1.5314 10.1886 2.0965 9.53313L2.88763 8.60638C3.36231 8.04128 3.65616 7.36317 3.70136 6.61725L3.79178 5.39665C3.85959 4.5377 4.5377 3.85959 5.39664 3.79178L6.61725 3.70136C7.34057 3.63355 8.04128 3.36231 8.60638 2.88763L9.53313 2.0965C9.87219 1.82525 10.2564 1.66703 10.6633 1.66703C11.0702 1.66703 11.4771 1.80265 11.7935 2.0965L12.7203 2.88763C13.2854 3.36231 13.9635 3.65616 14.7094 3.70136L15.93 3.79178C16.7889 3.85959 17.467 4.5377 17.5349 5.39665L17.6253 6.61725C17.6931 7.34057 17.9643 8.04128 18.439 8.60638L19.2301 9.53313C19.8856 10.2112 19.8856 11.1606 19.3206 11.8161Z" fill="#016BE3"/>
<path d="M11.0928 9.96246H10.3016C9.69135 9.96246 9.21667 9.44258 9.28448 8.83228C9.32969 8.28979 9.82697 7.90552 10.3695 7.90552H11.2736C11.6127 7.90552 11.9065 8.15417 11.9743 8.47062C11.9969 8.56103 12.0873 8.62884 12.1778 8.62884H13.2175C13.3305 8.62884 13.4436 8.53843 13.421 8.40281C13.3079 7.36303 12.4716 6.5493 11.4092 6.48149V5.44171C11.4092 5.3287 11.3188 5.23828 11.2058 5.23828H10.166C10.053 5.23828 9.96259 5.3287 9.96259 5.44171V6.48149C8.67418 6.66232 7.70222 7.81511 7.83784 9.17133C7.97346 10.4597 9.12625 11.3865 10.4147 11.3865H11.0928C11.7031 11.3865 12.1778 11.9064 12.1099 12.5167C12.0647 13.0592 11.5675 13.4434 11.025 13.4434H10.1208C9.78176 13.4434 9.48791 13.1948 9.4201 12.8783C9.3975 12.7879 9.30708 12.7201 9.21667 12.7201H8.17689C8.06388 12.7201 7.95086 12.8105 7.97346 12.9462C8.08648 13.9859 8.92282 14.7997 9.98519 14.8675V15.9073C9.98519 16.0203 10.0756 16.1107 10.1886 16.1107H11.2284C11.3414 16.1107 11.4318 16.0203 11.4318 15.9073V14.8449C12.5394 14.664 13.4436 13.8051 13.5566 12.6523C13.6922 11.2057 12.5394 9.96246 11.0928 9.96246Z" fill="#016BE3"/>
</svg>
