<svg width="33" height="34" viewBox="0 0 33 34" fill="none" xmlns="http://www.w3.org/2000/svg">
<path d="M31.6632 13.5299H29.196C28.9256 12.5159 28.4862 11.5358 27.9455 10.5894L29.703 8.86575C30.1423 8.42638 30.1423 7.75042 29.703 7.31105L26.357 3.96505C25.9176 3.52568 25.2416 3.52568 24.8023 3.96505L23.0448 5.72254C22.0984 5.18178 21.1183 4.7762 20.1043 4.50582V2.03857C20.1043 1.464 19.6312 0.957031 19.0228 0.957031H14.3249C13.7165 0.957031 13.2434 1.464 13.2434 2.03857V4.53961C12.2294 4.81 11.2493 5.21557 10.3029 5.75634L8.57924 3.99885C8.13986 3.59327 7.4639 3.59327 7.02453 3.99885L3.67853 7.34484C3.23916 7.78422 3.23916 8.46018 3.67853 8.89955L5.43603 10.657C4.89526 11.6034 4.48969 12.5835 4.2193 13.5975H1.71825C1.14369 13.5975 0.636719 14.0706 0.636719 14.679V19.4107C0.636719 20.0191 1.14369 20.4922 1.71825 20.4922H4.2193C4.35449 20.9654 4.48969 21.4048 4.65868 21.8442L9.62697 16.9097C9.01861 15.9971 8.84962 14.848 9.2214 13.7665C9.39039 13.2595 9.69457 12.7525 10.0663 12.3807C10.6071 11.84 11.3507 11.4344 12.128 11.3668L19.2594 10.4205C19.3946 10.3867 19.5636 10.3867 19.7326 10.3867C20.6789 10.3867 21.5914 10.7584 22.2674 11.4344C23.0448 12.2117 23.4165 13.3271 23.2813 14.4424L22.335 21.5738C22.1322 22.9257 21.2197 24.041 19.9353 24.4804C19.5636 24.6156 19.158 24.6494 18.7862 24.6494C18.0765 24.6494 17.4005 24.4466 16.8259 24.0748L11.8576 29.0431C12.297 29.2121 12.7702 29.3811 13.2434 29.5163V31.9836C13.2434 32.5919 13.7165 33.0651 14.3249 33.0651H19.0566C19.665 33.0651 20.1381 32.5919 20.1381 31.9836V29.5163C21.1521 29.2459 22.1322 28.8065 23.0786 28.2658L24.8023 30.0233C25.2416 30.4626 25.9176 30.4626 26.357 30.0233L29.703 26.6773C30.1423 26.2379 30.1423 25.5619 29.703 25.1226L27.9455 23.3651C28.4862 22.4187 28.8918 21.4386 29.1622 20.4247H31.6294C32.2378 20.4247 32.711 19.9515 32.711 19.3431V14.6452C32.7448 14.0368 32.2716 13.5299 31.6632 13.5299Z" fill="white"/>
<path d="M18.1457 21.7433C18.3823 21.9798 18.7541 22.0812 19.0583 21.946C19.3962 21.8447 19.599 21.5405 19.6666 21.2025L20.613 14.0711C20.6468 13.8007 20.5454 13.5304 20.3426 13.3276C20.1398 13.1248 19.8694 13.0234 19.599 13.0572L12.4677 14.0035C12.2649 14.0373 12.0959 14.1049 11.9607 14.2739C11.8593 14.3753 11.7917 14.4767 11.7579 14.6119C11.6565 14.9499 11.7241 15.2879 11.9607 15.5244L13.3464 16.9102L4.18716 26.137C3.91678 26.4412 3.91678 26.8806 4.18716 27.1847L6.51922 29.5168C6.7896 29.7872 7.26278 29.7872 7.56696 29.5168L16.76 20.3237L18.1457 21.7433Z" fill="#CFE3F9"/>
</svg>
