<svg width="37" height="31" viewBox="0 0 37 31" fill="none" xmlns="http://www.w3.org/2000/svg">
<path d="M18.9264 6.57806C19.8754 6.57806 20.7865 6.95766 21.4697 7.64093C21.8873 8.05849 22.2289 8.58992 22.3808 9.19728C23.3677 8.28624 24.013 6.95766 24.013 5.47723C24.013 2.66821 21.7355 0.390625 18.9264 0.390625C16.1174 0.390625 13.8398 2.66821 13.8398 5.47723C13.8398 6.95766 14.4852 8.28624 15.4721 9.19728C15.9276 7.71685 17.2942 6.57806 18.9264 6.57806Z" fill="#016BE3"/>
<path d="M5.98504 10.5638C8.79429 10.5638 11.0716 8.28648 11.0716 5.47723C11.0716 2.66797 8.79429 0.390625 5.98504 0.390625C3.17579 0.390625 0.898438 2.66797 0.898438 5.47723C0.898438 8.28648 3.17579 10.5638 5.98504 10.5638Z" fill="#016BE3"/>
<path d="M31.8757 10.5638C34.6849 10.5638 36.9623 8.28648 36.9623 5.47723C36.9623 2.66797 34.6849 0.390625 31.8757 0.390625C29.0664 0.390625 26.7891 2.66797 26.7891 5.47723C26.7891 8.28648 29.0664 10.5638 31.8757 10.5638Z" fill="#016BE3"/>
<path d="M28.9493 17.3955C28.304 17.3955 27.7346 17.7371 27.4309 18.2306V18.1926C27.4309 17.2057 26.6337 16.3706 25.6088 16.3706C24.9635 16.3706 24.3941 16.7122 24.0904 17.2057V17.1677C24.0904 16.1808 23.2933 15.3457 22.2684 15.3457C21.6231 15.3457 21.0537 15.6873 20.75 16.1808V10.1072C20.75 9.61375 20.5602 9.15823 20.2186 8.81659C19.8769 8.47495 19.4214 8.28516 18.9279 8.28516C17.941 8.28516 17.1059 9.08231 17.1059 10.1072V21.9507C17.1059 22.0645 17.0299 22.1405 16.954 22.1784C16.8401 22.2164 16.7642 22.2164 16.6883 22.1404L14.8662 20.3184C14.2589 19.711 13.2719 19.5971 12.5507 20.0906C12.1331 20.3943 11.8295 20.8498 11.7535 21.3433C11.6776 21.8368 11.8295 22.3682 12.1711 22.7858L16.7263 28.2899C18.0169 29.8463 19.9149 30.7573 21.9647 30.7573H24.8117C26.406 30.7573 27.8864 30.15 29.0252 29.0112C30.164 27.8724 30.7713 26.3919 30.7713 24.7976V19.1416C30.7713 18.2306 29.9742 17.3955 28.9493 17.3955Z" fill="white"/>
</svg>
