<svg width="14" height="14" viewBox="0 0 14 14" fill="none" xmlns="http://www.w3.org/2000/svg">
<path opacity="0.7" d="M7.00233 0C3.14254 0 0 3.14132 0 7C0 10.8585 3.14236 14 7.00233 14C10.8621 14 14 10.8587 14 7C14 3.14149 10.8621 0 7.00233 0ZM6.87532 3.46884C7.28966 3.46884 7.62553 3.80461 7.62553 4.2188C7.62553 4.633 7.28966 4.96877 6.87532 4.96877C6.46099 4.96877 6.12511 4.633 6.12511 4.2188C6.12511 3.80461 6.46081 3.46884 6.87532 3.46884ZM8.07856 11.1128H5.92144V9.9506H6.40277V7.08166H5.92144V5.91947H7.56534V9.9506H8.07856V11.1128Z" fill="#414141"/>
</svg>
