<svg width="71" height="68" viewBox="0 0 71 68" fill="none" xmlns="http://www.w3.org/2000/svg">
<rect x="0.166992" y="0.429199" width="65.9479" height="30.3004" fill="#F12922"/>
<rect x="0.166992" y="21.8174" width="65.9479" height="10.6943" fill="#262223"/>
<path d="M3.84204 20.4736V7.71502H10.4128C11.6312 7.71502 12.5625 7.81946 13.2065 8.02833C13.8505 8.2372 14.3698 8.62593 14.7643 9.19453C15.1589 9.75733 15.3561 10.4449 15.3561 11.2571C15.3561 11.965 15.2053 12.5771 14.9036 13.0935C14.6019 13.6041 14.187 14.0189 13.659 14.338C13.3225 14.5411 12.8613 14.7093 12.2753 14.8428C12.7452 14.9994 13.0875 15.1561 13.3022 15.3127C13.4473 15.4172 13.6561 15.6406 13.9288 15.9829C14.2073 16.3252 14.393 16.5892 14.4858 16.7749L16.3918 20.4736H11.9358L9.82972 16.5747C9.56282 16.0699 9.32494 15.7421 9.11607 15.5912C8.83177 15.394 8.50976 15.2953 8.15003 15.2953H7.80191V20.4736H3.84204ZM7.80191 12.8846H9.46419C9.64405 12.8846 9.99217 12.8266 10.5086 12.7105C10.7696 12.6583 10.9814 12.5249 11.1439 12.3102C11.3121 12.0955 11.3963 11.8489 11.3963 11.5705C11.3963 11.1585 11.2657 10.8423 11.0046 10.6218C10.7435 10.4013 10.2533 10.2911 9.53381 10.2911H7.80191V12.8846ZM18.0993 7.71502H28.6648V10.4391H22.0505V12.4669H28.1861V15.0691H22.0505V17.5842H28.8562V20.4736H18.0993V7.71502ZM31.4863 7.71502H37.3434C38.498 7.71502 39.4292 7.87167 40.1371 8.18498C40.8507 8.49829 41.4396 8.94795 41.9038 9.53395C42.3679 10.12 42.7045 10.8017 42.9133 11.5792C43.1222 12.3566 43.2266 13.1805 43.2266 14.0508C43.2266 15.4143 43.07 16.4731 42.7567 17.2274C42.4492 17.9759 42.0198 18.6054 41.4686 19.116C40.9174 19.6207 40.3256 19.9573 39.6932 20.1255C38.8287 20.3576 38.0455 20.4736 37.3434 20.4736H31.4863V7.71502ZM35.4287 10.6044V17.5755H36.3948C37.2187 17.5755 37.8047 17.4856 38.1528 17.3057C38.5009 17.1201 38.7736 16.801 38.9709 16.3484C39.1681 15.89 39.2668 15.1503 39.2668 14.1291C39.2668 12.7773 39.0463 11.8519 38.6053 11.3529C38.1644 10.8539 37.4333 10.6044 36.4122 10.6044H35.4287Z" fill="white"/>
<path d="M12.4973 39.536V52.5122H8.91169V44.0094C8.33149 44.4503 7.76869 44.8071 7.22331 45.0798C6.68372 45.3525 6.00488 45.6136 5.1868 45.8631V42.9563C6.39362 42.5676 7.33064 42.1005 7.99787 41.5551C8.6651 41.0097 9.18728 40.3367 9.56442 39.536H12.4973ZM16.7984 46.0807C16.7984 43.6554 17.2335 41.9584 18.1038 40.9894C18.9799 40.0205 20.3115 39.536 22.0985 39.536C22.9572 39.536 23.6621 39.6434 24.2133 39.858C24.7645 40.0669 25.2142 40.3425 25.5623 40.6848C25.9104 41.0213 26.1831 41.3782 26.3804 41.7553C26.5834 42.1266 26.7459 42.5618 26.8677 43.0607C27.1056 44.0123 27.2246 45.0044 27.2246 46.0372C27.2246 48.3522 26.8329 50.0464 26.0497 51.1197C25.2664 52.1931 23.9174 52.7298 22.0028 52.7298C20.9294 52.7298 20.062 52.5586 19.4006 52.2163C18.7391 51.874 18.1966 51.3721 17.7731 50.7107C17.4656 50.2407 17.2248 49.5996 17.0507 48.7873C16.8825 47.9692 16.7984 47.067 16.7984 46.0807ZM20.3144 46.0894C20.3144 47.7139 20.4565 48.825 20.7408 49.4226C21.0309 50.0144 21.4487 50.3103 21.9941 50.3103C22.3538 50.3103 22.6642 50.1856 22.9253 49.9361C23.1922 49.6808 23.3865 49.2805 23.5084 48.7351C23.636 48.1897 23.6998 47.3397 23.6998 46.1851C23.6998 44.4909 23.5548 43.3537 23.2647 42.7735C22.9804 42.1875 22.551 41.8945 21.9766 41.8945C21.3906 41.8945 20.9671 42.1933 20.706 42.7909C20.4449 43.3827 20.3144 44.4822 20.3144 46.0894ZM29.1323 46.0807C29.1323 43.6554 29.5674 41.9584 30.4377 40.9894C31.3138 40.0205 32.6454 39.536 34.4324 39.536C35.2911 39.536 35.996 39.6434 36.5472 39.858C37.0984 40.0669 37.5481 40.3425 37.8962 40.6848C38.2443 41.0213 38.517 41.3782 38.7143 41.7553C38.9173 42.1266 39.0798 42.5618 39.2016 43.0607C39.4395 44.0123 39.5585 45.0044 39.5585 46.0372C39.5585 48.3522 39.1668 50.0464 38.3836 51.1197C37.6003 52.1931 36.2513 52.7298 34.3367 52.7298C33.2633 52.7298 32.3959 52.5586 31.7345 52.2163C31.073 51.874 30.5305 51.3721 30.107 50.7107C29.7995 50.2407 29.5587 49.5996 29.3847 48.7873C29.2164 47.9692 29.1323 47.067 29.1323 46.0807ZM32.6483 46.0894C32.6483 47.7139 32.7904 48.825 33.0747 49.4226C33.3648 50.0144 33.7826 50.3103 34.328 50.3103C34.6877 50.3103 34.9981 50.1856 35.2592 49.9361C35.5261 49.6808 35.7204 49.2805 35.8423 48.7351C35.9699 48.1897 36.0338 47.3397 36.0338 46.1851C36.0338 44.4909 35.8887 43.3537 35.5986 42.7735C35.3143 42.1875 34.885 41.8945 34.3106 41.8945C33.7246 41.8945 33.301 42.1933 33.0399 42.7909C32.7788 43.3827 32.6483 44.4822 32.6483 46.0894Z" fill="#B5B4B9"/>
<path d="M4.2364 24.9012H6.01051V26.9103H7.9491V24.9012H9.73104V30.6426H7.9491V28.3202H6.01051V30.6426H4.2364V24.9012ZM10.906 24.9012H15.6604V26.127H12.684V27.0395H15.445V28.2105H12.684V29.3423H15.7466V30.6426H10.906V24.9012ZM16.7296 30.6426V24.9012H19.6864C20.2347 24.9012 20.6538 24.9482 20.9436 25.0422C21.2334 25.1362 21.4671 25.3111 21.6446 25.567C21.8221 25.8202 21.9109 26.1296 21.9109 26.4952C21.9109 26.8137 21.843 27.0891 21.7073 27.3215C21.5715 27.5513 21.3848 27.7379 21.1472 27.8815C20.9958 27.9729 20.7882 28.0486 20.5245 28.1087C20.736 28.1792 20.89 28.2497 20.9866 28.3202C21.0519 28.3672 21.1459 28.4677 21.2686 28.6217C21.3939 28.7758 21.4775 28.8946 21.5193 28.9781L22.377 30.6426H20.3718L19.424 28.8881C19.3039 28.6609 19.1969 28.5134 19.1029 28.4455C18.9749 28.3567 18.83 28.3123 18.6682 28.3123H18.5115V30.6426H16.7296ZM18.5115 27.2275H19.2595C19.3405 27.2275 19.4971 27.2014 19.7295 27.1492C19.847 27.1257 19.9423 27.0656 20.0154 26.969C20.0911 26.8724 20.129 26.7615 20.129 26.6361C20.129 26.4508 20.0702 26.3085 19.9527 26.2093C19.8352 26.1101 19.6146 26.0604 19.2909 26.0604H18.5115V27.2275ZM22.9722 30.6426V24.9012H25.9291C26.4774 24.9012 26.8964 24.9482 27.1862 25.0422C27.476 25.1362 27.7097 25.3111 27.8873 25.567C28.0648 25.8202 28.1536 26.1296 28.1536 26.4952C28.1536 26.8137 28.0857 27.0891 27.9499 27.3215C27.8142 27.5513 27.6275 27.7379 27.3899 27.8815C27.2385 27.9729 27.0309 28.0486 26.7672 28.1087C26.9787 28.1792 27.1327 28.2497 27.2293 28.3202C27.2946 28.3672 27.3886 28.4677 27.5113 28.6217C27.6366 28.7758 27.7202 28.8946 27.7619 28.9781L28.6196 30.6426H26.6144L25.6667 28.8881C25.5466 28.6609 25.4395 28.5134 25.3456 28.4455C25.2176 28.3567 25.0727 28.3123 24.9108 28.3123H24.7542V30.6426H22.9722ZM24.7542 27.2275H25.5022C25.5831 27.2275 25.7398 27.2014 25.9722 27.1492C26.0897 27.1257 26.185 27.0656 26.2581 26.969C26.3338 26.8724 26.3716 26.7615 26.3716 26.6361C26.3716 26.4508 26.3129 26.3085 26.1954 26.2093C26.0779 26.1101 25.8573 26.0604 25.5335 26.0604H24.7542V27.2275ZM29.2619 24.9012H31.0399V30.6426H29.2619V24.9012ZM32.3284 24.9012H33.985L36.1469 28.0774V24.9012H37.8191V30.6426H36.1469L33.9968 27.4899V30.6426H32.3284V24.9012ZM41.8843 28.563V27.3685H44.6258V29.8162C44.101 30.1739 43.6362 30.418 43.2315 30.5486C42.8295 30.6765 42.3517 30.7405 41.7982 30.7405C41.1167 30.7405 40.5606 30.6243 40.1298 30.3919C39.7016 30.1596 39.3687 29.8136 39.1311 29.3541C38.8961 28.8946 38.7786 28.3672 38.7786 27.7719C38.7786 27.1453 38.9079 26.6009 39.1664 26.1388C39.4248 25.674 39.8034 25.3216 40.3021 25.0814C40.6911 24.896 41.2146 24.8033 41.8726 24.8033C42.507 24.8033 42.9809 24.8607 43.2942 24.9756C43.6101 25.0905 43.8712 25.2693 44.0775 25.5122C44.2863 25.7524 44.443 26.0578 44.5474 26.4286L42.836 26.7341C42.7655 26.5174 42.6454 26.3516 42.4757 26.2367C42.3086 26.1218 42.0945 26.0644 41.8334 26.0644C41.4444 26.0644 41.1337 26.2001 40.9013 26.4717C40.6715 26.7406 40.5567 27.1675 40.5567 27.7523C40.5567 28.3737 40.6729 28.8176 40.9052 29.0839C41.1402 29.3502 41.4666 29.4833 41.8843 29.4833C42.0827 29.4833 42.272 29.4546 42.4522 29.3972C42.6323 29.3397 42.8386 29.2418 43.071 29.1035V28.563H41.8843Z" fill="#AFAFAF"/>
<path d="M5.95507 57.2581H7.6391L8.24614 60.4656L9.13123 57.2581H10.8113L11.7004 60.4656L12.3074 57.2581H13.9836L12.7186 62.9995H10.9798L9.97325 59.3847L8.97066 62.9995H7.2318L5.95507 57.2581ZM14.6376 57.2581H16.4157V62.9995H14.6376V57.2581ZM17.7041 57.2581H19.3607L21.5226 60.4343V57.2581H23.1949V62.9995H21.5226L19.3725 59.8468V62.9995H17.7041V57.2581ZM24.3854 57.2581H26.0421L28.2039 60.4343V57.2581H29.8762V62.9995H28.2039L26.0538 59.8468V62.9995H24.3854V57.2581ZM31.0511 57.2581H35.8055V58.484H32.8291V59.3965H35.5901V60.5675H32.8291V61.6993H35.8917V62.9995H31.0511V57.2581ZM36.8747 62.9995V57.2581H39.8315C40.3798 57.2581 40.7989 57.3051 41.0887 57.3991C41.3785 57.4931 41.6122 57.668 41.7897 57.9239C41.9673 58.1772 42.056 58.4866 42.056 58.8521C42.056 59.1706 41.9881 59.4461 41.8524 59.6784C41.7166 59.9082 41.5299 60.0949 41.2923 60.2385C41.1409 60.3299 40.9333 60.4056 40.6696 60.4656C40.8811 60.5361 41.0352 60.6066 41.1318 60.6771C41.197 60.7241 41.291 60.8246 41.4137 60.9787C41.5391 61.1327 41.6226 61.2515 41.6644 61.3351L42.5221 62.9995H40.5169L39.5691 61.245C39.449 61.0178 39.342 60.8703 39.248 60.8024C39.1201 60.7137 38.9752 60.6693 38.8133 60.6693H38.6566V62.9995H36.8747ZM38.6566 59.5845H39.4047C39.4856 59.5845 39.6422 59.5583 39.8746 59.5061C39.9921 59.4826 40.0874 59.4226 40.1605 59.326C40.2362 59.2294 40.2741 59.1184 40.2741 58.9931C40.2741 58.8077 40.2153 58.6654 40.0978 58.5662C39.9804 58.467 39.7597 58.4174 39.436 58.4174H38.6566V59.5845Z" fill="#B5B4B9"/>
<rect x="0.612586" y="0.874793" width="65.1576" height="65.737" stroke="#696878" stroke-width="0.891188"/>
<rect x="50.0747" y="0.429199" width="16.0414" height="66.8391" fill="#FABC23"/>
<path d="M54.4649 12.2342V8.19247L52.5693 7.63635V4.00981L64.0521 8.32563V12.195L52.5693 16.5108V12.7981L54.4649 12.2342ZM56.9478 11.49L61.0757 10.2211L56.9478 8.96008V11.49ZM56.3682 22.2491L56.5797 25.625C56.0314 25.6981 55.6136 25.8469 55.3264 26.0714C54.8617 26.4369 54.6293 26.9591 54.6293 27.638C54.6293 28.1445 54.7468 28.5335 54.9818 28.805C55.222 29.0818 55.4988 29.2202 55.8121 29.2202C56.1097 29.2202 56.376 29.0896 56.611 28.8285C56.846 28.5674 57.0679 27.9617 57.2768 27.0113C57.6267 25.4552 58.0914 24.3456 58.671 23.6824C59.2506 23.014 59.9895 22.6799 60.8877 22.6799C61.4777 22.6799 62.0339 22.8496 62.556 23.189C63.0834 23.5336 63.496 24.048 63.7936 24.732C64.0965 25.4213 64.2479 26.3638 64.2479 27.5596C64.2479 29.027 63.9738 30.1444 63.4255 30.912C62.8824 31.6849 62.0156 32.1444 60.825 32.2906L60.6292 28.946C61.1462 28.8572 61.5221 28.6693 61.7571 28.3821C61.9921 28.1001 62.1096 27.7085 62.1096 27.2072C62.1096 26.7946 62.0208 26.4839 61.8433 26.2751C61.6709 26.0662 61.4595 25.9618 61.2088 25.9618C61.0261 25.9618 60.8616 26.0479 60.7154 26.2202C60.5639 26.3873 60.4229 26.7842 60.2924 27.4108C59.9582 28.9617 59.6188 30.0713 59.2741 30.7397C58.9347 31.4133 58.5118 31.9016 58.0052 32.2044C57.4987 32.5125 56.9322 32.6666 56.3055 32.6666C55.5693 32.6666 54.8904 32.4629 54.269 32.0556C53.6476 31.6483 53.1751 31.0791 52.8513 30.3481C52.5328 29.617 52.3735 28.6954 52.3735 27.5831C52.3735 25.6302 52.7495 24.2777 53.5014 23.5258C54.2534 22.7738 55.209 22.3483 56.3682 22.2491ZM64.0521 39.8147V43.3707H52.5693V39.8147H64.0521ZM54.4649 58.2028V54.1611L52.5693 53.605V49.9784L64.0521 54.2942V58.1636L52.5693 62.4794V58.7667L54.4649 58.2028ZM56.9478 57.4586L61.0757 56.1897L56.9478 54.9287V57.4586Z" fill="#252122"/>
</svg>
