<svg width="163" height="57" viewBox="0 0 163 57" fill="none" xmlns="http://www.w3.org/2000/svg">
<path d="M24.4888 1.58267C18.4277 0.825031 6.1793 5.37084 0.812716 7.73845C-4.11191 35.0133 14.5448 50.9868 24.4888 55.5642C47.2179 46.8514 49.7433 20.6814 48.1649 8.68552C39.6415 3.47678 32.0652 2.52971 24.4888 1.58267Z" fill="#61BE7D"/>
<path d="M48.1649 8.68538C39.6415 3.47664 32.0651 2.52956 24.4888 1.58252V55.564C47.2178 46.8512 49.7433 20.6813 48.1649 8.68538Z" fill="#56AA6F"/>
<path d="M29.225 53.197L12.1782 36.1502L21.1751 18.6299H35.8543L47.2188 26.6798C44.1883 43.3477 33.9602 51.3029 29.225 53.197Z" fill="#4C9964"/>
<path fill-rule="evenodd" clip-rule="evenodd" d="M27.6172 18.6291H21.3686C21.5971 17.1088 22.9089 15.943 24.4929 15.943C26.077 15.943 27.3888 17.1088 27.6172 18.6291ZM16.2024 18.6291H18.3551C18.5968 15.4506 21.2525 12.9468 24.4929 12.9468C27.7334 12.9468 30.3891 15.4506 30.6308 18.6291H32.7838C35.266 18.6291 37.2782 20.6414 37.2782 23.1235V33.0756C37.2782 35.5578 35.266 37.57 32.7838 37.57H16.2024C13.7202 37.57 11.708 35.5578 11.708 33.0756V23.1235C11.708 20.6414 13.7202 18.6291 16.2024 18.6291ZM24.9667 29.9939C26.0127 29.9939 26.8607 29.1459 26.8607 28.0998C26.8607 27.0537 26.0127 26.2057 24.9667 26.2057C23.9206 26.2057 23.0726 27.0537 23.0726 28.0998C23.0726 29.1459 23.9206 29.9939 24.9667 29.9939Z" fill="white"/>
<path d="M58.0075 9.65544C59.1061 9.65544 59.9451 9.89514 60.5244 10.3745C61.1136 10.844 61.4083 11.568 61.4083 12.5468V18H59.8502L59.4158 16.8914H59.3558C59.0063 17.3308 58.6367 17.6504 58.2472 17.8502C57.8577 18.0499 57.3234 18.1498 56.6442 18.1498C55.9151 18.1498 55.3109 17.9401 54.8315 17.5206C54.3521 17.0911 54.1124 16.437 54.1124 15.5581C54.1124 14.6891 54.417 14.0499 55.0262 13.6405C55.6355 13.221 56.5493 12.9913 57.7678 12.9513L59.191 12.9064V12.5468C59.191 12.1174 59.0762 11.8028 58.8465 11.603C58.6267 11.4033 58.3171 11.3034 57.9176 11.3034C57.5181 11.3034 57.1286 11.3633 56.7491 11.4832C56.3696 11.593 55.99 11.7328 55.6105 11.9026L54.8764 10.3895C55.3159 10.1598 55.8003 9.98003 56.3296 9.85019C56.8689 9.72036 57.4282 9.65544 58.0075 9.65544ZM58.3221 14.2397C57.603 14.2597 57.1036 14.3895 56.824 14.6292C56.5443 14.8689 56.4045 15.1835 56.4045 15.573C56.4045 15.9126 56.5044 16.1573 56.7041 16.3071C56.9039 16.4469 57.1636 16.5169 57.4832 16.5169C57.9626 16.5169 58.3671 16.377 58.6967 16.0974C59.0262 15.8077 59.191 15.4032 59.191 14.8839V14.2097L58.3221 14.2397ZM68.3373 9.67042C69.2162 9.67042 69.9203 9.91012 70.4497 10.3895C70.979 10.8589 71.2437 11.618 71.2437 12.6667V18H69.0115V13.221C69.0115 12.6317 68.9066 12.1923 68.6969 11.9026C68.4871 11.603 68.1526 11.4532 67.6931 11.4532C67.014 11.4532 66.5496 11.6879 66.2999 12.1573C66.0502 12.6167 65.9253 13.2809 65.9253 14.1498V18H63.6931V9.82023H65.401L65.7006 10.8689H65.8205C66.0802 10.4494 66.4347 10.1448 66.8841 9.95506C67.3436 9.7653 67.828 9.67042 68.3373 9.67042ZM76.131 18.1498C75.2221 18.1498 74.478 17.7953 73.8988 17.0861C73.3295 16.367 73.0448 15.3134 73.0448 13.9251C73.0448 12.5268 73.3345 11.4682 73.9138 10.7491C74.493 10.03 75.2521 9.67042 76.1909 9.67042C76.7802 9.67042 77.2646 9.78527 77.6441 10.015C78.0236 10.2447 78.3232 10.5293 78.543 10.8689H78.6179C78.5879 10.7091 78.5529 10.4794 78.513 10.1798C78.473 9.87017 78.4531 9.55556 78.4531 9.23596V6.61424H80.6853V18H78.9774L78.543 16.9363H78.4531C78.2333 17.2759 77.9387 17.5655 77.5692 17.8052C77.1996 18.035 76.7202 18.1498 76.131 18.1498ZM76.91 16.367C77.5292 16.367 77.9637 16.1873 78.2134 15.8277C78.4631 15.4582 78.5929 14.9089 78.6029 14.1798V13.9401C78.6029 13.1411 78.478 12.5318 78.2284 12.1124C77.9887 11.6929 77.5392 11.4832 76.88 11.4832C76.3907 11.4832 76.0061 11.6979 75.7265 12.1273C75.4468 12.5468 75.307 13.1561 75.307 13.9551C75.307 14.7541 75.4468 15.3583 75.7265 15.7678C76.0061 16.1673 76.4006 16.367 76.91 16.367ZM87.5888 9.67042C87.6987 9.67042 87.8285 9.67541 87.9783 9.6854C88.1282 9.69539 88.248 9.71037 88.3379 9.73034L88.1731 11.8277C88.1032 11.8077 87.9983 11.7928 87.8585 11.7828C87.7287 11.7628 87.6138 11.7528 87.5139 11.7528C87.1344 11.7528 86.7699 11.8227 86.4203 11.9626C86.0707 12.0924 85.7861 12.3071 85.5664 12.6067C85.3566 12.9064 85.2518 13.3159 85.2518 13.8352V18H83.0196V9.82023H84.7124L85.042 11.1985H85.1469C85.3866 10.779 85.7162 10.4195 86.1357 10.1199C86.5551 9.82023 87.0395 9.67042 87.5888 9.67042ZM96.9607 13.8951C96.9607 15.2534 96.6011 16.3021 95.882 17.0412C95.1729 17.7803 94.2041 18.1498 92.9757 18.1498C92.2166 18.1498 91.5375 17.985 90.9382 17.6554C90.3489 17.3258 89.8845 16.8464 89.5449 16.2172C89.2054 15.578 89.0356 14.804 89.0356 13.8951C89.0356 12.5368 89.3901 11.4931 90.0992 10.7641C90.8084 10.035 91.7821 9.67042 93.0206 9.67042C93.7896 9.67042 94.4688 9.83521 95.058 10.1648C95.6473 10.4944 96.1117 10.9738 96.4513 11.603C96.7909 12.2222 96.9607 12.9863 96.9607 13.8951ZM91.3127 13.8951C91.3127 14.7041 91.4426 15.3184 91.7022 15.7378C91.9719 16.1473 92.4064 16.3521 93.0056 16.3521C93.5949 16.3521 94.0193 16.1473 94.279 15.7378C94.5487 15.3184 94.6835 14.7041 94.6835 13.8951C94.6835 13.0861 94.5487 12.4819 94.279 12.0824C94.0193 11.6729 93.5899 11.4682 92.9906 11.4682C92.4014 11.4682 91.9719 11.6729 91.7022 12.0824C91.4426 12.4819 91.3127 13.0861 91.3127 13.8951ZM99.9291 6.61424C100.259 6.61424 100.543 6.69414 100.783 6.85394C101.023 7.00375 101.143 7.2884 101.143 7.70787C101.143 8.11736 101.023 8.402 100.783 8.5618C100.543 8.7216 100.259 8.8015 99.9291 8.8015C99.5895 8.8015 99.2999 8.7216 99.0602 8.5618C98.8304 8.402 98.7156 8.11736 98.7156 7.70787C98.7156 7.2884 98.8304 7.00375 99.0602 6.85394C99.2999 6.69414 99.5895 6.61424 99.9291 6.61424ZM101.038 9.82023V18H98.8055V9.82023H101.038ZM105.962 18.1498C105.053 18.1498 104.309 17.7953 103.73 17.0861C103.16 16.367 102.876 15.3134 102.876 13.9251C102.876 12.5268 103.165 11.4682 103.745 10.7491C104.324 10.03 105.083 9.67042 106.022 9.67042C106.611 9.67042 107.095 9.78527 107.475 10.015C107.854 10.2447 108.154 10.5293 108.374 10.8689H108.449C108.419 10.7091 108.384 10.4794 108.344 10.1798C108.304 9.87017 108.284 9.55556 108.284 9.23596V6.61424H110.516V18H108.808L108.374 16.9363H108.284C108.064 17.2759 107.77 17.5655 107.4 17.8052C107.03 18.035 106.551 18.1498 105.962 18.1498ZM106.741 16.367C107.36 16.367 107.795 16.1873 108.044 15.8277C108.294 15.4582 108.424 14.9089 108.434 14.1798V13.9401C108.434 13.1411 108.309 12.5318 108.059 12.1124C107.82 11.6929 107.37 11.4832 106.711 11.4832C106.222 11.4832 105.837 11.6979 105.557 12.1273C105.278 12.5468 105.138 13.1561 105.138 13.9551C105.138 14.7541 105.278 15.3583 105.557 15.7678C105.837 16.1673 106.231 16.367 106.741 16.367Z" fill="black"/>
<path d="M56.5544 25.8506C57.683 25.8506 58.5769 26.1752 59.2361 26.8244C59.8952 27.4636 60.2248 28.3774 60.2248 29.5659V30.6446H54.9514C54.9714 31.2738 55.1562 31.7682 55.5057 32.1277C55.8653 32.4873 56.3596 32.6671 56.9889 32.6671C57.5182 32.6671 57.9976 32.6171 58.4271 32.5173C58.8565 32.4074 59.301 32.2426 59.7604 32.0229V33.7457C59.3609 33.9455 58.9364 34.0903 58.487 34.1802C58.0475 34.2801 57.5132 34.33 56.884 34.33C56.065 34.33 55.3409 34.1802 54.7117 33.8806C54.0825 33.5709 53.5881 33.1065 53.2286 32.4873C52.869 31.8681 52.6892 31.089 52.6892 30.1502C52.6892 29.1914 52.849 28.3974 53.1686 27.7682C53.4982 27.129 53.9527 26.6496 54.5319 26.33C55.1112 26.0104 55.7854 25.8506 56.5544 25.8506ZM56.5694 27.4386C56.1399 27.4386 55.7804 27.5784 55.4907 27.8581C55.2111 28.1377 55.0463 28.5722 54.9964 29.1615H58.1274C58.1175 28.6621 57.9876 28.2526 57.7379 27.933C57.4882 27.6034 57.0987 27.4386 56.5694 27.4386ZM66.679 25.8506C67.5579 25.8506 68.2621 26.0903 68.7914 26.5697C69.3207 27.0391 69.5854 27.7982 69.5854 28.8468V34.1802H67.3532V29.4012C67.3532 28.8119 67.2483 28.3724 67.0386 28.0828C66.8289 27.7832 66.4943 27.6334 66.0349 27.6334C65.3557 27.6334 64.8913 27.8681 64.6416 28.3375C64.3919 28.7969 64.2671 29.4611 64.2671 30.33V34.1802H62.0349V26.0004H63.7427L64.0423 27.0491H64.1622C64.4219 26.6296 64.7764 26.325 65.2259 26.1352C65.6853 25.9455 66.1697 25.8506 66.679 25.8506ZM75.3266 32.5472C75.5763 32.5472 75.816 32.5222 76.0457 32.4723C76.2754 32.4224 76.5052 32.3624 76.7349 32.2925V33.9555C76.4952 34.0553 76.1955 34.1402 75.836 34.2101C75.4864 34.29 75.1019 34.33 74.6824 34.33C74.193 34.33 73.7536 34.2501 73.3641 34.0903C72.9846 33.9305 72.6799 33.6558 72.4502 33.2663C72.2305 32.8668 72.1206 32.3175 72.1206 31.6184V27.6783H71.057V26.7345L72.2854 25.9854L72.9296 24.2626H74.3528V26.0004H76.645V27.6783H74.3528V31.6184C74.3528 31.928 74.4427 32.1627 74.6225 32.3225C74.8023 32.4723 75.037 32.5472 75.3266 32.5472ZM81.7475 25.8506C82.8761 25.8506 83.77 26.1752 84.4292 26.8244C85.0883 27.4636 85.4179 28.3774 85.4179 29.5659V30.6446H80.1445C80.1645 31.2738 80.3493 31.7682 80.6988 32.1277C81.0584 32.4873 81.5527 32.6671 82.182 32.6671C82.7113 32.6671 83.1907 32.6171 83.6202 32.5173C84.0496 32.4074 84.4941 32.2426 84.9535 32.0229V33.7457C84.554 33.9455 84.1295 34.0903 83.6801 34.1802C83.2406 34.2801 82.7063 34.33 82.0771 34.33C81.2581 34.33 80.534 34.1802 79.9048 33.8806C79.2756 33.5709 78.7812 33.1065 78.4217 32.4873C78.0621 31.8681 77.8823 31.089 77.8823 30.1502C77.8823 29.1914 78.0421 28.3974 78.3617 27.7682C78.6913 27.129 79.1458 26.6496 79.725 26.33C80.3043 26.0104 80.9785 25.8506 81.7475 25.8506ZM81.7625 27.4386C81.333 27.4386 80.9735 27.5784 80.6838 27.8581C80.4042 28.1377 80.2394 28.5722 80.1895 29.1615H83.3205C83.3106 28.6621 83.1807 28.2526 82.931 27.933C82.6813 27.6034 82.2918 27.4386 81.7625 27.4386ZM91.7972 25.8506C91.9071 25.8506 92.0369 25.8556 92.1868 25.8656C92.3366 25.8756 92.4564 25.8905 92.5463 25.9105L92.3815 28.0079C92.3116 27.9879 92.2067 27.9729 92.0669 27.963C91.9371 27.943 91.8222 27.933 91.7223 27.933C91.3428 27.933 90.9783 28.0029 90.6287 28.1427C90.2791 28.2726 89.9945 28.4873 89.7748 28.7869C89.565 29.0865 89.4602 29.496 89.4602 30.0154V34.1802H87.228V26.0004H88.9208L89.2504 27.3787H89.3553C89.595 26.9592 89.9246 26.5997 90.3441 26.3C90.7635 26.0004 91.2479 25.8506 91.7972 25.8506ZM98.5853 25.8506C99.5041 25.8506 100.248 26.2101 100.817 26.9292C101.387 27.6384 101.671 28.687 101.671 30.0753C101.671 31.4636 101.377 32.5222 100.788 33.2513C100.198 33.9704 99.4442 34.33 98.5254 34.33C97.9361 34.33 97.4667 34.2251 97.1171 34.0154C96.7676 33.7957 96.4829 33.551 96.2632 33.2813H96.1433C96.2232 33.7008 96.2632 34.1003 96.2632 34.4798V37.7757H94.031V26.0004H95.8437L96.1583 27.0641H96.2632C96.4829 26.7345 96.7775 26.4498 97.1471 26.2101C97.5166 25.9704 97.996 25.8506 98.5853 25.8506ZM97.8662 27.6334C97.2869 27.6334 96.8774 27.8131 96.6377 28.1727C96.408 28.5322 96.2832 29.0816 96.2632 29.8206V30.0603C96.2632 30.8493 96.378 31.4586 96.6077 31.888C96.8475 32.3075 97.2769 32.5173 97.8961 32.5173C98.4055 32.5173 98.78 32.3075 99.0197 31.888C99.2694 31.4586 99.3943 30.8443 99.3943 30.0453C99.3943 28.4374 98.8849 27.6334 97.8662 27.6334ZM108.081 25.8506C108.19 25.8506 108.32 25.8556 108.47 25.8656C108.62 25.8756 108.74 25.8905 108.83 25.9105L108.665 28.0079C108.595 27.9879 108.49 27.9729 108.35 27.963C108.22 27.943 108.106 27.933 108.006 27.933C107.626 27.933 107.262 28.0029 106.912 28.1427C106.562 28.2726 106.278 28.4873 106.058 28.7869C105.848 29.0865 105.744 29.496 105.744 30.0154V34.1802H103.511V26.0004H105.204L105.534 27.3787H105.639C105.878 26.9592 106.208 26.5997 106.627 26.3C107.047 26.0004 107.531 25.8506 108.081 25.8506ZM111.438 22.7944C111.767 22.7944 112.052 22.8743 112.292 23.0341C112.532 23.1839 112.651 23.4686 112.651 23.888C112.651 24.2975 112.532 24.5822 112.292 24.742C112.052 24.9018 111.767 24.9817 111.438 24.9817C111.098 24.9817 110.809 24.9018 110.569 24.742C110.339 24.5822 110.224 24.2975 110.224 23.888C110.224 23.4686 110.339 23.1839 110.569 23.0341C110.809 22.8743 111.098 22.7944 111.438 22.7944ZM112.547 26.0004V34.1802H110.314V26.0004H112.547ZM120.587 31.7532C120.587 32.5822 120.292 33.2214 119.703 33.6708C119.124 34.1103 118.255 34.33 117.096 34.33C116.527 34.33 116.037 34.29 115.628 34.2101C115.218 34.1402 114.809 34.0204 114.4 33.8506V32.0079C114.839 32.2076 115.313 32.3724 115.823 32.5023C116.332 32.6321 116.782 32.697 117.171 32.697C117.611 32.697 117.92 32.6321 118.1 32.5023C118.29 32.3724 118.385 32.2026 118.385 31.9929C118.385 31.8531 118.345 31.7282 118.265 31.6184C118.195 31.5085 118.035 31.3837 117.785 31.2438C117.536 31.104 117.146 30.9242 116.617 30.7045C116.107 30.4848 115.688 30.2701 115.358 30.0603C115.029 29.8406 114.784 29.5809 114.624 29.2813C114.464 28.9717 114.385 28.5872 114.385 28.1277C114.385 27.3687 114.679 26.7994 115.268 26.4199C115.858 26.0404 116.642 25.8506 117.62 25.8506C118.13 25.8506 118.614 25.9005 119.074 26.0004C119.533 26.1003 120.008 26.2651 120.497 26.4948L119.823 28.0978C119.423 27.928 119.044 27.7882 118.684 27.6783C118.325 27.5585 117.96 27.4985 117.591 27.4985C116.931 27.4985 116.602 27.6783 116.602 28.0379C116.602 28.1677 116.642 28.2875 116.722 28.3974C116.812 28.4973 116.976 28.6071 117.216 28.727C117.466 28.8468 117.83 29.0066 118.31 29.2064C118.779 29.3962 119.184 29.5959 119.523 29.8056C119.863 30.0054 120.122 30.2601 120.302 30.5697C120.492 30.8693 120.587 31.2638 120.587 31.7532ZM125.696 25.8506C126.825 25.8506 127.719 26.1752 128.378 26.8244C129.037 27.4636 129.367 28.3774 129.367 29.5659V30.6446H124.093C124.113 31.2738 124.298 31.7682 124.648 32.1277C125.007 32.4873 125.502 32.6671 126.131 32.6671C126.66 32.6671 127.14 32.6171 127.569 32.5173C127.999 32.4074 128.443 32.2426 128.902 32.0229V33.7457C128.503 33.9455 128.078 34.0903 127.629 34.1802C127.19 34.2801 126.655 34.33 126.026 34.33C125.207 34.33 124.483 34.1802 123.854 33.8806C123.225 33.5709 122.73 33.1065 122.371 32.4873C122.011 31.8681 121.831 31.089 121.831 30.1502C121.831 29.1914 121.991 28.3974 122.311 27.7682C122.64 27.129 123.095 26.6496 123.674 26.33C124.253 26.0104 124.927 25.8506 125.696 25.8506ZM125.711 27.4386C125.282 27.4386 124.922 27.5784 124.633 27.8581C124.353 28.1377 124.188 28.5722 124.138 29.1615H127.269C127.259 28.6621 127.13 28.2526 126.88 27.933C126.63 27.6034 126.241 27.4386 125.711 27.4386Z" fill="black"/>
<path d="M59.3563 42.0298C59.4662 42.0298 59.596 42.0348 59.7458 42.0448C59.8956 42.0548 60.0155 42.0697 60.1054 42.0897L59.9406 44.1871C59.8707 44.1671 59.7658 44.1521 59.626 44.1422C59.4961 44.1222 59.3813 44.1122 59.2814 44.1122C58.9019 44.1122 58.5373 44.1821 58.1878 44.3219C57.8382 44.4518 57.5536 44.6665 57.3338 44.9661C57.1241 45.2657 57.0192 45.6752 57.0192 46.1946V50.3594H54.787V42.1796H56.4799L56.8095 43.5579H56.9144C57.1541 43.1384 57.4837 42.7789 57.9031 42.4792C58.3226 42.1796 58.807 42.0298 59.3563 42.0298ZM64.6682 42.0298C65.7968 42.0298 66.6907 42.3544 67.3499 43.0036C68.0091 43.6428 68.3386 44.5566 68.3386 45.7451V46.8238H63.0652C63.0852 47.453 63.27 47.9474 63.6195 48.3069C63.9791 48.6665 64.4735 48.8463 65.1027 48.8463C65.632 48.8463 66.1114 48.7963 66.5409 48.6965C66.9704 48.5866 67.4148 48.4218 67.8742 48.2021V49.9249C67.4747 50.1247 67.0503 50.2695 66.6008 50.3594C66.1614 50.4593 65.627 50.5092 64.9978 50.5092C64.1788 50.5092 63.4547 50.3594 62.8255 50.0597C62.1963 49.7501 61.7019 49.2857 61.3424 48.6665C60.9828 48.0473 60.8031 47.2682 60.8031 46.3294C60.8031 45.3706 60.9629 44.5766 61.2825 43.9474C61.6121 43.3082 62.0665 42.8288 62.6458 42.5092C63.225 42.1896 63.8992 42.0298 64.6682 42.0298ZM64.6832 43.6178C64.2537 43.6178 63.8942 43.7576 63.6046 44.0373C63.3249 44.3169 63.1601 44.7514 63.1102 45.3407H66.2413C66.2313 44.8413 66.1014 44.4318 65.8518 44.1122C65.6021 43.7826 65.2125 43.6178 64.6832 43.6178ZM73.4745 50.5092C72.256 50.5092 71.3122 50.1746 70.6431 49.5054C69.9839 48.8263 69.6543 47.7626 69.6543 46.3144C69.6543 45.3157 69.8241 44.5017 70.1637 43.8725C70.5032 43.2433 70.9727 42.7789 71.5719 42.4792C72.1811 42.1796 72.8803 42.0298 73.6693 42.0298C74.2286 42.0298 74.713 42.0847 75.1225 42.1946C75.5419 42.3044 75.9065 42.4343 76.2161 42.5841L75.5569 44.3069C75.2074 44.1671 74.8778 44.0523 74.5682 43.9624C74.2685 43.8725 73.9689 43.8275 73.6693 43.8275C72.5107 43.8275 71.9315 44.6515 71.9315 46.2995C71.9315 47.1184 72.0813 47.7227 72.3809 48.1122C72.6905 48.5017 73.12 48.6965 73.6693 48.6965C74.1387 48.6965 74.5532 48.6365 74.9127 48.5167C75.2723 48.3868 75.6218 48.2121 75.9614 47.9923V49.895C75.6218 50.1147 75.2623 50.2695 74.8828 50.3594C74.5132 50.4593 74.0438 50.5092 73.4745 50.5092ZM85.2748 46.2545C85.2748 47.6128 84.9153 48.6615 84.1962 49.4006C83.4871 50.1396 82.5183 50.5092 81.2898 50.5092C80.5308 50.5092 79.8516 50.3444 79.2524 50.0148C78.6631 49.6852 78.1987 49.2058 77.8591 48.5766C77.5195 47.9374 77.3498 47.1634 77.3498 46.2545C77.3498 44.8962 77.7043 43.8525 78.4134 43.1234C79.1225 42.3943 80.0963 42.0298 81.3348 42.0298C82.1038 42.0298 82.783 42.1946 83.3722 42.5242C83.9615 42.8538 84.4259 43.3332 84.7655 43.9624C85.1051 44.5816 85.2748 45.3456 85.2748 46.2545ZM79.6269 46.2545C79.6269 47.0635 79.7567 47.6777 80.0164 48.0972C80.2861 48.5067 80.7205 48.7114 81.3198 48.7114C81.909 48.7114 82.3335 48.5067 82.5932 48.0972C82.8629 47.6777 82.9977 47.0635 82.9977 46.2545C82.9977 45.4455 82.8629 44.8413 82.5932 44.4418C82.3335 44.0323 81.9041 43.8275 81.3048 43.8275C80.7155 43.8275 80.2861 44.0323 80.0164 44.4418C79.7567 44.8413 79.6269 45.4455 79.6269 46.2545ZM96.7226 42.0298C97.6515 42.0298 98.3506 42.2695 98.82 42.7489C99.2994 43.2183 99.5391 43.9774 99.5391 45.026V50.3594H97.3069V45.5804C97.3069 44.4018 96.8974 43.8126 96.0784 43.8126C95.4892 43.8126 95.0697 44.0223 94.82 44.4418C94.5703 44.8613 94.4455 45.4655 94.4455 46.2545V50.3594H92.2133V45.5804C92.2133 44.4018 91.8038 43.8126 90.9848 43.8126C90.3656 43.8126 89.9361 44.0473 89.6964 44.5167C89.4667 44.9761 89.3518 45.6403 89.3518 46.5092V50.3594H87.1196V42.1796H88.8275L89.1271 43.2283H89.247C89.4967 42.8088 89.8362 42.5042 90.2657 42.3144C90.7052 42.1247 91.1596 42.0298 91.629 42.0298C92.2283 42.0298 92.7376 42.1297 93.1571 42.3294C93.5766 42.5192 93.8962 42.8188 94.1159 43.2283H94.3106C94.5603 42.8088 94.9049 42.5042 95.3444 42.3144C95.7938 42.1247 96.2532 42.0298 96.7226 42.0298ZM111.441 42.0298C112.369 42.0298 113.069 42.2695 113.538 42.7489C114.017 43.2183 114.257 43.9774 114.257 45.026V50.3594H112.025V45.5804C112.025 44.4018 111.615 43.8126 110.796 43.8126C110.207 43.8126 109.788 44.0223 109.538 44.4418C109.288 44.8613 109.163 45.4655 109.163 46.2545V50.3594H106.931V45.5804C106.931 44.4018 106.522 43.8126 105.703 43.8126C105.084 43.8126 104.654 44.0473 104.414 44.5167C104.185 44.9761 104.07 45.6403 104.07 46.5092V50.3594H101.838V42.1796H103.545L103.845 43.2283H103.965C104.215 42.8088 104.554 42.5042 104.984 42.3144C105.423 42.1247 105.878 42.0298 106.347 42.0298C106.946 42.0298 107.456 42.1297 107.875 42.3294C108.294 42.5192 108.614 42.8188 108.834 43.2283H109.029C109.278 42.8088 109.623 42.5042 110.062 42.3144C110.512 42.1247 110.971 42.0298 111.441 42.0298ZM119.926 42.0298C121.055 42.0298 121.949 42.3544 122.608 43.0036C123.267 43.6428 123.597 44.5566 123.597 45.7451V46.8238H118.323C118.343 47.453 118.528 47.9474 118.878 48.3069C119.237 48.6665 119.732 48.8463 120.361 48.8463C120.89 48.8463 121.369 48.7963 121.799 48.6965C122.228 48.5866 122.673 48.4218 123.132 48.2021V49.9249C122.733 50.1247 122.308 50.2695 121.859 50.3594C121.419 50.4593 120.885 50.5092 120.256 50.5092C119.437 50.5092 118.713 50.3594 118.084 50.0597C117.454 49.7501 116.96 49.2857 116.6 48.6665C116.241 48.0473 116.061 47.2682 116.061 46.3294C116.061 45.3706 116.221 44.5766 116.541 43.9474C116.87 43.3082 117.325 42.8288 117.904 42.5092C118.483 42.1896 119.157 42.0298 119.926 42.0298ZM119.941 43.6178C119.512 43.6178 119.152 43.7576 118.863 44.0373C118.583 44.3169 118.418 44.7514 118.368 45.3407H121.499C121.489 44.8413 121.359 44.4318 121.11 44.1122C120.86 43.7826 120.471 43.6178 119.941 43.6178ZM130.051 42.0298C130.93 42.0298 131.634 42.2695 132.163 42.7489C132.693 43.2183 132.957 43.9774 132.957 45.026V50.3594H130.725V45.5804C130.725 44.9911 130.62 44.5516 130.41 44.262C130.201 43.9624 129.866 43.8126 129.407 43.8126C128.728 43.8126 128.263 44.0473 128.013 44.5167C127.764 44.9761 127.639 45.6403 127.639 46.5092V50.3594H125.407V42.1796H127.115L127.414 43.2283H127.534C127.794 42.8088 128.148 42.5042 128.598 42.3144C129.057 42.1247 129.542 42.0298 130.051 42.0298ZM137.845 50.5092C136.936 50.5092 136.192 50.1546 135.612 49.4455C135.043 48.7264 134.758 47.6727 134.758 46.2845C134.758 44.8862 135.048 43.8275 135.627 43.1084C136.207 42.3893 136.966 42.0298 137.904 42.0298C138.494 42.0298 138.978 42.1446 139.358 42.3744C139.737 42.6041 140.037 42.8887 140.257 43.2283H140.331C140.301 43.0685 140.267 42.8388 140.227 42.5392C140.187 42.2295 140.167 41.9149 140.167 41.5953V38.9736H142.399V50.3594H140.691L140.257 49.2957H140.167C139.947 49.6353 139.652 49.9249 139.283 50.1646C138.913 50.3943 138.434 50.5092 137.845 50.5092ZM138.624 48.7264C139.243 48.7264 139.677 48.5466 139.927 48.1871C140.177 47.8176 140.306 47.2682 140.316 46.5392V46.2995C140.316 45.5005 140.192 44.8912 139.942 44.4717C139.702 44.0523 139.253 43.8425 138.594 43.8425C138.104 43.8425 137.72 44.0573 137.44 44.4867C137.16 44.9062 137.021 45.5154 137.021 46.3144C137.021 47.1134 137.16 47.7177 137.44 48.1272C137.72 48.5267 138.114 48.7264 138.624 48.7264ZM148.104 42.0298C149.233 42.0298 150.126 42.3544 150.786 43.0036C151.445 43.6428 151.774 44.5566 151.774 45.7451V46.8238H146.501C146.521 47.453 146.706 47.9474 147.055 48.3069C147.415 48.6665 147.909 48.8463 148.538 48.8463C149.068 48.8463 149.547 48.7963 149.977 48.6965C150.406 48.5866 150.85 48.4218 151.31 48.2021V49.9249C150.91 50.1247 150.486 50.2695 150.036 50.3594C149.597 50.4593 149.063 50.5092 148.434 50.5092C147.615 50.5092 146.89 50.3594 146.261 50.0597C145.632 49.7501 145.138 49.2857 144.778 48.6665C144.419 48.0473 144.239 47.2682 144.239 46.3294C144.239 45.3706 144.399 44.5766 144.718 43.9474C145.048 43.3082 145.502 42.8288 146.081 42.5092C146.661 42.1896 147.335 42.0298 148.104 42.0298ZM148.119 43.6178C147.689 43.6178 147.33 43.7576 147.04 44.0373C146.761 44.3169 146.596 44.7514 146.546 45.3407H149.677C149.667 44.8413 149.537 44.4318 149.287 44.1122C149.038 43.7826 148.648 43.6178 148.119 43.6178ZM156.176 50.5092C155.267 50.5092 154.523 50.1546 153.944 49.4455C153.375 48.7264 153.09 47.6727 153.09 46.2845C153.09 44.8862 153.38 43.8275 153.959 43.1084C154.538 42.3893 155.297 42.0298 156.236 42.0298C156.825 42.0298 157.31 42.1446 157.689 42.3744C158.069 42.6041 158.368 42.8887 158.588 43.2283H158.663C158.633 43.0685 158.598 42.8388 158.558 42.5392C158.518 42.2295 158.498 41.9149 158.498 41.5953V38.9736H160.73V50.3594H159.023L158.588 49.2957H158.498C158.278 49.6353 157.984 49.9249 157.614 50.1646C157.245 50.3943 156.765 50.5092 156.176 50.5092ZM156.955 48.7264C157.574 48.7264 158.009 48.5466 158.259 48.1871C158.508 47.8176 158.638 47.2682 158.648 46.5392V46.2995C158.648 45.5005 158.523 44.8912 158.273 44.4717C158.034 44.0523 157.584 43.8425 156.925 43.8425C156.436 43.8425 156.051 44.0573 155.772 44.4867C155.492 44.9062 155.352 45.5154 155.352 46.3144C155.352 47.1134 155.492 47.7177 155.772 48.1272C156.051 48.5267 156.446 48.7264 156.955 48.7264Z" fill="black"/>
</svg>
