<svg width="123" height="83" viewBox="0 0 123 83" fill="none" xmlns="http://www.w3.org/2000/svg">
<path d="M4.14917 11.771L1.85037 3.10768H3.02636L4.34418 8.7867C4.48601 9.38159 4.60814 9.97254 4.71057 10.5596C4.93119 9.63373 5.0612 9.09991 5.10059 8.95808L6.74934 3.10768H8.13216L9.37315 7.49253C9.68439 8.57987 9.90895 9.60221 10.0468 10.5596C10.1571 10.0119 10.3009 9.38356 10.4782 8.67442L11.8374 3.10768H12.9898L10.6141 11.771H9.50907L7.68304 5.1701C7.52939 4.61854 7.43878 4.27973 7.4112 4.15366C7.32059 4.55157 7.23589 4.89038 7.1571 5.1701L5.31924 11.771H4.14917ZM13.9353 4.33095V3.10768H14.999V4.33095H13.9353ZM13.9353 11.771V5.49512H14.999V11.771H13.9353ZM16.6241 11.771V5.49512H17.5814V6.38745C18.0424 5.69801 18.7082 5.35329 19.5788 5.35329C19.9571 5.35329 20.3037 5.42223 20.6189 5.56012C20.938 5.69407 21.1764 5.87136 21.334 6.09198C21.4915 6.3126 21.6019 6.57458 21.6649 6.87794C21.7043 7.07492 21.724 7.41964 21.724 7.9121V11.771H20.6603V7.95347C20.6603 7.5201 20.6189 7.19705 20.5362 6.98431C20.4534 6.76763 20.3057 6.59625 20.093 6.47018C19.8842 6.34017 19.6379 6.27517 19.3543 6.27517C18.9012 6.27517 18.5092 6.41897 18.1783 6.70656C17.8513 6.99416 17.6878 7.5398 17.6878 8.34349V11.771H16.6241ZM23.3609 11.771V5.49512H24.3183V6.38745C24.7792 5.69801 25.445 5.35329 26.3157 5.35329C26.6939 5.35329 27.0406 5.42223 27.3557 5.56012C27.6748 5.69407 27.9132 5.87136 28.0708 6.09198C28.2284 6.3126 28.3387 6.57458 28.4017 6.87794C28.4411 7.07492 28.4608 7.41964 28.4608 7.9121V11.771H27.3971V7.95347C27.3971 7.5201 27.3557 7.19705 27.273 6.98431C27.1903 6.76763 27.0425 6.59625 26.8298 6.47018C26.621 6.34017 26.3748 6.27517 26.0911 6.27517C25.638 6.27517 25.246 6.41897 24.9151 6.70656C24.5881 6.99416 24.4246 7.5398 24.4246 8.34349V11.771H23.3609ZM34.3939 9.74995L35.4931 9.88587C35.3198 10.528 34.9987 11.0264 34.5299 11.381C34.061 11.7355 33.4622 11.9128 32.7334 11.9128C31.8154 11.9128 31.0866 11.6311 30.5469 11.0678C30.0111 10.5005 29.7432 9.70661 29.7432 8.68624C29.7432 7.63041 30.015 6.81096 30.5587 6.22789C31.1023 5.64482 31.8075 5.35329 32.6743 5.35329C33.5134 5.35329 34.1989 5.63892 34.7308 6.21017C35.2626 6.78142 35.5286 7.58511 35.5286 8.62124C35.5286 8.68427 35.5266 8.77882 35.5226 8.90489H30.8423C30.8817 9.59433 31.0767 10.1222 31.4274 10.4886C31.778 10.855 32.2153 11.0382 32.7393 11.0382C33.1293 11.0382 33.4622 10.9358 33.738 10.7309C34.0138 10.5261 34.2324 10.1991 34.3939 9.74995ZM30.9014 8.03029H34.4058C34.3585 7.50237 34.2245 7.10644 34.0039 6.84248C33.6651 6.43276 33.2258 6.22789 32.6861 6.22789C32.1976 6.22789 31.7859 6.39139 31.451 6.71838C31.1201 7.04537 30.9369 7.48268 30.9014 8.03029ZM36.8227 11.771V5.49512H37.7801V6.44655C38.0243 6.00136 38.2489 5.70786 38.4538 5.56603C38.6626 5.4242 38.8911 5.35329 39.1393 5.35329C39.4978 5.35329 39.8622 5.46754 40.2325 5.69604L39.8661 6.68293C39.6061 6.52928 39.3461 6.45246 39.0861 6.45246C38.8536 6.45246 38.6448 6.52337 38.4597 6.6652C38.2745 6.80308 38.1425 6.99613 38.0637 7.24433C37.9455 7.62253 37.8864 8.0362 37.8864 8.48532V11.771H36.8227ZM43.8373 8.63306C43.8373 7.47086 44.1604 6.61004 44.8065 6.05061C45.3462 5.58573 46.0041 5.35329 46.7802 5.35329C47.643 5.35329 48.3482 5.63695 48.8958 6.20426C49.4434 6.76763 49.7172 7.54768 49.7172 8.54441C49.7172 9.35204 49.5951 9.9883 49.3509 10.4532C49.1105 10.9141 48.7579 11.2726 48.2931 11.5287C47.8321 11.7848 47.3278 11.9128 46.7802 11.9128C45.9017 11.9128 45.1906 11.6311 44.6469 11.0678C44.1072 10.5044 43.8373 9.69283 43.8373 8.63306ZM44.9306 8.63306C44.9306 9.43675 45.1059 10.0395 45.4565 10.4414C45.8071 10.8393 46.2484 11.0382 46.7802 11.0382C47.3081 11.0382 47.7474 10.8373 48.098 10.4355C48.4487 10.0336 48.624 9.42099 48.624 8.5976C48.624 7.82149 48.4467 7.23448 48.0921 6.83657C47.7415 6.43473 47.3042 6.2338 46.7802 6.2338C46.2484 6.2338 45.8071 6.43276 45.4565 6.83066C45.1059 7.22857 44.9306 7.82937 44.9306 8.63306ZM51.2242 11.771V6.32245H50.2846V5.49512H51.2242V4.82735C51.2242 4.4058 51.2616 4.0926 51.3364 3.88774C51.4389 3.61196 51.6181 3.38937 51.8742 3.21996C52.1342 3.04662 52.4967 2.95995 52.9616 2.95995C53.261 2.95995 53.5919 2.9954 53.9543 3.06632L53.7948 3.99411C53.5742 3.95471 53.3654 3.93501 53.1684 3.93501C52.8453 3.93501 52.6168 4.00396 52.4829 4.14184C52.3489 4.27973 52.282 4.53778 52.282 4.91599V5.49512H53.5052V6.32245H52.282V11.771H51.2242Z" fill="#717175"/>
<path d="M1.67604 78.2842L6.66661 65.2892H8.51924L13.8378 78.2842H11.8788L10.363 74.3485H4.92922L3.50208 78.2842H1.67604ZM5.42562 72.9479H9.83114L8.47491 69.349C8.06125 68.2558 7.75396 67.3575 7.55303 66.6543C7.38757 67.4875 7.15414 68.3149 6.85276 69.1363L5.42562 72.9479ZM16.4084 78.2842L13.5275 68.8704H15.1763L16.6743 74.3041L17.2328 76.3252C17.2564 76.2247 17.4189 75.5776 17.7203 74.3839L19.2184 68.8704H20.8583L22.2677 74.3307L22.7375 76.1302L23.2782 74.313L24.8915 68.8704H26.4427L23.4998 78.2842H21.8422L20.3441 72.6465L19.9807 71.0421L18.0749 78.2842H16.4084ZM33.933 77.123C33.3421 77.6253 32.7718 77.9798 32.2222 78.1867C31.6785 78.3935 31.0935 78.4969 30.4671 78.4969C29.4329 78.4969 28.6381 78.2458 28.0826 77.7435C27.5271 77.2352 27.2494 76.5882 27.2494 75.8022C27.2494 75.3413 27.3528 74.9217 27.5596 74.5435C27.7724 74.1594 28.0472 73.8521 28.384 73.6216C28.7267 73.3911 29.1109 73.2168 29.5363 73.0986C29.8495 73.0159 30.3223 72.9361 30.9546 72.8593C32.2429 72.7056 33.1914 72.5224 33.8 72.3097C33.806 72.091 33.8089 71.9522 33.8089 71.8931C33.8089 71.243 33.6582 70.785 33.3568 70.5191C32.9491 70.1586 32.3434 69.9784 31.5397 69.9784C30.7892 69.9784 30.2337 70.1114 29.8732 70.3773C29.5186 70.6373 29.2556 71.1012 29.0843 71.769L27.5242 71.5562C27.666 70.8885 27.8994 70.3507 28.2244 69.9429C28.5495 69.5293 29.0193 69.2131 29.6338 68.9945C30.2484 68.7699 30.9605 68.6576 31.7701 68.6576C32.5738 68.6576 33.2268 68.7522 33.7291 68.9413C34.2314 69.1304 34.6008 69.3697 34.8372 69.6593C35.0735 69.9429 35.239 70.3034 35.3336 70.7407C35.3867 71.0125 35.4133 71.503 35.4133 72.2122V74.3396C35.4133 75.8229 35.4458 76.7625 35.5108 77.1584C35.5818 77.5484 35.7177 77.9237 35.9186 78.2842H34.2521C34.0867 77.9532 33.9803 77.5662 33.933 77.123ZM33.8 73.5595C33.2209 73.7959 32.3522 73.9968 31.194 74.1623C30.538 74.2569 30.0741 74.3632 29.8023 74.4814C29.5304 74.5996 29.3206 74.7739 29.1729 75.0044C29.0252 75.229 28.9513 75.4801 28.9513 75.7579C28.9513 76.1834 29.1109 76.5379 29.43 76.8216C29.755 77.1052 30.2278 77.2471 30.8483 77.2471C31.4628 77.2471 32.0095 77.1141 32.4881 76.8482C32.9668 76.5763 33.3184 76.207 33.543 75.7401C33.7144 75.3797 33.8 74.8478 33.8 74.1446V73.5595ZM37.8776 78.2842V68.8704H39.3136V70.2975C39.68 69.6297 40.0168 69.1895 40.3241 68.9767C40.6373 68.764 40.9801 68.6576 41.3524 68.6576C41.8901 68.6576 42.4368 68.829 42.9923 69.1717L42.4427 70.6521C42.0526 70.4216 41.6626 70.3064 41.2726 70.3064C40.9239 70.3064 40.6107 70.4127 40.333 70.6255C40.0552 70.8323 39.8573 71.1219 39.7391 71.4942C39.5618 72.0615 39.4732 72.682 39.4732 73.3557V78.2842H37.8776ZM50.0482 78.2842V77.0964C49.4513 78.0301 48.5738 78.4969 47.4155 78.4969C46.665 78.4969 45.9736 78.2901 45.3413 77.8764C44.7149 77.4628 44.2273 76.8866 43.8787 76.1479C43.5359 75.4033 43.3646 74.5494 43.3646 73.5861C43.3646 72.6465 43.5212 71.7956 43.8344 71.0332C44.1476 70.265 44.6174 69.677 45.2438 69.2692C45.8702 68.8615 46.5705 68.6576 47.3446 68.6576C47.9119 68.6576 48.4172 68.7788 48.8604 69.0211C49.3036 69.2574 49.6641 69.5677 49.9418 69.9518V65.2892H51.5285V78.2842H50.0482ZM45.0044 73.5861C45.0044 74.7917 45.2585 75.6929 45.7668 76.2897C46.275 76.8866 46.8748 77.185 47.5662 77.185C48.2635 77.185 48.8545 76.9014 49.339 76.334C49.8295 75.7608 50.0748 74.8892 50.0748 73.7191C50.0748 72.4308 49.8266 71.4853 49.3302 70.8825C48.8338 70.2798 48.2222 69.9784 47.4953 69.9784C46.7861 69.9784 46.1922 70.268 45.7136 70.8471C45.2408 71.4262 45.0044 72.3392 45.0044 73.5861ZM53.4077 75.4742L54.9856 75.226C55.0742 75.8583 55.3195 76.3429 55.7213 76.6798C56.1291 77.0166 56.6964 77.185 57.4232 77.185C58.156 77.185 58.6997 77.0373 59.0543 76.7418C59.4088 76.4404 59.5861 76.0888 59.5861 75.687C59.5861 75.3265 59.4295 75.0428 59.1163 74.836C58.8977 74.6942 58.354 74.5139 57.4853 74.2953C56.3152 73.9998 55.5027 73.7457 55.0476 73.5329C54.5985 73.3143 54.2557 73.0159 54.0194 72.6377C53.7889 72.2535 53.6737 71.831 53.6737 71.3701C53.6737 70.9505 53.7682 70.5634 53.9573 70.2089C54.1523 69.8484 54.4153 69.55 54.7462 69.3136C54.9944 69.1304 55.3313 68.9767 55.7568 68.8526C56.1882 68.7226 56.6491 68.6576 57.1396 68.6576C57.8783 68.6576 58.5254 68.764 59.0808 68.9767C59.6422 69.1895 60.0559 69.479 60.3218 69.8454C60.5878 70.2059 60.771 70.6905 60.8714 71.2992L59.3113 71.5119C59.2404 71.0273 59.0336 70.6491 58.6908 70.3773C58.354 70.1054 57.8753 69.9695 57.2548 69.9695C56.522 69.9695 55.999 70.0907 55.6858 70.333C55.3726 70.5752 55.216 70.8589 55.216 71.1839C55.216 71.3908 55.281 71.5769 55.4111 71.7424C55.5411 71.9137 55.7449 72.0556 56.0227 72.1679C56.1822 72.227 56.652 72.3629 57.4321 72.5756C58.5608 72.877 59.3468 73.1252 59.79 73.3202C60.2391 73.5093 60.5907 73.7871 60.8448 74.1534C61.0989 74.5198 61.226 74.9749 61.226 75.5185C61.226 76.0504 61.0694 76.5527 60.7562 77.0255C60.4489 77.4923 60.0027 77.8557 59.4177 78.1158C58.8326 78.3699 58.1708 78.4969 57.4321 78.4969C56.2088 78.4969 55.2751 78.2428 54.631 77.7346C53.9928 77.2264 53.585 76.4729 53.4077 75.4742ZM76.1622 75.9706V78.2842H67.431C67.5255 77.4096 67.8092 76.5822 68.2819 75.8022C68.7547 75.0162 69.6884 73.9762 71.083 72.682C72.2058 71.636 72.8943 70.9269 73.1484 70.5546C73.4911 70.0404 73.6625 69.5322 73.6625 69.0299C73.6625 68.4744 73.5118 68.0489 73.2104 67.7535C72.915 67.4521 72.5043 67.3014 71.9783 67.3014C71.4583 67.3014 71.0446 67.458 70.7373 67.7712C70.43 68.0844 70.2527 68.6044 70.2055 69.3313L67.7235 69.0831C67.8712 67.7121 68.3351 66.7282 69.1152 66.1313C69.8952 65.5345 70.8703 65.236 72.0404 65.236C73.3227 65.236 74.3303 65.5817 75.0631 66.2731C75.7958 66.9645 76.1622 67.8244 76.1622 68.8526C76.1622 69.4377 76.0559 69.9961 75.8431 70.528C75.6363 71.0539 75.3054 71.6065 74.8503 72.1856C74.5489 72.5697 74.0053 73.1222 73.2193 73.8432C72.4333 74.5642 71.934 75.0428 71.7212 75.2792C71.5144 75.5156 71.346 75.7461 71.216 75.9706H76.1622ZM82.0658 65.236C83.3245 65.236 84.3085 65.6851 85.0176 66.5834C85.8627 67.6471 86.2852 69.4111 86.2852 71.8753C86.2852 74.3337 85.8597 76.1006 85.0087 77.1761C84.3055 78.0626 83.3245 78.5058 82.0658 78.5058C80.8012 78.5058 79.7818 78.0212 79.0077 77.0521C78.2335 76.077 77.8464 74.3425 77.8464 71.8487C77.8464 69.4022 78.2719 67.6412 79.1229 66.5657C79.8261 65.6792 80.8071 65.236 82.0658 65.236ZM82.0658 67.3014C81.7644 67.3014 81.4955 67.3989 81.2592 67.5939C81.0228 67.783 80.8396 68.1258 80.7096 68.6222C80.5382 69.2663 80.4525 70.3507 80.4525 71.8753C80.4525 73.4 80.5293 74.4489 80.683 75.0221C80.8366 75.5895 81.0287 75.9677 81.2592 76.1568C81.4955 76.3459 81.7644 76.4404 82.0658 76.4404C82.3672 76.4404 82.6361 76.3459 82.8725 76.1568C83.1088 75.9617 83.292 75.616 83.422 75.1196C83.5934 74.4814 83.6791 73.4 83.6791 71.8753C83.6791 70.3507 83.6023 69.3047 83.4486 68.7374C83.295 68.1642 83.1 67.783 82.8636 67.5939C82.6331 67.3989 82.3672 67.3014 82.0658 67.3014ZM94.3339 78.2842H91.8431V68.897C90.933 69.7479 89.8604 70.3773 88.6254 70.785V68.5247C89.2754 68.3119 89.9816 67.9101 90.7439 67.3191C91.5062 66.7223 92.0292 66.0279 92.3129 65.236H94.3339V78.2842ZM106.478 75.9706V78.2842H97.7467C97.8412 77.4096 98.1249 76.5822 98.5976 75.8022C99.0704 75.0162 100.004 73.9762 101.399 72.682C102.522 71.636 103.21 70.9269 103.464 70.5546C103.807 70.0404 103.978 69.5322 103.978 69.0299C103.978 68.4744 103.828 68.0489 103.526 67.7535C103.231 67.4521 102.82 67.3014 102.294 67.3014C101.774 67.3014 101.36 67.458 101.053 67.7712C100.746 68.0844 100.568 68.6044 100.521 69.3313L98.0392 69.0831C98.1869 67.7121 98.6508 66.7282 99.4309 66.1313C100.211 65.5345 101.186 65.236 102.356 65.236C103.638 65.236 104.646 65.5817 105.379 66.2731C106.112 66.9645 106.478 67.8244 106.478 68.8526C106.478 69.4377 106.372 69.9961 106.159 70.528C105.952 71.0539 105.621 71.6065 105.166 72.1856C104.865 72.5697 104.321 73.1222 103.535 73.8432C102.749 74.5642 102.25 75.0428 102.037 75.2792C101.83 75.5156 101.662 75.7461 101.532 75.9706H106.478Z" fill="#717175"/>
<path d="M3.68823 18.5127H9.05404V35.8394H3.68823V18.5127ZM12.9425 18.5127H17.9419L24.466 28.0979V18.5127H29.5127V35.8394H24.466L17.9774 26.3251V35.8394H12.9425V18.5127ZM33.1411 18.5127H41.0953C42.6633 18.5127 43.9279 18.7255 44.8892 19.151C45.8583 19.5764 46.6581 20.1871 47.2884 20.9829C47.9188 21.7787 48.3758 22.7045 48.6594 23.7604C48.9431 24.8162 49.0849 25.9351 49.0849 27.1169C49.0849 28.9686 48.8722 30.4066 48.4467 31.4309C48.0291 32.4473 47.446 33.3022 46.6975 33.9956C45.949 34.6811 45.1453 35.1381 44.2864 35.3666C43.1124 35.6818 42.0487 35.8394 41.0953 35.8394H33.1411V18.5127ZM38.4951 22.4366V31.9036H39.807C40.9259 31.9036 41.7217 31.7815 42.1945 31.5372C42.6672 31.2851 43.0375 30.8517 43.3054 30.2372C43.5733 29.6147 43.7073 28.6101 43.7073 27.2233C43.7073 25.3874 43.4079 24.1307 42.809 23.4531C42.2102 22.7754 41.2174 22.4366 39.8307 22.4366H38.4951ZM52.1224 18.5127H57.4882V35.8394H52.1224V18.5127ZM72.0019 32.9792H65.9033L65.0642 35.8394H59.592L66.1043 18.5127H71.9428L78.4551 35.8394H72.8529L72.0019 32.9792ZM70.8791 29.2325L68.9645 23.0039L67.0616 29.2325H70.8791ZM80.2161 18.5127H85.2156L91.7396 28.0979V18.5127H96.7863V35.8394H91.7396L85.251 26.3251V35.8394H80.2161V18.5127Z" fill="#26AA67"/>
<path d="M27.7495 62.0615V44.7349H36.6729C38.3275 44.7349 39.5921 44.8767 40.4667 45.1604C41.3413 45.444 42.0465 45.972 42.5823 46.7441C43.1181 47.5084 43.386 48.4421 43.386 49.5452C43.386 50.5065 43.1812 51.3378 42.7714 52.039C42.3617 52.7324 41.7983 53.2958 41.0813 53.7291C40.6243 54.0049 39.9979 54.2334 39.2021 54.4146C39.8403 54.6274 40.3052 54.8401 40.5968 55.0529C40.7937 55.1947 41.0774 55.498 41.4477 55.9629C41.8259 56.4278 42.0781 56.7863 42.2041 57.0385L44.7925 62.0615H38.7412L35.881 56.7666C35.5185 56.0811 35.1955 55.6359 34.9118 55.4311C34.5257 55.1632 34.0884 55.0292 33.5999 55.0292H33.1272V62.0615H27.7495ZM33.1272 51.7554H35.3846C35.6288 51.7554 36.1016 51.6766 36.8029 51.519C37.1574 51.4481 37.445 51.2669 37.6656 50.9753C37.8941 50.6838 38.0084 50.3489 38.0084 49.9707C38.0084 49.4113 37.8311 48.9819 37.4765 48.6824C37.122 48.383 36.4562 48.2333 35.4791 48.2333H33.1272V51.7554ZM46.5062 44.7349H60.8545V48.4342H51.8721V51.1881H60.2044V54.7219H51.8721V58.1376H61.1145V62.0615H46.5062V44.7349ZM62.7928 44.7349H79.0675V49.0134H73.6072V62.0615H68.2532V49.0134H62.7928V44.7349ZM90.5083 59.2013H84.4097L83.5706 62.0615H78.0984L84.6106 44.7349H90.4492L96.9615 62.0615H91.3593L90.5083 59.2013ZM89.3855 55.4547L87.4708 49.2261L85.568 55.4547H89.3855ZM98.8998 44.7349H104.266V62.0615H98.8998V44.7349ZM108.119 44.7349H113.473V57.7949H121.829V62.0615H108.119V44.7349Z" fill="#6063D2"/>
<path d="M6.95299 59.4165C5.0596 59.4165 3.46743 58.9646 2.17648 58.061C0.928568 57.1143 0.30461 55.7588 0.30461 53.9945C0.30461 52.1011 0.756442 50.3368 1.66011 48.7016C2.56377 47.0664 3.76865 45.6464 5.27476 44.4415C6.78087 43.1936 8.41607 42.2253 10.1804 41.5368C11.9877 40.8483 13.7735 40.5041 15.5378 40.5041C17.3021 40.5041 18.6146 40.8268 19.4752 41.4723C20.3358 42.0747 20.7661 42.8278 20.7661 43.7315C20.7661 44.5921 20.3573 45.5173 19.5397 46.507C18.7652 47.4537 17.6248 48.2928 16.1187 49.0243C15.172 49.4547 14.0747 49.8419 12.8268 50.1862C11.6219 50.4874 10.5676 50.638 9.66398 50.638C8.97548 50.638 8.63122 50.5304 8.63122 50.3153C8.63122 50.1432 8.93245 50.0571 9.53489 50.0571C10.0943 50.0571 10.9549 49.9065 12.1168 49.6053C13.3217 49.261 14.4835 48.8092 15.6023 48.2498C16.8503 47.5613 17.7324 46.8728 18.2488 46.1843C18.7652 45.4957 19.0234 44.8718 19.0234 44.3124C19.0234 43.796 18.8082 43.3657 18.3779 43.0214C17.9906 42.6772 17.4312 42.5051 16.6996 42.5051C16.0111 42.5051 15.2366 42.6987 14.3759 43.086C13.128 43.6454 11.8371 44.5706 10.5031 45.8615C9.21215 47.1094 8.13636 48.4864 7.27573 49.9926C6.4151 51.4987 5.98478 52.9402 5.98478 54.3172C5.98478 55.2639 6.24297 56.06 6.75935 56.7055C7.31876 57.351 8.13636 57.6737 9.21215 57.6737C10.331 57.6737 11.6219 57.3294 13.085 56.6409C14.5481 55.9094 16.0327 55.0272 17.5388 53.9945C19.0449 52.9187 20.4434 51.8429 21.7343 50.7671C23.0253 49.6913 24.0581 48.7877 24.8326 48.0561C25.0908 47.7979 25.2845 47.6688 25.4135 47.6688C25.5426 47.6688 25.6072 47.7764 25.6072 47.9916C25.6072 48.2928 25.4781 48.551 25.2199 48.7661C23.5847 50.2723 21.7989 51.8429 19.8625 53.4781C17.9691 55.1133 15.9251 56.5118 13.7305 57.6737C11.5789 58.7925 9.31973 59.3734 6.95299 59.4165Z" fill="#6063D2"/>
</svg>
