<svg width="142" height="59" viewBox="0 0 142 59" fill="none" xmlns="http://www.w3.org/2000/svg">
<path d="M48.9959 19.1074C49.5511 19.4624 50.4113 19.7651 51.4739 19.9676C52.5366 20.2703 53.6493 20.3203 54.8143 20.3203C55.927 20.3203 56.9396 20.1701 57.8498 19.9153C58.76 19.6126 59.57 19.2098 60.2777 18.7024C60.9353 18.1972 61.4928 17.5919 61.8477 16.7818C62.2005 16.024 62.403 15.2162 62.403 14.2559C62.403 13.1431 62.0502 12.1328 61.3926 11.2225C60.735 10.3624 59.6201 9.65472 58.0523 9.14953L55.0168 8.13914C53.904 7.78637 53.0439 7.38137 52.5866 6.92626C52.1838 6.52124 51.929 6.01605 51.929 5.35843C51.929 4.50047 52.2839 3.79276 52.9416 3.43782C53.6493 3.03498 54.5617 2.78239 55.8268 2.78239C57.3947 2.78239 58.7099 3.08507 60.0251 3.64034C60.3801 3.79277 60.6827 3.9452 60.8853 3.9452C61.2402 3.9452 61.3926 3.74269 61.3926 3.2375V2.37736C61.3926 2.07468 61.3404 1.82209 61.1901 1.66967C61.0377 1.46715 60.8352 1.26463 60.5325 1.11438C60.33 0.961953 59.975 0.809537 59.6201 0.759453C59.2673 0.609203 58.8623 0.556936 58.4072 0.406685C58.0022 0.354424 57.4948 0.204169 56.9896 0.204169C56.4844 0.0517405 55.9771 0.0517578 55.522 0.0517578C54.5094 0.0517578 53.7015 0.204174 52.8414 0.406685C51.9813 0.709364 51.2213 1.06211 50.5637 1.51722C49.9061 2.02241 49.451 2.57987 48.9959 3.28757C48.5908 3.99528 48.4384 4.75306 48.4384 5.71335C48.4384 6.82608 48.7934 7.88657 49.5011 8.84686C50.2088 9.85725 51.3237 10.5649 52.9917 11.02L56.1295 12.0304C57.1921 12.3854 57.8998 12.7381 58.3049 13.1431C58.7099 13.5482 58.8623 14.0534 58.8623 14.6086C58.8623 15.4688 58.5074 16.1765 57.7496 16.6817C56.9896 17.1868 55.9771 17.3893 54.5617 17.3893C53.7015 17.3893 52.8414 17.3393 52.0314 17.0867C51.1712 16.9343 50.4113 16.6817 49.6034 16.3267C49.4009 16.2766 49.1984 16.1765 49.046 16.1264C48.8935 16.0741 48.7411 16.0741 48.6409 16.0741C48.286 16.0741 48.1357 16.2766 48.1357 16.7818V17.8445C48.1357 18.047 48.1858 18.2473 48.286 18.5021C48.4384 18.7547 48.6409 18.9049 48.9959 19.1074Z" fill="black"/>
<path d="M12.3645 8.64457C11.6046 8.49214 10.7949 8.49212 10.0866 8.49212C7.91077 8.49212 6.13978 9.04959 4.77381 10.2124C3.40762 11.3229 2.80029 12.8407 2.80029 14.6589C2.80029 16.4293 3.30637 17.7924 4.36901 18.8551C5.43143 19.9155 6.84836 20.4207 8.66987 20.4207C11.1997 20.4207 13.3248 19.4104 15.0451 17.4397C15.2476 17.9449 15.4501 18.3499 15.7027 18.7026C15.9553 19.0576 16.2101 19.4103 16.4626 19.713C16.6652 19.9155 16.8677 20.0179 17.1203 20.0179C17.2705 20.0179 17.473 19.9678 17.6755 19.8153L19.0431 18.9051C19.3457 18.7026 19.4481 18.5001 19.4481 18.2475C19.4481 18.0973 19.3958 17.9448 19.2956 17.7423C18.993 17.1871 18.7382 16.6819 18.5879 16.1767C18.4355 15.6715 18.3854 15.064 18.3854 14.2561V7.17907C18.3854 4.85345 17.828 3.08529 16.6129 1.8724C15.4 0.65951 13.5774 0.102051 10.9467 0.102051C9.7323 0.102051 8.61914 0.254489 7.55671 0.507084C6.54459 0.809763 5.63394 1.06233 4.87485 1.51744C4.5713 1.66987 4.36901 1.82013 4.31827 1.92247C4.1665 2.0749 4.16649 2.32751 4.16649 2.68028V3.7429C4.16649 4.14574 4.31826 4.44843 4.57129 4.44843C4.62181 4.44843 4.77381 4.44845 4.92559 4.39836C5.07736 4.34828 5.33039 4.2481 5.68445 4.09567C6.44355 3.79299 7.25294 3.5404 8.01203 3.38797C8.77091 3.18546 9.58052 3.08528 10.3396 3.08528C12.0597 3.08528 13.1724 3.43805 13.8823 4.09567C14.59 4.75329 14.8926 5.9161 14.8926 7.5841V9.14975C13.9824 8.94723 13.2246 8.797 12.3645 8.64457ZM14.8426 12.4857C14.8426 13.1934 14.7925 13.8511 14.64 14.3062C14.4876 14.8114 14.2873 15.3165 13.9324 15.6715C13.3749 16.3269 12.6672 16.782 11.8576 17.0346C11.0985 17.3395 10.2889 17.4397 9.58052 17.4397C8.56861 17.4397 7.80952 17.137 7.30367 16.6819C6.79761 16.1767 6.54459 15.4167 6.54459 14.4063C6.54459 13.3459 6.89888 12.4858 7.60723 11.9305C8.31559 11.3752 9.37823 11.0703 10.7949 11.0703C11.4528 11.0703 12.162 11.1204 12.8697 11.2228C13.5774 11.2728 14.235 11.4253 14.8426 11.5755V12.4857Z" fill="black"/>
<path d="M25.7729 18.7546C25.9231 19.1574 26.0756 19.4623 26.1779 19.6125C26.3282 19.765 26.5829 19.815 27.038 19.815H28.8585C29.2635 19.815 29.5662 19.765 29.7186 19.6125C29.871 19.4623 30.0235 19.2097 30.1236 18.7546L33.464 4.80305L36.8544 18.7546C36.9045 19.1574 37.0548 19.4623 37.2573 19.6125C37.4097 19.765 37.7646 19.815 38.1174 19.815H39.94C40.2949 19.815 40.5976 19.765 40.8001 19.6125C40.9526 19.4623 41.1551 19.2097 41.2051 18.7546L46.4661 2.0746C46.5184 1.87209 46.6185 1.66956 46.6185 1.56939C46.6185 1.41696 46.6686 1.36689 46.6686 1.21446C46.6686 0.861702 46.5184 0.709286 46.1634 0.709286H44.1906C43.7855 0.709286 43.4829 0.759341 43.3304 0.911769C43.178 1.0642 43.0256 1.31682 42.9254 1.76975L39.18 16.2765L35.6894 1.71964C35.6393 1.3168 35.4869 1.01195 35.2844 0.861696C35.132 0.709268 34.7792 0.65918 34.4243 0.65918H32.6539C32.2489 0.65918 31.9462 0.709268 31.7938 0.861696C31.6414 1.01195 31.489 1.26454 31.3888 1.71964L27.9983 16.0239L24.4054 1.71964C24.2551 1.3168 24.1027 1.01195 24.0004 0.861696C23.8501 0.709268 23.5975 0.65918 23.1402 0.65918H21.0171C20.6622 0.65918 20.5098 0.809452 20.5098 1.16439C20.5098 1.31682 20.5599 1.56939 20.7123 2.0245L25.7729 18.7546Z" fill="black"/>
<path d="M57.8523 29.2163C49.9065 32.6024 41.205 34.2203 33.3615 34.2203C21.6724 34.2203 10.3394 31.0346 1.18109 25.6778C0.422218 25.1726 -0.235622 26.0306 0.472733 26.6882C8.97321 34.3205 20.1547 38.9194 32.6538 38.9194C41.5077 38.9194 51.8292 36.1409 59.0151 30.8321C60.0277 30.0242 59.0652 28.7612 57.8523 29.2163Z" fill="#FF9900"/>
<path d="M53.3996 26.2847C52.742 26.6897 52.8944 27.3473 53.5521 27.2951C55.8276 26.9924 60.9884 26.387 61.8507 27.5999C62.7609 28.7105 60.8381 33.5642 60.0281 35.7374C59.7254 36.395 60.3308 36.6476 60.9383 36.1402C64.7838 32.9567 65.7463 26.2346 64.9864 25.3244C64.1763 24.2116 57.4477 23.4539 53.3996 26.2847Z" fill="#FF9900"/>
<path d="M81.9824 15.3647C81.8321 15.3647 81.6797 15.3147 81.6797 15.0621V3.38607C81.6797 3.23364 81.7298 3.08338 81.9824 3.08338H82.3373C82.5398 3.08338 82.64 3.13348 82.64 3.38607L82.6923 4.09377C83.1975 3.68874 83.7549 3.38607 84.2601 3.18355C84.7653 2.98104 85.2726 2.88086 85.8279 2.88086C86.9428 2.88086 87.8029 3.2859 88.4606 4.09377C89.1182 4.85155 89.4709 6.01434 89.4709 7.32958C89.4709 8.74499 89.1182 9.85555 88.4606 10.7157C87.7507 11.5736 86.8905 11.9787 85.6777 11.9787C84.615 11.9787 83.7026 11.5736 82.7924 10.7658V15.012C82.7924 15.1622 82.7423 15.3147 82.4898 15.3147H81.9824V15.3647ZM85.5252 11.1207C86.4355 11.1207 87.1432 10.8159 87.6505 10.2105C88.1557 9.55288 88.3582 8.64265 88.3582 7.42976C88.3582 5.00398 87.448 3.84118 85.5753 3.84118C84.6651 3.84118 83.6526 4.19612 82.7423 4.95391V9.95788C83.2475 10.3607 83.6526 10.6656 84.1077 10.8659C84.5628 10.9683 85.0701 11.1207 85.5252 11.1207Z" fill="black"/>
<path d="M93.6217 11.9787C92.8639 11.9787 92.2041 11.7762 91.6989 11.271C91.1937 10.8659 90.9912 10.2105 90.9912 9.4527C90.9912 8.59257 91.2939 7.98502 91.8514 7.47983C92.4066 6.97464 93.2167 6.77214 94.1791 6.77214C94.9369 6.77214 95.7469 6.92458 96.6572 7.17717V5.76178C96.6572 5.05408 96.5069 4.54888 96.152 4.29628C95.797 3.9936 95.2918 3.89125 94.5319 3.89125C93.7741 3.89125 92.914 4.04369 92.0538 4.29628C92.0038 4.29628 91.8513 4.34636 91.749 4.34636C91.5987 4.34636 91.5987 4.29627 91.5987 4.14384V3.79107C91.5987 3.74099 91.5988 3.63867 91.6488 3.58859C91.6989 3.5385 91.6989 3.53849 91.8012 3.43614C92.7115 3.08338 93.6217 2.88086 94.6843 2.88086C95.6969 2.88086 96.4547 3.08338 96.962 3.53848C97.4672 3.94133 97.6697 4.59895 97.6697 5.45908V11.5236C97.6697 11.676 97.6196 11.8284 97.367 11.8284H97.0121C96.8597 11.8284 96.7094 11.7761 96.7094 11.5236L96.6572 10.8159C95.7469 11.6259 94.6843 11.9787 93.6217 11.9787ZM93.7741 11.1207C94.1791 11.1207 94.6843 11.0685 95.1895 10.8159C95.6969 10.6133 96.2021 10.413 96.7595 10.0581V7.93497C95.9996 7.73246 95.2919 7.63228 94.4818 7.63228C92.8639 7.63228 92.0538 8.28989 92.0538 9.4527C92.0538 9.95789 92.2041 10.3608 92.4589 10.6656C92.7615 10.9683 93.2167 11.1207 93.7741 11.1207Z" fill="black"/>
<path d="M100.652 11.83C100.5 11.83 100.35 11.7777 100.35 11.5251V3.38766C100.35 3.23741 100.4 3.08496 100.652 3.08496H101.007C101.21 3.08496 101.31 3.13506 101.31 3.38766L101.36 4.39805C101.765 3.89286 102.22 3.54008 102.625 3.38766C103.03 3.18514 103.538 3.08496 104.043 3.08496C104.245 3.08496 104.398 3.08496 104.448 3.08496C104.598 3.08496 104.75 3.13506 104.75 3.38766V3.79266C104.75 3.84274 104.75 3.84274 104.7 3.94291C104.7 3.99517 104.65 3.99517 104.548 3.99517C104.498 3.99517 104.345 3.99517 104.245 3.99517C104.195 3.99517 104.043 3.99517 103.89 3.99517C103.385 3.99517 102.878 4.04527 102.475 4.29787C102.07 4.50038 101.715 4.80306 101.26 5.20808V11.5251C101.26 11.6776 101.21 11.83 100.955 11.83H100.652Z" fill="black"/>
<path d="M109.255 11.9294C108.546 11.9294 108.04 11.7269 107.685 11.3741C107.333 11.0192 107.13 10.514 107.13 9.80626V4.09456H105.763C105.612 4.09456 105.46 4.04446 105.46 3.79187V3.63946C105.46 3.58937 105.46 3.4892 105.51 3.43694C105.51 3.38686 105.56 3.38687 105.713 3.38687L107.13 3.23662L107.28 0.961085C107.28 0.911002 107.333 0.808652 107.333 0.758569C107.383 0.708485 107.383 0.708496 107.535 0.708496H107.838C107.99 0.708496 108.141 0.758563 108.141 1.01116V3.28669H110.621C110.773 3.28669 110.923 3.33679 110.923 3.58938V3.94431C110.923 4.09456 110.873 4.24701 110.621 4.24701H108.141V9.95867C108.141 10.4639 108.193 10.7165 108.445 10.9691C108.648 11.1716 109.001 11.2718 109.458 11.2718C109.811 11.2718 110.116 11.2717 110.318 11.2217C110.468 11.2217 110.518 11.1716 110.621 11.1716C110.671 11.1716 110.773 11.1716 110.773 11.1716C110.923 11.1716 110.976 11.2217 110.976 11.3741V11.6768C110.976 11.8793 110.923 11.9794 110.773 12.0295C110.318 11.8292 109.861 11.9294 109.255 11.9294Z" fill="black"/>
<path d="M113.105 11.8292C112.953 11.8292 112.8 11.7769 112.8 11.5243V3.38683C112.8 3.23658 112.853 3.08413 113.105 3.08413H113.46C113.66 3.08413 113.763 3.13423 113.763 3.38683L113.813 4.09452C114.37 3.6895 114.926 3.38682 115.583 3.18431C116.243 2.9818 116.798 2.83154 117.356 2.83154C118.216 2.83154 118.823 3.03406 119.279 3.48917C119.684 3.89201 119.936 4.54963 119.936 5.45984V11.4742C119.936 11.6267 119.886 11.7769 119.631 11.7769H119.126C118.974 11.7769 118.823 11.7268 118.823 11.4742V5.96502C118.823 5.20723 118.671 4.70205 118.418 4.34711C118.114 3.99435 117.658 3.84193 117.051 3.84193C115.938 3.84193 114.775 4.19688 113.713 4.95466V11.6266C113.713 11.7769 113.66 11.9293 113.408 11.9293H113.055V11.8292H113.105Z" fill="black"/>
<path d="M126.257 12.0287C124.891 12.0287 123.829 11.676 123.221 10.9182C122.511 10.1604 122.159 8.99759 122.159 7.42976C122.159 6.01436 122.511 4.90164 123.221 4.09377C123.929 3.33598 124.942 2.88086 126.104 2.88086C127.167 2.88086 127.927 3.18354 128.535 3.79107C129.09 4.34635 129.395 5.20648 129.395 6.31703C129.395 6.72205 129.395 7.07701 129.342 7.37969C129.342 7.52994 129.192 7.68235 129.04 7.68235H123.221C123.221 8.89524 123.524 9.80548 123.979 10.3608C124.486 10.9182 125.347 11.2209 126.409 11.2209C127.269 11.2209 128.027 11.0685 128.737 10.8159C128.887 10.7658 129.04 10.7658 129.04 10.7658C129.09 10.7658 129.09 10.7658 129.192 10.8159C129.192 10.8659 129.242 10.8659 129.242 10.9683V11.271C129.242 11.4735 129.192 11.5736 129.04 11.6259C128.129 11.8284 127.269 12.0287 126.257 12.0287ZM128.382 6.87448C128.382 6.72205 128.382 6.51954 128.382 6.31703C128.382 5.45908 128.18 4.90165 127.825 4.4988C127.42 4.09378 126.814 3.84118 126.054 3.84118C124.232 3.84118 123.271 4.85154 123.171 6.87448H128.382Z" fill="black"/>
<path d="M131.721 11.83C131.569 11.83 131.418 11.7777 131.418 11.5251V3.38766C131.418 3.23741 131.469 3.08496 131.721 3.08496H132.076C132.279 3.08496 132.379 3.13506 132.379 3.38766L132.429 4.39805C132.834 3.89286 133.289 3.54008 133.694 3.38766C134.099 3.18514 134.606 3.08496 135.112 3.08496C135.314 3.08496 135.466 3.08496 135.517 3.08496C135.669 3.08496 135.819 3.13506 135.819 3.38766V3.79266C135.819 3.84274 135.819 3.84274 135.769 3.94291C135.769 3.99517 135.719 3.99517 135.617 3.99517C135.517 3.99517 135.414 3.99517 135.314 3.99517C135.264 3.99517 135.112 3.99517 134.959 3.99517C134.454 3.99517 133.949 4.04527 133.544 4.29787C133.139 4.50038 132.784 4.80306 132.329 5.20808V11.5251C132.329 11.6776 132.279 11.83 132.026 11.83H131.721Z" fill="black"/>
<path d="M81.9824 30.8824C81.8321 30.8824 81.6797 30.8323 81.6797 30.5797V22.4923C81.6797 22.342 81.7298 22.1896 81.9824 22.1896H82.3373C82.5398 22.1896 82.64 22.2397 82.64 22.4923L82.6923 23.2C83.2475 22.795 83.805 22.4923 84.4626 22.2898C85.1202 22.0873 85.6777 21.937 86.2329 21.937C87.0931 21.937 87.7006 22.1395 88.1557 22.5946C88.5607 22.9975 88.8133 23.6551 88.8133 24.5653V30.5797C88.8133 30.7321 88.7633 30.8824 88.5107 30.8824H88.0033C87.853 30.8824 87.7006 30.8323 87.7006 30.5797V24.9703C87.7006 24.2104 87.5482 23.7052 87.2956 23.3524C86.9929 22.9975 86.5378 22.8472 85.9303 22.8472C84.8176 22.8472 83.6525 23.2 82.5899 23.9578V30.6298C82.5899 30.7822 82.5398 30.9346 82.2872 30.9346H81.9323V30.8824H81.9824Z" fill="black"/>
<path d="M95.1885 31.1347C93.821 31.1347 92.7605 30.7819 92.153 30.0242C91.4431 29.2664 91.0903 28.1035 91.0903 26.5357C91.0903 25.1203 91.4431 24.0098 92.153 23.1997C92.8607 22.4419 93.8732 21.9868 95.036 21.9868C96.0987 21.9868 96.8586 22.2895 97.4662 22.897C98.0214 23.4523 98.3263 24.3125 98.3263 25.4252C98.3263 25.828 98.3263 26.183 98.274 26.4856C98.274 26.6381 98.1238 26.7883 97.9714 26.7883H92.153C92.153 28.0012 92.4556 28.9114 92.9108 29.4667C93.4181 30.0241 94.2782 30.3268 95.3409 30.3268C96.201 30.3268 96.9588 30.1744 97.6665 29.9218C97.819 29.8717 97.9714 29.8717 97.9714 29.8717C98.0215 29.8717 98.0214 29.8717 98.1238 29.9218C98.1238 29.974 98.1739 29.9741 98.1739 30.0742V30.3769C98.1739 30.5794 98.1238 30.6818 97.9714 30.7318C97.1113 30.9344 96.1488 31.1347 95.1885 31.1347ZM97.3138 25.9304C97.3138 25.7779 97.3138 25.5754 97.3138 25.3729C97.3138 24.515 97.1113 23.9575 96.7563 23.5547C96.3513 23.1496 95.7437 22.897 94.986 22.897C93.1634 22.897 92.2031 23.9074 92.1007 25.9304H97.3138Z" fill="black"/>
<path d="M103.135 31.0354C102.425 31.0354 101.92 30.8329 101.565 30.4801C101.212 30.1252 101.01 29.62 101.01 28.9123V23.1004H99.6421C99.4918 23.1004 99.3394 23.0504 99.3394 22.7978V22.6453C99.3394 22.5952 99.3394 22.4929 99.3895 22.4428C99.3895 22.3927 99.4395 22.3927 99.5919 22.3927L101.01 22.2403L101.16 19.9669C101.16 19.9169 101.212 19.8145 101.212 19.7644C101.262 19.7143 101.262 19.7144 101.412 19.7144H101.717C101.87 19.7144 102.02 19.7644 102.02 20.017V22.2925H104.5C104.653 22.2925 104.803 22.3426 104.803 22.5952V22.948C104.803 23.1004 104.753 23.2529 104.5 23.2529H102.072V28.9646C102.072 29.4698 102.122 29.7223 102.375 29.9749C102.627 30.2275 102.932 30.2776 103.387 30.2776C103.74 30.2776 104.045 30.2776 104.248 30.2275C104.398 30.2275 104.45 30.1774 104.55 30.1774C104.6 30.1774 104.703 30.1774 104.703 30.1774C104.855 30.1774 104.905 30.2275 104.905 30.3778V30.6827C104.905 30.8852 104.855 30.9853 104.703 31.0354C104.197 30.9352 103.69 31.0354 103.135 31.0354Z" fill="black"/>
<path d="M108.699 30.8835C108.546 30.8835 108.396 30.8334 108.344 30.6831L105.663 22.6959C105.613 22.5435 105.613 22.4934 105.613 22.3932C105.613 22.2909 105.663 22.2408 105.816 22.2408H106.371C106.524 22.2408 106.574 22.2909 106.676 22.4433L109.002 29.7228L111.077 22.4433C111.127 22.2909 111.229 22.2408 111.432 22.2408H112.089C112.242 22.2408 112.392 22.2909 112.444 22.4433L114.517 29.7228L116.947 22.3431C116.997 22.1907 117.098 22.1406 117.25 22.1406H117.755C117.908 22.1406 117.958 22.1907 117.958 22.2909C117.958 22.3431 117.958 22.4433 117.908 22.5957L115.075 30.5808C115.025 30.7332 114.922 30.7833 114.72 30.7833H114.165C114.012 30.7833 113.86 30.7332 113.81 30.5808L111.734 23.3034L109.661 30.5808C109.609 30.7332 109.509 30.7833 109.306 30.7833H108.801V30.8835H108.699Z" fill="black"/>
<path d="M122.969 31.135C121.704 31.135 120.693 30.7321 119.984 29.9221C119.276 29.1643 118.921 28.0015 118.921 26.536C118.921 25.1206 119.276 24.01 119.984 23.1499C120.693 22.3921 121.704 21.937 122.969 21.937C124.234 21.937 125.247 22.342 125.954 23.1499C126.664 23.9077 127.017 25.0705 127.017 26.536C127.017 27.9514 126.664 29.0641 125.954 29.9221C125.197 30.7321 124.234 31.135 122.969 31.135ZM122.969 30.2269C124.944 30.2269 125.954 29.014 125.954 26.536C125.954 24.0601 124.944 22.8472 122.969 22.8472C120.996 22.8472 119.984 24.0601 119.984 26.536C119.984 29.014 120.946 30.2269 122.969 30.2269Z" fill="black"/>
<path d="M129.446 30.8832C129.294 30.8832 129.141 30.8331 129.141 30.5805V22.4931C129.141 22.3429 129.193 22.1904 129.446 22.1904H129.799C130.001 22.1904 130.104 22.2405 130.104 22.4931L130.154 23.5035C130.559 22.9983 131.014 22.6456 131.419 22.4931C131.824 22.2906 132.329 22.1904 132.836 22.1904C133.039 22.1904 133.189 22.1904 133.239 22.1904C133.392 22.1904 133.544 22.2405 133.544 22.4931V22.8981C133.544 22.9482 133.544 22.9482 133.494 23.0506C133.442 23.1007 133.442 23.1006 133.342 23.1006C133.292 23.1006 133.139 23.1006 133.039 23.1006C132.987 23.1006 132.836 23.1006 132.684 23.1006C132.179 23.1006 131.671 23.1507 131.266 23.4033C130.861 23.6058 130.509 23.9085 130.054 24.3135V30.6306C130.054 30.783 130.001 30.9355 129.749 30.9355H129.396V30.8832H129.446Z" fill="black"/>
<path d="M135.364 30.8837C135.214 30.8837 135.062 30.8336 135.062 30.581V18.3999C135.062 18.2474 135.112 18.0972 135.364 18.0972H135.872C136.024 18.0972 136.174 18.1473 136.174 18.3999V26.0822L140.272 22.3935C140.425 22.2411 140.577 22.241 140.677 22.241H141.335C141.487 22.241 141.538 22.2911 141.538 22.3935C141.538 22.4936 141.487 22.5437 141.335 22.6962L137.137 26.3871L141.69 30.581C141.74 30.6311 141.842 30.7335 141.842 30.7836C141.842 30.936 141.792 30.936 141.64 30.936H140.93C140.78 30.936 140.627 30.8837 140.577 30.7836L136.174 26.6898V30.6311C136.174 30.7836 136.124 30.936 135.872 30.936H135.364V30.8837Z" fill="black"/>
<path d="M3.61035 52.7748C2.64897 52.4198 1.9406 51.9669 1.5358 51.4595C1.13099 50.9543 0.928711 50.2989 0.928711 49.4889C0.928711 48.4785 1.28278 47.6706 2.04187 47.0631C2.80075 46.4555 3.81286 46.1529 5.0778 46.1529C6.14022 46.1529 7.15235 46.3554 8.16426 46.7604V48.5786C7.10161 48.276 6.14022 48.0735 5.22957 48.0735C3.96464 48.0735 3.3068 48.4785 3.3068 49.2864C3.3068 49.5912 3.40806 49.8438 3.61035 50.0441C3.81287 50.2466 4.26818 50.4492 4.87528 50.6517L6.0897 51.1068C7.1016 51.4596 7.80996 51.9147 8.21476 52.3698C8.61957 52.875 8.8726 53.4825 8.8726 54.2903C8.8726 55.4031 8.46779 56.2632 7.65818 56.9186C6.84857 57.5763 5.78615 57.879 4.36944 57.879C3.76212 57.879 3.15503 57.8289 2.54771 57.7287C1.94062 57.6264 1.43454 57.4761 0.979216 57.2736V55.4031C1.5358 55.5555 2.09238 55.7058 2.69969 55.8081C3.30679 55.9083 3.86337 55.9584 4.36944 55.9584C5.02705 55.9584 5.48261 55.8582 5.83668 55.6056C6.19096 55.353 6.34274 55.0481 6.34274 54.5952C6.34274 54.2403 6.24147 53.9877 6.03918 53.7852C5.83666 53.5827 5.38135 53.3801 4.77404 53.1275L3.61035 52.7748ZM12.5154 54.1401C12.5655 54.8478 12.768 55.353 13.173 55.7058C13.5781 56.0084 14.1856 56.1609 14.9956 56.1609C15.7034 56.1609 16.5635 56.0084 17.5259 55.7558V57.3237C17.171 57.5262 16.7159 57.6764 16.1585 57.7788C15.6533 57.8789 15.0958 57.9312 14.5405 57.9312C13.173 57.9312 12.1104 57.5763 11.4025 56.8185C10.6941 56.0607 10.3401 54.9981 10.3401 53.5326C10.3401 52.1673 10.6941 51.1068 11.4025 50.2989C12.1104 49.539 13.123 49.1361 14.3881 49.1361C15.4508 49.1361 16.2608 49.4388 16.8662 50.0441C17.4236 50.6517 17.7263 51.4595 17.7263 52.5723C17.7263 52.8249 17.7263 53.0775 17.6762 53.3801C17.6261 53.685 17.6261 53.9376 17.576 54.1401H12.5154ZM14.2357 50.8041C13.6804 50.8041 13.2754 50.9543 12.9705 51.2592C12.6679 51.5619 12.5154 52.017 12.4653 52.6224H15.6533V52.3698C15.6533 51.3093 15.1982 50.8041 14.2357 50.8041ZM23.1418 57.5262C22.6867 57.7287 22.1794 57.7788 21.6742 57.7788C20.2065 57.7788 19.4988 56.9709 19.4988 55.353V45.6978H21.8767V55.1505C21.8767 55.4532 21.9268 55.6557 22.0291 55.8081C22.1293 55.9083 22.2817 56.0084 22.5343 56.0084C22.6867 56.0084 22.8892 56.0084 23.1418 55.9584V57.5262ZM26.5323 54.1401C26.5824 54.8478 26.7849 55.353 27.1899 55.7058C27.5949 56.0084 28.2003 56.1609 29.0103 56.1609C29.7202 56.1609 30.5803 56.0084 31.5406 55.7558V57.3237C31.1857 57.5262 30.7306 57.6764 30.1753 57.7788C29.6679 57.8789 29.1127 57.9312 28.5552 57.9312C27.1899 57.9312 26.1272 57.5763 25.4174 56.8185C24.7097 56.0607 24.3547 54.9981 24.3547 53.5326C24.3547 52.1673 24.7097 51.1068 25.4174 50.2989C26.1272 49.539 27.1376 49.1361 28.4028 49.1361C29.4654 49.1361 30.2755 49.4388 30.883 50.0441C31.4405 50.6517 31.7431 51.4595 31.7431 52.5723C31.7431 52.8249 31.7431 53.0775 31.6931 53.3801C31.643 53.685 31.643 53.9376 31.5907 54.1401H26.5323ZM28.3026 50.8041C27.7452 50.8041 27.3401 50.9543 27.0375 51.2592C26.7348 51.5619 26.5824 52.017 26.5323 52.6224H29.7202V52.3698C29.6679 51.3093 29.2128 50.8041 28.3026 50.8041ZM39.4843 57.3237C39.1816 57.4761 38.8267 57.6264 38.4217 57.7287C38.0166 57.8289 37.5615 57.879 37.1565 57.879C35.8413 57.879 34.8287 57.5262 34.121 56.7684C33.4133 56.0084 33.0584 54.948 33.0584 53.5826C33.0584 52.2195 33.4133 51.1569 34.1711 50.3991C34.9311 49.6413 35.9436 49.2363 37.2088 49.2363C38.0166 49.2363 38.7265 49.3887 39.3841 49.7415V51.3093C38.7265 51.1068 38.1691 51.0567 37.6116 51.0567C36.8538 51.0567 36.2964 51.2592 35.9436 51.612C35.5887 52.017 35.4363 52.6223 35.4363 53.4324V53.685C35.4363 54.4929 35.5887 55.1004 35.9436 55.5033C36.2964 55.9083 36.8538 56.0607 37.5615 56.0607C38.0689 56.0607 38.7265 55.9584 39.3841 55.7558V57.3237H39.4843ZM46.0627 57.4761C45.4551 57.6764 44.8476 57.8289 44.0898 57.8289C43.1774 57.8289 42.4697 57.6263 42.0647 57.1712C41.6096 56.7161 41.4071 56.0607 41.4071 55.1505V51.1569H40.1419V49.6914L41.4572 49.4388L41.8121 47.1633H43.7349V49.3887H45.9603V51.1569H43.7349V55.0481C43.7349 55.4031 43.8372 55.6557 43.9875 55.8081C44.1399 55.9584 44.4426 56.0084 44.8476 56.0084C45.2025 56.0084 45.5575 55.9584 46.0126 55.9083V57.4761H46.0627Z" fill="black"/>
<path d="M51.9623 56.5931C51.8666 56.5931 51.8256 56.5536 51.8256 56.4619V50.883H49.8301C49.7344 50.883 49.6934 50.8434 49.6934 50.7512V50.5414C49.6934 50.4498 49.7344 50.4102 49.8301 50.4102H54.3681C54.4634 50.4102 54.5046 50.4498 54.5046 50.5414V50.7512C54.5046 50.8434 54.4634 50.883 54.3681 50.883H52.3723V56.4619C52.3723 56.5536 52.3313 56.5931 52.2356 56.5931H51.9623ZM57.3751 56.7243C56.6369 56.7243 56.0898 56.5275 55.7075 56.1204C55.3381 55.7137 55.1469 55.1228 55.1469 54.335C55.1469 53.5868 55.3381 53.0094 55.7075 52.5892C56.0898 52.169 56.6092 51.9722 57.2792 51.9722C57.8398 51.9722 58.2768 52.13 58.5774 52.432C58.8786 52.747 59.0286 53.1802 59.0286 53.7576C59.0286 53.994 59.015 54.1778 58.9874 54.296C58.9738 54.3876 58.9191 54.4272 58.8239 54.4272H55.6798C55.6798 55.0572 55.8304 55.5164 56.104 55.8054C56.3769 56.1074 56.8145 56.2516 57.4021 56.2516C57.8533 56.2516 58.2768 56.1729 58.6733 56.0287C58.755 56.0022 58.8097 55.9892 58.8374 55.9892C58.8644 55.9892 58.8786 56.0022 58.9056 56.0152C58.9191 56.0417 58.9333 56.0548 58.9333 56.0943V56.2255C58.9333 56.3172 58.9056 56.3828 58.8239 56.4093C58.3998 56.6192 57.908 56.7243 57.3751 56.7243ZM58.5227 54.02C58.5227 53.9414 58.5368 53.8362 58.5368 53.7316C58.5368 53.2984 58.4274 52.9834 58.2086 52.76C57.9898 52.5366 57.6757 52.432 57.2516 52.432C56.2675 52.432 55.7481 52.9698 55.6934 54.033H58.5227V54.02ZM62.1584 56.6978C61.4479 56.6978 60.9014 56.501 60.5185 56.1074C60.1497 55.7137 59.9579 55.1228 59.9579 54.3616C59.9579 53.5998 60.1497 53.0224 60.5185 52.6158C60.9014 52.2086 61.4479 52.0118 62.1584 52.0118C62.5002 52.0118 62.8284 52.0644 63.129 52.1826C63.1972 52.2086 63.2384 52.2742 63.2384 52.3664V52.4976C63.2384 52.5762 63.1972 52.6158 63.129 52.6158C63.1155 52.6158 63.0878 52.6158 63.0608 52.6022C63.0331 52.5892 62.9925 52.5892 62.9243 52.5762C62.6778 52.5236 62.432 52.484 62.1861 52.484C61.5985 52.484 61.1744 52.6288 60.915 52.9172C60.655 53.2062 60.5185 53.666 60.5185 54.309V54.4142C60.5185 55.0312 60.655 55.4904 60.915 55.7793C61.1744 56.0678 61.5985 56.2255 62.1726 56.2255C62.4184 56.2255 62.6778 56.186 62.979 56.1074C63.0472 56.0943 63.0878 56.0813 63.1155 56.0678C63.1425 56.0548 63.1702 56.0548 63.1837 56.0548C63.2519 56.0548 63.2931 56.0943 63.2931 56.173V56.3041C63.2931 56.3963 63.2655 56.4619 63.1972 56.488C62.8831 56.6192 62.5278 56.6978 62.1584 56.6978ZM64.5507 56.5931C64.4548 56.5931 64.4136 56.5536 64.4136 56.4619V50.1213C64.4136 50.0296 64.4548 49.9901 64.5507 49.9901H64.7966C64.8925 49.9901 64.933 50.0296 64.933 50.1213V52.6158C65.2342 52.4184 65.5483 52.2612 65.8901 52.143C66.2183 52.0248 66.5459 51.9722 66.8606 51.9722C67.3112 51.9722 67.6529 52.0904 67.8994 52.3138C68.1453 52.5366 68.2547 52.8782 68.2547 53.3244V56.4619C68.2547 56.5536 68.2135 56.5931 68.1176 56.5931H67.8718C67.7765 56.5931 67.7353 56.5536 67.7353 56.4619V53.5478C67.7353 53.1666 67.6529 52.8782 67.503 52.7074C67.3524 52.5366 67.1065 52.445 66.7647 52.445C66.1495 52.445 65.5483 52.6288 64.9607 53.0094V56.4619C64.9607 56.5536 64.9195 56.5931 64.8236 56.5931H64.5507ZM69.8264 56.5931C69.7305 56.5931 69.6899 56.5536 69.6899 56.4619V52.2346C69.6899 52.143 69.7305 52.1034 69.8264 52.1034H70.0176C70.1134 52.1034 70.1681 52.143 70.1817 52.2346L70.2229 52.6158C70.5234 52.4054 70.8517 52.2482 71.1793 52.13C71.5075 52.0118 71.8357 51.9592 72.1498 51.9592C72.601 51.9592 72.9428 52.0774 73.1886 52.3002C73.4345 52.5236 73.5439 52.8652 73.5439 53.3114V56.4619C73.5439 56.5536 73.5033 56.5931 73.4074 56.5931H73.1616C73.0657 56.5931 73.0245 56.5536 73.0245 56.4619V53.5478C73.0245 53.1666 72.9428 52.8782 72.7922 52.7074C72.6422 52.5366 72.3957 52.445 72.0546 52.445C71.4393 52.445 70.8381 52.6288 70.2499 53.0094V56.4619C70.2499 56.5536 70.2093 56.5931 70.1134 56.5931H69.8264ZM76.8791 56.7243C76.1956 56.7243 75.6627 56.5145 75.2938 56.0943C74.9109 55.6742 74.7333 55.0832 74.7333 54.335C74.7333 53.5868 74.9245 53.0094 75.2938 52.5892C75.6762 52.169 76.2091 51.9592 76.8791 51.9592C77.5626 51.9592 78.0955 52.169 78.4643 52.5892C78.8473 53.0094 79.0384 53.5868 79.0384 54.335C79.0384 55.0832 78.8473 55.6742 78.4643 56.0943C78.0955 56.5145 77.5626 56.7243 76.8791 56.7243ZM76.8791 56.2646C77.9449 56.2646 78.492 55.6216 78.492 54.3486C78.492 53.075 77.959 52.445 76.8791 52.445C75.8132 52.445 75.2662 53.075 75.2662 54.3486C75.2662 55.6216 75.7991 56.2646 76.8791 56.2646ZM81.0342 56.6192C80.7884 56.6192 80.5966 56.5535 80.4601 56.4093C80.3237 56.2651 80.2548 56.0813 80.2548 55.8184V50.1082C80.2548 50.0166 80.296 49.9771 80.3919 49.9771H80.6378C80.7336 49.9771 80.7742 50.0166 80.7742 50.1082V55.8054C80.7742 55.9366 80.8019 56.0287 80.8566 56.0813C80.9113 56.1334 81.0066 56.1599 81.1436 56.1599C81.1848 56.1599 81.2254 56.1599 81.2666 56.1469C81.3077 56.1469 81.3483 56.1334 81.376 56.1334C81.4577 56.1334 81.5124 56.173 81.5124 56.2646V56.4354C81.5124 56.5145 81.4719 56.5535 81.3895 56.5666C81.2801 56.6061 81.1707 56.6192 81.0342 56.6192ZM84.4788 56.7243C83.7953 56.7243 83.2618 56.5145 82.893 56.0943C82.5101 55.6742 82.3324 55.0832 82.3324 54.335C82.3324 53.5868 82.5242 53.0094 82.893 52.5892C83.2759 52.169 83.8088 51.9592 84.4788 51.9592C85.1617 51.9592 85.6952 52.169 86.064 52.5892C86.447 53.0094 86.6381 53.5868 86.6381 54.335C86.6381 55.0832 86.447 55.6742 86.064 56.0943C85.6952 56.5145 85.1617 56.7243 84.4788 56.7243ZM84.4788 56.2646C85.5447 56.2646 86.0911 55.6216 86.0911 54.3486C86.0911 53.075 85.5582 52.445 84.4788 52.445C83.4124 52.445 82.8659 53.075 82.8659 54.3486C82.8795 55.6216 83.4124 56.2646 84.4788 56.2646ZM89.4945 58.5357C89.2351 58.5357 88.9751 58.5097 88.7292 58.4571C88.4834 58.4045 88.2646 58.3389 88.0734 58.2473C88.0052 58.2207 87.964 58.1551 87.964 58.0635V57.9317C87.964 57.8531 87.991 57.8141 88.0734 57.8141C88.0869 57.8141 88.114 57.8141 88.1281 57.8271C88.1552 57.8271 88.1963 57.8401 88.251 57.8661C88.6881 57.9973 89.0981 58.0765 89.4539 58.0765C90.028 58.0765 90.4515 57.9453 90.7251 57.6693C90.998 57.3939 91.135 56.9607 91.135 56.3697V55.9366C90.9027 56.1204 90.6562 56.2646 90.3692 56.3697C90.0963 56.4749 89.8227 56.5275 89.5769 56.5275C88.9751 56.5275 88.5104 56.3172 88.1416 55.9105C87.7863 55.5034 87.6087 54.9656 87.6087 54.296C87.6087 53.5738 87.7863 53.0094 88.1416 52.5892C88.4969 52.169 88.9892 51.9592 89.6039 51.9592C90.1915 51.9592 90.6974 52.156 91.1486 52.5502L91.1897 52.2216C91.2033 52.13 91.258 52.0904 91.3533 52.0904H91.545C91.6403 52.0904 91.6815 52.13 91.6815 52.2216V56.3697C91.6815 57.0653 91.4903 57.6037 91.1209 57.9713C90.7521 58.3389 90.1915 58.5357 89.4945 58.5357ZM89.6998 56.0678C90.1645 56.0678 90.6427 55.884 91.135 55.5034V53.0224C90.8751 52.8256 90.6427 52.6678 90.3968 52.5762C90.1645 52.484 89.9045 52.432 89.6451 52.432C89.1528 52.432 88.7704 52.5892 88.5245 52.8912C88.2781 53.2062 88.1551 53.6524 88.1551 54.2694C88.1551 54.8474 88.2922 55.2936 88.5516 55.6086C88.8116 55.9236 89.1939 56.0678 89.6998 56.0678ZM93.2808 58.5357C93.1303 58.5357 92.9938 58.5097 92.8573 58.4701C92.7615 58.4441 92.7203 58.3915 92.7203 58.2863V58.1551C92.7203 58.0765 92.7615 58.0369 92.8297 58.0369C92.8709 58.0369 92.8979 58.0369 92.9256 58.0499C92.9526 58.0499 92.9938 58.0635 93.0485 58.0635C93.1032 58.0635 93.1579 58.0635 93.2397 58.0635C93.445 58.0635 93.6091 58.0109 93.732 57.9057C93.8549 57.8005 93.9643 57.6167 94.0738 57.3543L94.3879 56.6061L92.5562 52.2872C92.5291 52.2346 92.5156 52.1956 92.5156 52.169C92.5156 52.1034 92.5562 52.0644 92.6244 52.0644H92.9256C93.0073 52.0644 93.062 52.1034 93.0897 52.1826L94.6473 56.0152L96.2196 52.1826C96.2466 52.1034 96.3013 52.0644 96.3837 52.0644H96.6566C96.7248 52.0644 96.766 52.0904 96.766 52.169C96.766 52.1826 96.7525 52.2216 96.7248 52.2872L94.5384 57.5121C94.3879 57.8797 94.2102 58.1291 94.0191 58.2863C93.8273 58.4701 93.5814 58.5357 93.2808 58.5357Z" fill="black"/>
<path d="M101.22 58.3579C101.098 58.3579 101.045 58.305 101.045 58.18V50.1549C101.045 50.0307 101.098 49.9771 101.22 49.9771H103.87C104.62 49.9771 105.212 50.2086 105.666 50.6532C106.12 51.0985 106.329 51.7033 106.329 52.4684C106.329 53.2158 106.102 53.8206 105.666 54.2652C105.212 54.7106 104.62 54.9413 103.87 54.9413H101.725V58.18C101.725 58.305 101.673 58.3579 101.551 58.3579H101.22ZM103.853 54.3012C105.021 54.3012 105.614 53.6964 105.614 52.4684C105.614 51.2403 105.021 50.6179 103.853 50.6179H101.725V54.3012H103.853ZM109.241 58.5005C108.7 58.5005 108.264 58.3403 107.933 58.0198C107.619 57.6994 107.445 57.2724 107.445 56.7389C107.445 56.1517 107.636 55.6887 108.038 55.3506C108.438 55.0126 108.979 54.8348 109.659 54.8348C110.182 54.8348 110.758 54.9237 111.351 55.1199V54.1058C111.351 53.6075 111.228 53.2694 111.002 53.0556C110.775 52.8417 110.392 52.7351 109.869 52.7351C109.328 52.7351 108.752 52.8417 108.142 53.0379C108.072 53.0556 108.002 53.0732 107.968 53.0732C107.898 53.0732 107.846 53.0203 107.846 52.913V52.7175C107.846 52.6462 107.863 52.611 107.881 52.5749C107.898 52.5397 107.951 52.5036 108.002 52.486C108.63 52.2369 109.293 52.1127 109.99 52.1127C110.688 52.1127 111.194 52.2545 111.542 52.5573C111.891 52.8601 112.048 53.3047 112.048 53.9095V58.18C112.048 58.305 111.995 58.3579 111.874 58.3579H111.629C111.507 58.3579 111.455 58.305 111.438 58.18L111.385 57.6641C110.688 58.2153 109.973 58.5005 109.241 58.5005ZM109.328 57.8596C109.624 57.8596 109.956 57.8067 110.304 57.6818C110.653 57.5576 111.002 57.3797 111.368 57.1482V55.6358C110.845 55.4932 110.322 55.4219 109.833 55.4219C108.735 55.4219 108.177 55.8489 108.177 56.7213C108.177 57.0946 108.282 57.3797 108.474 57.5752C108.648 57.7707 108.944 57.8596 109.328 57.8596ZM114.036 58.3579C113.913 58.3579 113.861 58.305 113.861 58.18V52.4508C113.861 52.3258 113.913 52.2729 114.036 52.2729H114.262C114.384 52.2729 114.454 52.3258 114.472 52.4508L114.524 53.1621C114.82 52.8241 115.117 52.5749 115.413 52.4508C115.71 52.3082 116.023 52.2369 116.39 52.2369C116.512 52.2369 116.616 52.2369 116.703 52.2545C116.826 52.2545 116.878 52.3258 116.878 52.4508V52.7528C116.878 52.7888 116.86 52.8241 116.843 52.8417C116.826 52.8777 116.79 52.8777 116.756 52.8777C116.686 52.8777 116.633 52.8777 116.582 52.8777C116.529 52.8777 116.442 52.8777 116.337 52.8777C115.971 52.8777 115.657 52.949 115.378 53.0908C115.1 53.2334 114.82 53.4473 114.576 53.7493V58.1977C114.576 58.3226 114.524 58.3755 114.402 58.3755H114.036V58.3579ZM119.772 58.4292C119.302 58.4292 118.953 58.305 118.708 58.0559C118.464 57.8067 118.343 57.4326 118.343 56.952V52.8954H117.401C117.279 52.8954 117.226 52.8417 117.226 52.7175V52.5933C117.226 52.522 117.244 52.486 117.262 52.4508C117.279 52.4147 117.331 52.3971 117.401 52.3971L118.36 52.3082L118.447 50.7068C118.447 50.6355 118.464 50.6003 118.5 50.5642C118.534 50.529 118.569 50.529 118.621 50.529H118.831C118.953 50.529 119.005 50.5826 119.005 50.7068V52.2905H120.731C120.854 52.2905 120.905 52.3442 120.905 52.4684V52.7175C120.905 52.8417 120.854 52.8954 120.731 52.8954H119.005V56.9167C119.005 57.2548 119.074 57.4863 119.214 57.6105C119.354 57.7531 119.58 57.8243 119.912 57.8243C120.139 57.8243 120.348 57.8067 120.522 57.7707C120.609 57.7531 120.679 57.7354 120.731 57.7354C120.784 57.7178 120.818 57.7178 120.854 57.7178C120.941 57.7178 120.992 57.7707 120.992 57.8596V58.0375C120.992 58.18 120.958 58.2513 120.854 58.2866C120.539 58.3755 120.173 58.4292 119.772 58.4292ZM122.405 58.3579C122.283 58.3579 122.231 58.305 122.231 58.18V52.4508C122.231 52.3258 122.283 52.2729 122.405 52.2729H122.649C122.772 52.2729 122.841 52.3258 122.859 52.4508L122.91 52.9666C123.295 52.6822 123.713 52.4684 124.131 52.3082C124.55 52.148 124.968 52.0767 125.37 52.0767C125.945 52.0767 126.381 52.2369 126.695 52.5397C127.008 52.8417 127.148 53.3047 127.148 53.9095V58.18C127.148 58.305 127.095 58.3579 126.974 58.3579H126.659C126.538 58.3579 126.485 58.305 126.485 58.18V54.2299C126.485 53.714 126.381 53.3223 126.189 53.0908C125.997 52.8601 125.683 52.7351 125.247 52.7351C124.463 52.7351 123.695 52.9843 122.946 53.5002V58.18C122.946 58.305 122.893 58.3579 122.772 58.3579H122.405ZM131.49 58.5357C130.548 58.5357 129.851 58.269 129.362 57.7178C128.892 57.1659 128.647 56.3648 128.647 55.2978C128.647 54.2836 128.892 53.5002 129.362 52.9314C129.851 52.3618 130.513 52.0951 131.367 52.0951C132.083 52.0951 132.64 52.3082 133.024 52.7175C133.408 53.1445 133.599 53.7317 133.599 54.5143C133.599 54.8348 133.582 55.0839 133.547 55.2441C133.53 55.3691 133.46 55.4219 133.338 55.4219H129.328C129.328 56.2759 129.519 56.8991 129.868 57.2901C130.217 57.6994 130.775 57.8956 131.524 57.8956C132.1 57.8956 132.64 57.7883 133.146 57.5928C133.251 57.5576 133.321 57.5392 133.355 57.5392C133.39 57.5392 133.408 57.5576 133.442 57.5752C133.46 57.6105 133.478 57.6281 133.478 57.6818V57.8596C133.478 57.9846 133.442 58.0735 133.338 58.1087C132.798 58.3939 132.17 58.5357 131.49 58.5357ZM132.954 54.8708C132.954 54.7635 132.972 54.6217 132.972 54.4791C132.972 53.8919 132.832 53.4649 132.553 53.1621C132.274 52.8601 131.873 52.7175 131.333 52.7175C130.077 52.7175 129.415 53.4473 129.345 54.8884H132.954V54.8708ZM135.29 58.3579C135.169 58.3579 135.116 58.305 135.116 58.18V52.4508C135.116 52.3258 135.169 52.2729 135.29 52.2729H135.517C135.639 52.2729 135.709 52.3258 135.726 52.4508L135.779 53.1621C136.075 52.8241 136.372 52.5749 136.668 52.4508C136.965 52.3082 137.278 52.2369 137.644 52.2369C137.767 52.2369 137.871 52.2369 137.959 52.2545C138.08 52.2545 138.133 52.3258 138.133 52.4508V52.7528C138.133 52.7888 138.116 52.8241 138.098 52.8417C138.08 52.8777 138.046 52.8777 138.011 52.8777C137.941 52.8777 137.889 52.8777 137.837 52.8777C137.784 52.8777 137.697 52.8777 137.593 52.8777C137.226 52.8777 136.912 52.949 136.634 53.0908C136.355 53.2334 136.075 53.4473 135.831 53.7493V58.1977C135.831 58.3226 135.779 58.3755 135.657 58.3755H135.29V58.3579Z" fill="black"/>
</svg>
