<svg width="53" height="42" viewBox="0 0 53 42" fill="none" xmlns="http://www.w3.org/2000/svg">
<path opacity="0.6" d="M26.24 11.8399C26.24 11.8399 18.374 20.0626 12.0157 14.0191C12.0157 14.0191 5.49861 6.59227 7.8347 4.89532C7.8347 4.89532 9.08093 3.66648 16.5682 7.10253L26.24 11.8399Z" fill="#00BFF3"/>
<path opacity="0.6" d="M28.8653 12.7162C28.8653 12.7162 19.6895 19.9862 13.732 12.4681C13.732 12.4681 7.76711 3.46371 10.4062 2.09211C10.4062 2.09211 11.8504 1.01776 19.2912 5.98456L28.8653 12.7162Z" fill="#E20965"/>
<path opacity="0.66" d="M30.4661 13.3402C30.4661 13.3402 20.7013 19.7161 15.4036 11.6292C15.4036 11.6292 10.2256 2.05606 12.9722 0.941911C12.9722 0.941911 14.5044 0.0080008 21.498 5.69106L30.4661 13.3402Z" fill="#2E3192"/>
<path opacity="0.6" d="M28.87 13.1001C28.87 13.1001 19.1835 16.7632 16.2755 9.2638C16.2755 9.2638 13.7708 0.561373 16.3586 0.0862244C16.3586 0.0862244 17.8639 -0.433394 22.7194 5.36434L28.87 13.1001Z" fill="#32004B"/>
<path d="M39.7074 6.14648H52.2383L39.248 7.45255L39.7074 6.14648Z" fill="#0071BC"/>
<path d="M40.6968 6.13075H39.6754C39.6754 6.13075 36.6942 3.71522 33.796 3.95864C33.796 3.95864 28.2588 4.09674 23.1467 11.8489C19.6768 17.113 17.0743 24.0437 17.5655 30.3376C17.7023 32.1095 18.0444 34.0475 18.6798 35.7235C19.6792 38.3637 22.4039 41.0811 25.5342 41.1233C25.5342 41.1233 31.328 41.2028 34.1381 33.5326C34.0623 33.7433 33.08 33.9586 32.9066 34.0195C31.8753 34.3705 30.8294 34.6982 29.769 34.9604C27.6088 35.494 24.5762 35.714 22.6335 34.4173C22.0373 34.0195 21.3262 33.432 21.0818 32.7883C20.7422 31.8871 20.5296 30.6044 20.8888 29.6378C21.3556 28.3832 23.0612 28.4417 24.1535 28.2638C25.517 28.0415 26.8586 27.5921 28.0315 26.8805C30.6999 25.2608 32.9188 22.796 34.0599 19.9639C35.1376 17.2886 34.5389 14.6296 34.8761 11.8676C35.0423 10.5124 35.7362 9.2672 37.1218 8.69137C39.0767 7.87686 40.3547 6.83294 40.6968 6.13075Z" fill="#29ABE2"/>
<path opacity="0.6" d="M25.7851 13.7988C25.7851 13.7988 26.2103 27.5899 14.9648 28.0814C14.9648 28.0814 2.31165 27.5501 2.86635 24.0836C2.86635 24.0836 2.86635 21.9606 12.7508 18.2882L25.7851 13.7988Z" fill="#FF0000"/>
<path opacity="0.6" d="M25.7864 13.7988C25.7864 13.7988 24.1835 27.5104 12.977 26.4804C12.977 26.4804 0.529176 24.2498 1.58726 20.891C1.58726 20.891 1.8976 18.7914 12.2219 16.4859L25.7864 13.7988Z" fill="#EF3A03"/>
<path opacity="0.7" d="M25.7859 13.7988C25.7859 13.7988 22.1865 27.1592 11.2415 24.629C11.2415 24.629 -0.756651 20.7435 0.785272 17.5602C0.785272 17.5602 1.40106 15.5216 11.9624 14.6321L25.7859 13.7988Z" fill="#FFE600"/>
<path opacity="0.6" d="M25.786 13.8003C25.786 13.8003 20.2586 26.5426 9.79498 22.5636C9.79498 22.5636 -1.51407 17.1006 0.479916 14.1561C0.479916 14.1561 1.38895 12.2227 11.9747 12.7634L25.786 13.8003Z" fill="#00A810"/>
<path opacity="0.7" d="M20.8855 31.4351C21.4842 32.795 22.2954 34.2345 23.2754 35.3861C24.8173 37.2024 27.801 38.6279 30.3863 37.8437C30.3863 37.8437 35.1733 36.3902 35.3908 29.6211C35.3835 29.806 34.6382 30.2344 34.5087 30.328C33.756 30.8733 32.9863 31.407 32.1848 31.8915C30.5549 32.8769 28.1186 33.8436 26.1686 33.331C26.1686 33.331 23.5295 33.1133 20.5898 30.6955L20.8855 31.4351Z" fill="#6D68C5"/>
<path d="M20.7936 31.4595C21.2285 32.8756 21.8639 34.3923 22.7021 35.6446C24.0217 37.6153 26.8196 39.3521 29.4806 38.8512C29.4806 38.8512 34.407 37.9243 35.4187 31.2184C35.3918 31.401 34.5976 31.7474 34.4608 31.8246C33.6495 32.2857 32.8211 32.7328 31.9683 33.126C30.2333 33.9288 27.6993 34.6287 25.8201 33.9078C25.8201 33.9078 23.2226 33.4069 20.5859 30.6895L20.7936 31.4595Z" fill="#43B6E6"/>
<path d="M20.4668 31.577C20.3325 32.6092 20.3373 33.7772 20.6134 34.8445C21.0509 36.5251 22.1236 37.9552 24.5086 39.1817C24.5086 39.1817 29.1099 41.9553 33.33 36.3823C33.2397 36.4876 32.421 36.4361 32.272 36.4385C31.3972 36.4525 30.5101 36.4502 29.6231 36.4104C27.8148 36.3262 25.3468 35.9048 23.9685 34.8188C23.9685 34.8188 21.8817 33.6251 20.567 31.0293L20.4668 31.577Z" fill="#FBED20"/>
<path opacity="0.8" d="M20.6583 31.3862C20.839 32.6665 21.1982 34.0638 21.8067 35.2576C22.7622 37.1347 25.2132 39.0049 27.928 38.9206C27.928 38.9206 32.9497 38.7638 35.1245 33.0948C35.0658 33.2493 34.2228 33.4435 34.0737 33.4927C33.1916 33.7853 32.2972 34.0615 31.3881 34.2932C29.5359 34.7614 26.9139 35.0352 25.1887 34.1645C25.1887 34.1645 22.7133 33.3898 20.5898 30.6934L20.6583 31.3862Z" fill="#009239"/>
</svg>
