<svg width="212" height="64" viewBox="0 0 212 64" fill="none" xmlns="http://www.w3.org/2000/svg">
<path d="M71.2148 36.6367H66.7734V34.3047H71.2148C71.9883 34.3047 72.6133 34.1797 73.0898 33.9297C73.5664 33.6797 73.9141 33.3359 74.1328 32.8984C74.3594 32.4531 74.4727 31.9453 74.4727 31.375C74.4727 30.8359 74.3594 30.332 74.1328 29.8633C73.9141 29.3867 73.5664 29.0039 73.0898 28.7148C72.6133 28.4258 71.9883 28.2812 71.2148 28.2812H67.6758V43H64.7344V25.9375H71.2148C72.5352 25.9375 73.6562 26.1719 74.5781 26.6406C75.5078 27.1016 76.2148 27.7422 76.6992 28.5625C77.1836 29.375 77.4258 30.3047 77.4258 31.3516C77.4258 32.4531 77.1836 33.3984 76.6992 34.1875C76.2148 34.9766 75.5078 35.582 74.5781 36.0039C73.6562 36.4258 72.5352 36.6367 71.2148 36.6367ZM82.8047 30.3203V43H79.9688V30.3203H82.8047ZM79.7812 26.9922C79.7812 26.5625 79.9219 26.207 80.2031 25.9258C80.4922 25.6367 80.8906 25.4922 81.3984 25.4922C81.8984 25.4922 82.293 25.6367 82.582 25.9258C82.8711 26.207 83.0156 26.5625 83.0156 26.9922C83.0156 27.4141 82.8711 27.7656 82.582 28.0469C82.293 28.3281 81.8984 28.4688 81.3984 28.4688C80.8906 28.4688 80.4922 28.3281 80.2031 28.0469C79.9219 27.7656 79.7812 27.4141 79.7812 26.9922ZM88.0547 30.3203L90.4688 34.5273L92.9297 30.3203H96.0352L92.1914 36.543L96.1875 43H93.082L90.5039 38.6172L87.9258 43H84.8086L88.793 36.543L84.9609 30.3203H88.0547ZM103.324 43.2344C102.387 43.2344 101.539 43.082 100.781 42.7773C100.031 42.4648 99.3906 42.0312 98.8594 41.4766C98.3359 40.9219 97.9336 40.2695 97.6523 39.5195C97.3711 38.7695 97.2305 37.9609 97.2305 37.0938V36.625C97.2305 35.6328 97.375 34.7344 97.6641 33.9297C97.9531 33.125 98.3555 32.4375 98.8711 31.8672C99.3867 31.2891 99.9961 30.8477 100.699 30.543C101.402 30.2383 102.164 30.0859 102.984 30.0859C103.891 30.0859 104.684 30.2383 105.363 30.543C106.043 30.8477 106.605 31.2773 107.051 31.832C107.504 32.3789 107.84 33.0312 108.059 33.7891C108.285 34.5469 108.398 35.3828 108.398 36.2969V37.5039H98.6016V35.4766H105.609V35.2539C105.594 34.7461 105.492 34.2695 105.305 33.8242C105.125 33.3789 104.848 33.0195 104.473 32.7461C104.098 32.4727 103.598 32.3359 102.973 32.3359C102.504 32.3359 102.086 32.4375 101.719 32.6406C101.359 32.8359 101.059 33.1211 100.816 33.4961C100.574 33.8711 100.387 34.3242 100.254 34.8555C100.129 35.3789 100.066 35.9688 100.066 36.625V37.0938C100.066 37.6484 100.141 38.1641 100.289 38.6406C100.445 39.1094 100.672 39.5195 100.969 39.8711C101.266 40.2227 101.625 40.5 102.047 40.7031C102.469 40.8984 102.949 40.9961 103.488 40.9961C104.168 40.9961 104.773 40.8594 105.305 40.5859C105.836 40.3125 106.297 39.9258 106.688 39.4258L108.176 40.8672C107.902 41.2656 107.547 41.6484 107.109 42.0156C106.672 42.375 106.137 42.668 105.504 42.8945C104.879 43.1211 104.152 43.2344 103.324 43.2344ZM113.625 25V43H110.789V25H113.625ZM127.078 37.4453H130.008C129.914 38.5625 129.602 39.5586 129.07 40.4336C128.539 41.3008 127.793 41.9844 126.832 42.4844C125.871 42.9844 124.703 43.2344 123.328 43.2344C122.273 43.2344 121.324 43.0469 120.48 42.6719C119.637 42.2891 118.914 41.75 118.312 41.0547C117.711 40.3516 117.25 39.5039 116.93 38.5117C116.617 37.5195 116.461 36.4102 116.461 35.1836V33.7656C116.461 32.5391 116.621 31.4297 116.941 30.4375C117.27 29.4453 117.738 28.5977 118.348 27.8945C118.957 27.1836 119.688 26.6406 120.539 26.2656C121.398 25.8906 122.363 25.7031 123.434 25.7031C124.793 25.7031 125.941 25.9531 126.879 26.4531C127.816 26.9531 128.543 27.6445 129.059 28.5273C129.582 29.4102 129.902 30.4219 130.02 31.5625H127.09C127.012 30.8281 126.84 30.1992 126.574 29.6758C126.316 29.1523 125.934 28.7539 125.426 28.4805C124.918 28.1992 124.254 28.0586 123.434 28.0586C122.762 28.0586 122.176 28.1836 121.676 28.4336C121.176 28.6836 120.758 29.0508 120.422 29.5352C120.086 30.0195 119.832 30.6172 119.66 31.3281C119.496 32.0312 119.414 32.8359 119.414 33.7422V35.1836C119.414 36.043 119.488 36.8242 119.637 37.5273C119.793 38.2227 120.027 38.8203 120.34 39.3203C120.66 39.8203 121.066 40.207 121.559 40.4805C122.051 40.7539 122.641 40.8906 123.328 40.8906C124.164 40.8906 124.84 40.7578 125.355 40.4922C125.879 40.2266 126.273 39.8398 126.539 39.332C126.812 38.8164 126.992 38.1875 127.078 37.4453ZM135.234 32.7344V43H132.41V30.3203H135.105L135.234 32.7344ZM139.113 30.2383L139.09 32.8633C138.918 32.832 138.73 32.8086 138.527 32.793C138.332 32.7773 138.137 32.7695 137.941 32.7695C137.457 32.7695 137.031 32.8398 136.664 32.9805C136.297 33.1133 135.988 33.3086 135.738 33.5664C135.496 33.8164 135.309 34.1211 135.176 34.4805C135.043 34.8398 134.965 35.2422 134.941 35.6875L134.297 35.7344C134.297 34.9375 134.375 34.1992 134.531 33.5195C134.688 32.8398 134.922 32.2422 135.234 31.7266C135.555 31.2109 135.953 30.8086 136.43 30.5195C136.914 30.2305 137.473 30.0859 138.105 30.0859C138.277 30.0859 138.461 30.1016 138.656 30.1328C138.859 30.1641 139.012 30.1992 139.113 30.2383ZM147.609 40.457V34.4102C147.609 33.957 147.527 33.5664 147.363 33.2383C147.199 32.9102 146.949 32.6562 146.613 32.4766C146.285 32.2969 145.871 32.207 145.371 32.207C144.91 32.207 144.512 32.2852 144.176 32.4414C143.84 32.5977 143.578 32.8086 143.391 33.0742C143.203 33.3398 143.109 33.6406 143.109 33.9766H140.297C140.297 33.4766 140.418 32.9922 140.66 32.5234C140.902 32.0547 141.254 31.6367 141.715 31.2695C142.176 30.9023 142.727 30.6133 143.367 30.4023C144.008 30.1914 144.727 30.0859 145.523 30.0859C146.477 30.0859 147.32 30.2461 148.055 30.5664C148.797 30.8867 149.379 31.3711 149.801 32.0195C150.23 32.6602 150.445 33.4648 150.445 34.4336V40.0703C150.445 40.6484 150.484 41.168 150.562 41.6289C150.648 42.082 150.77 42.4766 150.926 42.8125V43H148.031C147.898 42.6953 147.793 42.3086 147.715 41.8398C147.645 41.3633 147.609 40.9023 147.609 40.457ZM148.02 35.2891L148.043 37.0352H146.016C145.492 37.0352 145.031 37.0859 144.633 37.1875C144.234 37.2812 143.902 37.4219 143.637 37.6094C143.371 37.7969 143.172 38.0234 143.039 38.2891C142.906 38.5547 142.84 38.8555 142.84 39.1914C142.84 39.5273 142.918 39.8359 143.074 40.1172C143.23 40.3906 143.457 40.6055 143.754 40.7617C144.059 40.918 144.426 40.9961 144.855 40.9961C145.434 40.9961 145.938 40.8789 146.367 40.6445C146.805 40.4023 147.148 40.1094 147.398 39.7656C147.648 39.4141 147.781 39.082 147.797 38.7695L148.711 40.0234C148.617 40.3438 148.457 40.6875 148.23 41.0547C148.004 41.4219 147.707 41.7734 147.34 42.1094C146.98 42.4375 146.547 42.707 146.039 42.918C145.539 43.1289 144.961 43.2344 144.305 43.2344C143.477 43.2344 142.738 43.0703 142.09 42.7422C141.441 42.4062 140.934 41.957 140.566 41.3945C140.199 40.8242 140.016 40.1797 140.016 39.4609C140.016 38.7891 140.141 38.1953 140.391 37.6797C140.648 37.1562 141.023 36.7188 141.516 36.3672C142.016 36.0156 142.625 35.75 143.344 35.5703C144.062 35.3828 144.883 35.2891 145.805 35.2891H148.02ZM156.891 41.6172L160.336 30.3203H163.359L158.273 44.9336C158.156 45.2461 158.004 45.5859 157.816 45.9531C157.629 46.3203 157.383 46.668 157.078 46.9961C156.781 47.332 156.41 47.6016 155.965 47.8047C155.52 48.0156 154.98 48.1211 154.348 48.1211C154.098 48.1211 153.855 48.0977 153.621 48.0508C153.395 48.0117 153.18 47.9688 152.977 47.9219L152.965 45.7656C153.043 45.7734 153.137 45.7812 153.246 45.7891C153.363 45.7969 153.457 45.8008 153.527 45.8008C153.996 45.8008 154.387 45.7422 154.699 45.625C155.012 45.5156 155.266 45.3359 155.461 45.0859C155.664 44.8359 155.836 44.5 155.977 44.0781L156.891 41.6172ZM154.945 30.3203L157.957 39.8125L158.461 42.7891L156.504 43.293L151.898 30.3203H154.945ZM164.25 36.8008V36.5312C164.25 35.6172 164.383 34.7695 164.648 33.9883C164.914 33.1992 165.297 32.5156 165.797 31.9375C166.305 31.3516 166.922 30.8984 167.648 30.5781C168.383 30.25 169.211 30.0859 170.133 30.0859C171.062 30.0859 171.891 30.25 172.617 30.5781C173.352 30.8984 173.973 31.3516 174.48 31.9375C174.988 32.5156 175.375 33.1992 175.641 33.9883C175.906 34.7695 176.039 35.6172 176.039 36.5312V36.8008C176.039 37.7148 175.906 38.5625 175.641 39.3438C175.375 40.125 174.988 40.8086 174.48 41.3945C173.973 41.9727 173.355 42.4258 172.629 42.7539C171.902 43.0742 171.078 43.2344 170.156 43.2344C169.227 43.2344 168.395 43.0742 167.66 42.7539C166.934 42.4258 166.316 41.9727 165.809 41.3945C165.301 40.8086 164.914 40.125 164.648 39.3438C164.383 38.5625 164.25 37.7148 164.25 36.8008ZM167.074 36.5312V36.8008C167.074 37.3711 167.133 37.9102 167.25 38.418C167.367 38.9258 167.551 39.3711 167.801 39.7539C168.051 40.1367 168.371 40.4375 168.762 40.6562C169.152 40.875 169.617 40.9844 170.156 40.9844C170.68 40.9844 171.133 40.875 171.516 40.6562C171.906 40.4375 172.227 40.1367 172.477 39.7539C172.727 39.3711 172.91 38.9258 173.027 38.418C173.152 37.9102 173.215 37.3711 173.215 36.8008V36.5312C173.215 35.9688 173.152 35.4375 173.027 34.9375C172.91 34.4297 172.723 33.9805 172.465 33.5898C172.215 33.1992 171.895 32.8945 171.504 32.6758C171.121 32.4492 170.664 32.3359 170.133 32.3359C169.602 32.3359 169.141 32.4492 168.75 32.6758C168.367 32.8945 168.051 33.1992 167.801 33.5898C167.551 33.9805 167.367 34.4297 167.25 34.9375C167.133 35.4375 167.074 35.9688 167.074 36.5312ZM181.207 33.0273V43H178.383V30.3203H181.043L181.207 33.0273ZM180.703 36.1914L179.789 36.1797C179.797 35.2812 179.922 34.457 180.164 33.707C180.414 32.957 180.758 32.3125 181.195 31.7734C181.641 31.2344 182.172 30.8203 182.789 30.5312C183.406 30.2344 184.094 30.0859 184.852 30.0859C185.461 30.0859 186.012 30.1719 186.504 30.3438C187.004 30.5078 187.43 30.7773 187.781 31.1523C188.141 31.5273 188.414 32.0156 188.602 32.6172C188.789 33.2109 188.883 33.9414 188.883 34.8086V43H186.047V34.7969C186.047 34.1875 185.957 33.707 185.777 33.3555C185.605 32.9961 185.352 32.7422 185.016 32.5938C184.688 32.4375 184.277 32.3594 183.785 32.3594C183.301 32.3594 182.867 32.4609 182.484 32.6641C182.102 32.8672 181.777 33.1445 181.512 33.4961C181.254 33.8477 181.055 34.2539 180.914 34.7148C180.773 35.1758 180.703 35.668 180.703 36.1914ZM198.879 39.5664C198.879 39.2852 198.809 39.0312 198.668 38.8047C198.527 38.5703 198.258 38.3594 197.859 38.1719C197.469 37.9844 196.891 37.8125 196.125 37.6562C195.453 37.5078 194.836 37.332 194.273 37.1289C193.719 36.918 193.242 36.6641 192.844 36.3672C192.445 36.0703 192.137 35.7188 191.918 35.3125C191.699 34.9062 191.59 34.4375 191.59 33.9062C191.59 33.3906 191.703 32.9023 191.93 32.4414C192.156 31.9805 192.48 31.5742 192.902 31.2227C193.324 30.8711 193.836 30.5938 194.438 30.3906C195.047 30.1875 195.727 30.0859 196.477 30.0859C197.539 30.0859 198.449 30.2656 199.207 30.625C199.973 30.9766 200.559 31.457 200.965 32.0664C201.371 32.668 201.574 33.3477 201.574 34.1055H198.75C198.75 33.7695 198.664 33.457 198.492 33.168C198.328 32.8711 198.078 32.6328 197.742 32.4531C197.406 32.2656 196.984 32.1719 196.477 32.1719C195.992 32.1719 195.59 32.25 195.27 32.4062C194.957 32.5547 194.723 32.75 194.566 32.9922C194.418 33.2344 194.344 33.5 194.344 33.7891C194.344 34 194.383 34.1914 194.461 34.3633C194.547 34.5273 194.688 34.6797 194.883 34.8203C195.078 34.9531 195.344 35.0781 195.68 35.1953C196.023 35.3125 196.453 35.4258 196.969 35.5352C197.938 35.7383 198.77 36 199.465 36.3203C200.168 36.6328 200.707 37.0391 201.082 37.5391C201.457 38.0312 201.645 38.6562 201.645 39.4141C201.645 39.9766 201.523 40.4922 201.281 40.9609C201.047 41.4219 200.703 41.8242 200.25 42.168C199.797 42.5039 199.254 42.7656 198.621 42.9531C197.996 43.1406 197.293 43.2344 196.512 43.2344C195.363 43.2344 194.391 43.0312 193.594 42.625C192.797 42.2109 192.191 41.6836 191.777 41.043C191.371 40.3945 191.168 39.7227 191.168 39.0273H193.898C193.93 39.5508 194.074 39.9688 194.332 40.2812C194.598 40.5859 194.926 40.8086 195.316 40.9492C195.715 41.082 196.125 41.1484 196.547 41.1484C197.055 41.1484 197.48 41.082 197.824 40.9492C198.168 40.8086 198.43 40.6211 198.609 40.3867C198.789 40.1445 198.879 39.8711 198.879 39.5664Z" fill="#253053"/>
<path d="M205.188 29.8403V34.106H204.459V29.8403H205.188ZM206.527 29.8403V30.4263H203.132V29.8403H206.527ZM207.389 29.8403H208.045L209.278 33.1304L210.509 29.8403H211.165L209.536 34.106H209.015L207.389 29.8403ZM207.09 29.8403H207.714L207.822 32.688V34.106H207.09V29.8403ZM210.84 29.8403H211.467V34.106H210.731V32.688L210.84 29.8403Z" fill="#253053"/>
<path opacity="0.6" d="M40.3353 18.2573C40.3353 18.2573 28.1303 31.0156 18.2648 21.6385C18.2648 21.6385 8.15271 10.1149 11.7774 7.48194C11.7774 7.48194 13.7111 5.57527 25.3284 10.9067L40.3353 18.2573Z" fill="#00BFF3"/>
<path opacity="0.6" d="M44.4091 19.6154C44.4091 19.6154 30.172 30.8957 20.9282 19.2305C20.9282 19.2305 11.673 5.2592 15.7679 3.13101C15.7679 3.13101 18.0087 1.46404 29.5539 9.17058L44.4091 19.6154Z" fill="#E20965"/>
<path opacity="0.66" d="M46.8917 20.5853C46.8917 20.5853 31.7406 30.4781 23.5207 17.9305C23.5207 17.9305 15.4864 3.07666 19.7481 1.34794C19.7481 1.34794 22.1254 -0.101118 32.9767 8.71676L46.8917 20.5853Z" fill="#2E3192"/>
<path opacity="0.6" d="M44.4158 20.2111C44.4158 20.2111 29.3861 25.8947 24.8742 14.2586C24.8742 14.2586 20.9878 0.755872 25.003 0.0186281C25.003 0.0186281 27.3387 -0.787616 34.8725 8.20819L44.4158 20.2111Z" fill="#32004B"/>
<path d="M61.2318 9.42139H80.6748L60.519 11.4479L61.2318 9.42139Z" fill="#0071BC"/>
<path d="M62.7659 9.397H61.1811C61.1811 9.397 56.5555 5.64905 52.0586 6.02674C52.0586 6.02674 43.467 6.24102 35.5351 18.2693C30.1512 26.4371 26.1131 37.1909 26.8753 46.9566C27.0876 49.7058 27.6183 52.7128 28.6042 55.3133C30.1549 59.4099 34.3825 63.6262 39.2395 63.6917C39.2395 63.6917 48.2292 63.8151 52.5895 51.9139C52.4719 52.2408 50.9477 52.5749 50.6786 52.6694C49.0785 53.2141 47.4557 53.7225 45.8102 54.1293C42.4585 54.9573 37.7531 55.2987 34.7389 53.2867C33.8138 52.6694 32.7104 51.7578 32.3312 50.759C31.8043 49.3608 31.4744 47.3706 32.0317 45.8707C32.756 43.9241 35.4024 44.0149 37.0972 43.7389C39.2129 43.3939 41.2945 42.6965 43.1144 41.5925C47.2547 39.0793 50.6975 35.2549 52.4681 30.8606C54.1403 26.7095 53.2113 22.5839 53.7345 18.2984C53.9924 16.1956 55.0691 14.2635 57.219 13.3701C60.2521 12.1063 62.2352 10.4865 62.7659 9.397Z" fill="#29ABE2"/>
<path opacity="0.6" d="M39.6299 21.2969C39.6299 21.2969 40.2896 42.6952 22.841 43.4579C22.841 43.4579 3.20831 42.6335 4.069 37.2549C4.069 37.2549 4.069 33.9607 19.4058 28.2626L39.6299 21.2969Z" fill="#FF0000"/>
<path opacity="0.6" d="M39.6318 21.2969C39.6318 21.2969 37.1446 42.5718 19.7565 40.9737C19.7565 40.9737 0.442404 37.5127 2.08414 32.3011C2.08414 32.3011 2.56567 29.0434 18.5849 25.4661L39.6318 21.2969Z" fill="#EF3A03"/>
<path opacity="0.7" d="M39.6302 21.2969C39.6302 21.2969 34.0453 42.027 17.063 38.1011C17.063 38.1011 -1.55344 32.0722 0.839022 27.133C0.839022 27.133 1.79448 23.9699 18.1815 22.5898L39.6302 21.2969Z" fill="#FFE600"/>
<path opacity="0.6" d="M39.631 21.2969C39.631 21.2969 31.0546 41.068 14.8192 34.8942C14.8192 34.8942 -2.72806 26.4177 0.365831 21.849C0.365831 21.849 1.77629 18.8492 18.2013 19.6881L39.631 21.2969Z" fill="#00A810"/>
<path opacity="0.7" d="M32.0266 48.6584C32.9555 50.7683 34.2143 53.0019 35.7348 54.7887C38.1272 57.607 42.7567 59.8187 46.7681 58.602C46.7681 58.602 54.1957 56.3467 54.5332 45.8438C54.5218 46.1307 53.3654 46.7953 53.1645 46.9406C51.9966 47.7867 50.8024 48.6148 49.5587 49.3665C47.0298 50.8955 43.2495 52.3954 40.2239 51.6001C40.2239 51.6001 36.1291 51.2623 31.5679 47.5108L32.0266 48.6584Z" fill="#6D68C5"/>
<path d="M31.8852 48.6983C32.5601 50.8954 33.5459 53.2488 34.8464 55.1918C36.8939 58.2497 41.2351 60.9444 45.3641 60.1673C45.3641 60.1673 53.0079 58.7291 54.5776 48.3242C54.5359 48.6075 53.3036 49.1449 53.0913 49.2647C51.8325 49.9802 50.5472 50.6739 49.2239 51.284C46.532 52.5297 42.6001 53.6156 39.6844 52.4971C39.6844 52.4971 35.654 51.7198 31.563 47.5034L31.8852 48.6983Z" fill="#43B6E6"/>
<path d="M31.3771 48.8801C31.1686 50.4817 31.1761 52.294 31.6045 53.95C32.2832 56.5576 33.9477 58.7765 37.6483 60.6796C37.6483 60.6796 44.7877 64.9832 51.3357 56.3361C51.1955 56.4995 49.9252 56.4195 49.694 56.4232C48.3367 56.445 46.9603 56.4414 45.584 56.3797C42.7782 56.2489 38.9488 55.5952 36.8103 53.91C36.8103 53.91 33.5724 52.0579 31.5325 48.0303L31.3771 48.8801Z" fill="#FBED20"/>
<path opacity="0.8" d="M31.674 48.5818C31.9545 50.5683 32.5119 52.7365 33.456 54.5887C34.9385 57.5013 38.7415 60.4031 42.9538 60.2724C42.9538 60.2724 50.7455 60.029 54.1199 51.2329C54.0289 51.4726 52.7208 51.774 52.4895 51.8504C51.1208 52.3043 49.7331 52.7328 48.3226 53.0924C45.4486 53.8188 41.3803 54.2437 38.7035 52.8927C38.7035 52.8927 34.8626 51.6906 31.5679 47.5068L31.674 48.5818Z" fill="#009239"/>
</svg>
