<svg width="114" height="114" viewBox="0 0 114 114" fill="none" xmlns="http://www.w3.org/2000/svg">
<g filter="url(#filter0_d_958_880)">
<circle cx="57" cy="53" r="17" fill="white"/>
<circle cx="57" cy="53" r="16.5" stroke="#E0EEFF"/>
</g>
<path opacity="0.5" fill-rule="evenodd" clip-rule="evenodd" d="M58.0607 62.5398C57.4749 63.1534 56.5251 63.1534 55.9394 62.5398L48.4393 54.6826C47.8536 54.0689 47.8536 53.0739 48.4393 52.4603C49.0251 51.8466 49.9749 51.8466 50.5607 52.4603L57 59.2063L63.4394 52.4603C64.0251 51.8466 64.9749 51.8466 65.5607 52.4603C66.1464 53.0739 66.1464 54.0689 65.5607 54.6826L58.0607 62.5398Z" fill="#016BE3"/>
<path fill-rule="evenodd" clip-rule="evenodd" d="M58.0607 54.5398C57.4749 55.1534 56.5251 55.1534 55.9394 54.5398L48.4393 46.6826C47.8536 46.0689 47.8536 45.0739 48.4393 44.4603C49.0251 43.8466 49.9749 43.8466 50.5607 44.4603L57 51.2063L63.4394 44.4603C64.0251 43.8466 64.9749 43.8466 65.5607 44.4603C66.1464 45.0739 66.1464 46.0689 65.5607 46.6826L58.0607 54.5398Z" fill="#016BE3"/>
<defs>
<filter id="filter0_d_958_880" x="0" y="0" width="114" height="114" filterUnits="userSpaceOnUse" color-interpolation-filters="sRGB">
<feFlood flood-opacity="0" result="BackgroundImageFix"/>
<feColorMatrix in="SourceAlpha" type="matrix" values="0 0 0 0 0 0 0 0 0 0 0 0 0 0 0 0 0 0 127 0" result="hardAlpha"/>
<feOffset dy="4"/>
<feGaussianBlur stdDeviation="20"/>
<feComposite in2="hardAlpha" operator="out"/>
<feColorMatrix type="matrix" values="0 0 0 0 0.690196 0 0 0 0 0.776471 0 0 0 0 1 0 0 0 0.33 0"/>
<feBlend mode="normal" in2="BackgroundImageFix" result="effect1_dropShadow_958_880"/>
<feBlend mode="normal" in="SourceGraphic" in2="effect1_dropShadow_958_880" result="shape"/>
</filter>
</defs>
</svg>
