<svg width="40" height="40" viewBox="0 0 40 40" fill="none" xmlns="http://www.w3.org/2000/svg">
<path d="M20 40C8.95563 40 0 31.0459 0 19.9991C0 8.95414 8.95563 0 20 0C31.0462 0 40 8.95414 40 19.9991C40 31.0459 31.0462 40 20 40Z" fill="#016BE3"/>
<path d="M14.9089 11C14.7251 10.9641 14.6026 10.7897 14.6383 10.6C14.674 10.4154 14.8477 10.2923 15.0315 10.3231L17.1915 10.7231C17.3753 10.759 17.4979 10.9333 17.4672 11.1231C17.457 11.1846 17.4315 11.2359 17.3906 11.2821L15.9711 12.9641C15.8485 13.1077 15.634 13.1231 15.4911 13.0051C15.3481 12.8821 15.3328 12.6667 15.4502 12.5231L15.966 11.9077C14.8681 12.4615 13.8979 13.2308 13.1166 14.1641C12.1617 15.2974 11.4774 16.6667 11.1711 18.159C11.1302 18.3436 10.9515 18.4615 10.7677 18.4256C10.5838 18.3897 10.4664 18.2051 10.5021 18.0205C10.834 16.4103 11.5694 14.9436 12.5957 13.7231C13.4945 12.6564 14.6179 11.7846 15.8945 11.1846L14.9089 11ZM28.8391 21.8051C28.8749 21.6205 29.0536 21.4974 29.2426 21.5385C29.4264 21.5744 29.5438 21.7538 29.5081 21.9385C29.1813 23.5538 28.4562 25.041 27.4196 26.2821C26.526 27.3487 25.4026 28.2256 24.1055 28.8308L25.0911 29.0103C25.2749 29.0462 25.3974 29.2205 25.3668 29.4051C25.3311 29.5897 25.1574 29.7128 24.9685 29.6821L22.8085 29.2872C22.6247 29.2513 22.5021 29.0769 22.5379 28.8872C22.5481 28.8256 22.5736 28.7744 22.6094 28.7282L24.0289 27.0513C24.1515 26.9077 24.366 26.8872 24.5089 27.0103C24.6519 27.1333 24.6672 27.3487 24.5498 27.4923L24.0289 28.1077C25.1421 27.5487 26.1123 26.7692 26.8987 25.841C27.8587 24.6872 28.5379 23.3026 28.8391 21.8051ZM26.2145 8H24.8051V9.00513C24.8153 9.17436 24.6979 9.32821 24.5294 9.35897C24.177 9.42564 23.8349 9.52821 23.5081 9.66667C23.1864 9.8 22.88 9.96923 22.5889 10.1641C22.4562 10.2667 22.2621 10.2615 22.1396 10.1385L21.4196 9.41538L20.4238 10.4154L21.1438 11.1333C21.2562 11.2462 21.2766 11.4308 21.1847 11.5692C20.9855 11.8667 20.8119 12.1795 20.6791 12.5077C20.5464 12.8256 20.4443 13.1641 20.3779 13.5077C20.3574 13.6769 20.2145 13.8103 20.0408 13.8103H19.0247V15.2205H20.0408C20.1991 15.2205 20.3472 15.3333 20.3728 15.4974C20.4391 15.8513 20.5413 16.1949 20.6791 16.5231C20.8119 16.8462 20.9804 17.1538 21.1745 17.4462C21.2766 17.5795 21.2664 17.7744 21.1438 17.8974L20.4238 18.6205L21.4196 19.6205L22.1396 18.8974C22.2519 18.7846 22.4357 18.7641 22.5736 18.8564C22.8698 19.0564 23.1813 19.2308 23.5081 19.3641C23.8247 19.4974 24.1617 19.6 24.5038 19.6667C24.6723 19.6872 24.8051 19.8308 24.8051 20.0103V21.0308H26.2145V20.0103C26.2145 19.8462 26.3268 19.7026 26.4902 19.6718C26.8426 19.6051 27.1847 19.5026 27.5115 19.3641C27.8332 19.2308 28.1396 19.0615 28.4306 18.8667C28.5634 18.7641 28.7574 18.7744 28.88 18.8974L29.6 19.6205L30.5957 18.6205L29.8757 17.9026C29.7634 17.7897 29.743 17.6051 29.8349 17.4667C30.034 17.1692 30.2077 16.8564 30.3404 16.5282C30.4732 16.2051 30.5753 15.8615 30.6468 15.5026C30.6774 15.3436 30.8153 15.2256 30.9787 15.2256H32V13.8103H30.9838C30.8255 13.8103 30.6774 13.6974 30.6468 13.5333C30.5804 13.1795 30.4783 12.8359 30.3404 12.5077C30.2077 12.1846 30.0391 11.8718 29.8451 11.5846C29.743 11.4513 29.7532 11.2564 29.8757 11.1333L30.5957 10.4103L29.6 9.41026L28.88 10.1333C28.7677 10.2462 28.5838 10.2667 28.446 10.1744C28.1498 9.97436 27.8383 9.8 27.5115 9.66667C27.1949 9.53333 26.8579 9.43077 26.5106 9.3641C26.3421 9.34359 26.2094 9.2 26.2094 9.02564V8H26.2145ZM27.5166 12.5026C27.0009 11.9897 26.2911 11.6667 25.5098 11.6667C24.7285 11.6667 24.0187 11.9846 23.503 12.5026C22.9923 13.0205 22.6757 13.7333 22.6757 14.5179C22.6757 15.3026 22.9923 16.0154 23.503 16.5333C24.0187 17.0513 24.7285 17.3692 25.5098 17.3692C26.2911 17.3692 27.0009 17.0513 27.5166 16.5333C28.0272 16.0205 28.3438 15.3077 28.3438 14.5179C28.3438 13.7333 28.0272 13.0205 27.5166 12.5026ZM25.5098 10.9846C26.48 10.9846 27.3634 11.3795 27.9966 12.0205C28.6349 12.6615 29.0281 13.5436 29.0281 14.5179C29.0281 15.4923 28.6349 16.3795 27.9966 17.0154C27.3583 17.6564 26.48 18.0513 25.5098 18.0513C24.5396 18.0513 23.6562 17.6564 23.023 17.0154C22.3847 16.3795 21.9915 15.4923 21.9915 14.5179C21.9915 13.5436 22.3847 12.6564 23.023 12.0205C23.6613 11.3795 24.5396 10.9846 25.5098 10.9846ZM15.1949 18.9744H13.7855V19.9795C13.7957 20.1487 13.6783 20.3026 13.5098 20.3333C13.1574 20.4 12.8153 20.5026 12.4885 20.641C12.1668 20.7744 11.8604 20.9436 11.5694 21.1385C11.4366 21.241 11.2426 21.2359 11.12 21.1128L10.4 20.3897L9.40936 21.3897L10.1243 22.1077C10.2366 22.2205 10.257 22.4051 10.1651 22.5436C9.96596 22.841 9.79234 23.1538 9.65957 23.4821C9.52681 23.8 9.42468 24.1385 9.3583 24.4821C9.33787 24.6513 9.19489 24.7846 9.02128 24.7846H8V26.1949H9.02128C9.17957 26.1949 9.32766 26.3077 9.35319 26.4718C9.41957 26.8256 9.5217 27.1692 9.65957 27.4974C9.79234 27.8205 9.96085 28.1333 10.1549 28.4205C10.257 28.5538 10.2468 28.7487 10.1243 28.8718L9.40426 29.5949L10.3949 30.5897L11.1149 29.8667C11.2272 29.7538 11.4111 29.7333 11.5489 29.8256C11.8451 30.0256 12.1566 30.2 12.4834 30.3333C12.8 30.4667 13.137 30.5692 13.4843 30.6359C13.6528 30.6564 13.7855 30.8 13.7855 30.9744V32H15.1898V30.9744C15.1898 30.8154 15.3021 30.6667 15.4655 30.641C15.8179 30.5744 16.16 30.4718 16.4868 30.3333C16.8085 30.2 17.12 30.0308 17.406 29.8359C17.5387 29.7333 17.7328 29.7436 17.8553 29.8667L18.5753 30.5897L19.5711 29.5949L18.8562 28.8769C18.7438 28.7641 18.7234 28.5795 18.8153 28.441C19.0145 28.1487 19.183 27.8308 19.3209 27.5026C19.4536 27.1744 19.5557 26.8359 19.6272 26.4769C19.6579 26.3179 19.7957 26.2 19.9591 26.2H20.9804V24.7846H19.9591C19.8009 24.7846 19.6528 24.6718 19.6272 24.5077C19.5609 24.1538 19.4587 23.8103 19.3209 23.4821C19.1881 23.159 19.0196 22.8462 18.8255 22.559C18.7234 22.4256 18.7285 22.2308 18.8511 22.1077L19.5711 21.3846L18.5753 20.3846L17.8553 21.1077C17.743 21.2205 17.5591 21.241 17.4213 21.1487C17.1251 20.9487 16.8136 20.7795 16.4868 20.641C16.1702 20.5077 15.8332 20.4103 15.4911 20.3385C15.3226 20.3179 15.1898 20.1744 15.1898 20V18.9744H15.1949ZM16.497 23.4769C15.9813 22.9641 15.2715 22.641 14.4902 22.641C13.7089 22.641 12.9991 22.959 12.4834 23.4769C11.9677 23.9949 11.6511 24.7077 11.6511 25.4923C11.6511 26.2769 11.9677 26.9897 12.4834 27.5077C12.994 28.0256 13.7038 28.3436 14.4902 28.3436C15.2766 28.3436 15.9813 28.0256 16.497 27.5077C17.0077 26.9949 17.3294 26.2821 17.3294 25.4923C17.3294 24.7026 17.0077 23.9949 16.497 23.4769ZM14.4902 21.959C15.4604 21.959 16.3438 22.3538 16.977 22.9949C17.6153 23.6359 18.0085 24.518 18.0085 25.4923C18.0085 26.4667 17.6153 27.3538 16.977 27.9897C16.3387 28.6256 15.4604 29.0256 14.4902 29.0256C13.52 29.0256 12.6366 28.6308 12.0034 27.9897C11.3651 27.3538 10.9719 26.4667 10.9719 25.4923C10.9719 24.518 11.3651 23.6308 12.0034 22.9949C12.6366 22.3538 13.52 21.959 14.4902 21.959Z" fill="#F8F8F8"/>
</svg>
