<svg width="40" height="40" viewBox="0 0 40 40" fill="none" xmlns="http://www.w3.org/2000/svg">
<path d="M20 40C8.95563 40 0 31.0459 0 19.9991C0 8.95414 8.95563 0 20 0C31.0462 0 40 8.95414 40 19.9991C40 31.0459 31.0462 40 20 40Z" fill="#016BE3"/>
<path d="M16.4336 14.6679C16.4336 15.4096 16.6535 16.1346 17.0656 16.7512C17.4776 17.3679 18.0633 17.8486 18.7485 18.1324C19.4337 18.4162 20.1877 18.4905 20.9151 18.3458C21.6425 18.2011 22.3107 17.8439 22.8351 17.3195C23.3596 16.7951 23.7167 16.1269 23.8614 15.3995C24.0061 14.6721 23.9318 13.9181 23.648 13.2329C23.3642 12.5477 22.8835 11.962 22.2669 11.5499C21.6502 11.1379 20.9252 10.918 20.1835 10.918C19.189 10.918 18.2352 11.313 17.5319 12.0163C16.8287 12.7195 16.4336 13.6734 16.4336 14.6679ZM22.4668 13.7221L19.8169 16.3762C19.699 16.4923 19.5406 16.558 19.3752 16.5595C19.2931 16.5597 19.2118 16.5436 19.136 16.5121C19.0602 16.4806 18.9914 16.4344 18.9335 16.3762L17.9002 15.3429L18.7835 14.4596L19.3752 15.0471L21.5835 12.8388L22.4668 13.7221Z" fill="#F8F8F8"/>
<path d="M29.3488 27.1666L31.2696 26.225C31.3209 26.2014 31.3669 26.1677 31.4047 26.1258C31.4426 26.084 31.4715 26.0349 31.4899 25.9815C31.5082 25.9281 31.5154 25.8716 31.5112 25.8153C31.5071 25.759 31.4915 25.7042 31.4654 25.6541L28.7363 20.1334C28.7128 20.0821 28.6791 20.0362 28.6372 19.9983C28.5954 19.9604 28.5463 19.9315 28.4929 19.9132C28.4395 19.8949 28.383 19.8876 28.3267 19.8918C28.2704 19.896 28.2156 19.9116 28.1655 19.9376L26.2489 20.8834C26.1981 20.907 26.1527 20.9405 26.1152 20.9821C26.0777 21.0236 26.0489 21.0723 26.0307 21.1252C26.0124 21.178 26.005 21.2341 26.0088 21.2899C26.0126 21.3457 26.0277 21.4002 26.053 21.4501L28.778 26.9833C28.8027 27.0335 28.8372 27.0782 28.8796 27.1148C28.9219 27.1514 28.9712 27.179 29.0245 27.1961C29.0778 27.2132 29.1339 27.2194 29.1897 27.2144C29.2454 27.2093 29.2995 27.1931 29.3488 27.1666ZM29.9405 24.9708L30.303 25.7125L29.5988 26.0583L29.2321 25.3166L29.9405 24.9708Z" fill="#F8F8F8"/>
<path d="M27.9705 26.7862L25.7289 22.2279C25.1248 22.4154 23.9581 22.4446 21.8082 21.5696C18.6207 20.2738 16.6916 23.4487 16.1541 24.9362C16.1153 25.0344 16.1153 25.1436 16.154 25.2418C16.1926 25.3401 16.2671 25.4199 16.3624 25.4654C16.9999 25.7528 18.4707 25.4404 19.4332 23.7362L23.0998 26.032C23.5654 25.8025 23.9441 25.4283 24.179 24.9654L24.7706 25.2029C24.5367 25.6973 24.1686 26.116 23.7081 26.4112L26.5289 28.1778C26.8842 27.5996 27.3801 27.1208 27.9705 26.7862Z" fill="#F8F8F8"/>
<path d="M17.7847 32.6199C17.9611 32.7403 18.178 32.786 18.3881 32.7469C18.5981 32.7079 18.7841 32.5873 18.9055 32.4115L19.1347 32.0782C19.2557 31.9019 19.3017 31.6848 19.2626 31.4746C19.2235 31.2645 19.1026 31.0784 18.9263 30.9574C18.7501 30.8364 18.533 30.7904 18.3228 30.8294C18.1126 30.8685 17.9265 30.9895 17.8055 31.1657L18.0347 30.8366C18.1557 30.6609 18.2019 30.4443 18.1632 30.2345C18.1246 30.0247 18.0041 29.8388 17.8284 29.7178C17.6527 29.5968 17.4362 29.5506 17.2263 29.5893C17.0165 29.6279 16.8307 29.7484 16.7097 29.9241C16.8186 29.7477 16.8556 29.5362 16.8131 29.3333C16.7705 29.1304 16.6516 28.9516 16.4809 28.8339C16.3102 28.7162 16.1009 28.6686 15.8961 28.7009C15.6913 28.7332 15.5067 28.8429 15.3806 29.0074L15.1514 29.3408C15.2121 29.2538 15.2551 29.1556 15.278 29.052C15.3008 28.9484 15.303 28.8413 15.2844 28.7368C15.2658 28.6324 15.2269 28.5326 15.1697 28.4432C15.1126 28.3538 15.0384 28.2765 14.9514 28.2158C14.8644 28.155 14.7663 28.112 14.6627 28.0892C14.5591 28.0664 14.452 28.0642 14.3475 28.0828C14.243 28.1014 14.1432 28.1403 14.0538 28.1975C13.9644 28.2546 13.8872 28.3288 13.8264 28.4158L13.3681 29.0783C13.3082 29.1655 13.266 29.2638 13.2441 29.3673C13.2221 29.4709 13.2208 29.5777 13.2401 29.6818C13.2595 29.7859 13.2991 29.8851 13.3568 29.9739C13.4145 30.0626 13.4892 30.1392 13.5764 30.1991C13.6637 30.259 13.7619 30.3011 13.8655 30.3231C13.969 30.345 14.0759 30.3464 14.18 30.327C14.2841 30.3077 14.3833 30.268 14.4721 30.2103C14.5608 30.1526 14.6373 30.078 14.6972 29.9907C14.5746 30.1653 14.5263 30.3815 14.563 30.5917C14.5998 30.8019 14.7185 30.9889 14.8931 31.1116C15.0677 31.2342 15.2838 31.2825 15.494 31.2458C15.7042 31.209 15.8912 31.0903 16.0139 30.9157L16.243 30.5866C16.122 30.7628 16.076 30.9799 16.1151 31.1901C16.1541 31.4003 16.2751 31.5864 16.4514 31.7074C16.6276 31.8284 16.8447 31.8744 17.0549 31.8353C17.2651 31.7963 17.4512 31.6753 17.5722 31.499C17.4522 31.676 17.4072 31.8933 17.447 32.1033C17.4868 32.3134 17.6082 32.4991 17.7847 32.6199Z" fill="#F8F8F8"/>
<path d="M9.21588 26.6925L11.0158 27.7133C11.0637 27.7422 11.117 27.7611 11.1723 27.769C11.2277 27.7769 11.2841 27.7735 11.3381 27.7591C11.3922 27.7448 11.4428 27.7196 11.4869 27.6853C11.531 27.6509 11.5678 27.608 11.595 27.5592L14.6783 22.2218C14.7078 22.1737 14.7273 22.1202 14.7355 22.0643C14.7438 22.0085 14.7406 21.9516 14.7262 21.8971C14.7118 21.8425 14.6864 21.7915 14.6517 21.747C14.6169 21.7026 14.5735 21.6656 14.5241 21.6385L12.7241 20.6135C12.676 20.5848 12.6226 20.5661 12.567 20.5585C12.5115 20.5509 12.455 20.5547 12.4009 20.5694C12.3468 20.5842 12.2963 20.6098 12.2523 20.6445C12.2083 20.6793 12.1718 20.7226 12.145 20.7718L9.06172 26.1092C9.03217 26.1573 9.01269 26.2108 9.00446 26.2666C8.99623 26.3224 8.99942 26.3793 9.01383 26.4339C9.02825 26.4884 9.05359 26.5395 9.08832 26.5839C9.12305 26.6284 9.16645 26.6653 9.21588 26.6925Z" fill="#F8F8F8"/>
<path d="M26.6062 29.9249C26.6826 29.7993 26.723 29.6552 26.7229 29.5082C26.7177 29.3723 26.6792 29.2397 26.611 29.122C26.5427 29.0044 26.4466 28.9052 26.3312 28.8332L19.623 24.6125C18.4731 26.1583 16.8939 26.4083 16.0981 26.0458C15.8582 25.9328 15.6692 25.7343 15.5682 25.4891C15.4672 25.244 15.4615 24.9699 15.5523 24.7208C15.7382 24.2211 15.9755 23.7422 16.2606 23.2917C15.8589 23.1417 15.4791 22.9385 15.1315 22.6875L12.2148 27.7166L13.0982 28.3624L13.3023 28.0666C13.519 27.7517 13.8518 27.5358 14.2276 27.4663C14.6034 27.3967 14.9915 27.4793 15.3064 27.6957C15.4543 27.7956 15.5816 27.9229 15.6814 28.0707L15.7814 28.0499C15.9682 28.0139 16.1602 28.0156 16.3463 28.0549C16.5323 28.0943 16.7086 28.1705 16.8648 28.2791C17.1018 28.4399 17.2836 28.6697 17.3856 28.9374C17.6733 28.9377 17.9541 29.0264 18.1897 29.1915C18.346 29.2983 18.4795 29.4351 18.5825 29.5938C18.6855 29.7526 18.7559 29.9303 18.7897 30.1165C18.7917 30.1512 18.7917 30.186 18.7897 30.2207C19.0087 30.2735 19.2123 30.3769 19.3841 30.5226C19.5559 30.6683 19.6912 30.8522 19.7791 31.0596C19.867 31.267 19.9051 31.4921 19.8903 31.7169C19.8755 31.9417 19.8082 32.1599 19.6939 32.354L20.598 32.8831C20.7804 32.9936 20.9991 33.0271 21.2061 32.9763C21.4132 32.9255 21.5916 32.7946 21.7022 32.6123C21.7771 32.4861 21.8173 32.3424 21.8188 32.1956C21.8177 32.0582 21.7815 31.9233 21.7137 31.8037C21.6459 31.6842 21.5487 31.5839 21.4313 31.5123L22.1105 31.929C22.201 31.9837 22.3015 32.02 22.4061 32.0359C22.5107 32.0518 22.6174 32.047 22.7201 32.0216C22.8228 31.9963 22.9196 31.951 23.0048 31.8882C23.09 31.8255 23.162 31.7466 23.2167 31.6561C23.2714 31.5655 23.3078 31.4651 23.3237 31.3605C23.3396 31.2559 23.3347 31.1492 23.3094 31.0464C23.284 30.9437 23.2387 30.847 23.176 30.7618C23.1132 30.6766 23.0344 30.6046 22.9438 30.5498L23.6355 30.9665C23.726 31.0212 23.8265 31.0576 23.9311 31.0735C24.0357 31.0894 24.1424 31.0845 24.2451 31.0592C24.3478 31.0338 24.4445 30.9885 24.5297 30.9258C24.6149 30.863 24.687 30.7841 24.7417 30.6936C24.7964 30.603 24.8327 30.5026 24.8486 30.398C24.8645 30.2934 24.8597 30.1867 24.8343 30.084C24.809 29.9812 24.7637 29.8845 24.7009 29.7993C24.6382 29.7141 24.5593 29.6421 24.4688 29.5874L25.4979 30.2082C25.5891 30.263 25.6903 30.2991 25.7956 30.3146C25.9009 30.33 26.0082 30.3243 26.1112 30.298C26.2143 30.2716 26.3112 30.2251 26.3961 30.161C26.4811 30.097 26.5525 30.0167 26.6062 29.9249Z" fill="#F8F8F8"/>
<path d="M28.514 18.4165V11.3333C28.5143 11.2784 28.5038 11.2241 28.4831 11.1733C28.4623 11.1226 28.4318 11.0764 28.3932 11.0374L25.4766 8.12084C25.4376 8.08222 25.3914 8.05167 25.3407 8.03094C25.2899 8.0102 25.2356 7.99969 25.1807 8.00001H12.681C12.46 8.00001 12.248 8.0878 12.0917 8.24408C11.9355 8.40036 11.8477 8.61231 11.8477 8.83332V18.8331H12.681V8.83332H24.7641V10.9166C24.7641 11.1376 24.8519 11.3496 25.0081 11.5059C25.1644 11.6621 25.3764 11.7499 25.5974 11.7499H27.6807V18.4165H28.514Z" fill="#F8F8F8"/>
</svg>
