<svg width="40" height="40" viewBox="0 0 40 40" fill="none" xmlns="http://www.w3.org/2000/svg">
<path d="M20 40C8.95563 40 0 31.0459 0 19.9991C0 8.95414 8.95563 0 20 0C31.0462 0 40 8.95414 40 19.9991C40 31.0459 31.0462 40 20 40Z" fill="#016BE3"/>
<path fill-rule="evenodd" clip-rule="evenodd" d="M14.1336 28.0264C14.1336 27.4873 14.8564 27.03 16.0249 26.7265C16.6511 26.5639 17.4137 26.4372 18.2628 26.3594C18.1648 26.2125 18.0679 26.0649 17.972 25.9169C17.791 25.6377 17.6129 25.3559 17.4378 25.0719C16.0509 25.2148 14.8075 25.4612 13.7975 25.7825C12.0691 26.3325 11 27.1239 11 28.0264C11 28.9289 12.0691 29.7203 13.7975 30.2702C15.4491 30.7957 17.7243 31.1208 20.2315 31.1208C22.7388 31.1208 25.014 30.7957 26.6656 30.2702C28.394 29.7203 29.4631 28.9289 29.4631 28.0264C29.4631 27.1239 28.394 26.3325 26.6656 25.7825C25.6331 25.454 24.3567 25.2039 22.9324 25.0625C22.7674 25.3323 22.6001 25.6007 22.4308 25.8673C22.3285 26.0284 22.225 26.1902 22.1202 26.3522C23.0015 26.4293 23.7923 26.5588 24.4381 26.7265C25.6067 27.03 26.3295 27.4873 26.3295 28.0264C26.3295 28.5655 25.6067 29.0227 24.4381 29.3262C23.357 29.607 21.8694 29.7806 20.2315 29.7806C18.5937 29.7806 17.1061 29.607 16.025 29.3262C14.8564 29.0227 14.1336 28.5655 14.1336 28.0264ZM18.5589 26.7961C17.6315 26.8682 16.804 26.9987 16.1402 27.1711C15.1852 27.4191 14.5944 27.7238 14.5944 28.0264C14.5944 28.3289 15.1852 28.6335 16.1402 28.8816C17.1827 29.1523 18.6289 29.3198 20.2315 29.3198C21.8342 29.3198 23.2804 29.1523 24.3229 28.8816C25.2779 28.6335 25.8686 28.3289 25.8686 28.0264C25.8686 27.7238 25.2779 27.4191 24.3229 27.1711C23.6422 26.9943 22.7894 26.8616 21.8332 26.7908C21.5318 27.2456 21.2197 27.6967 20.8956 28.1295L20.6866 28.4048C20.6808 28.4124 20.6747 28.4198 20.6686 28.427C20.2716 28.8217 20.1907 28.749 19.8784 28.5068C19.8145 28.4572 19.8366 28.4745 19.7935 28.4256C19.5045 28.0979 19.2353 27.7418 18.9784 27.3887C18.8361 27.1931 18.6964 26.9954 18.5589 26.7961Z" fill="#F8F8F8"/>
<path d="M20.2308 9C21.9891 9 23.581 9.71275 24.7333 10.865C25.8856 12.0173 26.5983 13.6092 26.5983 15.3675C26.5983 16.7657 25.8681 18.7654 24.8846 20.7978C23.4301 23.8038 21.4149 26.8998 20.4126 28.1913C20.3346 28.2919 20.1901 28.311 20.0896 28.233C20.0754 28.2219 20.0628 28.2096 20.052 28.1963C19.0543 27.1506 17.1682 24.2249 15.7436 21.2807C14.6764 19.075 13.8633 16.8484 13.8633 15.3675C13.8633 13.6092 14.576 12.0173 15.7283 10.865C16.8806 9.71275 18.4725 9 20.2308 9ZM20.0004 12.6584C18.3728 12.7713 17.0723 14.0719 16.9593 15.6995H15.2594V16.1604H16.9593C17.0723 17.788 18.3728 19.0886 20.0004 19.2015V20.9013H20.4612V19.2015C22.0889 19.0886 23.3893 17.788 23.5023 16.1604H25.2022V15.6995H23.5023C23.3893 14.0719 22.0889 12.7713 20.4612 12.6584V10.9585H20.0004V12.6584Z" fill="#F8F8F8"/>
</svg>
