<svg width="40" height="40" viewBox="0 0 40 40" fill="none" xmlns="http://www.w3.org/2000/svg">
<path d="M20 40C8.95563 40 0 31.0459 0 19.9991C0 8.95414 8.95563 0 20 0C31.0462 0 40 8.95414 40 19.9991C40 31.0459 31.0462 40 20 40Z" fill="#016BE3"/>
<path fill-rule="evenodd" clip-rule="evenodd" d="M30.0061 29.34V29.9852L32.9785 27.8936L30.0061 25.8008V26.7176C30.006 26.8009 29.9728 26.8809 29.9138 26.9398C29.8548 26.9988 29.7748 27.0319 29.6915 27.0319H21.2272L22.2147 27.7271C22.2568 27.7556 22.2913 27.7939 22.3153 27.8387C22.3393 27.8835 22.3521 27.9334 22.3526 27.9842C22.353 28.0351 22.3412 28.0852 22.318 28.1304C22.2948 28.1757 22.2609 28.2146 22.2194 28.2438L21.1094 29.0257H29.692C29.7753 29.0258 29.8552 29.059 29.914 29.1179C29.9729 29.1769 30.006 29.2567 30.0061 29.34Z" fill="#F8F8F8"/>
<path fill-rule="evenodd" clip-rule="evenodd" d="M18.5195 25.895V26.4412C18.5198 26.4924 18.5076 26.5429 18.4839 26.5883C18.4602 26.6337 18.4258 26.6727 18.3836 26.7017C18.3414 26.7308 18.2928 26.7491 18.2419 26.755C18.191 26.7609 18.1395 26.7544 18.0918 26.7358C16.8265 26.3538 15.6942 25.6236 14.8243 24.6286C13.9543 23.6336 13.3818 22.414 13.1721 21.1091L12.4833 22.0874C12.4548 22.1295 12.4165 22.1641 12.3717 22.1881C12.3269 22.2121 12.2769 22.225 12.2261 22.2254C12.1753 22.2259 12.1251 22.2141 12.0798 22.1909C12.0346 22.1678 11.9956 22.134 11.9663 22.0924L11.1367 20.9141C11.3316 22.8166 12.1251 24.6082 13.403 26.0311C14.681 27.4539 16.3774 28.4345 18.2482 28.8318C18.3234 28.8422 18.3924 28.8795 18.4423 28.9368C18.4921 28.9941 18.5196 29.0675 18.5195 29.1435V30.0797L21.492 27.9881L18.5195 25.895Z" fill="#F8F8F8"/>
<path fill-rule="evenodd" clip-rule="evenodd" d="M23.0312 26.4025H26.4836C27.733 25.1638 28.5931 23.5869 28.9582 21.8657C28.9684 21.7903 29.0056 21.7212 29.0629 21.6711C29.1202 21.6211 29.1937 21.5935 29.2698 21.5935H30.1115L28.0199 18.6211L25.9283 21.5935H26.5687C26.62 21.5932 26.6705 21.6053 26.716 21.629C26.7614 21.6527 26.8004 21.6871 26.8294 21.7293C26.8585 21.7715 26.8768 21.8202 26.8827 21.8711C26.8886 21.922 26.8819 21.9735 26.8633 22.0213C26.5733 22.9818 26.0816 23.8693 25.4212 24.6247C24.7608 25.38 23.9468 25.9857 23.0336 26.4013L23.0312 26.4025Z" fill="#F8F8F8"/>
<path fill-rule="evenodd" clip-rule="evenodd" d="M13.5046 27.0312H7V29.0251H16.6877C15.5065 28.575 14.425 27.8976 13.5046 27.0312Z" fill="#F8F8F8"/>
<path fill-rule="evenodd" clip-rule="evenodd" d="M10.9706 18.3882H10.1289L12.2205 21.3606L14.3121 18.3882H13.6726C13.6213 18.3887 13.5706 18.3766 13.5251 18.353C13.4796 18.3293 13.4406 18.2949 13.4115 18.2527C13.3824 18.2104 13.3641 18.1617 13.3583 18.1107C13.3524 18.0598 13.3592 18.0082 13.378 17.9604C13.7596 16.6948 14.4897 15.5622 15.4847 14.6919C16.4797 13.8217 17.6995 13.249 19.0047 13.0392L18.0264 12.3505C17.9843 12.322 17.9497 12.2837 17.9257 12.239C17.9016 12.1942 17.8888 12.1443 17.8883 12.0934C17.8878 12.0426 17.8997 11.9925 17.9228 11.9472C17.946 11.902 17.9798 11.8631 18.0213 11.8338L19.1997 11.0039C17.2969 11.1989 15.505 11.9927 14.0822 13.2711C12.6594 14.5495 11.679 16.2465 11.2822 18.1177C11.2717 18.1929 11.2343 18.2616 11.1771 18.3113C11.1198 18.361 11.0464 18.3883 10.9706 18.3882Z" fill="#F8F8F8"/>
<path fill-rule="evenodd" clip-rule="evenodd" d="M21.9938 11.1533C21.9186 11.1428 21.8498 11.1055 21.8 11.0483C21.7502 10.9911 21.7228 10.9178 21.7227 10.8419V10L18.75 12.0916L21.7227 14.1832V13.544C21.7225 13.4928 21.7347 13.4423 21.7583 13.3969C21.782 13.3516 21.8164 13.3127 21.8586 13.2836C21.9007 13.2546 21.9493 13.2363 22.0001 13.2303C22.051 13.2243 22.1025 13.2309 22.1502 13.2494C23.4157 13.6312 24.5483 14.3613 25.4186 15.3563C26.2888 16.3513 26.8617 17.571 27.0717 18.8761L27.7601 17.8977C27.7886 17.8557 27.8269 17.8211 27.8717 17.7971C27.9165 17.773 27.9665 17.7602 28.0173 17.7597C28.0682 17.7592 28.1183 17.7711 28.1636 17.7942C28.2089 17.8174 28.2478 17.8512 28.2771 17.8927L29.1067 19.0711C28.9117 17.1684 28.118 15.3766 26.8398 13.9538C25.5615 12.5309 23.8648 11.5504 21.9938 11.1533Z" fill="#F8F8F8"/>
<path fill-rule="evenodd" clip-rule="evenodd" d="M22.3521 13.9802V14.7906C22.3519 14.848 22.336 14.9043 22.3061 14.9533C22.2762 15.0024 22.2335 15.0423 22.1825 15.0687C22.1315 15.0952 22.0743 15.1071 22.017 15.1034C21.9597 15.0996 21.9045 15.0801 21.8575 15.0472L19.7865 13.5898C18.5363 13.6553 17.3326 14.0852 16.3238 14.8265C15.3149 15.5678 14.5451 16.5881 14.1091 17.7616H14.9192C14.9766 17.7617 15.0329 17.7776 15.0819 17.8074C15.1309 17.8373 15.1709 17.88 15.1973 17.931C15.2238 17.9819 15.2358 18.0391 15.2321 18.0964C15.2283 18.1537 15.209 18.2088 15.1761 18.2559L13.7188 20.3266C13.7842 21.5769 14.214 22.7807 14.9553 23.7897C15.6966 24.7987 16.7169 25.5687 17.8905 26.0049V25.2887C17.8906 25.2313 17.9065 25.175 17.9364 25.126C17.9663 25.0769 18.0091 25.037 18.0601 25.0106C18.111 24.9841 18.1683 24.9722 18.2256 24.976C18.2829 24.9798 18.3381 24.9992 18.3851 25.0321L20.3294 26.4005C21.6021 26.3586 22.8335 25.939 23.8669 25.1951C24.9004 24.4512 25.6891 23.4167 26.1329 22.2232H25.3225C25.2651 22.223 25.2088 22.2072 25.1598 22.1773C25.1107 22.1475 25.0708 22.1047 25.0444 22.0538C25.0179 22.0029 25.0059 21.9456 25.0096 21.8884C25.0134 21.8311 25.0327 21.7759 25.0656 21.7289L26.5241 19.6567C26.4582 18.4067 26.0281 17.2033 25.2868 16.1946C24.5455 15.186 23.5254 14.4163 22.3521 13.9802ZM20.1214 15.4219C21.0258 15.4219 21.9098 15.6901 22.6617 16.1925C23.4136 16.6949 23.9997 17.409 24.3458 18.2445C24.6918 19.08 24.7824 19.9994 24.606 20.8863C24.4295 21.7733 23.994 22.588 23.3546 23.2275C22.7151 23.8669 21.9004 24.3024 21.0135 24.4788C20.1265 24.6552 19.2072 24.5647 18.3717 24.2186C17.5362 23.8725 16.8221 23.2865 16.3196 22.5346C15.8172 21.7826 15.5491 20.8986 15.5491 19.9943C15.5491 18.7816 16.0308 17.6186 16.8883 16.7611C17.7458 15.9036 18.9088 15.4219 20.1214 15.4219Z" fill="#F8F8F8"/>
<path fill-rule="evenodd" clip-rule="evenodd" d="M20.1194 19.121C20.2531 19.1204 20.3852 19.1507 20.5053 19.2094L21.4239 18.3604C21.454 18.3325 21.4894 18.3108 21.528 18.2966C21.5665 18.2824 21.6075 18.2759 21.6485 18.2775C21.6896 18.2791 21.7299 18.2888 21.7673 18.306C21.8046 18.3232 21.8381 18.3476 21.866 18.3778C21.8939 18.4079 21.9156 18.4433 21.9298 18.4819C21.9441 18.5204 21.9505 18.5614 21.9489 18.6025C21.9473 18.6435 21.9376 18.6839 21.9204 18.7212C21.9032 18.7585 21.8788 18.7921 21.8487 18.82L20.9304 19.6704C20.9746 19.7776 20.9969 19.8925 20.9962 20.0085C20.9955 20.1244 20.9717 20.239 20.9263 20.3456C20.8808 20.4523 20.8146 20.5488 20.7314 20.6296C20.6483 20.7104 20.5499 20.7738 20.442 20.8161C20.3341 20.8585 20.2188 20.879 20.103 20.8763C19.9871 20.8737 19.8728 20.848 19.767 20.8008C19.6611 20.7536 19.5657 20.6858 19.4863 20.6013C19.4069 20.5168 19.3451 20.4174 19.3046 20.3088H18.3247C18.2413 20.3088 18.1613 20.2757 18.1023 20.2167C18.0433 20.1577 18.0101 20.0776 18.0101 19.9942C18.0101 19.9108 18.0433 19.8307 18.1023 19.7717C18.1613 19.7127 18.2413 19.6796 18.3247 19.6796H19.3046C19.368 19.5149 19.4798 19.3733 19.6252 19.2734C19.7707 19.1735 19.9429 19.12 20.1194 19.1199V19.121ZM20.292 19.8216C20.2459 19.7777 20.1844 19.7536 20.1207 19.7544C20.057 19.7552 19.9962 19.7809 19.9511 19.8259C19.9061 19.871 19.8804 19.9318 19.8796 19.9955C19.8788 20.0592 19.9029 20.1207 19.9468 20.1668C19.9929 20.2107 20.0544 20.2348 20.1181 20.234C20.1818 20.2332 20.2426 20.2075 20.2877 20.1625C20.3327 20.1174 20.3584 20.0566 20.3592 19.9929C20.36 19.9292 20.3359 19.8677 20.292 19.8216ZM17.5888 17.9085L17.8192 18.1389C17.8782 18.1978 17.9582 18.2309 18.0416 18.2309C18.125 18.2309 18.205 18.1977 18.2639 18.1387C18.3229 18.0797 18.356 17.9997 18.3559 17.9163C18.3559 17.8329 18.3227 17.753 18.2638 17.694L18.0337 17.4639C18.0045 17.4347 17.9698 17.4116 17.9317 17.3957C17.8935 17.3799 17.8527 17.3718 17.8114 17.3718C17.7701 17.3718 17.7292 17.3799 17.691 17.3957C17.6529 17.4115 17.6182 17.4346 17.589 17.4638C17.5598 17.493 17.5366 17.5276 17.5208 17.5658C17.505 17.6039 17.4968 17.6448 17.4968 17.6861C17.4968 17.7274 17.5049 17.7683 17.5207 17.8065C17.5365 17.8446 17.5597 17.8793 17.5888 17.9085ZM22.6497 22.0799C22.6788 22.1091 22.702 22.1438 22.7178 22.182C22.7336 22.2201 22.7417 22.261 22.7417 22.3023C22.7417 22.3436 22.7335 22.3845 22.7177 22.4226C22.7019 22.4608 22.6787 22.4954 22.6495 22.5246C22.6203 22.5538 22.5856 22.5769 22.5475 22.5927C22.5093 22.6085 22.4684 22.6166 22.4271 22.6166C22.3858 22.6166 22.345 22.6085 22.3068 22.5927C22.2687 22.5768 22.234 22.5537 22.2048 22.5245L21.9747 22.2944C21.9179 22.235 21.8866 22.1556 21.8875 22.0734C21.8885 21.9912 21.9215 21.9126 21.9797 21.8545C22.0378 21.7963 22.1164 21.7633 22.1986 21.7624C22.2808 21.7614 22.3601 21.7927 22.4196 21.8495L22.6497 22.0799ZM18.0337 22.5245C18.0045 22.5537 17.9698 22.5768 17.9317 22.5927C17.8935 22.6085 17.8527 22.6166 17.8114 22.6166C17.7701 22.6166 17.7292 22.6085 17.691 22.5927C17.6529 22.5769 17.6182 22.5538 17.589 22.5246C17.5598 22.4954 17.5366 22.4608 17.5208 22.4226C17.505 22.3845 17.4968 22.3436 17.4968 22.3023C17.4968 22.261 17.5049 22.2201 17.5207 22.182C17.5365 22.1438 17.5597 22.1091 17.5888 22.0799L17.8192 21.8495C17.8782 21.7906 17.9582 21.7575 18.0416 21.7575C18.125 21.7576 18.205 21.7907 18.2639 21.8497C18.3229 21.9087 18.356 21.9887 18.3559 22.0721C18.3559 22.1555 18.3227 22.2354 18.2638 22.2944L18.0337 22.5245ZM22.2048 17.4639L21.9747 17.694C21.9179 17.7535 21.8866 17.8328 21.8875 17.915C21.8885 17.9972 21.9215 18.0758 21.9797 18.1339C22.0378 18.1921 22.1164 18.2251 22.1986 18.2261C22.2808 18.227 22.3601 18.1957 22.4196 18.1389L22.6497 17.9085C22.6788 17.8793 22.702 17.8446 22.7178 17.8065C22.7336 17.7683 22.7417 17.7274 22.7417 17.6861C22.7417 17.6448 22.7335 17.6039 22.7177 17.5658C22.7019 17.5276 22.6787 17.493 22.6495 17.4638C22.6203 17.4346 22.5856 17.4115 22.5475 17.3957C22.5093 17.3799 22.4684 17.3718 22.4271 17.3718C22.3858 17.3718 22.345 17.3799 22.3068 17.3957C22.2687 17.4116 22.234 17.4347 22.2048 17.4639ZM16.8553 20.3088C16.7719 20.3088 16.6918 20.2757 16.6328 20.2167C16.5738 20.1577 16.5407 20.0776 16.5407 19.9942C16.5407 19.9108 16.5738 19.8307 16.6328 19.7717C16.6918 19.7127 16.7719 19.6796 16.8553 19.6796H17.1808C17.2643 19.6796 17.3443 19.7127 17.4033 19.7717C17.4623 19.8307 17.4955 19.9108 17.4955 19.9942C17.4955 20.0776 17.4623 20.1577 17.4033 20.2167C17.3443 20.2757 17.2643 20.3088 17.1808 20.3088H16.8553ZM23.3832 19.6796C23.4666 19.6796 23.5467 19.7127 23.6057 19.7717C23.6647 19.8307 23.6978 19.9108 23.6978 19.9942C23.6978 20.0776 23.6647 20.1577 23.6057 20.2167C23.5467 20.2757 23.4666 20.3088 23.3832 20.3088H23.0577C22.9742 20.3088 22.8942 20.2757 22.8352 20.2167C22.7762 20.1577 22.743 20.0776 22.743 19.9942C22.743 19.9108 22.7762 19.8307 22.8352 19.7717C22.8942 19.7127 22.9742 19.6796 23.0577 19.6796H23.3832ZM20.4337 23.258C20.435 23.3001 20.4278 23.342 20.4126 23.3813C20.3974 23.4206 20.3744 23.4564 20.3451 23.4867C20.3158 23.5169 20.2807 23.541 20.2419 23.5574C20.2031 23.5738 20.1614 23.5822 20.1192 23.5822C20.0771 23.5822 20.0354 23.5738 19.9966 23.5574C19.9578 23.541 19.9227 23.5169 19.8934 23.4867C19.8641 23.4564 19.8411 23.4206 19.8259 23.3813C19.8107 23.342 19.8035 23.3001 19.8048 23.258V22.9339C19.8035 22.8918 19.8107 22.8499 19.8259 22.8106C19.8411 22.7713 19.8641 22.7355 19.8934 22.7053C19.9227 22.675 19.9578 22.651 19.9966 22.6346C20.0354 22.6182 20.0771 22.6097 20.1192 22.6097C20.1614 22.6097 20.2031 22.6182 20.2419 22.6346C20.2807 22.651 20.3158 22.675 20.3451 22.7053C20.3744 22.7355 20.3974 22.7713 20.4126 22.8106C20.4278 22.8499 20.435 22.8918 20.4337 22.9339V23.258ZM19.8048 16.7301C19.8073 16.6484 19.8415 16.5708 19.9002 16.5139C19.9589 16.457 20.0375 16.4251 20.1192 16.4251C20.201 16.4251 20.2796 16.457 20.3383 16.5139C20.397 16.5708 20.4312 16.6484 20.4337 16.7301V17.0556C20.435 17.0977 20.4278 17.1397 20.4126 17.179C20.3974 17.2182 20.3744 17.2541 20.3451 17.2843C20.3158 17.3146 20.2807 17.3386 20.2419 17.355C20.2031 17.3714 20.1614 17.3799 20.1192 17.3799C20.0771 17.3799 20.0354 17.3714 19.9966 17.355C19.9578 17.3386 19.9227 17.3146 19.8934 17.2843C19.8641 17.2541 19.8411 17.2182 19.8259 17.179C19.8107 17.1397 19.8035 17.0977 19.8048 17.0556V16.7301ZM22.9077 17.2059C22.3562 16.6544 21.6536 16.2788 20.8886 16.1266C20.1237 15.9744 19.3308 16.0525 18.6102 16.3509C17.8896 16.6494 17.2737 17.1548 16.8404 17.8033C16.4071 18.4518 16.1758 19.2143 16.1758 19.9942C16.1758 20.7741 16.4071 21.5366 16.8404 22.1851C17.2737 22.8336 17.8896 23.339 18.6102 23.6375C19.3308 23.9359 20.1237 24.014 20.8886 23.8618C21.6536 23.7097 22.3562 23.334 22.9077 22.7825C23.6472 22.043 24.0626 21.04 24.0626 19.9942C24.0626 18.9484 23.6472 17.9454 22.9077 17.2059Z" fill="#F8F8F8"/>
</svg>
