<svg width="37" height="37" viewBox="0 0 37 37" fill="none" xmlns="http://www.w3.org/2000/svg">
<path d="M21.0638 29.9453H15.9396L14.4928 34.7681H11.2676V35.9738H25.7358V34.7681H22.5106L21.0638 29.9453Z" fill="#016BE3"/>
<path d="M1.62109 28.1445C1.62109 28.476 1.89237 28.7473 2.22394 28.7473H34.7775C35.1091 28.7473 35.3804 28.476 35.3804 28.1445V26.3359H1.62109V28.1445Z" fill="#016BE3"/>
<path d="M32.3659 11.2629H24.4234C23.9412 11.2629 23.4815 11.0746 23.1424 10.7355L21.4394 9.02488C21.3263 8.91185 21.1756 8.85156 21.0098 8.85156H14.2806C13.949 8.85156 13.6777 9.12284 13.6777 9.45441V22.1141C13.6777 22.4457 13.949 22.717 14.2806 22.717H32.3659C32.6975 22.717 32.9688 22.4457 32.9688 22.1141V11.8658C32.9688 11.5342 32.6975 11.2629 32.3659 11.2629ZM20.1357 19.2732L19.2842 20.1248L15.8404 16.6885L19.2842 13.2448L20.1357 14.0963L17.5435 16.6885L20.1357 19.2732ZM22.645 19.9966L21.5901 19.4089L24.6043 13.9833L25.6593 14.571L22.645 19.9966ZM27.3698 20.1323L26.5183 19.2808L29.103 16.6961L26.5183 14.1114L27.3698 13.2599L30.8136 16.7036L27.3698 20.1323Z" fill="#016BE3"/>
<path d="M34.7775 1.01562H2.22394C1.89237 1.01562 1.62109 1.28691 1.62109 1.61847V25.1294H35.3804V1.61847C35.3804 1.28691 35.1091 1.01562 34.7775 1.01562ZM11.5379 17.3979L11.0029 18.4755C8.01878 16.991 6.80556 13.3739 8.28253 10.3899C8.8703 9.21431 9.81978 8.2573 11.0029 7.66952L11.5379 8.74711C9.14912 9.93019 8.17703 12.8238 9.36011 15.2126C9.82731 16.1621 10.5884 16.9232 11.5379 17.3979ZM9.73689 6.59947L7.43101 5.68013L6.27807 6.83307L7.19741 9.13896L6.30821 11.2941L4.03247 12.2737V13.9014L6.30821 14.881L7.19741 17.0362L6.27807 19.3421L7.43101 20.495L9.73689 19.5757L11.5002 20.3067L11.0405 21.4219L9.72935 20.8794L7.14466 21.9117L4.86892 19.636L5.90129 17.0513L5.38134 15.8079L2.82678 14.6776V11.4599L5.38134 10.3673L5.90129 9.12388L4.86892 6.53919L7.14466 4.26345L9.72935 5.29582L10.9727 4.77587L12.0729 2.22131H15.2906L16.3832 4.77587L17.6266 5.29582L20.2113 4.26345L21.9671 6.0117L21.1156 6.86322L19.925 5.6726L17.6191 6.59194L15.4639 5.70274L14.4843 3.427H12.8566L11.877 5.70274L9.73689 6.59947ZM34.1747 22.1152C34.1747 23.1099 33.3609 23.9237 32.3662 23.9237H14.2808C13.2861 23.9237 12.4723 23.1099 12.4723 22.1152V9.45545C12.4723 8.46076 13.2861 7.64691 14.2808 7.64691H21.0176C21.4999 7.64691 21.9596 7.8353 22.2987 8.1744L24.0017 9.87744C24.1147 9.99047 24.2654 10.0508 24.4312 10.0508H32.3662C33.3609 10.0508 34.1747 10.8646 34.1747 11.8593V22.1152Z" fill="#0E4B91"/>
</svg>
