<svg width="37" height="37" viewBox="0 0 37 37" fill="none" xmlns="http://www.w3.org/2000/svg">
<path d="M13.2661 15.4609H3.24023V21.729H13.2661V15.4609ZM6.84401 20.4116C6.76541 20.4907 6.66211 20.5302 6.55937 20.5302C6.45663 20.5302 6.35332 20.4907 6.27473 20.4116L4.82794 18.9564C4.67074 18.7983 4.67074 18.5419 4.82794 18.3838L6.26574 16.9376C6.42294 16.7795 6.67783 16.7795 6.83503 16.9376C6.99222 17.0957 6.99222 17.3521 6.83503 17.5102L5.68186 18.6701L6.84401 19.839C7.00121 19.9971 7.00121 20.2535 6.84401 20.4116ZM8.34076 20.5426C8.30708 20.7403 8.13697 20.8797 7.9444 20.8797C7.92194 20.8797 7.89948 20.878 7.87646 20.8741C7.65751 20.8363 7.50986 20.6273 7.54691 20.4071L8.1684 16.7225C8.20602 16.5022 8.41206 16.3537 8.6327 16.391C8.85166 16.4288 8.99931 16.6378 8.96226 16.858L8.34076 20.5426ZM11.6779 18.9146L10.2311 20.3693C10.1525 20.4483 10.0492 20.4878 9.94643 20.4878C9.84369 20.4878 9.74039 20.4483 9.66179 20.3693C9.50459 20.2111 9.50459 19.9548 9.66179 19.7967L10.8239 18.6283L9.67077 17.4679C9.51357 17.3097 9.51357 17.0534 9.67077 16.8953C9.82853 16.7366 10.0829 16.7377 10.2401 16.8953L11.6779 18.342C11.8351 18.5001 11.8351 18.7565 11.6779 18.9146Z" fill="#0E4B91"/>
<path d="M22.9294 14.2626V7.18525C22.9294 6.96163 23.1096 6.78036 23.3319 6.78036H26.9778V4.13421C26.9778 3.18157 26.2064 2.40625 25.2593 2.40625H11.7004C10.7533 2.40625 9.98242 3.18157 9.98242 4.13421V14.6499H13.6693C13.8916 14.6499 14.0718 14.8312 14.0718 15.0548V22.1327C14.0718 22.3563 13.8916 22.5376 13.6693 22.5376H9.98242V33.0533C9.98242 34.0059 10.7533 34.7812 11.7004 34.7812H25.2593C26.2064 34.7812 26.9778 34.0059 26.9778 33.0533V14.6674H23.3319C23.1096 14.6674 22.9294 14.4862 22.9294 14.2626ZM18.529 4.54079H21.198C21.4203 4.54079 21.6005 4.72206 21.6005 4.94568C21.6005 5.16929 21.4203 5.35056 21.198 5.35056H18.529C18.3066 5.35056 18.1264 5.16929 18.1264 4.94568C18.1264 4.72206 18.3066 4.54079 18.529 4.54079ZM15.8268 4.54079H17.0058C17.2281 4.54079 17.4084 4.72206 17.4084 4.94568C17.4084 5.16929 17.2281 5.35056 17.0058 5.35056H15.8268C15.6045 5.35056 15.4243 5.16929 15.4243 4.94568C15.4243 4.72206 15.6045 4.54079 15.8268 4.54079ZM12.725 8.00631H18.7788C19.0011 8.00631 19.1813 8.18758 19.1813 8.4112C19.1813 8.63482 19.0011 8.81608 18.7788 8.81608H12.725C12.5026 8.81608 12.3224 8.63482 12.3224 8.4112C12.3224 8.18758 12.5026 8.00631 12.725 8.00631ZM12.725 11.626C12.5026 11.626 12.3224 11.4447 12.3224 11.2211C12.3224 10.9975 12.5026 10.8162 12.725 10.8162H18.7788C19.0011 10.8162 19.1813 10.9975 19.1813 11.2211C19.1813 11.4447 19.0011 11.626 18.7788 11.626H12.725ZM12.725 24.6941H18.7788C19.0011 24.6941 19.1813 24.8754 19.1813 25.099C19.1813 25.3226 19.0011 25.5039 18.7788 25.5039H12.725C12.5026 25.5039 12.3224 25.3226 12.3224 25.099C12.3224 24.8754 12.5026 24.6941 12.725 24.6941ZM12.3224 27.9095C12.3224 27.6859 12.5026 27.5046 12.725 27.5046H18.7788C19.0011 27.5046 19.1813 27.6859 19.1813 27.9095C19.1813 28.1331 19.0011 28.3144 18.7788 28.3144H12.725C12.5026 28.3144 12.3224 28.1331 12.3224 27.9095ZM21.1721 32.5756C21.1721 33.0251 20.8083 33.391 20.3614 33.391H16.5982C16.1513 33.391 15.7875 33.0251 15.7875 32.5756V31.5936C15.7875 31.1435 16.1513 30.7776 16.5982 30.7776H20.3614C20.8083 30.7776 21.1721 31.1435 21.1721 31.5936V32.5756ZM24.1022 20.4499H18.0484C17.8261 20.4499 17.6458 20.2686 17.6458 20.045C17.6458 19.8214 17.8261 19.6401 18.0484 19.6401H24.1022C24.3245 19.6401 24.5047 19.8214 24.5047 20.045C24.5047 20.2686 24.3245 20.4499 24.1022 20.4499ZM24.5047 17.2351C24.5047 17.4587 24.3245 17.64 24.1022 17.64H18.0484C17.8261 17.64 17.6458 17.4587 17.6458 17.2351C17.6458 17.0115 17.8261 16.8302 18.0484 16.8302H24.1022C24.3245 16.8302 24.5047 17.0115 24.5047 17.2351Z" fill="#016BE3"/>
<path d="M23.7324 7.59375V13.8613H33.7589V7.59375H23.7324ZM27.5394 12.5066C27.4608 12.5856 27.3587 12.6252 27.2554 12.6252C27.152 12.6252 27.0499 12.5856 26.9713 12.5066L25.5239 11.0514C25.3667 10.8933 25.3667 10.6369 25.5239 10.4788L26.9623 9.03259C27.1195 8.87447 27.3732 8.87447 27.5304 9.03259C27.6876 9.1907 27.6876 9.44707 27.5304 9.60519L26.3773 10.7651L27.5394 11.934C27.6966 12.0921 27.6966 12.3485 27.5394 12.5066ZM29.0362 12.6376C29.0036 12.8352 28.8329 12.9747 28.6398 12.9747C28.6185 12.9747 28.5949 12.973 28.5724 12.9691C28.3535 12.9312 28.2064 12.7223 28.2435 12.5021L28.8655 8.81744C28.9014 8.59721 29.1013 8.44474 29.3292 8.48597C29.5482 8.5238 29.6953 8.73274 29.6582 8.95297L29.0362 12.6376ZM32.3733 11.0096L30.9271 12.4648C30.8485 12.5439 30.7463 12.5834 30.643 12.5834C30.5397 12.5834 30.4375 12.5439 30.3589 12.4648C30.2017 12.3067 30.2017 12.0503 30.3589 11.8922L31.5199 10.7233L30.3668 9.56284C30.2107 9.40472 30.2107 9.14835 30.3679 8.99024C30.5251 8.83212 30.78 8.83212 30.9372 8.99024L32.3744 10.437C32.5305 10.5951 32.5305 10.8515 32.3733 11.0096Z" fill="#0E4B91"/>
<path d="M16.5918 32.5742L20.3606 32.5798C20.3634 32.5798 20.3662 32.577 20.3662 32.5742V31.5921L16.5974 31.5859L16.5918 32.5742Z" fill="black"/>
</svg>
