<svg width="37" height="37" viewBox="0 0 37 37" fill="none" xmlns="http://www.w3.org/2000/svg">
<path d="M17.7915 9.01287C15.0239 8.72295 12.8572 7.89147 10.9492 6.375V15.6249C12.8572 14.1084 15.0239 13.277 17.7915 12.987V9.01287Z" fill="#016BE3"/>
<path d="M7.68296 13.5351V8.46094C6.50439 8.70339 5.61523 9.74874 5.61523 10.9983C5.61523 12.2473 6.50439 13.2926 7.68296 13.5351Z" fill="#016BE3"/>
<path d="M9.31941 17.5733C9.64302 17.5733 9.9064 17.3099 9.9064 16.9863V16.7679V5.22513V5.00105C9.9064 4.67744 9.64302 4.41406 9.31941 4.41406C8.9958 4.41406 8.73242 4.67744 8.73242 5.00105V16.9863C8.73242 17.3099 8.9958 17.5733 9.31941 17.5733Z" fill="#016BE3"/>
<path d="M24.8193 10.9955C24.8193 10.5372 24.4462 10.1646 23.9878 10.1646L23.3008 10.1641V11.827H23.9878C24.4462 11.827 24.8193 11.4539 24.8193 10.9955Z" fill="#016BE3"/>
<path d="M18.935 13.7234H19.1667H21.9209H22.1522C22.2068 13.7234 22.2512 13.679 22.2512 13.6244V12.3565V9.64817V8.38027C22.2512 8.32566 22.2068 8.28125 22.1522 8.28125H18.935C18.8803 8.28125 18.8359 8.32566 18.8359 8.38027V8.5385V13.4661V13.6244C18.8359 13.679 18.8803 13.7234 18.935 13.7234Z" fill="#016BE3"/>
<path d="M21.3984 14.7578H19.6895V21.1024H21.3984V14.7578Z" fill="#0E4B91"/>
<path d="M3.57677 10.9992C3.57677 10.7103 3.34299 10.4766 3.05409 10.4766H2.29611C2.00721 10.4766 1.77344 10.7103 1.77344 10.9992C1.77344 11.2881 2.00721 11.5219 2.29611 11.5219H3.05409C3.34299 11.5219 3.57677 11.2881 3.57677 10.9992Z" fill="#016BE3"/>
<path d="M3.50782 13.117L2.85142 13.4958C2.60131 13.6402 2.51556 13.9598 2.66001 14.2099C2.75699 14.3773 2.93258 14.4712 3.11327 14.4712C3.20208 14.4712 3.29191 14.4487 3.37409 14.4013L4.0305 14.0225C4.28061 13.8781 4.36636 13.5586 4.22191 13.3084C4.07695 13.0583 3.7564 12.9726 3.50782 13.117Z" fill="#016BE3"/>
<path d="M4.0305 7.97234L3.37409 7.5936C3.1245 7.44915 2.80446 7.5349 2.66001 7.78501C2.51556 8.03512 2.60131 8.35465 2.85142 8.4991L3.50782 8.87783C3.59 8.9253 3.67984 8.94776 3.76865 8.94776C3.94934 8.94776 4.12493 8.85384 4.22191 8.68642C4.36636 8.43631 4.28061 8.11679 4.0305 7.97234Z" fill="#016BE3"/>
<path d="M9.87502 22.7113C10.1364 22.7113 10.3925 22.7426 10.6381 22.8002C10.889 22.4186 11.3228 22.1625 11.8193 22.1625H29.261C29.7575 22.1625 30.1914 22.4186 30.4475 22.8002C30.6879 22.7426 30.944 22.7113 31.2054 22.7113C31.3308 22.7113 31.451 22.7165 31.5764 22.7322C31.2315 21.7914 30.322 21.1172 29.261 21.1172H11.8193C10.7583 21.1172 9.84889 21.7914 9.50391 22.7322C9.62934 22.7165 9.74958 22.7113 9.87502 22.7113Z" fill="#0E4B91"/>
<path d="M9.87761 28.3719C11.1521 28.3719 12.1888 27.3352 12.1888 26.0612C12.1888 24.7867 11.1521 23.75 9.87761 23.75C8.60308 23.75 7.56641 24.7867 7.56641 26.0612C7.56641 27.3352 8.60308 28.3719 9.87761 28.3719Z" fill="#0E4B91"/>
<path d="M12.4274 28.2422C11.8107 28.9635 10.896 29.4182 9.87679 29.4182C8.85757 29.4182 7.94289 28.9635 7.33137 28.2422C6.43235 28.9739 5.85742 30.0925 5.85742 31.3417V32.0525C5.85742 32.3452 6.09263 32.5752 6.3801 32.5752H13.3735C13.6609 32.5752 13.8962 32.3452 13.8962 32.0525V31.3417C13.8962 30.0925 13.3264 28.9792 12.4274 28.2422Z" fill="#0E4B91"/>
<path d="M18.2324 26.0612C18.2324 27.3352 19.2691 28.3719 20.5436 28.3719C21.8176 28.3719 22.8543 27.3352 22.8543 26.0612C22.8543 24.7867 21.8176 23.75 20.5436 23.75C19.2691 23.75 18.2324 24.7867 18.2324 26.0612Z" fill="#0E4B91"/>
<path d="M23.0921 28.2474C22.4806 28.9688 21.5659 29.4234 20.5467 29.4234C19.5275 29.4234 18.6076 28.9635 17.9961 28.2422C17.1023 28.9792 16.5273 30.0977 16.5273 31.3469V32.0577C16.5273 32.3505 16.7626 32.5804 17.05 32.5804H24.0382C24.3309 32.5804 24.5608 32.3505 24.5608 32.0577V31.3469C24.5608 30.0977 23.9911 28.9792 23.0921 28.2474Z" fill="#0E4B91"/>
<path d="M28.8965 26.0612C28.8965 27.3352 29.9332 28.3719 31.2077 28.3719C32.4817 28.3719 33.5184 27.3352 33.5184 26.0612C33.5184 24.7867 32.4817 23.75 31.2077 23.75C29.9332 23.75 28.8965 24.7867 28.8965 26.0612Z" fill="#0E4B91"/>
<path d="M33.7595 28.2422C33.1427 28.9635 32.228 29.4234 31.2088 29.4234C30.1896 29.4234 29.2749 28.9635 28.6582 28.2422C27.7644 28.9792 27.1895 30.0977 27.1895 31.3469V32.0577C27.1895 32.3505 27.4247 32.5804 27.7121 32.5804H34.7055C34.993 32.5804 35.2282 32.3505 35.2282 32.0577V31.3469C35.2282 30.0977 34.6532 28.9792 33.7595 28.2422Z" fill="#0E4B91"/>
</svg>
