<svg width="26" height="32" viewBox="0 0 26 32" fill="none" xmlns="http://www.w3.org/2000/svg">
<path d="M7.19347 27.8596H1.58694C1.16606 27.8596 0.762412 27.6924 0.464803 27.3948C0.167195 27.0972 0 26.6935 0 26.2726V6.1551C0.0007935 5.77671 0.136219 5.41094 0.382041 5.12327L4.30041 0.551841C4.45011 0.378206 4.63558 0.238992 4.84411 0.143743C5.05265 0.0484934 5.27931 -0.000539727 5.50857 4.48086e-06H12.8392C13.0674 -3.06853e-05 13.2929 0.0492633 13.5003 0.14451C13.7077 0.239757 13.8921 0.378706 14.0408 0.551841L15.8139 2.61225L16.4669 3.36653L17.12 4.11755L17.9788 5.12C18.2261 5.40678 18.3617 5.77313 18.3608 6.15184V26.2726C18.3608 26.693 18.1941 27.0961 17.8972 27.3936C17.6003 27.6911 17.1975 27.8587 16.7771 27.8596H7.19347ZM7.36 5.06123C7.36216 5.32504 7.42169 5.58523 7.53446 5.82374C7.64723 6.06225 7.81054 6.27337 8.01306 6.44245C8.33963 6.7178 8.75164 6.87129 9.17877 6.87674C9.34543 6.87571 9.51122 6.85265 9.67183 6.80816C10.0149 6.71085 10.3218 6.51465 10.554 6.24404C10.7863 5.97343 10.9338 5.64041 10.978 5.28653C10.978 5.21143 10.978 5.13959 10.978 5.06123C10.9787 4.8006 10.9218 4.54304 10.8114 4.30694C10.6397 3.9302 10.3441 3.62362 9.97388 3.43823C9.60366 3.25285 9.18112 3.19982 8.77657 3.28798C8.37202 3.37614 8.00985 3.60017 7.75034 3.9228C7.49083 4.24542 7.34962 4.64718 7.3502 5.06123H7.36ZM4.17959 15.5102C4.18386 15.7074 4.26521 15.8951 4.40621 16.033C4.5472 16.171 4.73662 16.2482 4.93388 16.2482H13.4237C13.5267 16.2549 13.63 16.2405 13.7272 16.2058C13.8244 16.171 13.9134 16.1167 13.9888 16.0461C14.0642 15.9756 14.1242 15.8903 14.1653 15.7956C14.2064 15.7009 14.2276 15.5987 14.2276 15.4955C14.2276 15.3923 14.2064 15.2901 14.1653 15.1954C14.1242 15.1007 14.0642 15.0154 13.9888 14.9449C13.9134 14.8743 13.8244 14.82 13.7272 14.7852C13.63 14.7505 13.5267 14.7361 13.4237 14.7429H4.93388C4.73439 14.7429 4.54303 14.8219 4.40167 14.9626C4.2603 15.1034 4.18045 15.2944 4.17959 15.4939V15.5102ZM7.19347 20.7804H13.4237C13.6246 20.7804 13.8173 20.7006 13.9593 20.5585C14.1014 20.4165 14.1812 20.2238 14.1812 20.0229C14.1812 19.8219 14.1014 19.6293 13.9593 19.4872C13.8173 19.3451 13.6246 19.2653 13.4237 19.2653H4.93388C4.83087 19.2585 4.72756 19.2729 4.63035 19.3077C4.53315 19.3424 4.44411 19.3968 4.36875 19.4673C4.29339 19.5379 4.23332 19.6232 4.19225 19.7179C4.15118 19.8126 4.12999 19.9147 4.12999 20.018C4.12999 20.1212 4.15118 20.2233 4.19225 20.318C4.23332 20.4127 4.29339 20.498 4.36875 20.5686C4.44411 20.6391 4.53315 20.6935 4.63035 20.7282C4.72756 20.763 4.83087 20.7774 4.93388 20.7706H7.19347V20.7804Z" fill="#016BE3"/>
<path d="M25.5412 10.2955V30.4163C25.5412 30.6246 25.5001 30.8308 25.4204 31.0231C25.3406 31.2155 25.2236 31.3902 25.0762 31.5373C24.9288 31.6844 24.7538 31.801 24.5613 31.8804C24.3688 31.9598 24.1625 32.0004 23.9543 32H8.77714C8.56917 32 8.36323 31.959 8.17109 31.8795C7.97895 31.7999 7.80437 31.6832 7.65731 31.5362C7.51026 31.3891 7.3936 31.2145 7.31402 31.0224C7.23443 30.8302 7.19347 30.6243 7.19347 30.4163V29.8808C7.19433 29.7498 7.247 29.6243 7.33999 29.532C7.43297 29.4396 7.55872 29.3878 7.68979 29.3878H16.7641C17.5829 29.3858 18.368 29.0607 18.9486 28.4833C19.2365 28.1965 19.4647 27.8555 19.62 27.48C19.7752 27.1045 19.8544 26.7019 19.8531 26.2955V5.61634C19.8572 5.23315 19.7213 4.86162 19.471 4.57145L19.3731 4.4539C19.3476 4.42544 19.331 4.39017 19.3253 4.35241C19.3196 4.31465 19.3251 4.27605 19.3411 4.24136C19.357 4.20667 19.3828 4.1774 19.4151 4.15715C19.4475 4.1369 19.4851 4.12654 19.5233 4.12736H20.0326C20.2608 4.12776 20.4862 4.17725 20.6935 4.27246C20.9009 4.36768 21.0853 4.5064 21.2343 4.6792L25.1526 9.25063C25.4038 9.54078 25.5417 9.9118 25.5412 10.2955Z" fill="#016BE3" fill-opacity="0.58"/>
</svg>
