<svg width="39" height="39" viewBox="0 0 39 39" fill="none" xmlns="http://www.w3.org/2000/svg">
<path d="M9.45222 5.90688C9.49591 5.87309 9.52752 5.82608 9.54233 5.77287C9.55714 5.71966 9.55436 5.66308 9.53441 5.61157C9.52103 5.57665 9.49613 5.54734 9.46385 5.52847C9.43156 5.5096 9.3938 5.50231 9.3568 5.5078L5.92036 5.61854C5.84198 5.62076 5.76735 5.65261 5.71152 5.70767C5.65568 5.76272 5.62279 5.8369 5.61948 5.91524L5.50734 9.36074C5.50339 9.3971 5.51147 9.43375 5.53034 9.46507C5.54921 9.4964 5.57783 9.52067 5.61182 9.53417C5.66259 9.55444 5.71858 9.55765 5.77134 9.54333C5.8241 9.52901 5.87078 9.49793 5.90434 9.45477L6.69415 8.66496C6.82476 8.53439 7.00188 8.46104 7.18656 8.46104C7.37125 8.46104 7.54837 8.53439 7.67898 8.66496L9.18547 10.1714C9.49796 9.82599 9.8267 9.49725 10.1717 9.18523L8.6652 7.67874C8.53463 7.54813 8.46128 7.371 8.46128 7.18632C8.46128 7.00164 8.53463 6.82452 8.6652 6.69391L9.45222 5.90688Z" fill="#016BE3"/>
<path d="M28.8291 9.1852C29.1745 9.49768 29.5033 9.82643 29.8153 10.1714L31.3218 8.66492C31.4524 8.53435 31.6295 8.461 31.8142 8.461C31.9989 8.461 32.176 8.53435 32.3066 8.66492L33.0936 9.45195C33.1271 9.49601 33.1741 9.52789 33.2275 9.54273C33.2808 9.55757 33.3375 9.55455 33.389 9.53413C33.4235 9.52024 33.4524 9.49524 33.4712 9.46309C33.49 9.43094 33.4976 9.39345 33.4927 9.35653L33.382 5.91869C33.3798 5.84031 33.3479 5.76568 33.2929 5.70985C33.2378 5.65402 33.1636 5.62113 33.0853 5.61781L29.6398 5.50568C29.603 5.49806 29.5648 5.50458 29.5326 5.52395C29.5005 5.54332 29.4768 5.5741 29.4664 5.61015C29.4463 5.66095 29.4432 5.71687 29.4575 5.76958C29.4718 5.82229 29.5028 5.86897 29.5458 5.90267L30.3356 6.69248C30.4661 6.82309 30.5395 7.00021 30.5395 7.1849C30.5395 7.36958 30.4661 7.5467 30.3356 7.67731L28.8291 9.1852Z" fill="#016BE3"/>
<path d="M36.3671 22.2714C36.4023 22.2853 36.441 22.2874 36.4774 22.2773C36.5139 22.2673 36.546 22.2456 36.5691 22.2157L38.919 19.7132C38.9716 19.655 39.0008 19.5793 39.0008 19.5008C39.0008 19.4223 38.9716 19.3466 38.919 19.2884L36.5642 16.7838C36.541 16.7551 36.5092 16.7345 36.4735 16.7252C36.4377 16.716 36.4 16.7184 36.3657 16.7323C36.3167 16.7547 36.2759 16.7918 36.2491 16.8385C36.2222 16.8852 36.2107 16.9391 36.216 16.9928V18.1071C36.216 18.2919 36.1426 18.469 36.012 18.5996C35.8814 18.7302 35.7042 18.8036 35.5195 18.8036H33.3945C33.4064 19.0355 33.43 19.2647 33.43 19.5001C33.43 19.7355 33.4064 19.9647 33.3945 20.1966H35.5195C35.7042 20.1966 35.8814 20.27 36.012 20.4006C36.1426 20.5312 36.216 20.7083 36.216 20.8931V22.0074C36.21 22.0618 36.2214 22.1166 36.2486 22.164C36.2757 22.2114 36.3172 22.249 36.3671 22.2714Z" fill="#016BE3" fill-opacity="0.58"/>
<path d="M2.63366 16.7288C2.59851 16.7149 2.55979 16.7128 2.52335 16.7229C2.48691 16.7329 2.45473 16.7546 2.43168 16.7845L0.0817438 19.287C0.0291308 19.3452 3.8147e-06 19.4209 3.8147e-06 19.4994C3.8147e-06 19.5779 0.0291308 19.6536 0.0817438 19.7118L2.43725 22.2192C2.46042 22.2479 2.49223 22.2685 2.52798 22.2778C2.56373 22.287 2.60151 22.2846 2.63575 22.2707C2.68511 22.2481 2.72607 22.2104 2.75283 22.1632C2.77958 22.1159 2.79077 22.0614 2.78479 22.0074V20.8931C2.78479 20.7084 2.85817 20.5312 2.98879 20.4006C3.11941 20.27 3.29656 20.1966 3.48128 20.1966H5.60625C5.59441 19.9647 5.57073 19.7355 5.57073 19.5001C5.57073 19.2647 5.59441 19.0356 5.60625 18.8036H3.48128C3.29656 18.8036 3.11941 18.7302 2.98879 18.5996C2.85817 18.469 2.78479 18.2919 2.78479 18.1071V16.9928C2.79076 16.9384 2.77934 16.8836 2.75218 16.8362C2.72502 16.7888 2.68353 16.7512 2.63366 16.7288Z" fill="#016BE3" fill-opacity="0.58"/>
<path d="M23.6793 11.1423C23.6793 10.7729 23.5325 10.4186 23.2713 10.1573C23.0101 9.89611 22.6557 9.74936 22.2863 9.74936H16.7144C16.345 9.74936 15.9907 9.89611 15.7295 10.1573C15.4682 10.4186 15.3215 10.7729 15.3215 11.1423V11.8388H23.6793V11.1423Z" fill="#016BE3"/>
<path d="M22.0077 36.2157H20.8934C20.7086 36.2157 20.5315 36.1423 20.4009 36.0117C20.2702 35.8811 20.1969 35.7039 20.1969 35.5192V33.3942C19.9649 33.4061 19.7358 33.4298 19.5004 33.4298C19.265 33.4298 19.0358 33.4061 18.8039 33.3942V35.5192C18.8039 35.7039 18.7305 35.8811 18.5999 36.0117C18.4693 36.1423 18.2921 36.2157 18.1074 36.2157H16.993C16.9387 36.2097 16.8839 36.2211 16.8365 36.2483C16.789 36.2755 16.7514 36.317 16.7291 36.3668C16.7151 36.402 16.7129 36.4407 16.723 36.4772C16.733 36.5136 16.7548 36.5458 16.7848 36.5688L19.2873 38.9187C19.3456 38.9711 19.4213 39 19.4997 39C19.5781 39 19.6537 38.9711 19.7121 38.9187L22.2195 36.5632C22.2483 36.5401 22.2689 36.5083 22.2782 36.4726C22.2875 36.4368 22.285 36.399 22.271 36.3647C22.2483 36.3154 22.2107 36.2744 22.1635 36.2477C22.1162 36.2209 22.0617 36.2097 22.0077 36.2157Z" fill="#016BE3" fill-opacity="0.58"/>
<path d="M10.1717 29.815C9.82624 29.5021 9.4975 29.1733 9.18548 28.8288L7.67898 30.3353C7.54837 30.4659 7.37125 30.5392 7.18657 30.5392C7.00189 30.5392 6.82477 30.4659 6.69416 30.3353L5.90713 29.5483C5.87341 29.5045 5.8264 29.4728 5.77316 29.458C5.71992 29.4432 5.66332 29.446 5.61182 29.4661C5.57727 29.48 5.54833 29.505 5.52954 29.5371C5.51075 29.5693 5.50319 29.6068 5.50805 29.6437L5.61879 33.0801C5.62101 33.1585 5.65286 33.2331 5.70791 33.289C5.76297 33.3448 5.83715 33.3777 5.91549 33.381L9.36099 33.4931C9.41044 33.4834 9.49472 33.4848 9.53441 33.3887C9.55445 33.3379 9.55755 33.2819 9.54325 33.2292C9.52894 33.1765 9.49799 33.1299 9.45502 33.0962L8.6652 32.3063C8.53463 32.1757 8.46128 31.9986 8.46128 31.8139C8.46128 31.6292 8.53463 31.4521 8.6652 31.3215L10.1717 29.815Z" fill="#016BE3"/>
<path d="M29.5485 33.0934C29.5049 33.1272 29.4733 33.1742 29.4584 33.2274C29.4436 33.2806 29.4464 33.3372 29.4664 33.3887C29.4804 33.4232 29.5054 33.452 29.5375 33.4708C29.5696 33.4896 29.6071 33.4972 29.644 33.4924L33.0804 33.3817C33.1588 33.3795 33.2334 33.3476 33.2893 33.2926C33.3451 33.2375 33.378 33.1634 33.3813 33.085L33.4934 29.6395C33.4974 29.6031 33.4893 29.5665 33.4704 29.5352C33.4516 29.5039 33.4229 29.4796 33.389 29.4661C33.3381 29.4463 33.2823 29.4433 33.2296 29.4576C33.177 29.4719 33.1303 29.5027 33.0964 29.5455L32.3066 30.3353C32.176 30.4659 31.9989 30.5392 31.8142 30.5392C31.6295 30.5392 31.4524 30.4659 31.3218 30.3353L29.8153 28.8288C29.5023 29.1743 29.1736 29.503 28.8291 29.815L30.3356 31.3215C30.4661 31.4521 30.5395 31.6292 30.5395 31.8139C30.5395 31.9986 30.4661 32.1757 30.3356 32.3063L29.5485 33.0934Z" fill="#016BE3"/>
<path d="M26.4652 13.2318H12.5356C11.7662 13.2318 11.1426 13.8554 11.1426 14.6247V17.4107C11.1426 18.18 11.7662 18.8036 12.5356 18.8036H26.4652C27.2345 18.8036 27.8582 18.18 27.8582 17.4107V14.6247C27.8582 13.8554 27.2345 13.2318 26.4652 13.2318Z" fill="#016BE3"/>
<path d="M32.0371 19.5001C32.0371 17.0206 31.3018 14.5968 29.9243 12.5351C28.5467 10.4735 26.5888 8.86661 24.298 7.91773C22.0072 6.96886 19.4865 6.72059 17.0546 7.20432C14.6227 7.68805 12.3889 8.88206 10.6356 10.6353C8.88232 12.3886 7.68831 14.6225 7.20458 17.0543C6.72085 19.4862 6.96912 22.0069 7.91799 24.2977C8.86687 26.5885 10.4737 28.5465 12.5354 29.924C14.597 31.3016 17.0209 32.0368 19.5004 32.0368C22.8241 32.0329 26.0106 30.7109 28.3609 28.3606C30.7111 26.0104 32.0332 22.8239 32.0371 19.5001ZM12.5356 27.8579C11.7967 27.8579 11.0881 27.5644 10.5656 27.0419C10.0431 26.5195 9.74962 25.8109 9.74962 25.072V14.6247C9.74962 13.8859 10.0431 13.1773 10.5656 12.6548C11.0881 12.1323 11.7967 11.8388 12.5356 11.8388H13.9285V11.1423C13.9285 10.4035 14.222 9.69484 14.7445 9.17238C15.267 8.64992 15.9756 8.3564 16.7145 8.3564H22.2863C23.0252 8.3564 23.7338 8.64992 24.2563 9.17238C24.7787 9.69484 25.0723 10.4035 25.0723 11.1423V11.8388H26.4652C27.2041 11.8388 27.9127 12.1323 28.4352 12.6548C28.9576 13.1773 29.2511 13.8859 29.2511 14.6247V25.072C29.2511 25.8109 28.9576 26.5195 28.4352 27.0419C27.9127 27.5644 27.2041 27.8579 26.4652 27.8579H12.5356Z" fill="#016BE3" fill-opacity="0.58"/>
<path d="M19.5004 5.57048C19.7358 5.57048 19.9649 5.59416 20.1969 5.606V3.48103C20.1969 3.29631 20.2702 3.11916 20.4009 2.98854C20.5315 2.85793 20.7086 2.78455 20.8933 2.78455H22.0077C22.062 2.79051 22.1169 2.77909 22.1643 2.75194C22.2117 2.72478 22.2493 2.68328 22.2717 2.63341C22.2857 2.59828 22.2878 2.55952 22.2778 2.52306C22.2677 2.48659 22.246 2.45442 22.216 2.43143L19.7135 0.0814987C19.6552 0.0290306 19.5795 0 19.5011 0C19.4226 0 19.347 0.0290306 19.2886 0.0814987L16.7841 2.43631C16.7552 2.45941 16.7346 2.49122 16.7253 2.52699C16.7161 2.56277 16.7186 2.60059 16.7326 2.63481C16.7549 2.6838 16.7921 2.72458 16.8388 2.75143C16.8855 2.77828 16.9394 2.78986 16.993 2.78455H18.1074C18.2921 2.78455 18.4693 2.85793 18.5999 2.98854C18.7305 3.11916 18.8039 3.29631 18.8039 3.48103V5.606C19.0358 5.59416 19.265 5.57048 19.5004 5.57048Z" fill="#016BE3" fill-opacity="0.58"/>
<path d="M22.2863 20.1966V20.8931C22.2863 21.4472 22.0662 21.9787 21.6743 22.3705C21.2825 22.7624 20.751 22.9825 20.1969 22.9825H18.8039C18.2497 22.9825 17.7183 22.7624 17.3264 22.3705C16.9346 21.9787 16.7144 21.4472 16.7144 20.8931V20.1966H12.5356C12.0451 20.1937 11.5642 20.06 11.1426 19.8093V25.072C11.1426 25.4414 11.2893 25.7957 11.5506 26.0569C11.8118 26.3182 12.1661 26.4649 12.5356 26.4649H26.4652C26.8346 26.4649 27.189 26.3182 27.4502 26.0569C27.7114 25.7957 27.8582 25.4414 27.8582 25.072V19.8093C27.4366 20.06 26.9557 20.1937 26.4652 20.1966H22.2863Z" fill="#016BE3"/>
<path d="M20.1969 21.5896C20.3816 21.5896 20.5587 21.5162 20.6893 21.3856C20.82 21.255 20.8933 21.0778 20.8933 20.8931V20.1966H18.1074V20.8931C18.1074 21.0778 18.1808 21.255 18.3114 21.3856C18.442 21.5162 18.6192 21.5896 18.8039 21.5896H20.1969Z" fill="#016BE3"/>
</svg>
