<svg width="30" height="32" viewBox="0 0 30 32" fill="none" xmlns="http://www.w3.org/2000/svg">
<path d="M7.54915 8.22144C7.38723 7.38995 7.38723 6.53805 7.54915 5.70656L9.08388 5.30976C9.19813 4.96111 9.3484 4.62363 9.53257 4.30208L8.74874 3.008C9.26382 2.31398 9.90901 1.71244 10.6533 1.23232L12.0395 1.9632C12.3841 1.79126 12.7459 1.65107 13.1197 1.54464L13.5454 0.113279C14.4366 -0.0377595 15.3497 -0.0377595 16.2409 0.113279L16.6666 1.54464C17.0403 1.65136 17.4021 1.79153 17.7469 1.9632L19.1331 1.23232C19.8773 1.71244 20.5225 2.31398 21.0376 3.008L20.2537 4.30144C20.4379 4.62299 20.5882 4.96047 20.7024 5.30912L22.2372 5.70592C22.3991 6.53741 22.3991 7.38931 22.2372 8.2208L20.7024 8.6176C20.5882 8.96627 20.438 9.30375 20.2537 9.62528L21.0376 10.9187C20.5226 11.613 19.8774 12.2147 19.1331 12.695L17.7469 11.9648C17.4021 12.1367 17.0404 12.2771 16.6666 12.384L16.2409 13.8154C15.3497 13.9664 14.4366 13.9664 13.5454 13.8154L13.1197 12.384C12.7459 12.2776 12.3841 12.1374 12.0395 11.9654L10.6533 12.6957C9.90895 12.2154 9.26375 11.6136 8.74874 10.9194L9.53257 9.62592C9.34835 9.30439 9.19808 8.9669 9.08388 8.61824L7.54915 8.22144ZM10.2409 6.96416C10.2403 7.9689 10.6132 8.94275 11.296 9.71974C11.9789 10.4967 12.9295 11.0288 13.9857 11.2253C15.042 11.4217 16.1386 11.2704 17.0887 10.7971C18.0387 10.3238 18.7835 9.55784 19.196 8.6297C19.6085 7.70157 19.6632 6.66872 19.3508 5.70717C19.0384 4.74563 18.3782 3.91489 17.4828 3.35654C16.5873 2.79819 15.512 2.54677 14.4402 2.64514C13.3683 2.74351 12.3661 3.18557 11.6045 3.896C11.1718 4.29841 10.8285 4.77662 10.5945 5.30315C10.3605 5.82969 10.2404 6.39417 10.2409 6.96416ZM12.2765 9.40512C11.6712 8.84039 11.2945 8.09734 11.2107 7.30259C11.1268 6.50784 11.341 5.71055 11.8166 5.04657C12.2923 4.38259 13 3.893 13.8192 3.66122C14.6385 3.42944 15.5185 3.46981 16.3094 3.77545C17.1003 4.08109 17.7531 4.63309 18.1566 5.3374C18.5602 6.04171 18.6894 6.85475 18.5224 7.63799C18.3554 8.42123 17.9024 9.12622 17.2406 9.63283C16.5788 10.1394 15.7492 10.4163 14.8932 10.4163C14.4071 10.417 13.9256 10.328 13.4766 10.1545C13.0275 9.98094 12.6197 9.72627 12.2765 9.40512ZM12.542 6.96416C12.5415 7.47219 12.7298 7.96468 13.0749 8.35768C13.42 8.75068 13.9005 9.01987 14.4346 9.11937C14.9687 9.21887 15.5232 9.14252 16.0036 8.90334C16.4841 8.66415 16.8608 8.27694 17.0695 7.80768C17.2781 7.33843 17.3059 6.81619 17.1481 6.32997C16.9902 5.84375 16.6565 5.42364 16.2038 5.14126C15.751 4.85888 15.2073 4.73169 14.6654 4.78138C14.1234 4.83107 13.6166 5.05456 13.2315 5.41376C13.0127 5.61705 12.8392 5.85868 12.7208 6.12475C12.6025 6.39083 12.5417 6.6761 12.542 6.96416ZM14.8932 8.26976C15.2171 8.27019 15.5312 8.16582 15.7819 7.97445C16.0326 7.78307 16.2045 7.51652 16.2681 7.22021C16.3318 6.92391 16.2833 6.61617 16.131 6.34945C15.9787 6.08272 15.732 5.87351 15.4329 5.75745C15.1338 5.64139 14.8008 5.62567 14.4907 5.71296C14.1805 5.80026 13.9124 5.98516 13.732 6.23618C13.5517 6.4872 13.4702 6.78879 13.5014 7.08958C13.5327 7.39037 13.6748 7.67174 13.9035 7.88576C14.1658 8.13107 14.5218 8.26919 14.8932 8.26976ZM22.7486 4.48352C24.4912 5.22528 25.7835 6.3856 26.3937 7.97152C26.9158 9.32224 26.9522 10.9926 26.3687 12.992L25.5992 10.9949C25.5783 10.9402 25.546 10.89 25.5042 10.847C25.4624 10.804 25.412 10.7691 25.3557 10.7444C25.2995 10.7196 25.2386 10.7053 25.1764 10.7025C25.1143 10.6997 25.0522 10.7083 24.9936 10.7278C24.9351 10.7474 24.8812 10.7775 24.8351 10.8165C24.789 10.8555 24.7516 10.9026 24.7251 10.955C24.6985 11.0075 24.6832 11.0643 24.6802 11.1223C24.6772 11.1802 24.6864 11.2382 24.7074 11.2928L25.9423 14.5011C25.9617 14.5599 25.9938 14.6143 26.0366 14.6611C26.1196 14.7495 26.2368 14.8034 26.3624 14.8112C26.4881 14.8189 26.6118 14.7798 26.7066 14.7024L29.468 12.4429C29.5628 12.3656 29.6208 12.2564 29.6293 12.1393C29.6378 12.0222 29.596 11.9067 29.5133 11.8182C29.4305 11.7298 29.3134 11.6757 29.1878 11.6678C29.0623 11.6598 28.9385 11.6988 28.8437 11.776L27.3473 13.0013C27.9175 10.9158 27.8502 9.14112 27.2839 7.6736C26.581 5.84672 25.1156 4.51936 23.1421 3.68C23.0279 3.63133 22.8976 3.62698 22.7799 3.6679C22.6623 3.70883 22.5669 3.79169 22.5147 3.89824C22.4625 4.00479 22.4578 4.12632 22.5017 4.23608C22.5456 4.34584 22.6344 4.43485 22.7486 4.48352ZM0.318683 12.4426L3.08011 14.7021C3.12684 14.7404 3.18122 14.7697 3.24013 14.7884C3.29904 14.8071 3.36133 14.8147 3.42341 14.8109C3.48549 14.807 3.54615 14.7918 3.60191 14.766C3.65767 14.7403 3.70743 14.7045 3.74833 14.6608C3.79226 14.6145 3.82501 14.5599 3.84438 14.5008L5.07931 11.2925C5.10028 11.2378 5.10951 11.1799 5.10647 11.1219C5.10343 11.064 5.08819 11.0072 5.0616 10.9547C5.03502 10.9022 4.99762 10.8552 4.95154 10.8162C4.90546 10.7772 4.85161 10.7471 4.79304 10.7275C4.73448 10.708 4.67236 10.6993 4.61023 10.7022C4.5481 10.705 4.48718 10.7192 4.43094 10.744C4.37471 10.7688 4.32426 10.8037 4.28247 10.8467C4.24069 10.8897 4.20839 10.9399 4.18742 10.9946L3.41937 12.9936C2.83209 10.9856 2.87223 9.30784 3.40187 7.95168C4.01624 6.37632 5.30228 5.22144 7.03803 4.4832C7.15221 4.43448 7.24096 4.34545 7.28477 4.23569C7.32858 4.12593 7.32386 4.00443 7.27163 3.89792C7.21941 3.79141 7.12397 3.70861 7.00631 3.66774C6.88865 3.62687 6.7584 3.63128 6.64423 3.68C4.68001 4.5152 3.21663 5.8352 2.50998 7.6512C1.93609 9.12064 1.86679 10.9043 2.43897 13.0006L0.942661 11.776C0.847509 11.7016 0.724874 11.6649 0.601081 11.6739C0.477287 11.6829 0.362203 11.7368 0.28053 11.824C0.198858 11.9113 0.157107 12.0249 0.16424 12.1406C0.171373 12.2562 0.226822 12.3646 0.318683 12.4426Z" fill="#016BE3" fill-opacity="0.58"/>
<path d="M23.9393 21.9033C23.3551 21.9033 22.784 21.7417 22.2982 21.439C21.8125 21.1362 21.4339 20.7058 21.2103 20.2023C20.9867 19.6988 20.9282 19.1448 21.0422 18.6102C21.1562 18.0757 21.4375 17.5847 21.8506 17.1994C22.2637 16.814 22.79 16.5516 23.363 16.4452C23.936 16.3389 24.5299 16.3935 25.0697 16.6021C25.6094 16.8106 26.0708 17.1638 26.3953 17.6169C26.7199 18.0701 26.8932 18.6028 26.8932 19.1478C26.8917 19.8782 26.58 20.5783 26.0264 21.0948C25.4728 21.6112 24.7223 21.902 23.9393 21.9033ZM8.80088 19.1478C8.80108 18.6026 8.62793 18.0695 8.30332 17.616C7.97871 17.1626 7.51723 16.8091 6.97725 16.6004C6.43727 16.3916 5.84305 16.337 5.26976 16.4433C4.69648 16.5496 4.16987 16.8122 3.75656 17.1977C3.34325 17.5833 3.0618 18.0745 2.94782 18.6093C2.83384 19.1441 2.89244 19.6984 3.11622 20.2022C3.33999 20.7059 3.71889 21.1364 4.20498 21.4392C4.69106 21.742 5.2625 21.9035 5.84701 21.9033C6.62998 21.902 7.38046 21.6112 7.93411 21.0948C8.48775 20.5783 8.79943 19.8782 8.80088 19.1478ZM28.4296 23.7821C27.7133 23.1782 26.8164 22.7928 25.8589 22.6774L25.3046 24.463C25.2639 24.5912 25.1906 24.7082 25.0909 24.8041L25.3622 27.9549C25.3676 28.0227 25.3564 28.0907 25.3294 28.1538C25.3024 28.217 25.2604 28.2736 25.2065 28.3193L24.2782 29.2016C24.1897 29.2851 24.0693 29.3325 23.9433 29.3335C23.8174 29.3344 23.6962 29.2889 23.6062 29.2067L22.6529 28.2998C22.6052 28.2547 22.5685 28.2006 22.5452 28.141C22.522 28.0815 22.5127 28.018 22.5181 27.9549L22.7894 24.8041C22.6897 24.7082 22.6164 24.5912 22.5757 24.463L22.0214 22.6774C21.2182 22.7745 20.4547 23.0608 19.803 23.5094C20.0352 23.6577 20.2554 23.8217 20.462 24C21.0213 24.466 21.4697 25.0362 21.7784 25.6738C22.0871 26.3113 22.2492 27.0022 22.2543 27.7017V30.504H26.7909V26.792C26.7943 26.6764 26.8458 26.5665 26.9347 26.4859C27.0235 26.4052 27.1426 26.3601 27.2666 26.3601C27.3905 26.3601 27.5096 26.4052 27.5984 26.4859C27.6873 26.5665 27.7388 26.6764 27.7422 26.792V30.504H29.3095C29.372 30.5042 29.434 30.4929 29.4918 30.4707C29.5496 30.4484 29.6021 30.4158 29.6463 30.3746C29.6905 30.3333 29.7256 30.2844 29.7494 30.2305C29.7733 30.1766 29.7855 30.1188 29.7853 30.0605V26.5725C29.7804 26.0449 29.6572 25.5241 29.4237 25.0435C29.1903 24.563 28.8516 24.1333 28.4296 23.7821ZM23.7139 25.1149L23.481 27.8237L23.9393 28.2601L24.3976 27.8237L24.1647 25.1149H23.7139ZM24.8559 22.7277C24.6209 22.7277 24.3705 22.7277 24.1184 22.7277C23.7506 22.7315 23.3733 22.7366 23.0285 22.7459L23.4789 24.1952L23.5133 24.2115C23.5491 24.223 23.5869 24.2284 23.6247 24.2275H24.2525C24.2905 24.2284 24.3283 24.2229 24.3643 24.2115C24.3756 24.2061 24.3873 24.2006 24.4007 24.1952L24.8559 22.7277ZM5.62164 25.1149L5.38872 27.8237L5.84701 28.2601L6.30531 27.8237L6.07239 25.1149H5.62164ZM6.7732 22.6918C6.48643 22.6883 6.17632 22.6848 5.86622 22.6864C5.54274 22.6864 5.21926 22.6883 4.91876 22.6937L5.38495 24.1977C5.39579 24.2014 5.40614 24.2063 5.41582 24.2121C5.45369 24.2236 5.49335 24.229 5.53314 24.2281H6.16089C6.20013 24.2291 6.23925 24.2237 6.27649 24.2121C6.2861 24.2067 6.29742 24.2013 6.30736 24.1958L6.7732 22.6918ZM9.32435 24C9.5312 23.8228 9.7513 23.6595 9.98297 23.5113C9.33154 23.0625 8.5681 22.7761 7.76491 22.6793L7.2092 24.463C7.1701 24.5914 7.09736 24.7086 6.99755 24.8041L7.26889 27.9549C7.27439 28.0227 7.26318 28.0908 7.23613 28.154C7.20907 28.2171 7.16689 28.2737 7.11281 28.3193L6.18284 29.2016C6.09469 29.2851 5.97462 29.3325 5.84901 29.3334C5.72339 29.3344 5.60251 29.2888 5.5129 29.2067L4.55789 28.2998C4.51045 28.2545 4.47389 28.2004 4.45064 28.1409C4.4274 28.0814 4.418 28.018 4.42308 27.9549L4.6927 24.8041C4.59338 24.7082 4.52061 24.5911 4.48071 24.463L3.92637 22.6774C2.96886 22.7928 2.07197 23.1782 1.35567 23.7821C0.933725 24.1332 0.595152 24.5628 0.361688 25.0433C0.128223 25.5237 0.00502509 26.0443 1.99493e-06 26.5718V30.0598C-0.00017936 30.1181 0.0120059 30.1759 0.0358565 30.2298C0.0597071 30.2837 0.0947519 30.3327 0.138974 30.3739C0.183195 30.4152 0.23572 30.4478 0.293525 30.47C0.35133 30.4922 0.413274 30.5036 0.47579 30.5033H2.04311V26.7913C2.04644 26.6757 2.09801 26.5659 2.18684 26.4852C2.27567 26.4046 2.39475 26.3594 2.51873 26.3594C2.6427 26.3594 2.76178 26.4046 2.85061 26.4852C2.93945 26.5659 2.99102 26.6757 2.99434 26.7913V30.4157H7.53199V27.7014C7.53712 27.0019 7.69925 26.3111 8.00795 25.6736C8.31666 25.0361 8.76508 24.466 9.32435 24ZM19.8212 24.6537C19.0234 23.9801 18.0202 23.5555 16.9514 23.439L16.3545 25.359C16.3102 25.5008 16.2275 25.6295 16.1144 25.7328L16.4166 29.2355C16.4219 29.3033 16.4106 29.3714 16.3836 29.4345C16.3566 29.4977 16.3145 29.5543 16.2605 29.6L15.2314 30.5773C15.1433 30.6608 15.0232 30.7083 14.8976 30.7093C14.772 30.7103 14.6511 30.6648 14.5614 30.5827L13.508 29.5801C13.4603 29.5351 13.4236 29.481 13.4004 29.4215C13.3771 29.3621 13.368 29.2986 13.3735 29.2355H13.3701L13.6723 25.7328C13.5586 25.6299 13.4758 25.5011 13.4322 25.359L12.8353 23.439C11.766 23.5556 10.7623 23.9807 9.96445 24.655C9.50281 25.0383 9.13236 25.5075 8.87695 26.0325C8.62153 26.5575 8.48683 27.1265 8.48151 27.703V31.5565C8.48133 31.6149 8.49356 31.6728 8.5175 31.7268C8.54143 31.7808 8.5766 31.8298 8.62097 31.871C8.66533 31.9123 8.71802 31.9449 8.77598 31.967C8.83395 31.9892 8.89604 32.0004 8.95867 32H10.7424V27.9459C10.7407 27.8866 10.7518 27.8276 10.7749 27.7724C10.7981 27.7172 10.8328 27.6669 10.8771 27.6244C10.9215 27.5819 10.9745 27.5481 11.033 27.5251C11.0916 27.502 11.1545 27.4901 11.2181 27.4901C11.2816 27.4901 11.3445 27.502 11.4031 27.5251C11.4616 27.5481 11.5146 27.5819 11.559 27.6244C11.6033 27.6669 11.6381 27.7172 11.6612 27.7724C11.6843 27.8276 11.6954 27.8866 11.6937 27.9459V32H18.0933V27.9459C18.0916 27.8866 18.1026 27.8276 18.1258 27.7724C18.1489 27.7172 18.1837 27.6669 18.228 27.6244C18.2723 27.5819 18.3254 27.5481 18.3839 27.5251C18.4425 27.502 18.5054 27.4901 18.5689 27.4901C18.6325 27.4901 18.6954 27.502 18.754 27.5251C18.8125 27.5481 18.8655 27.5819 18.9099 27.6244C18.9542 27.6669 18.9889 27.7172 19.0121 27.7724C19.0352 27.8276 19.0463 27.8866 19.0445 27.9459V32H20.8283C20.8908 32 20.9527 31.9886 21.0104 31.9663C21.0681 31.944 21.1206 31.9114 21.1647 31.8702C21.2089 31.829 21.244 31.7801 21.2679 31.7263C21.2918 31.6724 21.3041 31.6147 21.3041 31.5565V27.7014C21.2987 27.1249 21.1639 26.5558 20.9084 26.0308C20.6528 25.5059 20.2823 25.0367 19.8205 24.6534L19.8212 24.6537ZM13.8129 23.4032L14.3443 25.1097C14.3643 25.1172 14.3836 25.1261 14.4019 25.1366C14.449 25.1519 14.4986 25.1591 14.5484 25.1581H15.2413C15.2911 25.1591 15.3408 25.1519 15.3878 25.1366C15.406 25.1258 15.4253 25.1168 15.4454 25.1097L15.9751 23.4032H13.8129ZM14.5985 26.0454L14.3347 29.1027L14.8932 29.6342L15.4516 29.1027L15.1878 26.0454H14.5985ZM18.1568 19.4982C18.157 18.8958 17.9657 18.3069 17.607 17.8059C17.2484 17.3049 16.7385 16.9144 16.1419 16.6838C15.5454 16.4532 14.8889 16.3928 14.2555 16.5103C13.6221 16.6278 13.0403 16.9178 12.5837 17.3438C12.127 17.7698 11.8161 18.3125 11.6902 18.9034C11.5642 19.4942 11.629 20.1066 11.8762 20.6631C12.1234 21.2197 12.542 21.6953 13.079 22.0299C13.6161 22.3644 14.2474 22.5429 14.8932 22.5427C15.7582 22.541 16.5872 22.2197 17.1989 21.6491C17.8105 21.0785 18.155 20.3051 18.1568 19.4982Z" fill="#016BE3"/>
</svg>
