<svg width="29" height="29" viewBox="0 0 29 29" fill="none" xmlns="http://www.w3.org/2000/svg">
<path d="M13.0011 23.7392H16.001C16.2456 23.2556 16.4521 22.6523 17.2184 22.6523H25.9143V9.60874C25.9143 9.3205 25.7998 9.0439 25.5958 8.8401C25.392 8.63629 25.1156 8.52183 24.8274 8.52183H20.0446C20.1718 9.19623 20.0784 9.89369 19.7783 10.5109L20.6805 11.4131H20.6804C21.1706 11.9065 21.3951 12.6047 21.2845 13.2912C21.1739 13.978 20.7413 14.5703 20.1208 14.8845C19.5003 15.1988 18.767 15.1974 18.1479 14.8805C16.9998 15.1573 15.9006 15.6062 14.887 16.212C17.5228 18.261 17.8653 18.386 17.9088 19.0327C17.9523 19.6795 17.6371 19.8154 16.0502 21.4023H16.05C15.8889 21.5643 15.6809 21.6713 15.4557 21.7084C15.2302 21.7455 14.9989 21.7106 14.7946 21.6089C9.99034 19.1849 10.5934 19.4349 10.2892 19.4349H10.289C9.28017 19.4349 8.31242 19.034 7.59894 18.3207C6.88545 17.6072 6.48474 16.6395 6.48474 15.6304C6.48474 13.7989 7.57164 12.9892 8.75647 11.7934C8.94553 11.5993 9.20284 11.4861 9.47377 11.4783C10.0499 10.5497 10.5167 9.55759 10.8651 8.52179H4.17467C3.88643 8.52179 3.61002 8.63625 3.40621 8.84005C3.20223 9.04386 3.08777 9.32043 3.08777 9.60869V22.6523H11.7837C12.5336 22.6523 12.7455 23.2339 13.001 23.7392L13.0011 23.7392Z" fill="#016BE3"/>
<path d="M17.2176 23.7391L16.6741 24.826L12.3262 24.8262L11.7827 23.7393L2 23.7391V24.8262C2 25.4027 2.22892 25.9557 2.63671 26.3633C3.04433 26.7711 3.59733 27 4.17381 27H24.8265C25.403 27 25.956 26.7711 26.3636 26.3633C26.7714 25.9557 27.0003 25.4027 27.0003 24.8262V23.7391H17.2176Z" fill="#016BE3" fill-opacity="0.58"/>
<path d="M18.3749 13.7176C18.6496 13.9962 19.0522 14.1072 19.4308 14.0086C19.8095 13.91 20.1069 13.6168 20.2107 13.2396C20.3146 12.8623 20.2095 12.4582 19.9347 12.1796L13.766 6.03279C13.4912 5.75802 13.0907 5.65065 12.7155 5.75128C12.3401 5.85191 12.0471 6.14488 11.9465 6.52029C11.8458 6.89552 11.9532 7.29602 12.228 7.57082L18.3749 13.7176Z" fill="#016BE3"/>
<path d="M13.984 15.4729C14.9787 14.8666 16.0425 14.3813 17.1525 14.0274L11.9131 8.79364C11.5628 9.90402 11.0792 10.968 10.473 11.9621L13.984 15.4729Z" fill="#016BE3"/>
<path d="M9.53862 12.5649L8.3864 13.7171C7.85813 14.2608 7.581 15.0005 7.62195 15.7573C7.6629 16.5143 8.0181 17.2199 8.60185 17.7035C9.1856 18.187 9.94479 18.4048 10.6961 18.3042C11.8103 18.1412 12.2995 17.451 13.3593 16.3912L9.53862 12.5649Z" fill="#016BE3"/>
<path d="M16.8371 19.0979L14.2448 17.0815C13.06 18.2608 12.7339 18.663 12.0708 19.0055L15.2991 20.6359L16.8371 19.0979Z" fill="#016BE3"/>
<path d="M16.2768 7.00561L18.9345 9.66874C19.135 8.91938 18.921 8.12019 18.3733 7.57119C17.8253 7.02219 17.0265 6.80674 16.2768 7.00561V7.00561Z" fill="#016BE3"/>
<path d="M20.4787 5.80441C20.7777 5.80441 20.7124 5.80441 22.4951 4.01637C22.7082 3.80328 22.7082 3.45773 22.4951 3.24465C22.282 3.03157 21.9365 3.03157 21.7234 3.24465L20.093 4.8751C19.9361 5.03069 19.889 5.26543 19.9738 5.46943C20.0584 5.67341 20.258 5.80571 20.4788 5.80443L20.4787 5.80441Z" fill="#016BE3"/>
<path d="M17.7611 4.71736V2.54336C17.7611 2.24329 17.5178 2 17.2176 2C16.9175 2 16.6742 2.2433 16.6742 2.54336V4.71736C16.6742 5.01742 16.9175 5.2609 17.2176 5.2609C17.5178 5.2609 17.7611 5.01742 17.7611 4.71736Z" fill="#016BE3"/>
</svg>
