<svg width="29" height="29" viewBox="0 0 29 29" fill="none" xmlns="http://www.w3.org/2000/svg">
<path d="M4.41744 18.2916C4.41683 18.8739 4.60358 19.4411 4.95 19.9095L5.00043 19.9782H5.00064C5.07361 20.0711 5.15192 20.1599 5.23474 20.244L5.28517 20.2898H5.28538C5.35917 20.3604 5.43728 20.4263 5.51948 20.4871L5.59759 20.5466C5.69373 20.6115 5.79336 20.6712 5.89606 20.7252L5.97417 20.7666C6.07052 20.8138 6.17015 20.8535 6.27265 20.8857L6.3323 20.9086C6.45058 20.9472 6.57194 20.9765 6.69494 20.9957H6.78227C6.91121 21.0203 7.04159 21.0356 7.17259 21.0416H17.7341V17.8333H4.41742L4.41744 18.2916ZM14.0605 18.7499C14.2463 18.7499 14.4137 18.8616 14.4847 19.0329C14.5558 19.2041 14.5167 19.4012 14.3852 19.5323C14.2538 19.6635 14.0564 19.7026 13.8848 19.6316C13.7133 19.5608 13.6013 19.3936 13.6013 19.2082C13.6013 18.9551 13.807 18.7499 14.0605 18.7499Z" fill="#016BE3"/>
<path d="M23.7036 14.167V11.6233C23.3684 11.7901 22.999 11.8764 22.6245 11.8754H22.3582C21.5628 11.8754 20.8168 11.4911 20.356 10.8441C20.2937 10.9333 20.2246 11.0174 20.1494 11.0962C19.6326 11.6515 18.8866 11.9359 18.1303 11.8657C17.3743 11.7958 16.6935 11.3794 16.2876 10.7387C15.769 11.4493 14.9414 11.8696 14.0605 11.8696C13.1796 11.8696 12.352 11.4493 11.8334 10.7387C11.4275 11.3793 10.7467 11.7958 9.99066 11.8657C9.23444 11.9359 8.48844 11.6515 7.97162 11.0962C7.89639 11.0174 7.82731 10.9333 7.76499 10.8441C7.30415 11.4911 6.55817 11.8754 5.76279 11.8754H5.4965C5.12197 11.8764 4.75255 11.7901 4.41742 11.6233V16.9169H17.7341V16.4586C17.7341 15.8509 17.976 15.268 18.4064 14.838C18.8371 14.4083 19.4212 14.1669 20.03 14.1669L23.7036 14.167Z" fill="#016BE3"/>
<path d="M16.9354 21.9583H11.191L10.9017 24.2499H9.92819C9.67461 24.2499 9.46899 24.4551 9.46899 24.7082C9.46899 24.9613 9.67461 25.1666 9.92819 25.1666H17.7345V24.2499H17.2202L16.9354 21.9583Z" fill="#016BE3"/>
<path d="M5.49689 10.9587H5.76318C6.15349 10.9583 6.52906 10.8099 6.81381 10.5435C7.09856 10.2773 7.27137 9.9127 7.29699 9.52413V9.25834L7.59998 5.00037H6.25456C5.95978 5.00139 5.6732 5.09695 5.43683 5.2725C5.20047 5.44826 5.02683 5.69502 4.94135 5.97655L4.02296 9.03815C4.00902 9.13227 4.00123 9.22721 4 9.32236V9.42323C4.00205 9.82264 4.15929 10.2059 4.43829 10.4921C4.71749 10.7784 5.09696 10.9455 5.4969 10.9586L5.49689 10.9587Z" fill="#016BE3"/>
<path d="M9.76755 10.9587C10.1755 10.9587 10.5668 10.7969 10.8553 10.509C11.1437 10.2211 11.3059 9.8305 11.3059 9.42329V5.00037H8.51854L8.27521 8.71736L8.2338 9.32241C8.20223 9.74616 8.35044 10.1637 8.64256 10.4729C8.93366 10.7838 9.34117 10.9599 9.76762 10.9587L9.76755 10.9587Z" fill="#016BE3"/>
<path d="M14.0611 10.9587C14.5482 10.9587 15.0154 10.7655 15.36 10.4218C15.7044 10.0778 15.8979 9.6115 15.8979 9.12535V5.00037H12.2244V9.12535C12.2244 9.61151 12.4179 10.0778 12.7623 10.4218C13.1069 10.7655 13.5741 10.9587 14.0611 10.9587Z" fill="#016BE3"/>
<path d="M18.3536 10.9586C18.78 10.9599 19.1875 10.7837 19.4786 10.4729C19.7707 10.1637 19.919 9.74611 19.8874 9.32235L19.7771 7.64496L19.6026 5.00037H16.8153V9.42329C16.8153 9.83047 16.9775 10.221 17.2659 10.509C17.5543 10.7969 17.9457 10.9587 18.3536 10.9587L18.3536 10.9586Z" fill="#016BE3"/>
<path d="M20.8243 9.52383C20.8499 9.91239 21.0227 10.277 21.3075 10.5432C21.5922 10.8096 21.9678 10.958 22.3581 10.9584H22.6244C22.9182 10.9582 23.2056 10.872 23.451 10.7108C23.8936 10.4315 24.1621 9.94556 24.1627 9.42296V9.32208C24.169 9.22755 24.169 9.13261 24.1627 9.03787L23.1984 5.97627C23.1121 5.69166 22.9356 5.44283 22.6955 5.26688C22.4555 5.09071 22.1646 4.9972 21.8667 5.00006H20.4891L20.7739 9.25804L20.8243 9.52383Z" fill="#016BE3"/>
<path d="M24.6217 15.0836H23.8962L23.5703 15.4089H23.5701C23.4836 15.4948 23.3661 15.5425 23.2441 15.5419H21.4073C21.2854 15.5425 21.1679 15.4948 21.0814 15.4089L20.7553 15.0836H20.0298C19.6645 15.0836 19.3139 15.2284 19.0557 15.4862C18.7974 15.744 18.6522 16.094 18.6522 16.4585V25.6252C18.6522 25.9898 18.7974 26.3397 19.0557 26.5974C19.314 26.8552 19.6645 27.0001 20.0298 27.0001H24.6217C24.987 27.0001 25.3376 26.8553 25.5959 26.5974C25.8541 26.3396 25.9993 25.9897 25.9993 25.6252V16.4585C25.9993 16.0939 25.8542 15.744 25.5959 15.4862C25.3376 15.2285 24.987 15.0836 24.6217 15.0836H24.6217ZM22.3257 26.0835C22.14 26.0835 21.9725 25.9718 21.9016 25.8005C21.8304 25.6293 21.8696 25.4322 22.001 25.3011C22.1324 25.1699 22.3298 25.1308 22.5014 25.2018C22.673 25.2726 22.7849 25.4398 22.7849 25.6252C22.7849 25.7467 22.7365 25.8634 22.6504 25.9493C22.5643 26.0352 22.4475 26.0835 22.3257 26.0835ZM24.6217 22.4169C24.6217 22.7815 24.4766 23.1314 24.2183 23.3892C23.96 23.6469 23.6094 23.7918 23.2441 23.7918H21.4074C21.0421 23.7918 20.6915 23.647 20.4332 23.3892C20.175 23.1313 20.0298 22.7814 20.0298 22.4169V20.1252C20.0298 19.8721 20.2354 19.6669 20.489 19.6669H21.0078C21.0078 19.1969 21.2592 18.7627 21.6669 18.5276C22.0747 18.2927 22.5769 18.2927 22.9846 18.5276C23.3924 18.7627 23.6437 19.1969 23.6437 19.6669H24.1626C24.2843 19.6669 24.4012 19.7152 24.4873 19.8011C24.5734 19.887 24.6218 20.0037 24.6218 20.1252L24.6217 22.4169Z" fill="#016BE3" fill-opacity="0.45"/>
<path d="M22.8454 19.667C22.8454 19.381 22.6132 19.1492 22.3266 19.1492C22.04 19.1492 21.8077 19.381 21.8077 19.667V19.7266H22.8454L22.8454 19.667Z" fill="#016BE3" fill-opacity="0.45"/>
<path d="M20.9484 22.4166C20.9484 22.5381 20.9967 22.6547 21.0828 22.7407C21.1689 22.8266 21.2858 22.8749 21.4076 22.8749H23.2443C23.3661 22.8749 23.483 22.8266 23.5691 22.7407C23.6552 22.6547 23.7035 22.5381 23.7035 22.4166V20.5833H20.9484V22.4166Z" fill="#016BE3" fill-opacity="0.45"/>
</svg>
