<svg width="37" height="37" viewBox="0 0 37 37" fill="none" xmlns="http://www.w3.org/2000/svg">
<path d="M14.9492 28.7022H16.8135V25.4396H19.61V28.7022H21.4743V17.9824H14.9492V28.7022ZM18.9108 19.3806H19.843V20.3128H18.9108V19.3806ZM18.9108 21.2449H19.843V22.1771H18.9108V21.2449ZM18.9108 23.1092H19.843V24.0414H18.9108V23.1092ZM16.5804 19.3806H17.5126V20.3128H16.5804V19.3806ZM16.5804 21.2449H17.5126V22.1771H16.5804V21.2449ZM16.5804 23.1092H17.5126V24.0414H16.5804V23.1092Z" fill="#016BE3" fill-opacity="0.58"/>
<path d="M20.5399 15.1857V17.05H21.4721V15.4187L22.3003 14.7974C22.4736 14.8979 22.67 14.9514 22.8703 14.9526C23.116 14.9554 23.3565 14.8814 23.558 14.7408C23.7596 14.6002 23.9122 14.4002 23.9945 14.1686C24.0767 13.9371 24.0846 13.6856 24.0169 13.4494C23.9492 13.2131 23.8094 13.004 23.617 12.8511C23.4246 12.6982 23.1892 12.6093 22.9438 12.5968C22.6984 12.5843 22.4552 12.6488 22.2482 12.7813C22.0413 12.9138 21.8809 13.1076 21.7895 13.3358C21.6982 13.5639 21.6804 13.8148 21.7387 14.0536L20.7263 14.8128C20.6685 14.8562 20.6215 14.9125 20.5891 14.9772C20.5568 15.042 20.5399 15.1133 20.5399 15.1857Z" fill="#016BE3"/>
<path d="M28.9296 32.8965L32.1922 30.5661L28.9296 28.2357V29.634H4.22736V31.4983H28.9296V32.8965Z" fill="#016BE3" fill-opacity="0.58"/>
<path d="M18.6768 17.0501V12.9897C18.9222 12.8826 19.1232 12.6943 19.246 12.4564C19.3688 12.2186 19.406 11.9457 19.3514 11.6837C19.2967 11.4216 19.1534 11.1864 18.9457 11.0176C18.738 10.8487 18.4784 10.7565 18.2107 10.7565C17.943 10.7565 17.6835 10.8487 17.4758 11.0176C17.2681 11.1864 17.1248 11.4216 17.0701 11.6837C17.0154 11.9457 17.0526 12.2186 17.1755 12.4564C17.2983 12.6943 17.4993 12.8826 17.7447 12.9897V17.0501H18.6768Z" fill="#016BE3"/>
<path d="M13.5488 12.6227C13.2398 12.6227 12.9434 12.7455 12.7249 12.964C12.5064 13.1825 12.3836 13.4789 12.3836 13.7879C12.3836 14.097 12.5064 14.3933 12.7249 14.6118C12.9434 14.8304 13.2398 14.9531 13.5488 14.9531C13.7491 14.9519 13.9456 14.8984 14.1188 14.7979L14.947 15.4192V17.0505H15.8792V15.1862C15.8792 15.1138 15.8624 15.0424 15.83 14.9777C15.7976 14.913 15.7507 14.8567 15.6928 14.8133L14.6804 14.0541C14.7226 13.8831 14.7251 13.7048 14.6878 13.5327C14.6504 13.3607 14.5743 13.1994 14.4651 13.0613C14.3559 12.9232 14.2165 12.8119 14.0577 12.7359C13.8989 12.6599 13.7249 12.6212 13.5488 12.6227Z" fill="#016BE3"/>
<path d="M9.82129 28.7023H14.016V21.245L9.82129 22.6432V28.7023ZM12.3847 24.0415H13.3169V24.9736H12.3847V24.0415ZM12.3847 26.3719H13.3169V27.304H12.3847V26.3719ZM10.5204 24.0415H11.4526V24.9736H10.5204V24.0415ZM10.5204 26.3719H11.4526V27.304H10.5204V26.3719Z" fill="#016BE3" fill-opacity="0.58"/>
<path d="M22.4056 28.7023H26.6003V22.6432L22.4056 21.245V28.7023ZM24.969 24.0415H25.9012V24.9736H24.969V24.0415ZM24.969 26.3719H25.9012V27.304H24.969V26.3719ZM23.1047 24.0415H24.0369V24.9736H23.1047V24.0415ZM23.1047 26.3719H24.0369V27.304H23.1047V26.3719Z" fill="#016BE3" fill-opacity="0.58"/>
<path d="M5.4643 20.5645L4.33266 20.9322C4.21141 20.9717 4.11075 21.0577 4.05274 21.1712C3.99474 21.2848 3.98411 21.4167 4.02318 21.5381L4.91619 24.288C4.95558 24.4093 5.04153 24.51 5.15516 24.568C5.26878 24.6259 5.40077 24.6364 5.5221 24.597L6.657 24.2279C6.76439 24.1937 6.88039 24.1983 6.98474 24.2409C7.08909 24.2834 7.17516 24.3613 7.22795 24.4609C7.69061 25.3013 8.24811 26.0859 8.88953 26.7992V21.395C8.4638 20.0497 8.33417 18.6281 8.50954 17.2279C8.68491 15.8278 9.16112 14.4821 9.9055 13.2833C10.6499 12.0845 11.6448 11.0609 12.822 10.2828C13.9992 9.50466 15.3308 8.99044 16.7255 8.77539C18.1201 8.56035 19.5447 8.64957 20.9017 9.03693C22.2586 9.4243 23.5156 10.1006 24.5865 11.0195C25.6575 11.9384 26.5169 13.0782 27.1059 14.3605C27.6949 15.6428 27.9995 17.0374 27.9988 18.4485C27.9964 19.4488 27.8391 20.4428 27.5327 21.395V26.8016C28.1743 26.0875 28.7318 25.3021 29.1943 24.4609C29.2471 24.3613 29.3332 24.2834 29.4375 24.2409C29.5419 24.1983 29.6579 24.1937 29.7652 24.2279L30.8992 24.5961C31.0205 24.6354 31.1525 24.625 31.2662 24.567C31.3798 24.5091 31.4657 24.4084 31.5051 24.2871L32.3981 21.5372C32.4372 21.4158 32.4266 21.2839 32.3686 21.1703C32.3106 21.0567 32.2099 20.9708 32.0887 20.9313L30.957 20.5636C30.8499 20.528 30.7587 20.4561 30.6991 20.3604C30.6395 20.2646 30.6153 20.151 30.6308 20.0392C30.7669 18.9825 30.7669 17.9126 30.6308 16.8559C30.6153 16.7441 30.6395 16.6305 30.6991 16.5347C30.7587 16.439 30.8499 16.3671 30.957 16.3315L32.0887 15.9638C32.21 15.9244 32.3107 15.8385 32.3687 15.7249C32.4268 15.6113 32.4373 15.4793 32.3981 15.3579L31.5051 12.608C31.4657 12.4867 31.3798 12.386 31.2662 12.3281C31.1525 12.2701 31.0205 12.2597 30.8992 12.299L29.7652 12.6672C29.6579 12.7014 29.5419 12.6968 29.4375 12.6542C29.3332 12.6116 29.2471 12.5338 29.1943 12.4342C28.6824 11.4994 28.0536 10.6336 27.323 9.85769C27.2449 9.77658 27.1977 9.67065 27.1896 9.55833C27.1815 9.44601 27.213 9.33441 27.2787 9.24293L27.9778 8.27862C28.015 8.22745 28.0417 8.16946 28.0565 8.10797C28.0712 8.04648 28.0737 7.98268 28.0638 7.92023C28.0539 7.85777 28.0318 7.79788 27.9987 7.74398C27.9656 7.69007 27.9223 7.64321 27.8711 7.60606L25.5346 5.91093C25.4835 5.87377 25.4255 5.84705 25.364 5.83231C25.3025 5.81756 25.2387 5.81507 25.1763 5.82498C25.1138 5.83489 25.0539 5.85701 25 5.89007C24.9461 5.92313 24.8992 5.96649 24.8621 6.01766L24.1616 6.98291C24.0949 7.07383 23.9984 7.13843 23.8889 7.16544C23.7794 7.19244 23.664 7.18013 23.5627 7.13066C22.6 6.67344 21.5826 6.34182 20.5355 6.14397C20.4244 6.12452 20.3237 6.06669 20.251 5.98057C20.1782 5.89444 20.138 5.7855 20.1374 5.67276V4.48146C20.1374 4.35377 20.0867 4.23131 19.9964 4.14102C19.9061 4.05073 19.7837 4 19.656 4H16.7663C16.6386 4 16.5161 4.05073 16.4258 4.14102C16.3355 4.23131 16.2848 4.35377 16.2848 4.48146V5.6709C16.2846 5.78396 16.2447 5.89334 16.1719 5.97985C16.0991 6.06636 15.9981 6.12447 15.8868 6.14397C14.8388 6.34148 13.8207 6.67294 12.8573 7.13019C12.7563 7.17909 12.6413 7.19114 12.5324 7.16424C12.4234 7.13734 12.3273 7.0732 12.2607 6.98291L11.5616 6.01906C11.5245 5.96758 11.4777 5.92393 11.4237 5.89061C11.3697 5.8573 11.3097 5.83497 11.2471 5.82492C11.1844 5.81488 11.1204 5.8173 11.0588 5.83206C10.9971 5.84682 10.9389 5.87362 10.8876 5.91093L8.54975 7.60886C8.49858 7.64601 8.45522 7.69287 8.42216 7.74678C8.3891 7.80068 8.36698 7.86057 8.35707 7.92303C8.34716 7.98548 8.34965 8.04928 8.3644 8.11077C8.37914 8.17226 8.40586 8.23025 8.44302 8.28141L9.14214 9.24573C9.20752 9.33747 9.23866 9.44922 9.23014 9.56155C9.22163 9.67388 9.17399 9.77966 9.09553 9.86049C8.36634 10.6364 7.73878 11.5018 7.22795 12.436C7.17516 12.5356 7.08909 12.6135 6.98474 12.6561C6.88039 12.6987 6.76439 12.7033 6.657 12.6691L5.52303 12.3009C5.4017 12.2615 5.26971 12.272 5.15609 12.3299C5.04246 12.3879 4.95651 12.4886 4.91713 12.6099L4.02412 15.3598C3.98491 15.4812 3.99548 15.6131 4.0535 15.7267C4.11153 15.8403 4.21227 15.9263 4.33359 15.9657L5.46524 16.3334C5.5723 16.3689 5.66355 16.4408 5.72315 16.5366C5.78274 16.6324 5.80692 16.746 5.79149 16.8578C5.6554 17.9145 5.6554 18.9843 5.79149 20.0411C5.80664 20.1528 5.78221 20.2663 5.72245 20.3619C5.66269 20.4575 5.57137 20.5292 5.4643 20.5645Z" fill="#016BE3"/>
</svg>
