<svg width="29" height="29" viewBox="0 0 29 29" fill="none" xmlns="http://www.w3.org/2000/svg">
<path d="M26.1071 23.4286H2.89286C2.39978 23.4286 2 23.8284 2 24.3214C2 25.7985 3.20152 27 4.67857 27H24.3214C25.7985 27 27 25.7985 27 24.3214C27 23.8284 26.6002 23.4286 26.1071 23.4286Z" fill="#016BE3" fill-opacity="0.58"/>
<path d="M25.2142 12.7143C25.2142 11.728 24.4147 10.9286 23.4285 10.9286H22.522C22.4954 11.1611 22.4235 11.3918 22.3007 11.607L20.5302 14.7023C20.2935 15.1121 19.8981 15.4164 19.4433 15.5394C19.2855 15.5795 19.1329 15.5987 18.9808 15.5987C18.6656 15.5987 18.3552 15.5158 18.084 15.3597L18.0557 15.3432V15.3929C18.0557 16.3773 17.2548 17.1786 16.2699 17.1786H12.7299C11.7451 17.1786 10.9442 16.3773 10.9442 15.3929V15.3432L10.9189 15.358C10.6495 15.5158 10.3382 15.5995 10.0213 15.5995C9.86649 15.5995 9.71259 15.5803 9.56262 15.5411C9.10181 15.4164 8.70639 15.1121 8.4714 14.704L6.69964 11.6087C6.57659 11.3929 6.50465 11.1616 6.47811 10.9286H5.57136C4.58515 10.9286 3.78564 11.728 3.78564 12.7143V22.5357H25.2142V12.7143Z" fill="#016BE3"/>
<path d="M12.0829 11.5599C12.2573 11.7342 12.4858 11.8214 12.7142 11.8214C12.9427 11.8214 13.1711 11.7342 13.3455 11.5599C13.6943 11.2111 13.6943 10.6461 13.3455 10.2973L12.1911 9.14287L13.3455 7.98843C13.6943 7.63966 13.6943 7.07465 13.3455 6.72587C12.9967 6.3771 12.4317 6.3771 12.0829 6.72587L10.2972 8.51159C10.1228 8.68597 10.0356 8.91442 10.0356 9.14287C10.0356 9.37131 10.1228 9.59976 10.2972 9.77414L12.0829 11.5599Z" fill="#016BE3"/>
<path d="M16.9169 6.72587C16.5681 6.3771 16.0031 6.3771 15.6543 6.72587C15.3056 7.07465 15.3056 7.63966 15.6543 7.98843L16.8088 9.14287L15.6543 10.2973C15.3056 10.6461 15.3056 11.2111 15.6543 11.5599C15.8287 11.7342 16.0572 11.8214 16.2856 11.8214C16.5141 11.8214 16.7425 11.7342 16.9169 11.5599L18.7026 9.77414C18.877 9.59976 18.9642 9.37131 18.9642 9.14287C18.9642 8.91442 18.877 8.68597 18.7026 8.51159L16.9169 6.72587Z" fill="#016BE3"/>
<path d="M7.47486 11.1649L9.24488 14.2585C9.36346 14.4643 9.55921 14.6151 9.78897 14.677C10.0187 14.7372 10.2642 14.7066 10.4695 14.5863L10.9831 14.2872C11.2538 14.4747 11.5389 14.6404 11.8371 14.7834V15.3929C11.8371 15.8864 12.2369 16.2857 12.73 16.2857H16.27C16.7631 16.2857 17.1629 15.8864 17.1629 15.3929V14.7834C17.4611 14.6404 17.7462 14.4747 18.0169 14.2872L18.5305 14.5863C18.7358 14.7049 18.9804 14.7363 19.211 14.677C19.4408 14.6151 19.6366 14.4643 19.7551 14.2585L21.5252 11.1649C21.7684 10.7385 21.6232 10.1962 21.1991 9.94939L20.6811 9.64771C20.6955 9.47681 20.7029 9.30852 20.7029 9.14286C20.7029 8.97719 20.6955 8.80891 20.6811 8.63801L21.1991 8.33632C21.6232 8.08957 21.7684 7.54722 21.5252 7.12085L19.7551 4.02724C19.6366 3.82146 19.4408 3.67062 19.211 3.60871C18.9822 3.54855 18.7367 3.57907 18.5305 3.69939L18.0169 3.99847C17.7462 3.811 17.4611 3.64533 17.1629 3.50234V2.89286C17.1629 2.39934 16.7631 2 16.27 2H12.73C12.2369 2 11.8371 2.39934 11.8371 2.89286V3.50234C11.5389 3.64533 11.2538 3.811 10.9831 3.99847L10.4695 3.69939C10.2637 3.57907 10.0178 3.54768 9.78897 3.60871C9.55921 3.67062 9.36346 3.82146 9.24488 4.02724L7.47486 7.12085C7.23159 7.54722 7.37677 8.08957 7.80096 8.33632L8.31889 8.63801C8.3045 8.80891 8.29709 8.97719 8.29709 9.14286C8.29709 9.30852 8.3045 9.47681 8.31889 9.64771L7.80096 9.94939C7.37677 10.1962 7.23159 10.7385 7.47486 11.1649ZM14.5 4.67857C16.9656 4.67857 18.9643 6.67731 18.9643 9.14286C18.9643 11.6084 16.9656 13.6071 14.5 13.6071C12.0345 13.6071 10.0357 11.6084 10.0357 9.14286C10.0357 6.67731 12.0345 4.67857 14.5 4.67857Z" fill="#016BE3" fill-opacity="0.58"/>
</svg>
