<svg width="37" height="37" viewBox="0 0 37 37" fill="none" xmlns="http://www.w3.org/2000/svg">
<path d="M5.63607 23.3376C5.63529 24.0805 5.87356 24.8042 6.31555 25.4018L6.37989 25.4895H6.38015C6.47326 25.608 6.57317 25.7213 6.67884 25.8286L6.74318 25.8871H6.74344C6.8376 25.9771 6.93725 26.0612 7.04213 26.1387L7.14178 26.2147C7.26444 26.2974 7.39156 26.3737 7.52259 26.4426L7.62224 26.4953C7.74517 26.5556 7.87229 26.6063 8.00306 26.6473L8.07917 26.6765C8.23008 26.7258 8.38492 26.7632 8.54185 26.7877H8.65327C8.81779 26.819 8.98413 26.8386 9.15126 26.8462H22.6263V22.7528H5.63605L5.63607 23.3376ZM17.9393 23.9223C18.1763 23.9223 18.39 24.0649 18.4805 24.2834C18.5712 24.5019 18.5213 24.7533 18.3536 24.9206C18.186 25.088 17.9341 25.1378 17.7152 25.0472C17.4963 24.9569 17.3535 24.7436 17.3535 24.5071C17.3535 24.1842 17.6158 23.9223 17.9393 23.9223Z" fill="#016BE3"/>
<path d="M30.2425 18.0752V14.8297C29.8149 15.0425 29.3436 15.1527 28.8658 15.1514H28.526C27.5112 15.1514 26.5594 14.6611 25.9715 13.8356C25.892 13.9494 25.8038 14.0567 25.7078 14.1572C25.0485 14.8658 24.0967 15.2286 23.1318 15.139C22.1673 15.0498 21.2986 14.5185 20.7808 13.7011C20.1191 14.6077 19.0632 15.144 17.9393 15.144C16.8154 15.144 15.7595 14.6078 15.0978 13.7011C14.5799 14.5184 13.7113 15.0498 12.7467 15.139C11.7819 15.2286 10.8301 14.8657 10.1707 14.1572C10.0747 14.0567 9.98659 13.9494 9.90708 13.8356C9.31912 14.6611 8.36735 15.1514 7.35256 15.1514H7.01281C6.53496 15.1527 6.06363 15.0425 5.63605 14.8297V21.5836H22.6263V20.9989C22.6263 20.2235 22.9349 19.4798 23.4841 18.9313C24.0336 18.3831 24.7788 18.075 25.5556 18.075L30.2425 18.0752Z" fill="#016BE3"/>
<path d="M21.6072 28.0157H14.2781L13.9091 30.9396H12.667C12.3435 30.9396 12.0811 31.2014 12.0811 31.5244C12.0811 31.8473 12.3435 32.1091 12.667 32.1091H22.6268V30.9396H21.9705L21.6072 28.0157Z" fill="#016BE3"/>
<path d="M7.01327 13.9818H7.35303C7.85101 13.9813 8.33019 13.792 8.69349 13.4521C9.05679 13.1125 9.27727 12.6473 9.30996 12.1515V11.8124L9.69653 6.37982H7.97997C7.60386 6.38113 7.23822 6.50304 6.93665 6.72703C6.63508 6.95128 6.41355 7.26611 6.30449 7.6253L5.13275 11.5315C5.11496 11.6516 5.10502 11.7727 5.10345 11.8941V12.0228C5.10607 12.5324 5.30668 13.0213 5.66265 13.3865C6.01888 13.7518 6.50302 13.965 7.01329 13.9817L7.01327 13.9818Z" fill="#016BE3"/>
<path d="M12.462 13.9818C12.9825 13.9818 13.4818 13.7753 13.8498 13.408C14.2178 13.0407 14.4247 12.5423 14.4247 12.0228V6.37976H10.8684L10.558 11.1221L10.5052 11.8941C10.4649 12.4347 10.654 12.9675 11.0267 13.362C11.3981 13.7586 11.918 13.9833 12.4621 13.9818L12.462 13.9818Z" fill="#016BE3"/>
<path d="M17.94 13.9817C18.5615 13.9817 19.1576 13.7353 19.5972 13.2967C20.0366 12.8579 20.2835 12.2629 20.2835 11.6427V6.37976H15.5966V11.6427C15.5966 12.2629 15.8435 12.8579 16.2829 13.2967C16.7225 13.7353 17.3186 13.9817 17.94 13.9817Z" fill="#016BE3"/>
<path d="M23.4166 13.9817C23.9606 13.9833 24.4806 13.7585 24.852 13.362C25.2247 12.9675 25.4138 12.4347 25.3735 11.894L25.2328 9.7539L25.0102 6.37976H21.454V12.0228C21.454 12.5423 21.6609 13.0406 22.0289 13.408C22.3969 13.7753 22.8961 13.9818 23.4167 13.9818L23.4166 13.9817Z" fill="#016BE3"/>
<path d="M26.5689 12.1511C26.6016 12.6469 26.8221 13.1121 27.1854 13.4517C27.5487 13.7916 28.0278 13.9809 28.5259 13.9814H28.8656C29.2404 13.9811 29.6071 13.8712 29.9202 13.6655C30.4849 13.3092 30.8275 12.6892 30.8282 12.0224V11.8937C30.8364 11.7731 30.8364 11.652 30.8282 11.5311L29.5979 7.62492C29.4878 7.26179 29.2626 6.94432 28.9563 6.71984C28.6501 6.49506 28.2789 6.37577 27.8989 6.37941H26.1413L26.5046 11.812L26.5689 12.1511Z" fill="#016BE3"/>
<path d="M31.4139 19.2446H30.4883L30.0724 19.6596H30.0722C29.9618 19.7693 29.8119 19.8301 29.6563 19.8293H27.3128C27.1572 19.8301 27.0073 19.7693 26.897 19.6596L26.4808 19.2446H25.5552C25.0892 19.2446 24.6419 19.4294 24.3124 19.7583C23.9829 20.0873 23.7977 20.5337 23.7977 20.9988V32.6942C23.7977 33.1594 23.9828 33.6058 24.3124 33.9347C24.6419 34.2636 25.0892 34.4485 25.5552 34.4485H31.4139C31.88 34.4485 32.3273 34.2636 32.6568 33.9347C32.9863 33.6058 33.1715 33.1593 33.1715 32.6942V20.9988C33.1715 20.5336 32.9863 20.0872 32.6568 19.7583C32.3272 19.4295 31.88 19.2446 31.4139 19.2446H31.4139ZM28.4845 33.279C28.2476 33.279 28.0339 33.1365 27.9434 32.918C27.8526 32.6995 27.9026 32.4481 28.0703 32.2807C28.2379 32.1134 28.4898 32.0635 28.7087 32.1541C28.9276 32.2444 29.0704 32.4577 29.0704 32.6942C29.0704 32.8493 29.0087 32.9981 28.8988 33.1077C28.789 33.2174 28.6399 33.279 28.4845 33.279ZM31.4139 28.6009C31.4139 29.0661 31.2287 29.5125 30.8992 29.8414C30.5696 30.1702 30.1223 30.3551 29.6563 30.3551H27.3128C26.8468 30.3551 26.3995 30.1703 26.07 29.8414C25.7405 29.5124 25.5553 29.066 25.5553 28.6009V25.677C25.5553 25.3541 25.8176 25.0922 26.1411 25.0922H26.8031C26.8031 24.4926 27.1238 23.9386 27.644 23.6387C28.1642 23.339 28.805 23.339 29.3252 23.6387C29.8455 23.9386 30.1661 24.4926 30.1661 25.0922H30.8281C30.9835 25.0922 31.1326 25.1539 31.2424 25.2635C31.3523 25.3731 31.414 25.5219 31.414 25.677L31.4139 28.6009Z" fill="#016BE3" fill-opacity="0.45"/>
<path d="M29.1476 25.0924C29.1476 24.7275 28.8513 24.4317 28.4856 24.4317C28.12 24.4317 27.8237 24.7275 27.8237 25.0924V25.1684H29.1476L29.1476 25.0924Z" fill="#016BE3" fill-opacity="0.45"/>
<path d="M26.7272 28.6005C26.7272 28.7556 26.789 28.9044 26.8988 29.014C27.0087 29.1236 27.1577 29.1853 27.3131 29.1853H29.6566C29.8119 29.1853 29.961 29.1236 30.0709 29.014C30.1807 28.9044 30.2424 28.7556 30.2424 28.6005V26.2614H26.7272V28.6005Z" fill="#016BE3" fill-opacity="0.45"/>
</svg>
