<svg width="37" height="37" viewBox="0 0 37 37" fill="none" xmlns="http://www.w3.org/2000/svg">
<path d="M16.5875 30.288H20.415C20.727 29.6709 20.9906 28.9013 21.9682 28.9013H33.063V12.2594C33.063 11.8917 32.9169 11.5388 32.6567 11.2787C32.3967 11.0187 32.044 10.8727 31.6762 10.8727H25.574C25.7363 11.7331 25.6172 12.623 25.2344 13.4105L26.3855 14.5616H26.3852C27.0107 15.191 27.2972 16.0818 27.156 16.9578C27.0149 17.834 26.463 18.5897 25.6714 18.9906C24.8797 19.3916 23.9441 19.3897 23.1542 18.9855C21.6894 19.3386 20.2869 19.9114 18.9937 20.6843C22.3567 23.2985 22.7936 23.458 22.8491 24.2831C22.9046 25.1083 22.5025 25.2817 20.4777 27.3064H20.4775C20.272 27.5131 20.0067 27.6496 19.7192 27.6969C19.4316 27.7443 19.1365 27.6997 18.8758 27.5699C12.7462 24.4772 13.5157 24.7962 13.1275 24.7962H13.1273C11.8402 24.7962 10.6055 24.2848 9.69515 23.3747C8.78484 22.4643 8.27358 21.2296 8.27358 19.9423C8.27358 17.6055 9.66032 16.5724 11.172 15.0468C11.4132 14.7991 11.7415 14.6546 12.0872 14.6447C12.8222 13.4599 13.4177 12.1942 13.8623 10.8726H5.32625C4.95849 10.8726 4.60584 11.0187 4.34581 11.2787C4.08555 11.5387 3.93951 11.8916 3.93951 12.2594V28.9012H15.0343C15.9911 28.9012 16.2615 29.6432 16.5875 30.2879L16.5875 30.288Z" fill="#016BE3"/>
<path d="M21.9672 30.2878L21.2738 31.6746L15.7266 31.6748L15.0331 30.2881L2.5517 30.2878V31.6748C2.5517 32.4103 2.84377 33.1159 3.36406 33.6359C3.88411 34.1562 4.58967 34.4483 5.32518 34.4483H31.6751C32.4107 34.4483 33.1162 34.1562 33.6363 33.6359C34.1566 33.1159 34.4486 32.4103 34.4486 31.6748V30.2878H21.9672Z" fill="#016BE3" fill-opacity="0.58"/>
<path d="M23.4438 17.5017C23.7944 17.8572 24.3079 17.9988 24.7911 17.873C25.2742 17.7471 25.6536 17.3731 25.7861 16.8918C25.9187 16.4105 25.7845 15.8949 25.4339 15.5394L17.5635 7.69698C17.213 7.34641 16.702 7.20943 16.2232 7.33781C15.7442 7.4662 15.3704 7.83999 15.2421 8.31897C15.1137 8.7977 15.2506 9.30868 15.6012 9.65929L23.4438 17.5017Z" fill="#016BE3"/>
<path d="M17.8416 19.7413C19.1106 18.9677 20.4679 18.3485 21.8841 17.897L15.1994 11.2194C14.7525 12.6361 14.1354 13.9936 13.3621 15.262L17.8416 19.7413Z" fill="#016BE3"/>
<path d="M12.1699 16.031L10.6998 17.5011C10.0258 18.1948 9.67225 19.1386 9.72449 20.1042C9.77673 21.07 10.2299 21.9701 10.9747 22.5872C11.7195 23.2041 12.6881 23.482 13.6467 23.3536C15.0683 23.1456 15.6924 22.265 17.0445 20.9128L12.1699 16.031Z" fill="#016BE3"/>
<path d="M21.4818 24.3662L18.1744 21.7936C16.6627 23.2982 16.2466 23.8113 15.4006 24.2483L19.5195 26.3285L21.4818 24.3662Z" fill="#016BE3"/>
<path d="M20.7669 8.93815L24.1577 12.3359C24.4136 11.3799 24.1406 10.3602 23.4417 9.65976C22.7426 8.95931 21.7235 8.68443 20.7669 8.93815V8.93815Z" fill="#016BE3"/>
<path d="M26.128 7.40559C26.5094 7.40559 26.4261 7.40559 28.7006 5.12429C28.9725 4.85243 28.9725 4.41155 28.7006 4.13969C28.4288 3.86782 27.9879 3.86782 27.716 4.13969L25.6358 6.21992C25.4357 6.41842 25.3755 6.71792 25.4837 6.9782C25.5917 7.23846 25.8464 7.40725 26.128 7.40562L26.128 7.40559Z" fill="#016BE3"/>
<path d="M22.6607 6.01867V3.24495C22.6607 2.8621 22.3503 2.5517 21.9672 2.5517C21.5843 2.5517 21.2739 2.86211 21.2739 3.24495V6.01867C21.2739 6.40151 21.5843 6.71216 21.9672 6.71216C22.3503 6.71216 22.6607 6.40151 22.6607 6.01867Z" fill="#016BE3"/>
</svg>
