<svg width="37" height="37" viewBox="0 0 37 37" fill="none" xmlns="http://www.w3.org/2000/svg">
<path d="M33.3091 29.8917H3.69086C3.06176 29.8917 2.5517 30.4017 2.5517 31.0308C2.5517 32.9153 4.08467 34.4483 5.96918 34.4483H31.0308C32.9153 34.4483 34.4482 32.9153 34.4482 31.0308C34.4482 30.4017 33.9382 29.8917 33.3091 29.8917Z" fill="#016BE3" fill-opacity="0.58"/>
<path d="M32.1698 16.2217C32.1698 14.9633 31.1497 13.9434 29.8915 13.9434H28.7349C28.701 14.24 28.6092 14.5344 28.4525 14.8089L26.1936 18.7581C25.8916 19.281 25.3871 19.6692 24.807 19.8261C24.6056 19.8772 24.4109 19.9017 24.2168 19.9017C23.8146 19.9017 23.4186 19.796 23.0726 19.5969L23.0365 19.5758V19.6392C23.0365 20.8951 22.0147 21.9175 20.7581 21.9175H16.2415C14.985 21.9175 13.9632 20.8951 13.9632 19.6392V19.5758L13.931 19.5947C13.5872 19.796 13.1901 19.9028 12.7857 19.9028C12.5882 19.9028 12.3919 19.8784 12.2005 19.8283C11.6126 19.6692 11.1081 19.281 10.8083 18.7603L8.54775 14.8111C8.39075 14.5357 8.29897 14.2407 8.26511 13.9434H7.10822C5.84995 13.9434 4.8299 14.9633 4.8299 16.2217V28.7525H32.1698V16.2217Z" fill="#016BE3"/>
<path d="M15.4161 14.7488C15.6386 14.9713 15.9301 15.0825 16.2216 15.0825C16.513 15.0825 16.8045 14.9713 17.027 14.7488C17.472 14.3038 17.472 13.5829 17.027 13.1379L15.5541 11.665L17.027 10.1921C17.472 9.74716 17.472 9.02628 17.027 8.5813C16.582 8.13631 15.8611 8.13631 15.4161 8.5813L13.1378 10.8596C12.9153 11.0821 12.8041 11.3736 12.8041 11.665C12.8041 11.9565 12.9153 12.248 13.1378 12.4705L15.4161 14.7488Z" fill="#016BE3"/>
<path d="M21.5836 8.5813C21.1386 8.13631 20.4178 8.13631 19.9728 8.5813C19.5278 9.02628 19.5278 9.74716 19.9728 10.1921L21.4457 11.665L19.9728 13.1379C19.5278 13.5829 19.5278 14.3038 19.9728 14.7488C20.1953 14.9713 20.4867 15.0825 20.7782 15.0825C21.0697 15.0825 21.3611 14.9713 21.5836 14.7488L23.8619 12.4705C24.0844 12.248 24.1957 11.9565 24.1957 11.665C24.1957 11.3736 24.0844 11.0821 23.8619 10.8596L21.5836 8.5813Z" fill="#016BE3"/>
<path d="M9.53692 14.2448L11.7952 18.1918C11.9465 18.4544 12.1963 18.6468 12.4894 18.7258C12.7825 18.8026 13.0957 18.7636 13.3577 18.6101L14.0129 18.2285C14.3583 18.4677 14.7221 18.6791 15.1026 18.8615V19.6391C15.1026 20.2688 15.6126 20.7783 16.2417 20.7783H20.7583C21.3874 20.7783 21.8975 20.2688 21.8975 19.6391V18.8615C22.278 18.6791 22.6417 18.4677 22.9872 18.2285L23.6424 18.6101C23.9044 18.7614 24.2164 18.8015 24.5107 18.7258C24.8038 18.6468 25.0536 18.4544 25.2049 18.1918L27.4632 14.2448C27.7735 13.7008 27.5883 13.0089 27.0471 12.694L26.3863 12.3091C26.4046 12.0911 26.4141 11.8764 26.4141 11.665C26.4141 11.4536 26.4046 11.2389 26.3863 11.0209L27.0471 10.636C27.5883 10.3211 27.7735 9.62919 27.4632 9.0852L25.2049 5.13817C25.0536 4.87563 24.8038 4.68318 24.5107 4.60419C24.2187 4.52743 23.9055 4.56637 23.6424 4.71989L22.9872 5.10146C22.6417 4.86228 22.278 4.65092 21.8975 4.46847V3.69086C21.8975 3.06121 21.3874 2.5517 20.7583 2.5517H16.2417C15.6126 2.5517 15.1026 3.06121 15.1026 3.69086V4.46847C14.7221 4.65092 14.3583 4.86228 14.0129 5.10146L13.3577 4.71989C13.0951 4.56637 12.7814 4.52632 12.4894 4.60419C12.1963 4.68318 11.9465 4.87563 11.7952 5.13817L9.53692 9.0852C9.22654 9.62919 9.41176 10.3211 9.95298 10.636L10.6138 11.0209C10.5954 11.2389 10.586 11.4536 10.586 11.665C10.586 11.8764 10.5954 12.0911 10.6138 12.3091L9.95298 12.694C9.41176 13.0089 9.22654 13.7008 9.53692 14.2448ZM18.5 5.96918C21.6457 5.96918 24.1958 8.5193 24.1958 11.665C24.1958 14.8107 21.6457 17.3608 18.5 17.3608C15.3543 17.3608 12.8042 14.8107 12.8042 11.665C12.8042 8.5193 15.3543 5.96918 18.5 5.96918Z" fill="#016BE3" fill-opacity="0.58"/>
</svg>
