<svg width="29" height="29" viewBox="0 0 29 29" fill="none" xmlns="http://www.w3.org/2000/svg">
<path d="M11.957 21.9517H13.3119V19.5807H15.3441V21.9517H16.699V14.1613H11.957V21.9517ZM14.8361 15.1774H15.5135V15.8549H14.8361V15.1774ZM14.8361 16.5323H15.5135V17.2097H14.8361V16.5323ZM14.8361 17.8871H15.5135V18.5646H14.8361V17.8871ZM13.1425 15.1774H13.8199V15.8549H13.1425V15.1774ZM13.1425 16.5323H13.8199V17.2097H13.1425V16.5323ZM13.1425 17.8871H13.8199V18.5646H13.1425V17.8871Z" fill="#016BE3" fill-opacity="0.58"/>
<path d="M16.0199 12.1289V13.4837H16.6973V12.2983L17.2992 11.8468C17.4251 11.9198 17.5679 11.9586 17.7135 11.9595C17.892 11.9616 18.0668 11.9078 18.2132 11.8056C18.3597 11.7034 18.4706 11.5581 18.5304 11.3898C18.5902 11.2215 18.5959 11.0388 18.5467 10.8671C18.4975 10.6954 18.3959 10.5434 18.2561 10.4323C18.1162 10.3212 17.9452 10.2566 17.7669 10.2475C17.5885 10.2384 17.4118 10.2853 17.2614 10.3816C17.111 10.4779 16.9944 10.6187 16.928 10.7845C16.8616 10.9503 16.8487 11.1327 16.8911 11.3062L16.1554 11.8579C16.1133 11.8895 16.0792 11.9304 16.0557 11.9774C16.0321 12.0245 16.0199 12.0763 16.0199 12.1289Z" fill="#016BE3"/>
<path d="M22.1169 24.9998L24.4879 23.3062L22.1169 21.6127V22.6288H4.16522V23.9836H22.1169V24.9998Z" fill="#016BE3" fill-opacity="0.58"/>
<path d="M14.666 13.4839V10.533C14.8443 10.4552 14.9903 10.3184 15.0796 10.1455C15.1689 9.97268 15.1959 9.77436 15.1562 9.58393C15.1164 9.39349 15.0123 9.22255 14.8614 9.09985C14.7104 8.97714 14.5218 8.91016 14.3272 8.91016C14.1327 8.91016 13.9441 8.97714 13.7931 9.09985C13.6422 9.22255 13.5381 9.39349 13.4983 9.58393C13.4586 9.77436 13.4856 9.97268 13.5749 10.1455C13.6642 10.3184 13.8102 10.4552 13.9885 10.533V13.4839H14.666Z" fill="#016BE3"/>
<path d="M10.9394 10.2663C10.7148 10.2663 10.4994 10.3555 10.3406 10.5143C10.1818 10.6731 10.0926 10.8885 10.0926 11.1131C10.0926 11.3377 10.1818 11.5531 10.3406 11.7119C10.4994 11.8707 10.7148 11.9599 10.9394 11.9599C11.0849 11.959 11.2277 11.9201 11.3536 11.8471L11.9555 12.2986V13.4841H12.6329V12.1292C12.6329 12.0767 12.6207 12.0248 12.5972 11.9778C12.5736 11.9307 12.5395 11.8898 12.4974 11.8583L11.7618 11.3065C11.7924 11.1823 11.7942 11.0527 11.7671 10.9277C11.7399 10.8026 11.6846 10.6854 11.6052 10.5851C11.5259 10.4847 11.4246 10.4038 11.3092 10.3486C11.1938 10.2933 11.0673 10.2652 10.9394 10.2663Z" fill="#016BE3"/>
<path d="M8.23047 21.9517H11.2789V16.5323L8.23047 17.5484V21.9517ZM10.0934 18.5646H10.7708V19.242H10.0934V18.5646ZM10.0934 20.2581H10.7708V20.9355H10.0934V20.2581ZM8.73854 18.5646H9.41596V19.242H8.73854V18.5646ZM8.73854 20.2581H9.41596V20.9355H8.73854V20.2581Z" fill="#016BE3" fill-opacity="0.58"/>
<path d="M17.3757 21.9517H20.4241V17.5484L17.3757 16.5323V21.9517ZM19.2386 18.5646H19.9161V19.242H19.2386V18.5646ZM19.2386 20.2581H19.9161V20.9355H19.2386V20.2581ZM17.8838 18.5646H18.5612V19.242H17.8838V18.5646ZM17.8838 20.2581H18.5612V20.9355H17.8838V20.2581Z" fill="#016BE3" fill-opacity="0.58"/>
<path d="M5.06414 16.0378L4.24175 16.305C4.15363 16.3337 4.08049 16.3962 4.03833 16.4787C3.99617 16.5613 3.98845 16.6571 4.01685 16.7454L4.66582 18.7437C4.69444 18.8319 4.75691 18.9051 4.83948 18.9472C4.92205 18.9893 5.01797 18.9969 5.10614 18.9683L5.9309 18.7001C6.00895 18.6752 6.09324 18.6785 6.16908 18.7095C6.24491 18.7404 6.30746 18.797 6.34582 18.8694C6.68205 19.4801 7.0872 20.0503 7.55333 20.5687V16.6414C7.24394 15.6637 7.14974 14.6306 7.27718 13.613C7.40463 12.5955 7.7507 11.6176 8.29166 10.7464C8.83262 9.87517 9.55566 9.13131 10.4112 8.56583C11.2667 8.00036 12.2344 7.62667 13.2479 7.47039C14.2614 7.31411 15.2967 7.37895 16.2828 7.66045C17.2689 7.94196 18.1824 8.43347 18.9607 9.10126C19.739 9.76905 20.3635 10.5973 20.7916 11.5292C21.2196 12.4611 21.441 13.4745 21.4405 14.5C21.4387 15.227 21.3244 15.9493 21.1018 16.6414V20.5704C21.568 20.0515 21.9732 19.4807 22.3093 18.8694C22.3476 18.797 22.4102 18.7404 22.486 18.7095C22.5619 18.6785 22.6461 18.6752 22.7242 18.7001L23.5483 18.9676C23.6364 18.9962 23.7324 18.9886 23.8149 18.9465C23.8975 18.9044 23.96 18.8312 23.9886 18.7431L24.6376 16.7447C24.666 16.6565 24.6582 16.5606 24.6161 16.478C24.5739 16.3955 24.5008 16.3331 24.4127 16.3044L23.5903 16.0371C23.5125 16.0113 23.4462 15.959 23.4028 15.8894C23.3595 15.8198 23.342 15.7373 23.3532 15.6561C23.4521 14.8881 23.4521 14.1106 23.3532 13.3427C23.342 13.2615 23.3595 13.1789 23.4028 13.1093C23.4462 13.0397 23.5125 12.9874 23.5903 12.9616L24.4127 12.6944C24.5008 12.6657 24.574 12.6033 24.6162 12.5207C24.6584 12.4382 24.6661 12.3423 24.6376 12.254L23.9886 10.2557C23.96 10.1675 23.8975 10.0943 23.8149 10.0522C23.7324 10.0101 23.6364 10.0025 23.5483 10.0311L22.7242 10.2987C22.6461 10.3235 22.5619 10.3202 22.486 10.2892C22.4102 10.2583 22.3476 10.2017 22.3093 10.1293C21.9372 9.45001 21.4803 8.82082 20.9493 8.25692C20.8926 8.19797 20.8583 8.12099 20.8524 8.03936C20.8465 7.95774 20.8694 7.87664 20.9172 7.81016L21.4252 7.10937C21.4522 7.07218 21.4717 7.03004 21.4824 6.98536C21.4931 6.94067 21.4949 6.89431 21.4877 6.84892C21.4805 6.80353 21.4644 6.76001 21.4404 6.72083C21.4164 6.68166 21.3849 6.6476 21.3477 6.62061L19.6497 5.38871C19.6125 5.36171 19.5704 5.34229 19.5257 5.33158C19.481 5.32086 19.4347 5.31905 19.3893 5.32625C19.3439 5.33346 19.3004 5.34953 19.2612 5.37356C19.222 5.39758 19.1879 5.42909 19.161 5.46628L18.6519 6.16775C18.6034 6.23382 18.5333 6.28077 18.4537 6.3004C18.3742 6.32002 18.2903 6.31108 18.2166 6.27512C17.5171 5.94285 16.7777 5.70186 16.0167 5.55807C15.936 5.54394 15.8628 5.50191 15.81 5.43932C15.7571 5.37673 15.7279 5.29756 15.7274 5.21563V4.34989C15.7274 4.25709 15.6906 4.1681 15.625 4.10248C15.5593 4.03686 15.4703 4 15.3775 4H13.2775C13.1847 4 13.0958 4.03686 13.0301 4.10248C12.9645 4.1681 12.9277 4.25709 12.9277 4.34989V5.21428C12.9275 5.29644 12.8985 5.37593 12.8456 5.4388C12.7927 5.50167 12.7193 5.5439 12.6384 5.55807C11.8768 5.70161 11.1369 5.94249 10.4368 6.27478C10.3634 6.31032 10.2799 6.31907 10.2007 6.29953C10.1215 6.27998 10.0517 6.23336 10.0032 6.16775L9.49516 5.4673C9.46823 5.42988 9.43418 5.39816 9.39496 5.37395C9.35573 5.34974 9.31211 5.33352 9.2666 5.32621C9.22109 5.31891 9.17458 5.32067 9.12976 5.3314C9.08493 5.34213 9.04266 5.3616 9.00538 5.38871L7.30641 6.62264C7.26922 6.64963 7.23771 6.68369 7.21369 6.72287C7.18966 6.76204 7.17359 6.80556 7.16638 6.85095C7.15918 6.89634 7.16099 6.9427 7.17171 6.98739C7.18242 7.03208 7.20184 7.07422 7.22884 7.1114L7.73691 7.81219C7.78442 7.87886 7.80705 7.96007 7.80086 8.0417C7.79467 8.12333 7.76006 8.20021 7.70304 8.25895C7.17312 8.8228 6.71706 9.45175 6.34582 10.1307C6.30746 10.203 6.24491 10.2596 6.16908 10.2906C6.09324 10.3215 6.00895 10.3249 5.9309 10.3L5.10682 10.0324C5.01865 10.0038 4.92273 10.0114 4.84016 10.0535C4.75758 10.0957 4.69512 10.1688 4.6665 10.257L4.01753 12.2554C3.98903 12.3436 3.99672 12.4395 4.03888 12.5221C4.08105 12.6047 4.15426 12.6671 4.24243 12.6957L5.06482 12.963C5.14263 12.9888 5.20894 13.041 5.25225 13.1106C5.29556 13.1802 5.31313 13.2628 5.30192 13.344C5.20302 14.112 5.20302 14.8895 5.30192 15.6574C5.31292 15.7386 5.29517 15.8211 5.25175 15.8906C5.20832 15.96 5.14195 16.0121 5.06414 16.0378Z" fill="#016BE3"/>
</svg>
