<svg width="22" height="22" viewBox="0 0 22 22" fill="none" xmlns="http://www.w3.org/2000/svg">
<path opacity="0.58" d="M6.22109 13.8768H8.931C9.09043 13.877 9.24067 13.9509 9.3382 14.0771L10.96 16.2463L12.582 14.0769V14.0771C12.6794 13.9509 12.8298 13.877 12.9892 13.8768H15.6992C15.9239 13.8764 16.1394 13.7871 16.2982 13.6283C16.4571 13.4692 16.5466 13.2539 16.5468 13.0292V0.847611C16.5466 0.622912 16.4571 0.407591 16.2982 0.24852C16.1394 0.0896549 15.9239 0.000187261 15.6992 0H6.22133C5.99645 0.000187549 5.78113 0.0896549 5.62224 0.24852C5.46319 0.407572 5.37391 0.622893 5.37354 0.847611V13.0292C5.37391 13.2541 5.46319 13.4694 5.62224 13.6283C5.78111 13.7873 5.99643 13.8766 6.22133 13.877L6.22109 13.8768ZM7.57605 2.36937H14.3443C14.4792 2.36899 14.6086 2.42226 14.7041 2.51735C14.7996 2.61263 14.8534 2.74186 14.8534 2.87672C14.8534 3.01158 14.7996 3.14081 14.7041 3.23609C14.6086 3.33118 14.4792 3.38445 14.3443 3.38389H7.57605C7.44119 3.38445 7.31159 3.33118 7.21612 3.23609C7.12065 3.14081 7.06701 3.01158 7.06701 2.87672C7.06701 2.74186 7.12065 2.61263 7.21612 2.51735C7.31159 2.42226 7.44119 2.36899 7.57605 2.36937ZM7.57605 5.07928H12.9893V5.07946C13.124 5.0789 13.2536 5.13217 13.3491 5.22726C13.4446 5.32254 13.4984 5.45177 13.4984 5.58663C13.4984 5.72149 13.4446 5.85072 13.3491 5.946C13.2536 6.04109 13.124 6.09436 12.9893 6.09398H7.57605C7.44119 6.09436 7.31159 6.04109 7.21612 5.946C7.12065 5.85072 7.06701 5.72149 7.06701 5.58663C7.06701 5.45177 7.12065 5.32254 7.21612 5.22726C7.31159 5.13217 7.44119 5.0789 7.57605 5.07946V5.07928ZM7.57605 7.78261H14.3443C14.4792 7.78223 14.6086 7.8355 14.7041 7.93059C14.7997 8.02587 14.8534 8.1551 14.8534 8.28996C14.8534 8.42482 14.7997 8.55405 14.7041 8.64933C14.6086 8.74442 14.4792 8.79769 14.3443 8.79713H7.57605C7.44119 8.79769 7.31159 8.74442 7.21612 8.64933C7.12065 8.55405 7.06701 8.42482 7.06701 8.28996C7.06701 8.1551 7.12065 8.02587 7.21612 7.93059C7.31159 7.8355 7.44119 7.78223 7.57605 7.78261ZM7.57605 10.4925H12.9893C13.2688 10.4936 13.4948 10.7204 13.4948 10.9999C13.4948 11.2793 13.2688 11.5063 12.9893 11.5072H7.57605C7.44119 11.5076 7.31159 11.4543 7.21612 11.3592C7.12065 11.2639 7.06701 11.1347 7.06701 10.9998C7.06701 10.865 7.12065 10.7357 7.21612 10.6405C7.31159 10.5454 7.44119 10.4921 7.57605 10.4925V10.4925Z" fill="#016BE3"/>
<path d="M15.2319 18.9565L14.0239 20.158V20.1578C13.9301 20.2518 13.8027 20.3047 13.6699 20.3047H8.24992C8.11713 20.3047 7.98996 20.2518 7.89618 20.1578L6.6881 18.9563L0 18.9565C0.123789 19.8013 0.547139 20.5735 1.1929 21.1322C1.83847 21.6909 2.66357 21.9989 3.51753 22H18.4024C19.3453 22.0068 20.2508 21.6311 20.912 20.9588C21.4584 20.4189 21.8143 19.716 21.9267 18.9564L15.2319 18.9565Z" fill="#016BE3"/>
<path d="M7.25561 18.0882L8.46368 19.2897H13.4564L14.6644 18.0882C14.7558 17.99 14.8841 17.9343 15.0182 17.9348H20.6048V5.58662C20.6046 5.36193 20.5151 5.14642 20.3563 4.98753C20.1974 4.82865 19.9819 4.7392 19.7572 4.73901H17.5612V13.0289C17.561 13.5228 17.3647 13.9963 17.0154 14.3456C16.6664 14.6948 16.1928 14.891 15.6989 14.8912H13.2427L11.3671 17.3942C11.2722 17.5244 11.121 17.6013 10.9599 17.6013C10.7989 17.6013 10.6476 17.5244 10.5529 17.3942L8.67727 14.8912H6.22098C5.72714 14.891 5.25356 14.6948 4.90429 14.3456C4.55505 13.9964 4.35888 13.5228 4.35869 13.0289V4.73901H2.16274C1.93804 4.7392 1.72253 4.82867 1.56365 4.98753C1.4046 5.1464 1.31532 5.36191 1.31494 5.58662V17.9348H6.90157C7.03586 17.9343 7.16416 17.99 7.2555 18.0882H7.25561Z" fill="#016BE3"/>
</svg>
