<svg width="25" height="21" viewBox="0 0 25 21" fill="none" xmlns="http://www.w3.org/2000/svg">
<path d="M16.3591 12.6104L18.1681 11.9025C18.509 11.7714 18.8236 11.5355 19.1119 11.2995L16.7785 9.20215C16.5687 9.51669 16.3853 9.8314 16.2803 10.1984L15.756 12.0861C15.6512 12.4267 16.0182 12.7415 16.3591 12.6103V12.6104Z" fill="#016BE3" fill-opacity="0.58"/>
<path d="M24.565 3.69682L23.6999 2.91026C23.2803 2.54324 22.6513 2.56939 22.2842 2.9889L17.6963 8.10119L20.0821 10.2247L24.6439 5.11242C25.0107 4.71906 24.9845 4.06365 24.565 3.69662L24.565 3.69682Z" fill="#016BE3" fill-opacity="0.58"/>
<path d="M16.8835 13.9474C16.6476 14.0522 16.4117 14.0786 16.1756 14.0786C15.5726 14.0786 15.022 13.7902 14.6811 13.3445C14.3141 12.8727 14.2093 12.2695 14.3666 11.6928L14.8647 9.80516C15.0483 9.12357 15.389 8.49432 15.861 7.97002L20.1606 3.17234V2.38578C20.1606 1.07494 19.0857 0 17.8012 0L2.35943 0.000182874C1.04858 0.000182874 0 1.07512 0 2.38597V20.2921C0 20.5805 0.157273 20.8164 0.419512 20.9475C0.5243 21 0.62927 21 0.734058 21C0.891332 21 1.0486 20.9475 1.17972 20.8427L6.65905 16.3595H17.8274C19.1383 16.3595 20.1869 15.311 20.1869 14.0001V12.2698C19.7674 12.6893 19.2692 13.0038 18.6924 13.2397L16.8835 13.9474ZM5.13831 3.88015H15.0221C15.4153 3.88015 15.73 4.1947 15.73 4.58806C15.73 4.98124 15.4154 5.29596 15.0221 5.29596L5.13831 5.29578C4.74513 5.29578 4.43041 4.98123 4.43041 4.58787C4.40408 4.1947 4.74496 3.88016 5.13831 3.88016V3.88015ZM11.2993 12.5317H5.13831C4.74513 12.5317 4.43041 12.2172 4.43041 11.8238C4.43041 11.4306 4.74496 11.1159 5.13831 11.1159H11.2993C11.6925 11.1159 12.0072 11.4305 12.0072 11.8238C12.007 12.1908 11.6925 12.5317 11.2991 12.5317H11.2993ZM12.348 8.91375H5.1384C4.74523 8.91375 4.4305 8.5992 4.4305 8.20585C4.4305 7.81267 4.74505 7.49794 5.1384 7.49794H12.348C12.7412 7.49794 13.0559 7.81249 13.0559 8.20585C13.0558 8.59921 12.7412 8.91375 12.348 8.91375Z" fill="#016BE3"/>
</svg>
