<svg width="35" height="35" viewBox="0 0 35 35" fill="none" xmlns="http://www.w3.org/2000/svg">
<path d="M28.3794 30.855C28.3794 29.0109 26.8848 27.5163 25.0407 27.5163C23.1966 27.5163 21.7019 29.0109 21.7019 30.855C21.7019 32.0169 22.2962 33.0391 23.1966 33.6373H15.2375C16.1379 33.0391 16.7322 32.0169 16.7322 30.855C16.7322 29.0109 15.2375 27.5163 13.3934 27.5163C11.5493 27.5163 10.0547 29.0109 10.0547 30.855C10.0547 32.0169 10.649 33.0391 11.5493 33.6373H7.79043L7.78988 27.4868L7.70307 25.8469H23.3713C23.9851 25.8469 24.4842 25.3477 24.4842 24.734V16.6798C24.4842 16.3131 24.3039 15.9703 24.0018 15.7627L16.6309 10.6951C16.6676 10.5571 16.6938 10.4152 16.6938 10.266C16.6938 9.54152 16.2269 8.92941 15.5809 8.69904V3.20789L15.8786 3.12498C16.3582 2.99199 16.6938 2.55127 16.6938 2.05268V1.36267C16.6938 0.7489 16.1946 0.249756 15.5809 0.249756H3.89522C2.36106 0.249756 1.11292 1.49789 1.11292 3.03205L1.11348 5.23007L0 27.5163V34.7502H31.1617V33.6373H26.8848C27.7851 33.0391 28.3794 32.0169 28.3794 30.855ZM25.0407 29.7421C25.6556 29.7421 26.1536 30.2401 26.1536 30.855C26.1536 31.4699 25.6556 31.9679 25.0407 31.9679C24.4258 31.9679 23.9278 31.4699 23.9278 30.855C23.9278 30.2401 24.4258 29.7421 25.0407 29.7421ZM13.3934 29.7421C14.0083 29.7421 14.5063 30.2401 14.5063 30.855C14.5063 31.4699 14.0083 31.9679 13.3934 31.9679C12.7785 31.9679 12.2805 31.4699 12.2805 30.855C12.2805 30.2401 12.7791 29.7421 13.3934 29.7421ZM5.97471 14.1752L6.05762 15.7555L6.04705 15.7627C5.74489 15.9703 5.5646 16.3131 5.5646 16.6798V20.2116L1.9554 17.4811L5.97471 14.1752ZM1.56031 18.5784L5.5646 21.6083V22.413L1.17747 26.237L1.56031 18.5784ZM5.5646 23.8893V24.734C5.5646 25.3171 6.017 25.7918 6.58848 25.838L6.64802 26.9598H2.04221L5.5646 23.8893ZM8.90335 24.734H7.79043V22.5081H8.90335V24.734ZM8.90335 21.3952H7.79043V20.2823H8.90335V21.3952ZM12.2421 24.734H11.1292V21.3952H12.2421V24.734ZM15.5809 24.734H14.4679V22.5081H15.5809V24.734ZM15.5809 21.3952H14.4679V20.2823H15.5809V21.3952ZM18.9196 24.734H17.8067V21.3952H18.9196V24.734ZM22.2584 24.734H21.1455V22.5081H22.2584V24.734ZM22.2584 21.3952H21.1455V20.2823H22.2584V21.3952ZM23.3713 18.0565H6.67751V16.9435H23.3713V18.0565ZM16.0016 11.6132L22.136 15.8306H7.91285L14.0473 11.6132C14.3227 11.8135 14.6583 11.9354 15.0244 11.9354C15.3906 11.9354 15.7261 11.8135 16.0016 11.6132ZM14.4679 10.266C14.4679 9.95886 14.7178 9.70957 15.0244 9.70957C15.331 9.70957 15.5809 9.95886 15.5809 10.266C15.5809 10.5732 15.331 10.8225 15.0244 10.8225C14.7178 10.8225 14.4679 10.5732 14.4679 10.266ZM15.5809 1.36267V2.05213L14.4329 2.37098L13.2226 1.36267H15.5809ZM13.1291 2.73323L10.5338 3.45441L11.7975 1.62365L13.1291 2.73323ZM10.625 1.36267L9.15543 3.49169L7.3308 1.36267H10.625ZM6.67751 2.31033L8.21112 4.09934L6.67751 4.52559V2.31033ZM6.67751 5.6808L14.4679 3.51673V8.69904C13.8219 8.92941 13.355 9.54152 13.355 10.266C13.355 10.4152 13.3812 10.5571 13.4179 10.6951L7.13326 15.016L6.67751 6.37081V5.6808ZM3.89522 2.47559C4.20238 2.47559 4.45168 2.72489 4.45168 3.03205C4.45168 3.33922 4.20238 3.58851 3.89522 3.58851C3.58805 3.58851 3.33876 3.33922 3.33876 3.03205C3.33876 2.72489 3.58805 2.47559 3.89522 2.47559ZM2.19078 5.96181L5.58685 6.81097L5.83114 11.4524L2.13013 7.17044L2.19078 5.96181ZM2.05 8.77972L5.67867 12.9777L1.6755 16.2708L2.05 8.77972ZM1.11236 28.0727H6.67751V33.6373H1.11292L1.11236 28.0727Z" fill="#016BE3"/>
<path d="M29.4925 13.6048C30.6611 13.6048 34.5006 8.53377 34.5006 5.25789C34.5006 2.49618 32.2537 0.249756 29.4925 0.249756C26.7314 0.249756 24.4844 2.49618 24.4844 5.25789C24.4844 8.53377 28.3239 13.6048 29.4925 13.6048ZM27.2667 5.25789C27.2667 4.02867 28.2633 3.03205 29.4925 3.03205C30.7217 3.03205 31.7183 4.02867 31.7183 5.25789C31.7183 6.48711 30.7217 7.48373 29.4925 7.48373C28.2633 7.48373 27.2667 6.48711 27.2667 5.25789Z" fill="#016BE3" fill-opacity="0.58"/>
<path d="M30.049 14.7177H28.936V15.8306H30.049V14.7177Z" fill="#016BE3" fill-opacity="0.58"/>
<path d="M32.2745 14.7177H31.1616V15.8306H32.2745V14.7177Z" fill="#016BE3" fill-opacity="0.58"/>
<path d="M27.8229 14.7177H26.71V15.8306H27.8229V14.7177Z" fill="#016BE3" fill-opacity="0.58"/>
<path d="M29.4924 18.0565H26.7101C26.0963 18.0565 25.5972 18.5556 25.5972 19.1694V26.4417C27.6099 26.6933 29.2025 28.2859 29.454 30.2986H33.3876C34.0014 30.2986 34.5005 29.7994 34.5005 29.1856V23.0646C34.5005 20.3029 32.2535 18.0565 29.4924 18.0565ZM33.3876 23.6211H30.0488V21.3952H33.0064C33.2479 21.9021 33.3876 22.467 33.3876 23.0646V23.6211Z" fill="#016BE3" fill-opacity="0.58"/>
<path d="M8.98029 30.2986C9.16003 28.859 10.0242 27.6332 11.2401 26.9598H8.94189V30.2986H8.98029Z" fill="#016BE3" fill-opacity="0.58"/>
<path d="M17.8067 30.2986H20.6274C20.8071 28.859 21.6713 27.6332 22.8871 26.9598H15.5469C16.7627 27.6332 17.6269 28.859 17.8067 30.2986Z" fill="#016BE3" fill-opacity="0.58"/>
</svg>
