<svg width="34" height="34" viewBox="0 0 34 34" fill="none" xmlns="http://www.w3.org/2000/svg">
<path d="M30.7469 17.288C30.1791 20.7866 23.7203 24.0873 26.7113 20.4491C29.6035 16.931 27.1276 14.9057 26.0118 17.1647C25.018 19.1766 23.2165 19.3736 21.023 22.4625C19.5771 24.4987 19.1757 25.417 19.2565 27.5105C19.2568 27.5181 19.2654 31.3306 18.5836 33.2552C18.4915 33.5155 18.427 34 18.7513 34H23.332C23.9623 34 24.2431 33.928 24.2817 33.7119C24.7916 30.861 24.412 29.3178 24.6664 29.2263C27.2237 28.3068 30.1167 25.2574 32.0504 21.9527C32.8626 20.5646 33.2795 19.8206 33.6602 18.4424C34.0727 16.9499 33.5333 14.4847 33.9517 12.2924C34.3781 10.0577 31.8682 10.3777 30.7469 17.288Z" fill="#016BE3" fill-opacity="0.58"/>
<path d="M14.7434 27.5105C14.8242 25.417 14.4229 24.4987 12.9769 22.4626C10.7834 19.3737 8.98192 19.1767 7.98817 17.1648C6.87234 14.9057 4.39639 16.9311 7.28862 20.4492C10.2796 24.0873 3.8208 20.7867 3.25305 17.288C2.13173 10.3777 -0.378181 10.0577 0.0482517 12.2924C0.466588 14.4847 -0.0727319 16.9499 0.339678 18.4425C0.720414 19.8206 1.13732 20.5647 1.94948 21.9528C3.88322 25.2574 6.77623 28.3069 9.33343 29.2264C9.58787 29.3179 9.20832 30.861 9.71817 33.712C9.75679 33.9281 10.0376 34.0001 10.668 34.0001H15.2486C15.573 34.0001 15.5084 33.5156 15.4163 33.2553C14.7345 31.3307 14.7431 27.5182 14.7434 27.5105Z" fill="#016BE3" fill-opacity="0.58"/>
<path d="M12.9176 9.69009L16.0276 13.7412L20.4152 4.98058L23.1704 9.6899H28.4519C28.7493 8.53069 28.8999 7.33871 28.9001 6.14196C28.901 4.70013 28.3943 3.30402 27.4688 2.1984C26.5434 1.09278 25.2582 0.348207 23.8388 0.0952327C22.4193 -0.157742 20.9561 0.0970248 19.7057 0.814865C18.4553 1.53271 17.4974 2.6678 17.0001 4.02115C16.5028 2.6678 15.545 1.53271 14.2946 0.814865C13.0441 0.0970248 11.5809 -0.157742 10.1615 0.0952327C8.74199 0.348207 7.45688 1.09278 6.53143 2.1984C5.60598 3.30402 5.09926 4.70013 5.1001 6.14196C5.10038 7.33877 5.25101 8.53082 5.54843 9.69009H12.9176Z" fill="#016BE3"/>
<path d="M27.8334 11.5788H22.0873L20.544 8.94135L16.3656 17.284L11.9865 11.579H6.16699C9.08646 18.7612 17.0002 22.2646 17.0002 22.2646C17.0002 22.2646 24.914 18.7612 27.8334 11.5788Z" fill="#016BE3"/>
</svg>
