<svg width="35" height="35" viewBox="0 0 35 35" fill="none" xmlns="http://www.w3.org/2000/svg">
<path d="M26.25 16.25H8.75C7.36931 16.25 6.25 17.3692 6.25 18.75V30H28.75V18.75C28.75 17.3692 27.6307 16.25 26.25 16.25ZM15.9717 25.1054C16.2585 25.297 16.3367 25.6852 16.145 25.9721C16.0242 26.1527 15.8264 26.2504 15.625 26.2504C15.5054 26.2504 15.3845 26.2162 15.2783 26.1454L11.5283 23.6454C11.355 23.5294 11.25 23.3341 11.25 23.1254C11.25 22.9166 11.355 22.7213 11.5283 22.6054L15.2783 20.1054C15.5615 19.9137 15.9521 19.9906 16.145 20.2787C16.3367 20.5656 16.2585 20.9538 15.9717 21.1454L13.0017 23.1254L15.9717 25.1054ZM23.4718 23.645L19.7218 26.145C19.6156 26.2158 19.4947 26.25 19.3751 26.25C19.1737 26.25 18.9759 26.1523 18.8551 25.9717C18.6634 25.6848 18.7415 25.2966 19.0284 25.105L21.9984 23.125L19.0284 21.145C18.7415 20.9534 18.6634 20.5652 18.8551 20.2783C19.0479 19.9902 19.4386 19.9133 19.7218 20.105L23.4718 22.605C23.6451 22.7209 23.7501 22.9163 23.7501 23.125C23.7501 23.3337 23.6451 23.5291 23.4718 23.645Z" fill="#016BE3"/>
<path d="M5 13.75C5 12.3718 3.87817 11.25 2.5 11.25C1.12183 11.25 0 12.3718 0 13.75C0 14.6709 0.506516 15.4684 1.25 15.9021V23.75C1.25 24.4409 1.80908 25 2.5 25H5V22.5H3.75V15.9021C4.49348 15.4684 5 14.6709 5 13.75Z" fill="#016BE3" fill-opacity="0.58"/>
<path d="M17.5 0C16.1218 0 15 1.12183 15 2.5C15 3.42087 15.5065 4.21837 16.25 4.6521V15H18.75V4.6521C19.4935 4.21837 20 3.42087 20 2.5C20 1.12183 18.8782 0 17.5 0Z" fill="#016BE3"/>
<path d="M35 13.75C35 12.3718 33.8782 11.25 32.5 11.25C31.1218 11.25 30 12.3718 30 13.75C30 14.6709 30.5065 15.4684 31.25 15.9021V22.5H30V25H32.5C33.1909 25 33.75 24.4409 33.75 23.75V15.9021C34.4935 15.4684 35 14.6709 35 13.75Z" fill="#016BE3" fill-opacity="0.58"/>
<path d="M12.5 8.75H8.75V4.6521C9.49348 4.21837 10 3.42087 10 2.5C10 1.12183 8.87817 0 7.5 0C6.12183 0 5 1.12183 5 2.5C5 3.42087 5.50652 4.21837 6.25 4.6521V10C6.25 10.6909 6.80908 11.25 7.5 11.25H11.25V15H13.75V10C13.75 9.30908 13.1909 8.75 12.5 8.75Z" fill="#016BE3" fill-opacity="0.58"/>
<path d="M30 2.5C30 1.12183 28.8782 0 27.5 0C26.1218 0 25 1.12183 25 2.5C25 3.42087 25.5065 4.21837 26.25 4.6521V8.75H22.5C21.8091 8.75 21.25 9.30908 21.25 10V15H23.75V11.25H27.5C28.1909 11.25 28.75 10.6909 28.75 10V4.6521C29.4935 4.21837 30 3.42087 30 2.5Z" fill="#016BE3" fill-opacity="0.58"/>
<path d="M27.5 35H7.5C5.42893 35 3.75 33.3211 3.75 31.25H31.25C31.25 33.3211 29.5711 35 27.5 35Z" fill="#016BE3"/>
</svg>
