<svg width="32" height="32" viewBox="0 0 32 32" fill="none" xmlns="http://www.w3.org/2000/svg">
<path d="M0.607453 19.3331C0.606559 20.1802 0.8782 21.0051 1.38209 21.6864L1.45544 21.7864H1.45574C1.56188 21.9215 1.67579 22.0507 1.79625 22.173L1.8696 22.2397H1.8699C1.97724 22.3424 2.09085 22.4382 2.21042 22.5266L2.32403 22.6132C2.46387 22.7075 2.60879 22.7945 2.75817 22.873L2.87178 22.9331C3.01192 23.0019 3.15684 23.0596 3.30593 23.1064L3.3927 23.1397C3.56474 23.1959 3.74127 23.2385 3.92018 23.2665H4.0472C4.23475 23.3022 4.4244 23.3245 4.61493 23.3331H19.9771V18.6665H0.607422L0.607453 19.3331ZM14.6337 19.9998C14.9039 19.9998 15.1475 20.1623 15.2507 20.4114C15.3541 20.6605 15.2972 20.9471 15.1061 21.1379C14.9149 21.3287 14.6278 21.3855 14.3782 21.2822C14.1286 21.1793 13.9658 20.9361 13.9658 20.6665C13.9658 20.2983 14.2649 19.9998 14.6337 19.9998Z" fill="#016BE3"/>
<path d="M28.6599 13.3338V9.63386C28.1724 9.87642 27.6351 10.002 27.0904 10.0005H26.703C25.5461 10.0005 24.4611 9.44161 23.7908 8.5005C23.7001 8.63026 23.5996 8.75258 23.4902 8.86716C22.7385 9.67493 21.6535 10.0886 20.5534 9.98647C19.4538 9.88469 18.4635 9.27903 17.8731 8.34717C17.1187 9.38076 15.915 9.99211 14.6337 9.99211C13.3524 9.99211 12.1486 9.38081 11.3942 8.34717C10.8038 9.27897 9.8136 9.88468 8.71394 9.98647C7.61398 10.0886 6.5289 9.67487 5.77716 8.86716C5.66773 8.75258 5.56725 8.63026 5.4766 8.5005C4.8063 9.4416 3.72123 10.0005 2.56432 10.0005H2.17699C1.63222 10.002 1.09489 9.87642 0.607422 9.63386V17.3336H19.9771V16.667C19.9771 15.783 20.3289 14.9352 20.955 14.3098C21.5815 13.6848 22.431 13.3337 23.3166 13.3337L28.6599 13.3338Z" fill="#016BE3"/>
<path d="M18.8153 24.6665H10.4598L10.0391 27.9998H8.623C8.25415 27.9998 7.95508 28.2983 7.95508 28.6665C7.95508 29.0346 8.25415 29.3331 8.623 29.3331H19.9776V27.9998H19.2295L18.8153 24.6665Z" fill="#016BE3"/>
<path d="M2.17728 8.6671H2.56462C3.13235 8.66651 3.67863 8.45074 4.09281 8.06324C4.50698 7.67604 4.75835 7.14568 4.79562 6.5805V6.1939L5.23632 0.000488281H3.27936C2.85058 0.00197635 2.43373 0.140967 2.08993 0.396318C1.74613 0.651974 1.49357 1.0109 1.36923 1.42039L0.0333959 5.87362C0.0131202 6.01052 0.00178926 6.14862 0 6.28701V6.43374C0.00298182 7.01469 0.231688 7.57209 0.637508 7.98847C1.04362 8.40483 1.59557 8.64799 2.17731 8.66703L2.17728 8.6671Z" fill="#016BE3"/>
<path d="M8.38934 8.66717C8.98271 8.66717 9.5519 8.43176 9.9715 8.01301C10.391 7.59426 10.6269 7.02612 10.6269 6.43382V0.000488281H6.57259L6.21866 5.40701L6.15843 6.28708C6.11251 6.90344 6.32809 7.51084 6.753 7.96059C7.17641 8.41267 7.76915 8.66892 8.38943 8.66713L8.38934 8.66717Z" fill="#016BE3"/>
<path d="M14.6346 8.6671C15.343 8.6671 16.0226 8.38615 16.5238 7.88615C17.0248 7.38586 17.3062 6.70757 17.3062 6.00045V0.000488281H11.9629V6.00045C11.9629 6.70759 12.2444 7.38589 12.7453 7.88615C13.2465 8.38615 13.9261 8.6671 14.6346 8.6671Z" fill="#016BE3"/>
<path d="M20.8781 8.66706C21.4983 8.66884 22.0911 8.4126 22.5145 7.96052C22.9394 7.51082 23.155 6.90338 23.1091 6.287L22.9487 3.84717L22.6949 0.000488281H18.6406V6.43382C18.6406 7.02608 18.8765 7.59419 19.296 8.01301C19.7156 8.43176 20.2848 8.66717 20.8782 8.66717L20.8781 8.66706Z" fill="#016BE3"/>
<path d="M24.4719 6.58011C24.5092 7.14528 24.7605 7.67564 25.1747 8.06284C25.5889 8.45033 26.1351 8.66611 26.7029 8.66671H27.0902C27.5175 8.66641 27.9356 8.54111 28.2925 8.30659C28.9363 7.90034 29.3269 7.19353 29.3277 6.43338V6.28665C29.337 6.14915 29.337 6.01106 29.3277 5.87326L27.9251 1.42003C27.7996 1.00604 27.5428 0.644111 27.1937 0.388189C26.8445 0.131939 26.4214 -0.00406731 25.9881 9.26626e-05H23.9844L24.3985 6.1935L24.4719 6.58011Z" fill="#016BE3"/>
<path d="M29.9954 14.667H28.9401L28.466 15.1402H28.4657C28.3399 15.2652 28.169 15.3345 27.9916 15.3337H25.3199C25.1425 15.3345 24.9717 15.2652 24.8458 15.1402L24.3715 14.667H23.3162C22.7849 14.667 22.275 14.8777 21.8993 15.2527C21.5237 15.6277 21.3125 16.1367 21.3125 16.6669V30.0002C21.3125 30.5305 21.5236 31.0395 21.8993 31.4144C22.275 31.7894 22.7849 32.0001 23.3162 32.0001H29.9954C30.5268 32.0001 31.0367 31.7894 31.4123 31.4144C31.7879 31.0394 31.9991 30.5305 31.9991 30.0002V16.6669C31.9991 16.1366 31.788 15.6276 31.4123 15.2527C31.0366 14.8778 30.5267 14.667 29.9954 14.667H29.9954ZM26.6558 30.6669C26.3856 30.6669 26.142 30.5044 26.0388 30.2553C25.9354 30.0062 25.9923 29.7196 26.1834 29.5288C26.3746 29.338 26.6617 29.2812 26.9113 29.3845C27.1609 29.4874 27.3237 29.7306 27.3237 30.0002C27.3237 30.177 27.2533 30.3467 27.1281 30.4717C27.0028 30.5967 26.8329 30.6669 26.6558 30.6669ZM29.9954 25.3336C29.9954 25.8639 29.7842 26.3729 29.4085 26.7478C29.0328 27.1228 28.5229 27.3335 27.9916 27.3335H25.32C24.7886 27.3335 24.2787 27.1228 23.9031 26.7478C23.5274 26.3728 23.3162 25.8639 23.3162 25.3336V22.0003C23.3162 21.6321 23.6153 21.3336 23.9842 21.3336H24.7389C24.7389 20.65 25.1044 20.0184 25.6975 19.6765C26.2906 19.3348 27.0211 19.3348 27.6142 19.6765C28.2073 20.0184 28.5729 20.65 28.5729 21.3336H29.3275C29.5047 21.3336 29.6746 21.4039 29.7999 21.5289C29.9251 21.6539 29.9955 21.8235 29.9955 22.0003L29.9954 25.3336Z" fill="#016BE3" fill-opacity="0.45"/>
<path d="M27.4117 21.3338C27.4117 20.9178 27.0739 20.5806 26.657 20.5806C26.2402 20.5806 25.9023 20.9178 25.9023 21.3338V21.4204H27.4117L27.4117 21.3338Z" fill="#016BE3" fill-opacity="0.45"/>
<path d="M24.6523 25.3332C24.6523 25.5099 24.7227 25.6796 24.8479 25.8046C24.9732 25.9296 25.1431 25.9998 25.3203 25.9998H27.9919C28.1691 25.9998 28.339 25.9296 28.4642 25.8046C28.5895 25.6796 28.6599 25.5099 28.6599 25.3332V22.6665H24.6523V25.3332Z" fill="#016BE3" fill-opacity="0.45"/>
</svg>
