<svg width="35" height="35" viewBox="0 0 35 35" fill="none" xmlns="http://www.w3.org/2000/svg">
<path d="M13.2617 29.9195H15.5198V25.9679H18.9069V29.9195H21.165V16.9355H13.2617V29.9195ZM18.0601 18.6291H19.1892V19.7581H18.0601V18.6291ZM18.0601 20.8872H19.1892V22.0162H18.0601V20.8872ZM18.0601 23.1453H19.1892V24.2743H18.0601V23.1453ZM15.2375 18.6291H16.3666V19.7581H15.2375V18.6291ZM15.2375 20.8872H16.3666V22.0162H15.2375V20.8872ZM15.2375 23.1453H16.3666V24.2743H15.2375V23.1453Z" fill="#016BE3" fill-opacity="0.58"/>
<path d="M20.0332 13.5481V15.8062H21.1622V13.8304L22.1654 13.0779C22.3752 13.1996 22.6132 13.2644 22.8558 13.2659C23.1534 13.2693 23.4447 13.1796 23.6888 13.0093C23.9329 12.839 24.1177 12.5967 24.2174 12.3163C24.317 12.0358 24.3265 11.7312 24.2445 11.4451C24.1626 11.159 23.9932 10.9056 23.7602 10.7205C23.5271 10.5353 23.242 10.4277 22.9448 10.4125C22.6476 10.3973 22.353 10.4755 22.1023 10.6359C21.8517 10.7964 21.6574 11.0312 21.5467 11.3075C21.4361 11.5838 21.4146 11.8878 21.4851 12.1769L20.259 13.0965C20.1889 13.1491 20.132 13.2173 20.0928 13.2957C20.0536 13.3741 20.0332 13.4605 20.0332 13.5481Z" fill="#016BE3"/>
<path d="M30.1949 34.9997L34.1465 32.1771L30.1949 29.3545V31.048H0.275391V33.3061H30.1949V34.9997Z" fill="#016BE3" fill-opacity="0.58"/>
<path d="M17.7766 15.8065V10.8884C18.0738 10.7587 18.3172 10.5306 18.466 10.2425C18.6148 9.95447 18.6599 9.62394 18.5936 9.30655C18.5274 8.98916 18.3539 8.70425 18.1023 8.49974C17.8507 8.29523 17.5363 8.18359 17.2121 8.18359C16.8878 8.18359 16.5735 8.29523 16.3219 8.49974C16.0703 8.70425 15.8968 8.98916 15.8306 9.30655C15.7643 9.62394 15.8094 9.95447 15.9582 10.2425C16.107 10.5306 16.3504 10.7587 16.6476 10.8884V15.8065H17.7766Z" fill="#016BE3"/>
<path d="M11.5656 10.4439C11.1913 10.4439 10.8323 10.5926 10.5677 10.8573C10.303 11.1219 10.1543 11.4809 10.1543 11.8552C10.1543 12.2295 10.303 12.5885 10.5677 12.8531C10.8323 13.1178 11.1913 13.2665 11.5656 13.2665C11.8082 13.265 12.0461 13.2002 12.256 13.0785L13.2592 13.831V15.8068H14.3882V13.5488C14.3882 13.4611 14.3678 13.3747 14.3286 13.2963C14.2894 13.2179 14.2325 13.1497 14.1624 13.0971L12.9362 12.1775C12.9873 11.9705 12.9903 11.7545 12.9451 11.5461C12.8999 11.3377 12.8076 11.1424 12.6754 10.9751C12.5431 10.8079 12.3744 10.673 12.182 10.581C11.9897 10.4889 11.7788 10.442 11.5656 10.4439Z" fill="#016BE3"/>
<path d="M7.05078 29.9195H12.1315V20.8872L7.05078 22.5808V29.9195ZM10.1556 24.2743H11.2847V25.4034H10.1556V24.2743ZM10.1556 27.0969H11.2847V28.226H10.1556V27.0969ZM7.89756 24.2743H9.0266V25.4034H7.89756V24.2743ZM7.89756 27.0969H9.0266V28.226H7.89756V27.0969Z" fill="#016BE3" fill-opacity="0.58"/>
<path d="M22.293 29.9195H27.3736V22.5808L22.293 20.8872V29.9195ZM25.3978 24.2743H26.5269V25.4034H25.3978V24.2743ZM25.3978 27.0969H26.5269V28.226H25.3978V27.0969ZM23.1397 24.2743H24.2688V25.4034H23.1397V24.2743ZM23.1397 27.0969H24.2688V28.226H23.1397V27.0969Z" fill="#016BE3" fill-opacity="0.58"/>
<path d="M1.77357 20.063L0.402921 20.5084C0.256058 20.5563 0.134142 20.6604 0.0638833 20.7979C-0.00637562 20.9355 -0.0192499 21.0953 0.0280808 21.2423L1.1097 24.573C1.1574 24.7199 1.26151 24.8419 1.39913 24.9121C1.53676 24.9822 1.69662 24.9949 1.84357 24.9472L3.21818 24.5001C3.34825 24.4587 3.48874 24.4643 3.61513 24.5159C3.74152 24.5674 3.84578 24.6618 3.90971 24.7824C4.47009 25.8003 5.14533 26.7505 5.92222 27.6146V21.069C5.40658 19.4395 5.24957 17.7177 5.46198 16.0218C5.67439 14.3259 6.25118 12.696 7.15278 11.244C8.05438 9.79196 9.25944 8.55219 10.6853 7.60974C12.1111 6.66728 13.724 6.04445 15.4131 5.78399C17.1023 5.52352 18.8279 5.63159 20.4714 6.10076C22.1149 6.56994 23.6374 7.38913 24.9345 8.50211C26.2316 9.61509 27.2726 10.9955 27.986 12.5487C28.6994 14.1018 29.0683 15.7909 29.0675 17.5001C29.0645 18.7117 28.8741 19.9156 28.503 21.069V27.6174C29.2801 26.7525 29.9553 25.8013 30.5155 24.7824C30.5794 24.6618 30.6837 24.5674 30.8101 24.5159C30.9365 24.4643 31.077 24.4587 31.207 24.5001L32.5805 24.9461C32.7275 24.9938 32.8873 24.9811 33.0249 24.9109C33.1626 24.8407 33.2667 24.7188 33.3144 24.5718L34.396 21.2412C34.4433 21.0941 34.4305 20.9343 34.3602 20.7968C34.2899 20.6592 34.168 20.5551 34.0212 20.5073L32.6505 20.0619C32.5208 20.0189 32.4103 19.9318 32.3381 19.8158C32.2659 19.6998 32.2367 19.5621 32.2553 19.4268C32.4202 18.1469 32.4202 16.8511 32.2553 15.5711C32.2367 15.4358 32.2659 15.2982 32.3381 15.1822C32.4103 15.0661 32.5208 14.9791 32.6505 14.936L34.0212 14.4906C34.1681 14.4429 34.2901 14.3388 34.3604 14.2013C34.4307 14.0637 34.4435 13.9038 34.396 13.7568L33.3144 10.4261C33.2667 10.2792 33.1626 10.1572 33.0249 10.087C32.8873 10.0168 32.7275 10.0042 32.5805 10.0518L31.207 10.4978C31.077 10.5392 30.9365 10.5337 30.8101 10.4821C30.6837 10.4305 30.5794 10.3362 30.5155 10.2155C29.8955 9.08336 29.1338 8.03471 28.249 7.09488C28.1543 6.99663 28.0972 6.86832 28.0874 6.73228C28.0776 6.59624 28.1158 6.46107 28.1953 6.35028L29.0421 5.18229C29.0871 5.12031 29.1195 5.05008 29.1373 4.9756C29.1552 4.90112 29.1582 4.82385 29.1462 4.74821C29.1342 4.67256 29.1074 4.60002 29.0674 4.53473C29.0273 4.46944 28.9748 4.41268 28.9128 4.36768L26.0829 2.31453C26.0209 2.26952 25.9507 2.23716 25.8762 2.2193C25.8017 2.20144 25.7245 2.19842 25.6488 2.21043C25.5732 2.22243 25.5006 2.24922 25.4353 2.28926C25.37 2.32931 25.3133 2.38182 25.2683 2.4438L24.4198 3.61292C24.3391 3.72304 24.2222 3.80129 24.0896 3.834C23.957 3.86671 23.8171 3.8518 23.6944 3.79187C22.5285 3.23809 21.2962 2.83643 20.0279 2.59679C19.8934 2.57324 19.7714 2.50319 19.6833 2.39887C19.5952 2.29456 19.5465 2.16261 19.5458 2.02606V0.583148C19.5458 0.428488 19.4843 0.280162 19.375 0.1708C19.2656 0.0614386 19.1173 0 18.9626 0H15.4626C15.3079 0 15.1596 0.0614386 15.0502 0.1708C14.9409 0.280162 14.8794 0.428488 14.8794 0.583148V2.0238C14.8792 2.16074 14.8308 2.29323 14.7426 2.39801C14.6545 2.50279 14.5322 2.57317 14.3973 2.59679C13.1281 2.83602 11.8948 3.23749 10.728 3.79131C10.6056 3.85054 10.4664 3.86512 10.3345 3.83255C10.2025 3.79997 10.0861 3.72228 10.0054 3.61292L9.15861 2.4455C9.11374 2.38314 9.05698 2.33027 8.99161 2.28992C8.92624 2.24957 8.85354 2.22253 8.77768 2.21036C8.70183 2.19819 8.62432 2.20113 8.54961 2.219C8.47489 2.23688 8.40445 2.26934 8.34232 2.31453L5.51069 4.37107C5.44871 4.41606 5.39619 4.47283 5.35615 4.53812C5.31611 4.60341 5.28932 4.67595 5.27731 4.75159C5.26531 4.82724 5.26832 4.90451 5.28619 4.97899C5.30405 5.05347 5.33641 5.1237 5.38141 5.18567L6.22819 6.35366C6.30738 6.46477 6.3451 6.60013 6.33478 6.73618C6.32447 6.87223 6.26677 7.00036 6.17174 7.09826C5.28854 8.03802 4.52844 9.08627 3.90971 10.2178C3.84578 10.3384 3.74152 10.4327 3.61513 10.4843C3.48874 10.5359 3.34825 10.5415 3.21818 10.5001L1.8447 10.0541C1.69775 10.0064 1.53789 10.0191 1.40026 10.0893C1.26264 10.1594 1.15853 10.2814 1.11083 10.4284L0.0292098 13.759C-0.0182768 13.9061 -0.00547469 14.0659 0.064805 14.2035C0.135085 14.3411 0.257097 14.4452 0.40405 14.4929L1.7747 14.9383C1.90438 14.9813 2.0149 15.0684 2.08709 15.1844C2.15927 15.3004 2.18856 15.438 2.16987 15.5734C2.00503 16.8533 2.00503 18.1491 2.16987 19.4291C2.18821 19.5644 2.15863 19.7018 2.08625 19.8176C2.01386 19.9334 1.90325 20.0202 1.77357 20.063Z" fill="#016BE3"/>
</svg>
