<svg width="36" height="36" viewBox="0 0 36 36" fill="none" xmlns="http://www.w3.org/2000/svg">
<path d="M15.8408 31.3047H20.1607C20.5128 30.6082 20.8102 29.7396 21.9137 29.7396H34.4358V10.9568C34.4358 10.5417 34.271 10.1434 33.9772 9.84996C33.6837 9.55648 33.2857 9.39166 32.8706 9.39166H25.9834C26.1666 10.3628 26.0321 11.3671 25.6 12.256L26.8992 13.5551H26.8989C27.6048 14.2655 27.9282 15.2709 27.7689 16.2596C27.6096 17.2485 26.9867 18.1014 26.0932 18.554C25.1997 19.0065 24.1437 19.0044 23.2522 18.5482C21.599 18.9468 20.0161 19.5932 18.5565 20.4655C22.3521 23.416 22.8453 23.5961 22.9079 24.5274C22.9705 25.4587 22.5166 25.6544 20.2315 27.9396H20.2312C19.9993 28.1728 19.6998 28.3269 19.3754 28.3803C19.0507 28.4338 18.7177 28.3835 18.4234 28.237C11.5053 24.7464 12.3737 25.1065 11.9356 25.1065H11.9354C10.4827 25.1065 9.08912 24.5292 8.0617 23.502C7.03428 22.4746 6.45725 21.081 6.45725 19.6281C6.45725 16.9907 8.02239 15.8246 9.72854 14.1028C10.0008 13.8232 10.3713 13.6602 10.7615 13.6489C11.5911 12.3117 12.2632 10.8832 12.765 9.3916H3.13075C2.71568 9.3916 2.31766 9.55642 2.02417 9.8499C1.73043 10.1434 1.56561 10.5416 1.56561 10.9567V29.7395H14.0877C15.1676 29.7395 15.4728 30.577 15.8407 31.3047L15.8408 31.3047Z" fill="#016BE3"/>
<path d="M21.9133 31.3042L21.1306 32.8693L14.8698 32.8696L14.0871 31.3045L0 31.3042V32.8696C0 33.6997 0.329645 34.4961 0.916868 35.083C1.50383 35.6703 2.30015 35.9999 3.13029 35.9999H32.8701C33.7003 35.9999 34.4966 35.6703 35.0836 35.083C35.6708 34.4961 36.0004 33.6997 36.0004 32.8696V31.3042H21.9133Z" fill="#016BE3" fill-opacity="0.58"/>
<path d="M23.5802 16.8736C23.9759 17.2748 24.5555 17.4346 25.1008 17.2926C25.6461 17.1506 26.0743 16.7284 26.2239 16.1852C26.3735 15.642 26.2221 15.06 25.8264 14.6588L16.9435 5.80744C16.5478 5.41177 15.9711 5.25717 15.4307 5.40207C14.8901 5.54698 14.4682 5.96885 14.3233 6.50945C14.1784 7.04977 14.333 7.62649 14.7287 8.0222L23.5802 16.8736Z" fill="#016BE3"/>
<path d="M17.2567 19.4009C18.689 18.5278 20.2209 17.8289 21.8193 17.3193L14.2747 9.78271C13.7703 11.3817 13.0738 12.9138 12.2009 14.3453L17.2567 19.4009Z" fill="#016BE3"/>
<path d="M10.8552 15.2134L9.196 16.8726C8.4353 17.6555 8.03623 18.7207 8.0952 19.8105C8.15416 20.9006 8.66565 21.9166 9.50625 22.613C10.3469 23.3092 11.4401 23.6229 12.522 23.478C14.1265 23.2432 14.8308 22.2493 16.3569 20.7232L10.8552 15.2134Z" fill="#016BE3"/>
<path d="M21.3661 24.6209L17.6331 21.7173C15.927 23.4155 15.4574 23.9946 14.5026 24.4878L19.1514 26.8357L21.3661 24.6209Z" fill="#016BE3"/>
<path d="M20.5593 7.20827L24.3864 11.0432C24.6752 9.96411 24.367 8.81326 23.5783 8.02271C22.7892 7.23215 21.6389 6.9219 20.5593 7.20827Z" fill="#016BE3"/>
<path d="M26.6094 5.4782C27.0399 5.4782 26.9458 5.4782 29.513 2.90341C29.8198 2.59657 29.8198 2.09897 29.513 1.79214C29.2061 1.4853 28.7086 1.4853 28.4017 1.79214L26.0539 4.13999C25.828 4.36403 25.7601 4.70206 25.8822 4.99582C26.0041 5.28956 26.2915 5.48006 26.6094 5.47823L26.6094 5.4782Z" fill="#016BE3"/>
<path d="M22.6958 3.91299V0.782437C22.6958 0.350339 22.3454 0 21.9131 0C21.481 0 21.1306 0.350346 21.1306 0.782437V3.91299C21.1306 4.34509 21.481 4.6957 21.9131 4.6957C22.3454 4.6957 22.6958 4.34509 22.6958 3.91299Z" fill="#016BE3"/>
</svg>
