<svg width="28" height="28" viewBox="0 0 28 28" fill="none" xmlns="http://www.w3.org/2000/svg">
<path d="M12.3203 24.3475H15.6802C15.9541 23.8058 16.1854 23.1302 17.0436 23.1302H26.7829V8.52157C26.7829 8.19874 26.6547 7.88896 26.4263 7.6607C26.198 7.43244 25.8884 7.30425 25.5656 7.30425H20.2089C20.3514 8.05957 20.2468 8.84071 19.9107 9.53202L20.9212 10.5425H20.921C21.47 11.095 21.7215 11.877 21.5976 12.6459C21.4737 13.4151 20.9893 14.0784 20.2943 14.4304C19.5994 14.7824 18.7781 14.7807 18.0847 14.4259C16.7988 14.7359 15.5677 15.2387 14.4325 15.9172C17.3846 18.212 17.7682 18.352 17.8169 19.0763C17.8656 19.8007 17.5126 19.9529 15.7352 21.7303H15.735C15.5547 21.9116 15.3217 22.0315 15.0694 22.073C14.8169 22.1146 14.5578 22.0755 14.329 21.9616C8.94832 19.2467 9.62376 19.5267 9.28301 19.5267H9.28281C8.15293 19.5267 7.06907 19.0777 6.26998 18.2788C5.47089 17.4797 5.02209 16.3959 5.02209 15.2658C5.02209 13.2145 6.23941 12.3076 7.56639 10.9684C7.77815 10.7509 8.06632 10.6242 8.36977 10.6154C9.015 9.57538 9.53778 8.46428 9.92804 7.3042H2.43484C2.11202 7.3042 1.80244 7.43239 1.57418 7.66065C1.34572 7.88891 1.21753 8.19867 1.21753 8.52152V23.1302H10.9568C11.7967 23.1302 12.0341 23.7815 12.3203 24.3475L12.3203 24.3475Z" fill="#016BE3"/>
<path d="M17.0435 24.3474L16.4347 25.5647L11.5653 25.5649L10.9565 24.3476L0 24.3474V25.5649C0 26.2106 0.256387 26.8299 0.713111 27.2865C1.16963 27.7432 1.78899 27.9996 2.43464 27.9996H25.5654C26.211 27.9996 26.8304 27.7432 27.2869 27.2865C27.7436 26.8299 28 26.2106 28 25.5649V24.3474H17.0435Z" fill="#016BE3" fill-opacity="0.58"/>
<path d="M18.3397 13.1237C18.6474 13.4357 19.0982 13.56 19.5223 13.4495C19.9465 13.3391 20.2795 13.0107 20.3958 12.5883C20.5122 12.1658 20.3944 11.7131 20.0867 11.4011L13.1778 4.51676C12.8701 4.20902 12.4215 4.08877 12.0012 4.20147C11.5808 4.31418 11.2526 4.6423 11.14 5.06276C11.0272 5.483 11.1475 5.93156 11.4552 6.23933L18.3397 13.1237Z" fill="#016BE3"/>
<path d="M13.4215 15.0894C14.5355 14.4103 15.7269 13.8667 16.9701 13.4704L11.1022 7.60864C10.7098 8.85226 10.1681 10.0439 9.48926 11.1573L13.4215 15.0894Z" fill="#016BE3"/>
<path d="M8.44314 11.8325L7.15267 13.123C6.56102 13.732 6.25064 14.5604 6.2965 15.408C6.34236 16.2559 6.74018 17.046 7.39398 17.5877C8.04777 18.1292 8.89804 18.3732 9.73955 18.2605C10.9874 18.0779 11.5353 17.3049 12.7222 16.1179L8.44314 11.8325Z" fill="#016BE3"/>
<path d="M16.6185 19.1495L13.7151 16.8911C12.3881 18.2119 12.0229 18.6624 11.2803 19.0459L14.896 20.872L16.6185 19.1495Z" fill="#016BE3"/>
<path d="M15.9902 5.60614L18.9668 8.58881C19.1914 7.74954 18.9517 6.85445 18.3383 6.23958C17.7246 5.62471 16.8299 5.38341 15.9902 5.60614Z" fill="#016BE3"/>
<path d="M20.6959 4.26073C21.0308 4.26073 20.9576 4.26073 22.9543 2.25814C23.1929 2.01949 23.1929 1.63248 22.9543 1.39383C22.7156 1.15518 22.3286 1.15518 22.09 1.39383L20.2639 3.21992C20.0882 3.39417 20.0354 3.65708 20.1304 3.88555C20.2252 4.11401 20.4487 4.26218 20.6959 4.26075L20.6959 4.26073Z" fill="#016BE3"/>
<path d="M17.6519 3.0434V0.608555C17.6519 0.272483 17.3794 0 17.0431 0C16.7071 0 16.4346 0.272488 16.4346 0.608555V3.0434C16.4346 3.37947 16.7071 3.65216 17.0431 3.65216C17.3794 3.65216 17.6519 3.37947 17.6519 3.0434Z" fill="#016BE3"/>
</svg>
