<svg width="28" height="28" viewBox="0 0 28 28" fill="none" xmlns="http://www.w3.org/2000/svg">
<path d="M0.531278 16.9166C0.530495 17.6577 0.768181 18.3796 1.20908 18.9757L1.27326 19.0632H1.27352C1.36641 19.1814 1.46607 19.2944 1.57148 19.4015L1.63566 19.4598H1.63592C1.72984 19.5496 1.82925 19.6335 1.93387 19.7108L2.03328 19.7866C2.15564 19.8692 2.28245 19.9452 2.41316 20.014L2.51256 20.0666C2.63519 20.1267 2.76199 20.1772 2.89244 20.2181L2.96837 20.2473C3.11891 20.2965 3.27336 20.3338 3.42991 20.3582H3.54106C3.70517 20.3895 3.8711 20.409 4.03782 20.4166H17.4797V16.3333H0.53125L0.531278 16.9166ZM12.8043 17.4999C13.0407 17.4999 13.2538 17.6421 13.3441 17.86C13.4346 18.078 13.3848 18.3288 13.2176 18.4957C13.0503 18.6627 12.7991 18.7124 12.5807 18.622C12.3623 18.5319 12.2199 18.3192 12.2199 18.0832C12.2199 17.7611 12.4815 17.4999 12.8043 17.4999Z" fill="#016BE3"/>
<path d="M25.0772 11.667V8.42957C24.6507 8.64181 24.1805 8.7517 23.7039 8.7504H23.3649C22.3526 8.7504 21.4032 8.26135 20.8167 7.43788C20.7374 7.55142 20.6495 7.65845 20.5537 7.75871C19.896 8.4655 18.9466 8.82744 17.984 8.7381C17.0218 8.64904 16.1553 8.11909 15.6388 7.30371C14.9787 8.20811 13.9254 8.74304 12.8042 8.74304C11.6831 8.74304 10.6298 8.20815 9.96973 7.30371C9.45313 8.11904 8.58667 8.64904 7.62446 8.7381C6.66199 8.82742 5.71254 8.46545 5.05478 7.75871C4.95903 7.65845 4.8711 7.55142 4.79179 7.43788C4.20527 8.26134 3.25584 8.7504 2.24354 8.7504H1.90463C1.42795 8.75171 0.957783 8.64181 0.53125 8.42957V15.1669H17.4797V14.5835C17.4797 13.8101 17.7876 13.0682 18.3354 12.521C18.8836 11.9741 19.6269 11.6669 20.4018 11.6669L25.0772 11.667Z" fill="#016BE3"/>
<path d="M16.4634 21.5833H9.15232L8.78418 24.4999H7.54512C7.22238 24.4999 6.96069 24.7611 6.96069 25.0832C6.96069 25.4054 7.22238 25.6666 7.54512 25.6666H17.4804V24.4999H16.8258L16.4634 21.5833Z" fill="#016BE3"/>
<path d="M1.90513 7.58378H2.24404C2.74081 7.58326 3.2188 7.39446 3.58121 7.0554C3.94361 6.7166 4.16356 6.25253 4.19617 5.758V5.41973L4.58178 0.000488281H2.86944C2.49426 0.00179034 2.12952 0.123407 1.82869 0.34684C1.52786 0.570538 1.30688 0.884597 1.19808 1.2429L0.0292214 5.13948C0.0114802 5.25927 0.0015656 5.38011 0 5.5012V5.62958C0.00260909 6.13792 0.202727 6.62565 0.55782 6.98998C0.913173 7.35429 1.39612 7.56705 1.90515 7.58372L1.90513 7.58378Z" fill="#016BE3"/>
<path d="M7.34116 7.58384C7.86036 7.58384 8.3584 7.37786 8.72556 7.01145C9.09265 6.64505 9.29903 6.14792 9.29903 5.62966V0.000488281H5.75151L5.44181 4.7312L5.38911 5.50126C5.34893 6.04058 5.53757 6.57205 5.90936 6.96558C6.27985 7.36116 6.79849 7.58537 7.34124 7.58381L7.34116 7.58384Z" fill="#016BE3"/>
<path d="M12.8052 7.58378C13.4252 7.58378 14.0198 7.33795 14.4583 6.90045C14.8967 6.46269 15.143 5.86919 15.143 5.25046V0.000488281H10.4675V5.25046C10.4675 5.8692 10.7138 6.46272 11.1521 6.90045C11.5907 7.33795 12.1853 7.58378 12.8052 7.58378Z" fill="#016BE3"/>
<path d="M18.2692 7.58374C18.8119 7.5853 19.3306 7.36109 19.7011 6.96552C20.0729 6.57203 20.2615 6.04052 20.2213 5.50119L20.0809 3.36634L19.8589 0.000488281H16.3114V5.62966C16.3114 6.14788 16.5178 6.64499 16.8849 7.01145C17.252 7.37785 17.75 7.58384 18.2693 7.58384L18.2692 7.58374Z" fill="#016BE3"/>
<path d="M21.4138 5.7576C21.4464 6.25213 21.6663 6.71619 22.0287 7.05499C22.3911 7.39405 22.8691 7.58285 23.3659 7.58337H23.7048C24.0787 7.58311 24.4445 7.47348 24.7568 7.26827C25.3201 6.9128 25.6619 6.29434 25.6626 5.62921V5.50082C25.6707 5.38051 25.6707 5.25968 25.6626 5.13911L24.4353 1.24253C24.3255 0.880289 24.1008 0.563598 23.7953 0.339666C23.4898 0.115447 23.1196 -0.0035589 22.7405 8.10798e-05H20.9872L21.3496 5.41932L21.4138 5.7576Z" fill="#016BE3"/>
<path d="M26.2468 12.8337H25.3235L24.9086 13.2478H24.9084C24.7983 13.3572 24.6488 13.4179 24.4935 13.4171H22.1558C22.0006 13.4179 21.8511 13.3572 21.741 13.2478L21.3259 12.8337H20.4025C19.9376 12.8337 19.4914 13.0181 19.1628 13.3462C18.8341 13.6744 18.6493 14.1197 18.6493 14.5837V26.2503C18.6493 26.7144 18.834 27.1597 19.1628 27.4878C19.4915 27.8158 19.9377 28.0003 20.4025 28.0003H26.2468C26.7118 28.0003 27.1579 27.8159 27.4866 27.4878C27.8153 27.1596 28.0001 26.7143 28.0001 26.2503V14.5837C28.0001 14.1196 27.8154 13.6743 27.4866 13.3462C27.1579 13.0182 26.7117 12.8337 26.2468 12.8337H26.2468ZM23.3247 26.8337C23.0883 26.8337 22.8751 26.6915 22.7848 26.4735C22.6943 26.2555 22.7441 26.0048 22.9114 25.8378C23.0786 25.6709 23.3299 25.6212 23.5482 25.7115C23.7666 25.8016 23.9091 26.0144 23.9091 26.2503C23.9091 26.405 23.8475 26.5535 23.7379 26.6628C23.6283 26.7722 23.4796 26.8337 23.3247 26.8337ZM26.2468 22.167C26.2468 22.6311 26.0621 23.0764 25.7333 23.4045C25.4046 23.7325 24.9584 23.917 24.4935 23.917H22.1558C21.6909 23.917 21.2447 23.7326 20.916 23.4045C20.5874 23.0764 20.4026 22.631 20.4026 22.167V19.2504C20.4026 18.9282 20.6643 18.667 20.987 18.667H21.6474C21.6474 18.0689 21.9672 17.5162 22.4862 17.2171C23.0051 16.9181 23.6444 16.9181 24.1633 17.2171C24.6822 17.5163 25.0021 18.0688 25.0021 18.667H25.6625C25.8174 18.667 25.9662 18.7285 26.0757 18.8379C26.1853 18.9472 26.2469 19.0957 26.2469 19.2504L26.2468 22.167Z" fill="#016BE3" fill-opacity="0.45"/>
<path d="M23.9857 18.6672C23.9857 18.3031 23.6901 18.0081 23.3254 18.0081C22.9606 18.0081 22.665 18.3031 22.665 18.6672V18.7429H23.9857L23.9857 18.6672Z" fill="#016BE3" fill-opacity="0.45"/>
<path d="M21.5713 22.1666C21.5713 22.3213 21.6329 22.4697 21.7424 22.5791C21.852 22.6884 22.0007 22.7499 22.1557 22.7499H24.4934C24.6484 22.7499 24.7971 22.6884 24.9067 22.5791C25.0163 22.4697 25.0779 22.3213 25.0779 22.1666V19.8333H21.5713V22.1666Z" fill="#016BE3" fill-opacity="0.45"/>
</svg>
