<svg width="26" height="26" viewBox="0 0 26 26" fill="none" xmlns="http://www.w3.org/2000/svg">
<path d="M7.64329 2.33929C7.64329 3.07888 7.0436 3.67857 6.30401 3.67857C5.56442 3.67857 4.96472 3.07888 4.96472 2.33929C4.96472 1.59969 5.56442 1 6.30401 1C7.0436 1 7.64329 1.59969 7.64329 2.33929Z" fill="#016BE3"/>
<path d="M13.4922 3.28544H14.1047L13.9821 2.68534C13.9354 2.45682 13.9354 2.22117 13.9821 1.99268L14.1047 1.39258H13.4922H8.49219H7.87969L8.00231 1.99268C8.049 2.22119 8.049 2.45685 8.00231 2.68533L7.87968 3.28544H8.49219H13.4922Z" fill="#016BE3" stroke="#016BE3"/>
<path d="M23.7143 22.4287H2.28569C1.64773 22.4287 1.05819 22.7691 0.739158 23.3216C0.420281 23.874 0.420281 24.5548 0.739158 25.1073C1.05823 25.6597 1.64778 26.0001 2.28569 26.0001H23.7143C24.3522 26.0001 24.9418 25.6597 25.2608 25.1073C25.5797 24.5548 25.5797 23.874 25.2608 23.3216C24.9417 22.7691 24.3522 22.4287 23.7143 22.4287ZM2.73212 25.5537C2.37697 25.5537 2.03615 25.4126 1.78508 25.1615C1.53401 24.9104 1.39286 24.5696 1.39286 24.2145C1.39286 23.8593 1.53396 23.5185 1.78508 23.2674C2.03619 23.0163 2.37701 22.8752 2.73212 22.8752C3.08722 22.8752 3.42809 23.0163 3.67916 23.2674C3.93023 23.5185 4.07138 23.8593 4.07138 24.2145C4.07138 24.5696 3.93027 24.9104 3.67916 25.1615C3.42804 25.4126 3.08722 25.5537 2.73212 25.5537ZM5.85712 24.6609H4.51783V23.768H5.85712V24.6609ZM7.64283 25.5537C7.28768 25.5537 6.94686 25.4126 6.69579 25.1615C6.44472 24.9104 6.30357 24.5696 6.30357 24.2145C6.30357 23.8593 6.44467 23.5185 6.69579 23.2674C6.94691 23.0163 7.28773 22.8752 7.64283 22.8752C7.99793 22.8752 8.3388 23.0163 8.58987 23.2674C8.84094 23.5185 8.98209 23.8593 8.98209 24.2145C8.98209 24.5696 8.84099 24.9104 8.58987 25.1615C8.33876 25.4126 7.99793 25.5537 7.64283 25.5537ZM11.2143 24.6609H9.42854V23.768H11.2143V24.6609ZM13 25.5537C12.6448 25.5537 12.304 25.4126 12.0529 25.1615C11.8019 24.9104 11.6607 24.5696 11.6607 24.2145C11.6607 23.8593 11.8018 23.5185 12.0529 23.2674C12.304 23.0163 12.6449 22.8752 13 22.8752C13.3551 22.8752 13.6959 23.0163 13.947 23.2674C14.1981 23.5185 14.3392 23.8593 14.3392 24.2145C14.3392 24.5696 14.1981 24.9104 13.947 25.1615C13.6959 25.4126 13.3551 25.5537 13 25.5537ZM16.5714 24.6609H14.7857V23.768H16.5714V24.6609ZM18.3571 25.5537C18.002 25.5537 17.6611 25.4126 17.4101 25.1615C17.159 24.9104 17.0179 24.5696 17.0179 24.2145C17.0179 23.8593 17.159 23.5185 17.4101 23.2674C17.6612 23.0163 18.002 22.8752 18.3571 22.8752C18.7122 22.8752 19.0531 23.0163 19.3042 23.2674C19.5552 23.5185 19.6964 23.8593 19.6964 24.2145C19.6964 24.5696 19.5553 24.9104 19.3042 25.1615C19.053 25.4126 18.7122 25.5537 18.3571 25.5537ZM21.4821 24.6609H20.1428V23.768H21.4821V24.6609ZM23.2678 25.5537C22.9127 25.5537 22.5719 25.4126 22.3208 25.1615C22.0697 24.9104 21.9286 24.5696 21.9286 24.2145C21.9286 23.8593 22.0697 23.5185 22.3208 23.2674C22.5719 23.0163 22.9127 22.8752 23.2678 22.8752C23.6229 22.8752 23.9638 23.0163 24.2149 23.2674C24.4659 23.5185 24.6071 23.8593 24.6071 24.2145C24.6071 24.5696 24.466 24.9104 24.2149 25.1615C23.9638 25.4126 23.6229 25.5537 23.2678 25.5537Z" fill="#016BE3"/>
<path d="M17.0183 2.33929C17.0183 3.07888 16.4186 3.67857 15.679 3.67857C14.9394 3.67857 14.3397 3.07888 14.3397 2.33929C14.3397 1.59969 14.9394 1 15.679 1C16.4186 1 17.0183 1.59969 17.0183 2.33929Z" fill="#016BE3"/>
<path d="M3.17969 16.1787V21.5359H9.42969V16.1787H7.64397V18.8573C7.64477 19.0123 7.56505 19.1568 7.43332 19.2387C7.30158 19.3207 7.13676 19.3284 6.99805 19.2591L6.30468 18.9099L5.61132 19.2567V19.2569C5.473 19.326 5.30858 19.3187 5.17704 19.2371C5.04531 19.1558 4.96539 19.0119 4.96539 18.8573V16.1787L3.17969 16.1787Z" fill="#016BE3" fill-opacity="0.58"/>
<path d="M3.17814 24.214C3.17814 24.4605 2.97824 24.6604 2.73171 24.6604C2.48518 24.6604 2.28528 24.4605 2.28528 24.214C2.28528 23.9675 2.48518 23.7676 2.73171 23.7676C2.97824 23.7676 3.17814 23.9675 3.17814 24.214Z" fill="#016BE3"/>
<path d="M6.5014 18.0113L6.74833 18.1348V16.1787H5.85547V18.135L6.1024 18.0115V18.0113C6.22795 17.9485 6.37584 17.9485 6.50139 18.0113L6.5014 18.0113Z" fill="#016BE3" fill-opacity="0.58"/>
<path d="M8.08817 24.214C8.08817 24.4605 7.88827 24.6604 7.64174 24.6604C7.39521 24.6604 7.19531 24.4605 7.19531 24.214C7.19531 23.9675 7.39521 23.7676 7.64174 23.7676C7.88827 23.7676 8.08817 23.9675 8.08817 24.214Z" fill="#016BE3"/>
<path d="M18.8031 24.214C18.8031 24.4605 18.6032 24.6604 18.3567 24.6604C18.1102 24.6604 17.9103 24.4605 17.9103 24.214C17.9103 23.9675 18.1102 23.7676 18.3567 23.7676C18.6032 23.7676 18.8031 23.9675 18.8031 24.214Z" fill="#016BE3"/>
<path d="M13.4475 24.214C13.4475 24.4605 13.2476 24.6604 13.0011 24.6604C12.7546 24.6604 12.5547 24.4605 12.5547 24.214C12.5547 23.9675 12.7546 23.7676 13.0011 23.7676C13.2476 23.7676 13.4475 23.9675 13.4475 24.214Z" fill="#016BE3"/>
<path d="M23.7132 24.214C23.7132 24.4605 23.5133 24.6604 23.2667 24.6604C23.0202 24.6604 22.8203 24.4605 22.8203 24.214C22.8203 23.9675 23.0202 23.7676 23.2667 23.7676C23.5133 23.7676 23.7132 23.9675 23.7132 24.214Z" fill="#016BE3"/>
<path d="M7.19599 9.03544C7.19599 9.5285 6.7962 9.92829 6.30314 9.92829C5.81007 9.92829 5.41028 9.5285 5.41028 9.03544C5.41028 8.54237 5.81007 8.14258 6.30314 8.14258C6.7962 8.14258 7.19599 8.54237 7.19599 9.03544Z" fill="#016BE3" fill-opacity="0.58"/>
<path d="M23.2674 8.14258C22.6755 8.14258 22.1077 8.37775 21.689 8.79625C21.2704 9.21498 21.0353 9.78278 21.0353 10.3747C21.0353 10.9667 21.2705 11.5344 21.689 11.9532C22.1077 12.3717 22.6755 12.6069 23.2674 12.6069C23.8594 12.6069 24.4271 12.3717 24.8459 11.9532C25.2644 11.5345 25.4996 10.9667 25.4996 10.3747C25.4988 9.78299 25.2634 9.21559 24.8451 8.79707C24.4265 8.37874 23.8592 8.14339 23.2674 8.14258ZM23.2674 11.714C22.9123 11.714 22.5715 11.5729 22.3204 11.3218C22.0693 11.0707 21.9282 10.7298 21.9282 10.3747C21.9282 10.0196 22.0693 9.67878 22.3204 9.42771C22.5715 9.17663 22.9123 9.03549 23.2674 9.03549C23.6225 9.03549 23.9634 9.17659 24.2145 9.42771C24.4655 9.67882 24.6067 10.0196 24.6067 10.3747C24.6067 10.7298 24.4656 11.0707 24.2145 11.3218C23.9633 11.5729 23.6225 11.714 23.2674 11.714Z" fill="#016BE3"/>
<path d="M16.5939 3.80114L16.0579 4.13357L16.5039 4.57959L20.5807 8.65683L20.9563 9.03247L21.3085 8.63484C21.4762 8.44551 21.6704 8.28115 21.8851 8.14655L22.4168 7.81316L21.973 7.36939L17.8619 3.25826L17.4417 2.83803L17.0995 3.32396C16.9646 3.51564 16.7927 3.67784 16.5939 3.80114Z" fill="#016BE3" stroke="#016BE3"/>
<path d="M19.2517 18.4108C19.2517 18.2924 19.2046 18.1788 19.1209 18.0951C19.0372 18.0114 18.9236 17.9644 18.8052 17.9644H14.341C14.0944 17.9644 13.8945 18.1643 13.8945 18.4108V21.5358H19.2517V18.4108ZM16.5731 21.0894C16.218 21.0894 15.8771 20.9483 15.6261 20.6971C15.375 20.446 15.2338 20.1052 15.2338 19.7501C15.2338 19.395 15.3749 19.0541 15.6261 18.8031C15.8772 18.552 16.218 18.4108 16.5731 18.4108C16.9282 18.4108 17.2691 18.5519 17.5201 18.8031C17.7712 19.0542 17.9124 19.395 17.9124 19.7501C17.9124 20.1052 17.7713 20.4461 17.5201 20.6971C17.269 20.9482 16.9282 21.0894 16.5731 21.0894Z" fill="#016BE3"/>
<path d="M23.7132 10.3751C23.7132 10.6217 23.5133 10.8216 23.2667 10.8216C23.0202 10.8216 22.8203 10.6217 22.8203 10.3751C22.8203 10.1286 23.0202 9.92871 23.2667 9.92871C23.5133 9.92871 23.7132 10.1286 23.7132 10.3751Z" fill="#016BE3"/>
<path d="M6.74833 7.31344V4.52686C6.45376 4.58704 6.15001 4.58704 5.85547 4.52686V7.31385C6.14704 7.22935 6.45674 7.22935 6.74833 7.31385V7.31344Z" fill="#016BE3"/>
<path d="M20.519 12.0579L15.5777 17.0006L15.4071 17.1713H15.6484H18.1715H18.213L18.2423 17.142L22.0815 13.3027L22.0284 13.2496L22.0514 13.1405C21.5362 12.9129 21.0948 12.5469 20.7758 12.0839L20.8884 11.9713H20.6471H20.6471H20.4627L20.519 12.0579Z" fill="#016BE3" stroke="#016BE3" stroke-width="0.2"/>
<path d="M17.0179 19.7501C17.0179 19.9967 16.818 20.1966 16.5714 20.1966C16.3249 20.1966 16.125 19.9967 16.125 19.7501C16.125 19.5036 16.3249 19.3037 16.5714 19.3037C16.818 19.3037 17.0179 19.5036 17.0179 19.7501Z" fill="#016BE3"/>
<path d="M11.1155 10.9889L9.32978 8.75676C9.24507 8.65094 9.11673 8.58936 8.98121 8.58936H8.02539C8.10929 8.88113 8.10929 9.19043 8.02539 9.48221H8.76697L10.2147 11.2921L8.60753 13.6988C8.47081 13.9039 8.52602 14.1811 8.7313 14.318C8.93637 14.4547 9.2136 14.3993 9.35033 14.1943L11.136 11.5157C11.2449 11.3545 11.2365 11.1414 11.1155 10.989L11.1155 10.9889Z" fill="#016BE3" fill-opacity="0.58"/>
<path d="M4.58261 8.58941H3.6268C3.49128 8.58941 3.36293 8.65099 3.27823 8.75682L1.49251 10.989C1.37094 11.1408 1.36157 11.3539 1.46959 11.5157L3.25531 14.1943C3.39223 14.3993 3.66945 14.4547 3.87454 14.318C4.07962 14.1811 4.13503 13.9039 3.99831 13.6988L2.39116 11.2921L3.84106 9.48221H4.58264C4.49874 9.19044 4.49874 8.88114 4.58264 8.58936L4.58261 8.58941Z" fill="#016BE3" fill-opacity="0.58"/>
</svg>
