<svg width="30" height="23" viewBox="0 0 30 23" fill="none" xmlns="http://www.w3.org/2000/svg">
<path d="M29.7675 20.0081V21.2797C29.7675 22.2148 29.0794 22.9999 28.2604 22.9999H2.04812C1.22893 22.9999 0.541016 22.2145 0.541016 21.2797V20.0081H29.7675Z" fill="#016BE3" fill-opacity="0.58"/>
<path d="M27.9646 3.0669V16.044C27.9646 17.7268 26.7522 19.1106 25.2779 19.1106L20.7561 19.1103H5.19264C3.71831 19.1103 2.50592 17.7265 2.50592 16.0437V3.06664C2.50592 1.38383 3.71831 3.7039e-08 5.19264 3.7039e-08H25.2774C26.7519 -0.000261405 27.9646 1.38382 27.9646 3.0669ZM25.6381 15.8947V3.0669C25.6381 2.69285 25.4086 2.43119 25.0811 2.43119L15.0877 2.43093H5.22506C4.89735 2.43093 4.66811 2.73023 4.66811 3.06664V15.8945C4.66811 16.2685 4.93033 16.5302 5.22506 16.5302H10.107C10.7622 14.81 11.7453 13.5383 12.7937 12.7531C13.187 12.4164 13.5802 12.2295 13.9406 12.0426C14.301 11.8931 14.6942 11.8184 15.0547 11.8184C15.4807 11.8184 15.9066 11.9305 16.3653 12.155C16.7585 12.3046 17.1517 12.5665 17.5122 12.9029C18.5278 13.7258 19.4452 14.9598 20.0679 16.5679H25.0809C25.4084 16.5679 25.6381 16.2688 25.6381 15.8947Z" fill="#016BE3"/>
<path d="M15.0889 3.55273C16.8583 3.55273 18.3326 5.1982 18.3326 7.25507C18.3326 9.31194 16.8583 10.9574 15.0889 10.9574C13.3196 10.9574 11.878 9.31194 11.878 7.25507C11.8778 5.23581 13.2868 3.59034 15.0889 3.55273Z" fill="#016BE3"/>
</svg>
