<svg width="18" height="22" viewBox="0 0 18 22" fill="none" xmlns="http://www.w3.org/2000/svg">
<path d="M0.585008 11.2692L8.12246 5.28438L8.99769 6.38688L10.3778 2.89258L6.66179 3.44477L7.53702 4.54656L0 10.5309L0.585008 11.2692Z" fill="#016BE3" fill-opacity="0.58"/>
<path d="M12.3919 5.77365H16.45C16.8087 5.77365 17.098 5.48368 17.098 5.12564L17.0982 2.24557C17.0982 1.88619 16.8089 1.59572 16.4501 1.59572H16.0035V0.974122C16.0035 0.43597 15.5673 0 15.0287 0H13.8126C13.2744 0 12.8365 0.436163 12.8365 0.974122V1.59642L12.3918 1.59625C12.0319 1.59625 11.7407 1.88674 11.7407 2.2461V5.12618C11.7407 5.48436 12.0319 5.77366 12.3918 5.77366L12.3919 5.77365ZM13.4865 0.974341C13.4865 0.794908 13.6326 0.648203 13.8126 0.648203H15.0287C15.2075 0.648203 15.3518 0.795079 15.3518 0.974341V1.59664H13.4858V0.974341H13.4865Z" fill="#016BE3" fill-opacity="0.58"/>
<path d="M16.5766 20.4613V7.8143C16.5766 7.3101 16.1651 6.89673 15.6607 6.89673H13.1798C12.6756 6.89673 12.2623 7.3101 12.2623 7.8143V20.4613H11.2071V12.0849C11.2071 11.58 10.7944 11.1686 10.2895 11.1686H7.80928C7.30438 11.1686 6.8929 11.58 6.8929 12.0849V20.4613H5.83463V14.4879C5.83463 13.9849 5.42314 13.5715 4.91824 13.5715L2.43768 13.5713C1.93349 13.5713 1.52011 13.9847 1.52011 14.4877V20.4611L0.145996 20.4613V21.651H17.9538V20.4613H16.5766Z" fill="#016BE3"/>
</svg>
