<svg width="32" height="32" viewBox="0 0 32 32" fill="none" xmlns="http://www.w3.org/2000/svg">
<path d="M9.14341 1.71429C9.14341 2.66096 8.37581 3.42857 7.42913 3.42857C6.48245 3.42857 5.71484 2.66096 5.71484 1.71429C5.71484 0.767608 6.48245 0 7.42913 0C8.37581 0 9.14341 0.767608 9.14341 1.71429Z" fill="#016BE3"/>
<path d="M16.6305 2.78544H17.243L17.1203 2.18534C17.0568 1.87435 17.0568 1.55364 17.1203 1.24268L17.243 0.642578H16.6305H10.2305H9.61797L9.74059 1.24268C9.80414 1.55367 9.80414 1.87437 9.74059 2.18533L9.61796 2.78544H10.2305H16.6305Z" fill="#016BE3" stroke="#016BE3"/>
<path d="M29.7143 27.4287H2.28568C1.46909 27.4287 0.714482 27.8644 0.306122 28.5716C-0.102041 29.2787 -0.102041 30.1501 0.306122 30.8573C0.71454 31.5644 1.46916 32.0001 2.28568 32.0001H29.7143C30.5308 32.0001 31.2855 31.5644 31.6938 30.8573C32.102 30.1501 32.102 29.2787 31.6938 28.5716C31.2854 27.8644 30.5308 27.4287 29.7143 27.4287ZM2.85711 31.4287C2.40252 31.4287 1.96627 31.2481 1.6449 30.9267C1.32353 30.6052 1.14286 30.169 1.14286 29.7145C1.14286 29.2599 1.32347 28.8236 1.6449 28.5022C1.96633 28.1809 2.40258 28.0002 2.85711 28.0002C3.31164 28.0002 3.74795 28.1808 4.06932 28.5022C4.39069 28.8237 4.57136 29.2599 4.57136 29.7145C4.57136 30.169 4.39075 30.6053 4.06932 30.9267C3.74789 31.248 3.31164 31.4287 2.85711 31.4287ZM6.85711 30.2859H5.14282V29.143H6.85711V30.2859ZM9.14282 31.4287C8.68823 31.4287 8.25198 31.2481 7.93061 30.9267C7.60924 30.6052 7.42857 30.169 7.42857 29.7145C7.42857 29.2599 7.60918 28.8236 7.93061 28.5022C8.25204 28.1809 8.68829 28.0002 9.14282 28.0002C9.59735 28.0002 10.0337 28.1808 10.355 28.5022C10.6764 28.8237 10.8571 29.2599 10.8571 29.7145C10.8571 30.169 10.6765 30.6053 10.355 30.9267C10.0336 31.248 9.59735 31.4287 9.14282 31.4287ZM13.7143 30.2859H11.4285V29.143H13.7143V30.2859ZM16 31.4287C15.5454 31.4287 15.1091 31.2481 14.7878 30.9267C14.4664 30.6052 14.2857 30.169 14.2857 29.7145C14.2857 29.2599 14.4663 28.8236 14.7878 28.5022C15.1092 28.1809 15.5454 28.0002 16 28.0002C16.4545 28.0002 16.8908 28.1808 17.2122 28.5022C17.5336 28.8237 17.7142 29.2599 17.7142 29.7145C17.7142 30.169 17.5336 30.6053 17.2122 30.9267C16.8908 31.248 16.4545 31.4287 16 31.4287ZM20.5714 30.2859H18.2857V29.143H20.5714V30.2859ZM22.8571 31.4287C22.4025 31.4287 21.9663 31.2481 21.6449 30.9267C21.3235 30.6052 21.1429 30.169 21.1429 29.7145C21.1429 29.2599 21.3235 28.8236 21.6449 28.5022C21.9663 28.1809 22.4026 28.0002 22.8571 28.0002C23.3116 28.0002 23.748 28.1808 24.0693 28.5022C24.3907 28.8237 24.5714 29.2599 24.5714 29.7145C24.5714 30.169 24.3908 30.6053 24.0693 30.9267C23.7479 31.248 23.3116 31.4287 22.8571 31.4287ZM26.8571 30.2859H25.1428V29.143H26.8571V30.2859ZM29.1428 31.4287C28.6882 31.4287 28.252 31.2481 27.9306 30.9267C27.6092 30.6052 27.4286 30.169 27.4286 29.7145C27.4286 29.2599 27.6092 28.8236 27.9306 28.5022C28.252 28.1809 28.6883 28.0002 29.1428 28.0002C29.5974 28.0002 30.0337 28.1808 30.355 28.5022C30.6764 28.8237 30.8571 29.2599 30.8571 29.7145C30.8571 30.169 30.6765 30.6053 30.355 30.9267C30.0336 31.248 29.5974 31.4287 29.1428 31.4287Z" fill="#016BE3"/>
<path d="M21.1434 1.71429C21.1434 2.66096 20.3758 3.42857 19.4291 3.42857C18.4825 3.42857 17.7148 2.66096 17.7148 1.71429C17.7148 0.767608 18.4825 0 19.4291 0C20.3758 0 21.1434 0.767608 21.1434 1.71429Z" fill="#016BE3"/>
<path d="M3.42969 19.4287V26.2859H11.4297V19.4287H9.14397V22.8573C9.14499 23.0558 9.04295 23.2407 8.87433 23.3455C8.70571 23.4504 8.49474 23.4603 8.31719 23.3716L7.42968 22.9246L6.54217 23.3685V23.3688C6.36513 23.4573 6.15467 23.4478 5.9863 23.3435C5.81768 23.2394 5.71539 23.0552 5.71539 22.8573V19.4287L3.42969 19.4287Z" fill="#016BE3" fill-opacity="0.58"/>
<path d="M3.42801 29.714C3.42801 30.0296 3.17214 30.2854 2.85658 30.2854C2.54103 30.2854 2.28516 30.0296 2.28516 29.714C2.28516 29.3984 2.54103 29.1426 2.85658 29.1426C3.17214 29.1426 3.42801 29.3984 3.42801 29.714Z" fill="#016BE3"/>
<path d="M7.68226 21.7744L7.99833 21.9325V19.4287H6.85547V21.9328L7.17154 21.7746V21.7744C7.33225 21.694 7.52154 21.694 7.68225 21.7744L7.68226 21.7744Z" fill="#016BE3" fill-opacity="0.58"/>
<path d="M9.71317 29.714C9.71317 30.0296 9.4573 30.2854 9.14174 30.2854C8.82618 30.2854 8.57031 30.0296 8.57031 29.714C8.57031 29.3984 8.82618 29.1426 9.14174 29.1426C9.4573 29.1426 9.71317 29.3984 9.71317 29.714Z" fill="#016BE3"/>
<path d="M23.428 29.714C23.428 30.0296 23.1721 30.2854 22.8566 30.2854C22.541 30.2854 22.2852 30.0296 22.2852 29.714C22.2852 29.3984 22.541 29.1426 22.8566 29.1426C23.1721 29.1426 23.428 29.3984 23.428 29.714Z" fill="#016BE3"/>
<path d="M16.5725 29.714C16.5725 30.0296 16.3167 30.2854 16.0011 30.2854C15.6856 30.2854 15.4297 30.0296 15.4297 29.714C15.4297 29.3984 15.6856 29.1426 16.0011 29.1426C16.3167 29.1426 16.5725 29.3984 16.5725 29.714Z" fill="#016BE3"/>
<path d="M29.7132 29.714C29.7132 30.0296 29.4573 30.2854 29.1417 30.2854C28.8262 30.2854 28.5703 30.0296 28.5703 29.714C28.5703 29.3984 28.8262 29.1426 29.1417 29.1426C29.4573 29.1426 29.7132 29.3984 29.7132 29.714Z" fill="#016BE3"/>
<path d="M8.57087 10.2854C8.57087 10.9166 8.05914 11.4283 7.42801 11.4283C6.79689 11.4283 6.28516 10.9166 6.28516 10.2854C6.28516 9.65431 6.79689 9.14258 7.42801 9.14258C8.05914 9.14258 8.57087 9.65431 8.57087 10.2854Z" fill="#016BE3" fill-opacity="0.58"/>
<path d="M29.1423 9.14258C28.3846 9.14258 27.6579 9.4436 27.1219 9.97928C26.5861 10.5152 26.2852 11.242 26.2852 11.9997C26.2852 12.7574 26.5862 13.4841 27.1219 14.0202C27.6578 14.5559 28.3846 14.8569 29.1423 14.8569C29.9 14.8569 30.6267 14.5558 31.1627 14.0202C31.6985 13.4842 31.9994 12.7574 31.9994 11.9997C31.9984 11.2423 31.6971 10.516 31.1617 9.98033C30.626 9.44487 29.8997 9.14362 29.1423 9.14258ZM29.1423 13.714C28.6877 13.714 28.2515 13.5334 27.9301 13.212C27.6087 12.8905 27.428 12.4543 27.428 11.9998C27.428 11.5452 27.6087 11.1089 27.9301 10.7875C28.2515 10.4662 28.6878 10.2855 29.1423 10.2855C29.5968 10.2855 30.0331 10.4661 30.3545 10.7875C30.6759 11.109 30.8566 11.5452 30.8566 11.9998C30.8566 12.4543 30.6759 12.8906 30.3545 13.212C30.0331 13.5333 29.5968 13.714 29.1423 13.714Z" fill="#016BE3"/>
<path d="M20.674 3.70457L20.138 4.037L20.5839 4.48302L25.8023 9.70189L26.1779 10.0775L26.5301 9.6799C26.7537 9.42751 27.0125 9.20847 27.2985 9.02911L27.8302 8.69572L27.3865 8.25194L22.1242 2.98971L21.704 2.56948L21.3619 3.0554C21.1783 3.31611 20.9445 3.5368 20.674 3.70457Z" fill="#016BE3" stroke="#016BE3"/>
<path d="M24.0017 22.2858C24.0017 22.1343 23.9415 21.9888 23.8343 21.8817C23.7272 21.7746 23.5818 21.7144 23.4302 21.7144H17.716C17.4004 21.7144 17.1445 21.9702 17.1445 22.2858V26.2858H24.0017V22.2858ZM20.5731 25.7144C20.1185 25.7144 19.6823 25.5337 19.3609 25.2123C19.0395 24.8909 18.8588 24.4546 18.8588 24.0001C18.8588 23.5456 19.0395 23.1093 19.3609 22.7879C19.6823 22.4665 20.1186 22.2858 20.5731 22.2858C21.0276 22.2858 21.4639 22.4665 21.7853 22.7879C22.1067 23.1093 22.2874 23.5456 22.2874 24.0001C22.2874 24.4546 22.1067 24.8909 21.7853 25.2123C21.4639 25.5337 21.0276 25.7144 20.5731 25.7144Z" fill="#016BE3"/>
<path d="M29.7132 12.0001C29.7132 12.3157 29.4573 12.5716 29.1417 12.5716C28.8262 12.5716 28.5703 12.3157 28.5703 12.0001C28.5703 11.6846 28.8262 11.4287 29.1417 11.4287C29.4573 11.4287 29.7132 11.6846 29.7132 12.0001Z" fill="#016BE3"/>
<path d="M7.99833 8.08099V4.51416C7.62129 4.5912 7.23248 4.5912 6.85547 4.51416V8.08151C7.22868 7.97335 7.6251 7.97335 7.99833 8.08151V8.08099Z" fill="#016BE3"/>
<path d="M25.6609 14.158L19.3199 20.5007L19.1493 20.6714H19.3906H22.6202H22.6616L22.6909 20.6421L27.6052 15.7278L27.5521 15.6747L27.5752 15.5656C26.9038 15.2691 26.3296 14.7902 25.9175 14.1842L26.0302 14.0714H25.7889H25.7889H25.6045L25.6609 14.158Z" fill="#016BE3" stroke="#016BE3" stroke-width="0.2"/>
<path d="M21.1429 24.0001C21.1429 24.3157 20.887 24.5716 20.5714 24.5716C20.2559 24.5716 20 24.3157 20 24.0001C20 23.6846 20.2559 23.4287 20.5714 23.4287C20.887 23.4287 21.1429 23.6846 21.1429 24.0001Z" fill="#016BE3"/>
<path d="M13.5881 12.7858L11.3024 9.92864C11.194 9.79318 11.0297 9.71436 10.8563 9.71436H9.63281C9.74021 10.0878 9.74021 10.4837 9.63281 10.8572H10.582L12.4351 13.1738L10.378 16.2544C10.203 16.5169 10.2736 16.8718 10.5364 17.0471C10.7989 17.2221 11.1537 17.1511 11.3287 16.8886L13.6144 13.4601C13.7537 13.2537 13.743 12.981 13.5882 12.7858L13.5881 12.7858Z" fill="#016BE3" fill-opacity="0.58"/>
<path d="M5.22528 9.71442H4.00183C3.82837 9.71442 3.66408 9.79325 3.55566 9.9287L1.26995 12.7858C1.11434 12.9802 1.10235 13.2529 1.24061 13.4601L3.52633 16.8886C3.70158 17.1511 4.05643 17.2221 4.31895 17.0471C4.58144 16.8718 4.65237 16.517 4.47737 16.2544L2.42022 13.1738L4.27609 10.8572H5.22532C5.11792 10.4837 5.11792 10.0878 5.22532 9.71436L5.22528 9.71442Z" fill="#016BE3" fill-opacity="0.58"/>
</svg>
