<svg width="33" height="32" viewBox="0 0 33 32" fill="none" xmlns="http://www.w3.org/2000/svg">
<path d="M32.2604 0H30.0349C25.1894 0.00713824 20.5519 1.90824 17.128 5.29219L9.01581 13.3088C8.91661 13.4068 8.91661 13.5655 9.01581 13.6635L18.7071 23.2407C18.8063 23.3387 18.9669 23.3387 19.0661 23.2407L27.1709 15.2314C30.5952 11.8475 32.5262 7.24345 32.519 2.45518V0.255719C32.519 0.114861 32.4034 0.000414181 32.2606 0.000414181L32.2604 0ZM23.1509 13.4712C21.9593 14.6488 20.0353 14.6488 18.8437 13.4712C17.6521 12.2937 17.6521 10.3926 18.8437 9.21478C20.0353 8.03724 21.9593 8.03724 23.1509 9.21478C24.3425 10.3926 24.3425 12.2937 23.1509 13.4712Z" fill="#016BE3"/>
<path d="M8.40818 15.7839C8.29141 15.6685 8.09566 15.6923 8.01091 15.8325L6.12972 18.9394C6.07001 19.0382 6.0859 19.1643 6.168 19.2454L13.0591 26.0554C13.1415 26.1367 13.2691 26.1522 13.369 26.0932L16.513 24.2342C16.6548 24.1504 16.6789 23.957 16.5621 23.8416L8.40818 15.7839Z" fill="#016BE3" fill-opacity="0.58"/>
<path d="M28.7954 16.4927L22.5324 22.6947C22.4818 22.7449 22.4525 22.8116 22.451 22.8801L22.2774 29.433C22.2724 29.6592 22.5459 29.7625 22.713 29.5971L28.894 23.4889C28.9434 23.4401 28.9725 23.3757 28.9754 23.3088L29.2313 16.6615C29.2414 16.4324 28.9648 16.3246 28.7958 16.4921L28.7954 16.4927Z" fill="#016BE3" fill-opacity="0.58"/>
<path d="M8.84008 3.57591L2.61342 9.72921C2.44488 9.89577 2.55251 10.1701 2.78461 10.1661L9.37308 10.0238C9.44314 10.0226 9.51128 9.99356 9.56233 9.94336L15.8722 3.72123C16.0427 3.55301 15.9312 3.27581 15.6964 3.28437L9.02474 3.49566C8.95636 3.49828 8.89015 3.52731 8.84031 3.57632L8.84008 3.57591Z" fill="#016BE3" fill-opacity="0.58"/>
<path d="M7.78161 24.3095C7.38506 23.9177 6.7427 23.9177 6.34612 24.3095L0.297415 30.2875C-0.0991383 30.6794 -0.0991383 31.3141 0.297415 31.706C0.693968 32.0979 1.33632 32.0979 1.7329 31.706L7.78161 25.7281C8.17816 25.3365 8.17816 24.7016 7.78161 24.3095Z" fill="#016BE3"/>
<path d="M9.42114 26.3476L6.44976 29.2845C6.05321 29.6764 6.05321 30.3116 6.44976 30.7031C6.84631 31.0949 7.48866 31.0949 7.88524 30.7031L10.8566 27.7662C11.2532 27.3743 11.2532 26.739 10.8566 26.3476C10.4601 25.9557 9.81771 25.9557 9.42114 26.3476Z" fill="#016BE3"/>
<path d="M1.37554 25.7187C1.77209 26.1106 2.41445 26.1106 2.81102 25.7187L5.7824 22.7818C6.17895 22.3899 6.17895 21.7547 5.7824 21.3632C5.38585 20.9714 4.74349 20.9714 4.34692 21.3632L1.37554 24.3001C0.978987 24.6917 0.978987 25.3273 1.37554 25.7187Z" fill="#016BE3"/>
</svg>
