<svg width="24" height="24" viewBox="0 0 24 24" fill="none" xmlns="http://www.w3.org/2000/svg">
<path d="M11.9625 9.86998C11.9625 10.2825 12.3 10.62 12.7125 10.62C13.125 10.62 13.4625 10.2825 13.4625 9.86998C13.4625 8.65498 12.4275 7.66498 11.0025 7.40248V7.16248C11.0025 6.74998 10.665 6.41248 10.2525 6.41248C9.83998 6.41248 9.50248 6.74998 9.50248 7.16248V7.40248C8.07748 7.66498 7.04248 8.64748 7.04248 9.86998C7.04248 11.0925 8.07748 12.075 9.50248 12.3375V14.3775C8.91748 14.19 8.54248 13.8075 8.54248 13.4475C8.54248 13.035 8.20498 12.6975 7.79248 12.6975C7.37998 12.6975 7.04248 13.035 7.04248 13.4475C7.04248 14.6625 8.07748 15.6525 9.50248 15.915V16.155C9.50248 16.5675 9.83998 16.905 10.2525 16.905C10.665 16.905 11.0025 16.5675 11.0025 16.155V15.915C12.4275 15.6525 13.4625 14.67 13.4625 13.4475C13.4625 12.225 12.4275 11.2425 11.0025 10.98V8.93998C11.5875 9.12748 11.9625 9.50998 11.9625 9.86998ZM8.53498 9.86998C8.53498 9.50998 8.90998 9.12748 9.49498 8.93998V10.7925C8.90998 10.605 8.53498 10.2225 8.53498 9.86998ZM11.9625 13.455C11.9625 13.815 11.5875 14.1975 11.0025 14.385V12.5325C11.5875 12.72 11.9625 13.1025 11.9625 13.4625V13.455Z" fill="#0400F5"/>
<path d="M14.295 18.4274C13.0575 19.1774 11.6325 19.5749 10.17 19.5749C9.435 19.5749 8.7 19.4774 8.0175 19.2899L7.9275 19.2674C7.9275 19.2674 7.875 19.2599 7.785 19.2224C7.425 19.1099 7.0425 18.9524 6.6075 18.7499C4.905 17.8724 3.5775 16.4549 2.865 14.7374C2.4525 13.7624 2.25 12.7349 2.25 11.6699C2.25 11.3324 2.25 11.0174 2.3175 10.6649C2.5125 9.12745 3.165 7.67245 4.2 6.47245C5.895 4.54495 8.385 3.55495 10.8975 3.78745C10.95 3.80245 11.025 3.81745 11.1225 3.82495C14.4825 4.19245 17.28 6.74245 17.94 10.0424C17.985 10.4099 18.3 10.6874 18.6825 10.6874C19.095 10.6874 19.4325 10.3499 19.4325 9.93745C19.4325 9.89245 19.4325 9.83995 19.4175 9.79495C18.6375 5.82745 15.2775 2.75995 11.25 2.33245C11.19 2.31745 11.085 2.28745 11.01 2.29495C10.7325 2.27245 10.47 2.25745 10.17 2.25745C7.47 2.25745 4.8825 3.43495 3.0675 5.49745C1.83 6.93745 1.0575 8.66245 0.84 10.4324C0.75 10.8749 0.75 11.3024 0.75 11.6774C0.75 12.9449 0.9975 14.1674 1.485 15.3224C2.3325 17.3624 3.9075 19.0499 5.94 20.0999C6.4575 20.3474 6.9075 20.5274 7.275 20.6399C7.38 20.6849 7.4925 20.7149 7.6425 20.7449C8.43 20.9624 9.3075 21.0824 10.1775 21.0824C11.91 21.0824 13.6125 20.6099 15.0825 19.7099C15.435 19.4924 15.5475 19.0349 15.33 18.6824C15.1125 18.3299 14.655 18.2174 14.3025 18.4349L14.295 18.4274Z" fill="#0400F5"/>
<path d="M23.1675 15.5174C23.04 15.2699 22.785 15.1124 22.5 15.1124H21.045V12.1949C21.045 11.7824 20.7075 11.4449 20.295 11.4449H17.37C16.9575 11.4449 16.62 11.7824 16.62 12.1949V15.1124H15.165C14.8875 15.1124 14.625 15.2699 14.4975 15.5174C14.37 15.7649 14.3925 16.0649 14.55 16.2974L18.2175 21.4349C18.36 21.6299 18.585 21.7499 18.825 21.7499C19.065 21.7499 19.2975 21.6299 19.4325 21.4349L23.1 16.2974C23.265 16.0724 23.2875 15.7649 23.16 15.5174H23.1675ZM18.8325 19.7099L16.62 16.6124H17.37C17.7825 16.6124 18.12 16.2749 18.12 15.8624V12.9449H19.545V15.8624C19.545 16.2749 19.8825 16.6124 20.295 16.6124H21.045L18.8325 19.7099Z" fill="#0400F5"/>
</svg>
