<svg width="19" height="19" viewBox="0 0 19 19" fill="none" xmlns="http://www.w3.org/2000/svg">
<g clip-path="url(#clip0_2430_2735)">
<path d="M17.7962 0H15.6478C15.3512 0 15.1107 0.240482 15.1107 0.537109V1.07422H10.6856C10.4639 0.449095 9.86688 0 9.16667 0C8.46646 0 7.86944 0.449095 7.64772 1.07422H3.22266V0.537109C3.22266 0.240482 2.98217 0 2.68555 0H0.537109C0.240482 0 0 0.240482 0 0.537109V2.68555C0 2.98217 0.240482 3.22266 0.537109 3.22266H2.68555C2.98217 3.22266 3.22266 2.98217 3.22266 2.68555V2.14128H5.45621C3.51846 3.36854 2.34054 5.44181 2.19885 7.64278C1.56614 7.86035 1.11003 8.46105 1.11003 9.16667C1.11003 10.0552 1.83287 10.778 2.72135 10.778C3.60984 10.778 4.33268 10.0552 4.33268 9.16667C4.33268 8.47272 3.89172 7.87982 3.27529 7.65345C3.466 5.12377 5.28759 2.94501 7.72349 2.32683C7.98753 2.85721 8.53506 3.22266 9.16667 3.22266C9.79827 3.22266 10.3458 2.85721 10.6098 2.32687C13.0458 2.94504 14.8673 5.12381 15.058 7.65349C14.4416 7.87982 14.0007 8.47272 14.0007 9.16667C14.0007 10.0552 14.7235 10.778 15.612 10.778C16.5005 10.778 17.2233 10.0552 17.2233 9.16667C17.2233 8.46105 16.7672 7.86035 16.1345 7.64278C15.9925 5.43741 14.8111 3.3733 12.8771 2.14844H15.1107V2.68555C15.1107 2.98217 15.3512 3.22266 15.6478 3.22266H17.7962C18.0929 3.22266 18.3333 2.98217 18.3333 2.68555V0.537109C18.3333 0.240482 18.0929 0 17.7962 0ZM2.14844 2.14844H1.07422V1.07422H2.14844V2.14844ZM2.72135 9.70378C2.42519 9.70378 2.18424 9.46283 2.18424 9.16667C2.18424 8.87051 2.42519 8.62956 2.72135 8.62956C3.01752 8.62956 3.25846 8.87051 3.25846 9.16667C3.25846 9.46283 3.01752 9.70378 2.72135 9.70378ZM9.16667 2.14844C8.87051 2.14844 8.62956 1.90749 8.62956 1.61133C8.62956 1.31517 8.87051 1.07422 9.16667 1.07422C9.46283 1.07422 9.70378 1.31517 9.70378 1.61133C9.70378 1.90749 9.46283 2.14844 9.16667 2.14844ZM15.612 8.62956C15.9081 8.62956 16.1491 8.87051 16.1491 9.16667C16.1491 9.46283 15.9081 9.70378 15.612 9.70378C15.3158 9.70378 15.0749 9.46283 15.0749 9.16667C15.0749 8.87051 15.3158 8.62956 15.612 8.62956ZM17.2591 2.14844H16.1849V1.07422H17.2591V2.14844Z" fill="#52525C"/>
<path d="M13.9105 11.0174L9.61362 4.57207C9.61348 4.57186 9.6133 4.57164 9.61315 4.57139C9.61161 4.5691 9.60993 4.56692 9.60836 4.56466C9.60098 4.55396 9.59321 4.54364 9.58512 4.53358C9.35878 4.25235 8.9278 4.27133 8.72513 4.56466C8.72356 4.56692 8.72188 4.5691 8.72034 4.57139C8.72019 4.57164 8.72001 4.57182 8.71987 4.57207L4.42299 11.0174C4.28095 11.2304 4.30906 11.5141 4.4901 11.6951C5.5617 12.7667 6.24376 14.1675 6.42956 15.6662C6.34617 15.7336 6.26564 15.8058 6.1893 15.8839C5.68481 16.4 5.40698 17.0792 5.40698 17.7964C5.40698 18.0931 5.64746 18.3335 5.94409 18.3335H12.3894C12.686 18.3335 12.9265 18.0931 12.9265 17.7964C12.9265 17.0792 12.6487 16.4 12.1442 15.8839C12.0679 15.8058 11.9874 15.7336 11.9039 15.6661C12.0897 14.1674 12.7718 12.7666 13.8434 11.6951C14.0244 11.5141 14.0525 11.2304 13.9105 11.0174ZM9.16674 10.7782C9.46291 10.7782 9.70385 11.0191 9.70385 11.3153C9.70385 11.6115 9.46291 11.8524 9.16674 11.8524C8.87058 11.8524 8.62964 11.6115 8.62964 11.3153C8.62964 11.0191 8.87058 10.7782 9.16674 10.7782ZM6.57279 17.2593C6.79627 16.6208 7.40205 16.1493 8.09253 16.1493H10.241C10.9314 16.1493 11.5372 16.6208 11.7607 17.2593H6.57279ZM10.8943 15.1568C10.683 15.1029 10.464 15.0751 10.241 15.0751H8.09253C7.86948 15.0751 7.65049 15.1029 7.43922 15.1569C7.18785 13.7092 6.53505 12.356 5.55397 11.2575L8.62964 6.64396V9.79639C8.00448 10.0181 7.55542 10.6151 7.55542 11.3153C7.55542 12.2038 8.27826 12.9267 9.16674 12.9267C10.0552 12.9267 10.7781 12.2038 10.7781 11.3153C10.7781 10.6151 10.329 10.0181 9.70385 9.79639V6.64396L12.7796 11.2575C11.7984 12.3559 11.1456 13.7091 10.8943 15.1568Z" fill="#52525C"/>
</g>
<defs>
<clipPath id="clip0_2430_2735">
<rect width="18.3333" height="18.3333" fill="white"/>
</clipPath>
</defs>
</svg>
