<svg width="16" height="20" viewBox="0 0 16 20" fill="none" xmlns="http://www.w3.org/2000/svg">
<path fill-rule="evenodd" clip-rule="evenodd" d="M0.666504 10.3333C0.666504 6.28333 3.94984 3 7.99984 3C12.0498 3 15.3332 6.28333 15.3332 10.3333C15.3332 14.3833 12.0498 17.6667 7.99984 17.6667C3.94984 17.6667 0.666504 14.3833 0.666504 10.3333ZM7.99984 16.3333C7.21191 16.3333 6.43169 16.1781 5.70374 15.8766C4.97578 15.5751 4.31435 15.1331 3.7572 14.576C3.20004 14.0188 2.75809 13.3574 2.45656 12.6294C2.15503 11.9015 1.99984 11.1213 1.99984 10.3333C1.99984 9.5454 2.15503 8.76519 2.45656 8.03723C2.75809 7.30928 3.20004 6.64784 3.7572 6.09069C4.31435 5.53354 4.97578 5.09158 5.70374 4.79006C6.43169 4.48853 7.21191 4.33333 7.99984 4.33333C9.59114 4.33333 11.1173 4.96547 12.2425 6.09069C13.3677 7.21591 13.9998 8.74203 13.9998 10.3333C13.9998 11.9246 13.3677 13.4508 12.2425 14.576C11.1173 15.7012 9.59114 16.3333 7.99984 16.3333Z" fill="#3F3F47"/>
<path d="M6.82842 13.2093L3.99976 10.3799L4.94242 9.43727L6.82842 11.3226L10.5991 7.55127L11.5424 8.4946L6.82842 13.2093Z" fill="#3F3F47"/>
</svg>
