<svg width="20" height="20" viewBox="0 0 20 20" fill="none" xmlns="http://www.w3.org/2000/svg">
<g clip-path="url(#clip0_107_7151)">
<path d="M9.9999 1.76465H9.41166C4.54637 1.76465 0.588135 5.72288 0.588135 10.5882C0.588135 15.4535 4.54637 19.4117 9.41166 19.4117C14.277 19.4117 18.2352 15.4535 18.2352 10.5882V9.99994H9.9999V1.76465ZM8.82343 2.96347V9.99994H1.78696C2.07355 6.25135 5.07472 3.25006 8.82343 2.96347ZM1.78696 11.1764H8.56284L6.18437 17.5191C3.74484 16.3786 2.0019 13.9883 1.78696 11.1764ZM17.0363 11.1764C16.855 13.5483 15.5859 15.6198 13.7292 16.8949L10.43 11.1764H17.0361H17.0363ZM12.7108 17.4841C11.7112 17.9643 10.5927 18.2352 9.41155 18.2352C8.6739 18.2352 7.96061 18.1294 7.28531 17.9336L9.52484 11.9616L12.7108 17.4841Z" fill="#0400F5"/>
<path d="M12.0001 0.588257H11.4119V8.58826H19.4119V8.00002C19.4119 3.9132 16.0869 0.588257 12.0001 0.588257ZM12.5883 7.41179V1.79226C15.5581 2.07143 17.9288 4.44202 18.2079 7.41179H12.5883Z" fill="#0400F5"/>
</g>
<defs>
<clipPath id="clip0_107_7151">
<rect width="20" height="20" fill="white"/>
</clipPath>
</defs>
</svg>
