<svg width="109" height="62" viewBox="0 0 109 62" fill="none" xmlns="http://www.w3.org/2000/svg">
<rect x="0.5" y="0.500977" width="108" height="61" rx="3.08643" stroke="white" stroke-opacity="0.03"/>
<path d="M39.4059 32.999L36.6981 24.9169H36.6428C36.652 25.1011 36.6658 25.3636 36.6843 25.7044C36.7027 26.0359 36.7165 26.3997 36.7257 26.7958C36.7441 27.1826 36.7533 27.5464 36.7533 27.8872V32.999H35.1645V23.1347H37.6237L40.2211 30.8852H40.2763L42.9842 23.1347H45.4434V32.999H43.7579V27.8043C43.7579 27.4912 43.7625 27.1504 43.7717 26.782C43.7901 26.4044 43.8039 26.0498 43.8131 25.7182C43.8315 25.3774 43.8454 25.1149 43.8546 24.9307H43.7993L40.9809 32.999H39.4059ZM49.5703 25.5109V32.999H47.8295V25.5109H49.5703ZM48.6999 22.6235C48.9578 22.6235 49.1834 22.6926 49.3768 22.8307C49.5703 22.9597 49.667 23.1945 49.667 23.5353C49.667 23.8669 49.5703 24.1064 49.3768 24.2537C49.1834 24.3919 48.9578 24.461 48.6999 24.461C48.4328 24.461 48.2025 24.3919 48.0091 24.2537C47.8249 24.1064 47.7328 23.8669 47.7328 23.5353C47.7328 23.1945 47.8249 22.9597 48.0091 22.8307C48.2025 22.6926 48.4328 22.6235 48.6999 22.6235ZM54.8217 33.1372C54.1125 33.1372 53.4954 33.0036 52.9704 32.7365C52.4546 32.4602 52.054 32.0411 51.7685 31.4793C51.4921 30.9083 51.354 30.1806 51.354 29.2964C51.354 28.3754 51.506 27.6293 51.8099 27.0583C52.1231 26.478 52.5513 26.0544 53.0948 25.7873C53.6382 25.5109 54.2599 25.3728 54.9599 25.3728C55.4296 25.3728 55.8487 25.4188 56.2171 25.5109C56.5855 25.603 56.8987 25.7136 57.1566 25.8425L56.6454 27.2103C56.3599 27.0997 56.0743 27.0076 55.7888 26.934C55.5033 26.8511 55.227 26.8096 54.9599 26.8096C54.5454 26.8096 54.2 26.9017 53.9237 27.0859C53.6566 27.2701 53.4586 27.5464 53.3296 27.9149C53.2007 28.2741 53.1362 28.73 53.1362 29.2826C53.1362 29.8168 53.2007 30.2635 53.3296 30.6227C53.4678 30.9819 53.6704 31.2536 53.9375 31.4379C54.2046 31.6129 54.5362 31.7004 54.9322 31.7004C55.3559 31.7004 55.7289 31.6497 56.0513 31.5484C56.3737 31.4471 56.6776 31.3089 56.9631 31.1339V32.6398C56.6776 32.8148 56.3691 32.9392 56.0375 33.0128C55.7151 33.0957 55.3099 33.1372 54.8217 33.1372ZM62.641 25.3728C62.7516 25.3728 62.8805 25.3774 63.0279 25.3866C63.1752 25.3958 63.2996 25.4142 63.4009 25.4419L63.2489 27.0583C63.166 27.0399 63.0555 27.0261 62.9174 27.0168C62.7884 26.9984 62.6733 26.9892 62.572 26.9892C62.2957 26.9892 62.0286 27.0353 61.7707 27.1274C61.522 27.2103 61.2963 27.3392 61.0937 27.5142C60.9003 27.68 60.7437 27.8964 60.624 28.1635C60.5134 28.4306 60.4582 28.7484 60.4582 29.1168V32.999H58.7174V25.5109H60.0575L60.3062 26.8096H60.3891C60.5365 26.5425 60.7207 26.303 60.9417 26.0912C61.1628 25.8702 61.4161 25.6952 61.7016 25.5662C61.9963 25.4373 62.3095 25.3728 62.641 25.3728ZM71.2057 29.2412C71.2057 29.8675 71.1228 30.4201 70.957 30.899C70.7912 31.378 70.5517 31.7879 70.2386 32.1286C69.9346 32.4602 69.557 32.7135 69.1057 32.8885C68.6636 33.0543 68.1708 33.1372 67.6274 33.1372C67.1116 33.1372 66.6373 33.0543 66.2044 32.8885C65.7715 32.7135 65.3939 32.4602 65.0715 32.1286C64.7584 31.7879 64.5143 31.378 64.3393 30.899C64.1643 30.4201 64.0768 29.8675 64.0768 29.2412C64.0768 28.4122 64.2196 27.7122 64.5051 27.1412C64.7906 26.5609 65.2005 26.1234 65.7347 25.8287C66.2781 25.5248 66.9182 25.3728 67.655 25.3728C68.355 25.3728 68.9675 25.5248 69.4925 25.8287C70.0267 26.1234 70.4458 26.5609 70.7497 27.1412C71.0537 27.7122 71.2057 28.4122 71.2057 29.2412ZM65.859 29.2412C65.859 29.7662 65.9189 30.2175 66.0386 30.5951C66.1676 30.9635 66.361 31.2444 66.6189 31.4379C66.886 31.6313 67.2268 31.728 67.6412 31.728C68.0649 31.728 68.4057 31.6313 68.6636 31.4379C68.9307 31.2444 69.1241 30.9635 69.2438 30.5951C69.3636 30.2175 69.4234 29.7662 69.4234 29.2412C69.4234 28.707 69.359 28.2603 69.23 27.9011C69.1103 27.5326 68.9169 27.2563 68.6498 27.0721C68.3919 26.8787 68.0557 26.782 67.6412 26.782C67.0149 26.782 66.559 26.9938 66.2735 27.4175C65.9972 27.8412 65.859 28.4491 65.859 29.2412ZM78.1032 30.83C78.1032 31.3273 77.9835 31.751 77.744 32.101C77.5046 32.4418 77.15 32.6997 76.6802 32.8747C76.2197 33.0497 75.6533 33.1372 74.9809 33.1372C74.4559 33.1372 74.0046 33.1003 73.627 33.0267C73.2493 32.953 72.8901 32.8378 72.5493 32.6813V31.203C72.9178 31.378 73.3276 31.5254 73.7789 31.6451C74.2302 31.7648 74.6493 31.8247 75.0362 31.8247C75.5151 31.8247 75.8605 31.751 76.0723 31.6036C76.2842 31.4563 76.3901 31.2583 76.3901 31.0096C76.3901 30.8622 76.3486 30.7287 76.2658 30.6089C76.1829 30.4892 76.0217 30.3648 75.7822 30.2359C75.5427 30.0977 75.1789 29.9273 74.6908 29.7247C74.2118 29.5313 73.8112 29.3379 73.4888 29.1445C73.1757 28.951 72.9362 28.7208 72.7704 28.4537C72.6138 28.1774 72.5355 27.832 72.5355 27.4175C72.5355 26.7451 72.8026 26.2386 73.3368 25.8978C73.871 25.5478 74.5756 25.3728 75.4506 25.3728C75.9112 25.3728 76.344 25.4188 76.7493 25.5109C77.1638 25.5938 77.5782 25.732 77.9927 25.9254L77.4401 27.2103C77.2098 27.109 76.9796 27.0215 76.7493 26.9478C76.5282 26.8649 76.3026 26.8004 76.0723 26.7544C75.8513 26.7083 75.6256 26.6853 75.3954 26.6853C75.0177 26.6853 74.7322 26.7451 74.5388 26.8649C74.3454 26.9754 74.2487 27.132 74.2487 27.3346C74.2487 27.4912 74.2947 27.6293 74.3868 27.7491C74.4881 27.8596 74.6585 27.9747 74.898 28.0945C75.1467 28.205 75.4967 28.3524 75.948 28.5366C76.3993 28.7116 76.7815 28.8958 77.0947 29.0892C77.4171 29.2734 77.6657 29.5037 77.8407 29.78C78.0157 30.0563 78.1032 30.4063 78.1032 30.83ZM86.4649 29.2412C86.4649 29.8675 86.382 30.4201 86.2163 30.899C86.0505 31.378 85.811 31.7879 85.4978 32.1286C85.1939 32.4602 84.8163 32.7135 84.365 32.8885C83.9229 33.0543 83.4301 33.1372 82.8867 33.1372C82.3709 33.1372 81.8966 33.0543 81.4637 32.8885C81.0308 32.7135 80.6532 32.4602 80.3308 32.1286C80.0176 31.7879 79.7736 31.378 79.5986 30.899C79.4236 30.4201 79.3361 29.8675 79.3361 29.2412C79.3361 28.4122 79.4788 27.7122 79.7643 27.1412C80.0499 26.5609 80.4597 26.1234 80.9939 25.8287C81.5374 25.5248 82.1775 25.3728 82.9143 25.3728C83.6143 25.3728 84.2268 25.5248 84.7518 25.8287C85.286 26.1234 85.7051 26.5609 86.009 27.1412C86.313 27.7122 86.4649 28.4122 86.4649 29.2412ZM81.1183 29.2412C81.1183 29.7662 81.1781 30.2175 81.2979 30.5951C81.4268 30.9635 81.6202 31.2444 81.8781 31.4379C82.1452 31.6313 82.486 31.728 82.9005 31.728C83.3242 31.728 83.665 31.6313 83.9229 31.4379C84.19 31.2444 84.3834 30.9635 84.5031 30.5951C84.6228 30.2175 84.6827 29.7662 84.6827 29.2412C84.6827 28.707 84.6182 28.2603 84.4893 27.9011C84.3696 27.5326 84.1761 27.2563 83.909 27.0721C83.6511 26.8787 83.315 26.782 82.9005 26.782C82.2742 26.782 81.8183 26.9938 81.5328 27.4175C81.2564 27.8412 81.1183 28.4491 81.1183 29.2412ZM92.1467 26.8234H90.3369V32.999H88.5961V26.8234H87.3941V25.9945L88.5961 25.4971V24.9859C88.5961 24.3412 88.6974 23.8346 88.9001 23.4662C89.1027 23.0978 89.3974 22.8353 89.7843 22.6787C90.1711 22.5129 90.627 22.4301 91.152 22.4301C91.5204 22.4301 91.852 22.4623 92.1467 22.5268C92.4415 22.582 92.6855 22.6465 92.879 22.7202L92.4369 24.0189C92.2803 23.9728 92.1053 23.9314 91.9119 23.8945C91.7277 23.8485 91.525 23.8254 91.304 23.8254C90.9724 23.8254 90.7283 23.9314 90.5717 24.1432C90.4152 24.355 90.3369 24.6498 90.3369 25.0274V25.5109H92.1467V26.8234ZM96.2927 31.7418C96.5138 31.7418 96.7256 31.7234 96.9282 31.6865C97.1309 31.6405 97.3197 31.5898 97.4947 31.5346V32.8332C97.3105 32.9161 97.071 32.9852 96.7763 33.0405C96.4815 33.1049 96.173 33.1372 95.8506 33.1372C95.4269 33.1372 95.0401 33.0681 94.6901 32.9299C94.3493 32.7826 94.073 32.5339 93.8612 32.1839C93.6585 31.8339 93.5572 31.3458 93.5572 30.7194V26.8234H92.5487V26.0636L93.6539 25.4557L94.2066 23.8669H95.298V25.5109H97.4256V26.8234H95.298V30.7056C95.298 31.0556 95.3901 31.3181 95.5743 31.4931C95.7585 31.6589 95.998 31.7418 96.2927 31.7418Z" fill="#E8E8E8"/>
<path d="M38.9514 40.2653C38.9514 40.6995 38.8462 41.0693 38.6359 41.3746C38.4255 41.6799 38.1236 41.9174 37.7301 42.087C37.3366 42.2498 36.8685 42.3313 36.3257 42.3313C36.0611 42.3313 35.8067 42.3143 35.5624 42.2804C35.3182 42.2532 35.0909 42.2125 34.8805 42.1583C34.6702 42.104 34.4836 42.0361 34.3208 41.9547V40.9167C34.5922 41.0388 34.9111 41.1507 35.2774 41.2525C35.6438 41.3475 36.017 41.395 36.3969 41.395C36.7226 41.395 36.994 41.3509 37.2111 41.2627C37.4282 41.1745 37.591 41.0523 37.6996 40.8963C37.8081 40.7403 37.8624 40.5571 37.8624 40.3467C37.8624 40.1228 37.8047 39.9363 37.6894 39.787C37.5808 39.631 37.4078 39.4885 37.1704 39.3596C36.9397 39.2239 36.6276 39.0814 36.2341 38.9321C35.9627 38.8304 35.7151 38.7184 35.4912 38.5963C35.2741 38.4674 35.0807 38.3181 34.9111 38.1485C34.7482 37.9789 34.6227 37.7821 34.5345 37.5582C34.4463 37.3343 34.4022 37.0731 34.4022 36.7746C34.4022 36.3743 34.5006 36.0317 34.6974 35.7467C34.9009 35.4618 35.1791 35.2447 35.5319 35.0954C35.8847 34.9393 36.2951 34.8613 36.7633 34.8613C37.1568 34.8613 37.5198 34.902 37.8522 34.9834C38.1915 35.0581 38.5137 35.1632 38.8191 35.2989L38.473 36.2047C38.1949 36.0894 37.9133 35.9944 37.6283 35.9197C37.3434 35.8451 37.0449 35.8078 36.7328 35.8078C36.4614 35.8078 36.2341 35.8485 36.0509 35.9299C35.8677 36.0113 35.7286 36.1233 35.6336 36.2658C35.5454 36.4082 35.5013 36.5745 35.5013 36.7644C35.5013 36.9883 35.5522 37.1749 35.654 37.3242C35.7558 37.4734 35.9186 37.6125 36.1425 37.7414C36.3664 37.8635 36.6615 37.9992 37.0279 38.1485C37.435 38.3046 37.781 38.4742 38.066 38.6574C38.3577 38.8405 38.5782 39.061 38.7275 39.3189C38.8767 39.5699 38.9514 39.8854 38.9514 40.2653ZM41.3308 36.7441V42.2295H40.252V36.7441H41.3308ZM40.8016 34.6578C40.9644 34.6578 41.1069 34.7053 41.229 34.8003C41.3511 34.8952 41.4122 35.0547 41.4122 35.2786C41.4122 35.4957 41.3511 35.6551 41.229 35.7569C41.1069 35.8519 40.9644 35.8994 40.8016 35.8994C40.6252 35.8994 40.4759 35.8519 40.3538 35.7569C40.2385 35.6551 40.1808 35.4957 40.1808 35.2786C40.1808 35.0547 40.2385 34.8952 40.3538 34.8003C40.4759 34.7053 40.6252 34.6578 40.8016 34.6578ZM44.1036 42.2295H43.0249V34.495H44.1036V42.2295ZM47.0291 42.2295L44.953 36.7441H46.0928L47.2327 39.9498C47.2802 40.0855 47.3277 40.2382 47.3751 40.4078C47.4294 40.5774 47.4769 40.7403 47.5176 40.8963C47.5583 41.0523 47.5855 41.188 47.599 41.3034H47.6398C47.6601 41.188 47.6906 41.0523 47.7313 40.8963C47.7788 40.7335 47.8297 40.5706 47.884 40.4078C47.9383 40.2382 47.9858 40.0855 48.0265 39.9498L49.1663 36.7441H50.3061L48.2198 42.2295H47.0291ZM53.3121 36.6423C53.7938 36.6423 54.2077 36.7441 54.5537 36.9476C54.8997 37.1444 55.1643 37.4293 55.3475 37.8025C55.5375 38.1756 55.6325 38.6166 55.6325 39.1255V39.7158H51.9484C51.9619 40.2789 52.1078 40.7097 52.386 41.0082C52.6709 41.3068 53.0678 41.456 53.5767 41.456C53.9295 41.456 54.2416 41.4255 54.513 41.3644C54.7912 41.2966 55.0761 41.1982 55.3679 41.0693V41.9649C55.0965 42.087 54.8183 42.1786 54.5333 42.2397C54.2552 42.3007 53.9227 42.3313 53.536 42.3313C53.0068 42.3313 52.5386 42.2261 52.1316 42.0158C51.7245 41.8054 51.4056 41.4934 51.1749 41.0795C50.951 40.6588 50.8391 40.1432 50.8391 39.5326C50.8391 38.9152 50.9408 38.3928 51.1444 37.9653C51.3547 37.5379 51.6431 37.2122 52.0094 36.9883C52.3826 36.7576 52.8168 36.6423 53.3121 36.6423ZM53.3121 37.4768C52.9254 37.4768 52.6133 37.6023 52.3758 37.8534C52.1451 38.1044 52.0094 38.4606 51.9687 38.922H54.5537C54.5537 38.637 54.5096 38.386 54.4214 38.1689C54.3332 37.9517 54.1975 37.7821 54.0143 37.66C53.8311 37.5379 53.597 37.4768 53.3121 37.4768ZM59.6856 36.6423C59.7806 36.6423 59.8858 36.6491 60.0011 36.6627C60.1164 36.6694 60.2114 36.6796 60.2861 36.6932L60.1741 37.7007C60.0995 37.6804 60.0113 37.6634 59.9095 37.6498C59.8077 37.6363 59.7128 37.6295 59.6246 37.6295C59.421 37.6295 59.2243 37.6702 59.0343 37.7516C58.8511 37.8262 58.6849 37.9382 58.5356 38.0874C58.3863 38.2299 58.2676 38.4063 58.1794 38.6166C58.098 38.827 58.0573 39.0678 58.0573 39.3392V42.2295H56.9785V36.7441H57.8334L57.9759 37.7211H58.0166C58.1319 37.5243 58.271 37.3445 58.4338 37.1817C58.5967 37.0189 58.7833 36.8899 58.9936 36.795C59.2039 36.6932 59.4346 36.6423 59.6856 36.6423Z" fill="#C4C4C4"/>
<path d="M66.1029 34.9631C67.0528 34.9631 67.7448 35.1565 68.1791 35.5432C68.6133 35.9231 68.8304 36.4557 68.8304 37.141C68.8304 37.4463 68.7795 37.738 68.6777 38.0162C68.5827 38.2944 68.4233 38.5454 68.1994 38.7693C67.9755 38.9864 67.677 39.1594 67.3038 39.2883C66.9375 39.4105 66.4863 39.4715 65.9503 39.4715H65.1667V42.2295H64.0675V34.9631H66.1029ZM66.0215 35.8892H65.1667V38.5454H65.8282C66.242 38.5454 66.588 38.5013 66.8662 38.4131C67.1444 38.3181 67.3513 38.1723 67.487 37.9755C67.6295 37.772 67.7007 37.5074 67.7007 37.1817C67.7007 36.7475 67.565 36.4252 67.2937 36.2149C67.0291 35.9978 66.605 35.8892 66.0215 35.8892ZM72.3039 36.6423C72.9959 36.6423 73.5115 36.795 73.8508 37.1003C74.19 37.3988 74.3596 37.8703 74.3596 38.5149V42.2295H73.5963L73.3826 41.4662H73.3419C73.1859 41.663 73.023 41.8258 72.8534 41.9547C72.6906 42.0836 72.5006 42.1786 72.2835 42.2397C72.0732 42.3007 71.8154 42.3313 71.51 42.3313C71.1844 42.3313 70.8892 42.2736 70.6246 42.1583C70.3668 42.0361 70.1633 41.8529 70.014 41.6087C69.8648 41.3577 69.7901 41.0456 69.7901 40.6724C69.7901 40.1161 70.0005 39.692 70.4211 39.4003C70.8485 39.1085 71.4965 38.9491 72.3649 38.922L73.3012 38.8914V38.5861C73.3012 38.179 73.2096 37.8941 73.0264 37.7312C72.8432 37.5684 72.5854 37.487 72.253 37.487C71.968 37.487 71.6966 37.5277 71.4388 37.6091C71.181 37.6905 70.9367 37.7889 70.7061 37.9043L70.36 37.1206C70.6179 36.9849 70.913 36.873 71.2454 36.7848C71.5847 36.6898 71.9375 36.6423 72.3039 36.6423ZM72.5583 39.614C71.9341 39.6411 71.4999 39.7463 71.2556 39.9295C71.0182 40.1059 70.8994 40.3569 70.8994 40.6826C70.8994 40.9675 70.9842 41.1745 71.1539 41.3034C71.3303 41.4323 71.5508 41.4967 71.8154 41.4967C72.2428 41.4967 72.5956 41.378 72.8738 41.1406C73.1519 40.9031 73.291 40.5469 73.291 40.072V39.5936L72.5583 39.614ZM78.7278 36.6423C78.8228 36.6423 78.9279 36.6491 79.0433 36.6627C79.1586 36.6694 79.2536 36.6796 79.3282 36.6932L79.2163 37.7007C79.1417 37.6804 79.0534 37.6634 78.9517 37.6498C78.8499 37.6363 78.7549 37.6295 78.6667 37.6295C78.4632 37.6295 78.2664 37.6702 78.0765 37.7516C77.8933 37.8262 77.727 37.9382 77.5778 38.0874C77.4285 38.2299 77.3098 38.4063 77.2216 38.6166C77.1402 38.827 77.0995 39.0678 77.0995 39.3392V42.2295H76.0207V36.7441H76.8756L77.018 37.7211H77.0588C77.1741 37.5243 77.3132 37.3445 77.476 37.1817C77.6388 37.0189 77.8254 36.8899 78.0357 36.795C78.2461 36.6932 78.4768 36.6423 78.7278 36.6423ZM82.3183 41.456C82.4608 41.456 82.6066 41.4425 82.7559 41.4153C82.9052 41.3882 83.0341 41.3577 83.1426 41.3237V42.1379C83.0273 42.1922 82.8712 42.2363 82.6745 42.2702C82.4777 42.3109 82.281 42.3313 82.0842 42.3313C81.7857 42.3313 81.5109 42.2804 81.2599 42.1786C81.0156 42.0768 80.8189 41.9004 80.6696 41.6494C80.5203 41.3984 80.4457 41.049 80.4457 40.6012V37.5684H79.6824V37.0799L80.4864 36.6728L80.863 35.5127H81.5245V36.7441H83.0917V37.5684H81.5245V40.5808C81.5245 40.8793 81.5957 41.0998 81.7382 41.2423C81.8875 41.3848 82.0808 41.456 82.3183 41.456ZM87.0182 36.6423C87.6559 36.6423 88.1444 36.8017 88.4837 37.1206C88.8229 37.4395 88.9925 37.9517 88.9925 38.6574V42.2295H87.9239V38.81C87.9239 38.3826 87.8323 38.0637 87.6491 37.8534C87.4727 37.6363 87.1878 37.5277 86.7943 37.5277C86.2379 37.5277 85.8512 37.6939 85.6341 38.0264C85.4238 38.3588 85.3186 38.8371 85.3186 39.4613V42.2295H84.2398V36.7441H85.0947L85.2474 37.4768H85.3084C85.4306 37.2868 85.5798 37.1308 85.7562 37.0087C85.9326 36.8866 86.1294 36.795 86.3465 36.7339C86.5636 36.6728 86.7875 36.6423 87.0182 36.6423ZM92.8077 36.6423C93.2894 36.6423 93.7033 36.7441 94.0493 36.9476C94.3953 37.1444 94.6599 37.4293 94.8431 37.8025C95.0331 38.1756 95.1281 38.6166 95.1281 39.1255V39.7158H91.444C91.4575 40.2789 91.6034 40.7097 91.8816 41.0082C92.1665 41.3068 92.5635 41.456 93.0723 41.456C93.4251 41.456 93.7372 41.4255 94.0086 41.3644C94.2868 41.2966 94.5717 41.1982 94.8635 41.0693V41.9649C94.5921 42.087 94.3139 42.1786 94.0289 42.2397C93.7508 42.3007 93.4183 42.3313 93.0316 42.3313C92.5024 42.3313 92.0342 42.2261 91.6272 42.0158C91.2201 41.8054 90.9012 41.4934 90.6705 41.0795C90.4466 40.6588 90.3347 40.1432 90.3347 39.5326C90.3347 38.9152 90.4365 38.3928 90.64 37.9653C90.8503 37.5379 91.1387 37.2122 91.505 36.9883C91.8782 36.7576 92.3124 36.6423 92.8077 36.6423ZM92.8077 37.4768C92.421 37.4768 92.1089 37.6023 91.8714 37.8534C91.6407 38.1044 91.505 38.4606 91.4643 38.922H94.0493C94.0493 38.637 94.0052 38.386 93.917 38.1689C93.8288 37.9517 93.6931 37.7821 93.5099 37.66C93.3267 37.5379 93.0927 37.4768 92.8077 37.4768ZM99.1812 36.6423C99.2762 36.6423 99.3814 36.6491 99.4967 36.6627C99.6121 36.6694 99.707 36.6796 99.7817 36.6932L99.6697 37.7007C99.5951 37.6804 99.5069 37.6634 99.4051 37.6498C99.3033 37.6363 99.2084 37.6295 99.1202 37.6295C98.9166 37.6295 98.7199 37.6702 98.5299 37.7516C98.3467 37.8262 98.1805 37.9382 98.0312 38.0874C97.882 38.2299 97.7632 38.4063 97.675 38.6166C97.5936 38.827 97.5529 39.0678 97.5529 39.3392V42.2295H96.4741V36.7441H97.329L97.4715 37.7211H97.5122C97.6275 37.5243 97.7666 37.3445 97.9294 37.1817C98.0923 37.0189 98.2789 36.8899 98.4892 36.795C98.6995 36.6932 98.9302 36.6423 99.1812 36.6423Z" fill="#A2A2A2"/>
<rect x="8.95557" y="21.3682" width="10.1077" height="10.1077" fill="#EB5321"/>
<rect x="20.748" y="21.3682" width="10.1077" height="10.1077" fill="#7FBA00"/>
<rect x="20.748" y="33.1602" width="10.1077" height="10.1077" fill="#FCBB01"/>
<rect x="8.95557" y="33.1602" width="10.1077" height="10.1077" fill="#08A1EF"/>
</svg>
