<svg width="37" height="37" viewBox="0 0 37 37" fill="none" xmlns="http://www.w3.org/2000/svg">
<g clip-path="url(#clip0_1597_61)">
<path d="M16.3415 31.8038H20.6615C21.0136 31.1073 21.311 30.2386 22.4145 30.2386H34.9366V11.4558C34.9366 11.0408 34.7717 10.6425 34.478 10.349C34.1845 10.0555 33.7865 9.89069 33.3714 9.89069H26.4842C26.6674 10.8618 26.5329 11.8662 26.1008 12.755L27.4 14.0542H27.3997C28.1056 14.7646 28.429 15.77 28.2697 16.7586C28.1104 17.7475 27.4875 18.6005 26.594 19.053C25.7005 19.5055 24.6445 19.5034 23.753 19.0472C22.0998 19.4458 20.5168 20.0922 19.0573 20.9646C22.8529 23.9151 23.3461 24.0951 23.4087 25.0264C23.4713 25.9577 23.0174 26.1534 20.7322 28.4386H20.732C20.5001 28.6718 20.2006 28.8259 19.8762 28.8794C19.5515 28.9328 19.2184 28.8825 18.9242 28.736C12.0061 25.2455 12.8745 25.6055 12.4364 25.6055H12.4362C10.9835 25.6055 9.58991 25.0282 8.56249 24.001C7.53507 22.9736 6.95804 21.5801 6.95804 20.1271C6.95804 17.4897 8.52318 16.3236 10.2293 14.6018C10.5016 14.3222 10.8721 14.1592 11.2622 14.1479C12.0918 12.8107 12.764 11.3822 13.2658 9.89062H3.63154C3.21648 9.89062 2.81845 10.0554 2.52497 10.3489C2.23123 10.6424 2.06641 11.0407 2.06641 11.4558V30.2386H14.5885C15.6684 30.2386 15.9736 31.076 16.3415 31.8037L16.3415 31.8038Z" fill="#016BE3"/>
<path d="M22.4133 31.8047L21.6306 33.3698L15.3698 33.3701L14.5871 31.8049L0.5 31.8047V33.3701C0.5 34.2002 0.829645 34.9966 1.41687 35.5835C2.00383 36.1707 2.80015 36.5004 3.63029 36.5004H33.3701C34.2003 36.5004 34.9966 36.1707 35.5836 35.5835C36.1708 34.9966 36.5004 34.2002 36.5004 33.3701V31.8047H22.4133Z" fill="#016BE3" fill-opacity="0.58"/>
<path d="M24.0799 17.3765C24.4755 17.7777 25.0551 17.9375 25.6005 17.7955C26.1457 17.6535 26.5739 17.2313 26.7235 16.6881C26.8731 16.1449 26.7217 15.563 26.326 15.1618L17.4431 6.31037C17.0474 5.9147 16.4707 5.7601 15.9304 5.905C15.3898 6.04991 14.9679 6.47178 14.823 7.01238C14.6781 7.5527 14.8327 8.12942 15.2283 8.52513L24.0799 17.3765Z" fill="#016BE3"/>
<path d="M17.757 19.8994C19.1893 19.0263 20.7212 18.3275 22.3196 17.8178L14.7749 10.2812C14.2705 11.8802 13.574 13.4123 12.7012 14.8439L17.757 19.8994Z" fill="#016BE3"/>
<path d="M11.3556 15.7109L9.69637 17.3701C8.93567 18.1531 8.5366 19.2183 8.59556 20.3081C8.65452 21.3982 9.16602 22.4141 10.0066 23.1105C10.8472 23.8068 11.9404 24.1205 13.0224 23.9756C14.6268 23.7408 15.3312 22.7469 16.8573 21.2208L11.3556 15.7109Z" fill="#016BE3"/>
<path d="M21.8655 25.1224L18.1325 22.2188C16.4264 23.917 15.9568 24.4961 15.002 24.9893L19.6508 27.3371L21.8655 25.1224Z" fill="#016BE3"/>
<path d="M21.0586 7.70632L24.8857 11.5412C25.1744 10.4622 24.8663 9.31131 24.0775 8.52075C23.2885 7.7302 22.1382 7.41995 21.0586 7.70632V7.70632Z" fill="#016BE3"/>
<path d="M27.1094 5.97869C27.5399 5.97869 27.4458 5.97869 30.013 3.4039C30.3198 3.09706 30.3198 2.59946 30.013 2.29263C29.7061 1.98579 29.2086 1.98579 28.9017 2.29263L26.5539 4.64048C26.328 4.86452 26.2601 5.20255 26.3822 5.49631C26.5041 5.79005 26.7915 5.98055 27.1094 5.97871L27.1094 5.97869Z" fill="#016BE3"/>
<path d="M23.196 4.41299V1.28244C23.196 0.850339 22.8457 0.5 22.4133 0.5C21.9812 0.5 21.6309 0.850346 21.6309 1.28244V4.41299C21.6309 4.84509 21.9812 5.1957 22.4133 5.1957C22.8457 5.1957 23.196 4.84509 23.196 4.41299Z" fill="#016BE3"/>
</g>
<defs>
<clipPath id="clip0_1597_61">
<rect width="37" height="37" fill="white"/>
</clipPath>
</defs>
</svg>
