<svg width="37" height="37" viewBox="0 0 37 37" fill="none" xmlns="http://www.w3.org/2000/svg">
<path d="M19.436 24.4283L25.0602 24.4155L25.8059 27.0266H18.6935L19.436 24.4283ZM21.8473 14.9871C21.9986 14.8359 21.9986 14.5893 21.8473 14.438C21.6961 14.2868 21.4495 14.2868 21.2982 14.438L18.7068 17.0299C18.5556 17.1812 18.5556 17.4277 18.7068 17.579L21.2982 20.1709C21.4495 20.3221 21.6961 20.3221 21.8473 20.1709C21.9986 20.0196 21.9986 19.773 21.8473 19.6218L19.5304 17.3044L21.8473 14.9871ZM29.5991 14.438C29.4478 14.2868 29.2012 14.2868 29.05 14.438C28.8987 14.5893 28.8987 14.8359 29.05 14.9871L31.3669 17.3044L29.05 19.6218C28.8987 19.773 28.8987 20.0196 29.05 20.1709C29.2012 20.3221 29.4478 20.3221 29.5991 20.1709L32.1905 17.579C32.3417 17.4277 32.3417 17.1812 32.1905 17.0299L29.5991 14.438ZM26.8234 20.3693C26.9362 20.5508 27.1754 20.6067 27.3569 20.494C27.5384 20.3812 27.5943 20.142 27.4816 19.9605L24.0739 14.5082C23.9611 14.3267 23.7219 14.2707 23.5404 14.3835C23.3589 14.4962 23.303 14.7355 23.4157 14.917L26.8234 20.3693ZM6.09123 18.6753C5.41473 19.3518 5.07602 20.2391 5.07602 21.1256C5.07602 22.0111 5.41519 22.8975 6.09077 23.5735C6.76727 24.2518 7.65505 24.591 8.54147 24.591C9.42788 24.591 10.3161 24.2518 11.0041 23.563C11.676 22.8773 12.0074 22.0005 12.0074 21.1256C12.0074 20.2401 11.6687 19.3541 10.9926 18.6776C10.3161 17.9993 9.42788 17.6601 8.54147 17.6601C7.65505 17.6601 6.76727 17.9993 6.09123 18.6753ZM14.5419 23.6267C14.6643 23.3333 14.7606 23.0441 14.8357 22.7508L16.0833 22.6225C16.2822 22.6023 16.4307 22.4332 16.4307 22.2375L16.4321 20.0136C16.4321 19.8028 16.263 19.6305 16.0531 19.6254L14.8357 19.5008C14.7606 19.2084 14.6643 18.9196 14.5474 18.6368C14.4324 18.3582 14.2967 18.0859 14.1418 17.8233L14.9329 16.8507C15.0589 16.6953 15.0443 16.4703 14.9054 16.3323L13.3329 14.7602C13.1885 14.6168 12.958 14.6113 12.8062 14.7424L11.8438 15.5257C11.582 15.3707 11.3098 15.2355 11.0311 15.12C10.7493 15.0027 10.4596 14.9065 10.1663 14.8313L10.0379 13.5842C10.0178 13.3853 9.84863 13.2368 9.65292 13.2368L8.92739 13.2363L8.92372 9.9308H20.377L23.896 11.2169C23.9451 11.2389 23.9992 11.2513 24.056 11.2513H35.5762V22.6908C35.5762 22.9479 35.4708 23.1826 35.3016 23.3521C35.1316 23.5213 34.8969 23.6267 34.6398 23.6267H14.5419ZM3.25048 18.9324C3.38203 18.6139 3.54565 18.3022 3.73999 18.0043C3.82844 17.8673 3.82386 17.683 3.71569 17.5497L2.97182 16.6348L4.05073 15.5559L4.95319 16.2902C5.08015 16.402 5.27081 16.4208 5.41977 16.3241C5.71769 16.1302 6.02889 15.9666 6.34698 15.835C6.67102 15.7012 7.00881 15.5972 7.35301 15.5243C7.51297 15.4899 7.64039 15.3561 7.65781 15.1847L7.77881 14.0118H9.30367L9.42422 15.181C9.4398 15.346 9.56034 15.489 9.73084 15.5243C10.0718 15.5962 10.4092 15.6998 10.7341 15.8346C11.0536 15.9661 11.3657 16.1297 11.6632 16.3241C11.8002 16.4125 11.9845 16.4079 12.1178 16.2998L13.0331 15.555L14.1125 16.6339L13.3773 17.5377C13.2655 17.6647 13.2467 17.8554 13.3434 18.0043C13.5377 18.3018 13.7009 18.6134 13.8325 18.9311C13.9667 19.256 14.0708 19.5934 14.1427 19.9362C14.1767 20.0966 14.3105 20.2249 14.4824 20.2424L15.6557 20.3629V21.8882L14.486 22.0088C14.321 22.0243 14.178 22.1449 14.1427 22.3154C14.0712 22.6559 13.9672 22.9928 13.8325 23.3182C13.7646 23.4828 13.6885 23.6455 13.6037 23.8054C13.5923 23.8233 13.5831 23.8407 13.5744 23.86C13.5034 23.9915 13.4259 24.1203 13.343 24.2473C13.2545 24.3843 13.2591 24.5685 13.3672 24.7019L14.1125 25.6177L13.0336 26.6966L12.1297 25.9614C12.0028 25.8491 11.8121 25.8303 11.6632 25.927C11.3653 26.1214 11.0531 26.285 10.7355 26.4165C10.411 26.5508 10.0737 26.6549 9.7313 26.7268C9.57088 26.7607 9.44255 26.8946 9.42513 27.0665L9.30413 28.2398H7.77881L7.65826 27.0701C7.64268 26.9051 7.52214 26.7621 7.35164 26.7268C7.0111 26.6553 6.67469 26.5513 6.34927 26.4165C6.02935 26.285 5.71814 26.1214 5.42023 25.9275C5.28319 25.839 5.09894 25.8436 4.96556 25.9518L4.05028 26.6966L2.97091 25.6177L3.70607 24.7143C3.8179 24.5873 3.83669 24.3967 3.73999 24.2477C3.54657 23.9512 3.38295 23.6391 3.25003 23.3182C3.11528 22.9942 3.0117 22.6573 2.93974 22.3149C2.90582 22.1545 2.77199 22.0262 2.60011 22.0088L1.42724 21.8882V20.3634L2.5969 20.2428C2.7619 20.2272 2.90491 20.1067 2.9402 19.9362C3.0117 19.5956 3.11573 19.2588 3.25048 18.9324ZM29.8012 9.43626C30.1243 9.43626 30.3851 9.17547 30.3851 8.85418C30.3851 8.53289 30.1243 8.2721 29.803 8.2721C29.4781 8.2721 29.2173 8.53289 29.2173 8.85418C29.2173 9.17547 29.4781 9.43626 29.8012 9.43626ZM31.8261 9.43626C32.1492 9.43626 32.41 9.17547 32.41 8.85418C32.41 8.53289 32.1492 8.2721 31.8279 8.2721C31.5025 8.2721 31.2417 8.53289 31.2417 8.85418C31.2417 9.17547 31.5025 9.43626 31.8261 9.43626ZM33.851 9.43626C34.1741 9.43626 34.4349 9.17547 34.4349 8.85418C34.4349 8.53289 34.1741 8.2721 33.8528 8.2721C33.5274 8.2721 33.2666 8.53289 33.2666 8.85418C33.2666 9.17547 33.5274 9.43626 33.851 9.43626ZM35.5762 10.4748H24.1215L20.5745 9.17868C20.531 9.16264 20.4865 9.15531 20.4425 9.15531L8.9228 9.15439L8.92143 8.02414C8.92326 7.76702 9.02913 7.53281 9.20743 7.35406C9.38526 7.18494 9.61305 7.08594 9.85872 7.08594L34.6398 7.08777C34.8965 7.08777 35.1311 7.19365 35.3103 7.37239C35.4785 7.54839 35.5762 7.77527 35.5762 8.02414V10.4748ZM16.7919 27.803H27.708C27.9656 27.803 28.2002 27.908 28.3698 28.0771C28.5385 28.2467 28.6439 28.4813 28.6439 28.7389V29.9081H15.856V28.7389C15.856 28.4813 15.9614 28.2467 16.1301 28.0771C16.2997 27.908 16.5343 27.803 16.7919 27.803Z" fill="#016BE3"/>
</svg>
