<svg width="32" height="32" viewBox="0 0 32 32" fill="none" xmlns="http://www.w3.org/2000/svg">
<path d="M31.5054 17.503C30.5562 17.4807 29.6134 17.6628 28.7408 18.0368C27.9828 18.3645 27.1628 18.5236 26.3373 18.5032C25.5117 18.5236 24.6916 18.3645 23.9335 18.0368C23.4558 17.8358 22.9572 17.6888 22.4469 17.5985C22.4843 17.7301 22.5035 17.8662 22.5039 18.0031V18.6283C22.8691 18.7117 23.2266 18.8259 23.5726 18.9696C24.4453 19.3436 25.3881 19.5256 26.3373 19.5033C27.2863 19.5256 28.2291 19.3436 29.1017 18.9695C29.8597 18.6418 30.6798 18.4827 31.5054 18.5032C31.638 18.5032 31.7652 18.4505 31.859 18.3567C31.9528 18.2629 32.0055 18.1357 32.0055 18.0031C32.0055 17.8704 31.9528 17.7432 31.859 17.6495C31.7652 17.5557 31.638 17.503 31.5054 17.503Z" fill="#016BE3"/>
<path d="M31.5054 20.0034C30.5562 19.9811 29.6134 20.1632 28.7408 20.5372C27.9828 20.8649 27.1628 21.024 26.3373 21.0036C25.5117 21.0241 24.6916 20.8649 23.9335 20.5372C23.4735 20.3442 22.9942 20.2006 22.5039 20.1087V20.5035C22.5039 20.7101 22.4609 20.9145 22.3777 21.1036C22.7872 21.1858 23.1875 21.3085 23.5726 21.47C24.4453 21.844 25.3881 22.026 26.3373 22.0038C27.2863 22.0261 28.2291 21.844 29.1017 21.47C29.8597 21.1423 30.6798 20.9831 31.5054 21.0036C31.638 21.0036 31.7652 20.9509 31.859 20.8571C31.9528 20.7633 32.0055 20.6361 32.0055 20.5035C32.0055 20.3709 31.9528 20.2437 31.859 20.1499C31.7652 20.0561 31.638 20.0034 31.5054 20.0034Z" fill="#016BE3"/>
<path d="M31.7554 2.31789C31.6795 2.27368 31.5932 2.25038 31.5054 2.25038C31.4175 2.25038 31.3313 2.27368 31.2554 2.31789L17.1129 10.5018H17.753C18.1057 10.5022 18.4554 10.5657 18.7857 10.6893L20.191 9.87668H25.1443L20.706 12.9797C20.7371 13.1522 20.753 13.3271 20.7536 13.5023V14.1674L31.0053 6.99869V16.0027C31.0053 16.1354 31.058 16.2626 31.1518 16.3563C31.2456 16.4501 31.3728 16.5028 31.5054 16.5028C31.638 16.5028 31.7652 16.4501 31.859 16.3563C31.9528 16.2626 32.0055 16.1354 32.0055 16.0027V2.75046C32.0056 2.66272 31.9826 2.5765 31.9387 2.50054C31.8947 2.42457 31.8315 2.36156 31.7554 2.31789ZM21.9188 8.87651L27.9573 5.38092L26.407 8.87651H21.9188ZM31.0053 5.77848L27.9173 7.93885L29.4275 4.53077L31.0053 3.61811V5.77848Z" fill="#016BE3"/>
<path d="M31.5054 25.0043C30.5562 24.982 29.6134 25.164 28.7408 25.5381C27.9828 25.8658 27.1628 26.0249 26.3373 26.0045C25.5117 26.0249 24.6916 25.8658 23.9335 25.5381C23.061 25.164 22.1182 24.982 21.1692 25.0043C20.2202 24.982 19.2775 25.164 18.405 25.5381C17.6472 25.8658 16.8272 26.0249 16.0018 26.0045C15.1764 26.0249 14.3564 25.8658 13.5985 25.5381C12.7261 25.1641 11.7835 24.982 10.8346 25.0043C9.88562 24.982 8.94293 25.164 8.07047 25.5381C7.31262 25.8658 6.49263 26.0249 5.66722 26.0045C4.84189 26.0249 4.02198 25.8658 3.26422 25.5381C2.39176 25.164 1.44908 24.982 0.500086 25.0043C0.367455 25.0043 0.240256 25.057 0.146472 25.1508C0.0526875 25.2445 0 25.3717 0 25.5044C0 25.637 0.0526875 25.7642 0.146472 25.858C0.240256 25.9518 0.367455 26.0045 0.500086 26.0045C1.32549 25.984 2.14549 26.1431 2.90333 26.4708C3.77571 26.8448 4.71831 27.0269 5.66722 27.0046C6.61621 27.0269 7.55891 26.8449 8.43137 26.4708C9.18921 26.1431 10.0092 25.984 10.8346 26.0045C11.6599 25.984 12.4799 26.1431 13.2376 26.4708C14.1101 26.8449 15.0528 27.0269 16.0018 27.0046C16.9508 27.0269 17.8934 26.8449 18.7659 26.4708C19.5238 26.1431 20.3437 25.984 21.1692 26.0045C21.9946 25.984 22.8147 26.1432 23.5726 26.4708C24.4453 26.8449 25.3881 27.0269 26.3373 27.0046C27.2863 27.0269 28.2291 26.8449 29.1017 26.4708C29.8597 26.1431 30.6798 25.984 31.5054 26.0045C31.638 26.0045 31.7652 25.9518 31.859 25.858C31.9528 25.7642 32.0055 25.637 32.0055 25.5044C32.0055 25.3717 31.9528 25.2445 31.859 25.1508C31.7652 25.057 31.638 25.0043 31.5054 25.0043Z" fill="#016BE3" fill-opacity="0.58"/>
<path d="M31.5054 27.5047C30.5562 27.4824 29.6134 27.6645 28.7408 28.0385C27.9828 28.3662 27.1628 28.5253 26.3373 28.5049C25.5117 28.5253 24.6916 28.3662 23.9335 28.0385C23.061 27.6645 22.1182 27.4824 21.1692 27.5047C20.2202 27.4824 19.2775 27.6645 18.405 28.0385C17.6472 28.3662 16.8272 28.5253 16.0018 28.5049C15.1764 28.5253 14.3564 28.3662 13.5985 28.0385C12.7261 27.6645 11.7835 27.4824 10.8346 27.5047C9.88562 27.4824 8.94293 27.6645 8.07047 28.0385C7.31262 28.3662 6.49263 28.5253 5.66722 28.5049C4.84189 28.5253 4.02198 28.3662 3.26422 28.0385C2.39176 27.6645 1.44908 27.4824 0.500086 27.5047C0.367455 27.5047 0.240256 27.5574 0.146472 27.6512C0.0526875 27.745 0 27.8722 0 28.0048C0 28.1374 0.0526875 28.2646 0.146472 28.3584C0.240256 28.4522 0.367455 28.5049 0.500086 28.5049C1.32549 28.4844 2.14549 28.6435 2.90333 28.9713C3.77571 29.3453 4.71831 29.5273 5.66722 29.5051C6.61621 29.5273 7.55891 29.3453 8.43137 28.9713C9.18921 28.6436 10.0092 28.4844 10.8346 28.5049C11.6599 28.4844 12.4799 28.6436 13.2376 28.9713C14.1101 29.3453 15.0528 29.5273 16.0018 29.5051C16.9508 29.5273 17.8934 29.3453 18.7659 28.9713C19.5238 28.6436 20.3437 28.4844 21.1692 28.5049C21.9946 28.4844 22.8147 28.6436 23.5726 28.9713C24.4453 29.3453 25.3881 29.5273 26.3373 29.5051C27.2863 29.5273 28.2291 29.3453 29.1017 28.9713C29.8597 28.6436 30.6798 28.4844 31.5054 28.5049C31.638 28.5049 31.7652 28.4522 31.859 28.3584C31.9528 28.2646 32.0055 28.1374 32.0055 28.0048C32.0055 27.8722 31.9528 27.745 31.859 27.6512C31.7652 27.5574 31.638 27.5047 31.5054 27.5047Z" fill="#016BE3" fill-opacity="0.58"/>
<path d="M31.5054 30.0051C30.5562 29.9829 29.6134 30.1649 28.7408 30.5389C27.9828 30.8666 27.1628 31.0257 26.3373 31.0053C25.5117 31.0258 24.6916 30.8666 23.9335 30.5389C23.061 30.1649 22.1182 29.9829 21.1692 30.0051C20.2202 29.9829 19.2775 30.1649 18.405 30.5389C17.6472 30.8666 16.8272 31.0258 16.0018 31.0053C15.1764 31.0258 14.3564 30.8666 13.5985 30.5389C12.7261 30.1649 11.7835 29.9829 10.8346 30.0051C9.88562 29.9829 8.94293 30.1649 8.07047 30.5389C7.31262 30.8666 6.49263 31.0258 5.66722 31.0053C4.84189 31.0258 4.02198 30.8666 3.26422 30.5389C2.39176 30.1649 1.44908 29.9829 0.500086 30.0051C0.367455 30.0051 0.240256 30.0578 0.146472 30.1516C0.0526875 30.2454 0 30.3726 0 30.5052C0 30.6379 0.0526875 30.7651 0.146472 30.8588C0.240256 30.9526 0.367455 31.0053 0.500086 31.0053C1.32549 30.9848 2.14549 31.144 2.90333 31.4717C3.77571 31.8457 4.71831 32.0277 5.66722 32.0055C6.61621 32.0278 7.55891 31.8457 8.43137 31.4717C9.18921 31.144 10.0092 30.9849 10.8346 31.0053C11.6599 30.9849 12.4799 31.144 13.2376 31.4717C14.1101 31.8457 15.0528 32.0278 16.0018 32.0055C16.9508 32.0278 17.8934 31.8457 18.7659 31.4717C19.5238 31.144 20.3437 30.9849 21.1692 31.0053C21.9946 30.9849 22.8147 31.144 23.5726 31.4717C24.4453 31.8457 25.3881 32.0278 26.3373 32.0055C27.2863 32.0278 28.2291 31.8457 29.1017 31.4717C29.8597 31.144 30.6798 30.9849 31.5054 31.0053C31.638 31.0053 31.7652 30.9526 31.859 30.8588C31.9528 30.7651 32.0055 30.6379 32.0055 30.5052C32.0055 30.3726 31.9528 30.2454 31.859 30.1516C31.7652 30.0578 31.638 30.0051 31.5054 30.0051Z" fill="#016BE3" fill-opacity="0.58"/>
<path d="M31.5054 22.5039C30.5561 22.4816 29.613 22.6632 28.7399 23.0364C27.9823 23.3646 27.1624 23.5242 26.337 23.504C25.5116 23.5242 24.6917 23.3646 23.9341 23.0364C23.0611 22.6629 22.118 22.4813 21.1686 22.5039C20.5221 22.4915 19.8772 22.5715 19.2533 22.7414V21.0036H21.0036C21.1361 21.0032 21.2631 20.9504 21.3568 20.8567C21.4505 20.763 21.5033 20.636 21.5037 20.5035V18.0031C21.5033 17.8706 21.4505 17.7436 21.3568 17.6499C21.2631 17.5562 21.1361 17.5034 21.0036 17.503H19.7534V13.5023C19.7527 12.972 19.5417 12.4636 19.1667 12.0886C18.7917 11.7137 18.2833 11.5027 17.753 11.502H15.2526C14.7223 11.5027 14.2139 11.7137 13.8389 12.0886C13.4639 12.4636 13.253 12.972 13.2523 13.5023V17.503H12.2521V11.0019C12.2518 10.6041 12.0936 10.2227 11.8123 9.94139C11.5311 9.66011 11.1496 9.50195 10.7518 9.50163H8.00137V10.5018H10.7518C10.8844 10.5022 11.0113 10.555 11.105 10.6487C11.1987 10.7424 11.2515 10.8694 11.2519 11.0019V11.502H9.87669C9.74406 11.502 9.61686 11.5547 9.52308 11.6484C9.42929 11.7422 9.37661 11.8694 9.37661 12.0021C9.37661 12.1347 9.42929 12.2619 9.52308 12.3557C9.61686 12.4495 9.74406 12.5021 9.87669 12.5021H11.2519V13.5023H9.87669C9.74406 13.5023 9.61686 13.555 9.52308 13.6488C9.42929 13.7426 9.37661 13.8698 9.37661 14.0024C9.37661 14.135 9.42929 14.2622 9.52308 14.356C9.61686 14.4498 9.74406 14.5025 9.87669 14.5025H11.2519V15.5027H9.87669C9.74406 15.5027 9.61686 15.5553 9.52308 15.6491C9.42929 15.7429 9.37661 15.8701 9.37661 16.0027C9.37661 16.1354 9.42929 16.2626 9.52308 16.3564C9.61686 16.4501 9.74406 16.5028 9.87669 16.5028H11.2519V17.503H7.0012V7.0012C7.00088 6.60341 6.84272 6.22199 6.56144 5.94071C6.28015 5.65942 5.89874 5.50126 5.50094 5.50095H1.50026C1.10246 5.50126 0.721048 5.65942 0.439763 5.94071C0.158479 6.22199 0.00031521 6.60341 0 7.0012L0 20.5035C0.000389845 20.636 0.0532025 20.763 0.146902 20.8567C0.240602 20.9504 0.367575 21.0032 0.500086 21.0036H2.25039V22.6989C1.67756 22.5601 1.08942 22.4945 0.500086 22.5039C0.367455 22.5039 0.240256 22.5565 0.146472 22.6503C0.0526875 22.7441 0 22.8713 0 23.0039C0 23.1366 0.0526875 23.2638 0.146472 23.3576C0.240256 23.4513 0.367455 23.504 0.500086 23.504C1.32548 23.4839 2.14539 23.6434 2.903 23.9716C3.70684 24.316 4.57143 24.4963 5.44593 24.5017C5.51845 24.5042 5.59096 24.5042 5.66847 24.5042C5.74348 24.5042 5.816 24.5042 5.88851 24.5017C6.76301 24.4963 7.62761 24.316 8.43144 23.9716C9.12079 23.6726 9.86296 23.5145 10.6143 23.5065C10.6868 23.504 10.7593 23.504 10.8344 23.504C10.9094 23.504 10.9844 23.504 11.0544 23.5065C11.8057 23.5145 12.5479 23.6726 13.2373 23.9716C14.0411 24.316 14.9057 24.4963 15.7802 24.5017C15.8527 24.5042 15.9252 24.5042 16.0027 24.5042C16.0778 24.5042 16.1503 24.5042 16.2228 24.5017C17.0973 24.4963 17.9619 24.316 18.7657 23.9716C19.5233 23.6434 20.3432 23.4839 21.1686 23.504C21.9941 23.4833 22.8141 23.6429 23.5715 23.9716C24.4447 24.3449 25.3877 24.5265 26.337 24.5042C27.2863 24.5268 28.2294 24.3452 29.1025 23.9716C29.8601 23.6434 30.68 23.4839 31.5054 23.504C31.638 23.504 31.7652 23.4513 31.859 23.3576C31.9528 23.2638 32.0055 23.1366 32.0055 23.0039C32.0055 22.8713 31.9528 22.7441 31.859 22.6503C31.7652 22.5565 31.638 22.5039 31.5054 22.5039ZM16.5028 13.5023C16.7995 13.5023 17.0896 13.5903 17.3363 13.7552C17.583 13.92 17.7753 14.1543 17.8889 14.4284C18.0024 14.7026 18.0321 15.0042 17.9743 15.2953C17.9164 15.5863 17.7735 15.8536 17.5637 16.0634C17.3539 16.2732 17.0865 16.4161 16.7955 16.474C16.5045 16.5319 16.2028 16.5022 15.9287 16.3886C15.6546 16.2751 15.4203 16.0828 15.2554 15.8361C15.0906 15.5894 15.0026 15.2993 15.0026 15.0026C15.0029 14.6048 15.161 14.2234 15.4423 13.9421C15.7236 13.6608 16.105 13.5026 16.5028 13.5023ZM2.68796 7.50129H4.31324C4.44587 7.50129 4.57307 7.55398 4.66685 7.64776C4.76064 7.74154 4.81332 7.86874 4.81332 8.00137C4.81332 8.13401 4.76064 8.2612 4.66685 8.35499C4.57307 8.44877 4.44587 8.50146 4.31324 8.50146H2.68796C2.55533 8.50146 2.42813 8.44877 2.33435 8.35499C2.24056 8.2612 2.18787 8.13401 2.18787 8.00137C2.18787 7.86874 2.24056 7.74154 2.33435 7.64776C2.42813 7.55398 2.55533 7.50129 2.68796 7.50129ZM2.68796 9.50163H4.31324C4.44587 9.50163 4.57307 9.55432 4.66685 9.6481C4.76064 9.74189 4.81332 9.86909 4.81332 10.0017C4.81332 10.1343 4.76064 10.2615 4.66685 10.3553C4.57307 10.4491 4.44587 10.5018 4.31324 10.5018H2.68796C2.55533 10.5018 2.42813 10.4491 2.33435 10.3553C2.24056 10.2615 2.18787 10.1343 2.18787 10.0017C2.18787 9.86909 2.24056 9.74189 2.33435 9.6481C2.42813 9.55432 2.55533 9.50163 2.68796 9.50163ZM2.68796 11.502H4.31324C4.43415 11.5019 4.55098 11.5457 4.64204 11.6253C4.73309 11.7048 4.79218 11.8147 4.80832 11.9345C4.81123 11.9569 4.8129 11.9795 4.81332 12.0021C4.81293 12.1346 4.76012 12.2615 4.66642 12.3552C4.57272 12.4489 4.44575 12.5018 4.31324 12.5021H2.68796C2.55533 12.5021 2.42813 12.4495 2.33435 12.3557C2.24056 12.2619 2.18787 12.1347 2.18787 12.0021C2.18787 11.8694 2.24056 11.7422 2.33435 11.6484C2.42813 11.5547 2.55533 11.502 2.68796 11.502ZM2.68796 13.5023H4.31324C4.44587 13.5023 4.57307 13.555 4.66685 13.6488C4.76064 13.7426 4.81332 13.8698 4.81332 14.0024C4.81332 14.135 4.76064 14.2622 4.66685 14.356C4.57307 14.4498 4.44587 14.5025 4.31324 14.5025H2.68796C2.55533 14.5025 2.42813 14.4498 2.33435 14.356C2.24056 14.2622 2.18787 14.135 2.18787 14.0024C2.18787 13.8698 2.24056 13.7426 2.33435 13.6488C2.42813 13.555 2.55533 13.5023 2.68796 13.5023ZM2.68796 15.5027H4.31324C4.44587 15.5027 4.57307 15.5553 4.66685 15.6491C4.76064 15.7429 4.81332 15.8701 4.81332 16.0027C4.81332 16.1354 4.76064 16.2626 4.66685 16.3564C4.57307 16.4501 4.44587 16.5028 4.31324 16.5028H2.68796C2.55533 16.5028 2.42813 16.4501 2.33435 16.3564C2.24056 16.2626 2.18787 16.1354 2.18787 16.0027C2.18787 15.8701 2.24056 15.7429 2.33435 15.6491C2.42813 15.5553 2.55533 15.5027 2.68796 15.5027ZM1.00017 20.0034V18.5032H20.5035V20.0034H1.00017Z" fill="#016BE3"/>
<path d="M16.5028 15.5027C16.779 15.5027 17.0029 15.2788 17.0029 15.0026C17.0029 14.7264 16.779 14.5025 16.5028 14.5025C16.2266 14.5025 16.0027 14.7264 16.0027 15.0026C16.0027 15.2788 16.2266 15.5027 16.5028 15.5027Z" fill="#016BE3"/>
<path d="M6.99481 5.00086H7.31375C7.44626 5.00124 7.57324 5.05406 7.66694 5.14776C7.76064 5.24146 7.81345 5.36843 7.81384 5.50094C7.81407 5.61509 7.77425 5.72569 7.70132 5.8135C7.69741 5.80635 7.69247 5.79991 7.68848 5.79282C7.89394 6.16241 8.00164 6.57834 8.00137 7.0012V8.50146H9.18907C9.05644 8.50146 8.92924 8.44877 8.83546 8.35499C8.74168 8.2612 8.68899 8.134 8.68899 8.00137C8.68899 7.86874 8.74168 7.74154 8.83546 7.64776C8.92924 7.55397 9.05644 7.50128 9.18907 7.50128H10.8144C10.947 7.50128 11.0742 7.55397 11.168 7.64776C11.2618 7.74154 11.3144 7.86874 11.3144 8.00137C11.3144 8.134 11.2618 8.2612 11.168 8.35499C11.0742 8.44877 10.947 8.50146 10.8144 8.50146H10.7518C11.4007 8.50248 12.0237 8.75553 12.4895 9.20721C12.9552 9.65889 13.2273 10.2739 13.2482 10.9223L16.7529 10.5018V0.500086C16.7525 0.367574 16.6997 0.2406 16.606 0.146899C16.5123 0.053199 16.3853 0.00038722 16.2528 0L3.75064 0C3.61813 0.00038722 3.49116 0.053199 3.39746 0.146899C3.30376 0.2406 3.25094 0.367574 3.25056 0.500086V4.50077H5.50094C6.03997 4.50097 6.5643 4.67649 6.99481 5.00086ZM12.6897 2.50043H14.315C14.4476 2.50043 14.5748 2.55312 14.6686 2.6469C14.7624 2.74068 14.815 2.86788 14.815 3.00051C14.815 3.13314 14.7624 3.26034 14.6686 3.35413C14.5748 3.44791 14.4476 3.5006 14.315 3.5006H12.6897C12.557 3.5006 12.4298 3.44791 12.3361 3.35413C12.2423 3.26034 12.1896 3.13314 12.1896 3.00051C12.1896 2.86788 12.2423 2.74068 12.3361 2.6469C12.4298 2.55312 12.557 2.50043 12.6897 2.50043ZM12.6897 5.00086H14.315C14.4476 5.00086 14.5748 5.05354 14.6686 5.14733C14.7624 5.24111 14.815 5.36831 14.815 5.50094C14.815 5.63357 14.7624 5.76077 14.6686 5.85456C14.5748 5.94834 14.4476 6.00103 14.315 6.00103H12.6897C12.557 6.00103 12.4298 5.94834 12.3361 5.85456C12.2423 5.76077 12.1896 5.63357 12.1896 5.50094C12.1896 5.36831 12.2423 5.24111 12.3361 5.14733C12.4298 5.05354 12.557 5.00086 12.6897 5.00086ZM12.6897 7.50128H14.315C14.4476 7.50128 14.5748 7.55397 14.6686 7.64776C14.7624 7.74154 14.815 7.86874 14.815 8.00137C14.815 8.134 14.7624 8.2612 14.6686 8.35499C14.5748 8.44877 14.4476 8.50146 14.315 8.50146H12.6897C12.557 8.50146 12.4298 8.44877 12.3361 8.35499C12.2423 8.2612 12.1896 8.134 12.1896 8.00137C12.1896 7.86874 12.2423 7.74154 12.3361 7.64776C12.4298 7.55397 12.557 7.50128 12.6897 7.50128ZM9.18907 2.50043H10.8144C10.947 2.50043 11.0742 2.55312 11.168 2.6469C11.2618 2.74068 11.3144 2.86788 11.3144 3.00051C11.3144 3.13314 11.2618 3.26034 11.168 3.35413C11.0742 3.44791 10.947 3.5006 10.8144 3.5006H9.18907C9.05644 3.5006 8.92924 3.44791 8.83546 3.35413C8.74168 3.26034 8.68899 3.13314 8.68899 3.00051C8.68899 2.86788 8.74168 2.74068 8.83546 2.6469C8.92924 2.55312 9.05644 2.50043 9.18907 2.50043ZM9.18907 5.00086H10.8144C10.947 5.00086 11.0742 5.05354 11.168 5.14733C11.2618 5.24111 11.3144 5.36831 11.3144 5.50094C11.3144 5.63357 11.2618 5.76077 11.168 5.85456C11.0742 5.94834 10.947 6.00103 10.8144 6.00103H9.18907C9.05644 6.00103 8.92924 5.94834 8.83546 5.85456C8.74168 5.76077 8.68899 5.63357 8.68899 5.50094C8.68899 5.36831 8.74168 5.24111 8.83546 5.14733C8.92924 5.05354 9.05644 5.00086 9.18907 5.00086ZM5.18839 3.00051C5.18878 2.868 5.24159 2.74103 5.33529 2.64733C5.42899 2.55363 5.55596 2.50082 5.68847 2.50043H7.31375C7.44638 2.50043 7.57358 2.55312 7.66737 2.6469C7.76115 2.74068 7.81384 2.86788 7.81384 3.00051C7.81384 3.13314 7.76115 3.26034 7.66737 3.35413C7.57358 3.44791 7.44638 3.5006 7.31375 3.5006H5.68847C5.55596 3.50021 5.42899 3.4474 5.33529 3.3537C5.24159 3.26 5.18878 3.13302 5.18839 3.00051Z" fill="#016BE3" fill-opacity="0.58"/>
</svg>
