<svg width="37" height="37" viewBox="0 0 37 37" fill="none" xmlns="http://www.w3.org/2000/svg">
<path d="M17.1329 25.7991C15.4713 26.748 16.6926 29.4508 18.6895 28.5279C20.4934 27.6942 18.7997 24.8483 17.1329 25.7991Z" fill="#016BE3" fill-opacity="0.58"/>
<path d="M7.76788 25.7991C6.10636 26.748 7.32764 29.4508 9.32453 28.5279C11.1284 27.6942 9.43472 24.8483 7.76788 25.7991Z" fill="#016BE3"/>
<path d="M20.8052 30.1918C20.1372 29.7326 19.7908 29.6491 19.7107 29.6091C19.4455 31.002 16.9637 31.565 16.2196 29.7308C14.8868 30.2488 13.9036 31.2652 13.4226 32.6645C13.652 33.5807 15.9129 35.1453 18.5707 34.7521C20.0553 34.5292 21.3271 33.7489 22.0466 32.7304V32.7253C22.1885 32.5379 22.305 32.3352 22.3962 32.1325C22.376 32.0818 22.3506 32.0362 22.3253 31.9855C21.9454 31.1822 21.4175 30.6815 20.8052 30.1918Z" fill="#016BE3" fill-opacity="0.58"/>
<path d="M26.8667 25.7991C25.2052 26.748 26.4264 29.4508 28.4234 28.5279C30.2272 27.6942 28.5335 24.8483 26.8667 25.7991Z" fill="#016BE3"/>
<path d="M30.61 30.2476C30.3198 29.9577 29.4954 29.6345 29.4446 29.6091C29.1794 31.002 26.6976 31.565 25.9535 29.7308C24.4841 30.3019 23.5823 31.4257 23.1565 32.6645C23.3859 33.5807 25.6468 35.1453 28.3045 34.7521C29.7892 34.5292 31.061 33.7489 31.7805 32.7304V32.7253C31.9224 32.5379 32.0389 32.3352 32.1301 32.1325C31.8973 31.5508 31.3692 30.8275 30.61 30.2476Z" fill="#016BE3"/>
<path d="M11.4362 30.1918C10.7726 29.7284 10.4336 29.6525 10.3468 29.6091C10.0816 31.002 7.59988 31.565 6.85567 29.7308C5.54891 30.2388 4.54923 31.2374 4.05872 32.6645C4.28288 33.5615 6.52465 35.1493 9.20169 34.7521C10.6914 34.5292 11.9632 33.7438 12.6827 32.7253C12.6726 32.7051 12.6675 32.6848 12.6624 32.6645C12.7522 32.4034 12.913 32.0795 12.9563 31.9855C12.5818 31.1803 12.0573 30.6885 11.4362 30.1918Z" fill="#016BE3"/>
<path d="M17.1032 14.4063C20.7087 18.0134 22.9994 7.8873 21.6128 5.6303C21.0605 4.74358 20.1332 4.15582 19.054 4.02915C18.1976 3.92273 17.3261 4.1102 16.5661 4.55103C15.2081 5.34655 14.5697 7.13521 14.7217 9.72443C14.7217 11.6981 15.714 13.0653 17.1032 14.4063ZM16.333 7.2416C18.1011 7.90512 19.643 7.71833 20.5791 7.2112C20.8614 7.8271 21.0395 8.82569 20.8477 10.0487C20.4994 12.2598 19.7385 13.1128 19.7127 13.1902C19.6619 13.2411 19.1556 14.0718 18.5422 14.1276C18.5315 14.1276 18.5295 14.1276 18.5219 14.1276C18.2313 14.1276 17.9419 13.8685 17.3464 13.2105C17.3036 13.1249 17.4631 13.3777 16.8346 12.6329C16.7991 12.5214 16.7232 12.4302 16.6269 12.3694C16.0341 11.5793 15.7708 10.5979 15.7402 9.73962C15.9698 9.01637 16.0692 7.96701 16.333 7.2416Z" fill="#016BE3"/>
<path d="M14.4786 20.7096C15.6251 21.316 17.2841 21.794 18.5474 21.794C19.9847 21.794 20.8543 21.2238 22.0537 20.4867C22.9553 19.9217 24.6826 19.7039 25.3827 18.8602C26.4155 17.5892 24.6086 16.8507 21.5926 13.9857C20.8478 15.2424 19.8293 16.1392 18.5676 16.1392C17.2788 16.1308 16.3831 15.2235 15.4717 14.1631C13.7861 15.8474 11.8496 15.8465 11.636 16.4635C11.151 17.8712 13.0016 19.9281 14.4786 20.7096Z" fill="#016BE3"/>
<path d="M26.2329 13.1096L27.18 12.7489C26.9609 12.1828 26.64 11.3994 26.5666 10.7991C28.3432 11.9967 29.7318 13.8129 30.3944 15.8477C31.0956 17.9972 31.0085 20.4315 30.1559 22.5263L31.0941 22.9083C32.0357 20.5953 32.1322 17.9072 31.3583 15.5335C30.6853 13.4689 29.3396 11.6018 27.6034 10.2861C28.2397 10.3557 28.8331 10.5022 29.4493 10.5756L29.569 9.56914C28.7032 9.46659 27.6806 9.16463 26.701 9.25666C25.9741 9.32459 25.6501 9.31577 25.5689 10.1283C25.611 10.3912 25.2049 10.468 26.2329 13.1096Z" fill="#016BE3" fill-opacity="0.58"/>
<path d="M5.6948 22.6335C5.89224 22.3768 6.64371 22.4691 7.84877 19.3632L6.90366 18.9965C6.70418 19.5107 6.41607 20.2502 6.04987 20.8395C5.5373 18.7648 5.72316 16.4928 6.59093 14.5426C7.50932 12.4767 9.20359 10.727 11.2398 9.74235L10.7984 8.8299C8.54993 9.91752 6.67901 11.8496 5.66462 14.1309C4.78523 16.1089 4.5342 18.3884 4.9372 20.5223C4.50281 20.0058 4.15168 19.5368 3.76302 19.092L3 19.759C3.21376 20.0032 3.42555 20.2682 3.6403 20.5367C5.1577 22.431 5.37627 22.334 5.6948 22.6335Z" fill="#016BE3" fill-opacity="0.58"/>
</svg>
