<svg width="30" height="30" viewBox="0 0 30 30" fill="none" xmlns="http://www.w3.org/2000/svg">
<path d="M15.9221 24.5794C15.669 24.5794 15.4638 24.7847 15.4638 25.0378V25.8761C15.4638 26.1292 15.669 26.3345 15.9221 26.3345C16.1753 26.3345 16.3805 26.1292 16.3805 25.8761V25.0378C16.3805 24.7847 16.1753 24.5794 15.9221 24.5794ZM13.2402 24.5794C12.9871 24.5794 12.7819 24.7847 12.7819 25.0378V25.8761C12.7819 26.1292 12.9871 26.3345 13.2402 26.3345C13.4933 26.3345 13.6986 26.1292 13.6986 25.8761V25.0378C13.6986 24.7847 13.4933 24.5794 13.2402 24.5794ZM26.8865 13.6495V28.8472C26.8865 29.4813 26.3678 30 25.7337 30H21.5086V21.3507C21.5086 21.1103 21.3119 20.9136 21.0715 20.9136H15.0395V29.9997H14.1228V20.9136H8.09051C7.85018 20.9136 7.65347 21.1103 7.65347 21.3507V30H3.42864C2.79456 30 2.27588 29.4813 2.27588 28.8472V13.6495C3.21225 13.5784 4.05617 13.0626 4.55649 12.2728C5.09975 13.1305 6.0417 13.658 7.06266 13.658C8.08362 13.658 9.02557 13.1305 9.56884 12.2728C10.1121 13.1305 11.0541 13.658 12.075 13.658C13.096 13.658 14.0379 13.1305 14.5812 12.2728C15.1245 13.1305 16.0664 13.658 17.0874 13.658C18.1083 13.658 19.0503 13.1305 19.5935 12.2728C20.1368 13.1305 21.0788 13.658 22.0997 13.658C23.1207 13.658 24.0626 13.1305 24.6059 12.2728C25.1062 13.0623 25.9501 13.578 26.8865 13.6495ZM21.5086 16.995C21.5086 16.8724 21.4083 16.7721 21.2856 16.7721H7.87609C7.75347 16.7721 7.65314 16.8724 7.65314 16.995V18.3943C7.65314 18.517 7.75347 18.6173 7.87609 18.6173H21.2856C21.4083 18.6173 21.5086 18.517 21.5086 18.3943V16.995Z" fill="#016BE3"/>
<path d="M5.20612 7.32312L7.81852 0H10.4916L9.18538 7.32312H5.20612ZM28.8551 7.32312L25.1054 0.315403C24.9955 0.110162 24.8073 0 24.5752 0H22.3162L24.9286 7.32312H28.8551ZM20.0517 10.6935C20.0517 11.8191 20.974 12.7414 22.0995 12.7414C23.2251 12.7414 24.1473 11.8188 24.1473 10.6935V8.23982H20.0517V10.6935ZM5.01432 10.6935C5.01432 11.8191 5.93659 12.7414 7.06214 12.7414C8.18769 12.7414 9.10997 11.8188 9.10997 10.6935V8.23982H5.01432V10.6935ZM10.027 10.6935C10.027 11.8191 10.9496 12.7414 12.0748 12.7414C13.2004 12.7414 14.1226 11.8188 14.1226 10.6935V8.23982H10.027V10.6935ZM23.9559 7.32312L21.3435 0H18.6704L19.9766 7.32312H23.9559ZM17.7403 0H15.0393V7.32312H19.0465L17.7403 0ZM14.1226 7.32312V0H11.4217L10.1155 7.32312H14.1226ZM17.0872 12.7414C18.2127 12.7414 19.135 11.8188 19.135 10.6935V8.23982H15.0393V10.6935C15.0393 11.8188 15.9616 12.7414 17.0872 12.7414ZM25.064 8.23982V10.6935C25.064 11.8191 25.9867 12.7414 27.1119 12.7414C28.2374 12.7414 29.1597 11.8188 29.1597 10.6935V8.23982H25.064ZM6.84543 0H4.58646C4.35433 0 4.16614 0.110162 4.05631 0.315403L0.306551 7.32312H4.23302L6.84543 0ZM4.09762 10.6935V8.23982H0L0.00196703 10.6935C0.00196703 11.8191 0.924242 12.7414 2.04979 12.7414C3.17534 12.7414 4.09762 11.8188 4.09762 10.6935Z" fill="#016BE3" fill-opacity="0.58"/>
</svg>
