<svg width="35" height="35" viewBox="0 0 35 35" fill="none" xmlns="http://www.w3.org/2000/svg">
<path d="M15.1667 29.75V18.6667H14V17.5C13.9986 17.0363 13.8138 16.592 13.4859 16.2641C13.158 15.9362 12.7137 15.7514 12.25 15.75H9.91667C9.45296 15.7514 9.00865 15.9362 8.68076 16.2641C8.35287 16.592 8.16805 17.0363 8.16667 17.5V18.6667H1.75C1.2863 18.6681 0.841982 18.8529 0.514093 19.1808C0.186204 19.5086 0.00138489 19.953 0 20.4167V33.25C0.00138489 33.7137 0.186204 34.158 0.514093 34.4859C0.841982 34.8138 1.2863 34.9986 1.75 35H18.2467C17.8815 34.5588 17.6435 34.0264 17.5583 33.46C16.8456 33.1364 16.2412 32.6145 15.8171 31.9566C15.393 31.2987 15.1672 30.5327 15.1667 29.75ZM9.33333 17.5C9.33333 17.3453 9.39479 17.1969 9.50419 17.0875C9.61358 16.9781 9.76196 16.9167 9.91667 16.9167H12.25C12.4047 16.9167 12.5531 16.9781 12.6625 17.0875C12.7719 17.1969 12.8333 17.3453 12.8333 17.5V18.6667H9.33333V17.5ZM4.66667 19.8333H5.83333V21.5833C5.77237 21.4833 5.68669 21.4006 5.58453 21.3432C5.48237 21.2858 5.36717 21.2557 5.25 21.2557C5.13283 21.2557 5.01763 21.2858 4.91547 21.3432C4.81331 21.4006 4.72763 21.4833 4.66667 21.5833V19.8333ZM2.33333 19.8333H3.5V22.75L2.33333 23.9167V19.8333ZM3.5 33.8333H2.33333V29.75L3.5 28.5833V33.8333ZM5.83333 33.8333H4.66667V27.4167L5.83333 26.25V33.8333ZM1.16667 29.2658V26.7342L5.25 22.6508L6.51583 23.9167L1.16667 29.2658ZM9.625 31.5C9.33657 31.5 9.05461 31.4145 8.81479 31.2542C8.57497 31.094 8.38805 30.8662 8.27767 30.5997C8.1673 30.3333 8.13842 30.04 8.19469 29.7572C8.25096 29.4743 8.38985 29.2144 8.5938 29.0105C8.79775 28.8065 9.0576 28.6676 9.34049 28.6114C9.62338 28.5551 9.9166 28.584 10.1831 28.6943C10.4496 28.8047 10.6773 28.9916 10.8376 29.2315C10.9978 29.4713 11.0833 29.7532 11.0833 30.0417C11.0833 30.4284 10.9297 30.7994 10.6562 31.0729C10.3827 31.3464 10.0118 31.5 9.625 31.5ZM13.93 24.57L12.9558 25.5442C12.8457 25.6535 12.6968 25.7148 12.5417 25.7148C12.3865 25.7148 12.2376 25.6535 12.1275 25.5442L10.9667 24.3833C10.9113 24.3295 10.8672 24.2651 10.8372 24.194C10.8071 24.1228 10.7916 24.0464 10.7916 23.9692C10.7916 23.8919 10.8071 23.8155 10.8372 23.7443C10.8672 23.6732 10.9113 23.6088 10.9667 23.555L11.9408 22.5808C12.0501 22.4722 12.198 22.4112 12.3521 22.4112C12.5062 22.4112 12.654 22.4722 12.7633 22.5808L13.93 23.7475C14.0386 23.8568 14.0996 24.0046 14.0996 24.1588C14.0996 24.3129 14.0386 24.4607 13.93 24.57Z" fill="#016BE3" fill-opacity="0.58"/>
<path d="M32.0835 8.75H29.1668V1.75C29.1668 1.28587 28.9825 0.840752 28.6543 0.512563C28.3261 0.184375 27.881 0 27.4168 0H23.9168C23.4527 0 23.0076 0.184375 22.6794 0.512563C22.3512 0.840752 22.1668 1.28587 22.1668 1.75V8.75H19.2502C18.4766 8.75 17.7347 9.05729 17.1878 9.60427C16.6408 10.1513 16.3335 10.8931 16.3335 11.6667V29.75C16.335 30.4273 16.5721 31.083 17.0043 31.6046C17.4364 32.1261 18.0366 32.481 18.7018 32.6083C18.6815 32.724 18.6698 32.841 18.6668 32.9583C18.6668 33.4998 18.8819 34.0191 19.2648 34.402C19.6477 34.7849 20.167 35 20.7085 35C21.25 35 21.7693 34.7849 22.1522 34.402C22.5351 34.0191 22.7502 33.4998 22.7502 32.9583C22.7465 32.8606 22.7368 32.7632 22.721 32.6667H28.6127C28.5969 32.7632 28.5871 32.8606 28.5835 32.9583C28.5835 33.4998 28.7986 34.0191 29.1815 34.402C29.5644 34.7849 30.0837 35 30.6252 35C31.1666 35 31.686 34.7849 32.0688 34.402C32.4517 34.0191 32.6668 33.4998 32.6668 32.9583C32.6638 32.841 32.6521 32.724 32.6318 32.6083C33.2971 32.481 33.8973 32.1261 34.3294 31.6046C34.7615 31.083 34.9987 30.4273 35.0002 29.75V11.6667C35.0002 10.8931 34.6929 10.1513 34.1459 9.60427C33.5989 9.05729 32.857 8.75 32.0835 8.75ZM21.0002 28.5833C21.0002 28.738 20.9387 28.8864 20.8293 28.9958C20.7199 29.1052 20.5715 29.1667 20.4168 29.1667C20.2621 29.1667 20.1137 29.1052 20.0043 28.9958C19.895 28.8864 19.8335 28.738 19.8335 28.5833V12.8333C19.8335 12.6786 19.895 12.5302 20.0043 12.4209C20.1137 12.3115 20.2621 12.25 20.4168 12.25C20.5715 12.25 20.7199 12.3115 20.8293 12.4209C20.9387 12.5302 21.0002 12.6786 21.0002 12.8333V28.5833ZM24.5002 28.5833C24.5002 28.738 24.4387 28.8864 24.3293 28.9958C24.2199 29.1052 24.0715 29.1667 23.9168 29.1667C23.7621 29.1667 23.6137 29.1052 23.5043 28.9958C23.395 28.8864 23.3335 28.738 23.3335 28.5833V12.8333C23.3335 12.6786 23.395 12.5302 23.5043 12.4209C23.6137 12.3115 23.7621 12.25 23.9168 12.25C24.0715 12.25 24.2199 12.3115 24.3293 12.4209C24.4387 12.5302 24.5002 12.6786 24.5002 12.8333V28.5833ZM28.0002 28.5833C28.0002 28.738 27.9387 28.8864 27.8293 28.9958C27.7199 29.1052 27.5715 29.1667 27.4168 29.1667C27.2621 29.1667 27.1137 29.1052 27.0043 28.9958C26.895 28.8864 26.8335 28.738 26.8335 28.5833V21C26.8335 20.8453 26.895 20.6969 27.0043 20.5875C27.1137 20.4781 27.2621 20.4167 27.4168 20.4167C27.5715 20.4167 27.7199 20.4781 27.8293 20.5875C27.9387 20.6969 28.0002 20.8453 28.0002 21V28.5833ZM28.0002 18.0833C28.0002 18.238 27.9387 18.3864 27.8293 18.4958C27.7199 18.6052 27.5715 18.6667 27.4168 18.6667C27.2621 18.6667 27.1137 18.6052 27.0043 18.4958C26.895 18.3864 26.8335 18.238 26.8335 18.0833V12.8333C26.8335 12.6786 26.895 12.5302 27.0043 12.4209C27.1137 12.3115 27.2621 12.25 27.4168 12.25C27.5715 12.25 27.7199 12.3115 27.8293 12.4209C27.9387 12.5302 28.0002 12.6786 28.0002 12.8333V18.0833ZM28.0002 8.75H23.3335V4.66667H28.0002V8.75ZM28.0002 3.5H23.3335V1.75C23.3335 1.59529 23.395 1.44692 23.5043 1.33752C23.6137 1.22812 23.7621 1.16667 23.9168 1.16667H27.4168C27.5715 1.16667 27.7199 1.22812 27.8293 1.33752C27.9387 1.44692 28.0002 1.59529 28.0002 1.75V3.5ZM30.3335 12.8333C30.3335 12.6786 30.395 12.5302 30.5043 12.4209C30.6137 12.3115 30.7621 12.25 30.9168 12.25C31.0715 12.25 31.2199 12.3115 31.3293 12.4209C31.4387 12.5302 31.5002 12.6786 31.5002 12.8333V17.1617C31.4514 17.085 31.3863 17.02 31.3096 16.9712C31.2329 16.9224 31.1465 16.8911 31.0563 16.8794C30.9662 16.8677 30.8746 16.8759 30.788 16.9036C30.7014 16.9312 30.6219 16.9775 30.5552 17.0392L30.3335 17.2608V12.8333ZM31.5002 28.5833C31.5002 28.738 31.4387 28.8864 31.3293 28.9958C31.2199 29.1052 31.0715 29.1667 30.9168 29.1667C30.7621 29.1667 30.6137 29.1052 30.5043 28.9958C30.395 28.8864 30.3335 28.738 30.3335 28.5833V21.8283L31.5002 22.995V28.5833ZM33.8335 23.6775L29.6977 19.5417L30.9693 18.2758L33.8335 21.14V23.6775Z" fill="#016BE3"/>
</svg>
