<svg width="37" height="35" viewBox="0 0 37 35" fill="none" xmlns="http://www.w3.org/2000/svg">
<path d="M34.7082 24.3299H15.0196C14.9022 24.0467 14.7693 23.7701 14.6216 23.5015H34.2938C34.4036 23.5016 34.5089 23.5452 34.5866 23.6228C34.6643 23.7004 34.708 23.8057 34.7082 23.9155V24.3299ZM19.9733 22.458H21.6127C22.8549 18.7487 22.4887 15.3792 21.5107 11.5402H20.075C19.0973 15.3792 18.7308 18.7487 19.9733 22.458ZM29.2984 22.458H30.9375C32.18 18.7487 31.8135 15.3792 30.8358 11.5402H29.4001C28.422 15.3792 28.0559 18.7487 29.2984 22.458ZM34.0636 10.4967H7.52246L20.7928 0L34.0636 10.4967ZM23.7281 5.17689C23.7279 4.59638 23.5556 4.02897 23.2329 3.5464C22.9102 3.06384 22.4516 2.6878 21.9152 2.46582C21.3788 2.24385 20.7887 2.18591 20.2193 2.29933C19.65 2.41276 19.1271 2.69245 18.7167 3.10304C18.3063 3.51363 18.0269 4.03669 17.9138 4.60608C17.8007 5.17546 17.8589 5.76561 18.0812 6.30189C18.3035 6.83817 18.6798 7.2965 19.1625 7.61894C19.6452 7.94138 20.2127 8.11343 20.7932 8.11336C21.5716 8.11243 22.3178 7.8027 22.8681 7.25217C23.4183 6.70163 23.7276 5.95526 23.7281 5.17689ZM9.9888 19.6096C10.9679 19.9435 11.8763 20.4566 12.6678 21.1228C13.4745 17.7049 12.9436 14.5086 12.186 11.541H10.7511C10.1388 13.9364 9.6137 16.7214 9.9888 19.6096ZM15.3725 25.3734C15.4697 25.74 15.5417 26.1129 15.5879 26.4893H36.2246V25.3734H15.3725ZM20.7932 3.28351C20.419 3.28344 20.0532 3.39432 19.7421 3.60215C19.4309 3.80998 19.1884 4.10542 19.0451 4.45109C18.9019 4.79677 18.8644 5.17717 18.9373 5.54417C19.0103 5.91117 19.1904 6.2483 19.455 6.51291C19.7195 6.77753 20.0566 6.95774 20.4236 7.03077C20.7906 7.1038 21.171 7.06636 21.5167 6.92318C21.8624 6.78001 22.1579 6.53753 22.3658 6.22641C22.5737 5.91529 22.6847 5.54952 22.6847 5.17533C22.684 4.67385 22.4846 4.19307 22.13 3.83843C21.7755 3.4838 21.2947 3.28424 20.7932 3.28351ZM16.6816 30.7548C16.6797 30.8245 16.6918 30.8939 16.7172 30.9589C16.7425 31.0238 16.7807 31.0831 16.8293 31.133C16.8779 31.183 16.9361 31.2228 17.0003 31.2499C17.0646 31.277 17.1336 31.291 17.2034 31.291C17.2731 31.291 17.3422 31.277 17.4064 31.2499C17.4706 31.2228 17.5288 31.183 17.5774 31.133C17.6261 31.0831 17.6642 31.0238 17.6896 30.9589C17.7149 30.8939 17.727 30.8245 17.7251 30.7548V27.5328H16.6816V30.7548ZM25.5682 29.9213C25.5662 29.991 25.5783 30.0604 25.6037 30.1253C25.6291 30.1903 25.6672 30.2495 25.7158 30.2995C25.7645 30.3495 25.8226 30.3892 25.8869 30.4163C25.9511 30.4435 26.0202 30.4575 26.0899 30.4575C26.1596 30.4575 26.2287 30.4435 26.2929 30.4163C26.3572 30.3892 26.4153 30.3495 26.464 30.2995C26.5126 30.2495 26.5507 30.1903 26.5761 30.1253C26.6015 30.0604 26.6135 29.991 26.6116 29.9213V27.5328H25.5682V29.9213ZM24.3447 31.239C24.0269 31.2383 23.7141 31.3188 23.436 31.4727L21.878 29.9146V27.5328H20.8326V30.13C20.8326 30.2684 20.8875 30.401 20.9853 30.4989L22.6991 32.2127C22.5002 32.574 22.4256 32.9906 22.4868 33.3985C22.548 33.8063 22.7416 34.1827 23.0377 34.4698C23.3338 34.7568 23.7161 34.9385 24.1256 34.987C24.5352 35.0354 24.9493 34.9479 25.3042 34.7379C25.6591 34.5279 25.9351 34.207 26.0898 33.8247C26.2445 33.4424 26.2692 33.0199 26.1601 32.6222C26.0511 32.2245 25.8143 31.8736 25.4862 31.6237C25.1582 31.3737 24.7571 31.2386 24.3447 31.239ZM33.833 28.7282C33.8367 28.8641 33.8933 28.9932 33.9908 29.088C34.0882 29.1828 34.2188 29.2359 34.3548 29.2359C34.4907 29.2359 34.6213 29.1828 34.7188 29.088C34.8162 28.9932 34.8728 28.8641 34.8765 28.7282V27.5328H33.833V28.7282ZM32.4308 29.9146V27.5328H31.3885V29.9146C30.9531 30.0404 30.5777 30.3191 30.3314 30.6995C30.0851 31.0799 29.9844 31.5365 30.0479 31.9852C30.1114 32.4339 30.3347 32.8447 30.6769 33.1418C31.0191 33.439 31.457 33.6027 31.9102 33.6027C32.3634 33.6027 32.8014 33.439 33.1436 33.1418C33.4858 32.8447 33.7091 32.4339 33.7726 31.9852C33.8361 31.5365 33.7354 31.0799 33.4891 30.6995C33.2428 30.3191 32.8674 30.0404 32.432 29.9146H32.4308ZM28.8361 28.6133C28.8342 28.683 28.8463 28.7524 28.8716 28.8174C28.897 28.8823 28.9351 28.9416 28.9838 28.9916C29.0324 29.0415 29.0906 29.0813 29.1548 29.1084C29.2191 29.1355 29.2881 29.1495 29.3578 29.1495C29.4276 29.1495 29.4966 29.1355 29.5609 29.1084C29.6251 29.0813 29.6833 29.0415 29.7319 28.9916C29.7805 28.9416 29.8187 28.8823 29.844 28.8174C29.8694 28.7524 29.8815 28.683 29.8796 28.6133V27.5328H28.8373L28.8361 28.6133Z" fill="#016BE3"/>
<path d="M14.6072 27.5134C14.6072 28.9579 14.1789 30.37 13.3764 31.5712C12.574 32.7723 11.4333 33.7085 10.0987 34.2613C8.76415 34.8141 7.29561 34.9588 5.87882 34.677C4.46203 34.3952 3.16062 33.6996 2.13917 32.6782C1.11772 31.6567 0.422118 30.3553 0.140321 28.9385C-0.141477 27.5217 0.00319074 26.0532 0.55603 24.7186C1.10887 23.384 2.04505 22.2434 3.24617 21.4409C4.4473 20.6384 5.85943 20.2101 7.30397 20.2102C9.24017 20.2125 11.0964 20.9827 12.4655 22.3518C13.8346 23.7209 14.6048 25.5772 14.6072 27.5134ZM5.89319 25.8467V25.6356C5.89319 25.0151 6.53938 24.4908 7.30397 24.4908C8.06857 24.4908 8.71514 25.0151 8.71514 25.6356C8.71324 25.7053 8.72532 25.7747 8.75069 25.8396C8.77605 25.9046 8.81418 25.9638 8.86281 26.0138C8.91145 26.0638 8.96961 26.1035 9.03386 26.1307C9.09811 26.1578 9.16714 26.1718 9.23688 26.1718C9.30662 26.1718 9.37566 26.1578 9.43991 26.1307C9.50416 26.1035 9.56232 26.0638 9.61095 26.0138C9.65959 25.9638 9.69772 25.9046 9.72308 25.8396C9.74844 25.7747 9.76053 25.7053 9.75862 25.6356C9.73412 25.1106 9.52796 24.6104 9.17541 24.2206C8.82285 23.8308 8.34582 23.5757 7.82591 23.4987V22.6029C7.82219 22.467 7.76559 22.3379 7.66815 22.2431C7.57071 22.1483 7.44012 22.0952 7.30417 22.0952C7.16821 22.0952 7.03762 22.1483 6.94018 22.2431C6.84274 22.3379 6.78614 22.467 6.78243 22.6029V23.4987C6.26233 23.5757 5.78514 23.831 5.43257 24.2211C5.07999 24.6111 4.87395 25.1115 4.84971 25.6367V25.8478C4.84971 27.5379 6.20713 27.8199 7.19803 28.0256C8.29915 28.2542 8.71514 28.4131 8.71514 29.1812V29.3923C8.71514 30.0132 8.06896 30.5375 7.30397 30.5375C6.53899 30.5375 5.89319 30.0132 5.89319 29.3923C5.88948 29.2564 5.83288 29.1273 5.73544 29.0325C5.638 28.9377 5.50741 28.8846 5.37145 28.8846C5.23549 28.8846 5.1049 28.9377 5.00746 29.0325C4.91002 29.1273 4.85342 29.2564 4.84971 29.3923C4.87394 29.9176 5.07997 30.4181 5.43254 30.8082C5.78511 31.1982 6.26229 31.4537 6.78243 31.5307V32.4223C6.78052 32.492 6.79261 32.5614 6.81797 32.6263C6.84333 32.6913 6.88146 32.7505 6.9301 32.8005C6.97873 32.8505 7.03689 32.8902 7.10114 32.9174C7.16539 32.9445 7.23443 32.9585 7.30417 32.9585C7.37391 32.9585 7.44294 32.9445 7.50719 32.9174C7.57144 32.8902 7.6296 32.8505 7.67824 32.8005C7.72687 32.7505 7.765 32.6913 7.79036 32.6263C7.81573 32.5614 7.82781 32.492 7.82591 32.4223V31.5295C8.34604 31.4525 8.82323 31.1971 9.1758 30.807C9.52837 30.4169 9.7344 29.9164 9.75862 29.3912V29.18C9.75862 27.4904 8.4012 27.2084 7.41031 27.0027C6.31074 26.7741 5.89319 26.6148 5.89319 25.8467Z" fill="#016BE3" fill-opacity="0.58"/>
</svg>
