<svg width="37" height="35" viewBox="0 0 37 35" fill="none" xmlns="http://www.w3.org/2000/svg">
<path d="M4.47461 31.402C4.47461 31.4942 4.52074 31.5404 4.56687 31.5865C4.61299 31.6326 4.65912 31.6326 4.70525 31.6326H10.3791C10.5174 31.6326 10.6097 31.5404 10.6097 31.402V30.4794C10.6097 30.4333 10.6097 30.3872 10.5636 30.341C10.5174 30.2949 10.4713 30.2488 10.3791 30.2488H4.70525C4.65912 30.2488 4.61299 30.2949 4.56687 30.2949C4.52074 30.341 4.47461 30.3872 4.47461 30.4794V31.402Z" fill="#016BE3" fill-opacity="0.58"/>
<path d="M5.81219 16.687C5.6738 16.687 5.58154 16.7793 5.58154 16.9177V29.0033C5.58154 29.0495 5.58154 29.0956 5.62767 29.1417C5.6738 29.1878 5.71993 29.234 5.81219 29.234H9.31795C9.45634 29.234 9.5486 29.1417 9.5486 29.0033V16.9177C9.5486 16.8715 9.50247 16.7793 9.50247 16.7793C9.50247 16.7793 9.41021 16.7331 9.36408 16.7331L5.81219 16.687Z" fill="#016BE3"/>
<path d="M34.1815 32.6475H2.72185C2.58347 32.6475 2.49121 32.7397 2.49121 32.8781V34.7694C2.49121 34.9078 2.58347 35 2.72185 35H34.2276C34.366 35 34.4583 34.9078 34.4583 34.7694V32.8781C34.4121 32.7397 34.3199 32.6475 34.1815 32.6475Z" fill="#016BE3" fill-opacity="0.58"/>
<path d="M26.2935 31.402C26.2935 31.4942 26.3396 31.5865 26.4318 31.6326C26.478 31.6326 26.478 31.6326 26.5241 31.6326H32.1979C32.3363 31.6326 32.4286 31.5404 32.4286 31.402V30.4794C32.4286 30.4333 32.4285 30.3872 32.3824 30.3872C32.3363 30.2949 32.2902 30.2488 32.1979 30.2488H26.5241C26.478 30.2488 26.4318 30.2488 26.3857 30.2949C26.3396 30.341 26.2935 30.4333 26.2935 30.4794V31.402Z" fill="#016BE3" fill-opacity="0.58"/>
<path d="M31.0904 16.687H27.5846C27.4924 16.687 27.4001 16.7331 27.4001 16.8254C27.4001 16.8715 27.354 16.8715 27.354 16.9177V29.0033C27.354 29.1417 27.4463 29.234 27.5846 29.234H31.0904C31.1365 29.234 31.1827 29.234 31.2288 29.1878C31.2749 29.1417 31.3211 29.0956 31.3211 29.0033V16.9177C31.3211 16.8254 31.2749 16.7331 31.1827 16.687C31.1365 16.687 31.1365 16.687 31.0904 16.687Z" fill="#016BE3"/>
<path d="M34.1815 10.9209H2.72185C2.67573 10.9209 2.6296 10.9209 2.58347 10.967C2.53734 11.0132 2.49121 11.0593 2.49121 11.1515V13.0428C2.49121 13.1812 2.58347 13.2735 2.72185 13.2735H34.2276C34.366 13.2735 34.4583 13.1812 34.4583 13.0428V11.1515C34.4583 11.1054 34.4583 11.0593 34.4121 11.0593C34.366 10.967 34.2738 10.9209 34.1815 10.9209Z" fill="#016BE3"/>
<path d="M10.6097 15.4415V14.519C10.6097 14.4728 10.6097 14.4267 10.5636 14.3806C10.5174 14.3345 10.4713 14.2883 10.3791 14.2883H4.70525C4.65912 14.2883 4.61299 14.3345 4.56687 14.3345C4.52074 14.3806 4.47461 14.4267 4.47461 14.519V15.4415C4.47461 15.5338 4.52074 15.5799 4.56687 15.6261C4.61299 15.6722 4.65912 15.6722 4.70525 15.6722H10.3791C10.5174 15.6722 10.6097 15.5799 10.6097 15.4415Z" fill="#016BE3" fill-opacity="0.58"/>
<path d="M32.4286 15.4415V14.519C32.4286 14.4728 32.4285 14.4267 32.3824 14.4267C32.3363 14.3345 32.2902 14.2883 32.1979 14.2883H26.5241C26.478 14.2883 26.4318 14.2883 26.3857 14.3345C26.3396 14.3806 26.2935 14.4267 26.2935 14.519V15.4415C26.2935 15.5338 26.3396 15.6261 26.4318 15.6722C26.478 15.6722 26.478 15.6722 26.5241 15.6722H32.1979C32.3363 15.6722 32.4286 15.5799 32.4286 15.4415Z" fill="#016BE3" fill-opacity="0.58"/>
<path d="M24.0791 22.9604C24.0791 19.8698 21.542 17.3328 18.4514 17.3328C15.3608 17.3328 12.8237 19.8698 12.8237 22.9604C12.8237 26.0511 15.3608 28.5881 18.4514 28.5881C21.542 28.5881 24.0791 26.0511 24.0791 22.9604ZM17.8979 25.9127V25.3591C17.4827 25.313 17.0676 25.1746 16.8369 24.9901C16.7447 24.944 16.6985 24.8056 16.7447 24.7133L16.9292 24.2059C16.9753 24.1598 17.0214 24.0675 17.0676 24.0675C17.1598 24.0214 17.2059 24.0675 17.2982 24.1137C17.575 24.2982 17.944 24.3904 18.2669 24.3904C18.6821 24.3904 18.9588 24.2059 18.9588 23.883C18.9588 23.6985 18.8666 23.4679 18.2669 23.1911C17.575 22.9143 16.8369 22.4992 16.8369 21.6227C16.8369 20.9308 17.2982 20.3772 17.9901 20.1927V19.5931C17.9901 19.4547 18.0824 19.3624 18.2208 19.3624H18.6821C18.8204 19.3624 18.9127 19.4547 18.9127 19.5931V20.1005C19.2356 20.1466 19.5124 20.2389 19.7891 20.3772C19.8814 20.4234 19.9275 20.5618 19.8814 20.7001L19.743 21.2076C19.6969 21.2537 19.6508 21.3459 19.6046 21.3459C19.5585 21.3921 19.4662 21.3459 19.4201 21.3459C19.2817 21.2998 19.005 21.1153 18.5898 21.1153C18.0824 21.1153 18.0363 21.4382 18.0363 21.5305C18.0363 21.7611 18.1285 21.8995 18.8204 22.1763C19.4662 22.453 20.1582 22.8682 20.1582 23.7908C20.1582 24.5288 19.6969 25.0824 18.9588 25.313V25.9127C18.9588 26.0511 18.8666 26.1433 18.7282 26.1433H18.2669C18.0363 26.1433 17.8979 26.0049 17.8979 25.9127Z" fill="#016BE3"/>
<path d="M36.7644 8.66063L19.6969 0.311368C18.8666 -0.103789 17.944 -0.103789 17.1598 0.311368L0.092257 8.66063C0.0461284 8.70676 0 8.75289 0 8.84515V9.67546C0 9.81384 0.092257 9.9061 0.230643 9.9061H36.6722C36.8106 9.9061 36.9028 9.81384 36.9028 9.67546V8.84515C36.9028 8.75289 36.8567 8.70676 36.7644 8.66063ZM18.4514 8.19935C16.7908 8.19935 15.4992 6.86162 15.4992 5.24712C15.4992 3.58649 16.8369 2.29489 18.4514 2.29489C20.0659 2.29489 21.4036 3.63262 21.4036 5.24712C21.4036 6.86162 20.112 8.19935 18.4514 8.19935Z" fill="#016BE3"/>
<path d="M18.4516 3.30969C17.3906 3.30969 16.5142 4.18613 16.5142 5.24709C16.5142 6.30805 17.3906 7.18449 18.4516 7.18449C19.5125 7.18449 20.389 6.30805 20.389 5.24709C20.389 4.18613 19.5125 3.30969 18.4516 3.30969Z" fill="#016BE3"/>
</svg>
