<svg width="38" height="37" viewBox="0 0 38 37" fill="none" xmlns="http://www.w3.org/2000/svg">
<path d="M36.1786 31.7143H1.82143C1.09167 31.7143 0.5 32.306 0.5 33.0357C0.5 35.2218 2.27825 37 4.46429 37H33.5357C35.7217 37 37.5 35.2218 37.5 33.0357C37.5 32.306 36.9083 31.7143 36.1786 31.7143Z" fill="#016BE3" fill-opacity="0.58"/>
<path d="M34.8571 15.8572C34.8571 14.3975 33.6738 13.2143 32.2142 13.2143H30.8725C30.8333 13.5584 30.7268 13.8999 30.545 14.2183L27.9247 18.7994C27.5744 19.4059 26.9891 19.8563 26.3162 20.0382C26.0826 20.0976 25.8568 20.126 25.6316 20.126C25.1651 20.126 24.7057 20.0034 24.3043 19.7724L24.2624 19.7479V19.8214C24.2624 21.2784 23.0771 22.4643 21.6195 22.4643H16.3803C14.9227 22.4643 13.7374 21.2784 13.7374 19.8214V19.7479L13.7 19.7698C13.3013 20.0034 12.8406 20.1273 12.3715 20.1273C12.1424 20.1273 11.9147 20.0989 11.6927 20.0408C11.0107 19.8563 10.4255 19.4059 10.0777 18.802L7.45549 14.2209C7.27337 13.9015 7.16691 13.5592 7.12763 13.2143H5.78563C4.32605 13.2143 3.14278 14.3975 3.14278 15.8572V30.3929H34.8571V15.8572Z" fill="#016BE3"/>
<path d="M15.4228 14.1486C15.6809 14.4066 16.019 14.5357 16.3571 14.5357C16.6952 14.5357 17.0333 14.4066 17.2914 14.1486C17.8075 13.6324 17.8075 12.7962 17.2914 12.28L15.5828 10.5714L17.2914 8.86284C17.8075 8.34665 17.8075 7.51044 17.2914 6.99425C16.7752 6.47807 15.939 6.47807 15.4228 6.99425L12.7799 9.63711C12.5218 9.8952 12.3928 10.2333 12.3928 10.5714C12.3928 10.9095 12.5218 11.2476 12.7799 11.5057L15.4228 14.1486Z" fill="#016BE3"/>
<path d="M22.5771 6.99425C22.0609 6.47807 21.2247 6.47807 20.7085 6.99425C20.1923 7.51044 20.1923 8.34665 20.7085 8.86284L22.4171 10.5714L20.7085 12.28C20.1923 12.7962 20.1923 13.6324 20.7085 14.1486C20.9666 14.4066 21.3047 14.5357 21.6428 14.5357C21.9809 14.5357 22.319 14.4066 22.5771 14.1486L25.22 11.5057C25.4781 11.2476 25.6071 10.9095 25.6071 10.5714C25.6071 10.2333 25.4781 9.8952 25.22 9.63711L22.5771 6.99425Z" fill="#016BE3"/>
<path d="M8.60277 13.564L11.2224 18.1425C11.3979 18.4471 11.6876 18.6703 12.0276 18.762C12.3677 18.851 12.7309 18.8058 13.0348 18.6278L13.7949 18.1851C14.1956 18.4626 14.6176 18.7078 15.0589 18.9194V19.8214C15.0589 20.5518 15.6506 21.1429 16.3804 21.1429H21.6196C22.3494 21.1429 22.941 20.5518 22.941 19.8214V18.9194C23.3824 18.7078 23.8044 18.4626 24.205 18.1851L24.9651 18.6278C25.269 18.8033 25.631 18.8497 25.9723 18.762C26.3124 18.6703 26.6021 18.4471 26.7776 18.1425L29.3972 13.564C29.7572 12.933 29.5424 12.1303 28.9146 11.7651L28.148 11.3186C28.1693 11.0657 28.1803 10.8166 28.1803 10.5714C28.1803 10.3262 28.1693 10.0772 28.148 9.82425L28.9146 9.37776C29.5424 9.01256 29.7572 8.20989 29.3972 7.57886L26.7776 3.00031C26.6021 2.69577 26.3124 2.47252 25.9723 2.38089C25.6336 2.29185 25.2703 2.33702 24.9651 2.5151L24.205 2.95773C23.8044 2.68028 23.3824 2.43509 22.941 2.22346V1.32143C22.941 0.59103 22.3494 0 21.6196 0H16.3804C15.6506 0 15.0589 0.59103 15.0589 1.32143V2.22346C14.6176 2.43509 14.1956 2.68028 13.7949 2.95773L13.0348 2.5151C12.7303 2.33702 12.3664 2.29056 12.0276 2.38089C11.6876 2.47252 11.3979 2.69577 11.2224 3.00031L8.60277 7.57886C8.24273 8.20989 8.4576 9.01256 9.0854 9.37776L9.85193 9.82425C9.83064 10.0772 9.81967 10.3262 9.81967 10.5714C9.81967 10.8166 9.83064 11.0657 9.85193 11.3186L9.0854 11.7651C8.4576 12.1303 8.24273 12.933 8.60277 13.564ZM19 3.96429C22.649 3.96429 25.6071 6.92242 25.6071 10.5714C25.6071 14.2204 22.649 17.1786 19 17.1786C15.351 17.1786 12.3928 14.2204 12.3928 10.5714C12.3928 6.92242 15.351 3.96429 19 3.96429Z" fill="#016BE3" fill-opacity="0.58"/>
</svg>
