<svg width="32" height="32" viewBox="0 0 32 32" fill="none" xmlns="http://www.w3.org/2000/svg">
<path d="M18.6624 13.8848H17.8875C17.0156 14.692 15.6274 15.2086 14.0451 15.2086C12.463 15.2086 11.0746 14.692 10.2028 13.8848H9.65417C6.84517 13.8848 4.58484 15.596 4.58484 17.7271H23.4733C23.5055 15.596 21.3422 13.8848 18.6623 13.8848H18.6624Z" fill="#016BE3"/>
<path d="M14.0453 2.84277C10.9134 2.84277 8.36267 5.39341 8.36267 8.5254C8.36267 11.6573 10.9133 14.208 14.0453 14.208C17.1772 14.208 19.7279 11.6574 19.7279 8.5254C19.7279 5.39347 17.1771 2.84277 14.0453 2.84277ZM14.0453 12.9489C11.6237 12.9489 9.6219 10.9793 9.6219 8.52552C9.6219 8.13813 9.68654 7.78295 9.75096 7.46001C10.2676 7.71834 11.2039 8.07354 12.2694 8.07354C13.0444 8.07354 13.8838 7.87985 14.6588 7.33098C14.7556 7.26634 16.693 5.87807 18.2428 7.26634C18.3718 7.65372 18.4364 8.07354 18.4364 8.52557C18.4687 10.9472 16.4991 12.949 14.0453 12.949L14.0453 12.9489Z" fill="#016BE3"/>
<path d="M27.38 30.9658H24.2481C24.4418 30.7075 24.5711 30.3847 24.5711 30.0296V19.8588C24.5711 19.0194 23.8607 18.3091 23.0213 18.3091H5.0369C4.19747 18.3091 3.48713 19.0194 3.48713 19.8588V30.0296C3.48713 30.3847 3.61618 30.7077 3.8101 30.9658L0.29054 30.966C0.129054 30.966 0 31.0951 0 31.2566V31.2888C0 31.4503 0.129054 31.5793 0.29054 31.5793H27.4124C27.5739 31.5793 27.703 31.4503 27.703 31.2888V31.2566C27.7032 31.0953 27.5417 30.966 27.3802 30.966L27.38 30.9658ZM14.0451 26.607C13.0764 26.607 12.3017 25.8321 12.3017 24.8636C12.3017 23.8949 13.0766 23.1202 14.0451 23.1202C15.0138 23.1202 15.7885 23.8951 15.7885 24.8636C15.7885 25.8321 15.0136 26.607 14.0451 26.607Z" fill="#016BE3"/>
<path d="M31.4808 3.90837C30.7705 1.1316 27.929 -0.547433 25.1524 0.162902C22.3756 0.873238 20.6966 3.7147 21.4069 6.49135C21.7299 7.81521 22.5693 8.88071 23.6348 9.55865L22.2466 11.6573L27.7355 10.269C30.5122 9.52619 32.1913 6.71719 31.4809 3.90825L31.4808 3.90837ZM26.9282 7.71823H25.9595V6.8788H26.9282V7.71823ZM26.9282 5.8133V6.29753H25.9595V4.90926H26.4439C26.8313 4.90926 27.1865 4.58629 27.1865 4.16669C27.1865 3.77931 26.8635 3.42413 26.4439 3.42413C26.0565 3.42413 25.7014 3.7471 25.7014 4.16669H24.7327C24.7327 3.23046 25.5076 2.45543 26.4439 2.45543C27.3802 2.45543 28.1552 3.2304 28.1552 4.16669C28.1552 4.94149 27.6385 5.58719 26.9282 5.81332L26.9282 5.8133Z" fill="#016BE3" fill-opacity="0.58"/>
</svg>
