<svg width="36" height="36" viewBox="0 0 36 36" fill="none" xmlns="http://www.w3.org/2000/svg">
<path d="M15.8415 31.3045H20.1615C20.5136 30.608 20.811 29.7393 21.9145 29.7393H34.4366V10.9566C34.4366 10.5415 34.2717 10.1432 33.978 9.84972C33.6845 9.55624 33.2865 9.39142 32.8714 9.39142H25.9842C26.1674 10.3626 26.0329 11.3669 25.6008 12.2557L26.9 13.5549H26.8997C27.6056 14.2653 27.929 15.2707 27.7697 16.2593C27.6104 17.2483 26.9875 18.1012 26.094 18.5537C25.2005 19.0063 24.1445 19.0042 23.253 18.548C21.5998 18.9465 20.0168 19.593 18.5573 20.4653C22.3529 23.4158 22.8461 23.5958 22.9087 24.5271C22.9713 25.4584 22.5174 25.6542 20.2322 27.9394H20.232C20.0001 28.1726 19.7006 28.3266 19.3762 28.3801C19.0515 28.4336 18.7184 28.3832 18.4242 28.2368C11.5061 24.7462 12.3745 25.1062 11.9364 25.1062H11.9362C10.4835 25.1062 9.08991 24.5289 8.06249 23.5018C7.03507 22.4743 6.45804 21.0808 6.45804 19.6278C6.45804 16.9904 8.02318 15.8244 9.72933 14.1025C10.0016 13.8229 10.3721 13.6599 10.7622 13.6487C11.5918 12.3115 12.264 10.8829 12.7658 9.39136H3.13154C2.71648 9.39136 2.31845 9.55618 2.02497 9.84966C1.73123 10.1431 1.56641 10.5414 1.56641 10.9565V29.7393H14.0885C15.1684 29.7393 15.4736 30.5767 15.8415 31.3044L15.8415 31.3045Z" fill="#016BE3"/>
<path d="M21.9133 31.3043L21.1306 32.8695L14.8698 32.8697L14.0871 31.3046L0 31.3043V32.8697C0 33.6999 0.329645 34.4962 0.916868 35.0831C1.50383 35.6704 2.30015 36 3.13029 36H32.8701C33.7003 36 34.4966 35.6704 35.0836 35.0831C35.6708 34.4962 36.0004 33.6999 36.0004 32.8697V31.3043H21.9133Z" fill="#016BE3" fill-opacity="0.58"/>
<path d="M23.5799 16.8733C23.9755 17.2745 24.5551 17.4344 25.1005 17.2923C25.6457 17.1503 26.0739 16.7282 26.2235 16.185C26.3731 15.6417 26.2217 15.0598 25.826 14.6586L16.9431 5.8072C16.5474 5.41153 15.9707 5.25692 15.4304 5.40183C14.8898 5.54673 14.4679 5.96861 14.323 6.5092C14.1781 7.04952 14.3327 7.62624 14.7283 8.02196L23.5799 16.8733Z" fill="#016BE3"/>
<path d="M17.257 19.401C18.6893 18.5279 20.2212 17.829 21.8196 17.3194L14.2749 9.78284C13.7705 11.3818 13.074 12.9139 12.2012 14.3454L17.257 19.401Z" fill="#016BE3"/>
<path d="M10.8556 15.2134L9.19637 16.8726C8.43567 17.6555 8.0366 18.7207 8.09556 19.8105C8.15452 20.9006 8.66602 21.9166 9.50662 22.613C10.3472 23.3092 11.4404 23.6229 12.5224 23.478C14.1268 23.2432 14.8312 22.2493 16.3573 20.7232L10.8556 15.2134Z" fill="#016BE3"/>
<path d="M21.3655 24.6209L17.6325 21.7173C15.9264 23.4155 15.4568 23.9946 14.502 24.4878L19.1508 26.8357L21.3655 24.6209Z" fill="#016BE3"/>
<path d="M20.5586 7.20803L24.3857 11.0429C24.6744 9.96387 24.3663 8.81302 23.5775 8.02246C22.7885 7.23191 21.6382 6.92166 20.5586 7.20803Z" fill="#016BE3"/>
<path d="M26.6094 5.47832C27.0399 5.47832 26.9458 5.47832 29.513 2.90354C29.8198 2.59669 29.8198 2.0991 29.513 1.79227C29.2061 1.48542 28.7086 1.48542 28.4017 1.79227L26.0539 4.14011C25.828 4.36415 25.7601 4.70218 25.8822 4.99594C26.0041 5.28968 26.2915 5.48019 26.6094 5.47835L26.6094 5.47832Z" fill="#016BE3"/>
<path d="M22.696 3.91299V0.782437C22.696 0.350339 22.3457 0 21.9133 0C21.4812 0 21.1309 0.350346 21.1309 0.782437V3.91299C21.1309 4.34509 21.4812 4.6957 21.9133 4.6957C22.3457 4.6957 22.696 4.34509 22.696 3.91299Z" fill="#016BE3"/>
</svg>
