<svg width="35" height="27" viewBox="0 0 35 27" fill="none" xmlns="http://www.w3.org/2000/svg">
<path d="M34.3094 23.4878V24.9806C34.3094 26.0783 33.5016 27 32.5402 27H1.76921C0.807557 27 0 26.0779 0 24.9806V23.4878H34.3094Z" fill="#016BE3" fill-opacity="0.58"/>
<path d="M32.1934 3.60027V18.8342C32.1934 20.8097 30.7702 22.4342 29.0394 22.4342L23.7313 22.4339H5.4611C3.73037 22.4339 2.30713 20.8094 2.30713 18.8339V3.59996C2.30713 1.62449 3.73037 4.34806e-08 5.4611 4.34806e-08H29.0388C30.7698 -0.000306866 32.1934 1.62449 32.1934 3.60027ZM29.4623 18.659V3.60027C29.4623 3.16117 29.1929 2.85401 28.8085 2.85401L17.0771 2.8537H5.49916C5.11446 2.8537 4.84535 3.20505 4.84535 3.59996V18.6587C4.84535 19.0978 5.15317 19.405 5.49916 19.405H11.2302C11.9993 17.3856 13.1534 15.8928 14.3841 14.971C14.8457 14.5758 15.3073 14.3564 15.7304 14.137C16.1536 13.9615 16.6151 13.8737 17.0383 13.8737C17.5384 13.8737 18.0384 14.0054 18.5768 14.269C19.0384 14.4445 19.5 14.7519 19.9231 15.1469C21.1154 16.1128 22.1924 17.5615 22.9234 19.4493H28.8082C29.1926 19.4493 29.4623 19.0982 29.4623 18.659Z" fill="#016BE3"/>
<path d="M17.0782 4.17041C19.1553 4.17041 20.886 6.10205 20.886 8.51663C20.886 10.9312 19.1553 12.8629 17.0782 12.8629C15.0012 12.8629 13.3088 10.9312 13.3088 8.51663C13.3086 6.14619 14.9627 4.21456 17.0782 4.17041Z" fill="#016BE3"/>
</svg>
