<svg width="37" height="37" viewBox="0 0 37 37" fill="none" xmlns="http://www.w3.org/2000/svg">
<path d="M12.607 10.2449C13.5426 10.2449 14.479 10.1528 15.4099 9.97589C15.411 9.97567 15.4121 9.97531 15.4132 9.97509C15.8542 9.89115 16.294 9.78914 16.7318 9.66592C17.1713 9.54291 17.6088 9.40034 18.0435 9.23727L18.1623 9.19274L20.1036 8.46477L17.197 2.65156C16.9351 2.12731 16.3269 1.87525 15.7698 2.06055L12.607 3.11482L9.44422 2.06055C8.88774 1.87583 8.27946 2.12731 8.01705 2.65156L5.11041 8.46477L7.17053 9.23727C8.95334 9.90597 10.7822 10.2449 12.607 10.2449Z" fill="#016BE3" fill-opacity="0.58"/>
<path d="M34.1665 30.143L29.7656 25.7422C28.7715 27.3897 27.3894 28.7718 25.7419 29.7659L30.1428 34.1667C30.6803 34.7042 31.3944 35 32.1546 35C32.9148 35 33.629 34.7042 34.1665 34.1667C34.704 33.6292 34.9998 32.9151 34.9998 32.1549C34.9998 31.3947 34.704 30.6805 34.1665 30.143Z" fill="#016BE3"/>
<path d="M18.4412 14.9248L21.3214 13.6904C21.5769 13.5811 21.7858 13.3843 21.9107 13.1357L23.0892 10.7866C23.3062 10.3533 23.236 9.83073 22.912 9.47048C22.588 9.11023 22.0764 8.98536 21.6218 9.15455L18.4573 10.3412C14.6085 11.7845 10.6055 11.7845 6.75677 10.3412L3.59225 9.15455C3.14108 8.98536 2.62661 9.11023 2.30204 9.47048C1.97805 9.83073 1.90784 10.3533 2.12479 10.7866L3.30336 13.1357C3.42824 13.3843 3.63713 13.5811 3.89264 13.6904L6.77288 14.9248C8.65928 15.7333 10.6216 16.1431 12.607 16.1431C14.5924 16.1431 16.5548 15.7333 18.4412 14.9248Z" fill="#016BE3" fill-opacity="0.58"/>
<path d="M20.6843 23.0418C20.4541 23.272 20.0812 23.272 19.851 23.0418L17.9106 21.1013L13.6831 25.3288C15.1884 26.9253 17.3161 27.9287 19.6784 27.9287C24.2275 27.9287 27.9284 24.2279 27.9284 19.6788C27.9284 16.5442 26.1707 13.813 23.5897 12.4172L22.9643 13.6639C22.714 14.1617 22.2956 14.5553 21.7852 14.774L18.9055 16.0078C16.8718 16.8797 14.7529 17.3216 12.607 17.3216C12.3326 17.3216 12.0602 17.2938 11.7868 17.2793C11.5553 18.0392 11.4284 18.8443 11.4284 19.6788C11.4284 21.4404 11.9882 23.0712 12.9325 24.4128L17.4939 19.8514C17.7241 19.6212 18.097 19.6212 18.3272 19.8514L20.2677 21.7919L23.5594 18.5002H22.6248C22.2991 18.5002 22.0355 18.2366 22.0355 17.9109C22.0355 17.5852 22.2991 17.3216 22.6248 17.3216H24.982C25.0586 17.3216 25.135 17.3372 25.207 17.3669C25.3513 17.4266 25.4662 17.5416 25.5259 17.6859C25.5557 17.7579 25.5712 17.8342 25.5712 17.9109V20.268C25.5712 20.5938 25.3077 20.8573 24.982 20.8573C24.6562 20.8573 24.3927 20.5938 24.3927 20.268V19.3335L20.6843 23.0418Z" fill="#016BE3"/>
<path d="M30.2855 19.6785C30.2855 15.516 27.8691 11.9159 24.3708 10.1802C24.3831 10.5637 24.3242 10.9522 24.1429 11.314L24.1175 11.3648C27.0837 12.955 29.107 16.084 29.107 19.6785C29.107 24.8773 24.8772 29.107 19.6784 29.107C14.4796 29.107 10.2499 24.8773 10.2499 19.6785C10.2499 18.8107 10.3774 17.9737 10.5979 17.175C10.2072 17.124 9.81627 17.0739 9.42898 16.9935C9.20353 17.8528 9.07132 18.7495 9.07132 19.6785C9.07132 25.527 13.8299 30.2856 19.6784 30.2856C25.5269 30.2856 30.2855 25.527 30.2855 19.6785Z" fill="#016BE3"/>
</svg>
