<svg width="36" height="35" viewBox="0 0 36 35" fill="none" xmlns="http://www.w3.org/2000/svg">
<path d="M20.2045 18.9847V15.3267H15.7959V18.9847L18.0002 17.9291L20.2045 18.9847Z" fill="#016BE3" fill-opacity="0.59"/>
<path d="M7.80227 13.0516C8.92763 13.0516 9.83256 12.1653 9.83256 11.0758C9.83256 9.98627 8.92183 9.09998 7.80227 9.09998C6.6769 9.09998 5.77197 9.98627 5.77197 11.0758C5.77197 12.1653 6.6769 13.0516 7.80227 13.0516Z" fill="#016BE3" fill-opacity="0.59"/>
<path d="M17.9998 4.00806C16.3872 4.00806 15.0762 5.27822 15.0762 6.84757C15.0762 8.41693 16.3872 9.69273 17.9998 9.69273C19.6124 9.69273 20.9176 8.41693 20.9176 6.84757C20.9176 5.27822 19.6124 4.00806 17.9998 4.00806ZM17.9998 7.9766C17.3559 7.9766 16.8396 7.46854 16.8396 6.84757C16.8396 6.22661 17.3559 5.71854 17.9998 5.71854C18.6379 5.71854 19.16 6.22661 19.16 6.84757C19.16 7.46854 18.6379 7.9766 17.9998 7.9766Z" fill="#016BE3"/>
<path d="M28.1978 13.0572C29.3231 13.0572 30.2281 12.1709 30.2281 11.0814C30.2281 9.98624 29.3173 9.10559 28.1978 9.10559C27.0724 9.10559 26.1675 9.99188 26.1675 11.0814C26.1675 12.1709 27.0724 13.0572 28.1978 13.0572Z" fill="#016BE3" fill-opacity="0.59"/>
<path d="M32.2353 27.6726H3.75894C1.68224 27.6726 0 29.3097 0 31.3363C0 33.3573 1.68224 35 3.75894 35H32.2353C34.3178 35 36 33.3573 36 31.3363C36 29.3097 34.3178 27.6726 32.2353 27.6726ZM3.62552 32.6065C2.90622 32.6065 2.32033 32.0363 2.32033 31.3363C2.32033 30.6307 2.90622 30.0605 3.62552 30.0605C4.35063 30.0605 4.93071 30.6307 4.93071 31.3363C4.93071 32.0363 4.35063 32.6065 3.62552 32.6065ZM9.37415 32.6065C8.65485 32.6065 8.06896 32.0363 8.06896 31.3363C8.06896 30.6307 8.65485 30.0605 9.37415 30.0605C10.0993 30.0605 10.6851 30.6307 10.6851 31.3363C10.6851 32.0363 10.0993 32.6065 9.37415 32.6065ZM15.1228 32.6065C14.4035 32.6065 13.8176 32.0363 13.8176 31.3363C13.8176 30.6307 14.4035 30.0605 15.1228 30.0605C15.8479 30.0605 16.4338 30.6307 16.4338 31.3363C16.4338 32.0363 15.8479 32.6065 15.1228 32.6065ZM20.8714 32.6065C20.1521 32.6065 19.5662 32.0363 19.5662 31.3363C19.5662 30.6307 20.1521 30.0605 20.8714 30.0605C21.5965 30.0605 22.1824 30.6307 22.1824 31.3363C22.1824 32.0363 21.5965 32.6065 20.8714 32.6065ZM26.62 32.6065C25.9007 32.6065 25.3149 32.0363 25.3149 31.3363C25.3149 30.6307 25.9007 30.0605 26.62 30.0605C27.3451 30.0605 27.931 30.6307 27.931 31.3363C27.931 32.0363 27.3451 32.6065 26.62 32.6065ZM32.3745 32.6065C31.6494 32.6065 31.0635 32.0363 31.0635 31.3363C31.0635 30.6307 31.6494 30.0605 32.3745 30.0605C33.0938 30.0605 33.6797 30.6307 33.6797 31.3363C33.6797 32.0363 33.0938 32.6065 32.3745 32.6065Z" fill="#016BE3"/>
<path d="M12.4894 15.3267C11.9325 15.3267 11.4858 15.767 11.4858 16.3033V25.5613C11.4858 26.1033 11.9383 26.538 12.4894 26.538H23.511C24.0679 26.538 24.5145 26.0976 24.5145 25.5613V16.3033C24.5145 15.7613 24.0621 15.3267 23.511 15.3267H21.3647V20.8025L18.0002 19.188L14.6357 20.8025V15.3267H12.4894Z" fill="#016BE3"/>
<path d="M15.0183 9.5516C14.3396 8.84595 13.9219 7.90321 13.9219 6.8645L10.1978 9.03224C10.6212 9.50079 10.8997 10.0879 10.9751 10.7371L15.0183 9.5516Z" fill="#016BE3"/>
<path d="M7.14111 14.1129L8.46951 18.7702H9.72829L9.42664 13.7404C8.95097 14.017 8.39409 14.1807 7.79661 14.1807C7.57618 14.175 7.35574 14.1525 7.14111 14.1129Z" fill="#016BE3" fill-opacity="0.59"/>
<path d="M25.8024 9.03224L22.0783 6.8645C22.0725 7.90321 21.6548 8.84595 20.9819 9.5516L25.0251 10.7371C25.1005 10.0879 25.379 9.50079 25.8024 9.03224Z" fill="#016BE3"/>
<path d="M26.5678 13.746L26.2661 18.7645H27.5249L28.8533 14.1186C28.6445 14.1637 28.424 14.1863 28.1978 14.1863C27.6003 14.1863 27.0434 14.0226 26.5678 13.746Z" fill="#016BE3" fill-opacity="0.59"/>
<path d="M19.781 3.27984V0H16.2192V3.28548C16.7587 3.02581 17.362 2.87903 18.0001 2.87903C18.6382 2.87903 19.2415 3.02581 19.781 3.27984Z" fill="#016BE3" fill-opacity="0.59"/>
</svg>
