<svg width="200" height="70" viewBox="0 0 200 70" fill="none" xmlns="http://www.w3.org/2000/svg">
<g clip-path="url(#clip0_4865_17353)">
<path d="M42.9832 47.3668C42.9832 47.4144 43.0308 47.4542 43.126 47.4859C43.2214 47.5018 43.3484 47.5256 43.5072 47.5574C43.6818 47.5732 43.8644 47.5891 44.0549 47.605C44.2455 47.605 44.436 47.605 44.6265 47.605H45.2697V48.8911H37.9102V47.605H38.1483C38.6881 47.605 39.1248 47.5494 39.4582 47.4382C39.8075 47.3271 39.9823 47.0969 39.9823 46.7476V34.1245C39.9823 33.7752 39.8075 33.5449 39.4582 33.4338C39.1248 33.3226 38.6881 33.267 38.1483 33.267H37.9102V31.9809H45.5078C47.5243 31.9809 49.0883 32.4335 50.1998 33.3386C51.3112 34.2277 51.867 35.4423 51.867 36.9825C51.867 38.0304 51.605 38.9515 51.0811 39.7454C50.5571 40.5234 49.8107 41.1347 48.8422 41.5792C47.8736 42.008 46.7225 42.2223 45.3887 42.2223H42.2687V40.6981H45.0315C45.873 40.6981 46.5637 40.5551 47.1036 40.2693C47.6593 39.9676 48.0721 39.5389 48.342 38.9831C48.6279 38.4275 48.7707 37.7765 48.7707 37.0302C48.7707 36.268 48.6358 35.6329 48.3658 35.1248C48.0959 34.6008 47.691 34.2039 47.1512 33.934C46.6272 33.6641 45.9604 33.5291 45.1505 33.5291H42.9832V47.3668ZM56.6552 34.4341C56.1312 34.4341 55.7025 34.2912 55.3691 34.0054C55.0515 33.7196 54.8927 33.3226 54.8927 32.8146C54.8927 32.3223 55.0515 31.9333 55.3691 31.6475C55.7025 31.3617 56.1312 31.2188 56.6552 31.2188C57.1633 31.2188 57.5761 31.3617 57.8936 31.6475C58.2271 31.9333 58.3938 32.3223 58.3938 32.8146C58.3938 33.3226 58.2271 33.7196 57.8936 34.0054C57.5761 34.2912 57.1633 34.4341 56.6552 34.4341ZM58.1557 36.7682V46.8666C58.1557 47.2001 58.3224 47.4224 58.6558 47.5336C58.9892 47.6288 59.4021 47.6765 59.8943 47.6765H59.9181V48.8911H53.5351V47.6765H53.5589C54.0671 47.6765 54.4799 47.6288 54.7974 47.5336C55.1309 47.4224 55.2976 47.2001 55.2976 46.8666V39.0308C55.2976 38.7132 55.1705 38.4989 54.9166 38.3877C54.6783 38.2766 54.2972 38.1654 53.7732 38.0544L53.5351 38.0066V36.7682H58.1557ZM74.1881 48.8911H67.7099V47.6765H67.7575C68.0592 47.6765 68.3609 47.6685 68.6626 47.6526C68.9643 47.6367 69.2104 47.6129 69.4009 47.5812C69.5914 47.5494 69.6867 47.5097 69.6867 47.462L66.3284 43.3656L66.2332 43.294L62.4939 38.6021C62.3669 38.4433 62.232 38.3243 62.089 38.2449C61.962 38.1496 61.8032 38.086 61.6126 38.0544C61.4221 38.0066 61.1919 37.9828 60.922 37.9828H60.8982V36.7682H67.2811V37.959H67.2335C66.9477 37.959 66.6619 37.967 66.3761 37.9828C66.0903 37.9988 65.8521 38.0226 65.6616 38.0544C65.4869 38.0702 65.3997 38.102 65.3997 38.1496L68.615 42.1985L68.7102 42.2938L72.4495 46.8666C72.6082 47.0572 72.7592 47.2159 72.902 47.343C73.0607 47.4542 73.2354 47.5415 73.426 47.605C73.6165 47.6526 73.8626 47.6765 74.1643 47.6765H74.1881V48.8911ZM60.6839 48.8911V47.6765H60.7077C60.9299 47.6765 61.1363 47.6447 61.3269 47.5812C61.5332 47.5176 61.7318 47.4224 61.9223 47.2954C62.1128 47.1525 62.2954 46.9778 62.4701 46.7714L66.0903 42.4843L67.2811 43.294L63.9944 47.2001C63.9944 47.2954 64.0817 47.3827 64.2563 47.462C64.4469 47.5256 64.6771 47.5812 64.9471 47.6288C65.217 47.6605 65.4869 47.6765 65.7568 47.6765H65.7807V48.8911H60.6839ZM68.6388 43.0321L67.5194 42.1508L70.6393 38.4354C70.6393 38.3401 70.5521 38.2607 70.3774 38.1972C70.2027 38.1178 69.9804 38.0622 69.7105 38.0304C69.4565 37.9828 69.2024 37.959 68.9483 37.959H68.8769V36.7682H73.9262V37.959H73.9024C73.6483 37.959 73.418 37.9988 73.2116 38.0782C73.0053 38.1416 72.8068 38.2528 72.6162 38.4115C72.4257 38.5704 72.2192 38.7768 71.997 39.0308L68.6388 43.0321ZM77.8197 42.913C77.8197 43.6435 77.907 44.3023 78.0817 44.8898C78.2563 45.4773 78.5104 45.9695 78.8439 46.3665C79.1772 46.7634 79.5742 47.0651 80.0347 47.2715C80.4951 47.478 81.0112 47.5812 81.5828 47.5812C82.2021 47.5812 82.734 47.462 83.1786 47.2239C83.6231 46.9699 84.0042 46.6682 84.3218 46.3188C84.6393 45.9537 84.9013 45.5884 85.1077 45.2233L86.3701 46.2474C86.0684 46.7872 85.6873 47.2795 85.2269 47.7241C84.7663 48.1528 84.2186 48.4942 83.5835 48.7482C82.9483 49.0023 82.1941 49.1293 81.3208 49.1293C80.0823 49.1293 78.9788 48.8753 78.0102 48.3671C77.0575 47.859 76.3033 47.1365 75.7476 46.1998C75.1919 45.263 74.914 44.1515 74.914 42.8654C74.914 41.611 75.176 40.5075 75.7 39.5548C76.2398 38.6021 76.9543 37.8638 77.8435 37.3398C78.7485 36.8 79.7648 36.53 80.8921 36.53C81.8131 36.53 82.6148 36.6729 83.2976 36.9587C83.9963 37.2445 84.5758 37.6733 85.0363 38.2449C85.5126 38.8165 85.8699 39.5389 86.108 40.4122C86.3621 41.2697 86.4891 42.2779 86.4891 43.437H77.391V41.9603H84.2503L83.6311 42.5557C83.6152 41.7619 83.5517 41.0791 83.4405 40.5075C83.3294 39.9359 83.1626 39.4754 82.9403 39.1261C82.7181 38.7609 82.4402 38.491 82.1068 38.3163C81.7733 38.1416 81.3764 38.0544 80.916 38.0544C80.4872 38.0544 80.0823 38.1575 79.7012 38.3639C79.3361 38.5704 79.0106 38.8879 78.7247 39.3166C78.439 39.7294 78.2167 40.2375 78.0579 40.8409C77.899 41.4284 77.8197 42.1191 77.8197 42.913ZM92.4842 31.3855V46.8666C92.4842 47.2001 92.6429 47.4224 92.9606 47.5336C93.2781 47.6288 93.6909 47.6765 94.199 47.6765H94.2228V48.8911H87.8398V47.6765H87.8875C88.3956 47.6765 88.8084 47.6288 89.1259 47.5336C89.4436 47.4224 89.6023 47.2001 89.6023 46.8666V33.6481C89.6023 33.4417 89.5467 33.283 89.4356 33.1718C89.3403 33.0447 89.1815 32.9495 88.9592 32.886C88.737 32.8066 88.4432 32.7352 88.078 32.6716L87.8398 32.624V31.3855H92.4842ZM103.879 33.3862C103.164 33.3862 102.498 33.5529 101.878 33.8863C101.275 34.2197 100.743 34.6961 100.283 35.3153C99.838 35.9345 99.4887 36.6809 99.2347 37.5542C98.9806 38.4115 98.8536 39.3722 98.8536 40.436C98.8536 41.5158 98.9727 42.4923 99.2108 43.3656C99.4649 44.2229 99.8222 44.9613 100.283 45.5805C100.743 46.1839 101.307 46.6523 101.974 46.9857C102.641 47.3192 103.387 47.4859 104.212 47.4859C105.102 47.4859 105.88 47.2795 106.546 46.8666C107.213 46.4538 107.769 45.8901 108.214 45.1756C108.674 44.4452 109.008 43.6275 109.214 42.7224L110.762 43.3178C110.508 44.4612 110.079 45.4694 109.476 46.3427C108.873 47.2159 108.103 47.8987 107.166 48.3909C106.229 48.8831 105.149 49.1293 103.927 49.1293C102.72 49.1293 101.608 48.9229 100.592 48.51C99.5919 48.0814 98.7186 47.4859 97.9724 46.7238C97.242 45.9457 96.6704 45.0248 96.2576 43.961C95.8605 42.8971 95.6621 41.7221 95.6621 40.436C95.6621 39.1499 95.8685 37.9749 96.2814 36.911C96.71 35.8472 97.2896 34.9343 98.02 34.1721C98.7663 33.394 99.6158 32.7986 100.568 32.3858C101.537 31.9571 102.569 31.7428 103.665 31.7428C104.776 31.7428 105.713 31.9175 106.475 32.2668C107.237 32.6161 107.856 33.1003 108.333 33.7196C108.825 34.3388 109.198 35.0692 109.452 35.9107L108.452 35.8393L108.857 31.9809H110.452V37.1731H108.642C108.388 36.4109 108.047 35.752 107.618 35.1962C107.205 34.6246 106.689 34.1801 106.07 33.8625C105.467 33.5449 104.736 33.3862 103.879 33.3862ZM121.332 36.6253V39.2928C121.204 39.2452 121.061 39.2134 120.903 39.1976C120.76 39.1658 120.609 39.142 120.451 39.1261C120.291 39.1102 120.133 39.1022 119.974 39.1022C119.561 39.1022 119.196 39.1578 118.878 39.269C118.577 39.3642 118.299 39.5151 118.044 39.7215C117.791 39.9279 117.561 40.1979 117.354 40.5313C117.148 40.8488 116.934 41.2379 116.711 41.6983V40.1979C116.949 39.4675 117.235 38.8323 117.568 38.2925C117.918 37.7527 118.33 37.3318 118.806 37.0302C119.284 36.7126 119.839 36.5539 120.474 36.5539C120.648 36.5539 120.816 36.5617 120.974 36.5777C121.133 36.5777 121.252 36.5935 121.332 36.6253ZM112.543 48.8911V47.6765H112.567C113.075 47.6765 113.488 47.6288 113.806 47.5336C114.123 47.4224 114.282 47.2001 114.282 46.8666V39.0308C114.282 38.8244 114.226 38.6656 114.115 38.5544C114.02 38.4433 113.852 38.3559 113.614 38.2925C113.393 38.2131 113.107 38.1337 112.757 38.0544L112.543 38.0066V36.7682H116.925V40.3884L117.163 40.1264V46.9857C117.163 47.1921 117.267 47.351 117.473 47.462C117.68 47.5574 117.925 47.6209 118.211 47.6526C118.513 47.6685 118.767 47.6765 118.973 47.6765H119.308V48.8911H112.543ZM130.645 41.5554V42.8416C129.931 42.9209 129.295 43.0241 128.739 43.1512C128.184 43.2624 127.7 43.4052 127.287 43.5799C126.89 43.7387 126.564 43.9292 126.31 44.1515C126.057 44.3738 125.858 44.6278 125.715 44.9137C125.588 45.1994 125.525 45.5091 125.525 45.8425C125.525 46.2236 125.603 46.5491 125.763 46.819C125.921 47.0889 126.144 47.2954 126.429 47.4382C126.715 47.5812 127.049 47.6526 127.43 47.6526C127.922 47.6526 128.358 47.5336 128.739 47.2954C129.137 47.0413 129.486 46.692 129.788 46.2474C130.105 45.787 130.375 45.255 130.598 44.6517V46.3427C130.359 46.9143 130.05 47.4144 129.669 47.8431C129.288 48.256 128.834 48.5736 128.311 48.7959C127.787 49.0181 127.191 49.1293 126.525 49.1293C125.795 49.1293 125.144 49.0023 124.572 48.7482C123.999 48.4942 123.547 48.129 123.214 47.6526C122.88 47.1605 122.714 46.5809 122.714 45.9139C122.714 45.263 122.88 44.6993 123.214 44.2229C123.547 43.7307 124.048 43.3178 124.715 42.9845C125.382 42.6352 126.207 42.3493 127.191 42.127C128.192 41.8889 129.343 41.6983 130.645 41.5554ZM130.288 48.8911V46.4141L130.026 46.3665V40.4122C130.026 39.8248 129.946 39.3563 129.788 39.007C129.629 38.6576 129.39 38.4115 129.074 38.2687C128.756 38.1099 128.358 38.0304 127.882 38.0304C127.168 38.0304 126.581 38.1813 126.12 38.483C125.676 38.7688 125.317 39.1182 125.048 39.5309C124.984 39.3563 124.96 39.1896 124.977 39.0308C125.008 38.8721 125.064 38.7291 125.144 38.6021C125.239 38.4751 125.358 38.3639 125.501 38.2687C125.644 38.1734 125.802 38.094 125.977 38.0304V40.5075H123.476V38.0066C123.715 37.8161 124.048 37.6097 124.477 37.3874C124.905 37.1493 125.429 36.9508 126.048 36.792C126.668 36.6173 127.358 36.53 128.12 36.53C128.771 36.53 129.375 36.6015 129.931 36.7444C130.502 36.8714 131.002 37.0937 131.431 37.4112C131.875 37.7129 132.217 38.1178 132.455 38.626C132.71 39.1182 132.836 39.7294 132.836 40.4598V46.8428C132.836 47.0493 132.907 47.2081 133.05 47.3192C133.21 47.4304 133.416 47.5097 133.669 47.5574C133.924 47.605 134.217 47.6367 134.551 47.6526H134.575V48.8911H130.288ZM142.512 47.2715L141.916 48.653L140.725 49.5341L136.104 38.8165C136.009 38.5942 135.89 38.4275 135.747 38.3163C135.604 38.1893 135.422 38.102 135.199 38.0544C134.993 38.0066 134.747 37.9828 134.461 37.9828H134.437V36.7682H140.773V37.9828H140.725C140.439 37.9828 140.145 37.9908 139.844 38.0066C139.543 38.0226 139.296 38.0464 139.106 38.0782C138.915 38.094 138.82 38.1337 138.82 38.1972L142.512 47.2715ZM142.655 48.4624C142.21 49.4945 141.765 50.3916 141.32 51.1537C140.892 51.9159 140.447 52.5351 139.987 53.0115C139.526 53.4878 139.041 53.845 138.534 54.0833C138.041 54.3214 137.494 54.4405 136.89 54.4405C136.478 54.4405 136.128 54.3929 135.842 54.2976C135.557 54.2023 135.327 54.0912 135.152 53.9642V51.6539C135.199 51.6698 135.31 51.7174 135.485 51.7968C135.676 51.8762 135.898 51.9477 136.152 52.0112C136.422 52.0906 136.708 52.1302 137.009 52.1302C137.375 52.1302 137.732 52.0746 138.082 51.9635C138.431 51.8523 138.781 51.646 139.129 51.3443C139.478 51.0426 139.828 50.6059 140.177 50.0343C140.543 49.4785 140.9 48.7482 141.249 47.8431L141.535 47.1763L145.155 38.5068C145.155 38.3957 145.068 38.3083 144.893 38.2449C144.735 38.1654 144.512 38.102 144.226 38.0544C143.956 38.0066 143.67 37.9828 143.369 37.9828H143.298V36.7682H148.323V37.9828H148.299C148.077 37.9828 147.862 38.0146 147.655 38.0782C147.449 38.1258 147.259 38.2289 147.084 38.3877C146.91 38.5306 146.767 38.753 146.655 39.0546L142.655 48.4624ZM161.856 42.8178C161.856 44.0562 161.586 45.1518 161.046 46.1045C160.506 47.0572 159.753 47.8035 158.784 48.3433C157.816 48.8673 156.688 49.1293 155.401 49.1293C154.131 49.1293 153.012 48.8673 152.044 48.3433C151.075 47.8035 150.313 47.0572 149.757 46.1045C149.217 45.1518 148.947 44.0562 148.947 42.8178C148.947 41.8969 149.098 41.0552 149.399 40.2931C149.717 39.5151 150.161 38.8482 150.734 38.2925C151.321 37.7209 152.003 37.2842 152.782 36.9825C153.576 36.6809 154.449 36.53 155.401 36.53C156.37 36.53 157.243 36.6809 158.022 36.9825C158.816 37.2842 159.498 37.7209 160.07 38.2925C160.658 38.8482 161.102 39.5151 161.404 40.2931C161.705 41.0552 161.856 41.8969 161.856 42.8178ZM151.948 42.8178C151.948 43.8022 152.083 44.6596 152.353 45.3899C152.639 46.1045 153.036 46.6603 153.544 47.0572C154.068 47.4382 154.687 47.6288 155.401 47.6288C156.132 47.6288 156.751 47.4382 157.26 47.0572C157.784 46.6603 158.18 46.1045 158.45 45.3899C158.736 44.6596 158.879 43.8022 158.879 42.8178C158.879 41.8333 158.736 40.9838 158.45 40.2693C158.18 39.5548 157.784 39.007 157.26 38.626C156.751 38.2449 156.132 38.0544 155.401 38.0544C154.687 38.0544 154.068 38.2449 153.544 38.626C153.036 39.007 152.639 39.5548 152.353 40.2693C152.083 40.9838 151.948 41.8333 151.948 42.8178ZM163.666 48.8911V47.6765H163.69C164.023 47.6765 164.317 47.6526 164.571 47.605C164.841 47.5574 165.047 47.478 165.19 47.3668C165.333 47.2398 165.405 47.0731 165.405 46.8666V39.0308C165.405 38.8244 165.35 38.6656 165.238 38.5544C165.143 38.4433 164.976 38.3559 164.738 38.2925C164.515 38.2131 164.229 38.1337 163.881 38.0544L163.666 38.0066V36.7682H168.049V39.3166L168.287 39.5071V47.462C168.287 47.4938 168.367 47.5336 168.525 47.5812C168.7 47.6129 168.898 47.6367 169.12 47.6526C169.358 47.6685 169.581 47.6765 169.787 47.6765H169.859V48.8911H163.666ZM177.933 48.8911H171.741V47.6765H171.765C171.971 47.6765 172.193 47.6685 172.431 47.6526C172.669 47.6367 172.875 47.6129 173.05 47.5812C173.224 47.5336 173.312 47.4859 173.312 47.4382V40.6027C173.312 40.0787 173.248 39.6501 173.122 39.3166C173.01 38.9673 172.82 38.7132 172.55 38.5544C172.296 38.3957 171.947 38.3163 171.502 38.3163C171.025 38.3163 170.573 38.4195 170.144 38.626C169.716 38.8323 169.311 39.142 168.93 39.5548C168.549 39.9676 168.183 40.4757 167.834 41.0791V39.2452C168.231 38.6576 168.644 38.1654 169.073 37.7685C169.517 37.3556 170.001 37.0461 170.525 36.8396C171.066 36.6332 171.653 36.53 172.288 36.53C173.066 36.53 173.741 36.6729 174.313 36.9587C174.9 37.2287 175.353 37.6573 175.67 38.2449C176.003 38.8165 176.17 39.5548 176.17 40.4598V46.8666C176.17 47.0731 176.241 47.2398 176.384 47.3668C176.527 47.478 176.726 47.5574 176.981 47.605C177.25 47.6526 177.552 47.6765 177.885 47.6765H177.933V48.8911ZM186.729 45.8187C186.729 45.5011 186.642 45.2391 186.467 45.0328C186.309 44.8263 186.086 44.6596 185.8 44.5326C185.514 44.3897 185.188 44.2706 184.824 44.1753C184.474 44.0642 184.093 43.961 183.68 43.8656C183.204 43.7387 182.72 43.5957 182.227 43.437C181.735 43.2782 181.29 43.0639 180.894 42.794C180.496 42.524 180.171 42.1826 179.917 41.7698C179.679 41.3411 179.56 40.8012 179.56 40.1503C179.56 39.4039 179.751 38.7609 180.132 38.221C180.528 37.6653 181.076 37.2445 181.775 36.9587C182.489 36.6571 183.339 36.5062 184.324 36.5062C185.101 36.5062 185.776 36.5697 186.348 36.6967C186.935 36.8078 187.411 36.9508 187.777 37.1255C188.158 37.2842 188.436 37.435 188.61 37.578V40.1264H186.253V37.959C186.443 37.9432 186.594 37.967 186.705 38.0304C186.832 38.094 186.919 38.1813 186.967 38.2925C187.03 38.4037 187.062 38.5306 187.062 38.6736C187.062 38.8006 187.03 38.9435 186.967 39.1022C186.792 38.8482 186.57 38.6418 186.3 38.483C186.047 38.3083 185.753 38.1813 185.419 38.102C185.086 38.0226 184.72 37.9828 184.324 37.9828C183.577 37.9828 183.013 38.1416 182.632 38.4592C182.268 38.7768 182.084 39.1816 182.084 39.6739C182.084 40.0073 182.171 40.2852 182.346 40.5075C182.521 40.7139 182.751 40.8886 183.037 41.0314C183.339 41.1743 183.68 41.3013 184.061 41.4125C184.443 41.5078 184.839 41.611 185.252 41.7221C185.744 41.8491 186.229 41.9921 186.705 42.1508C187.197 42.3096 187.642 42.524 188.039 42.794C188.436 43.0479 188.753 43.3814 188.991 43.7942C189.229 44.2071 189.348 44.7231 189.348 45.3423C189.348 46.0886 189.142 46.7476 188.729 47.3192C188.333 47.8908 187.753 48.3353 186.991 48.653C186.229 48.9705 185.3 49.1293 184.205 49.1293C183.411 49.1293 182.688 49.0658 182.037 48.9387C181.402 48.8117 180.838 48.653 180.346 48.4624C179.87 48.256 179.457 48.0496 179.108 47.8431V45.1042H181.537V48.0336C181.283 47.8908 181.084 47.7479 180.941 47.605C180.799 47.4462 180.703 47.2954 180.656 47.1525C180.624 46.9937 180.615 46.8508 180.632 46.7238C180.664 46.5809 180.719 46.4538 180.799 46.3427C181.052 46.6443 181.346 46.8904 181.68 47.081C182.029 47.2715 182.411 47.4144 182.823 47.5098C183.236 47.5891 183.688 47.6288 184.181 47.6288C184.705 47.6288 185.149 47.5653 185.514 47.4382C185.895 47.2954 186.189 47.0889 186.395 46.819C186.618 46.5333 186.729 46.1998 186.729 45.8187Z" fill="white"/>
<mask id="mask0_4865_17353" style="mask-type:luminance" maskUnits="userSpaceOnUse" x="9" y="31" width="15" height="30">
<path d="M11.3562 60.7691C18.3224 53.3965 11.5937 42.0972 23.1513 31.8398C9.61462 38.1706 6.36897 53.7171 11.3562 60.7691Z" fill="white"/>
</mask>
<g mask="url(#mask0_4865_17353)">
<path d="M6.36719 31.7617H23.1496V60.691H6.36719V31.7617Z" fill="url(#paint0_linear_4865_17353)"/>
</g>
<mask id="mask1_4865_17353" style="mask-type:luminance" maskUnits="userSpaceOnUse" x="10" y="0" width="20" height="41">
<path d="M23.1511 40.011C26.0009 34.0007 27.2675 26.3878 21.3304 21.4193C12.2267 13.7261 15.789 11.6426 10.7227 0.824219C19.7472 4.7509 27.9008 11.3221 29.4049 21.7398C30.1965 27.4296 28.4549 33.5198 23.1511 40.011Z" fill="white"/>
</mask>
<g mask="url(#mask1_4865_17353)">
<path d="M10.7227 0.824219H30.1965V40.011H10.7227V0.824219Z" fill="url(#paint1_linear_4865_17353)"/>
</g>
<mask id="mask2_4865_17353" style="mask-type:luminance" maskUnits="userSpaceOnUse" x="0" y="5" width="54" height="36">
<path d="M23.1529 40.0153C24.2612 34.5659 24.8945 27.1934 20.4614 25.4304C9.37866 20.9428 9.45783 23.1866 0.75 5.63672C15.0783 6.9189 19.9072 14.9325 24.657 18.2182C26.3194 19.3401 28.0609 19.9811 29.565 19.5804C31.1482 19.2599 31.3065 17.0962 33.4439 16.0545C35.5813 15.0127 38.352 15.5736 39.9352 17.8174C43.1017 17.8976 49.4346 18.6188 53.7886 19.6606C47.0598 18.7791 42.0726 19.2599 37.877 21.1031C31.8607 23.8277 31.4649 31.6009 23.1529 40.0153Z" fill="white"/>
</mask>
<g mask="url(#mask2_4865_17353)">
<path d="M0.75 5.63672H53.7886V39.9351H0.75V5.63672Z" fill="url(#paint2_linear_4865_17353)"/>
</g>
<mask id="mask3_4865_17353" style="mask-type:luminance" maskUnits="userSpaceOnUse" x="11" y="15" width="43" height="31">
<path d="M20.4587 25.3479C16.5005 23.7451 13.9673 23.0239 11.9883 21.9821C12.1466 22.0623 25.7626 26.9506 30.908 18.6164C31.5413 17.815 32.0955 16.6931 33.4412 16.052C35.5786 15.0102 38.3493 15.5713 39.9326 17.815C43.0991 17.8951 49.432 18.6164 53.7859 19.6581C47.1362 19.0171 42.0699 19.0972 37.8743 20.78C33.5204 22.5431 33.0454 28.4732 28.3748 34.6436C26.0792 37.6888 21.2503 40.734 21.0128 45.7826C19.1921 40.8943 21.4086 37.9293 22.8336 35.0444C24.496 31.7587 24.1793 26.8704 20.4587 25.3479Z" fill="white"/>
</mask>
<g mask="url(#mask3_4865_17353)">
<path d="M11.9883 15.0898H53.7859V45.7821H11.9883V15.0898Z" fill="url(#paint3_linear_4865_17353)"/>
</g>
<mask id="mask4_4865_17353" style="mask-type:luminance" maskUnits="userSpaceOnUse" x="21" y="17" width="33" height="29">
<path d="M39.936 17.8945C43.1025 17.8945 49.4354 18.6157 53.7894 19.6575C47.1397 19.0163 42.0734 19.4171 37.8778 21.0999C34.1572 22.6226 35.7404 28.2321 33.3655 33.7615C30.4365 40.3327 21.4121 40.0923 21.0955 45.7819C20.7788 37.8484 28.4575 38.169 30.5157 27.6712C31.3865 23.1033 34.1572 18.215 39.936 17.8945Z" fill="white"/>
</mask>
<g mask="url(#mask4_4865_17353)">
<path d="M20.6953 17.8945H53.785V45.7819H20.6953V17.8945Z" fill="url(#paint4_linear_4865_17353)"/>
</g>
<mask id="mask5_4865_17353" style="mask-type:luminance" maskUnits="userSpaceOnUse" x="21" y="20" width="9" height="23">
<path d="M25.5257 29.7547C25.3674 27.4307 24.7341 25.267 23.23 23.3437C25.4465 23.0232 27.5839 22.2219 29.2463 20.6992C29.3255 21.0198 29.4047 21.3403 29.4047 21.741C29.8005 24.706 29.563 27.8314 28.4547 30.9567C26.9506 35.2039 21.8051 38.4094 21.0926 42.9772C20.7759 37.6882 25.7632 34.3224 25.5257 29.7547Z" fill="white"/>
</mask>
<g mask="url(#mask5_4865_17353)">
<path d="M20.7773 20.6992H29.8019V42.9772H20.7773V20.6992Z" fill="url(#paint5_linear_4865_17353)"/>
</g>
<mask id="mask6_4865_17353" style="mask-type:luminance" maskUnits="userSpaceOnUse" x="13" y="9" width="17" height="15">
<path d="M23.2328 23.346C22.6787 22.7048 22.1246 22.0638 21.4121 21.4227C15.4749 16.4543 14.9208 13.8097 13.8125 9.5625C18.8789 12.4475 21.8079 16.2138 24.6578 18.2173C26.0826 19.259 27.6658 19.8199 29.0116 19.6597C29.0908 19.9802 29.1699 20.3008 29.2491 20.7014C27.5075 22.2241 25.3702 23.0254 23.2328 23.346Z" fill="white"/>
</mask>
<g mask="url(#mask6_4865_17353)">
<path d="M13.8125 9.5625H29.2491V23.346H13.8125V9.5625Z" fill="url(#paint6_linear_4865_17353)"/>
</g>
<mask id="mask7_4865_17353" style="mask-type:luminance" maskUnits="userSpaceOnUse" x="14" y="31" width="14" height="38">
<path d="M23.1534 31.7617C13.5747 41.8589 21.8076 58.928 27.6656 68.7046C20.3035 63.656 14.1288 56.4437 14.6038 46.9075C14.7621 41.7788 17.2954 36.65 23.1534 31.7617Z" fill="white"/>
</mask>
<g mask="url(#mask7_4865_17353)">
<path d="M13.6523 31.7617H27.6641V68.7046H13.6523V31.7617Z" fill="url(#paint7_linear_4865_17353)"/>
</g>
<mask id="mask8_4865_17353" style="mask-type:luminance" maskUnits="userSpaceOnUse" x="13" y="31" width="11" height="32">
<path d="M20.3857 62.3739C20.5441 59.4089 20.0691 56.2835 19.04 52.9178C16.5859 45.2247 15.5568 39.4549 23.1564 31.7617C11.2029 40.0158 10.728 52.0363 20.3857 62.3739Z" fill="white"/>
</mask>
<g mask="url(#mask8_4865_17353)">
<path d="M10.7266 31.7617H23.155V62.3739H10.7266V31.7617Z" fill="url(#paint8_linear_4865_17353)"/>
</g>
<mask id="mask9_4865_17353" style="mask-type:luminance" maskUnits="userSpaceOnUse" x="5" y="31" width="19" height="24">
<path d="M5.26524 54.7609C8.66921 51.4754 11.5982 49.2315 12.3899 45.0644C13.3397 40.2562 15.8729 36.65 23.1559 31.7617C9.77747 35.5282 4.15698 48.8308 5.26524 54.7609Z" fill="white"/>
</mask>
<g mask="url(#mask9_4865_17353)">
<path d="M4.15625 31.7617H23.1552V54.7609H4.15625V31.7617Z" fill="url(#paint9_linear_4865_17353)"/>
</g>
<mask id="mask10_4865_17353" style="mask-type:luminance" maskUnits="userSpaceOnUse" x="9" y="31" width="15" height="20">
<path d="M9.21875 50.8342C10.802 49.1514 11.9103 47.3884 12.3853 45.0644C13.3351 40.2562 15.8683 36.65 23.1513 31.7617C14.4434 35.9288 9.93121 43.8623 9.21875 50.8342Z" fill="white"/>
</mask>
<g mask="url(#mask10_4865_17353)">
<path d="M9.21875 31.7617H23.1513V50.8342H9.21875V31.7617Z" fill="url(#paint10_linear_4865_17353)"/>
</g>
<path fill-rule="evenodd" clip-rule="evenodd" d="M35.8198 18.2977C36.1364 18.2977 36.3739 18.0573 36.3739 17.7367C36.3739 17.4162 36.1364 17.1758 35.8198 17.1758C35.5031 17.1758 35.2656 17.4162 35.2656 17.7367C35.2656 18.0573 35.5031 18.2977 35.8198 18.2977Z" fill="white"/>
<mask id="mask11_4865_17353" style="mask-type:luminance" maskUnits="userSpaceOnUse" x="10" y="31" width="14" height="15">
<path d="M16.2632 43.0589C17.2131 39.3726 18.9547 35.5261 23.1503 31.8398C16.5798 34.9652 12.3842 40.174 10.4844 45.6233C12.5425 45.0623 14.5216 44.1808 16.2632 43.0589Z" fill="white"/>
</mask>
<g mask="url(#mask11_4865_17353)">
<path d="M10.4844 31.7617H23.1503V45.5452H10.4844V31.7617Z" fill="url(#paint11_linear_4865_17353)"/>
</g>
<mask id="mask12_4865_17353" style="mask-type:luminance" maskUnits="userSpaceOnUse" x="14" y="12" width="10" height="12">
<path d="M23.4717 23.6644C22.9175 22.8631 22.2051 22.1419 21.4134 21.4206C16.9012 17.6542 15.4763 15.2502 14.6055 12.4453C18.8802 14.6892 22.2051 18.7761 23.4717 23.6644Z" fill="white"/>
</mask>
<g mask="url(#mask12_4865_17353)">
<path d="M14.6055 12.4453H23.4717V23.6644H14.6055V12.4453Z" fill="url(#paint12_linear_4865_17353)"/>
</g>
<mask id="mask13_4865_17353" style="mask-type:luminance" maskUnits="userSpaceOnUse" x="3" y="10" width="22" height="21">
<path d="M23.8634 30.796C23.5467 28.3119 22.5968 26.2283 20.4594 25.427C10.5642 21.5003 9.53506 22.8625 3.28125 10.7619C4.31035 10.6017 5.33947 10.4414 6.44773 10.4414C16.1846 10.4414 24.0217 18.4551 24.0217 28.2317C24.0217 29.1132 23.9426 29.9145 23.8634 30.796Z" fill="white"/>
</mask>
<g mask="url(#mask13_4865_17353)">
<path d="M3.28125 10.4414H24.0217V30.796H3.28125V10.4414Z" fill="url(#paint13_linear_4865_17353)"/>
</g>
<mask id="mask14_4865_17353" style="mask-type:luminance" maskUnits="userSpaceOnUse" x="11" y="21" width="14" height="11">
<path d="M20.4586 25.3462C16.5004 23.7434 13.9673 23.0222 11.9883 21.9805C12.1466 22.0606 17.9254 24.1442 23.3084 23.2627C23.7834 24.8654 24.0209 26.4682 24.0209 28.151C24.0209 29.1126 23.9417 30.0743 23.7834 31.0359C23.8626 28.7119 22.8334 26.3079 20.4586 25.3462Z" fill="white"/>
</mask>
<g mask="url(#mask14_4865_17353)">
<path d="M11.9883 21.9805H24.0209V31.0359H11.9883V21.9805Z" fill="url(#paint14_linear_4865_17353)"/>
</g>
<mask id="mask15_4865_17353" style="mask-type:luminance" maskUnits="userSpaceOnUse" x="23" y="23" width="1" height="1">
<path d="M23.4719 23.6643C23.3927 23.5842 23.3135 23.4239 23.2344 23.3438H23.3927L23.4719 23.6643Z" fill="white"/>
</mask>
<g mask="url(#mask15_4865_17353)">
<path d="M23.2344 23.3438H23.4719V23.6643H23.2344V23.3438Z" fill="url(#paint15_linear_4865_17353)"/>
</g>
<mask id="mask16_4865_17353" style="mask-type:luminance" maskUnits="userSpaceOnUse" x="14" y="12" width="10" height="12">
<path d="M23.2341 23.3439C22.6799 22.7028 22.1258 22.0618 21.4133 21.4206C16.9012 17.6542 15.4763 15.2502 14.6055 12.4453C18.801 14.6892 22.0466 18.6158 23.3924 23.3439H23.2341Z" fill="white"/>
</mask>
<g mask="url(#mask16_4865_17353)">
<path d="M14.6055 12.4453H23.3924V23.3439H14.6055V12.4453Z" fill="url(#paint16_linear_4865_17353)"/>
</g>
<mask id="mask17_4865_17353" style="mask-type:luminance" maskUnits="userSpaceOnUse" x="15" y="31" width="9" height="13">
<path d="M23.1488 31.7617L23.0696 31.8419L22.9905 31.922C20.6948 34.4864 19.4282 37.4515 19.0323 40.6569C17.8449 41.8589 16.4991 42.9007 15.0742 43.7021C15.945 39.6952 18.4782 35.6884 23.1488 31.7617Z" fill="white"/>
</mask>
<g mask="url(#mask17_4865_17353)">
<path d="M14.9961 31.7617H23.1498V43.7822H14.9961V31.7617Z" fill="url(#paint17_linear_4865_17353)"/>
</g>
<mask id="mask18_4865_17353" style="mask-type:luminance" maskUnits="userSpaceOnUse" x="13" y="31" width="11" height="14">
<path d="M17.2946 42.2575C17.6904 38.972 19.3528 35.6062 23.1526 31.8398C17.9279 35.4459 14.8406 39.7733 13.8906 44.4212C15.1572 43.7802 16.2655 43.0589 17.2946 42.2575Z" fill="white"/>
</mask>
<g mask="url(#mask18_4865_17353)">
<path d="M13.8906 31.7617H23.1526V44.3432H13.8906V31.7617Z" fill="url(#paint18_linear_4865_17353)"/>
</g>
<mask id="mask19_4865_17353" style="mask-type:luminance" maskUnits="userSpaceOnUse" x="6" y="31" width="18" height="16">
<path d="M12.3889 44.9843C13.3389 40.1761 15.8721 36.65 23.1551 31.7617C14.6847 34.0857 9.38085 40.2562 6.84766 46.026C8.74755 46.026 10.6474 45.6253 12.3889 44.9843Z" fill="white"/>
</mask>
<g mask="url(#mask19_4865_17353)">
<path d="M6.84766 31.7617H23.1551V46.026H6.84766V31.7617Z" fill="url(#paint19_linear_4865_17353)"/>
</g>
<mask id="mask20_4865_17353" style="mask-type:luminance" maskUnits="userSpaceOnUse" x="10" y="31" width="14" height="15">
<path d="M12.3843 44.9843C13.3342 40.1761 15.8674 36.65 23.1503 31.7617C16.5798 34.8871 12.3842 40.096 10.4844 45.5452C11.1177 45.385 11.751 45.2247 12.3843 44.9843Z" fill="white"/>
</mask>
<g mask="url(#mask20_4865_17353)">
<path d="M10.4844 31.7617H23.1503V45.5452H10.4844V31.7617Z" fill="url(#paint20_linear_4865_17353)"/>
</g>
</g>
<path d="M191.547 37.7981V34.4014H191.251C191.074 34.4014 190.932 34.4097 190.825 34.4261C190.718 34.4426 190.638 34.4735 190.584 34.5188C190.535 34.5599 190.506 34.6176 190.498 34.6917L190.436 35.3772H190.004V34H193.863V35.3772H193.437L193.375 34.6917C193.371 34.6176 193.343 34.5599 193.289 34.5188C193.235 34.4735 193.153 34.4426 193.042 34.4261C192.935 34.4097 192.793 34.4014 192.616 34.4014H192.319V37.7981C192.319 37.8887 192.365 37.9484 192.455 37.9772C192.55 38.006 192.667 38.0204 192.807 38.0204H192.912V38.3848H190.961V38.0204H191.066C191.202 38.0204 191.315 38.006 191.405 37.9772C191.5 37.9484 191.547 37.8887 191.547 37.7981Z" fill="white"/>
<path d="M194.406 38.3848V38.0204H194.474C194.564 38.0204 194.645 38.0142 194.715 38.0019C194.789 37.9895 194.846 37.9669 194.888 37.9339C194.929 37.901 194.949 37.8557 194.949 37.7981V34.5867C194.949 34.5249 194.929 34.4796 194.888 34.4508C194.846 34.4179 194.789 34.3952 194.715 34.3829C194.645 34.3705 194.564 34.3644 194.474 34.3644H194.406V34H196.092L197.216 37.6252L197.074 37.5202L198.216 34H199.865V34.3644H199.797C199.707 34.3644 199.624 34.3705 199.55 34.3829C199.48 34.3952 199.425 34.4179 199.383 34.4508C199.342 34.4796 199.322 34.5249 199.322 34.5867V37.7981C199.322 37.8557 199.342 37.901 199.383 37.9339C199.425 37.9669 199.48 37.9895 199.55 38.0019C199.624 38.0142 199.707 38.0204 199.797 38.0204H199.865V38.3848H198.062V38.0204H198.117C198.179 38.0204 198.243 38.0183 198.309 38.0142C198.379 38.0101 198.436 38.0039 198.482 37.9957C198.531 37.9833 198.556 37.971 198.556 37.9586V34.1359L198.618 34.1235L197.203 38.3971H196.746L195.332 34.1235H195.4V37.9586C195.4 37.971 195.425 37.9833 195.474 37.9957C195.524 38.0039 195.583 38.0101 195.653 38.0142C195.723 38.0183 195.787 38.0204 195.845 38.0204H195.869V38.3848H194.406Z" fill="white"/>
<defs>
<linearGradient id="paint0_linear_4865_17353" x1="10.9238" y1="46.3839" x2="22.5342" y2="46.0693" gradientUnits="userSpaceOnUse">
<stop stop-color="#E860F9"/>
<stop offset="0.56" stop-color="#0884D1"/>
<stop offset="1" stop-color="#0CBAB1"/>
</linearGradient>
<linearGradient id="paint1_linear_4865_17353" x1="14.099" y1="9.54554" x2="19.9438" y2="19.2814" gradientUnits="userSpaceOnUse">
<stop stop-color="#16BAEB"/>
<stop offset="1" stop-color="#0FC3E2"/>
</linearGradient>
<linearGradient id="paint2_linear_4865_17353" x1="5.81661" y1="2.52157" x2="21.8099" y2="17.2966" gradientUnits="userSpaceOnUse">
<stop stop-color="#B5D91E"/>
<stop offset="0.5" stop-color="#3BDAA9"/>
<stop offset="1" stop-color="#26A5FF"/>
</linearGradient>
<linearGradient id="paint3_linear_4865_17353" x1="42.4233" y1="17.3753" x2="23.6828" y2="42.4176" gradientUnits="userSpaceOnUse">
<stop stop-color="#E860F9"/>
<stop offset="0.56" stop-color="#0884D1"/>
<stop offset="1" stop-color="#0CBAB1"/>
</linearGradient>
<linearGradient id="paint4_linear_4865_17353" x1="32.0157" y1="38.2365" x2="49.4386" y2="17.283" gradientUnits="userSpaceOnUse">
<stop stop-color="#E860F9"/>
<stop offset="0.56" stop-color="#0884D1"/>
<stop offset="1" stop-color="#0CBAB1"/>
</linearGradient>
<linearGradient id="paint5_linear_4865_17353" x1="29.3748" y1="22.2032" x2="24.1382" y2="34.2922" gradientUnits="userSpaceOnUse">
<stop stop-color="#3512BE"/>
<stop offset="1" stop-color="#2A81EF"/>
</linearGradient>
<linearGradient id="paint6_linear_4865_17353" x1="15.1727" y1="14.8589" x2="26.5001" y2="17.6422" gradientUnits="userSpaceOnUse">
<stop stop-color="#5086FF"/>
<stop offset="1" stop-color="#7C66FF"/>
</linearGradient>
<linearGradient id="paint7_linear_4865_17353" x1="32.9978" y1="56.6799" x2="24.7961" y2="52.5411" gradientUnits="userSpaceOnUse">
<stop stop-color="#B5D91E"/>
<stop offset="0.5" stop-color="#3BDAA9"/>
<stop offset="1" stop-color="#26A5FF"/>
</linearGradient>
<linearGradient id="paint8_linear_4865_17353" x1="14.2174" y1="46.8825" x2="21.4886" y2="47.4456" gradientUnits="userSpaceOnUse">
<stop stop-color="#5086FF"/>
<stop offset="1" stop-color="#7C66FF"/>
</linearGradient>
<linearGradient id="paint9_linear_4865_17353" x1="9.06286" y1="39.6352" x2="11.9659" y2="41.8918" gradientUnits="userSpaceOnUse">
<stop stop-color="#B5D91E"/>
<stop offset="0.5" stop-color="#3BDAA9"/>
<stop offset="1" stop-color="#26A5FF"/>
</linearGradient>
<linearGradient id="paint10_linear_4865_17353" x1="7.36422" y1="37.3873" x2="13.8968" y2="40.2365" gradientUnits="userSpaceOnUse">
<stop stop-color="#BCDD35"/>
<stop offset="0.5" stop-color="#4FDEB2"/>
<stop offset="1" stop-color="#3CAEFF"/>
</linearGradient>
<linearGradient id="paint11_linear_4865_17353" x1="10.7206" y1="38.8589" x2="22.331" y2="38.5444" gradientUnits="userSpaceOnUse">
<stop stop-color="#F097FB"/>
<stop offset="0.56" stop-color="#5DAEE1"/>
<stop offset="1" stop-color="#60D2CC"/>
</linearGradient>
<linearGradient id="paint12_linear_4865_17353" x1="14.0485" y1="9.57959" x2="19.8933" y2="19.3155" gradientUnits="userSpaceOnUse">
<stop stop-color="#66D2F2"/>
<stop offset="1" stop-color="#62D7EC"/>
</linearGradient>
<linearGradient id="paint13_linear_4865_17353" x1="0.567891" y1="8.19743" x2="16.5612" y2="22.9725" gradientUnits="userSpaceOnUse">
<stop stop-color="#CEE66B"/>
<stop offset="0.5" stop-color="#7FE7C7"/>
<stop offset="1" stop-color="#72C4FF"/>
</linearGradient>
<linearGradient id="paint14_linear_4865_17353" x1="30.9825" y1="8.81256" x2="12.242" y2="33.8547" gradientUnits="userSpaceOnUse">
<stop stop-color="#F097FB"/>
<stop offset="0.56" stop-color="#5DAEE1"/>
<stop offset="1" stop-color="#60D2CC"/>
</linearGradient>
<linearGradient id="paint15_linear_4865_17353" x1="24.725" y1="20.1877" x2="19.4884" y2="32.2768" gradientUnits="userSpaceOnUse">
<stop stop-color="#7A63D5"/>
<stop offset="1" stop-color="#73ACF4"/>
</linearGradient>
<linearGradient id="paint16_linear_4865_17353" x1="14.6956" y1="16.8039" x2="26.0229" y2="19.5873" gradientUnits="userSpaceOnUse">
<stop stop-color="#8DB0FF"/>
<stop offset="1" stop-color="#AA9AFF"/>
</linearGradient>
<linearGradient id="paint17_linear_4865_17353" x1="37.6665" y1="47.424" x2="29.4648" y2="43.2853" gradientUnits="userSpaceOnUse">
<stop stop-color="#CEE66B"/>
<stop offset="0.5" stop-color="#7FE7C7"/>
<stop offset="1" stop-color="#72C4FF"/>
</linearGradient>
<linearGradient id="paint18_linear_4865_17353" x1="14.9189" y1="37.7948" x2="22.1899" y2="38.358" gradientUnits="userSpaceOnUse">
<stop stop-color="#8DB0FF"/>
<stop offset="1" stop-color="#AA9AFF"/>
</linearGradient>
<linearGradient id="paint19_linear_4865_17353" x1="11.6693" y1="36.2821" x2="14.5724" y2="38.5388" gradientUnits="userSpaceOnUse">
<stop stop-color="#CEE66B"/>
<stop offset="0.5" stop-color="#7FE7C7"/>
<stop offset="1" stop-color="#72C4FF"/>
</linearGradient>
<linearGradient id="paint20_linear_4865_17353" x1="8.4275" y1="34.9471" x2="14.9601" y2="37.7963" gradientUnits="userSpaceOnUse">
<stop stop-color="#D3E97A"/>
<stop offset="0.5" stop-color="#8CE9CD"/>
<stop offset="1" stop-color="#80CAFF"/>
</linearGradient>
<clipPath id="clip0_4865_17353">
<rect width="191.082" height="68.7895" fill="white" transform="translate(0.75 0.605469)"/>
</clipPath>
</defs>
</svg>
