<svg width="25" height="25" viewBox="0 0 25 25" fill="none" xmlns="http://www.w3.org/2000/svg">
<rect width="25" height="25" rx="5" fill="#F9FAFB"/>
<path d="M8.25454 7.42426C7.91072 7.48727 7.66123 7.78595 7.66123 8.13438V8.21048H7.04545C6.52529 8.21048 6.10205 8.63372 6.10205 9.15388V10.3877C6.10205 10.4624 6.131 10.5607 6.19086 10.6316L8.19466 13.0052C8.32898 13.1646 8.56723 13.1843 8.72642 13.0502C8.88562 12.9157 8.90589 12.6776 8.77138 12.5184L7.29161 10.7656H19.6648L14.5257 16.4654C14.3376 16.6703 14.2341 16.9406 14.2341 17.226V20.2005L12.3812 19.3429V17.2109C12.3812 16.9397 12.2857 16.6793 12.1145 16.4803L12.0731 16.4313C11.9384 16.2723 11.7005 16.2524 11.5411 16.3869C11.3821 16.5216 11.3622 16.7596 11.4967 16.9188L11.5404 16.9702C11.5959 17.0347 11.6264 17.1202 11.6264 17.2109V19.3429C11.6264 19.6477 11.8057 19.9252 12.081 20.0486L14.1712 21.0031C14.2486 21.0385 14.331 21.0561 14.413 21.0561C14.5219 21.0561 14.63 21.0252 14.7251 20.9642C14.8902 20.8581 14.9888 20.6781 14.9888 20.4826V17.226C14.9888 17.1298 15.0218 17.041 15.084 16.973L20.7934 10.6408C20.8549 10.5726 20.8907 10.4642 20.8907 10.3877V9.15388C20.8907 8.63372 20.4675 8.21048 19.9473 8.21048H18.9542V8.13438C18.9542 7.78595 18.7047 7.48727 18.3566 7.42352L17.5529 7.28533C17.4707 7.01558 17.3631 6.75577 17.2317 6.50887L17.6999 5.84462C17.9041 5.55755 17.8717 5.16821 17.6225 4.91928L16.9789 4.27567C16.7309 4.02693 16.3414 3.99247 16.0519 4.19534L15.3869 4.66575C15.1413 4.53455 14.8823 4.42732 14.6121 4.34495L14.4727 3.54288C14.4144 3.19574 14.1163 2.94386 13.7636 2.94386H12.8518C12.4989 2.94386 12.2008 3.19593 12.1433 3.54067L12.0034 4.34495C11.7333 4.42713 11.4741 4.53455 11.2285 4.66575L10.5624 4.1946C10.2744 3.99229 9.88522 4.02674 9.63665 4.27549L8.99286 4.91928C8.74374 5.16821 8.71132 5.55755 8.91455 5.84333L9.38367 6.50887C9.25211 6.75577 9.14469 7.01558 9.06251 7.28533L8.25454 7.42426ZM20.136 9.15388V10.0103H6.85677V9.15388C6.85677 9.04977 6.94134 8.9652 7.04545 8.9652H19.9473C20.0514 8.9652 20.136 9.04977 20.136 9.15388ZM11.525 8.21048C11.6994 7.38727 12.4309 6.7672 13.3052 6.7672C14.182 6.7672 14.9154 7.38727 15.0903 8.21048H11.525ZM9.42679 7.98845C9.57493 7.96303 9.69377 7.8521 9.72952 7.70617C9.81815 7.34245 9.96039 6.99862 10.1524 6.68373C10.2305 6.5553 10.2252 6.39279 10.1386 6.26989L9.54784 5.4317L10.1513 4.82826L10.9889 5.42083C11.112 5.5078 11.2753 5.51333 11.4042 5.43447C11.716 5.24321 12.0591 5.10096 12.4237 5.01178C12.5695 4.97622 12.6802 4.85774 12.706 4.70997L12.882 3.69858H13.7336L13.9096 4.70997C13.9354 4.85774 14.0461 4.97622 14.1919 5.01178C14.5565 5.10096 14.8994 5.24321 15.2112 5.43447C15.3396 5.51333 15.503 5.50817 15.6265 5.42083L16.4641 4.82826L17.0676 5.4317L16.4768 6.26989C16.3902 6.39279 16.3849 6.5553 16.463 6.68373C16.6548 6.99844 16.7973 7.34245 16.8862 7.70617C16.9218 7.85229 17.0407 7.96303 17.1888 7.98845L18.1994 8.16221V8.21048H15.8547C15.6708 6.96914 14.5993 6.01248 13.3052 6.01248C12.0137 6.01248 10.9442 6.96914 10.7607 8.21048H8.41595V8.16221L9.42679 7.98845Z" fill="#6B7280"/>
<path d="M5.73198 15.709C5.38871 15.709 5.10938 15.9883 5.10938 16.3316C5.10938 16.6751 5.38871 16.9544 5.73198 16.9544C6.07525 16.9544 6.35458 16.6751 6.35458 16.3316C6.35458 16.3038 6.34993 16.2773 6.34639 16.2504L7.00163 15.5952C7.08733 15.6066 7.08215 15.6059 7.16294 15.5953L7.29317 15.7256C7.24081 16.12 7.54908 16.428 7.90492 16.428C8.24967 16.428 8.53011 16.1497 8.53011 15.8079C8.53011 15.7795 8.52541 15.7524 8.52172 15.7249L9.52696 14.7197C9.60895 14.7305 9.60398 14.7308 9.68862 14.7196L10.1439 15.1749C10.1404 15.2018 10.1357 15.2283 10.1357 15.2561C10.1357 15.5996 10.4151 15.8789 10.7585 15.8789C11.1018 15.8789 11.3811 15.5996 11.3811 15.2561C11.3811 15.2288 11.3765 15.2028 11.3731 15.1765L13.0884 13.4611C13.1773 13.4729 13.17 13.4714 13.2481 13.4616L13.5608 13.7743C13.5038 14.1703 13.8154 14.4826 14.1776 14.4826C14.5192 14.4826 14.7971 14.2047 14.7971 13.8631C14.7971 13.8344 14.7924 13.8069 14.7887 13.7792L15.8972 12.6707C15.9248 12.6744 15.9522 12.6791 15.9809 12.6791C16.3225 12.6791 16.6004 12.4012 16.6004 12.0596C16.6004 11.7145 16.3225 11.4339 15.9809 11.4339C15.6358 11.4339 15.355 11.7145 15.355 12.0596C15.355 12.0863 15.3596 12.1118 15.363 12.1377L14.2553 13.2453C14.1712 13.2345 14.1832 13.2347 14.0991 13.2453L13.7825 12.9287C13.7859 12.9026 13.7905 12.8769 13.7905 12.8499C13.7905 12.5048 13.5126 12.2241 13.171 12.2241C12.8259 12.2241 12.5453 12.5048 12.5453 12.8499C12.5453 12.877 12.5499 12.9028 12.5533 12.929L10.8405 14.6418C10.7547 14.6303 10.7591 14.631 10.6779 14.6416L10.2219 14.1857C10.2735 13.7933 9.96622 13.4826 9.60746 13.4826C9.26419 13.4826 8.98485 13.762 8.98485 14.1052C8.98485 14.133 8.98951 14.1596 8.99305 14.1864L7.98842 15.191C7.9007 15.1792 7.90476 15.1803 7.82551 15.1907L7.69731 15.0625C7.74939 14.6712 7.44388 14.358 7.08295 14.358C6.73968 14.358 6.46035 14.6374 6.46035 14.9808C6.46035 15.0083 6.465 15.0346 6.46848 15.0611L5.81248 15.7171C5.78585 15.7136 5.75955 15.709 5.73198 15.709Z" fill="#6B7280"/>
</svg>
