<svg width="42" height="42" viewBox="0 0 42 42" fill="none" xmlns="http://www.w3.org/2000/svg">
<path d="M39.1464 26.5885H32.0144C31.6526 26.5885 31.317 26.4479 31.0601 26.1854L29.7045 24.8297C29.159 24.2934 28.4465 23.999 27.6946 23.999H22.3472C20.7761 23.999 19.4973 25.2778 19.4973 26.8491V39.1497C19.4973 40.721 20.7761 41.9998 22.3472 41.9998H39.1464C40.7176 41.9998 41.9963 40.721 41.9963 39.1497V29.4369C41.9963 27.8656 40.7176 26.5868 39.1464 26.5868V26.5885ZM27.5276 36.0147C27.8201 36.3072 27.8201 36.7816 27.5276 37.076C27.3814 37.2222 27.1901 37.2953 26.997 37.2953C26.8057 37.2953 26.6126 37.2222 26.4664 37.076L24.2165 34.8259C23.924 34.5333 23.924 34.0589 24.2165 33.7646L26.4664 31.5145C26.7589 31.222 27.2332 31.222 27.5276 31.5145C27.82 31.807 27.82 32.2814 27.5276 32.5758L25.8083 34.2952L27.5276 36.0147ZM32.2074 32.2814L30.7075 36.7816C30.6025 37.0966 30.31 37.2935 29.9968 37.2935C29.9181 37.2935 29.8394 37.2804 29.7587 37.2541C29.3669 37.1229 29.1531 36.6991 29.2844 36.3053L30.7843 31.8051C30.9156 31.4132 31.3374 31.1995 31.733 31.3307C32.1249 31.462 32.3386 31.8857 32.2074 32.2795L32.2074 32.2814ZM37.2769 34.8259L35.027 37.076C34.8808 37.2223 34.6895 37.2954 34.4964 37.2954C34.3052 37.2954 34.112 37.2223 33.9658 37.076C33.6733 36.7835 33.6733 36.3091 33.9658 36.0147L35.6851 34.2953L33.9658 32.5759C33.6733 32.2833 33.6733 31.8089 33.9658 31.5146C34.2583 31.2221 34.7326 31.2221 35.027 31.5146L37.2769 33.7647C37.5693 34.0572 37.5694 34.5316 37.2769 34.8259Z" fill="#016BE3" fill-opacity="0.5"/>
<path d="M27.6942 22.5016C28.8417 22.5016 29.9291 22.9516 30.7541 23.7616L32.0815 25.0892H32.2615C32.7265 23.8141 32.9965 22.4416 32.9965 21.0015C32.9965 14.3863 27.6116 9.00098 20.997 9.00098C14.3825 9.00098 8.99759 14.3863 8.99759 21.0015C8.99759 26.5817 12.8299 31.2696 17.9972 32.6046V26.852C17.9972 24.4519 19.9471 22.5018 22.347 22.5018L27.6942 22.5016Z" fill="#016BE3"/>
<path d="M40.4965 18.0009H38.7416C38.2935 15.3289 37.2379 12.7845 35.6668 10.5736L36.9061 9.33228C37.4911 8.74723 37.4911 7.79472 36.9061 7.21154L34.7855 5.09081C34.2005 4.50576 33.2481 4.50576 32.665 5.09081L31.4257 6.33023C29.2152 4.75705 26.671 3.70322 23.999 3.25512V1.50006C23.999 0.673133 23.3259 0 22.4991 0H19.4992C18.6724 0 17.9993 0.673133 17.9993 1.50006V3.25512C15.3276 3.70326 12.7834 4.75893 10.5726 6.33023L9.33331 5.09081C9.0502 4.80768 8.67334 4.65017 8.274 4.65017H8.27212C7.87089 4.65017 7.4959 4.8058 7.21094 5.08894L5.0904 7.20967C4.5054 7.79472 4.5054 8.74722 5.0904 9.3304L6.33157 10.5717C4.75854 12.7824 3.7048 15.3269 3.25482 17.999H1.49993C0.673072 17.999 0 18.6722 0 19.4991V22.4992C0 23.3262 0.673072 23.9993 1.49993 23.9993H3.25482C3.70292 26.6713 4.75849 29.2157 6.33157 31.4267L5.0904 32.668C4.5054 33.253 4.5054 34.2055 5.0904 34.7887L7.21094 36.9094C7.49405 37.1926 7.87091 37.3482 8.27212 37.3482H8.274C8.67523 37.3482 9.05022 37.1907 9.33331 36.9094L10.5745 35.67C12.785 37.2432 15.3292 38.297 18.0012 38.7451V34.153C11.9995 32.7842 7.50166 27.4121 7.50166 20.9995C7.50166 13.5554 13.5575 7.49893 21.001 7.49893C28.4445 7.49893 34.5004 13.5554 34.5004 20.9995C34.5004 22.4246 34.2754 23.7971 33.8648 25.0872H38.5258C38.6102 24.7272 38.6852 24.3653 38.7452 23.9996H40.5001C41.3269 23.9996 42 23.3265 42 22.4996V19.4995C42 18.6725 41.3269 17.9994 40.5001 17.9994L40.4965 18.0009Z" fill="#016BE3"/>
</svg>
