<svg width="41" height="41" viewBox="0 0 41 41" fill="none" xmlns="http://www.w3.org/2000/svg">
<path d="M37.6758 2.61797C37.6758 1.49208 36.817 0.631104 35.694 0.631104H5.30636C4.18333 0.631104 3.32455 1.49208 3.32455 2.61797V15.2014H37.6758V2.61797ZM36.3546 1.95568V2.41928L32.9855 7.25398H31.4001L35.0994 1.95568H36.3546ZM31.4001 1.95568L27.7007 7.25398H26.1153L29.8146 1.95568H31.4001ZM26.1153 1.95568L22.4159 7.25398H20.8305L24.5298 1.95568H26.1153ZM20.8305 1.95568L17.1311 7.25398H15.5457L19.245 1.95568H20.8305ZM9.93056 1.95568H11.2518V6.06186L13.9602 1.95568H15.5457L12.0445 7.25398H11.2518H9.93056V1.95568ZM13.9602 13.8769L11.2518 9.77068V13.8769H9.93056V8.57856H12.0445L15.5457 13.8769H13.9602ZM19.245 13.8769L15.5457 8.57856H17.1311L20.8305 13.8769H19.245ZM24.5298 13.8769L20.8305 8.57856H22.4159L26.1153 13.8769H24.5298ZM29.8146 13.8769L26.1153 8.57856H27.7007L31.4001 13.8769H29.8146ZM36.3546 13.8769H35.0994L31.4001 8.57856H32.9855L36.3546 13.4133V13.8769Z" fill="#016BE3" fill-opacity="0.5"/>
<path d="M15.8759 24.4738H2.6639C1.54088 24.4738 0.682098 25.3347 0.682098 26.4606V38.3818C0.682098 39.5077 1.54088 40.3687 2.6639 40.3687H15.8759C16.9989 40.3687 17.8577 39.5077 17.8577 38.3818V26.4606C17.8577 25.3347 16.9989 24.4738 15.8759 24.4738ZM4.6457 37.4546V27.3878L14.6868 32.4212L4.6457 37.4546Z" fill="#016BE3"/>
<path d="M29.749 29.7716C29.749 30.5001 30.3435 31.0962 31.0702 31.0962V28.447C30.3435 28.447 29.749 29.0431 29.749 29.7716Z" fill="#80B5F1"/>
<path d="M32.3902 35.0702C33.1169 35.0702 33.7114 34.4741 33.7114 33.7456C33.7114 33.0171 33.1169 32.421 32.3902 32.421V35.0702Z" fill="#80B5F1"/>
<path d="M31.7313 23.1488C26.9749 23.1488 23.1435 26.9901 23.1435 31.7585C23.1435 36.527 26.9749 40.3683 31.7313 40.3683C36.4876 40.3683 40.3191 36.527 40.3191 31.7585C40.3191 26.9901 36.4876 23.1488 31.7313 23.1488ZM35.0343 33.7454C35.0343 35.2024 33.8452 36.3946 32.3919 36.3946V37.7191H31.0707V36.3946C29.6173 36.3946 28.4283 35.2024 28.4283 33.7454H29.7495C29.7495 34.4739 30.344 35.07 31.0707 35.07V32.4208C29.6173 32.4208 28.4283 31.2287 28.4283 29.7717C28.4283 28.3146 29.6173 27.1225 31.0707 27.1225V25.798H32.3919V27.1225C33.8452 27.1225 35.0343 28.3146 35.0343 29.7717H33.7131C33.7131 29.0432 33.1185 28.4471 32.3919 28.4471V31.0963C33.8452 31.0963 35.0343 32.2884 35.0343 33.7454Z" fill="#016BE3" fill-opacity="0.5"/>
<path d="M31.7304 21.8241C33.9764 21.8241 36.0243 22.5526 37.6758 23.8109V16.5258H3.32455V23.1486H15.876C17.7256 23.1486 19.179 24.6057 19.179 26.4601V33.7452H22.0195C21.8874 33.083 21.8214 32.4207 21.8214 31.7584C21.8214 26.2614 26.2474 21.8241 31.7304 21.8241Z" fill="#016BE3"/>
</svg>
