<svg width="502" height="59" viewBox="0 0 502 59" fill="none" xmlns="http://www.w3.org/2000/svg">
<rect x="0.655374" y="0.655374" width="93.6096" height="57.1996" rx="3.26086" fill="#F1F7FF" stroke="#D0E4F9" stroke-width="0.689253"/>
<path d="M105.198 0.635471C103.654 0.635471 102.403 1.88671 102.403 3.43019V54.824C102.403 56.3675 103.654 57.6188 105.198 57.6188H193.258C194.801 57.6188 196.052 56.3675 196.052 54.824V3.43019C196.052 1.88671 194.801 0.635471 193.258 0.635471H105.198Z" fill="#F1F7FF" stroke="#D0E4F9" stroke-width="0.729058"/>
<path d="M139.072 26.6549C139.334 26.8227 139.739 26.9658 140.241 27.0616C140.742 27.2047 141.267 27.2284 141.816 27.2284C142.341 27.2284 142.818 27.1573 143.248 27.0368C143.677 26.8937 144.059 26.7032 144.393 26.4633C144.703 26.2245 144.966 25.9382 145.133 25.5552C145.3 25.1969 145.395 24.8149 145.395 24.3608C145.395 23.8347 145.229 23.3569 144.919 22.9265C144.609 22.5198 144.083 22.1852 143.343 21.9463L141.912 21.4686C141.387 21.3018 140.981 21.1103 140.765 20.8951C140.575 20.7036 140.455 20.4647 140.455 20.1537C140.455 19.7481 140.623 19.4134 140.933 19.2456C141.267 19.0551 141.697 18.9357 142.294 18.9357C143.033 18.9357 143.653 19.0788 144.274 19.3414C144.441 19.4134 144.584 19.4855 144.679 19.4855C144.847 19.4855 144.919 19.3898 144.919 19.1509V18.7442C144.919 18.6011 144.894 18.4816 144.823 18.4095C144.751 18.3138 144.656 18.218 144.513 18.147C144.418 18.0749 144.25 18.0028 144.083 17.9792C143.916 17.9081 143.725 17.8834 143.511 17.8124C143.32 17.7876 143.08 17.7166 142.842 17.7166C142.604 17.6445 142.364 17.6445 142.15 17.6445C141.672 17.6445 141.291 17.7166 140.885 17.8124C140.48 17.9555 140.121 18.1223 139.811 18.3375C139.501 18.5763 139.286 18.8399 139.072 19.1746C138.881 19.5092 138.809 19.8675 138.809 20.3216C138.809 20.8477 138.976 21.3492 139.31 21.8032C139.644 22.281 140.17 22.6156 140.956 22.8308L142.436 23.3085C142.938 23.4764 143.271 23.6432 143.462 23.8347C143.653 24.0262 143.725 24.2651 143.725 24.5276C143.725 24.9343 143.558 25.269 143.201 25.5078C142.842 25.7467 142.364 25.8425 141.697 25.8425C141.291 25.8425 140.885 25.8188 140.503 25.6994C140.098 25.6273 139.739 25.5078 139.358 25.34C139.263 25.3163 139.167 25.269 139.095 25.2453C139.023 25.2206 138.952 25.2206 138.904 25.2206C138.737 25.2206 138.666 25.3163 138.666 25.5552V26.0577C138.666 26.1534 138.69 26.2481 138.737 26.3686C138.809 26.4881 138.904 26.5591 139.072 26.6549Z" fill="black"/>
<path d="M121.79 21.7072C121.432 21.6352 121.05 21.6351 120.716 21.6351C119.69 21.6351 118.854 21.8987 118.21 22.4486C117.566 22.9737 117.279 23.6913 117.279 24.5511C117.279 25.3882 117.518 26.0327 118.019 26.5352C118.52 27.0366 119.189 27.2755 120.048 27.2755C121.241 27.2755 122.243 26.7977 123.055 25.8659C123.15 26.1048 123.246 26.2963 123.365 26.4631C123.484 26.6309 123.604 26.7977 123.723 26.9409C123.819 27.0366 123.914 27.085 124.033 27.085C124.104 27.085 124.2 27.0613 124.295 26.9892L124.94 26.5589C125.083 26.4631 125.131 26.3673 125.131 26.2479C125.131 26.1769 125.107 26.1048 125.06 26.009C124.917 25.7465 124.797 25.5076 124.726 25.2687C124.654 25.0299 124.63 24.7426 124.63 24.3606V21.0143C124.63 19.9146 124.367 19.0786 123.794 18.5051C123.222 17.9316 122.362 17.668 121.122 17.668C120.549 17.668 120.024 17.74 119.523 17.8595C119.045 18.0026 118.616 18.122 118.258 18.3372C118.115 18.4093 118.019 18.4803 117.995 18.5287C117.924 18.6008 117.924 18.7203 117.924 18.8871V19.3895C117.924 19.58 117.995 19.7231 118.115 19.7231C118.138 19.7231 118.21 19.7231 118.282 19.6994C118.353 19.6758 118.473 19.6284 118.64 19.5563C118.998 19.4132 119.379 19.2938 119.737 19.2217C120.095 19.1259 120.477 19.0786 120.835 19.0786C121.647 19.0786 122.171 19.2454 122.506 19.5563C122.84 19.8673 122.983 20.4171 122.983 21.2058V21.9461C122.553 21.8503 122.196 21.7793 121.79 21.7072ZM122.959 23.5235C122.959 23.8581 122.936 24.1691 122.864 24.3843C122.792 24.6231 122.697 24.862 122.53 25.0298C122.267 25.3398 121.933 25.555 121.551 25.6744C121.193 25.8186 120.811 25.8659 120.477 25.8659C120 25.8659 119.642 25.7228 119.403 25.5076C119.165 25.2687 119.045 24.9094 119.045 24.4316C119.045 23.9302 119.212 23.5235 119.547 23.2609C119.881 22.9984 120.382 22.8542 121.05 22.8542C121.36 22.8542 121.695 22.8779 122.029 22.9263C122.362 22.95 122.673 23.0221 122.959 23.0931V23.5235Z" fill="black"/>
<path d="M128.113 26.4879C128.184 26.6784 128.256 26.8225 128.304 26.8936C128.375 26.9657 128.495 26.9893 128.71 26.9893H129.569C129.76 26.9893 129.902 26.9657 129.974 26.8936C130.046 26.8225 130.118 26.7031 130.165 26.4879L131.741 19.891L133.34 26.4879C133.364 26.6784 133.435 26.8225 133.53 26.8936C133.602 26.9657 133.769 26.9893 133.936 26.9893H134.795C134.963 26.9893 135.106 26.9657 135.201 26.8936C135.273 26.8225 135.368 26.7031 135.392 26.4879L137.873 18.6009C137.898 18.5052 137.945 18.4094 137.945 18.362C137.945 18.29 137.969 18.2663 137.969 18.1942C137.969 18.0274 137.898 17.9553 137.731 17.9553H136.8C136.609 17.9553 136.466 17.979 136.395 18.0511C136.323 18.1231 136.251 18.2426 136.203 18.4568L134.437 25.3162L132.791 18.4331C132.767 18.2426 132.695 18.0984 132.6 18.0274C132.528 17.9553 132.361 17.9316 132.194 17.9316H131.359C131.168 17.9316 131.025 17.9553 130.953 18.0274C130.881 18.0984 130.809 18.2179 130.762 18.4331L129.163 25.1967L127.468 18.4331C127.397 18.2426 127.326 18.0984 127.277 18.0274C127.206 17.9553 127.087 17.9316 126.872 17.9316H125.87C125.703 17.9316 125.631 18.0027 125.631 18.1705C125.631 18.2426 125.654 18.362 125.726 18.5772L128.113 26.4879Z" fill="black"/>
<path d="M143.248 31.4347C139.5 33.0358 135.396 33.8008 131.696 33.8008C126.183 33.8008 120.838 32.2944 116.518 29.7615C116.16 29.5226 115.85 29.9283 116.184 30.2393C120.193 33.8481 125.467 36.0227 131.362 36.0227C135.538 36.0227 140.407 34.7089 143.796 32.1987C144.274 31.8167 143.82 31.2195 143.248 31.4347Z" fill="#FF9900"/>
<path d="M141.145 30.0478C140.835 30.2394 140.907 30.5503 141.217 30.5256C142.29 30.3825 144.724 30.0962 145.131 30.6698C145.56 31.1949 144.654 33.4899 144.271 34.5175C144.129 34.8284 144.414 34.9479 144.701 34.708C146.515 33.2026 146.969 30.0242 146.61 29.5938C146.228 29.0676 143.054 28.7093 141.145 30.0478Z" fill="#FF9900"/>
<path d="M154.631 24.8853C154.56 24.8853 154.488 24.8616 154.488 24.7422V19.2213C154.488 19.1492 154.512 19.0782 154.631 19.0782H154.798C154.894 19.0782 154.941 19.1019 154.941 19.2213L154.966 19.5559C155.204 19.3644 155.467 19.2213 155.705 19.1255C155.944 19.0298 156.183 18.9824 156.445 18.9824C156.971 18.9824 157.376 19.1739 157.687 19.5559C157.997 19.9142 158.163 20.4641 158.163 21.086C158.163 21.7552 157.997 22.2803 157.687 22.6871C157.352 23.0927 156.946 23.2842 156.374 23.2842C155.873 23.2842 155.442 23.0927 155.013 22.7107V24.7185C155.013 24.7896 154.989 24.8616 154.87 24.8616H154.631V24.8853ZM156.302 22.8786C156.731 22.8786 157.065 22.7344 157.304 22.4482C157.543 22.1372 157.638 21.7068 157.638 21.1333C157.638 19.9863 157.209 19.4365 156.326 19.4365C155.896 19.4365 155.419 19.6043 154.989 19.9626V22.3287C155.228 22.5192 155.419 22.6634 155.633 22.7581C155.848 22.8065 156.087 22.8786 156.302 22.8786Z" fill="black"/>
<path d="M160.123 23.2842C159.766 23.2842 159.455 23.1885 159.217 22.9496C158.978 22.7581 158.883 22.4482 158.883 22.0899C158.883 21.6832 159.026 21.3959 159.289 21.157C159.55 20.9181 159.932 20.8224 160.386 20.8224C160.744 20.8224 161.126 20.8945 161.555 21.0139V20.3446C161.555 20.01 161.484 19.7711 161.317 19.6517C161.15 19.5086 160.911 19.4602 160.553 19.4602C160.195 19.4602 159.79 19.5323 159.384 19.6517C159.36 19.6517 159.288 19.6754 159.24 19.6754C159.169 19.6754 159.169 19.6517 159.169 19.5796V19.4128C159.169 19.3891 159.169 19.3407 159.193 19.3171C159.217 19.2934 159.217 19.2934 159.265 19.245C159.694 19.0782 160.124 18.9824 160.625 18.9824C161.102 18.9824 161.46 19.0782 161.699 19.2934C161.937 19.4839 162.033 19.7948 162.033 20.2015V23.069C162.033 23.1411 162.009 23.2132 161.89 23.2132H161.723C161.651 23.2132 161.58 23.1885 161.58 23.069L161.555 22.7344C161.126 23.1174 160.625 23.2842 160.123 23.2842ZM160.195 22.8786C160.386 22.8786 160.625 22.8539 160.863 22.7344C161.102 22.6387 161.341 22.5439 161.604 22.3761V21.3722C161.245 21.2765 160.911 21.2291 160.529 21.2291C159.766 21.2291 159.384 21.54 159.384 22.0899C159.384 22.3287 159.455 22.5192 159.575 22.6634C159.718 22.8065 159.932 22.8786 160.195 22.8786Z" fill="black"/>
<path d="M163.438 23.2131C163.366 23.2131 163.295 23.1884 163.295 23.069V19.2213C163.295 19.1502 163.319 19.0781 163.438 19.0781H163.605C163.701 19.0781 163.748 19.1018 163.748 19.2213L163.771 19.699C163.963 19.4601 164.177 19.2933 164.368 19.2213C164.559 19.1255 164.799 19.0781 165.037 19.0781C165.132 19.0781 165.204 19.0781 165.228 19.0781C165.299 19.0781 165.371 19.1018 165.371 19.2213V19.4128C165.371 19.4364 165.371 19.4364 165.347 19.4838C165.347 19.5085 165.323 19.5085 165.275 19.5085C165.251 19.5085 165.18 19.5085 165.132 19.5085C165.109 19.5085 165.037 19.5085 164.965 19.5085C164.727 19.5085 164.487 19.5322 164.297 19.6516C164.106 19.7474 163.939 19.8905 163.724 20.082V23.069C163.724 23.1411 163.701 23.2131 163.58 23.2131H163.438Z" fill="black"/>
<path d="M167.495 23.2608C167.16 23.2608 166.922 23.165 166.755 22.9982C166.588 22.8304 166.493 22.5915 166.493 22.2569V19.5562H165.848C165.777 19.5562 165.705 19.5325 165.705 19.413V19.341C165.705 19.3173 165.705 19.2699 165.729 19.2452C165.729 19.2215 165.752 19.2215 165.824 19.2215L166.493 19.1505L166.564 18.0745C166.564 18.0508 166.588 18.0024 166.588 17.9788C166.612 17.9551 166.612 17.9551 166.684 17.9551H166.827C166.899 17.9551 166.969 17.9788 166.969 18.0982V19.1742H168.139C168.211 19.1742 168.282 19.1978 168.282 19.3173V19.4851C168.282 19.5562 168.258 19.6282 168.139 19.6282H166.969V22.3289C166.969 22.5678 166.994 22.6873 167.113 22.8067C167.209 22.9025 167.375 22.9498 167.591 22.9498C167.757 22.9498 167.901 22.9498 167.996 22.9261C168.067 22.9261 168.091 22.9025 168.139 22.9025C168.163 22.9025 168.211 22.9025 168.211 22.9025C168.282 22.9025 168.307 22.9261 168.307 22.9982V23.1413C168.307 23.2371 168.282 23.2845 168.211 23.3081C167.996 23.2134 167.781 23.2608 167.495 23.2608Z" fill="black"/>
<path d="M169.308 23.2134C169.236 23.2134 169.164 23.1887 169.164 23.0693V19.2215C169.164 19.1505 169.189 19.0784 169.308 19.0784H169.475C169.57 19.0784 169.618 19.1021 169.618 19.2215L169.642 19.5562C169.905 19.3647 170.166 19.2215 170.477 19.1258C170.788 19.03 171.05 18.959 171.313 18.959C171.718 18.959 172.005 19.0547 172.22 19.2699C172.411 19.4604 172.53 19.7714 172.53 20.2018V23.0456C172.53 23.1177 172.506 23.1887 172.386 23.1887H172.148C172.076 23.1887 172.005 23.1651 172.005 23.0456V20.4406C172.005 20.0823 171.933 19.8434 171.814 19.6756C171.67 19.5088 171.455 19.4367 171.169 19.4367C170.644 19.4367 170.096 19.6046 169.594 19.9629V23.1177C169.594 23.1887 169.57 23.2608 169.451 23.2608H169.284V23.2134H169.308Z" fill="black"/>
<path d="M175.513 23.3079C174.869 23.3079 174.368 23.1411 174.081 22.7828C173.746 22.4245 173.58 21.8747 173.58 21.1333C173.58 20.4641 173.746 19.9379 174.081 19.5559C174.415 19.1976 174.893 18.9824 175.441 18.9824C175.942 18.9824 176.301 19.1255 176.587 19.4128C176.849 19.6754 176.993 20.0821 176.993 20.6072C176.993 20.7987 176.993 20.9665 176.968 21.1097C176.968 21.1807 176.897 21.2528 176.826 21.2528H174.081C174.081 21.8263 174.224 22.2567 174.439 22.5192C174.678 22.7828 175.084 22.9259 175.585 22.9259C175.991 22.9259 176.348 22.8539 176.683 22.7344C176.754 22.7107 176.826 22.7107 176.826 22.7107C176.849 22.7107 176.849 22.7107 176.897 22.7344C176.897 22.7581 176.921 22.7581 176.921 22.8065V22.9496C176.921 23.0454 176.897 23.0927 176.826 23.1174C176.396 23.2132 175.991 23.3079 175.513 23.3079ZM176.515 20.8708C176.515 20.7987 176.515 20.7029 176.515 20.6072C176.515 20.2015 176.42 19.9379 176.252 19.7475C176.061 19.5559 175.776 19.4365 175.417 19.4365C174.558 19.4365 174.105 19.9142 174.058 20.8708H176.515Z" fill="black"/>
<path d="M178.092 23.2131C178.02 23.2131 177.949 23.1884 177.949 23.069V19.2213C177.949 19.1502 177.973 19.0781 178.092 19.0781H178.259C178.355 19.0781 178.402 19.1018 178.402 19.2213L178.426 19.699C178.617 19.4601 178.831 19.2933 179.023 19.2213C179.214 19.1255 179.453 19.0781 179.691 19.0781C179.787 19.0781 179.859 19.0781 179.882 19.0781C179.954 19.0781 180.025 19.1018 180.025 19.2213V19.4128C180.025 19.4364 180.025 19.4364 180.001 19.4838C180.001 19.5085 179.978 19.5085 179.929 19.5085C179.882 19.5085 179.834 19.5085 179.787 19.5085C179.763 19.5085 179.691 19.5085 179.619 19.5085C179.381 19.5085 179.143 19.5322 178.952 19.6516C178.761 19.7474 178.593 19.8905 178.379 20.082V23.069C178.379 23.1411 178.355 23.2131 178.236 23.2131H178.092Z" fill="black"/>
<path d="M154.631 32.2219C154.56 32.2219 154.488 32.1982 154.488 32.0788V28.2547C154.488 28.1837 154.512 28.1116 154.631 28.1116H154.798C154.894 28.1116 154.941 28.1353 154.941 28.2547L154.966 28.5894C155.228 28.3979 155.491 28.2547 155.801 28.159C156.111 28.0632 156.374 27.9922 156.636 27.9922C157.042 27.9922 157.328 28.0879 157.543 28.3031C157.734 28.4936 157.853 28.8046 157.853 29.235V32.0788C157.853 32.1509 157.829 32.2219 157.71 32.2219H157.471C157.4 32.2219 157.328 32.1982 157.328 32.0788V29.4265C157.328 29.0671 157.256 28.8282 157.137 28.6614C156.994 28.4936 156.78 28.4226 156.493 28.4226C155.968 28.4226 155.419 28.5894 154.918 28.9477V32.1025C154.918 32.1746 154.894 32.2466 154.775 32.2466H154.607V32.2219H154.631Z" fill="black"/>
<path d="M160.857 32.3411C160.212 32.3411 159.712 32.1743 159.425 31.816C159.09 31.4577 158.924 30.9079 158.924 30.1665C158.924 29.4973 159.09 28.9722 159.425 28.5891C159.759 28.2308 160.236 28.0156 160.785 28.0156C161.286 28.0156 161.645 28.1587 161.931 28.446C162.193 28.7086 162.337 29.1153 162.337 29.6414C162.337 29.8319 162.337 29.9997 162.312 30.1429C162.312 30.2149 162.241 30.286 162.169 30.286H159.425C159.425 30.8595 159.568 31.2899 159.782 31.5524C160.022 31.816 160.427 31.9591 160.929 31.9591C161.334 31.9591 161.692 31.887 162.026 31.7676C162.097 31.7439 162.169 31.7439 162.169 31.7439C162.193 31.7439 162.193 31.7439 162.241 31.7676C162.241 31.7923 162.265 31.7923 162.265 31.8397V31.9828C162.265 32.0786 162.241 32.127 162.169 32.1506C161.764 32.2464 161.31 32.3411 160.857 32.3411ZM161.859 29.8803C161.859 29.8082 161.859 29.7125 161.859 29.6167C161.859 29.211 161.764 28.9474 161.596 28.757C161.405 28.5655 161.119 28.446 160.761 28.446C159.902 28.446 159.449 28.9238 159.4 29.8803H161.859Z" fill="black"/>
<path d="M164.607 32.2945C164.272 32.2945 164.033 32.1987 163.866 32.0319C163.7 31.8641 163.604 31.6252 163.604 31.2906V28.5425H162.959C162.888 28.5425 162.816 28.5188 162.816 28.3994V28.3273C162.816 28.3036 162.816 28.2552 162.84 28.2315C162.84 28.2078 162.864 28.2079 162.936 28.2079L163.604 28.1358L163.675 27.0608C163.675 27.0372 163.7 26.9888 163.7 26.9651C163.723 26.9414 163.723 26.9414 163.794 26.9414H163.938C164.01 26.9414 164.081 26.9651 164.081 27.0845V28.1605H165.251C165.322 28.1605 165.393 28.1842 165.393 28.3036V28.4704C165.393 28.5425 165.37 28.6146 165.251 28.6146H164.105V31.3153C164.105 31.5542 164.129 31.6736 164.248 31.793C164.367 31.9125 164.511 31.9362 164.726 31.9362C164.892 31.9362 165.036 31.9362 165.131 31.9125C165.202 31.9125 165.227 31.8888 165.274 31.8888C165.298 31.8888 165.346 31.8888 165.346 31.8888C165.418 31.8888 165.442 31.9125 165.442 31.9835V32.1277C165.442 32.2234 165.418 32.2708 165.346 32.2945C165.108 32.2471 164.868 32.2945 164.607 32.2945Z" fill="black"/>
<path d="M167.233 32.2238C167.161 32.2238 167.09 32.2001 167.065 32.1291L165.801 28.3524C165.777 28.2803 165.777 28.2566 165.777 28.2093C165.777 28.1609 165.801 28.1372 165.873 28.1372H166.135C166.207 28.1372 166.23 28.1609 166.279 28.233L167.375 31.675L168.354 28.233C168.378 28.1609 168.426 28.1372 168.522 28.1372H168.832C168.904 28.1372 168.975 28.1609 168.999 28.233L169.977 31.675L171.123 28.1856C171.147 28.1135 171.194 28.0898 171.266 28.0898H171.504C171.576 28.0898 171.6 28.1135 171.6 28.1609C171.6 28.1856 171.6 28.233 171.576 28.305L170.24 32.0807C170.216 32.1528 170.168 32.1765 170.073 32.1765H169.811C169.739 32.1765 169.667 32.1528 169.643 32.0807L168.664 28.6397L167.687 32.0807C167.662 32.1528 167.615 32.1765 167.519 32.1765H167.281V32.2238H167.233Z" fill="black"/>
<path d="M173.964 32.3414C173.367 32.3414 172.891 32.1509 172.556 31.7678C172.222 31.4095 172.055 30.8597 172.055 30.1668C172.055 29.4975 172.222 28.9724 172.556 28.5657C172.891 28.2074 173.367 27.9922 173.964 27.9922C174.561 27.9922 175.038 28.1837 175.372 28.5657C175.707 28.924 175.873 29.4738 175.873 30.1668C175.873 30.836 175.707 31.3622 175.372 31.7678C175.015 32.1509 174.561 32.3414 173.964 32.3414ZM173.964 31.912C174.896 31.912 175.372 31.3385 175.372 30.1668C175.372 28.9961 174.896 28.4226 173.964 28.4226C173.033 28.4226 172.556 28.9961 172.556 30.1668C172.556 31.3385 173.01 31.912 173.964 31.912Z" fill="black"/>
<path d="M177.021 32.2236C176.949 32.2236 176.877 32.1999 176.877 32.0805V28.2564C176.877 28.1854 176.902 28.1133 177.021 28.1133H177.187C177.283 28.1133 177.331 28.137 177.331 28.2564L177.355 28.7341C177.546 28.4953 177.76 28.3285 177.951 28.2564C178.142 28.1607 178.381 28.1133 178.62 28.1133C178.715 28.1133 178.786 28.1133 178.81 28.1133C178.882 28.1133 178.954 28.137 178.954 28.2564V28.4479C178.954 28.4716 178.954 28.4716 178.93 28.52C178.905 28.5437 178.905 28.5437 178.858 28.5437C178.835 28.5437 178.763 28.5437 178.715 28.5437C178.691 28.5437 178.62 28.5437 178.548 28.5437C178.31 28.5437 178.07 28.5674 177.879 28.6868C177.688 28.7826 177.522 28.9257 177.307 29.1172V32.1042C177.307 32.1762 177.283 32.2483 177.164 32.2483H176.997V32.2236H177.021Z" fill="black"/>
<path d="M179.809 32.2218C179.738 32.2218 179.666 32.1981 179.666 32.0787V26.3189C179.666 26.2468 179.69 26.1758 179.809 26.1758H180.048C180.12 26.1758 180.191 26.1995 180.191 26.3189V29.9515L182.124 28.2073C182.196 28.1352 182.268 28.1352 182.315 28.1352H182.625C182.697 28.1352 182.721 28.1589 182.721 28.2073C182.721 28.2546 182.697 28.2783 182.625 28.3504L180.645 30.0956L182.792 32.0787C182.816 32.1024 182.864 32.1508 182.864 32.1744C182.864 32.2465 182.841 32.2465 182.769 32.2465H182.434C182.363 32.2465 182.291 32.2218 182.268 32.1744L180.191 30.2387V32.1024C180.191 32.1744 180.167 32.2465 180.048 32.2465H179.809V32.2218Z" fill="black"/>
<path d="M117.663 42.5748C117.21 42.407 116.876 42.1928 116.685 41.9529C116.494 41.714 116.398 41.4041 116.398 41.0211C116.398 40.5434 116.565 40.1614 116.923 39.8741C117.281 39.5868 117.759 39.4437 118.355 39.4437C118.857 39.4437 119.334 39.5395 119.811 39.731V40.5907C119.31 40.4476 118.857 40.3518 118.427 40.3518C117.83 40.3518 117.52 40.5434 117.52 40.9254C117.52 41.0695 117.568 41.1889 117.663 41.2837C117.759 41.3794 117.974 41.4752 118.26 41.5709L118.833 41.7861C119.31 41.9529 119.644 42.1681 119.835 42.3833C120.026 42.6222 120.145 42.9095 120.145 43.2915C120.145 43.8176 119.954 44.2243 119.572 44.5342C119.191 44.8452 118.69 44.9883 118.021 44.9883C117.735 44.9883 117.449 44.9646 117.162 44.9173C116.876 44.8689 116.637 44.7978 116.422 44.7021V43.8176C116.685 43.8897 116.947 43.9607 117.234 44.0091C117.52 44.0565 117.783 44.0802 118.021 44.0802C118.331 44.0802 118.546 44.0328 118.713 43.9134C118.88 43.7939 118.952 43.6498 118.952 43.4356C118.952 43.2678 118.904 43.1483 118.809 43.0526C118.713 42.9568 118.499 42.8611 118.212 42.7416L117.663 42.5748ZM121.863 43.2204C121.887 43.555 121.983 43.7939 122.174 43.9607C122.365 44.1038 122.651 44.1759 123.033 44.1759C123.367 44.1759 123.773 44.1038 124.227 43.9844V44.7257C124.059 44.8215 123.845 44.8925 123.582 44.9409C123.343 44.9883 123.081 45.013 122.819 45.013C122.174 45.013 121.672 44.8452 121.339 44.4869C121.004 44.1286 120.837 43.6261 120.837 42.9331C120.837 42.2876 121.004 41.7861 121.339 41.4041C121.672 41.0448 122.15 40.8543 122.747 40.8543C123.248 40.8543 123.63 40.9974 123.916 41.2837C124.178 41.5709 124.321 41.9529 124.321 42.4791C124.321 42.5985 124.321 42.7179 124.298 42.8611C124.274 43.0052 124.274 43.1247 124.25 43.2204H121.863ZM122.675 41.643C122.413 41.643 122.222 41.7141 122.078 41.8582C121.935 42.0013 121.863 42.2165 121.84 42.5028H123.343V42.3833C123.343 41.8819 123.129 41.643 122.675 41.643ZM126.876 44.8215C126.661 44.9173 126.422 44.9409 126.183 44.9409C125.491 44.9409 125.157 44.5589 125.157 43.7939V39.2285H126.279V43.6982C126.279 43.8413 126.302 43.937 126.351 44.0091C126.398 44.0565 126.47 44.1038 126.589 44.1038C126.661 44.1038 126.756 44.1038 126.876 44.0802V44.8215ZM128.475 43.2204C128.498 43.555 128.594 43.7939 128.785 43.9607C128.976 44.1038 129.261 44.1759 129.643 44.1759C129.978 44.1759 130.384 44.1038 130.837 43.9844V44.7257C130.67 44.8215 130.455 44.8925 130.193 44.9409C129.954 44.9883 129.692 45.013 129.429 45.013C128.785 45.013 128.284 44.8452 127.949 44.4869C127.615 44.1286 127.448 43.6261 127.448 42.9331C127.448 42.2876 127.615 41.7861 127.949 41.4041C128.284 41.0448 128.76 40.8543 129.357 40.8543C129.858 40.8543 130.24 40.9974 130.527 41.2837C130.79 41.5709 130.932 41.9529 130.932 42.4791C130.932 42.5985 130.932 42.7179 130.909 42.8611C130.885 43.0052 130.885 43.1247 130.861 43.2204H128.475ZM129.31 41.643C129.047 41.643 128.856 41.7141 128.713 41.8582C128.57 42.0013 128.498 42.2165 128.475 42.5028H129.978V42.3833C129.954 41.8819 129.739 41.643 129.31 41.643ZM134.584 44.7257C134.441 44.7978 134.273 44.8689 134.082 44.9173C133.891 44.9646 133.677 44.9883 133.486 44.9883C132.865 44.9883 132.388 44.8215 132.054 44.4632C131.72 44.1038 131.553 43.6024 131.553 42.9568C131.553 42.3123 131.72 41.8098 132.078 41.4515C132.436 41.0932 132.914 40.9017 133.51 40.9017C133.891 40.9017 134.226 40.9738 134.536 41.1406V41.8819C134.226 41.7861 133.963 41.7624 133.7 41.7624C133.343 41.7624 133.08 41.8582 132.914 42.025C132.746 42.2165 132.674 42.5028 132.674 42.8858V43.0052C132.674 43.3872 132.746 43.6745 132.914 43.865C133.08 44.0565 133.343 44.1285 133.677 44.1285C133.916 44.1285 134.226 44.0802 134.536 43.9844V44.7257H134.584ZM137.686 44.7978C137.4 44.8925 137.113 44.9646 136.756 44.9646C136.326 44.9646 135.992 44.8688 135.801 44.6537C135.586 44.4385 135.491 44.1285 135.491 43.6982V41.8098H134.894V41.1169L135.514 40.9974L135.682 39.9215H136.588V40.9738H137.638V41.8098H136.588V43.6498C136.588 43.8176 136.637 43.937 136.708 44.0091C136.78 44.0802 136.922 44.1038 137.113 44.1038C137.281 44.1038 137.448 44.0802 137.663 44.0565V44.7978H137.686Z" fill="black"/>
<path d="M140.469 44.3803C140.423 44.3803 140.404 44.3616 140.404 44.3183V41.6803H139.463C139.418 41.6803 139.398 41.6616 139.398 41.618V41.5188C139.398 41.4755 139.418 41.4568 139.463 41.4568H141.603C141.648 41.4568 141.668 41.4755 141.668 41.5188V41.618C141.668 41.6616 141.648 41.6803 141.603 41.6803H140.662V44.3183C140.662 44.3616 140.643 44.3803 140.598 44.3803H140.469ZM143.022 44.4424C142.673 44.4424 142.415 44.3493 142.235 44.1568C142.061 43.9645 141.971 43.6851 141.971 43.3126C141.971 42.9588 142.061 42.6858 142.235 42.4871C142.415 42.2884 142.66 42.1954 142.976 42.1954C143.241 42.1954 143.447 42.27 143.589 42.4128C143.731 42.5617 143.801 42.7665 143.801 43.0396C143.801 43.1513 143.795 43.2382 143.782 43.2941C143.776 43.3374 143.75 43.3562 143.705 43.3562H142.222C142.222 43.654 142.293 43.8712 142.422 44.0078C142.551 44.1506 142.757 44.2188 143.034 44.2188C143.247 44.2188 143.447 44.1816 143.634 44.1134C143.672 44.1009 143.698 44.0947 143.711 44.0947C143.724 44.0947 143.731 44.1009 143.744 44.107C143.75 44.1196 143.757 44.1257 143.757 44.1445V44.2065C143.757 44.2498 143.744 44.2808 143.705 44.2934C143.505 44.3926 143.273 44.4424 143.022 44.4424ZM143.563 43.1636C143.563 43.1265 143.57 43.0767 143.57 43.0272C143.57 42.8224 143.518 42.6735 143.415 42.5678C143.312 42.4622 143.163 42.4128 142.963 42.4128C142.499 42.4128 142.254 42.6671 142.228 43.1698H143.563V43.1636ZM145.278 44.4298C144.943 44.4298 144.685 44.3367 144.504 44.1506C144.33 43.9645 144.24 43.6851 144.24 43.3251C144.24 42.9649 144.33 42.6919 144.504 42.4997C144.685 42.3071 144.943 42.2141 145.278 42.2141C145.439 42.2141 145.594 42.2389 145.736 42.2948C145.768 42.3071 145.787 42.3381 145.787 42.3817V42.4438C145.787 42.4809 145.768 42.4997 145.736 42.4997C145.729 42.4997 145.716 42.4997 145.703 42.4932C145.69 42.4871 145.671 42.4871 145.639 42.4809C145.523 42.4561 145.407 42.4374 145.291 42.4374C145.014 42.4374 144.814 42.5058 144.691 42.6422C144.569 42.7788 144.504 42.9962 144.504 43.3003V43.35C144.504 43.6417 144.569 43.8589 144.691 43.9955C144.814 44.1319 145.014 44.2065 145.284 44.2065C145.4 44.2065 145.523 44.1878 145.665 44.1506C145.697 44.1445 145.716 44.1383 145.729 44.1319C145.742 44.1257 145.755 44.1257 145.761 44.1257C145.794 44.1257 145.813 44.1445 145.813 44.1816V44.2437C145.813 44.2873 145.8 44.3183 145.768 44.3306C145.62 44.3926 145.452 44.4298 145.278 44.4298ZM146.406 44.3803C146.361 44.3803 146.341 44.3616 146.341 44.3183V41.3201C146.341 41.2768 146.361 41.2581 146.406 41.2581H146.522C146.567 41.2581 146.586 41.2768 146.586 41.3201V42.4997C146.728 42.4063 146.877 42.332 147.038 42.2761C147.193 42.2202 147.347 42.1954 147.496 42.1954C147.708 42.1954 147.869 42.2512 147.986 42.3569C148.102 42.4622 148.153 42.6237 148.153 42.8347V44.3183C148.153 44.3616 148.134 44.3803 148.088 44.3803H147.973C147.928 44.3803 147.908 44.3616 147.908 44.3183V42.9403C147.908 42.7601 147.869 42.6237 147.799 42.543C147.728 42.4622 147.612 42.4189 147.45 42.4189C147.16 42.4189 146.877 42.5058 146.599 42.6858V44.3183C146.599 44.3616 146.58 44.3803 146.535 44.3803H146.406ZM148.894 44.3803C148.849 44.3803 148.83 44.3616 148.83 44.3183V42.3194C148.83 42.2761 148.849 42.2574 148.894 42.2574H148.985C149.03 42.2574 149.056 42.2761 149.062 42.3194L149.081 42.4997C149.223 42.4002 149.378 42.3258 149.533 42.27C149.687 42.2141 149.842 42.1892 149.99 42.1892C150.203 42.1892 150.364 42.2451 150.48 42.3504C150.596 42.4561 150.648 42.6176 150.648 42.8286V44.3183C150.648 44.3616 150.629 44.3803 150.583 44.3803H150.468C150.422 44.3803 150.403 44.3616 150.403 44.3183V42.9403C150.403 42.7601 150.364 42.6237 150.293 42.543C150.223 42.4622 150.106 42.4189 149.945 42.4189C149.655 42.4189 149.372 42.5058 149.094 42.6858V44.3183C149.094 44.3616 149.075 44.3803 149.03 44.3803H148.894ZM152.221 44.4424C151.899 44.4424 151.647 44.3431 151.473 44.1445C151.293 43.9458 151.209 43.6663 151.209 43.3126C151.209 42.9588 151.299 42.6858 151.473 42.4871C151.654 42.2884 151.905 42.1892 152.221 42.1892C152.543 42.1892 152.795 42.2884 152.969 42.4871C153.149 42.6858 153.239 42.9588 153.239 43.3126C153.239 43.6663 153.149 43.9458 152.969 44.1445C152.795 44.3431 152.543 44.4424 152.221 44.4424ZM152.221 44.225C152.724 44.225 152.982 43.9209 152.982 43.319C152.982 42.7168 152.73 42.4189 152.221 42.4189C151.718 42.4189 151.46 42.7168 151.46 43.319C151.46 43.9209 151.712 44.225 152.221 44.225ZM154.181 44.3926C154.065 44.3926 153.974 44.3616 153.91 44.2934C153.846 44.2252 153.813 44.1383 153.813 44.014V41.314C153.813 41.2707 153.833 41.252 153.878 41.252H153.994C154.039 41.252 154.058 41.2707 154.058 41.314V44.0078C154.058 44.0699 154.071 44.1134 154.097 44.1383C154.123 44.1629 154.168 44.1755 154.232 44.1755C154.252 44.1755 154.271 44.1755 154.29 44.1693C154.31 44.1693 154.329 44.1629 154.342 44.1629C154.38 44.1629 154.406 44.1816 154.406 44.225V44.3057C154.406 44.3431 154.387 44.3616 154.348 44.3677C154.297 44.3865 154.245 44.3926 154.181 44.3926ZM155.805 44.4424C155.483 44.4424 155.231 44.3431 155.057 44.1445C154.877 43.9458 154.793 43.6663 154.793 43.3126C154.793 42.9588 154.883 42.6858 155.057 42.4871C155.238 42.2884 155.489 42.1892 155.805 42.1892C156.128 42.1892 156.379 42.2884 156.553 42.4871C156.734 42.6858 156.824 42.9588 156.824 43.3126C156.824 43.6663 156.734 43.9458 156.553 44.1445C156.379 44.3431 156.128 44.4424 155.805 44.4424ZM155.805 44.225C156.308 44.225 156.566 43.9209 156.566 43.319C156.566 42.7168 156.315 42.4189 155.805 42.4189C155.302 42.4189 155.045 42.7168 155.045 43.319C155.051 43.9209 155.302 44.225 155.805 44.225ZM158.171 45.2988C158.049 45.2988 157.926 45.2865 157.81 45.2617C157.694 45.2368 157.591 45.2058 157.501 45.1625C157.469 45.1499 157.449 45.1189 157.449 45.0756V45.0133C157.449 44.9761 157.462 44.9576 157.501 44.9576C157.507 44.9576 157.52 44.9576 157.527 44.9638C157.539 44.9638 157.559 44.9699 157.585 44.9822C157.791 45.0443 157.984 45.0817 158.152 45.0817C158.423 45.0817 158.623 45.0197 158.752 44.8892C158.88 44.759 158.945 44.5541 158.945 44.2747V44.0699C158.835 44.1568 158.719 44.225 158.584 44.2747C158.455 44.3244 158.326 44.3493 158.21 44.3493C157.926 44.3493 157.707 44.2498 157.533 44.0576C157.365 43.865 157.282 43.6107 157.282 43.2941C157.282 42.9526 157.365 42.6858 157.533 42.4871C157.701 42.2884 157.933 42.1892 158.223 42.1892C158.5 42.1892 158.738 42.2823 158.951 42.4686L158.971 42.3133C158.977 42.27 159.003 42.2512 159.048 42.2512H159.138C159.183 42.2512 159.203 42.27 159.203 42.3133V44.2747C159.203 44.6036 159.112 44.8582 158.938 45.032C158.764 45.2058 158.5 45.2988 158.171 45.2988ZM158.268 44.1319C158.487 44.1319 158.713 44.045 158.945 43.865V42.6919C158.822 42.5989 158.713 42.5243 158.597 42.4809C158.487 42.4374 158.365 42.4128 158.242 42.4128C158.01 42.4128 157.83 42.4871 157.714 42.6299C157.597 42.7788 157.539 42.9898 157.539 43.2816C157.539 43.5548 157.604 43.7658 157.726 43.9148C157.849 44.0637 158.029 44.1319 158.268 44.1319ZM159.957 45.2988C159.886 45.2988 159.822 45.2865 159.757 45.2678C159.712 45.2555 159.693 45.2307 159.693 45.1809V45.1189C159.693 45.0817 159.712 45.063 159.744 45.063C159.764 45.063 159.776 45.063 159.789 45.0691C159.802 45.0691 159.822 45.0756 159.847 45.0756C159.873 45.0756 159.899 45.0756 159.938 45.0756C160.034 45.0756 160.112 45.0507 160.17 45.001C160.228 44.9512 160.279 44.8643 160.331 44.7402L160.479 44.3865L159.615 42.3443C159.602 42.3194 159.596 42.301 159.596 42.2884C159.596 42.2574 159.615 42.2389 159.647 42.2389H159.789C159.828 42.2389 159.854 42.2574 159.867 42.2948L160.601 44.107L161.343 42.2948C161.356 42.2574 161.382 42.2389 161.42 42.2389H161.549C161.581 42.2389 161.601 42.2512 161.601 42.2884C161.601 42.2948 161.594 42.3133 161.581 42.3443L160.55 44.8148C160.479 44.9887 160.395 45.1066 160.305 45.1809C160.215 45.2678 160.099 45.2988 159.957 45.2988Z" fill="black"/>
<path d="M163.699 45.2148C163.642 45.2148 163.617 45.1898 163.617 45.1307V41.336C163.617 41.2773 163.642 41.252 163.699 41.252H164.949C165.303 41.252 165.583 41.3614 165.797 41.5716C166.011 41.7822 166.109 42.0682 166.109 42.43C166.109 42.7834 166.002 43.0693 165.797 43.2796C165.583 43.4902 165.303 43.5993 164.949 43.5993H163.938V45.1307C163.938 45.1898 163.913 45.2148 163.856 45.2148H163.699ZM164.941 43.2966C165.492 43.2966 165.772 43.0106 165.772 42.43C165.772 41.8493 165.492 41.555 164.941 41.555H163.938V43.2966H164.941ZM167.483 45.2822C167.228 45.2822 167.022 45.2064 166.866 45.0549C166.718 44.9034 166.636 44.7015 166.636 44.4492C166.636 44.1716 166.726 43.9527 166.915 43.7928C167.104 43.633 167.359 43.5489 167.68 43.5489C167.927 43.5489 168.198 43.5909 168.478 43.6837V43.2042C168.478 42.9686 168.42 42.8087 168.313 42.7076C168.206 42.6065 168.025 42.5561 167.779 42.5561C167.524 42.5561 167.252 42.6065 166.964 42.6993C166.931 42.7076 166.899 42.7159 166.882 42.7159C166.849 42.7159 166.825 42.6909 166.825 42.6402V42.5478C166.825 42.514 166.833 42.4974 166.841 42.4803C166.849 42.4637 166.874 42.4466 166.899 42.4383C167.195 42.3205 167.507 42.2618 167.836 42.2618C168.165 42.2618 168.404 42.3288 168.568 42.472C168.733 42.6152 168.807 42.8254 168.807 43.1114V45.1307C168.807 45.1898 168.782 45.2148 168.724 45.2148H168.609C168.552 45.2148 168.527 45.1898 168.519 45.1307L168.494 44.8867C168.165 45.1473 167.828 45.2822 167.483 45.2822ZM167.524 44.9792C167.663 44.9792 167.82 44.9541 167.984 44.8951C168.149 44.8363 168.313 44.7523 168.486 44.6428V43.9277C168.239 43.8602 167.993 43.8265 167.762 43.8265C167.244 43.8265 166.981 44.0284 166.981 44.4409C166.981 44.6174 167.03 44.7523 167.121 44.8447C167.203 44.9371 167.343 44.9792 167.524 44.9792ZM169.744 45.2148C169.686 45.2148 169.662 45.1898 169.662 45.1307V42.4216C169.662 42.3625 169.686 42.3375 169.744 42.3375H169.851C169.909 42.3375 169.942 42.3625 169.95 42.4216L169.975 42.758C170.114 42.5981 170.254 42.4803 170.394 42.4216C170.534 42.3542 170.682 42.3205 170.854 42.3205C170.912 42.3205 170.961 42.3205 171.002 42.3288C171.06 42.3288 171.085 42.3625 171.085 42.4216V42.5644C171.085 42.5815 171.076 42.5981 171.068 42.6065C171.06 42.6235 171.043 42.6235 171.027 42.6235C170.994 42.6235 170.969 42.6235 170.945 42.6235C170.92 42.6235 170.879 42.6235 170.83 42.6235C170.657 42.6235 170.509 42.6572 170.377 42.7243C170.246 42.7917 170.114 42.8928 169.999 43.0356V45.139C169.999 45.1981 169.975 45.2231 169.917 45.2231H169.744V45.2148ZM172.45 45.2485C172.228 45.2485 172.063 45.1897 171.948 45.0719C171.833 44.9541 171.776 44.7773 171.776 44.55V42.6319H171.332C171.274 42.6319 171.249 42.6065 171.249 42.5478V42.489C171.249 42.4553 171.258 42.4383 171.266 42.4216C171.274 42.4046 171.299 42.3962 171.332 42.3962L171.784 42.3542L171.825 41.597C171.825 41.5633 171.833 41.5466 171.85 41.5296C171.866 41.5129 171.883 41.5129 171.907 41.5129H172.006C172.063 41.5129 172.088 41.5383 172.088 41.597V42.3459H172.902C172.96 42.3459 172.984 42.3712 172.984 42.43V42.5478C172.984 42.6065 172.96 42.6319 172.902 42.6319H172.088V44.5333C172.088 44.6932 172.121 44.8026 172.187 44.8614C172.252 44.9288 172.359 44.9625 172.516 44.9625C172.623 44.9625 172.721 44.9542 172.804 44.9371C172.845 44.9288 172.878 44.9204 172.902 44.9204C172.927 44.9121 172.943 44.9121 172.96 44.9121C173.001 44.9121 173.025 44.9371 173.025 44.9792V45.0632C173.025 45.1307 173.009 45.1644 172.96 45.181C172.812 45.2231 172.639 45.2485 172.45 45.2485ZM173.692 45.2148C173.634 45.2148 173.609 45.1898 173.609 45.1307V42.4216C173.609 42.3625 173.634 42.3375 173.692 42.3375H173.807C173.865 42.3375 173.898 42.3625 173.906 42.4216L173.93 42.6656C174.111 42.5311 174.308 42.43 174.506 42.3542C174.703 42.2784 174.901 42.2447 175.09 42.2447C175.361 42.2447 175.567 42.3205 175.715 42.4637C175.863 42.6065 175.929 42.8254 175.929 43.1114V45.1307C175.929 45.1898 175.904 45.2148 175.847 45.2148H175.698C175.641 45.2148 175.616 45.1898 175.616 45.1307V43.2629C175.616 43.019 175.567 42.8337 175.476 42.7243C175.386 42.6152 175.238 42.5561 175.032 42.5561C174.662 42.5561 174.3 42.6739 173.947 42.9178V45.1307C173.947 45.1898 173.922 45.2148 173.865 45.2148H173.692ZM177.977 45.2988C177.532 45.2988 177.204 45.1727 176.973 44.9121C176.751 44.6511 176.636 44.2724 176.636 43.7678C176.636 43.2883 176.751 42.9178 176.973 42.6489C177.204 42.3796 177.516 42.2534 177.919 42.2534C178.256 42.2534 178.519 42.3542 178.7 42.5478C178.881 42.7496 178.972 43.0273 178.972 43.3974C178.972 43.5489 178.963 43.6667 178.947 43.7424C178.939 43.8015 178.906 43.8265 178.848 43.8265H176.957C176.957 44.2303 177.047 44.525 177.212 44.7098C177.376 44.9034 177.639 44.9962 177.993 44.9962C178.264 44.9962 178.519 44.9454 178.758 44.853C178.807 44.8363 178.84 44.8277 178.856 44.8277C178.873 44.8277 178.881 44.8363 178.898 44.8447C178.906 44.8614 178.914 44.8697 178.914 44.8951V44.9792C178.914 45.0382 178.898 45.0803 178.848 45.097C178.594 45.2318 178.297 45.2988 177.977 45.2988ZM178.667 43.5659C178.667 43.5152 178.676 43.4481 178.676 43.3807C178.676 43.1031 178.61 42.9012 178.478 42.758C178.346 42.6152 178.157 42.5478 177.903 42.5478C177.311 42.5478 176.998 42.8928 176.965 43.5743H178.667V43.5659ZM179.769 45.2148C179.712 45.2148 179.687 45.1898 179.687 45.1307V42.4216C179.687 42.3625 179.712 42.3375 179.769 42.3375H179.876C179.934 42.3375 179.967 42.3625 179.975 42.4216L180 42.758C180.139 42.5981 180.279 42.4803 180.419 42.4216C180.559 42.3542 180.707 42.3205 180.88 42.3205C180.937 42.3205 180.986 42.3205 181.028 42.3288C181.085 42.3288 181.11 42.3625 181.11 42.4216V42.5644C181.11 42.5815 181.102 42.5981 181.093 42.6065C181.085 42.6235 181.069 42.6235 181.052 42.6235C181.019 42.6235 180.995 42.6235 180.97 42.6235C180.945 42.6235 180.904 42.6235 180.855 42.6235C180.682 42.6235 180.534 42.6572 180.403 42.7243C180.271 42.7917 180.139 42.8928 180.024 43.0356V45.139C180.024 45.1981 180 45.2231 179.942 45.2231H179.769V45.2148Z" fill="black"/>
<rect x="407.635" y="0.635471" width="93.6494" height="57.2394" rx="2.79472" fill="#F1F7FF" stroke="#D0E4F9" stroke-width="0.729058"/>
<rect x="305.946" y="0.635471" width="93.6494" height="56.9833" rx="2.79472" fill="#F1F7FF" stroke="#D0E4F9" stroke-width="0.729058"/>
<path d="M378.952 33.8399H378.084V35.3477H377.072V33.8399H374.142V33.0383L377.062 28.5053H378.084V32.981H378.952V33.8399ZM377.072 31.1296C377.072 30.977 377.072 30.8306 377.072 30.6907C377.078 30.5507 377.085 30.4171 377.091 30.2899C377.097 30.1563 377.101 30.0354 377.101 29.9272C377.107 29.8127 377.113 29.7109 377.12 29.6219H377.082C377.031 29.7491 376.97 29.8795 376.9 30.0131C376.837 30.1467 376.773 30.2644 376.709 30.3662L375.106 32.981H377.072V31.1296ZM379.697 34.7846C379.697 34.5365 379.757 34.3615 379.878 34.2598C380.005 34.158 380.161 34.1071 380.346 34.1071C380.524 34.1071 380.677 34.158 380.804 34.2598C380.938 34.3615 381.004 34.5365 381.004 34.7846C381.004 35.0327 380.938 35.2109 380.804 35.319C380.677 35.4272 380.524 35.4813 380.346 35.4813C380.161 35.4813 380.005 35.4272 379.878 35.319C379.757 35.2109 379.697 35.0327 379.697 34.7846ZM384.161 28.4385C384.543 28.4385 384.88 28.5021 385.173 28.6294C385.472 28.7503 385.704 28.9316 385.869 29.1733C386.041 29.4151 386.127 29.7173 386.127 30.0799C386.127 30.3535 386.073 30.5921 385.965 30.7956C385.863 30.9992 385.72 31.1805 385.535 31.3396C385.357 31.4923 385.16 31.6259 384.944 31.7404C385.192 31.874 385.421 32.0267 385.631 32.1985C385.841 32.3639 386.009 32.5579 386.136 32.7806C386.27 33.0033 386.337 33.2705 386.337 33.5822C386.337 33.9639 386.248 34.2947 386.07 34.5747C385.898 34.8482 385.65 35.0614 385.325 35.2141C385.001 35.3667 384.616 35.4431 384.171 35.4431C383.693 35.4431 383.289 35.3699 382.959 35.2236C382.634 35.0773 382.389 34.8705 382.224 34.6033C382.058 34.3297 381.976 33.9989 381.976 33.6108C381.976 33.2991 382.033 33.0287 382.147 32.7997C382.268 32.5706 382.424 32.3734 382.615 32.208C382.812 32.0426 383.029 31.9026 383.264 31.7881C383.06 31.6609 382.876 31.5177 382.71 31.3587C382.545 31.1933 382.415 31.0056 382.319 30.7956C382.23 30.5857 382.186 30.3439 382.186 30.0704C382.186 29.7141 382.272 29.4183 382.443 29.1829C382.615 28.9411 382.85 28.7566 383.149 28.6294C383.448 28.5021 383.786 28.4385 384.161 28.4385ZM382.968 33.5917C382.968 33.9035 383.067 34.1611 383.264 34.3647C383.461 34.5619 383.757 34.6606 384.151 34.6606C384.419 34.6606 384.638 34.616 384.81 34.527C384.982 34.4315 385.112 34.3043 385.201 34.1452C385.297 33.9798 385.344 33.7921 385.344 33.5822C385.344 33.3723 385.293 33.1878 385.192 33.0287C385.09 32.8697 384.95 32.7297 384.772 32.6088C384.6 32.4816 384.403 32.3671 384.18 32.2653L384.056 32.208C383.827 32.3162 383.63 32.437 383.464 32.5706C383.305 32.7042 383.181 32.8538 383.092 33.0192C383.01 33.1846 382.968 33.3754 382.968 33.5917ZM384.142 29.2306C383.862 29.2306 383.63 29.3069 383.445 29.4596C383.267 29.6123 383.178 29.835 383.178 30.1276C383.178 30.3376 383.223 30.5157 383.312 30.662C383.407 30.8084 383.528 30.9356 383.674 31.0438C383.827 31.1456 383.992 31.2442 384.171 31.3396C384.349 31.2505 384.508 31.1551 384.648 31.0533C384.794 30.9452 384.909 30.8179 384.991 30.6716C385.08 30.5189 385.125 30.3376 385.125 30.1276C385.125 29.835 385.033 29.6123 384.848 29.4596C384.67 29.3069 384.435 29.2306 384.142 29.2306Z" fill="black"/>
<path d="M319.012 10.7649C319.438 10.7649 319.789 10.8218 320.066 10.9356C320.343 11.0494 320.549 11.2201 320.682 11.4478C320.821 11.6704 320.89 11.9525 320.89 12.2939C320.89 12.5661 320.843 12.7962 320.749 12.9842C320.66 13.1673 320.541 13.3182 320.393 13.4369C320.249 13.5508 320.094 13.6423 319.925 13.7116L321.328 16.0645H320.393L319.213 13.9194H318.404V16.0645H317.58V10.7649H319.012ZM318.975 11.4478H318.404V13.2514H318.99C319.233 13.2514 319.43 13.2168 319.584 13.1475C319.742 13.0782 319.858 12.9743 319.933 12.8357C320.012 12.6972 320.051 12.5265 320.051 12.3236C320.051 12.1108 320.012 11.9426 319.933 11.8189C319.858 11.6902 319.74 11.5962 319.576 11.5368C319.418 11.4775 319.218 11.4478 318.975 11.4478ZM323.463 11.9896C323.933 11.9896 324.287 12.1009 324.524 12.3236C324.767 12.5413 324.888 12.8852 324.888 13.3553V16.0645H324.316L324.161 15.5078H324.131C324.017 15.6513 323.903 15.77 323.789 15.8641C323.681 15.9581 323.552 16.0273 323.403 16.0719C323.26 16.1164 323.082 16.1387 322.869 16.1387C322.646 16.1387 322.446 16.0966 322.268 16.0125C322.09 15.9234 321.949 15.7898 321.845 15.6117C321.741 15.4286 321.689 15.201 321.689 14.9288C321.689 14.5231 321.832 14.2138 322.119 14.001C322.411 13.7883 322.854 13.672 323.448 13.6522L324.086 13.6299V13.4073C324.086 13.1104 324.024 12.9025 323.901 12.7838C323.782 12.665 323.614 12.6056 323.396 12.6056C323.213 12.6056 323.032 12.6353 322.854 12.6947C322.676 12.7541 322.503 12.8258 322.335 12.91L322.09 12.3384C322.273 12.2395 322.481 12.1578 322.713 12.0935C322.951 12.0242 323.201 11.9896 323.463 11.9896ZM323.604 14.1569C323.198 14.1767 322.916 14.2534 322.758 14.387C322.599 14.5157 322.52 14.6987 322.52 14.9363C322.52 15.1441 322.575 15.295 322.684 15.389C322.797 15.483 322.943 15.53 323.121 15.53C323.394 15.53 323.621 15.4435 323.804 15.2703C323.992 15.0971 324.086 14.8373 324.086 14.4909V14.1421L323.604 14.1569ZM327.411 15.5004C327.515 15.5004 327.616 15.4905 327.715 15.4707C327.814 15.4509 327.901 15.4286 327.975 15.4039V15.9977C327.891 16.0372 327.78 16.0694 327.641 16.0941C327.507 16.1238 327.366 16.1387 327.218 16.1387C327.01 16.1387 326.82 16.1016 326.646 16.0273C326.473 15.9531 326.335 15.8245 326.231 15.6414C326.127 15.4583 326.075 15.2035 326.075 14.8769V12.665H325.563V12.3088L326.112 12.0119L326.387 11.1657H326.884V12.0638H327.945V12.665H326.884V14.862C326.884 15.0798 326.933 15.2406 327.032 15.3445C327.131 15.4484 327.258 15.5004 327.411 15.5004ZM330.233 11.9896C330.564 11.9896 330.851 12.0638 331.094 12.2123C331.336 12.3558 331.522 12.5636 331.65 12.8357C331.784 13.1079 331.851 13.4295 331.851 13.8006V14.2311H329.335C329.345 14.6418 329.444 14.9561 329.632 15.1738C329.82 15.3915 330.084 15.5004 330.426 15.5004C330.668 15.5004 330.884 15.4781 331.072 15.4336C331.265 15.3841 331.46 15.3123 331.658 15.2183V15.8715C331.47 15.9605 331.277 16.0273 331.079 16.0719C330.886 16.1164 330.651 16.1387 330.374 16.1387C330.013 16.1387 329.691 16.062 329.409 15.9086C329.127 15.7552 328.907 15.5276 328.748 15.2257C328.59 14.9189 328.511 14.5429 328.511 14.0975C328.511 13.6472 328.583 13.2662 328.726 12.9545C328.87 12.6428 329.07 12.4052 329.327 12.242C329.59 12.0737 329.891 11.9896 330.233 11.9896ZM330.233 12.5982C329.98 12.5982 329.778 12.6898 329.624 12.8729C329.471 13.0559 329.382 13.3157 329.357 13.6522H331.057C331.057 13.4444 331.027 13.2613 330.968 13.1029C330.908 12.9446 330.817 12.8209 330.693 12.7318C330.574 12.6428 330.421 12.5982 330.233 12.5982ZM337.923 14.0604C337.923 14.392 337.881 14.6864 337.797 14.9437C337.713 15.201 337.592 15.4187 337.433 15.5968C337.28 15.775 337.092 15.9111 336.869 16.0051C336.647 16.0941 336.397 16.1387 336.12 16.1387C335.867 16.1387 335.632 16.0941 335.414 16.0051C335.197 15.9111 335.009 15.775 334.85 15.5968C334.692 15.4187 334.568 15.201 334.479 14.9437C334.395 14.6864 334.353 14.3895 334.353 14.053C334.353 13.6126 334.425 13.239 334.568 12.9322C334.712 12.6254 334.917 12.3929 335.184 12.2345C335.456 12.0712 335.778 11.9896 336.149 11.9896C336.496 11.9896 336.802 12.0712 337.07 12.2345C337.337 12.3929 337.545 12.6254 337.693 12.9322C337.846 13.239 337.923 13.6151 337.923 14.0604ZM335.184 14.0604C335.184 14.3573 335.216 14.6146 335.281 14.8323C335.35 15.0451 335.454 15.2084 335.593 15.3222C335.736 15.436 335.917 15.4929 336.134 15.4929C336.357 15.4929 336.538 15.436 336.676 15.3222C336.82 15.2084 336.924 15.0451 336.988 14.8323C337.057 14.6146 337.092 14.3573 337.092 14.0604C337.092 13.7536 337.057 13.4963 336.988 13.2885C336.919 13.0807 336.815 12.9223 336.676 12.8135C336.538 12.6997 336.355 12.6428 336.127 12.6428C335.795 12.6428 335.555 12.7665 335.407 13.0139C335.259 13.2613 335.184 13.6101 335.184 14.0604ZM340.797 11.9896C341.232 11.9896 341.566 12.1059 341.799 12.3384C342.036 12.571 342.155 12.9446 342.155 13.4592V16.0645H341.354V13.5705C341.354 13.2588 341.292 13.0262 341.168 12.8729C341.049 12.7145 340.864 12.6353 340.611 12.6353C340.24 12.6353 339.985 12.7566 339.847 12.999C339.708 13.2415 339.639 13.5903 339.639 14.0456V16.0645H338.837V12.0638H339.468L339.58 12.5982H339.624C339.708 12.4597 339.81 12.3459 339.928 12.2568C340.047 12.1677 340.181 12.1009 340.329 12.0564C340.478 12.0119 340.634 11.9896 340.797 11.9896Z" fill="black"/>
<path d="M331.959 23.3047H334.376V38.2671H331.959V23.3047Z" fill="black"/>
<path d="M342.786 33.5262C342.786 35.8443 340.894 36.055 340.263 36.055C338.792 36.055 338.582 34.6852 338.582 33.9477V28.1523H336.164V33.8423C336.164 35.2121 336.584 36.4765 337.425 37.2141C338.161 37.9517 339.107 38.2678 340.263 38.2678C341.104 38.2678 342.155 38.0571 342.786 37.4248V38.2678H345.203V28.1523H342.786V33.5262Z" fill="black"/>
<path d="M349.933 24.4629H347.515V28.1508H345.729V30.4689H347.515V38.2663H349.933V30.4689H351.72V28.1508H349.933V24.4629Z" fill="black"/>
<path d="M359.29 35.2099C358.764 35.6314 358.029 35.9475 357.293 35.9475C355.611 35.9475 354.455 34.6831 354.455 32.9972C354.455 31.3113 355.611 30.1522 357.293 30.1522C358.029 30.1522 358.764 30.3629 359.29 30.8898L359.605 31.2059L361.287 29.6254L360.866 29.3093C359.92 28.4663 358.659 27.9395 357.293 27.9395C354.35 27.9395 352.143 30.1522 352.143 33.1025C352.143 36.0529 354.35 38.2656 357.293 38.2656C358.659 38.2656 359.92 37.7388 360.866 36.8958L361.287 36.5797L359.605 34.8938L359.29 35.2099Z" fill="black"/>
<path d="M369.799 28.9946C369.063 28.257 368.327 27.9409 367.171 27.9409C366.33 27.9409 365.489 28.1517 364.859 28.7839V23.3047H362.441V38.2671H364.859V32.6825C364.859 30.3644 366.435 30.1537 367.066 30.1537C368.538 30.1537 368.432 31.5235 368.432 32.2611V38.1617H370.85V32.3664C370.85 30.9966 370.535 29.7322 369.799 28.9946Z" fill="black"/>
<path d="M357.184 34.7898C358.112 34.7898 358.865 34.035 358.865 33.1039C358.865 32.1728 358.112 31.418 357.184 31.418C356.255 31.418 355.502 32.1728 355.502 33.1039C355.502 34.035 356.255 34.7898 357.184 34.7898Z" fill="#EF4335"/>
<path d="M328.595 34.5783C327.754 35.4213 326.493 35.9481 325.127 35.9481C322.499 35.9481 320.607 33.8408 320.607 30.9958C320.607 28.1508 322.499 26.0434 325.232 26.0434C326.493 26.0434 327.754 26.5703 328.7 27.5186L329.016 27.8347L330.592 26.2542L330.277 25.9381C328.911 24.5683 327.124 23.8307 325.232 23.8307C321.238 23.7253 318.295 26.8864 318.295 30.9958C318.295 35.1052 321.238 38.2663 325.127 38.2663C327.019 38.2663 328.911 37.5287 330.172 36.1589L330.487 35.8428L328.911 34.2622L328.595 34.5783Z" fill="black"/>
<path d="M335.932 44.342L334.962 46.3208C334.912 46.4215 334.839 46.5086 334.749 46.5746C334.659 46.6406 334.554 46.6835 334.444 46.6997L332.276 47.0171C332.174 47.0319 332.079 47.075 332 47.1417C331.922 47.2083 331.863 47.2957 331.832 47.3941C331.8 47.4924 331.796 47.5977 331.821 47.6981C331.845 47.7985 331.897 47.8899 331.971 47.962L333.54 49.5024C333.62 49.5807 333.68 49.6773 333.714 49.7839C333.749 49.8905 333.757 50.0039 333.738 50.1145L333.368 52.2897C333.35 52.3915 333.362 52.4961 333.401 52.5918C333.439 52.6874 333.504 52.7702 333.587 52.8308C333.67 52.8915 333.768 52.9275 333.871 52.9349C333.973 52.9423 334.075 52.9207 334.166 52.8726L336.105 51.8458C336.204 51.7935 336.314 51.7662 336.425 51.7662C336.537 51.7662 336.646 51.7935 336.745 51.8458L338.684 52.8726C338.775 52.9207 338.877 52.9423 338.98 52.9349C339.082 52.9275 339.18 52.8915 339.263 52.8308C339.346 52.7702 339.411 52.6874 339.45 52.5918C339.488 52.4961 339.5 52.3915 339.483 52.2897L339.112 50.1145C339.093 50.0039 339.102 49.8905 339.136 49.7839C339.171 49.6773 339.23 49.5807 339.31 49.5024L340.879 47.962C340.953 47.8899 341.005 47.7985 341.03 47.6981C341.054 47.5977 341.05 47.4924 341.019 47.3941C340.987 47.2957 340.929 47.2083 340.85 47.1417C340.772 47.075 340.676 47.0319 340.574 47.0171L338.406 46.6997C338.295 46.6835 338.191 46.6406 338.1 46.5746C338.01 46.5086 337.937 46.4215 337.888 46.3208L336.918 44.342C336.873 44.2493 336.802 44.1713 336.715 44.1167C336.628 44.0621 336.527 44.0332 336.425 44.0332C336.322 44.0332 336.221 44.0621 336.134 44.1167C336.047 44.1713 335.977 44.2493 335.932 44.342Z" fill="#FFAF00"/>
<path d="M349.411 44.3431L348.441 46.3218C348.392 46.4225 348.319 46.5096 348.229 46.5756C348.138 46.6417 348.034 46.6846 347.923 46.7007L345.754 47.0181C345.653 47.033 345.557 47.0761 345.479 47.1427C345.4 47.2094 345.342 47.2968 345.31 47.3951C345.278 47.4935 345.275 47.5988 345.299 47.6992C345.324 47.7995 345.376 47.891 345.45 47.9631L347.019 49.5035C347.099 49.5817 347.158 49.6783 347.193 49.785C347.227 49.8916 347.235 50.005 347.217 50.1155L346.846 52.2907C346.829 52.3925 346.84 52.4972 346.879 52.5928C346.918 52.6885 346.982 52.7713 347.065 52.8319C347.148 52.8925 347.247 52.9286 347.349 52.936C347.451 52.9433 347.554 52.9218 347.644 52.8736L349.584 51.8468C349.682 51.7946 349.792 51.7673 349.904 51.7673C350.015 51.7673 350.125 51.7946 350.224 51.8468L352.163 52.8736C352.254 52.9218 352.356 52.9433 352.458 52.936C352.561 52.9286 352.659 52.8925 352.742 52.8319C352.825 52.7713 352.889 52.6885 352.928 52.5928C352.967 52.4972 352.978 52.3925 352.961 52.2907L352.591 50.1155C352.572 50.005 352.58 49.8916 352.615 49.7849C352.649 49.6783 352.709 49.5817 352.788 49.5035L354.358 47.9631C354.431 47.891 354.483 47.7995 354.508 47.6992C354.533 47.5988 354.529 47.4935 354.497 47.3951C354.466 47.2968 354.407 47.2094 354.329 47.1427C354.25 47.0761 354.155 47.033 354.053 47.0181L351.884 46.7007C351.774 46.6846 351.669 46.6417 351.579 46.5756C351.489 46.5096 351.416 46.4225 351.366 46.3218L350.396 44.3431C350.351 44.2506 350.281 44.1728 350.194 44.1184C350.107 44.064 350.006 44.0352 349.904 44.0352C349.801 44.0352 349.701 44.064 349.614 44.1184C349.527 44.1728 349.456 44.2506 349.411 44.3431Z" fill="#FFAF00"/>
<path d="M362.887 44.342L361.917 46.3208C361.868 46.4215 361.795 46.5086 361.705 46.5746C361.615 46.6406 361.51 46.6835 361.399 46.6997L359.231 47.0171C359.129 47.0319 359.034 47.075 358.955 47.1417C358.877 47.2083 358.818 47.2957 358.787 47.3941C358.755 47.4924 358.751 47.5977 358.776 47.6981C358.801 47.7985 358.853 47.8899 358.926 47.962L360.496 49.5024C360.575 49.5807 360.635 49.6773 360.669 49.7839C360.704 49.8905 360.712 50.0039 360.693 50.1145L360.323 52.2897C360.306 52.3915 360.317 52.4961 360.356 52.5918C360.394 52.6874 360.459 52.7702 360.542 52.8308C360.625 52.8915 360.723 52.9275 360.826 52.9349C360.928 52.9423 361.03 52.9207 361.121 52.8726L363.06 51.8458C363.159 51.7935 363.269 51.7662 363.38 51.7662C363.492 51.7662 363.602 51.7935 363.7 51.8458L365.639 52.8726C365.73 52.9207 365.833 52.9423 365.935 52.9349C366.037 52.9275 366.135 52.8915 366.218 52.8308C366.301 52.7702 366.366 52.6874 366.405 52.5918C366.444 52.4961 366.455 52.3915 366.438 52.2897L366.067 50.1145C366.049 50.0039 366.057 49.8905 366.091 49.7839C366.126 49.6773 366.185 49.5807 366.265 49.5024L367.834 47.962C367.908 47.8899 367.96 47.7985 367.985 47.6981C368.009 47.5977 368.006 47.4924 367.974 47.3941C367.942 47.2957 367.884 47.2083 367.805 47.1417C367.727 47.075 367.631 47.0319 367.53 47.0171L365.361 46.6997C365.25 46.6835 365.146 46.6406 365.055 46.5746C364.965 46.5086 364.892 46.4215 364.843 46.3208L363.874 44.342C363.828 44.2493 363.758 44.1713 363.671 44.1167C363.584 44.0621 363.483 44.0332 363.38 44.0332C363.278 44.0332 363.177 44.0621 363.09 44.1167C363.003 44.1713 362.933 44.2493 362.887 44.342Z" fill="#FFAF00"/>
<path d="M377.357 44.3421L378.327 46.3209C378.376 46.4216 378.449 46.5087 378.539 46.5747C378.63 46.6407 378.734 46.6836 378.845 46.6998L381.013 47.0172C381.115 47.032 381.21 47.0752 381.289 47.1418C381.367 47.2084 381.426 47.2959 381.457 47.3942C381.489 47.4925 381.493 47.5979 381.468 47.6982C381.444 47.7986 381.392 47.89 381.318 47.9621L379.749 49.5025C379.669 49.5808 379.609 49.6774 379.575 49.784C379.54 49.8906 379.532 50.0041 379.551 50.1146L379.921 52.2898C379.939 52.3916 379.927 52.4962 379.888 52.5919C379.85 52.6875 379.785 52.7703 379.702 52.831C379.619 52.8916 379.521 52.9276 379.419 52.935C379.316 52.9424 379.214 52.9208 379.123 52.8727L377.184 51.8459C377.085 51.7936 376.975 51.7664 376.864 51.7664C376.752 51.7664 376.643 51.7936 376.544 51.8459L374.605 52.8727C374.514 52.9208 374.412 52.9424 374.309 52.935C374.207 52.9276 374.109 52.8916 374.026 52.831C373.943 52.7703 373.878 52.6875 373.839 52.5919C373.801 52.4962 373.789 52.3916 373.806 52.2898L374.177 50.1146C374.196 50.0041 374.187 49.8906 374.153 49.784C374.119 49.6774 374.059 49.5808 373.979 49.5025L372.41 47.9621C372.336 47.89 372.284 47.7986 372.26 47.6982C372.235 47.5979 372.239 47.4925 372.27 47.3942C372.302 47.2959 372.36 47.2084 372.439 47.1418C372.518 47.0752 372.613 47.032 372.715 47.0172L374.883 46.6998C374.994 46.6836 375.099 46.6407 375.189 46.5747C375.279 46.5087 375.352 46.4216 375.401 46.3209L376.369 44.3421C376.414 44.2489 376.484 44.1703 376.571 44.1154C376.659 44.0604 376.76 44.0312 376.863 44.0312C376.966 44.0312 377.067 44.0604 377.154 44.1154C377.241 44.1703 377.312 44.2489 377.357 44.3421Z" fill="#FFAF00"/>
<path d="M379.123 52.8749L377.802 52.1754V45.252L378.327 46.3216C378.376 46.4223 378.449 46.5094 378.539 46.5754C378.629 46.6414 378.734 46.6844 378.844 46.7005L381.013 47.0179C381.115 47.0327 381.21 47.0759 381.289 47.1425C381.367 47.2092 381.426 47.2966 381.457 47.3949C381.489 47.4933 381.493 47.5986 381.468 47.699C381.444 47.7993 381.392 47.8907 381.318 47.9629L379.749 49.5032C379.669 49.5815 379.609 49.6781 379.575 49.7847C379.54 49.8914 379.532 50.0048 379.551 50.1153L379.921 52.2905C379.939 52.3924 379.928 52.4973 379.889 52.5932C379.851 52.689 379.786 52.7721 379.703 52.8329C379.62 52.8937 379.521 52.9299 379.419 52.9373C379.317 52.9448 379.214 52.9231 379.123 52.8749Z" fill="#FDE3AC"/>
<path d="M322.44 44.3423L321.47 46.3214C321.421 46.4221 321.348 46.5092 321.258 46.5752C321.168 46.6412 321.063 46.6841 320.952 46.7003L318.784 47.0177C318.682 47.0325 318.587 47.0756 318.508 47.1423C318.43 47.2089 318.371 47.2963 318.339 47.3947C318.308 47.493 318.304 47.5983 318.329 47.6987C318.353 47.7991 318.405 47.8905 318.479 47.9626L320.048 49.503C320.128 49.5813 320.188 49.6779 320.222 49.7845C320.256 49.8911 320.265 50.0045 320.246 50.115L319.875 52.2902C319.858 52.3921 319.87 52.4967 319.908 52.5923C319.947 52.688 320.012 52.7708 320.095 52.8314C320.178 52.8921 320.276 52.9281 320.378 52.9355C320.481 52.9429 320.583 52.9213 320.674 52.8732L322.613 51.8463C322.712 51.7941 322.821 51.7668 322.933 51.7668C323.044 51.7668 323.154 51.7941 323.253 51.8463L325.192 52.8732C325.283 52.9213 325.385 52.9429 325.488 52.9355C325.59 52.9281 325.688 52.8921 325.771 52.8314C325.854 52.7708 325.919 52.688 325.958 52.5923C325.996 52.4967 326.008 52.3921 325.99 52.2902L325.62 50.115C325.601 50.0045 325.609 49.8911 325.644 49.7845C325.678 49.6778 325.738 49.5812 325.818 49.503L327.387 47.9626C327.461 47.8905 327.513 47.7991 327.537 47.6987C327.562 47.5983 327.558 47.493 327.527 47.3947C327.495 47.2963 327.436 47.2089 327.358 47.1423C327.279 47.0756 327.184 47.0325 327.082 47.0177L324.915 46.7C324.804 46.6838 324.699 46.6409 324.609 46.5749C324.519 46.5089 324.446 46.4218 324.397 46.3211L323.427 44.3423C323.382 44.2495 323.311 44.1714 323.224 44.1168C323.137 44.0622 323.036 44.0332 322.934 44.0332C322.831 44.0332 322.73 44.0622 322.643 44.1168C322.556 44.1714 322.486 44.2495 322.44 44.3423Z" fill="#FDE3AC"/>
<path d="M323.404 44.3431L324.374 46.3218C324.424 46.4225 324.496 46.5096 324.587 46.5756C324.677 46.6417 324.782 46.6846 324.892 46.7007L327.061 47.0181C327.162 47.033 327.258 47.0761 327.336 47.1427C327.415 47.2094 327.473 47.2968 327.505 47.3951C327.537 47.4935 327.541 47.5988 327.516 47.6992C327.491 47.7995 327.439 47.891 327.366 47.9631L325.796 49.5035C325.717 49.5817 325.657 49.6783 325.622 49.785C325.588 49.8916 325.58 50.005 325.599 50.1155L325.969 52.2907C325.986 52.3925 325.975 52.4972 325.936 52.5928C325.897 52.6885 325.833 52.7713 325.75 52.8319C325.667 52.8925 325.568 52.9286 325.466 52.936C325.364 52.9433 325.261 52.9218 325.171 52.8736L323.231 51.8468C323.133 51.7946 323.023 51.7673 322.911 51.7673C322.8 51.7673 322.69 51.7946 322.592 51.8468L320.652 52.8736C320.561 52.9218 320.459 52.9433 320.357 52.936C320.255 52.9286 320.156 52.8925 320.073 52.8319C319.99 52.7713 319.926 52.6885 319.887 52.5928C319.848 52.4972 319.837 52.3925 319.854 52.2907L320.224 50.1155C320.243 50.005 320.235 49.8916 320.201 49.7849C320.166 49.6783 320.106 49.5817 320.027 49.5035L318.457 47.9631C318.384 47.891 318.332 47.7995 318.307 47.6992C318.282 47.5988 318.286 47.4935 318.318 47.3951C318.35 47.2968 318.408 47.2094 318.487 47.1427C318.565 47.0761 318.661 47.033 318.762 47.0181L320.931 46.7007C321.041 46.6846 321.146 46.6417 321.236 46.5756C321.327 46.5096 321.399 46.4225 321.449 46.3218L322.419 44.3431C322.464 44.2506 322.534 44.1728 322.622 44.1184C322.709 44.064 322.809 44.0352 322.911 44.0352C323.014 44.0352 323.114 44.064 323.201 44.1184C323.289 44.1728 323.359 44.2506 323.404 44.3431Z" fill="#FFAF00"/>
<rect x="204.596" y="0.635471" width="93.6494" height="56.9833" rx="2.79472" fill="#F1F7FF" stroke="#D0E4F9" stroke-width="0.729058"/>
<path d="M204.541 18.6602H297.461V3.43086C297.461 2.0887 296.373 1.00067 295.031 1.00067H206.971C205.629 1.00067 204.541 2.0887 204.541 3.43086V18.6602Z" fill="#4285F4"/>
<path d="M204.541 19.0247H204.176V18.6602V3.43086C204.176 1.88738 205.428 0.636141 206.971 0.636141H295.031C296.575 0.636141 297.826 1.88738 297.826 3.43086V18.6602V19.0247H297.461H204.541Z" stroke="#808080" stroke-opacity="0.5" stroke-width="0.729058"/>
<path d="M237.908 7.35765C238.628 7.35765 239.152 7.508 239.479 7.8087C239.811 8.10939 239.976 8.52415 239.976 9.05296C239.976 9.29144 239.94 9.51955 239.868 9.7373C239.795 9.94986 239.673 10.1417 239.502 10.3128C239.331 10.4839 239.105 10.6186 238.825 10.7172C238.551 10.8157 238.209 10.8649 237.799 10.8649H237.247V12.9102H236.251V7.35765H237.908ZM237.846 8.18198H237.247V10.0406H237.698C237.967 10.0406 238.196 10.0095 238.382 9.94727C238.574 9.87987 238.719 9.77618 238.818 9.6362C238.916 9.49622 238.965 9.31477 238.965 9.09184C238.965 8.78596 238.875 8.55784 238.693 8.4075C238.512 8.25715 238.229 8.18198 237.846 8.18198ZM242.653 8.61747C243.197 8.61747 243.609 8.73671 243.889 8.97519C244.174 9.20849 244.317 9.57658 244.317 10.0795V12.9102H243.625L243.43 12.3269H243.399C243.28 12.4773 243.156 12.6043 243.026 12.708C242.902 12.8065 242.756 12.8765 242.59 12.9179C242.43 12.9646 242.233 12.9879 241.999 12.9879C241.751 12.9879 241.525 12.9413 241.323 12.8479C241.126 12.7546 240.97 12.6121 240.856 12.4202C240.742 12.2232 240.685 11.977 240.685 11.6815C240.685 11.246 240.843 10.9193 241.16 10.7016C241.481 10.4787 241.966 10.3568 242.614 10.3361L243.345 10.3128V10.1028C243.345 9.83321 243.28 9.64139 243.15 9.52733C243.021 9.41327 242.839 9.35624 242.606 9.35624C242.393 9.35624 242.189 9.38735 241.992 9.44956C241.795 9.51178 241.603 9.58436 241.416 9.66731L241.105 8.98297C241.313 8.87409 241.548 8.78596 241.813 8.71856C242.082 8.65116 242.362 8.61747 242.653 8.61747ZM242.832 10.9349C242.401 10.9504 242.103 11.0256 241.937 11.1604C241.771 11.29 241.688 11.4663 241.688 11.6892C241.688 11.8862 241.748 12.0288 241.867 12.1169C241.986 12.2051 242.139 12.2491 242.326 12.2491C242.611 12.2491 242.852 12.1688 243.049 12.0081C243.246 11.8422 243.345 11.5985 243.345 11.2771V10.9193L242.832 10.9349ZM247.753 8.61747C247.815 8.61747 247.888 8.62006 247.971 8.62524C248.054 8.63043 248.124 8.6408 248.181 8.65635L248.095 9.56621C248.049 9.55584 247.987 9.54807 247.909 9.54288C247.836 9.53251 247.771 9.52733 247.714 9.52733C247.559 9.52733 247.409 9.55325 247.263 9.6051C247.123 9.65176 246.996 9.72434 246.882 9.82284C246.773 9.91616 246.685 10.038 246.618 10.1883C246.556 10.3387 246.525 10.5176 246.525 10.7249V12.9102H245.545V8.69523H246.299L246.439 9.42623H246.486C246.569 9.27589 246.672 9.14109 246.797 9.02185C246.921 8.89742 247.064 8.79892 247.224 8.72634C247.39 8.65376 247.567 8.61747 247.753 8.61747ZM250.595 12.2025C250.72 12.2025 250.839 12.1921 250.953 12.1714C251.067 12.1455 251.173 12.1169 251.272 12.0858V12.8168C251.168 12.8635 251.033 12.9024 250.867 12.9335C250.702 12.9698 250.528 12.9879 250.346 12.9879C250.108 12.9879 249.89 12.949 249.693 12.8713C249.501 12.7883 249.346 12.6483 249.227 12.4513C249.113 12.2543 249.056 11.9796 249.056 11.627V9.43401H248.488V9.0063L249.11 8.66413L249.421 7.76981H250.035V8.69523H251.233V9.43401H250.035V11.6192C250.035 11.8162 250.087 11.964 250.191 12.0625C250.295 12.1558 250.429 12.2025 250.595 12.2025ZM254.377 8.61747C254.848 8.61747 255.217 8.7393 255.481 8.98297C255.751 9.22663 255.885 9.62065 255.885 10.165V12.9102H254.905V10.3594C254.905 10.0432 254.843 9.80729 254.719 9.65176C254.594 9.49104 254.397 9.41068 254.128 9.41068C253.734 9.41068 253.464 9.53511 253.319 9.78396C253.174 10.0276 253.101 10.3828 253.101 10.8494V12.9102H252.121V8.69523H252.876L253.016 9.24737H253.07C253.163 9.10221 253.278 8.98297 253.412 8.88965C253.547 8.79633 253.697 8.72893 253.863 8.68745C254.029 8.6408 254.2 8.61747 254.377 8.61747ZM258.806 8.61747C259.185 8.61747 259.509 8.69523 259.778 8.85076C260.053 9.00111 260.266 9.21886 260.416 9.504C260.566 9.78396 260.642 10.1261 260.642 10.5305V11.0282H257.857C257.868 11.4119 257.974 11.71 258.176 11.9225C258.379 12.1299 258.658 12.2336 259.016 12.2336C259.291 12.2336 259.535 12.2077 259.747 12.1558C259.965 12.0988 260.188 12.0184 260.416 11.9147V12.7002C260.209 12.7987 259.993 12.8713 259.771 12.9179C259.548 12.9646 259.281 12.9879 258.97 12.9879C258.56 12.9879 258.194 12.9102 257.873 12.7546C257.557 12.5939 257.308 12.3528 257.126 12.0314C256.95 11.71 256.862 11.3108 256.862 10.8338C256.862 10.3517 256.942 9.94727 257.103 9.62065C257.269 9.28885 257.497 9.03999 257.787 8.87409C258.078 8.70301 258.417 8.61747 258.806 8.61747ZM258.806 9.34069C258.547 9.34069 258.334 9.42623 258.169 9.59732C258.008 9.76322 257.912 10.0121 257.881 10.3439H259.693C259.693 10.1469 259.659 9.97319 259.592 9.82284C259.529 9.67249 259.434 9.55584 259.304 9.47289C259.174 9.38476 259.008 9.34069 258.806 9.34069ZM263.838 8.61747C263.9 8.61747 263.973 8.62006 264.056 8.62524C264.139 8.63043 264.209 8.6408 264.266 8.65635L264.18 9.56621C264.134 9.55584 264.071 9.54807 263.994 9.54288C263.921 9.53251 263.856 9.52733 263.799 9.52733C263.644 9.52733 263.493 9.55325 263.348 9.6051C263.208 9.65176 263.081 9.72434 262.967 9.82284C262.858 9.91616 262.77 10.038 262.703 10.1883C262.641 10.3387 262.609 10.5176 262.609 10.7249V12.9102H261.63V8.69523H262.384L262.524 9.42623H262.571C262.653 9.27589 262.757 9.14109 262.882 9.02185C263.006 8.89742 263.149 8.79892 263.309 8.72634C263.475 8.65376 263.651 8.61747 263.838 8.61747Z" fill="white"/>
<g clip-path="url(#clip0_1771_3367)">
<path d="M261.573 39.9206C260.975 39.9345 260.379 39.8265 259.824 39.6034C259.269 39.3802 258.765 39.0465 258.343 38.6227C257.921 38.1989 257.591 37.6938 257.372 37.1383C257.152 36.5828 257.049 35.9886 257.068 35.392C257.052 34.7992 257.158 34.2094 257.378 33.6585C257.598 33.1076 257.928 32.6071 258.348 32.1873C258.767 31.7604 259.269 31.4243 259.824 31.2001C260.379 30.9759 260.975 30.8684 261.573 30.8844C262.173 30.8696 262.768 30.9889 263.315 31.2335C263.862 31.478 264.347 31.8416 264.735 32.2976L263.96 33.0699C263.676 32.7118 263.313 32.424 262.899 32.229C262.485 32.0339 262.031 31.937 261.573 31.9456C261.127 31.9347 260.683 32.0149 260.269 32.1811C259.855 32.3473 259.479 32.5961 259.165 32.9123C258.844 33.2386 258.593 33.6269 258.428 34.0533C258.263 34.4797 258.188 34.9353 258.206 35.392C258.186 35.8504 258.261 36.308 258.426 36.7363C258.591 37.1646 258.843 37.5547 259.165 37.8822C259.478 38.1993 259.854 38.4488 260.268 38.6151C260.683 38.7814 261.127 38.861 261.573 38.8489C262.08 38.8464 262.579 38.7309 263.035 38.511C263.491 38.291 263.892 37.972 264.208 37.5775L265.02 38.3655C264.609 38.8551 264.092 39.245 263.507 39.5056C262.901 39.7831 262.24 39.9247 261.573 39.9206ZM267.038 31.0787V39.7315H265.921V31.0787H267.038ZM267.997 36.7684C267.985 36.3537 268.055 35.9407 268.203 35.553C268.351 35.1653 268.575 34.8107 268.861 34.5094C269.144 34.2169 269.485 33.9864 269.863 33.8326C270.24 33.6788 270.646 33.6052 271.053 33.6162C271.459 33.6047 271.863 33.6782 272.239 33.832C272.615 33.9859 272.954 34.2166 273.235 34.5094C273.524 34.8089 273.75 35.1631 273.899 35.5511C274.048 35.9391 274.118 36.3531 274.104 36.7684C274.12 37.184 274.051 37.5983 273.901 37.9865C273.752 38.3747 273.525 38.7288 273.235 39.0275C272.955 39.3213 272.616 39.5527 272.24 39.7067C271.864 39.8606 271.46 39.9335 271.053 39.9206C270.646 39.933 270.24 39.8599 269.862 39.7061C269.484 39.5522 269.143 39.321 268.861 39.0275C268.575 38.7262 268.351 38.3715 268.203 37.9838C268.055 37.5962 267.985 37.1831 267.997 36.7684ZM269.114 36.7684C269.088 37.3366 269.289 37.8919 269.673 38.313C269.85 38.5006 270.064 38.6501 270.301 38.7523C270.539 38.8545 270.795 38.9072 271.053 38.9072C271.312 38.9072 271.568 38.8545 271.805 38.7523C272.043 38.6501 272.257 38.5006 272.434 38.313C272.817 37.8919 273.018 37.3366 272.993 36.7684C273.017 36.2036 272.816 35.652 272.434 35.2344C272.258 35.0439 272.045 34.8919 271.807 34.788C271.57 34.684 271.313 34.6303 271.053 34.6303C270.794 34.6303 270.537 34.684 270.299 34.788C270.062 34.8919 269.848 35.0439 269.673 35.2344C269.29 35.652 269.089 36.2036 269.114 36.7684ZM280.27 39.7315H279.216V38.9067H279.163C278.975 39.215 278.705 39.4658 278.383 39.6317C278.049 39.8205 277.672 39.9201 277.287 39.9206C276.979 39.9405 276.67 39.8956 276.381 39.7888C276.091 39.682 275.827 39.5157 275.606 39.3007C275.189 38.8083 274.979 38.1736 275.021 37.5302V33.8159H276.133V37.4619C276.11 37.6593 276.132 37.8594 276.198 38.0469C276.264 38.2345 276.372 38.4046 276.514 38.5444C276.655 38.6842 276.827 38.7899 277.016 38.8536C277.205 38.9173 277.406 38.9372 277.603 38.9119C277.817 38.9156 278.028 38.8701 278.221 38.779C278.414 38.6879 278.583 38.5536 278.715 38.3865C279.016 38.0257 279.175 37.5683 279.163 37.0994V33.8159H280.28L280.27 39.7315ZM284.043 39.9206C283.664 39.9205 283.289 39.8388 282.944 39.681C282.6 39.5233 282.293 39.2932 282.046 39.0065C281.492 38.3929 281.191 37.5937 281.203 36.7684C281.185 35.9475 281.478 35.15 282.025 34.5356C282.27 34.2463 282.576 34.0141 282.921 33.8553C283.266 33.6965 283.642 33.6149 284.022 33.6162C284.438 33.6092 284.849 33.7049 285.218 33.8947C285.557 34.0611 285.844 34.3151 286.051 34.6302H286.098L286.072 33.8159V31.0787H287.184V39.7315H286.13V38.9067H286.082C285.876 39.2217 285.588 39.4757 285.25 39.6422C284.877 39.8337 284.462 39.9294 284.043 39.9206ZM284.227 38.9067C284.482 38.9148 284.735 38.8657 284.967 38.7629C285.2 38.6601 285.406 38.5063 285.571 38.313C285.94 37.885 286.129 37.3317 286.098 36.7684C286.124 36.209 285.935 35.6608 285.571 35.2344C285.407 35.0397 285.201 34.8843 284.968 34.7797C284.736 34.6752 284.483 34.624 284.227 34.6302C283.973 34.6263 283.72 34.6784 283.488 34.7828C283.256 34.8872 283.049 35.0414 282.884 35.2344C282.52 35.6608 282.331 36.209 282.357 36.7684C282.327 37.3284 282.516 37.878 282.884 38.3025C283.049 38.4954 283.256 38.6496 283.488 38.754C283.72 38.8585 283.973 38.9106 284.227 38.9067Z" fill="#5F6368"/>
<path d="M219.28 39.9216C217.969 39.9259 216.709 39.4149 215.773 38.4994C214.837 37.5839 214.3 36.3376 214.279 35.0304C214.3 33.7233 214.837 32.477 215.773 31.5615C216.709 30.646 217.969 30.135 219.28 30.1393C219.905 30.1289 220.526 30.243 221.106 30.4749C221.686 30.7067 222.214 31.0517 222.658 31.4895L221.704 32.4299C221.054 31.8056 220.183 31.4621 219.28 31.4737C218.813 31.4723 218.35 31.5636 217.918 31.7422C217.486 31.9208 217.095 32.1833 216.766 32.5142C216.437 32.8452 216.177 33.2381 216.002 33.6701C215.826 34.1021 215.739 34.5645 215.744 35.0304C215.739 35.4964 215.826 35.9588 216.002 36.3908C216.177 36.8228 216.437 37.2157 216.766 37.5467C217.095 37.8776 217.486 38.1401 217.918 38.3187C218.35 38.4973 218.813 38.5886 219.28 38.5872C219.741 38.606 220.2 38.5283 220.629 38.3591C221.057 38.1898 221.445 37.9329 221.768 37.6047C222.198 37.1424 222.456 36.5473 222.5 35.9183H219.28V34.5891H223.812C223.862 34.8648 223.885 35.1445 223.881 35.4245C223.916 36.5774 223.496 37.6981 222.711 38.5451C222.269 39.0029 221.735 39.3622 221.143 39.5995C220.552 39.8367 219.917 39.9465 219.28 39.9216Z" fill="#4285F4"/>
<path d="M230.891 36.7702C230.908 37.1904 230.84 37.6098 230.69 38.0031C230.541 38.3965 230.313 38.7556 230.021 39.0591C229.729 39.3625 229.379 39.6039 228.99 39.7689C228.602 39.9338 228.185 40.0188 227.763 40.0188C227.341 40.0188 226.924 39.9338 226.536 39.7689C226.147 39.6039 225.797 39.3625 225.505 39.0591C225.213 38.7556 224.985 38.3965 224.836 38.0031C224.686 37.6098 224.618 37.1904 224.635 36.7702C224.618 36.3499 224.686 35.9305 224.836 35.5372C224.985 35.1439 225.213 34.7847 225.505 34.4812C225.797 34.1778 226.147 33.9364 226.536 33.7714C226.924 33.6065 227.341 33.5215 227.763 33.5215C228.185 33.5215 228.602 33.6065 228.99 33.7714C229.379 33.9364 229.729 34.1778 230.021 34.4812C230.313 34.7847 230.541 35.1439 230.69 35.5372C230.84 35.9305 230.908 36.3499 230.891 36.7702ZM229.52 36.7702C229.544 36.5261 229.516 36.2799 229.438 36.0473C229.36 35.8148 229.234 35.6009 229.069 35.4196C228.903 35.2382 228.702 35.0933 228.477 34.9942C228.252 34.895 228.009 34.8438 227.763 34.8438C227.517 34.8438 227.274 34.895 227.049 34.9942C226.824 35.0933 226.622 35.2382 226.457 35.4196C226.292 35.6009 226.166 35.8148 226.088 36.0473C226.01 36.2799 225.982 36.5261 226.006 36.7702C225.982 37.0142 226.01 37.2604 226.088 37.493C226.166 37.7256 226.292 37.9394 226.457 38.1207C226.622 38.3021 226.824 38.447 227.049 38.5461C227.274 38.6453 227.517 38.6965 227.763 38.6965C228.009 38.6965 228.252 38.6453 228.477 38.5461C228.702 38.447 228.903 38.3021 229.069 38.1207C229.234 37.9394 229.36 37.7256 229.438 37.493C229.516 37.2604 229.544 37.0142 229.52 36.7702Z" fill="#EA4335"/>
<path d="M237.904 36.7702C237.921 37.1904 237.853 37.6098 237.704 38.0031C237.554 38.3965 237.327 38.7556 237.034 39.0591C236.742 39.3625 236.392 39.6039 236.004 39.7689C235.616 39.9338 235.198 40.0188 234.776 40.0188C234.354 40.0188 233.937 39.9338 233.549 39.7689C233.161 39.6039 232.81 39.3625 232.518 39.0591C232.226 38.7556 231.998 38.3965 231.849 38.0031C231.699 37.6098 231.631 37.1904 231.649 36.7702C231.631 36.3499 231.699 35.9305 231.849 35.5372C231.998 35.1439 232.226 34.7847 232.518 34.4812C232.81 34.1778 233.161 33.9364 233.549 33.7714C233.937 33.6065 234.354 33.5215 234.776 33.5215C235.198 33.5215 235.616 33.6065 236.004 33.7714C236.392 33.9364 236.742 34.1778 237.034 34.4812C237.327 34.7847 237.554 35.1439 237.704 35.5372C237.853 35.9305 237.921 36.3499 237.904 36.7702ZM236.534 36.7702C236.552 36.5283 236.521 36.2852 236.441 36.0561C236.361 35.827 236.234 35.6168 236.069 35.4388C235.904 35.2608 235.703 35.1187 235.48 35.0216C235.258 34.9244 235.017 34.8743 234.774 34.8743C234.53 34.8743 234.29 34.9244 234.067 35.0216C233.844 35.1187 233.643 35.2608 233.478 35.4388C233.313 35.6168 233.186 35.827 233.106 36.0561C233.026 36.2852 232.995 36.5283 233.013 36.7702C232.995 37.012 233.026 37.2551 233.106 37.4842C233.186 37.7133 233.313 37.9235 233.478 38.1015C233.643 38.2795 233.844 38.4216 234.067 38.5187C234.29 38.6159 234.53 38.666 234.774 38.666C235.017 38.666 235.258 38.6159 235.48 38.5187C235.703 38.4216 235.904 38.2795 236.069 38.1015C236.234 37.9235 236.361 37.7133 236.441 37.4842C236.521 37.2551 236.552 37.012 236.534 36.7702Z" fill="#FBBC04"/>
<path d="M244.74 33.8172V39.4701C244.74 41.7922 243.354 42.7484 241.72 42.7484C241.119 42.7517 240.531 42.5766 240.03 42.2454C239.528 41.9142 239.137 41.4419 238.906 40.8886L240.124 40.3632C240.246 40.6853 240.462 40.964 240.743 41.1641C241.025 41.3642 241.359 41.4767 241.705 41.4875C242.759 41.4875 243.401 40.8413 243.401 39.6382V39.1864H243.37C243.159 39.4235 242.899 39.6122 242.608 39.7392C242.317 39.8662 242.001 39.9285 241.684 39.9219C240.845 39.9219 240.041 39.5898 239.448 38.9987C238.855 38.4075 238.522 37.6058 238.522 36.7697C238.522 35.9337 238.855 35.132 239.448 34.5408C240.041 33.9497 240.845 33.6176 241.684 33.6176C242 33.6117 242.314 33.6734 242.605 33.7984C242.896 33.9235 243.157 34.109 243.37 34.3426H243.417V33.8172H244.74ZM243.512 36.7908C243.531 36.5526 243.503 36.3129 243.427 36.0861C243.352 35.8593 243.231 35.65 243.073 35.4706C242.914 35.2911 242.721 35.1453 242.505 35.0418C242.289 34.9383 242.055 34.8791 241.815 34.8679C241.572 34.8767 241.333 34.9336 241.112 35.0353C240.891 35.1371 240.693 35.2816 240.529 35.4606C240.364 35.6396 240.237 35.8494 240.155 36.0777C240.073 36.3061 240.037 36.5485 240.05 36.7908C240.039 37.0314 240.076 37.2719 240.159 37.4981C240.242 37.7244 240.369 37.9318 240.533 38.1084C240.698 38.285 240.896 38.4271 241.116 38.5265C241.336 38.6259 241.574 38.6806 241.815 38.6873C242.054 38.6789 242.288 38.6223 242.504 38.521C242.72 38.4198 242.913 38.2759 243.072 38.0982C243.23 37.9204 243.351 37.7124 243.427 37.4868C243.502 37.2612 243.531 37.0226 243.512 36.7855V36.7908Z" fill="#4285F4"/>
<path d="M247.177 30.4746V39.7315H245.786V30.4746H247.177Z" fill="#808080"/>
<path d="M252.658 37.8103L253.744 38.5458C253.454 38.977 253.062 39.3301 252.602 39.5739C252.143 39.8177 251.63 39.9446 251.109 39.9432C250.695 39.9491 250.284 39.8712 249.901 39.7141C249.518 39.5571 249.171 39.3241 248.88 39.0295C248.59 38.7348 248.363 38.3845 248.213 37.9997C248.062 37.615 247.992 37.2038 248.005 36.791C247.944 36.0815 248.146 35.3742 248.574 34.8038C249.002 34.2335 249.625 33.84 250.325 33.6985C251.025 33.5569 251.753 33.6772 252.37 34.0363C252.987 34.3954 253.45 34.9683 253.67 35.6458L253.812 36.0083L249.597 37.7472C249.728 38.0416 249.945 38.29 250.219 38.4604C250.493 38.6308 250.812 38.7154 251.135 38.7034C251.445 38.6964 251.747 38.6106 252.013 38.4543C252.28 38.298 252.502 38.0763 252.658 37.8103ZM249.333 36.6755L252.168 35.5092C252.055 35.2999 251.883 35.128 251.673 35.0143C251.464 34.9005 251.226 34.8498 250.988 34.8682C250.76 34.8783 250.537 34.9331 250.33 35.0295C250.124 35.1258 249.938 35.2618 249.785 35.4297C249.631 35.5976 249.512 35.794 249.434 36.0078C249.357 36.2215 249.323 36.4484 249.333 36.6755Z" fill="#EA4335"/>
</g>
<path d="M445.864 22.7796V19.7734H438V22.7796H439.804V29.2098H438V32.2159H445.864V29.2098H444.06V22.7796H445.864Z" fill="#00539F"/>
<path d="M454.542 24.5469C454.056 24.4058 451.555 23.6917 451.122 23.5506C450.689 23.4095 450.336 23.2067 450.336 22.951C450.336 22.6953 450.733 22.422 451.538 22.422C454.074 22.422 455.292 23.9826 455.292 23.9826C455.292 23.9826 455.429 24.1651 455.475 24.2306H457.922V19.9727H455.296V20.7473C455.095 20.6091 453.614 19.6445 451.317 19.6445C448.286 19.6445 446.598 21.214 446.598 23.5594C446.598 25.9048 448.727 26.8747 449.319 27.1216C449.912 27.3684 452.227 28.0209 453.217 28.3295C454.206 28.6381 454.569 28.8586 454.569 29.0173C454.569 29.176 454.136 29.5904 452.898 29.5904C450.743 29.5904 449.634 28.3224 449.439 28.0769V28.075C449.377 27.9921 449.304 27.8942 449.28 27.8573C449.251 27.8146 449.185 27.7199 449.139 27.6544H446.692V32.2014H449.439V31.2518C449.758 31.4641 451.395 32.4825 453.358 32.4825C455.55 32.4825 458.342 31.5302 458.342 28.5588C458.342 25.5874 455.028 24.688 454.542 24.5469Z" fill="#00539F"/>
<path d="M465.316 19.6035C461.662 19.6035 458.666 21.4261 458.666 26.0786C458.666 30.731 461.919 32.4737 465.332 32.4737C468.745 32.4737 471.966 30.747 471.966 26.1266C471.966 21.5062 468.745 19.6035 465.316 19.6035ZM465.348 29.372C464.098 29.372 463.297 29.0843 463.297 26.0626C463.297 23.0409 463.89 22.7212 465.396 22.7212C466.309 22.7212 467.415 22.7851 467.415 25.9667C467.415 29.1483 466.598 29.372 465.348 29.372Z" fill="#00539F"/>
<path d="M443.239 18.4017C444.06 17.1917 445.07 16.1191 446.228 15.2283C446.696 15.5736 447.194 15.8869 447.717 16.1661C446.84 17.1409 446.055 18.2209 445.925 18.4017H446.451C446.767 17.9772 447.42 17.1232 448.108 16.3661C448.861 16.7353 449.66 17.0372 450.495 17.2671C450.273 17.7373 450.105 18.1485 450.006 18.4017H450.463C450.568 18.141 450.722 17.7773 450.914 17.3755C451.979 17.6351 453.094 17.7805 454.235 17.8027V18.4017H454.659V17.8047C455.792 17.7964 456.901 17.6676 457.962 17.4256C458.143 17.8073 458.289 18.1519 458.389 18.4017H458.846C458.751 18.1585 458.593 17.7699 458.384 17.3227C459.233 17.1022 460.048 16.8082 460.816 16.4449C461.478 17.1818 462.097 17.9919 462.402 18.4017H462.927C462.801 18.2265 462.057 17.2021 461.211 16.2499C461.792 15.9499 462.344 15.6086 462.859 15.2283C464.017 16.1191 465.027 17.1917 465.849 18.4017H466.359C463.85 14.5382 459.491 11.9766 454.544 11.9766C449.596 11.9766 445.238 14.5382 442.729 18.4017H443.239ZM450.684 16.8801C449.89 16.6661 449.129 16.3857 448.411 16.0426C448.508 15.9414 448.606 15.8435 448.702 15.7507C449.685 14.8047 451.303 13.766 451.657 13.5424C451.945 13.7 452.259 13.8333 452.592 13.9391C452.333 14.2784 451.824 14.9672 451.27 15.8408C451.054 16.1808 450.857 16.5381 450.684 16.8801ZM454.235 17.3793C453.161 17.3578 452.11 17.2244 451.106 16.9868C451.263 16.6805 451.439 16.3654 451.628 16.0673C452.267 15.0609 452.843 14.3053 453.035 14.0595C453.418 14.1493 453.821 14.2061 454.235 14.2246V17.3793ZM454.659 17.3814V14.2294C455.068 14.2225 455.468 14.1793 455.851 14.1025C456.07 14.3857 456.62 15.114 457.225 16.0673C457.424 16.381 457.607 16.7135 457.771 17.0348C456.77 17.2556 455.726 17.3735 454.659 17.3814ZM458.196 16.9345C458.017 16.5762 457.81 16.1988 457.583 15.8408C457.057 15.0122 456.572 14.3499 456.302 13.9942C456.657 13.8947 456.992 13.7653 457.3 13.6088C457.798 13.9271 459.243 14.8779 460.15 15.7507C460.271 15.8666 460.393 15.9904 460.515 16.1188C459.782 16.4564 459.005 16.7298 458.196 16.9345ZM462.504 14.9637C462.007 15.3221 461.475 15.6432 460.915 15.9255C460.759 15.758 460.601 15.5963 460.445 15.446C459.596 14.6297 458.333 13.7733 457.714 13.3712C457.924 13.2352 458.117 13.0848 458.288 12.9211C459.82 13.3578 461.242 14.0562 462.504 14.9637ZM454.544 12.3998C455.664 12.3998 456.753 12.5361 457.795 12.7913C457.004 13.4325 455.819 13.8086 454.544 13.8086C453.263 13.8086 452.081 13.4337 451.291 12.7917C452.334 12.5363 453.423 12.3998 454.544 12.3998ZM450.799 12.9211C450.939 13.0545 451.092 13.1794 451.257 13.2945C450.696 13.6545 449.315 14.573 448.408 15.446C448.277 15.5717 448.146 15.7056 448.014 15.844C447.512 15.5818 447.034 15.2881 446.583 14.9637C447.845 14.0562 449.267 13.3579 450.799 12.9211Z" fill="#00539F"/>
<path d="M465.849 33.627C465.045 34.8116 464.06 35.8643 462.933 36.7437C462.396 36.341 461.82 35.9809 461.211 35.6665C461.945 34.8403 462.603 33.9599 462.846 33.6271H462.318C461.992 34.0609 461.422 34.7968 460.816 35.4717C460.048 35.1082 459.233 34.814 458.384 34.5935C458.563 34.2097 458.705 33.8696 458.802 33.6271H458.344C458.246 33.8635 458.117 34.1635 457.962 34.491C456.902 34.2494 455.793 34.1206 454.659 34.1125V33.6271H454.235V34.1144C453.093 34.1364 451.977 34.2818 450.914 34.5409C450.748 34.1941 450.61 33.8755 450.508 33.6271H450.05C450.151 33.8813 450.302 34.2427 450.494 34.6492C449.66 34.8792 448.86 35.1807 448.107 35.55C447.475 34.8546 446.873 34.0778 446.534 33.627H446.006C446.258 33.9709 446.952 34.9007 447.717 35.7507C447.166 36.0449 446.643 36.3763 446.154 36.7437C445.027 35.8642 444.042 34.8115 443.238 33.627H442.729C445.238 37.4904 449.596 40.0521 454.544 40.0521C459.491 40.0521 463.85 37.4905 466.358 33.627H465.849V33.627ZM458.196 34.9819C459.005 35.1866 459.782 35.4599 460.515 35.7977C460.393 35.9262 460.271 36.0502 460.15 36.1663C459.246 37.0363 457.805 37.9849 457.304 38.3057C456.996 38.1486 456.66 38.0192 456.304 37.9197C456.574 37.5634 457.058 36.9023 457.583 36.0761C457.81 35.718 458.016 35.3404 458.196 34.9819ZM454.659 34.5356C455.726 34.5435 456.771 34.6611 457.77 34.8816C457.607 35.2031 457.424 35.5357 457.224 35.8497C456.62 36.8017 456.072 37.5291 455.852 37.8132C455.47 37.7373 455.07 37.6945 454.659 37.6877V34.5356H454.659ZM454.235 34.5377V37.6921C453.819 37.7105 453.416 37.7665 453.033 37.8557C452.84 37.608 452.265 36.8546 451.628 35.8497C451.438 35.5514 451.263 35.236 451.106 34.9294C452.109 34.6921 453.16 34.5591 454.235 34.5377ZM450.684 35.0365C450.857 35.3787 451.053 35.736 451.269 36.0762C451.823 36.9491 452.332 37.6374 452.592 37.977C452.257 38.0827 451.944 38.2162 451.656 38.3742C451.3 38.1496 449.685 37.1117 448.702 36.1663C448.605 36.0735 448.508 35.9754 448.41 35.8742C449.128 35.5309 449.89 35.2504 450.684 35.0365ZM446.506 37.009C446.979 36.6623 447.483 36.3496 448.013 36.0725C448.145 36.211 448.277 36.3451 448.407 36.471C449.315 37.3437 450.695 38.262 451.256 38.6222C451.057 38.7618 450.874 38.9153 450.712 39.0819C449.182 38.6345 447.763 37.9263 446.506 37.009ZM454.543 39.6289C453.387 39.6289 452.263 39.4839 451.19 39.2123C451.974 38.5251 453.218 38.1084 454.543 38.1084C455.867 38.1084 457.113 38.5254 457.897 39.2124C456.824 39.484 455.7 39.6289 454.543 39.6289ZM458.374 39.0819C458.182 38.884 457.962 38.7036 457.716 38.5439C458.336 38.1411 459.597 37.286 460.444 36.4709C460.601 36.3206 460.758 36.1588 460.915 35.9912C461.503 36.2881 462.061 36.6279 462.581 37.009C461.324 37.9264 459.904 38.6346 458.374 39.0819Z" fill="#00539F"/>
<path d="M438.808 44.5384C438.827 44.8885 438.963 45.1305 439.215 45.2644C439.344 45.335 439.49 45.3702 439.653 45.3702C439.957 45.3702 440.216 45.2439 440.43 44.9913C440.644 44.7387 440.796 44.2258 440.886 43.4528C440.744 43.676 440.569 43.8329 440.361 43.9233C440.153 44.0138 439.928 44.059 439.688 44.059C439.201 44.059 438.815 43.9076 438.531 43.6049C438.247 43.3021 438.105 42.9124 438.105 42.4358C438.105 41.9782 438.246 41.5756 438.526 41.2282C438.806 40.8808 439.219 40.707 439.766 40.707C440.503 40.707 441.012 41.0381 441.292 41.7003C441.447 42.0643 441.525 42.5199 441.525 43.067C441.525 43.6846 441.432 44.2317 441.246 44.7084C440.937 45.5021 440.415 45.899 439.677 45.899C439.183 45.899 438.807 45.7697 438.551 45.5112C438.294 45.2528 438.165 44.9285 438.165 44.5384H438.808V44.5384ZM440.463 43.254C440.672 43.0886 440.776 42.7995 440.776 42.3865C440.776 42.0159 440.682 41.7396 440.495 41.5578C440.308 41.376 440.07 41.2851 439.78 41.2851C439.469 41.2851 439.222 41.3889 439.04 41.5965C438.857 41.8041 438.766 42.0816 438.766 42.4288C438.766 42.7572 438.846 43.0183 439.006 43.2118C439.166 43.4054 439.422 43.5021 439.773 43.5021C440.025 43.5021 440.255 43.4194 440.463 43.254Z" fill="#00539F"/>
<path d="M445.249 41.522C445.475 41.9379 445.588 42.5078 445.588 43.2315C445.588 43.9176 445.485 44.485 445.281 44.9339C444.984 45.5777 444.499 45.8997 443.825 45.8997C443.217 45.8997 442.765 45.6366 442.469 45.1101C442.221 44.6708 442.098 44.0809 442.098 43.3408C442.098 42.7674 442.172 42.2751 442.32 41.8638C442.598 41.0979 443.101 40.7148 443.829 40.7148C444.483 40.7148 444.957 40.9839 445.249 41.522ZM444.609 44.8845C444.805 44.5932 444.903 44.0504 444.903 43.2561C444.903 42.6828 444.832 42.211 444.69 41.841C444.549 41.4709 444.274 41.2858 443.866 41.2858C443.491 41.2858 443.216 41.4615 443.043 41.8128C442.87 42.1641 442.783 42.6816 442.783 43.3655C442.783 43.88 442.838 44.2937 442.949 44.6061C443.119 45.0832 443.409 45.3217 443.82 45.3217C444.15 45.3216 444.413 45.1759 444.609 44.8845Z" fill="#00539F"/>
<path d="M449.272 41.522C449.498 41.9379 449.611 42.5078 449.611 43.2315C449.611 43.9176 449.509 44.485 449.304 44.9339C449.007 45.5777 448.522 45.8997 447.849 45.8997C447.241 45.8997 446.789 45.6366 446.492 45.1101C446.245 44.6708 446.121 44.0809 446.121 43.3408C446.121 42.7674 446.195 42.2751 446.344 41.8638C446.621 41.0979 447.124 40.7148 447.852 40.7148C448.507 40.7148 448.98 40.9839 449.272 41.522ZM448.632 44.8845C448.828 44.5932 448.926 44.0504 448.926 43.2561C448.926 42.6828 448.855 42.211 448.714 41.841C448.572 41.4709 448.297 41.2858 447.889 41.2858C447.514 41.2858 447.24 41.4615 447.067 41.8128C446.893 42.1641 446.806 42.6816 446.806 43.3655C446.806 43.88 446.862 44.2937 446.973 44.6061C447.143 45.0832 447.433 45.3217 447.843 45.3217C448.173 45.3216 448.436 45.1759 448.632 44.8845Z" fill="#00539F"/>
<path d="M450.611 42.1886V41.7021C451.071 41.6575 451.391 41.5829 451.572 41.4783C451.753 41.3738 451.889 41.1265 451.978 40.7363H452.48V45.7625H451.802V42.1885H450.611V42.1886Z" fill="#00539F"/>
<path d="M454.744 42.0371H455.482V42.8055H454.744V42.0371ZM454.744 44.9943H455.482V45.7627H454.744V44.9943Z" fill="#00539F"/>
<path d="M456.448 44.6272C456.605 44.3054 456.91 44.0128 457.365 43.7496L458.043 43.3584C458.347 43.1821 458.56 43.0316 458.683 42.9069C458.876 42.7114 458.972 42.4878 458.972 42.2358C458.972 41.9416 458.884 41.7079 458.707 41.5348C458.531 41.3618 458.295 41.2753 458.001 41.2753C457.565 41.2753 457.264 41.4403 457.096 41.7702C457.007 41.947 456.957 42.192 456.948 42.5054H456.302C456.309 42.0661 456.39 41.7077 456.545 41.4304C456.821 40.9417 457.307 40.6973 458.004 40.6973C458.584 40.6973 459.007 40.8536 459.274 41.1661C459.541 41.4786 459.675 41.8264 459.675 42.2094C459.675 42.6135 459.533 42.959 459.248 43.2456C459.083 43.4125 458.787 43.6145 458.361 43.8519L457.877 44.1198C457.646 44.2467 457.465 44.3677 457.333 44.4828C457.098 44.6872 456.949 44.914 456.888 45.163H459.651V45.7622H456.178C456.201 45.3275 456.292 44.9492 456.448 44.6272Z" fill="#00539F"/>
<path d="M463.352 41.522C463.578 41.9379 463.691 42.5078 463.691 43.2315C463.691 43.9176 463.589 44.485 463.384 44.9339C463.087 45.5777 462.602 45.8997 461.929 45.8997C461.321 45.8997 460.869 45.6366 460.572 45.1101C460.325 44.6708 460.201 44.0809 460.201 43.3408C460.201 42.7674 460.275 42.2751 460.424 41.8638C460.702 41.0979 461.204 40.7148 461.932 40.7148C462.587 40.7148 463.06 40.9839 463.352 41.522ZM462.712 44.8845C462.908 44.5932 463.006 44.0504 463.006 43.2561C463.006 42.6828 462.935 42.211 462.794 41.841C462.652 41.4709 462.377 41.2858 461.969 41.2858C461.594 41.2858 461.32 41.4615 461.147 41.8128C460.973 42.1641 460.886 42.6816 460.886 43.3655C460.886 43.88 460.942 44.2937 461.053 44.6061C461.223 45.0832 461.513 45.3217 461.923 45.3217C462.253 45.3216 462.516 45.1759 462.712 44.8845Z" fill="#00539F"/>
<path d="M464.691 42.1886V41.7021C465.151 41.6575 465.471 41.5829 465.652 41.4783C465.834 41.3738 465.969 41.1265 466.059 40.7363H466.56V45.7625H465.882V42.1885H464.691V42.1886Z" fill="#00539F"/>
<path d="M468.917 44.4751C468.959 44.8369 469.127 45.0872 469.422 45.2259C469.572 45.2963 469.747 45.3316 469.945 45.3316C470.321 45.3316 470.6 45.2118 470.782 44.972C470.963 44.7324 471.054 44.4669 471.054 44.1755C471.054 43.823 470.946 43.5504 470.731 43.3577C470.515 43.165 470.257 43.0687 469.955 43.0687C469.736 43.0687 469.548 43.111 469.392 43.1956C469.235 43.2801 469.102 43.3977 468.991 43.548L468.44 43.5163L468.825 40.7988H471.453V41.4121H469.302L469.086 42.8149C469.204 42.7256 469.316 42.6587 469.422 42.614C469.61 42.5365 469.828 42.4977 470.075 42.4977C470.539 42.4977 470.932 42.6469 471.255 42.9454C471.578 43.2437 471.739 43.6221 471.739 44.0803C471.739 44.5574 471.591 44.978 471.296 45.3422C471 45.7064 470.529 45.8885 469.881 45.8885C469.469 45.8885 469.104 45.7727 468.788 45.5413C468.471 45.3099 468.294 44.9545 468.256 44.4751H468.917V44.4751Z" fill="#00539F"/>
<path d="M32.6564 28.6816H29.3717C29.3953 28.44 29.3795 28.2222 29.3244 28.0283C29.2693 27.8344 29.1747 27.6676 29.0408 27.5281C28.9069 27.3852 28.7316 27.2764 28.515 27.2015C28.2984 27.1266 28.0404 27.0892 27.7411 27.0892C27.1661 27.0892 26.6521 27.2134 26.1992 27.4618C25.7462 27.7068 25.3701 28.0589 25.0708 28.5182C24.7714 28.9742 24.5588 29.5186 24.4327 30.1514C24.3224 30.7639 24.3185 31.2725 24.4209 31.6774C24.5272 32.0823 24.734 32.3851 25.0412 32.5859C25.3524 32.7866 25.7561 32.887 26.2523 32.887C26.5832 32.887 26.8864 32.8529 27.1621 32.7849C27.4418 32.7169 27.6899 32.6199 27.9065 32.494C28.1271 32.3647 28.3142 32.2116 28.4678 32.0347C28.6253 31.8543 28.7454 31.6553 28.8281 31.4375H32.1365C32.0105 31.8799 31.786 32.3324 31.463 32.7951C31.1401 33.2544 30.7226 33.678 30.2106 34.0659C29.6986 34.4504 29.096 34.7617 28.4028 34.9999C27.7096 35.2381 26.9298 35.3571 26.0633 35.3571C24.929 35.3571 23.9503 35.1428 23.1271 34.7141C22.3079 34.2854 21.7132 33.6593 21.3429 32.8359C20.9766 32.0125 20.9038 31.0088 21.1243 29.8248C21.3449 28.6816 21.7801 27.7238 22.43 26.9514C23.0798 26.1791 23.8695 25.5972 24.799 25.206C25.7285 24.8147 26.7171 24.619 27.7647 24.619C28.5564 24.619 29.2653 24.7092 29.8916 24.8895C30.5217 25.0699 31.0515 25.3336 31.4808 25.6806C31.914 26.0243 32.233 26.4479 32.4378 26.9514C32.6426 27.455 32.7155 28.0317 32.6564 28.6816Z" fill="black"/>
<path d="M34.9147 24.762H39.0029L40.6807 30.6822H40.8225L44.7689 24.762H48.8571L46.8485 35.2142H43.6346L44.7926 29.1715H44.698L40.8698 35.1326H38.932L37.396 29.1307H37.3014L36.1199 35.2142H32.906L34.9147 24.762Z" fill="black"/>
<path d="M50.4139 24.762H54.5021L56.1799 30.6822H56.3217L60.2681 24.762H64.3563L62.3477 35.2142H59.1338L60.2917 29.1715H60.1972L56.3689 35.1326H54.4312L52.8951 29.1307H52.8006L51.6191 35.2142H48.4052L50.4139 24.762Z" fill="black"/>
<path d="M69.1978 24.762L67.1891 35.2142H63.9044L65.913 24.762H69.1978Z" fill="black"/>
<path d="M70.2456 21.2024C70.2456 22.5502 69.0728 23.6429 67.6261 23.6429C66.1794 23.6429 65.0067 22.5502 65.0067 21.2024C65.0067 19.8545 66.1794 18.7619 67.6261 18.7619C69.0728 18.7619 70.2456 19.8545 70.2456 21.2024Z" fill="#00B5F0"/>
<path d="M30.43 22.9951C38.8122 15.8364 58.0913 4.93562 68.15 18.6023C65.1813 10.4672 53.4811 -0.0433273 30.43 22.9951Z" fill="url(#paint0_linear_1771_3367)"/>
<path d="M61.8633 38.2857C53.6062 44.8258 37.1952 52.1096 27.2867 39.624C30.2111 47.0561 39.1563 59.3332 61.8633 38.2857Z" fill="url(#paint1_linear_1771_3367)"/>
<path d="M56.9425 36.3333L56.3362 40.1817H55.5767L56.1829 36.3333H56.9425Z" fill="black"/>
<path d="M58.1857 40.2381C57.9052 40.2381 57.6728 40.178 57.4885 40.0577C57.3043 39.9362 57.1747 39.7646 57.0998 39.5428C57.0261 39.3198 57.0136 39.0561 57.0624 38.7517C57.1099 38.4548 57.2056 38.1943 57.3495 37.97C57.4945 37.7458 57.6763 37.571 57.8951 37.4458C58.1138 37.3205 58.3575 37.2578 58.6261 37.2578C58.8068 37.2578 58.9702 37.2885 59.1164 37.3499C59.2638 37.4101 59.3863 37.5015 59.4837 37.6243C59.5812 37.7458 59.6478 37.898 59.6834 38.0809C59.7203 38.2638 59.7197 38.478 59.6817 38.7235L59.6478 38.9434H57.337L57.4101 38.4473H59.0077C59.0255 38.3321 59.0184 38.23 58.9863 38.141C58.9542 38.0521 58.9007 37.9826 58.8258 37.9324C58.7509 37.8811 58.6588 37.8554 58.5494 37.8554C58.4377 37.8554 58.3331 37.8842 58.2356 37.9418C58.1381 37.9995 58.0561 38.0753 57.9896 38.1692C57.9242 38.2619 57.882 38.3628 57.863 38.4717L57.7792 38.9641C57.7554 39.1156 57.7601 39.2415 57.7934 39.3418C57.8279 39.442 57.8873 39.5171 57.9717 39.5673C58.0561 39.6161 58.1631 39.6405 58.2927 39.6405C58.3771 39.6405 58.4561 39.628 58.5298 39.603C58.6047 39.5779 58.6713 39.5409 58.7295 39.4921C58.7878 39.442 58.8353 39.38 58.8722 39.3061L59.5658 39.3549C59.5016 39.5328 59.4041 39.6881 59.2733 39.8209C59.1426 39.9525 58.9851 40.0552 58.8008 40.1291C58.6178 40.2018 58.4127 40.2381 58.1857 40.2381Z" fill="black"/>
<path d="M62.8867 37.2954L61.4727 40.1817H60.6169L60.1158 37.2954H60.8897L61.1322 39.3606H61.1607L62.054 37.2954H62.8867Z" fill="black"/>
<path d="M63.9717 40.2381C63.6911 40.2381 63.4587 40.178 63.2745 40.0577C63.0902 39.9362 62.9607 39.7646 62.8858 39.5428C62.8121 39.3198 62.7996 39.0561 62.8483 38.7517C62.8959 38.4548 62.9916 38.1943 63.1354 37.97C63.2804 37.7458 63.4623 37.571 63.681 37.4458C63.8997 37.3205 64.1434 37.2578 64.4121 37.2578C64.5927 37.2578 64.7562 37.2885 64.9024 37.3499C65.0498 37.4101 65.1722 37.5015 65.2697 37.6243C65.3672 37.7458 65.4337 37.898 65.4694 38.0809C65.5063 38.2638 65.5057 38.478 65.4676 38.7235L65.4337 38.9434H63.1229L63.196 38.4473H64.7936C64.8115 38.3321 64.8043 38.23 64.7722 38.141C64.7401 38.0521 64.6866 37.9826 64.6118 37.9324C64.5369 37.8811 64.4448 37.8554 64.3354 37.8554C64.2237 37.8554 64.1191 37.8842 64.0216 37.9418C63.9241 37.9995 63.8421 38.0753 63.7755 38.1692C63.7101 38.2619 63.6679 38.3628 63.6489 38.4717L63.5651 38.9641C63.5413 39.1156 63.5461 39.2415 63.5794 39.3418C63.6139 39.442 63.6733 39.5171 63.7577 39.5673C63.8421 39.6161 63.9491 39.6405 64.0786 39.6405C64.163 39.6405 64.2421 39.628 64.3158 39.603C64.3907 39.5779 64.4572 39.5409 64.5155 39.4921C64.5737 39.442 64.6213 39.38 64.6581 39.3061L65.3517 39.3549C65.2875 39.5328 65.1901 39.6881 65.0593 39.8209C64.9286 39.9525 64.771 40.0552 64.5868 40.1291C64.4037 40.2018 64.1987 40.2381 63.9717 40.2381Z" fill="black"/>
<path d="M67.1022 36.3333L66.496 40.1817H65.7364L66.3426 36.3333H67.1022Z" fill="black"/>
<path d="M70.7383 39.2619C70.2364 39.2619 69.7905 39.172 69.4006 38.9923C69.0128 38.8105 68.7079 38.5604 68.486 38.2421C68.2641 37.9238 68.1521 37.5579 68.15 37.1444H69.8921C69.8942 37.2721 69.9315 37.3869 70.0041 37.4886C70.0788 37.5882 70.1804 37.6662 70.309 37.7225C70.4376 37.7788 70.5848 37.8069 70.7507 37.8069C70.9104 37.8069 71.0515 37.7777 71.1738 37.7192C71.2962 37.6586 71.3916 37.5752 71.46 37.4691C71.5285 37.363 71.5616 37.2418 71.5596 37.1054C71.5616 36.9711 71.5222 36.8521 71.4414 36.7481C71.3625 36.6442 71.2516 36.563 71.1085 36.5045C70.9654 36.4461 70.8005 36.4168 70.6138 36.4168H69.9668V35.1697H70.6138C70.786 35.1697 70.9374 35.1405 71.068 35.082C71.2008 35.0236 71.3034 34.9424 71.376 34.8384C71.4507 34.7345 71.487 34.6154 71.4849 34.4812C71.487 34.3513 71.4569 34.2365 71.3947 34.1369C71.3325 34.0373 71.2454 33.9594 71.1334 33.9031C71.0235 33.8468 70.8959 33.8186 70.7507 33.8186C70.5931 33.8186 70.4521 33.8479 70.3276 33.9063C70.2053 33.9648 70.1088 34.046 70.0383 34.1499C69.9678 34.2538 69.9315 34.3729 69.9294 34.5072H68.2744C68.2765 34.1001 68.3833 33.7407 68.5949 33.4289C68.8085 33.1171 69.1009 32.8724 69.4721 32.6949C69.8434 32.5173 70.2696 32.4286 70.7507 32.4286C71.2215 32.4286 71.6373 32.5119 71.9982 32.6787C72.3611 32.8454 72.6442 33.0749 72.8475 33.3672C73.0528 33.6573 73.1544 33.9897 73.1524 34.3643C73.1565 34.7367 73.0341 35.042 72.7853 35.2801C72.5385 35.5183 72.2253 35.659 71.8458 35.7023V35.7543C72.3601 35.8128 72.7469 35.9773 73.0061 36.248C73.2654 36.5164 73.3929 36.8542 73.3888 37.2613C73.3909 37.651 73.2789 37.9964 73.0528 38.2973C72.8288 38.5983 72.5167 38.8343 72.1164 39.0053C71.7182 39.1764 71.2589 39.2619 70.7383 39.2619Z" fill="#00AEEF"/>
<defs>
<linearGradient id="paint0_linear_1771_3367" x1="23.1829" y1="54.7574" x2="85.8587" y2="53.274" gradientUnits="userSpaceOnUse">
<stop offset="0.469461" stop-color="#00B7F1"/>
<stop offset="0.603003" stop-color="#97E2F9"/>
<stop offset="1" stop-color="white"/>
</linearGradient>
<linearGradient id="paint1_linear_1771_3367" x1="19.4362" y1="64.5585" x2="86.7905" y2="62.989" gradientUnits="userSpaceOnUse">
<stop offset="0.469461" stop-color="#00B7F1"/>
<stop offset="1" stop-color="#F9FAFB"/>
</linearGradient>
<clipPath id="clip0_1771_3367">
<rect width="72.9058" height="12.6087" fill="white" transform="translate(214.275 30.1387)"/>
</clipPath>
</defs>
</svg>
