<svg width="20" height="20" viewBox="0 0 20 20" fill="none" xmlns="http://www.w3.org/2000/svg">
<g clip-path="url(#clip0_2829_15447)">
<path d="M19.7672 9.27704C19.4635 8.78662 18.9264 8.49396 18.3304 8.49396H16.8427V5.76492C16.8427 5.1062 16.2869 4.57046 15.6039 4.57046H8.32108C8.31039 4.57046 8.30322 4.56741 8.30032 4.56558L6.99692 2.74261C6.76575 2.41943 6.38458 2.22656 5.97717 2.22656H1.23871C0.555573 2.22656 0 2.76245 0 3.42102V16.5128C0 17.1869 0.569153 17.7354 1.26892 17.7354H16.0097C16.2393 17.7354 16.4377 17.6028 16.5337 17.4104L16.5341 17.4106L19.8373 10.7762C20.0769 10.2954 20.0505 9.73495 19.7672 9.27704ZM1.23871 3.39844H5.97717C6.01227 3.39844 6.03607 3.41385 6.04355 3.42438L7.34894 5.24994C7.56927 5.55817 7.93274 5.74234 8.32108 5.74234H15.6039C15.6448 5.74234 15.6656 5.76157 15.6708 5.76843V8.49396H5.06638C4.40872 8.49396 3.81058 8.86459 3.54248 9.43832L1.17188 14.5114V3.42453C1.17706 3.41766 1.19781 3.39844 1.23871 3.39844ZM18.7883 10.2539L15.6468 16.5634H1.5065L4.60419 9.93454C4.67926 9.77386 4.86511 9.66583 5.06638 9.66583H18.3304C18.5176 9.66583 18.6823 9.75113 18.7708 9.89395C18.8205 9.97436 18.8638 10.1021 18.7883 10.2539Z" fill="#0400F5"/>
</g>
<defs>
<clipPath id="clip0_2829_15447">
<rect width="20" height="20" fill="white"/>
</clipPath>
</defs>
</svg>
