<svg width="18" height="18" viewBox="0 0 18 18" fill="none" xmlns="http://www.w3.org/2000/svg">
<path fill-rule="evenodd" clip-rule="evenodd" d="M15.7526 7.5C16.1669 7.5 16.5026 7.16421 16.5026 6.75V2.25C16.5026 1.83579 16.1669 1.5 15.7526 1.5H11.2499C10.8357 1.5 10.4999 1.83578 10.4999 2.25C10.4999 2.66421 10.8357 3 11.2499 3H13.9421L7.48712 9.45495C7.19423 9.74783 7.19423 10.2227 7.48712 10.5156C7.78005 10.8086 8.25488 10.8086 8.54775 10.5156L15.0026 4.06078V6.75C15.0026 7.16421 15.3384 7.5 15.7526 7.5ZM3.75 3.75C2.50736 3.75 1.5 4.75736 1.5 6V14.25C1.5 15.4927 2.50736 16.5 3.75 16.5H12C13.2427 16.5 14.25 15.4927 14.25 14.25V9.75C14.25 9.33578 13.9142 9 13.5 9C13.0858 9 12.75 9.33578 12.75 9.75V14.25C12.75 14.6642 12.4142 15 12 15H3.75C3.33579 15 3 14.6642 3 14.25V6C3 5.58579 3.33579 5.25 3.75 5.25H8.25C8.66423 5.25 9 4.91421 9 4.5C9 4.08579 8.66423 3.75 8.25 3.75H3.75Z" fill="#0400F5"/>
</svg>
