<svg width="24" height="24" viewBox="0 0 24 24" fill="none" xmlns="http://www.w3.org/2000/svg">
<path fill-rule="evenodd" clip-rule="evenodd" d="M9.66724 3.5C7.71671 3.5 6.1355 5.08121 6.1355 7.03174C6.1355 8.98226 7.71671 10.5635 9.66724 10.5635C11.6178 10.5635 13.199 8.98226 13.199 7.03174C13.199 5.08121 11.6178 3.5 9.66724 3.5ZM4.6355 7.03174C4.6355 4.25279 6.88829 2 9.66724 2C12.4462 2 14.699 4.25279 14.699 7.03174C14.699 9.81069 12.4462 12.0635 9.66724 12.0635C6.88829 12.0635 4.6355 9.81069 4.6355 7.03174ZM15.4355 4.46753C15.4355 4.05332 15.7713 3.71753 16.1855 3.71753C18.4668 3.71753 20.3161 5.56687 20.3161 7.84816C20.3161 10.1294 18.4668 11.9788 16.1855 11.9788C15.9024 11.9788 15.6251 11.9502 15.3568 11.8955C14.9509 11.8127 14.689 11.4166 14.7717 11.0108C14.8545 10.6049 15.2506 10.343 15.6564 10.4257C15.8267 10.4604 16.0036 10.4788 16.1855 10.4788C17.6384 10.4788 18.8161 9.30101 18.8161 7.84816C18.8161 6.3953 17.6384 5.21753 16.1855 5.21753C15.7713 5.21753 15.4355 4.88174 15.4355 4.46753ZM16.4373 13.8081C16.4373 13.3939 16.7731 13.0581 17.1873 13.0581C19.8106 13.0581 21.9373 15.1848 21.9373 17.8081V18.5326C21.9373 19.4991 21.1538 20.2826 20.1873 20.2826H19.3097C18.8954 20.2826 18.5597 19.9469 18.5597 19.5326C18.5597 19.1184 18.8954 18.7826 19.3097 18.7826H20.1873C20.3253 18.7826 20.4373 18.6707 20.4373 18.5326V17.8081C20.4373 16.0132 18.9822 14.5581 17.1873 14.5581C16.7731 14.5581 16.4373 14.2223 16.4373 13.8081ZM2.06226 18.9996C2.06226 15.824 4.63662 13.2496 7.81226 13.2496H11.5252C14.7008 13.2496 17.2752 15.824 17.2752 18.9996V19.25C17.2752 20.7688 16.044 22.0001 14.5252 22.0001H4.81226C3.29348 22.0001 2.06226 20.7688 2.06226 19.2501V18.9996ZM7.81226 14.7496C5.46505 14.7496 3.56226 16.6524 3.56226 18.9996V19.2501C3.56226 19.9404 4.1219 20.5001 4.81226 20.5001H14.5252C15.2155 20.5001 15.7752 19.9404 15.7752 19.25V18.9996C15.7752 16.6524 13.8724 14.7496 11.5252 14.7496H7.81226Z" fill="white"/>
</svg>
