<svg width="37" height="37" viewBox="0 0 37 37" fill="none" xmlns="http://www.w3.org/2000/svg">
<path d="M11.5491 11.2214C11.3872 10.3899 11.3872 9.53805 11.5491 8.70656L13.0839 8.30976C13.1981 7.96111 13.3484 7.62363 13.5326 7.30208L12.7487 6.008C13.2638 5.31398 13.909 4.71244 14.6533 4.23232L16.0395 4.9632C16.3841 4.79126 16.7459 4.65107 17.1197 4.54464L17.5454 3.11328C18.4366 2.96224 19.3497 2.96224 20.2409 3.11328L20.6666 4.54464C21.0403 4.65136 21.4021 4.79153 21.7469 4.9632L23.1331 4.23232C23.8773 4.71244 24.5225 5.31398 25.0376 6.008L24.2537 7.30144C24.4379 7.62299 24.5882 7.96047 24.7024 8.30912L26.2372 8.70592C26.3991 9.53741 26.3991 10.3893 26.2372 11.2208L24.7024 11.6176C24.5882 11.9663 24.438 12.3037 24.2537 12.6253L25.0376 13.9187C24.5226 14.613 23.8774 15.2147 23.1331 15.695L21.7469 14.9648C21.4021 15.1367 21.0403 15.2771 20.6666 15.384L20.2409 16.8154C19.3497 16.9664 18.4366 16.9664 17.5454 16.8154L17.1197 15.384C16.7459 15.2776 16.3841 15.1374 16.0395 14.9654L14.6533 15.6957C13.9089 15.2154 13.2637 14.6136 12.7487 13.9194L13.5326 12.6259C13.3483 12.3044 13.1981 11.9669 13.0839 11.6182L11.5491 11.2214ZM14.2409 9.96416C14.2403 10.9689 14.6132 11.9427 15.296 12.7197C15.9789 13.4967 16.9294 14.0288 17.9857 14.2253C19.042 14.4217 20.1386 14.2704 21.0887 13.7971C22.0387 13.3238 22.7835 12.5578 23.196 11.6297C23.6085 10.7016 23.6632 9.66872 23.3508 8.70717C23.0384 7.74563 22.3782 6.91489 21.4828 6.35654C20.5873 5.79819 19.512 5.54677 18.4402 5.64514C17.3683 5.74351 16.3661 6.18557 15.6045 6.896C15.1718 7.29841 14.8285 7.77662 14.5945 8.30315C14.3605 8.82969 14.2403 9.39417 14.2409 9.96416ZM16.2765 12.4051C15.6712 11.8404 15.2945 11.0973 15.2107 10.3026C15.1268 9.50784 15.341 8.71055 15.8166 8.04657C16.2923 7.38259 17 6.893 17.8192 6.66122C18.6385 6.42944 19.5185 6.46981 20.3094 6.77545C21.1003 7.08109 21.7531 7.63309 22.1566 8.3374C22.5602 9.04171 22.6894 9.85475 22.5224 10.638C22.3553 11.4212 21.9024 12.1262 21.2406 12.6328C20.5788 13.1394 19.7492 13.4163 18.8932 13.4163C18.4071 13.417 17.9256 13.328 17.4766 13.1545C17.0275 12.9809 16.6196 12.7263 16.2765 12.4051ZM16.542 9.96416C16.5415 10.4722 16.7298 10.9647 17.0749 11.3577C17.42 11.7507 17.9005 12.0199 18.4346 12.1194C18.9686 12.2189 19.5232 12.1425 20.0036 11.9033C20.4841 11.6642 20.8608 11.2769 21.0695 10.8077C21.2781 10.3384 21.3059 9.81619 21.1481 9.32997C20.9902 8.84375 20.6565 8.42364 20.2038 8.14126C19.751 7.85888 19.2073 7.73169 18.6654 7.78138C18.1234 7.83107 17.6166 8.05456 17.2315 8.41376C17.0127 8.61705 16.8392 8.85868 16.7208 9.12475C16.6025 9.39083 16.5417 9.6761 16.542 9.96416ZM18.8932 11.2698C19.2171 11.2702 19.5312 11.1658 19.7819 10.9744C20.0326 10.7831 20.2044 10.5165 20.2681 10.2202C20.3318 9.92391 20.2833 9.61617 20.131 9.34945C19.9787 9.08272 19.732 8.87351 19.4329 8.75745C19.1338 8.64139 18.8008 8.62567 18.4907 8.71296C18.1805 8.80026 17.9124 8.98516 17.732 9.23618C17.5517 9.4872 17.4702 9.78879 17.5014 10.0896C17.5327 10.3904 17.6748 10.6717 17.9035 10.8858C18.1658 11.1311 18.5217 11.2692 18.8932 11.2698ZM26.7486 7.48352C28.4912 8.22528 29.7834 9.3856 30.3937 10.9715C30.9158 12.3222 30.9522 13.9926 30.3687 15.992L29.5992 13.9949C29.5783 13.9402 29.546 13.89 29.5042 13.847C29.4624 13.804 29.412 13.7691 29.3557 13.7444C29.2995 13.7196 29.2386 13.7053 29.1764 13.7025C29.1143 13.6997 29.0522 13.7083 28.9936 13.7278C28.9351 13.7474 28.8812 13.7775 28.8351 13.8165C28.789 13.8555 28.7516 13.9026 28.7251 13.955C28.6985 14.0075 28.6832 14.0643 28.6802 14.1223C28.6772 14.1802 28.6864 14.2382 28.7074 14.2928L29.9423 17.5011C29.9617 17.5599 29.9938 17.6143 30.0366 17.6611C30.1196 17.7495 30.2368 17.8034 30.3624 17.8112C30.4881 17.8189 30.6118 17.7798 30.7066 17.7024L33.468 15.4429C33.5628 15.3656 33.6208 15.2564 33.6293 15.1393C33.6378 15.0222 33.596 14.9067 33.5133 14.8182C33.4305 14.7298 33.3134 14.6757 33.1878 14.6678C33.0623 14.6598 32.9385 14.6988 32.8437 14.776L31.3473 16.0013C31.9175 13.9158 31.8502 12.1411 31.2839 10.6736C30.581 8.84672 29.1156 7.51936 27.1421 6.68C27.0279 6.63133 26.8976 6.62698 26.7799 6.6679C26.6623 6.70883 26.5669 6.79169 26.5147 6.89824C26.4625 7.00479 26.4578 7.12632 26.5017 7.23608C26.5456 7.34584 26.6344 7.43485 26.7486 7.48352ZM4.31868 15.4426L7.0801 17.7021C7.12683 17.7404 7.18122 17.7697 7.24013 17.7884C7.29904 17.8071 7.36132 17.8147 7.4234 17.8109C7.48549 17.807 7.54615 17.7918 7.6019 17.766C7.65766 17.7403 7.70742 17.7045 7.74833 17.6608C7.79225 17.6145 7.82501 17.5599 7.84438 17.5008L9.0793 14.2925C9.10027 14.2378 9.1095 14.1799 9.10646 14.1219C9.10343 14.064 9.08818 14.0072 9.0616 13.9547C9.03502 13.9022 8.99762 13.8552 8.95154 13.8162C8.90546 13.7772 8.8516 13.7471 8.79304 13.7275C8.73448 13.708 8.67236 13.6993 8.61023 13.7022C8.5481 13.705 8.48718 13.7192 8.43094 13.744C8.3747 13.7688 8.32425 13.8037 8.28247 13.8467C8.24068 13.8897 8.20838 13.9399 8.18741 13.9946L7.41936 15.9936C6.83209 13.9856 6.87222 12.3078 7.40187 10.9517C8.01624 9.37632 9.30227 8.22144 11.038 7.4832C11.1522 7.43448 11.241 7.34545 11.2848 7.23569C11.3286 7.12593 11.3239 7.00443 11.2716 6.89792C11.2194 6.79141 11.124 6.70861 11.0063 6.66774C10.8886 6.62687 10.7584 6.63128 10.6442 6.68C8.68001 7.5152 7.21663 8.8352 6.50998 10.6512C5.93608 12.1206 5.86679 13.9043 6.43897 16.0006L4.94266 14.776C4.8475 14.7016 4.72487 14.6649 4.60108 14.6739C4.47728 14.6829 4.3622 14.7368 4.28053 14.824C4.19885 14.9113 4.1571 15.0249 4.16424 15.1406C4.17137 15.2562 4.22682 15.3646 4.31868 15.4426Z" fill="#016BE3" fill-opacity="0.58"/>
<path d="M27.9393 24.9033C27.3551 24.9033 26.784 24.7417 26.2982 24.439C25.8125 24.1362 25.4339 23.7058 25.2103 23.2023C24.9867 22.6988 24.9282 22.1448 25.0422 21.6102C25.1562 21.0757 25.4375 20.5847 25.8506 20.1994C26.2637 19.814 26.79 19.5516 27.363 19.4452C27.936 19.3389 28.5299 19.3935 29.0697 19.6021C29.6094 19.8106 30.0708 20.1638 30.3953 20.6169C30.7199 21.0701 30.8932 21.6028 30.8932 22.1478C30.8917 22.8782 30.58 23.5783 30.0264 24.0948C29.4728 24.6112 28.7223 24.902 27.9393 24.9033ZM12.8009 22.1478C12.8011 21.6026 12.6279 21.0695 12.3033 20.616C11.9787 20.1626 11.5172 19.8091 10.9772 19.6004C10.4373 19.3916 9.84305 19.337 9.26976 19.4433C8.69648 19.5496 8.16987 19.8122 7.75656 20.1977C7.34325 20.5833 7.0618 21.0745 6.94782 21.6093C6.83384 22.1441 6.89244 22.6984 7.11622 23.2022C7.33999 23.7059 7.71889 24.1364 8.20498 24.4392C8.69106 24.742 9.2625 24.9035 9.84701 24.9033C10.63 24.902 11.3805 24.6112 11.9341 24.0948C12.4878 23.5783 12.7994 22.8782 12.8009 22.1478ZM32.4296 26.7821C31.7133 26.1782 30.8164 25.7928 29.8589 25.6774L29.3046 27.463C29.2639 27.5912 29.1906 27.7082 29.0909 27.8041L29.3622 30.9549C29.3676 31.0227 29.3564 31.0907 29.3294 31.1538C29.3024 31.217 29.2604 31.2736 29.2065 31.3193L28.2782 32.2016C28.1897 32.2851 28.0693 32.3325 27.9433 32.3335C27.8174 32.3344 27.6962 32.2889 27.6062 32.2067L26.6529 31.2998C26.6052 31.2547 26.5685 31.2006 26.5452 31.141C26.522 31.0815 26.5127 31.018 26.5181 30.9549L26.7894 27.8041C26.6897 27.7082 26.6164 27.5912 26.5757 27.463L26.0214 25.6774C25.2182 25.7745 24.4547 26.0608 23.803 26.5094C24.0352 26.6577 24.2554 26.8217 24.462 27C25.0213 27.466 25.4697 28.0362 25.7784 28.6738C26.0871 29.3113 26.2492 30.0022 26.2543 30.7017V33.504H30.7909V29.792C30.7943 29.6764 30.8458 29.5665 30.9347 29.4859C31.0235 29.4052 31.1426 29.3601 31.2666 29.3601C31.3905 29.3601 31.5096 29.4052 31.5984 29.4859C31.6873 29.5665 31.7388 29.6764 31.7422 29.792V33.504H33.3095C33.372 33.5042 33.434 33.4929 33.4918 33.4707C33.5496 33.4484 33.6021 33.4158 33.6463 33.3746C33.6905 33.3333 33.7256 33.2844 33.7494 33.2305C33.7733 33.1766 33.7855 33.1188 33.7853 33.0605V29.5725C33.7804 29.0449 33.6572 28.5241 33.4237 28.0435C33.1903 27.563 32.8516 27.1333 32.4296 26.7821ZM27.7139 28.1149L27.481 30.8237L27.9393 31.2601L28.3976 30.8237L28.1647 28.1149H27.7139ZM28.8559 25.7277C28.6209 25.7277 28.3705 25.7277 28.1184 25.7277C27.7506 25.7315 27.3733 25.7366 27.0285 25.7459L27.4789 27.1952L27.5133 27.2115C27.5491 27.223 27.5869 27.2284 27.6247 27.2275H28.2525C28.2905 27.2284 28.3283 27.2229 28.3643 27.2115C28.3756 27.2061 28.3873 27.2006 28.4007 27.1952L28.8559 25.7277ZM9.62164 28.1149L9.38872 30.8237L9.84701 31.2601L10.3053 30.8237L10.0724 28.1149H9.62164ZM10.7732 25.6918C10.4864 25.6883 10.1763 25.6848 9.86622 25.6864C9.54274 25.6864 9.21926 25.6883 8.91876 25.6937L9.38495 27.1977C9.39579 27.2014 9.40614 27.2063 9.41582 27.2121C9.45369 27.2236 9.49335 27.229 9.53314 27.2281H10.1609C10.2001 27.2291 10.2392 27.2237 10.2765 27.2121C10.2861 27.2067 10.2974 27.2013 10.3074 27.1958L10.7732 25.6918ZM13.3243 27C13.5312 26.8228 13.7513 26.6595 13.983 26.5113C13.3315 26.0625 12.5681 25.7761 11.7649 25.6793L11.2092 27.463C11.1701 27.5914 11.0974 27.7086 10.9975 27.8041L11.2689 30.9549C11.2744 31.0227 11.2632 31.0908 11.2361 31.154C11.2091 31.2171 11.1669 31.2737 11.1128 31.3193L10.1828 32.2016C10.0947 32.2851 9.97462 32.3325 9.84901 32.3334C9.72339 32.3344 9.60251 32.2888 9.5129 32.2067L8.55789 31.2998C8.51045 31.2545 8.47389 31.2004 8.45064 31.1409C8.4274 31.0814 8.418 31.018 8.42308 30.9549L8.6927 27.8041C8.59338 27.7082 8.52061 27.5911 8.48071 27.463L7.92637 25.6774C6.96886 25.7928 6.07197 26.1782 5.35567 26.7821C4.93372 27.1332 4.59515 27.5628 4.36169 28.0433C4.12822 28.5237 4.00503 29.0443 4 29.5718V33.0598C3.99982 33.1181 4.01201 33.1759 4.03586 33.2298C4.05971 33.2837 4.09475 33.3327 4.13897 33.3739C4.1832 33.4152 4.23572 33.4478 4.29353 33.47C4.35133 33.4922 4.41327 33.5036 4.47579 33.5033H6.04311V29.7913C6.04644 29.6757 6.09801 29.5659 6.18684 29.4852C6.27567 29.4046 6.39475 29.3594 6.51873 29.3594C6.6427 29.3594 6.76178 29.4046 6.85061 29.4852C6.93945 29.5659 6.99102 29.6757 6.99434 29.7913V33.4157H11.532V30.7014C11.5371 30.0019 11.6993 29.3111 12.008 28.6736C12.3167 28.0361 12.7651 27.466 13.3243 27ZM23.8212 27.6537C23.0234 26.9801 22.0202 26.5555 20.9514 26.439L20.3545 28.359C20.3102 28.5008 20.2275 28.6295 20.1144 28.7328L20.4166 32.2355C20.4219 32.3033 20.4106 32.3714 20.3836 32.4345C20.3566 32.4977 20.3145 32.5543 20.2605 32.6L19.2314 33.5773C19.1433 33.6608 19.0232 33.7083 18.8976 33.7093C18.772 33.7103 18.6511 33.6648 18.5614 33.5827L17.508 32.5801C17.4603 32.5351 17.4236 32.481 17.4004 32.4215C17.3771 32.3621 17.368 32.2986 17.3735 32.2355H17.3701L17.6723 28.7328C17.5586 28.6299 17.4758 28.5011 17.4322 28.359L16.8353 26.439C15.766 26.5556 14.7623 26.9807 13.9644 27.655C13.5028 28.0383 13.1324 28.5075 12.8769 29.0325C12.6215 29.5575 12.4868 30.1265 12.4815 30.703V34.5565C12.4813 34.6149 12.4936 34.6728 12.5175 34.7268C12.5414 34.7808 12.5766 34.8298 12.621 34.871C12.6653 34.9123 12.718 34.9449 12.776 34.967C12.8339 34.9892 12.896 35.0004 12.9587 35H14.7424V30.9459C14.7407 30.8866 14.7518 30.8276 14.7749 30.7724C14.7981 30.7172 14.8328 30.6669 14.8771 30.6244C14.9215 30.5819 14.9745 30.5481 15.033 30.5251C15.0916 30.502 15.1545 30.4901 15.2181 30.4901C15.2816 30.4901 15.3445 30.502 15.4031 30.5251C15.4616 30.5481 15.5146 30.5819 15.559 30.6244C15.6033 30.6669 15.6381 30.7172 15.6612 30.7724C15.6843 30.8276 15.6954 30.8866 15.6937 30.9459V35H22.0933V30.9459C22.0916 30.8866 22.1026 30.8276 22.1258 30.7724C22.1489 30.7172 22.1837 30.6669 22.228 30.6244C22.2723 30.5819 22.3254 30.5481 22.3839 30.5251C22.4425 30.502 22.5054 30.4901 22.5689 30.4901C22.6325 30.4901 22.6954 30.502 22.754 30.5251C22.8125 30.5481 22.8655 30.5819 22.9099 30.6244C22.9542 30.6669 22.9889 30.7172 23.0121 30.7724C23.0352 30.8276 23.0463 30.8866 23.0445 30.9459V35H24.8283C24.8908 35 24.9527 34.9886 25.0104 34.9663C25.0681 34.944 25.1206 34.9114 25.1647 34.8702C25.2089 34.829 25.244 34.7801 25.2679 34.7263C25.2918 34.6724 25.3041 34.6147 25.3041 34.5565V30.7014C25.2987 30.1249 25.1639 29.5558 24.9084 29.0308C24.6528 28.5059 24.2823 28.0367 23.8205 27.6534L23.8212 27.6537ZM17.8129 26.4032L18.3443 28.1097C18.3643 28.1172 18.3836 28.1261 18.4019 28.1366C18.449 28.1519 18.4986 28.1591 18.5484 28.1581H19.2413C19.2911 28.1591 19.3408 28.1519 19.3878 28.1366C19.406 28.1258 19.4253 28.1168 19.4454 28.1097L19.9751 26.4032H17.8129ZM18.5985 29.0454L18.3347 32.1027L18.8932 32.6342L19.4516 32.1027L19.1878 29.0454H18.5985ZM22.1568 22.4982C22.157 21.8958 21.9657 21.3069 21.607 20.8059C21.2484 20.3049 20.7385 19.9144 20.1419 19.6838C19.5454 19.4532 18.8889 19.3928 18.2555 19.5103C17.6221 19.6278 17.0403 19.9178 16.5837 20.3438C16.127 20.7698 15.8161 21.3125 15.6902 21.9034C15.5642 22.4942 15.629 23.1066 15.8762 23.6631C16.1234 24.2197 16.542 24.6953 17.079 25.0299C17.6161 25.3644 18.2474 25.5429 18.8932 25.5427C19.7582 25.541 20.5872 25.2197 21.1989 24.6491C21.8105 24.0785 22.155 23.3051 22.1568 22.4982Z" fill="#016BE3"/>
</svg>
