<svg width="37" height="37" viewBox="0 0 37 37" fill="none" xmlns="http://www.w3.org/2000/svg">
<path d="M10.2404 6.14976C10.2785 6.1203 10.306 6.07932 10.3189 6.03293C10.3318 5.98654 10.3294 5.93722 10.312 5.89232C10.3003 5.86187 10.2786 5.83631 10.2505 5.81987C10.2223 5.80342 10.1894 5.79706 10.1572 5.80184L7.1613 5.89839C7.09297 5.90032 7.02791 5.92809 6.97924 5.97609C6.93056 6.02409 6.90189 6.08875 6.899 6.15705L6.80124 9.16082C6.79779 9.19251 6.80483 9.22446 6.82128 9.25177C6.83774 9.27908 6.86269 9.30024 6.89232 9.31201C6.93658 9.32968 6.98539 9.33249 7.03139 9.32C7.07739 9.30752 7.11808 9.28042 7.14734 9.24279L7.83589 8.55424C7.94976 8.44041 8.10417 8.37646 8.26517 8.37646C8.42618 8.37646 8.58059 8.44041 8.69446 8.55424L10.0078 9.86759C10.2802 9.56642 10.5668 9.27983 10.8676 9.00781L9.55424 7.69446C9.44041 7.58059 9.37646 7.42618 9.37646 7.26517C9.37646 7.10417 9.44041 6.94975 9.55424 6.83589L10.2404 6.14976Z" fill="#016BE3"/>
<path d="M27.133 9.00786C27.4341 9.28028 27.7207 9.56688 27.9927 9.86764L29.3061 8.55429C29.42 8.44045 29.5744 8.37651 29.7354 8.37651C29.8964 8.37651 30.0508 8.44045 30.1647 8.55429L30.8508 9.24041C30.88 9.27882 30.921 9.30661 30.9675 9.31955C31.0139 9.33249 31.0634 9.32986 31.1082 9.31206C31.1384 9.29994 31.1636 9.27815 31.18 9.25012C31.1964 9.22209 31.2029 9.18941 31.1987 9.15722L31.1022 6.16013C31.1002 6.0918 31.0725 6.02674 31.0245 5.97807C30.9765 5.92939 30.9118 5.90072 30.8435 5.89783L27.8397 5.80007C27.8077 5.79343 27.7743 5.79912 27.7463 5.816C27.7183 5.83288 27.6976 5.85972 27.6885 5.89115C27.6711 5.93544 27.6684 5.98419 27.6808 6.03014C27.6933 6.07609 27.7203 6.11679 27.7578 6.14617L28.4463 6.83472C28.5601 6.94859 28.6241 7.103 28.6241 7.26401C28.6241 7.42501 28.5601 7.57942 28.4463 7.69329L27.133 9.00786Z" fill="#016BE3"/>
<path d="M33.7046 20.4161C33.7353 20.4282 33.769 20.43 33.8008 20.4213C33.8325 20.4125 33.8606 20.3936 33.8807 20.3675L35.9294 18.1859C35.9752 18.1351 36.0006 18.0691 36.0006 18.0007C36.0006 17.9323 35.9752 17.8663 35.9294 17.8155L33.8765 15.6321C33.8563 15.607 33.8285 15.5891 33.7974 15.581C33.7662 15.5729 33.7332 15.575 33.7034 15.5871C33.6607 15.6066 33.6251 15.639 33.6017 15.6797C33.5783 15.7205 33.5682 15.7675 33.5729 15.8142V16.7857C33.5729 16.9468 33.5089 17.1012 33.395 17.2151C33.2811 17.3289 33.1267 17.3929 32.9657 17.3929H31.1131C31.1235 17.5951 31.1441 17.7949 31.1441 18.0001C31.1441 18.2053 31.1235 18.4051 31.1131 18.6073H32.9657C33.1267 18.6073 33.2811 18.6713 33.395 18.7851C33.5089 18.899 33.5729 19.0534 33.5729 19.2145V20.186C33.5677 20.2333 33.5776 20.2811 33.6013 20.3225C33.625 20.3638 33.6611 20.3966 33.7046 20.4161Z" fill="#016BE3" fill-opacity="0.58"/>
<path d="M4.29594 15.5841C4.2653 15.572 4.23154 15.5702 4.19978 15.579C4.16801 15.5877 4.13996 15.6066 4.11986 15.6327L2.0712 17.8143C2.02533 17.8651 1.99994 17.9311 1.99994 17.9995C1.99994 18.0679 2.02533 18.1339 2.0712 18.1847L4.12472 20.3706C4.14492 20.3957 4.17265 20.4136 4.20381 20.4217C4.23498 20.4298 4.26792 20.4276 4.29777 20.4155C4.3408 20.3958 4.37651 20.363 4.39984 20.3218C4.42316 20.2806 4.43291 20.2331 4.4277 20.186V19.2145C4.4277 19.0535 4.49168 18.899 4.60555 18.7852C4.71942 18.6713 4.87386 18.6073 5.03489 18.6073H6.88743C6.87711 18.4051 6.85646 18.2054 6.85646 18.0001C6.85646 17.7949 6.87711 17.5951 6.88743 17.3929H5.03489C4.87386 17.3929 4.71942 17.329 4.60555 17.2151C4.49168 17.1012 4.4277 16.9468 4.4277 16.7857V15.8142C4.4329 15.7669 4.42295 15.7191 4.39927 15.6777C4.3756 15.6364 4.33942 15.6036 4.29594 15.5841Z" fill="#016BE3" fill-opacity="0.58"/>
<path d="M22.6434 10.7139C22.6434 10.3918 22.5155 10.0829 22.2877 9.8552C22.06 9.62746 21.7511 9.49951 21.429 9.49951H16.5715C16.2494 9.49951 15.9405 9.62746 15.7128 9.8552C15.4851 10.0829 15.3571 10.3918 15.3571 10.7139V11.3211H22.6434V10.7139Z" fill="#016BE3"/>
<path d="M21.1862 32.5725H20.2147C20.0536 32.5725 19.8992 32.5085 19.7853 32.3947C19.6714 32.2808 19.6075 32.1264 19.6075 31.9653V30.1128C19.4053 30.1231 19.2055 30.1438 19.0003 30.1438C18.7951 30.1438 18.5953 30.1231 18.3931 30.1128V31.9653C18.3931 32.1264 18.3291 32.2808 18.2152 32.3947C18.1014 32.5085 17.9469 32.5725 17.7859 32.5725H16.8144C16.767 32.5673 16.7192 32.5773 16.6779 32.601C16.6365 32.6246 16.6038 32.6608 16.5843 32.7043C16.5721 32.7349 16.5702 32.7687 16.579 32.8005C16.5877 32.8323 16.6067 32.8603 16.6328 32.8804L18.8145 34.929C18.8654 34.9746 18.9313 34.9999 18.9997 34.9999C19.068 34.9999 19.134 34.9746 19.1849 34.929L21.3708 32.8755C21.3959 32.8554 21.4139 32.8276 21.422 32.7964C21.4301 32.7653 21.4279 32.7323 21.4157 32.7025C21.3959 32.6594 21.3631 32.6237 21.3219 32.6004C21.2807 32.5771 21.2332 32.5673 21.1862 32.5725Z" fill="#016BE3" fill-opacity="0.58"/>
<path d="M10.8676 26.9928C10.5664 26.72 10.2798 26.4334 10.0078 26.1331L8.69443 27.4464C8.58056 27.5602 8.42615 27.6242 8.26514 27.6242C8.10414 27.6242 7.94973 27.5602 7.83586 27.4464L7.14974 26.7603C7.12034 26.7221 7.07936 26.6945 7.03294 26.6816C6.98653 26.6687 6.93718 26.6711 6.89229 26.6886C6.86217 26.7008 6.83693 26.7225 6.82056 26.7506C6.80418 26.7786 6.79758 26.8113 6.80182 26.8435L6.89836 29.8393C6.9003 29.9077 6.92806 29.9727 6.97606 30.0214C7.02406 30.0701 7.08872 30.0988 7.15702 30.1017L10.1608 30.1994C10.2039 30.1909 10.2774 30.1921 10.312 30.1083C10.3295 30.064 10.3322 30.0153 10.3197 29.9693C10.3072 29.9234 10.2802 29.8827 10.2428 29.8533L9.55421 29.1648C9.44038 29.0509 9.37643 28.8965 9.37643 28.7355C9.37643 28.5745 9.44038 28.4201 9.55421 28.3062L10.8676 26.9928Z" fill="#016BE3"/>
<path d="M27.7602 29.8509C27.7221 29.8803 27.6946 29.9213 27.6816 29.9677C27.6687 30.0141 27.6711 30.0634 27.6885 30.1083C27.7007 30.1384 27.7226 30.1636 27.7506 30.1799C27.7786 30.1963 27.8112 30.2029 27.8434 30.1988L30.8393 30.1023C30.9076 30.1003 30.9726 30.0726 31.0213 30.0246C31.07 29.9766 31.0987 29.9119 31.1016 29.8436L31.1993 26.8398C31.2028 26.8081 31.1957 26.7762 31.1793 26.7489C31.1628 26.7216 31.1379 26.7004 31.1082 26.6886C31.0639 26.6714 31.0152 26.6688 30.9693 26.6812C30.9234 26.6937 30.8827 26.7205 30.8532 26.7579L30.1647 27.4464C30.0508 27.5602 29.8964 27.6242 29.7354 27.6242C29.5744 27.6242 29.42 27.5602 29.3061 27.4464L27.9927 26.1331C27.7199 26.4342 27.4333 26.7208 27.133 26.9928L28.4463 28.3062C28.5601 28.4201 28.6241 28.5745 28.6241 28.7355C28.6241 28.8965 28.5601 29.0509 28.4463 29.1648L27.7602 29.8509Z" fill="#016BE3"/>
<path d="M25.0721 12.5354H12.9283C12.2577 12.5354 11.714 13.0791 11.714 13.7498V16.1785C11.714 16.8492 12.2577 17.3929 12.9283 17.3929H25.0721C25.7428 17.3929 26.2865 16.8492 26.2865 16.1785V13.7498C26.2865 13.0791 25.7428 12.5354 25.0721 12.5354Z" fill="#016BE3"/>
<path d="M29.9297 18C29.9297 15.8383 29.2887 13.7253 28.0877 11.9279C26.8868 10.1306 25.1799 8.72974 23.1828 7.90251C21.1857 7.07529 18.9881 6.85885 16.868 7.28057C14.7479 7.70228 12.8005 8.74321 11.272 10.2717C9.74348 11.8002 8.70256 13.7477 8.28084 15.8678C7.85913 17.9879 8.07557 20.1854 8.90279 22.1825C9.73001 24.1796 11.1309 25.8865 12.9282 27.0875C14.7255 28.2884 16.8386 28.9294 19.0003 28.9294C21.8979 28.926 24.6759 27.7735 26.7248 25.7245C28.7737 23.6756 29.9263 20.8976 29.9297 18ZM12.9284 25.2863C12.2842 25.2863 11.6664 25.0304 11.211 24.5749C10.7555 24.1194 10.4996 23.5017 10.4996 22.8575V13.7497C10.4996 13.1055 10.7555 12.4877 11.211 12.0323C11.6664 11.5768 12.2842 11.3209 12.9284 11.3209H14.1427V10.7137C14.1427 10.0696 14.3986 9.45179 14.8541 8.99631C15.3096 8.54083 15.9274 8.28494 16.5715 8.28494H21.429C22.0732 8.28494 22.6909 8.54083 23.1464 8.99631C23.6019 9.45179 23.8578 10.0696 23.8578 10.7137V11.3209H25.0722C25.7163 11.3209 26.3341 11.5768 26.7896 12.0323C27.245 12.4877 27.5009 13.1055 27.5009 13.7497V22.8575C27.5009 23.5017 27.245 24.1194 26.7896 24.5749C26.3341 25.0304 25.7163 25.2863 25.0722 25.2863H12.9284Z" fill="#016BE3" fill-opacity="0.58"/>
<path d="M19.0003 5.85632C19.2055 5.85632 19.4053 5.87696 19.6075 5.88728V4.03475C19.6075 3.87371 19.6714 3.71927 19.7853 3.6054C19.8992 3.49153 20.0536 3.42756 20.2147 3.42756H21.1862C21.2335 3.43275 21.2813 3.4228 21.3227 3.39912C21.364 3.37545 21.3968 3.33927 21.4163 3.29579C21.4285 3.26516 21.4304 3.23138 21.4216 3.19959C21.4128 3.1678 21.3939 3.13975 21.3677 3.11971L19.1861 1.07105C19.1352 1.02531 19.0693 1 19.0009 1C18.9325 1 18.8665 1.02531 18.8157 1.07105L16.6322 3.12396C16.6071 3.1441 16.5891 3.17183 16.581 3.20302C16.5729 3.23421 16.5751 3.26718 16.5873 3.29701C16.6068 3.33973 16.6392 3.37527 16.6799 3.39868C16.7206 3.42209 16.7677 3.43218 16.8144 3.42756H17.7859C17.9469 3.42756 18.1014 3.49153 18.2153 3.6054C18.3291 3.71927 18.3931 3.87371 18.3931 4.03475V5.88728C18.5953 5.87696 18.7951 5.85632 19.0003 5.85632Z" fill="#016BE3" fill-opacity="0.58"/>
<path d="M21.429 18.6074V19.2146C21.429 19.6977 21.2371 20.161 20.8955 20.5026C20.5539 20.8442 20.0905 21.0361 19.6074 21.0361H18.3931C17.9099 21.0361 17.4466 20.8442 17.105 20.5026C16.7634 20.161 16.5715 19.6977 16.5715 19.2146V18.6074H12.9283C12.5007 18.6049 12.0815 18.4883 11.714 18.2698V22.8577C11.714 23.1798 11.8419 23.4887 12.0696 23.7164C12.2974 23.9441 12.6063 24.0721 12.9283 24.0721H25.0721C25.3942 24.0721 25.7031 23.9441 25.9308 23.7164C26.1586 23.4887 26.2865 23.1798 26.2865 22.8577V18.2698C25.919 18.4883 25.4998 18.6049 25.0721 18.6074H21.429Z" fill="#016BE3"/>
<path d="M19.6075 19.8216C19.7685 19.8216 19.923 19.7576 20.0368 19.6437C20.1507 19.5298 20.2147 19.3754 20.2147 19.2144V18.6072H17.7859V19.2144C17.7859 19.3754 17.8499 19.5298 17.9638 19.6437C18.0776 19.7576 18.2321 19.8216 18.3931 19.8216H19.6075Z" fill="#016BE3"/>
</svg>
