<svg width="37" height="37" viewBox="0 0 37 37" fill="none" xmlns="http://www.w3.org/2000/svg">
<path d="M18.7592 24.2231C17.1416 25.1469 18.3306 27.7783 20.2747 26.8798C22.0309 26.0681 20.382 23.2974 18.7592 24.2231Z" fill="#016BE3" fill-opacity="0.58"/>
<path d="M9.64188 24.2231C8.02429 25.1469 9.21328 27.7783 11.1574 26.8798C12.9136 26.0681 11.2647 23.2974 9.64188 24.2231Z" fill="#016BE3"/>
<path d="M22.3345 28.4992C21.6841 28.0521 21.3468 27.9708 21.2689 27.9319C21.0107 29.2879 18.5945 29.8361 17.8701 28.0503C16.5725 28.5547 15.6153 29.5441 15.147 30.9065C15.3704 31.7985 17.5715 33.3217 20.159 32.9389C21.6044 32.7219 22.8425 31.9622 23.543 30.9706V30.9657C23.6812 30.7832 23.7946 30.5859 23.8834 30.3886C23.8637 30.3392 23.839 30.2948 23.8144 30.2455C23.4445 29.4633 22.9305 28.9759 22.3345 28.4992Z" fill="#016BE3" fill-opacity="0.58"/>
<path d="M28.2357 24.2231C26.6181 25.1469 27.8071 27.7783 29.7512 26.8798C31.5074 26.0681 29.8585 23.2974 28.2357 24.2231Z" fill="#016BE3"/>
<path d="M31.88 28.5535C31.5974 28.2713 30.7948 27.9566 30.7454 27.9319C30.4871 29.2879 28.071 29.8361 27.3465 28.0503C25.916 28.6064 25.038 29.7005 24.6235 30.9065C24.8468 31.7985 27.0479 33.3217 29.6354 32.9389C31.0808 32.7219 32.319 31.9622 33.0195 30.9706V30.9657C33.1576 30.7832 33.2711 30.5859 33.3599 30.3886C33.1332 29.8222 32.6191 29.118 31.88 28.5535Z" fill="#016BE3"/>
<path d="M13.2132 28.4992C12.5671 28.048 12.2371 27.9741 12.1526 27.9319C11.8944 29.2879 9.4783 29.8361 8.75377 28.0503C7.48156 28.5449 6.50831 29.5171 6.03076 30.9065C6.249 31.7798 8.4315 33.3256 11.0378 32.9389C12.4881 32.7219 13.7263 31.9572 14.4267 30.9657C14.4169 30.946 14.412 30.9262 14.407 30.9065C14.4944 30.6522 14.6509 30.337 14.6931 30.2455C14.3285 29.4615 13.8179 28.9828 13.2132 28.4992Z" fill="#016BE3"/>
<path d="M18.7304 13.1312C22.2405 16.6429 24.4707 6.78453 23.1207 4.5872C22.5831 3.72392 21.6803 3.1517 20.6296 3.02837C19.7959 2.92477 18.9474 3.10729 18.2075 3.53646C16.8854 4.31095 16.2639 6.05232 16.4118 8.57309C16.4118 10.4946 17.3779 11.8257 18.7304 13.1312ZM17.9805 6.15589C19.7019 6.80188 21.203 6.62002 22.1144 6.1263C22.3892 6.72592 22.5627 7.6981 22.3759 8.88881C22.0368 11.0415 21.296 11.8719 21.2709 11.9473C21.2215 11.9968 20.7286 12.8055 20.1313 12.8599C20.1209 12.8599 20.119 12.8599 20.1116 12.8599C19.8287 12.8599 19.5469 12.6076 18.9671 11.967C18.9255 11.8837 19.0807 12.1297 18.4689 11.4046C18.4344 11.2961 18.3604 11.2073 18.2667 11.1481C17.6896 10.379 17.4332 9.42348 17.4034 8.58787C17.6269 7.88375 17.7237 6.86213 17.9805 6.15589Z" fill="#016BE3"/>
<path d="M16.1751 19.2681C17.2913 19.8584 18.9065 20.3237 20.1363 20.3237C21.5357 20.3237 22.3823 19.7686 23.55 19.051C24.4277 18.501 26.1093 18.289 26.791 17.4675C27.7965 16.2301 26.0373 15.5112 23.1011 12.7219C22.3759 13.9453 21.3844 14.8185 20.1561 14.8185C18.9013 14.8102 18.0293 13.927 17.142 12.8946C15.5009 14.5344 13.6157 14.5335 13.4077 15.1342C12.9355 16.5047 14.7372 18.5072 16.1751 19.2681Z" fill="#016BE3"/>
<path d="M27.6187 11.8687L28.5408 11.5175C28.3275 10.9664 28.015 10.2037 27.9436 9.61927C29.6732 10.7852 31.0251 12.5533 31.6701 14.5344C32.3528 16.6271 32.268 18.997 31.4379 21.0364L32.3513 21.4083C33.2681 19.1564 33.362 16.5394 32.6086 14.2285C31.9534 12.2185 30.6433 10.4007 28.953 9.11986C29.5724 9.18759 30.1501 9.33024 30.75 9.40168L30.8666 8.42182C30.0237 8.32197 29.0281 8.02799 28.0744 8.1176C27.3667 8.18372 27.0513 8.17514 26.9722 8.96618C27.0132 9.22209 26.6178 9.29695 27.6187 11.8687Z" fill="#016BE3" fill-opacity="0.58"/>
<path d="M7.62356 21.1408C7.81577 20.8909 8.54738 20.9807 9.72057 17.957L8.80045 17.6C8.60625 18.1006 8.32576 18.8205 7.96924 19.3943C7.47021 17.3744 7.65117 15.1624 8.49599 13.2638C9.3901 11.2526 11.0396 9.54914 13.0219 8.59048L12.5922 7.70215C10.4032 8.76101 8.58174 10.642 7.59417 12.863C6.73803 14.7887 6.49364 17.008 6.88598 19.0855C6.46308 18.5826 6.12124 18.126 5.74284 17.693L5 18.3423C5.20811 18.5801 5.4143 18.8381 5.62337 19.0994C7.10066 20.9436 7.31344 20.8492 7.62356 21.1408Z" fill="#016BE3" fill-opacity="0.58"/>
</svg>
