<svg width="19" height="14" viewBox="0 0 19 14" fill="none" xmlns="http://www.w3.org/2000/svg">
<path d="M0.959595 8.00196L15.5455 8.00196L10.8914 12.2763C10.5076 12.6242 10.4596 13.2703 10.7955 13.6679C11.1313 14.0655 11.7551 14.1153 12.1389 13.7673L18.6641 7.75345C18.8561 7.55464 19 7.30613 19 7.00793C19 6.70972 18.904 6.46121 18.6641 6.2624L12.1869 0.248508C11.9949 0.0994032 11.7551 0 11.5631 0C11.2753 0 11.0354 0.0994036 10.8434 0.347912C10.5076 0.745524 10.5076 1.39164 10.9394 1.73956L15.5455 6.01389L0.959595 6.01389C0.431818 6.01389 0 6.46121 0 7.00793C0 7.55464 0.431818 8.00196 0.959595 8.00196Z" fill="#016BE3"/>
</svg>
