<svg width="30" height="30" viewBox="0 0 30 30" fill="none" xmlns="http://www.w3.org/2000/svg">
<path d="M8.57171 1.60714C8.57171 2.49464 7.85208 3.21427 6.96456 3.21427C6.07705 3.21427 5.35742 2.49464 5.35742 1.60714C5.35742 0.71963 6.07705 0 6.96456 0C7.85208 0 8.57171 0.71963 8.57171 1.60714Z" fill="#FFB81D"/>
<path d="M15.5918 2.64271H16.2043L16.0817 2.04261C16.0229 1.75519 16.0229 1.45879 16.0817 1.17139L16.2043 0.571289H15.5918H9.5918H8.9793L9.10192 1.17139C9.16065 1.45881 9.16065 1.75522 9.10192 2.04261L8.97929 2.64271H9.5918H15.5918Z" fill="#FFB81D" stroke="#FFB81D"/>
<path d="M27.8571 25.7144H2.14283C1.37728 25.7144 0.669827 26.1228 0.28699 26.7858C-0.0956633 27.4487 -0.0956633 28.2657 0.28699 28.9286C0.669882 29.5916 1.37734 30.0001 2.14283 30.0001H27.8571C28.6227 30.0001 29.3301 29.5916 29.7129 28.9286C30.0956 28.2657 30.0956 27.4487 29.7129 26.7858C29.3301 26.1228 28.6226 25.7144 27.8571 25.7144ZM2.67854 29.4643C2.25236 29.4643 1.84338 29.295 1.54209 28.9937C1.24081 28.6923 1.07143 28.2834 1.07143 27.8572C1.07143 27.4311 1.24075 27.0221 1.54209 26.7208C1.84343 26.4195 2.25242 26.2501 2.67854 26.2501C3.10466 26.2501 3.5137 26.4195 3.81499 26.7208C4.11627 27.0221 4.28565 27.4311 4.28565 27.8572C4.28565 28.2834 4.11633 28.6924 3.81499 28.9937C3.51365 29.295 3.10466 29.4643 2.67854 29.4643ZM6.42854 28.3929H4.8214V27.3215H6.42854V28.3929ZM8.5714 29.4643C8.14522 29.4643 7.73623 29.295 7.43495 28.9937C7.13366 28.6923 6.96429 28.2834 6.96429 27.8572C6.96429 27.4311 7.13361 27.0221 7.43495 26.7208C7.73629 26.4195 8.14528 26.2501 8.5714 26.2501C8.99752 26.2501 9.40656 26.4195 9.70785 26.7208C10.0091 27.0221 10.1785 27.4311 10.1785 27.8572C10.1785 28.2834 10.0092 28.6924 9.70785 28.9937C9.40651 29.295 8.99752 29.4643 8.5714 29.4643ZM12.8571 28.3929H10.7143V27.3215H12.8571V28.3929ZM15 29.4643C14.5738 29.4643 14.1648 29.295 13.8635 28.9937C13.5622 28.6923 13.3929 28.2834 13.3929 27.8572C13.3929 27.4311 13.5622 27.0221 13.8635 26.7208C14.1649 26.4195 14.5738 26.2501 15 26.2501C15.4261 26.2501 15.8351 26.4195 16.1364 26.7208C16.4377 27.0221 16.6071 27.4311 16.6071 27.8572C16.6071 28.2834 16.4378 28.6924 16.1364 28.9937C15.8351 29.295 15.4261 29.4643 15 29.4643ZM19.2857 28.3929H17.1428V27.3215H19.2857V28.3929ZM21.4285 29.4643C21.0024 29.4643 20.5934 29.295 20.2921 28.9937C19.9908 28.6923 19.8214 28.2834 19.8214 27.8572C19.8214 27.4311 19.9907 27.0221 20.2921 26.7208C20.5934 26.4195 21.0024 26.2501 21.4285 26.2501C21.8547 26.2501 22.2637 26.4195 22.565 26.7208C22.8663 27.0221 23.0357 27.4311 23.0357 27.8572C23.0357 28.2834 22.8663 28.6924 22.565 28.9937C22.2636 29.295 21.8547 29.4643 21.4285 29.4643ZM25.1785 28.3929H23.5714V27.3215H25.1785V28.3929ZM27.3214 29.4643C26.8952 29.4643 26.4862 29.295 26.1849 28.9937C25.8837 28.6923 25.7143 28.2834 25.7143 27.8572C25.7143 27.4311 25.8836 27.0221 26.1849 26.7208C26.4863 26.4195 26.8953 26.2501 27.3214 26.2501C27.7475 26.2501 28.1566 26.4195 28.4578 26.7208C28.7591 27.0221 28.9285 27.4311 28.9285 27.8572C28.9285 28.2834 28.7592 28.6924 28.4578 28.9937C28.1565 29.295 27.7475 29.4643 27.3214 29.4643Z" fill="#FFB81D"/>
<path d="M19.8217 1.60714C19.8217 2.49464 19.1021 3.21427 18.2146 3.21427C17.3271 3.21427 16.6074 2.49464 16.6074 1.60714C16.6074 0.71963 17.3271 0 18.2146 0C19.1021 0 19.8217 0.71963 19.8217 1.60714Z" fill="#FFB81D"/>
<path d="M3.21484 18.2144V24.6429H10.7148V18.2144H8.57199V21.4286C8.57294 21.6147 8.47728 21.7881 8.3192 21.8864C8.16112 21.9847 7.96333 21.994 7.79688 21.9108L6.96484 21.4918L6.1328 21.9079V21.9081C5.96682 21.9911 5.76952 21.9823 5.61167 21.8845C5.45359 21.7869 5.35769 21.6142 5.35769 21.4286V18.2144L3.21484 18.2144Z" fill="#FFB81D" fill-opacity="0.58"/>
<path d="M3.21401 27.857C3.21401 28.1528 2.97413 28.3927 2.67829 28.3927C2.38246 28.3927 2.14258 28.1528 2.14258 27.857C2.14258 27.5612 2.38246 27.3213 2.67829 27.3213C2.97413 27.3213 3.21401 27.5612 3.21401 27.857Z" fill="#FFB81D"/>
<path d="M7.20285 20.4134L7.49916 20.5617V18.2144H6.42773V20.5619L6.72405 20.4137V20.4134C6.87472 20.3381 7.05217 20.3381 7.20284 20.4134L7.20285 20.4134Z" fill="#FFB81D" fill-opacity="0.58"/>
<path d="M9.10658 27.857C9.10658 28.1528 8.86671 28.3927 8.57087 28.3927C8.27503 28.3927 8.03516 28.1528 8.03516 27.857C8.03516 27.5612 8.27503 27.3213 8.57087 27.3213C8.86671 27.3213 9.10658 27.5612 9.10658 27.857Z" fill="#FFB81D"/>
<path d="M21.964 27.857C21.964 28.1528 21.7241 28.3927 21.4283 28.3927C21.1325 28.3927 20.8926 28.1528 20.8926 27.857C20.8926 27.5612 21.1325 27.3213 21.4283 27.3213C21.7241 27.3213 21.964 27.5612 21.964 27.857Z" fill="#FFB81D"/>
<path d="M15.5363 27.857C15.5363 28.1528 15.2964 28.3927 15.0006 28.3927C14.7047 28.3927 14.4648 28.1528 14.4648 27.857C14.4648 27.5612 14.7047 27.3213 15.0006 27.3213C15.2964 27.3213 15.5363 27.5612 15.5363 27.857Z" fill="#FFB81D"/>
<path d="M27.8566 27.857C27.8566 28.1528 27.6167 28.3927 27.3209 28.3927C27.025 28.3927 26.7852 28.1528 26.7852 27.857C26.7852 27.5612 27.025 27.3213 27.3209 27.3213C27.6167 27.3213 27.8566 27.5612 27.8566 27.857Z" fill="#FFB81D"/>
<path d="M8.03544 9.64271C8.03544 10.2344 7.55569 10.7141 6.96401 10.7141C6.37233 10.7141 5.89258 10.2344 5.89258 9.64271C5.89258 9.05104 6.37233 8.57129 6.96401 8.57129C7.55569 8.57129 8.03544 9.05104 8.03544 9.64271Z" fill="#FFB81D" fill-opacity="0.58"/>
<path d="M27.3211 8.57129C26.6108 8.57129 25.9295 8.8535 25.427 9.35569C24.9248 9.85816 24.6426 10.5395 24.6426 11.2498C24.6426 11.9602 24.9248 12.6415 25.427 13.144C25.9295 13.6462 26.6108 13.9284 27.3211 13.9284C28.0315 13.9284 28.7128 13.6462 29.2153 13.144C29.7175 12.6415 29.9997 11.9602 29.9997 11.2498C29.9988 10.5398 29.7163 9.8589 29.2143 9.35667C28.7121 8.85468 28.0312 8.57227 27.3211 8.57129ZM27.3211 12.857C26.895 12.857 26.486 12.6877 26.1847 12.3863C25.8834 12.085 25.714 11.676 25.714 11.2499C25.714 10.8238 25.8834 10.4147 26.1847 10.1134C26.486 9.81215 26.895 9.64277 27.3211 9.64277C27.7473 9.64277 28.1563 9.8121 28.4576 10.1134C28.7589 10.4148 28.9283 10.8238 28.9283 11.2499C28.9283 11.676 28.7589 12.085 28.4576 12.3863C28.1563 12.6876 27.7473 12.857 27.3211 12.857Z" fill="#FFB81D"/>
<path d="M19.3654 3.44644L18.8294 3.77887L19.2753 4.22489L24.1675 9.11756L24.5431 9.4932L24.8954 9.09557C25.103 8.8612 25.3433 8.65779 25.609 8.49122L26.1407 8.15783L25.6969 7.71405L20.7636 2.78072L20.3433 2.3605L20.0012 2.84642C19.8315 3.0874 19.6154 3.29138 19.3654 3.44644Z" fill="#FFB81D" stroke="#FFB81D"/>
<path d="M22.5008 20.8931C22.5008 20.7511 22.4444 20.6148 22.3439 20.5143C22.2435 20.4139 22.1072 20.3574 21.9651 20.3574H16.608C16.3121 20.3574 16.0723 20.5973 16.0723 20.8931V24.6431H22.5008V20.8931ZM19.2866 24.1074C18.8604 24.1074 18.4514 23.9381 18.1501 23.6367C17.8488 23.3354 17.6794 22.9264 17.6794 22.5003C17.6794 22.0742 17.8488 21.6651 18.1501 21.3639C18.4514 21.0626 18.8604 20.8932 19.2866 20.8932C19.7127 20.8932 20.1217 21.0625 20.423 21.3639C20.7243 21.6652 20.8937 22.0742 20.8937 22.5003C20.8937 22.9264 20.7243 23.3355 20.423 23.6367C20.1217 23.938 19.7127 24.1074 19.2866 24.1074Z" fill="#FFB81D"/>
<path d="M27.8566 11.2501C27.8566 11.5459 27.6167 11.7858 27.3209 11.7858C27.025 11.7858 26.7852 11.5459 26.7852 11.2501C26.7852 10.9542 27.025 10.7144 27.3209 10.7144C27.6167 10.7144 27.8566 10.9542 27.8566 11.2501Z" fill="#FFB81D"/>
<path d="M7.49916 7.57582V4.23193C7.14569 4.30416 6.78118 4.30416 6.42773 4.23193V7.57631C6.77762 7.47491 7.14927 7.47491 7.49916 7.57631V7.57582Z" fill="#FFB81D"/>
<path d="M24.05 13.2718L18.109 19.2144L17.9383 19.3851H18.1797H21.2074H21.2488L21.2781 19.3558L25.8853 14.7487L25.8322 14.6956L25.8552 14.5865C25.2285 14.3097 24.6922 13.863 24.3067 13.2979L24.4194 13.1852H24.178H24.178H23.9937L24.05 13.2718Z" fill="#FFB81D" stroke="#FFB81D" stroke-width="0.2"/>
<path d="M19.8214 22.5001C19.8214 22.7959 19.5816 23.0358 19.2857 23.0358C18.9899 23.0358 18.75 22.7959 18.75 22.5001C18.75 22.2042 18.9899 21.9644 19.2857 21.9644C19.5816 21.9644 19.8214 22.2042 19.8214 22.5001Z" fill="#FFB81D"/>
<path d="M12.7394 11.9869L10.5965 9.30831C10.4949 9.18132 10.3409 9.10742 10.1782 9.10742H9.03125C9.13193 9.45755 9.13193 9.8287 9.03125 10.1788H9.92115L11.6584 12.3507L9.72982 15.2387C9.56576 15.4848 9.632 15.8175 9.87834 15.9818C10.1244 16.1459 10.4571 16.0794 10.6212 15.8333L12.764 12.619C12.8946 12.4255 12.8846 12.1699 12.7394 11.9869L12.7394 11.9869Z" fill="#FFB81D" fill-opacity="0.58"/>
<path d="M4.89797 9.10748H3.75099C3.58836 9.10748 3.43434 9.18138 3.3327 9.30837L1.18984 11.9869C1.04396 12.1692 1.03272 12.4248 1.16234 12.619L3.3052 15.8333C3.4695 16.0794 3.80217 16.1459 4.04828 15.9818C4.29437 15.8175 4.36086 15.4848 4.1968 15.2387L2.26823 12.3507L4.0081 10.1788H4.898C4.79732 9.82872 4.79732 9.45756 4.898 9.10742L4.89797 9.10748Z" fill="#FFB81D" fill-opacity="0.58"/>
</svg>
