<svg width="30" height="30" viewBox="0 0 30 30" fill="none" xmlns="http://www.w3.org/2000/svg">
<path d="M30 24.0083V25.28C30 26.215 29.2936 27.0002 28.453 27.0002H1.54699C0.706125 27.0002 0 26.2147 0 25.28V24.0083H30Z" fill="#FFB81D" fill-opacity="0.58"/>
<path d="M28.15 7.0669V20.044C28.15 21.7268 26.9055 23.1106 25.3922 23.1106L20.7508 23.1103H4.7754C3.26205 23.1103 2.01758 21.7265 2.01758 20.0437V7.06664C2.01758 5.38383 3.26205 4 4.7754 4H25.3917C26.9052 3.99974 28.15 5.38382 28.15 7.0669ZM25.7619 19.8947V7.0669C25.7619 6.69285 25.5264 6.43119 25.1902 6.43119L14.9324 6.43093H4.80868C4.4723 6.43093 4.23699 6.73023 4.23699 7.06664V19.8945C4.23699 20.2685 4.50615 20.5302 4.80868 20.5302H9.81985C10.4924 18.81 11.5015 17.5383 12.5777 16.7531C12.9813 16.4164 13.3849 16.2295 13.7549 16.0426C14.1249 15.8931 14.5284 15.8184 14.8985 15.8184C15.3357 15.8184 15.7729 15.9305 16.2438 16.155C16.6474 16.3046 17.051 16.5665 17.4209 16.9029C18.4635 17.7258 19.4052 18.9598 20.0443 20.5679H25.19C25.5261 20.5679 25.7619 20.2688 25.7619 19.8947Z" fill="#FFB81D"/>
<path d="M14.9326 7.55273C16.7488 7.55273 18.2622 9.1982 18.2622 11.2551C18.2622 13.3119 16.7488 14.9574 14.9326 14.9574C13.1165 14.9574 11.6367 13.3119 11.6367 11.2551C11.6365 9.23581 13.0828 7.59034 14.9326 7.55273Z" fill="#FFB81D"/>
</svg>
