<svg width="42" height="42" viewBox="0 0 42 42" fill="none" xmlns="http://www.w3.org/2000/svg">
<path d="M39.9352 15.4003H34.4269V39.2008H31.6727V23.8005H26.1644V39.2008H23.4103V29.4006H17.902V39.2008H15.1478V33.6006H9.63952V39.2008H2.75415V0H0V42.0008H41.3122V39.2008H39.9352V15.4003Z" fill="#FFB81D"/>
<path d="M41.3107 7.00049H37.1795V8.40052H39.6487L37.5831 10.5006H35.0161C34.7084 9.29581 33.6391 8.40052 32.3597 8.40052C30.8409 8.40052 29.6056 9.65646 29.6056 11.2006C29.6056 11.9881 29.9292 12.6978 30.4457 13.2075L28.5282 16.1323C28.4289 16.1204 28.3312 16.1007 28.2285 16.1007C26.9492 16.1007 25.8798 16.996 25.5721 18.2007H22.6225C22.3148 16.996 21.2454 16.1007 19.9661 16.1007C18.4473 16.1007 17.2119 17.3566 17.2119 18.9008C17.2119 19.4511 17.3745 19.9614 17.645 20.3939L13.6997 25.5515C13.3084 25.3353 12.868 25.2009 12.3921 25.2009C11.1128 25.2009 10.0434 26.0962 9.73573 27.3009H6.19531V28.701H9.73573C10.0434 29.9057 11.1128 30.801 12.3921 30.801C13.9109 30.801 15.1463 29.5451 15.1463 28.0009C15.1463 27.4506 14.9837 26.9403 14.7132 26.5078L18.6585 21.3502C19.0498 21.5664 19.4902 21.7008 19.9661 21.7008C21.2454 21.7008 22.3148 20.8055 22.6225 19.6008H25.5721C25.8798 20.8055 26.9492 21.7008 28.2285 21.7008C29.7473 21.7008 30.9827 20.4449 30.9827 18.9008C30.9827 17.9732 30.5317 17.1558 29.846 16.646L31.65 13.895C31.8778 13.9565 32.1126 14.0006 32.3598 14.0006C33.6391 14.0006 34.7085 13.1053 35.0162 11.9006H37.8681C38.0507 11.9006 38.2262 11.8271 38.355 11.6956L40.6222 9.39024V11.9006H41.9993V7.70052C41.9993 7.31333 41.6907 7.00051 41.3107 7.00051L41.3107 7.00049ZM12.3921 29.4009C11.6326 29.4009 11.0151 28.7731 11.0151 28.0009C11.0151 27.2287 11.6326 26.6009 12.3921 26.6009C13.1517 26.6009 13.7692 27.2287 13.7692 28.0009C13.7692 28.7731 13.1517 29.4009 12.3921 29.4009ZM19.966 20.3007C19.2065 20.3007 18.589 19.6729 18.589 18.9007C18.589 18.1285 19.2065 17.5007 19.966 17.5007C20.7256 17.5007 21.3431 18.1285 21.3431 18.9007C21.3431 19.6729 20.7256 20.3007 19.966 20.3007ZM28.2285 20.3007C27.4689 20.3007 26.8514 19.6729 26.8514 18.9007C26.8514 18.1285 27.4689 17.5007 28.2285 17.5007C28.988 17.5007 29.6056 18.1285 29.6056 18.9007C29.6056 19.6729 28.988 20.3007 28.2285 20.3007ZM32.3597 12.6006C31.6002 12.6006 30.9826 11.9728 30.9826 11.2006C30.9826 10.4284 31.6002 9.80054 32.3597 9.80054C33.1193 9.80054 33.7368 10.4284 33.7368 11.2006C33.7368 11.9728 33.1193 12.6006 32.3597 12.6006Z" fill="#FFB81D" fill-opacity="0.58"/>
<path d="M13.0807 9.10024C12.9052 9.10024 12.7488 9.02805 12.6277 8.91837L12.6237 8.92337L7.22198 4.04199C6.57524 5.10793 6.19531 6.35828 6.19531 7.70022C6.19531 11.56 9.28421 14.7004 13.0807 14.7004C16.4057 14.7004 19.1874 12.2916 19.8271 9.10025L13.0807 9.10024Z" fill="#FFB81D" fill-opacity="0.58"/>
<path d="M8.06055 2.9262L12.3934 6.84156V0.73584C10.6886 0.908971 9.17047 1.72026 8.06055 2.9262Z" fill="#FFB81D" fill-opacity="0.58"/>
<path d="M13.7715 0.73584V7.70037H19.9683C19.9683 4.07718 17.2458 1.08809 13.7715 0.73584Z" fill="#FFB81D" fill-opacity="0.58"/>
</svg>
