<svg width="42" height="42" viewBox="0 0 42 42" fill="none" xmlns="http://www.w3.org/2000/svg">
<path d="M12 2.24991C12 3.49237 10.9925 4.49982 9.75 4.49982C8.50749 4.49982 7.5 3.49237 7.5 2.24991C7.5 1.00744 8.50749 0 9.75 0C10.9925 0 12 1.00744 12 2.24991Z" fill="#FFB81D"/>
<path d="M21.8278 3.50043H22.4403L22.3176 2.90033C22.23 2.47153 22.23 2.02935 22.3176 1.6006L22.4403 1.00049H21.8278H13.4277H12.8152L12.9379 1.60059C13.0255 2.02938 13.0255 2.47157 12.9379 2.90032L12.8152 3.50043H13.4277H21.8278Z" fill="#FFB81D" stroke="#FFB81D"/>
<path d="M39 36H2.99996C1.92819 36 0.937759 36.5719 0.401787 37.4999C-0.133929 38.428 -0.133929 39.5717 0.401787 40.4998C0.937836 41.4279 1.92827 41.9998 2.99996 41.9998H39C40.0718 41.9998 41.0622 41.4279 41.5982 40.4998C42.1339 39.5717 42.1339 38.428 41.5982 37.4999C41.0622 36.5719 40.0717 36 39 36ZM3.74996 41.2498C3.15331 41.2498 2.58073 41.0127 2.15893 40.5909C1.73713 40.169 1.5 39.5965 1.5 38.9999C1.5 38.4034 1.73705 37.8307 2.15893 37.409C2.58081 36.9872 3.15339 36.7501 3.74996 36.7501C4.34654 36.7501 4.9192 36.9871 5.341 37.409C5.7628 37.8308 5.99993 38.4034 5.99993 38.9999C5.99993 39.5965 5.76287 40.1691 5.341 40.5909C4.91912 41.0127 4.34654 41.2498 3.74996 41.2498ZM8.99998 39.7498H6.74997V38.2499H8.99998V39.7498ZM12 41.2498C11.4033 41.2498 10.8308 41.0127 10.4089 40.5909C9.98715 40.169 9.75002 39.5965 9.75002 38.9999C9.75002 38.4034 9.98707 37.8307 10.4089 37.409C10.8308 36.9872 11.4034 36.7501 12 36.7501C12.5966 36.7501 13.1692 36.9871 13.591 37.409C14.0128 37.8308 14.2499 38.4034 14.2499 38.9999C14.2499 39.5965 14.0129 40.1691 13.591 40.5909C13.1691 41.0127 12.5966 41.2498 12 41.2498ZM18 39.7498H15V38.2499H18V39.7498ZM21 41.2498C20.4033 41.2498 19.8308 41.0127 19.409 40.5909C18.9872 40.169 18.75 39.5965 18.75 38.9999C18.75 38.4034 18.9871 37.8307 19.409 37.409C19.8308 36.9872 20.4034 36.7501 21 36.7501C21.5966 36.7501 22.1692 36.9871 22.591 37.409C23.0128 37.8308 23.25 38.4034 23.25 38.9999C23.25 39.5965 23.0129 40.1691 22.591 40.5909C22.1692 41.0127 21.5966 41.2498 21 41.2498ZM27 39.7498H24V38.2499H27V39.7498ZM30 41.2498C29.4034 41.2498 28.8308 41.0127 28.409 40.5909C27.9872 40.169 27.7501 39.5965 27.7501 38.9999C27.7501 38.4034 27.9871 37.8307 28.409 37.409C28.8309 36.9872 29.4034 36.7501 30 36.7501C30.5966 36.7501 31.1693 36.9871 31.5911 37.409C32.0129 37.8308 32.25 38.4034 32.25 38.9999C32.25 39.5965 32.0129 40.1691 31.5911 40.5909C31.1692 41.0127 30.5966 41.2498 30 41.2498ZM35.25 39.7498H33V38.2499H35.25V39.7498ZM38.25 41.2498C37.6534 41.2498 37.0808 41.0127 36.659 40.5909C36.2372 40.169 36.0001 39.5965 36.0001 38.9999C36.0001 38.4034 36.2371 37.8307 36.659 37.409C37.0809 36.9872 37.6535 36.7501 38.25 36.7501C38.8466 36.7501 39.4193 36.9871 39.8411 37.409C40.2629 37.8308 40.5 38.4034 40.5 38.9999C40.5 39.5965 40.2629 40.1691 39.8411 40.5909C39.4192 41.0127 38.8466 41.2498 38.25 41.2498Z" fill="#FFB81D"/>
<path d="M27.75 2.24991C27.75 3.49237 26.7425 4.49982 25.5 4.49982C24.2575 4.49982 23.25 3.49237 23.25 2.24991C23.25 1.00744 24.2575 0 25.5 0C26.7425 0 27.75 1.00744 27.75 2.24991Z" fill="#FFB81D"/>
<path d="M4.50195 25.5005V34.5001H15.002V25.5005H12.002V30.0003C12.0033 30.2608 11.8694 30.5035 11.6481 30.6411C11.4267 30.7787 11.1498 30.7918 10.9168 30.6753L9.75196 30.0887L8.5871 30.6713V30.6716C8.35473 30.7878 8.0785 30.7754 7.85752 30.6384C7.6362 30.5018 7.50194 30.2601 7.50194 30.0003V25.5005L4.50195 25.5005Z" fill="#FFB81D" fill-opacity="0.58"/>
<path d="M4.5 38.9956C4.5 39.4097 4.16417 39.7455 3.75 39.7455C3.33583 39.7455 3 39.4097 3 38.9956C3 38.5814 3.33583 38.2456 3.75 38.2456C4.16417 38.2456 4.5 38.5814 4.5 38.9956Z" fill="#FFB81D"/>
<path d="M10.0832 28.5791L10.498 28.7866V25.5005H8.99805V28.787L9.41289 28.5794V28.5791C9.62382 28.4736 9.87227 28.4736 10.0832 28.5791L10.0832 28.5791Z" fill="#FFB81D" fill-opacity="0.58"/>
<path d="M12.748 38.9956C12.748 39.4097 12.4122 39.7455 11.998 39.7455C11.5839 39.7455 11.248 39.4097 11.248 38.9956C11.248 38.5814 11.5839 38.2456 11.998 38.2456C12.4122 38.2456 12.748 38.5814 12.748 38.9956Z" fill="#FFB81D"/>
<path d="M30.75 38.9956C30.75 39.4097 30.4142 39.7455 30 39.7455C29.5858 39.7455 29.25 39.4097 29.25 38.9956C29.25 38.5814 29.5858 38.2456 30 38.2456C30.4142 38.2456 30.75 38.5814 30.75 38.9956Z" fill="#FFB81D"/>
<path d="M21.752 38.9956C21.752 39.4097 21.4161 39.7455 21.002 39.7455C20.5878 39.7455 20.252 39.4097 20.252 38.9956C20.252 38.5814 20.5878 38.2456 21.002 38.2456C21.4161 38.2456 21.752 38.5814 21.752 38.9956Z" fill="#FFB81D"/>
<path d="M38.998 38.9956C38.998 39.4097 38.6622 39.7455 38.248 39.7455C37.8339 39.7455 37.498 39.4097 37.498 38.9956C37.498 38.5814 37.8339 38.2456 38.248 38.2456C38.6622 38.2456 38.998 38.5814 38.998 38.9956Z" fill="#FFB81D"/>
<path d="M11.25 13.4999C11.25 14.3283 10.5784 14.9999 9.75 14.9999C8.92165 14.9999 8.25 14.3283 8.25 13.4999C8.25 12.6716 8.92165 12 9.75 12C10.5784 12 11.25 12.6716 11.25 13.4999Z" fill="#FFB81D" fill-opacity="0.58"/>
<path d="M38.25 12C37.2555 12 36.3017 12.3951 35.5982 13.0981C34.8951 13.8016 34.5 14.7554 34.5 15.7498C34.5 16.7443 34.8951 17.6981 35.5982 18.4016C36.3016 19.1047 37.2555 19.4997 38.25 19.4997C39.2445 19.4997 40.1983 19.1046 40.9018 18.4016C41.605 17.6981 42 16.7443 42 15.7498C41.9987 14.7558 41.6033 13.8026 40.9005 13.0995C40.1973 12.3967 39.2441 12.0014 38.25 12ZM38.25 17.9998C37.6534 17.9998 37.0808 17.7627 36.659 17.3409C36.2372 16.919 36 16.3464 36 15.7499C36 15.1533 36.2371 14.5807 36.659 14.1589C37.0809 13.7371 37.6534 13.5 38.25 13.5C38.8466 13.5 39.4192 13.7371 39.841 14.1589C40.2628 14.5808 40.5 15.1533 40.5 15.7499C40.5 16.3464 40.2629 16.9191 39.841 17.3409C39.4192 17.7626 38.8466 17.9998 38.25 17.9998Z" fill="#FFB81D"/>
<path d="M27.2169 4.99563L26.6809 5.32806L27.1269 5.77409L33.976 12.6236L34.3516 12.9992L34.7038 12.6016C35.0072 12.2591 35.3583 11.962 35.7463 11.7187L36.2781 11.3853L35.8343 10.9415L28.9276 4.03511L28.5073 3.61491L28.1652 4.1008C27.9122 4.46011 27.5899 4.76433 27.2169 4.99563Z" fill="#FFB81D" stroke="#FFB81D"/>
<path d="M31.502 29.248C31.502 29.0491 31.423 28.8583 31.2823 28.7177C31.1417 28.5771 30.9509 28.498 30.752 28.498H23.252C22.8378 28.498 22.502 28.8339 22.502 29.248V34.4978H31.502V29.248ZM27.002 33.7478C26.4053 33.7478 25.8327 33.5108 25.4109 33.0889C24.9891 32.6671 24.752 32.0945 24.752 31.498C24.752 30.9014 24.9891 30.3288 25.4109 29.907C25.8328 29.4852 26.4054 29.2481 27.002 29.2481C27.5985 29.2481 28.1712 29.4851 28.593 29.907C29.0148 30.3289 29.2519 30.9014 29.2519 31.498C29.2519 32.0945 29.0149 32.6671 28.593 33.0889C28.1711 33.5107 27.5985 33.7478 27.002 33.7478Z" fill="#FFB81D"/>
<path d="M38.998 15.7509C38.998 16.1651 38.6622 16.5009 38.248 16.5009C37.8339 16.5009 37.498 16.1651 37.498 15.7509C37.498 15.3368 37.8339 15.001 38.248 15.001C38.6622 15.001 38.998 15.3368 38.998 15.7509Z" fill="#FFB81D"/>
<path d="M10.498 10.6041V5.92285C10.0032 6.02396 9.49288 6.02396 8.99805 5.92285V10.6048C9.48789 10.4629 10.0082 10.4629 10.498 10.6048V10.6041Z" fill="#FFB81D"/>
<path d="M33.7209 18.5867L25.3805 26.9291L25.2098 27.0998H25.4512H29.69H29.7314L29.7607 27.0705L36.2107 20.6207L36.1577 20.5677L36.1808 20.4585C35.2863 20.0635 34.5226 19.4233 33.9773 18.613L34.0903 18.5001H33.8489H33.8489H33.6645L33.7209 18.5867Z" fill="#FFB81D" stroke="#FFB81D" stroke-width="0.2"/>
<path d="M27.75 31.5005C27.75 31.9146 27.4142 32.2504 27 32.2504C26.5858 32.2504 26.25 31.9146 26.25 31.5005C26.25 31.0863 26.5858 30.7505 27 30.7505C27.4142 30.7505 27.75 31.0863 27.75 31.5005Z" fill="#FFB81D"/>
<path d="M17.834 16.7796L14.834 13.0298C14.6916 12.852 14.476 12.7485 14.2484 12.7485H12.6426C12.7835 13.2387 12.7835 13.7583 12.6426 14.2485H13.8884L16.3206 17.2889L13.6206 21.332C13.3909 21.6766 13.4836 22.1423 13.8285 22.3723C14.173 22.602 14.6388 22.5089 14.8685 22.1644L17.8685 17.6646C18.0513 17.3937 18.0372 17.0358 17.834 16.7797L17.834 16.7796Z" fill="#FFB81D" fill-opacity="0.58"/>
<path d="M6.85794 12.7486H5.25217C5.0245 12.7486 4.80886 12.8521 4.66657 13.0299L1.66656 16.7797C1.46232 17.0348 1.44659 17.3927 1.62806 17.6646L4.62806 22.1644C4.85809 22.5089 5.32383 22.602 5.66838 22.3723C6.01291 22.1423 6.106 21.6766 5.87631 21.332L3.1763 17.2889L5.61214 14.2485H6.85799C6.71704 13.7583 6.71704 13.2387 6.85799 12.7485L6.85794 12.7486Z" fill="#FFB81D" fill-opacity="0.58"/>
</svg>
