<svg width="44" height="42" viewBox="0 0 44 42" fill="none" xmlns="http://www.w3.org/2000/svg">
<path d="M0.835279 25.3747C0.834049 26.4863 1.20757 27.5691 1.90043 28.4633L2.00129 28.5946H2.0017C2.14766 28.7719 2.30428 28.9415 2.46992 29.102L2.57078 29.1895H2.57119C2.71879 29.3243 2.87501 29.45 3.03942 29.566L3.19563 29.6797C3.38792 29.8035 3.58719 29.9176 3.7926 30.0207L3.94881 30.0996C4.14151 30.1899 4.34078 30.2657 4.54578 30.327L4.66509 30.3707C4.90167 30.4445 5.14439 30.5004 5.3904 30.5371H5.56506C5.82295 30.584 6.08372 30.6133 6.34571 30.6246H27.4692V24.4997H0.835236L0.835279 25.3747ZM20.122 26.2496C20.4934 26.2496 20.8284 26.4629 20.9703 26.7899C21.1125 27.1168 21.0342 27.493 20.7714 27.7434C20.5086 27.9938 20.1138 28.0684 19.7706 27.9328C19.4274 27.7977 19.2035 27.4785 19.2035 27.1246C19.2035 26.6414 19.6148 26.2496 20.122 26.2496Z" fill="#016BE3"/>
<path d="M39.4085 17.5006V12.6444C38.7382 12.9628 37.9993 13.1276 37.2503 13.1257H36.7177C35.1269 13.1257 33.6349 12.3921 32.7132 11.1569C32.5886 11.3272 32.4504 11.4877 32.2999 11.6381C31.2663 12.6983 29.7744 13.2412 28.2618 13.1072C26.7497 12.9736 25.388 12.1787 24.5762 10.9556C23.5389 12.3122 21.8838 13.1146 20.1219 13.1146C18.36 13.1146 16.7049 12.3123 15.6675 10.9556C14.8557 12.1786 13.4941 12.9736 11.982 13.1072C10.4695 13.2412 8.97749 12.6982 7.94383 11.6381C7.79335 11.4877 7.65518 11.3272 7.53054 11.1569C6.60885 12.3921 5.11685 13.1257 3.52605 13.1257H2.99346C2.24438 13.1276 1.50552 12.9628 0.835236 12.6444V22.7503H27.4692V21.8753C27.4692 20.7151 27.953 19.6023 28.814 18.7815C29.6754 17.9612 30.8435 17.5004 32.0613 17.5004L39.4085 17.5006Z" fill="#016BE3"/>
<path d="M25.8717 32.3746H14.3826L13.8041 36.7496H11.857C11.3498 36.7496 10.9385 37.1414 10.9385 37.6246C10.9385 38.1078 11.3498 38.4996 11.857 38.4996H27.47V36.7496H26.4413L25.8717 32.3746Z" fill="#016BE3"/>
<path d="M2.99385 11.3752H3.52644C4.3071 11.3745 5.05825 11.0913 5.62777 10.5827C6.19727 10.0745 6.54291 9.37839 6.59415 8.63659V8.12918L7.20014 0.000366211H4.50924C3.91965 0.00231929 3.34648 0.184744 2.87373 0.51989C2.40099 0.855437 2.05372 1.32652 1.88275 1.86398L0.0459206 7.70881C0.0180408 7.8885 0.0024603 8.06975 0 8.25139V8.44397C0.00410011 9.20646 0.31858 9.93805 0.876597 10.4845C1.43502 11.031 2.19397 11.3502 2.99388 11.3752L2.99385 11.3752Z" fill="#016BE3"/>
<path d="M11.5357 11.3756C12.3516 11.3756 13.1342 11.0666 13.7112 10.517C14.2881 9.96739 14.6124 9.22171 14.6124 8.44432V0.000610352H9.03758L8.5509 7.09664L8.46808 8.25172C8.40494 9.06069 8.70138 9.85791 9.28564 10.4482C9.86785 11.0416 10.6829 11.3779 11.5358 11.3755L11.5357 11.3756Z" fill="#016BE3"/>
<path d="M20.1231 11.3755C21.0973 11.3755 22.0317 11.0067 22.7209 10.3505C23.4097 9.69387 23.7967 8.80362 23.7967 7.87553V0.000610352H16.4494V7.87553C16.4494 8.80364 16.8365 9.69391 17.5253 10.3505C18.2145 11.0067 19.1489 11.3755 20.1231 11.3755Z" fill="#016BE3"/>
<path d="M28.7082 11.3754C29.561 11.3778 30.3761 11.0415 30.9583 10.4481C31.5426 9.85787 31.839 9.06061 31.7759 8.25162L31.5553 5.04936L31.2064 0.000610352H25.6316V8.44432C25.6316 9.22165 25.9559 9.9673 26.5328 10.517C27.1096 11.0666 27.8923 11.3756 28.7083 11.3756L28.7082 11.3754Z" fill="#016BE3"/>
<path d="M33.6498 8.63635C33.7011 9.37814 34.0467 10.0742 34.6162 10.5824C35.1857 11.091 35.9368 11.3742 36.7175 11.375H37.2501C37.8376 11.3746 38.4124 11.2102 38.9032 10.9023C39.7884 10.3692 40.3256 9.44146 40.3267 8.44377V8.25119C40.3394 8.07073 40.3394 7.88948 40.3267 7.70862L38.3981 1.86378C38.2255 1.32043 37.8724 0.845392 37.3923 0.509496C36.9122 0.173169 36.3304 -0.00533832 35.7347 0.000121619H32.9794L33.5489 8.12893L33.6498 8.63635Z" fill="#016BE3"/>
<path d="M41.2447 19.2504H39.7938L39.1418 19.8715H39.1414C38.9684 20.0355 38.7335 20.1265 38.4895 20.1254H34.8159C34.5719 20.1265 34.337 20.0355 34.164 19.8715L33.5117 19.2504H32.0607C31.33 19.2504 30.6289 19.5269 30.1124 20.0191C29.5959 20.5113 29.3055 21.1793 29.3055 21.8753V39.3751C29.3055 40.0712 29.5958 40.7392 30.1124 41.2313C30.629 41.7234 31.3301 42 32.0607 42H41.2448C41.9754 42 42.6766 41.7235 43.1931 41.2313C43.7096 40.7391 44 40.0711 44 39.3751V21.8753C44 21.1792 43.7097 20.5112 43.1931 20.0191C42.6765 19.527 41.9753 19.2504 41.2448 19.2504H41.2447ZM36.6527 40.2501C36.2812 40.2501 35.9462 40.0369 35.8044 39.7099C35.6621 39.383 35.7404 39.0068 36.0032 38.7564C36.266 38.506 36.6609 38.4314 37.004 38.567C37.3472 38.7021 37.5711 39.0213 37.5711 39.3752C37.5711 39.6072 37.4743 39.8298 37.3021 39.9939C37.1299 40.158 36.8962 40.2501 36.6527 40.2501ZM41.2447 33.2502C41.2447 33.9463 40.9545 34.6143 40.4378 35.1064C39.9212 35.5985 39.2201 35.8751 38.4895 35.8751H34.8159C34.0853 35.8751 33.3841 35.5986 32.8676 35.1064C32.3511 34.6142 32.0607 33.9462 32.0607 33.2502V28.8753C32.0607 28.3921 32.4719 28.0003 32.9791 28.0003H34.0168C34.0168 27.103 34.5195 26.2741 35.3351 25.8253C36.1506 25.3769 37.1551 25.3769 37.9705 25.8253C38.786 26.2741 39.2887 27.103 39.2887 28.0003H40.3265C40.57 28.0003 40.8037 28.0925 40.9759 28.2565C41.1481 28.4206 41.2449 28.6432 41.2449 28.8753L41.2447 33.2502Z" fill="#016BE3" fill-opacity="0.5"/>
<path d="M37.6921 28.0003C37.6921 27.4542 37.2276 27.0117 36.6544 27.0117C36.0812 27.0117 35.6167 27.4542 35.6167 28.0003V28.114H37.6921L37.6921 28.0003Z" fill="#016BE3" fill-opacity="0.5"/>
<path d="M33.8979 33.2496C33.8979 33.4816 33.9947 33.7043 34.1669 33.8683C34.3391 34.0324 34.5728 34.1246 34.8163 34.1246H38.49C38.7335 34.1246 38.9672 34.0324 39.1394 33.8683C39.3116 33.7043 39.4084 33.4816 39.4084 33.2496V29.7496H33.8979V33.2496Z" fill="#016BE3" fill-opacity="0.5"/>
</svg>
