<svg width="57" height="86" viewBox="0 0 57 86" fill="none" xmlns="http://www.w3.org/2000/svg">
<path d="M14.782 72.0003L13.7522 70.8175L2.76569 58L0 60.365L9.97534 72L0 83.635L2.76569 86L13.7522 73.1825L14.782 71.9997V72.0003Z" fill="#CCCDCD"/>
<path d="M-0.000793457 13.9997L1.0291 15.1825L12.0156 28L14.7812 25.635L4.80591 14L14.7812 2.36503L12.0156 0L1.0291 12.8175L-0.000793457 14.0003V13.9997Z" fill="#CCCDCD"/>
<path d="M56.782 72.0003L55.7522 70.8175L44.7657 58L42 60.365L51.9753 72L42 83.635L44.7657 86L55.7522 73.1825L56.782 71.9997V72.0003Z" fill="#016BE3"/>
<path d="M41.9992 13.9997L43.0291 15.1825L54.0156 28L56.7812 25.635L46.8059 14L56.7812 2.36503L54.0156 0L43.0291 12.8175L41.9992 14.0003V13.9997Z" fill="#016BE3"/>
</svg>
