<svg width="11" height="11" viewBox="0 0 11 11" fill="none" xmlns="http://www.w3.org/2000/svg">
<g clip-path="url(#clip0_3190_24371)">
<path d="M9.9762 5.16694L6.41287 1.6036L6.41164 1.60237L6.41165 1.60236C6.28845 1.47481 6.28846 1.27259 6.41164 1.14503L6.41165 1.14501C6.53795 1.01428 6.74634 1.01062 6.8771 1.13694L6.87835 1.13814L6.87834 1.13815L11.0032 5.26306L9.9762 5.16694ZM9.9762 5.16694H0.229174H0.229157C0.0473804 5.16697 -0.1 5.31434 -0.1 5.49614C-0.1 5.67793 0.0473807 5.82531 0.229174 5.82531H9.9762L6.41387 9.38765C6.28382 9.51401 6.28041 9.72186 6.40649 9.8524L6.4065 9.85241C6.5328 9.98316 6.74116 9.98677 6.87193 9.8605L6.87195 9.86048L6.8788 9.85364L6.87881 9.85365L11.0038 5.72865L11.004 5.72847C11.0344 5.69795 11.0585 5.66175 11.075 5.62187C11.1259 5.4988 11.0976 5.35721 11.0033 5.26315L9.9762 5.16694Z" fill="#05164D" stroke="#05164D" stroke-width="0.2"/>
</g>
<defs>
<clipPath id="clip0_3190_24371">
<rect width="11" height="11" fill="white"/>
</clipPath>
</defs>
</svg>
