<svg width="40" height="46" viewBox="0 0 40 46" fill="none" xmlns="http://www.w3.org/2000/svg">
<rect width="39.6111" height="46" rx="18" fill="white"/>
<path d="M23.0826 20.0593L14.0823 29.0849C13.8795 29.2877 13.6385 29.3891 13.3593 29.3891C13.0807 29.3891 12.8401 29.2877 12.6372 29.0849C12.4344 28.882 12.333 28.641 12.333 28.3618C12.333 28.0833 12.4344 27.8426 12.6372 27.6398L21.6628 18.6395H13.9556C13.6683 18.6395 13.4272 18.5425 13.2325 18.3485C13.0385 18.1538 12.9415 17.9128 12.9415 17.6254C12.9415 17.3381 13.0385 17.0971 13.2325 16.9024C13.4272 16.7083 13.6683 16.6113 13.9556 16.6113H24.0967C24.384 16.6113 24.6247 16.7083 24.8187 16.9024C25.0134 17.0971 25.1108 17.3381 25.1108 17.6254V27.7665C25.1108 28.0539 25.0134 28.2945 24.8187 28.4886C24.6247 28.6833 24.384 28.7806 24.0967 28.7806C23.8093 28.7806 23.5687 28.6833 23.3746 28.4886C23.1799 28.2945 23.0826 28.0539 23.0826 27.7665V20.0593Z" fill="#05164D"/>
</svg>
