<svg width="285" height="190" viewBox="0 0 285 190" fill="none" xmlns="http://www.w3.org/2000/svg">
<g clip-path="url(#clip0_2638_10211)">
<path d="M54.8526 76.3866H54.8307L53.0754 85.5762H50.662L48.3801 74.364H50.3109L51.8906 83.004H51.9126L53.602 74.364H56.1033L57.7707 83.004H57.7927L59.4382 74.364H61.3032L58.9994 85.5762H56.5421L54.8526 76.3866Z" fill="#009EDB"/>
<path d="M64.199 77.1561C65.8885 77.1561 67.8193 78.0355 67.8193 81.3992C67.8193 84.8727 65.8885 85.6642 64.199 85.6642C62.5096 85.6642 60.5569 84.8507 60.5569 81.3992C60.5788 78.0355 62.5315 77.1561 64.199 77.1561ZM64.199 84.2791C65.4716 84.2791 65.7788 82.8062 65.7788 81.4211C65.7788 80.0361 65.4935 78.5851 64.199 78.5851C62.9045 78.5851 62.6193 80.0361 62.6193 81.4211C62.6193 82.8062 62.9265 84.2791 64.199 84.2791Z" fill="#009EDB"/>
<path d="M68.8068 78.6511C68.8068 78.1894 68.7848 77.7497 68.741 77.288H70.5401C70.562 77.7937 70.6059 78.2993 70.6059 78.805H70.6279C70.8692 78.1674 71.4836 77.1781 72.7342 77.1781C72.8439 77.1781 72.9536 77.2001 73.0633 77.2221V79.0908C72.8878 79.0468 72.6903 79.0028 72.5148 79.0028C71.703 79.0028 70.8034 79.5085 70.8034 81.0474V85.5762H68.8287L68.8068 78.6511Z" fill="#009EDB"/>
<path d="M73.9192 73.5288H75.9158V85.5544H73.9192V73.5288Z" fill="#009EDB"/>
<path d="M84.0115 73.5288V84.1474C84.0115 84.609 84.0335 85.0927 84.0774 85.5544H82.2124C82.1685 85.1367 82.1466 84.697 82.1466 84.2793H82.1027C81.7736 84.9828 81.1812 85.6863 79.9086 85.6863C77.8681 85.6863 77.0125 83.7297 77.0125 81.4433C77.0125 78.7392 78.0875 77.1782 79.8647 77.1782C80.7863 77.1343 81.62 77.6619 81.993 78.4973H82.0149V73.5288H84.0115ZM80.4352 84.2133C81.5981 84.2133 81.993 82.9382 81.993 81.3993C81.993 79.7944 81.5542 78.6292 80.4571 78.6292C79.3601 78.6292 78.9652 79.7065 78.9652 81.3553C78.9871 83.268 79.2943 84.2133 80.4352 84.2133Z" fill="#009EDB"/>
<path d="M89.9138 74.364H91.9763V78.9148H95.2893V74.364H97.3298V85.5762H95.2893V80.6076H91.9763V85.5542H89.9138V74.364Z" fill="#009EDB"/>
<path d="M104.593 85.1585C103.825 85.5103 102.969 85.6861 102.135 85.6861C99.4805 85.6861 98.3176 83.7735 98.3176 81.553C98.3176 79.0908 99.6121 77.1781 101.718 77.1781C103.496 77.1781 105.01 78.2114 105.01 81.597V81.9927H100.248C100.248 83.3997 100.819 84.2571 102.355 84.2571C103.561 84.2571 104.154 83.8834 104.527 83.6196L104.593 85.1585ZM103.079 80.7176C103.079 79.2666 102.596 78.5192 101.696 78.5192C100.643 78.5192 100.226 79.6184 100.226 80.7176H103.079Z" fill="#009EDB"/>
<path d="M106.282 77.7717C107.094 77.376 107.993 77.1561 108.893 77.1561C111.46 77.1561 112.052 78.4092 112.052 80.4758V84.0813C112.052 84.5649 112.096 85.0486 112.162 85.5323H110.363C110.275 85.1585 110.231 84.7848 110.253 84.411H110.231C109.727 85.0926 109.112 85.6642 107.927 85.6642C106.655 85.6642 105.47 84.7848 105.47 83.2459C105.47 81.0034 107.291 80.4318 109.814 80.4318H110.209V80.124C110.209 79.3106 109.814 78.5412 108.673 78.5412C107.862 78.5631 107.072 78.8489 106.414 79.3546L106.282 77.7717ZM110.187 81.5091H110.012C108.322 81.5091 107.313 81.8608 107.313 83.07C107.269 83.7295 107.774 84.3011 108.432 84.3451C108.476 84.3451 108.542 84.3451 108.586 84.3451C109.77 84.3451 110.209 83.4657 110.209 81.9927V81.5091H110.187Z" fill="#009EDB"/>
<path d="M113.873 73.5288H115.848V85.5544H113.873V73.5288Z" fill="#009EDB"/>
<path d="M118.13 75.5952L120.105 74.9796V77.288H121.75V78.739H120.105V83.048C120.105 83.9273 120.434 84.1912 121.004 84.1912C121.267 84.1912 121.531 84.1252 121.75 84.0153V85.4223C121.333 85.5982 120.872 85.6861 120.412 85.6861C118.942 85.6861 118.108 85.0046 118.108 83.2678V78.761H116.792V77.31H118.108V75.5952H118.13Z" fill="#009EDB"/>
<path d="M122.386 73.5288H124.361V78.3654H124.405C124.756 77.8598 125.217 77.1782 126.446 77.1782C128.31 77.1782 128.881 78.5633 128.881 80.2341V85.5544H126.906V80.6078C126.906 79.3327 126.577 78.8051 125.765 78.8051C124.734 78.8051 124.361 79.6845 124.361 80.7398V85.5544H122.386V73.5288Z" fill="#009EDB"/>
<path d="M52.9222 88.5441C55.2479 88.5441 57.3762 90.2808 57.3762 94.304C57.3762 98.3272 55.2479 100.064 52.9222 100.064C50.5965 100.064 48.4683 98.3272 48.4683 94.304C48.4683 90.2808 50.5965 88.5441 52.9222 88.5441ZM52.9222 98.5031C54.2167 98.5031 55.2699 97.4039 55.2699 94.304C55.2699 91.2042 54.2167 90.127 52.9222 90.127C51.6277 90.127 50.5746 91.2262 50.5746 94.304C50.5746 97.3819 51.6277 98.5031 52.9222 98.5031Z" fill="#009EDB"/>
<path d="M58.21 93.0071C58.21 92.5455 58.188 92.1058 58.1442 91.6441H59.9433C59.9652 92.1497 60.0091 92.6554 60.0091 93.161H60.0311C60.2724 92.5235 60.9087 91.5342 62.1374 91.5342C62.2471 91.5342 62.3568 91.5562 62.4665 91.5781V93.4468C62.291 93.4029 62.0935 93.3589 61.896 93.3589C61.0842 93.3589 60.1846 93.8645 60.1846 95.4035V99.9323H58.21V93.0071Z" fill="#009EDB"/>
<path d="M63.4312 101.207C64.1772 101.647 65.0109 101.889 65.8666 101.911C67.7316 101.911 68.0388 100.614 68.0388 99.3167V98.5253H68.0168C67.6877 99.1628 67.1392 99.9323 65.8447 99.9323C64.7038 99.9323 62.9705 99.1628 62.9705 95.8212C62.9705 93.5348 63.7823 91.5342 65.9544 91.5342C67.1611 91.5342 67.7097 92.2157 68.1265 92.9412H68.1923C68.1923 92.5015 68.2362 92.0838 68.2582 91.6661H70.0573C70.0354 92.1058 69.9915 92.5235 69.9915 92.9632V99.0529C69.9915 101.647 69.2016 103.472 66.1738 103.472C65.2084 103.472 64.243 103.296 63.3435 102.966L63.4312 101.207ZM66.3054 98.4593C67.5561 98.4593 68.0607 97.558 68.0607 95.6893C68.0607 93.9525 67.4025 93.0291 66.459 93.0511C65.4059 93.0731 65.0109 94.0404 65.0109 95.7113C65.0109 97.6459 65.6253 98.4593 66.3054 98.4593Z" fill="#009EDB"/>
<path d="M71.7467 92.1277C72.5586 91.7099 73.4581 91.5121 74.3577 91.5121C76.9248 91.5121 77.5171 92.7652 77.5171 94.8318V98.4372C77.5171 98.9209 77.561 99.4046 77.6269 99.8882H75.8277C75.74 99.5145 75.6961 99.1407 75.718 98.767H75.6961C75.1914 99.4485 74.5771 100.02 73.3923 100.02C72.1197 100.02 70.9349 99.1407 70.9349 97.6018C70.9349 95.3594 72.756 94.7878 75.2792 94.7878H75.6741V94.48C75.6741 93.6666 75.2792 92.8971 74.1383 92.8971C73.3265 92.9191 72.5366 93.2049 71.8784 93.7105L71.7467 92.1277ZM75.6522 95.865H75.4767C73.7872 95.865 72.778 96.2168 72.778 97.4259C72.7341 98.0855 73.2387 98.6571 73.8969 98.701C73.9408 98.701 73.9847 98.701 74.0505 98.701C75.2353 98.701 75.6741 97.8217 75.6741 96.3487L75.6522 95.865Z" fill="#009EDB"/>
<path d="M79.119 93.0071C79.119 92.5455 79.0971 92.1058 79.0532 91.6441H80.9182C80.9401 92.0618 80.984 92.5015 80.984 92.9192H81.006C81.2912 92.4136 81.8616 91.5342 83.2 91.5342C85.065 91.5342 85.6354 92.9192 85.6354 94.59V99.9103H83.6388V94.9418C83.6388 93.6667 83.3097 93.1391 82.4979 93.1391C81.4667 93.1391 81.0937 94.0184 81.0937 95.0737V99.8883H79.119V93.0071Z" fill="#009EDB"/>
<path d="M87.1492 88.1265H89.2116V90.0831H87.1492V88.1265ZM87.193 91.644H89.1677V99.9102H87.193V91.644Z" fill="#009EDB"/>
<path d="M90.7262 98.1953L94.2586 93.1609H90.8359V91.6439H96.2333V93.3367L92.7666 98.3932H96.343V99.9101H90.7042V98.1953H90.7262Z" fill="#009EDB"/>
<path d="M97.8565 92.1277C98.6683 91.7099 99.5679 91.5121 100.467 91.5121C103.034 91.5121 103.627 92.7652 103.627 94.8318V98.4372C103.627 98.9209 103.671 99.4046 103.737 99.8882H101.937C101.85 99.5145 101.806 99.1407 101.828 98.767H101.806C101.301 99.4485 100.687 100.02 99.502 100.02C98.2295 100.02 97.0447 99.1407 97.0447 97.6018C97.0447 95.3594 98.8658 94.7878 101.389 94.7878H101.784V94.48C101.784 93.6666 101.389 92.8971 100.248 92.8971C99.4362 92.9191 98.6464 93.2049 97.9881 93.7105L97.8565 92.1277ZM101.762 95.865H101.586C99.897 95.865 98.8877 96.2168 98.8877 97.4259C98.8438 98.0855 99.3485 98.6571 100.007 98.701C100.051 98.701 100.094 98.701 100.16 98.701C101.345 98.701 101.784 97.8217 101.784 96.3487V95.865H101.762Z" fill="#009EDB"/>
<path d="M105.777 89.9511L107.752 89.3356V91.644H109.397V93.0949H107.752V97.3819C107.752 98.2613 108.081 98.5251 108.651 98.5251C108.914 98.5251 109.178 98.4812 109.397 98.3493V99.7563C108.98 99.9541 108.519 100.042 108.059 100.02C106.589 100.02 105.755 99.3386 105.755 97.6238V93.0949H104.438V91.644H105.755L105.777 89.9511Z" fill="#009EDB"/>
<path d="M110.604 88.1265H112.645V90.0831H110.604V88.1265ZM110.648 91.644H112.645V99.9102H110.67L110.648 91.644Z" fill="#009EDB"/>
<path d="M117.362 91.5121C119.051 91.5121 120.982 92.3915 120.982 95.7551C120.982 99.2287 119.051 100.02 117.362 100.02C115.673 100.02 113.72 99.2287 113.72 95.7551C113.742 92.4135 115.695 91.5121 117.362 91.5121ZM117.362 98.6351C118.635 98.6351 118.942 97.1621 118.942 95.7771C118.942 94.3921 118.657 92.9411 117.362 92.9411C116.068 92.9411 115.782 94.3921 115.782 95.7771C115.782 97.1621 116.089 98.6351 117.362 98.6351Z" fill="#009EDB"/>
<path d="M122.561 93.0071C122.561 92.5455 122.539 92.1058 122.496 91.6441H124.361C124.383 92.0618 124.426 92.5015 124.426 92.9192H124.448C124.734 92.4136 125.304 91.5342 126.642 91.5342C128.507 91.5342 129.078 92.9192 129.078 94.59V99.9103H127.103V94.9418C127.103 93.6667 126.774 93.1391 125.962 93.1391C124.931 93.1391 124.558 94.0184 124.558 95.0737V99.8883H122.583L122.561 93.0071Z" fill="#009EDB"/>
<path d="M36.4009 74.2539C37.2565 75.2872 38.7485 75.8808 39.6261 76.914C38.9899 73.8802 36.6641 71.3959 33.8996 70.8023C35.2599 71.8136 35.5452 73.2206 36.4009 74.2539ZM3.2265 81.9485C5.13535 77.7934 7.9657 78.6728 9.17244 74.7376C8.47033 75.9247 5.37669 76.4304 3.95055 79.5302C4.69653 77.6835 4.32354 74.8695 5.55222 73.3306C1.84424 76.1006 3.42397 80.5415 3.2265 81.9485ZM6.64926 91.8855C7.00031 93.4904 5.99103 95.8428 7.59271 98.0632C5.94715 96.2165 2.43664 95.7328 1.01049 92.9188C2.78769 99.8 7.43912 98.393 9.52349 99.8879C7.81211 97.4037 9.21632 95.7548 6.64926 91.8855ZM6.12268 96.2165C5.09147 92.3692 6.91254 91.0281 5.53028 87.3347C5.39864 89.4233 3.99443 90.4346 4.93788 94.2379C3.29233 91.0062 0.747205 89.797 0.0012207 87.5986C0.0451021 93.6443 4.894 94.5457 6.12268 96.2165ZM13.5606 102.658C12.1344 100.679 13.0998 99.5582 9.10662 95.9747C9.9623 97.2938 9.08467 98.9426 11.7834 101.493C9.1505 99.9319 5.4864 100.591 3.73114 98.5029C6.75896 104.307 12.0686 101.932 13.5606 102.658ZM32.9781 101.493C35.6768 98.9206 34.7992 97.2718 35.6549 95.9747C31.6397 99.5582 32.6271 100.679 31.179 102.658C32.6929 101.932 38.0025 104.307 41.0084 98.5029C39.2751 100.613 35.611 99.9319 32.9781 101.493ZM37.1688 98.0632C38.7705 95.8428 37.7612 93.5124 38.0903 91.8855C35.5232 95.7548 36.9274 97.4037 35.2161 99.8879C37.3224 98.393 41.9519 99.8 43.7291 92.9188C42.3029 95.7328 38.8143 96.2165 37.1688 98.0632ZM30.7621 102.944C29.3359 102.57 27.8659 102.328 26.374 102.284C25.0136 102.262 23.6533 102.482 22.3807 102.966C21.1082 102.482 19.7479 102.262 18.3875 102.284C16.8956 102.328 15.4255 102.57 13.9994 102.944C11.5859 103.581 9.50155 104.087 7.68047 103.164C9.41379 104.703 11.4543 105.274 14.3943 104.944C16.8297 104.681 18.8044 103.449 21.1082 103.471H21.1959C19.7479 104.197 18.4534 105.208 17.4002 106.439L18.5192 106.593C18.5192 106.593 19.682 104.241 22.3807 103.625C25.0795 104.241 26.2423 106.593 26.2423 106.593L27.3613 106.439C26.3081 105.208 25.0136 104.197 23.5655 103.471H23.6533C25.9571 103.449 27.9317 104.681 30.3672 104.944C33.3072 105.252 35.3258 104.703 37.081 103.164C35.2599 104.087 33.1756 103.581 30.7621 102.944ZM5.70581 83.1577C4.71847 85.0703 3.16068 85.51 3.33621 89.4453C2.50246 85.9497 0.505857 84.6306 0.527798 82.4102C-0.854467 88.2581 2.83157 88.9396 3.79696 91.4019C3.64338 87.8844 5.88133 87.1808 5.70581 83.1577ZM7.08807 78.6508C6.73702 79.1345 6.49567 79.3543 5.57416 80.1018C4.1919 81.201 3.2265 82.7619 2.89739 84.4987C2.98516 82.3442 1.66871 79.2664 2.54634 77.024C-0.854467 81.8386 2.74381 84.7186 2.87545 86.4773C3.73114 83.1137 5.77163 83.0917 7.08807 78.6508ZM41.8641 84.4987C41.513 82.7619 40.5696 81.201 39.1873 80.1018C38.2658 79.3324 38.0245 79.1345 37.6734 78.6508C38.9899 83.0917 41.0303 83.1137 41.908 86.4773C42.0396 84.7406 45.6379 81.8606 42.2371 77.024C43.1147 79.2664 41.7983 82.3442 41.8641 84.4987ZM44.7603 87.5986C44.0143 89.819 41.4692 91.0062 39.8236 94.2379C40.7671 90.4346 39.3629 89.4233 39.2312 87.3347C37.8489 91.0281 39.67 92.3692 38.6388 96.2165C39.8675 94.5457 44.7164 93.6443 44.7603 87.5986ZM39.0557 83.1577C38.8582 87.1808 41.1181 87.8844 40.9645 91.4019C41.908 88.9616 45.616 88.2581 44.2337 82.4102C44.2556 84.6526 42.259 85.9497 41.4253 89.4672C41.6008 85.488 40.065 85.0703 39.0557 83.1577ZM8.36063 74.2539C9.21632 73.2206 9.50155 71.8136 10.8619 70.8023C8.0754 71.3959 5.74969 73.8582 5.11341 76.8921C5.99103 75.8588 7.50494 75.2652 8.36063 74.2539ZM35.611 74.6936C36.8177 78.6508 39.6481 77.7714 41.5569 81.9045C41.3595 80.5195 42.9392 76.0566 39.2312 73.3306C40.4818 74.8475 40.1088 77.6835 40.8329 79.5302C39.3848 76.4304 36.2912 75.9247 35.611 74.6936ZM25.9571 76.958C25.233 76.6502 24.4651 76.4524 23.6972 76.3424C23.6972 76.5183 23.6972 76.6722 23.6972 76.8481C24.4212 76.958 25.1233 77.1559 25.7816 77.4197C25.8693 77.2658 25.9351 77.1119 25.9571 76.958ZM25.3866 72.0555L25.5402 71.9235L25.255 71.7916L24.4871 71.7697L24.2896 71.9016L23.8508 71.8576V71.9675C24.136 71.9895 24.4212 72.0115 24.6406 72.0555L25.0136 72.0335L25.3866 72.0555ZM23.9385 88.456C23.9385 88.324 23.763 88.1921 23.5217 88.0822H23.4778C23.4778 88.1921 23.4558 88.6978 23.4558 88.9616C23.7411 88.8077 23.9385 88.6758 23.9385 88.456ZM15.1403 78.8047C15.1623 78.7168 15.1842 78.6069 15.2061 78.5189C15.0964 78.5409 15.0087 78.5629 14.899 78.5409L15.1403 78.8047ZM11.6079 75.2652L13.407 77.0679C11.2349 79.3324 10.0062 82.3662 9.9623 85.51H7.41718C7.46106 81.6627 8.95303 78.0133 11.6079 75.2652ZM10.5108 89.2914L10.3572 89.2694L10.2037 89.1155L9.47961 89.0495L9.69901 89.3573L9.04079 89.2254L9.21632 89.0715L9.06273 88.9176L8.58004 89.1155L8.40451 89.4233L8.47033 90.1488L9.01885 91.4678L9.28214 91.8855L9.43573 91.9295L9.01885 91.1381L8.93109 90.7423L9.01885 90.6544L8.95303 90.4346L9.19438 90.4785L9.58931 91.0501L9.67707 91.0941V90.6764L9.83066 90.7643L9.87454 90.9842L10.2695 91.0941L10.445 90.9622L10.5108 91.0062V91.3139L10.6863 91.5338L10.9058 91.5778L11.3884 92.3692L11.6737 92.4571L11.7614 92.0834C12.2661 92.8968 12.8365 93.6663 13.5167 94.3478L11.7176 96.1506C9.04079 93.4465 7.50494 89.819 7.41718 86.0157H9.9623C9.98424 87.1149 10.1817 88.2361 10.5108 89.2914ZM13.0121 85.9937C13.0121 86.2355 13.034 86.4773 13.0779 86.7412L12.7707 86.8071L12.7049 87.1149L12.0467 87.9503L12.0686 89.0935L11.4104 89.3134H11.0374C10.6863 88.2361 10.5108 87.1369 10.4669 85.9937H13.0121V85.9937ZM13.5825 93.1826L14.153 93.5124L14.2627 93.6003L13.8458 94.0181C13.6483 93.8202 13.4728 93.6223 13.2973 93.4025L13.5825 93.1826ZM15.9082 79.5742L17.7074 81.3769C17.3344 81.7946 17.0053 82.2563 16.7639 82.7619H16.6323L16.369 82.8279H16.2812L16.0179 83.0697L16.369 83.0258L16.6762 82.9598L16.6103 83.0477L16.347 83.2236H16.2154L15.8205 83.5314L15.4475 83.4874L14.899 84.5207L15.0087 84.7186L14.7015 85.0703L14.6576 85.51H13.5167C13.5386 83.2896 14.3943 81.1791 15.9082 79.5742ZM17.7513 87.027L17.8829 86.961L18.212 87.2028L18.0584 87.3128L18.4314 87.5546L18.4095 87.2908L18.6069 86.961L18.8264 87.1808L19.0458 87.4886L18.6508 87.5986L18.8264 87.9503L19.0896 87.7964L19.0458 87.6865L19.2432 87.5546L19.3529 87.005C19.5065 87.3347 19.704 87.6425 19.9453 87.9063L18.1462 89.7091C17.2686 88.7857 16.72 87.5986 16.5665 86.3234L16.9394 86.7192H17.2905L17.7513 87.027ZM15.1623 85.1143L15.2061 84.6087L15.5133 84.4328L16.0618 84.5207L16.1496 84.6087C16.1057 84.8945 16.0838 85.2022 16.0618 85.488H15.4475L15.1623 85.1143ZM14.3285 86.8731L14.0872 87.2468H13.6703L13.6483 87.2248C13.5825 86.8291 13.5386 86.4114 13.5167 86.0157H14.2846L14.1091 86.6312L14.3285 86.8731ZM16.0179 91.8416C15.8424 91.6437 15.6449 91.4459 15.4914 91.248L15.5791 90.6104L15.3158 89.9949L15.25 89.0276L14.9428 88.434L15.0087 88.0602L14.6357 87.3567L14.3285 87.2028L14.4601 86.8291L14.3285 86.5433L14.4601 86.2135H14.8112L14.9428 86.0157H15.5352L15.623 86.1915L15.4914 86.7851L15.4255 86.895L15.6449 87.3787L15.4914 87.4666L15.3817 87.3347L15.3378 87.3787L15.4475 87.6645L15.623 87.9943H15.7108L15.7547 87.6865L15.6669 87.5766V87.3787L15.6449 86.961L15.7766 86.2135L15.6449 86.0157H16.0618C16.1496 87.5326 16.7639 88.9616 17.8171 90.0608L16.0179 91.8416ZM31.3326 94.3038C33.5047 92.0614 34.7553 89.0935 34.8211 85.9937H37.3662C37.2785 89.775 35.7646 93.4025 33.1098 96.1066L31.3326 94.3038ZM30.6305 93.6003L30.8279 93.3805L30.6305 92.3912L30.4988 92.3472L30.5866 92.1713L30.1697 92.0394L30.0819 92.3912L30.0381 92.8309L29.9503 92.9188L29.1824 92.1494C30.784 90.4785 31.7055 88.3021 31.7933 85.9937H34.3384C34.2507 88.9836 33.0659 91.8196 30.9815 93.9521L30.6305 93.6003ZM28.3925 95.9967L28.6338 95.491L28.5461 95.2712L28.8971 94.9634V94.7875L28.59 94.5896L28.8313 94.084L29.2043 93.6003L28.8313 93.2046H28.5461L28.3706 92.9188C28.5241 92.7869 28.6777 92.655 28.8094 92.5231L30.6085 94.3258C29.9503 94.9634 29.2043 95.535 28.3925 95.9967ZM28.0414 91.0281L27.8001 90.7863L27.9756 90.5445L28.217 90.0608L28.1292 89.9289L28.2828 89.5772L28.2609 89.2474L28.1731 88.9176L27.9537 88.8517L27.8659 89.0276L27.7343 88.9836C27.9317 88.6978 28.1073 88.368 28.2609 88.0602L28.4803 87.9723L28.6119 87.7964L28.6777 87.8624L28.8313 87.6865L28.6997 87.5326L28.8094 87.5106L29.0068 87.5986H29.4018L29.6431 87.4666L30.2575 87.2908L30.1478 87.0929L30.1039 86.8511L30.433 87.005L30.5646 86.939L30.4988 86.6752L30.0819 86.8291L29.6431 86.7412L29.2921 86.0376H31.2448C31.157 88.2141 30.2794 90.2807 28.7874 91.8416L28.5241 91.5778L28.6338 91.226L28.4364 90.4346L28.0414 91.0281ZM27.1199 81.4429L28.9191 79.6401C29.336 80.1018 29.7089 80.6075 30.0381 81.1351L29.8186 81.201L29.8406 81.5968L30.4988 82.0145C30.6743 82.3882 30.806 82.7619 30.9157 83.1577L30.806 83.3335L30.5646 83.5094L30.4988 83.8832L30.3233 83.9711L30.1916 84.147L30.06 84.081H29.8186L29.9503 83.8832L30.06 83.3775L30.2355 83.2676L29.7528 82.8059L29.4018 82.9378L29.314 83.2896L29.0946 83.5314L28.8533 83.3335L28.7655 83.1137L28.8971 83.0258L28.963 83.1577L29.0727 83.1137L29.0288 82.8939H28.8752V82.9818L28.7655 83.0038L28.217 82.3442L28.0195 82.1903L28.0853 82.1244L28.2609 82.0584L28.0853 81.9925C28.0853 81.9925 27.8879 82.0365 27.8659 82.0365L27.9756 82.1903H27.6904C27.5149 81.9045 27.3393 81.6627 27.1199 81.4429ZM27.4052 91.27L26.8566 91.1161L26.6811 91.182L26.374 90.9402L26.0887 90.8303C26.2423 90.7204 26.374 90.6104 26.5056 90.5005L26.9664 90.8303L27.3174 91.0062L27.4929 91.182L27.4052 91.27ZM26.4398 82.8059L26.6592 82.7619V82.718L26.4398 82.5641L26.5056 82.0804L26.7689 81.7946C26.9444 81.9925 27.098 82.1903 27.2516 82.4102L27.1638 82.696L26.9225 82.5201L26.725 82.5641L26.8128 82.74H26.9005L26.7908 83.0038L26.725 82.8939L26.4398 82.8059ZM29.4895 84.5647L29.9503 84.3229L30.411 84.2569L30.5207 84.0371L30.784 83.8832L30.8937 83.6633L30.9815 83.2896C31.0254 83.4215 31.0473 83.5534 31.0912 83.6853L30.8499 84.4108V84.6526L31.157 84.147C31.2229 84.5867 31.2667 85.0483 31.2887 85.488H29.0507L29.0068 85.2902L29.2701 85.0923L29.314 84.9604L29.4237 84.8725L29.7309 84.8285L29.7528 84.6966L29.4895 84.5647ZM29.9942 78.5849L30.6085 78.6069L30.7621 78.7827L30.6963 79.0466L31.552 79.5742L31.7275 79.5522L32.8026 80.8053L33.2414 80.6514C33.9435 82.1684 34.3165 83.8392 34.3384 85.51H31.7933C31.7933 84.8505 31.7055 84.2129 31.552 83.5754L31.6617 83.4215L31.8152 82.6081L31.7055 81.7507L31.3984 80.7613L30.6963 79.7281L30.8718 79.816L30.9596 79.7281L30.3891 79.3324L30.3452 79.4643L30.9157 80.2777L31.2448 80.9372L31.4642 81.5968L31.53 82.0365L31.6397 82.7839L31.4203 82.8059C31.4203 82.8059 31.179 82.3442 31.0912 82.1464L31.2009 81.9705L30.9815 81.6627V81.3769L30.8279 81.1791L30.6305 81.201C30.5646 81.0691 30.4988 80.9372 30.411 80.8273L30.5427 80.8933L30.5866 80.8493L30.5207 80.6954L30.6963 80.6075L30.6305 80.5195L30.3891 80.6075L30.4769 80.2117L30.3233 80.1238L30.1916 80.4316C29.9064 80.0139 29.5992 79.6182 29.2701 79.2444L29.9942 78.5849ZM33.2414 75.3092C35.8743 78.0572 37.3443 81.7067 37.3882 85.51H34.8431C34.8211 83.6193 34.3823 81.7507 33.5266 80.0578L33.5486 80.0139L33.7241 80.1018L33.768 79.9699L33.3072 79.1785L32.7587 78.431L32.1224 77.9034C31.903 77.6395 31.6836 77.3757 31.4423 77.1119L33.2414 75.3092ZM22.4027 101.163C30.9596 101.163 37.8928 94.1939 37.8709 85.6199C37.8709 77.6615 31.8591 71.0002 23.9605 70.1868L23.9385 70.2747C23.9166 70.4286 23.8727 70.5605 23.8508 70.6924C27.2516 71.0222 30.433 72.5171 32.8684 74.9135L31.157 76.6282L31.2229 76.3205L31.0034 76.2105L30.7182 76.2325L30.784 76.0347L30.5866 75.3312L30.1697 74.8695L28.8313 74.166L28.7216 74.2979L28.4803 74.3638C28.941 75.0234 29.1824 75.8148 29.1824 76.6063C29.1824 76.7162 29.1824 76.8041 29.1824 76.914L29.8406 77.7495L29.5334 77.8154L29.7309 78.1232L29.1385 78.7168L28.8971 78.2771C28.7874 78.5849 28.6338 78.8927 28.4583 79.1565L28.59 79.2664L26.7689 81.0691C26.6592 80.9592 26.5495 80.8713 26.4398 80.7613C26.2643 80.8493 26.0887 80.9152 25.9132 80.9812L26.0668 81.0911L25.979 81.1791L25.7596 81.289L25.6719 81.5088L25.5402 81.3769L25.1672 81.5088L25.2769 81.6847L25.5402 81.6187L25.7157 81.6407L25.7377 81.5528L25.8693 81.4868L25.9132 81.4209L26.1545 81.3549H26.3301L26.4398 81.4429L25.7377 82.1684L25.6938 82.1024L24.9478 82.2343L24.7723 82.4102L24.6187 82.4322L25.0795 81.9925L24.9039 81.9045L24.4651 82.4761L24.5968 82.4542V82.674L24.7503 82.74L24.7723 82.9598L24.509 82.9158L24.2457 82.9598L23.5875 82.63C23.5875 82.63 23.5436 84.3888 23.5436 85.2682C25.0795 85.7958 26.725 86.5433 26.725 88.5219C26.7469 89.3573 26.3081 90.1488 25.606 90.6104L25.5621 90.6324L25.5183 90.6764C24.9039 91.0941 24.0921 91.3139 23.39 91.5338L23.3681 92.9188C24.4871 93.4684 25.8254 94.2819 25.6938 96.5683C25.6719 97.1399 25.4524 97.2938 25.2769 97.3377C24.6187 97.4916 23.9385 97.6015 23.2803 97.6455C23.2803 97.8214 23.2803 97.9973 23.2803 98.1512C26.1765 97.9533 28.8971 96.7441 31.0034 94.7435L32.8026 96.5463C27.0322 102.13 17.8829 102.13 12.0906 96.5902L13.8897 94.7875C15.9741 96.7441 18.6728 97.9313 21.5251 98.1512C21.5251 97.9973 21.5251 97.8214 21.5251 97.6455C18.8044 97.4257 16.2593 96.3044 14.2846 94.4138L14.7454 93.9301L15.4036 93.9961L15.7547 93.6223L16.6762 93.6663L16.8078 93.3365L16.7639 93.2046C18.1242 94.2379 19.7479 94.8974 21.4592 95.0733C21.4592 94.8754 21.4592 94.6996 21.4592 94.5677C19.5723 94.3478 17.8171 93.5564 16.4129 92.2593L18.212 90.4565C18.6508 90.8523 19.1335 91.182 19.682 91.4459C19.7259 91.27 19.7698 91.1161 19.8576 90.9622C19.3968 90.7204 18.958 90.4346 18.585 90.1048L20.3841 88.3021C20.6694 88.5219 20.9985 88.7198 21.3276 88.8297C21.3276 88.6538 21.3276 88.456 21.3276 88.2801C21.1082 88.1921 20.9107 88.0602 20.7352 87.9283L21.2398 87.4227C21.0643 87.3787 20.8888 87.3128 20.7133 87.2468L20.3622 87.5986C20.1867 87.4007 20.0331 87.1808 19.9234 86.961C19.6162 86.8291 19.309 86.6752 19.0238 86.4773C17.9707 85.8398 17.3344 84.6746 17.3563 83.4215C17.3344 82.5861 17.5757 81.7507 18.0804 81.0911L16.2812 79.2884C17.5977 78.0133 19.2871 77.1998 21.0862 76.914C21.0862 76.7382 21.0862 76.5623 21.0862 76.4084C19.1555 76.6942 17.3344 77.5736 15.9302 78.9366L15.623 78.6288C15.5572 78.7388 15.4694 78.8927 15.3817 79.0905L15.5791 79.2884C13.9775 80.9812 13.0779 83.2236 13.034 85.554H10.4669C10.5108 82.5421 11.6737 79.6621 13.758 77.4637L14.5699 78.2771C14.6137 78.2771 14.6357 78.2771 14.6796 78.2771C14.8331 78.2551 15.0087 78.2111 15.1403 78.1452L14.1091 77.1119C14.6576 76.5843 15.25 76.1006 15.8863 75.6829C15.9302 75.551 15.9521 75.4191 16.0179 75.3092C16.1276 75.1333 16.2593 74.9574 16.4129 74.7815C15.4475 75.3092 14.5699 75.9687 13.78 76.7382L11.9808 74.9354C14.3943 72.5831 17.5318 71.1101 20.9107 70.7584C20.9107 70.6924 20.8888 70.6484 20.8888 70.6484C20.8668 70.5165 20.8449 70.4066 20.823 70.2527C12.288 71.1321 6.12268 78.7608 7.02225 87.2908C7.85599 95.1832 14.4821 101.185 22.4027 101.163ZM30.0161 74.3199L29.8625 74.078L29.5334 73.9022L29.2701 74.1L29.5992 74.2759L29.9722 74.5397L30.0161 74.3199ZM28.4803 81.5308L28.5022 81.7287L28.941 81.5968L29.0727 81.3329L28.7655 80.9372L28.9191 80.6954L29.3359 80.9812L29.4018 80.9152L29.314 80.8493L29.2262 80.6734L29.4018 80.5855L29.2262 80.3656L28.8313 80.5635L28.6997 80.8053L28.6119 81.0252L28.7874 81.311L28.7216 81.4429L28.4803 81.5308ZM10.0939 92.9628L10.1159 92.8529L9.89648 92.3472L9.63319 92.2373L10.0939 92.9628ZM20.4719 83.3775C20.4719 83.8172 20.7352 84.103 21.1959 84.3668C21.1959 84.3668 21.1959 84.3009 21.1959 84.169L20.9107 83.8612L21.0643 83.5754L21.1959 83.5314C21.174 83.0258 21.174 82.4761 21.174 82.3882H21.1521C20.7133 82.652 20.4938 82.9598 20.4719 83.3775Z" fill="#009EDB"/>
<path d="M23.3236 94.4359C24.1135 94.8316 24.8595 95.4032 25.1666 96.4584C25.2983 94.6997 24.3109 93.9522 23.3455 93.4246L23.3236 94.4359Z" fill="#009EDB"/>
<path d="M28.6337 76.6065C28.6337 75.0016 27.4709 73.2428 24.6405 72.6273C24.3553 72.5833 24.0701 72.5393 23.7848 72.5173C23.7848 72.7592 23.7629 73.3088 23.7629 73.3088C23.7629 73.4847 23.7409 74.1222 23.7409 74.2541C23.9165 74.2761 24.1139 74.2981 24.2895 74.3201C25.935 74.7158 26.5274 75.6611 26.5274 76.5845C26.5274 78.1014 25.2329 78.673 23.6532 79.1127L23.1266 79.2446C22.6439 79.3545 22.1393 79.4864 21.6566 79.6184C21.4811 79.6623 21.3055 79.7063 21.13 79.7722C19.3747 80.2999 17.8608 81.1573 17.8608 83.3337C17.8608 85.5102 19.5942 86.3017 21.2836 86.8293C21.2836 86.2137 21.2617 85.5762 21.2397 84.9606C20.4718 84.6089 19.9671 84.1472 19.9671 83.3777C19.9671 82.6083 20.4498 82.1686 21.1739 81.8388C21.3275 81.7728 21.503 81.7069 21.7005 81.6409C22.1173 81.487 22.6 81.3771 23.0827 81.2452L23.6093 81.1133C25.9789 80.5417 28.6557 79.7942 28.6337 76.6065Z" fill="#009EDB"/>
<path d="M20.0985 91.8419C20.0985 92.7213 20.7348 93.183 21.3711 93.5567C21.3711 93.4028 21.3491 92.0618 21.3491 92.0398C21.3711 91.776 21.6124 91.6001 21.8318 91.5121C22.1609 91.3583 22.512 91.2263 22.863 91.1164C23.0605 91.0505 23.2141 90.9845 23.3896 90.9405C24.6841 90.5448 26.1761 90.0612 26.1761 88.4783C26.1761 86.8954 24.9035 86.2578 23.4993 85.7742C23.4774 86.2798 23.4774 87.0053 23.4554 87.511C24.0478 87.7308 24.4428 88.0166 24.4428 88.4783C24.4428 89.0499 23.8504 89.3577 23.4116 89.5335C23.236 89.5995 22.9727 89.6874 22.885 89.7094C22.5339 89.8193 22.1829 89.9293 21.8318 90.0612C21.6563 90.1271 21.4808 90.1931 21.3052 90.281C20.7348 90.5888 20.0985 91.0505 20.0985 91.8419Z" fill="#009EDB"/>
<path d="M20.977 72.7595C20.4504 72.9354 19.9238 73.1333 19.4192 73.3971C18.8707 73.573 18.0808 73.6169 17.269 74.4963C17.0057 74.8041 16.7644 75.1339 16.523 75.4636C16.2817 75.8154 16.2597 76.387 16.0842 76.6728C15.8209 77.1125 15.8867 77.3763 15.8867 77.3763C15.8428 77.5741 15.7331 77.772 15.6015 77.9259C15.3382 78.2337 14.9433 78.3876 14.5483 78.3216C14.9213 78.4975 15.426 78.2557 15.426 78.2557C15.3382 78.4975 15.2724 78.7393 15.2285 78.9812C15.6454 78.0358 16.0184 77.7061 16.15 77.5961C16.3255 77.6401 16.6985 77.6181 17.3787 77.2224C18.1466 76.7827 19.3095 76.0572 19.6386 75.5955C19.9896 75.1339 20.4504 74.7601 20.9989 74.5623C20.9989 73.9027 20.977 73.2872 20.977 72.7595ZM17.7297 75.6835L17.3348 75.7714L17.8175 74.98L18.366 75.0019L17.7297 75.6835Z" fill="#009EDB"/>
<path d="M22.5773 91.7317C22.5114 91.7537 22.314 91.8417 22.1823 91.8856C22.0507 91.9296 21.8971 91.9956 21.8971 92.0395C21.8971 92.0395 22.0287 98.8108 22.0287 98.9427C22.0287 100.328 22.7308 100.35 22.7308 98.9427C22.7308 98.8548 22.8844 91.6218 22.8844 91.6218C22.8844 91.6218 22.687 91.6878 22.5773 91.7317Z" fill="#009EDB"/>
<path d="M21.8317 89.4895C22.0511 89.4236 22.2705 89.3356 22.468 89.2917C22.6216 89.2477 22.7532 89.2037 22.9068 89.1598C22.9068 88.742 23.0385 82.8502 23.0604 81.7949C22.5996 81.9048 22.1389 82.0368 21.7001 82.1906C21.722 82.9821 21.8317 88.852 21.8317 89.4895Z" fill="#009EDB"/>
<path d="M22.424 66.9993C20.4494 66.9993 21.2831 69.9452 21.4367 70.9125C21.4367 70.9565 21.5903 77.5738 21.6342 79.0908C21.9414 79.0028 22.2266 78.9369 22.5337 78.8709L23.1261 78.717C23.1481 77.2441 23.3017 70.9345 23.3017 70.8905C23.4333 69.8792 24.4645 66.9993 22.424 66.9993Z" fill="#009EDB"/>
</g>
<mask id="mask0_2638_10211" style="mask-type:luminance" maskUnits="userSpaceOnUse" x="0" y="0" width="83" height="19">
<path d="M83 0H0V19H83V0Z" fill="white"/>
</mask>
<g mask="url(#mask0_2638_10211)">
<path d="M48.152 16.8198C48.152 16.9731 48.201 17.062 48.293 17.062C48.37 17.062 48.434 17.0217 48.492 16.9812L74.361 0.645945C74.798 0.348745 75.321 0.195845 75.854 0.209845H81.539C82.411 0.209845 83 0.774944 83 1.62294V12.1847C83 13.4604 82.71 14.2035 81.548 14.8816L74.651 18.9191C74.582 18.9656 74.501 18.9999 74.419 18.9999C74.337 18.9999 74.253 18.9353 74.253 18.7012V6.37914C74.253 6.23364 74.211 6.13684 74.112 6.13684C74.039 6.13684 73.97 6.17314 73.912 6.21764L55.007 18.1685C54.575 18.451 54.069 18.6046 53.554 18.5965H41.023C40.143 18.5965 39.562 18.0314 39.562 17.1753V1.95434C39.562 1.84134 39.512 1.73644 39.412 1.73644C39.34 1.73644 39.271 1.77335 39.213 1.81725L26.74 9.10035C26.615 9.18115 26.582 9.23774 26.582 9.29424C26.582 9.34264 26.607 9.39104 26.69 9.47994L35.603 18.1441C35.72 18.2572 35.803 18.3461 35.803 18.4429C35.803 18.5238 35.67 18.5884 35.512 18.5884H27.462C26.831 18.5884 26.341 18.4994 26.001 18.1685L20.599 12.9199C20.557 12.8717 20.498 12.839 20.433 12.839C20.374 12.839 20.317 12.8583 20.267 12.8874L11.237 18.1685C10.69 18.4916 10.316 18.5803 9.77698 18.5803H1.46899C0.580994 18.5884 0 18.0151 0 17.1672V6.80714C0 5.52334 0.290999 4.78844 1.461 4.11024L8.39899 0.0567455C8.45299 0.0210455 8.51603 0.00144414 8.58203 0.000244141C8.68903 0.000244141 8.74799 0.105144 8.74799 0.339344V14.2118C8.74799 14.3573 8.78098 14.4216 8.88898 14.4216C8.96198 14.4216 9.03001 14.3813 9.09601 14.3408L32.533 0.621645C32.981 0.322845 33.529 0.177644 34.077 0.201744H46.692C47.563 0.201744 48.152 0.766845 48.152 1.61485L48.144 16.8198H48.152Z" fill="#131E29"/>
</g>
<path fill-rule="evenodd" clip-rule="evenodd" d="M258.616 1.29399H263.128V7.84169H272.267V1.29399H276.78V17.649H272.267V10.4339H263.128V17.649H258.616V1.29399ZM174 1.29399H178.514V7.84169H187.652V1.29399H192.193V17.649H187.652V10.4339H178.514V17.649H174V1.29399ZM195.926 1.29399H200.496V17.649H195.926V1.29399ZM280.43 1.29399H285V17.649H280.43V1.29399ZM202.168 1.29399H219.916V4.01959H213.285V17.649H208.799V4.01959H202.168V1.29399ZM223.816 11.3956L226.964 4.09969L230.085 11.3956H223.816ZM231.227 13.9877L232.788 17.649H237.887L229.835 1.32059H224.123L216.015 17.649H221.085L222.674 13.9877H231.227ZM251.622 6.85259H256.248C256.191 3.88609 253.516 1.05369 247.303 1.00029C242.679 0.973589 237.078 2.79089 237.049 9.44479C237.022 16.0453 242.734 18.1029 247.303 17.9961C251.51 17.8626 256.191 16.7407 256.387 11.77L251.733 11.7967C251.594 14.8974 249.003 15.5114 247.304 15.5381C245.548 15.5381 241.954 15.191 241.899 9.52549C241.844 4.18109 245.131 3.43289 247.304 3.43289C249.449 3.45899 251.594 4.42129 251.622 6.85259Z" fill="#CF4044"/>
<g clip-path="url(#clip1_2638_10211)">
<mask id="mask1_2638_10211" style="mask-type:luminance" maskUnits="userSpaceOnUse" x="34" y="40" width="276" height="208">
<path d="M34.432 247.767H309.843V40.5178H34.432V247.767Z" fill="white"/>
</mask>
<g mask="url(#mask1_2638_10211)">
<path d="M251.452 83.9527L251.229 86.6449H250.133C248.384 86.6449 247.474 88.052 247.474 89.4005V95.4808H244.374V83.9527H247.311L247.377 85.3916C247.994 84.4049 249.072 83.9527 250.402 83.9527H251.452ZM229.955 95.4807H226.851V89.3864C226.851 88.1101 226.742 86.5038 224.952 86.5038C223.229 86.5038 222.543 87.7515 222.543 89.2043V95.4807H219.44V83.9526H222.317L222.383 85.4264C222.999 84.4397 224.147 83.6714 225.841 83.6714C228.968 83.6714 229.955 85.9113 229.955 88.2424V95.4807ZM218.087 92.7878L217.87 95.4109C217.126 95.6111 216.465 95.683 215.666 95.683C212.742 95.683 211.894 94.3376 211.894 91.6336V80.7018H214.997V83.9529H218.085L217.87 86.6446H214.997V91.3995C214.997 92.4846 215.293 93.0708 216.403 93.0708C216.885 93.0708 217.422 93.0125 218.087 92.7878ZM210.875 83.9527L210.634 86.6449H209.791C208.045 86.6449 207.177 88.0502 207.177 89.4005V95.4808H204.073V83.9527H207.011L207.073 85.3916C207.692 84.4049 208.771 83.9527 210.102 83.9527H210.875ZM190.069 94.2036C187.964 95.3333 185.861 95.9851 183.084 95.9041C177.936 95.7464 174.222 92.539 174.222 87.1212C174.222 81.7271 177.972 78.2806 183.087 78.1997C185.68 78.1599 188 78.8201 189.813 80.4257L187.629 82.643C186.506 81.6832 184.855 81.1221 182.882 81.2118C179.663 81.3622 177.724 83.7092 177.681 86.9363C177.639 90.4326 179.776 92.8422 183.116 92.9301C184.688 92.9695 185.814 92.7577 186.788 92.3188V88.745H183.316L183.551 85.8138H190.069V94.2036ZM242.988 90.8123H234.48C234.722 92.2854 235.876 93.1716 237.313 93.2117C238.71 93.2497 239.492 92.8262 240.514 91.7878L242.539 93.337C241.1 95.1153 239.373 95.7626 237.406 95.7626C233.946 95.7626 231.354 93.3352 231.354 89.7164C231.354 86.1014 233.933 83.6713 237.277 83.6713C240.962 83.6713 242.988 85.9113 242.988 89.8874V90.8123ZM239.879 88.4021C239.784 86.9457 238.696 86.025 237.198 86.0836C235.691 86.1408 234.687 87.1258 234.48 88.4021H239.879ZM202.119 87.9318V95.4807H199.383L199.316 94.344C198.476 95.3872 197.113 95.7626 195.71 95.7626C193.597 95.7626 191.601 94.7173 191.559 92.2827C191.496 88.4559 195.852 88.1841 198.587 88.1841H199.134V88.0327C199.134 86.7672 198.299 86.0837 196.728 86.0837C195.6 86.0837 194.486 86.5376 193.663 87.3122L191.872 85.487C193.498 84.1647 195.189 83.6714 196.991 83.6714C200.55 83.6714 202.119 85.3217 202.119 87.9318ZM199.134 90.4534H198.702C197.233 90.4565 194.652 90.5291 194.662 92.0705C194.676 94.2421 199.134 93.552 199.134 90.9331V90.4534ZM249.032 94.1397C249.032 93.406 249.584 92.853 250.291 92.853C250.99 92.853 251.543 93.406 251.543 94.1397C251.543 94.8864 250.99 95.4377 250.291 95.4377C249.584 95.4377 249.032 94.8864 249.032 94.1397ZM250.291 95.6955C251.134 95.6955 251.853 95.0389 251.853 94.1397C251.853 93.2497 251.134 92.5944 250.291 92.5944C249.441 92.5944 248.722 93.2497 248.722 94.1397C248.722 95.0389 249.441 95.6955 250.291 95.6955ZM249.964 94.2639H250.275L250.744 95.0389H251.048L250.541 94.2514C250.803 94.2193 251.003 94.0783 251.003 93.7584C251.003 93.406 250.794 93.2497 250.373 93.2497H249.695V95.0389H249.964V94.2639ZM249.964 94.0333V93.4803H250.332C250.52 93.4803 250.72 93.5211 250.72 93.7427C250.72 94.0173 250.516 94.0333 250.288 94.0333H249.964Z" fill="#182954"/>
</g>
</g>
<path d="M34.1227 177.308C33.8094 178.382 33.0483 180.085 31.7269 183.046L30.207 186.423C30.3892 186.397 30.5744 186.345 30.7959 186.345C31.0057 186.345 31.2558 186.397 31.425 186.423C31.6334 185.677 32.053 184.589 32.4712 183.582C32.9956 183.555 33.5207 183.53 34.0437 183.53C34.6074 183.53 35.1578 183.555 35.7228 183.582L36.2703 184.971L36.8217 186.423C37.0576 186.41 37.4245 186.345 37.7902 186.345C38.1573 186.345 38.6161 186.41 38.8127 186.423C38.2228 185.153 37.3573 183.174 36.8605 182.035C36.3886 180.936 35.6026 179.103 34.9747 177.308C34.8305 177.348 34.6991 177.375 34.5562 177.375C34.3989 177.375 34.2669 177.348 34.1227 177.308ZM66.5668 177.308C66.2535 178.382 65.4925 180.085 64.1698 183.046L62.6511 186.423C62.836 186.397 63.0172 186.345 63.2401 186.345C63.4498 186.345 63.6986 186.397 63.8703 186.423C64.0788 185.677 64.4997 184.589 64.9178 183.582C65.4409 183.555 65.9648 183.53 66.4879 183.53C67.0515 183.53 67.6007 183.555 68.1644 183.582L68.7145 184.971L69.2645 186.423C69.5018 186.41 69.8686 186.345 70.2343 186.345C70.6014 186.345 71.0602 186.41 71.2555 186.423C70.667 185.153 69.8015 183.174 69.3034 182.035C68.8314 180.936 68.0468 179.103 67.4188 177.308C67.2746 177.348 67.1433 177.375 66.9991 177.375C66.8431 177.375 66.711 177.348 66.5668 177.308ZM81.5954 177.335C79.224 177.335 78.543 178.801 78.543 179.952C78.543 181.04 78.9243 181.709 80.1933 182.272C80.559 182.429 81.177 182.663 81.5427 182.822C81.7918 182.925 82.6178 183.291 82.6178 184.327C82.6178 185.27 81.9342 185.965 80.9012 185.965C80.1278 185.965 79.473 185.769 78.8713 184.459H78.6871C78.6229 185.087 78.6093 185.258 78.3864 185.938C78.8583 186.174 79.71 186.607 80.8348 186.607C83.2324 186.607 84.1615 185.076 84.1615 183.739C84.1615 183.372 84.0705 182.598 83.5212 182.01C83.1411 181.59 82.7475 181.447 81.7395 181.054C80.5885 180.608 79.9188 180.345 79.9188 179.39C79.9188 178.618 80.4295 177.975 81.4638 177.975C82.2884 177.975 82.9851 178.369 83.1804 179.115H83.3634C83.4813 178.618 83.5072 178.513 83.7693 177.871C83.127 177.584 82.551 177.335 81.5954 177.335ZM39.8289 177.439C39.96 178.708 39.9604 179.639 39.9604 180.465C39.9604 182.704 39.9605 184.865 39.8163 186.423C40.1061 186.411 40.4715 186.345 40.7586 186.345C41.0601 186.345 41.3743 186.411 41.6758 186.423C41.5709 185.362 41.5455 183.948 41.5455 181.997C41.5455 180.673 41.5454 178.409 41.6896 177.439C41.375 177.478 41.0483 177.519 40.7586 177.519C40.5633 177.519 40.0766 177.466 39.8289 177.439ZM43.8999 177.439C43.9903 179.129 43.9901 179.311 43.9901 181.027C43.9901 183.553 43.9771 183.843 43.8736 186.423C44.162 186.385 44.4769 186.345 44.7758 186.345C45.1048 186.345 45.3919 186.397 45.6541 186.423C45.6541 186.083 45.6015 184.393 45.6015 184.013V182.154H45.916C46.6239 183.149 47.4339 184.301 48.1025 185.336C48.2991 185.637 48.5875 186.123 48.7841 186.423C49.1774 186.37 49.3354 186.345 49.8467 186.345C50.3173 186.345 50.645 186.385 51.0107 186.423C50.1862 185.39 49.8309 184.931 48.7979 183.477C48.6013 183.202 48.3129 182.769 48.1163 182.495L47.7491 181.971C48.9421 181.748 50.0284 181 50.0284 179.548C50.0284 178.997 49.8189 178.46 49.4269 178.08C48.8645 177.544 48.2215 177.439 47.3707 177.439C47.0692 177.439 45.5488 177.504 45.2093 177.504C44.5407 177.504 44.2001 177.466 43.8999 177.439ZM50.7601 177.439C51.2976 178.853 51.7543 180.109 52.1096 181.105C52.7126 182.808 53.1049 183.989 53.5769 185.427L53.9027 186.423C54.0862 186.385 54.2947 186.345 54.4402 186.345C54.5844 186.345 54.7161 186.37 54.9376 186.423C55.1474 185.742 55.3968 184.904 55.5817 184.367C56.0903 182.874 56.1561 182.664 56.8247 180.806L57.2169 179.719C57.3611 180.137 57.6103 180.806 57.7531 181.224C57.8973 181.63 58.5657 183.634 58.723 184.08C58.9327 184.668 58.9847 184.838 59.4698 186.423C59.5877 186.41 59.8344 186.345 60.0324 186.345C60.2159 186.345 60.3595 186.385 60.5561 186.423C61.0543 184.865 61.1064 184.709 61.8392 182.612C62.5602 180.569 63.0049 179.404 63.7901 177.439C63.5935 177.491 63.3992 177.518 63.2012 177.518C62.9521 177.518 62.744 177.478 62.5998 177.439C62.1279 179.142 61.8936 179.968 61.5134 181.093C60.8973 182.925 60.8184 183.135 60.4396 184.131C60.0201 183.005 59.6131 181.865 59.2329 180.714C59.0245 180.085 58.2235 177.466 58.2117 177.439C58.0295 177.478 57.8975 177.518 57.6354 177.518C57.402 177.518 57.2293 177.466 57.0602 177.439C56.667 179.037 55.278 182.888 55.1469 183.241L54.8199 184.092L54.5705 183.359C53.957 181.538 53.1049 178.984 52.6985 177.439C52.3708 177.491 52.0841 177.518 51.7826 177.518C51.4679 177.518 51.0223 177.466 50.7601 177.439ZM69.9173 177.439C70.5977 178.578 71.711 180.385 72.3782 181.537L73.1513 182.874C73.1513 183.687 73.1117 185.402 73.0737 186.423C73.3214 186.397 73.6886 186.345 73.9495 186.345C74.251 186.345 74.5539 186.397 74.8554 186.423C74.8017 185.205 74.7615 184.498 74.7615 183.397V182.913C74.7615 182.797 74.8401 182.652 74.9319 182.493C75.4824 181.551 75.9934 180.568 76.5833 179.625C76.7787 179.311 77.7349 177.793 77.9328 177.439C77.7873 177.491 77.6436 177.519 77.3828 177.519C77.093 177.519 76.8307 177.478 76.6209 177.439C75.6784 179.509 75.4684 179.953 74.3567 181.866C73.2438 179.915 72.7454 178.881 72.0637 177.439C71.6849 177.504 71.3045 177.519 70.9912 177.519C70.7028 177.519 70.4011 177.491 69.9173 177.439ZM46.5325 178.08C46.9637 178.08 47.3978 178.146 47.7491 178.409C48.2079 178.748 48.2992 179.22 48.2992 179.771C48.2992 180.62 47.8157 181.579 46.5062 181.579C46.1653 181.579 45.8505 181.55 45.6015 181.537V178.147C45.7981 178.132 46.2834 178.08 46.5325 178.08ZM34.1101 179.548L35.3406 182.769C34.9355 182.797 34.5428 182.822 34.1365 182.822C33.6776 182.822 33.2333 182.782 32.7744 182.769L34.1101 179.548ZM66.553 179.548L67.786 182.769C67.3796 182.797 66.987 182.822 66.5793 182.822C66.1218 182.822 65.6761 182.782 65.2186 182.769L66.553 179.548Z" fill="#505967"/>
<path d="M44.5339 145.6C43.5901 148.823 41.3122 153.931 37.3441 162.81L32.7845 172.947C33.335 172.869 33.8852 172.711 34.5524 172.711C35.1804 172.711 35.9295 172.869 36.4395 172.947C37.0674 170.706 38.3274 167.446 39.5833 164.42C41.1537 164.343 42.7253 164.265 44.2971 164.265C45.9868 164.265 47.6369 164.343 49.3279 164.42L50.9756 168.586L52.6271 172.947C53.3336 172.907 54.4355 172.711 55.5341 172.711C56.6365 172.711 58.0089 172.907 58.6002 172.947C56.8318 169.136 54.238 163.203 52.7436 159.784C51.3292 156.484 48.9726 150.982 47.0875 145.6C46.6549 145.719 46.262 145.798 45.8308 145.798C45.3588 145.798 44.9652 145.719 44.5339 145.6ZM88.2764 145.6C87.3352 148.823 85.0548 153.931 81.0854 162.81L76.5294 172.947C77.0787 172.869 77.6302 172.711 78.2974 172.711C78.9254 172.711 79.6719 172.869 80.1845 172.947C80.8137 170.706 82.0686 167.446 83.3257 164.42C84.8962 164.343 86.469 164.265 88.0421 164.265C89.7318 164.265 91.382 164.343 93.0704 164.42L94.7206 168.586L96.3708 172.947C97.0774 172.907 98.1792 172.711 99.279 172.711C100.379 172.711 101.754 172.907 102.344 172.947C100.576 169.136 97.9817 163.203 96.4886 159.784C95.0741 156.484 92.7163 150.982 90.8313 145.6C90.3987 145.719 90.0058 145.798 89.5745 145.798C89.1026 145.798 88.709 145.719 88.2764 145.6ZM15.32 145.68C7.3852 145.68 0.548339 150.08 0.54834 160.06C0.54834 162.179 1.02037 166.188 4.31989 169.529C7.7387 172.987 11.7847 173.497 15.2035 173.497C15.6348 173.497 16.0665 173.497 16.5004 173.459L25.497 180.492C26.6755 179.666 28.5229 178.645 29.8587 178.055L20.9799 172.553C26.4398 170.629 29.8587 165.756 29.8587 159.116C29.8587 149.688 22.6676 145.68 15.32 145.68ZM56.9763 145.995C57.0956 146.466 57.173 146.976 57.173 147.448C57.173 147.92 57.0956 148.43 56.9763 148.9C58.9819 148.705 62.7533 148.626 63.106 148.626H65.0719C65.1113 150.16 65.1496 151.534 65.1496 152.988L65.1897 163.949C65.1897 166.936 64.9549 169.962 64.7963 172.947C66.2107 172.791 66.8004 172.711 67.4677 172.711C67.9396 172.711 69.1966 172.83 70.3371 172.947C70.2178 171.848 70.0614 170.55 70.0614 167.565V153.028C70.0614 151.535 70.0998 150.042 70.1391 148.626C72.85 148.626 75.6415 148.666 77.9591 148.9C77.8411 148.272 77.7624 147.919 77.7624 147.487C77.7624 147.172 77.8411 146.66 77.9591 145.995C74.1877 146.19 70.7292 146.229 67.4677 146.229C64.4421 146.229 60.0805 146.19 56.9763 145.995ZM106.615 145.995C106.889 151.062 106.89 151.611 106.89 156.758C106.89 164.343 106.85 165.206 106.536 172.947C107.4 172.83 108.344 172.711 109.247 172.711C110.229 172.711 111.094 172.869 111.879 172.947C111.879 171.924 111.723 166.857 111.723 165.717V160.137H112.666C114.787 163.123 117.225 166.582 119.228 169.686C119.817 170.591 120.681 172.045 121.269 172.947C122.449 172.791 122.921 172.711 124.452 172.711C125.866 172.711 126.849 172.83 127.949 172.947C125.474 169.844 124.415 168.468 121.309 164.107C120.72 163.281 119.856 161.984 119.266 161.16L118.167 159.59C121.742 158.921 125.003 156.682 125.003 152.32C125.003 150.669 124.374 149.058 123.194 147.92C121.506 146.309 119.58 145.995 117.027 145.995C116.122 145.995 111.566 146.19 110.544 146.19C108.539 146.19 107.517 146.072 106.615 145.995ZM15.2436 147.682C21.6867 147.682 24.4758 153.027 24.4758 158.724C24.4758 161.984 24.082 165.05 22.471 167.526C20.8599 170 18.1901 171.493 15.2812 171.493C8.0136 171.493 5.93001 164.577 5.93001 160.255C5.93001 150.355 11.2349 147.682 15.2436 147.682ZM114.512 147.92C115.808 147.92 117.104 148.115 118.167 148.9C119.541 149.923 119.816 151.336 119.816 152.988C119.816 155.541 118.363 158.411 114.434 158.411C113.412 158.411 112.469 158.33 111.723 158.293V148.116C112.311 148.078 113.765 147.92 114.512 147.92ZM44.4951 152.32L48.1877 161.985C46.9685 162.065 45.7907 162.143 44.5702 162.143C43.1964 162.143 41.8605 162.025 40.4867 161.985L44.4951 152.32ZM88.2375 152.32L91.9314 161.985C90.7136 162.065 89.5343 162.143 88.3165 162.143C86.94 162.143 85.6056 162.025 84.2292 161.985L88.2375 152.32ZM118.397 177.439C117.814 177.439 117.656 177.695 117.656 178.164C117.656 178.634 117.864 178.797 118.397 178.797C118.936 178.797 119.315 178.59 119.315 178.164C119.315 177.741 119.065 177.439 118.397 177.439ZM120.472 177.439C119.885 177.439 119.729 177.695 119.729 178.164C119.729 178.634 119.93 178.797 120.472 178.797C121.007 178.797 121.383 178.59 121.383 178.164C121.383 177.741 121.133 177.439 120.472 177.439ZM87.888 177.562C87.2994 177.562 87.1424 177.819 87.1424 178.287C87.1424 178.759 87.3466 178.924 87.888 178.924C88.4228 178.924 88.8001 178.713 88.8001 178.287C88.8001 177.86 88.55 177.562 87.888 177.562ZM89.8865 177.562C89.2953 177.562 89.1397 177.819 89.1397 178.287C89.1397 178.759 89.3438 178.924 89.8865 178.924C90.4266 178.924 90.7912 178.713 90.7912 178.287C90.7912 177.86 90.5446 177.562 89.8865 177.562ZM104.74 177.613C104.74 177.613 103.831 178.251 103.163 178.758C102.497 179.265 103.163 179.606 103.163 179.606V185.008H101.258L101.217 180.372C101.217 180.372 99.891 181.341 99.5108 181.636C99.1399 181.93 99.3459 182.191 99.7614 182.191C99.7614 182.191 99.685 185.614 99.685 186.422C99.685 187.234 99.0118 188.163 97.6 187.741C97.6 187.741 97.1525 187.828 97.5248 188.166C97.8958 188.503 98.3434 188.76 98.8455 188.76C99.3449 188.76 101.175 188.414 101.175 186.422H125.161V177.781C125.161 177.781 123.749 178.713 123.458 178.966C123.166 179.219 123.251 179.523 123.627 179.479V185.008H121.557V179.987C121.557 179.987 121.133 180.149 120.553 180.406C119.977 180.667 117.896 181.513 117.896 182.656V183.977H120.016V185.008H114.985C114.989 184.766 114.994 184.409 114.994 183.885C114.994 182.238 113.591 181.341 112.342 181.341H106.525C105.507 181.341 105.015 181.588 104.74 181.869L104.74 177.613ZM127.904 177.786C127.904 177.786 126.488 178.721 126.201 178.972C125.909 179.225 125.994 179.528 126.365 179.486V186.432H127.904V177.786ZM91.4277 178.544C91.4277 178.544 89.7194 180.114 89.5595 180.322C89.3943 180.545 89.9654 180.747 89.9654 180.747L89.869 181.359C89.869 181.359 89.1887 181.712 88.3628 182.27C87.5422 182.822 86.9332 183.527 86.9332 184.015C86.9332 184.504 86.7264 186.422 86.7264 186.422H97.59V181.287C97.59 181.287 96.6087 181.851 95.9874 182.404C95.37 182.952 96.1139 183.16 96.1139 183.16V185.008H91.4277L91.4277 178.544ZM120.016 182.017V182.867H119.02C119.02 182.32 120.016 182.017 120.016 182.017ZM105.941 182.823H112.298C113.67 182.823 113.458 183.545 113.458 184.015C113.458 184.266 113.446 184.677 113.434 185.008H104.74V183.48C104.966 182.891 105.349 182.823 105.941 182.823ZM89.9266 182.952V185.008H88.3115C88.3115 185.008 88.0939 184.014 88.6786 183.634C89.2659 183.248 89.9266 182.952 89.9266 182.952ZM92.9125 186.978C92.3279 186.978 92.167 187.228 92.167 187.698C92.167 188.165 92.3737 188.336 92.9125 188.336C93.4474 188.336 93.826 188.123 93.826 187.698C93.826 187.27 93.5798 186.978 92.9125 186.978ZM94.9887 186.978C94.4041 186.978 94.2445 187.228 94.2445 187.698C94.2445 188.165 94.4565 188.336 94.9887 188.336C95.5314 188.336 95.9047 188.123 95.9047 187.698C95.9047 187.27 95.6586 186.978 94.9887 186.978Z" fill="#5C0632"/>
<defs>
<clipPath id="clip0_2638_10211">
<rect width="129.077" height="39.5942" fill="white" transform="translate(0 67)"/>
</clipPath>
<clipPath id="clip1_2638_10211">
<rect width="78" height="18" fill="white" transform="translate(174 78)"/>
</clipPath>
</defs>
</svg>
