<svg width="79" height="18" viewBox="0 0 79 18" fill="none" xmlns="http://www.w3.org/2000/svg">
<path d="M77.6965 5.95393L77.4729 8.64608H76.3772C74.6277 8.64608 73.7184 10.0532 73.7184 11.4017V17.4821H70.6175V5.95393H73.5546L73.6213 7.39281C74.2375 6.40611 75.3159 5.95393 76.6456 5.95393H77.6965ZM56.199 17.482H53.0955V11.3877C53.0955 10.1114 52.9856 8.50502 51.1964 8.50502C49.4734 8.50502 48.7869 9.7527 48.7869 11.2055V17.482H45.6844V5.95383H48.5609L48.6266 7.4276C49.2432 6.4409 50.3914 5.67261 52.0853 5.67261C55.2122 5.67261 56.199 7.91257 56.199 10.2436V17.482ZM44.3311 14.789L44.1142 17.4121C43.37 17.6124 42.7093 17.6842 41.9098 17.6842C38.9857 17.6842 38.1375 16.3389 38.1375 13.6349V2.70299H41.2408V5.95407H44.3287L44.1142 8.64587H41.2408V13.4007C41.2408 14.4858 41.5374 15.072 42.6467 15.072C43.129 15.072 43.6656 15.0137 44.3311 14.789ZM37.1186 5.95393L36.8783 8.64608H36.035C34.289 8.64608 33.4207 10.0515 33.4207 11.4017V17.4821H30.3171V5.95393H33.2555L33.3167 7.39281C33.9364 6.40611 35.0147 5.95393 36.3462 5.95393H37.1186ZM16.3127 16.2048C14.2079 17.3346 12.1054 17.9863 9.32835 17.9054C4.18004 17.7477 0.46582 14.5402 0.46582 9.12239C0.46582 3.72834 4.21586 0.281868 9.33079 0.200922C11.9235 0.161148 14.2437 0.821276 16.0571 2.42693L13.8726 4.64421C12.7505 3.68438 11.0994 3.12334 9.12631 3.21301C5.90727 3.36339 3.96757 5.71046 3.9248 8.93748C3.88272 12.4338 6.01959 14.8434 9.35999 14.9313C10.9318 14.9707 12.0578 14.7589 13.0321 14.32V10.7462H9.5603L9.79467 7.81506H16.3127V16.2048ZM69.2317 12.8135H60.7235C60.9659 14.2866 62.12 15.1728 63.5573 15.2129C64.9545 15.251 65.7362 14.8274 66.7582 13.7891L68.7831 15.3382C67.3441 17.1166 65.6173 17.7638 63.6501 17.7638C60.1901 17.7638 57.598 15.3364 57.598 11.7176C57.598 8.10262 60.1772 5.6725 63.5207 5.6725C67.2057 5.6725 69.2317 7.91247 69.2317 11.8886V12.8135ZM66.1229 10.4033C66.0276 8.94697 64.9402 8.02621 63.4425 8.08483C61.935 8.14205 60.9315 9.127 60.7235 10.4033H66.1229ZM28.3634 9.93305V17.4819H25.6274L25.5596 16.3452C24.7201 17.3884 23.3573 17.7639 21.9542 17.7639C19.8413 17.7639 17.8449 16.7185 17.8032 14.2839C17.7403 10.4571 22.0957 10.1853 24.8311 10.1853H25.3777V10.0339C25.3777 8.7684 24.5431 8.0849 22.9717 8.0849C21.8436 8.0849 20.7302 8.53883 19.9067 9.31339L18.1162 7.48827C19.7419 6.16592 21.4333 5.67258 23.2353 5.67258C26.7944 5.67258 28.3634 7.32289 28.3634 9.93305ZM25.3777 12.4546H24.9462C23.477 12.4577 20.8964 12.5303 20.9061 14.0717C20.92 16.2433 25.3777 15.5532 25.3777 12.9343V12.4546ZM75.2758 16.141C75.2758 15.4072 75.8276 14.8542 76.5353 14.8542C77.2343 14.8542 77.7872 15.4072 77.7872 16.141C77.7872 16.8876 77.2343 17.4389 76.5353 17.4389C75.8276 17.4389 75.2758 16.8876 75.2758 16.141ZM76.5353 17.6967C77.3779 17.6967 78.0967 17.0401 78.0967 16.141C78.0967 15.2509 77.3779 14.5957 76.5353 14.5957C75.6851 14.5957 74.9656 15.2509 74.9656 16.141C74.9656 17.0401 75.6851 17.6967 76.5353 17.6967ZM76.2081 16.2652H76.5193L76.9884 17.0401H77.2916L76.785 16.2526C77.0468 16.2205 77.2468 16.0795 77.2468 15.7596C77.2468 15.4072 77.0385 15.2509 76.617 15.2509H75.9389V17.0401H76.2081V16.2652ZM76.2081 16.0345V15.4815H76.5756C76.7641 15.4815 76.9644 15.5224 76.9644 15.7439C76.9644 16.0185 76.7599 16.0345 76.5318 16.0345H76.2081Z" fill="#182954"/>
</svg>
