<svg width="20" height="20" viewBox="0 0 20 20" fill="none" xmlns="http://www.w3.org/2000/svg">
<g clip-path="url(#clip0_454_3144)">
<path opacity="0.5" d="M20 10C20 4.47715 15.5228 0 10 0C4.47715 0 0 4.47715 0 10C0 15.5228 4.47715 20 10 20C15.5228 20 20 15.5228 20 10Z" fill="white"/>
<path d="M16.6668 10C16.6668 6.31814 13.6821 3.33337 10.0002 3.33337C6.31826 3.33337 3.3335 6.31814 3.3335 10C3.3335 13.6819 6.31826 16.6667 10.0002 16.6667C13.6821 16.6667 16.6668 13.6819 16.6668 10Z" fill="white"/>
<path d="M6.6665 10.0008L8.8885 12.2237L13.3332 7.77795" stroke="#0400F5" stroke-width="2"/>
<path d="M6.6665 9.9995L8.8885 12.2224L13.3332 7.77661" stroke="#0400F5" stroke-width="2"/>
</g>
<defs>
<clipPath id="clip0_454_3144">
<rect width="20" height="20" rx="10" fill="white"/>
</clipPath>
</defs>
</svg>
