<svg width="92" height="52" viewBox="0 0 92 52" fill="none" xmlns="http://www.w3.org/2000/svg">
<g opacity="0.6">
<path opacity="0.6" d="M6.20467 0.696688C3.0849 0.696688 0.555819 3.22576 0.555819 6.34554V45.9254C0.555819 49.0452 3.08489 51.5743 6.20466 51.5743H85.6546C88.7744 51.5743 91.3034 49.0452 91.3034 45.9254V6.34554C91.3034 3.22577 88.7744 0.696688 85.6546 0.696688H6.20467Z" fill="#143CBF" stroke="#113ABE" stroke-width="0.606623"/>
</g>
<path d="M70.1229 27.7706H69.3586V29.0977H68.4683V27.7706H65.8898V27.0651L68.4599 23.0756H69.3586V27.0147H70.1229V27.7706ZM68.4683 25.3853C68.4683 25.2509 68.4683 25.1221 68.4683 24.999C68.4739 24.8758 68.4795 24.7582 68.4851 24.6462C68.4907 24.5286 68.4935 24.4222 68.4935 24.327C68.4991 24.2263 68.5047 24.1367 68.5103 24.0583H68.4767C68.4319 24.1703 68.3787 24.2851 68.3171 24.4026C68.2611 24.5202 68.2051 24.6238 68.1491 24.7134L66.7381 27.0147H68.4683V25.3853ZM70.7785 28.6021C70.7785 28.3837 70.8317 28.2298 70.9381 28.1402C71.0501 28.0506 71.1873 28.0058 71.3497 28.0058C71.5065 28.0058 71.6408 28.0506 71.7528 28.1402C71.8704 28.2298 71.9292 28.3837 71.9292 28.6021C71.9292 28.8205 71.8704 28.9773 71.7528 29.0725C71.6408 29.1676 71.5065 29.2152 71.3497 29.2152C71.1873 29.2152 71.0501 29.1676 70.9381 29.0725C70.8317 28.9773 70.7785 28.8205 70.7785 28.6021ZM74.7075 23.0168C75.0434 23.0168 75.3402 23.0728 75.5978 23.1848C75.8609 23.2912 76.0653 23.4508 76.2109 23.6635C76.3621 23.8763 76.4377 24.1423 76.4377 24.4614C76.4377 24.7022 76.3901 24.9122 76.2949 25.0914C76.2053 25.2705 76.0793 25.4301 75.9169 25.5701C75.7602 25.7045 75.5866 25.8221 75.3962 25.9228C75.6146 26.0404 75.8161 26.1748 76.0009 26.326C76.1857 26.4716 76.3341 26.6424 76.4461 26.8383C76.5637 27.0343 76.6224 27.2695 76.6224 27.5438C76.6224 27.8798 76.5441 28.171 76.3873 28.4173C76.2361 28.6581 76.0177 28.8457 75.7322 28.9801C75.4466 29.1145 75.1078 29.1816 74.7159 29.1816C74.2959 29.1816 73.9404 29.1173 73.6492 28.9885C73.3637 28.8597 73.1481 28.6777 73.0025 28.4425C72.8569 28.2018 72.7841 27.9106 72.7841 27.569C72.7841 27.2947 72.8345 27.0567 72.9353 26.8551C73.0417 26.6536 73.1789 26.48 73.3469 26.3344C73.5204 26.1888 73.7108 26.0656 73.918 25.9648C73.7388 25.8529 73.5764 25.7269 73.4308 25.5869C73.2853 25.4413 73.1705 25.2761 73.0865 25.0914C73.0081 24.9066 72.9689 24.6938 72.9689 24.453C72.9689 24.1395 73.0445 23.8791 73.1957 23.6719C73.3469 23.4592 73.554 23.2968 73.8172 23.1848C74.0804 23.0728 74.3771 23.0168 74.7075 23.0168ZM73.6576 27.5522C73.6576 27.8266 73.7444 28.0534 73.918 28.2326C74.0916 28.4061 74.3519 28.4929 74.6991 28.4929C74.9343 28.4929 75.1274 28.4537 75.2786 28.3753C75.4298 28.2914 75.5446 28.1794 75.623 28.0394C75.707 27.8938 75.749 27.7286 75.749 27.5438C75.749 27.3591 75.7042 27.1967 75.6146 27.0567C75.525 26.9167 75.4018 26.7935 75.245 26.6872C75.0938 26.5752 74.9203 26.4744 74.7243 26.3848L74.6151 26.3344C74.4135 26.4296 74.2399 26.536 74.0944 26.6536C73.9544 26.7711 73.8452 26.9027 73.7668 27.0483C73.694 27.1939 73.6576 27.3619 73.6576 27.5522ZM74.6907 23.7139C74.4443 23.7139 74.2399 23.7811 74.0776 23.9155C73.9208 24.0499 73.8424 24.2459 73.8424 24.5034C73.8424 24.6882 73.8816 24.845 73.96 24.9738C74.044 25.1025 74.1504 25.2145 74.2791 25.3097C74.4135 25.3993 74.5591 25.4861 74.7159 25.5701C74.8727 25.4917 75.0126 25.4077 75.1358 25.3181C75.2646 25.2229 75.3654 25.1109 75.4382 24.9822C75.5166 24.8478 75.5558 24.6882 75.5558 24.5034C75.5558 24.2459 75.4746 24.0499 75.3122 23.9155C75.1554 23.7811 74.9483 23.7139 74.6907 23.7139Z" fill="#F0F0F0"/>
<path d="M16.9076 9.41781C17.2821 9.41781 17.5913 9.46789 17.8352 9.56806C18.0791 9.66822 18.2598 9.81847 18.3774 10.0188C18.4993 10.2148 18.5603 10.463 18.5603 10.7635C18.5603 11.003 18.5189 11.2055 18.4362 11.371C18.3578 11.5322 18.2533 11.665 18.1226 11.7695C17.9963 11.8697 17.8592 11.9502 17.7111 12.0112L18.9457 14.082H18.1226L17.084 12.1941H16.3719V14.082H15.6468V9.41781H16.9076ZM16.8749 10.0188H16.3719V11.6062H16.888C17.1014 11.6062 17.2756 11.5757 17.4106 11.5147C17.55 11.4538 17.6523 11.3623 17.7176 11.2404C17.7873 11.1184 17.8221 10.9682 17.8221 10.7896C17.8221 10.6024 17.7873 10.4543 17.7176 10.3454C17.6523 10.2322 17.5478 10.1495 17.4041 10.0972C17.2647 10.0449 17.0883 10.0188 16.8749 10.0188ZM20.8246 10.4957C21.2383 10.4957 21.5497 10.5937 21.7587 10.7896C21.9721 10.9813 22.0788 11.2839 22.0788 11.6977V14.082H21.5758L21.4386 13.5921H21.4125C21.3123 13.7184 21.2121 13.8229 21.112 13.9057C21.0162 13.9884 20.9029 14.0494 20.7723 14.0886C20.646 14.1278 20.4892 14.1474 20.302 14.1474C20.106 14.1474 19.9296 14.1103 19.7728 14.0363C19.616 13.9579 19.4919 13.8403 19.4005 13.6835C19.309 13.5224 19.2633 13.3221 19.2633 13.0826C19.2633 12.7254 19.3896 12.4533 19.6422 12.266C19.8991 12.0787 20.2889 11.9764 20.8115 11.959L21.3733 11.9394V11.7434C21.3733 11.4821 21.3188 11.2992 21.21 11.1947C21.1055 11.0901 20.9574 11.0379 20.7658 11.0379C20.6046 11.0379 20.4457 11.064 20.2889 11.1163C20.1321 11.1685 19.9797 11.2317 19.8316 11.3057L19.616 10.8027C19.7772 10.7156 19.9601 10.6437 20.1648 10.5871C20.3738 10.5262 20.5937 10.4957 20.8246 10.4957ZM20.9487 12.4032C20.5916 12.4206 20.3433 12.4881 20.204 12.6057C20.0646 12.7189 19.9949 12.88 19.9949 13.0891C19.9949 13.272 20.0428 13.4048 20.1386 13.4876C20.2388 13.5703 20.3673 13.6117 20.5241 13.6117C20.7636 13.6117 20.9639 13.5355 21.125 13.3831C21.2905 13.2306 21.3733 13.002 21.3733 12.6971V12.3901L20.9487 12.4032ZM24.2993 13.5856C24.3908 13.5856 24.4801 13.5768 24.5672 13.5594C24.6543 13.542 24.7305 13.5224 24.7958 13.5006V14.0232C24.7218 14.0581 24.6238 14.0864 24.5019 14.1082C24.3843 14.1343 24.2602 14.1474 24.1295 14.1474C23.9466 14.1474 23.7789 14.1147 23.6265 14.0494C23.4741 13.984 23.3521 13.8708 23.2607 13.7097C23.1692 13.5485 23.1235 13.3243 23.1235 13.0368V11.0901H22.6727V10.7766L23.1562 10.5153L23.3979 9.77056H23.8355V10.561H24.7697V11.0901H23.8355V13.0238C23.8355 13.2154 23.8791 13.3569 23.9662 13.4484C24.0533 13.5398 24.1643 13.5856 24.2993 13.5856ZM26.7829 10.4957C27.0747 10.4957 27.3273 10.561 27.5407 10.6916C27.7541 10.8179 27.9174 11.0009 28.0306 11.2404C28.1482 11.4799 28.207 11.763 28.207 12.0896V12.4685H25.9925C26.0012 12.83 26.0883 13.1065 26.2538 13.2981C26.4193 13.4897 26.6523 13.5856 26.9528 13.5856C27.1662 13.5856 27.3556 13.566 27.5211 13.5268C27.691 13.4832 27.863 13.4201 28.0372 13.3373V13.9122C27.8717 13.9906 27.7018 14.0494 27.5276 14.0886C27.3578 14.1278 27.1509 14.1474 26.9071 14.1474C26.5891 14.1474 26.3061 14.0799 26.0578 13.9448C25.8096 13.8098 25.6158 13.6095 25.4764 13.3439C25.3371 13.0738 25.2674 12.7429 25.2674 12.3509C25.2674 11.9546 25.3305 11.6193 25.4568 11.3449C25.5831 11.0705 25.7595 10.8615 25.986 10.7178C26.2168 10.5697 26.4824 10.4957 26.7829 10.4957ZM26.7829 11.0313C26.5608 11.0313 26.3823 11.1119 26.2473 11.273C26.1123 11.4342 26.0339 11.6628 26.0121 11.959H27.508C27.508 11.776 27.4819 11.6149 27.4297 11.4756C27.3774 11.3362 27.2968 11.2273 27.1879 11.1489C27.0834 11.0705 26.9484 11.0313 26.7829 11.0313ZM33.5513 12.3182C33.5513 12.61 33.5143 12.8692 33.4403 13.0956C33.3663 13.3221 33.2596 13.5137 33.1202 13.6705C32.9852 13.8273 32.8197 13.947 32.6237 14.0298C32.4277 14.1082 32.2078 14.1474 31.9639 14.1474C31.7418 14.1474 31.535 14.1082 31.3433 14.0298C31.1517 13.947 30.9862 13.8273 30.8469 13.6705C30.7075 13.5137 30.5986 13.3221 30.5203 13.0956C30.4462 12.8692 30.4092 12.6079 30.4092 12.3117C30.4092 11.9241 30.4723 11.5953 30.5986 11.3253C30.7249 11.0553 30.9057 10.8506 31.1408 10.7112C31.3804 10.5675 31.6634 10.4957 31.9901 10.4957C32.2949 10.4957 32.5649 10.5675 32.8001 10.7112C33.0353 10.8506 33.2182 11.0553 33.3488 11.3253C33.4838 11.5953 33.5513 11.9263 33.5513 12.3182ZM31.1408 12.3182C31.1408 12.5796 31.1691 12.806 31.2258 12.9976C31.2867 13.1849 31.3782 13.3286 31.5001 13.4288C31.6264 13.5289 31.7854 13.579 31.977 13.579C32.173 13.579 32.3319 13.5289 32.4539 13.4288C32.5802 13.3286 32.6716 13.1849 32.7282 12.9976C32.7892 12.806 32.8197 12.5796 32.8197 12.3182C32.8197 12.0482 32.7892 11.8218 32.7282 11.6389C32.6673 11.456 32.5758 11.3166 32.4539 11.2208C32.3319 11.1206 32.1708 11.0705 31.9705 11.0705C31.6787 11.0705 31.4675 11.1794 31.3368 11.3972C31.2062 11.6149 31.1408 11.9219 31.1408 12.3182ZM36.0806 10.4957C36.4638 10.4957 36.7578 10.598 36.9624 10.8027C37.1715 11.0074 37.276 11.3362 37.276 11.7891V14.082H36.5705V11.8871C36.5705 11.6127 36.5161 11.4081 36.4072 11.273C36.3027 11.1337 36.1393 11.064 35.9172 11.064C35.5906 11.064 35.3663 11.1707 35.2444 11.3841C35.1225 11.5975 35.0615 11.9045 35.0615 12.3052V14.082H34.356V10.561H34.9112L35.0092 11.0313H35.0484C35.1225 10.9094 35.2117 10.8092 35.3162 10.7308C35.4208 10.6525 35.5384 10.5937 35.669 10.5545C35.7997 10.5153 35.9368 10.4957 36.0806 10.4957Z" fill="#F0F0F0"/>
<path d="M28.0623 19.4961H30.2177V32.6447H28.0623V19.4961Z" fill="white"/>
<path d="M37.7152 28.4802C37.7152 30.5173 36.0283 30.7025 35.466 30.7025C34.154 30.7025 33.9665 29.4988 33.9665 28.8506V23.7578H31.811V28.758C31.811 29.9617 32.1859 31.0729 32.9356 31.7211C33.5917 32.3692 34.4351 32.647 35.466 32.647C36.2157 32.647 37.1529 32.4618 37.7152 31.9063V32.647H39.8707V23.7578H37.7152V28.4802Z" fill="white"/>
<path d="M44.0874 20.5156H41.9319V23.7565H40.3387V25.7936H41.9319V32.6457H44.0874V25.7936H45.6806V23.7565H44.0874V20.5156Z" fill="white"/>
<path d="M52.4288 29.9555C51.9602 30.3259 51.3042 30.6037 50.6482 30.6037C49.1487 30.6037 48.1178 29.4926 48.1178 28.011C48.1178 26.5295 49.1487 25.5109 50.6482 25.5109C51.3042 25.5109 51.9602 25.6961 52.4288 26.1591L52.7099 26.4369L54.2094 25.0479L53.8345 24.7702C52.9911 24.0294 51.8665 23.5664 50.6482 23.5664C48.0241 23.5664 46.056 25.5109 46.056 28.1036C46.056 30.6963 48.0241 32.6408 50.6482 32.6408C51.8665 32.6408 52.9911 32.1778 53.8345 31.4371L54.2094 31.1593L52.7099 29.6777L52.4288 29.9555Z" fill="white"/>
<path d="M61.8013 24.4963C61.1452 23.8481 60.4892 23.5703 59.4583 23.5703C58.7086 23.5703 57.9589 23.7555 57.3966 24.3111V19.4961H55.2411V32.6447H57.3966V27.7371C57.3966 25.7 58.8023 25.5148 59.3646 25.5148C60.6767 25.5148 60.5829 26.7186 60.5829 27.3668V32.5521H62.7384V27.4594C62.7384 26.2556 62.4573 25.1445 61.8013 24.4963Z" fill="white"/>
<path d="M50.5543 29.5842C51.3824 29.5842 52.0537 28.9209 52.0537 28.1026C52.0537 27.2844 51.3824 26.6211 50.5543 26.6211C49.7261 26.6211 49.0548 27.2844 49.0548 28.1026C49.0548 28.9209 49.7261 29.5842 50.5543 29.5842Z" fill="#EF4335"/>
<path d="M25.0632 29.4041C24.3134 30.1448 23.1888 30.6078 21.9705 30.6078C19.6276 30.6078 17.9407 28.7559 17.9407 26.2558C17.9407 23.7557 19.6276 21.9038 22.0642 21.9038C23.1888 21.9038 24.3134 22.3668 25.1569 23.2001L25.438 23.4779L26.8438 22.089L26.5626 21.8112C25.3443 20.6075 23.7511 19.9593 22.0642 19.9593C18.503 19.8667 15.8789 22.6446 15.8789 26.2558C15.8789 29.8671 18.503 32.6449 21.9705 32.6449C23.6574 32.6449 25.3443 31.9968 26.4689 30.793L26.7501 30.5152L25.3443 29.1263L25.0632 29.4041Z" fill="white"/>
<path d="M31.5971 37.9901L30.7323 39.729C30.6883 39.8175 30.6233 39.894 30.5429 39.9521C30.4624 40.0101 30.369 40.0478 30.2706 40.062L28.3376 40.3409C28.247 40.3539 28.1619 40.3919 28.0918 40.4504C28.0218 40.509 27.9697 40.5858 27.9415 40.6722C27.9132 40.7586 27.9098 40.8512 27.9318 40.9394C27.9538 41.0276 28.0002 41.1079 28.0658 41.1713L29.4651 42.5249C29.5362 42.5937 29.5894 42.6786 29.6201 42.7723C29.6508 42.866 29.6581 42.9657 29.6414 43.0628L29.3111 44.9743C29.2957 45.0638 29.3059 45.1558 29.3405 45.2398C29.375 45.3239 29.4326 45.3966 29.5066 45.4499C29.5806 45.5032 29.6682 45.5349 29.7594 45.5414C29.8507 45.5478 29.9419 45.5289 30.0228 45.4866L31.752 44.5842C31.8399 44.5383 31.9379 44.5144 32.0373 44.5144C32.1367 44.5144 32.2346 44.5383 32.3226 44.5842L34.0517 45.4866C34.1326 45.5289 34.2239 45.5478 34.3151 45.5414C34.4063 45.5349 34.4939 45.5032 34.5679 45.4499C34.642 45.3966 34.6995 45.3239 34.7341 45.2398C34.7686 45.1558 34.7788 45.0638 34.7635 44.9743L34.4331 43.0628C34.4164 42.9657 34.4237 42.866 34.4544 42.7723C34.4851 42.6786 34.5383 42.5937 34.6094 42.5249L36.0087 41.1713C36.0743 41.1079 36.1207 41.0276 36.1427 40.9394C36.1647 40.8512 36.1613 40.7586 36.1331 40.6722C36.1048 40.5858 36.0527 40.509 35.9827 40.4504C35.9127 40.3919 35.8275 40.3539 35.7369 40.3409L33.8032 40.062C33.7048 40.0478 33.6113 40.0101 33.5309 39.9521C33.4505 39.894 33.3855 39.8175 33.3415 39.729L32.4766 37.9901C32.4362 37.9087 32.3735 37.8401 32.2958 37.7921C32.2181 37.7442 32.1284 37.7188 32.0369 37.7188C31.9454 37.7188 31.8557 37.7442 31.778 37.7921C31.7002 37.8401 31.6376 37.9087 31.5971 37.9901Z" fill="#FFAF00"/>
<path d="M43.6168 37.9894L42.752 39.7282C42.708 39.8167 42.643 39.8933 42.5626 39.9513C42.4821 40.0093 42.3887 40.047 42.2903 40.0612L40.3565 40.3401C40.2659 40.3531 40.1808 40.3911 40.1108 40.4496C40.0408 40.5082 39.9887 40.585 39.9604 40.6714C39.9321 40.7578 39.9288 40.8504 39.9507 40.9386C39.9727 41.0268 40.0191 41.1071 40.0848 41.1705L41.4841 42.5242C41.5551 42.593 41.6083 42.6779 41.639 42.7715C41.6697 42.8652 41.677 42.9649 41.6603 43.062L41.33 44.9736C41.3146 45.063 41.3248 45.155 41.3594 45.239C41.3939 45.3231 41.4515 45.3958 41.5255 45.4491C41.5996 45.5024 41.6871 45.5341 41.7784 45.5406C41.8696 45.5471 41.9608 45.5281 42.0418 45.4858L43.7709 44.5835C43.8589 44.5376 43.9568 44.5136 44.0562 44.5136C44.1556 44.5136 44.2535 44.5376 44.3415 44.5835L46.0706 45.4858C46.1515 45.5281 46.2428 45.5471 46.334 45.5406C46.4252 45.5341 46.5128 45.5024 46.5868 45.4491C46.6609 45.3958 46.7184 45.3231 46.753 45.239C46.7875 45.155 46.7977 45.063 46.7824 44.9736L46.452 43.062C46.4353 42.9649 46.4427 42.8652 46.4734 42.7715C46.5041 42.6778 46.5572 42.5929 46.6283 42.5242L48.0276 41.1705C48.0932 41.1071 48.1396 41.0268 48.1616 40.9386C48.1836 40.8504 48.1803 40.7578 48.152 40.6714C48.1237 40.585 48.0716 40.5082 48.0016 40.4496C47.9316 40.3911 47.8465 40.3531 47.7559 40.3401L45.8221 40.0612C45.7237 40.047 45.6303 40.0093 45.5498 39.9513C45.4694 39.8933 45.4044 39.8167 45.3604 39.7282L44.4956 37.9894C44.455 37.9081 44.3924 37.8397 44.3147 37.7919C44.2371 37.7441 44.1476 37.7188 44.0562 37.7188C43.9648 37.7188 43.8753 37.7441 43.7976 37.7919C43.72 37.8397 43.6574 37.9081 43.6168 37.9894Z" fill="#FFAF00"/>
<path d="M55.6411 37.9901L54.7763 39.729C54.7323 39.8175 54.6673 39.894 54.5868 39.9521C54.5064 40.0101 54.413 40.0478 54.3146 40.062L52.381 40.3409C52.2904 40.3539 52.2053 40.3919 52.1353 40.4504C52.0653 40.509 52.0132 40.5858 51.9849 40.6722C51.9566 40.7586 51.9533 40.8512 51.9753 40.9394C51.9973 41.0276 52.0437 41.1079 52.1093 41.1713L53.5086 42.5249C53.5796 42.5937 53.6328 42.6786 53.6635 42.7723C53.6942 42.866 53.7015 42.9657 53.6849 43.0628L53.3545 44.9743C53.3392 45.0638 53.3494 45.1558 53.3839 45.2398C53.4185 45.3239 53.476 45.3966 53.5501 45.4499C53.6241 45.5032 53.7117 45.5349 53.8029 45.5414C53.8941 45.5478 53.9854 45.5289 54.0663 45.4866L55.7954 44.5842C55.8834 44.5383 55.9813 44.5144 56.0807 44.5144C56.1801 44.5144 56.278 44.5383 56.366 44.5842L58.0951 45.4866C58.1761 45.5289 58.2673 45.5478 58.3585 45.5414C58.4498 45.5349 58.5373 45.5032 58.6114 45.4499C58.6854 45.3966 58.743 45.3239 58.7775 45.2398C58.8121 45.1558 58.8223 45.0638 58.8069 44.9743L58.4766 43.0628C58.4599 42.9657 58.4672 42.866 58.4979 42.7723C58.5286 42.6786 58.5818 42.5937 58.6529 42.5249L60.0521 41.1713C60.1178 41.1079 60.1642 41.0276 60.1862 40.9394C60.2081 40.8512 60.2048 40.7586 60.1765 40.6722C60.1482 40.5858 60.0961 40.509 60.0261 40.4504C59.9561 40.3919 59.871 40.3539 59.7804 40.3409L57.8466 40.062C57.7482 40.0478 57.6548 40.0101 57.5744 39.9521C57.4939 39.894 57.4289 39.8175 57.3849 39.729L56.5206 37.9901C56.4801 37.9087 56.4175 37.8401 56.3398 37.7921C56.2621 37.7442 56.1724 37.7188 56.0808 37.7188C55.9893 37.7188 55.8996 37.7442 55.8219 37.7921C55.7442 37.8401 55.6816 37.9087 55.6411 37.9901Z" fill="#FFAF00"/>
<path d="M68.5412 37.9841L69.406 39.723C69.45 39.8115 69.515 39.8881 69.5954 39.9461C69.6759 40.0041 69.7693 40.0418 69.8677 40.056L71.8012 40.3349C71.8918 40.3479 71.9769 40.3859 72.0469 40.4444C72.117 40.503 72.169 40.5798 72.1973 40.6662C72.2256 40.7526 72.229 40.8452 72.207 40.9334C72.185 41.0216 72.1386 41.1019 72.073 41.1653L70.6737 42.519C70.6026 42.5878 70.5494 42.6726 70.5187 42.7663C70.488 42.86 70.4807 42.9597 70.4974 43.0568L70.8277 44.9683C70.8431 45.0578 70.8329 45.1498 70.7983 45.2338C70.7638 45.3179 70.7062 45.3906 70.6322 45.4439C70.5582 45.4972 70.4706 45.5289 70.3793 45.5354C70.2881 45.5418 70.1969 45.5229 70.116 45.4806L68.3868 44.5783C68.2988 44.5324 68.2009 44.5084 68.1015 44.5084C68.0021 44.5084 67.9042 44.5324 67.8162 44.5783L66.0871 45.4806C66.0062 45.5229 65.9149 45.5418 65.8237 45.5354C65.7325 45.5289 65.6449 45.4972 65.5709 45.4439C65.4968 45.3906 65.4393 45.3179 65.4047 45.2338C65.3702 45.1498 65.36 45.0578 65.3753 44.9683L65.7057 43.0568C65.7224 42.9597 65.7151 42.86 65.6844 42.7663C65.6537 42.6726 65.6005 42.5877 65.5294 42.519L64.1301 41.1653C64.0645 41.1019 64.0181 41.0216 63.9961 40.9334C63.9741 40.8452 63.9775 40.7526 64.0057 40.6662C64.034 40.5798 64.0861 40.503 64.1561 40.4444C64.2261 40.3859 64.3113 40.3479 64.4019 40.3349L66.3356 40.056C66.434 40.0418 66.5275 40.0041 66.6079 39.9461C66.6883 39.8881 66.7533 39.8115 66.7973 39.723L67.6598 37.9841C67.7001 37.9022 67.7628 37.8332 67.8407 37.7849C67.9186 37.7365 68.0086 37.7109 68.1005 37.7109C68.1924 37.7109 68.2824 37.7365 68.3603 37.7849C68.4382 37.8332 68.5009 37.9022 68.5412 37.9841Z" fill="#FFAF00"/>
<path d="M70.116 45.484L68.9383 44.8693V38.7852L69.4057 39.7252C69.4497 39.8137 69.5147 39.8902 69.5952 39.9482C69.6756 40.0062 69.769 40.0439 69.8674 40.0581L71.8012 40.3371C71.8918 40.3501 71.9769 40.388 72.0469 40.4466C72.117 40.5051 72.169 40.5819 72.1973 40.6684C72.2256 40.7548 72.229 40.8473 72.207 40.9355C72.185 41.0237 72.1386 41.1041 72.073 41.1674L70.6737 42.5211C70.6026 42.5899 70.5494 42.6748 70.5187 42.7685C70.488 42.8622 70.4807 42.9618 70.4974 43.059L70.8277 44.9705C70.8434 45.0601 70.8334 45.1522 70.799 45.2364C70.7645 45.3207 70.707 45.3937 70.6329 45.4471C70.5588 45.5006 70.4711 45.5324 70.3797 45.5389C70.2884 45.5454 70.197 45.5264 70.116 45.484Z" fill="#FDE3AC"/>
<path d="M19.5753 37.9826L18.7105 39.7217C18.6665 39.8102 18.6015 39.8868 18.521 39.9448C18.4406 40.0028 18.3472 40.0405 18.2488 40.0547L16.315 40.3336C16.2244 40.3466 16.1393 40.3846 16.0693 40.4431C15.9993 40.5017 15.9472 40.5785 15.9189 40.6649C15.8906 40.7513 15.8873 40.8439 15.9092 40.9321C15.9312 41.0203 15.9776 41.1006 16.0433 41.164L17.4426 42.5176C17.5136 42.5864 17.5668 42.6713 17.5975 42.765C17.6282 42.8587 17.6355 42.9584 17.6188 43.0555L17.2885 44.967C17.2731 45.0565 17.2833 45.1485 17.3179 45.2325C17.3524 45.3166 17.41 45.3893 17.484 45.4426C17.5581 45.4959 17.6456 45.5276 17.7369 45.5341C17.8281 45.5405 17.9193 45.5216 18.0003 45.4793L19.7294 44.5769C19.8174 44.531 19.9153 44.5071 20.0147 44.5071C20.1141 44.5071 20.212 44.531 20.3 44.5769L22.0291 45.4793C22.11 45.5216 22.2013 45.5405 22.2925 45.5341C22.3837 45.5276 22.4713 45.4959 22.5453 45.4426C22.6194 45.3893 22.6769 45.3166 22.7115 45.2325C22.746 45.1485 22.7562 45.0565 22.7409 44.967L22.4105 43.0555C22.3938 42.9584 22.4012 42.8587 22.4319 42.765C22.4626 42.6713 22.5157 42.5864 22.5868 42.5176L23.9861 41.164C24.0517 41.1006 24.0981 41.0203 24.1201 40.9321C24.1421 40.8439 24.1388 40.7513 24.1105 40.6649C24.0822 40.5785 24.0301 40.5017 23.9601 40.4431C23.8901 40.3846 23.805 40.3466 23.7144 40.3336L21.7816 40.0544C21.6832 40.0402 21.5898 40.0025 21.5093 39.9445C21.4289 39.8865 21.3639 39.8099 21.3199 39.7215L20.4551 37.9826C20.4146 37.9011 20.352 37.8324 20.2742 37.7844C20.1965 37.7364 20.1068 37.7109 20.0152 37.7109C19.9236 37.7109 19.8339 37.7364 19.7561 37.7844C19.6784 37.8324 19.6158 37.9011 19.5753 37.9826Z" fill="#E2E2E2"/>
<path d="M20.4381 37.9854L21.3029 39.7243C21.3469 39.8128 21.4119 39.8894 21.4923 39.9474C21.5728 40.0054 21.6662 40.0431 21.7646 40.0573L23.6984 40.3362C23.789 40.3492 23.8741 40.3872 23.9441 40.4457C24.0141 40.5043 24.0662 40.5811 24.0945 40.6675C24.1228 40.7539 24.1261 40.8465 24.1041 40.9347C24.0821 41.0229 24.0357 41.1032 23.9701 41.1666L22.5708 42.5203C22.4998 42.5891 22.4466 42.6739 22.4159 42.7676C22.3852 42.8613 22.3779 42.961 22.3945 43.0581L22.7249 44.9696C22.7402 45.0591 22.73 45.1511 22.6955 45.2351C22.6609 45.3192 22.6034 45.3919 22.5294 45.4452C22.4553 45.4985 22.3677 45.5302 22.2765 45.5367C22.1853 45.5432 22.094 45.5242 22.0131 45.4819L20.284 44.5796C20.196 44.5337 20.0981 44.5097 19.9987 44.5097C19.8993 44.5097 19.8014 44.5337 19.7134 44.5796L17.9843 45.4819C17.9033 45.5242 17.8121 45.5432 17.7209 45.5367C17.6296 45.5302 17.5421 45.4985 17.468 45.4452C17.394 45.3919 17.3364 45.3192 17.3019 45.2351C17.2673 45.1511 17.2571 45.0591 17.2725 44.9696L17.6028 43.0581C17.6195 42.961 17.6122 42.8613 17.5815 42.7676C17.5508 42.6739 17.4976 42.589 17.4266 42.5203L16.0273 41.1666C15.9616 41.1032 15.9152 41.0229 15.8932 40.9347C15.8713 40.8465 15.8746 40.7539 15.9029 40.6675C15.9312 40.5811 15.9833 40.5043 16.0533 40.4457C16.1233 40.3872 16.2084 40.3492 16.299 40.3362L18.2328 40.0573C18.3312 40.0431 18.4246 40.0054 18.5051 39.9474C18.5855 39.8894 18.6505 39.8128 18.6945 39.7243L19.5593 37.9854C19.5999 37.9042 19.6625 37.8358 19.7401 37.788C19.8178 37.7402 19.9073 37.7148 19.9987 37.7148C20.0901 37.7148 20.1796 37.7402 20.2572 37.788C20.3349 37.8358 20.3975 37.9042 20.4381 37.9854Z" fill="#FFAF00"/>
</svg>
