<svg width="92" height="52" viewBox="0 0 92 52" fill="none" xmlns="http://www.w3.org/2000/svg">
<path opacity="0.6" d="M6.23934 0.696688C3.11957 0.696688 0.590487 3.22576 0.590487 6.34554V45.9254C0.590487 49.0452 3.11956 51.5743 6.23933 51.5743H85.6893C88.809 51.5743 91.3381 49.0452 91.3381 45.9254V6.34554C91.3381 3.22577 88.809 0.696688 85.6893 0.696688H6.23934Z" fill="#143CBF" stroke="#113ABE" stroke-width="0.606623"/>
<path d="M35.238 21.3363C35.4972 21.5 35.8987 21.6396 36.3948 21.733C36.8909 21.8727 37.4103 21.8958 37.9542 21.8958C38.4736 21.8958 38.9463 21.8264 39.3712 21.7089C39.7962 21.5693 40.1743 21.3835 40.5047 21.1495C40.8117 20.9165 41.0719 20.6373 41.2376 20.2636C41.4023 19.9141 41.4968 19.5415 41.4968 19.0985C41.4968 18.5853 41.3322 18.1192 41.0252 17.6994C40.7182 17.3027 40.1977 16.9762 39.4658 16.7432L38.0487 16.2772C37.5293 16.1145 37.1277 15.9277 36.9142 15.7177C36.7262 15.5309 36.6072 15.2979 36.6072 14.9946C36.6072 14.5988 36.7729 14.2724 37.0799 14.1087C37.4103 13.9229 37.8363 13.8064 38.4269 13.8064C39.1588 13.8064 39.7728 13.946 40.3868 14.2021C40.5525 14.2724 40.6938 14.3427 40.7883 14.3427C40.954 14.3427 41.0252 14.2493 41.0252 14.0163V13.6196C41.0252 13.4799 41.0008 13.3634 40.9306 13.2931C40.8595 13.1997 40.7649 13.1063 40.6236 13.037C40.5291 12.9667 40.3634 12.8964 40.1977 12.8733C40.033 12.804 39.8439 12.7799 39.6315 12.7106C39.4424 12.6865 39.2055 12.6172 38.9697 12.6172C38.7339 12.5469 38.497 12.5469 38.2846 12.5469C37.8119 12.5469 37.4347 12.6172 37.0332 12.7106C36.6316 12.8502 36.2769 13.0129 35.9699 13.2228C35.6629 13.4558 35.4504 13.713 35.238 14.0394C35.0489 14.3658 34.9777 14.7153 34.9777 15.1583C34.9777 15.6715 35.1434 16.1607 35.4738 16.6036C35.8042 17.0697 36.3246 17.3961 37.1033 17.606L38.5682 18.072C39.0642 18.2357 39.3946 18.3985 39.5837 18.5853C39.7728 18.7721 39.8439 19.0051 39.8439 19.2612C39.8439 19.658 39.6782 19.9844 39.3245 20.2174C38.9697 20.4504 38.497 20.5438 37.8363 20.5438C37.4347 20.5438 37.0332 20.5207 36.655 20.4042C36.2535 20.3339 35.8987 20.2174 35.5216 20.0537C35.427 20.0306 35.3325 19.9844 35.2613 19.9613C35.1902 19.9372 35.119 19.9372 35.0723 19.9372C34.9066 19.9372 34.8364 20.0306 34.8364 20.2636V20.7538C34.8364 20.8472 34.8598 20.9396 34.9066 21.0571C34.9777 21.1736 35.0723 21.2429 35.238 21.3363Z" fill="white"/>
<path d="M18.1364 16.5105C17.7816 16.4402 17.4037 16.4402 17.073 16.4402C16.0572 16.4402 15.2305 16.6974 14.5928 17.2337C13.955 17.7459 13.6715 18.446 13.6715 19.2847C13.6715 20.1012 13.9078 20.73 14.4038 21.2201C14.8998 21.7093 15.5613 21.9423 16.4116 21.9423C17.5926 21.9423 18.5847 21.4763 19.3878 20.5673C19.4823 20.8003 19.5768 20.9871 19.6948 21.1498C19.8127 21.3135 19.9316 21.4763 20.0495 21.6159C20.1441 21.7093 20.2386 21.7565 20.3565 21.7565C20.4267 21.7565 20.5212 21.7334 20.6158 21.6631L21.2542 21.2432C21.3955 21.1498 21.4432 21.0564 21.4432 20.9399C21.4432 20.8706 21.4188 20.8003 21.3721 20.7069C21.2308 20.4508 21.1118 20.2178 21.0417 19.9847C20.9705 19.7517 20.9472 19.4715 20.9472 19.0989V15.8346C20.9472 14.7619 20.6869 13.9463 20.1197 13.3869C19.5535 12.8274 18.7026 12.5703 17.4745 12.5703C16.9076 12.5703 16.3879 12.6406 15.892 12.7571C15.4195 12.8967 14.9943 13.0132 14.64 13.2232C14.4983 13.2935 14.4038 13.3628 14.3802 13.41C14.3093 13.4803 14.3093 13.5968 14.3093 13.7595V14.2497C14.3093 14.4355 14.3801 14.5751 14.4983 14.5751C14.5219 14.5751 14.5928 14.5751 14.6637 14.552C14.7345 14.5289 14.8526 14.4827 15.0179 14.4124C15.3723 14.2728 15.7501 14.1562 16.1045 14.0859C16.4588 13.9925 16.8367 13.9463 17.1911 13.9463C17.9941 13.9463 18.5135 14.109 18.8449 14.4124C19.1753 14.7157 19.3166 15.252 19.3166 16.0214V16.7436C18.8917 16.6502 18.5379 16.5809 18.1364 16.5105ZM19.2932 18.2823C19.2932 18.6087 19.2698 18.912 19.1987 19.122C19.1275 19.355 19.034 19.588 18.8683 19.7517C18.6081 20.054 18.2777 20.264 17.8997 20.3805C17.5454 20.5211 17.1674 20.5673 16.8367 20.5673C16.3643 20.5673 16.01 20.4277 15.7738 20.2178C15.5376 19.9847 15.4195 19.6342 15.4195 19.1682C15.4195 18.679 15.5849 18.2823 15.9155 18.0262C16.2462 17.7701 16.7423 17.6294 17.4037 17.6294C17.7108 17.6294 18.0419 17.6525 18.3722 17.6997C18.7026 17.7228 19.0096 17.7931 19.2932 17.8625V18.2823Z" fill="white"/>
<path d="M24.3952 21.1746C24.4654 21.3604 24.5365 21.5011 24.5843 21.5704C24.6544 21.6407 24.7734 21.6638 24.9858 21.6638H25.8357C26.0248 21.6638 26.1661 21.6407 26.2372 21.5704C26.3084 21.5011 26.3795 21.3845 26.4263 21.1746L27.9857 14.7395L29.5684 21.1746C29.5918 21.3604 29.662 21.5011 29.7565 21.5704C29.8277 21.6407 29.9934 21.6638 30.158 21.6638H31.0089C31.1746 21.6638 31.3159 21.6407 31.4104 21.5704C31.4816 21.5011 31.5761 21.3845 31.5995 21.1746L34.0555 13.481C34.0799 13.3876 34.1266 13.2942 34.1266 13.248C34.1266 13.1777 34.15 13.1546 34.15 13.0842C34.15 12.9215 34.0799 12.8512 33.9142 12.8512H32.9932C32.8041 12.8512 32.6628 12.8743 32.5917 12.9446C32.5205 13.0149 32.4493 13.1315 32.4026 13.3404L30.6541 20.0316L29.0246 13.3173C29.0012 13.1315 28.9301 12.9908 28.8355 12.9215C28.7644 12.8512 28.5997 12.8281 28.434 12.8281H27.6075C27.4184 12.8281 27.2771 12.8512 27.206 12.9215C27.1348 12.9908 27.0637 13.1073 27.0169 13.3173L25.4341 19.9151L23.7568 13.3173C23.6867 13.1315 23.6155 12.9908 23.5678 12.9215C23.4976 12.8512 23.3797 12.8281 23.1662 12.8281H22.1751C22.0094 12.8281 21.9382 12.8974 21.9382 13.0612C21.9382 13.1315 21.9616 13.248 22.0328 13.4579L24.3952 21.1746Z" fill="white"/>
<path d="M39.3725 26.0032C35.6631 27.565 31.601 28.3113 27.9394 28.3113C22.4825 28.3113 17.1919 26.8419 12.9165 24.3711C12.5622 24.1381 12.2551 24.5338 12.5858 24.8371C16.5541 28.3575 21.774 30.4788 27.609 30.4788C31.7423 30.4788 36.5607 29.1972 39.9153 26.7485C40.388 26.3758 39.9387 25.7933 39.3725 26.0032Z" fill="#FF9900"/>
<path d="M37.2931 24.6501C36.9861 24.8369 37.0572 25.1403 37.3642 25.1162C38.4265 24.9766 40.8357 24.6973 41.2383 25.2568C41.6632 25.769 40.7656 28.0078 40.3874 29.0102C40.2461 29.3135 40.5287 29.43 40.8124 29.196C42.6076 27.7276 43.0569 24.627 42.7021 24.2072C42.324 23.6939 39.1828 23.3444 37.2931 24.6501Z" fill="#FF9900"/>
<path d="M50.6376 19.6136C50.5675 19.6136 50.4963 19.5906 50.4963 19.474V14.0885C50.4963 14.0182 50.5197 13.9489 50.6376 13.9489H50.8033C50.8979 13.9489 50.9446 13.972 50.9446 14.0885L50.969 14.4149C51.2049 14.2281 51.4651 14.0885 51.701 13.9951C51.9368 13.9017 52.1736 13.8555 52.4329 13.8555C52.9533 13.8555 53.3549 14.0423 53.6619 14.4149C53.9689 14.7645 54.1336 15.3008 54.1336 15.9074C54.1336 16.5603 53.9689 17.0725 53.6619 17.4693C53.3305 17.865 52.9289 18.0518 52.3627 18.0518C51.8666 18.0518 51.4407 17.865 51.0158 17.4924V19.451C51.0158 19.5203 50.9924 19.5906 50.8745 19.5906H50.6376V19.6136ZM52.2916 17.6561C52.7165 17.6561 53.0469 17.5155 53.2837 17.2363C53.5196 16.9329 53.6141 16.5131 53.6141 15.9536C53.6141 14.8348 53.1892 14.2984 52.3149 14.2984C51.89 14.2984 51.4173 14.4621 50.9924 14.8117V17.1197C51.2283 17.3056 51.4173 17.4462 51.6298 17.5386C51.8423 17.5858 52.0791 17.6561 52.2916 17.6561Z" fill="white"/>
<path d="M56.0726 18.0518C55.7188 18.0518 55.4108 17.9584 55.175 17.7254C54.9391 17.5386 54.8446 17.2363 54.8446 16.8867C54.8446 16.49 54.9859 16.2098 55.2461 15.9767C55.5054 15.7437 55.8835 15.6503 56.3328 15.6503C56.6866 15.6503 57.0647 15.7206 57.4897 15.8371V15.1843C57.4897 14.8579 57.4195 14.6248 57.2538 14.5083C57.0881 14.3687 56.8523 14.3215 56.4975 14.3215C56.1437 14.3215 55.7422 14.3918 55.3407 14.5083C55.3173 14.5083 55.2461 14.5314 55.1984 14.5314C55.1282 14.5314 55.1282 14.5083 55.1282 14.438V14.2753C55.1282 14.2522 55.1282 14.205 55.1516 14.1819C55.175 14.1588 55.175 14.1588 55.2228 14.1116C55.6477 13.9489 56.0726 13.8555 56.5687 13.8555C57.0414 13.8555 57.3951 13.9489 57.632 14.1588C57.8678 14.3446 57.9624 14.6479 57.9624 15.0447V17.8419C57.9624 17.9122 57.939 17.9825 57.8211 17.9825H57.6554C57.5842 17.9825 57.5141 17.9584 57.5141 17.8419L57.4897 17.5155C57.0647 17.8891 56.5687 18.0518 56.0726 18.0518ZM56.1438 17.6561C56.3328 17.6561 56.5687 17.632 56.8045 17.5155C57.0414 17.4221 57.2772 17.3297 57.5374 17.1659V16.1867C57.1827 16.0933 56.8523 16.0471 56.4741 16.0471C55.7188 16.0471 55.3407 16.3504 55.3407 16.8867C55.3407 17.1197 55.4108 17.3056 55.5298 17.4462C55.6711 17.5858 55.8835 17.6561 56.1438 17.6561Z" fill="white"/>
<path d="M59.3537 17.9829C59.2825 17.9829 59.2124 17.9588 59.2124 17.8423V14.0888C59.2124 14.0195 59.2358 13.9492 59.3537 13.9492H59.5194C59.6139 13.9492 59.6607 13.9723 59.6607 14.0888L59.6841 14.5549C59.8731 14.3219 60.0856 14.1591 60.2747 14.0888C60.4638 13.9954 60.7006 13.9492 60.9365 13.9492C61.031 13.9492 61.1022 13.9492 61.1255 13.9492C61.1957 13.9492 61.2668 13.9723 61.2668 14.0888V14.2756C61.2668 14.2987 61.2668 14.2987 61.2435 14.3449C61.2435 14.3691 61.2201 14.3691 61.1723 14.3691C61.1489 14.3691 61.0778 14.3691 61.031 14.3691C61.0076 14.3691 60.9365 14.3691 60.8653 14.3691C60.6295 14.3691 60.3926 14.3922 60.2046 14.5087C60.0155 14.6021 59.8498 14.7417 59.6373 14.9285V17.8423C59.6373 17.9126 59.6139 17.9829 59.495 17.9829H59.3537Z" fill="white"/>
<path d="M63.3695 18.0272C63.0381 18.0272 62.8023 17.9338 62.6366 17.7711C62.4719 17.6074 62.3773 17.3743 62.3773 17.0479V14.4134H61.739C61.6688 14.4134 61.5977 14.3903 61.5977 14.2738V14.2035C61.5977 14.1804 61.5977 14.1342 61.621 14.1101C61.621 14.087 61.6444 14.087 61.7156 14.087L62.3773 14.0177L62.4475 12.9681C62.4475 12.945 62.4719 12.8978 62.4719 12.8747C62.4953 12.8516 62.4953 12.8516 62.5664 12.8516H62.7077C62.7789 12.8516 62.849 12.8747 62.849 12.9912V14.0408H64.0069C64.078 14.0408 64.1482 14.0639 64.1482 14.1804V14.3441C64.1482 14.4134 64.1248 14.4837 64.0069 14.4837H62.849V17.1182C62.849 17.3512 62.8734 17.4677 62.9913 17.5842C63.0859 17.6777 63.2506 17.7239 63.464 17.7239C63.6287 17.7239 63.771 17.7239 63.8656 17.7008C63.9357 17.7008 63.9591 17.6777 64.0069 17.6777C64.0303 17.6777 64.078 17.6777 64.078 17.6777C64.1482 17.6777 64.1726 17.7008 64.1726 17.7711V17.9107C64.1726 18.0041 64.1482 18.0503 64.078 18.0734C63.8656 17.981 63.6521 18.0272 63.3695 18.0272Z" fill="white"/>
<path d="M65.1659 17.9822C65.0947 17.9822 65.0236 17.9581 65.0236 17.8416V14.0882C65.0236 14.0189 65.048 13.9485 65.1659 13.9485H65.3316C65.4251 13.9485 65.4729 13.9716 65.4729 14.0882L65.4963 14.4146C65.7565 14.2278 66.0157 14.0882 66.3227 13.9947C66.6307 13.9013 66.89 13.832 67.1502 13.832C67.5517 13.832 67.8353 13.9254 68.0478 14.1354C68.2369 14.3212 68.3548 14.6245 68.3548 15.0443V17.8185C68.3548 17.8888 68.3314 17.9581 68.2125 17.9581H67.9766C67.9055 17.9581 67.8353 17.935 67.8353 17.8185V15.2773C67.8353 14.9278 67.7642 14.6948 67.6463 14.5311C67.5039 14.3684 67.2915 14.2981 67.0079 14.2981C66.4884 14.2981 65.9456 14.4618 65.4495 14.8113V17.8888C65.4495 17.9581 65.4251 18.0284 65.3072 18.0284H65.1425V17.9822H65.1659Z" fill="white"/>
<path d="M71.3069 18.0749C70.6696 18.0749 70.1735 17.9122 69.8899 17.5627C69.5585 17.2132 69.3938 16.6768 69.3938 15.9536C69.3938 15.3008 69.5585 14.7876 69.8899 14.4149C70.2202 14.0654 70.6929 13.8555 71.2358 13.8555C71.7319 13.8555 72.0866 13.9951 72.3702 14.2753C72.6295 14.5314 72.7718 14.9282 72.7718 15.4404C72.7718 15.6272 72.7718 15.7909 72.7474 15.9306C72.7474 15.9999 72.6772 16.0702 72.6061 16.0702H69.8899C69.8899 16.6296 70.0312 17.0494 70.2436 17.3056C70.4805 17.5627 70.882 17.7023 71.3781 17.7023C71.7796 17.7023 72.1334 17.632 72.4648 17.5155C72.5349 17.4924 72.6061 17.4924 72.6061 17.4924C72.6295 17.4924 72.6295 17.4924 72.6772 17.5155C72.6772 17.5386 72.7006 17.5386 72.7006 17.5858V17.7254C72.7006 17.8188 72.6772 17.865 72.6061 17.8891C72.1812 17.9825 71.7796 18.0749 71.3069 18.0749ZM72.2991 15.6975C72.2991 15.6272 72.2991 15.5338 72.2991 15.4404C72.2991 15.0447 72.2045 14.7876 72.0388 14.6017C71.8498 14.4149 71.5672 14.2984 71.2124 14.2984C70.3615 14.2984 69.9133 14.7644 69.8665 15.6975H72.2991Z" fill="white"/>
<path d="M73.8593 17.9829C73.7882 17.9829 73.718 17.9588 73.718 17.8423V14.0888C73.718 14.0195 73.7414 13.9492 73.8593 13.9492H74.025C74.1196 13.9492 74.1663 13.9723 74.1663 14.0888L74.1897 14.5549C74.3788 14.3219 74.5912 14.1591 74.7803 14.0888C74.9694 13.9954 75.2062 13.9492 75.4421 13.9492C75.5366 13.9492 75.6078 13.9492 75.6311 13.9492C75.7023 13.9492 75.7725 13.9723 75.7725 14.0888V14.2756C75.7725 14.2987 75.7725 14.2987 75.7491 14.3449C75.7491 14.3691 75.7257 14.3691 75.6779 14.3691C75.6312 14.3691 75.5834 14.3691 75.5366 14.3691C75.5132 14.3691 75.4421 14.3691 75.3709 14.3691C75.1351 14.3691 74.8992 14.3922 74.7102 14.5087C74.5211 14.6021 74.3554 14.7417 74.1429 14.9285V17.8423C74.1429 17.9126 74.1195 17.9829 74.0016 17.9829H73.8593Z" fill="white"/>
<path d="M50.6376 26.7667C50.5675 26.7667 50.4963 26.7436 50.4963 26.6271V22.8967C50.4963 22.8274 50.5197 22.7571 50.6376 22.7571H50.8033C50.8979 22.7571 50.9446 22.7802 50.9446 22.8967L50.969 23.2232C51.2283 23.0364 51.4885 22.8967 51.7955 22.8033C52.1025 22.7099 52.3627 22.6406 52.6219 22.6406C53.0235 22.6406 53.3071 22.734 53.5196 22.944C53.7086 23.1298 53.8266 23.4331 53.8266 23.8529V26.6271C53.8266 26.6974 53.8032 26.7667 53.6853 26.7667H53.4484C53.3783 26.7667 53.3071 26.7436 53.3071 26.6271V24.0397C53.3071 23.6892 53.2359 23.4562 53.118 23.2935C52.9767 23.1298 52.7643 23.0605 52.4807 23.0605C51.9612 23.0605 51.4173 23.2232 50.9213 23.5727V26.6502C50.9213 26.7205 50.8979 26.7908 50.78 26.7908H50.6143V26.7667H50.6376Z" fill="white"/>
<path d="M56.8017 26.8874C56.1633 26.8874 55.6682 26.7247 55.3846 26.3752C55.0532 26.0257 54.8885 25.4893 54.8885 24.7661C54.8885 24.1133 55.0532 23.6011 55.3846 23.2274C55.715 22.8779 56.1877 22.668 56.7305 22.668C57.2266 22.668 57.5814 22.8076 57.865 23.0878C58.1242 23.3439 58.2665 23.7407 58.2665 24.2539C58.2665 24.4397 58.2665 24.6034 58.2421 24.7431C58.2421 24.8134 58.172 24.8827 58.1008 24.8827H55.3846C55.3846 25.4421 55.5259 25.8619 55.7384 26.1181C55.9752 26.3752 56.3768 26.5148 56.8728 26.5148C57.2744 26.5148 57.6282 26.4445 57.9585 26.328C58.0297 26.3049 58.1008 26.3049 58.1008 26.3049C58.1242 26.3049 58.1242 26.3049 58.172 26.328C58.172 26.3521 58.1954 26.3521 58.1954 26.3983V26.5379C58.1954 26.6313 58.172 26.6785 58.1008 26.7016C57.6993 26.795 57.25 26.8874 56.8017 26.8874ZM57.7938 24.4869C57.7938 24.4166 57.7938 24.3232 57.7938 24.2298C57.7938 23.8341 57.6993 23.5769 57.5336 23.3911C57.3445 23.2043 57.0609 23.0878 56.7072 23.0878C55.8563 23.0878 55.408 23.5538 55.3602 24.4869H57.7938Z" fill="white"/>
<path d="M60.511 26.839C60.1796 26.839 59.9437 26.7456 59.7781 26.5829C59.6134 26.4192 59.5188 26.1862 59.5188 25.8597V23.179H58.8804C58.8103 23.179 58.7391 23.1559 58.7391 23.0394V22.9691C58.7391 22.946 58.7391 22.8988 58.7625 22.8757C58.7625 22.8526 58.7859 22.8526 58.8571 22.8526L59.5188 22.7823L59.589 21.7337C59.589 21.7106 59.6134 21.6634 59.6134 21.6403C59.6367 21.6172 59.6368 21.6172 59.7069 21.6172H59.8492C59.9204 21.6172 59.9905 21.6403 59.9905 21.7568V22.8064H61.1484C61.2195 22.8064 61.2897 22.8295 61.2897 22.946V23.1087C61.2897 23.179 61.2663 23.2493 61.1484 23.2493H60.0149V25.8838C60.0149 26.1169 60.0383 26.2334 60.1562 26.3499C60.2741 26.4664 60.4164 26.4895 60.6289 26.4895C60.7936 26.4895 60.9359 26.4895 61.0304 26.4664C61.1006 26.4664 61.125 26.4433 61.1717 26.4433C61.1951 26.4433 61.2429 26.4433 61.2429 26.4433C61.314 26.4433 61.3374 26.4664 61.3374 26.5357V26.6763C61.3374 26.7697 61.314 26.8159 61.2429 26.839C61.0071 26.7928 60.7702 26.839 60.511 26.839Z" fill="white"/>
<path d="M63.1093 26.767C63.0381 26.767 62.968 26.7439 62.9436 26.6746L61.6922 22.9905C61.6688 22.9202 61.6688 22.8971 61.6688 22.8509C61.6688 22.8037 61.6922 22.7806 61.7634 22.7806H62.0226C62.0937 22.7806 62.1171 22.8037 62.1649 22.874L63.2506 26.2317L64.2193 22.874C64.2427 22.8037 64.2905 22.7806 64.385 22.7806H64.692C64.7632 22.7806 64.8333 22.8037 64.8577 22.874L65.8255 26.2317L66.96 22.8278C66.9833 22.7575 67.0301 22.7344 67.1013 22.7344H67.3371C67.4083 22.7344 67.4316 22.7575 67.4316 22.8037C67.4316 22.8278 67.4316 22.874 67.4083 22.9443L66.0857 26.6274C66.0623 26.6977 66.0146 26.7208 65.92 26.7208H65.6608C65.5897 26.7208 65.5185 26.6977 65.4951 26.6274L64.5263 23.2707L63.5586 26.6274C63.5342 26.6977 63.4874 26.7208 63.3929 26.7208H63.1571V26.767H63.1093Z" fill="white"/>
<path d="M69.7723 26.8832C69.1817 26.8832 68.71 26.6974 68.3787 26.3237C68.0483 25.9742 67.8826 25.4379 67.8826 24.7619C67.8826 24.109 68.0483 23.5968 68.3787 23.2001C68.71 22.8505 69.1817 22.6406 69.7723 22.6406C70.3629 22.6406 70.8356 22.8274 71.166 23.2001C71.4974 23.5496 71.6621 24.0859 71.6621 24.7619C71.6621 25.4148 71.4974 25.928 71.166 26.3237C70.8123 26.6974 70.3629 26.8832 69.7723 26.8832ZM69.7723 26.4644C70.6943 26.4644 71.166 25.9049 71.166 24.7619C71.166 23.6199 70.6943 23.0605 69.7723 23.0605C68.8513 23.0605 68.3787 23.6199 68.3787 24.7619C68.3787 25.9049 68.828 26.4644 69.7723 26.4644Z" fill="white"/>
<path d="M72.7947 26.7674C72.7235 26.7674 72.6523 26.7442 72.6523 26.6277V22.8974C72.6523 22.8281 72.6767 22.7578 72.7947 22.7578H72.9593C73.0539 22.7578 73.1017 22.7809 73.1017 22.8974L73.125 23.3635C73.3141 23.1304 73.5266 22.9677 73.7157 22.8974C73.9047 22.804 74.1406 22.7578 74.3774 22.7578C74.472 22.7578 74.5421 22.7578 74.5655 22.7578C74.6367 22.7578 74.7078 22.7809 74.7078 22.8974V23.0842C74.7078 23.1073 74.7078 23.1073 74.6844 23.1546C74.66 23.1777 74.66 23.1776 74.6133 23.1776C74.5899 23.1776 74.5187 23.1776 74.472 23.1776C74.4476 23.1776 74.3774 23.1776 74.3063 23.1776C74.0704 23.1776 73.8336 23.2008 73.6445 23.3173C73.4554 23.4107 73.2907 23.5503 73.0783 23.7371V26.6508C73.0783 26.7212 73.0539 26.7915 72.936 26.7915H72.7713V26.7674H72.7947Z" fill="white"/>
<path d="M75.5573 26.7689C75.4872 26.7689 75.416 26.7458 75.416 26.6293V21.0107C75.416 20.9404 75.4394 20.8711 75.5573 20.8711H75.7942C75.8653 20.8711 75.9355 20.8942 75.9355 21.0107V24.5542L77.8486 22.8528C77.9198 22.7825 77.9909 22.7825 78.0377 22.7825H78.3447C78.4159 22.7825 78.4392 22.8056 78.4392 22.8528C78.4392 22.899 78.4159 22.9221 78.3447 22.9924L76.3848 24.6948L78.5104 26.6293C78.5338 26.6524 78.5815 26.6996 78.5815 26.7227C78.5815 26.793 78.5582 26.793 78.487 26.793H78.1556C78.0855 26.793 78.0143 26.7689 77.9909 26.7227L75.9355 24.8344V26.6524C75.9355 26.7227 75.9121 26.793 75.7942 26.793H75.5573V26.7689Z" fill="white"/>
<path d="M14.0491 36.8658C13.6003 36.7021 13.2696 36.4932 13.0806 36.2592C12.8917 36.0262 12.7972 35.7238 12.7972 35.3502C12.7972 34.8842 12.9625 34.5115 13.3169 34.2313C13.6712 33.9511 14.1437 33.8115 14.7342 33.8115C15.2301 33.8115 15.7026 33.9049 16.175 34.0917V34.9304C15.679 34.7908 15.2301 34.6974 14.805 34.6974C14.2145 34.6974 13.9074 34.8842 13.9074 35.2568C13.9074 35.3974 13.9547 35.5139 14.0491 35.6063C14.1437 35.6997 14.3562 35.7932 14.6396 35.8866L15.2066 36.0965C15.6789 36.2592 16.0096 36.4691 16.1986 36.679C16.3876 36.912 16.5057 37.1923 16.5057 37.5649C16.5057 38.0781 16.3167 38.4749 15.9388 38.7772C15.5608 39.0805 15.0648 39.2201 14.4035 39.2201C14.12 39.2201 13.8366 39.197 13.553 39.1508C13.2696 39.1036 13.0334 39.0343 12.8208 38.9409V38.0781C13.0806 38.1484 13.3405 38.2178 13.624 38.265C13.9074 38.3112 14.1672 38.3343 14.4035 38.3343C14.7105 38.3343 14.9231 38.2881 15.0884 38.1715C15.2538 38.055 15.3247 37.9144 15.3247 37.7055C15.3247 37.5418 15.2774 37.4253 15.183 37.3319C15.0884 37.2385 14.8759 37.1451 14.5924 37.0286L14.0491 36.8658ZM18.2063 37.4956C18.2297 37.822 18.3242 38.055 18.5133 38.2178C18.7024 38.3574 18.986 38.4277 19.3641 38.4277C19.6945 38.4277 20.0961 38.3574 20.5454 38.2409V38.964C20.3797 39.0574 20.1672 39.1267 19.907 39.1739C19.6711 39.2201 19.4109 39.2442 19.1517 39.2442C18.5133 39.2442 18.0172 39.0805 17.6867 38.731C17.3561 38.3815 17.1908 37.8913 17.1908 37.2154C17.1908 36.5856 17.3561 36.0965 17.6867 35.7238C18.0172 35.3733 18.4899 35.1875 19.0805 35.1875C19.5766 35.1875 19.9548 35.3271 20.2374 35.6063C20.4976 35.8866 20.6389 36.2592 20.6389 36.7724C20.6389 36.8889 20.6389 37.0054 20.6155 37.1451C20.5921 37.2857 20.5921 37.4022 20.5687 37.4956H18.2063ZM19.0094 35.9569C18.7501 35.9569 18.5611 36.0262 18.4188 36.1668C18.2775 36.3064 18.2063 36.5163 18.1829 36.7955H19.6711V36.679C19.6711 36.1899 19.4587 35.9569 19.0094 35.9569ZM23.167 39.0574C22.9546 39.1508 22.7177 39.1739 22.4819 39.1739C21.7967 39.1739 21.4664 38.8013 21.4664 38.055V33.6016H22.5764V37.9616C22.5764 38.1012 22.5998 38.1947 22.6476 38.265C22.6944 38.3112 22.7655 38.3574 22.8834 38.3574C22.9546 38.3574 23.0491 38.3574 23.167 38.3343V39.0574ZM24.7498 37.4956C24.7732 37.822 24.8677 38.055 25.0568 38.2178C25.2459 38.3574 25.5285 38.4277 25.9066 38.4277C26.238 38.4277 26.6396 38.3574 27.0879 38.2409V38.964C26.9222 39.0574 26.7097 39.1267 26.4505 39.1739C26.2136 39.2201 25.9544 39.2442 25.6942 39.2442C25.0568 39.2442 24.5607 39.0805 24.2293 38.731C23.899 38.3815 23.7333 37.8913 23.7333 37.2154C23.7333 36.5856 23.899 36.0965 24.2293 35.7238C24.5607 35.3733 25.0324 35.1875 25.623 35.1875C26.1191 35.1875 26.4973 35.3271 26.7809 35.6063C27.0411 35.8866 27.1824 36.2592 27.1824 36.7724C27.1824 36.8889 27.1824 37.0054 27.159 37.1451C27.1357 37.2857 27.1356 37.4022 27.1113 37.4956H24.7498ZM25.5763 35.9569C25.316 35.9569 25.127 36.0262 24.9857 36.1668C24.8444 36.3064 24.7732 36.5163 24.7498 36.7955H26.238V36.679C26.2136 36.1899 26.0012 35.9569 25.5763 35.9569ZM30.7962 38.964C30.6549 39.0343 30.4892 39.1036 30.3002 39.1508C30.1111 39.197 29.8986 39.2201 29.7095 39.2201C29.0956 39.2201 28.6229 39.0574 28.2925 38.7079C27.9621 38.3574 27.7964 37.8682 27.7964 37.2385C27.7964 36.6097 27.9621 36.1196 28.3159 35.77C28.6706 35.4205 29.1433 35.2337 29.7339 35.2337C30.1111 35.2337 30.4425 35.304 30.7495 35.4667V36.1899C30.4425 36.0965 30.1822 36.0734 29.922 36.0734C29.5682 36.0734 29.308 36.1668 29.1433 36.3295C28.9776 36.5163 28.9065 36.7955 28.9065 37.1692V37.2857C28.9065 37.6583 28.9776 37.9385 29.1433 38.1243C29.308 38.3112 29.5683 38.3815 29.8986 38.3815C30.1355 38.3815 30.4425 38.3343 30.7495 38.2409V38.964H30.7962ZM33.8672 39.0343C33.5836 39.1267 33.3 39.197 32.9462 39.197C32.5203 39.197 32.1899 39.1036 32.0009 38.8937C31.7884 38.6838 31.6939 38.3815 31.6939 37.9616V36.1196H31.1032V35.4436L31.7172 35.3271L31.8829 34.2775H32.7805V35.304H33.8195V36.1196H32.7805V37.9144C32.7805 38.0781 32.8283 38.1947 32.8985 38.265C32.9696 38.3343 33.1109 38.3574 33.3 38.3574C33.4657 38.3574 33.6314 38.3343 33.8439 38.3112V39.0343H33.8672Z" fill="white"/>
<path d="M36.6235 38.622C36.5789 38.622 36.5597 38.6037 36.5597 38.5615V35.9882H35.6281C35.5835 35.9882 35.5643 35.9699 35.5643 35.9274V35.8306C35.5643 35.7884 35.5835 35.7701 35.6281 35.7701H37.7467C37.7912 35.7701 37.8104 35.7884 37.8104 35.8306V35.9274C37.8104 35.9699 37.7912 35.9882 37.7467 35.9882H36.815V38.5615C36.815 38.6037 36.7958 38.622 36.7511 38.622H36.6235ZM39.1504 38.6825C38.8058 38.6825 38.5504 38.5917 38.3719 38.4039C38.1995 38.2164 38.1102 37.9438 38.1102 37.5804C38.1102 37.2353 38.1995 36.969 38.3719 36.7752C38.5504 36.5814 38.7929 36.4906 39.1056 36.4906C39.3673 36.4906 39.5714 36.5634 39.7117 36.7027C39.8523 36.8479 39.9223 37.0478 39.9223 37.3141C39.9223 37.4231 39.916 37.5079 39.9031 37.5624C39.8968 37.6047 39.8712 37.6229 39.8267 37.6229H38.359C38.359 37.9135 38.4293 38.1253 38.557 38.2586C38.6844 38.3979 38.8887 38.4644 39.163 38.4644C39.3737 38.4644 39.5714 38.4282 39.7564 38.3617C39.7946 38.3494 39.8202 38.3434 39.8331 38.3434C39.8457 38.3434 39.8523 38.3494 39.8649 38.3554C39.8712 38.3677 39.8778 38.3737 39.8778 38.3919V38.4524C39.8778 38.4947 39.8649 38.5249 39.8267 38.5372C39.6288 38.634 39.3992 38.6825 39.1504 38.6825ZM39.6861 37.4351C39.6861 37.3989 39.6927 37.3503 39.6927 37.3021C39.6927 37.1023 39.6417 36.957 39.5395 36.8539C39.4374 36.7509 39.2907 36.7027 39.0927 36.7027C38.6333 36.7027 38.3909 36.9507 38.3653 37.4411H39.6861V37.4351ZM41.3834 38.6702C41.0517 38.6702 40.7966 38.5795 40.6179 38.3979C40.4457 38.2164 40.3562 37.9438 40.3562 37.5927C40.3562 37.2413 40.4457 36.975 40.6179 36.7874C40.7966 36.5996 41.0517 36.5088 41.3834 36.5088C41.543 36.5088 41.6962 36.5331 41.8365 36.5876C41.8684 36.5996 41.8876 36.6299 41.8876 36.6724V36.7329C41.8876 36.7692 41.8684 36.7874 41.8365 36.7874C41.8302 36.7874 41.8173 36.7874 41.8047 36.7812C41.7918 36.7752 41.7728 36.7752 41.741 36.7692C41.6259 36.7449 41.5111 36.7267 41.3963 36.7267C41.122 36.7267 40.924 36.7934 40.8029 36.9265C40.6816 37.0598 40.6179 37.2718 40.6179 37.5684V37.6169C40.6179 37.9015 40.6816 38.1133 40.8029 38.2466C40.924 38.3797 41.122 38.4524 41.39 38.4524C41.5048 38.4524 41.6259 38.4342 41.7665 38.3979C41.7983 38.3919 41.8173 38.3859 41.8302 38.3797C41.8428 38.3737 41.8557 38.3737 41.8621 38.3737C41.8939 38.3737 41.9131 38.3919 41.9131 38.4282V38.4887C41.9131 38.5312 41.9002 38.5615 41.8684 38.5735C41.7217 38.634 41.5559 38.6702 41.3834 38.6702ZM42.5002 38.622C42.4555 38.622 42.4362 38.6037 42.4362 38.5615V35.6368C42.4362 35.5946 42.4555 35.5763 42.5002 35.5763H42.615C42.6598 35.5763 42.6787 35.5946 42.6787 35.6368V36.7874C42.8193 36.6964 42.9659 36.6239 43.1255 36.5694C43.2787 36.5148 43.4317 36.4906 43.5786 36.4906C43.7889 36.4906 43.9484 36.5451 44.0635 36.6481C44.1783 36.7509 44.2294 36.9085 44.2294 37.1143V38.5615C44.2294 38.6037 44.2101 38.622 44.1654 38.622H44.0506C44.0061 38.622 43.9869 38.6037 43.9869 38.5615V37.2173C43.9869 37.0415 43.9484 36.9085 43.8784 36.8297C43.8081 36.7509 43.6933 36.7087 43.5338 36.7087C43.2466 36.7087 42.9659 36.7934 42.6916 36.969V38.5615C42.6916 38.6037 42.6724 38.622 42.6276 38.622H42.5002ZM44.9631 38.622C44.9183 38.622 44.8994 38.6037 44.8994 38.5615V36.6116C44.8994 36.5694 44.9183 36.5511 44.9631 36.5511H45.0523C45.0971 36.5511 45.1226 36.5694 45.1289 36.6116L45.1482 36.7874C45.2885 36.6904 45.4417 36.6179 45.5947 36.5634C45.7479 36.5088 45.9011 36.4846 46.0477 36.4846C46.2584 36.4846 46.4179 36.5391 46.5327 36.6419C46.6475 36.7449 46.6985 36.9025 46.6985 37.1083V38.5615C46.6985 38.6037 46.6796 38.622 46.6348 38.622H46.5201C46.4753 38.622 46.4561 38.6037 46.4561 38.5615V37.2173C46.4561 37.0415 46.4179 36.9085 46.3476 36.8297C46.2776 36.7509 46.1625 36.7087 46.0033 36.7087C45.716 36.7087 45.4354 36.7934 45.1608 36.969V38.5615C45.1608 38.6037 45.1418 38.622 45.0971 38.622H44.9631ZM48.2555 38.6825C47.9364 38.6825 47.6876 38.5857 47.5155 38.3919C47.3367 38.1981 47.2538 37.9255 47.2538 37.5804C47.2538 37.2353 47.343 36.969 47.5155 36.7752C47.694 36.5814 47.9427 36.4846 48.2555 36.4846C48.5746 36.4846 48.8234 36.5814 48.9955 36.7752C49.1743 36.969 49.2636 37.2353 49.2636 37.5804C49.2636 37.9255 49.1743 38.1981 48.9955 38.3919C48.8234 38.5857 48.5746 38.6825 48.2555 38.6825ZM48.2555 38.4704C48.7531 38.4704 49.0085 38.1738 49.0085 37.5867C49.0085 36.9992 48.7597 36.7087 48.2555 36.7087C47.7579 36.7087 47.5026 36.9992 47.5026 37.5867C47.5026 38.1738 47.7513 38.4704 48.2555 38.4704ZM50.1953 38.634C50.0805 38.634 49.991 38.6037 49.9273 38.5372C49.8635 38.4707 49.8314 38.3859 49.8314 38.2646V35.6308C49.8314 35.5886 49.8506 35.5703 49.8954 35.5703H50.0102C50.0549 35.5703 50.0739 35.5886 50.0739 35.6308V38.2586C50.0739 38.3191 50.0868 38.3617 50.1123 38.3859C50.1379 38.4099 50.1824 38.4222 50.2463 38.4222C50.2656 38.4222 50.2845 38.4222 50.3037 38.4162C50.3229 38.4162 50.3419 38.4099 50.3548 38.4099C50.393 38.4099 50.4185 38.4282 50.4185 38.4704V38.5492C50.4185 38.5857 50.3996 38.6037 50.3611 38.6097C50.31 38.628 50.259 38.634 50.1953 38.634ZM51.8033 38.6825C51.4842 38.6825 51.2352 38.5857 51.063 38.3919C50.8842 38.1981 50.8013 37.9255 50.8013 37.5804C50.8013 37.2353 50.8908 36.969 51.063 36.7752C51.2418 36.5814 51.4905 36.4846 51.8033 36.4846C52.1221 36.4846 52.3712 36.5814 52.5433 36.7752C52.7221 36.969 52.8113 37.2353 52.8113 37.5804C52.8113 37.9255 52.7221 38.1981 52.5433 38.3919C52.3712 38.5857 52.1221 38.6825 51.8033 38.6825ZM51.8033 38.4704C52.3009 38.4704 52.556 38.1738 52.556 37.5867C52.556 36.9992 52.3072 36.7087 51.8033 36.7087C51.3055 36.7087 51.0504 36.9992 51.0504 37.5867C51.0567 38.1738 51.3055 38.4704 51.8033 38.4704ZM54.1448 39.518C54.0237 39.518 53.9023 39.506 53.7875 39.4817C53.6728 39.4575 53.5706 39.4272 53.4814 39.385C53.4495 39.3727 53.4303 39.3424 53.4303 39.3002V39.2394C53.4303 39.2032 53.4429 39.1852 53.4814 39.1852C53.4877 39.1852 53.5003 39.1852 53.5069 39.1912C53.5195 39.1912 53.5388 39.1972 53.5643 39.2092C53.7683 39.2697 53.9597 39.3062 54.1258 39.3062C54.3939 39.3062 54.5916 39.2457 54.7193 39.1184C54.8467 38.9913 54.9106 38.7915 54.9106 38.5189V38.3191C54.8022 38.4039 54.6871 38.4704 54.5531 38.5189C54.4257 38.5675 54.298 38.5917 54.1832 38.5917C53.9023 38.5917 53.6854 38.4947 53.5132 38.3071C53.3474 38.1193 53.2644 37.8713 53.2644 37.5624C53.2644 37.2293 53.3474 36.969 53.5132 36.7752C53.6791 36.5814 53.9089 36.4846 54.1959 36.4846C54.4702 36.4846 54.7063 36.5754 54.917 36.7572L54.9362 36.6056C54.9425 36.5634 54.968 36.5451 55.0125 36.5451H55.102C55.1465 36.5451 55.1657 36.5634 55.1657 36.6056V38.5189C55.1657 38.8398 55.0765 39.0881 54.9041 39.2577C54.7319 39.4272 54.4702 39.518 54.1448 39.518ZM54.2406 38.3797C54.4576 38.3797 54.6808 38.2949 54.9106 38.1193V36.975C54.7893 36.8842 54.6808 36.8114 54.566 36.7692C54.4576 36.7267 54.3362 36.7027 54.2151 36.7027C53.9853 36.7027 53.8068 36.7752 53.692 36.9145C53.5769 37.0598 53.5195 37.2656 53.5195 37.5502C53.5195 37.8167 53.5835 38.0226 53.7046 38.1678C53.826 38.3131 54.0045 38.3797 54.2406 38.3797ZM55.9124 39.518C55.8421 39.518 55.7784 39.506 55.7147 39.4877C55.6699 39.4757 55.6507 39.4515 55.6507 39.403V39.3424C55.6507 39.3062 55.6699 39.2879 55.7018 39.2879C55.721 39.2879 55.7336 39.2879 55.7465 39.2939C55.7592 39.2939 55.7784 39.3002 55.8039 39.3002C55.8294 39.3002 55.855 39.3002 55.8932 39.3002C55.989 39.3002 56.0656 39.2759 56.123 39.2274C56.1804 39.1789 56.2315 39.0941 56.2825 38.9731L56.4292 38.628L55.5741 36.6359C55.5614 36.6116 55.5551 36.5936 55.5551 36.5814C55.5551 36.5511 55.5741 36.5331 55.6059 36.5331H55.7465C55.7847 36.5331 55.8102 36.5511 55.8231 36.5876L56.5503 38.3554L57.2843 36.5876C57.2969 36.5511 57.3224 36.5331 57.3609 36.5331H57.4883C57.5201 36.5331 57.5394 36.5451 57.5394 36.5814C57.5394 36.5876 57.533 36.6056 57.5201 36.6359L56.4995 39.0459C56.4292 39.2154 56.3462 39.3304 56.257 39.403C56.1675 39.4877 56.0527 39.518 55.9124 39.518Z" fill="white"/>
<path d="M59.6178 39.436C59.5608 39.436 59.5364 39.4116 59.5364 39.3539V35.6523C59.5364 35.5951 59.5608 35.5703 59.6178 35.5703H60.855C61.2049 35.5703 61.4817 35.6771 61.6936 35.8822C61.9052 36.0876 62.0029 36.3666 62.0029 36.7194C62.0029 37.0642 61.8971 37.3431 61.6936 37.5482C61.4817 37.7536 61.2049 37.8601 60.855 37.8601H59.8538V39.3539C59.8538 39.4116 59.8294 39.436 59.7725 39.436H59.6178ZM60.8469 37.5648C61.3923 37.5648 61.6691 37.2859 61.6691 36.7194C61.6691 36.153 61.3923 35.8659 60.8469 35.8659H59.8538V37.5648H60.8469ZM63.3621 39.5017C63.1099 39.5017 62.9064 39.4278 62.7515 39.28C62.6051 39.1322 62.5238 38.9353 62.5238 38.6892C62.5238 38.4184 62.6132 38.2048 62.8006 38.0489C62.9876 37.893 63.2402 37.8109 63.5576 37.8109C63.8018 37.8109 64.0705 37.8519 64.3472 37.9425V37.4747C64.3472 37.2449 64.2901 37.0889 64.1843 36.9903C64.0785 36.8916 63.8995 36.8425 63.6553 36.8425C63.4028 36.8425 63.1341 36.8916 62.8493 36.9821C62.8167 36.9903 62.7841 36.9984 62.768 36.9984C62.7354 36.9984 62.7109 36.974 62.7109 36.9245V36.8343C62.7109 36.8015 62.719 36.7852 62.7274 36.7686C62.7354 36.7523 62.7599 36.7357 62.7841 36.7276C63.0773 36.6127 63.3866 36.5554 63.7121 36.5554C64.0379 36.5554 64.274 36.6208 64.4365 36.7605C64.5994 36.9001 64.6726 37.1052 64.6726 37.3842V39.3539C64.6726 39.4116 64.6481 39.436 64.5914 39.436H64.4772C64.4204 39.436 64.3959 39.4116 64.3878 39.3539L64.3633 39.116C64.0379 39.3702 63.704 39.5017 63.3621 39.5017ZM63.4028 39.2061C63.5411 39.2061 63.696 39.1817 63.8585 39.1241C64.0214 39.0668 64.1843 38.9848 64.3553 38.878V38.1804C64.1111 38.1147 63.8669 38.0818 63.6389 38.0818C63.126 38.0818 62.8657 38.2787 62.8657 38.6811C62.8657 38.8533 62.9144 38.9848 63.0041 39.075C63.0854 39.1651 63.2238 39.2061 63.4028 39.2061ZM65.6006 39.436C65.5435 39.436 65.5193 39.4116 65.5193 39.3539V36.7113C65.5193 36.6537 65.5435 36.6293 65.6006 36.6293H65.7064C65.7635 36.6293 65.7961 36.6537 65.8041 36.7113L65.8286 37.0394C65.967 36.8835 66.1054 36.7686 66.2438 36.7113C66.3821 36.6455 66.5286 36.6127 66.6995 36.6127C66.7566 36.6127 66.8053 36.6127 66.8459 36.6208C66.903 36.6208 66.9276 36.6537 66.9276 36.7113V36.8506C66.9276 36.8672 66.9192 36.8835 66.9111 36.8916C66.903 36.9082 66.8866 36.9082 66.8705 36.9082C66.8379 36.9082 66.8134 36.9082 66.7892 36.9082C66.7647 36.9082 66.724 36.9082 66.675 36.9082C66.504 36.9082 66.3576 36.9411 66.2273 37.0065C66.0973 37.0723 65.967 37.171 65.8528 37.3103V39.3621C65.8528 39.4197 65.8286 39.4441 65.7715 39.4441H65.6006V39.436ZM68.2787 39.4689C68.0591 39.4689 67.8962 39.4116 67.782 39.2967C67.6681 39.1817 67.6114 39.0092 67.6114 38.7875V36.9164H67.1717C67.1146 36.9164 67.0901 36.8916 67.0901 36.8343V36.7771C67.0901 36.7442 67.0985 36.7276 67.1066 36.7113C67.1146 36.6947 67.1392 36.6866 67.1717 36.6866L67.6194 36.6455L67.6601 35.9069C67.6601 35.874 67.6681 35.8578 67.6846 35.8412C67.7007 35.8249 67.7172 35.8249 67.7413 35.8249H67.8391C67.8962 35.8249 67.9207 35.8496 67.9207 35.9069V36.6374H68.7264C68.7835 36.6374 68.8077 36.6622 68.8077 36.7194V36.8343C68.8077 36.8916 68.7835 36.9164 68.7264 36.9164H67.9207V38.7712C67.9207 38.9272 67.9529 39.034 68.0181 39.0912C68.0832 39.157 68.189 39.1899 68.3439 39.1899C68.4497 39.1899 68.5474 39.1817 68.6287 39.1651C68.6693 39.157 68.7019 39.1489 68.7264 39.1489C68.7509 39.1407 68.767 39.1407 68.7835 39.1407C68.8241 39.1407 68.8483 39.1651 68.8483 39.2061V39.2882C68.8483 39.3539 68.8322 39.3868 68.7835 39.4031C68.6367 39.4441 68.4658 39.4689 68.2787 39.4689ZM69.5079 39.436C69.4508 39.436 69.4263 39.4116 69.4263 39.3539V36.7113C69.4263 36.6537 69.4508 36.6293 69.5079 36.6293H69.6218C69.6789 36.6293 69.7115 36.6537 69.7195 36.7113L69.7437 36.9493C69.923 36.8181 70.1182 36.7194 70.3136 36.6455C70.5091 36.5716 70.7042 36.5388 70.8917 36.5388C71.1603 36.5388 71.3639 36.6127 71.5103 36.7523C71.6567 36.8916 71.7219 37.1052 71.7219 37.3842V39.3539C71.7219 39.4116 71.6974 39.436 71.6406 39.436H71.4938C71.4371 39.436 71.4126 39.4116 71.4126 39.3539V37.532C71.4126 37.294 71.3639 37.1133 71.2742 37.0065C71.1845 36.9001 71.0381 36.8425 70.8346 36.8425C70.4685 36.8425 70.1101 36.9574 69.7602 37.1953V39.3539C69.7602 39.4116 69.7356 39.436 69.6789 39.436H69.5079ZM73.7488 39.518C73.3091 39.518 72.9837 39.395 72.7556 39.1407C72.536 38.8862 72.4218 38.5167 72.4218 38.0245C72.4218 37.5567 72.536 37.1954 72.7556 36.933C72.9837 36.6703 73.293 36.5472 73.6917 36.5472C74.0255 36.5472 74.2858 36.6455 74.4651 36.8343C74.6442 37.0313 74.7335 37.3021 74.7335 37.6631C74.7335 37.8109 74.7254 37.9258 74.7093 37.9997C74.7013 38.0574 74.6687 38.0818 74.6116 38.0818H72.7395C72.7395 38.4757 72.8289 38.7631 72.9917 38.9434C73.1546 39.1322 73.4149 39.2228 73.7649 39.2228C74.0336 39.2228 74.2858 39.1733 74.5219 39.0831C74.5709 39.0668 74.6035 39.0583 74.6196 39.0583C74.6361 39.0583 74.6442 39.0668 74.6603 39.075C74.6687 39.0912 74.6767 39.0994 74.6767 39.1241V39.2061C74.6767 39.2638 74.6603 39.3048 74.6116 39.3211C74.3594 39.4526 74.0661 39.518 73.7488 39.518ZM74.4326 37.8275C74.4326 37.778 74.4406 37.7126 74.4406 37.6469C74.4406 37.376 74.3755 37.1791 74.2452 37.0394C74.1148 36.9001 73.9278 36.8343 73.6756 36.8343C73.0895 36.8343 72.7802 37.171 72.7476 37.8357H74.4326V37.8275ZM75.5231 39.436C75.4663 39.436 75.4418 39.4116 75.4418 39.3539V36.7113C75.4418 36.6537 75.4663 36.6293 75.5231 36.6293H75.6289C75.686 36.6293 75.7185 36.6537 75.7266 36.7113L75.7511 37.0394C75.8895 36.8835 76.0279 36.7686 76.1662 36.7113C76.3046 36.6455 76.451 36.6127 76.622 36.6127C76.6791 36.6127 76.7278 36.6127 76.7688 36.6208C76.8255 36.6208 76.85 36.6537 76.85 36.7113V36.8506C76.85 36.8672 76.842 36.8835 76.8336 36.8916C76.8255 36.9082 76.8094 36.9082 76.7929 36.9082C76.7604 36.9082 76.7362 36.9082 76.7117 36.9082C76.6872 36.9082 76.6465 36.9082 76.5978 36.9082C76.4269 36.9082 76.2801 36.9411 76.1501 37.0065C76.0198 37.0723 75.8895 37.171 75.7756 37.3103V39.3621C75.7756 39.4197 75.7511 39.4441 75.694 39.4441H75.5231V39.436Z" fill="white"/>
</svg>
