<svg width="16" height="16" viewBox="0 0 16 16" fill="none" xmlns="http://www.w3.org/2000/svg">
<path d="M3.49139 8.90826L14.7532 9.02769C15.0066 9.03002 15.2213 8.94476 15.3974 8.77192C15.573 8.5995 15.662 8.38657 15.6643 8.13314C15.6666 7.8797 15.5814 7.66496 15.4085 7.48891C15.2361 7.31329 15.0232 7.22431 14.7698 7.22198L3.50771 7.13423L8.36722 2.3633C8.54838 2.18544 8.6403 1.97507 8.64295 1.7322C8.64476 1.48933 8.55674 1.27731 8.37887 1.09614C8.20101 0.914974 7.99064 0.823063 7.74778 0.820406C7.5049 0.818595 7.29288 0.90662 7.11171 1.08448L0.717619 7.36202C0.536453 7.53988 0.444755 7.75004 0.442525 7.99249C0.440287 8.23579 0.5281 8.44802 0.705964 8.62918L6.9835 15.0233C7.16136 15.2044 7.37173 15.2959 7.61461 15.2977C7.85748 15.3004 8.0695 15.2128 8.25066 15.0349C8.43183 14.8571 8.52332 14.6467 8.52513 14.4038C8.52778 14.161 8.44018 13.9489 8.26232 13.7678L3.49139 8.90826Z" fill="#05164D"/>
</svg>
