<svg width="40" height="46" viewBox="0 0 40 46" fill="none" xmlns="http://www.w3.org/2000/svg">
<rect x="0.75" y="0.75" width="38.1111" height="44.5" rx="17.25" stroke="#858585" stroke-width="1.5"/>
<path d="M23.0831 20.0593L14.0828 29.0849C13.88 29.2877 13.639 29.3891 13.3598 29.3891C13.0812 29.3891 12.8406 29.2877 12.6377 29.0849C12.4349 28.882 12.3335 28.641 12.3335 28.3618C12.3335 28.0833 12.4349 27.8426 12.6377 27.6398L21.6633 18.6395H13.9561C13.6687 18.6395 13.4277 18.5425 13.233 18.3485C13.039 18.1538 12.942 17.9128 12.942 17.6254C12.942 17.3381 13.039 17.0971 13.233 16.9024C13.4277 16.7083 13.6687 16.6113 13.9561 16.6113H24.0972C24.3845 16.6113 24.6252 16.7083 24.8192 16.9024C25.0139 17.0971 25.1113 17.3381 25.1113 17.6254V27.7665C25.1113 28.0539 25.0139 28.2945 24.8192 28.4886C24.6252 28.6833 24.3845 28.7806 24.0972 28.7806C23.8098 28.7806 23.5692 28.6833 23.3751 28.4886C23.1804 28.2945 23.0831 28.0539 23.0831 27.7665V20.0593Z" fill="#858585"/>
</svg>
