<svg width="40" height="46" viewBox="0 0 40 46" fill="none" xmlns="http://www.w3.org/2000/svg">
<rect width="39.6111" height="46" rx="18" fill="white"/>
<path d="M23.0829 20.0593L14.0827 29.0849C13.8799 29.2877 13.6389 29.3891 13.3597 29.3891C13.0811 29.3891 12.8404 29.2877 12.6376 29.0849C12.4348 28.882 12.3334 28.641 12.3334 28.3618C12.3334 28.0833 12.4348 27.8426 12.6376 27.6398L21.6632 18.6395H13.9559C13.6686 18.6395 13.4276 18.5425 13.2329 18.3485C13.0389 18.1538 12.9418 17.9128 12.9418 17.6254C12.9418 17.3381 13.0389 17.0971 13.2329 16.9024C13.4276 16.7083 13.6686 16.6113 13.9559 16.6113H24.097C24.3844 16.6113 24.6251 16.7083 24.8191 16.9024C25.0138 17.0971 25.1112 17.3381 25.1112 17.6254V27.7665C25.1112 28.0539 25.0138 28.2945 24.8191 28.4886C24.6251 28.6833 24.3844 28.7806 24.097 28.7806C23.8097 28.7806 23.569 28.6833 23.375 28.4886C23.1803 28.2945 23.0829 28.0539 23.0829 27.7665V20.0593Z" fill="#05164D"/>
</svg>
