<svg width="22" height="22" viewBox="0 0 22 22" fill="none" xmlns="http://www.w3.org/2000/svg">
<g clip-path="url(#clip0_294_10622)">
<path fill-rule="evenodd" clip-rule="evenodd" d="M0.916626 11.0008C0.916626 5.43206 5.43121 0.91748 11 0.91748C16.5687 0.91748 21.0833 5.43206 21.0833 11.0008C21.0833 16.5696 16.5687 21.0841 11 21.0841C5.43121 21.0841 0.916626 16.5696 0.916626 11.0008ZM11 19.2508C9.91655 19.2508 8.84376 19.0374 7.84282 18.6228C6.84188 18.2082 5.93241 17.6005 5.16633 16.8344C4.40024 16.0684 3.79255 15.1589 3.37795 14.158C2.96335 13.157 2.74996 12.0842 2.74996 11.0008C2.74996 9.91741 2.96335 8.84461 3.37795 7.84368C3.79255 6.84274 4.40024 5.93327 5.16633 5.16718C5.93241 4.4011 6.84188 3.79341 7.84282 3.37881C8.84376 2.96421 9.91655 2.75081 11 2.75081C13.188 2.75081 15.2864 3.62001 16.8336 5.16718C18.3808 6.71436 19.25 8.81278 19.25 11.0008C19.25 13.1888 18.3808 15.2873 16.8336 16.8344C15.2864 18.3816 13.188 19.2508 11 19.2508Z" fill="#0400F5"/>
<path d="M9.38942 14.9546L5.5 11.0642L6.79617 9.76805L9.38942 12.3604L14.5741 7.1748L15.8712 8.47189L9.38942 14.9546Z" fill="#0400F5"/>
</g>
<defs>
<clipPath id="clip0_294_10622">
<rect width="22" height="22" fill="white"/>
</clipPath>
</defs>
</svg>
