<svg width="132" height="35" viewBox="0 0 132 35" fill="none" xmlns="http://www.w3.org/2000/svg">
<g clip-path="url(#clip0_3917_25535)">
<path d="M0.0334473 1.26659V0.105469H4.72712V5.06089L0.0334473 1.26659Z" fill="white" fill-opacity="0.5"/>
<path d="M0.0334473 10.8551V21.6999H4.72712V5.05859L0.0334473 10.8551Z" fill="white" fill-opacity="0.5"/>
<path d="M8.94775 7.41487C9.33889 7.20921 9.85354 7.00352 10.4917 6.79782C11.1299 6.57154 11.8298 6.37614 12.5915 6.21159C13.3532 6.04705 14.1149 5.91335 14.8766 5.8105C15.6589 5.70765 16.3794 5.65625 17.0381 5.65625C18.438 5.65625 19.632 5.84135 20.6202 6.21159C21.6083 6.56128 22.3597 7.13721 22.8744 7.9394C23.4096 8.74158 23.6772 9.83175 23.6772 11.2099V21.7001H19.0762V12.1355C19.0762 11.7447 19.0145 11.3847 18.8909 11.0556C18.788 10.7265 18.6233 10.4488 18.3968 10.2225C18.1704 9.97574 17.8616 9.7906 17.4705 9.6672C17.0793 9.52321 16.6058 9.45121 16.05 9.45121C15.5765 9.45121 15.103 9.51291 14.6296 9.63635C14.1561 9.7392 13.7958 9.8523 13.5488 9.9757V21.7001H8.94775V7.41487Z" fill="white" fill-opacity="0.5"/>
<path d="M32.3202 21.7017L25.8047 6.08984H30.8071L35.5317 18.1227L34.42 18.1535L38.6198 6.08984H43.4676L36.9522 21.7017H32.3202Z" fill="white" fill-opacity="0.5"/>
<path d="M52.3562 22.1656C49.7212 22.1656 47.7347 21.4663 46.3966 20.0675C45.0789 18.6483 44.4204 16.5708 44.4204 13.8352C44.4204 10.8938 45.0895 8.78547 46.4276 7.5102C47.786 6.21434 49.7626 5.56641 52.3562 5.56641C54.1062 5.56641 55.5676 5.86469 56.7413 6.46118C57.9353 7.03711 58.8307 7.93185 59.4277 9.14542C60.0454 10.359 60.3539 11.9222 60.3539 13.8352C60.3539 16.5708 59.6645 18.6483 58.2853 20.0675C56.9057 21.4663 54.9295 22.1656 52.3562 22.1656ZM52.3562 18.494C53.1181 18.494 53.746 18.3192 54.2401 17.9695C54.7545 17.5993 55.1354 17.0748 55.3824 16.396C55.6502 15.6967 55.7841 14.843 55.7841 13.8352C55.7841 12.6833 55.6502 11.7783 55.3824 11.1201C55.1354 10.4413 54.7545 9.9579 54.2401 9.66995C53.7253 9.36141 53.0973 9.20712 52.3562 9.20712C51.5741 9.20712 50.9359 9.36141 50.4419 9.66995C49.9478 9.97845 49.5771 10.4721 49.3301 11.1509C49.1038 11.8091 48.9906 12.7039 48.9906 13.8352C48.9906 15.3984 49.258 16.5708 49.7932 17.3525C50.3491 18.1135 51.2033 18.494 52.3562 18.494Z" fill="white" fill-opacity="0.5"/>
<path d="M63.6226 21.7006V6.30469H68.2233L68.2543 21.7006H63.6226Z" fill="white" fill-opacity="0.5"/>
<path d="M79.6837 22.1011C78.5718 22.1011 77.5219 21.9366 76.5338 21.6075C75.5456 21.2784 74.6707 20.7847 73.9092 20.1265C73.1474 19.4683 72.5504 18.6353 72.1182 17.6274C71.6856 16.6195 71.4695 15.4471 71.4695 14.1101C71.4695 12.6908 71.6754 11.4567 72.0872 10.4077C72.4987 9.33807 73.0652 8.45363 73.7855 7.75426C74.5266 7.05492 75.3914 6.53043 76.3795 6.18074C77.3676 5.83106 78.4587 5.65625 79.6527 5.65625C80.4968 5.65625 81.3612 5.7488 82.2463 5.9339C83.1522 6.09845 83.945 6.33499 84.6242 6.64353V10.5928C83.9035 10.2637 83.1933 9.9963 82.4934 9.7906C81.8141 9.56436 81.1142 9.45121 80.3938 9.45121C79.0968 9.45121 78.0468 9.78031 77.2439 10.4385C76.4617 11.0762 76.0706 12.1252 76.0706 13.5856C76.0706 15.1283 76.4206 16.2904 77.1206 17.072C77.8206 17.8537 78.9837 18.2444 80.6099 18.2444C81.3717 18.2444 82.1023 18.1108 82.8022 17.8434C83.523 17.576 84.1403 17.2983 84.6551 17.0103V20.9287C83.9344 21.299 83.1832 21.5869 82.401 21.7926C81.6188 21.9983 80.7129 22.1011 79.6837 22.1011Z" fill="white" fill-opacity="0.5"/>
<path d="M94.9367 22.1656C93.3723 22.1656 91.9826 21.8468 90.7682 21.2091C89.5741 20.5509 88.6373 19.6253 87.9581 18.4323C87.2992 17.2188 86.97 15.7789 86.97 14.1128C86.97 11.3977 87.639 9.29971 88.9771 7.81874C90.3356 6.31718 92.2707 5.56641 94.7825 5.56641C96.5117 5.56641 97.9011 5.93665 98.951 6.67713C100.022 7.41761 100.804 8.49749 101.298 9.91675C101.792 11.336 102.029 13.0638 102.008 15.1002H90.1195L89.6254 12.1691H98.21L97.5307 13.6192C97.51 11.9531 97.2731 10.7807 96.8206 10.1019C96.3676 9.42311 95.6265 9.08372 94.5969 9.08372C94.0207 9.08372 93.4957 9.22771 93.0224 9.51566C92.5694 9.80364 92.2092 10.287 91.9415 10.9658C91.6944 11.624 91.5707 12.5393 91.5707 13.7117C91.5707 15.1927 91.9207 16.3343 92.6207 17.1365C93.3414 17.9387 94.4838 18.3398 96.0486 18.3398C96.6248 18.3398 97.1909 18.278 97.7468 18.1546C98.3231 18.0106 98.8586 17.8461 99.3527 17.661C99.8468 17.4759 100.269 17.3113 100.619 17.1673V21.1166C99.8773 21.4251 99.0438 21.672 98.1172 21.8571C97.2117 22.0627 96.1515 22.1656 94.9367 22.1656Z" fill="white" fill-opacity="0.5"/>
<path d="M105.205 21.6997V7.72301C105.493 7.47621 106.008 7.19852 106.749 6.88997C107.49 6.56088 108.334 6.27289 109.281 6.02609C110.248 5.7587 111.216 5.625 112.183 5.625C113.151 5.625 113.913 5.69696 114.469 5.84095C115.025 5.98494 115.447 6.17005 115.735 6.39633V9.75935C115.385 9.67706 114.942 9.61536 114.407 9.57421C113.872 9.53311 113.316 9.51251 112.739 9.51251C112.163 9.49196 111.617 9.49196 111.103 9.51251C110.588 9.5331 110.156 9.57421 109.806 9.63595V21.6997H105.205Z" fill="white" fill-opacity="0.5"/>
<path d="M124.434 22.1625C123.487 22.1625 122.592 22.0699 121.748 21.8848C120.924 21.7202 120.193 21.4425 119.555 21.0517C118.938 20.6403 118.454 20.0953 118.104 19.4165C117.754 18.7171 117.579 17.8533 117.579 16.8248C117.579 15.8581 117.775 15.0147 118.166 14.2948C118.578 13.5749 119.195 13.0195 120.019 12.6287C120.842 12.2379 121.882 12.0425 123.137 12.0425C123.837 12.0425 124.517 12.1145 125.176 12.2585C125.834 12.4025 126.421 12.5979 126.936 12.8447C127.471 13.0915 127.893 13.3589 128.202 13.6469L128.387 15.8684C127.975 15.6215 127.481 15.4261 126.905 15.2821C126.328 15.1381 125.711 15.0662 125.052 15.0662C124.043 15.0662 123.302 15.2204 122.829 15.529C122.376 15.8169 122.149 16.2797 122.149 16.9174C122.149 17.3082 122.262 17.6579 122.489 17.9664C122.715 18.2749 123.014 18.5114 123.384 18.676C123.776 18.8406 124.177 18.9228 124.589 18.9228C125.639 18.9228 126.37 18.8508 126.781 18.7069C127.214 18.5629 127.43 18.2749 127.43 17.843V12.1042C127.43 11.158 127.121 10.4793 126.503 10.0679C125.906 9.63595 125.052 9.41996 123.94 9.41996C123.034 9.41996 122.118 9.58451 121.192 9.91361C120.286 10.2221 119.545 10.6027 118.969 11.0552V6.98253C119.504 6.65343 120.327 6.34489 121.439 6.05694C122.571 5.76896 123.837 5.625 125.237 5.625C125.731 5.625 126.277 5.66611 126.874 5.7484C127.471 5.83066 128.068 5.98494 128.665 6.21119C129.262 6.41689 129.808 6.72543 130.302 7.13681C130.816 7.54816 131.228 8.0727 131.537 8.71033C131.845 9.34797 132 10.1399 132 11.0861L131.969 18.46C131.969 19.3445 131.671 20.0644 131.074 20.6198C130.477 21.1546 129.612 21.5454 128.48 21.7922C127.368 22.039 126.02 22.1625 124.434 22.1625Z" fill="white" fill-opacity="0.5"/>
<path d="M60.1574 32.9756C60.1574 34.0084 59.411 34.5248 57.9186 34.5248C57.2006 34.5248 56.6684 34.4272 56.3222 34.232C55.976 34.0367 55.8025 33.6809 55.8025 33.1645C55.8025 32.9315 55.8594 32.73 55.9726 32.5599C56.0861 32.3962 56.2686 32.2167 56.5206 32.0215C56.3128 31.883 56.2087 31.6531 56.2087 31.3319C56.2087 31.206 56.2939 31.0013 56.464 30.7179L56.5489 30.5762C56.0955 30.3054 55.8689 29.8331 55.8689 29.1593C55.8689 28.5925 56.039 28.1769 56.3788 27.9124C56.7189 27.6479 57.1787 27.5156 57.758 27.5156C58.0352 27.5156 58.309 27.5471 58.5798 27.6101L58.7216 27.6384L60.1856 27.6006V28.4319L59.4016 28.3847C59.5717 28.6051 59.6569 28.8633 59.6569 29.1593C59.6569 29.7764 59.4992 30.2047 59.1843 30.444C58.8758 30.677 58.3908 30.7935 57.7297 30.7935C57.566 30.7935 57.4276 30.7809 57.3141 30.7557C57.2258 30.9698 57.1817 31.1367 57.1817 31.2564C57.1817 31.3697 57.2387 31.4484 57.3518 31.4925C57.4713 31.5366 57.755 31.5618 58.2019 31.5681C58.9513 31.5744 59.4646 31.6752 59.7418 31.8704C60.0189 32.0656 60.1574 32.434 60.1574 32.9756ZM56.8132 33.0701C56.8132 33.2905 56.9015 33.4479 57.078 33.5424C57.2541 33.6368 57.5566 33.6841 57.9846 33.6841C58.7468 33.6841 59.1278 33.4668 59.1278 33.0323C59.1278 32.7867 59.0584 32.6292 58.92 32.5599C58.7876 32.497 58.5202 32.4623 58.117 32.456L57.1911 32.3994C57.0527 32.5127 56.955 32.6166 56.8985 32.7111C56.8419 32.8119 56.8132 32.9315 56.8132 33.0701ZM56.889 29.1593C56.889 29.449 56.9584 29.6631 57.0968 29.8016C57.2353 29.9339 57.4589 30 57.7674 30C58.0759 30 58.2965 29.9339 58.4289 29.8016C58.5673 29.6631 58.6367 29.449 58.6367 29.1593C58.6367 28.8696 58.5673 28.6586 58.4289 28.5264C58.2901 28.3878 58.0665 28.3186 57.758 28.3186C57.1787 28.3186 56.889 28.5988 56.889 29.1593Z" fill="white" fill-opacity="0.5"/>
<path d="M51.9024 32.3349H50.8728V27.6117H51.893V27.9045C52.3527 27.64 52.7872 27.5078 53.1964 27.5078C53.8262 27.5078 54.2546 27.6873 54.4813 28.0462C54.714 28.3989 54.8305 28.9846 54.8305 29.8033V32.3349H53.8104V29.8316C53.8104 29.3215 53.7538 28.9594 53.6403 28.7453C53.5335 28.5312 53.3099 28.4241 52.9697 28.4241C52.6488 28.4241 52.3399 28.4871 52.0438 28.613L51.9024 28.6697V32.3349Z" fill="white" fill-opacity="0.5"/>
<path d="M48.594 32.3312V27.608H49.6236V32.3312H48.594ZM48.594 26.8051V25.7188H49.6236V26.8051H48.594Z" fill="white" fill-opacity="0.5"/>
<path d="M46.2615 32.3325V25.6445H47.2911V32.3325H46.2615Z" fill="white" fill-opacity="0.5"/>
<path d="M43.8723 32.3325V25.6445H44.9019V32.3325H43.8723Z" fill="white" fill-opacity="0.5"/>
<path d="M41.5371 32.3312V27.608H42.5667V32.3312H41.5371ZM41.5371 26.8051V25.7188H42.5667V26.8051H41.5371Z" fill="white" fill-opacity="0.5"/>
<path d="M35.8757 25.8633H38.3317C38.9932 25.8633 39.4873 25.9987 39.815 26.2695C40.1423 26.534 40.306 26.9591 40.306 27.5447C40.306 27.9289 40.243 28.2312 40.1171 28.4516C39.9975 28.672 39.8056 28.8546 39.5408 28.9994C40.1582 29.2388 40.4667 29.7394 40.4667 30.5014C40.4667 31.7232 39.7803 32.334 38.4075 32.334H35.8757V25.8633ZM38.3317 29.5096H36.9243V31.4272H38.3505C38.6971 31.4272 38.9551 31.3547 39.1252 31.2099C39.3017 31.0651 39.3899 30.8163 39.3899 30.4636C39.3899 30.111 39.2889 29.8654 39.0875 29.7268C38.8861 29.582 38.6342 29.5096 38.3317 29.5096ZM38.2751 26.7701H36.9243V28.6216H38.3128C38.9302 28.6216 39.2387 28.3036 39.2387 27.6675C39.2387 27.0693 38.9174 26.7701 38.2751 26.7701Z" fill="white" fill-opacity="0.5"/>
<path d="M32.5274 28.5831C31.7843 28.4823 31.2458 28.4319 30.9121 28.4319C30.5783 28.4319 30.3453 28.4729 30.213 28.5547C30.0871 28.6303 30.0241 28.7531 30.0241 28.9231C30.0241 29.0932 30.0934 29.2128 30.2319 29.2821C30.3768 29.3514 30.7106 29.4332 31.2332 29.5277C31.7622 29.6159 32.1369 29.7576 32.3573 29.9528C32.5777 30.148 32.688 30.4944 32.688 30.9919C32.688 31.4894 32.5274 31.8547 32.2062 32.0877C31.8914 32.3207 31.4285 32.4372 30.8176 32.4372C30.4335 32.4372 29.9485 32.3836 29.3629 32.2766L29.07 32.2293L29.1078 31.3697C29.8635 31.4705 30.4083 31.5209 30.742 31.5209C31.0758 31.5209 31.3119 31.4799 31.4505 31.398C31.5954 31.3162 31.6678 31.1808 31.6678 30.9919C31.6678 30.803 31.5985 30.6739 31.4599 30.6046C31.3277 30.529 31.0034 30.4503 30.487 30.3684C29.9769 30.2802 29.6022 30.1448 29.3629 29.9622C29.1236 29.7796 29.0039 29.4458 29.0039 28.9609C29.0039 28.476 29.1676 28.1139 29.4951 27.8746C29.8289 27.6353 30.254 27.5156 30.7704 27.5156C31.1734 27.5156 31.6678 27.566 32.2534 27.6667L32.5463 27.7234L32.5274 28.5831Z" fill="white" fill-opacity="0.5"/>
<path d="M28.0994 28.5831C27.3563 28.4823 26.8179 28.4319 26.4841 28.4319C26.1503 28.4319 25.9173 28.4729 25.785 28.5547C25.6591 28.6303 25.5961 28.7531 25.5961 28.9231C25.5961 29.0932 25.6654 29.2128 25.8039 29.2821C25.9488 29.3514 26.2825 29.4332 26.8053 29.5277C27.3342 29.6159 27.709 29.7576 27.9294 29.9528C28.1498 30.148 28.26 30.4944 28.26 30.9919C28.26 31.4894 28.0994 31.8547 27.7782 32.0877C27.4633 32.3207 27.0005 32.4372 26.3896 32.4372C26.0055 32.4372 25.5206 32.3836 24.9349 32.2766L24.642 32.2293L24.6798 31.3697C25.4356 31.4705 25.9803 31.5209 26.314 31.5209C26.6478 31.5209 26.884 31.4799 27.0225 31.398C27.1674 31.3162 27.2398 31.1808 27.2398 30.9919C27.2398 30.803 27.1705 30.6739 27.032 30.6046C26.8997 30.529 26.5754 30.4503 26.059 30.3684C25.5489 30.2802 25.1742 30.1448 24.9349 29.9622C24.6956 29.7796 24.5759 29.4458 24.5759 28.9609C24.5759 28.476 24.7396 28.1139 25.0671 27.8746C25.4009 27.6353 25.826 27.5156 26.3424 27.5156C26.7454 27.5156 27.2398 27.566 27.8255 27.6667L28.1183 27.7234L28.0994 28.5831Z" fill="white" fill-opacity="0.5"/>
<path d="M23.3872 31.4847L23.6517 31.4564L23.6706 32.2215C22.9527 32.3664 22.3166 32.4388 21.7624 32.4388C21.0634 32.4388 20.5596 32.2467 20.251 31.8626C19.9487 31.4784 19.7976 30.8644 19.7976 30.0205C19.7976 28.3454 20.4809 27.5078 21.8475 27.5078C23.1699 27.5078 23.8312 28.2289 23.8312 29.671L23.765 30.4078H20.8367C20.843 30.7983 20.928 31.0848 21.0917 31.2674C21.2555 31.4501 21.5609 31.5414 22.008 31.5414C22.4551 31.5414 22.9149 31.5225 23.3872 31.4847ZM22.8204 29.6143C22.8204 29.1483 22.7449 28.824 22.5937 28.6414C22.4488 28.4524 22.2001 28.358 21.8475 28.358C21.4948 28.358 21.2366 28.4556 21.0728 28.6508C20.9154 28.846 20.8335 29.1672 20.8272 29.6143H22.8204Z" fill="white" fill-opacity="0.5"/>
<path d="M17.6919 32.3325V25.6445H18.7215V32.3325H17.6919Z" fill="white" fill-opacity="0.5"/>
<path d="M13.5079 32.3349H12.4783V27.6117H13.4985V27.9045C13.9582 27.64 14.3927 27.5078 14.8021 27.5078C15.4318 27.5078 15.8601 27.6873 16.0868 28.0462C16.3198 28.3989 16.4363 28.9846 16.4363 29.8033V32.3349H15.4161V29.8316C15.4161 29.3215 15.3594 28.9594 15.246 28.7453C15.139 28.5312 14.9154 28.4241 14.5754 28.4241C14.2542 28.4241 13.9456 28.4871 13.6496 28.613L13.5079 28.6697V32.3349Z" fill="white" fill-opacity="0.5"/>
<path d="M10.1997 32.3312V27.608H11.2294V32.3312H10.1997ZM10.1997 26.8051V25.7188H11.2294V26.8051H10.1997Z" fill="white" fill-opacity="0.5"/>
<path d="M8.90731 29.0664V31.2202C8.91361 31.3587 8.94823 31.4626 9.01122 31.5319C9.0805 31.5949 9.1844 31.6358 9.32293 31.6547L9.2946 32.4388C8.75303 32.4388 8.33421 32.3223 8.03823 32.0893C7.53444 32.3223 7.02748 32.4388 6.51736 32.4388C5.57903 32.4388 5.10986 31.9381 5.10986 30.9368C5.10986 30.4582 5.23583 30.1118 5.48772 29.8977C5.74591 29.6836 6.13954 29.5545 6.66852 29.5104L7.88711 29.4065V29.0664C7.88711 28.8145 7.83042 28.6382 7.71705 28.5374C7.61002 28.4367 7.44943 28.3863 7.23529 28.3863C6.83224 28.3863 6.32845 28.4115 5.72389 28.4619L5.42161 28.4808L5.38382 27.7534C6.07026 27.5897 6.70001 27.5078 7.27308 27.5078C7.85245 27.5078 8.26809 27.6337 8.51999 27.8857C8.77818 28.1313 8.90731 28.5249 8.90731 29.0664ZM6.79132 30.2378C6.35677 30.2756 6.13954 30.5117 6.13954 30.9463C6.13954 31.3808 6.33162 31.5981 6.71574 31.5981C7.03061 31.5981 7.36439 31.5477 7.71705 31.4469L7.88711 31.3902V30.1339L6.79132 30.2378Z" fill="white" fill-opacity="0.5"/>
<path d="M2.37103 30.3219H1.04854V32.334H0V25.8633H2.37103C3.83837 25.8633 4.57203 26.5875 4.57203 28.0359C4.57203 28.779 4.38625 29.3458 4.01469 29.7363C3.64943 30.1267 3.10155 30.3219 2.37103 30.3219ZM1.04854 29.4151H2.36158C3.11729 29.4151 3.49515 28.9554 3.49515 28.0359C3.49515 27.5951 3.40383 27.2739 3.2212 27.0724C3.03857 26.8709 2.75203 26.7701 2.36158 26.7701H1.04854V29.4151Z" fill="white" fill-opacity="0.5"/>
</g>
<defs>
<clipPath id="clip0_3917_25535">
<rect width="132" height="34.6971" fill="white"/>
</clipPath>
</defs>
</svg>
