<svg width="19" height="18" viewBox="0 0 19 18" fill="none" xmlns="http://www.w3.org/2000/svg">
<g clip-path="url(#clip0_419_10349)">
<path opacity="0.2" d="M18.8334 9.0003C18.8334 4.03173 14.8039 0.00390625 9.83337 0.00390625C4.86281 0.00390625 0.833374 4.03173 0.833374 9.0003C0.833374 13.9689 4.86281 17.9967 9.83337 17.9967C14.8039 17.9967 18.8334 13.9689 18.8334 9.0003Z" fill="#0400F5"/>
<path d="M15.8334 9.00028C15.8334 5.6879 13.1471 3.00269 9.83337 3.00269C6.51967 3.00269 3.83337 5.6879 3.83337 9.00028C3.83337 12.3127 6.51967 14.9979 9.83337 14.9979C13.1471 14.9979 15.8334 12.3127 15.8334 9.00028Z" fill="#0400F5"/>
<path d="M6.83337 9.00102L8.83317 11.0008L12.8334 7.00122" stroke="white" stroke-width="2"/>
<path d="M6.83337 8.9998L8.83317 10.9996L12.8334 7" stroke="white" stroke-width="2"/>
</g>
<defs>
<clipPath id="clip0_419_10349">
<rect x="0.833374" y="0.00390625" width="18" height="17.9928" rx="8.99639" fill="white"/>
</clipPath>
</defs>
</svg>
