<svg width="14" height="14" viewBox="0 0 14 14" fill="none" xmlns="http://www.w3.org/2000/svg">
<path d="M11.0829 4.0593L2.08271 13.0849C1.87989 13.2877 1.63887 13.3891 1.35965 13.3891C1.08111 13.3891 0.840428 13.2877 0.637607 13.0849C0.434785 12.882 0.333374 12.641 0.333374 12.3618C0.333374 12.0833 0.434785 11.8426 0.637607 11.6398L9.66318 2.63955H1.95595C1.66862 2.63955 1.4276 2.54253 1.23289 2.3485C1.03886 2.15379 0.941839 1.91277 0.941839 1.62544C0.941839 1.33811 1.03886 1.09709 1.23289 0.902378C1.4276 0.708345 1.66862 0.611328 1.95595 0.611328H12.097C12.3844 0.611328 12.6251 0.708345 12.8191 0.902378C13.0138 1.09709 13.1112 1.33811 13.1112 1.62544V11.7665C13.1112 12.0539 13.0138 12.2945 12.8191 12.4886C12.6251 12.6833 12.3844 12.7806 12.097 12.7806C11.8097 12.7806 11.569 12.6833 11.375 12.4886C11.1803 12.2945 11.0829 12.0539 11.0829 11.7665V4.0593Z" fill="#858585"/>
</svg>
