<?xml version="1.0" encoding="UTF-8"?>
<svg xmlns="http://www.w3.org/2000/svg" width="138" height="40" viewBox="0 0 138 40" fill="none">
  <g clip-path="url(#clip0_1954_9079)">
    <mask id="mask0_1954_9079" style="mask-type:luminance" maskUnits="userSpaceOnUse" x="0" y="0" width="138" height="40">
      <path d="M137.5 0H0.5V40H137.5V0Z" fill="white"></path>
    </mask>
    <g mask="url(#mask0_1954_9079)">
      <path d="M22.8454 20.1727C22.8454 26.3432 17.8432 31.3454 11.6727 31.3454C5.50224 31.3454 0.5 26.3431 0.5 20.1727C0.5 14.0022 5.50227 9 11.6727 9C17.8432 8.99997 22.8454 14.0022 22.8454 20.1727Z" fill="white"></path>
      <path d="M13.158 14.5859H7.75781V25.7586H9.99236V22.4069H13.158C15.3176 22.4069 17.0684 20.6561 17.0684 18.4964C17.0684 16.3367 15.3176 14.5859 13.158 14.5859ZM13.158 20.1722L9.99232 20.1723V16.8205H13.158C14.0835 16.8205 14.8338 17.5708 14.8338 18.4963C14.8338 19.4219 14.0835 20.1722 13.158 20.1722Z" fill="#DA552F"></path>
      <path d="M27.1875 26.7272V14.2129H32.9366C35.6094 14.2129 37.065 16.019 37.065 18.1756C37.065 20.3134 35.5915 22.1193 32.9366 22.1193H29.8048V26.7272H27.1875ZM34.3939 18.1756C34.3939 17.1431 33.6 16.5164 32.569 16.5164H29.8048V19.8157H32.569C33.6 19.8158 34.3939 19.1892 34.3939 18.1756Z" fill="white"></path>
      <path d="M38.6562 26.7269V17.6034H40.9958V18.8018C41.6411 18.0274 42.729 17.3828 43.835 17.3828V19.6676C43.6684 19.6307 43.466 19.6128 43.1898 19.6128C42.4155 19.6128 41.383 20.0547 40.9958 20.6266V26.7269H38.6562Z" fill="white"></path>
      <path d="M44.7188 22.0455C44.7188 19.5207 46.488 17.3828 49.4188 17.3828C52.3677 17.3828 54.137 19.5207 54.137 22.0455C54.137 24.5704 52.3677 26.7268 49.4188 26.7268C46.4881 26.7269 44.7188 24.5704 44.7188 22.0455ZM51.7046 22.0455C51.7046 20.6633 50.8927 19.4651 49.4191 19.4651C47.9619 19.4651 47.1516 20.6633 47.1516 22.0455C47.1516 23.4465 47.9619 24.6439 49.4191 24.6439C50.8927 24.6439 51.7046 23.4465 51.7046 22.0455Z" fill="white"></path>
      <path d="M62.0182 26.7272V25.3631C61.3174 26.2478 60.3598 26.7272 59.2719 26.7272C57.0419 26.7272 55.3281 25.0314 55.3281 22.0459C55.3281 19.1526 57.0059 17.3831 59.2719 17.3831C60.3224 17.3831 61.3174 17.8251 62.0182 18.7465V14.2129H64.3773V26.7271L62.0182 26.7272ZM62.0182 23.6306V20.479C61.6309 19.8892 60.7832 19.4653 60.0086 19.4653C58.6642 19.4653 57.7426 20.5158 57.7426 22.0458C57.7426 23.5937 58.6641 24.644 60.0086 24.644C60.7831 24.644 61.6309 24.2202 62.0182 23.6306Z" fill="white"></path>
      <path d="M72.7182 26.727V25.3816C72.1105 26.045 71.0419 26.727 69.5862 26.727C67.6325 26.727 66.7109 25.6577 66.7109 23.9252V17.6035H69.0506V23.004C69.0506 24.2387 69.6959 24.6439 70.6907 24.6439C71.5942 24.6439 72.3132 24.1467 72.7182 23.6305V17.6035H75.0594V26.727H72.7182Z" fill="white"></path>
      <path d="M76.8125 22.0455C76.8125 19.3179 78.8024 17.3828 81.5307 17.3828C83.3556 17.3828 84.4616 18.1751 85.0512 18.9864L83.5205 20.4231C83.0974 19.7966 82.4521 19.4651 81.6417 19.4651C80.2221 19.4651 79.2271 20.4975 79.2271 22.0455C79.2271 23.5934 80.2221 24.6439 81.6417 24.6439C82.4521 24.6439 83.0974 24.2756 83.5205 23.667L85.0512 25.1045C84.4616 25.9159 83.3556 26.7269 81.5307 26.7269C78.8024 26.7269 76.8125 24.7918 76.8125 22.0455Z" fill="white"></path>
      <path d="M87.0596 24.2767V19.6508H85.5859V17.6045H87.0596V15.1719H89.4007V17.6045H91.206V19.6508H89.4007V23.6502C89.4007 24.221 89.6949 24.645 90.2111 24.645C90.5607 24.645 90.8937 24.516 91.0213 24.3689L91.5196 26.1562C91.1701 26.4699 90.5425 26.7279 89.5657 26.7279C87.9254 26.728 87.0596 25.8802 87.0596 24.2767Z" fill="white"></path>
      <path d="M106.203 26.7272V21.3269H100.397V26.7272H97.7812V14.2129H100.397V19.0415H106.203V14.2129H108.838V26.7272H106.203Z" fill="white"></path>
      <path d="M117.21 26.727V25.3816C116.603 26.045 115.534 26.727 114.078 26.727C112.125 26.727 111.203 25.6577 111.203 23.9252V17.6035H113.543V23.004C113.543 24.2387 114.188 24.6439 115.183 24.6439C116.086 24.6439 116.805 24.1467 117.21 23.6305V17.6035H119.552V26.727H117.21Z" fill="white"></path>
      <path d="M127.89 26.7269V21.1241C127.89 19.889 127.246 19.4651 126.25 19.4651C125.328 19.4651 124.629 19.9813 124.223 20.4975V26.7268H121.883V17.6033H124.223V18.7463C124.794 18.083 125.9 17.3828 127.338 17.3828C129.31 17.3828 130.249 18.4882 130.249 20.2206V26.7269H127.89Z" fill="white"></path>
      <path d="M133.036 24.2767V19.6508H131.562V17.6045H133.036V15.1719H135.377V17.6045H137.182V19.6508H135.377V23.6502C135.377 24.221 135.671 24.645 136.187 24.645C136.537 24.645 136.87 24.516 136.999 24.3689L137.496 26.1562C137.147 26.4699 136.519 26.7279 135.542 26.7279C133.902 26.728 133.036 25.8802 133.036 24.2767Z" fill="white"></path>
    </g>
  </g>
  <defs>
    <clipPath id="clip0_1954_9079">
      <rect width="137" height="40" fill="white" transform="translate(0.5)"></rect>
    </clipPath>
  </defs>
</svg>
