<svg width="24" height="24" viewBox="0 0 24 24" fill="none" xmlns="http://www.w3.org/2000/svg">
<path fill-rule="evenodd" clip-rule="evenodd" d="M6.24229 14.5791H4.53048C5.40009 17.9581 8.46739 20.4549 12.1178 20.4549C14.5843 20.4549 16.7853 19.3166 18.2237 17.5297L20.2067 18.142C20.0622 18.3534 19.9095 18.5588 19.7493 18.7578C19.0235 19.6592 18.1413 20.4293 17.1439 21.027C15.6746 21.9073 13.9553 22.4134 12.1178 22.4134C8.17751 22.4134 4.78074 20.0862 3.22705 16.7313C2.91266 16.0524 2.67373 15.3314 2.52104 14.5791H0.366699L3.30449 10.6621L6.24229 14.5791ZM4.02623 7.10346L6.0092 7.71521C7.44761 5.9264 9.64984 4.78665 12.1178 4.78665C15.7674 4.78665 18.8341 7.2822 19.7045 10.6599H17.9935L20.9313 14.577L23.869 10.6599H21.7141C21.5613 9.90821 21.3224 9.18777 21.0082 8.50936C19.4543 5.15492 16.0578 2.82812 12.1178 2.82812C10.279 2.82812 8.55856 3.33494 7.08856 4.2165C6.09091 4.8148 5.20861 5.5857 4.48296 6.48793C4.32295 6.68687 4.17056 6.89219 4.02623 7.10346Z" fill="#414141"/>
</svg>
