<svg width="24" height="21" viewBox="0 0 24 21" fill="none" xmlns="http://www.w3.org/2000/svg">
<path fill-rule="evenodd" clip-rule="evenodd" d="M6.24229 12.5791H4.53048C5.40009 15.9581 8.46739 18.4549 12.1178 18.4549C14.5843 18.4549 16.7853 17.3166 18.2237 15.5297L20.2067 16.142C20.0622 16.3534 19.9095 16.5588 19.7493 16.7578C19.0235 17.6592 18.1413 18.4293 17.1439 19.027C15.6746 19.9073 13.9553 20.4134 12.1178 20.4134C8.17751 20.4134 4.78074 18.0862 3.22705 14.7313C2.91266 14.0524 2.67373 13.3314 2.52104 12.5791H0.366699L3.30449 8.66207L6.24229 12.5791ZM4.02623 5.10346L6.0092 5.71521C7.44761 3.9264 9.64984 2.78665 12.1178 2.78665C15.7674 2.78665 18.8341 5.2822 19.7045 8.65994H17.9935L20.9313 12.577L23.869 8.65994H21.7141C21.5613 7.90821 21.3224 7.18777 21.0082 6.50936C19.4543 3.15492 16.0578 0.828125 12.1178 0.828125C10.279 0.828125 8.55856 1.33494 7.08856 2.2165C6.09091 2.8148 5.20861 3.5857 4.48296 4.48793C4.32295 4.68687 4.17056 4.89219 4.02623 5.10346Z" fill="#414141"/>
</svg>
