<?xml version="1.0" encoding="UTF-8"?>
<svg xmlns="http://www.w3.org/2000/svg" width="138" height="40" viewBox="0 0 138 40" fill="none">
  <g clip-path="url(#clip0_1954_9097)">
    <mask id="mask0_1954_9097" style="mask-type:luminance" maskUnits="userSpaceOnUse" x="0" y="5" width="138" height="30">
      <path d="M137.5 5H0.5V34.8176H137.5V5Z" fill="white"></path>
    </mask>
    <g mask="url(#mask0_1954_9097)">
      <path d="M28.4791 25.3917L20.6779 25.5378C20.4149 25.5378 20.152 25.6839 19.9766 25.9176C19.1878 27.174 16.7335 30.6802 14.5421 33.1345C14.0746 33.5727 13.3149 33.4559 12.9936 32.9007C12.9351 32.7838 12.8475 32.667 12.8475 32.6377C12.38 31.5566 10.9483 25.3041 10.3055 24.5152C9.51666 23.5802 2.73805 21.8856 1.68621 21.5349C0.926538 21.272 0.72201 20.2786 1.30637 19.7234C3.03023 18.0872 5.80595 15.779 7.79274 14.4642C8.05572 14.3181 8.23101 14.0259 8.23101 13.7337L8.11417 6.31238C8.11417 5.72801 8.69853 5.28975 9.25362 5.55271C10.9191 6.25394 13.8993 8.12389 15.7693 9.76009C15.9738 9.99383 16.2952 10.0815 16.5874 9.99383C17.9314 9.614 21.7005 8.53294 25.382 8.32841C25.8787 8.2992 26.2877 8.70825 26.2293 9.23418C26.054 10.9873 25.5573 14.7563 24.7391 17.2399C24.6515 17.5029 24.6807 17.7658 24.8852 17.9995C25.6741 19.0222 27.5441 21.5934 29.1803 24.1645C29.4725 24.7197 29.1218 25.3917 28.4791 25.3917Z" fill="white"></path>
      <path d="M19.626 16.2465C19.626 17.2107 18.8372 18.0288 17.8729 18.0288C16.9088 18.0288 16.1199 17.2399 16.1199 16.2465C16.1199 15.2823 16.9088 14.4642 17.8729 14.4642C18.8372 14.4642 19.626 15.2823 19.626 16.2465ZM28.4791 25.3917L20.6779 25.5378C20.4149 25.5378 20.1519 25.6839 19.9766 25.9176C19.1878 27.174 16.7335 30.6802 14.5421 33.1345C14.0746 33.5727 13.3149 33.4559 12.9936 32.9007C12.9351 32.7838 12.8475 32.667 12.8475 32.6377C12.38 31.5566 10.9483 25.3041 10.3055 24.5152C9.51666 23.5802 2.73805 21.8856 1.68621 21.5349C0.926538 21.272 0.72201 20.2786 1.30637 19.7234C3.03023 18.0872 5.80595 15.779 7.79274 14.4642C8.05572 14.3181 8.23101 14.0259 8.23101 13.7337L8.11417 6.31238C8.11417 5.72801 8.69853 5.28975 9.25362 5.55271C10.9191 6.25394 13.8993 8.12389 15.7693 9.76009C15.9738 9.99383 16.2952 10.0815 16.5874 9.99383C17.9314 9.614 21.7005 8.53294 25.382 8.32841C25.8787 8.2992 26.2877 8.70825 26.2293 9.23418C26.054 10.9873 25.5573 14.7563 24.7391 17.2399C24.6515 17.5029 24.6807 17.7658 24.8852 17.9995C25.6741 19.0222 27.5441 21.5934 29.1803 24.1645C29.4725 24.7197 29.1218 25.3917 28.4791 25.3917ZM23.8918 10.9288C23.9503 10.7243 23.7458 10.5198 23.512 10.549C15.6232 11.3671 8.40635 17.1231 6.06888 19.1975C5.68906 19.5189 5.80595 20.1325 6.27343 20.3078C6.27343 20.3078 11.2989 21.1259 12.4969 22.1485C13.3734 22.9082 14.2208 27.4662 14.2208 27.4662C14.396 27.9045 14.9512 27.9921 15.2726 27.6707C22.0803 20.6876 23.6289 12.8572 23.8918 10.9288Z" fill="url(#paint0_linear_1954_9097)"></path>
      <path d="M10.5409 29.9216C10.4824 29.6587 10.3948 29.3957 10.3071 29.1035L7.79423 31.7624C7.6189 31.967 7.53125 32.2299 7.53125 32.493C7.53125 32.7851 7.64814 33.0481 7.85268 33.2234C8.02797 33.3987 8.29095 33.4864 8.55393 33.4864C8.84609 33.4864 9.10914 33.3695 9.31367 33.165L10.9791 31.4118C10.8331 31.0027 10.687 30.506 10.5409 29.9216Z" fill="url(#paint1_linear_1954_9097)"></path>
      <path d="M9.17278 25.4499C8.96824 25.3038 8.5592 25.1578 8.09169 24.9824L1.83905 31.352C1.63452 31.5565 1.54688 31.8194 1.54688 32.0824C1.54688 32.3454 1.63452 32.6376 1.83905 32.8129C2.04357 32.9881 2.30653 33.1051 2.5695 33.1051C2.83246 33.1051 3.09542 33.0174 3.32916 32.8129L9.52334 26.5018C9.40648 26.0635 9.28963 25.6837 9.17278 25.4499Z" fill="url(#paint2_linear_1954_9097)"></path>
      <path d="M3.53081 23.5527L1.45626 25.6565C1.28094 25.861 1.16406 26.1241 1.16406 26.387C1.16406 26.65 1.25172 26.9422 1.45626 27.1175C1.66079 27.2928 1.92376 27.4097 2.18673 27.4097C2.4497 27.4097 2.7419 27.2928 2.91721 27.1175L5.8099 24.1956C4.99175 23.9911 4.17363 23.7573 3.53081 23.5527Z" fill="url(#paint3_linear_1954_9097)"></path>
      <path d="M10.5409 29.9216C10.4824 29.6587 10.3948 29.3957 10.3071 29.1035L7.79423 31.7624C7.6189 31.967 7.53125 32.2299 7.53125 32.493C7.53125 32.7851 7.64814 33.0481 7.85268 33.2234C8.02797 33.3987 8.29095 33.4864 8.55393 33.4864C8.84609 33.4864 9.10914 33.3695 9.31367 33.165L10.9791 31.4118C10.8331 31.0027 10.687 30.506 10.5409 29.9216Z" fill="url(#paint4_linear_1954_9097)" stroke="url(#paint5_linear_1954_9097)" stroke-width="0.943857"></path>
      <path d="M3.53081 23.5527L1.45626 25.6565C1.28094 25.861 1.16406 26.1241 1.16406 26.387C1.16406 26.65 1.25172 26.9422 1.45626 27.1175C1.66079 27.2928 1.92376 27.4097 2.18673 27.4097C2.4497 27.4097 2.7419 27.2928 2.91721 27.1175L5.8099 24.1956C4.99175 23.9911 4.17363 23.7573 3.53081 23.5527Z" stroke="url(#paint6_linear_1954_9097)" stroke-width="0.943857"></path>
      <path d="M9.17278 25.4499C8.96824 25.3038 8.5592 25.1578 8.09169 24.9824L1.83905 31.352C1.63452 31.5565 1.54688 31.8194 1.54688 32.0824C1.54688 32.3454 1.63452 32.6376 1.83905 32.8129C2.04357 32.9881 2.30653 33.1051 2.5695 33.1051C2.83246 33.1051 3.09542 33.0174 3.32916 32.8129L9.52334 26.5018C9.40648 26.0635 9.28963 25.6837 9.17278 25.4499Z" stroke="url(#paint7_linear_1954_9097)" stroke-opacity="0.5" stroke-width="0.943857"></path>
      <g filter="url(#filter0_ii_1954_9097)">
        <path d="M28.4869 25.3937L20.6857 25.5397C20.4227 25.5397 20.1598 25.6858 19.9844 25.9196C19.1956 27.176 16.7413 30.6821 14.5499 33.1364C14.0825 33.5747 13.3228 33.4578 13.0014 32.9027C12.9429 32.7858 12.8553 32.6689 12.8553 32.6397C12.3878 31.5586 10.9561 25.306 10.3133 24.5171C9.52447 23.5821 2.74586 21.8875 1.69402 21.5369C0.93435 21.2739 0.729822 20.2805 1.31418 19.7253C3.03805 18.0892 5.81376 15.781 7.80055 14.4662C8.06354 14.3201 8.23882 14.0278 8.23882 13.7357L8.12198 6.31433C8.12198 5.72997 8.70634 5.2917 9.26143 5.55466C10.9269 6.25589 13.9071 8.12584 15.7771 9.76205C15.9816 9.99579 16.303 10.0834 16.5952 9.99579C17.9393 9.61596 21.7083 8.53489 25.3898 8.33037C25.8865 8.30115 26.2955 8.7102 26.2371 9.23613C26.0618 10.9892 25.5651 14.7583 24.7469 17.2419C24.6593 17.5048 24.6885 17.7678 24.8931 18.0015C25.682 19.0241 27.5519 21.5953 29.1881 24.1665C29.4803 24.7217 29.1297 25.3937 28.4869 25.3937Z" stroke="url(#paint8_linear_1954_9097)" stroke-width="0.943857"></path>
      </g>
      <path d="M40.8028 17.429C39.9711 16.6572 39.0562 16.4367 38.0305 16.4367C36.672 16.4091 35.7849 16.8502 35.7849 17.7047C35.8127 18.5867 36.7275 18.9174 38.0859 19.0553C40.0265 19.2207 42.577 19.6617 42.5493 22.3631C42.5216 24.3201 40.8028 25.6708 38.0582 25.6708C36.3394 25.6708 34.6206 25.2849 33.2344 23.7413L34.3988 22.1977C35.3968 23.2727 36.8662 23.7413 38.1137 23.7413C39.1671 23.7413 40.3315 23.3553 40.3593 22.3906C40.387 21.4534 39.4721 21.0951 37.9196 20.9297C35.9235 20.7368 33.6502 20.1027 33.6226 17.7873C33.6226 15.4719 36.0344 14.5898 38.0028 14.5898C39.6384 14.5898 40.886 14.9482 42.078 15.9956L40.8028 17.429Z" fill="white"></path>
      <path d="M47.2054 11.7509C47.2054 13.5701 44.4609 13.5701 44.4609 11.7509C44.4609 9.98668 47.2054 9.98668 47.2054 11.7509ZM44.7379 14.8105V25.3402H46.9558V14.8105H44.7379Z" fill="white"></path>
      <path d="M53.3353 11.834V14.8661H56.4128V16.7681H53.3078V21.7572C53.3078 22.8598 53.8066 23.4938 54.8325 23.4938C55.2484 23.4938 55.7475 23.356 56.1908 23.1354L56.8284 25.0098C56.1076 25.3406 55.4701 25.4785 54.7215 25.4785C52.4204 25.5336 51.1174 24.238 51.1174 21.7848V16.7956H49.0938V14.8937H51.1174V12.0545L53.3353 11.834Z" fill="white"></path>
      <path d="M60.2932 20.9022C60.487 22.5009 61.8179 23.5484 63.731 23.5484C64.8118 23.5484 66.1426 23.1349 66.7803 22.4182L68.2221 23.7964C67.1408 24.9817 65.3109 25.5881 63.6752 25.5881C60.2101 25.5881 57.9922 23.383 57.9922 20.0476C57.9922 16.8502 60.2375 14.5898 63.5367 14.5898C66.9466 14.5898 69.2477 16.6572 68.8318 20.9297L60.2932 20.9022ZM66.7249 19.0553C66.5864 17.4014 65.3667 16.5194 63.592 16.5194C61.9842 16.5194 60.6534 17.4014 60.3207 19.0553H66.7249Z" fill="white"></path>
      <path d="M73.2946 14.8119V26.5819C73.2946 29.2282 72.3243 30.6064 69.9675 30.6064C69.2193 30.6064 68.4707 30.4135 67.75 29.9448L68.5539 28.2082C68.9972 28.4287 69.4688 28.539 69.9121 28.539C70.9656 28.5114 71.1319 27.7947 71.1319 26.5819V14.8119H73.2946ZM70.8271 11.7246C70.8271 13.5439 73.5715 13.5439 73.5715 11.7246C73.5715 9.93294 70.8271 9.93294 70.8271 11.7246Z" fill="white"></path>
      <path d="M84.7694 14.8378H86.9042C86.9042 18.3384 86.9042 21.8391 86.9042 25.3398H84.7968L84.6856 23.6308C83.9925 24.9815 82.3574 25.6155 81.0541 25.6155C77.977 25.643 75.6484 23.6584 75.6484 20.0749C75.6484 16.5743 78.0601 14.6172 81.1099 14.6172C82.6064 14.6172 84.0481 15.3063 84.7138 16.5192L84.7694 14.8378ZM77.8659 20.0749C77.8659 22.2526 79.4184 23.5757 81.3033 23.5757C85.8501 23.5757 85.8501 16.6294 81.3033 16.6294C79.391 16.6294 77.8659 17.9249 77.8659 20.0749Z" fill="white"></path>
      <path d="M92.1241 10.4555V16.4646C92.8172 15.2242 94.5353 14.5902 95.8384 14.5902C98.8887 14.5902 101.189 16.4922 101.189 20.048C101.189 23.5212 98.8605 25.5058 95.7836 25.5058C94.3693 25.5058 92.9558 24.9821 92.1241 23.6314L91.9855 25.2853H89.9062V10.4004L92.1241 10.4555ZM92.2353 20.0755C92.2353 22.1429 93.7601 23.4936 95.6168 23.4936C97.447 23.4936 98.9435 22.1705 98.9435 20.0755C98.9435 17.9256 97.447 16.6576 95.6168 16.6576C93.7875 16.6852 92.2353 18.0634 92.2353 20.0755Z" fill="white"></path>
      <path d="M105.733 10.4555V16.4646C106.426 15.2242 108.145 14.5902 109.449 14.5902C112.498 14.5902 114.799 16.4922 114.799 20.048C114.799 23.5212 112.47 25.5058 109.393 25.5058C107.979 25.5058 106.565 24.9821 105.733 23.6314L105.595 25.2853H103.516V10.4004L105.733 10.4555ZM105.844 20.0755C105.844 22.1429 107.369 23.4936 109.227 23.4936C111.056 23.4936 112.553 22.1705 112.553 20.0755C112.553 17.9256 111.056 16.6576 109.227 16.6576C107.397 16.6852 105.844 18.0634 105.844 20.0755Z" fill="white"></path>
      <path d="M118.785 20.9022C118.979 22.5009 120.311 23.5484 122.223 23.5484C123.305 23.5484 124.635 23.1349 125.273 22.4182L126.714 23.7964C125.633 24.9817 123.803 25.5881 122.167 25.5881C118.702 25.5881 116.484 23.383 116.484 20.0476C116.484 16.8502 118.73 14.5898 122.029 14.5898C125.439 14.5898 127.74 16.6572 127.324 20.9297L118.785 20.9022ZM125.217 19.0553C125.078 17.4014 123.859 16.5194 122.084 16.5194C120.477 16.5194 119.146 17.4014 118.813 19.0553H125.217Z" fill="white"></path>
      <path d="M131.65 14.8379L131.788 16.2161C132.564 14.8655 133.757 14.5898 134.893 14.5898C135.919 14.5898 136.917 14.9482 137.499 15.4719L136.501 17.3738C135.975 16.9604 135.448 16.7399 134.644 16.7399C133.119 16.7399 131.788 17.6771 131.788 19.6066V25.2849H129.57V14.7828L131.65 14.8379Z" fill="white"></path>
    </g>
  </g>
  <defs>
    <filter id="filter0_ii_1954_9097" x="0.504883" y="5.00098" width="29.2568" height="29.0633" color-interpolation-filters="sRGB">
      <feFlood flood-opacity="0" result="BackgroundImageFix"></feFlood>
      <feBlend mode="normal" in="SourceGraphic" in2="BackgroundImageFix" result="shape"></feBlend>
      <feColorMatrix in="SourceAlpha" type="matrix" values="0 0 0 0 0 0 0 0 0 0 0 0 0 0 0 0 0 0 127 0" result="hardAlpha"></feColorMatrix>
      <feOffset dy="0.188772"></feOffset>
      <feGaussianBlur stdDeviation="0.0943858"></feGaussianBlur>
      <feComposite in2="hardAlpha" operator="arithmetic" k2="-1" k3="1"></feComposite>
      <feColorMatrix type="matrix" values="0 0 0 0 1 0 0 0 0 1 0 0 0 0 1 0 0 0 0.8 0"></feColorMatrix>
      <feBlend mode="normal" in2="shape" result="effect1_innerShadow_1954_9097"></feBlend>
      <feColorMatrix in="SourceAlpha" type="matrix" values="0 0 0 0 0 0 0 0 0 0 0 0 0 0 0 0 0 0 127 0" result="hardAlpha"></feColorMatrix>
      <feOffset dy="0.0943858"></feOffset>
      <feGaussianBlur stdDeviation="0.0943858"></feGaussianBlur>
      <feComposite in2="hardAlpha" operator="arithmetic" k2="-1" k3="1"></feComposite>
      <feColorMatrix type="matrix" values="0 0 0 0 0.441667 0 0 0 0 0.441667 0 0 0 0 0.441667 0 0 0 0.4 0"></feColorMatrix>
      <feBlend mode="normal" in2="effect1_innerShadow_1954_9097" result="effect2_innerShadow_1954_9097"></feBlend>
    </filter>
    <linearGradient id="paint0_linear_1954_9097" x1="25.0536" y1="9.07566" x2="7.83233" y2="26.2969" gradientUnits="userSpaceOnUse">
      <stop offset="0.1745" stop-color="#52BFCA"></stop>
      <stop offset="0.9163" stop-color="#7238DF"></stop>
    </linearGradient>
    <linearGradient id="paint1_linear_1954_9097" x1="5.27506" y1="35.5942" x2="12.0272" y2="28.957" gradientUnits="userSpaceOnUse">
      <stop offset="0.1875" stop-color="#25E2EA"></stop>
      <stop offset="1" stop-color="#19A6D1"></stop>
    </linearGradient>
    <linearGradient id="paint2_linear_1954_9097" x1="-3.72813" y1="38.2056" x2="11.3351" y2="23.3988" gradientUnits="userSpaceOnUse">
      <stop stop-color="#A443FD"></stop>
      <stop offset="1" stop-color="#A959F3"></stop>
    </linearGradient>
    <linearGradient id="paint3_linear_1954_9097" x1="-1.30893" y1="29.8158" x2="6.15708" y2="22.477" gradientUnits="userSpaceOnUse">
      <stop offset="0.3958" stop-color="#E55EC4"></stop>
      <stop offset="1" stop-color="#8225D0"></stop>
    </linearGradient>
    <linearGradient id="paint4_linear_1954_9097" x1="5.27506" y1="35.5942" x2="12.0272" y2="28.957" gradientUnits="userSpaceOnUse">
      <stop offset="0.1875" stop-color="#25E2EA"></stop>
      <stop offset="1" stop-color="#19A6D1"></stop>
    </linearGradient>
    <linearGradient id="paint5_linear_1954_9097" x1="7.53125" y1="33.6982" x2="10.1021" y2="31.0318" gradientUnits="userSpaceOnUse">
      <stop></stop>
      <stop offset="0.0001" stop-color="#E4FCFF"></stop>
      <stop offset="1" stop-color="#E4FCFF" stop-opacity="0"></stop>
    </linearGradient>
    <linearGradient id="paint6_linear_1954_9097" x1="1.16406" y1="27.3041" x2="4.5356" y2="23.859" gradientUnits="userSpaceOnUse">
      <stop stop-color="#FFF5FE"></stop>
      <stop offset="0.769332" stop-color="#FFF5FE" stop-opacity="0"></stop>
    </linearGradient>
    <linearGradient id="paint7_linear_1954_9097" x1="1.87211" y1="32.8474" x2="9.1162" y2="25.4381" gradientUnits="userSpaceOnUse">
      <stop stop-color="#F6EDFE"></stop>
      <stop offset="0.850896" stop-color="#A851F8" stop-opacity="0"></stop>
    </linearGradient>
    <linearGradient id="paint8_linear_1954_9097" x1="26.4135" y1="8.144" x2="7.67795" y2="27.7998" gradientUnits="userSpaceOnUse">
      <stop offset="0.00924772" stop-color="#2D9FAB"></stop>
      <stop offset="0.0885417" stop-color="#2D9FAB" stop-opacity="0.823892"></stop>
      <stop offset="0.171875" stop-color="#2D9FAB" stop-opacity="0.8"></stop>
      <stop offset="0.302083" stop-color="#2D9FAB" stop-opacity="0.8"></stop>
      <stop offset="1" stop-color="white" stop-opacity="0.5"></stop>
    </linearGradient>
    <clipPath id="clip0_1954_9097">
      <rect width="137" height="40" fill="white" transform="translate(0.5)"></rect>
    </clipPath>
  </defs>
</svg>
