<svg width="30" height="30" viewBox="0 0 30 30" fill="none" xmlns="http://www.w3.org/2000/svg">
<path d="M0 14.9934C0.00142388 12.027 0.882383 9.12728 2.53147 6.66155C4.18056 4.19583 6.52372 2.274 9.26473 1.13982C12.0057 0.0056405 15.0215 -0.290514 17.9307 0.289062C20.84 0.868638 23.5121 2.29953 25.6091 4.39755C27.7062 6.49557 29.1341 9.16837 29.7123 12.0778C30.2905 14.9873 29.993 18.002 28.8575 20.7424C27.722 23.4828 25.7994 25.8256 23.3328 27.4735C20.8662 29.1214 17.9664 30 15 30C11.0223 29.9943 7.20918 28.4118 4.39717 25.5986C1.58515 22.7853 0.00380903 18.971 0 14.9934ZM6.4704 9.75288V20.2292C6.47103 21.1031 6.81859 21.9409 7.43668 22.5588C8.05477 23.1766 8.89285 23.5241 9.76681 23.5244H20.232C20.6648 23.5245 21.0935 23.4391 21.4934 23.2736C21.8933 23.1081 22.2567 22.8648 22.5628 22.5588C22.869 22.2528 23.1118 21.8899 23.2775 21.4901C23.4431 21.0902 23.5284 20.662 23.5284 20.2292V9.75288C23.5278 8.87894 23.1802 8.0411 22.5621 7.42325C21.9441 6.8054 21.1059 6.45797 20.232 6.45765H9.76681C8.89335 6.45924 8.0561 6.80798 7.43848 7.42559C6.82085 8.0432 6.47319 8.87945 6.47161 9.75288H6.4704ZM9.76681 21.8627C9.33355 21.8627 8.918 21.6908 8.61152 21.3846C8.30505 21.0784 8.13273 20.6624 8.13241 20.2292V13.2356H10.6776C10.3874 13.9445 10.2761 14.7141 10.3535 15.4762C10.431 16.2382 10.6947 16.9705 11.1216 17.6066C11.5485 18.2426 12.1254 18.7649 12.8014 19.1253C13.4773 19.4857 14.2316 19.6737 14.9976 19.6737C15.7636 19.6737 16.5179 19.4857 17.1938 19.1253C17.8698 18.7649 18.4467 18.2426 18.8736 17.6066C19.3005 16.9705 19.5642 16.2382 19.6417 15.4762C19.7191 14.7141 19.6078 13.9445 19.3176 13.2356H21.8628V20.2292C21.8626 20.4438 21.8202 20.6567 21.7379 20.8549C21.6556 21.0532 21.5351 21.233 21.3832 21.3846C21.2314 21.5363 21.0511 21.6565 20.8527 21.7385C20.6544 21.8205 20.4418 21.8629 20.2272 21.8627H9.76681ZM11.9988 14.9934C12.001 14.1984 12.3178 13.4368 12.8799 12.8747C13.4421 12.3126 14.2038 11.9957 14.9988 11.9934C15.5921 11.9934 16.1722 12.17 16.6655 12.4997C17.1589 12.8293 17.5434 13.2968 17.7704 13.845C17.9975 14.3931 18.0569 14.9974 17.9411 15.5793C17.8254 16.1612 17.5397 16.6949 17.1201 17.1144C16.7005 17.5339 16.166 17.8189 15.5841 17.9347C15.0021 18.0504 14.3989 17.993 13.8508 17.7659C13.3026 17.5389 12.834 17.1531 12.5044 16.6597C12.1747 16.1664 11.9988 15.5867 11.9988 14.9934ZM18.6612 8.43338L21.1812 8.42635H21.5592V11.3185H18.6792L18.6612 8.43338Z" fill="white"/>
</svg>
