<svg width="30" height="30" viewBox="0 0 30 30" fill="none" xmlns="http://www.w3.org/2000/svg">
<path d="M0 14.9999C4.65125e-07 12.0335 0.879517 9.1344 2.52737 6.66783C4.17521 4.20126 6.5174 2.2768 9.2578 1.14123C11.9982 0.00566314 15.0138 -0.290001 17.9233 0.288101C20.8328 0.866202 23.5055 2.29273 25.6036 4.38969C27.7017 6.48665 29.131 9.15868 29.7107 12.0679C30.2905 14.977 29.9946 17.994 28.8606 20.7351C27.7266 23.4762 25.8053 25.8195 23.3396 27.4687C20.874 29.118 17.9748 29.9983 15.0084 30C13.0379 30.0011 11.0864 29.6143 9.26557 28.8609C7.44472 28.1076 5.79013 27.0031 4.39636 25.6101C3.00259 24.2171 1.897 22.5626 1.14265 20.7421C0.388305 18.9217 -3.0898e-07 16.9705 0 14.9999ZM8.73962 13.4835C8.30418 13.5354 7.89575 13.7206 7.57118 14.0155C7.24662 14.3104 7.02204 14.7003 6.92878 15.1288C6.68692 16.4313 6.58878 17.7564 6.63603 19.0804C6.58585 20.4044 6.68401 21.7298 6.92878 23.032C7.02058 23.4593 7.24331 23.8457 7.56591 24.1406C7.88851 24.4354 8.29496 24.6242 8.72878 24.6773C12.9017 24.9898 17.0922 24.9898 21.2652 24.6773C21.7009 24.6263 22.1099 24.4403 22.4346 24.1453C22.7593 23.8502 22.9836 23.4609 23.076 23.032C23.463 20.4118 23.463 17.749 23.076 15.1288C22.9828 14.7003 22.7582 14.3104 22.4336 14.0155C22.1091 13.7206 21.7006 13.5354 21.2652 13.4835C17.0922 13.171 12.9017 13.171 8.72878 13.4835H8.73962ZM16.6752 11.4749C16.6627 11.7578 16.693 12.0401 16.7652 12.314C16.8117 12.4483 16.9022 12.5631 17.0219 12.6397C17.1417 12.7164 17.2837 12.7499 17.4252 12.7358C17.6581 12.7092 17.8827 12.6336 18.0838 12.5132C18.285 12.3927 18.4582 12.2301 18.5916 12.0374V12.6632H19.614V7.01236H18.5916V11.3319C18.3624 11.6511 18.15 11.8124 17.9472 11.8124C17.8092 11.8124 17.7288 11.7318 17.7072 11.571C17.6881 11.4367 17.6829 11.3009 17.6916 11.1655V7.01236H16.674L16.6752 11.4749ZM13.134 7.52799C12.8882 7.92435 12.7763 8.38977 12.8148 8.85456V10.828C12.7774 11.2942 12.8892 11.7607 13.134 12.1593C13.276 12.3391 13.4569 12.4836 13.663 12.5835C13.8692 12.6834 14.0953 12.7358 14.3244 12.7358C14.5535 12.7358 14.7796 12.6834 14.9858 12.5835C15.1919 12.4836 15.3728 12.3391 15.5148 12.1593C15.7596 11.7607 15.8714 11.2942 15.834 10.828V8.85456C15.8732 8.38972 15.7612 7.92409 15.5148 7.52799C15.3724 7.34879 15.1915 7.20326 14.9853 7.10377C14.7792 7.00428 14.5533 6.95377 14.3244 6.95377C14.0955 6.95377 13.8696 7.00428 13.6635 7.10377C13.4573 7.20326 13.2764 7.34879 13.134 7.52799ZM9.61317 7.19283C9.89765 7.97637 10.129 8.77819 10.3056 9.59284V12.6608H11.4396V9.59284L12.8028 5.08813H11.658L10.8864 8.06002L10.0824 5.08813H8.88962C9.12362 5.78653 9.37317 6.49683 9.61317 7.19283ZM19.4232 22.0523C19.1775 21.658 19.0636 21.1961 19.098 20.7328V18.7851C19.0571 18.3226 19.1674 17.8599 19.4124 17.4655C19.5514 17.2783 19.7343 17.1271 19.9451 17.0273C20.1558 16.9274 20.3879 16.8802 20.6208 16.8913C20.8514 16.8809 21.081 16.9297 21.2891 17.0296C21.4973 17.1295 21.6775 17.2791 21.8136 17.4655C22.0562 17.8609 22.1662 18.3228 22.128 18.7851V19.9406H20.1048V20.9249C20.1048 21.4481 20.2752 21.7007 20.6208 21.7007C20.7341 21.7051 20.8447 21.6663 20.9291 21.5906C21.0135 21.5149 21.0652 21.4084 21.0732 21.2953C21.0931 21.0686 21.1003 20.843 21.0948 20.6156H22.128V20.7609C22.128 21.0849 22.1172 21.3141 22.1064 21.4101C22.0771 21.629 21.9947 21.8373 21.8664 22.0171C21.7329 22.2151 21.5505 22.3748 21.3368 22.4812C21.1231 22.5876 20.8855 22.6369 20.6472 22.6242C20.4122 22.6351 20.178 22.5877 19.9648 22.4882C19.7517 22.3887 19.5658 22.2394 19.4232 22.0523ZM20.1048 18.5718V19.0945H21.1164V18.5718C21.1164 18.0558 20.946 17.8054 20.61 17.8054C20.274 17.8054 20.1048 18.0581 20.1048 18.5741V18.5718ZM16.356 22.0031V22.5398H15.3444V15.0515H16.356V17.5007C16.4705 17.325 16.6246 17.1796 16.8059 17.0741C16.9872 16.9687 17.1906 16.9063 17.4 16.8937C17.5868 16.8859 17.7704 16.9436 17.9185 17.0577C18.0667 17.1718 18.1698 17.3345 18.21 17.5171C18.293 17.8875 18.327 18.2676 18.3108 18.6468V20.8687C18.3257 21.2459 18.2917 21.6228 18.21 21.9914C18.1697 22.1742 18.0666 22.3384 17.9186 22.4531C17.7706 22.5677 17.5871 22.6261 17.4 22.6195C17.1903 22.6046 16.987 22.5409 16.8058 22.4343C16.6247 22.3277 16.4707 22.1815 16.356 22.0054V22.0031ZM16.356 18.0491V21.4523C16.4189 21.5245 16.4955 21.5835 16.5814 21.6257C16.6674 21.668 16.7608 21.6927 16.8564 21.6984C17.1492 21.6984 17.298 21.4526 17.298 20.9413V18.5624C17.298 18.056 17.1492 17.8054 16.8564 17.8054C16.7608 17.8111 16.6674 17.8358 16.5814 17.878C16.4955 17.9203 16.4189 17.9793 16.356 18.0515V18.0491ZM11.6484 22.2046C11.5781 21.9304 11.5478 21.6484 11.5584 21.3656V16.957H12.57V21.0679C12.5642 21.1992 12.5677 21.3309 12.5808 21.4617C12.6024 21.6165 12.6816 21.7007 12.8208 21.7007C13.0236 21.7007 13.236 21.5464 13.4604 21.232V16.9616H14.472V22.5398H13.4604V21.9328C13.3289 22.1239 13.1574 22.2854 12.9579 22.4039C12.7584 22.5224 12.5356 22.5954 12.3048 22.6195C12.1646 22.6358 12.023 22.6031 11.9035 22.5281C11.7839 22.453 11.6935 22.3403 11.6472 22.207L11.6484 22.2046ZM9.07558 22.5398V16.1062H7.88283V15.0515H11.4132V16.1062H10.1988V22.5398H9.07558ZM13.8372 11.0202V8.64362C13.8372 8.12042 13.9968 7.86315 14.3172 7.86315C14.6376 7.86315 14.8068 8.12162 14.8068 8.64362V11.0202C14.8068 11.547 14.6472 11.8007 14.3172 11.8007C13.9872 11.8007 13.8372 11.5493 13.8372 11.0225V11.0202Z" fill="white"/>
</svg>
