<svg width="30" height="30" viewBox="0 0 30 30" fill="none" xmlns="http://www.w3.org/2000/svg">
<path d="M15.0032 30C11.5328 30.0007 8.16953 28.7979 5.48644 26.5968C2.80335 24.3958 0.966445 21.3333 0.288778 17.9297C-0.388889 14.5261 0.134607 10.9922 1.77003 7.93127C3.40544 4.87038 6.05161 2.47235 9.25764 1.1438C12.4637 -0.184761 16.0312 -0.362362 19.3523 0.644578C22.6734 1.65152 25.5426 3.78036 27.471 6.66565C29.3994 9.55094 30.2677 13.0158 29.9279 16.4695C29.5881 19.9232 28.0613 23.1513 25.6076 25.6054C24.2183 27.0027 22.5658 28.1113 20.7455 28.8656C18.9253 29.6199 16.9736 30.005 15.0032 30ZM18.1508 15.2414C19.2488 15.2414 19.8308 15.9592 19.8308 17.332V22.2984H23.138V16.9758C23.138 14.3598 21.7148 12.8016 19.3304 12.8016C18.7424 12.77 18.1566 12.8937 17.6327 13.1625C17.1088 13.4313 16.6657 13.8336 16.3484 14.3297V13.0102H13.0364C13.0832 13.873 13.0364 22.2097 13.0364 22.2937H16.3484V17.107C16.3342 16.8556 16.3705 16.6036 16.4552 16.3664C16.5931 16.0303 16.8283 15.7428 17.1306 15.5414C17.433 15.34 17.7887 15.2344 18.152 15.2367L18.1508 15.2414ZM7.89321 13.0149V22.2984H11.2052V13.0149H7.89321ZM9.5732 8.55705C9.34407 8.52075 9.10983 8.53234 8.88634 8.59455C8.66284 8.65676 8.45534 8.76852 8.27791 8.91799C8.10049 9.06746 7.95731 9.25205 7.85805 9.46174C7.7588 9.67142 7.7058 9.90008 7.70267 10.132C7.69954 10.364 7.74633 10.5948 7.83989 10.807C7.93345 11.0193 8.07159 11.2083 8.24492 11.3625C8.41824 11.5167 8.62271 11.6318 8.84444 11.7C9.06618 11.7682 9.29999 11.7887 9.53002 11.7586H9.55163C9.78172 11.7948 10.0169 11.7795 10.2411 11.7164C10.4653 11.6534 10.6733 11.5438 10.8508 11.393C11.0284 11.2422 11.1712 11.0556 11.2697 10.8445C11.3683 10.6335 11.4201 10.4025 11.4216 10.1695C11.4232 9.93664 11.3745 9.70691 11.2789 9.49455C11.1832 9.28219 11.0429 9.09224 10.8674 8.93908C10.6919 8.78593 10.4854 8.67234 10.2621 8.60627C10.0387 8.5402 9.80376 8.524 9.5732 8.55705Z" fill="white"/>
</svg>
