<svg width="30" height="30" viewBox="0 0 30 30" fill="none" xmlns="http://www.w3.org/2000/svg">
<path d="M15.002 29.9999C11.5318 30.0004 8.1688 28.7979 5.48595 26.5968C2.80311 24.3958 0.966388 21.333 0.288772 17.9296C-0.388845 14.5262 0.134544 10.992 1.76976 7.93117C3.40498 4.87039 6.05086 2.47239 9.2566 1.14367C12.4623 -0.18505 16.0296 -0.362066 19.3507 0.644451C22.6717 1.65097 25.541 3.77836 27.4697 6.6632C29.3985 9.54805 30.2673 13.0135 29.9282 16.4671C29.5891 19.9207 28.063 23.1485 25.61 25.6031C24.2208 27.0015 22.5678 28.1108 20.7468 28.8656C18.9259 29.6203 16.9732 30.0056 15.002 29.9999ZM6.00202 20.7163C7.71197 21.7421 9.66959 22.2825 11.6636 22.2773C13.0046 22.3354 14.3436 22.1248 15.6022 21.6585C16.8608 21.1922 18.0136 20.4787 18.993 19.5609C19.9723 18.6431 20.7585 17.5405 21.3055 16.3148C21.8524 15.0891 22.1491 13.766 22.178 12.4241C22.178 12.2669 22.178 12.1195 22.1672 11.9671C22.8842 11.4842 23.5099 10.8778 24.0152 10.1765C23.3366 10.4587 22.6208 10.642 21.89 10.7202C22.6491 10.305 23.2278 9.62402 23.5148 8.80774C22.7822 9.20828 21.9914 9.49077 21.1712 9.6468C20.8158 9.29517 20.3942 9.01863 19.9307 8.83117C19.4672 8.64372 18.9711 8.54891 18.4712 8.55461C17.5225 8.52547 16.6009 8.87372 15.9082 9.52258C15.2155 10.1714 14.8081 11.0678 14.7752 12.0163C14.7741 12.2801 14.8063 12.5434 14.8712 12.7991C13.4234 12.7408 12.0024 12.3894 10.6936 11.7679C9.38471 11.1464 8.21502 10.2678 7.25482 9.18274C6.92796 9.70469 6.75457 10.3083 6.75443 10.9241C6.76026 11.5048 6.9146 12.0747 7.20279 12.5788C7.49098 13.083 7.9034 13.505 8.40081 13.8046C7.81817 13.7909 7.24625 13.6447 6.72803 13.3781V13.4156C6.74786 14.2385 7.05472 15.0286 7.59555 15.6491C8.13637 16.2697 8.87711 16.6818 9.68961 16.814C9.37122 16.8952 9.04381 16.935 8.71523 16.9335C8.48322 16.9329 8.25161 16.9134 8.0228 16.8749C8.28263 17.5805 8.7531 18.1894 9.37042 18.6187C9.98775 19.048 10.7221 19.277 11.474 19.2749C10.14 20.2447 8.53208 20.7653 6.88283 20.7609C6.5882 20.7658 6.29354 20.7501 6.00081 20.7163H6.00202Z" fill="white"/>
</svg>
