<svg width="61" height="11" viewBox="0 0 61 11" fill="none" xmlns="http://www.w3.org/2000/svg">
<path fill-rule="evenodd" clip-rule="evenodd" d="M5.45687 8.81562L2.65766 10.272C2.39754 10.4074 2.07577 10.3084 1.93892 10.0482C1.88442 9.9457 1.86564 9.82829 1.88548 9.71417C2.22146 7.7851 1.56929 5.80558 0.160717 4.44539C-0.0496479 4.2423 -0.0541719 3.90912 0.151103 3.7007C0.232753 3.61774 0.339795 3.56375 0.455623 3.54712C2.3994 3.26916 4.10879 2.05074 4.98525 0.293651C5.11531 0.0329261 5.43764 -0.0742174 5.69777 0.0544667C5.80278 0.105681 5.88776 0.18976 5.93952 0.293651C6.81598 2.05074 8.52537 3.26916 10.4691 3.54712C10.5675 3.56106 10.66 3.60199 10.736 3.66529C10.8121 3.72859 10.8686 3.81171 10.8994 3.90522C10.9301 3.99873 10.9337 4.09888 10.9097 4.19431C10.8858 4.28974 10.8354 4.37663 10.7641 4.44511C9.35548 5.80529 8.70331 7.78482 9.03929 9.71389C9.05118 9.78204 9.04936 9.85185 9.03394 9.91931C9.01853 9.98677 8.98981 10.0506 8.94944 10.107C8.90908 10.1635 8.85785 10.2115 8.79869 10.2484C8.73954 10.2852 8.67362 10.3102 8.6047 10.3218C8.48934 10.3414 8.37059 10.3229 8.2671 10.2658L5.4791 8.81529C5.47211 8.81165 5.46375 8.81177 5.45687 8.81562ZM17.8172 8.81562L15.0174 10.272C14.7573 10.4074 14.4355 10.3084 14.2987 10.0482C14.2442 9.9457 14.2254 9.82829 14.2452 9.71417C14.5812 7.7851 13.9291 5.80558 12.5205 4.44539C12.3101 4.2423 12.3056 3.90912 12.5109 3.7007C12.5925 3.61774 12.6996 3.56375 12.8154 3.54712C14.7592 3.26916 16.4686 2.05074 17.345 0.293651C17.4751 0.0329261 17.7974 -0.0742174 18.0575 0.0544667C18.1625 0.105681 18.2475 0.18976 18.2993 0.293651C19.1757 2.05074 20.8851 3.26916 22.8289 3.54712C22.9273 3.56106 23.0197 3.60199 23.0958 3.66529C23.1718 3.72859 23.2284 3.81171 23.2591 3.90522C23.2898 3.99873 23.2934 4.09888 23.2695 4.19431C23.2456 4.28974 23.1951 4.37663 23.1238 4.44511C21.7152 5.8053 21.0631 7.78482 21.3991 9.71389C21.4109 9.78204 21.4091 9.85185 21.3937 9.91931C21.3783 9.98677 21.3496 10.0506 21.3092 10.107C21.2688 10.1635 21.2176 10.2115 21.1585 10.2484C21.0993 10.2852 21.0334 10.3102 20.9645 10.3218C20.8491 10.3414 20.7304 10.3229 20.6269 10.2658L17.8384 8.81506C17.8317 8.81158 17.8237 8.81179 17.8172 8.81562ZM30.1795 8.81562L27.3797 10.272C27.1196 10.4074 26.7978 10.3084 26.661 10.0482C26.6065 9.9457 26.5877 9.82829 26.6076 9.71417C26.9435 7.7851 26.2914 5.80558 24.8828 4.44539C24.8114 4.37692 24.7609 4.29001 24.7369 4.19454C24.7129 4.09907 24.7165 3.99886 24.7472 3.9053C24.7779 3.81174 24.8346 3.72858 24.9107 3.66526C24.9868 3.60195 25.0793 3.56102 25.1777 3.54712C27.1215 3.26916 28.8309 2.05074 29.7073 0.293651C29.8374 0.0329261 30.1597 -0.0742174 30.4198 0.0544667C30.5247 0.105852 30.6097 0.189882 30.6616 0.293651C31.5381 2.05074 33.2475 3.26916 35.1912 3.54712C35.4825 3.58908 35.6832 3.85624 35.6414 4.14382C35.6245 4.25842 35.57 4.36433 35.4861 4.44511C34.0776 5.8053 33.4254 7.78482 33.7614 9.71389C33.8108 10.0006 33.6163 10.2728 33.3265 10.3218C33.2111 10.3414 33.0927 10.3229 32.9889 10.2658L30.2002 8.81495C30.1937 8.81154 30.1858 8.81179 30.1795 8.81562ZM42.5398 8.81562L39.7406 10.272C39.6786 10.3042 39.6108 10.3239 39.541 10.3301C39.4712 10.3363 39.4009 10.3288 39.3341 10.308C39.2673 10.2872 39.2053 10.2535 39.1516 10.2089C39.098 10.1644 39.0538 10.1097 39.0216 10.0482C38.9673 9.9458 38.9481 9.8283 38.9651 9.71417C39.301 7.7851 38.6489 5.80557 37.2403 4.44539C37.1689 4.37692 37.1184 4.29001 37.0944 4.19454C37.0704 4.09907 37.074 3.99886 37.1047 3.9053C37.1354 3.81174 37.1921 3.72858 37.2682 3.66526C37.3443 3.60195 37.4368 3.56102 37.5352 3.54712C39.479 3.26916 41.1884 2.05074 42.0648 0.293651C42.1949 0.0329261 42.5172 -0.0742174 42.7774 0.0544667C42.8822 0.105852 42.9672 0.189882 43.0191 0.293651C43.8956 2.05074 45.605 3.26916 47.5487 3.54712C47.6179 3.55699 47.6845 3.58026 47.7445 3.6156C47.8046 3.65095 47.8571 3.69767 47.8989 3.75309C47.9407 3.80852 47.9711 3.87156 47.9882 3.93861C48.0054 4.00565 48.009 4.07539 47.9989 4.14382C47.9819 4.25572 47.9276 4.36426 47.8433 4.44511C46.4348 5.80529 45.7826 7.78482 46.1186 9.71389C46.1356 9.81078 46.1248 9.91045 46.0875 10.0016C46.0501 10.0927 45.9877 10.1717 45.9073 10.2295C45.8269 10.2873 45.7317 10.3216 45.6326 10.3286C45.5334 10.3355 45.4343 10.3149 45.3464 10.2689L42.5532 8.81598C42.5491 8.81381 42.5441 8.81367 42.5398 8.81562Z" fill="#FFAD00"/>
<path d="M52.1815 10.272L54.9807 8.81562C54.985 8.81367 54.9899 8.81381 54.9941 8.81598L57.7873 10.2689C57.8751 10.3149 57.9743 10.3355 58.0734 10.3286C58.1726 10.3216 58.2677 10.2873 58.3482 10.2295C58.4286 10.1717 58.491 10.0927 58.5283 10.0016C58.5657 9.91045 58.5765 9.81078 58.5594 9.71389C58.2235 7.78482 58.8756 5.80529 60.2842 4.44511C60.3685 4.36426 60.4227 4.25572 60.4397 4.14382C60.4498 4.07539 60.4462 4.00565 60.4291 3.93861C60.4119 3.87156 60.3816 3.80852 60.3397 3.75309C60.2979 3.69767 60.2455 3.65095 60.1854 3.6156C60.1253 3.58026 60.0588 3.55699 59.9896 3.54712C58.0458 3.26916 56.3364 2.05074 55.4599 0.293651C55.408 0.189882 55.3231 0.105852 55.2182 0.0544667C54.9581 -0.0742174 54.6357 0.0329261 54.5057 0.293651C53.6292 2.05074 51.9198 3.26916 49.9761 3.54712C49.8776 3.56102 49.7851 3.60195 49.709 3.66526C49.6329 3.72858 49.5763 3.81174 49.5456 3.9053C49.5149 3.99886 49.5113 4.09907 49.5352 4.19454C49.5592 4.29001 49.6098 4.37692 49.6811 4.44539C51.0897 5.80557 51.7419 7.7851 51.4059 9.71417C51.3889 9.8283 51.4082 9.9458 51.4625 10.0482C51.4947 10.1097 51.5389 10.1644 51.5925 10.2089C51.6461 10.2535 51.7081 10.2872 51.7749 10.308C51.8418 10.3288 51.9121 10.3363 51.9818 10.3301C52.0516 10.3239 52.1195 10.3042 52.1815 10.272Z" fill="#FFAD00"/>
</svg>
