<svg width="101" height="18" viewBox="0 0 101 18" fill="none" xmlns="http://www.w3.org/2000/svg">
<mask id="mask0_2341_45076" style="mask-type:luminance" maskUnits="userSpaceOnUse" x="0" y="0" width="101" height="18">
<path d="M100.547 0.810547H0.546875V17.8105H100.547V0.810547Z" fill="white"/>
</mask>
<g mask="url(#mask0_2341_45076)">
<path fill-rule="evenodd" clip-rule="evenodd" d="M8.71067 1.29161C9.02069 0.650193 9.52775 0.650193 9.83778 1.29161L11.5986 4.93592C11.9087 5.57733 12.7289 6.18623 13.4222 6.28896L17.3596 6.87316C18.0525 6.97589 18.2095 7.46873 17.7078 7.96808L14.8584 10.8045C14.357 11.3039 14.0438 12.2889 14.1622 12.9937L14.8345 16.9989C14.9529 17.704 14.5426 18.0086 13.9229 17.6754L10.4012 15.7847C9.78112 15.4521 8.76732 15.4521 8.14727 15.7847L4.62556 17.6754C4.00583 18.0086 3.59553 17.704 3.71394 16.9989L4.3862 12.9937C4.50461 12.2889 4.1914 11.3039 3.69007 10.8045L0.840618 7.96808C0.338972 7.46873 0.495896 6.97589 1.18884 6.87316L5.12625 6.28896C5.81952 6.18623 6.63979 5.57733 6.94981 4.93592L8.71067 1.29161Z" fill="#FFC414"/>
<path fill-rule="evenodd" clip-rule="evenodd" d="M29.3435 1.29161C29.6535 0.650193 30.1606 0.650193 30.4706 1.29161L32.2314 4.93592C32.5415 5.57733 33.3617 6.18623 34.055 6.28896L37.9924 6.87316C38.6854 6.97589 38.8423 7.46873 38.3406 7.96808L35.4912 10.8045C34.9899 11.3039 34.6766 12.2889 34.7951 12.9937L35.4673 16.9989C35.5857 17.704 35.1754 18.0086 34.5557 17.6754L31.034 15.7847C30.4139 15.4521 29.4001 15.4521 28.7801 15.7847L25.2584 17.6754C24.6386 18.0086 24.2283 17.704 24.3468 16.9989L25.019 12.9937C25.1374 12.2889 24.8242 11.3039 24.3229 10.8045L21.4734 7.96808C20.9718 7.46873 21.1287 6.97589 21.8217 6.87316L25.7591 6.28896C26.4523 6.18623 27.2726 5.57733 27.5826 4.93592L29.3435 1.29161Z" fill="#FFC414"/>
<path fill-rule="evenodd" clip-rule="evenodd" d="M49.9841 1.29161C50.2941 0.650193 50.8012 0.650193 51.1112 1.29161L52.8721 4.93592C53.1821 5.57733 54.0024 6.18623 54.6956 6.28896L58.633 6.87316C59.326 6.97589 59.4829 7.46873 58.9813 7.96808L56.1318 10.8045C55.6305 11.3039 55.3173 12.2889 55.4357 12.9937L56.1079 16.9989C56.2263 17.704 55.8161 18.0086 55.1963 17.6754L51.6746 15.7847C51.0546 15.4521 50.0408 15.4521 49.4207 15.7847L45.899 17.6754C45.2793 18.0086 44.869 17.704 44.9874 16.9989L45.6596 12.9937C45.778 12.2889 45.4648 11.3039 44.9635 10.8045L42.1141 7.96808C41.6124 7.46873 41.7693 6.97589 42.4623 6.87316L46.3997 6.28896C47.093 6.18623 47.9132 5.57733 48.2232 4.93592L49.9841 1.29161Z" fill="#FFC414"/>
<path fill-rule="evenodd" clip-rule="evenodd" d="M70.6169 1.29161C70.9269 0.650193 71.434 0.650193 71.744 1.29161L73.5049 4.93592C73.8149 5.57733 74.6352 6.18623 75.3284 6.28896L79.2659 6.87316C79.9588 6.97589 80.1157 7.46873 79.6141 7.96808L76.7646 10.8045C76.2633 11.3039 75.9501 12.2889 76.0685 12.9937L76.7408 16.9989C76.8592 17.704 76.4489 18.0086 75.8291 17.6754L72.3074 15.7847C71.6874 15.4521 70.6736 15.4521 70.0535 15.7847L66.5318 17.6754C65.9121 18.0086 65.5018 17.704 65.6202 16.9989L66.2925 12.9937C66.4109 12.2889 66.0976 11.3039 65.5963 10.8045L62.7469 7.96808C62.2452 7.46873 62.4021 6.97589 63.0951 6.87316L67.0325 6.28896C67.7258 6.18623 68.546 5.57733 68.8561 4.93592L70.6169 1.29161Z" fill="#FFC414"/>
<path fill-rule="evenodd" clip-rule="evenodd" d="M91.2575 1.29161C91.5676 0.650193 92.0746 0.650193 92.3846 1.29161L94.1455 4.93592C94.4555 5.57733 95.2758 6.18623 95.9691 6.28896L99.9065 6.87316C100.599 6.97589 100.756 7.46873 100.255 7.96808L97.4053 10.8045C96.9039 11.3039 96.5907 12.2889 96.7091 12.9937L97.3814 16.9989C97.4998 17.704 97.0895 18.0086 96.4698 17.6754L92.9481 15.7847C92.328 15.4521 91.3142 15.4521 90.6941 15.7847L87.1724 17.6754C86.5527 18.0086 86.1424 17.704 86.2608 16.9989L86.9331 12.9937C87.0515 12.2889 86.7383 11.3039 86.2369 10.8045L83.3875 7.96808C82.8858 7.46873 83.0428 6.97589 83.7357 6.87316L87.6731 6.28896C88.3664 6.18623 89.1867 5.57733 89.4967 4.93592L91.2575 1.29161Z" fill="#DFE5EE"/>
<mask id="mask1_2341_45076" style="mask-type:luminance" maskUnits="userSpaceOnUse" x="83" y="0" width="18" height="18">
<path d="M91.2575 1.29161C91.5676 0.650193 92.0746 0.650193 92.3847 1.29161L94.1455 4.93592C94.4555 5.57733 95.2758 6.18623 95.9691 6.28896L99.9065 6.87316C100.599 6.97589 100.756 7.46873 100.255 7.96808L97.4053 10.8045C96.9039 11.3039 96.5907 12.2889 96.7091 12.9937L97.3814 16.9989C97.4998 17.704 97.0895 18.0086 96.4698 17.6754L92.9481 15.7847C92.328 15.4521 91.3142 15.4521 90.6941 15.7847L87.1724 17.6754C86.5527 18.0086 86.1424 17.704 86.2608 16.9989L86.9331 12.9937C87.0515 12.2889 86.7383 11.3039 86.2369 10.8045L83.3875 7.96808C82.8858 7.46873 83.0428 6.97589 83.7357 6.87316L87.6731 6.28896C88.3664 6.18623 89.1867 5.57733 89.4967 4.93592L91.2575 1.29161Z" fill="white"/>
</mask>
<g mask="url(#mask1_2341_45076)">
<path d="M91.9687 -11.502H78.3984V27.8984H91.9687V-11.502Z" fill="#FFC414"/>
</g>
</g>
</svg>
