<svg width="20" height="20" viewBox="0 0 20 20" fill="none" xmlns="http://www.w3.org/2000/svg">
<path d="M14.4983 19.3341H4.8326C2.16748 19.3341 -0.000244141 17.1655 -0.000244141 14.5012V9.37747C-0.000244141 8.68512 0.355909 8.06164 0.953101 7.71094C1.54667 7.36114 2.26622 7.35026 2.87155 7.68738L9.66542 11.4619L16.4602 7.68738C17.0656 7.35027 17.7833 7.36115 18.3787 7.71094C18.9759 8.06164 19.332 8.68512 19.332 9.37747V14.5003C19.332 17.1654 17.1635 19.3341 14.4983 19.3341ZM1.93271 9.37655V14.5003C1.93271 16.0998 3.23314 17.4002 4.8326 17.4002H14.4992C16.0987 17.4002 17.3991 16.0998 17.3991 14.5003V9.37655L10.135 13.412C9.8441 13.5742 9.48704 13.5742 9.19705 13.412L1.93271 9.37655Z" fill="#05164D"/>
<path d="M9.66535 13.5325C9.50405 13.5325 9.34184 13.4917 9.19594 13.4111L2.42922 9.65212C2.12292 9.48084 1.93262 9.15823 1.93262 8.80663V4.83284C1.93262 2.16773 4.1012 0 6.76546 0H12.5652C15.2304 0 17.3981 2.16859 17.3981 4.83284V8.80663C17.3981 9.15823 17.2078 9.48084 16.9006 9.65121L10.1339 13.4102C9.98887 13.4917 9.82666 13.5325 9.66535 13.5325ZM3.86557 8.23754L9.66535 11.4592L15.4651 8.23754V4.83283C15.4651 3.23337 14.1647 1.93294 12.5652 1.93294H6.76546C5.166 1.93294 3.86557 3.23337 3.86557 4.83283V8.23754Z" fill="#05164D"/>
<path d="M11.5978 5.80016H7.73093C7.19716 5.80016 6.76489 5.36789 6.76489 4.83413C6.76489 4.30036 7.19716 3.86719 7.73183 3.86719H11.5987C12.1333 3.86719 12.5656 4.30036 12.5656 4.83413C12.5647 5.36789 12.1324 5.80016 11.5978 5.80016Z" fill="#05164D"/>
<path d="M9.66478 8.69951H7.73183C7.19716 8.69951 6.76489 8.26633 6.76489 7.73257C6.76489 7.1988 7.19716 6.76562 7.73183 6.76562H9.66478C10.1995 6.76562 10.6317 7.1988 10.6317 7.73257C10.6317 8.26724 10.1995 8.69951 9.66478 8.69951Z" fill="#05164D"/>
</svg>
