<svg width="16" height="16" viewBox="0 0 16 16" fill="none" xmlns="http://www.w3.org/2000/svg">
<path d="M3.49176 8.91021L14.7535 9.02964C15.007 9.03197 15.2217 8.94672 15.3977 8.77387C15.5734 8.60145 15.6623 8.38852 15.6647 8.13509C15.667 7.88166 15.5818 7.66692 15.4089 7.49087C15.2365 7.31524 15.0236 7.22626 14.7701 7.22393L3.50807 7.13618L8.36758 2.36526C8.54875 2.18739 8.64066 1.97703 8.64332 1.73416C8.64513 1.49128 8.5571 1.27926 8.37924 1.09809C8.20138 0.916927 7.99101 0.825016 7.74814 0.822359C7.50526 0.820548 7.29324 0.908573 7.11208 1.08644L0.717985 7.36397C0.53682 7.54184 0.445121 7.75199 0.442891 7.99444C0.440653 8.23774 0.528466 8.44997 0.70633 8.63114L6.98387 15.0252C7.16173 15.2064 7.3721 15.2979 7.61498 15.2997C7.85785 15.3024 8.06986 15.2147 8.25103 15.0369C8.43219 14.859 8.52368 14.6487 8.5255 14.4058C8.52815 14.1629 8.44055 13.9509 8.26268 13.7697L3.49176 8.91021Z" fill="white" fill-opacity="0.5"/>
</svg>
